<svg width="347" height="347" viewBox="0 0 347 347" fill="none" xmlns="http://www.w3.org/2000/svg">
<rect x="0.5" y="0.5" width="346" height="346" rx="20.5" fill="white" stroke="url(#paint0_linear_586_1016)"/>
<path d="M27.668 70V50.2031H35.4336C39.9453 50.2031 42.5156 52.9648 42.5156 56.875C42.5156 60.8398 39.8906 63.5469 35.3242 63.5469H31.7695V70H27.668ZM31.7695 60.2383H34.668C37.1016 60.2383 38.2773 58.8711 38.2773 56.875C38.2773 54.9062 37.1016 53.5664 34.668 53.5664H31.7695V60.2383ZM46.125 70H41.6953L48.5586 50.2031H53.8359L60.6719 70H56.2695L54.793 65.4336H47.6289L46.125 70ZM48.668 62.2344H53.7539L51.2656 54.6602H51.1289L48.668 62.2344ZM75.2188 57.0938C74.8906 54.9062 73.1953 53.5664 70.8984 53.5664C67.8086 53.5664 65.7852 55.9453 65.7852 60.1016C65.7852 64.3672 67.8359 66.6367 70.8711 66.6367C73.1406 66.6367 74.8086 65.3789 75.2188 63.2461L79.375 63.2734C78.9102 66.9375 75.8477 70.2734 70.8164 70.2734C65.5117 70.2734 61.6016 66.5547 61.6016 60.1016C61.6016 53.6484 65.5938 49.9297 70.8164 49.9297C75.3828 49.9297 78.8281 52.5547 79.375 57.0938H75.2188ZM82.2461 70V50.2031H95.5352V53.5938H86.3477V58.4062H94.8516V61.7969H86.3477V66.6094H95.5625V70H82.2461Z" fill="url(#paint1_linear_586_1016)"/>
<path d="M25.0454 130.168L324.045 130.168" stroke="url(#paint2_linear_586_1016)"/>
<path d="M33.9126 238.162C33.7954 237.049 32.897 236.385 31.4712 236.385C29.9868 236.385 29.1665 237.068 29.147 238.006C29.1274 239.021 30.2017 239.49 31.4126 239.764L32.6821 240.076C35.104 240.623 36.9204 241.854 36.9204 244.217C36.9204 246.814 34.8892 248.455 31.4517 248.455C28.0337 248.455 25.8462 246.873 25.7681 243.846H28.6196C28.7173 245.271 29.8501 245.994 31.4126 245.994C32.9556 245.994 33.9517 245.271 33.9517 244.217C33.9517 243.26 33.0728 242.811 31.5298 242.42L29.9868 242.049C27.604 241.463 26.1392 240.271 26.1392 238.201C26.1392 235.623 28.4048 233.924 31.4907 233.924C34.6157 233.924 36.686 235.662 36.7251 238.162H33.9126ZM43.5415 248.475C40.2993 248.475 38.3462 246.229 38.3462 242.986C38.3462 239.744 40.3188 237.518 43.5415 237.518C46.2759 237.518 48.1313 239.119 48.2485 241.541H45.5337C45.3579 240.486 44.6743 239.764 43.5806 239.764C42.1938 239.764 41.2759 240.936 41.2759 242.947C41.2759 244.998 42.1743 246.17 43.5806 246.17C44.5962 246.17 45.3579 245.545 45.5337 244.412H48.2485C48.1118 246.814 46.354 248.475 43.5415 248.475ZM54.811 248.475C51.6079 248.475 49.6157 246.268 49.6157 242.986C49.6157 239.705 51.6079 237.518 54.811 237.518C58.0142 237.518 60.0259 239.705 60.0259 242.986C60.0259 246.268 58.0142 248.475 54.811 248.475ZM54.8306 246.229C56.3149 246.229 57.0767 244.842 57.0767 242.986C57.0767 241.111 56.3149 239.725 54.8306 239.725C53.3267 239.725 52.5454 241.111 52.5454 242.986C52.5454 244.842 53.3267 246.229 54.8306 246.229ZM61.8423 252.244V237.654H64.6938V239.432H64.811C65.2017 238.572 66.061 237.518 67.8384 237.518C70.1821 237.518 72.1353 239.334 72.1353 242.967C72.1353 246.502 70.2603 248.436 67.8384 248.436C66.1001 248.436 65.2212 247.439 64.811 246.561H64.7329V252.244H61.8423ZM64.6743 242.947C64.6743 244.861 65.4946 246.131 66.9204 246.131C68.4048 246.131 69.186 244.822 69.186 242.947C69.186 241.092 68.4048 239.822 66.9204 239.822C65.4751 239.822 64.6743 241.033 64.6743 242.947ZM78.8149 248.475C75.5728 248.475 73.5806 246.365 73.5806 243.006C73.5806 239.725 75.5923 237.518 78.6978 237.518C81.4907 237.518 83.6782 239.275 83.6782 242.889V243.709H76.4321C76.4321 245.311 77.3892 246.307 78.8735 246.307C79.8501 246.307 80.5532 245.877 80.8462 245.232H83.6001C83.1899 247.186 81.4321 248.475 78.8149 248.475ZM76.4321 241.893H80.9438C80.9438 240.604 80.0454 239.686 78.7563 239.686C77.4282 239.686 76.481 240.672 76.4321 241.893Z" fill="url(#paint3_linear_586_1016)"/>
<path d="M36.9829 270.671C36.1079 270.671 35.3892 269.953 35.3892 269.062C35.3892 268.187 36.1079 267.468 36.9829 267.468C37.8735 267.468 38.5923 268.187 38.5923 269.062C38.5923 269.953 37.8735 270.671 36.9829 270.671ZM56.6235 262.921C56.6079 264.781 59.0923 266.359 61.5142 266.718L61.061 267.687C58.8892 267.32 56.7798 266.164 55.936 264.484C55.0923 266.164 52.9751 267.32 50.8423 267.687L50.3579 266.718C52.7642 266.359 55.2485 264.781 55.2485 262.921V262.828H50.7954V261.828H61.061V262.828H56.6235V262.921ZM62.2642 268.875V269.89H56.5142V274.843H55.311V269.89H49.6079V268.875H62.2642ZM76.1548 272.031V273.062H63.436V272.031H66.5923V268.281C65.4048 267.664 64.686 266.664 64.686 265.406C64.686 263.25 66.7954 261.843 69.7642 261.828C72.7329 261.843 74.8423 263.25 74.8423 265.406C74.8423 266.64 74.147 267.632 72.9985 268.25V272.031H76.1548ZM69.7642 262.843C67.4829 262.828 65.8735 263.859 65.8735 265.406C65.8735 266.953 67.4829 268 69.7642 268C72.0298 268 73.6548 266.953 73.6548 265.406C73.6548 263.859 72.0298 262.828 69.7642 262.843ZM67.7954 272.031H71.7642V268.718C71.1626 268.882 70.4907 268.968 69.7642 268.968C69.0532 268.968 68.3892 268.89 67.7954 268.734V272.031ZM93.1392 260.953V274.843H91.936V267.578H90.0142V274.156H88.8423V261.328H90.0142V266.562H91.936V260.953H93.1392ZM87.2642 262.765C87.2485 266.296 86.0142 269.64 82.0142 271.859L81.2954 271C84.522 269.203 85.8579 266.656 86.061 263.781H81.8267V262.765H87.2642ZM97.186 261.656V267.468C99.3501 267.46 101.045 267.367 102.936 267L103.092 268.015C101.061 268.39 99.3267 268.5 96.9829 268.5H95.936V261.656H97.186ZM106.624 260.953V269.14H105.389V265.953H101.405V265H105.389V263.5H101.405V262.546H105.389V260.953H106.624ZM106.624 269.75V274.656H97.6392V269.75H106.624ZM98.8423 270.734V273.656H105.405V270.734H98.8423ZM125.608 268.14V269.156H112.952V268.14H118.67V266.468H114.639V261.281H115.858V262.89H122.733V261.281H123.952V266.468H119.889V268.14H125.608ZM124.045 270.531V274.843H122.811V271.515H114.358V270.531H124.045ZM115.858 265.484H122.733V263.828H115.858V265.484ZM129.608 269.296V270.921H136.545V269.296H137.78V274.656H128.389V269.296H129.608ZM129.608 273.671H136.545V271.89H129.608V273.671ZM139.436 267.296V268.312H126.78V267.296H139.436ZM133.749 261.765C133.749 263.484 136.28 265.015 138.717 265.328L138.264 266.312C136.108 265.992 133.999 264.89 133.124 263.328C132.233 264.898 130.108 265.992 127.967 266.312L127.499 265.328C129.967 265 132.483 263.531 132.483 261.765V261.109H133.749V261.765ZM148.608 273.75C146.295 273.75 144.733 272.015 144.733 269.375C144.733 266.734 146.295 264.984 148.608 264.984C150.905 264.984 152.452 266.734 152.452 269.375C152.452 272.015 150.905 273.75 148.608 273.75ZM148.608 272.562C150.311 272.562 151.108 271.062 151.108 269.375C151.108 267.687 150.311 266.171 148.608 266.171C146.874 266.171 146.077 267.687 146.077 269.375C146.077 271.062 146.874 272.562 148.608 272.562ZM154.217 273.578V265.093H155.514V266.39H155.608C155.92 265.531 156.795 264.953 157.795 264.953C157.999 264.953 158.342 264.968 158.499 264.984V266.343C158.405 266.312 158.03 266.25 157.686 266.25C156.467 266.25 155.561 267.093 155.561 268.234V273.578H154.217ZM168.061 263.578C168.061 265.515 169.467 267.343 171.499 268.078L170.811 269.031C169.288 268.421 168.077 267.21 167.483 265.703C166.889 267.382 165.624 268.718 163.983 269.375L163.327 268.375C165.405 267.609 166.842 265.671 166.858 263.531V261.812H168.061V263.578ZM174.827 260.968V271.375H173.592V265.265H170.499V264.234H173.592V260.968H174.827ZM175.139 273.515V274.546H165.842V270.187H167.077V273.515H175.139ZM188.936 260.953V269.75H187.764V265.765H185.905V269.25H184.749V261.234H185.905V264.75H187.764V260.953H188.936ZM184.186 262.625V263.609H177.061V262.625H180.03V261.062H181.249V262.625H184.186ZM180.639 264.359C182.405 264.359 183.608 265.281 183.624 266.734C183.608 268.156 182.405 269.093 180.639 269.093C178.889 269.093 177.655 268.156 177.67 266.734C177.655 265.281 178.889 264.359 180.639 264.359ZM180.639 265.265C179.53 265.265 178.764 265.859 178.764 266.734C178.764 267.593 179.53 268.171 180.639 268.171C181.749 268.171 182.514 267.593 182.514 266.734C182.514 265.859 181.749 265.265 180.639 265.265ZM184.342 269.984C187.264 269.984 189.014 270.859 189.014 272.421C189.014 273.937 187.264 274.812 184.342 274.812C181.42 274.812 179.67 273.937 179.686 272.421C179.67 270.859 181.42 269.984 184.342 269.984ZM184.342 270.953C182.186 270.937 180.889 271.468 180.905 272.421C180.889 273.328 182.186 273.859 184.342 273.859C186.499 273.859 187.78 273.328 187.795 272.421C187.78 271.468 186.499 270.937 184.342 270.953ZM203.295 262.453V263.453H195.014V262.453H198.545V260.89H199.764V262.453H203.295ZM199.155 264.171C201.155 264.187 202.483 265.156 202.499 266.687C202.483 268.203 201.155 269.187 199.155 269.187C197.155 269.187 195.795 268.203 195.811 266.687C195.795 265.156 197.155 264.187 199.155 264.171ZM199.155 265.125C197.842 265.14 196.967 265.75 196.983 266.687C196.967 267.609 197.842 268.203 199.155 268.203C200.452 268.203 201.327 267.609 201.342 266.687C201.327 265.75 200.452 265.14 199.155 265.125ZM205.842 260.953V264.812H207.936V265.843H205.842V269.64H204.624V260.953H205.842ZM205.842 270.406V274.843H204.624V271.406H196.749V270.406H205.842ZM211.639 269.296V270.921H218.577V269.296H219.811V274.656H210.42V269.296H211.639ZM211.639 273.671H218.577V271.89H211.639V273.671ZM221.467 267.296V268.312H208.811V267.296H221.467ZM215.78 261.765C215.78 263.484 218.311 265.015 220.749 265.328L220.295 266.312C218.139 265.992 216.03 264.89 215.155 263.328C214.264 264.898 212.139 265.992 209.999 266.312L209.53 265.328C211.999 265 214.514 263.531 214.514 261.765V261.109H215.78V261.765ZM227.186 261.968C229.374 261.968 230.92 263.296 230.92 265.234C230.92 267.171 229.374 268.5 227.186 268.5C224.999 268.5 223.42 267.171 223.436 265.234C223.42 263.296 224.999 261.968 227.186 261.968ZM227.186 263.046C225.702 263.046 224.624 263.937 224.639 265.234C224.624 266.531 225.702 267.421 227.186 267.421C228.655 267.421 229.717 266.531 229.717 265.234C229.717 263.937 228.655 263.046 227.186 263.046ZM234.03 260.953V274.875H232.811V260.953H234.03ZM222.717 270.765C225.28 270.765 228.811 270.75 231.889 270.296L231.983 271.203C228.811 271.796 225.389 271.812 222.889 271.812L222.717 270.765ZM251.608 260.953V266.39H253.499V267.437H251.608V274.843H250.389V260.953H251.608ZM241.827 262.25V265.843H243.577V262.25H244.624V271.484H240.764V262.25H241.827ZM241.827 270.453H243.577V266.828H241.827V270.453ZM246.42 262.25V265.843H248.124V262.25H249.17V271.484H245.374V262.25H246.42ZM246.42 270.453H248.124V266.828H246.42V270.453ZM267.014 268.656V269.671H254.295V268.656H267.014ZM265.67 273.515V274.546H255.983V270.765H257.217V273.515H265.67ZM265.374 261.437V264.859H257.17V266.406H265.67V267.375H255.952V263.937H264.139V262.421H255.905V261.437H265.374ZM277.155 263.937C277.155 265.812 278.639 267.5 280.717 268.156L280.092 269.14C278.475 268.593 277.186 267.453 276.561 265.984C275.952 267.57 274.647 268.82 272.999 269.421L272.358 268.437C274.436 267.703 275.92 265.906 275.92 263.937V263.125H272.67V262.125H280.358V263.125H277.155V263.937ZM283.624 260.968V271.156H282.405V260.968H283.624ZM284.061 273.515V274.546H274.655V270.187H275.874V273.515H284.061ZM297.78 260.953V269.75H296.608V265.765H294.749V269.25H293.592V261.234H294.749V264.75H296.608V260.953H297.78ZM293.03 262.625V263.609H285.905V262.625H288.874V261.062H290.092V262.625H293.03ZM289.483 264.359C291.249 264.359 292.452 265.281 292.467 266.734C292.452 268.156 291.249 269.093 289.483 269.093C287.733 269.093 286.499 268.156 286.514 266.734C286.499 265.281 287.733 264.359 289.483 264.359ZM289.483 265.265C288.374 265.265 287.608 265.859 287.608 266.734C287.608 267.593 288.374 268.171 289.483 268.171C290.592 268.171 291.358 267.593 291.358 266.734C291.358 265.859 290.592 265.265 289.483 265.265ZM293.186 269.984C296.108 269.984 297.858 270.859 297.858 272.421C297.858 273.937 296.108 274.812 293.186 274.812C290.264 274.812 288.514 273.937 288.53 272.421C288.514 270.859 290.264 269.984 293.186 269.984ZM293.186 270.953C291.03 270.937 289.733 271.468 289.749 272.421C289.733 273.328 291.03 273.859 293.186 273.859C295.342 273.859 296.624 273.328 296.639 272.421C296.624 271.468 295.342 270.937 293.186 270.953ZM36.9829 296.671C36.1079 296.671 35.3892 295.953 35.3892 295.062C35.3892 294.187 36.1079 293.468 36.9829 293.468C37.8735 293.468 38.5923 294.187 38.5923 295.062C38.5923 295.953 37.8735 296.671 36.9829 296.671ZM60.4673 286.953V291.093H62.5767V292.125H60.4673V297.015H59.2485V286.953H60.4673ZM56.4517 288.156V289.187H51.4829V293.515C54.272 293.515 55.8579 293.445 57.7173 293.062L57.8735 294.078C55.9204 294.453 54.2642 294.546 51.3423 294.546H50.2642V288.156H56.4517ZM61.1079 299.515V300.546H51.7798V296H52.9829V299.515H61.1079ZM75.3267 286.953V300.843H74.1548V286.953H75.3267ZM72.5142 287.328V300.14H71.3423V295.328H68.7642V294.312H71.3423V291.843H68.9985C68.3188 294.195 66.7954 296.273 64.1704 297.843L63.4204 296.953C66.4438 295.164 67.9595 292.656 68.2017 289.75H64.0454V288.734H69.4204C69.4204 289.445 69.3579 290.148 69.2329 290.828H71.3423V287.328H72.5142ZM92.7329 286.953V300.875H91.4985V286.953H92.7329ZM85.3423 288.031C87.4048 288.046 88.8892 289.921 88.8892 292.875C88.8892 295.828 87.4048 297.703 85.3423 297.703C83.2642 297.703 81.7954 295.828 81.7954 292.875C81.7954 289.921 83.2642 288.046 85.3423 288.031ZM85.3423 289.125C83.9517 289.14 82.9829 290.609 82.9829 292.875C82.9829 295.14 83.9517 296.609 85.3423 296.609C86.7329 296.609 87.7017 295.14 87.7017 292.875C87.7017 290.609 86.7329 289.14 85.3423 289.125ZM107.78 293.828V294.812H95.1079V293.828H100.842V292.203H96.7173V287.609H106.202V288.593H97.9204V291.203H106.295V292.203H102.03V293.828H107.78ZM101.436 295.828C104.42 295.828 106.202 296.734 106.217 298.328C106.202 299.937 104.42 300.828 101.436 300.843C98.436 300.828 96.6392 299.937 96.6392 298.328C96.6392 296.734 98.436 295.828 101.436 295.828ZM101.436 296.796C99.2017 296.796 97.8735 297.375 97.8892 298.328C97.8735 299.296 99.2017 299.859 101.436 299.859C103.639 299.859 104.983 299.296 104.983 298.328C104.983 297.375 103.639 296.796 101.436 296.796ZM115.264 287.203C118.358 287.203 120.17 288.046 120.17 289.593C120.17 291.171 118.358 292.015 115.264 292.031C112.17 292.015 110.342 291.171 110.342 289.593C110.342 288.046 112.17 287.203 115.264 287.203ZM115.264 288.125C112.952 288.125 111.608 288.687 111.624 289.593C111.608 290.562 112.952 291.093 115.264 291.093C117.561 291.093 118.92 290.562 118.92 289.593C118.92 288.687 117.561 288.125 115.264 288.125ZM121.592 292.968V293.968H108.936V292.968H121.592ZM119.967 295.171V298.281H111.717V299.718H120.389V300.687H110.499V297.375H118.764V296.109H110.467V295.171H119.967ZM137.827 287.546V292.234H133.717V294.015H139.436V295.015H126.78V294.015H132.499V292.234H128.42V287.546H137.827ZM129.624 288.531V291.25H136.608V288.531H129.624ZM137.874 296.468V300.843H136.639V297.453H128.186V296.468H137.874ZM153.327 298.125V299.14H140.608V298.125H144.155V294.812H141.764V293.796H143.936V289.265H141.733V288.25H152.108V289.265H149.905V293.796H152.077V294.812H149.686V298.125H153.327ZM145.155 293.796H148.702V289.265H145.155V293.796ZM145.389 298.125H148.467V294.812H145.389V298.125ZM167.155 298.093V299.125H154.436V298.093H160.155V295.468H156.03V291.187H164.342V289H155.999V287.984H165.545V292.187H157.249V294.453H165.874V295.468H161.358V298.093H167.155ZM183.139 286.968V291.546H185.233V292.578H183.139V297.375H181.92V286.968H183.139ZM180.592 288.671V289.671H172.311V288.671H175.842V286.968H177.061V288.671H180.592ZM176.452 290.437C178.436 290.437 179.78 291.453 179.795 293.031C179.78 294.593 178.436 295.593 176.452 295.593C174.452 295.593 173.092 294.593 173.108 293.031C173.092 291.453 174.452 290.437 176.452 290.437ZM176.452 291.406C175.139 291.406 174.264 292.046 174.28 293.031C174.264 294.015 175.139 294.64 176.452 294.625C177.749 294.64 178.624 294.015 178.639 293.031C178.624 292.046 177.749 291.406 176.452 291.406ZM183.78 299.515V300.546H174.452V296.546H175.655V299.515H183.78ZM197.139 287.906V293.843H190.717V287.906H197.139ZM191.92 288.906V292.843H195.952V288.906H191.92ZM200.983 286.953V290.296H203.077V291.328H200.983V294.89H199.764V286.953H200.983ZM201.233 295.703V296.703H197.295C197.428 298.187 199.499 299.484 201.764 299.843L201.311 300.796C199.28 300.46 197.436 299.453 196.639 298.062C195.85 299.46 194.022 300.453 191.999 300.781L191.53 299.843C193.827 299.484 195.858 298.21 196.014 296.703H192.077V295.703H201.233ZM216.608 293.828V294.828H210.874V296.359H215.061V300.656H205.499V296.359H209.67V294.828H203.952V293.828H216.608ZM210.874 286.875V288.265H215.327V289.25H210.952C211.038 290.796 213.249 291.835 215.858 292.078L215.499 293C213.186 292.757 211.124 291.96 210.28 290.578C209.428 291.96 207.366 292.757 205.061 293L204.686 292.078C207.311 291.835 209.506 290.796 209.608 289.25H205.264V288.265H209.67V286.875H210.874ZM206.717 297.343V299.656H213.858V297.343H206.717ZM225.655 288.515V289.515H217.795V288.515H221.17V286.843H222.389V288.515H225.655ZM221.764 290.234C223.624 290.234 224.936 291.25 224.936 292.796C224.936 294.359 223.624 295.375 221.764 295.375C219.889 295.375 218.608 294.359 218.624 292.796C218.608 291.25 219.889 290.234 221.764 290.234ZM221.764 291.156C220.561 291.171 219.764 291.828 219.764 292.796C219.764 293.781 220.561 294.421 221.764 294.421C222.967 294.421 223.78 293.781 223.795 292.796C223.78 291.828 222.967 291.171 221.764 291.156ZM229.295 286.953V295.937H228.061V294.015H225.639V293H228.061V291.312H225.655V290.296H228.061V286.953H229.295ZM224.717 296.078C227.608 296.078 229.374 296.937 229.374 298.453C229.374 299.937 227.608 300.812 224.717 300.812C221.795 300.812 220.045 299.937 220.045 298.453C220.045 296.937 221.795 296.078 224.717 296.078ZM224.717 297.031C222.608 297.031 221.311 297.546 221.311 298.453C221.311 299.328 222.608 299.859 224.717 299.859C226.795 299.859 228.077 299.328 228.077 298.453C228.077 297.546 226.795 297.031 224.717 297.031ZM247.092 286.953V300.875H245.874V286.953H247.092ZM242.874 288.25V293.187H237.686V296.468C239.991 296.468 242.045 296.367 244.53 295.968L244.655 297C242.092 297.406 239.983 297.5 237.592 297.5H236.436V292.187H241.639V289.265H236.405V288.25H242.874ZM256.436 288.359V297.312H250.03V288.359H256.436ZM251.217 289.343V296.312H255.217V289.343H251.217ZM260.202 286.953V292.5H262.53V293.562H260.202V300.843H258.983V286.953H260.202ZM270.202 289C270.202 291.375 272.92 293.5 275.342 293.953L274.78 294.984C272.686 294.5 270.475 293.007 269.577 290.953C268.678 293 266.475 294.492 264.374 294.984L263.811 293.953C266.217 293.484 268.92 291.39 268.92 289V287.937H270.202V289ZM275.999 297.937V298.953H263.28V297.937H275.999ZM288.624 286.953V300.875H287.405V293.218H284.467V292.203H287.405V286.953H288.624ZM284.233 288.234V289.25H278.983V292.14H283.624V293.14H278.983V296.5C281.538 296.5 283.163 296.414 285.077 296.078L285.217 297.093C283.202 297.421 281.499 297.515 278.811 297.515H277.749V288.234H284.233ZM302.405 286.968V295.515H301.186V286.968H302.405ZM297.983 287.843V291.656H292.858V293.625C295.342 293.625 297.202 293.562 299.452 293.187L299.592 294.203C297.264 294.578 295.358 294.656 292.795 294.656H291.67V290.687H296.764V288.875H291.639V287.843H297.983ZM297.795 295.796C300.717 295.796 302.499 296.718 302.499 298.312C302.499 299.906 300.717 300.812 297.795 300.812C294.874 300.812 293.108 299.906 293.108 298.312C293.108 296.718 294.874 295.796 297.795 295.796ZM297.795 296.781C295.639 296.781 294.311 297.359 294.311 298.312C294.311 299.265 295.639 299.828 297.795 299.828C299.952 299.828 301.264 299.265 301.264 298.312C301.264 297.359 299.952 296.781 297.795 296.781Z" fill="black"/>
<path d="M31.6533 91.8916C31.6533 93.7666 33.1377 95.4541 35.2158 96.1104L34.5908 97.0947C32.9736 96.5479 31.6846 95.4072 31.0596 93.9385C30.4502 95.5244 29.1455 96.7744 27.4971 97.376L26.8564 96.3916C28.9346 95.6572 30.4189 93.8604 30.4189 91.8916V91.0791H27.1689V90.0791H34.8564V91.0791H31.6533V91.8916ZM38.1221 88.9229V99.1104H36.9033V88.9229H38.1221ZM38.5596 101.47V102.501H29.1533V98.1416H30.3721V101.47H38.5596ZM51.7002 95.4229V96.4229H47.4033V100.017H53.2002V101.048H40.4814V100.017H46.2002V96.4229H42.1064V90.0479H51.5596V91.0479H43.3408V95.4229H51.7002ZM71.0439 100.001V101.017H58.3252V100.001H64.0439V97.001H59.8252V89.8916H61.0596V92.4072H68.2783V89.8916H69.4814V97.001H65.2471V100.001H71.0439ZM61.0596 96.001H68.2783V93.4072H61.0596V96.001ZM76.3877 89.5635C78.4189 89.5635 79.8408 90.6572 79.8408 92.3135C79.8408 93.7432 78.7158 94.7822 77.0439 94.9854V96.3447C78.3408 96.29 79.6611 96.1729 80.8721 95.9854L80.9658 96.9072C78.0283 97.4385 74.7002 97.4697 72.2939 97.4697L72.1377 96.4541C73.2158 96.4619 74.4814 96.4541 75.8096 96.4072V95.001C74.0908 94.8135 72.9346 93.7666 72.9502 92.3135C72.9346 90.6572 74.3564 89.5635 76.3877 89.5635ZM76.3877 90.5166C75.0439 90.5166 74.0908 91.2354 74.1064 92.3135C74.0908 93.3604 75.0439 94.0791 76.3877 94.0947C77.7471 94.0791 78.6689 93.3604 78.6846 92.3135C78.6689 91.2354 77.7471 90.5166 76.3877 90.5166ZM82.9971 88.9229V93.626H85.0752V94.6729H82.9971V99.5479H81.7627V88.9229H82.9971ZM83.4971 101.454V102.485H74.1689V98.626H75.4033V101.454H83.4971ZM97.2471 89.8135V95.4697H90.7314V89.8135H97.2471ZM91.9346 90.8135V94.501H96.0439V90.8135H91.9346ZM101.45 88.9072V96.8916H100.247V88.9072H101.45ZM97.6846 98.7979C97.6846 100.157 99.9033 101.501 102.294 101.798L101.872 102.751C99.7783 102.47 97.8721 101.485 97.0596 100.188C96.2158 101.509 94.2627 102.47 92.1689 102.751L91.7314 101.798C94.1221 101.532 96.4189 100.188 96.4189 98.7979H92.3096V97.8447H96.4346V96.4854H97.6533V97.8447H101.81V98.7979H97.6846ZM119.294 88.9229V97.1104H118.06V96.3447H115.247V95.5322H118.06V88.9229H119.294ZM107.794 94.1572C110.481 94.1729 113.919 94.1416 116.919 93.8135L116.997 94.6104C115.638 94.8057 114.224 94.9229 112.841 94.9854V97.1572H111.638V95.0322C110.325 95.0791 109.067 95.0869 107.935 95.0791L107.794 94.1572ZM119.294 97.6104V100.485H111.185V101.735H119.747V102.642H109.981V99.626H118.075V98.501H109.919V97.6104H119.294ZM112.325 89.1885C114.388 89.1885 115.763 90.001 115.778 91.2822C115.763 92.5791 114.388 93.3604 112.325 93.3604C110.231 93.3604 108.872 92.5791 108.872 91.2822C108.872 90.001 110.231 89.1885 112.325 89.1885ZM112.325 90.0479C110.919 90.0479 110.013 90.5322 110.028 91.2822C110.013 92.0166 110.919 92.5166 112.325 92.5166C113.716 92.5166 114.622 92.0166 114.622 91.2822C114.622 90.5322 113.716 90.0479 112.325 90.0479ZM132.528 88.9229V93.126H134.622V94.1572H132.528V99.126H131.31V88.9229H132.528ZM133.169 101.47V102.501H123.841V98.126H125.044V101.47H133.169ZM123.466 89.9229V92.2666H127.513V89.9229H128.731V96.7822H122.263V89.9229H123.466ZM123.466 95.7822H127.513V93.2354H123.466V95.7822ZM146.638 90.6416C146.622 92.3447 148.966 93.7354 151.419 94.0791L150.935 95.0479C148.692 94.7275 146.599 93.6025 145.841 91.9697C145.091 93.6025 143.005 94.7275 140.747 95.0479L140.294 94.0791C142.747 93.7354 145.044 92.3447 145.044 90.6416V90.6104H140.669V89.6104H151.044V90.6104H146.638V90.6416ZM152.216 96.0635V97.0791H146.56V99.9229H145.341V97.0791H139.497V96.0635H152.216ZM150.794 101.47V102.501H141.122V98.5322H142.356V101.47H150.794ZM164.794 88.9072V102.829H163.56V88.9072H164.794ZM155.372 90.0947V93.7666H159.513V90.0947H160.716V99.4697H154.153V90.0947H155.372ZM155.372 98.4385H159.513V94.751H155.372V98.4385ZM179.872 95.3604V96.3291H167.153V95.3604H179.872ZM178.278 97.4385V100.392H169.935V101.72H178.731V102.61H168.7V99.5479H177.06V98.3604H168.685V97.4385H178.278ZM178.231 89.3291V92.2041H170.028V93.4229H178.481V94.3135H168.81V91.3604H176.997V90.2197H168.763V89.3291H178.231ZM189.591 89.5947C191.669 89.5791 193.153 90.7197 193.153 92.4229C193.153 94.1104 191.669 95.2822 189.591 95.2666C187.513 95.2822 186.028 94.1104 186.028 92.4229C186.028 90.7197 187.513 89.5791 189.591 89.5947ZM189.591 90.5947C188.2 90.5791 187.216 91.3447 187.231 92.4229C187.216 93.5166 188.2 94.2666 189.591 94.251C190.997 94.2666 191.981 93.5166 191.981 92.4229C191.981 91.3447 190.997 90.5791 189.591 90.5947ZM196.466 88.9229V102.813H195.263V88.9229H196.466ZM184.981 96.4541C187.591 96.4541 191.153 96.4072 194.247 95.9541L194.325 96.876C192.997 97.1182 191.614 97.2666 190.278 97.3447V102.376H189.06V97.4229C187.646 97.4854 186.31 97.4932 185.153 97.501L184.981 96.4541ZM209.7 88.9229V93.501H211.794V94.5322H209.7V99.3291H208.481V88.9229H209.7ZM207.153 90.626V91.626H198.872V90.626H202.403V88.9229H203.622V90.626H207.153ZM203.013 92.3916C204.997 92.3916 206.341 93.4072 206.356 94.9854C206.341 96.5479 204.997 97.5479 203.013 97.5479C201.013 97.5479 199.653 96.5479 199.669 94.9854C199.653 93.4072 201.013 92.3916 203.013 92.3916ZM203.013 93.3604C201.7 93.3604 200.825 94.001 200.841 94.9854C200.825 95.9697 201.7 96.5947 203.013 96.5791C204.31 96.5947 205.185 95.9697 205.2 94.9854C205.185 94.001 204.31 93.3604 203.013 93.3604ZM210.341 101.47V102.501H201.013V98.501H202.216V101.47H210.341ZM221.685 91.2041C221.685 93.0166 223.2 94.626 225.263 95.251L224.638 96.2197C223.013 95.7041 221.708 94.5869 221.075 93.1572C220.466 94.6885 219.153 95.8838 217.497 96.4541L216.856 95.4854C218.95 94.8291 220.45 93.1104 220.45 91.2041V90.8447H217.2V89.8447H224.888V90.8447H221.685V91.2041ZM228.153 88.9072V96.4229H226.935V88.9072H228.153ZM220.372 97.1104V98.7979H226.935V97.1104H228.153V102.61H219.153V97.1104H220.372ZM220.372 101.61H226.935V99.7822H220.372V101.61ZM243.169 95.4072V96.4229H237.435V97.9072C240.06 98.0166 241.606 98.876 241.622 100.345C241.606 101.892 239.825 102.767 236.841 102.767C233.825 102.767 232.044 101.892 232.044 100.345C232.044 98.876 233.583 98.0166 236.231 97.9072V96.4229H230.513V95.4072H243.169ZM236.841 98.8447C234.606 98.8604 233.278 99.4072 233.294 100.345C233.278 101.267 234.606 101.813 236.841 101.813C239.044 101.813 240.388 101.267 240.388 100.345C240.388 99.4072 239.044 98.8604 236.841 98.8447ZM242.044 89.5635V90.5635H237.638C237.716 92.126 240.013 93.3369 242.466 93.5947L242.013 94.5635C239.739 94.29 237.606 93.2744 236.841 91.7197C236.083 93.2744 233.958 94.29 231.669 94.5635L231.231 93.5947C233.638 93.3369 235.95 92.126 236.044 90.5635H231.669V89.5635H242.044ZM261.06 95.8916V96.9072H248.356V95.8916H254.075V93.751H255.278V95.8916H261.06ZM255.294 89.7822C255.294 91.626 257.794 93.1729 260.247 93.5166L259.747 94.501C257.638 94.1338 255.552 93.0166 254.685 91.4072C253.81 93.0244 251.716 94.1338 249.591 94.501L249.122 93.5166C251.575 93.1729 254.06 91.626 254.06 89.7822V89.126H255.294V89.7822ZM259.45 98.2666V102.798H258.216V99.251H249.763V98.2666H259.45ZM266.966 91.0947C266.95 93.0791 268.356 94.8291 270.403 95.5166L269.716 96.4697C268.185 95.8916 266.981 94.7666 266.388 93.2979C265.786 94.9619 264.513 96.2588 262.841 96.8916L262.169 95.8916C264.31 95.1416 265.731 93.2979 265.747 91.1416V89.7041H266.966V91.0947ZM273.7 88.9072V97.1416H272.466V92.9072H269.372V91.8916H272.466V88.9072H273.7ZM269.091 97.5479C271.981 97.5479 273.747 98.501 273.747 100.173C273.747 101.829 271.981 102.767 269.091 102.767C266.2 102.767 264.435 101.829 264.435 100.173C264.435 98.501 266.2 97.5479 269.091 97.5479ZM269.091 98.5166C266.966 98.5166 265.638 99.1416 265.653 100.173C265.638 101.173 266.966 101.782 269.091 101.782C271.216 101.782 272.528 101.173 272.528 100.173C272.528 99.1416 271.216 98.5166 269.091 98.5166ZM292.747 99.9854V101.017H280.028V99.9854H285.747V96.5947H281.528V90.0791H291.169V96.5947H286.95V99.9854H292.747ZM282.731 91.0635V95.6104H289.981V91.0635H282.731ZM305.013 92.5947V93.5947H295.544V89.4072H304.872V90.4229H296.778V92.5947H305.013ZM306.513 94.7197V95.7197H303.138V97.1572H304.888V100.251H296.638V101.657H305.31V102.642H295.419V99.3447H303.685V98.0947H295.388V97.1572H297.341V95.7197H293.856V94.7197H306.513ZM298.56 97.1572H301.919V95.7197H298.56V97.1572Z" fill="black"/>
<path d="M37.1235 156.407V164.688H35.8892V161.048H33.0923V160.032H35.8892V156.407H37.1235ZM32.5142 165.126C35.4048 165.126 37.1704 166.063 37.1704 167.704C37.1704 169.345 35.4048 170.282 32.5142 170.298C29.6235 170.282 27.8579 169.345 27.8579 167.704C27.8579 166.063 29.6235 165.126 32.5142 165.126ZM32.5142 166.079C30.3892 166.079 29.061 166.688 29.0767 167.704C29.061 168.704 30.3892 169.313 32.5142 169.313C34.6392 169.313 35.9517 168.704 35.9517 167.704C35.9517 166.688 34.6392 166.079 32.5142 166.079ZM30.436 158.954C30.436 160.767 31.8267 162.485 33.8579 163.188L33.2173 164.173C31.6548 163.61 30.4438 162.446 29.8579 161.001C29.2485 162.634 27.9595 163.938 26.311 164.563L25.6704 163.579C27.7329 162.829 29.2017 160.954 29.2017 158.97V158.454H26.061V157.423H33.5454V158.454H30.436V158.954ZM50.3423 157.313V158.376C50.3423 159.626 50.3423 161.173 49.9517 163.376H52.0923V164.392H48.7485V170.298H47.5298V164.392H43.9673V170.298H42.7485V164.392H39.436V163.376H48.7017C49.1548 161.188 49.1548 159.618 49.1548 158.376V158.329H41.061V157.313H50.3423ZM64.9829 157.954V158.673C64.9673 159.767 64.9673 161.61 64.5767 164.188L63.3423 164.079C63.7173 161.751 63.7485 160.063 63.7485 158.954H57.9204V157.954H64.9829ZM61.3423 161.923V166.142C62.8813 166.087 64.4595 165.985 65.9048 165.813L65.9673 166.735C63.0454 167.188 59.7798 167.251 57.2954 167.235L57.1392 166.22C58.0532 166.212 59.0688 166.204 60.1392 166.173V161.923H61.3423ZM67.9985 156.407V162.22H70.2485V163.282H67.9985V170.298H66.7798V156.407H67.9985ZM82.6235 156.407V164.688H81.3892V161.048H78.5923V160.032H81.3892V156.407H82.6235ZM78.0142 165.126C80.9048 165.126 82.6704 166.063 82.6704 167.704C82.6704 169.345 80.9048 170.282 78.0142 170.298C75.1235 170.282 73.3579 169.345 73.3579 167.704C73.3579 166.063 75.1235 165.126 78.0142 165.126ZM78.0142 166.079C75.8892 166.079 74.561 166.688 74.5767 167.704C74.561 168.704 75.8892 169.313 78.0142 169.313C80.1392 169.313 81.4517 168.704 81.4517 167.704C81.4517 166.688 80.1392 166.079 78.0142 166.079ZM75.936 158.954C75.936 160.767 77.3267 162.485 79.3579 163.188L78.7173 164.173C77.1548 163.61 75.9438 162.446 75.3579 161.001C74.7485 162.634 73.4595 163.938 71.811 164.563L71.1704 163.579C73.2329 162.829 74.7017 160.954 74.7017 158.97V158.454H71.561V157.423H79.0454V158.454H75.936V158.954ZM93.9517 159.392C93.9517 161.267 95.436 162.954 97.5142 163.61L96.8892 164.595C95.272 164.048 93.9829 162.907 93.3579 161.438C92.7485 163.024 91.4438 164.274 89.7954 164.876L89.1548 163.892C91.2329 163.157 92.7173 161.36 92.7173 159.392V158.579H89.4673V157.579H97.1548V158.579H93.9517V159.392ZM100.42 156.423V166.61H99.2017V156.423H100.42ZM100.858 168.97V170.001H91.4517V165.642H92.6704V168.97H100.858ZM113.999 162.923V163.923H109.702V167.517H115.499V168.548H102.78V167.517H108.499V163.923H104.405V157.548H113.858V158.548H105.639V162.923H113.999ZM129.311 162.86V163.829H116.592V162.86H129.311ZM127.717 164.938V167.892H119.374V169.22H128.17V170.11H118.139V167.048H126.499V165.86H118.124V164.938H127.717ZM127.67 156.829V159.704H119.467V160.923H127.92V161.813H118.249V158.86H126.436V157.72H118.202V156.829H127.67ZM145.436 156.392V161.876H147.467V162.923H145.436V170.298H144.217V156.392H145.436ZM138.405 157.876V158.892H136.092V165.61C136.78 165.595 137.624 165.532 138.545 165.329L138.67 166.36C137.358 166.642 136.311 166.657 135.483 166.657H134.874V157.876H138.405ZM142.905 157.876V158.892H140.42V165.626C141.506 165.61 142.374 165.54 143.358 165.298L143.483 166.329C142.264 166.626 141.28 166.657 139.874 166.657H139.202V157.876H142.905ZM159.03 156.407V161.938H161.358V162.97H159.03V170.329H157.811V156.407H159.03ZM155.139 157.704V162.673H150.077V165.923C152.655 165.923 154.452 165.837 156.561 165.438L156.686 166.454C154.499 166.86 152.639 166.954 149.967 166.97H148.858V161.657H153.92V158.72H148.827V157.704H155.139ZM166.811 158.845C166.795 160.642 168.17 162.267 170.233 162.923L169.639 163.876C168.038 163.36 166.811 162.267 166.217 160.876C165.608 162.415 164.327 163.603 162.655 164.173L162.014 163.204C164.108 162.501 165.561 160.813 165.577 158.86V158.36H162.42V157.345H169.905V158.36H166.811V158.845ZM172.967 156.407V159.626H175.061V160.657H172.967V164.017H171.749V156.407H172.967ZM165.389 164.688V166.392H171.749V164.688H172.967V170.11H164.17V164.688H165.389ZM165.389 169.11H171.749V167.36H165.389V169.11ZM187.436 156.407V170.298H186.217V163.017H182.905V162.001H186.217V156.407H187.436ZM182.936 157.923C182.936 161.86 181.264 165.36 176.624 167.657L175.952 166.673C179.717 164.853 181.459 162.181 181.702 158.923H176.561V157.923H182.936ZM202.764 161.954V162.985H200.514V170.298H199.295V156.407H200.514V161.954H202.764ZM191.561 157.782V165.735C193.592 165.728 195.663 165.571 197.952 165.095L198.108 166.142C195.717 166.626 193.561 166.767 191.452 166.767H190.342V157.782H191.561ZM218.358 156.407V161.907H220.686V162.938H218.358V170.329H217.139V156.407H218.358ZM214.702 157.767V158.782H209.436V165.813C211.952 165.813 213.733 165.696 215.795 165.313L215.952 166.376C213.78 166.767 211.952 166.845 209.311 166.845H208.217V157.767H214.702ZM227.764 156.72C230.78 156.72 232.67 157.688 232.67 159.36C232.67 161.001 230.78 161.954 227.764 161.954C224.749 161.954 222.842 161.001 222.842 159.36C222.842 157.688 224.749 156.72 227.764 156.72ZM227.764 157.704C225.514 157.704 224.092 158.329 224.108 159.36C224.092 160.376 225.514 160.97 227.764 160.985C229.983 160.97 231.42 160.376 231.42 159.36C231.42 158.329 229.983 157.704 227.764 157.704ZM232.545 165.548V170.11H222.983V165.548H232.545ZM224.202 166.532V169.11H231.342V166.532H224.202ZM234.092 163.157V164.173H221.436V163.157H234.092ZM250.139 156.407V160.548H252.249V161.579H250.139V166.47H248.92V156.407H250.139ZM246.124 157.61V158.642H241.155V162.97C243.944 162.97 245.53 162.899 247.389 162.517L247.545 163.532C245.592 163.907 243.936 164.001 241.014 164.001H239.936V157.61H246.124ZM250.78 168.97V170.001H241.452V165.454H242.655V168.97H250.78ZM264.999 156.407V170.298H263.827V156.407H264.999ZM262.186 156.782V169.595H261.014V164.782H258.436V163.767H261.014V161.298H258.67C257.991 163.649 256.467 165.728 253.842 167.298L253.092 166.407C256.116 164.618 257.631 162.11 257.874 159.204H253.717V158.188H259.092C259.092 158.899 259.03 159.603 258.905 160.282H261.014V156.782H262.186ZM279.655 167.548V168.579H266.936V167.548H272.655V164.923H268.53V160.642H276.842V158.454H268.499V157.438H278.045V161.642H269.749V163.907H278.374V164.923H273.858V167.548H279.655ZM285.311 157.423C287.499 157.423 289.045 158.751 289.045 160.688C289.045 162.626 287.499 163.954 285.311 163.954C283.124 163.954 281.545 162.626 281.561 160.688C281.545 158.751 283.124 157.423 285.311 157.423ZM285.311 158.501C283.827 158.501 282.749 159.392 282.764 160.688C282.749 161.985 283.827 162.876 285.311 162.876C286.78 162.876 287.842 161.985 287.842 160.688C287.842 159.392 286.78 158.501 285.311 158.501ZM292.155 156.407V170.329H290.936V156.407H292.155ZM280.842 166.22C283.405 166.22 286.936 166.204 290.014 165.751L290.108 166.657C286.936 167.251 283.514 167.267 281.014 167.267L280.842 166.22ZM36.8267 188.923V189.923H32.5298V193.517H38.3267V194.548H25.6079V193.517H31.3267V189.923H27.2329V183.548H36.686V184.548H28.4673V188.923H36.8267ZM52.3579 184.563V185.563H50.2954V187.517H52.3579V188.563H50.2954V190.673H49.0767V182.407H50.2954V184.563H52.3579ZM50.2954 191.313V196.298H49.0767V192.329H41.2017V191.313H50.2954ZM43.3423 183.251C45.4517 183.235 46.9829 184.595 46.9985 186.517C46.9829 188.47 45.4517 189.813 43.3423 189.813C41.2329 189.813 39.686 188.47 39.7017 186.517C39.686 184.595 41.2329 183.235 43.3423 183.251ZM43.3423 184.298C41.936 184.298 40.8892 185.204 40.9048 186.517C40.8892 187.845 41.936 188.767 43.3423 188.751C44.7642 188.767 45.7954 187.845 45.7954 186.517C45.7954 185.204 44.7642 184.298 43.3423 184.298ZM59.5923 182.657C62.686 182.657 64.4985 183.501 64.4985 185.048C64.4985 186.626 62.686 187.47 59.5923 187.485C56.4985 187.47 54.6704 186.626 54.6704 185.048C54.6704 183.501 56.4985 182.657 59.5923 182.657ZM59.5923 183.579C57.2798 183.579 55.936 184.142 55.9517 185.048C55.936 186.017 57.2798 186.548 59.5923 186.548C61.8892 186.548 63.2485 186.017 63.2485 185.048C63.2485 184.142 61.8892 183.579 59.5923 183.579ZM65.9204 188.423V189.423H53.2642V188.423H65.9204ZM64.2954 190.626V193.735H56.0454V195.173H64.7173V196.142H54.8267V192.829H63.0923V191.563H54.7954V190.626H64.2954ZM82.561 182.423V192.97H81.3267V191.532H78.4517V190.642H81.3267V182.423H82.561ZM82.9048 194.97V196.001H73.0298V191.938H74.2642V194.97H82.9048ZM71.0298 188.86C73.6235 188.845 77.0923 188.829 80.0767 188.454L80.1548 189.345C78.9126 189.54 77.6157 189.665 76.3423 189.735V192.485H75.1079V189.798C73.7017 189.86 72.3657 189.868 71.2017 189.86L71.0298 188.86ZM75.5923 182.985C77.6235 182.985 79.0142 183.954 79.0298 185.407C79.0142 186.892 77.6235 187.813 75.5923 187.813C73.5454 187.813 72.1548 186.892 72.1548 185.407C72.1548 183.954 73.5454 182.985 75.5923 182.985ZM75.5923 183.923C74.2329 183.907 73.311 184.517 73.3267 185.407C73.311 186.313 74.2329 186.907 75.5923 186.907C76.9048 186.907 77.8423 186.313 77.8579 185.407C77.8423 184.517 76.9048 183.907 75.5923 183.923ZM95.686 182.407V188.142H98.0142V189.157H95.686V196.298H94.4673V182.407H95.686ZM93.1235 184.642V185.657H84.8579V184.642H88.436V182.579H89.6548V184.642H93.1235ZM89.061 186.813C91.0298 186.813 92.4517 188.126 92.4673 190.001C92.4517 191.876 91.0298 193.188 89.061 193.188C87.0767 193.188 85.6392 191.876 85.6548 190.001C85.6392 188.126 87.0767 186.813 89.061 186.813ZM89.061 187.845C87.7642 187.845 86.811 188.751 86.8267 190.001C86.811 191.267 87.7642 192.157 89.061 192.142C90.3423 192.157 91.2798 191.267 91.2954 190.001C91.2798 188.751 90.3423 187.845 89.061 187.845ZM109.999 186.626V187.61H100.483V182.923H101.702V186.626H109.999ZM111.467 189.501V190.501H98.7485V189.501H111.467ZM110.077 194.938V195.954H100.405V191.923H101.624V194.938H110.077ZM124.92 183.907V184.907H116.639V183.907H120.17V182.345H121.389V183.907H124.92ZM120.78 185.626C122.78 185.642 124.108 186.61 124.124 188.142C124.108 189.657 122.78 190.642 120.78 190.642C118.78 190.642 117.42 189.657 117.436 188.142C117.42 186.61 118.78 185.642 120.78 185.626ZM120.78 186.579C119.467 186.595 118.592 187.204 118.608 188.142C118.592 189.063 119.467 189.657 120.78 189.657C122.077 189.657 122.952 189.063 122.967 188.142C122.952 187.204 122.077 186.595 120.78 186.579ZM127.467 182.407V186.267H129.561V187.298H127.467V191.095H126.249V182.407H127.467ZM127.467 191.86V196.298H126.249V192.86H118.374V191.86H127.467ZM133.264 190.751V192.376H140.202V190.751H141.436V196.11H132.045V190.751H133.264ZM133.264 195.126H140.202V193.345H133.264V195.126ZM143.092 188.751V189.767H130.436V188.751H143.092ZM137.405 183.22C137.405 184.938 139.936 186.47 142.374 186.782L141.92 187.767C139.764 187.446 137.655 186.345 136.78 184.782C135.889 186.353 133.764 187.446 131.624 187.767L131.155 186.782C133.624 186.454 136.139 184.985 136.139 183.22V182.563H137.405V183.22ZM148.967 186.673C148.952 188.907 150.561 191.36 152.577 192.313L151.874 193.282C150.311 192.524 148.991 190.868 148.374 188.985C147.733 191.032 146.334 192.829 144.78 193.626L144.03 192.657C146.03 191.688 147.749 189.048 147.764 186.673V184.86H144.53V183.845H152.092V184.86H148.967V186.673ZM155.014 182.407V188.032H157.342V189.079H155.014V196.298H153.795V182.407H155.014ZM170.795 188.86V189.829H158.077V188.86H170.795ZM169.202 190.938V193.892H160.858V195.22H169.655V196.11H159.624V193.048H167.983V191.86H159.608V190.938H169.202ZM169.155 182.829V185.704H160.952V186.923H169.405V187.813H159.733V184.86H167.92V183.72H159.686V182.829H169.155ZM180.514 183.095C182.592 183.079 184.077 184.22 184.077 185.923C184.077 187.61 182.592 188.782 180.514 188.767C178.436 188.782 176.952 187.61 176.952 185.923C176.952 184.22 178.436 183.079 180.514 183.095ZM180.514 184.095C179.124 184.079 178.139 184.845 178.155 185.923C178.139 187.017 179.124 187.767 180.514 187.751C181.92 187.767 182.905 187.017 182.905 185.923C182.905 184.845 181.92 184.079 180.514 184.095ZM187.389 182.423V196.313H186.186V182.423H187.389ZM175.905 189.954C178.514 189.954 182.077 189.907 185.17 189.454L185.249 190.376C183.92 190.618 182.538 190.767 181.202 190.845V195.876H179.983V190.923C178.569 190.985 177.233 190.993 176.077 191.001L175.905 189.954ZM200.624 182.423V187.001H202.717V188.032H200.624V192.829H199.405V182.423H200.624ZM198.077 184.126V185.126H189.795V184.126H193.327V182.423H194.545V184.126H198.077ZM193.936 185.892C195.92 185.892 197.264 186.907 197.28 188.485C197.264 190.048 195.92 191.048 193.936 191.048C191.936 191.048 190.577 190.048 190.592 188.485C190.577 186.907 191.936 185.892 193.936 185.892ZM193.936 186.86C192.624 186.86 191.749 187.501 191.764 188.485C191.749 189.47 192.624 190.095 193.936 190.079C195.233 190.095 196.108 189.47 196.124 188.485C196.108 187.501 195.233 186.86 193.936 186.86ZM201.264 194.97V196.001H191.936V192.001H193.139V194.97H201.264ZM220.327 193.485V194.517H207.608V193.485H213.327V190.095H209.108V183.579H218.749V190.095H214.53V193.485H220.327ZM210.311 184.563V189.11H217.561V184.563H210.311ZM232.592 186.095V187.095H223.124V182.907H232.452V183.923H224.358V186.095H232.592ZM234.092 188.22V189.22H230.717V190.657H232.467V193.751H224.217V195.157H232.889V196.142H222.999V192.845H231.264V191.595H222.967V190.657H224.92V189.22H221.436V188.22H234.092ZM226.139 190.657H229.499V189.22H226.139V190.657ZM246.733 182.407V189.86H245.514V182.407H246.733ZM238.952 190.563V192.251H245.514V190.563H246.733V196.11H237.733V190.563H238.952ZM238.952 195.11H245.514V193.235H238.952V195.11ZM239.233 183.095C241.342 183.079 242.874 184.376 242.874 186.282C242.874 188.173 241.342 189.47 239.233 189.47C237.124 189.47 235.592 188.173 235.592 186.282C235.592 184.376 237.124 183.079 239.233 183.095ZM239.233 184.126C237.811 184.11 236.78 185.017 236.795 186.282C236.78 187.548 237.811 188.454 239.233 188.454C240.639 188.454 241.67 187.548 241.67 186.282C241.67 185.017 240.639 184.11 239.233 184.126ZM260.545 182.407V196.298H259.327V182.407H260.545ZM251.202 183.782V191.657C253.319 191.649 255.514 191.478 257.842 190.985L258.014 192.032C255.545 192.548 253.342 192.72 251.124 192.72H249.999V183.782H251.202ZM273.67 182.407V187.907H275.999V188.938H273.67V196.329H272.452V182.407H273.67ZM270.014 183.767V184.782H264.749V191.813C267.264 191.813 269.045 191.696 271.108 191.313L271.264 192.376C269.092 192.767 267.264 192.845 264.624 192.845H263.53V183.767H270.014ZM278.217 195.126C277.67 195.126 277.202 194.673 277.217 194.11C277.202 193.563 277.67 193.11 278.217 193.11C278.764 193.11 279.217 193.563 279.217 194.11C279.217 194.673 278.764 195.126 278.217 195.126Z" fill="black"/>
<defs>
<linearGradient id="paint0_linear_586_1016" x1="0.68823" y1="173.5" x2="480.856" y2="173.5" gradientUnits="userSpaceOnUse">
<stop stop-color="#3182F6"/>
<stop offset="1" stop-color="#A009FF"/>
</linearGradient>
<linearGradient id="paint1_linear_586_1016" x1="25.7325" y1="60" x2="437.703" y2="59.9999" gradientUnits="userSpaceOnUse">
<stop stop-color="#3182F6"/>
<stop offset="1" stop-color="#A009FF"/>
</linearGradient>
<linearGradient id="paint2_linear_586_1016" x1="25.0454" y1="130.668" x2="324.045" y2="130.668" gradientUnits="userSpaceOnUse">
<stop stop-color="#3182F6"/>
<stop offset="1" stop-color="#A009FF"/>
</linearGradient>
<linearGradient id="paint3_linear_586_1016" x1="20.5649" y1="257.714" x2="81.612" y2="257.714" gradientUnits="userSpaceOnUse">
<stop stop-color="#3182F6"/>
<stop offset="1" stop-color="#A009FF"/>
</linearGradient>
</defs>
</svg>
