<svg width="347" height="347" viewBox="0 0 347 347" fill="none" xmlns="http://www.w3.org/2000/svg">
<rect x="0.5" y="0.5" width="346" height="346" rx="20.5" fill="white" stroke="url(#paint0_linear_586_1018)"/>
<path d="M27.668 70V50.2031H35.4336C39.9453 50.2031 42.5156 52.9648 42.5156 56.875C42.5156 60.8398 39.8906 63.5469 35.3242 63.5469H31.7695V70H27.668ZM31.7695 60.2383H34.668C37.1016 60.2383 38.2773 58.8711 38.2773 56.875C38.2773 54.9062 37.1016 53.5664 34.668 53.5664H31.7695V60.2383ZM45.1133 70V50.2031H52.8789C57.3906 50.2031 59.9609 52.7461 59.9609 56.6562C59.9609 59.3633 58.7168 61.332 56.4609 62.2891L60.6719 70H56.1328L52.3594 62.9727H49.2148V70H45.1133ZM49.2148 59.6367H52.1133C54.5469 59.6367 55.7227 58.625 55.7227 56.6562C55.7227 54.6602 54.5469 53.5664 52.1133 53.5664H49.2148V59.6367ZM62.8047 70V50.2031H76.0938V53.5938H66.9062V58.4062H75.4102V61.7969H66.9062V66.6094H76.1211V70H62.8047ZM79.293 70V50.2031H87.0586C91.5703 50.2031 94.1406 52.9648 94.1406 56.875C94.1406 60.8398 91.5156 63.5469 86.9492 63.5469H83.3945V70H79.293ZM83.3945 60.2383H86.293C88.7266 60.2383 89.9023 58.8711 89.9023 56.875C89.9023 54.9062 88.7266 53.5664 86.293 53.5664H83.3945V60.2383Z" fill="url(#paint1_linear_586_1018)"/>
<path d="M25.0454 130.168L324.045 130.168" stroke="url(#paint2_linear_586_1018)"/>
<path d="M33.9126 238.162C33.7954 237.049 32.897 236.385 31.4712 236.385C29.9868 236.385 29.1665 237.068 29.147 238.006C29.1274 239.021 30.2017 239.49 31.4126 239.764L32.6821 240.076C35.104 240.623 36.9204 241.854 36.9204 244.217C36.9204 246.814 34.8892 248.455 31.4517 248.455C28.0337 248.455 25.8462 246.873 25.7681 243.846H28.6196C28.7173 245.271 29.8501 245.994 31.4126 245.994C32.9556 245.994 33.9517 245.271 33.9517 244.217C33.9517 243.26 33.0728 242.811 31.5298 242.42L29.9868 242.049C27.604 241.463 26.1392 240.271 26.1392 238.201C26.1392 235.623 28.4048 233.924 31.4907 233.924C34.6157 233.924 36.686 235.662 36.7251 238.162H33.9126ZM43.5415 248.475C40.2993 248.475 38.3462 246.229 38.3462 242.986C38.3462 239.744 40.3188 237.518 43.5415 237.518C46.2759 237.518 48.1313 239.119 48.2485 241.541H45.5337C45.3579 240.486 44.6743 239.764 43.5806 239.764C42.1938 239.764 41.2759 240.936 41.2759 242.947C41.2759 244.998 42.1743 246.17 43.5806 246.17C44.5962 246.17 45.3579 245.545 45.5337 244.412H48.2485C48.1118 246.814 46.354 248.475 43.5415 248.475ZM54.811 248.475C51.6079 248.475 49.6157 246.268 49.6157 242.986C49.6157 239.705 51.6079 237.518 54.811 237.518C58.0142 237.518 60.0259 239.705 60.0259 242.986C60.0259 246.268 58.0142 248.475 54.811 248.475ZM54.8306 246.229C56.3149 246.229 57.0767 244.842 57.0767 242.986C57.0767 241.111 56.3149 239.725 54.8306 239.725C53.3267 239.725 52.5454 241.111 52.5454 242.986C52.5454 244.842 53.3267 246.229 54.8306 246.229ZM61.8423 252.244V237.654H64.6938V239.432H64.811C65.2017 238.572 66.061 237.518 67.8384 237.518C70.1821 237.518 72.1353 239.334 72.1353 242.967C72.1353 246.502 70.2603 248.436 67.8384 248.436C66.1001 248.436 65.2212 247.439 64.811 246.561H64.7329V252.244H61.8423ZM64.6743 242.947C64.6743 244.861 65.4946 246.131 66.9204 246.131C68.4048 246.131 69.186 244.822 69.186 242.947C69.186 241.092 68.4048 239.822 66.9204 239.822C65.4751 239.822 64.6743 241.033 64.6743 242.947ZM78.8149 248.475C75.5728 248.475 73.5806 246.365 73.5806 243.006C73.5806 239.725 75.5923 237.518 78.6978 237.518C81.4907 237.518 83.6782 239.275 83.6782 242.889V243.709H76.4321C76.4321 245.311 77.3892 246.307 78.8735 246.307C79.8501 246.307 80.5532 245.877 80.8462 245.232H83.6001C83.1899 247.186 81.4321 248.475 78.8149 248.475ZM76.4321 241.893H80.9438C80.9438 240.604 80.0454 239.686 78.7563 239.686C77.4282 239.686 76.481 240.672 76.4321 241.893Z" fill="url(#paint3_linear_586_1018)"/>
<path d="M36.9829 270.671C36.1079 270.671 35.3892 269.953 35.3892 269.062C35.3892 268.187 36.1079 267.468 36.9829 267.468C37.8735 267.468 38.5923 268.187 38.5923 269.062C38.5923 269.953 37.8735 270.671 36.9829 270.671ZM62.311 268.062V269.078H56.6548V271.921H55.436V269.078H49.5923V268.062H62.311ZM60.6548 261.64V266.468H51.2485V261.64H60.6548ZM52.4517 262.609V265.484H59.436V262.609H52.4517ZM60.8892 273.515V274.546H51.2173V270.546H52.4517V273.515H60.8892ZM75.311 260.953V274.843H74.1392V260.953H75.311ZM72.4985 261.296V274.125H71.3423V266.968H68.9985V265.968H71.3423V261.296H72.4985ZM67.5142 264.921C67.5142 267.328 68.5923 269.718 70.5142 270.828L69.7642 271.734C68.397 270.914 67.4282 269.414 66.9517 267.64C66.4438 269.554 65.436 271.187 64.0454 272.062L63.2642 271.14C65.2017 269.984 66.3267 267.453 66.3267 264.921V263.609H63.6548V262.593H70.061V263.609H67.5142V264.921ZM93.9829 268.875V269.89H90.6235V274.843H89.3892V269.89H85.8267V274.843H84.561V269.89H81.2642V268.875H93.9829ZM87.5923 261.515C90.5142 261.515 92.4829 262.687 92.4829 264.546C92.4829 266.39 90.5142 267.562 87.5923 267.546C84.6704 267.562 82.7017 266.39 82.7017 264.546C82.7017 262.687 84.6704 261.515 87.5923 261.515ZM87.5923 262.515C85.4204 262.515 83.9517 263.312 83.9673 264.546C83.9517 265.781 85.4204 266.562 87.5923 266.562C89.7485 266.562 91.2329 265.781 91.2329 264.546C91.2329 263.312 89.7485 262.515 87.5923 262.515ZM102.983 262.515V263.515H95.1235V262.515H98.4985V260.843H99.7173V262.515H102.983ZM99.0923 264.234C100.952 264.234 102.264 265.25 102.264 266.796C102.264 268.359 100.952 269.375 99.0923 269.375C97.2173 269.375 95.936 268.359 95.9517 266.796C95.936 265.25 97.2173 264.234 99.0923 264.234ZM99.0923 265.156C97.8892 265.171 97.0923 265.828 97.0923 266.796C97.0923 267.781 97.8892 268.421 99.0923 268.421C100.295 268.421 101.108 267.781 101.124 266.796C101.108 265.828 100.295 265.171 99.0923 265.156ZM106.624 260.953V269.937H105.389V268.015H102.967V267H105.389V265.312H102.983V264.296H105.389V260.953H106.624ZM102.045 270.078C104.936 270.078 106.702 270.937 106.702 272.453C106.702 273.937 104.936 274.812 102.045 274.812C99.1235 274.812 97.3735 273.937 97.3735 272.453C97.3735 270.937 99.1235 270.078 102.045 270.078ZM102.045 271.031C99.936 271.031 98.6392 271.546 98.6392 272.453C98.6392 273.328 99.936 273.859 102.045 273.859C104.124 273.859 105.405 273.328 105.405 272.453C105.405 271.546 104.124 271.031 102.045 271.031ZM125.655 268.312V269.312H119.999V272.031H118.78V269.312H112.936V268.312H125.655ZM124.233 273.515V274.546H114.561V270.75H115.78V273.515H124.233ZM115.858 261.406V263.187H122.733V261.406H123.952V266.953H114.639V261.406H115.858ZM115.858 265.953H122.733V264.125H115.858V265.953ZM131.514 263.187C131.514 265.109 132.936 266.875 134.952 267.562L134.28 268.546C132.733 267.976 131.53 266.789 130.936 265.312C130.35 266.953 129.1 268.234 127.467 268.875L126.795 267.859C128.905 267.109 130.295 265.281 130.311 263.14V261.671H131.514V263.187ZM138.295 269.937V274.843H137.061V270.921H128.952V269.937H138.295ZM138.295 260.953V269.171H137.061V264.906H133.967V263.875H137.061V260.953H138.295ZM142.889 272.531L141.67 276.781H140.514L141.374 272.531H142.889ZM160.17 260.953V268.156H158.967V260.953H160.17ZM160.186 268.859V272.187H152.389V273.687H160.686V274.687H151.186V271.234H158.967V269.843H151.155V268.859H160.186ZM153.639 262.421C153.624 264.39 155.124 266.125 157.186 266.796L156.577 267.75C154.952 267.195 153.655 266.031 153.03 264.531C152.405 266.148 151.1 267.421 149.452 268.015L148.811 267.046C150.905 266.312 152.389 264.468 152.389 262.421V261.359H153.639V262.421ZM174.061 260.968V271.156H172.827V265.828H169.967V264.812H172.827V260.968H174.061ZM174.452 273.515V274.546H165.139V270.234H166.374V273.515H174.452ZM167.374 263.828C167.374 265.625 168.764 267.375 170.795 268.062L170.155 269.046C168.584 268.484 167.374 267.312 166.78 265.875C166.178 267.476 164.897 268.757 163.249 269.375L162.608 268.375C164.655 267.656 166.139 265.828 166.139 263.828V263.109H162.999V262.093H170.483V263.109H167.374V263.828ZM193.108 272.031V273.062H180.389V272.031H186.108V268.64H181.889V262.125H191.53V268.64H187.311V272.031H193.108ZM183.092 263.109V267.656H190.342V263.109H183.092ZM198.764 261.968C200.952 261.968 202.499 263.296 202.499 265.234C202.499 267.171 200.952 268.5 198.764 268.5C196.577 268.5 194.999 267.171 195.014 265.234C194.999 263.296 196.577 261.968 198.764 261.968ZM198.764 263.046C197.28 263.046 196.202 263.937 196.217 265.234C196.202 266.531 197.28 267.421 198.764 267.421C200.233 267.421 201.295 266.531 201.295 265.234C201.295 263.937 200.233 263.046 198.764 263.046ZM205.608 260.953V274.875H204.389V260.953H205.608ZM194.295 270.765C196.858 270.765 200.389 270.75 203.467 270.296L203.561 271.203C200.389 271.796 196.967 271.812 194.467 271.812L194.295 270.765ZM219.186 262.359V263.75C219.17 265.453 219.17 267.359 218.67 270.156L217.42 270.015C217.952 267.359 217.952 265.406 217.952 263.75V263.375H209.389V262.359H219.186ZM220.702 271.859V272.875H208.045V271.859H213.014V266.89H214.217V271.859H220.702ZM226.53 264.687C226.53 267.14 228.155 269.656 230.124 270.625L229.374 271.609C227.842 270.804 226.561 269.164 225.952 267.234C225.327 269.289 224.014 271.039 222.452 271.875L221.67 270.89C223.702 269.89 225.311 267.218 225.327 264.687V262.156H226.53V264.687ZM232.624 260.953V266.593H234.952V267.656H232.624V274.843H231.405V260.953H232.624ZM252.374 268.89V269.89H246.764V271.984H245.545V269.89H239.717V268.89H252.374ZM250.999 273.531V274.546H241.327V271.046H242.561V273.531H250.999ZM251.639 262.281V263.234H240.374V262.281H245.436V260.796H246.655V262.281H251.639ZM246.045 263.828C248.889 263.828 250.545 264.562 250.545 265.937C250.545 267.312 248.889 268.062 246.045 268.046C243.17 268.062 241.53 267.312 241.53 265.937C241.53 264.562 243.17 263.828 246.045 263.828ZM246.045 264.734C243.936 264.734 242.764 265.156 242.78 265.937C242.764 266.718 243.936 267.14 246.045 267.14C248.124 267.14 249.311 266.718 249.311 265.937C249.311 265.156 248.124 264.734 246.045 264.734ZM260.139 261.953V266H255.358V268.296C257.897 268.296 259.288 268.226 260.983 267.937L261.108 268.953C259.295 269.265 257.842 269.312 255.124 269.312H254.124V265.031H258.889V262.953H254.092V261.953H260.139ZM265.061 260.968V271.187H263.827V267.437H261.077V266.421H263.827V264.312H261.077V263.312H263.827V260.968H265.061ZM265.483 273.453V274.468H256.03V270.437H257.264V273.453H265.483ZM36.9829 296.671C36.1079 296.671 35.3892 295.953 35.3892 295.062C35.3892 294.187 36.1079 293.468 36.9829 293.468C37.8735 293.468 38.5923 294.187 38.5923 295.062C38.5923 295.953 37.8735 296.671 36.9829 296.671ZM54.5454 290.687C54.5298 293.218 56.2642 295.781 58.311 296.703L57.561 297.671C55.9829 296.898 54.6157 295.265 53.9517 293.281C53.3032 295.382 51.936 297.132 50.311 297.953L49.5298 296.921C51.5923 295.968 53.311 293.328 53.3267 290.687V288.156H54.5454V290.687ZM61.061 286.953V300.875H59.8267V286.953H61.061ZM74.9517 286.953V295.375H73.7173V292.203H71.3579V291.187H73.7173V286.953H74.9517ZM74.9517 296.125V300.656H65.8735V296.125H74.9517ZM67.0923 297.109V299.656H73.7485V297.109H67.0923ZM71.561 288.421V289.421H63.4517V288.421H66.9048V286.828H68.1079V288.421H71.561ZM67.4985 290.14C69.3892 290.14 70.7173 291.156 70.7329 292.609C70.7173 294.109 69.3892 295.093 67.4985 295.093C65.6079 295.093 64.2798 294.109 64.2798 292.609C64.2798 291.156 65.6079 290.14 67.4985 290.14ZM67.4985 291.093C66.2954 291.093 65.4517 291.718 65.4517 292.609C65.4517 293.531 66.2954 294.14 67.4985 294.156C68.7017 294.14 69.5454 293.531 69.5454 292.609C69.5454 291.718 68.7017 291.093 67.4985 291.093ZM86.5454 294.281V296.828C87.8813 296.773 89.2485 296.656 90.5298 296.468L90.6235 297.375C87.4517 297.953 84.0298 297.968 81.5298 297.968L81.3579 296.953C82.522 296.945 83.897 296.937 85.3423 296.89V294.281H86.5454ZM89.811 288.781V289.796H86.5454C86.5767 291.593 88.0688 293.054 90.1235 293.64L89.5454 294.609C87.8735 294.109 86.5688 293.039 85.9517 291.625C85.3423 293.117 84.0454 294.226 82.3735 294.734L81.7798 293.796C83.8345 293.195 85.2798 291.671 85.311 289.796H82.1235V288.781H85.3423V287.062H86.5454V288.781H89.811ZM92.6704 286.953V300.875H91.4517V286.953H92.6704ZM99.936 289.515C99.936 291.328 101.327 293.046 103.358 293.75L102.717 294.718C101.147 294.156 99.936 292.992 99.3423 291.562C98.7407 293.164 97.4595 294.445 95.811 295.046L95.1704 294.078C97.2173 293.343 98.7017 291.484 98.7017 289.531V288.921H95.561V287.921H103.045V288.921H99.936V289.515ZM106.624 296.015V300.843H105.389V297.031H97.2798V296.015H106.624ZM106.624 286.953V295.281H105.389V291.625H102.608V290.593H105.389V286.953H106.624ZM119.717 286.953V292.875H121.936V293.906H119.717V300.843H118.483V286.953H119.717ZM108.764 297.14C109.897 297.14 111.217 297.14 112.592 297.093V295.546C110.975 295.367 109.92 294.421 109.936 293.046C109.92 291.484 111.249 290.468 113.217 290.468C115.155 290.468 116.499 291.484 116.514 293.046C116.499 294.421 115.428 295.367 113.827 295.562V297.046C115.124 296.984 116.428 296.882 117.639 296.703L117.717 297.64C114.686 298.156 111.405 298.187 108.967 298.187L108.764 297.14ZM117.389 288.656V289.656H109.014V288.656H112.592V286.984H113.827V288.656H117.389ZM113.217 291.421C111.936 291.421 111.077 292.078 111.077 293.046C111.077 294.015 111.936 294.64 113.217 294.625C114.483 294.64 115.342 294.015 115.342 293.046C115.342 292.078 114.483 291.421 113.217 291.421ZM138.295 286.968V297.156H137.061V291.828H134.202V290.812H137.061V286.968H138.295ZM138.686 299.515V300.546H129.374V296.234H130.608V299.515H138.686ZM131.608 289.828C131.608 291.625 132.999 293.375 135.03 294.062L134.389 295.046C132.819 294.484 131.608 293.312 131.014 291.875C130.413 293.476 129.131 294.757 127.483 295.375L126.842 294.375C128.889 293.656 130.374 291.828 130.374 289.828V289.109H127.233V288.093H134.717V289.109H131.608V289.828ZM153.561 289.187V290.203H151.467V292.093H153.561V293.125H151.467V295.406H150.249V286.968H151.467V289.187H153.561ZM147.499 287.796V291.625H142.436V293.64C144.905 293.64 146.694 293.554 148.858 293.187L148.983 294.203C146.749 294.578 144.889 294.656 142.311 294.656H141.233V290.656H146.295V288.796H141.202V287.796H147.499ZM151.467 296.14V300.843H150.249V297.14H142.374V296.14H151.467ZM160.764 287.203C163.858 287.203 165.67 288.046 165.67 289.593C165.67 291.171 163.858 292.015 160.764 292.031C157.67 292.015 155.842 291.171 155.842 289.593C155.842 288.046 157.67 287.203 160.764 287.203ZM160.764 288.125C158.452 288.125 157.108 288.687 157.124 289.593C157.108 290.562 158.452 291.093 160.764 291.093C163.061 291.093 164.42 290.562 164.42 289.593C164.42 288.687 163.061 288.125 160.764 288.125ZM167.092 292.968V293.968H154.436V292.968H167.092ZM165.467 295.171V298.281H157.217V299.718H165.889V300.687H155.999V297.375H164.264V296.109H155.967V295.171H165.467ZM184.936 294.328V295.328H172.264V294.328H177.983V292.953H173.952V287.359H183.358V288.359H175.186V289.656H182.983V290.593H175.186V291.968H183.436V292.953H179.202V294.328H184.936ZM178.608 296.375C181.655 296.359 183.374 297.14 183.389 298.593C183.374 300.046 181.655 300.812 178.608 300.812C175.53 300.812 173.811 300.046 173.811 298.593C173.811 297.14 175.53 296.359 178.608 296.375ZM178.608 297.296C176.311 297.296 175.03 297.765 175.045 298.593C175.03 299.437 176.311 299.875 178.608 299.859C180.874 299.875 182.155 299.437 182.155 298.593C182.155 297.765 180.874 297.296 178.608 297.296ZM196.967 286.968V291.546H199.061V292.578H196.967V297.375H195.749V286.968H196.967ZM194.42 288.671V289.671H186.139V288.671H189.67V286.968H190.889V288.671H194.42ZM190.28 290.437C192.264 290.437 193.608 291.453 193.624 293.031C193.608 294.593 192.264 295.593 190.28 295.593C188.28 295.593 186.92 294.593 186.936 293.031C186.92 291.453 188.28 290.437 190.28 290.437ZM190.28 291.406C188.967 291.406 188.092 292.046 188.108 293.031C188.092 294.015 188.967 294.64 190.28 294.625C191.577 294.64 192.452 294.015 192.467 293.031C192.452 292.046 191.577 291.406 190.28 291.406ZM197.608 299.515V300.546H188.28V296.546H189.483V299.515H197.608ZM208.733 289.14C208.717 291.125 210.124 292.875 212.17 293.562L211.483 294.515C209.952 293.937 208.749 292.812 208.155 291.343C207.553 293.007 206.28 294.304 204.608 294.937L203.936 293.937C206.077 293.187 207.499 291.343 207.514 289.187V287.75H208.733V289.14ZM215.467 286.953V295.187H214.233V290.953H211.139V289.937H214.233V286.953H215.467ZM210.858 295.593C213.749 295.593 215.514 296.546 215.514 298.218C215.514 299.875 213.749 300.812 210.858 300.812C207.967 300.812 206.202 299.875 206.202 298.218C206.202 296.546 207.967 295.593 210.858 295.593ZM210.858 296.562C208.733 296.562 207.405 297.187 207.42 298.218C207.405 299.218 208.733 299.828 210.858 299.828C212.983 299.828 214.295 299.218 214.295 298.218C214.295 297.187 212.983 296.562 210.858 296.562ZM223.014 289.578C223.014 290.984 224.405 292.171 226.374 292.609L225.874 293.593C224.272 293.203 223.038 292.351 222.436 291.218C221.834 292.445 220.584 293.375 218.936 293.781L218.405 292.796C220.405 292.359 221.795 291.062 221.795 289.578V289.515H218.702V288.546H221.795V287H223.014V288.546H226.108V289.515H223.014V289.578ZM229.233 286.968V300.859H228.03V286.968H229.233ZM217.749 294.765C220.405 294.765 223.936 294.734 227.014 294.343L227.092 295.234C225.764 295.453 224.389 295.585 223.045 295.656V300.437H221.827V295.718C220.42 295.789 219.084 295.796 217.92 295.796L217.749 294.765ZM242.827 293.468V294.468H238.53V298.062H244.327V299.093H231.608V298.062H237.327V294.468H233.233V288.093H242.686V289.093H234.467V293.468H242.827ZM262.374 289.39V290.406H260.311V292.328H262.374V293.359H260.311V295.921H259.092V286.953H260.311V289.39H262.374ZM255.92 296.015C258.749 296.015 260.467 296.906 260.467 298.421C260.467 299.937 258.749 300.812 255.92 300.812C253.092 300.812 251.358 299.937 251.374 298.421C251.358 296.906 253.092 296.015 255.92 296.015ZM255.92 296.984C253.842 296.984 252.577 297.5 252.592 298.421C252.577 299.328 253.842 299.859 255.92 299.859C257.999 299.859 259.249 299.328 259.249 298.421C259.249 297.5 257.999 296.984 255.92 296.984ZM257.764 288.546V289.515H249.483V288.546H253.014V286.843H254.233V288.546H257.764ZM253.624 290.234C255.624 290.234 256.952 291.203 256.967 292.687C256.952 294.187 255.624 295.14 253.624 295.14C251.608 295.14 250.264 294.187 250.28 292.687C250.264 291.203 251.608 290.234 253.624 290.234ZM253.624 291.156C252.311 291.171 251.436 291.781 251.452 292.687C251.436 293.593 252.311 294.187 253.624 294.187C254.92 294.187 255.795 293.593 255.811 292.687C255.795 291.781 254.92 291.171 253.624 291.156ZM267.92 289.203C267.92 291.093 269.358 292.828 271.374 293.515L270.702 294.484C269.163 293.921 267.952 292.773 267.342 291.328C266.749 292.96 265.514 294.25 263.889 294.875L263.233 293.89C265.311 293.109 266.702 291.25 266.717 289.109V287.671H267.92V289.203ZM274.139 286.953V290.578H276.233V291.609H274.139V295.406H272.92V286.953H274.139ZM269.686 295.765C272.545 295.765 274.264 296.687 274.264 298.281C274.264 299.906 272.545 300.812 269.686 300.812C266.827 300.812 265.077 299.906 265.077 298.281C265.077 296.687 266.827 295.765 269.686 295.765ZM269.686 296.75C267.592 296.75 266.295 297.328 266.311 298.281C266.295 299.265 267.592 299.828 269.686 299.843C271.795 299.828 273.077 299.265 273.077 298.281C273.077 297.328 271.795 296.75 269.686 296.75Z" fill="black"/>
<path d="M31.5908 92.6416C31.5752 95.1729 33.3096 97.7354 35.3564 98.6572L34.6064 99.626C33.0283 98.8525 31.6611 97.2197 30.9971 95.2354C30.3486 97.3369 28.9814 99.0869 27.3564 99.9072L26.5752 98.876C28.6377 97.9229 30.3564 95.2822 30.3721 92.6416V90.1104H31.5908V92.6416ZM38.1064 88.9072V102.829H36.8721V88.9072H38.1064ZM51.9971 88.9072V97.3291H50.7627V94.1572H48.4033V93.1416H50.7627V88.9072H51.9971ZM51.9971 98.0791V102.61H42.9189V98.0791H51.9971ZM44.1377 99.0635V101.61H50.7939V99.0635H44.1377ZM48.6064 90.376V91.376H40.4971V90.376H43.9502V88.7822H45.1533V90.376H48.6064ZM44.5439 92.0947C46.4346 92.0947 47.7627 93.1104 47.7783 94.5635C47.7627 96.0635 46.4346 97.0479 44.5439 97.0479C42.6533 97.0479 41.3252 96.0635 41.3252 94.5635C41.3252 93.1104 42.6533 92.0947 44.5439 92.0947ZM44.5439 93.0479C43.3408 93.0479 42.4971 93.6729 42.4971 94.5635C42.4971 95.4854 43.3408 96.0947 44.5439 96.1104C45.7471 96.0947 46.5908 95.4854 46.5908 94.5635C46.5908 93.6729 45.7471 93.0479 44.5439 93.0479ZM69.8408 88.9229V99.1104H68.6064V93.7822H65.7471V92.7666H68.6064V88.9229H69.8408ZM70.2314 101.47V102.501H60.9189V98.1885H62.1533V101.47H70.2314ZM63.1533 91.7822C63.1533 93.5791 64.5439 95.3291 66.5752 96.0166L65.9346 97.001C64.3643 96.4385 63.1533 95.2666 62.5596 93.8291C61.958 95.4307 60.6768 96.7119 59.0283 97.3291L58.3877 96.3291C60.4346 95.6104 61.9189 93.7822 61.9189 91.7822V91.0635H58.7783V90.0479H66.2627V91.0635H63.1533V91.7822ZM85.1064 91.1416V92.1572H83.0127V94.0479H85.1064V95.0791H83.0127V97.3604H81.7939V88.9229H83.0127V91.1416H85.1064ZM79.0439 89.751V93.5791H73.9814V95.5947C76.4502 95.5947 78.2393 95.5088 80.4033 95.1416L80.5283 96.1572C78.2939 96.5322 76.4346 96.6104 73.8564 96.6104H72.7783V92.6104H77.8408V90.751H72.7471V89.751H79.0439ZM83.0127 98.0947V102.798H81.7939V99.0947H73.9189V98.0947H83.0127ZM102.653 95.4072V96.4229H96.9189V97.9072C99.5439 98.0166 101.091 98.876 101.106 100.345C101.091 101.892 99.3096 102.767 96.3252 102.767C93.3096 102.767 91.5283 101.892 91.5283 100.345C91.5283 98.876 93.0674 98.0166 95.7158 97.9072V96.4229H89.9971V95.4072H102.653ZM96.3252 98.8447C94.0908 98.8604 92.7627 99.4072 92.7783 100.345C92.7627 101.267 94.0908 101.813 96.3252 101.813C98.5283 101.813 99.8721 101.267 99.8721 100.345C99.8721 99.4072 98.5283 98.8604 96.3252 98.8447ZM101.528 89.5635V90.5635H97.1221C97.2002 92.126 99.4971 93.3369 101.95 93.5947L101.497 94.5635C99.2236 94.29 97.0908 93.2744 96.3252 91.7197C95.5674 93.2744 93.4424 94.29 91.1533 94.5635L90.7158 93.5947C93.1221 93.3369 95.4346 92.126 95.5283 90.5635H91.1533V89.5635H101.528ZM115.294 88.9229V96.8135H114.075V88.9229H115.294ZM115.294 97.6104V102.61H106.263V97.6104H115.294ZM107.466 98.6104V101.61H114.091V98.6104H107.466ZM108.747 90.8291C108.731 92.7979 110.231 94.5322 112.278 95.251L111.653 96.1885C110.044 95.6338 108.763 94.4619 108.138 92.9385C107.521 94.5635 106.224 95.8447 104.56 96.4541L103.935 95.4854C106.044 94.751 107.497 92.876 107.497 90.8291V89.4697H108.747V90.8291ZM122.2 89.9229C124.388 89.9229 125.935 91.251 125.935 93.1885C125.935 95.126 124.388 96.4541 122.2 96.4541C120.013 96.4541 118.435 95.126 118.45 93.1885C118.435 91.251 120.013 89.9229 122.2 89.9229ZM122.2 91.001C120.716 91.001 119.638 91.8916 119.653 93.1885C119.638 94.4854 120.716 95.376 122.2 95.376C123.669 95.376 124.731 94.4854 124.731 93.1885C124.731 91.8916 123.669 91.001 122.2 91.001ZM129.044 88.9072V102.829H127.825V88.9072H129.044ZM117.731 98.7197C120.294 98.7197 123.825 98.7041 126.903 98.251L126.997 99.1572C123.825 99.751 120.403 99.7666 117.903 99.7666L117.731 98.7197ZM146.95 88.9072V96.1104H145.747V88.9072H146.95ZM146.966 96.8135V100.142H139.169V101.642H147.466V102.642H137.966V99.1885H145.747V97.7979H137.935V96.8135H146.966ZM140.419 90.376C140.403 92.3447 141.903 94.0791 143.966 94.751L143.356 95.7041C141.731 95.1494 140.435 93.9854 139.81 92.4854C139.185 94.1025 137.88 95.376 136.231 95.9697L135.591 95.001C137.685 94.2666 139.169 92.4229 139.169 90.376V89.3135H140.419V90.376ZM160.841 88.9229V99.1104H159.606V93.7822H156.747V92.7666H159.606V88.9229H160.841ZM161.231 101.47V102.501H151.919V98.1885H153.153V101.47H161.231ZM154.153 91.7822C154.153 93.5791 155.544 95.3291 157.575 96.0166L156.935 97.001C155.364 96.4385 154.153 95.2666 153.56 93.8291C152.958 95.4307 151.677 96.7119 150.028 97.3291L149.388 96.3291C151.435 95.6104 152.919 93.7822 152.919 91.7822V91.0635H149.778V90.0479H157.263V91.0635H154.153V91.7822ZM179.044 88.9072V102.798H177.872V95.5166H175.825V102.079H174.7V89.2197H175.825V94.501H177.872V88.9072H179.044ZM172.888 90.6104V91.626H168.903V98.3135C170.817 98.3057 172.146 98.2354 173.685 97.9229L173.794 98.9541C172.122 99.2979 170.7 99.3604 168.575 99.3604H167.685V90.6104H172.888ZM192.45 88.9072V102.829H191.216V88.9072H192.45ZM183.028 90.0947V93.7666H187.169V90.0947H188.372V99.4697H181.81V90.0947H183.028ZM183.028 98.4385H187.169V94.751H183.028V98.4385ZM211.56 99.9854V101.017H198.841V99.9854H204.56V96.5947H200.341V90.0791H209.981V96.5947H205.763V99.9854H211.56ZM201.544 91.0635V95.6104H208.794V91.0635H201.544ZM223.825 92.5947V93.5947H214.356V89.4072H223.685V90.4229H215.591V92.5947H223.825ZM225.325 94.7197V95.7197H221.95V97.1572H223.7V100.251H215.45V101.657H224.122V102.642H214.231V99.3447H222.497V98.0947H214.2V97.1572H216.153V95.7197H212.669V94.7197H225.325ZM217.372 97.1572H220.731V95.7197H217.372V97.1572ZM231.372 97.2197C231.388 94.2666 232.185 91.8135 233.622 89.7354H234.81C233.747 91.2822 232.763 94.4385 232.763 97.2197C232.763 100.001 233.747 103.173 234.81 104.72H233.622C232.185 102.626 231.388 100.173 231.372 97.2197ZM247.106 90.3135V91.7041C247.091 93.4072 247.091 95.3135 246.591 98.1104L245.341 97.9697C245.872 95.3135 245.872 93.3604 245.872 91.7041V91.3291H237.31V90.3135H247.106ZM248.622 99.8135V100.829H235.966V99.8135H240.935V94.8447H242.138V99.8135H248.622ZM258.106 90.4072V91.4072H249.825V90.4072H253.356V88.8447H254.575V90.4072H258.106ZM253.966 92.126C255.966 92.1416 257.294 93.1104 257.31 94.6416C257.294 96.1572 255.966 97.1416 253.966 97.1416C251.966 97.1416 250.606 96.1572 250.622 94.6416C250.606 93.1104 251.966 92.1416 253.966 92.126ZM253.966 93.0791C252.653 93.0947 251.778 93.7041 251.794 94.6416C251.778 95.5635 252.653 96.1572 253.966 96.1572C255.263 96.1572 256.138 95.5635 256.153 94.6416C256.138 93.7041 255.263 93.0947 253.966 93.0791ZM260.653 88.9072V92.7666H262.747V93.7979H260.653V97.5947H259.435V88.9072H260.653ZM260.653 98.3604V102.798H259.435V99.3604H251.56V98.3604H260.653ZM275.138 88.9229V99.2041H273.903V94.3916H269.903V93.4072H273.903V91.7354H269.903V90.751H273.903V88.9229H275.138ZM275.513 101.47V102.501H266.185V98.3291H267.419V101.47H275.513ZM265.685 89.9229V96.0947C267.599 96.0869 269.442 95.9854 271.56 95.5947L271.685 96.6104C269.419 97.0322 267.528 97.126 265.497 97.1416H264.45V89.9229H265.685ZM293.341 88.9072V102.798H292.169V95.5166H290.122V102.079H288.997V89.2197H290.122V94.501H292.169V88.9072H293.341ZM287.185 90.6104V91.626H283.2V98.3135C285.114 98.3057 286.442 98.2354 287.981 97.9229L288.091 98.9541C286.419 99.2979 284.997 99.3604 282.872 99.3604H281.981V90.6104H287.185ZM299.935 91.1572C299.935 93.0479 301.372 94.7822 303.388 95.4697L302.716 96.4385C301.177 95.876 299.966 94.7275 299.356 93.2822C298.763 94.915 297.528 96.2041 295.903 96.8291L295.247 95.8447C297.325 95.0635 298.716 93.2041 298.731 91.0635V89.626H299.935V91.1572ZM306.153 88.9072V92.5322H308.247V93.5635H306.153V97.3604H304.935V88.9072H306.153ZM301.7 97.7197C304.56 97.7197 306.278 98.6416 306.278 100.235C306.278 101.86 304.56 102.767 301.7 102.767C298.841 102.767 297.091 101.86 297.091 100.235C297.091 98.6416 298.841 97.7197 301.7 97.7197ZM301.7 98.7041C299.606 98.7041 298.31 99.2822 298.325 100.235C298.31 101.22 299.606 101.782 301.7 101.798C303.81 101.782 305.091 101.22 305.091 100.235C305.091 99.2822 303.81 98.7041 301.7 98.7041ZM312.591 97.2197C312.575 100.173 311.778 102.626 310.341 104.72H309.153C310.216 103.173 311.2 100.001 311.2 97.2197C311.2 94.4385 310.216 91.2822 309.153 89.7354H310.341C311.778 91.8135 312.575 94.2666 312.591 97.2197Z" fill="black"/>
<path d="M36.6548 157.095V158.095C36.6548 159.134 36.6548 160.376 36.311 162.048H38.3267V163.048H32.5454V165.61H36.7485V170.298H35.5142V166.626H26.9204V165.61H31.3267V163.048H25.6079V162.048H35.0767C35.436 160.345 35.436 159.134 35.436 158.095H27.2173V157.095H36.6548ZM51.2954 156.407V170.298H50.0923V163.11H48.0923V169.579H46.936V156.72H48.0923V162.063H50.0923V156.407H51.2954ZM41.3579 158.11V165.61C42.7407 165.595 44.2095 165.501 45.9048 165.157L46.061 166.251C44.1235 166.595 42.5298 166.704 40.9985 166.704H40.1392V158.11H41.3579ZM57.811 157.313C59.9985 157.329 61.5454 158.642 61.5454 160.579C61.5454 162.329 60.2798 163.571 58.4204 163.782V166.157C59.7954 166.087 61.1938 165.97 62.5142 165.767L62.6079 166.673C59.436 167.267 56.0142 167.282 53.5142 167.282L53.3423 166.251C54.4751 166.251 55.7954 166.251 57.186 166.204V163.782C55.3267 163.563 54.0454 162.329 54.061 160.579C54.0454 158.642 55.6235 157.329 57.811 157.313ZM57.811 158.392C56.3267 158.392 55.2485 159.282 55.2642 160.579C55.2485 161.876 56.3267 162.782 57.811 162.767C59.2798 162.782 60.3423 161.876 60.3423 160.579C60.3423 159.282 59.2798 158.392 57.811 158.392ZM64.6548 156.407V170.329H63.436V156.407H64.6548ZM74.936 157.251C76.1079 157.243 77.1079 157.681 77.7485 158.423H81.3892V156.407H82.6235V164.642H81.3892V162.657H77.7642C77.1079 163.399 76.1079 163.837 74.936 163.829C72.8579 163.845 71.3267 162.485 71.3267 160.548C71.3267 158.595 72.8579 157.235 74.936 157.251ZM74.936 158.313C73.5142 158.298 72.4985 159.235 72.4985 160.548C72.4985 161.845 73.5142 162.782 74.936 162.782C76.311 162.782 77.3423 161.845 77.3423 160.548C77.3423 159.235 76.311 158.298 74.936 158.313ZM78.0142 164.97C80.8892 164.97 82.6704 165.938 82.6704 167.61C82.6704 169.298 80.8892 170.267 78.0142 170.267C75.1235 170.267 73.3579 169.298 73.3579 167.61C73.3579 165.938 75.1235 164.97 78.0142 164.97ZM78.0142 165.923C75.8892 165.923 74.561 166.563 74.561 167.61C74.561 168.657 75.8892 169.282 78.0142 169.282C80.1548 169.282 81.4673 168.657 81.4673 167.61C81.4673 166.563 80.1548 165.923 78.0142 165.923ZM78.3423 159.423C78.4595 159.767 78.5298 160.142 78.5298 160.548C78.5298 160.938 78.4595 161.306 78.3423 161.642H81.3892V159.423H78.3423ZM88.6704 157.485C90.561 157.501 91.9204 159.118 92.1235 161.72H95.2329V156.407H96.4517V170.329H95.2329V162.735H92.1392C91.9907 165.454 90.6079 167.157 88.6704 167.157C86.6235 167.157 85.186 165.282 85.186 162.329C85.186 159.376 86.6235 157.501 88.6704 157.485ZM88.6704 158.579C87.2954 158.595 86.3579 160.063 86.3579 162.329C86.3579 164.595 87.2954 166.063 88.6704 166.063C90.0298 166.063 90.9829 164.595 90.9829 162.329C90.9829 160.063 90.0298 158.595 88.6704 158.579ZM107.717 160.142C107.702 162.673 109.436 165.235 111.483 166.157L110.733 167.126C109.155 166.353 107.788 164.72 107.124 162.735C106.475 164.837 105.108 166.587 103.483 167.407L102.702 166.376C104.764 165.423 106.483 162.782 106.499 160.142V157.61H107.717V160.142ZM114.233 156.407V170.329H112.999V156.407H114.233ZM128.124 156.407V164.829H126.889V161.657H124.53V160.642H126.889V156.407H128.124ZM128.124 165.579V170.11H119.045V165.579H128.124ZM120.264 166.563V169.11H126.92V166.563H120.264ZM124.733 157.876V158.876H116.624V157.876H120.077V156.282H121.28V157.876H124.733ZM120.67 159.595C122.561 159.595 123.889 160.61 123.905 162.063C123.889 163.563 122.561 164.548 120.67 164.548C118.78 164.548 117.452 163.563 117.452 162.063C117.452 160.61 118.78 159.595 120.67 159.595ZM120.67 160.548C119.467 160.548 118.624 161.173 118.624 162.063C118.624 162.985 119.467 163.595 120.67 163.61C121.874 163.595 122.717 162.985 122.717 162.063C122.717 161.173 121.874 160.548 120.67 160.548ZM136.764 156.657C139.858 156.657 141.67 157.501 141.67 159.048C141.67 160.626 139.858 161.47 136.764 161.485C133.67 161.47 131.842 160.626 131.842 159.048C131.842 157.501 133.67 156.657 136.764 156.657ZM136.764 157.579C134.452 157.579 133.108 158.142 133.124 159.048C133.108 160.017 134.452 160.548 136.764 160.548C139.061 160.548 140.42 160.017 140.42 159.048C140.42 158.142 139.061 157.579 136.764 157.579ZM143.092 162.423V163.423H130.436V162.423H143.092ZM141.467 164.626V167.735H133.217V169.173H141.889V170.142H131.999V166.829H140.264V165.563H131.967V164.626H141.467ZM160.155 156.407V170.298H158.983V163.017H156.936V169.579H155.811V156.72H156.936V162.001H158.983V156.407H160.155ZM153.999 158.11V159.126H150.014V165.813C151.928 165.806 153.256 165.735 154.795 165.423L154.905 166.454C153.233 166.798 151.811 166.86 149.686 166.86H148.795V158.11H153.999ZM173.561 156.407V170.329H172.327V156.407H173.561ZM164.139 157.595V161.267H168.28V157.595H169.483V166.97H162.92V157.595H164.139ZM164.139 165.938H168.28V162.251H164.139V165.938ZM182.874 158.813V159.813H175.905V158.813H178.795V156.829H180.014V158.813H182.874ZM179.389 160.751C181.139 160.751 182.389 162.063 182.405 163.907C182.389 165.767 181.139 167.095 179.389 167.095C177.655 167.095 176.405 165.767 176.405 163.907C176.405 162.063 177.655 160.751 179.389 160.751ZM179.389 161.782C178.295 161.798 177.499 162.688 177.499 163.907C177.499 165.142 178.295 166.032 179.389 166.017C180.499 166.032 181.311 165.142 181.311 163.907C181.311 162.688 180.499 161.798 179.389 161.782ZM187.764 156.407V170.298H186.592V163.282H184.749V169.61H183.592V156.751H184.749V162.267H186.592V156.407H187.764ZM205.233 156.407V163.61H204.03V156.407H205.233ZM205.249 164.313V167.642H197.452V169.142H205.749V170.142H196.249V166.688H204.03V165.298H196.217V164.313H205.249ZM198.702 157.876C198.686 159.845 200.186 161.579 202.249 162.251L201.639 163.204C200.014 162.649 198.717 161.485 198.092 159.985C197.467 161.603 196.163 162.876 194.514 163.47L193.874 162.501C195.967 161.767 197.452 159.923 197.452 157.876V156.813H198.702V157.876ZM219.124 156.423V166.61H217.889V161.282H215.03V160.267H217.889V156.423H219.124ZM219.514 168.97V170.001H210.202V165.688H211.436V168.97H219.514ZM212.436 159.282C212.436 161.079 213.827 162.829 215.858 163.517L215.217 164.501C213.647 163.938 212.436 162.767 211.842 161.329C211.241 162.931 209.959 164.212 208.311 164.829L207.67 163.829C209.717 163.11 211.202 161.282 211.202 159.282V158.563H208.061V157.548H215.545V158.563H212.436V159.282ZM236.311 156.407V159.813H238.405V160.829H236.311V164.298H235.092V156.407H236.311ZM232.514 157.313C232.499 160.813 230.045 163.313 225.936 164.438L225.436 163.454C228.858 162.532 230.944 160.681 231.202 158.329H226.061V157.313H232.514ZM236.311 164.938V170.11H227.514V164.938H236.311ZM228.733 165.954V169.11H235.092V165.954H228.733ZM250.139 156.407V159.938H252.233V160.985H250.139V164.563H248.92V156.407H250.139ZM246.327 157.298C246.327 160.813 243.874 163.313 239.764 164.407L239.264 163.454C242.67 162.532 244.772 160.673 245.03 158.313H239.889V157.298H246.327ZM250.139 165.204V170.298H248.92V166.204H241.045V165.204H250.139ZM259.436 156.657C262.53 156.657 264.342 157.501 264.342 159.048C264.342 160.626 262.53 161.47 259.436 161.485C256.342 161.47 254.514 160.626 254.514 159.048C254.514 157.501 256.342 156.657 259.436 156.657ZM259.436 157.579C257.124 157.579 255.78 158.142 255.795 159.048C255.78 160.017 257.124 160.548 259.436 160.548C261.733 160.548 263.092 160.017 263.092 159.048C263.092 158.142 261.733 157.579 259.436 157.579ZM265.764 162.423V163.423H253.108V162.423H265.764ZM264.139 164.626V167.735H255.889V169.173H264.561V170.142H254.67V166.829H262.936V165.563H254.639V164.626H264.139ZM282.202 160.001V160.985H277.889V162.751H283.608V163.767H270.952V162.751H276.67V160.985H272.686V156.72H273.905V160.001H282.202ZM282.217 165.157V166.142H280.061V169.11H282.327V170.11H272.249V169.11H274.514V166.142H272.374V165.157H282.217ZM275.733 169.11H278.858V166.142H275.733V169.11ZM296.233 156.407V170.329H294.999V156.407H296.233ZM288.842 157.485C290.905 157.501 292.389 159.376 292.389 162.329C292.389 165.282 290.905 167.157 288.842 167.157C286.764 167.157 285.295 165.282 285.295 162.329C285.295 159.376 286.764 157.501 288.842 157.485ZM288.842 158.579C287.452 158.595 286.483 160.063 286.483 162.329C286.483 164.595 287.452 166.063 288.842 166.063C290.233 166.063 291.202 164.595 291.202 162.329C291.202 160.063 290.233 158.595 288.842 158.579ZM309.749 157.813V159.204C309.733 160.907 309.733 162.813 309.233 165.61L307.983 165.47C308.514 162.813 308.514 160.86 308.514 159.204V158.829H299.952V157.813H309.749ZM311.264 167.313V168.329H298.608V167.313H303.577V162.345H304.78V167.313H311.264ZM314.717 167.985L313.499 172.235H312.342L313.202 167.985H314.717ZM37.1235 182.423V192.61H35.8892V187.282H33.0298V186.267H35.8892V182.423H37.1235ZM37.5142 194.97V196.001H28.2017V191.688H29.436V194.97H37.5142ZM30.436 185.282C30.436 187.079 31.8267 188.829 33.8579 189.517L33.2173 190.501C31.647 189.938 30.436 188.767 29.8423 187.329C29.2407 188.931 27.9595 190.212 26.311 190.829L25.6704 189.829C27.7173 189.11 29.2017 187.282 29.2017 185.282V184.563H26.061V183.548H33.5454V184.563H30.436V185.282ZM52.3892 184.642V185.657H50.2954V187.548H52.3892V188.579H50.2954V190.86H49.0767V182.423H50.2954V184.642H52.3892ZM46.3267 183.251V187.079H41.2642V189.095C43.7329 189.095 45.522 189.009 47.686 188.642L47.811 189.657C45.5767 190.032 43.7173 190.11 41.1392 190.11H40.061V186.11H45.1235V184.251H40.0298V183.251H46.3267ZM50.2954 191.595V196.298H49.0767V192.595H41.2017V191.595H50.2954ZM58.0923 184.97C58.0923 186.782 59.4829 188.501 61.5142 189.204L60.8735 190.173C59.3032 189.61 58.0923 188.446 57.4985 187.017C56.897 188.618 55.6157 189.899 53.9673 190.501L53.3267 189.532C55.3735 188.798 56.8579 186.938 56.8579 184.985V184.376H53.7173V183.376H61.2017V184.376H58.0923V184.97ZM64.7798 191.47V196.298H63.5454V192.485H55.436V191.47H64.7798ZM64.7798 182.407V190.735H63.5454V187.079H60.7642V186.048H63.5454V182.407H64.7798ZM75.7642 186.142C75.7642 188.595 77.3892 191.11 79.3579 192.079L78.6079 193.063C77.0767 192.259 75.7954 190.618 75.186 188.688C74.561 190.743 73.2485 192.493 71.686 193.329L70.9048 192.345C72.936 191.345 74.5454 188.673 74.561 186.142V183.61H75.7642V186.142ZM81.8579 182.407V188.048H84.186V189.11H81.8579V196.298H80.6392V182.407H81.8579ZM96.0767 183.813V185.204C96.061 186.907 96.061 188.813 95.561 191.61L94.311 191.47C94.8423 188.813 94.8423 186.86 94.8423 185.204V184.829H86.2798V183.813H96.0767ZM97.5923 193.313V194.329H84.936V193.313H89.9048V188.345H91.1079V193.313H97.5923ZM102.952 183.313C105.092 183.329 106.639 184.642 106.655 186.579C106.639 188.321 105.389 189.563 103.577 189.782V192.157C104.874 192.095 106.178 192.001 107.389 191.845L107.467 192.767C104.53 193.267 101.233 193.298 98.7954 193.282L98.5923 192.251C99.7095 192.243 101.006 192.235 102.342 192.188V189.782C100.499 189.571 99.2329 188.329 99.2485 186.579C99.2329 184.642 100.78 183.329 102.952 183.313ZM102.952 184.376C101.499 184.376 100.436 185.282 100.452 186.579C100.436 187.876 101.499 188.782 102.952 188.782C104.389 188.782 105.436 187.876 105.452 186.579C105.436 185.282 104.389 184.376 102.952 184.376ZM109.499 182.407V188.142H111.764V189.204H109.499V196.298H108.28V182.407H109.499ZM129.311 189.517V190.532H123.655V193.376H122.436V190.532H116.592V189.517H129.311ZM127.655 183.095V187.923H118.249V183.095H127.655ZM119.452 184.063V186.938H126.436V184.063H119.452ZM127.889 194.97V196.001H118.217V192.001H119.452V194.97H127.889ZM142.311 182.407V196.298H141.139V182.407H142.311ZM139.499 182.751V195.579H138.342V188.423H135.999V187.423H138.342V182.751H139.499ZM134.514 186.376C134.514 188.782 135.592 191.173 137.514 192.282L136.764 193.188C135.397 192.368 134.428 190.868 133.952 189.095C133.444 191.009 132.436 192.642 131.045 193.517L130.264 192.595C132.202 191.438 133.327 188.907 133.327 186.376V185.063H130.655V184.048H137.061V185.063H134.514V186.376ZM155.217 184.813V185.813H148.249V184.813H151.139V182.829H152.358V184.813H155.217ZM151.733 186.751C153.483 186.751 154.733 188.063 154.749 189.907C154.733 191.767 153.483 193.095 151.733 193.095C149.999 193.095 148.749 191.767 148.749 189.907C148.749 188.063 149.999 186.751 151.733 186.751ZM151.733 187.782C150.639 187.798 149.842 188.688 149.842 189.907C149.842 191.142 150.639 192.032 151.733 192.017C152.842 192.032 153.655 191.142 153.655 189.907C153.655 188.688 152.842 187.798 151.733 187.782ZM160.108 182.407V196.298H158.936V189.282H157.092V195.61H155.936V182.751H157.092V188.267H158.936V182.407H160.108ZM173.624 182.407V189.517H172.389V188.063H168.686V187.095H172.389V185.423H168.889C168.014 187.618 165.858 189.095 162.78 189.829L162.342 188.813C165.749 188.024 167.733 186.36 167.967 184.126H163.045V183.11H169.311C169.311 183.571 169.264 184.017 169.186 184.438H172.389V182.407H173.624ZM173.624 190.142V193.532H165.874V195.157H174.092V196.173H164.655V192.595H172.389V191.142H164.624V190.142H173.624ZM182.53 183.267V187.157H177.749V189.313C180.358 189.313 181.702 189.274 183.342 188.97L183.467 189.985C181.733 190.267 180.327 190.313 177.514 190.313H176.53V186.22H181.311V184.251H176.499V183.267H182.53ZM187.452 182.423V190.954H186.217V188.376H183.452V187.36H186.217V185.485H183.452V184.485H186.217V182.423H187.452ZM187.452 191.704V196.329H186.217V192.704H178.092V191.704H187.452ZM196.092 182.657C199.186 182.657 200.999 183.501 200.999 185.048C200.999 186.626 199.186 187.47 196.092 187.485C192.999 187.47 191.17 186.626 191.17 185.048C191.17 183.501 192.999 182.657 196.092 182.657ZM196.092 183.579C193.78 183.579 192.436 184.142 192.452 185.048C192.436 186.017 193.78 186.548 196.092 186.548C198.389 186.548 199.749 186.017 199.749 185.048C199.749 184.142 198.389 183.579 196.092 183.579ZM202.42 188.423V189.423H189.764V188.423H202.42ZM200.795 190.626V193.735H192.545V195.173H201.217V196.142H191.327V192.829H199.592V191.563H191.295V190.626H200.795ZM215.061 183.86C215.045 187.876 213.592 191.579 208.577 194.032L207.889 193.048C210.491 191.798 212.1 190.196 212.983 188.313L208.155 188.782L207.952 187.688L213.374 187.329C213.624 186.556 213.772 185.735 213.827 184.876H208.655V183.86H215.061ZM219.092 182.407V196.298H217.858V182.407H219.092ZM224.28 190.751V192.407H231.233V190.751H232.452V196.063H223.061V190.751H224.28ZM224.28 195.063H231.233V193.376H224.28V195.063ZM234.092 188.751V189.782H228.358V191.548H227.155V189.782H221.436V188.751H234.092ZM227.764 182.642C230.811 182.642 232.67 183.548 232.67 185.173C232.67 186.782 230.811 187.72 227.764 187.704C224.717 187.72 222.842 186.782 222.842 185.173C222.842 183.548 224.717 182.642 227.764 182.642ZM227.764 183.579C225.499 183.563 224.092 184.173 224.108 185.173C224.092 186.157 225.499 186.751 227.764 186.751C230.014 186.751 231.42 186.157 231.42 185.173C231.42 184.173 230.014 183.563 227.764 183.579ZM246.717 182.407V196.298H245.499V182.407H246.717ZM237.374 183.782V191.657C239.491 191.649 241.686 191.478 244.014 190.985L244.186 192.032C241.717 192.548 239.514 192.72 237.295 192.72H236.17V183.782H237.374ZM259.842 182.407V187.907H262.17V188.938H259.842V196.329H258.624V182.407H259.842ZM256.186 183.767V184.782H250.92V191.813C253.436 191.813 255.217 191.696 257.28 191.313L257.436 192.376C255.264 192.767 253.436 192.845 250.795 192.845H249.702V183.767H256.186ZM264.389 195.126C263.842 195.126 263.374 194.673 263.389 194.11C263.374 193.563 263.842 193.11 264.389 193.11C264.936 193.11 265.389 193.563 265.389 194.11C265.389 194.673 264.936 195.126 264.389 195.126Z" fill="black"/>
<defs>
<linearGradient id="paint0_linear_586_1018" x1="0.68823" y1="173.5" x2="480.856" y2="173.5" gradientUnits="userSpaceOnUse">
<stop stop-color="#3182F6"/>
<stop offset="1" stop-color="#A009FF"/>
</linearGradient>
<linearGradient id="paint1_linear_586_1018" x1="25.7325" y1="60" x2="437.703" y2="59.9999" gradientUnits="userSpaceOnUse">
<stop stop-color="#3182F6"/>
<stop offset="1" stop-color="#A009FF"/>
</linearGradient>
<linearGradient id="paint2_linear_586_1018" x1="25.0454" y1="130.668" x2="324.045" y2="130.668" gradientUnits="userSpaceOnUse">
<stop stop-color="#3182F6"/>
<stop offset="1" stop-color="#A009FF"/>
</linearGradient>
<linearGradient id="paint3_linear_586_1018" x1="20.5649" y1="257.714" x2="81.612" y2="257.714" gradientUnits="userSpaceOnUse">
<stop stop-color="#3182F6"/>
<stop offset="1" stop-color="#A009FF"/>
</linearGradient>
</defs>
</svg>
