<svg width="347" height="347" viewBox="0 0 347 347" fill="none" xmlns="http://www.w3.org/2000/svg">
<rect x="0.5" y="0.5" width="346" height="346" rx="20.5" fill="white" stroke="url(#paint0_linear_469_1569)"/>
<path d="M28.1445 77V51.5469H38.1289C43.9297 51.5469 47.2344 55.0977 47.2344 60.125C47.2344 65.2227 43.8594 68.7031 37.9883 68.7031H33.418V77H28.1445ZM33.418 64.4492H37.1445C40.2734 64.4492 41.7852 62.6914 41.7852 60.125C41.7852 57.5938 40.2734 55.8711 37.1445 55.8711H33.418V64.4492ZM50.5742 77V51.5469H60.5586C66.3594 51.5469 69.6641 54.8164 69.6641 59.8438C69.6641 63.3242 68.0645 65.8555 65.1641 67.0859L70.5781 77H64.7422L59.8906 67.9648H55.8477V77H50.5742ZM55.8477 63.6758H59.5742C62.7031 63.6758 64.2148 62.375 64.2148 59.8438C64.2148 57.2773 62.7031 55.8711 59.5742 55.8711H55.8477V63.6758ZM73.3203 77V51.5469H90.4062V55.9062H78.5938V62.0938H89.5273V66.4531H78.5938V72.6406H90.4414V77H73.3203ZM94.5195 77V51.5469H104.504C110.305 51.5469 113.609 55.0977 113.609 60.125C113.609 65.2227 110.234 68.7031 104.363 68.7031H99.793V77H94.5195ZM99.793 64.4492H103.52C106.648 64.4492 108.16 62.6914 108.16 60.125C108.16 57.5938 106.648 55.8711 103.52 55.8711H99.793V64.4492Z" fill="url(#paint1_linear_469_1569)"/>
<path d="M25.0454 124.168L324.045 124.168" stroke="url(#paint2_linear_469_1569)"/>
<path d="M33.9126 232.162C33.7954 231.049 32.897 230.385 31.4712 230.385C29.9868 230.385 29.1665 231.068 29.147 232.006C29.1274 233.021 30.2017 233.49 31.4126 233.764L32.6821 234.076C35.104 234.623 36.9204 235.854 36.9204 238.217C36.9204 240.814 34.8892 242.455 31.4517 242.455C28.0337 242.455 25.8462 240.873 25.7681 237.846H28.6196C28.7173 239.271 29.8501 239.994 31.4126 239.994C32.9556 239.994 33.9517 239.271 33.9517 238.217C33.9517 237.26 33.0728 236.811 31.5298 236.42L29.9868 236.049C27.604 235.463 26.1392 234.271 26.1392 232.201C26.1392 229.623 28.4048 227.924 31.4907 227.924C34.6157 227.924 36.686 229.662 36.7251 232.162H33.9126ZM43.5415 242.475C40.2993 242.475 38.3462 240.229 38.3462 236.986C38.3462 233.744 40.3188 231.518 43.5415 231.518C46.2759 231.518 48.1313 233.119 48.2485 235.541H45.5337C45.3579 234.486 44.6743 233.764 43.5806 233.764C42.1938 233.764 41.2759 234.936 41.2759 236.947C41.2759 238.998 42.1743 240.17 43.5806 240.17C44.5962 240.17 45.3579 239.545 45.5337 238.412H48.2485C48.1118 240.814 46.354 242.475 43.5415 242.475ZM54.811 242.475C51.6079 242.475 49.6157 240.268 49.6157 236.986C49.6157 233.705 51.6079 231.518 54.811 231.518C58.0142 231.518 60.0259 233.705 60.0259 236.986C60.0259 240.268 58.0142 242.475 54.811 242.475ZM54.8306 240.229C56.3149 240.229 57.0767 238.842 57.0767 236.986C57.0767 235.111 56.3149 233.725 54.8306 233.725C53.3267 233.725 52.5454 235.111 52.5454 236.986C52.5454 238.842 53.3267 240.229 54.8306 240.229ZM61.8423 246.244V231.654H64.6938V233.432H64.811C65.2017 232.572 66.061 231.518 67.8384 231.518C70.1821 231.518 72.1353 233.334 72.1353 236.967C72.1353 240.502 70.2603 242.436 67.8384 242.436C66.1001 242.436 65.2212 241.439 64.811 240.561H64.7329V246.244H61.8423ZM64.6743 236.947C64.6743 238.861 65.4946 240.131 66.9204 240.131C68.4048 240.131 69.186 238.822 69.186 236.947C69.186 235.092 68.4048 233.822 66.9204 233.822C65.4751 233.822 64.6743 235.033 64.6743 236.947ZM78.8149 242.475C75.5728 242.475 73.5806 240.365 73.5806 237.006C73.5806 233.725 75.5923 231.518 78.6978 231.518C81.4907 231.518 83.6782 233.275 83.6782 236.889V237.709H76.4321C76.4321 239.311 77.3892 240.307 78.8735 240.307C79.8501 240.307 80.5532 239.877 80.8462 239.232H83.6001C83.1899 241.186 81.4321 242.475 78.8149 242.475ZM76.4321 235.893H80.9438C80.9438 234.604 80.0454 233.686 78.7563 233.686C77.4282 233.686 76.481 234.672 76.4321 235.893Z" fill="url(#paint3_linear_469_1569)"/>
<path d="M36.9829 264.671C36.1079 264.671 35.3892 263.953 35.3892 263.062C35.3892 262.187 36.1079 261.468 36.9829 261.468C37.8735 261.468 38.5923 262.187 38.5923 263.062C38.5923 263.953 37.8735 264.671 36.9829 264.671ZM62.311 262.062V263.078H56.6548V265.921H55.436V263.078H49.5923V262.062H62.311ZM60.6548 255.64V260.468H51.2485V255.64H60.6548ZM52.4517 256.609V259.484H59.436V256.609H52.4517ZM60.8892 267.515V268.546H51.2173V264.546H52.4517V267.515H60.8892ZM75.311 254.953V268.843H74.1392V254.953H75.311ZM72.4985 255.296V268.125H71.3423V260.968H68.9985V259.968H71.3423V255.296H72.4985ZM67.5142 258.921C67.5142 261.328 68.5923 263.718 70.5142 264.828L69.7642 265.734C68.397 264.914 67.4282 263.414 66.9517 261.64C66.4438 263.554 65.436 265.187 64.0454 266.062L63.2642 265.14C65.2017 263.984 66.3267 261.453 66.3267 258.921V257.609H63.6548V256.593H70.061V257.609H67.5142V258.921ZM93.9829 262.875V263.89H90.6235V268.843H89.3892V263.89H85.8267V268.843H84.561V263.89H81.2642V262.875H93.9829ZM87.5923 255.515C90.5142 255.515 92.4829 256.687 92.4829 258.546C92.4829 260.39 90.5142 261.562 87.5923 261.546C84.6704 261.562 82.7017 260.39 82.7017 258.546C82.7017 256.687 84.6704 255.515 87.5923 255.515ZM87.5923 256.515C85.4204 256.515 83.9517 257.312 83.9673 258.546C83.9517 259.781 85.4204 260.562 87.5923 260.562C89.7485 260.562 91.2329 259.781 91.2329 258.546C91.2329 257.312 89.7485 256.515 87.5923 256.515ZM102.983 256.515V257.515H95.1235V256.515H98.4985V254.843H99.7173V256.515H102.983ZM99.0923 258.234C100.952 258.234 102.264 259.25 102.264 260.796C102.264 262.359 100.952 263.375 99.0923 263.375C97.2173 263.375 95.936 262.359 95.9517 260.796C95.936 259.25 97.2173 258.234 99.0923 258.234ZM99.0923 259.156C97.8892 259.171 97.0923 259.828 97.0923 260.796C97.0923 261.781 97.8892 262.421 99.0923 262.421C100.295 262.421 101.108 261.781 101.124 260.796C101.108 259.828 100.295 259.171 99.0923 259.156ZM106.624 254.953V263.937H105.389V262.015H102.967V261H105.389V259.312H102.983V258.296H105.389V254.953H106.624ZM102.045 264.078C104.936 264.078 106.702 264.937 106.702 266.453C106.702 267.937 104.936 268.812 102.045 268.812C99.1235 268.812 97.3735 267.937 97.3735 266.453C97.3735 264.937 99.1235 264.078 102.045 264.078ZM102.045 265.031C99.936 265.031 98.6392 265.546 98.6392 266.453C98.6392 267.328 99.936 267.859 102.045 267.859C104.124 267.859 105.405 267.328 105.405 266.453C105.405 265.546 104.124 265.031 102.045 265.031ZM125.655 262.312V263.312H119.999V266.031H118.78V263.312H112.936V262.312H125.655ZM124.233 267.515V268.546H114.561V264.75H115.78V267.515H124.233ZM115.858 255.406V257.187H122.733V255.406H123.952V260.953H114.639V255.406H115.858ZM115.858 259.953H122.733V258.125H115.858V259.953ZM131.514 257.187C131.514 259.109 132.936 260.875 134.952 261.562L134.28 262.546C132.733 261.976 131.53 260.789 130.936 259.312C130.35 260.953 129.1 262.234 127.467 262.875L126.795 261.859C128.905 261.109 130.295 259.281 130.311 257.14V255.671H131.514V257.187ZM138.295 263.937V268.843H137.061V264.921H128.952V263.937H138.295ZM138.295 254.953V263.171H137.061V258.906H133.967V257.875H137.061V254.953H138.295ZM142.889 266.531L141.67 270.781H140.514L141.374 266.531H142.889ZM160.17 254.953V262.156H158.967V254.953H160.17ZM160.186 262.859V266.187H152.389V267.687H160.686V268.687H151.186V265.234H158.967V263.843H151.155V262.859H160.186ZM153.639 256.421C153.624 258.39 155.124 260.125 157.186 260.796L156.577 261.75C154.952 261.195 153.655 260.031 153.03 258.531C152.405 260.148 151.1 261.421 149.452 262.015L148.811 261.046C150.905 260.312 152.389 258.468 152.389 256.421V255.359H153.639V256.421ZM174.061 254.968V265.156H172.827V259.828H169.967V258.812H172.827V254.968H174.061ZM174.452 267.515V268.546H165.139V264.234H166.374V267.515H174.452ZM167.374 257.828C167.374 259.625 168.764 261.375 170.795 262.062L170.155 263.046C168.584 262.484 167.374 261.312 166.78 259.875C166.178 261.476 164.897 262.757 163.249 263.375L162.608 262.375C164.655 261.656 166.139 259.828 166.139 257.828V257.109H162.999V256.093H170.483V257.109H167.374V257.828ZM193.108 266.031V267.062H180.389V266.031H186.108V262.64H181.889V256.125H191.53V262.64H187.311V266.031H193.108ZM183.092 257.109V261.656H190.342V257.109H183.092ZM198.764 255.968C200.952 255.968 202.499 257.296 202.499 259.234C202.499 261.171 200.952 262.5 198.764 262.5C196.577 262.5 194.999 261.171 195.014 259.234C194.999 257.296 196.577 255.968 198.764 255.968ZM198.764 257.046C197.28 257.046 196.202 257.937 196.217 259.234C196.202 260.531 197.28 261.421 198.764 261.421C200.233 261.421 201.295 260.531 201.295 259.234C201.295 257.937 200.233 257.046 198.764 257.046ZM205.608 254.953V268.875H204.389V254.953H205.608ZM194.295 264.765C196.858 264.765 200.389 264.75 203.467 264.296L203.561 265.203C200.389 265.796 196.967 265.812 194.467 265.812L194.295 264.765ZM219.186 256.359V257.75C219.17 259.453 219.17 261.359 218.67 264.156L217.42 264.015C217.952 261.359 217.952 259.406 217.952 257.75V257.375H209.389V256.359H219.186ZM220.702 265.859V266.875H208.045V265.859H213.014V260.89H214.217V265.859H220.702ZM226.53 258.687C226.53 261.14 228.155 263.656 230.124 264.625L229.374 265.609C227.842 264.804 226.561 263.164 225.952 261.234C225.327 263.289 224.014 265.039 222.452 265.875L221.67 264.89C223.702 263.89 225.311 261.218 225.327 258.687V256.156H226.53V258.687ZM232.624 254.953V260.593H234.952V261.656H232.624V268.843H231.405V254.953H232.624ZM252.374 262.89V263.89H246.764V265.984H245.545V263.89H239.717V262.89H252.374ZM250.999 267.531V268.546H241.327V265.046H242.561V267.531H250.999ZM251.639 256.281V257.234H240.374V256.281H245.436V254.796H246.655V256.281H251.639ZM246.045 257.828C248.889 257.828 250.545 258.562 250.545 259.937C250.545 261.312 248.889 262.062 246.045 262.046C243.17 262.062 241.53 261.312 241.53 259.937C241.53 258.562 243.17 257.828 246.045 257.828ZM246.045 258.734C243.936 258.734 242.764 259.156 242.78 259.937C242.764 260.718 243.936 261.14 246.045 261.14C248.124 261.14 249.311 260.718 249.311 259.937C249.311 259.156 248.124 258.734 246.045 258.734ZM260.139 255.953V260H255.358V262.296C257.897 262.296 259.288 262.226 260.983 261.937L261.108 262.953C259.295 263.265 257.842 263.312 255.124 263.312H254.124V259.031H258.889V256.953H254.092V255.953H260.139ZM265.061 254.968V265.187H263.827V261.437H261.077V260.421H263.827V258.312H261.077V257.312H263.827V254.968H265.061ZM265.483 267.453V268.468H256.03V264.437H257.264V267.453H265.483ZM36.9829 290.671C36.1079 290.671 35.3892 289.953 35.3892 289.062C35.3892 288.187 36.1079 287.468 36.9829 287.468C37.8735 287.468 38.5923 288.187 38.5923 289.062C38.5923 289.953 37.8735 290.671 36.9829 290.671ZM54.5454 284.687C54.5298 287.218 56.2642 289.781 58.311 290.703L57.561 291.671C55.9829 290.898 54.6157 289.265 53.9517 287.281C53.3032 289.382 51.936 291.132 50.311 291.953L49.5298 290.921C51.5923 289.968 53.311 287.328 53.3267 284.687V282.156H54.5454V284.687ZM61.061 280.953V294.875H59.8267V280.953H61.061ZM74.9517 280.953V289.375H73.7173V286.203H71.3579V285.187H73.7173V280.953H74.9517ZM74.9517 290.125V294.656H65.8735V290.125H74.9517ZM67.0923 291.109V293.656H73.7485V291.109H67.0923ZM71.561 282.421V283.421H63.4517V282.421H66.9048V280.828H68.1079V282.421H71.561ZM67.4985 284.14C69.3892 284.14 70.7173 285.156 70.7329 286.609C70.7173 288.109 69.3892 289.093 67.4985 289.093C65.6079 289.093 64.2798 288.109 64.2798 286.609C64.2798 285.156 65.6079 284.14 67.4985 284.14ZM67.4985 285.093C66.2954 285.093 65.4517 285.718 65.4517 286.609C65.4517 287.531 66.2954 288.14 67.4985 288.156C68.7017 288.14 69.5454 287.531 69.5454 286.609C69.5454 285.718 68.7017 285.093 67.4985 285.093ZM86.5454 288.281V290.828C87.8813 290.773 89.2485 290.656 90.5298 290.468L90.6235 291.375C87.4517 291.953 84.0298 291.968 81.5298 291.968L81.3579 290.953C82.522 290.945 83.897 290.937 85.3423 290.89V288.281H86.5454ZM89.811 282.781V283.796H86.5454C86.5767 285.593 88.0688 287.054 90.1235 287.64L89.5454 288.609C87.8735 288.109 86.5688 287.039 85.9517 285.625C85.3423 287.117 84.0454 288.226 82.3735 288.734L81.7798 287.796C83.8345 287.195 85.2798 285.671 85.311 283.796H82.1235V282.781H85.3423V281.062H86.5454V282.781H89.811ZM92.6704 280.953V294.875H91.4517V280.953H92.6704ZM99.936 283.515C99.936 285.328 101.327 287.046 103.358 287.75L102.717 288.718C101.147 288.156 99.936 286.992 99.3423 285.562C98.7407 287.164 97.4595 288.445 95.811 289.046L95.1704 288.078C97.2173 287.343 98.7017 285.484 98.7017 283.531V282.921H95.561V281.921H103.045V282.921H99.936V283.515ZM106.624 290.015V294.843H105.389V291.031H97.2798V290.015H106.624ZM106.624 280.953V289.281H105.389V285.625H102.608V284.593H105.389V280.953H106.624ZM119.717 280.953V286.875H121.936V287.906H119.717V294.843H118.483V280.953H119.717ZM108.764 291.14C109.897 291.14 111.217 291.14 112.592 291.093V289.546C110.975 289.367 109.92 288.421 109.936 287.046C109.92 285.484 111.249 284.468 113.217 284.468C115.155 284.468 116.499 285.484 116.514 287.046C116.499 288.421 115.428 289.367 113.827 289.562V291.046C115.124 290.984 116.428 290.882 117.639 290.703L117.717 291.64C114.686 292.156 111.405 292.187 108.967 292.187L108.764 291.14ZM117.389 282.656V283.656H109.014V282.656H112.592V280.984H113.827V282.656H117.389ZM113.217 285.421C111.936 285.421 111.077 286.078 111.077 287.046C111.077 288.015 111.936 288.64 113.217 288.625C114.483 288.64 115.342 288.015 115.342 287.046C115.342 286.078 114.483 285.421 113.217 285.421ZM138.295 280.968V291.156H137.061V285.828H134.202V284.812H137.061V280.968H138.295ZM138.686 293.515V294.546H129.374V290.234H130.608V293.515H138.686ZM131.608 283.828C131.608 285.625 132.999 287.375 135.03 288.062L134.389 289.046C132.819 288.484 131.608 287.312 131.014 285.875C130.413 287.476 129.131 288.757 127.483 289.375L126.842 288.375C128.889 287.656 130.374 285.828 130.374 283.828V283.109H127.233V282.093H134.717V283.109H131.608V283.828ZM153.561 283.187V284.203H151.467V286.093H153.561V287.125H151.467V289.406H150.249V280.968H151.467V283.187H153.561ZM147.499 281.796V285.625H142.436V287.64C144.905 287.64 146.694 287.554 148.858 287.187L148.983 288.203C146.749 288.578 144.889 288.656 142.311 288.656H141.233V284.656H146.295V282.796H141.202V281.796H147.499ZM151.467 290.14V294.843H150.249V291.14H142.374V290.14H151.467ZM160.764 281.203C163.858 281.203 165.67 282.046 165.67 283.593C165.67 285.171 163.858 286.015 160.764 286.031C157.67 286.015 155.842 285.171 155.842 283.593C155.842 282.046 157.67 281.203 160.764 281.203ZM160.764 282.125C158.452 282.125 157.108 282.687 157.124 283.593C157.108 284.562 158.452 285.093 160.764 285.093C163.061 285.093 164.42 284.562 164.42 283.593C164.42 282.687 163.061 282.125 160.764 282.125ZM167.092 286.968V287.968H154.436V286.968H167.092ZM165.467 289.171V292.281H157.217V293.718H165.889V294.687H155.999V291.375H164.264V290.109H155.967V289.171H165.467ZM184.936 288.328V289.328H172.264V288.328H177.983V286.953H173.952V281.359H183.358V282.359H175.186V283.656H182.983V284.593H175.186V285.968H183.436V286.953H179.202V288.328H184.936ZM178.608 290.375C181.655 290.359 183.374 291.14 183.389 292.593C183.374 294.046 181.655 294.812 178.608 294.812C175.53 294.812 173.811 294.046 173.811 292.593C173.811 291.14 175.53 290.359 178.608 290.375ZM178.608 291.296C176.311 291.296 175.03 291.765 175.045 292.593C175.03 293.437 176.311 293.875 178.608 293.859C180.874 293.875 182.155 293.437 182.155 292.593C182.155 291.765 180.874 291.296 178.608 291.296ZM196.967 280.968V285.546H199.061V286.578H196.967V291.375H195.749V280.968H196.967ZM194.42 282.671V283.671H186.139V282.671H189.67V280.968H190.889V282.671H194.42ZM190.28 284.437C192.264 284.437 193.608 285.453 193.624 287.031C193.608 288.593 192.264 289.593 190.28 289.593C188.28 289.593 186.92 288.593 186.936 287.031C186.92 285.453 188.28 284.437 190.28 284.437ZM190.28 285.406C188.967 285.406 188.092 286.046 188.108 287.031C188.092 288.015 188.967 288.64 190.28 288.625C191.577 288.64 192.452 288.015 192.467 287.031C192.452 286.046 191.577 285.406 190.28 285.406ZM197.608 293.515V294.546H188.28V290.546H189.483V293.515H197.608ZM208.733 283.14C208.717 285.125 210.124 286.875 212.17 287.562L211.483 288.515C209.952 287.937 208.749 286.812 208.155 285.343C207.553 287.007 206.28 288.304 204.608 288.937L203.936 287.937C206.077 287.187 207.499 285.343 207.514 283.187V281.75H208.733V283.14ZM215.467 280.953V289.187H214.233V284.953H211.139V283.937H214.233V280.953H215.467ZM210.858 289.593C213.749 289.593 215.514 290.546 215.514 292.218C215.514 293.875 213.749 294.812 210.858 294.812C207.967 294.812 206.202 293.875 206.202 292.218C206.202 290.546 207.967 289.593 210.858 289.593ZM210.858 290.562C208.733 290.562 207.405 291.187 207.42 292.218C207.405 293.218 208.733 293.828 210.858 293.828C212.983 293.828 214.295 293.218 214.295 292.218C214.295 291.187 212.983 290.562 210.858 290.562ZM223.014 283.578C223.014 284.984 224.405 286.171 226.374 286.609L225.874 287.593C224.272 287.203 223.038 286.351 222.436 285.218C221.834 286.445 220.584 287.375 218.936 287.781L218.405 286.796C220.405 286.359 221.795 285.062 221.795 283.578V283.515H218.702V282.546H221.795V281H223.014V282.546H226.108V283.515H223.014V283.578ZM229.233 280.968V294.859H228.03V280.968H229.233ZM217.749 288.765C220.405 288.765 223.936 288.734 227.014 288.343L227.092 289.234C225.764 289.453 224.389 289.585 223.045 289.656V294.437H221.827V289.718C220.42 289.789 219.084 289.796 217.92 289.796L217.749 288.765ZM242.827 287.468V288.468H238.53V292.062H244.327V293.093H231.608V292.062H237.327V288.468H233.233V282.093H242.686V283.093H234.467V287.468H242.827ZM262.374 283.39V284.406H260.311V286.328H262.374V287.359H260.311V289.921H259.092V280.953H260.311V283.39H262.374ZM255.92 290.015C258.749 290.015 260.467 290.906 260.467 292.421C260.467 293.937 258.749 294.812 255.92 294.812C253.092 294.812 251.358 293.937 251.374 292.421C251.358 290.906 253.092 290.015 255.92 290.015ZM255.92 290.984C253.842 290.984 252.577 291.5 252.592 292.421C252.577 293.328 253.842 293.859 255.92 293.859C257.999 293.859 259.249 293.328 259.249 292.421C259.249 291.5 257.999 290.984 255.92 290.984ZM257.764 282.546V283.515H249.483V282.546H253.014V280.843H254.233V282.546H257.764ZM253.624 284.234C255.624 284.234 256.952 285.203 256.967 286.687C256.952 288.187 255.624 289.14 253.624 289.14C251.608 289.14 250.264 288.187 250.28 286.687C250.264 285.203 251.608 284.234 253.624 284.234ZM253.624 285.156C252.311 285.171 251.436 285.781 251.452 286.687C251.436 287.593 252.311 288.187 253.624 288.187C254.92 288.187 255.795 287.593 255.811 286.687C255.795 285.781 254.92 285.171 253.624 285.156ZM267.92 283.203C267.92 285.093 269.358 286.828 271.374 287.515L270.702 288.484C269.163 287.921 267.952 286.773 267.342 285.328C266.749 286.96 265.514 288.25 263.889 288.875L263.233 287.89C265.311 287.109 266.702 285.25 266.717 283.109V281.671H267.92V283.203ZM274.139 280.953V284.578H276.233V285.609H274.139V289.406H272.92V280.953H274.139ZM269.686 289.765C272.545 289.765 274.264 290.687 274.264 292.281C274.264 293.906 272.545 294.812 269.686 294.812C266.827 294.812 265.077 293.906 265.077 292.281C265.077 290.687 266.827 289.765 269.686 289.765ZM269.686 290.75C267.592 290.75 266.295 291.328 266.311 292.281C266.295 293.265 267.592 293.828 269.686 293.843C271.795 293.828 273.077 293.265 273.077 292.281C273.077 291.328 271.795 290.75 269.686 290.75Z" fill="black"/>
<path d="M31.5908 96.6416C31.5752 99.1729 33.3096 101.735 35.3564 102.657L34.6064 103.626C33.0283 102.853 31.6611 101.22 30.9971 99.2354C30.3486 101.337 28.9814 103.087 27.3564 103.907L26.5752 102.876C28.6377 101.923 30.3564 99.2822 30.3721 96.6416V94.1104H31.5908V96.6416ZM38.1064 92.9072V106.829H36.8721V92.9072H38.1064ZM51.9971 92.9072V101.329H50.7627V98.1572H48.4033V97.1416H50.7627V92.9072H51.9971ZM51.9971 102.079V106.61H42.9189V102.079H51.9971ZM44.1377 103.063V105.61H50.7939V103.063H44.1377ZM48.6064 94.376V95.376H40.4971V94.376H43.9502V92.7822H45.1533V94.376H48.6064ZM44.5439 96.0947C46.4346 96.0947 47.7627 97.1104 47.7783 98.5635C47.7627 100.063 46.4346 101.048 44.5439 101.048C42.6533 101.048 41.3252 100.063 41.3252 98.5635C41.3252 97.1104 42.6533 96.0947 44.5439 96.0947ZM44.5439 97.0479C43.3408 97.0479 42.4971 97.6729 42.4971 98.5635C42.4971 99.4854 43.3408 100.095 44.5439 100.11C45.7471 100.095 46.5908 99.4854 46.5908 98.5635C46.5908 97.6729 45.7471 97.0479 44.5439 97.0479ZM69.8408 92.9229V103.11H68.6064V97.7822H65.7471V96.7666H68.6064V92.9229H69.8408ZM70.2314 105.47V106.501H60.9189V102.188H62.1533V105.47H70.2314ZM63.1533 95.7822C63.1533 97.5791 64.5439 99.3291 66.5752 100.017L65.9346 101.001C64.3643 100.438 63.1533 99.2666 62.5596 97.8291C61.958 99.4307 60.6768 100.712 59.0283 101.329L58.3877 100.329C60.4346 99.6104 61.9189 97.7822 61.9189 95.7822V95.0635H58.7783V94.0479H66.2627V95.0635H63.1533V95.7822ZM85.1064 95.1416V96.1572H83.0127V98.0479H85.1064V99.0791H83.0127V101.36H81.7939V92.9229H83.0127V95.1416H85.1064ZM79.0439 93.751V97.5791H73.9814V99.5947C76.4502 99.5947 78.2393 99.5088 80.4033 99.1416L80.5283 100.157C78.2939 100.532 76.4346 100.61 73.8564 100.61H72.7783V96.6104H77.8408V94.751H72.7471V93.751H79.0439ZM83.0127 102.095V106.798H81.7939V103.095H73.9189V102.095H83.0127ZM102.653 99.4072V100.423H96.9189V101.907C99.5439 102.017 101.091 102.876 101.106 104.345C101.091 105.892 99.3096 106.767 96.3252 106.767C93.3096 106.767 91.5283 105.892 91.5283 104.345C91.5283 102.876 93.0674 102.017 95.7158 101.907V100.423H89.9971V99.4072H102.653ZM96.3252 102.845C94.0908 102.86 92.7627 103.407 92.7783 104.345C92.7627 105.267 94.0908 105.813 96.3252 105.813C98.5283 105.813 99.8721 105.267 99.8721 104.345C99.8721 103.407 98.5283 102.86 96.3252 102.845ZM101.528 93.5635V94.5635H97.1221C97.2002 96.126 99.4971 97.3369 101.95 97.5947L101.497 98.5635C99.2236 98.29 97.0908 97.2744 96.3252 95.7197C95.5674 97.2744 93.4424 98.29 91.1533 98.5635L90.7158 97.5947C93.1221 97.3369 95.4346 96.126 95.5283 94.5635H91.1533V93.5635H101.528ZM115.294 92.9229V100.813H114.075V92.9229H115.294ZM115.294 101.61V106.61H106.263V101.61H115.294ZM107.466 102.61V105.61H114.091V102.61H107.466ZM108.747 94.8291C108.731 96.7979 110.231 98.5322 112.278 99.251L111.653 100.188C110.044 99.6338 108.763 98.4619 108.138 96.9385C107.521 98.5635 106.224 99.8447 104.56 100.454L103.935 99.4854C106.044 98.751 107.497 96.876 107.497 94.8291V93.4697H108.747V94.8291ZM122.2 93.9229C124.388 93.9229 125.935 95.251 125.935 97.1885C125.935 99.126 124.388 100.454 122.2 100.454C120.013 100.454 118.435 99.126 118.45 97.1885C118.435 95.251 120.013 93.9229 122.2 93.9229ZM122.2 95.001C120.716 95.001 119.638 95.8916 119.653 97.1885C119.638 98.4854 120.716 99.376 122.2 99.376C123.669 99.376 124.731 98.4854 124.731 97.1885C124.731 95.8916 123.669 95.001 122.2 95.001ZM129.044 92.9072V106.829H127.825V92.9072H129.044ZM117.731 102.72C120.294 102.72 123.825 102.704 126.903 102.251L126.997 103.157C123.825 103.751 120.403 103.767 117.903 103.767L117.731 102.72ZM146.95 92.9072V100.11H145.747V92.9072H146.95ZM146.966 100.813V104.142H139.169V105.642H147.466V106.642H137.966V103.188H145.747V101.798H137.935V100.813H146.966ZM140.419 94.376C140.403 96.3447 141.903 98.0791 143.966 98.751L143.356 99.7041C141.731 99.1494 140.435 97.9854 139.81 96.4854C139.185 98.1025 137.88 99.376 136.231 99.9697L135.591 99.001C137.685 98.2666 139.169 96.4229 139.169 94.376V93.3135H140.419V94.376ZM160.841 92.9229V103.11H159.606V97.7822H156.747V96.7666H159.606V92.9229H160.841ZM161.231 105.47V106.501H151.919V102.188H153.153V105.47H161.231ZM154.153 95.7822C154.153 97.5791 155.544 99.3291 157.575 100.017L156.935 101.001C155.364 100.438 154.153 99.2666 153.56 97.8291C152.958 99.4307 151.677 100.712 150.028 101.329L149.388 100.329C151.435 99.6104 152.919 97.7822 152.919 95.7822V95.0635H149.778V94.0479H157.263V95.0635H154.153V95.7822ZM179.044 92.9072V106.798H177.872V99.5166H175.825V106.079H174.7V93.2197H175.825V98.501H177.872V92.9072H179.044ZM172.888 94.6104V95.626H168.903V102.313C170.817 102.306 172.146 102.235 173.685 101.923L173.794 102.954C172.122 103.298 170.7 103.36 168.575 103.36H167.685V94.6104H172.888ZM192.45 92.9072V106.829H191.216V92.9072H192.45ZM183.028 94.0947V97.7666H187.169V94.0947H188.372V103.47H181.81V94.0947H183.028ZM183.028 102.438H187.169V98.751H183.028V102.438ZM211.56 103.985V105.017H198.841V103.985H204.56V100.595H200.341V94.0791H209.981V100.595H205.763V103.985H211.56ZM201.544 95.0635V99.6104H208.794V95.0635H201.544ZM223.825 96.5947V97.5947H214.356V93.4072H223.685V94.4229H215.591V96.5947H223.825ZM225.325 98.7197V99.7197H221.95V101.157H223.7V104.251H215.45V105.657H224.122V106.642H214.231V103.345H222.497V102.095H214.2V101.157H216.153V99.7197H212.669V98.7197H225.325ZM217.372 101.157H220.731V99.7197H217.372V101.157ZM231.372 101.22C231.388 98.2666 232.185 95.8135 233.622 93.7354H234.81C233.747 95.2822 232.763 98.4385 232.763 101.22C232.763 104.001 233.747 107.173 234.81 108.72H233.622C232.185 106.626 231.388 104.173 231.372 101.22ZM247.106 94.3135V95.7041C247.091 97.4072 247.091 99.3135 246.591 102.11L245.341 101.97C245.872 99.3135 245.872 97.3604 245.872 95.7041V95.3291H237.31V94.3135H247.106ZM248.622 103.813V104.829H235.966V103.813H240.935V98.8447H242.138V103.813H248.622ZM258.106 94.4072V95.4072H249.825V94.4072H253.356V92.8447H254.575V94.4072H258.106ZM253.966 96.126C255.966 96.1416 257.294 97.1104 257.31 98.6416C257.294 100.157 255.966 101.142 253.966 101.142C251.966 101.142 250.606 100.157 250.622 98.6416C250.606 97.1104 251.966 96.1416 253.966 96.126ZM253.966 97.0791C252.653 97.0947 251.778 97.7041 251.794 98.6416C251.778 99.5635 252.653 100.157 253.966 100.157C255.263 100.157 256.138 99.5635 256.153 98.6416C256.138 97.7041 255.263 97.0947 253.966 97.0791ZM260.653 92.9072V96.7666H262.747V97.7979H260.653V101.595H259.435V92.9072H260.653ZM260.653 102.36V106.798H259.435V103.36H251.56V102.36H260.653ZM275.138 92.9229V103.204H273.903V98.3916H269.903V97.4072H273.903V95.7354H269.903V94.751H273.903V92.9229H275.138ZM275.513 105.47V106.501H266.185V102.329H267.419V105.47H275.513ZM265.685 93.9229V100.095C267.599 100.087 269.442 99.9854 271.56 99.5947L271.685 100.61C269.419 101.032 267.528 101.126 265.497 101.142H264.45V93.9229H265.685ZM293.341 92.9072V106.798H292.169V99.5166H290.122V106.079H288.997V93.2197H290.122V98.501H292.169V92.9072H293.341ZM287.185 94.6104V95.626H283.2V102.313C285.114 102.306 286.442 102.235 287.981 101.923L288.091 102.954C286.419 103.298 284.997 103.36 282.872 103.36H281.981V94.6104H287.185ZM299.935 95.1572C299.935 97.0479 301.372 98.7822 303.388 99.4697L302.716 100.438C301.177 99.876 299.966 98.7275 299.356 97.2822C298.763 98.915 297.528 100.204 295.903 100.829L295.247 99.8447C297.325 99.0635 298.716 97.2041 298.731 95.0635V93.626H299.935V95.1572ZM306.153 92.9072V96.5322H308.247V97.5635H306.153V101.36H304.935V92.9072H306.153ZM301.7 101.72C304.56 101.72 306.278 102.642 306.278 104.235C306.278 105.86 304.56 106.767 301.7 106.767C298.841 106.767 297.091 105.86 297.091 104.235C297.091 102.642 298.841 101.72 301.7 101.72ZM301.7 102.704C299.606 102.704 298.31 103.282 298.325 104.235C298.31 105.22 299.606 105.782 301.7 105.798C303.81 105.782 305.091 105.22 305.091 104.235C305.091 103.282 303.81 102.704 301.7 102.704ZM312.591 101.22C312.575 104.173 311.778 106.626 310.341 108.72H309.153C310.216 107.173 311.2 104.001 311.2 101.22C311.2 98.4385 310.216 95.2822 309.153 93.7354H310.341C311.778 95.8135 312.575 98.2666 312.591 101.22Z" fill="black"/>
<path d="M36.6548 151.095V152.095C36.6548 153.134 36.6548 154.376 36.311 156.048H38.3267V157.048H32.5454V159.61H36.7485V164.298H35.5142V160.626H26.9204V159.61H31.3267V157.048H25.6079V156.048H35.0767C35.436 154.345 35.436 153.134 35.436 152.095H27.2173V151.095H36.6548ZM51.2954 150.407V164.298H50.0923V157.11H48.0923V163.579H46.936V150.72H48.0923V156.063H50.0923V150.407H51.2954ZM41.3579 152.11V159.61C42.7407 159.595 44.2095 159.501 45.9048 159.157L46.061 160.251C44.1235 160.595 42.5298 160.704 40.9985 160.704H40.1392V152.11H41.3579ZM57.811 151.313C59.9985 151.329 61.5454 152.642 61.5454 154.579C61.5454 156.329 60.2798 157.571 58.4204 157.782V160.157C59.7954 160.087 61.1938 159.97 62.5142 159.767L62.6079 160.673C59.436 161.267 56.0142 161.282 53.5142 161.282L53.3423 160.251C54.4751 160.251 55.7954 160.251 57.186 160.204V157.782C55.3267 157.563 54.0454 156.329 54.061 154.579C54.0454 152.642 55.6235 151.329 57.811 151.313ZM57.811 152.392C56.3267 152.392 55.2485 153.282 55.2642 154.579C55.2485 155.876 56.3267 156.782 57.811 156.767C59.2798 156.782 60.3423 155.876 60.3423 154.579C60.3423 153.282 59.2798 152.392 57.811 152.392ZM64.6548 150.407V164.329H63.436V150.407H64.6548ZM74.936 151.251C76.1079 151.243 77.1079 151.681 77.7485 152.423H81.3892V150.407H82.6235V158.642H81.3892V156.657H77.7642C77.1079 157.399 76.1079 157.837 74.936 157.829C72.8579 157.845 71.3267 156.485 71.3267 154.548C71.3267 152.595 72.8579 151.235 74.936 151.251ZM74.936 152.313C73.5142 152.298 72.4985 153.235 72.4985 154.548C72.4985 155.845 73.5142 156.782 74.936 156.782C76.311 156.782 77.3423 155.845 77.3423 154.548C77.3423 153.235 76.311 152.298 74.936 152.313ZM78.0142 158.97C80.8892 158.97 82.6704 159.938 82.6704 161.61C82.6704 163.298 80.8892 164.267 78.0142 164.267C75.1235 164.267 73.3579 163.298 73.3579 161.61C73.3579 159.938 75.1235 158.97 78.0142 158.97ZM78.0142 159.923C75.8892 159.923 74.561 160.563 74.561 161.61C74.561 162.657 75.8892 163.282 78.0142 163.282C80.1548 163.282 81.4673 162.657 81.4673 161.61C81.4673 160.563 80.1548 159.923 78.0142 159.923ZM78.3423 153.423C78.4595 153.767 78.5298 154.142 78.5298 154.548C78.5298 154.938 78.4595 155.306 78.3423 155.642H81.3892V153.423H78.3423ZM88.6704 151.485C90.561 151.501 91.9204 153.118 92.1235 155.72H95.2329V150.407H96.4517V164.329H95.2329V156.735H92.1392C91.9907 159.454 90.6079 161.157 88.6704 161.157C86.6235 161.157 85.186 159.282 85.186 156.329C85.186 153.376 86.6235 151.501 88.6704 151.485ZM88.6704 152.579C87.2954 152.595 86.3579 154.063 86.3579 156.329C86.3579 158.595 87.2954 160.063 88.6704 160.063C90.0298 160.063 90.9829 158.595 90.9829 156.329C90.9829 154.063 90.0298 152.595 88.6704 152.579ZM107.717 154.142C107.702 156.673 109.436 159.235 111.483 160.157L110.733 161.126C109.155 160.353 107.788 158.72 107.124 156.735C106.475 158.837 105.108 160.587 103.483 161.407L102.702 160.376C104.764 159.423 106.483 156.782 106.499 154.142V151.61H107.717V154.142ZM114.233 150.407V164.329H112.999V150.407H114.233ZM128.124 150.407V158.829H126.889V155.657H124.53V154.642H126.889V150.407H128.124ZM128.124 159.579V164.11H119.045V159.579H128.124ZM120.264 160.563V163.11H126.92V160.563H120.264ZM124.733 151.876V152.876H116.624V151.876H120.077V150.282H121.28V151.876H124.733ZM120.67 153.595C122.561 153.595 123.889 154.61 123.905 156.063C123.889 157.563 122.561 158.548 120.67 158.548C118.78 158.548 117.452 157.563 117.452 156.063C117.452 154.61 118.78 153.595 120.67 153.595ZM120.67 154.548C119.467 154.548 118.624 155.173 118.624 156.063C118.624 156.985 119.467 157.595 120.67 157.61C121.874 157.595 122.717 156.985 122.717 156.063C122.717 155.173 121.874 154.548 120.67 154.548ZM136.764 150.657C139.858 150.657 141.67 151.501 141.67 153.048C141.67 154.626 139.858 155.47 136.764 155.485C133.67 155.47 131.842 154.626 131.842 153.048C131.842 151.501 133.67 150.657 136.764 150.657ZM136.764 151.579C134.452 151.579 133.108 152.142 133.124 153.048C133.108 154.017 134.452 154.548 136.764 154.548C139.061 154.548 140.42 154.017 140.42 153.048C140.42 152.142 139.061 151.579 136.764 151.579ZM143.092 156.423V157.423H130.436V156.423H143.092ZM141.467 158.626V161.735H133.217V163.173H141.889V164.142H131.999V160.829H140.264V159.563H131.967V158.626H141.467ZM160.155 150.407V164.298H158.983V157.017H156.936V163.579H155.811V150.72H156.936V156.001H158.983V150.407H160.155ZM153.999 152.11V153.126H150.014V159.813C151.928 159.806 153.256 159.735 154.795 159.423L154.905 160.454C153.233 160.798 151.811 160.86 149.686 160.86H148.795V152.11H153.999ZM173.561 150.407V164.329H172.327V150.407H173.561ZM164.139 151.595V155.267H168.28V151.595H169.483V160.97H162.92V151.595H164.139ZM164.139 159.938H168.28V156.251H164.139V159.938ZM182.874 152.813V153.813H175.905V152.813H178.795V150.829H180.014V152.813H182.874ZM179.389 154.751C181.139 154.751 182.389 156.063 182.405 157.907C182.389 159.767 181.139 161.095 179.389 161.095C177.655 161.095 176.405 159.767 176.405 157.907C176.405 156.063 177.655 154.751 179.389 154.751ZM179.389 155.782C178.295 155.798 177.499 156.688 177.499 157.907C177.499 159.142 178.295 160.032 179.389 160.017C180.499 160.032 181.311 159.142 181.311 157.907C181.311 156.688 180.499 155.798 179.389 155.782ZM187.764 150.407V164.298H186.592V157.282H184.749V163.61H183.592V150.751H184.749V156.267H186.592V150.407H187.764ZM205.233 150.407V157.61H204.03V150.407H205.233ZM205.249 158.313V161.642H197.452V163.142H205.749V164.142H196.249V160.688H204.03V159.298H196.217V158.313H205.249ZM198.702 151.876C198.686 153.845 200.186 155.579 202.249 156.251L201.639 157.204C200.014 156.649 198.717 155.485 198.092 153.985C197.467 155.603 196.163 156.876 194.514 157.47L193.874 156.501C195.967 155.767 197.452 153.923 197.452 151.876V150.813H198.702V151.876ZM219.124 150.423V160.61H217.889V155.282H215.03V154.267H217.889V150.423H219.124ZM219.514 162.97V164.001H210.202V159.688H211.436V162.97H219.514ZM212.436 153.282C212.436 155.079 213.827 156.829 215.858 157.517L215.217 158.501C213.647 157.938 212.436 156.767 211.842 155.329C211.241 156.931 209.959 158.212 208.311 158.829L207.67 157.829C209.717 157.11 211.202 155.282 211.202 153.282V152.563H208.061V151.548H215.545V152.563H212.436V153.282ZM236.311 150.407V153.813H238.405V154.829H236.311V158.298H235.092V150.407H236.311ZM232.514 151.313C232.499 154.813 230.045 157.313 225.936 158.438L225.436 157.454C228.858 156.532 230.944 154.681 231.202 152.329H226.061V151.313H232.514ZM236.311 158.938V164.11H227.514V158.938H236.311ZM228.733 159.954V163.11H235.092V159.954H228.733ZM250.139 150.407V153.938H252.233V154.985H250.139V158.563H248.92V150.407H250.139ZM246.327 151.298C246.327 154.813 243.874 157.313 239.764 158.407L239.264 157.454C242.67 156.532 244.772 154.673 245.03 152.313H239.889V151.298H246.327ZM250.139 159.204V164.298H248.92V160.204H241.045V159.204H250.139ZM259.436 150.657C262.53 150.657 264.342 151.501 264.342 153.048C264.342 154.626 262.53 155.47 259.436 155.485C256.342 155.47 254.514 154.626 254.514 153.048C254.514 151.501 256.342 150.657 259.436 150.657ZM259.436 151.579C257.124 151.579 255.78 152.142 255.795 153.048C255.78 154.017 257.124 154.548 259.436 154.548C261.733 154.548 263.092 154.017 263.092 153.048C263.092 152.142 261.733 151.579 259.436 151.579ZM265.764 156.423V157.423H253.108V156.423H265.764ZM264.139 158.626V161.735H255.889V163.173H264.561V164.142H254.67V160.829H262.936V159.563H254.639V158.626H264.139ZM282.202 154.001V154.985H277.889V156.751H283.608V157.767H270.952V156.751H276.67V154.985H272.686V150.72H273.905V154.001H282.202ZM282.217 159.157V160.142H280.061V163.11H282.327V164.11H272.249V163.11H274.514V160.142H272.374V159.157H282.217ZM275.733 163.11H278.858V160.142H275.733V163.11ZM296.233 150.407V164.329H294.999V150.407H296.233ZM288.842 151.485C290.905 151.501 292.389 153.376 292.389 156.329C292.389 159.282 290.905 161.157 288.842 161.157C286.764 161.157 285.295 159.282 285.295 156.329C285.295 153.376 286.764 151.501 288.842 151.485ZM288.842 152.579C287.452 152.595 286.483 154.063 286.483 156.329C286.483 158.595 287.452 160.063 288.842 160.063C290.233 160.063 291.202 158.595 291.202 156.329C291.202 154.063 290.233 152.595 288.842 152.579ZM309.749 151.813V153.204C309.733 154.907 309.733 156.813 309.233 159.61L307.983 159.47C308.514 156.813 308.514 154.86 308.514 153.204V152.829H299.952V151.813H309.749ZM311.264 161.313V162.329H298.608V161.313H303.577V156.345H304.78V161.313H311.264ZM314.717 161.985L313.499 166.235H312.342L313.202 161.985H314.717ZM37.1235 176.423V186.61H35.8892V181.282H33.0298V180.267H35.8892V176.423H37.1235ZM37.5142 188.97V190.001H28.2017V185.688H29.436V188.97H37.5142ZM30.436 179.282C30.436 181.079 31.8267 182.829 33.8579 183.517L33.2173 184.501C31.647 183.938 30.436 182.767 29.8423 181.329C29.2407 182.931 27.9595 184.212 26.311 184.829L25.6704 183.829C27.7173 183.11 29.2017 181.282 29.2017 179.282V178.563H26.061V177.548H33.5454V178.563H30.436V179.282ZM52.3892 178.642V179.657H50.2954V181.548H52.3892V182.579H50.2954V184.86H49.0767V176.423H50.2954V178.642H52.3892ZM46.3267 177.251V181.079H41.2642V183.095C43.7329 183.095 45.522 183.009 47.686 182.642L47.811 183.657C45.5767 184.032 43.7173 184.11 41.1392 184.11H40.061V180.11H45.1235V178.251H40.0298V177.251H46.3267ZM50.2954 185.595V190.298H49.0767V186.595H41.2017V185.595H50.2954ZM58.0923 178.97C58.0923 180.782 59.4829 182.501 61.5142 183.204L60.8735 184.173C59.3032 183.61 58.0923 182.446 57.4985 181.017C56.897 182.618 55.6157 183.899 53.9673 184.501L53.3267 183.532C55.3735 182.798 56.8579 180.938 56.8579 178.985V178.376H53.7173V177.376H61.2017V178.376H58.0923V178.97ZM64.7798 185.47V190.298H63.5454V186.485H55.436V185.47H64.7798ZM64.7798 176.407V184.735H63.5454V181.079H60.7642V180.048H63.5454V176.407H64.7798ZM75.7642 180.142C75.7642 182.595 77.3892 185.11 79.3579 186.079L78.6079 187.063C77.0767 186.259 75.7954 184.618 75.186 182.688C74.561 184.743 73.2485 186.493 71.686 187.329L70.9048 186.345C72.936 185.345 74.5454 182.673 74.561 180.142V177.61H75.7642V180.142ZM81.8579 176.407V182.048H84.186V183.11H81.8579V190.298H80.6392V176.407H81.8579ZM96.0767 177.813V179.204C96.061 180.907 96.061 182.813 95.561 185.61L94.311 185.47C94.8423 182.813 94.8423 180.86 94.8423 179.204V178.829H86.2798V177.813H96.0767ZM97.5923 187.313V188.329H84.936V187.313H89.9048V182.345H91.1079V187.313H97.5923ZM102.952 177.313C105.092 177.329 106.639 178.642 106.655 180.579C106.639 182.321 105.389 183.563 103.577 183.782V186.157C104.874 186.095 106.178 186.001 107.389 185.845L107.467 186.767C104.53 187.267 101.233 187.298 98.7954 187.282L98.5923 186.251C99.7095 186.243 101.006 186.235 102.342 186.188V183.782C100.499 183.571 99.2329 182.329 99.2485 180.579C99.2329 178.642 100.78 177.329 102.952 177.313ZM102.952 178.376C101.499 178.376 100.436 179.282 100.452 180.579C100.436 181.876 101.499 182.782 102.952 182.782C104.389 182.782 105.436 181.876 105.452 180.579C105.436 179.282 104.389 178.376 102.952 178.376ZM109.499 176.407V182.142H111.764V183.204H109.499V190.298H108.28V176.407H109.499ZM129.311 183.517V184.532H123.655V187.376H122.436V184.532H116.592V183.517H129.311ZM127.655 177.095V181.923H118.249V177.095H127.655ZM119.452 178.063V180.938H126.436V178.063H119.452ZM127.889 188.97V190.001H118.217V186.001H119.452V188.97H127.889ZM142.311 176.407V190.298H141.139V176.407H142.311ZM139.499 176.751V189.579H138.342V182.423H135.999V181.423H138.342V176.751H139.499ZM134.514 180.376C134.514 182.782 135.592 185.173 137.514 186.282L136.764 187.188C135.397 186.368 134.428 184.868 133.952 183.095C133.444 185.009 132.436 186.642 131.045 187.517L130.264 186.595C132.202 185.438 133.327 182.907 133.327 180.376V179.063H130.655V178.048H137.061V179.063H134.514V180.376ZM155.217 178.813V179.813H148.249V178.813H151.139V176.829H152.358V178.813H155.217ZM151.733 180.751C153.483 180.751 154.733 182.063 154.749 183.907C154.733 185.767 153.483 187.095 151.733 187.095C149.999 187.095 148.749 185.767 148.749 183.907C148.749 182.063 149.999 180.751 151.733 180.751ZM151.733 181.782C150.639 181.798 149.842 182.688 149.842 183.907C149.842 185.142 150.639 186.032 151.733 186.017C152.842 186.032 153.655 185.142 153.655 183.907C153.655 182.688 152.842 181.798 151.733 181.782ZM160.108 176.407V190.298H158.936V183.282H157.092V189.61H155.936V176.751H157.092V182.267H158.936V176.407H160.108ZM173.624 176.407V183.517H172.389V182.063H168.686V181.095H172.389V179.423H168.889C168.014 181.618 165.858 183.095 162.78 183.829L162.342 182.813C165.749 182.024 167.733 180.36 167.967 178.126H163.045V177.11H169.311C169.311 177.571 169.264 178.017 169.186 178.438H172.389V176.407H173.624ZM173.624 184.142V187.532H165.874V189.157H174.092V190.173H164.655V186.595H172.389V185.142H164.624V184.142H173.624ZM182.53 177.267V181.157H177.749V183.313C180.358 183.313 181.702 183.274 183.342 182.97L183.467 183.985C181.733 184.267 180.327 184.313 177.514 184.313H176.53V180.22H181.311V178.251H176.499V177.267H182.53ZM187.452 176.423V184.954H186.217V182.376H183.452V181.36H186.217V179.485H183.452V178.485H186.217V176.423H187.452ZM187.452 185.704V190.329H186.217V186.704H178.092V185.704H187.452ZM196.092 176.657C199.186 176.657 200.999 177.501 200.999 179.048C200.999 180.626 199.186 181.47 196.092 181.485C192.999 181.47 191.17 180.626 191.17 179.048C191.17 177.501 192.999 176.657 196.092 176.657ZM196.092 177.579C193.78 177.579 192.436 178.142 192.452 179.048C192.436 180.017 193.78 180.548 196.092 180.548C198.389 180.548 199.749 180.017 199.749 179.048C199.749 178.142 198.389 177.579 196.092 177.579ZM202.42 182.423V183.423H189.764V182.423H202.42ZM200.795 184.626V187.735H192.545V189.173H201.217V190.142H191.327V186.829H199.592V185.563H191.295V184.626H200.795ZM215.061 177.86C215.045 181.876 213.592 185.579 208.577 188.032L207.889 187.048C210.491 185.798 212.1 184.196 212.983 182.313L208.155 182.782L207.952 181.688L213.374 181.329C213.624 180.556 213.772 179.735 213.827 178.876H208.655V177.86H215.061ZM219.092 176.407V190.298H217.858V176.407H219.092ZM224.28 184.751V186.407H231.233V184.751H232.452V190.063H223.061V184.751H224.28ZM224.28 189.063H231.233V187.376H224.28V189.063ZM234.092 182.751V183.782H228.358V185.548H227.155V183.782H221.436V182.751H234.092ZM227.764 176.642C230.811 176.642 232.67 177.548 232.67 179.173C232.67 180.782 230.811 181.72 227.764 181.704C224.717 181.72 222.842 180.782 222.842 179.173C222.842 177.548 224.717 176.642 227.764 176.642ZM227.764 177.579C225.499 177.563 224.092 178.173 224.108 179.173C224.092 180.157 225.499 180.751 227.764 180.751C230.014 180.751 231.42 180.157 231.42 179.173C231.42 178.173 230.014 177.563 227.764 177.579ZM246.717 176.407V190.298H245.499V176.407H246.717ZM237.374 177.782V185.657C239.491 185.649 241.686 185.478 244.014 184.985L244.186 186.032C241.717 186.548 239.514 186.72 237.295 186.72H236.17V177.782H237.374ZM259.842 176.407V181.907H262.17V182.938H259.842V190.329H258.624V176.407H259.842ZM256.186 177.767V178.782H250.92V185.813C253.436 185.813 255.217 185.696 257.28 185.313L257.436 186.376C255.264 186.767 253.436 186.845 250.795 186.845H249.702V177.767H256.186ZM264.389 189.126C263.842 189.126 263.374 188.673 263.389 188.11C263.374 187.563 263.842 187.11 264.389 187.11C264.936 187.11 265.389 187.563 265.389 188.11C265.389 188.673 264.936 189.126 264.389 189.126Z" fill="black"/>
<defs>
<linearGradient id="paint0_linear_469_1569" x1="0.68823" y1="173.5" x2="480.856" y2="173.5" gradientUnits="userSpaceOnUse">
<stop stop-color="#3182F6"/>
<stop offset="1" stop-color="#A009FF"/>
</linearGradient>
<linearGradient id="paint1_linear_469_1569" x1="25.7325" y1="64" x2="437.703" y2="63.9999" gradientUnits="userSpaceOnUse">
<stop stop-color="#3182F6"/>
<stop offset="1" stop-color="#A009FF"/>
</linearGradient>
<linearGradient id="paint2_linear_469_1569" x1="25.0454" y1="124.668" x2="324.045" y2="124.668" gradientUnits="userSpaceOnUse">
<stop stop-color="#3182F6"/>
<stop offset="1" stop-color="#A009FF"/>
</linearGradient>
<linearGradient id="paint3_linear_469_1569" x1="20.5649" y1="251.714" x2="81.612" y2="251.714" gradientUnits="userSpaceOnUse">
<stop stop-color="#3182F6"/>
<stop offset="1" stop-color="#A009FF"/>
</linearGradient>
</defs>
</svg>
