<svg width="347" height="454" viewBox="0 0 347 454" fill="none" xmlns="http://www.w3.org/2000/svg">
<rect x="0.5" y="0.5" width="346" height="453" rx="20.5" fill="#285FF2" stroke="url(#paint0_linear_2204_3058)"/>
<rect x="1" y="194" width="345" height="259" rx="20" fill="white"/>
<path d="M208.494 68.4827V69.6429H194.186V68.4827H200.637V64.8968H201.99V68.4827H208.494ZM207.123 58.4808V59.6233H202.025C202.034 62.0755 204.636 63.8772 207.633 64.3694L207.105 65.4593C204.601 65.011 202.307 63.7542 201.322 61.803C200.329 63.7542 198.035 65.011 195.521 65.4593L194.977 64.3694C197.991 63.8772 200.61 62.0755 200.619 59.6233H195.521V58.4808H200.637V56.3187H201.99V58.4808H207.123ZM223.998 63.4202V64.5804H209.742V63.4202H223.998ZM222.328 60.8011V61.9261H211.553V56.6175H222.223V57.7776H212.906V60.8011H222.328ZM216.861 65.9515C220.219 65.9515 222.223 66.971 222.24 68.764C222.223 70.5745 220.219 71.5765 216.861 71.5765C213.486 71.5765 211.465 70.5745 211.465 68.764C211.465 66.971 213.486 65.9515 216.861 65.9515ZM216.861 67.0237C214.348 67.0413 212.854 67.6741 212.871 68.764C212.854 69.8714 214.348 70.4866 216.861 70.4866C219.34 70.4866 220.852 69.8714 220.852 68.764C220.852 67.6741 219.34 67.0413 216.861 67.0237ZM234.65 57.6722V58.7972H225.334V57.6722H229.307V55.9144H230.678V57.6722H234.65ZM229.992 59.6058C232.242 59.6233 233.736 60.7132 233.754 62.4358C233.736 64.1409 232.242 65.2483 229.992 65.2483C227.742 65.2483 226.213 64.1409 226.23 62.4358C226.213 60.7132 227.742 59.6233 229.992 59.6058ZM229.992 60.678C228.516 60.6956 227.531 61.3812 227.549 62.4358C227.531 63.4729 228.516 64.1409 229.992 64.1409C231.451 64.1409 232.436 63.4729 232.453 62.4358C232.436 61.3812 231.451 60.6956 229.992 60.678ZM237.516 55.9847V60.3265H239.871V61.4866H237.516V65.7581H236.145V55.9847H237.516ZM237.516 66.6194V71.6116H236.145V67.7444H227.285V66.6194H237.516ZM253.406 57.5667V59.3069C253.406 61.3108 253.406 63.3323 252.844 66.2327L251.49 66.0745C252.053 63.3147 252.053 61.2581 252.053 59.3069V58.7093H242.35V57.5667H253.406ZM255.094 68.2542V69.3968H240.855V68.2542H244.389V63.1038H245.76V68.2542H248.291V63.1038H249.645V68.2542H255.094ZM261.492 70.1878L261.475 69.0276L265.816 64.4573C267.328 62.8577 268.049 61.9964 268.049 60.8187C268.049 59.5179 266.941 58.6565 265.518 58.6565C264.006 58.6565 263.039 59.6233 263.039 61.0472H261.545C261.527 58.7972 263.268 57.2854 265.57 57.2854C267.873 57.2854 269.525 58.8323 269.525 60.8187C269.525 62.2425 268.857 63.3499 266.607 65.6702L263.689 68.6761V68.7815H269.754V70.1878H261.492ZM272.566 63.6312C273.129 62.9808 273.832 62.6292 274.605 62.6292C275.941 62.6292 277.154 63.6487 278.438 63.6487C279.229 63.6487 279.914 63.262 280.441 62.5413V64.0003C279.861 64.6683 279.176 65.0022 278.402 65.0022C277.066 65.0022 275.854 63.9827 274.553 63.9827C273.779 63.9827 273.094 64.3694 272.566 65.0901V63.6312ZM287.49 70.3636C285.188 70.3636 283.447 68.9397 283.359 66.9886H284.889C285.012 68.1312 286.119 68.9749 287.49 68.9749C289.143 68.9749 290.338 67.762 290.338 66.1624C290.338 64.5101 289.09 63.2972 287.385 63.2796C286.312 63.262 285.486 63.596 285.012 64.4222H283.482L284.379 57.4612H291.27V58.8675H285.697L285.223 62.594H285.346C285.908 62.1546 286.77 61.8558 287.666 61.8558C290.092 61.8558 291.885 63.6487 291.885 66.1272C291.885 68.5882 290.021 70.3636 287.49 70.3636ZM302.871 57.6722V58.7972H293.555V57.6722H297.527V55.9144H298.898V57.6722H302.871ZM298.213 59.6058C300.463 59.6233 301.957 60.7132 301.975 62.4358C301.957 64.1409 300.463 65.2483 298.213 65.2483C295.963 65.2483 294.434 64.1409 294.451 62.4358C294.434 60.7132 295.963 59.6233 298.213 59.6058ZM298.213 60.678C296.736 60.6956 295.752 61.3812 295.77 62.4358C295.752 63.4729 296.736 64.1409 298.213 64.1409C299.672 64.1409 300.656 63.4729 300.674 62.4358C300.656 61.3812 299.672 60.6956 298.213 60.678ZM305.736 55.9847V60.3265H308.092V61.4866H305.736V65.7581H304.365V55.9847H305.736ZM305.736 66.6194V71.6116H304.365V67.7444H295.506V66.6194H305.736ZM322.031 56.0022V67.5687H320.643V62.1546H316.143V61.0472H320.643V59.1663H316.143V58.0589H320.643V56.0022H322.031ZM322.453 70.1175V71.2776H311.959V66.5843H313.348V70.1175H322.453ZM311.396 57.1272V64.0706C313.55 64.0618 315.624 63.9476 318.006 63.5081L318.146 64.6507C315.598 65.1253 313.471 65.2308 311.186 65.2483H310.008V57.1272H311.396Z" fill="white"/>
<path d="M43.1602 53.3462C42.7383 50.5337 40.5586 48.8111 37.6055 48.8111C33.6328 48.8111 31.0312 51.8697 31.0312 57.2134C31.0312 62.6978 33.668 65.6158 37.5703 65.6158C40.4883 65.6158 42.6328 63.9986 43.1602 61.2564L48.5039 61.2916C47.9062 66.0025 43.9688 70.2916 37.5 70.2916C30.6797 70.2916 25.6523 65.5103 25.6523 57.2134C25.6523 48.9166 30.7852 44.1353 37.5 44.1353C43.3711 44.1353 47.8008 47.5103 48.5039 53.3462H43.1602ZM75.5039 57.2134C75.5039 65.5103 70.3359 70.2916 63.6211 70.2916C56.8359 70.2916 51.7031 65.4751 51.7031 57.2134C51.7031 48.9166 56.8359 44.1353 63.6211 44.1353C70.3359 44.1353 75.5039 48.9166 75.5039 57.2134ZM70.125 57.2134C70.125 51.7642 67.5586 48.8111 63.6211 48.8111C59.6836 48.8111 57.082 51.7642 57.082 57.2134C57.082 62.6626 59.6836 65.6158 63.6211 65.6158C67.5586 65.6158 70.125 62.6626 70.125 57.2134ZM79.3008 69.94V44.4869H89.2852C95.0859 44.4869 98.3906 47.7564 98.3906 52.7837C98.3906 56.2642 96.791 58.7955 93.8906 60.0259L99.3047 69.94H93.4688L88.6172 60.9048H84.5742V69.94H79.3008ZM84.5742 56.6158H88.3008C91.4297 56.6158 92.9414 55.315 92.9414 52.7837C92.9414 50.2173 91.4297 48.8111 88.3008 48.8111H84.5742V56.6158ZM102.047 69.94V44.4869H119.133V48.8462H107.32V55.0337H118.254V59.3931H107.32V65.5806H119.168V69.94H102.047Z" fill="white"/>
<path d="M24 88.858H324" stroke="white"/>
<path d="M38.1777 224.93C38.1777 229.539 35.3066 232.195 31.5762 232.195C27.8066 232.195 24.9551 229.52 24.9551 224.93C24.9551 220.32 27.8066 217.664 31.5762 217.664C35.3066 217.664 38.1777 220.32 38.1777 224.93ZM35.1895 224.93C35.1895 221.902 33.7637 220.262 31.5762 220.262C29.3887 220.262 27.9434 221.902 27.9434 224.93C27.9434 227.957 29.3887 229.598 31.5762 229.598C33.7637 229.598 35.1895 227.957 35.1895 224.93ZM40.2871 232V217.859H43.1777V223.172H43.2559C43.666 222.312 44.5059 221.258 46.2832 221.258C48.627 221.258 50.5996 223.074 50.5996 226.707C50.5996 230.242 48.7051 232.176 46.2832 232.176C44.5449 232.176 43.666 231.18 43.2559 230.301H43.1387V232H40.2871ZM43.1191 226.688C43.1191 228.602 43.9395 229.871 45.3652 229.871C46.8496 229.871 47.6309 228.562 47.6309 226.688C47.6309 224.832 46.8496 223.562 45.3652 223.562C43.9199 223.562 43.1191 224.773 43.1191 226.688ZM52.4551 221.395H55.3457V232.527C55.3457 234.969 53.8418 235.984 51.3613 235.984L50.7754 235.965V233.699C50.9316 233.699 51.0293 233.719 51.166 233.719C52.1035 233.719 52.4551 233.289 52.4551 232.488V221.395ZM53.8809 220.008C53.002 220.008 52.2988 219.344 52.2988 218.543C52.2988 217.723 53.002 217.059 53.8809 217.059C54.7402 217.059 55.4434 217.723 55.4434 218.543C55.4434 219.344 54.7402 220.008 53.8809 220.008ZM62.3965 232.215C59.1543 232.215 57.1621 230.105 57.1621 226.746C57.1621 223.465 59.1738 221.258 62.2793 221.258C65.0723 221.258 67.2598 223.016 67.2598 226.629V227.449H60.0137C60.0137 229.051 60.9707 230.047 62.4551 230.047C63.4316 230.047 64.1348 229.617 64.4277 228.973H67.1816C66.7715 230.926 65.0137 232.215 62.3965 232.215ZM60.0137 225.633H64.5254C64.5254 224.344 63.627 223.426 62.3379 223.426C61.0098 223.426 60.0625 224.412 60.0137 225.633ZM73.8418 232.215C70.5996 232.215 68.6465 229.969 68.6465 226.727C68.6465 223.484 70.6191 221.258 73.8418 221.258C76.5762 221.258 78.4316 222.859 78.5488 225.281H75.834C75.6582 224.227 74.9746 223.504 73.8809 223.504C72.4941 223.504 71.5762 224.676 71.5762 226.688C71.5762 228.738 72.4746 229.91 73.8809 229.91C74.8965 229.91 75.6582 229.285 75.834 228.152H78.5488C78.4121 230.555 76.6543 232.215 73.8418 232.215ZM85.9316 221.395V223.562H83.9395V228.738C83.9395 229.578 84.3496 229.793 84.9355 229.812C85.2285 229.812 85.7363 229.793 86.0879 229.754V232.039C85.7754 232.098 85.2676 232.137 84.5449 232.137C82.4551 232.137 81.0293 231.199 81.0488 229.148V223.562H79.584V221.395H81.0488V218.855H83.9395V221.395H85.9316ZM87.748 232V221.395H90.6387V232H87.748ZM89.1934 220.008C88.3145 220.008 87.6113 219.344 87.6113 218.543C87.6113 217.723 88.3145 217.059 89.1934 217.059C90.0527 217.059 90.7559 217.723 90.7559 218.543C90.7559 219.344 90.0527 220.008 89.1934 220.008ZM102.729 221.395L98.998 232H95.7559L92.0449 221.395H95.0918L97.3184 229.012H97.4355L99.6621 221.395H102.729ZM108.588 232.215C105.346 232.215 103.354 230.105 103.354 226.746C103.354 223.465 105.365 221.258 108.471 221.258C111.264 221.258 113.451 223.016 113.451 226.629V227.449H106.205C106.205 229.051 107.162 230.047 108.646 230.047C109.623 230.047 110.326 229.617 110.619 228.973H113.373C112.963 230.926 111.205 232.215 108.588 232.215ZM106.205 225.633H110.717C110.717 224.344 109.818 223.426 108.529 223.426C107.201 223.426 106.254 224.412 106.205 225.633Z" fill="url(#paint1_linear_2204_3058)"/>
<path d="M32.9043 325.285C32.7871 324.172 31.8887 323.508 30.4629 323.508C28.9785 323.508 28.1582 324.191 28.1387 325.129C28.1191 326.145 29.1934 326.613 30.4043 326.887L31.6738 327.199C34.0957 327.746 35.9121 328.977 35.9121 331.34C35.9121 333.938 33.8809 335.578 30.4434 335.578C27.0254 335.578 24.8379 333.996 24.7598 330.969H27.6113C27.709 332.395 28.8418 333.117 30.4043 333.117C31.9473 333.117 32.9434 332.395 32.9434 331.34C32.9434 330.383 32.0645 329.934 30.5215 329.543L28.9785 329.172C26.5957 328.586 25.1309 327.395 25.1309 325.324C25.1309 322.746 27.3965 321.047 30.4824 321.047C33.6074 321.047 35.6777 322.785 35.7168 325.285H32.9043ZM42.5332 335.598C39.291 335.598 37.3379 333.352 37.3379 330.109C37.3379 326.867 39.3105 324.641 42.5332 324.641C45.2676 324.641 47.123 326.242 47.2402 328.664H44.5254C44.3496 327.609 43.666 326.887 42.5723 326.887C41.1855 326.887 40.2676 328.059 40.2676 330.07C40.2676 332.121 41.166 333.293 42.5723 333.293C43.5879 333.293 44.3496 332.668 44.5254 331.535H47.2402C47.1035 333.938 45.3457 335.598 42.5332 335.598ZM53.8027 335.598C50.5996 335.598 48.6074 333.391 48.6074 330.109C48.6074 326.828 50.5996 324.641 53.8027 324.641C57.0059 324.641 59.0176 326.828 59.0176 330.109C59.0176 333.391 57.0059 335.598 53.8027 335.598ZM53.8223 333.352C55.3066 333.352 56.0684 331.965 56.0684 330.109C56.0684 328.234 55.3066 326.848 53.8223 326.848C52.3184 326.848 51.5371 328.234 51.5371 330.109C51.5371 331.965 52.3184 333.352 53.8223 333.352ZM60.834 339.367V324.777H63.6855V326.555H63.8027C64.1934 325.695 65.0527 324.641 66.8301 324.641C69.1738 324.641 71.127 326.457 71.127 330.09C71.127 333.625 69.252 335.559 66.8301 335.559C65.0918 335.559 64.2129 334.562 63.8027 333.684H63.7246V339.367H60.834ZM63.666 330.07C63.666 331.984 64.4863 333.254 65.9121 333.254C67.3965 333.254 68.1777 331.945 68.1777 330.07C68.1777 328.215 67.3965 326.945 65.9121 326.945C64.4668 326.945 63.666 328.156 63.666 330.07ZM77.8066 335.598C74.5645 335.598 72.5723 333.488 72.5723 330.129C72.5723 326.848 74.584 324.641 77.6895 324.641C80.4824 324.641 82.6699 326.398 82.6699 330.012V330.832H75.4238C75.4238 332.434 76.3809 333.43 77.8652 333.43C78.8418 333.43 79.5449 333 79.8379 332.355H82.5918C82.1816 334.309 80.4238 335.598 77.8066 335.598ZM75.4238 329.016H79.9355C79.9355 327.727 79.0371 326.809 77.748 326.809C76.4199 326.809 75.4727 327.795 75.4238 329.016Z" fill="url(#paint2_linear_2204_3058)"/>
<path d="M37.2656 255.652V256.667H33.9062V261.621H32.6719V256.667H29.1094V261.621H27.8438V256.667H24.5469V255.652H37.2656ZM30.875 248.292C33.7969 248.292 35.7656 249.464 35.7656 251.324C35.7656 253.167 33.7969 254.339 30.875 254.324C27.9531 254.339 25.9844 253.167 25.9844 251.324C25.9844 249.464 27.9531 248.292 30.875 248.292ZM30.875 249.292C28.7031 249.292 27.2344 250.089 27.25 251.324C27.2344 252.558 28.7031 253.339 30.875 253.339C33.0312 253.339 34.5156 252.558 34.5156 251.324C34.5156 250.089 33.0312 249.292 30.875 249.292ZM43.125 250.73C43.125 252.433 44.5312 253.964 46.5781 254.558L46 255.542C44.3984 255.042 43.1641 254.003 42.5469 252.667C41.9453 254.183 40.6641 255.339 39.0312 255.902L38.4062 254.933C40.4844 254.292 41.9219 252.636 41.9219 250.73V250.449H38.7812V249.433H41.9219V247.667H43.1562V249.433H46.2656V250.449H43.125V250.73ZM49.25 247.73V251.355H51.3438V252.371H49.25V256.261H48.0312V247.73H49.25ZM44.7969 256.605C47.6562 256.605 49.375 257.511 49.375 259.089C49.375 260.683 47.6562 261.574 44.7969 261.574C41.9219 261.574 40.1875 260.683 40.1875 259.089C40.1875 257.511 41.9219 256.605 44.7969 256.605ZM44.7969 257.574C42.6875 257.574 41.4062 258.121 41.4219 259.089C41.4062 260.058 42.6875 260.621 44.7969 260.621C46.9062 260.621 48.1875 260.058 48.1875 259.089C48.1875 258.121 46.9062 257.574 44.7969 257.574ZM62.9688 247.73V253.464H65.2969V254.48H62.9688V261.621H61.75V247.73H62.9688ZM60.4062 249.964V250.98H52.1406V249.964H55.7188V247.902H56.9375V249.964H60.4062ZM56.3438 252.136C58.3125 252.136 59.7344 253.449 59.75 255.324C59.7344 257.199 58.3125 258.511 56.3438 258.511C54.3594 258.511 52.9219 257.199 52.9375 255.324C52.9219 253.449 54.3594 252.136 56.3438 252.136ZM56.3438 253.167C55.0469 253.167 54.0938 254.074 54.1094 255.324C54.0938 256.589 55.0469 257.48 56.3438 257.464C57.625 257.48 58.5625 256.589 58.5781 255.324C58.5625 254.074 57.625 253.167 56.3438 253.167ZM77.9375 247.73V261.621H76.7656V247.73H77.9375ZM75.0156 248.105V260.917H73.8438V254.433H70.9062C70.0547 256.05 68.7188 257.48 66.7812 258.621L66.0625 257.73C69.0859 255.941 70.6016 253.433 70.8281 250.527H66.6562V249.511H72.0469C72.0391 250.878 71.8203 252.199 71.3594 253.433H73.8438V248.105H75.0156ZM95.3438 247.73V255.136H94.1406V247.73H95.3438ZM90.2656 255.73V258.933H86.8594V260.48C88.6562 260.472 89.8047 260.433 91.2344 260.183L91.3594 261.121C89.7812 261.417 88.5469 261.433 86.5156 261.433H85.6719V258.027H89.0781V256.683H85.6562V255.73H90.2656ZM95.3438 255.73V261.511H94.1406V256.746H90.8906V255.73H95.3438ZM87.8281 248.371C89.9062 248.371 91.4219 249.652 91.4219 251.48C91.4219 253.324 89.9062 254.605 87.8281 254.605C85.7188 254.605 84.2188 253.324 84.2188 251.48C84.2188 249.652 85.7188 248.371 87.8281 248.371ZM87.8281 249.402C86.4375 249.386 85.4062 250.261 85.4219 251.48C85.4062 252.714 86.4375 253.589 87.8281 253.589C89.2031 253.589 90.2344 252.714 90.2344 251.48C90.2344 250.261 89.2031 249.386 87.8281 249.402ZM108.859 249.136V250.527C108.844 252.23 108.844 254.136 108.344 256.933L107.094 256.792C107.625 254.136 107.625 252.183 107.625 250.527V250.152H99.0625V249.136H108.859ZM110.375 258.636V259.652H97.7188V258.636H102.688V253.667H103.891V258.636H110.375ZM113.828 259.308L112.609 263.558H111.453L112.312 259.308H113.828ZM131.516 247.73V261.621H130.312V254.433H128.312V260.902H127.156V248.042H128.312V253.386H130.312V247.73H131.516ZM121.578 249.433V256.933C122.961 256.917 124.43 256.824 126.125 256.48L126.281 257.574C124.344 257.917 122.75 258.027 121.219 258.027H120.359V249.433H121.578ZM146.141 254.605V255.621H133.484V254.605H136.625V252.652C135.516 252.222 134.891 251.511 134.891 250.574C134.891 248.933 136.766 247.996 139.812 247.996C142.828 247.996 144.719 248.933 144.719 250.574C144.719 251.503 144.102 252.214 143 252.636V254.605H146.141ZM139.812 256.683C142.797 256.683 144.578 257.542 144.594 259.136C144.578 260.714 142.797 261.589 139.812 261.589C136.797 261.589 135.016 260.714 135.016 259.136C135.016 257.542 136.797 256.683 139.812 256.683ZM139.812 257.621C137.578 257.636 136.25 258.183 136.266 259.136C136.25 260.074 137.578 260.636 139.812 260.636C142.016 260.636 143.359 260.074 143.359 259.136C143.359 258.183 142.016 257.636 139.812 257.621ZM139.812 248.964C137.547 248.964 136.141 249.574 136.156 250.574C136.141 251.589 137.547 252.183 139.812 252.183C142.062 252.183 143.469 251.589 143.469 250.574C143.469 249.574 142.062 248.964 139.812 248.964ZM137.844 254.605H141.781V252.98C141.195 253.082 140.539 253.136 139.812 253.136C139.086 253.136 138.43 253.082 137.844 252.98V254.605ZM153.641 247.98C156.734 247.98 158.547 248.824 158.547 250.371C158.547 251.949 156.734 252.792 153.641 252.808C150.547 252.792 148.719 251.949 148.719 250.371C148.719 248.824 150.547 247.98 153.641 247.98ZM153.641 248.902C151.328 248.902 149.984 249.464 150 250.371C149.984 251.339 151.328 251.871 153.641 251.871C155.938 251.871 157.297 251.339 157.297 250.371C157.297 249.464 155.938 248.902 153.641 248.902ZM159.969 253.746V254.746H147.312V253.746H159.969ZM158.344 255.949V259.058H150.094V260.496H158.766V261.464H148.875V258.152H157.141V256.886H148.844V255.949H158.344ZM177.875 258.808V259.839H165.156V258.808H168.312V255.058C167.125 254.441 166.406 253.441 166.406 252.183C166.406 250.027 168.516 248.621 171.484 248.605C174.453 248.621 176.562 250.027 176.562 252.183C176.562 253.417 175.867 254.41 174.719 255.027V258.808H177.875ZM171.484 249.621C169.203 249.605 167.594 250.636 167.594 252.183C167.594 253.73 169.203 254.777 171.484 254.777C173.75 254.777 175.375 253.73 175.375 252.183C175.375 250.636 173.75 249.605 171.484 249.621ZM169.516 258.808H173.484V255.496C172.883 255.66 172.211 255.746 171.484 255.746C170.773 255.746 170.109 255.667 169.516 255.511V258.808ZM191.906 249.886V250.886H189.844V252.839H191.906V253.886H189.844V255.996H188.625V247.73H189.844V249.886H191.906ZM189.844 256.636V261.621H188.625V257.652H180.75V256.636H189.844ZM182.891 248.574C185 248.558 186.531 249.917 186.547 251.839C186.531 253.792 185 255.136 182.891 255.136C180.781 255.136 179.234 253.792 179.25 251.839C179.234 249.917 180.781 248.558 182.891 248.574ZM182.891 249.621C181.484 249.621 180.438 250.527 180.453 251.839C180.438 253.167 181.484 254.089 182.891 254.074C184.312 254.089 185.344 253.167 185.344 251.839C185.344 250.527 184.312 249.621 182.891 249.621ZM203.562 247.73V253.464H205.891V254.48H203.562V261.621H202.344V247.73H203.562ZM201 249.964V250.98H192.734V249.964H196.312V247.902H197.531V249.964H201ZM196.938 252.136C198.906 252.136 200.328 253.449 200.344 255.324C200.328 257.199 198.906 258.511 196.938 258.511C194.953 258.511 193.516 257.199 193.531 255.324C193.516 253.449 194.953 252.136 196.938 252.136ZM196.938 253.167C195.641 253.167 194.688 254.074 194.703 255.324C194.688 256.589 195.641 257.48 196.938 257.464C198.219 257.48 199.156 256.589 199.172 255.324C199.156 254.074 198.219 253.167 196.938 253.167ZM213.531 249.121V251.074H216.938V247.73H218.156V261.652H216.938V255.917H213.531V258.105H207.203V249.121H213.531ZM208.422 250.089V257.121H212.344V250.089H208.422ZM213.531 254.902H216.938V252.089H213.531V254.902ZM229.188 251.996C229.172 254.23 230.781 256.683 232.797 257.636L232.094 258.605C230.531 257.847 229.211 256.191 228.594 254.308C227.953 256.355 226.555 258.152 225 258.949L224.25 257.98C226.25 257.011 227.969 254.371 227.984 251.996V250.183H224.75V249.167H232.312V250.183H229.188V251.996ZM235.234 247.73V253.355H237.562V254.402H235.234V261.621H234.016V247.73H235.234ZM249.781 247.746V257.933H248.562V247.746H249.781ZM250.219 260.292V261.324H240.812V256.996H242.031V260.292H250.219ZM243.234 249.917C243.219 252.027 244.672 253.933 246.734 254.683L246.094 255.667C244.484 255.05 243.234 253.8 242.625 252.199C242.008 253.902 240.742 255.269 239.125 255.917L238.453 254.964C240.562 254.152 241.984 252.105 241.984 249.917V248.527H243.234V249.917ZM256.688 248.746C258.875 248.746 260.422 250.074 260.422 252.011C260.422 253.949 258.875 255.277 256.688 255.277C254.5 255.277 252.922 253.949 252.938 252.011C252.922 250.074 254.5 248.746 256.688 248.746ZM256.688 249.824C255.203 249.824 254.125 250.714 254.141 252.011C254.125 253.308 255.203 254.199 256.688 254.199C258.156 254.199 259.219 253.308 259.219 252.011C259.219 250.714 258.156 249.824 256.688 249.824ZM263.531 247.73V261.652H262.312V247.73H263.531ZM252.219 257.542C254.781 257.542 258.312 257.527 261.391 257.074L261.484 257.98C258.312 258.574 254.891 258.589 252.391 258.589L252.219 257.542ZM274.125 250.496C274.125 252.027 275.203 253.589 276.984 254.261L276.344 255.199C275.008 254.683 274.047 253.691 273.547 252.496C273.031 253.824 272.039 255.003 270.672 255.589L270 254.636C271.828 253.839 272.953 252.042 272.953 250.496V248.605H274.125V250.496ZM281.781 247.746V256.324H280.609V252.496H278.766V255.886H277.609V248.011H278.766V251.48H280.609V247.746H281.781ZM277.188 256.636C280.062 256.636 281.859 257.542 281.859 259.121C281.859 260.683 280.062 261.589 277.188 261.589C274.297 261.589 272.516 260.683 272.531 259.121C272.516 257.542 274.297 256.636 277.188 256.636ZM277.188 257.574C275.062 257.574 273.734 258.152 273.75 259.121C273.734 260.074 275.062 260.636 277.188 260.636C279.297 260.636 280.625 260.074 280.641 259.121C280.625 258.152 279.297 257.574 277.188 257.574ZM294.672 247.73V251.261H296.766V252.308H294.672V255.886H293.453V247.73H294.672ZM290.859 248.621C290.859 252.136 288.406 254.636 284.297 255.73L283.797 254.777C287.203 253.855 289.305 251.996 289.562 249.636H284.422V248.621H290.859ZM294.672 256.527V261.621H293.453V257.527H285.578V256.527H294.672ZM305.344 249.277V249.996C305.328 251.089 305.328 252.933 304.938 255.511L303.703 255.402C304.078 253.074 304.109 251.386 304.109 250.277H298.281V249.277H305.344ZM301.703 253.246V257.464C303.242 257.41 304.82 257.308 306.266 257.136L306.328 258.058C303.406 258.511 300.141 258.574 297.656 258.558L297.5 257.542C298.414 257.535 299.43 257.527 300.5 257.496V253.246H301.703ZM308.359 247.73V253.542H310.609V254.605H308.359V261.621H307.141V247.73H308.359ZM36.0781 273.746V284.011H34.8438V280.261H31.25C30.6094 281.082 29.5781 281.574 28.3906 281.574C26.3125 281.574 24.7812 280.136 24.7812 278.105C24.7812 276.074 26.3125 274.636 28.3906 274.621C29.5703 274.628 30.5781 275.113 31.2344 275.917H34.8438V273.746H36.0781ZM36.4688 286.292V287.324H27.1562V282.933H28.3906V286.292H36.4688ZM28.3906 275.714C26.9688 275.73 25.9531 276.714 25.9531 278.105C25.9531 279.496 26.9688 280.48 28.3906 280.48C29.75 280.48 30.7969 279.496 30.7969 278.105C30.7969 276.714 29.75 275.73 28.3906 275.714ZM31.7969 276.933C31.9141 277.292 31.9844 277.683 31.9844 278.105C31.9844 278.511 31.9141 278.894 31.7969 279.246H34.8438V276.933H31.7969ZM49.9062 273.73V280.839H48.6719V279.386H44.9688V278.417H48.6719V276.746H45.1719C44.2969 278.941 42.1406 280.417 39.0625 281.152L38.625 280.136C42.0312 279.347 44.0156 277.683 44.25 275.449H39.3281V274.433H45.5938C45.5938 274.894 45.5469 275.339 45.4688 275.761H48.6719V273.73H49.9062ZM49.9062 281.464V284.855H42.1562V286.48H50.375V287.496H40.9375V283.917H48.6719V282.464H40.9062V281.464H49.9062ZM62.9688 273.73V279.464H65.2969V280.48H62.9688V287.621H61.75V273.73H62.9688ZM60.4062 275.964V276.98H52.1406V275.964H55.7188V273.902H56.9375V275.964H60.4062ZM56.3438 278.136C58.3125 278.136 59.7344 279.449 59.75 281.324C59.7344 283.199 58.3125 284.511 56.3438 284.511C54.3594 284.511 52.9219 283.199 52.9375 281.324C52.9219 279.449 54.3594 278.136 56.3438 278.136ZM56.3438 279.167C55.0469 279.167 54.0938 280.074 54.1094 281.324C54.0938 282.589 55.0469 283.48 56.3438 283.464C57.625 283.48 58.5625 282.589 58.5781 281.324C58.5625 280.074 57.625 279.167 56.3438 279.167ZM77.2812 277.949V278.933H67.7656V274.246H68.9844V277.949H77.2812ZM78.75 280.824V281.824H66.0312V280.824H78.75ZM77.3594 286.261V287.277H67.6875V283.246H68.9062V286.261H77.3594ZM95.1094 277.621V278.636H85.625V274.011H86.8438V277.621H95.1094ZM96.5625 280.261V281.277H83.8906V280.261H96.5625ZM90.2188 282.527C93.2031 282.527 94.9844 283.433 95 285.042C94.9844 286.652 93.2031 287.558 90.2188 287.558C87.2188 287.558 85.4219 286.652 85.4219 285.042C85.4219 283.433 87.2188 282.527 90.2188 282.527ZM90.2188 283.496C87.9844 283.511 86.6562 284.058 86.6719 285.042C86.6562 286.011 87.9844 286.605 90.2188 286.605C92.4219 286.605 93.7656 286.011 93.7656 285.042C93.7656 284.058 92.4219 283.511 90.2188 283.496ZM104.312 274.589V278.48H99.5312V280.636C102.141 280.636 103.484 280.597 105.125 280.292L105.25 281.308C103.516 281.589 102.109 281.636 99.2969 281.636H98.3125V277.542H103.094V275.574H98.2812V274.589H104.312ZM109.234 273.746V282.277H108V279.699H105.234V278.683H108V276.808H105.234V275.808H108V273.746H109.234ZM109.234 283.027V287.652H108V284.027H99.875V283.027H109.234ZM117.875 273.98C120.969 273.98 122.781 274.824 122.781 276.371C122.781 277.949 120.969 278.792 117.875 278.808C114.781 278.792 112.953 277.949 112.953 276.371C112.953 274.824 114.781 273.98 117.875 273.98ZM117.875 274.902C115.562 274.902 114.219 275.464 114.234 276.371C114.219 277.339 115.562 277.871 117.875 277.871C120.172 277.871 121.531 277.339 121.531 276.371C121.531 275.464 120.172 274.902 117.875 274.902ZM124.203 279.746V280.746H111.547V279.746H124.203ZM122.578 281.949V285.058H114.328V286.496H123V287.464H113.109V284.152H121.375V282.886H113.078V281.949H122.578ZM140.875 273.73V287.621H139.641V273.73H140.875ZM136.766 275.246C136.75 279.246 134.891 282.777 130.234 285.011L129.562 284.011C133.32 282.23 135.234 279.566 135.516 276.246H130.203V275.246H136.766ZM155.922 280.636V281.621H143.203V280.636H155.922ZM146.141 282.527V283.917H153.078V282.527H154.281V287.433H144.906V282.527H146.141ZM146.141 286.449H153.078V284.871H146.141V286.449ZM154.281 274.074V277.246H146.078V278.558H154.578V279.542H144.859V276.308H153.047V275.011H144.812V274.074H154.281ZM168.5 273.73V287.621H167.281V273.73H168.5ZM159.156 275.105V282.98C161.273 282.972 163.469 282.8 165.797 282.308L165.969 283.355C163.5 283.871 161.297 284.042 159.078 284.042H157.953V275.105H159.156ZM181.625 273.73V279.23H183.953V280.261H181.625V287.652H180.406V273.73H181.625ZM177.969 275.089V276.105H172.703V283.136C175.219 283.136 177 283.019 179.062 282.636L179.219 283.699C177.047 284.089 175.219 284.167 172.578 284.167H171.484V275.089H177.969ZM186.172 286.449C185.625 286.449 185.156 285.996 185.172 285.433C185.156 284.886 185.625 284.433 186.172 284.433C186.719 284.433 187.172 284.886 187.172 285.433C187.172 285.996 186.719 286.449 186.172 286.449Z" fill="black"/>
<path d="M35.9375 362.034C35.0625 362.034 34.3438 361.315 34.3438 360.424C34.3438 359.549 35.0625 358.831 35.9375 358.831C36.8281 358.831 37.5469 359.549 37.5469 360.424C37.5469 361.315 36.8281 362.034 35.9375 362.034ZM59.5469 353.221V354.44C59.5469 355.76 59.5469 357.19 59.1562 359.19H61.2188V360.206H55.4844V366.237H54.25V360.206H48.5625V359.19H57.9062C58.3281 357.19 58.3281 355.729 58.3281 354.44V354.237H50.1562V353.221H59.5469ZM75.0938 359.424V360.44H69.4375V363.284H68.2188V360.44H62.375V359.424H75.0938ZM73.4375 353.002V357.831H64.0312V353.002H73.4375ZM65.2344 353.971V356.846H72.2188V353.971H65.2344ZM73.6719 364.877V365.909H64V361.909H65.2344V364.877H73.6719ZM91.0938 352.315V356.456H93.2031V357.487H91.0938V362.377H89.875V352.315H91.0938ZM87.0781 353.518V354.549H82.1094V358.877C84.8984 358.877 86.4844 358.807 88.3438 358.424L88.5 359.44C86.5469 359.815 84.8906 359.909 81.9688 359.909H80.8906V353.518H87.0781ZM91.7344 364.877V365.909H82.4062V361.362H83.6094V364.877H91.7344ZM98.6406 353.002C100.719 352.987 102.203 354.127 102.203 355.831C102.203 357.518 100.719 358.69 98.6406 358.674C96.5625 358.69 95.0781 357.518 95.0781 355.831C95.0781 354.127 96.5625 352.987 98.6406 353.002ZM98.6406 354.002C97.25 353.987 96.2656 354.752 96.2812 355.831C96.2656 356.924 97.25 357.674 98.6406 357.659C100.047 357.674 101.031 356.924 101.031 355.831C101.031 354.752 100.047 353.987 98.6406 354.002ZM105.516 352.331V366.221H104.312V352.331H105.516ZM94.0312 359.862C96.6406 359.862 100.203 359.815 103.297 359.362L103.375 360.284C102.047 360.526 100.664 360.674 99.3281 360.752V365.784H98.1094V360.831C96.6953 360.893 95.3594 360.901 94.2031 360.909L94.0312 359.862ZM112.438 353.331C114.625 353.331 116.172 354.659 116.172 356.596C116.172 358.534 114.625 359.862 112.438 359.862C110.25 359.862 108.672 358.534 108.688 356.596C108.672 354.659 110.25 353.331 112.438 353.331ZM112.438 354.409C110.953 354.409 109.875 355.299 109.891 356.596C109.875 357.893 110.953 358.784 112.438 358.784C113.906 358.784 114.969 357.893 114.969 356.596C114.969 355.299 113.906 354.409 112.438 354.409ZM119.281 352.315V366.237H118.062V352.315H119.281ZM107.969 362.127C110.531 362.127 114.062 362.112 117.141 361.659L117.234 362.565C114.062 363.159 110.641 363.174 108.141 363.174L107.969 362.127ZM130.438 356.581C130.422 358.815 132.031 361.268 134.047 362.221L133.344 363.19C131.781 362.432 130.461 360.776 129.844 358.893C129.203 360.94 127.805 362.737 126.25 363.534L125.5 362.565C127.5 361.596 129.219 358.956 129.234 356.581V354.768H126V353.752H133.562V354.768H130.438V356.581ZM136.484 352.315V357.94H138.812V358.987H136.484V366.206H135.266V352.315H136.484ZM151.078 352.331V362.596H149.844V358.846H146.25C145.609 359.667 144.578 360.159 143.391 360.159C141.312 360.159 139.781 358.721 139.781 356.69C139.781 354.659 141.312 353.221 143.391 353.206C144.57 353.213 145.578 353.698 146.234 354.502H149.844V352.331H151.078ZM151.469 364.877V365.909H142.156V361.518H143.391V364.877H151.469ZM143.391 354.299C141.969 354.315 140.953 355.299 140.953 356.69C140.953 358.081 141.969 359.065 143.391 359.065C144.75 359.065 145.797 358.081 145.797 356.69C145.797 355.299 144.75 354.315 143.391 354.299ZM146.797 355.518C146.914 355.877 146.984 356.268 146.984 356.69C146.984 357.096 146.914 357.479 146.797 357.831H149.844V355.518H146.797ZM160.312 354.362C160.312 356.737 163.031 358.862 165.453 359.315L164.891 360.346C162.797 359.862 160.586 358.37 159.688 356.315C158.789 358.362 156.586 359.854 154.484 360.346L153.922 359.315C156.328 358.846 159.031 356.752 159.031 354.362V353.299H160.312V354.362ZM166.109 363.299V364.315H153.391V363.299H166.109ZM178.719 352.315V366.237H177.5V358.69H174.797V357.659H177.5V352.315H178.719ZM173.953 353.612V358.471H168.969V361.846C171.359 361.846 173.094 361.776 175.125 361.393L175.219 362.424C173.125 362.799 171.328 362.877 168.812 362.893H167.75V357.456H172.766V354.627H167.703V353.612H173.953ZM193.75 359.377V360.393H188.109V363.237H186.875V360.393H181.031V359.377H193.75ZM192.328 364.862V365.909H182.672V361.846H183.906V364.862H192.328ZM187.375 352.674C190.344 352.69 192.266 353.752 192.266 355.471C192.266 357.19 190.344 358.237 187.375 358.237C184.406 358.237 182.469 357.19 182.469 355.471C182.469 353.752 184.406 352.69 187.375 352.674ZM187.375 353.674C185.219 353.674 183.766 354.362 183.781 355.471C183.766 356.549 185.219 357.237 187.375 357.237C189.531 357.237 190.969 356.549 190.969 355.471C190.969 354.362 189.531 353.674 187.375 353.674ZM211.594 360.237V361.252H208.234V366.206H207V361.252H203.438V366.206H202.172V361.252H198.875V360.237H211.594ZM205.203 352.877C208.125 352.877 210.094 354.049 210.094 355.909C210.094 357.752 208.125 358.924 205.203 358.909C202.281 358.924 200.312 357.752 200.312 355.909C200.312 354.049 202.281 352.877 205.203 352.877ZM205.203 353.877C203.031 353.877 201.562 354.674 201.578 355.909C201.562 357.143 203.031 357.924 205.203 357.924C207.359 357.924 208.844 357.143 208.844 355.909C208.844 354.674 207.359 353.877 205.203 353.877ZM217.453 355.315C217.453 357.018 218.859 358.549 220.906 359.143L220.328 360.127C218.727 359.627 217.492 358.588 216.875 357.252C216.273 358.768 214.992 359.924 213.359 360.487L212.734 359.518C214.812 358.877 216.25 357.221 216.25 355.315V355.034H213.109V354.018H216.25V352.252H217.484V354.018H220.594V355.034H217.453V355.315ZM223.578 352.315V355.94H225.672V356.956H223.578V360.846H222.359V352.315H223.578ZM219.125 361.19C221.984 361.19 223.703 362.096 223.703 363.674C223.703 365.268 221.984 366.159 219.125 366.159C216.25 366.159 214.516 365.268 214.516 363.674C214.516 362.096 216.25 361.19 219.125 361.19ZM219.125 362.159C217.016 362.159 215.734 362.706 215.75 363.674C215.734 364.643 217.016 365.206 219.125 365.206C221.234 365.206 222.516 364.643 222.516 363.674C222.516 362.706 221.234 362.159 219.125 362.159ZM237.406 352.331V356.909H239.5V357.94H237.406V362.737H236.188V352.331H237.406ZM234.859 354.034V355.034H226.578V354.034H230.109V352.331H231.328V354.034H234.859ZM230.719 355.799C232.703 355.799 234.047 356.815 234.062 358.393C234.047 359.956 232.703 360.956 230.719 360.956C228.719 360.956 227.359 359.956 227.375 358.393C227.359 356.815 228.719 355.799 230.719 355.799ZM230.719 356.768C229.406 356.768 228.531 357.409 228.547 358.393C228.531 359.377 229.406 360.002 230.719 359.987C232.016 360.002 232.891 359.377 232.906 358.393C232.891 357.409 232.016 356.768 230.719 356.768ZM238.047 364.877V365.909H228.719V361.909H229.922V364.877H238.047ZM255.844 352.315V359.721H254.641V352.315H255.844ZM250.766 360.315V363.518H247.359V365.065C249.156 365.057 250.305 365.018 251.734 364.768L251.859 365.706C250.281 366.002 249.047 366.018 247.016 366.018H246.172V362.612H249.578V361.268H246.156V360.315H250.766ZM255.844 360.315V366.096H254.641V361.331H251.391V360.315H255.844ZM248.328 352.956C250.406 352.956 251.922 354.237 251.922 356.065C251.922 357.909 250.406 359.19 248.328 359.19C246.219 359.19 244.719 357.909 244.719 356.065C244.719 354.237 246.219 352.956 248.328 352.956ZM248.328 353.987C246.938 353.971 245.906 354.846 245.922 356.065C245.906 357.299 246.938 358.174 248.328 358.174C249.703 358.174 250.734 357.299 250.734 356.065C250.734 354.846 249.703 353.971 248.328 353.987ZM269.703 352.315V366.206H268.469V352.315H269.703ZM265.594 353.831C265.578 357.831 263.719 361.362 259.062 363.596L258.391 362.596C262.148 360.815 264.062 358.151 264.344 354.831H259.031V353.831H265.594ZM35.9375 388.034C35.0625 388.034 34.3438 387.315 34.3438 386.424C34.3438 385.549 35.0625 384.831 35.9375 384.831C36.8281 384.831 37.5469 385.549 37.5469 386.424C37.5469 387.315 36.8281 388.034 35.9375 388.034ZM61.2188 384.815V385.831H55.4844V387.315C58.1094 387.424 59.6562 388.284 59.6719 389.752C59.6562 391.299 57.875 392.174 54.8906 392.174C51.875 392.174 50.0938 391.299 50.0938 389.752C50.0938 388.284 51.6328 387.424 54.2812 387.315V385.831H48.5625V384.815H61.2188ZM54.8906 388.252C52.6562 388.268 51.3281 388.815 51.3438 389.752C51.3281 390.674 52.6562 391.221 54.8906 391.221C57.0938 391.221 58.4375 390.674 58.4375 389.752C58.4375 388.815 57.0938 388.268 54.8906 388.252ZM60.0938 378.971V379.971H55.6875C55.7656 381.534 58.0625 382.745 60.5156 383.002L60.0625 383.971C57.7891 383.698 55.6562 382.682 54.8906 381.127C54.1328 382.682 52.0078 383.698 49.7188 383.971L49.2812 383.002C51.6875 382.745 54 381.534 54.0938 379.971H49.7188V378.971H60.0938ZM73.8594 378.331V386.221H72.6406V378.331H73.8594ZM73.8594 387.018V392.018H64.8281V387.018H73.8594ZM66.0312 388.018V391.018H72.6562V388.018H66.0312ZM67.3125 380.237C67.2969 382.206 68.7969 383.94 70.8438 384.659L70.2188 385.596C68.6094 385.042 67.3281 383.87 66.7031 382.346C66.0859 383.971 64.7891 385.252 63.125 385.862L62.5 384.893C64.6094 384.159 66.0625 382.284 66.0625 380.237V378.877H67.3125V380.237ZM92.0938 378.315V392.206H90.8906V385.018H88.8906V391.487H87.7344V378.627H88.8906V383.971H90.8906V378.315H92.0938ZM82.1562 380.018V387.518C83.5391 387.502 85.0078 387.409 86.7031 387.065L86.8594 388.159C84.9219 388.502 83.3281 388.612 81.7969 388.612H80.9375V380.018H82.1562ZM106.719 385.19V386.206H94.0625V385.19H97.2031V383.237C96.0938 382.807 95.4688 382.096 95.4688 381.159C95.4688 379.518 97.3438 378.581 100.391 378.581C103.406 378.581 105.297 379.518 105.297 381.159C105.297 382.088 104.68 382.799 103.578 383.221V385.19H106.719ZM100.391 387.268C103.375 387.268 105.156 388.127 105.172 389.721C105.156 391.299 103.375 392.174 100.391 392.174C97.375 392.174 95.5938 391.299 95.5938 389.721C95.5938 388.127 97.375 387.268 100.391 387.268ZM100.391 388.206C98.1562 388.221 96.8281 388.768 96.8438 389.721C96.8281 390.659 98.1562 391.221 100.391 391.221C102.594 391.221 103.938 390.659 103.938 389.721C103.938 388.768 102.594 388.221 100.391 388.206ZM100.391 379.549C98.125 379.549 96.7188 380.159 96.7344 381.159C96.7188 382.174 98.125 382.768 100.391 382.768C102.641 382.768 104.047 382.174 104.047 381.159C104.047 380.159 102.641 379.549 100.391 379.549ZM98.4219 385.19H102.359V383.565C101.773 383.667 101.117 383.721 100.391 383.721C99.6641 383.721 99.0078 383.667 98.4219 383.565V385.19ZM123.359 378.315V392.237H122.125V378.315H123.359ZM115.969 379.393C118.031 379.409 119.516 381.284 119.516 384.237C119.516 387.19 118.031 389.065 115.969 389.065C113.891 389.065 112.422 387.19 112.422 384.237C112.422 381.284 113.891 379.409 115.969 379.393ZM115.969 380.487C114.578 380.502 113.609 381.971 113.609 384.237C113.609 386.502 114.578 387.971 115.969 387.971C117.359 387.971 118.328 386.502 118.328 384.237C118.328 381.971 117.359 380.502 115.969 380.487ZM132.672 380.721V381.721H125.703V380.721H128.594V378.737H129.812V380.721H132.672ZM129.188 382.659C130.938 382.659 132.188 383.971 132.203 385.815C132.188 387.674 130.938 389.002 129.188 389.002C127.453 389.002 126.203 387.674 126.203 385.815C126.203 383.971 127.453 382.659 129.188 382.659ZM129.188 383.69C128.094 383.706 127.297 384.596 127.297 385.815C127.297 387.049 128.094 387.94 129.188 387.924C130.297 387.94 131.109 387.049 131.109 385.815C131.109 384.596 130.297 383.706 129.188 383.69ZM137.562 378.315V392.206H136.391V385.19H134.547V391.518H133.391V378.659H134.547V384.174H136.391V378.315H137.562ZM150.828 379.221V384.877H144.312V379.221H150.828ZM145.516 380.221V383.909H149.625V380.221H145.516ZM155.031 378.315V386.299H153.828V378.315H155.031ZM151.266 388.206C151.266 389.565 153.484 390.909 155.875 391.206L155.453 392.159C153.359 391.877 151.453 390.893 150.641 389.596C149.797 390.917 147.844 391.877 145.75 392.159L145.312 391.206C147.703 390.94 150 389.596 150 388.206H145.891V387.252H150.016V385.893H151.234V387.252H155.391V388.206H151.266ZM172.281 378.315V382.549H174.375V383.581H172.281V388.487H171.047V378.315H172.281ZM168.531 379.393C168.531 382.971 165.969 385.627 161.969 386.877L161.438 385.893C164.766 384.854 166.938 382.87 167.203 380.424H162.016V379.393H168.531ZM172.922 390.877V391.909H163.578V387.456H164.797V390.877H172.922ZM186.109 378.315V382.456H188.219V383.487H186.109V388.377H184.891V378.315H186.109ZM182.094 379.518V380.549H177.125V384.877C179.914 384.877 181.5 384.807 183.359 384.424L183.516 385.44C181.562 385.815 179.906 385.909 176.984 385.909H175.906V379.518H182.094ZM186.75 390.877V391.909H177.422V387.362H178.625V390.877H186.75ZM199.938 378.331V382.909H202.031V383.94H199.938V388.737H198.719V378.331H199.938ZM197.391 380.034V381.034H189.109V380.034H192.641V378.331H193.859V380.034H197.391ZM193.25 381.799C195.234 381.799 196.578 382.815 196.594 384.393C196.578 385.956 195.234 386.956 193.25 386.956C191.25 386.956 189.891 385.956 189.906 384.393C189.891 382.815 191.25 381.799 193.25 381.799ZM193.25 382.768C191.938 382.768 191.062 383.409 191.078 384.393C191.062 385.377 191.938 386.002 193.25 385.987C194.547 386.002 195.422 385.377 195.438 384.393C195.422 383.409 194.547 382.768 193.25 382.768ZM200.578 390.877V391.909H191.25V387.909H192.453V390.877H200.578ZM219.641 389.393V390.424H206.922V389.393H210.078V385.643C208.891 385.026 208.172 384.026 208.172 382.768C208.172 380.612 210.281 379.206 213.25 379.19C216.219 379.206 218.328 380.612 218.328 382.768C218.328 384.002 217.633 384.995 216.484 385.612V389.393H219.641ZM213.25 380.206C210.969 380.19 209.359 381.221 209.359 382.768C209.359 384.315 210.969 385.362 213.25 385.362C215.516 385.362 217.141 384.315 217.141 382.768C217.141 381.221 215.516 380.19 213.25 380.206ZM211.281 389.393H215.25V386.081C214.648 386.245 213.977 386.331 213.25 386.331C212.539 386.331 211.875 386.252 211.281 386.096V389.393ZM233.672 380.471V381.471H231.609V383.424H233.672V384.471H231.609V386.581H230.391V378.315H231.609V380.471H233.672ZM231.609 387.221V392.206H230.391V388.237H222.516V387.221H231.609ZM224.656 379.159C226.766 379.143 228.297 380.502 228.312 382.424C228.297 384.377 226.766 385.721 224.656 385.721C222.547 385.721 221 384.377 221.016 382.424C221 380.502 222.547 379.143 224.656 379.159ZM224.656 380.206C223.25 380.206 222.203 381.112 222.219 382.424C222.203 383.752 223.25 384.674 224.656 384.659C226.078 384.674 227.109 383.752 227.109 382.424C227.109 381.112 226.078 380.206 224.656 380.206ZM236.047 387.002C235.5 387.002 235.031 386.549 235.047 385.987C235.031 385.44 235.5 384.987 236.047 384.987C236.594 384.987 237.047 385.44 237.047 385.987C237.047 386.549 236.594 387.002 236.047 387.002ZM251.297 386.721V387.752H245.562V392.237H244.359V387.752H238.641V386.721H251.297ZM245.578 381.065C245.578 382.799 248 384.315 250.484 384.659L250.031 385.643C247.883 385.315 245.859 384.237 244.984 382.721C244.094 384.252 242.039 385.315 239.891 385.643L239.438 384.659C241.906 384.315 244.359 382.815 244.359 381.065V381.049H239.875V380.049H244.359V378.315H245.562V380.049H250.078V381.049H245.578V381.065ZM265.172 386.252V387.268H252.453V386.252H258.203V384.721H254.109V381.299H262.297V379.752H254.062V378.768H263.531V382.206H255.328V383.752H263.828V384.721H259.406V386.252H265.172ZM263.828 391.049V392.065H254.141V388.206H255.375V391.049H263.828ZM35.9375 414.034C35.0625 414.034 34.3438 413.315 34.3438 412.424C34.3438 411.549 35.0625 410.831 35.9375 410.831C36.8281 410.831 37.5469 411.549 37.5469 412.424C37.5469 413.315 36.8281 414.034 35.9375 414.034ZM60.0312 404.315V418.237H58.8125V404.315H60.0312ZM55.8125 405.612V410.549H50.625V413.831C52.9297 413.831 54.9844 413.729 57.4688 413.331L57.5938 414.362C55.0312 414.768 52.9219 414.862 50.5312 414.862H49.375V409.549H54.5781V406.627H49.3438V405.612H55.8125ZM73.8594 404.315V412.877H72.6406V404.315H73.8594ZM69.8281 405.409V406.424H64.4688V410.487C67.4531 410.487 69.1875 410.393 71.2031 409.987L71.3438 411.018C69.25 411.409 67.4688 411.487 64.3906 411.502H63.25V405.409H69.8281ZM69.2188 412.877C72.1094 412.877 73.8906 413.862 73.9062 415.534C73.8906 417.221 72.1094 418.19 69.2188 418.206C66.2969 418.19 64.5312 417.221 64.5312 415.534C64.5312 413.862 66.2969 412.877 69.2188 412.877ZM69.2188 413.862C67.0625 413.862 65.7656 414.487 65.7656 415.534C65.7656 416.581 67.0625 417.206 69.2188 417.206C71.3594 417.206 72.6875 416.581 72.6875 415.534C72.6875 414.487 71.3594 413.862 69.2188 413.862ZM91.0938 404.315V407.784H93.1875V408.815H91.0938V412.596H89.875V404.315H91.0938ZM86.6406 412.768C89.4219 412.768 91.2188 413.815 91.2188 415.487C91.2188 417.174 89.4219 418.19 86.6406 418.206C83.8281 418.19 82.0312 417.174 82.0312 415.487C82.0312 413.815 83.8281 412.768 86.6406 412.768ZM86.6406 413.784C84.5625 413.784 83.2188 414.424 83.2344 415.487C83.2188 416.534 84.5625 417.19 86.6406 417.206C88.6719 417.19 90.0312 416.534 90.0312 415.487C90.0312 414.424 88.6719 413.784 86.6406 413.784ZM82.1406 405.174V410.299C84.1172 410.292 86.1562 410.151 88.4062 409.69L88.5625 410.69C86.2031 411.174 84.1094 411.331 82.0156 411.331H80.9062V405.174H82.1406ZM106.719 411.252V412.252H94.0625V411.252H99.7812V409.565H95.6719V404.877H105.156V405.893H96.8906V408.549H105.281V409.565H101V411.252H106.719ZM105.172 413.612V418.315H103.953V414.612H95.4688V413.612H105.172ZM110.172 415.893L108.953 420.143H107.797L108.656 415.893H110.172ZM127.453 404.315V418.237H126.219V404.315H127.453ZM120.062 405.393C122.125 405.409 123.609 407.284 123.609 410.237C123.609 413.19 122.125 415.065 120.062 415.065C117.984 415.065 116.516 413.19 116.516 410.237C116.516 407.284 117.984 405.409 120.062 405.393ZM120.062 406.487C118.672 406.502 117.703 407.971 117.703 410.237C117.703 412.502 118.672 413.971 120.062 413.971C121.453 413.971 122.422 412.502 122.422 410.237C122.422 407.971 121.453 406.502 120.062 406.487ZM133.547 405.393C135.594 405.409 137.047 407.284 137.062 410.237C137.047 413.19 135.594 415.065 133.547 415.065C131.484 415.065 130.047 413.19 130.047 410.237C130.047 407.284 131.484 405.409 133.547 405.393ZM133.547 406.487C132.172 406.502 131.203 407.971 131.203 410.237C131.203 412.502 132.172 413.971 133.547 413.971C134.938 413.971 135.875 412.502 135.875 410.237C135.875 407.971 134.938 406.502 133.547 406.487ZM142.828 407.815V408.862H140.578V411.956H142.828V412.987H140.578V418.206H139.359V404.315H140.578V407.815H142.828ZM155.141 404.315V418.206H153.906V404.315H155.141ZM151.031 405.831C151.016 409.831 149.156 413.362 144.5 415.596L143.828 414.596C147.586 412.815 149.5 410.151 149.781 406.831H144.469V405.831H151.031ZM174.219 415.393V416.424H161.5V415.393H164.656V411.643C163.469 411.026 162.75 410.026 162.75 408.768C162.75 406.612 164.859 405.206 167.828 405.19C170.797 405.206 172.906 406.612 172.906 408.768C172.906 410.002 172.211 410.995 171.062 411.612V415.393H174.219ZM167.828 406.206C165.547 406.19 163.938 407.221 163.938 408.768C163.938 410.315 165.547 411.362 167.828 411.362C170.094 411.362 171.719 410.315 171.719 408.768C171.719 407.221 170.094 406.19 167.828 406.206ZM165.859 415.393H169.828V412.081C169.227 412.245 168.555 412.331 167.828 412.331C167.117 412.331 166.453 412.252 165.859 412.096V415.393ZM188.25 406.471V407.471H186.188V409.424H188.25V410.471H186.188V412.581H184.969V404.315H186.188V406.471H188.25ZM186.188 413.221V418.206H184.969V414.237H177.094V413.221H186.188ZM179.234 405.159C181.344 405.143 182.875 406.502 182.891 408.424C182.875 410.377 181.344 411.721 179.234 411.721C177.125 411.721 175.578 410.377 175.594 408.424C175.578 406.502 177.125 405.143 179.234 405.159ZM179.234 406.206C177.828 406.206 176.781 407.112 176.797 408.424C176.781 409.752 177.828 410.674 179.234 410.659C180.656 410.674 181.688 409.752 181.688 408.424C181.688 407.112 180.656 406.206 179.234 406.206ZM191.438 415.893L190.219 420.143H189.062L189.922 415.893H191.438ZM200.547 406.956C200.531 407.792 200.844 409.221 201.859 410.143C202.828 409.245 203.141 407.87 203.156 406.956V406.127H202.156V405.112H206.047V406.127H204.328V406.956C204.312 408.096 205.016 409.706 206.578 410.44L205.953 411.331C204.844 410.807 204.148 409.862 203.781 408.846C203.484 409.877 202.914 410.893 201.844 411.471C200.781 410.893 200.211 409.862 199.922 408.831C199.547 409.846 198.852 410.807 197.75 411.331L197.141 410.44C198.672 409.69 199.391 408.049 199.391 406.956V406.127H197.625V405.112H201.547V406.127H200.547V406.956ZM205.109 412.315V414.096H207.312V412.315H208.406V418.049H203.984V412.315H205.109ZM205.109 417.081H207.312V415.034H205.109V417.081ZM208.406 404.315V407.268H210.219V408.315H208.406V411.549H207.188V404.315H208.406ZM203.141 412.44V415.596H199.969V417.112C201.422 417.112 202.305 417.088 203.438 416.846L203.547 417.784C202.266 418.034 201.281 418.049 199.516 418.049H198.797V414.69H201.938V413.377H198.766V412.44H203.141ZM223.75 411.643V412.643H211.094V411.643H223.75ZM222.344 416.877V417.909H212.734V413.862H213.969V416.877H222.344ZM217.422 404.815C220.406 404.799 222.328 405.831 222.328 407.565C222.328 409.299 220.406 410.331 217.422 410.331C214.406 410.331 212.5 409.299 212.5 407.565C212.5 405.831 214.406 404.799 217.422 404.815ZM217.422 405.799C215.188 405.799 213.75 406.471 213.766 407.565C213.75 408.659 215.188 409.331 217.422 409.331C219.641 409.331 221.078 408.659 221.078 407.565C221.078 406.471 219.641 405.799 217.422 405.799ZM239.984 404.924V405.815C239.984 406.76 239.984 407.948 239.672 409.518H241.656V410.502H228.938V409.518H238.438C238.75 407.971 238.766 406.831 238.766 405.924H230.547V404.924H239.984ZM240.031 411.909V415.409H231.703V417.049H240.391V418.049H230.469V414.44H238.812V412.893H230.453V411.909H240.031ZM246.953 407.221C246.953 408.534 247.664 410.237 249.109 411.206C250.516 410.268 251.234 408.596 251.234 407.221V405.44H252.469V407.221C252.453 408.924 253.469 410.69 255.297 411.456L254.609 412.393C253.25 411.784 252.312 410.643 251.844 409.299C251.391 410.651 250.492 411.901 249.094 412.549C247.68 411.893 246.766 410.588 246.328 409.221C245.836 410.557 244.891 411.768 243.562 412.393L242.906 411.456C244.672 410.643 245.719 408.768 245.734 407.221V405.44H246.953V407.221ZM255.469 415.315V416.331H242.766V415.315H255.469ZM268.078 404.315V418.206H266.844V404.315H268.078ZM263.969 405.831C263.953 409.831 262.094 413.362 257.438 415.596L256.766 414.596C260.523 412.815 262.438 410.151 262.719 406.831H257.406V405.831H263.969ZM281.406 405.612C281.406 407.565 283.969 409.268 286.469 409.612L285.969 410.612C283.812 410.252 281.68 409.057 280.781 407.346C279.891 409.065 277.75 410.252 275.594 410.612L275.094 409.612C277.594 409.268 280.141 407.596 280.141 405.612V404.815H281.406V405.612ZM287.094 412.143V413.174H281.344V418.206H280.141V413.174H274.438V412.143H287.094ZM300.062 404.315V413.112H298.891V409.127H297.031V412.612H295.875V404.596H297.031V408.112H298.891V404.315H300.062ZM295.312 405.987V406.971H288.188V405.987H291.156V404.424H292.375V405.987H295.312ZM291.766 407.721C293.531 407.721 294.734 408.643 294.75 410.096C294.734 411.518 293.531 412.456 291.766 412.456C290.016 412.456 288.781 411.518 288.797 410.096C288.781 408.643 290.016 407.721 291.766 407.721ZM291.766 408.627C290.656 408.627 289.891 409.221 289.891 410.096C289.891 410.956 290.656 411.534 291.766 411.534C292.875 411.534 293.641 410.956 293.641 410.096C293.641 409.221 292.875 408.627 291.766 408.627ZM295.469 413.346C298.391 413.346 300.141 414.221 300.141 415.784C300.141 417.299 298.391 418.174 295.469 418.174C292.547 418.174 290.797 417.299 290.812 415.784C290.797 414.221 292.547 413.346 295.469 413.346ZM295.469 414.315C293.312 414.299 292.016 414.831 292.031 415.784C292.016 416.69 293.312 417.221 295.469 417.221C297.625 417.221 298.906 416.69 298.922 415.784C298.906 414.831 297.625 414.299 295.469 414.315Z" fill="black"/>
<path d="M32.8672 117.388C32.75 116.275 31.8516 115.611 30.4258 115.611C28.9414 115.611 28.1211 116.294 28.1016 117.232C28.082 118.247 29.1562 118.716 30.3672 118.99L31.6367 119.302C34.0586 119.849 35.875 121.079 35.875 123.443C35.875 126.04 33.8438 127.681 30.4062 127.681C26.9883 127.681 24.8008 126.099 24.7227 123.072H27.5742C27.6719 124.497 28.8047 125.22 30.3672 125.22C31.9102 125.22 32.9062 124.497 32.9062 123.443C32.9062 122.486 32.0273 122.036 30.4844 121.646L28.9414 121.275C26.5586 120.689 25.0938 119.497 25.0938 117.427C25.0938 114.849 27.3594 113.15 30.4453 113.15C33.5703 113.15 35.6406 114.888 35.6797 117.388H32.8672ZM43.3164 116.88V119.048H41.3242V124.224C41.3242 125.064 41.7344 125.279 42.3203 125.298C42.6133 125.298 43.1211 125.279 43.4727 125.24V127.525C43.1602 127.583 42.6523 127.622 41.9297 127.622C39.8398 127.622 38.4141 126.685 38.4336 124.634V119.048H36.9688V116.88H38.4336V114.341H41.3242V116.88H43.3164ZM44.625 124.517C44.625 122.154 46.5391 121.372 48.5703 121.255C49.332 121.206 50.7578 121.138 51.207 121.119V120.259C51.1875 119.38 50.582 118.853 49.5078 118.853C48.5312 118.853 47.9062 119.302 47.75 120.025H44.9961C45.1719 118.189 46.7734 116.744 49.5859 116.744C51.8906 116.744 54.0781 117.779 54.0781 120.337V127.486H51.3438V126.021H51.2656C50.7383 126.997 49.7422 127.681 48.1602 127.681C46.1289 127.681 44.625 126.626 44.625 124.517ZM47.3984 124.439C47.3984 125.259 48.0625 125.689 48.9805 125.689C50.2891 125.689 51.2266 124.81 51.207 123.697V122.915C50.7676 122.935 49.5371 123.003 49.0391 123.052C48.043 123.15 47.3984 123.619 47.3984 124.439ZM61.0508 131.685C58.1211 131.685 56.3242 130.376 56.1484 128.365H59C59.1562 129.204 59.957 129.595 61.1094 129.595C62.457 129.595 63.3555 129.029 63.3555 127.544V125.611H63.2188C62.8281 126.47 61.8906 127.329 60.1914 127.329C57.7891 127.329 55.875 125.65 55.875 122.115C55.875 118.521 57.8477 116.744 60.1914 116.744C61.9688 116.744 62.8281 117.798 63.2188 118.658H63.3359V116.88H66.207V127.603C66.207 130.298 64.0586 131.685 61.0508 131.685ZM61.0898 125.161C62.5352 125.161 63.3555 124.029 63.3555 122.154C63.3555 120.259 62.5352 119.048 61.0898 119.048C59.625 119.048 58.8438 120.318 58.8438 122.154C58.8438 123.99 59.625 125.161 61.0898 125.161ZM73.2578 127.701C70.0156 127.701 68.0234 125.591 68.0234 122.232C68.0234 118.951 70.0352 116.744 73.1406 116.744C75.9336 116.744 78.1211 118.501 78.1211 122.115V122.935H70.875C70.875 124.536 71.832 125.533 73.3164 125.533C74.293 125.533 74.9961 125.103 75.2891 124.458H78.043C77.6328 126.411 75.875 127.701 73.2578 127.701ZM70.875 121.119H75.3867C75.3867 119.829 74.4883 118.911 73.1992 118.911C71.8711 118.911 70.9238 119.898 70.875 121.119Z" fill="white"/>
<path d="M25.0938 146.638V136.74H31.0547V137.833H26.3242V141.142H30.6035V142.222H26.3242V146.638H25.0938ZM33.9121 136.74V146.638H32.7363V136.74H33.9121ZM40.4746 143.589V139.214H41.6367V146.638H40.4746V145.38H40.3926C40.0371 146.132 39.3125 146.734 38.1914 146.734C36.7832 146.734 35.7852 145.818 35.7852 143.931V139.214H36.9609V143.849C36.9609 144.916 37.6309 145.599 38.5742 145.599C39.4082 145.599 40.4746 144.97 40.4746 143.589ZM46.6406 146.789C44.4941 146.789 43.168 145.271 43.168 142.988C43.168 140.705 44.5078 139.119 46.5312 139.119C48.0898 139.119 49.7305 140.076 49.7305 142.824V143.316H44.3438C44.3984 144.888 45.3145 145.75 46.6406 145.75C47.5293 145.75 48.0898 145.367 48.3633 144.902H49.6211C49.2656 146.023 48.1719 146.789 46.6406 146.789ZM44.3574 142.318H48.541C48.541 141.074 47.748 140.158 46.5312 140.158C45.2461 140.158 44.4258 141.169 44.3574 142.318ZM52.4375 142.181V146.638H51.2617V139.214H52.3965V140.376H52.4922C52.8477 139.625 53.5312 139.119 54.666 139.119C56.1699 139.119 57.168 140.035 57.168 141.921V146.638H55.9922V142.003C55.9922 140.855 55.3633 140.171 54.3105 140.171C53.2305 140.171 52.4375 140.896 52.4375 142.181ZM62.0898 146.789C59.9844 146.789 58.6992 145.189 58.6992 142.96C58.6992 140.705 60.0391 139.119 62.0625 139.119C63.6484 139.119 64.8242 140.048 65.0156 141.457H63.8398C63.6758 140.773 63.0742 140.158 62.0898 140.158C60.7637 140.158 59.875 141.251 59.875 142.919C59.875 144.642 60.7363 145.736 62.0898 145.736C62.9648 145.736 63.6348 145.271 63.8398 144.451H65.0156C64.8242 145.777 63.7441 146.789 62.0898 146.789ZM67.2168 149.427C66.957 149.427 66.7109 149.414 66.5605 149.4V148.347C66.6836 148.361 66.957 148.375 67.1348 148.375C67.6133 148.375 68.0098 148.333 68.4062 147.253L68.625 146.693L65.877 139.214H67.1621L69.1855 145.107H69.2676L71.291 139.214H72.5762L69.4316 147.705C68.9941 148.867 68.2695 149.427 67.2168 149.427ZM74.9551 145.722L73.8887 149.441H72.877L73.6289 145.722H74.9551ZM31.8477 161.857C31.5605 160.49 30.3848 159.751 29.0859 159.751C27.2949 159.751 25.9004 161.132 25.9004 163.689C25.9004 166.246 27.2949 167.626 29.0859 167.626C30.3848 167.626 31.5469 166.888 31.8477 165.535H33.0781C32.7227 167.558 31.0957 168.775 29.0859 168.775C26.543 168.775 24.7109 166.82 24.7109 163.689C24.7109 160.558 26.543 158.603 29.0859 158.603C31.082 158.603 32.709 159.806 33.0781 161.857H31.8477ZM37.6855 168.789C35.6621 168.789 34.2949 167.271 34.2949 164.96C34.2949 162.65 35.6621 161.119 37.6855 161.119C39.6953 161.119 41.0488 162.65 41.0488 164.96C41.0488 167.271 39.6953 168.789 37.6855 168.789ZM37.6855 167.75C39.1758 167.75 39.873 166.437 39.873 164.96C39.873 163.484 39.1758 162.158 37.6855 162.158C36.168 162.158 35.4707 163.484 35.4707 164.96C35.4707 166.437 36.168 167.75 37.6855 167.75ZM42.5938 168.638V161.214H43.7285V162.376H43.8242C44.1387 161.583 44.8496 161.119 45.8203 161.119C46.791 161.119 47.4473 161.583 47.8027 162.376H47.8848C48.2676 161.611 49.0469 161.119 50.1133 161.119C51.4395 161.119 52.3828 161.925 52.3828 163.675V168.638H51.207V163.689C51.207 162.595 50.5098 162.171 49.7031 162.171C48.6641 162.171 48.0762 162.869 48.0762 163.812V168.638H46.8867V163.566C46.8867 162.732 46.2852 162.171 45.4375 162.171C44.5488 162.171 43.7695 162.923 43.7695 164.003V168.638H42.5938ZM54.2695 171.427V161.214H55.4043V162.39H55.541C55.7871 161.994 56.252 161.119 57.6875 161.119C59.5469 161.119 60.8457 162.595 60.8457 164.947C60.8457 167.298 59.5469 168.789 57.7012 168.789C56.2793 168.789 55.7871 167.914 55.541 167.503H55.4453V171.427H54.2695ZM55.418 164.919C55.418 166.587 56.1699 167.736 57.5371 167.736C58.9453 167.736 59.6699 166.505 59.6699 164.919C59.6699 163.375 58.959 162.171 57.5371 162.171C56.1426 162.171 55.418 163.279 55.418 164.919ZM62.377 168.638V161.214H63.5117V162.349H63.5938C63.8672 161.597 64.6328 161.091 65.5078 161.091C65.6855 161.091 65.9863 161.105 66.123 161.119V162.308C66.041 162.281 65.7129 162.226 65.4121 162.226C64.3457 162.226 63.5527 162.964 63.5527 163.962V168.638H62.377ZM70.1426 168.789C67.9961 168.789 66.6699 167.271 66.6699 164.988C66.6699 162.705 68.0098 161.119 70.0332 161.119C71.5918 161.119 73.2324 162.076 73.2324 164.824V165.316H67.8457C67.9004 166.888 68.8164 167.75 70.1426 167.75C71.0312 167.75 71.5918 167.367 71.8652 166.902H73.123C72.7676 168.023 71.6738 168.789 70.1426 168.789ZM67.8594 164.318H72.043C72.043 163.074 71.25 162.158 70.0332 162.158C68.748 162.158 67.9277 163.169 67.8594 164.318ZM75.9395 164.181V168.638H74.7637V158.74H75.9395V162.376H76.0352C76.377 161.611 77.0469 161.119 78.2227 161.119C79.7402 161.119 80.752 162.021 80.752 163.921V168.638H79.5762V164.003C79.5762 162.841 78.9336 162.171 77.8672 162.171C76.7598 162.171 75.9395 162.896 75.9395 164.181ZM85.7559 168.789C83.6094 168.789 82.2832 167.271 82.2832 164.988C82.2832 162.705 83.623 161.119 85.6465 161.119C87.2051 161.119 88.8457 162.076 88.8457 164.824V165.316H83.459C83.5137 166.888 84.4297 167.75 85.7559 167.75C86.6445 167.75 87.2051 167.367 87.4785 166.902H88.7363C88.3809 168.023 87.2871 168.789 85.7559 168.789ZM83.4727 164.318H87.6562C87.6562 163.074 86.8633 162.158 85.6465 162.158C84.3613 162.158 83.541 163.169 83.4727 164.318ZM91.5527 164.181V168.638H90.377V161.214H91.5117V162.376H91.6074C91.9629 161.625 92.6465 161.119 93.7812 161.119C95.2852 161.119 96.2832 162.035 96.2832 163.921V168.638H95.1074V164.003C95.1074 162.855 94.4785 162.171 93.4258 162.171C92.3457 162.171 91.5527 162.896 91.5527 164.181ZM102.299 163.142C102.135 162.527 101.67 162.117 100.795 162.117C99.8789 162.117 99.2227 162.609 99.2227 163.238C99.2227 163.73 99.6191 164.072 100.494 164.277L101.602 164.55C102.928 164.865 103.584 165.521 103.584 166.56C103.584 167.845 102.531 168.789 100.672 168.789C99.0039 168.789 98.0059 168.05 97.8145 166.697H99.0449C99.1816 167.421 99.7148 167.763 100.645 167.763C101.697 167.763 102.367 167.326 102.367 166.628C102.367 166.109 101.998 165.753 101.15 165.562L100.029 165.302C98.7305 165.001 98.0469 164.291 98.0469 163.306C98.0469 162.035 99.1543 161.119 100.795 161.119C102.326 161.119 103.297 161.939 103.447 163.142H102.299ZM105.115 168.638V161.214H106.291V168.638H105.115ZM105.703 159.984C105.252 159.984 104.883 159.642 104.883 159.205C104.883 158.767 105.252 158.425 105.703 158.425C106.154 158.425 106.537 158.767 106.537 159.205C106.537 159.642 106.154 159.984 105.703 159.984ZM111.199 168.789C109.176 168.789 107.809 167.271 107.809 164.96C107.809 162.65 109.176 161.119 111.199 161.119C113.209 161.119 114.562 162.65 114.562 164.96C114.562 167.271 113.209 168.789 111.199 168.789ZM111.199 167.75C112.689 167.75 113.387 166.437 113.387 164.96C113.387 163.484 112.689 162.158 111.199 162.158C109.682 162.158 108.984 163.484 108.984 164.96C108.984 166.437 109.682 167.75 111.199 167.75ZM117.283 164.181V168.638H116.107V161.214H117.242V162.376H117.338C117.693 161.625 118.377 161.119 119.512 161.119C121.016 161.119 122.014 162.035 122.014 163.921V168.638H120.838V164.003C120.838 162.855 120.209 162.171 119.156 162.171C118.076 162.171 117.283 162.896 117.283 164.181Z" fill="white"/>
<path d="M178.324 136.637V146.535H177.094V136.637H178.324ZM181.537 142.078V146.535H180.361V139.111H181.496V140.273H181.592C181.947 139.521 182.631 139.016 183.766 139.016C185.27 139.016 186.268 139.932 186.268 141.818V146.535H185.092V141.9C185.092 140.752 184.463 140.068 183.41 140.068C182.33 140.068 181.537 140.793 181.537 142.078ZM190.957 146.686C189.111 146.686 187.799 145.195 187.799 142.844C187.799 140.492 189.111 139.016 190.971 139.016C192.406 139.016 192.871 139.891 193.117 140.287H193.199V136.637H194.389V146.535H193.24V145.4H193.117C192.857 145.811 192.379 146.686 190.957 146.686ZM191.121 145.633C192.475 145.633 193.24 144.484 193.24 142.816C193.24 141.176 192.502 140.068 191.121 140.068C189.699 140.068 188.988 141.271 188.988 142.816C188.988 144.402 189.713 145.633 191.121 145.633ZM199.543 146.686C197.396 146.686 196.07 145.168 196.07 142.885C196.07 140.602 197.41 139.016 199.434 139.016C200.992 139.016 202.633 139.973 202.633 142.721V143.213H197.246C197.301 144.785 198.217 145.646 199.543 145.646C200.432 145.646 200.992 145.264 201.266 144.799H202.523C202.168 145.92 201.074 146.686 199.543 146.686ZM197.26 142.215H201.443C201.443 140.971 200.65 140.055 199.434 140.055C198.148 140.055 197.328 141.066 197.26 142.215ZM204.164 149.324V139.111H205.299V140.287H205.436C205.682 139.891 206.146 139.016 207.582 139.016C209.441 139.016 210.74 140.492 210.74 142.844C210.74 145.195 209.441 146.686 207.596 146.686C206.174 146.686 205.682 145.811 205.436 145.4H205.34V149.324H204.164ZM205.312 142.816C205.312 144.484 206.064 145.633 207.432 145.633C208.84 145.633 209.564 144.402 209.564 142.816C209.564 141.271 208.854 140.068 207.432 140.068C206.037 140.068 205.312 141.176 205.312 142.816ZM215.389 146.686C213.242 146.686 211.916 145.168 211.916 142.885C211.916 140.602 213.256 139.016 215.279 139.016C216.838 139.016 218.479 139.973 218.479 142.721V143.213H213.092C213.146 144.785 214.062 145.646 215.389 145.646C216.277 145.646 216.838 145.264 217.111 144.799H218.369C218.014 145.92 216.92 146.686 215.389 146.686ZM213.105 142.215H217.289C217.289 140.971 216.496 140.055 215.279 140.055C213.994 140.055 213.174 141.066 213.105 142.215ZM221.186 142.078V146.535H220.01V139.111H221.145V140.273H221.24C221.596 139.521 222.279 139.016 223.414 139.016C224.918 139.016 225.916 139.932 225.916 141.818V146.535H224.74V141.9C224.74 140.752 224.111 140.068 223.059 140.068C221.979 140.068 221.186 140.793 221.186 142.078ZM230.605 146.686C228.76 146.686 227.447 145.195 227.447 142.844C227.447 140.492 228.76 139.016 230.619 139.016C232.055 139.016 232.52 139.891 232.766 140.287H232.848V136.637H234.037V146.535H232.889V145.4H232.766C232.506 145.811 232.027 146.686 230.605 146.686ZM230.77 145.633C232.123 145.633 232.889 144.484 232.889 142.816C232.889 141.176 232.15 140.068 230.77 140.068C229.348 140.068 228.637 141.271 228.637 142.816C228.637 144.402 229.361 145.633 230.77 145.633ZM239.191 146.686C237.045 146.686 235.719 145.168 235.719 142.885C235.719 140.602 237.059 139.016 239.082 139.016C240.641 139.016 242.281 139.973 242.281 142.721V143.213H236.895C236.949 144.785 237.865 145.646 239.191 145.646C240.08 145.646 240.641 145.264 240.914 144.799H242.172C241.816 145.92 240.723 146.686 239.191 146.686ZM236.908 142.215H241.092C241.092 140.971 240.299 140.055 239.082 140.055C237.797 140.055 236.977 141.066 236.908 142.215ZM244.988 142.078V146.535H243.812V139.111H244.947V140.273H245.043C245.398 139.521 246.082 139.016 247.217 139.016C248.721 139.016 249.719 139.932 249.719 141.818V146.535H248.543V141.9C248.543 140.752 247.914 140.068 246.861 140.068C245.781 140.068 244.988 140.793 244.988 142.078ZM254.846 139.111V140.096H253.287V144.402C253.287 145.359 253.752 145.51 254.258 145.51C254.477 145.51 254.777 145.496 254.955 145.482V146.576C254.777 146.604 254.477 146.631 254.135 146.631C253.15 146.631 252.098 146.016 252.098 144.703V140.096H250.977V139.111H252.098V137.334H253.287V139.111H254.846ZM257.908 145.619L256.842 149.338H255.83L256.582 145.619H257.908ZM177.094 168.535V158.637H180.457C182.781 158.637 183.834 159.922 183.834 161.686C183.834 162.991 183.246 164.023 181.988 164.461L184.217 168.535H182.781L180.717 164.68L180.471 164.693H178.324V168.535H177.094ZM178.324 163.572H180.416C181.988 163.572 182.617 162.861 182.617 161.686C182.617 160.496 181.988 159.73 180.402 159.73H178.324V163.572ZM188.496 168.686C186.35 168.686 185.023 167.168 185.023 164.885C185.023 162.602 186.363 161.016 188.387 161.016C189.945 161.016 191.586 161.973 191.586 164.721V165.213H186.199C186.254 166.785 187.17 167.646 188.496 167.646C189.385 167.646 189.945 167.264 190.219 166.799H191.477C191.121 167.92 190.027 168.686 188.496 168.686ZM186.213 164.215H190.396C190.396 162.971 189.604 162.055 188.387 162.055C187.102 162.055 186.281 163.066 186.213 164.215ZM196.439 161.111V162.096H194.799V168.535H193.609V162.096H192.42V161.111H193.609V160.1C193.609 158.896 194.416 158.172 195.729 158.172C196.016 158.172 196.357 158.213 196.604 158.254V159.307C196.357 159.266 196.139 159.252 195.988 159.252C195.168 159.252 194.799 159.594 194.799 160.359V161.111H196.439ZM199.01 158.637V168.535H197.834V158.637H199.01ZM204 168.686C201.854 168.686 200.527 167.168 200.527 164.885C200.527 162.602 201.867 161.016 203.891 161.016C205.449 161.016 207.09 161.973 207.09 164.721V165.213H201.703C201.758 166.785 202.674 167.646 204 167.646C204.889 167.646 205.449 167.264 205.723 166.799H206.98C206.625 167.92 205.531 168.686 204 168.686ZM201.717 164.215H205.9C205.9 162.971 205.107 162.055 203.891 162.055C202.605 162.055 201.785 163.066 201.717 164.215ZM211.656 168.686C209.551 168.686 208.266 167.086 208.266 164.857C208.266 162.602 209.605 161.016 211.629 161.016C213.215 161.016 214.391 161.945 214.582 163.354H213.406C213.242 162.67 212.641 162.055 211.656 162.055C210.33 162.055 209.441 163.148 209.441 164.816C209.441 166.539 210.303 167.633 211.656 167.633C212.531 167.633 213.201 167.168 213.406 166.348H214.582C214.391 167.674 213.311 168.686 211.656 168.686ZM219.271 161.111V162.096H217.713V166.402C217.713 167.359 218.178 167.51 218.684 167.51C218.902 167.51 219.203 167.496 219.381 167.482V168.576C219.203 168.604 218.902 168.631 218.561 168.631C217.576 168.631 216.523 168.016 216.523 166.703V162.096H215.402V161.111H216.523V159.334H217.713V161.111H219.271ZM220.789 168.535V161.111H221.965V168.535H220.789ZM221.377 159.881C220.926 159.881 220.557 159.539 220.557 159.102C220.557 158.664 220.926 158.322 221.377 158.322C221.828 158.322 222.211 158.664 222.211 159.102C222.211 159.539 221.828 159.881 221.377 159.881ZM229.949 161.111L227.201 168.535H225.984L223.25 161.111H224.535L226.559 167.004H226.641L228.664 161.111H229.949ZM234.092 168.686C231.945 168.686 230.619 167.168 230.619 164.885C230.619 162.602 231.959 161.016 233.982 161.016C235.541 161.016 237.182 161.973 237.182 164.721V165.213H231.795C231.85 166.785 232.766 167.646 234.092 167.646C234.98 167.646 235.541 167.264 235.814 166.799H237.072C236.717 167.92 235.623 168.686 234.092 168.686ZM231.809 164.215H235.992C235.992 162.971 235.199 162.055 233.982 162.055C232.697 162.055 231.877 163.066 231.809 164.215Z" fill="white"/>
<path d="M176.812 127.28V113.139H182.359C185.582 113.139 187.418 114.955 187.418 117.748C187.418 119.682 186.529 121.088 184.918 121.772L187.926 127.28H184.684L181.988 122.26H179.742V127.28H176.812ZM179.742 119.877H181.812C183.551 119.877 184.391 119.155 184.391 117.748C184.391 116.323 183.551 115.541 181.812 115.541H179.742V119.877ZM194.02 127.494C190.777 127.494 188.785 125.385 188.785 122.026C188.785 118.744 190.797 116.537 193.902 116.537C196.695 116.537 198.883 118.295 198.883 121.909V122.729H191.637C191.637 124.33 192.594 125.326 194.078 125.326C195.055 125.326 195.758 124.897 196.051 124.252H198.805C198.395 126.205 196.637 127.494 194.02 127.494ZM191.637 120.912H196.148C196.148 119.623 195.25 118.705 193.961 118.705C192.633 118.705 191.686 119.692 191.637 120.912ZM200.191 124.311C200.191 121.948 202.105 121.166 204.137 121.049C204.898 121 206.324 120.932 206.773 120.912V120.053C206.754 119.174 206.148 118.647 205.074 118.647C204.098 118.647 203.473 119.096 203.316 119.819H200.562C200.738 117.983 202.34 116.537 205.152 116.537C207.457 116.537 209.645 117.573 209.645 120.131V127.28H206.91V125.815H206.832C206.305 126.791 205.309 127.475 203.727 127.475C201.695 127.475 200.191 126.42 200.191 124.311ZM202.965 124.233C202.965 125.053 203.629 125.483 204.547 125.483C205.855 125.483 206.793 124.604 206.773 123.491V122.709C206.334 122.729 205.104 122.797 204.605 122.846C203.609 122.944 202.965 123.412 202.965 124.233ZM215.758 127.455C213.336 127.455 211.441 125.522 211.441 121.987C211.441 118.354 213.414 116.537 215.758 116.537C217.535 116.537 218.375 117.592 218.766 118.451H218.863V113.139H221.754V127.28H218.902V125.58H218.766C218.355 126.459 217.477 127.455 215.758 127.455ZM216.656 125.151C218.102 125.151 218.922 123.881 218.922 121.967C218.922 120.053 218.102 118.842 216.656 118.842C215.191 118.842 214.41 120.112 214.41 121.967C214.41 123.842 215.191 125.151 216.656 125.151ZM228.883 127.494C225.641 127.494 223.648 125.385 223.648 122.026C223.648 118.744 225.66 116.537 228.766 116.537C231.559 116.537 233.746 118.295 233.746 121.909V122.729H226.5C226.5 124.33 227.457 125.326 228.941 125.326C229.918 125.326 230.621 124.897 230.914 124.252H233.668C233.258 126.205 231.5 127.494 228.883 127.494ZM226.5 120.912H231.012C231.012 119.623 230.113 118.705 228.824 118.705C227.496 118.705 226.549 119.692 226.5 120.912ZM235.562 127.28V116.674H238.355V118.51H238.473C238.863 117.201 239.84 116.518 241.031 116.518C241.324 116.518 241.695 116.557 241.949 116.616V119.194C241.676 119.116 241.129 119.037 240.719 119.037C239.41 119.037 238.453 119.955 238.453 121.244V127.28H235.562ZM250.953 113.139V127.28H248.023V113.139H250.953ZM257.184 127.455C254.762 127.455 252.867 125.522 252.867 121.987C252.867 118.354 254.84 116.537 257.184 116.537C258.961 116.537 259.801 117.592 260.191 118.451H260.289V113.139H263.18V127.28H260.328V125.58H260.191C259.781 126.459 258.902 127.455 257.184 127.455ZM258.082 125.151C259.527 125.151 260.348 123.881 260.348 121.967C260.348 120.053 259.527 118.842 258.082 118.842C256.617 118.842 255.836 120.112 255.836 121.967C255.836 123.842 256.617 125.151 258.082 125.151ZM270.309 127.494C267.066 127.494 265.074 125.385 265.074 122.026C265.074 118.744 267.086 116.537 270.191 116.537C272.984 116.537 275.172 118.295 275.172 121.909V122.729H267.926C267.926 124.33 268.883 125.326 270.367 125.326C271.344 125.326 272.047 124.897 272.34 124.252H275.094C274.684 126.205 272.926 127.494 270.309 127.494ZM267.926 120.912H272.438C272.438 119.623 271.539 118.705 270.25 118.705C268.922 118.705 267.975 119.692 267.926 120.912ZM279.879 121.147V127.28H276.988V116.674H279.742V118.53H279.859C280.348 117.299 281.48 116.537 283.043 116.537C285.25 116.537 286.715 118.041 286.695 120.522V127.28H283.824V121.03C283.824 119.721 283.102 118.94 281.91 118.94C280.699 118.94 279.879 119.741 279.879 121.147ZM294.527 116.674V118.842H292.535V124.018C292.535 124.858 292.945 125.073 293.531 125.092C293.824 125.092 294.332 125.073 294.684 125.034V127.319C294.371 127.377 293.863 127.416 293.141 127.416C291.051 127.416 289.625 126.479 289.645 124.428V118.842H288.18V116.674H289.645V114.135H292.535V116.674H294.527ZM296.344 127.28V116.674H299.234V127.28H296.344ZM297.789 115.287C296.91 115.287 296.207 114.623 296.207 113.823C296.207 113.002 296.91 112.338 297.789 112.338C298.648 112.338 299.352 113.002 299.352 113.823C299.352 114.623 298.648 115.287 297.789 115.287ZM307.066 116.674V118.842H305.074V124.018C305.074 124.858 305.484 125.073 306.07 125.092C306.363 125.092 306.871 125.073 307.223 125.034V127.319C306.91 127.377 306.402 127.416 305.68 127.416C303.59 127.416 302.164 126.479 302.184 124.428V118.842H300.719V116.674H302.184V114.135H305.074V116.674H307.066ZM310.582 131.264C310.016 131.264 309.488 131.244 309.117 131.205V128.959C309.488 128.979 309.918 128.998 310.289 128.998C310.855 128.998 311.324 128.94 311.676 128.022L311.852 127.573L308.043 116.674H311.07L313.297 124.487H313.414L315.66 116.674H318.727L314.586 128.451C313.98 130.151 312.828 131.264 310.582 131.264Z" fill="white"/>
<defs>
<linearGradient id="paint0_linear_2204_3058" x1="15.9074" y1="27.668" x2="356.196" y2="441.547" gradientUnits="userSpaceOnUse">
<stop stop-color="#3182F6"/>
<stop offset="1" stop-color="#004DBC"/>
</linearGradient>
<linearGradient id="paint1_linear_2204_3058" x1="16.2514" y1="241.457" x2="122.332" y2="241.457" gradientUnits="userSpaceOnUse">
<stop stop-color="#3182F6"/>
<stop offset="1" stop-color="#A009FF"/>
</linearGradient>
<linearGradient id="paint2_linear_2204_3058" x1="18.8943" y1="344.84" x2="88.9657" y2="344.84" gradientUnits="userSpaceOnUse">
<stop stop-color="#3182F6"/>
<stop offset="1" stop-color="#A009FF"/>
</linearGradient>
</defs>
</svg>
