<svg width="347" height="454" viewBox="0 0 347 454" fill="none" xmlns="http://www.w3.org/2000/svg">
<rect x="0.5" y="0.5" width="346" height="453" rx="20.5" fill="#2D26F0" stroke="url(#paint0_linear_2287_858)"/>
<rect x="1" y="194" width="345" height="259" rx="20" fill="white"/>
<path d="M208.02 68.2947V69.4549H193.711V68.2947H200.162V64.7088H201.516V68.2947H208.02ZM206.648 58.2928V59.4354H201.551C201.56 61.8875 204.161 63.6893 207.158 64.1814L206.631 65.2713C204.126 64.823 201.832 63.5662 200.848 61.615C199.854 63.5662 197.561 64.823 195.047 65.2713L194.502 64.1814C197.517 63.6893 200.136 61.8875 200.145 59.4354H195.047V58.2928H200.162V56.1307H201.516V58.2928H206.648ZM223.523 63.2322V64.3924H209.268V63.2322H223.523ZM221.854 60.6131V61.7381H211.078V56.4295H221.748V57.5896H212.432V60.6131H221.854ZM216.387 65.7635C219.744 65.7635 221.748 66.783 221.766 68.576C221.748 70.3865 219.744 71.3885 216.387 71.3885C213.012 71.3885 210.99 70.3865 210.99 68.576C210.99 66.783 213.012 65.7635 216.387 65.7635ZM216.387 66.8357C213.873 66.8533 212.379 67.4861 212.396 68.576C212.379 69.6834 213.873 70.2986 216.387 70.2986C218.865 70.2986 220.377 69.6834 220.377 68.576C220.377 67.4861 218.865 66.8533 216.387 66.8357ZM229.535 70.1756C227.232 70.1756 225.492 68.7518 225.404 66.8006H226.934C227.057 67.9432 228.164 68.7869 229.535 68.7869C231.188 68.7869 232.383 67.574 232.383 65.9744C232.383 64.3221 231.135 63.1092 229.43 63.0916C228.357 63.074 227.531 63.408 227.057 64.2342H225.527L226.424 57.2732H233.314V58.6795H227.742L227.268 62.4061H227.391C227.953 61.9666 228.814 61.6678 229.711 61.6678C232.137 61.6678 233.93 63.4607 233.93 65.9393C233.93 68.4002 232.066 70.1756 229.535 70.1756ZM244.916 57.4842V58.6092H235.6V57.4842H239.572V55.7264H240.943V57.4842H244.916ZM240.258 59.4178C242.508 59.4354 244.002 60.5252 244.02 62.2479C244.002 63.9529 242.508 65.0604 240.258 65.0604C238.008 65.0604 236.479 63.9529 236.496 62.2479C236.479 60.5252 238.008 59.4354 240.258 59.4178ZM240.258 60.49C238.781 60.5076 237.797 61.1932 237.814 62.2479C237.797 63.285 238.781 63.9529 240.258 63.9529C241.717 63.9529 242.701 63.285 242.719 62.2479C242.701 61.1932 241.717 60.5076 240.258 60.49ZM247.781 55.7967V60.1385H250.137V61.2986H247.781V65.5701H246.41V55.7967H247.781ZM247.781 66.4314V71.4236H246.41V67.5564H237.551V66.4314H247.781ZM264.076 55.8143V67.3807H262.688V61.9666H258.188V60.8592H262.688V58.9783H258.188V57.8709H262.688V55.8143H264.076ZM264.498 69.9295V71.0896H254.004V66.3963H255.393V69.9295H264.498ZM253.441 56.9393V63.8826C255.595 63.8738 257.669 63.7596 260.051 63.3201L260.191 64.4627C257.643 64.9373 255.516 65.0428 253.23 65.0604H252.053V56.9393H253.441ZM267.75 63.4432C268.312 62.7928 269.016 62.4412 269.789 62.4412C271.125 62.4412 272.338 63.4607 273.621 63.4607C274.412 63.4607 275.098 63.074 275.625 62.3533V63.8123C275.045 64.4803 274.359 64.8143 273.586 64.8143C272.25 64.8143 271.037 63.7947 269.736 63.7947C268.963 63.7947 268.277 64.1814 267.75 64.9021V63.4432ZM292.201 63.1092V64.2518H285.75V65.9217C288.703 66.0447 290.443 67.0115 290.461 68.6639C290.443 70.4041 288.439 71.3885 285.082 71.3885C281.689 71.3885 279.686 70.4041 279.686 68.6639C279.686 67.0115 281.417 66.0447 284.396 65.9217V64.2518H277.963V63.1092H292.201ZM285.082 66.9764C282.568 66.9939 281.074 67.6092 281.092 68.6639C281.074 69.701 282.568 70.3162 285.082 70.3162C287.561 70.3162 289.072 69.701 289.072 68.6639C289.072 67.6092 287.561 66.9939 285.082 66.9764ZM290.936 56.535V57.66H285.979C286.066 59.4178 288.65 60.7801 291.41 61.0701L290.9 62.16C288.343 61.8523 285.943 60.7098 285.082 58.9607C284.229 60.7098 281.839 61.8523 279.264 62.16L278.771 61.0701C281.479 60.7801 284.08 59.4178 284.186 57.66H279.264V56.535H290.936ZM307.775 63.2322V64.3924H293.52V63.2322H307.775ZM306.105 60.6131V61.7381H295.33V56.4295H306V57.5896H296.684V60.6131H306.105ZM300.639 65.7635C303.996 65.7635 306 66.783 306.018 68.576C306 70.3865 303.996 71.3885 300.639 71.3885C297.264 71.3885 295.242 70.3865 295.242 68.576C295.242 66.783 297.264 65.7635 300.639 65.7635ZM300.639 66.8357C298.125 66.8533 296.631 67.4861 296.648 68.576C296.631 69.6834 298.125 70.2986 300.639 70.2986C303.117 70.2986 304.629 69.6834 304.629 68.576C304.629 67.4861 303.117 66.8533 300.639 66.8357ZM313.734 58.908C313.734 60.6307 314.947 62.3885 316.951 63.1443L316.23 64.199C314.728 63.6189 313.646 62.5027 313.084 61.158C312.504 62.6521 311.388 63.9793 309.85 64.6385L309.094 63.5662C311.15 62.6697 312.416 60.6482 312.416 58.908V56.7811H313.734V58.908ZM322.348 55.8143V65.4646H321.029V61.158H318.955V64.9725H317.654V56.1131H318.955V60.0154H321.029V55.8143H322.348ZM317.18 65.8162C320.414 65.8162 322.436 66.8357 322.436 68.6111C322.436 70.3689 320.414 71.3885 317.18 71.3885C313.928 71.3885 311.924 70.3689 311.941 68.6111C311.924 66.8357 313.928 65.8162 317.18 65.8162ZM317.18 66.8709C314.789 66.8709 313.295 67.5213 313.312 68.6111C313.295 69.6834 314.789 70.3162 317.18 70.3162C319.553 70.3162 321.047 69.6834 321.064 68.6111C321.047 67.5213 319.553 66.8709 317.18 66.8709Z" fill="white"/>
<path d="M42.1836 51.2031V71H38.6289L29.9336 58.4219H29.7695V71H25.668V51.2031H29.2773L37.918 63.7812H38.1094V51.2031H42.1836ZM45.5195 71V51.2031H58.8086V54.5938H49.6211V59.4062H58.125V62.7969H49.6211V67.6094H58.8359V71H45.5195ZM65.8086 51.2031L69.8555 58.0117H69.9922L74.0664 51.2031H78.7148L72.6719 61.1016L78.8516 71H74.0938L69.9922 64.1914H69.8555L65.7539 71H61.0234L67.2305 61.1016L61.1328 51.2031H65.8086ZM80.4375 54.5938V51.2031H96.6523V54.5938H90.582V71H86.5078V54.5938H80.4375Z" fill="white"/>
<path d="M24 88.858H324" stroke="white"/>
<path d="M38.1777 224.93C38.1777 229.539 35.3066 232.195 31.5762 232.195C27.8066 232.195 24.9551 229.52 24.9551 224.93C24.9551 220.32 27.8066 217.664 31.5762 217.664C35.3066 217.664 38.1777 220.32 38.1777 224.93ZM35.1895 224.93C35.1895 221.902 33.7637 220.262 31.5762 220.262C29.3887 220.262 27.9434 221.902 27.9434 224.93C27.9434 227.957 29.3887 229.598 31.5762 229.598C33.7637 229.598 35.1895 227.957 35.1895 224.93ZM40.2871 232V217.859H43.1777V223.172H43.2559C43.666 222.312 44.5059 221.258 46.2832 221.258C48.627 221.258 50.5996 223.074 50.5996 226.707C50.5996 230.242 48.7051 232.176 46.2832 232.176C44.5449 232.176 43.666 231.18 43.2559 230.301H43.1387V232H40.2871ZM43.1191 226.688C43.1191 228.602 43.9395 229.871 45.3652 229.871C46.8496 229.871 47.6309 228.562 47.6309 226.688C47.6309 224.832 46.8496 223.562 45.3652 223.562C43.9199 223.562 43.1191 224.773 43.1191 226.688ZM52.4551 221.395H55.3457V232.527C55.3457 234.969 53.8418 235.984 51.3613 235.984L50.7754 235.965V233.699C50.9316 233.699 51.0293 233.719 51.166 233.719C52.1035 233.719 52.4551 233.289 52.4551 232.488V221.395ZM53.8809 220.008C53.002 220.008 52.2988 219.344 52.2988 218.543C52.2988 217.723 53.002 217.059 53.8809 217.059C54.7402 217.059 55.4434 217.723 55.4434 218.543C55.4434 219.344 54.7402 220.008 53.8809 220.008ZM62.3965 232.215C59.1543 232.215 57.1621 230.105 57.1621 226.746C57.1621 223.465 59.1738 221.258 62.2793 221.258C65.0723 221.258 67.2598 223.016 67.2598 226.629V227.449H60.0137C60.0137 229.051 60.9707 230.047 62.4551 230.047C63.4316 230.047 64.1348 229.617 64.4277 228.973H67.1816C66.7715 230.926 65.0137 232.215 62.3965 232.215ZM60.0137 225.633H64.5254C64.5254 224.344 63.627 223.426 62.3379 223.426C61.0098 223.426 60.0625 224.412 60.0137 225.633ZM73.8418 232.215C70.5996 232.215 68.6465 229.969 68.6465 226.727C68.6465 223.484 70.6191 221.258 73.8418 221.258C76.5762 221.258 78.4316 222.859 78.5488 225.281H75.834C75.6582 224.227 74.9746 223.504 73.8809 223.504C72.4941 223.504 71.5762 224.676 71.5762 226.688C71.5762 228.738 72.4746 229.91 73.8809 229.91C74.8965 229.91 75.6582 229.285 75.834 228.152H78.5488C78.4121 230.555 76.6543 232.215 73.8418 232.215ZM85.9316 221.395V223.562H83.9395V228.738C83.9395 229.578 84.3496 229.793 84.9355 229.812C85.2285 229.812 85.7363 229.793 86.0879 229.754V232.039C85.7754 232.098 85.2676 232.137 84.5449 232.137C82.4551 232.137 81.0293 231.199 81.0488 229.148V223.562H79.584V221.395H81.0488V218.855H83.9395V221.395H85.9316ZM87.748 232V221.395H90.6387V232H87.748ZM89.1934 220.008C88.3145 220.008 87.6113 219.344 87.6113 218.543C87.6113 217.723 88.3145 217.059 89.1934 217.059C90.0527 217.059 90.7559 217.723 90.7559 218.543C90.7559 219.344 90.0527 220.008 89.1934 220.008ZM102.729 221.395L98.998 232H95.7559L92.0449 221.395H95.0918L97.3184 229.012H97.4355L99.6621 221.395H102.729ZM108.588 232.215C105.346 232.215 103.354 230.105 103.354 226.746C103.354 223.465 105.365 221.258 108.471 221.258C111.264 221.258 113.451 223.016 113.451 226.629V227.449H106.205C106.205 229.051 107.162 230.047 108.646 230.047C109.623 230.047 110.326 229.617 110.619 228.973H113.373C112.963 230.926 111.205 232.215 108.588 232.215ZM106.205 225.633H110.717C110.717 224.344 109.818 223.426 108.529 223.426C107.201 223.426 106.254 224.412 106.205 225.633Z" fill="url(#paint1_linear_2287_858)"/>
<path d="M32.9043 325.285C32.7871 324.172 31.8887 323.508 30.4629 323.508C28.9785 323.508 28.1582 324.191 28.1387 325.129C28.1191 326.145 29.1934 326.613 30.4043 326.887L31.6738 327.199C34.0957 327.746 35.9121 328.977 35.9121 331.34C35.9121 333.938 33.8809 335.578 30.4434 335.578C27.0254 335.578 24.8379 333.996 24.7598 330.969H27.6113C27.709 332.395 28.8418 333.117 30.4043 333.117C31.9473 333.117 32.9434 332.395 32.9434 331.34C32.9434 330.383 32.0645 329.934 30.5215 329.543L28.9785 329.172C26.5957 328.586 25.1309 327.395 25.1309 325.324C25.1309 322.746 27.3965 321.047 30.4824 321.047C33.6074 321.047 35.6777 322.785 35.7168 325.285H32.9043ZM42.5332 335.598C39.291 335.598 37.3379 333.352 37.3379 330.109C37.3379 326.867 39.3105 324.641 42.5332 324.641C45.2676 324.641 47.123 326.242 47.2402 328.664H44.5254C44.3496 327.609 43.666 326.887 42.5723 326.887C41.1855 326.887 40.2676 328.059 40.2676 330.07C40.2676 332.121 41.166 333.293 42.5723 333.293C43.5879 333.293 44.3496 332.668 44.5254 331.535H47.2402C47.1035 333.938 45.3457 335.598 42.5332 335.598ZM53.8027 335.598C50.5996 335.598 48.6074 333.391 48.6074 330.109C48.6074 326.828 50.5996 324.641 53.8027 324.641C57.0059 324.641 59.0176 326.828 59.0176 330.109C59.0176 333.391 57.0059 335.598 53.8027 335.598ZM53.8223 333.352C55.3066 333.352 56.0684 331.965 56.0684 330.109C56.0684 328.234 55.3066 326.848 53.8223 326.848C52.3184 326.848 51.5371 328.234 51.5371 330.109C51.5371 331.965 52.3184 333.352 53.8223 333.352ZM60.834 339.367V324.777H63.6855V326.555H63.8027C64.1934 325.695 65.0527 324.641 66.8301 324.641C69.1738 324.641 71.127 326.457 71.127 330.09C71.127 333.625 69.252 335.559 66.8301 335.559C65.0918 335.559 64.2129 334.562 63.8027 333.684H63.7246V339.367H60.834ZM63.666 330.07C63.666 331.984 64.4863 333.254 65.9121 333.254C67.3965 333.254 68.1777 331.945 68.1777 330.07C68.1777 328.215 67.3965 326.945 65.9121 326.945C64.4668 326.945 63.666 328.156 63.666 330.07ZM77.8066 335.598C74.5645 335.598 72.5723 333.488 72.5723 330.129C72.5723 326.848 74.584 324.641 77.6895 324.641C80.4824 324.641 82.6699 326.398 82.6699 330.012V330.832H75.4238C75.4238 332.434 76.3809 333.43 77.8652 333.43C78.8418 333.43 79.5449 333 79.8379 332.355H82.5918C82.1816 334.309 80.4238 335.598 77.8066 335.598ZM75.4238 329.016H79.9355C79.9355 327.727 79.0371 326.809 77.748 326.809C76.4199 326.809 75.4727 327.795 75.4238 329.016Z" fill="url(#paint2_linear_2287_858)"/>
<path d="M30.5156 248.73V249.73H26.3906V251.542H29.9375V252.527H26.3906V254.48C28.3984 254.472 29.6484 254.402 31.1406 254.105L31.2656 255.121C29.6562 255.433 28.3438 255.48 26.0938 255.48H25.2188V248.73H30.5156ZM36.3594 256.98V261.621H35.1562V257.996H26.9375V256.98H36.3594ZM36.3594 247.746V256.324H35.1875V247.746H36.3594ZM33.6562 248.042V256.23H32.4688V252.417H30.5938V251.386H32.4688V248.042H33.6562ZM45.3125 249.777C45.3125 252.152 48.0312 254.277 50.4531 254.73L49.8906 255.761C47.7969 255.277 45.5859 253.785 44.6875 251.73C43.7891 253.777 41.5859 255.269 39.4844 255.761L38.9219 254.73C41.3281 254.261 44.0312 252.167 44.0312 249.777V248.714H45.3125V249.777ZM51.1094 258.714V259.73H38.3906V258.714H51.1094ZM63.4688 255.246V256.246H53.8594V248.933H63.3125V249.964H55.1094V252.027H63.0156V253.011H55.1094V255.246H63.4688ZM64.9375 258.792V259.808H52.2188V258.792H64.9375ZM78.75 254.183V255.152H66.0312V254.183H78.75ZM77.1562 256.261V259.214H68.8125V260.542H77.6094V261.433H67.5781V258.371H75.9375V257.183H67.5625V256.261H77.1562ZM77.1094 248.152V251.027H68.9062V252.246H77.3594V253.136H67.6875V250.183H75.875V249.042H67.6406V248.152H77.1094ZM95.3438 247.73V261.652H94.1094V247.73H95.3438ZM85.9219 248.917V252.589H90.0625V248.917H91.2656V258.292H84.7031V248.917H85.9219ZM85.9219 257.261H90.0625V253.574H85.9219V257.261ZM105.656 249.058V250.058H104.234V254.652C104.945 254.605 105.648 254.542 106.312 254.464L106.406 255.386C103.594 255.824 100.312 255.886 97.9062 255.886L97.7656 254.871L99.5625 254.839V250.058H98.1562V249.058H105.656ZM108.578 247.746V251.964H110.672V253.011H108.578V257.964H107.359V247.746H108.578ZM109.219 260.292V261.324H99.8906V256.996H101.094V260.292H109.219ZM100.766 254.824C101.508 254.8 102.273 254.777 103.031 254.73V250.058H100.766V254.824ZM116.375 250.292C116.375 252.105 117.766 253.824 119.797 254.527L119.156 255.496C117.586 254.933 116.375 253.769 115.781 252.339C115.18 253.941 113.898 255.222 112.25 255.824L111.609 254.855C113.656 254.121 115.141 252.261 115.141 250.308V249.699H112V248.699H119.484V249.699H116.375V250.292ZM123.062 256.792V261.621H121.828V257.808H113.719V256.792H123.062ZM123.062 247.73V256.058H121.828V252.402H119.047V251.371H121.828V247.73H123.062ZM131.703 248.636C134.609 248.636 136.781 250.152 136.781 252.449C136.781 254.761 134.609 256.277 131.703 256.261C128.797 256.277 126.625 254.761 126.625 252.449C126.625 250.152 128.797 248.636 131.703 248.636ZM131.703 249.636C129.469 249.621 127.781 250.792 127.797 252.449C127.781 254.136 129.469 255.261 131.703 255.261C133.922 255.261 135.594 254.136 135.594 252.449C135.594 250.792 133.922 249.621 131.703 249.636ZM138.094 258.746V259.777H125.375V258.746H138.094ZM151.922 258.871V259.902H139.203V258.871H144.922V256.246H140.797V251.964H149.109V249.777H140.766V248.761H150.312V252.964H142.016V255.23H150.641V256.246H146.125V258.871H151.922ZM169.75 255.089V256.089H164.094V258.808H162.875V256.089H157.031V255.089H169.75ZM168.328 260.292V261.324H158.656V257.527H159.875V260.292H168.328ZM159.953 248.183V249.964H166.828V248.183H168.047V253.73H158.734V248.183H159.953ZM159.953 252.73H166.828V250.902H159.953V252.73ZM175.609 249.964C175.609 251.886 177.031 253.652 179.047 254.339L178.375 255.324C176.828 254.753 175.625 253.566 175.031 252.089C174.445 253.73 173.195 255.011 171.562 255.652L170.891 254.636C173 253.886 174.391 252.058 174.406 249.917V248.449H175.609V249.964ZM182.391 256.714V261.621H181.156V257.699H173.047V256.714H182.391ZM182.391 247.73V255.949H181.156V251.683H178.062V250.652H181.156V247.73H182.391ZM195.453 247.73V253.464H197.781V254.48H195.453V261.621H194.234V247.73H195.453ZM192.891 249.964V250.98H184.625V249.964H188.203V247.902H189.422V249.964H192.891ZM188.828 252.136C190.797 252.136 192.219 253.449 192.234 255.324C192.219 257.199 190.797 258.511 188.828 258.511C186.844 258.511 185.406 257.199 185.422 255.324C185.406 253.449 186.844 252.136 188.828 252.136ZM188.828 253.167C187.531 253.167 186.578 254.074 186.594 255.324C186.578 256.589 187.531 257.48 188.828 257.464C190.109 257.48 191.047 256.589 191.062 255.324C191.047 254.074 190.109 253.167 188.828 253.167ZM209.672 249.136V250.527C209.656 252.23 209.656 254.136 209.156 256.933L207.906 256.792C208.438 254.136 208.438 252.183 208.438 250.527V250.152H199.875V249.136H209.672ZM211.188 258.636V259.652H198.531V258.636H203.5V253.667H204.703V258.636H211.188ZM214.641 259.308L213.422 263.558H212.266L213.125 259.308H214.641ZM231.219 247.73V253.23H233.547V254.261H231.219V261.652H230V247.73H231.219ZM227.562 249.089V250.105H222.297V257.136C224.812 257.136 226.594 257.019 228.656 256.636L228.812 257.699C226.641 258.089 224.812 258.167 222.172 258.167H221.078V249.089H227.562ZM247.219 249.839V250.855H245.156V252.792H247.219V253.824H245.156V255.98H243.938V247.73H245.156V249.839H247.219ZM238.203 248.574C240.312 248.558 241.844 249.902 241.859 251.839C241.844 253.777 240.312 255.089 238.203 255.105C236.094 255.089 234.547 253.777 234.562 251.839C234.547 249.902 236.094 248.558 238.203 248.574ZM238.203 249.621C236.797 249.605 235.75 250.527 235.766 251.839C235.75 253.152 236.797 254.058 238.203 254.074C239.625 254.058 240.656 253.152 240.656 251.839C240.656 250.527 239.625 249.605 238.203 249.621ZM240.703 256.402C243.531 256.417 245.281 257.355 245.281 259.011C245.281 260.636 243.531 261.589 240.703 261.589C237.859 261.589 236.094 260.636 236.094 259.011C236.094 257.355 237.859 256.417 240.703 256.402ZM240.703 257.402C238.609 257.402 237.312 257.996 237.328 259.011C237.312 260.011 238.609 260.605 240.703 260.605C242.812 260.605 244.094 260.011 244.094 259.011C244.094 257.996 242.812 257.402 240.703 257.402ZM258.984 247.746V252.324H261.078V253.355H258.984V258.152H257.766V247.746H258.984ZM256.438 249.449V250.449H248.156V249.449H251.688V247.746H252.906V249.449H256.438ZM252.297 251.214C254.281 251.214 255.625 252.23 255.641 253.808C255.625 255.371 254.281 256.371 252.297 256.371C250.297 256.371 248.938 255.371 248.953 253.808C248.938 252.23 250.297 251.214 252.297 251.214ZM252.297 252.183C250.984 252.183 250.109 252.824 250.125 253.808C250.109 254.792 250.984 255.417 252.297 255.402C253.594 255.417 254.469 254.792 254.484 253.808C254.469 252.824 253.594 252.183 252.297 252.183ZM259.625 260.292V261.324H250.297V257.324H251.5V260.292H259.625ZM277.484 247.73V256.011H276.25V252.371H273.453V251.355H276.25V247.73H277.484ZM272.875 256.449C275.766 256.449 277.531 257.386 277.531 259.027C277.531 260.667 275.766 261.605 272.875 261.621C269.984 261.605 268.219 260.667 268.219 259.027C268.219 257.386 269.984 256.449 272.875 256.449ZM272.875 257.402C270.75 257.402 269.422 258.011 269.438 259.027C269.422 260.027 270.75 260.636 272.875 260.636C275 260.636 276.312 260.027 276.312 259.027C276.312 258.011 275 257.402 272.875 257.402ZM270.797 250.277C270.797 252.089 272.188 253.808 274.219 254.511L273.578 255.496C272.016 254.933 270.805 253.769 270.219 252.324C269.609 253.957 268.32 255.261 266.672 255.886L266.031 254.902C268.094 254.152 269.562 252.277 269.562 250.292V249.777H266.422V248.746H273.906V249.777H270.797V250.277ZM292.516 258.824V259.839H279.797V258.824H285.516V255.824H281.297V248.714H282.531V251.23H289.75V248.714H290.953V255.824H286.719V258.824H292.516ZM282.531 254.824H289.75V252.23H282.531V254.824ZM306.328 254.183V255.152H293.609V254.183H306.328ZM304.734 256.261V259.214H296.391V260.542H305.188V261.433H295.156V258.371H303.516V257.183H295.141V256.261H304.734ZM304.688 248.152V251.027H296.484V252.246H304.938V253.136H295.266V250.183H303.453V249.042H295.219V248.152H304.688ZM37.2188 281.105V282.105H24.5469V281.105H30.2656V279.73H26.2344V274.136H35.6406V275.136H27.4688V276.433H35.2656V277.371H27.4688V278.746H35.7188V279.73H31.4844V281.105H37.2188ZM30.8906 283.152C33.9375 283.136 35.6562 283.917 35.6719 285.371C35.6562 286.824 33.9375 287.589 30.8906 287.589C27.8125 287.589 26.0938 286.824 26.0938 285.371C26.0938 283.917 27.8125 283.136 30.8906 283.152ZM30.8906 284.074C28.5938 284.074 27.3125 284.542 27.3281 285.371C27.3125 286.214 28.5938 286.652 30.8906 286.636C33.1562 286.652 34.4375 286.214 34.4375 285.371C34.4375 284.542 33.1562 284.074 30.8906 284.074ZM49.25 273.73V277.292H51.3438V278.339H49.25V281.808H48.0312V273.73H49.25ZM41.6875 282.417V283.902H48.0312V282.417H49.25V287.433H40.4688V282.417H41.6875ZM41.6875 286.449H48.0312V284.871H41.6875V286.449ZM46.7031 275.167V276.183H38.4219V275.167H41.9531V273.605H43.1719V275.167H46.7031ZM42.5625 276.824C44.5625 276.824 45.8906 277.777 45.9062 279.261C45.8906 280.746 44.5625 281.699 42.5625 281.699C40.5469 281.699 39.2031 280.746 39.2188 279.261C39.2031 277.777 40.5469 276.824 42.5625 276.824ZM42.5625 277.777C41.25 277.761 40.375 278.371 40.3906 279.261C40.375 280.167 41.25 280.761 42.5625 280.761C43.8594 280.761 44.7344 280.167 44.75 279.261C44.7344 278.371 43.8594 277.761 42.5625 277.777ZM59.1562 276.136V277.136H52.1875V276.136H55.0781V274.152H56.2969V276.136H59.1562ZM55.6719 278.074C57.4219 278.074 58.6719 279.386 58.6875 281.23C58.6719 283.089 57.4219 284.417 55.6719 284.417C53.9375 284.417 52.6875 283.089 52.6875 281.23C52.6875 279.386 53.9375 278.074 55.6719 278.074ZM55.6719 279.105C54.5781 279.121 53.7812 280.011 53.7812 281.23C53.7812 282.464 54.5781 283.355 55.6719 283.339C56.7812 283.355 57.5938 282.464 57.5938 281.23C57.5938 280.011 56.7812 279.121 55.6719 279.105ZM64.0469 273.73V287.621H62.875V280.605H61.0312V286.933H59.875V274.074H61.0312V279.589H62.875V273.73H64.0469ZM74 274.246C76.0781 274.261 77.5938 275.511 77.5938 277.324C77.5938 279.136 76.0781 280.386 74 280.386C71.8906 280.386 70.3906 279.136 70.3906 277.324C70.3906 275.511 71.8906 274.261 74 274.246ZM74 275.277C72.6094 275.277 71.5781 276.121 71.5938 277.324C71.5781 278.542 72.6094 279.386 74 279.386C75.375 279.386 76.4062 278.542 76.4062 277.324C76.4062 276.121 75.375 275.277 74 275.277ZM81.5312 273.73V280.871H80.3125V273.73H81.5312ZM81.5312 281.542V284.886H73.7344V286.449H82.0312V287.433H72.5312V283.964H80.3125V282.527H72.5V281.542H81.5312ZM88.5312 275.98C88.5312 277.871 89.9688 279.605 91.9844 280.292L91.3125 281.261C89.7734 280.699 88.5625 279.55 87.9531 278.105C87.3594 279.738 86.125 281.027 84.5 281.652L83.8438 280.667C85.9219 279.886 87.3125 278.027 87.3281 275.886V274.449H88.5312V275.98ZM94.75 273.73V277.355H96.8438V278.386H94.75V282.183H93.5312V273.73H94.75ZM90.2969 282.542C93.1562 282.542 94.875 283.464 94.875 285.058C94.875 286.683 93.1562 287.589 90.2969 287.589C87.4375 287.589 85.6875 286.683 85.6875 285.058C85.6875 283.464 87.4375 282.542 90.2969 282.542ZM90.2969 283.527C88.2031 283.527 86.9062 284.105 86.9219 285.058C86.9062 286.042 88.2031 286.605 90.2969 286.621C92.4062 286.605 93.6875 286.042 93.6875 285.058C93.6875 284.105 92.4062 283.527 90.2969 283.527ZM109.625 273.73V287.621H108.438V273.73H109.625ZM106.828 274.027V286.917H105.656V280.167H103.875C103.742 282.871 102.594 284.558 100.875 284.558C99.0625 284.558 97.8906 282.683 97.8906 279.73C97.8906 276.777 99.0625 274.902 100.875 274.902C102.562 274.902 103.703 276.535 103.859 279.152H105.656V274.027H106.828ZM100.875 276.058C99.75 276.058 99.0312 277.464 99.0469 279.73C99.0312 281.98 99.75 283.402 100.875 283.386C102 283.402 102.719 281.98 102.719 279.73C102.719 277.464 102 276.058 100.875 276.058ZM120.391 276.292C120.391 278.105 121.781 279.824 123.812 280.527L123.172 281.496C121.602 280.933 120.391 279.769 119.797 278.339C119.195 279.941 117.914 281.222 116.266 281.824L115.625 280.855C117.672 280.121 119.156 278.261 119.156 276.308V275.699H116.016V274.699H123.5V275.699H120.391V276.292ZM127.078 282.792V287.621H125.844V283.808H117.734V282.792H127.078ZM127.078 273.73V282.058H125.844V278.402H123.062V277.371H125.844V273.73H127.078ZM142.047 280.605V281.621H129.391V280.605H132.531V278.652C131.422 278.222 130.797 277.511 130.797 276.574C130.797 274.933 132.672 273.996 135.719 273.996C138.734 273.996 140.625 274.933 140.625 276.574C140.625 277.503 140.008 278.214 138.906 278.636V280.605H142.047ZM135.719 282.683C138.703 282.683 140.484 283.542 140.5 285.136C140.484 286.714 138.703 287.589 135.719 287.589C132.703 287.589 130.922 286.714 130.922 285.136C130.922 283.542 132.703 282.683 135.719 282.683ZM135.719 283.621C133.484 283.636 132.156 284.183 132.172 285.136C132.156 286.074 133.484 286.636 135.719 286.636C137.922 286.636 139.266 286.074 139.266 285.136C139.266 284.183 137.922 283.636 135.719 283.621ZM135.719 274.964C133.453 274.964 132.047 275.574 132.062 276.574C132.047 277.589 133.453 278.183 135.719 278.183C137.969 278.183 139.375 277.589 139.375 276.574C139.375 275.574 137.969 274.964 135.719 274.964ZM133.75 280.605H137.688V278.98C137.102 279.082 136.445 279.136 135.719 279.136C134.992 279.136 134.336 279.082 133.75 278.98V280.605ZM154.078 273.683V277.058H156.188V278.074H154.078V281.371H152.859V273.683H154.078ZM154.078 282.089V285.167H146.453V286.527H154.594V287.464H145.25V284.261H152.859V283.011H145.219V282.089H154.078ZM151.531 274.996V275.98H143.25V274.996H146.781V273.589H148V274.996H151.531ZM147.391 276.605C149.406 276.605 150.719 277.48 150.734 278.886C150.719 280.292 149.406 281.167 147.391 281.167C145.359 281.167 144.031 280.292 144.047 278.886C144.031 277.48 145.359 276.605 147.391 276.605ZM147.391 277.511C146.078 277.511 145.203 278.058 145.219 278.886C145.203 279.73 146.078 280.246 147.391 280.246C148.703 280.246 149.562 279.73 149.578 278.886C149.562 278.058 148.703 277.511 147.391 277.511ZM168.031 275.027C168.031 276.98 170.594 278.683 173.094 279.027L172.594 280.027C170.438 279.667 168.305 278.472 167.406 276.761C166.516 278.48 164.375 279.667 162.219 280.027L161.719 279.027C164.219 278.683 166.766 277.011 166.766 275.027V274.23H168.031V275.027ZM173.719 281.558V282.589H167.969V287.621H166.766V282.589H161.062V281.558H173.719ZM183.609 283.058C183.609 284.285 184.266 285.589 185.594 286.339C186.906 285.519 187.609 284.136 187.609 283.058V282.292H188.812V283.058C188.812 284.48 189.859 285.917 191.641 286.527L191.031 287.433C189.641 286.941 188.664 285.972 188.188 284.808C187.758 285.933 186.906 286.996 185.625 287.542C184.273 287.027 183.414 286.003 183 284.839C182.508 285.964 181.547 286.933 180.219 287.433L179.594 286.527C181.344 285.871 182.406 284.386 182.422 283.058V282.292H183.609V283.058ZM190.375 273.746V281.683H189.156V273.746H190.375ZM182.875 274.558C184.984 274.558 186.516 275.871 186.516 277.808C186.516 279.714 184.984 281.027 182.875 281.027C180.766 281.027 179.234 279.714 179.234 277.808C179.234 275.871 180.766 274.558 182.875 274.558ZM182.875 275.605C181.453 275.589 180.422 276.511 180.438 277.808C180.422 279.089 181.453 279.996 182.875 280.011C184.281 279.996 185.312 279.089 185.312 277.808C185.312 276.511 184.281 275.589 182.875 275.605ZM203.969 277.949V278.933H194.453V274.246H195.672V277.949H203.969ZM205.438 280.824V281.824H192.719V280.824H205.438ZM204.047 286.261V287.277H194.375V283.246H195.594V286.261H204.047ZM222.047 273.73V282.152H220.828V273.73H222.047ZM222.047 282.902V287.433H213.016V282.902H222.047ZM214.219 283.886V286.433H220.844V283.886H214.219ZM219.297 275.23V276.23H210.781V275.23H214.422V273.621H215.656V275.23H219.297ZM215.047 276.917C217.094 276.917 218.453 277.886 218.453 279.386C218.453 280.902 217.094 281.871 215.047 281.871C212.984 281.871 211.625 280.902 211.641 279.386C211.625 277.886 212.984 276.917 215.047 276.917ZM215.047 277.855C213.688 277.855 212.797 278.464 212.812 279.386C212.797 280.339 213.688 280.917 215.047 280.933C216.391 280.917 217.281 280.339 217.281 279.386C217.281 278.464 216.391 277.855 215.047 277.855ZM230.734 273.98C233.828 273.98 235.641 274.824 235.641 276.371C235.641 277.949 233.828 278.792 230.734 278.808C227.641 278.792 225.812 277.949 225.812 276.371C225.812 274.824 227.641 273.98 230.734 273.98ZM230.734 274.902C228.422 274.902 227.078 275.464 227.094 276.371C227.078 277.339 228.422 277.871 230.734 277.871C233.031 277.871 234.391 277.339 234.391 276.371C234.391 275.464 233.031 274.902 230.734 274.902ZM237.062 279.746V280.746H224.406V279.746H237.062ZM235.438 281.949V285.058H227.188V286.496H235.859V287.464H225.969V284.152H234.234V282.886H225.938V281.949H235.438ZM253.734 273.73V287.621H252.5V273.73H253.734ZM249.625 275.246C249.609 279.246 247.75 282.777 243.094 285.011L242.422 284.011C246.18 282.23 248.094 279.566 248.375 276.246H243.062V275.246H249.625ZM268.781 280.636V281.621H256.062V280.636H268.781ZM259 282.527V283.917H265.938V282.527H267.141V287.433H257.766V282.527H259ZM259 286.449H265.938V284.871H259V286.449ZM267.141 274.074V277.246H258.938V278.558H267.438V279.542H257.719V276.308H265.906V275.011H257.672V274.074H267.141ZM281.359 273.73V287.621H280.141V273.73H281.359ZM272.016 275.105V282.98C274.133 282.972 276.328 282.8 278.656 282.308L278.828 283.355C276.359 283.871 274.156 284.042 271.938 284.042H270.812V275.105H272.016ZM294.484 273.73V279.23H296.812V280.261H294.484V287.652H293.266V273.73H294.484ZM290.828 275.089V276.105H285.562V283.136C288.078 283.136 289.859 283.019 291.922 282.636L292.078 283.699C289.906 284.089 288.078 284.167 285.438 284.167H284.344V275.089H290.828ZM299.031 286.449C298.484 286.449 298.016 285.996 298.031 285.433C298.016 284.886 298.484 284.433 299.031 284.433C299.578 284.433 300.031 284.886 300.031 285.433C300.031 285.996 299.578 286.449 299.031 286.449Z" fill="black"/>
<path d="M35.9375 362.034C35.0625 362.034 34.3438 361.315 34.3438 360.424C34.3438 359.549 35.0625 358.831 35.9375 358.831C36.8281 358.831 37.5469 359.549 37.5469 360.424C37.5469 361.315 36.8281 362.034 35.9375 362.034ZM55.5781 354.284C55.5625 356.143 58.0469 357.721 60.4688 358.081L60.0156 359.049C57.8438 358.682 55.7344 357.526 54.8906 355.846C54.0469 357.526 51.9297 358.682 49.7969 359.049L49.3125 358.081C51.7188 357.721 54.2031 356.143 54.2031 354.284V354.19H49.75V353.19H60.0156V354.19H55.5781V354.284ZM61.2188 360.237V361.252H55.4688V366.206H54.2656V361.252H48.5625V360.237H61.2188ZM67.0938 354.956C67.0938 356.768 68.4531 358.393 70.5 359.065L69.9219 360.034C68.3203 359.51 67.1094 358.401 66.5156 357.002C65.9141 358.596 64.6328 359.838 62.9688 360.44L62.3438 359.456C64.4219 358.752 65.875 356.956 65.8906 354.956V354.362H62.7188V353.346H70.2188V354.362H67.0938V354.956ZM73.25 352.315V355.862H75.3438V356.893H73.25V360.706H72.0312V352.315H73.25ZM68.7969 361.081C71.6562 361.081 73.375 362.018 73.375 363.612C73.375 365.237 71.6562 366.174 68.7969 366.174C65.9375 366.174 64.1875 365.237 64.1875 363.612C64.1875 362.018 65.9375 361.081 68.7969 361.081ZM68.7969 362.065C66.7031 362.065 65.4062 362.643 65.4219 363.612C65.4062 364.612 66.7031 365.19 68.7969 365.19C70.9062 365.19 72.1875 364.612 72.1875 363.612C72.1875 362.643 70.9062 362.065 68.7969 362.065ZM83.9219 353.862V354.581C83.9062 355.674 83.9062 357.518 83.5156 360.096L82.2812 359.987C82.6562 357.659 82.6875 355.971 82.6875 354.862H76.8594V353.862H83.9219ZM80.2812 357.831V362.049C81.8203 361.995 83.3984 361.893 84.8438 361.721L84.9062 362.643C81.9844 363.096 78.7188 363.159 76.2344 363.143L76.0781 362.127C76.9922 362.12 78.0078 362.112 79.0781 362.081V357.831H80.2812ZM86.9375 352.315V358.127H89.1875V359.19H86.9375V366.206H85.7188V352.315H86.9375ZM101.766 353.393V354.127C101.75 355.034 101.75 356.424 101.406 358.237L100.172 358.143C100.508 356.479 100.539 355.299 100.562 354.424H94.8438V353.393H101.766ZM98.1875 356.471V359.456C99.7266 359.393 101.32 359.284 102.766 359.081L102.844 359.987C99.9375 360.487 96.5781 360.549 94.1094 360.549L93.9844 359.534C94.8828 359.526 95.8984 359.518 96.9688 359.487V356.471H98.1875ZM104.953 352.315V356.846H106.984V357.893H104.953V362.768H103.703V352.315H104.953ZM105.406 364.877V365.909H96.125V361.831H97.3594V364.877H105.406ZM119.406 352.315V360.456H118.172V356.831H115.359V355.799H118.172V352.315H119.406ZM119.406 361.143V366.018H110.328V361.143H119.406ZM111.547 362.127V365.018H118.203V362.127H111.547ZM112.719 354.784C112.719 356.581 114.109 358.315 116.141 359.034L115.5 360.002C113.93 359.44 112.719 358.268 112.125 356.831C111.523 358.432 110.242 359.713 108.594 360.315L107.953 359.346C110 358.612 111.484 356.768 111.484 354.784V354.237H108.344V353.221H115.828V354.237H112.719V354.784ZM138.438 359.674V360.674H132.781V363.393H131.562V360.674H125.719V359.674H138.438ZM137.016 364.877V365.909H127.344V362.112H128.562V364.877H137.016ZM128.641 352.768V354.549H135.516V352.768H136.734V358.315H127.422V352.768H128.641ZM128.641 357.315H135.516V355.487H128.641V357.315ZM144.297 354.549C144.297 356.471 145.719 358.237 147.734 358.924L147.062 359.909C145.516 359.338 144.312 358.151 143.719 356.674C143.133 358.315 141.883 359.596 140.25 360.237L139.578 359.221C141.688 358.471 143.078 356.643 143.094 354.502V353.034H144.297V354.549ZM151.078 361.299V366.206H149.844V362.284H141.734V361.299H151.078ZM151.078 352.315V360.534H149.844V356.268H146.75V355.237H149.844V352.315H151.078ZM155.672 363.893L154.453 368.143H153.297L154.156 363.893H155.672ZM172.25 352.315V357.815H174.578V358.846H172.25V366.237H171.031V352.315H172.25ZM168.594 353.674V354.69H163.328V361.721C165.844 361.721 167.625 361.604 169.688 361.221L169.844 362.284C167.672 362.674 165.844 362.752 163.203 362.752H162.109V353.674H168.594ZM188.25 354.424V355.44H186.188V357.377H188.25V358.409H186.188V360.565H184.969V352.315H186.188V354.424H188.25ZM179.234 353.159C181.344 353.143 182.875 354.487 182.891 356.424C182.875 358.362 181.344 359.674 179.234 359.69C177.125 359.674 175.578 358.362 175.594 356.424C175.578 354.487 177.125 353.143 179.234 353.159ZM179.234 354.206C177.828 354.19 176.781 355.112 176.797 356.424C176.781 357.737 177.828 358.643 179.234 358.659C180.656 358.643 181.688 357.737 181.688 356.424C181.688 355.112 180.656 354.19 179.234 354.206ZM181.734 360.987C184.562 361.002 186.312 361.94 186.312 363.596C186.312 365.221 184.562 366.174 181.734 366.174C178.891 366.174 177.125 365.221 177.125 363.596C177.125 361.94 178.891 361.002 181.734 360.987ZM181.734 361.987C179.641 361.987 178.344 362.581 178.359 363.596C178.344 364.596 179.641 365.19 181.734 365.19C183.844 365.19 185.125 364.596 185.125 363.596C185.125 362.581 183.844 361.987 181.734 361.987ZM200.016 352.331V356.909H202.109V357.94H200.016V362.737H198.797V352.331H200.016ZM197.469 354.034V355.034H189.188V354.034H192.719V352.331H193.938V354.034H197.469ZM193.328 355.799C195.312 355.799 196.656 356.815 196.672 358.393C196.656 359.956 195.312 360.956 193.328 360.956C191.328 360.956 189.969 359.956 189.984 358.393C189.969 356.815 191.328 355.799 193.328 355.799ZM193.328 356.768C192.016 356.768 191.141 357.409 191.156 358.393C191.141 359.377 192.016 360.002 193.328 359.987C194.625 360.002 195.5 359.377 195.516 358.393C195.5 357.409 194.625 356.768 193.328 356.768ZM200.656 364.877V365.909H191.328V361.909H192.531V364.877H200.656ZM212.953 353.315V354.315H208.828V356.127H212.375V357.112H208.828V359.065C210.836 359.057 212.086 358.987 213.578 358.69L213.703 359.706C212.094 360.018 210.781 360.065 208.531 360.065H207.656V353.315H212.953ZM218.797 361.565V366.206H217.594V362.581H209.375V361.565H218.797ZM218.797 352.331V360.909H217.625V352.331H218.797ZM216.094 352.627V360.815H214.906V357.002H213.031V355.971H214.906V352.627H216.094ZM227.75 354.362C227.75 356.737 230.469 358.862 232.891 359.315L232.328 360.346C230.234 359.862 228.023 358.37 227.125 356.315C226.227 358.362 224.023 359.854 221.922 360.346L221.359 359.315C223.766 358.846 226.469 356.752 226.469 354.362V353.299H227.75V354.362ZM233.547 363.299V364.315H220.828V363.299H233.547ZM245.906 359.831V360.831H236.297V353.518H245.75V354.549H237.547V356.612H245.453V357.596H237.547V359.831H245.906ZM247.375 363.377V364.393H234.656V363.377H247.375ZM263.953 352.315V366.237H262.719V352.315H263.953ZM254.531 353.502V357.174H258.672V353.502H259.875V362.877H253.312V353.502H254.531ZM254.531 361.846H258.672V358.159H254.531V361.846ZM277.484 353.721V355.268C277.484 357.049 277.484 358.846 276.984 361.424L275.781 361.284C276.281 358.831 276.281 357.002 276.281 355.268V354.737H267.656V353.721H277.484ZM278.984 363.221V364.237H266.328V363.221H269.469V358.643H270.688V363.221H272.938V358.643H274.141V363.221H278.984ZM35.9375 388.034C35.0625 388.034 34.3438 387.315 34.3438 386.424C34.3438 385.549 35.0625 384.831 35.9375 384.831C36.8281 384.831 37.5469 385.549 37.5469 386.424C37.5469 387.315 36.8281 388.034 35.9375 388.034ZM60.0781 378.315V386.596H58.8438V382.956H56.0469V381.94H58.8438V378.315H60.0781ZM55.4688 387.034C58.3594 387.034 60.125 387.971 60.125 389.612C60.125 391.252 58.3594 392.19 55.4688 392.206C52.5781 392.19 50.8125 391.252 50.8125 389.612C50.8125 387.971 52.5781 387.034 55.4688 387.034ZM55.4688 387.987C53.3438 387.987 52.0156 388.596 52.0312 389.612C52.0156 390.612 53.3438 391.221 55.4688 391.221C57.5938 391.221 58.9062 390.612 58.9062 389.612C58.9062 388.596 57.5938 387.987 55.4688 387.987ZM53.3906 380.862C53.3906 382.674 54.7812 384.393 56.8125 385.096L56.1719 386.081C54.6094 385.518 53.3984 384.354 52.8125 382.909C52.2031 384.542 50.9141 385.846 49.2656 386.471L48.625 385.487C50.6875 384.737 52.1562 382.862 52.1562 380.877V380.362H49.0156V379.331H56.5V380.362H53.3906V380.862ZM75.1094 389.409V390.424H62.3906V389.409H68.1094V386.409H63.8906V379.299H65.125V381.815H72.3438V379.299H73.5469V386.409H69.3125V389.409H75.1094ZM65.125 385.409H72.3438V382.815H65.125V385.409ZM92.8906 385.69V386.69H80.2188V385.69H85.9375V384.315H81.9062V378.721H91.3125V379.721H83.1406V381.018H90.9375V381.956H83.1406V383.331H91.3906V384.315H87.1562V385.69H92.8906ZM86.5625 387.737C89.6094 387.721 91.3281 388.502 91.3438 389.956C91.3281 391.409 89.6094 392.174 86.5625 392.174C83.4844 392.174 81.7656 391.409 81.7656 389.956C81.7656 388.502 83.4844 387.721 86.5625 387.737ZM86.5625 388.659C84.2656 388.659 82.9844 389.127 83 389.956C82.9844 390.799 84.2656 391.237 86.5625 391.221C88.8281 391.237 90.1094 390.799 90.1094 389.956C90.1094 389.127 88.8281 388.659 86.5625 388.659ZM104.922 378.315V381.877H107.016V382.924H104.922V386.393H103.703V378.315H104.922ZM97.3594 387.002V388.487H103.703V387.002H104.922V392.018H96.1406V387.002H97.3594ZM97.3594 391.034H103.703V389.456H97.3594V391.034ZM102.375 379.752V380.768H94.0938V379.752H97.625V378.19H98.8438V379.752H102.375ZM98.2344 381.409C100.234 381.409 101.562 382.362 101.578 383.846C101.562 385.331 100.234 386.284 98.2344 386.284C96.2188 386.284 94.875 385.331 94.8906 383.846C94.875 382.362 96.2188 381.409 98.2344 381.409ZM98.2344 382.362C96.9219 382.346 96.0469 382.956 96.0625 383.846C96.0469 384.752 96.9219 385.346 98.2344 385.346C99.5312 385.346 100.406 384.752 100.422 383.846C100.406 382.956 99.5312 382.346 98.2344 382.362ZM123.391 378.315V392.206H122.156V378.315H123.391ZM119.281 379.831C119.266 383.831 117.406 387.362 112.75 389.596L112.078 388.596C115.836 386.815 117.75 384.151 118.031 380.831H112.719V379.831H119.281ZM136.594 378.331V382.534H138.688V383.565H136.594V388.534H135.375V378.331H136.594ZM137.234 390.877V391.909H127.906V387.534H129.109V390.877H137.234ZM127.531 379.331V381.674H131.578V379.331H132.797V386.19H126.328V379.331H127.531ZM127.531 385.19H131.578V382.643H127.531V385.19ZM155.047 378.315V392.237H153.828V378.315H155.047ZM150.828 379.612V384.549H145.641V387.831C147.945 387.831 150 387.729 152.484 387.331L152.609 388.362C150.047 388.768 147.938 388.862 145.547 388.862H144.391V383.549H149.594V380.627H144.359V379.612H150.828ZM162.297 382.049C162.297 384.565 163.906 387.096 165.922 388.018L165.188 389.018C163.609 388.206 162.305 386.542 161.688 384.565C161.07 386.643 159.766 388.424 158.188 389.268L157.391 388.284C159.422 387.284 161.047 384.612 161.047 382.049V379.518H162.297V382.049ZM168.922 378.315V392.237H167.703V384.065H164.406V383.065H167.703V378.315H168.922ZM182.688 378.315V392.206H181.453V378.315H182.688ZM176.359 382.846C176.359 385.174 177.984 387.424 180.078 388.315L179.391 389.268C177.789 388.557 176.43 387.049 175.781 385.206C175.156 387.159 173.805 388.76 172.203 389.518L171.516 388.565C173.578 387.627 175.156 385.284 175.156 382.846V381.737H171.891V380.737H175.141V378.581H176.359V380.737H179.594V381.737H176.359V382.846ZM196.328 379.221V384.877H189.812V379.221H196.328ZM191.016 380.221V383.909H195.125V380.221H191.016ZM200.531 378.315V386.299H199.328V378.315H200.531ZM196.766 388.206C196.766 389.565 198.984 390.909 201.375 391.206L200.953 392.159C198.859 391.877 196.953 390.893 196.141 389.596C195.297 390.917 193.344 391.877 191.25 392.159L190.812 391.206C193.203 390.94 195.5 389.596 195.5 388.206H191.391V387.252H195.516V385.893H196.734V387.252H200.891V388.206H196.766ZM214.031 379.065V381.331H217.203V378.315H218.422V385.456H217.203V382.331H214.031V384.737H207.578V379.065H214.031ZM208.797 380.049V383.752H212.828V380.049H208.797ZM218.422 386.159V389.487H210.672V391.034H218.953V392.018H209.453V388.549H217.203V387.143H209.422V386.159H218.422ZM228.406 379.581V380.612H222.859V383.487H227.906V384.487H222.859V387.846C225.453 387.846 227.234 387.745 229.359 387.393L229.484 388.409C227.297 388.768 225.422 388.846 222.75 388.862H221.641V379.581H228.406ZM232.234 378.315V392.206H231V378.315H232.234ZM247.297 389.393V390.424H234.578V389.393H240.297V386.002H236.078V379.487H245.719V386.002H241.5V389.393H247.297ZM237.281 380.471V385.018H244.531V380.471H237.281ZM255.219 379.127V380.127H250.25V383.784C252.969 383.799 254.609 383.698 256.516 383.315L256.672 384.299C254.688 384.721 252.984 384.799 250.125 384.784H249.047V379.127H255.219ZM259.266 378.315V381.268H261.359V382.284H259.266V385.331H258.047V378.315H259.266ZM259.266 386.018V389.44H251.641V391.018H259.781V392.018H250.438V388.471H258.047V387.018H250.406V386.018H259.266ZM278.906 384.502V385.456H273.172V386.752H277.281V389.752H269.031V391.112H277.703V392.049H267.812V388.877H276.078V387.674H267.781V386.752H271.969V385.456H266.266V384.502H278.906ZM273.172 378.237V379.534H277.625V380.502H273.266C273.492 381.885 275.664 382.76 278.219 382.924L277.844 383.862C275.523 383.667 273.43 382.948 272.578 381.627C271.727 382.948 269.633 383.667 267.297 383.862L266.938 382.924C269.477 382.76 271.648 381.885 271.891 380.502H267.562V379.534H271.969V378.237H273.172ZM286.672 379.174V383.065H281.891V385.221C284.5 385.221 285.844 385.182 287.484 384.877L287.609 385.893C285.875 386.174 284.469 386.221 281.656 386.221H280.672V382.127H285.453V380.159H280.641V379.174H286.672ZM291.594 378.331V386.862H290.359V384.284H287.594V383.268H290.359V381.393H287.594V380.393H290.359V378.331H291.594ZM291.594 387.612V392.237H290.359V388.612H282.234V387.612H291.594ZM35.9375 414.034C35.0625 414.034 34.3438 413.315 34.3438 412.424C34.3438 411.549 35.0625 410.831 35.9375 410.831C36.8281 410.831 37.5469 411.549 37.5469 412.424C37.5469 413.315 36.8281 414.034 35.9375 414.034ZM53.1094 405.331C55.2969 405.331 56.8438 406.659 56.8438 408.596C56.8438 410.534 55.2969 411.862 53.1094 411.862C50.9219 411.862 49.3438 410.534 49.3594 408.596C49.3438 406.659 50.9219 405.331 53.1094 405.331ZM53.1094 406.409C51.625 406.409 50.5469 407.299 50.5625 408.596C50.5469 409.893 51.625 410.784 53.1094 410.784C54.5781 410.784 55.6406 409.893 55.6406 408.596C55.6406 407.299 54.5781 406.409 53.1094 406.409ZM59.9531 404.315V418.237H58.7344V404.315H59.9531ZM48.6406 414.127C51.2031 414.127 54.7344 414.112 57.8125 413.659L57.9062 414.565C54.7344 415.159 51.3125 415.174 48.8125 415.174L48.6406 414.127ZM73.9062 404.331V414.69H72.6719V411.331H68.9375V410.315H72.6719V408.206H69.125C68.1484 410.401 66.0156 412.073 63.1719 412.987L62.625 412.002C65.875 410.932 68.1094 408.932 68.375 406.424H63.3125V405.409H69.7188C69.7188 406.034 69.6328 406.635 69.4844 407.206H72.6719V404.331H73.9062ZM74.2656 416.877V417.909H65.0625V413.659H66.3125V416.877H74.2656ZM92.1406 404.315V418.206H90.9531V404.315H92.1406ZM89.3438 404.612V417.502H88.1719V410.752H86.3906C86.2578 413.456 85.1094 415.143 83.3906 415.143C81.5781 415.143 80.4062 413.268 80.4062 410.315C80.4062 407.362 81.5781 405.487 83.3906 405.487C85.0781 405.487 86.2188 407.12 86.375 409.737H88.1719V404.612H89.3438ZM83.3906 406.643C82.2656 406.643 81.5469 408.049 81.5625 410.315C81.5469 412.565 82.2656 413.987 83.3906 413.971C84.5156 413.987 85.2344 412.565 85.2344 410.315C85.2344 408.049 84.5156 406.643 83.3906 406.643ZM98.1875 408.268C98.1875 410.471 99.2656 412.862 101.109 413.956L100.406 414.909C99.0703 414.096 98.1094 412.612 97.625 410.924C97.1094 412.768 96.0781 414.354 94.6875 415.206L93.9062 414.284C95.8281 413.159 97 410.69 97 408.315V405.627H98.1875V408.268ZM105.969 404.315V418.206H104.781V404.315H105.969ZM103.094 404.612V417.502H101.938V410.346H99.5781V409.299H101.938V404.612H103.094ZM119.344 404.315V418.237H118.109V404.315H119.344ZM111.953 405.393C114.016 405.409 115.5 407.284 115.5 410.237C115.5 413.19 114.016 415.065 111.953 415.065C109.875 415.065 108.406 413.19 108.406 410.237C108.406 407.284 109.875 405.409 111.953 405.393ZM111.953 406.487C110.562 406.502 109.594 407.971 109.594 410.237C109.594 412.502 110.562 413.971 111.953 413.971C113.344 413.971 114.312 412.502 114.312 410.237C114.312 407.971 113.344 406.502 111.953 406.487ZM124 415.893L122.781 420.143H121.625L122.484 415.893H124ZM131.625 404.909V406.909H135.672V404.909H136.891V410.956H130.422V404.909H131.625ZM131.625 409.956H135.672V407.862H131.625V409.956ZM140.688 404.315V407.331H142.781V408.362H140.688V411.502H139.469V404.315H140.688ZM140.688 412.159V415.518H133.062V417.049H141.203V418.049H131.859V414.581H139.469V413.143H131.828V412.159H140.688ZM156.375 415.487V416.502H143.656V415.487H147.203V412.174H144.812V411.159H146.984V406.627H144.781V405.612H155.156V406.627H152.953V411.159H155.125V412.174H152.734V415.487H156.375ZM148.203 411.159H151.75V406.627H148.203V411.159ZM148.438 415.487H151.516V412.174H148.438V415.487ZM159.766 415.893L158.547 420.143H157.391L158.25 415.893H159.766ZM178.312 415.377V416.424H165.594V415.377H178.312ZM177.094 405.721V406.737H174.891V411.596H177.062V412.596H166.75V411.596H168.922V406.737H166.719V405.721H177.094ZM170.141 411.596H173.688V406.737H170.141V411.596ZM192.141 415.456V416.487H179.422V415.456H185.141V412.831H181.016V408.549H189.328V406.362H180.984V405.346H190.531V409.549H182.234V411.815H190.859V412.831H186.344V415.456H192.141ZM202.344 404.627V412.69H201.156V408.924H199.031V407.909H201.156V404.627H202.344ZM197.359 407.299C197.359 408.815 198.375 410.456 200.141 411.19L199.5 412.127C198.195 411.581 197.281 410.542 196.812 409.346C196.32 410.698 195.352 411.862 193.969 412.471L193.312 411.502C195.125 410.737 196.172 408.956 196.172 407.299V406.471H193.578V405.456H199.812V406.471H197.359V407.299ZM205.047 404.315V412.815H203.875V404.315H205.047ZM205.047 413.424V418.206H203.844V414.424H195.688V413.424H205.047ZM218.328 411.831V412.831H208.719V405.518H218.172V406.549H209.969V408.612H217.875V409.596H209.969V411.831H218.328ZM219.797 415.377V416.393H207.078V415.377H219.797ZM236.406 404.315V418.206H235.172V404.315H236.406ZM232.297 405.831C232.281 409.831 230.422 413.362 225.766 415.596L225.094 414.596C228.852 412.815 230.766 410.151 231.047 406.831H225.734V405.831H232.297ZM249.609 404.331V408.534H251.703V409.565H249.609V414.534H248.391V404.331H249.609ZM250.25 416.877V417.909H240.922V413.534H242.125V416.877H250.25ZM240.547 405.331V407.674H244.594V405.331H245.812V412.19H239.344V405.331H240.547ZM240.547 411.19H244.594V408.643H240.547V411.19ZM268.469 404.315V418.206H267.297V404.315H268.469ZM265.656 404.659V417.487H264.5V410.331H262.156V409.331H264.5V404.659H265.656ZM260.672 408.284C260.672 410.69 261.75 413.081 263.672 414.19L262.922 415.096C261.555 414.276 260.586 412.776 260.109 411.002C259.602 412.917 258.594 414.549 257.203 415.424L256.422 414.502C258.359 413.346 259.484 410.815 259.484 408.284V406.971H256.812V405.956H263.219V406.971H260.672V408.284ZM275.125 406.893C275.125 408.737 276.484 410.424 278.547 411.143L277.922 412.096C276.336 411.534 275.125 410.393 274.531 408.956C273.938 410.534 272.664 411.76 271.031 412.362L270.375 411.409C272.453 410.674 273.906 408.877 273.922 406.893V406.299H270.75V405.299H278.25V406.299H275.125V406.893ZM281.281 404.315V407.987H283.375V409.034H281.281V412.69H280.062V404.315H281.281ZM281.281 413.424V418.206H280.062V414.424H272.188V413.424H281.281ZM296.906 410.19V411.19H291.172V412.565H295.281V415.674H287.031V417.081H295.703V418.049H285.812V414.752H294.078V413.518H285.781V412.565H289.953V411.19H284.25V410.19H296.906ZM295.266 404.784V409.018H285.891V404.784H295.266ZM287.109 405.768V408.034H294.047V405.768H287.109Z" fill="black"/>
<path d="M32.8672 117.388C32.75 116.275 31.8516 115.611 30.4258 115.611C28.9414 115.611 28.1211 116.294 28.1016 117.232C28.082 118.247 29.1562 118.716 30.3672 118.99L31.6367 119.302C34.0586 119.849 35.875 121.079 35.875 123.443C35.875 126.04 33.8438 127.681 30.4062 127.681C26.9883 127.681 24.8008 126.099 24.7227 123.072H27.5742C27.6719 124.497 28.8047 125.22 30.3672 125.22C31.9102 125.22 32.9062 124.497 32.9062 123.443C32.9062 122.486 32.0273 122.036 30.4844 121.646L28.9414 121.275C26.5586 120.689 25.0938 119.497 25.0938 117.427C25.0938 114.849 27.3594 113.15 30.4453 113.15C33.5703 113.15 35.6406 114.888 35.6797 117.388H32.8672ZM43.3164 116.88V119.048H41.3242V124.224C41.3242 125.064 41.7344 125.279 42.3203 125.298C42.6133 125.298 43.1211 125.279 43.4727 125.24V127.525C43.1602 127.583 42.6523 127.622 41.9297 127.622C39.8398 127.622 38.4141 126.685 38.4336 124.634V119.048H36.9688V116.88H38.4336V114.341H41.3242V116.88H43.3164ZM44.625 124.517C44.625 122.154 46.5391 121.372 48.5703 121.255C49.332 121.206 50.7578 121.138 51.207 121.119V120.259C51.1875 119.38 50.582 118.853 49.5078 118.853C48.5312 118.853 47.9062 119.302 47.75 120.025H44.9961C45.1719 118.189 46.7734 116.744 49.5859 116.744C51.8906 116.744 54.0781 117.779 54.0781 120.337V127.486H51.3438V126.021H51.2656C50.7383 126.997 49.7422 127.681 48.1602 127.681C46.1289 127.681 44.625 126.626 44.625 124.517ZM47.3984 124.439C47.3984 125.259 48.0625 125.689 48.9805 125.689C50.2891 125.689 51.2266 124.81 51.207 123.697V122.915C50.7676 122.935 49.5371 123.003 49.0391 123.052C48.043 123.15 47.3984 123.619 47.3984 124.439ZM61.0508 131.685C58.1211 131.685 56.3242 130.376 56.1484 128.365H59C59.1562 129.204 59.957 129.595 61.1094 129.595C62.457 129.595 63.3555 129.029 63.3555 127.544V125.611H63.2188C62.8281 126.47 61.8906 127.329 60.1914 127.329C57.7891 127.329 55.875 125.65 55.875 122.115C55.875 118.521 57.8477 116.744 60.1914 116.744C61.9688 116.744 62.8281 117.798 63.2188 118.658H63.3359V116.88H66.207V127.603C66.207 130.298 64.0586 131.685 61.0508 131.685ZM61.0898 125.161C62.5352 125.161 63.3555 124.029 63.3555 122.154C63.3555 120.259 62.5352 119.048 61.0898 119.048C59.625 119.048 58.8438 120.318 58.8438 122.154C58.8438 123.99 59.625 125.161 61.0898 125.161ZM73.2578 127.701C70.0156 127.701 68.0234 125.591 68.0234 122.232C68.0234 118.951 70.0352 116.744 73.1406 116.744C75.9336 116.744 78.1211 118.501 78.1211 122.115V122.935H70.875C70.875 124.536 71.832 125.533 73.3164 125.533C74.293 125.533 74.9961 125.103 75.2891 124.458H78.043C77.6328 126.411 75.875 127.701 73.2578 127.701ZM70.875 121.119H75.3867C75.3867 119.829 74.4883 118.911 73.1992 118.911C71.8711 118.911 70.9238 119.898 70.875 121.119Z" fill="white"/>
<path d="M25.0938 149.638V139.74H31.0957V140.833H26.3242V144.142H30.7812V145.222H26.3242V148.544H31.1641V149.638H25.0938ZM34.0625 145.181V149.638H32.8867V142.214H34.0215V143.376H34.1172C34.4727 142.625 35.1562 142.119 36.291 142.119C37.7949 142.119 38.793 143.035 38.793 144.921V149.638H37.6172V145.003C37.6172 143.855 36.9883 143.171 35.9355 143.171C34.8555 143.171 34.0625 143.896 34.0625 145.181ZM43.6875 152.578C41.8965 152.578 40.6797 151.798 40.543 150.417H41.7734C41.9375 151.169 42.6348 151.552 43.6875 151.552C44.959 151.552 45.7383 151.005 45.7383 149.775V148.271H45.6426C45.3965 148.681 44.918 149.529 43.4824 149.529C41.6777 149.529 40.3242 148.162 40.3242 145.824C40.3242 143.541 41.6367 142.119 43.4961 142.119C44.9316 142.119 45.3965 142.994 45.6699 143.39H45.7656V142.214H46.9141V149.843C46.9141 151.757 45.4922 152.578 43.6875 152.578ZM43.6465 148.476C45 148.476 45.7656 147.505 45.7656 145.865C45.7656 144.279 45.0273 143.171 43.6465 143.171C42.2246 143.171 41.5137 144.375 41.5137 145.865C41.5137 147.41 42.2383 148.476 43.6465 148.476ZM48.4316 147.533C48.4316 145.824 49.9355 145.441 51.2207 145.345C51.6924 145.311 52.8955 145.25 53.2305 145.236V144.634C53.2305 143.691 52.6699 143.144 51.5488 143.144C50.6055 143.144 50.0449 143.582 49.8809 144.142H48.6504C48.8008 142.953 49.9629 142.119 51.6035 142.119C52.5742 142.119 54.3926 142.406 54.3926 144.744V149.638H53.2305V148.626H53.1758C52.9297 149.132 52.2461 149.816 50.9609 149.816C49.5527 149.816 48.4316 148.982 48.4316 147.533ZM49.6074 147.587C49.6074 148.367 50.2637 148.763 51.166 148.763C52.4922 148.763 53.2305 147.875 53.2305 146.945V146.193L51.3574 146.33C50.291 146.398 49.6074 146.781 49.6074 147.587ZM59.2871 152.578C57.4961 152.578 56.2793 151.798 56.1426 150.417H57.373C57.5371 151.169 58.2344 151.552 59.2871 151.552C60.5586 151.552 61.3379 151.005 61.3379 149.775V148.271H61.2422C60.9961 148.681 60.5176 149.529 59.082 149.529C57.2773 149.529 55.9238 148.162 55.9238 145.824C55.9238 143.541 57.2363 142.119 59.0957 142.119C60.5312 142.119 60.9961 142.994 61.2695 143.39H61.3652V142.214H62.5137V149.843C62.5137 151.757 61.0918 152.578 59.2871 152.578ZM59.2461 148.476C60.5996 148.476 61.3652 147.505 61.3652 145.865C61.3652 144.279 60.627 143.171 59.2461 143.171C57.8242 143.171 57.1133 144.375 57.1133 145.865C57.1133 147.41 57.8379 148.476 59.2461 148.476ZM67.5039 149.789C65.3574 149.789 64.0312 148.271 64.0312 145.988C64.0312 143.705 65.3711 142.119 67.3945 142.119C68.9531 142.119 70.5938 143.076 70.5938 145.824V146.316H65.207C65.2617 147.888 66.1777 148.75 67.5039 148.75C68.3926 148.75 68.9531 148.367 69.2266 147.902H70.4844C70.1289 149.023 69.0352 149.789 67.5039 149.789ZM65.2207 145.318H69.4043C69.4043 144.074 68.6113 143.158 67.3945 143.158C66.1094 143.158 65.2891 144.169 65.2207 145.318ZM72.125 149.638V142.214H73.2598V143.376H73.3555C73.6699 142.583 74.3809 142.119 75.3516 142.119C76.3223 142.119 76.9785 142.583 77.334 143.376H77.416C77.7988 142.611 78.5781 142.119 79.6445 142.119C80.9707 142.119 81.9141 142.925 81.9141 144.675V149.638H80.7383V144.689C80.7383 143.595 80.041 143.171 79.2344 143.171C78.1953 143.171 77.6074 143.869 77.6074 144.812V149.638H76.418V144.566C76.418 143.732 75.8164 143.171 74.9688 143.171C74.0801 143.171 73.3008 143.923 73.3008 145.003V149.638H72.125ZM86.918 149.789C84.7715 149.789 83.4453 148.271 83.4453 145.988C83.4453 143.705 84.7852 142.119 86.8086 142.119C88.3672 142.119 90.0078 143.076 90.0078 145.824V146.316H84.6211C84.6758 147.888 85.5918 148.75 86.918 148.75C87.8066 148.75 88.3672 148.367 88.6406 147.902H89.8984C89.543 149.023 88.4492 149.789 86.918 149.789ZM84.6348 145.318H88.8184C88.8184 144.074 88.0254 143.158 86.8086 143.158C85.5234 143.158 84.7031 144.169 84.6348 145.318ZM92.7148 145.181V149.638H91.5391V142.214H92.6738V143.376H92.7695C93.125 142.625 93.8086 142.119 94.9434 142.119C96.4473 142.119 97.4453 143.035 97.4453 144.921V149.638H96.2695V145.003C96.2695 143.855 95.6406 143.171 94.5879 143.171C93.5078 143.171 92.7148 143.896 92.7148 145.181ZM102.572 142.214V143.199H101.014V147.505C101.014 148.462 101.479 148.613 101.984 148.613C102.203 148.613 102.504 148.599 102.682 148.585V149.679C102.504 149.707 102.203 149.734 101.861 149.734C100.877 149.734 99.8242 149.119 99.8242 147.806V143.199H98.7031V142.214H99.8242V140.437H101.014V142.214H102.572ZM105.635 148.722L104.568 152.441H103.557L104.309 148.722H105.635ZM25.5312 171.638H24.2461L27.8691 161.74H29.168L32.791 171.638H31.4922L30.5078 168.849H26.5293L25.5312 171.638ZM26.8984 167.769H30.125L28.5527 163.339H28.4707L26.8984 167.769ZM33.9805 174.427V164.214H35.1152V165.39H35.252C35.498 164.994 35.9629 164.119 37.3984 164.119C39.2578 164.119 40.5566 165.595 40.5566 167.947C40.5566 170.298 39.2578 171.789 37.4121 171.789C35.9902 171.789 35.498 170.914 35.252 170.503H35.1562V174.427H33.9805ZM35.1289 167.919C35.1289 169.587 35.8809 170.736 37.248 170.736C38.6562 170.736 39.3809 169.505 39.3809 167.919C39.3809 166.375 38.6699 165.171 37.248 165.171C35.8535 165.171 35.1289 166.279 35.1289 167.919ZM42.0879 174.427V164.214H43.2227V165.39H43.3594C43.6055 164.994 44.0703 164.119 45.5059 164.119C47.3652 164.119 48.6641 165.595 48.6641 167.947C48.6641 170.298 47.3652 171.789 45.5195 171.789C44.0977 171.789 43.6055 170.914 43.3594 170.503H43.2637V174.427H42.0879ZM43.2363 167.919C43.2363 169.587 43.9883 170.736 45.3555 170.736C46.7637 170.736 47.4883 169.505 47.4883 167.919C47.4883 166.375 46.7773 165.171 45.3555 165.171C43.9609 165.171 43.2363 166.279 43.2363 167.919ZM51.3711 161.74V171.638H50.1953V161.74H51.3711ZM53.2441 171.638V164.214H54.4199V171.638H53.2441ZM53.832 162.984C53.3809 162.984 53.0117 162.642 53.0117 162.205C53.0117 161.767 53.3809 161.425 53.832 161.425C54.2832 161.425 54.666 161.767 54.666 162.205C54.666 162.642 54.2832 162.984 53.832 162.984ZM59.3281 171.789C57.2227 171.789 55.9375 170.189 55.9375 167.96C55.9375 165.705 57.2773 164.119 59.3008 164.119C60.8867 164.119 62.0625 165.048 62.2539 166.457H61.0781C60.9141 165.773 60.3125 165.158 59.3281 165.158C58.002 165.158 57.1133 166.251 57.1133 167.919C57.1133 169.642 57.9746 170.736 59.3281 170.736C60.2031 170.736 60.873 170.271 61.0781 169.451H62.2539C62.0625 170.777 60.9824 171.789 59.3281 171.789ZM63.3477 169.533C63.3477 167.824 64.8516 167.441 66.1367 167.345C66.6084 167.311 67.8115 167.25 68.1465 167.236V166.634C68.1465 165.691 67.5859 165.144 66.4648 165.144C65.5215 165.144 64.9609 165.582 64.7969 166.142H63.5664C63.7168 164.953 64.8789 164.119 66.5195 164.119C67.4902 164.119 69.3086 164.406 69.3086 166.744V171.638H68.1465V170.626H68.0918C67.8457 171.132 67.1621 171.816 65.877 171.816C64.4688 171.816 63.3477 170.982 63.3477 169.533ZM64.5234 169.587C64.5234 170.367 65.1797 170.763 66.082 170.763C67.4082 170.763 68.1465 169.875 68.1465 168.945V168.193L66.2734 168.33C65.207 168.398 64.5234 168.781 64.5234 169.587ZM74.4355 164.214V165.199H72.877V169.505C72.877 170.462 73.3418 170.613 73.8477 170.613C74.0664 170.613 74.3672 170.599 74.5449 170.585V171.679C74.3672 171.707 74.0664 171.734 73.7246 171.734C72.7402 171.734 71.6875 171.119 71.6875 169.806V165.199H70.5664V164.214H71.6875V162.437H72.877V164.214H74.4355ZM75.9531 171.638V164.214H77.1289V171.638H75.9531ZM76.541 162.984C76.0898 162.984 75.7207 162.642 75.7207 162.205C75.7207 161.767 76.0898 161.425 76.541 161.425C76.9922 161.425 77.375 161.767 77.375 162.205C77.375 162.642 76.9922 162.984 76.541 162.984ZM82.0371 171.789C80.0137 171.789 78.6465 170.271 78.6465 167.96C78.6465 165.65 80.0137 164.119 82.0371 164.119C84.0469 164.119 85.4004 165.65 85.4004 167.96C85.4004 170.271 84.0469 171.789 82.0371 171.789ZM82.0371 170.75C83.5273 170.75 84.2246 169.437 84.2246 167.96C84.2246 166.484 83.5273 165.158 82.0371 165.158C80.5195 165.158 79.8223 166.484 79.8223 167.96C79.8223 169.437 80.5195 170.75 82.0371 170.75ZM88.1211 167.181V171.638H86.9453V164.214H88.0801V165.376H88.1758C88.5312 164.625 89.2148 164.119 90.3496 164.119C91.8535 164.119 92.8516 165.035 92.8516 166.921V171.638H91.6758V167.003C91.6758 165.855 91.0469 165.171 89.9941 165.171C88.9141 165.171 88.1211 165.896 88.1211 167.181Z" fill="white"/>
<path d="M147.531 149H146.246L149.869 139.102H151.168L154.791 149H153.492L152.508 146.211H148.529L147.531 149ZM148.898 145.131H152.125L150.553 140.701H150.471L148.898 145.131ZM157.156 144.543V149H155.98V141.576H157.115V142.738H157.211C157.566 141.986 158.25 141.48 159.385 141.48C160.889 141.48 161.887 142.396 161.887 144.283V149H160.711V144.365C160.711 143.217 160.082 142.533 159.029 142.533C157.949 142.533 157.156 143.258 157.156 144.543ZM163.418 146.895C163.418 145.186 164.922 144.803 166.207 144.707C166.679 144.673 167.882 144.611 168.217 144.598V143.996C168.217 143.053 167.656 142.506 166.535 142.506C165.592 142.506 165.031 142.943 164.867 143.504H163.637C163.787 142.314 164.949 141.48 166.59 141.48C167.561 141.48 169.379 141.768 169.379 144.105V149H168.217V147.988H168.162C167.916 148.494 167.232 149.178 165.947 149.178C164.539 149.178 163.418 148.344 163.418 146.895ZM164.594 146.949C164.594 147.729 165.25 148.125 166.152 148.125C167.479 148.125 168.217 147.236 168.217 146.307V145.555L166.344 145.691C165.277 145.76 164.594 146.143 164.594 146.949ZM172.441 139.102V149H171.266V139.102H172.441ZM175.066 151.789C174.807 151.789 174.561 151.775 174.41 151.762V150.709C174.533 150.723 174.807 150.736 174.984 150.736C175.463 150.736 175.859 150.695 176.256 149.615L176.475 149.055L173.727 141.576H175.012L177.035 147.469H177.117L179.141 141.576H180.426L177.281 150.066C176.844 151.229 176.119 151.789 175.066 151.789ZM184.965 141.576V142.561H183.406V146.867C183.406 147.824 183.871 147.975 184.377 147.975C184.596 147.975 184.896 147.961 185.074 147.947V149.041C184.896 149.068 184.596 149.096 184.254 149.096C183.27 149.096 182.217 148.48 182.217 147.168V142.561H181.096V141.576H182.217V139.799H183.406V141.576H184.965ZM186.482 149V141.576H187.658V149H186.482ZM187.07 140.346C186.619 140.346 186.25 140.004 186.25 139.566C186.25 139.129 186.619 138.787 187.07 138.787C187.521 138.787 187.904 139.129 187.904 139.566C187.904 140.004 187.521 140.346 187.07 140.346ZM192.566 149.15C190.461 149.15 189.176 147.551 189.176 145.322C189.176 143.066 190.516 141.48 192.539 141.48C194.125 141.48 195.301 142.41 195.492 143.818H194.316C194.152 143.135 193.551 142.52 192.566 142.52C191.24 142.52 190.352 143.613 190.352 145.281C190.352 147.004 191.213 148.098 192.566 148.098C193.441 148.098 194.111 147.633 194.316 146.812H195.492C195.301 148.139 194.221 149.15 192.566 149.15ZM196.586 146.895C196.586 145.186 198.09 144.803 199.375 144.707C199.847 144.673 201.05 144.611 201.385 144.598V143.996C201.385 143.053 200.824 142.506 199.703 142.506C198.76 142.506 198.199 142.943 198.035 143.504H196.805C196.955 142.314 198.117 141.48 199.758 141.48C200.729 141.48 202.547 141.768 202.547 144.105V149H201.385V147.988H201.33C201.084 148.494 200.4 149.178 199.115 149.178C197.707 149.178 196.586 148.344 196.586 146.895ZM197.762 146.949C197.762 147.729 198.418 148.125 199.32 148.125C200.646 148.125 201.385 147.236 201.385 146.307V145.555L199.512 145.691C198.445 145.76 197.762 146.143 197.762 146.949ZM205.609 139.102V149H204.434V139.102H205.609ZM209.027 148.084L207.961 151.803H206.949L207.701 148.084H209.027ZM214.182 140.195V139.102H221.646V140.195H218.543V149H217.299V140.195H214.182ZM222.357 149V141.576H223.492V142.711H223.574C223.848 141.959 224.613 141.453 225.488 141.453C225.666 141.453 225.967 141.467 226.104 141.48V142.67C226.021 142.643 225.693 142.588 225.393 142.588C224.326 142.588 223.533 143.326 223.533 144.324V149H222.357ZM226.883 146.895C226.883 145.186 228.387 144.803 229.672 144.707C230.144 144.673 231.347 144.611 231.682 144.598V143.996C231.682 143.053 231.121 142.506 230 142.506C229.057 142.506 228.496 142.943 228.332 143.504H227.102C227.252 142.314 228.414 141.48 230.055 141.48C231.025 141.48 232.844 141.768 232.844 144.105V149H231.682V147.988H231.627C231.381 148.494 230.697 149.178 229.412 149.178C228.004 149.178 226.883 148.344 226.883 146.895ZM228.059 146.949C228.059 147.729 228.715 148.125 229.617 148.125C230.943 148.125 231.682 147.236 231.682 146.307V145.555L229.809 145.691C228.742 145.76 228.059 146.143 228.059 146.949ZM235.906 144.543V149H234.73V141.576H235.865V142.738H235.961C236.316 141.986 237 141.48 238.135 141.48C239.639 141.48 240.637 142.396 240.637 144.283V149H239.461V144.365C239.461 143.217 238.832 142.533 237.779 142.533C236.699 142.533 235.906 143.258 235.906 144.543ZM246.652 143.504C246.488 142.889 246.023 142.479 245.148 142.479C244.232 142.479 243.576 142.971 243.576 143.6C243.576 144.092 243.973 144.434 244.848 144.639L245.955 144.912C247.281 145.227 247.938 145.883 247.938 146.922C247.938 148.207 246.885 149.15 245.025 149.15C243.357 149.15 242.359 148.412 242.168 147.059H243.398C243.535 147.783 244.068 148.125 244.998 148.125C246.051 148.125 246.721 147.688 246.721 146.99C246.721 146.471 246.352 146.115 245.504 145.924L244.383 145.664C243.084 145.363 242.4 144.652 242.4 143.668C242.4 142.396 243.508 141.48 245.148 141.48C246.68 141.48 247.65 142.301 247.801 143.504H246.652ZM252.791 141.576V142.561H251.15V149H249.961V142.561H248.771V141.576H249.961V140.564C249.961 139.361 250.768 138.637 252.08 138.637C252.367 138.637 252.709 138.678 252.955 138.719V139.771C252.709 139.73 252.49 139.717 252.34 139.717C251.52 139.717 251.15 140.059 251.15 140.824V141.576H252.791ZM256.906 149.15C254.883 149.15 253.516 147.633 253.516 145.322C253.516 143.012 254.883 141.48 256.906 141.48C258.916 141.48 260.27 143.012 260.27 145.322C260.27 147.633 258.916 149.15 256.906 149.15ZM256.906 148.111C258.396 148.111 259.094 146.799 259.094 145.322C259.094 143.846 258.396 142.52 256.906 142.52C255.389 142.52 254.691 143.846 254.691 145.322C254.691 146.799 255.389 148.111 256.906 148.111ZM261.814 149V141.576H262.949V142.711H263.031C263.305 141.959 264.07 141.453 264.945 141.453C265.123 141.453 265.424 141.467 265.561 141.48V142.67C265.479 142.643 265.15 142.588 264.85 142.588C263.783 142.588 262.99 143.326 262.99 144.324V149H261.814ZM266.709 149V141.576H267.844V142.738H267.939C268.254 141.945 268.965 141.48 269.936 141.48C270.906 141.48 271.562 141.945 271.918 142.738H272C272.383 141.973 273.162 141.48 274.229 141.48C275.555 141.48 276.498 142.287 276.498 144.037V149H275.322V144.051C275.322 142.957 274.625 142.533 273.818 142.533C272.779 142.533 272.191 143.23 272.191 144.174V149H271.002V143.928C271.002 143.094 270.4 142.533 269.553 142.533C268.664 142.533 267.885 143.285 267.885 144.365V149H266.709ZM278.029 146.895C278.029 145.186 279.533 144.803 280.818 144.707C281.29 144.673 282.493 144.611 282.828 144.598V143.996C282.828 143.053 282.268 142.506 281.146 142.506C280.203 142.506 279.643 142.943 279.479 143.504H278.248C278.398 142.314 279.561 141.48 281.201 141.48C282.172 141.48 283.99 141.768 283.99 144.105V149H282.828V147.988H282.773C282.527 148.494 281.844 149.178 280.559 149.178C279.15 149.178 278.029 148.344 278.029 146.895ZM279.205 146.949C279.205 147.729 279.861 148.125 280.764 148.125C282.09 148.125 282.828 147.236 282.828 146.307V145.555L280.955 145.691C279.889 145.76 279.205 146.143 279.205 146.949ZM289.117 141.576V142.561H287.559V146.867C287.559 147.824 288.023 147.975 288.529 147.975C288.748 147.975 289.049 147.961 289.227 147.947V149.041C289.049 149.068 288.748 149.096 288.406 149.096C287.422 149.096 286.369 148.48 286.369 147.168V142.561H285.248V141.576H286.369V139.799H287.559V141.576H289.117ZM290.635 149V141.576H291.811V149H290.635ZM291.223 140.346C290.771 140.346 290.402 140.004 290.402 139.566C290.402 139.129 290.771 138.787 291.223 138.787C291.674 138.787 292.057 139.129 292.057 139.566C292.057 140.004 291.674 140.346 291.223 140.346ZM299.795 141.576L297.047 149H295.83L293.096 141.576H294.381L296.404 147.469H296.486L298.51 141.576H299.795ZM303.938 149.15C301.791 149.15 300.465 147.633 300.465 145.35C300.465 143.066 301.805 141.48 303.828 141.48C305.387 141.48 307.027 142.438 307.027 145.186V145.678H301.641C301.695 147.25 302.611 148.111 303.938 148.111C304.826 148.111 305.387 147.729 305.66 147.264H306.918C306.562 148.385 305.469 149.15 303.938 149.15ZM301.654 144.68H305.838C305.838 143.436 305.045 142.52 303.828 142.52C302.543 142.52 301.723 143.531 301.654 144.68Z" fill="white"/>
<path d="M147.191 127.28V113.139H152.738C155.961 113.139 157.797 114.955 157.797 117.748C157.797 119.682 156.908 121.088 155.297 121.772L158.305 127.28H155.062L152.367 122.26H150.121V127.28H147.191ZM150.121 119.877H152.191C153.93 119.877 154.77 119.155 154.77 117.748C154.77 116.323 153.93 115.541 152.191 115.541H150.121V119.877ZM164.398 127.494C161.156 127.494 159.164 125.385 159.164 122.026C159.164 118.744 161.176 116.537 164.281 116.537C167.074 116.537 169.262 118.295 169.262 121.909V122.729H162.016C162.016 124.33 162.973 125.326 164.457 125.326C165.434 125.326 166.137 124.897 166.43 124.252H169.184C168.773 126.205 167.016 127.494 164.398 127.494ZM162.016 120.912H166.527C166.527 119.623 165.629 118.705 164.34 118.705C163.012 118.705 162.064 119.692 162.016 120.912ZM170.57 124.311C170.57 121.948 172.484 121.166 174.516 121.049C175.277 121 176.703 120.932 177.152 120.912V120.053C177.133 119.174 176.527 118.647 175.453 118.647C174.477 118.647 173.852 119.096 173.695 119.819H170.941C171.117 117.983 172.719 116.537 175.531 116.537C177.836 116.537 180.023 117.573 180.023 120.131V127.28H177.289V125.815H177.211C176.684 126.791 175.688 127.475 174.105 127.475C172.074 127.475 170.57 126.42 170.57 124.311ZM173.344 124.233C173.344 125.053 174.008 125.483 174.926 125.483C176.234 125.483 177.172 124.604 177.152 123.491V122.709C176.713 122.729 175.482 122.797 174.984 122.846C173.988 122.944 173.344 123.412 173.344 124.233ZM186.137 127.455C183.715 127.455 181.82 125.522 181.82 121.987C181.82 118.354 183.793 116.537 186.137 116.537C187.914 116.537 188.754 117.592 189.145 118.451H189.242V113.139H192.133V127.28H189.281V125.58H189.145C188.734 126.459 187.855 127.455 186.137 127.455ZM187.035 125.151C188.48 125.151 189.301 123.881 189.301 121.967C189.301 120.053 188.48 118.842 187.035 118.842C185.57 118.842 184.789 120.112 184.789 121.967C184.789 123.842 185.57 125.151 187.035 125.151ZM199.262 127.494C196.02 127.494 194.027 125.385 194.027 122.026C194.027 118.744 196.039 116.537 199.145 116.537C201.938 116.537 204.125 118.295 204.125 121.909V122.729H196.879C196.879 124.33 197.836 125.326 199.32 125.326C200.297 125.326 201 124.897 201.293 124.252H204.047C203.637 126.205 201.879 127.494 199.262 127.494ZM196.879 120.912H201.391C201.391 119.623 200.492 118.705 199.203 118.705C197.875 118.705 196.928 119.692 196.879 120.912ZM205.941 127.28V116.674H208.734V118.51H208.852C209.242 117.201 210.219 116.518 211.41 116.518C211.703 116.518 212.074 116.557 212.328 116.616V119.194C212.055 119.116 211.508 119.037 211.098 119.037C209.789 119.037 208.832 119.955 208.832 121.244V127.28H205.941ZM221.332 113.139V127.28H218.402V113.139H221.332ZM227.562 127.455C225.141 127.455 223.246 125.522 223.246 121.987C223.246 118.354 225.219 116.537 227.562 116.537C229.34 116.537 230.18 117.592 230.57 118.451H230.668V113.139H233.559V127.28H230.707V125.58H230.57C230.16 126.459 229.281 127.455 227.562 127.455ZM228.461 125.151C229.906 125.151 230.727 123.881 230.727 121.967C230.727 120.053 229.906 118.842 228.461 118.842C226.996 118.842 226.215 120.112 226.215 121.967C226.215 123.842 226.996 125.151 228.461 125.151ZM240.688 127.494C237.445 127.494 235.453 125.385 235.453 122.026C235.453 118.744 237.465 116.537 240.57 116.537C243.363 116.537 245.551 118.295 245.551 121.909V122.729H238.305C238.305 124.33 239.262 125.326 240.746 125.326C241.723 125.326 242.426 124.897 242.719 124.252H245.473C245.062 126.205 243.305 127.494 240.688 127.494ZM238.305 120.912H242.816C242.816 119.623 241.918 118.705 240.629 118.705C239.301 118.705 238.354 119.692 238.305 120.912ZM250.258 121.147V127.28H247.367V116.674H250.121V118.53H250.238C250.727 117.299 251.859 116.537 253.422 116.537C255.629 116.537 257.094 118.041 257.074 120.522V127.28H254.203V121.03C254.203 119.721 253.48 118.94 252.289 118.94C251.078 118.94 250.258 119.741 250.258 121.147ZM264.906 116.674V118.842H262.914V124.018C262.914 124.858 263.324 125.073 263.91 125.092C264.203 125.092 264.711 125.073 265.062 125.034V127.319C264.75 127.377 264.242 127.416 263.52 127.416C261.43 127.416 260.004 126.479 260.023 124.428V118.842H258.559V116.674H260.023V114.135H262.914V116.674H264.906ZM266.723 127.28V116.674H269.613V127.28H266.723ZM268.168 115.287C267.289 115.287 266.586 114.623 266.586 113.823C266.586 113.002 267.289 112.338 268.168 112.338C269.027 112.338 269.73 113.002 269.73 113.823C269.73 114.623 269.027 115.287 268.168 115.287ZM277.445 116.674V118.842H275.453V124.018C275.453 124.858 275.863 125.073 276.449 125.092C276.742 125.092 277.25 125.073 277.602 125.034V127.319C277.289 127.377 276.781 127.416 276.059 127.416C273.969 127.416 272.543 126.479 272.562 124.428V118.842H271.098V116.674H272.562V114.135H275.453V116.674H277.445ZM280.961 131.264C280.395 131.264 279.867 131.244 279.496 131.205V128.959C279.867 128.979 280.297 128.998 280.668 128.998C281.234 128.998 281.703 128.94 282.055 128.022L282.23 127.573L278.422 116.674H281.449L283.676 124.487H283.793L286.039 116.674H289.105L284.965 128.451C284.359 130.151 283.207 131.264 280.961 131.264Z" fill="white"/>
<defs>
<linearGradient id="paint0_linear_2287_858" x1="15.9074" y1="27.668" x2="356.196" y2="441.547" gradientUnits="userSpaceOnUse">
<stop stop-color="#3182F6"/>
<stop offset="1" stop-color="#004DBC"/>
</linearGradient>
<linearGradient id="paint1_linear_2287_858" x1="16.2514" y1="241.457" x2="122.332" y2="241.457" gradientUnits="userSpaceOnUse">
<stop stop-color="#3182F6"/>
<stop offset="1" stop-color="#A009FF"/>
</linearGradient>
<linearGradient id="paint2_linear_2287_858" x1="18.8943" y1="344.84" x2="88.9657" y2="344.84" gradientUnits="userSpaceOnUse">
<stop stop-color="#3182F6"/>
<stop offset="1" stop-color="#A009FF"/>
</linearGradient>
</defs>
</svg>
