<svg width="347" height="454" viewBox="0 0 347 454" fill="none" xmlns="http://www.w3.org/2000/svg">
<rect x="0.5" y="0.5" width="346" height="453" rx="20.5" fill="#2D26F0" stroke="url(#paint0_linear_2204_3086)"/>
<rect x="1" y="194" width="345" height="259" rx="20" fill="white"/>
<path d="M208.02 68.4827V69.6429H193.711V68.4827H200.162V64.8968H201.516V68.4827H208.02ZM206.648 58.4808V59.6233H201.551C201.56 62.0755 204.161 63.8772 207.158 64.3694L206.631 65.4593C204.126 65.011 201.832 63.7542 200.848 61.803C199.854 63.7542 197.561 65.011 195.047 65.4593L194.502 64.3694C197.517 63.8772 200.136 62.0755 200.145 59.6233H195.047V58.4808H200.162V56.3187H201.516V58.4808H206.648ZM223.523 63.4202V64.5804H209.268V63.4202H223.523ZM221.854 60.8011V61.9261H211.078V56.6175H221.748V57.7776H212.432V60.8011H221.854ZM216.387 65.9515C219.744 65.9515 221.748 66.971 221.766 68.764C221.748 70.5745 219.744 71.5765 216.387 71.5765C213.012 71.5765 210.99 70.5745 210.99 68.764C210.99 66.971 213.012 65.9515 216.387 65.9515ZM216.387 67.0237C213.873 67.0413 212.379 67.6741 212.396 68.764C212.379 69.8714 213.873 70.4866 216.387 70.4866C218.865 70.4866 220.377 69.8714 220.377 68.764C220.377 67.6741 218.865 67.0413 216.387 67.0237ZM229.535 70.3636C227.232 70.3636 225.492 68.9397 225.404 66.9886H226.934C227.057 68.1312 228.164 68.9749 229.535 68.9749C231.188 68.9749 232.383 67.762 232.383 66.1624C232.383 64.5101 231.135 63.2972 229.43 63.2796C228.357 63.262 227.531 63.596 227.057 64.4222H225.527L226.424 57.4612H233.314V58.8675H227.742L227.268 62.594H227.391C227.953 62.1546 228.814 61.8558 229.711 61.8558C232.137 61.8558 233.93 63.6487 233.93 66.1272C233.93 68.5882 232.066 70.3636 229.535 70.3636ZM244.916 57.6722V58.7972H235.6V57.6722H239.572V55.9144H240.943V57.6722H244.916ZM240.258 59.6058C242.508 59.6233 244.002 60.7132 244.02 62.4358C244.002 64.1409 242.508 65.2483 240.258 65.2483C238.008 65.2483 236.479 64.1409 236.496 62.4358C236.479 60.7132 238.008 59.6233 240.258 59.6058ZM240.258 60.678C238.781 60.6956 237.797 61.3812 237.814 62.4358C237.797 63.4729 238.781 64.1409 240.258 64.1409C241.717 64.1409 242.701 63.4729 242.719 62.4358C242.701 61.3812 241.717 60.6956 240.258 60.678ZM247.781 55.9847V60.3265H250.137V61.4866H247.781V65.7581H246.41V55.9847H247.781ZM247.781 66.6194V71.6116H246.41V67.7444H237.551V66.6194H247.781ZM264.076 56.0022V67.5687H262.688V62.1546H258.188V61.0472H262.688V59.1663H258.188V58.0589H262.688V56.0022H264.076ZM264.498 70.1175V71.2776H254.004V66.5843H255.393V70.1175H264.498ZM253.441 57.1272V64.0706C255.595 64.0618 257.669 63.9476 260.051 63.5081L260.191 64.6507C257.643 65.1253 255.516 65.2308 253.23 65.2483H252.053V57.1272H253.441ZM267.75 63.6312C268.312 62.9808 269.016 62.6292 269.789 62.6292C271.125 62.6292 272.338 63.6487 273.621 63.6487C274.412 63.6487 275.098 63.262 275.625 62.5413V64.0003C275.045 64.6683 274.359 65.0022 273.586 65.0022C272.25 65.0022 271.037 63.9827 269.736 63.9827C268.963 63.9827 268.277 64.3694 267.75 65.0901V63.6312ZM292.201 63.2972V64.4397H285.75V66.1097C288.703 66.2327 290.443 67.1995 290.461 68.8519C290.443 70.5921 288.439 71.5765 285.082 71.5765C281.689 71.5765 279.686 70.5921 279.686 68.8519C279.686 67.1995 281.417 66.2327 284.396 66.1097V64.4397H277.963V63.2972H292.201ZM285.082 67.1644C282.568 67.1819 281.074 67.7972 281.092 68.8519C281.074 69.889 282.568 70.5042 285.082 70.5042C287.561 70.5042 289.072 69.889 289.072 68.8519C289.072 67.7972 287.561 67.1819 285.082 67.1644ZM290.936 56.7229V57.8479H285.979C286.066 59.6058 288.65 60.9681 291.41 61.2581L290.9 62.3479C288.343 62.0403 285.943 60.8978 285.082 59.1487C284.229 60.8978 281.839 62.0403 279.264 62.3479L278.771 61.2581C281.479 60.9681 284.08 59.6058 284.186 57.8479H279.264V56.7229H290.936ZM307.775 63.4202V64.5804H293.52V63.4202H307.775ZM306.105 60.8011V61.9261H295.33V56.6175H306V57.7776H296.684V60.8011H306.105ZM300.639 65.9515C303.996 65.9515 306 66.971 306.018 68.764C306 70.5745 303.996 71.5765 300.639 71.5765C297.264 71.5765 295.242 70.5745 295.242 68.764C295.242 66.971 297.264 65.9515 300.639 65.9515ZM300.639 67.0237C298.125 67.0413 296.631 67.6741 296.648 68.764C296.631 69.8714 298.125 70.4866 300.639 70.4866C303.117 70.4866 304.629 69.8714 304.629 68.764C304.629 67.6741 303.117 67.0413 300.639 67.0237ZM313.734 59.096C313.734 60.8187 314.947 62.5765 316.951 63.3323L316.23 64.387C314.728 63.8069 313.646 62.6907 313.084 61.346C312.504 62.8401 311.388 64.1673 309.85 64.8265L309.094 63.7542C311.15 62.8577 312.416 60.8362 312.416 59.096V56.969H313.734V59.096ZM322.348 56.0022V65.6526H321.029V61.346H318.955V65.1604H317.654V56.3011H318.955V60.2034H321.029V56.0022H322.348ZM317.18 66.0042C320.414 66.0042 322.436 67.0237 322.436 68.7991C322.436 70.5569 320.414 71.5765 317.18 71.5765C313.928 71.5765 311.924 70.5569 311.941 68.7991C311.924 67.0237 313.928 66.0042 317.18 66.0042ZM317.18 67.0589C314.789 67.0589 313.295 67.7093 313.312 68.7991C313.295 69.8714 314.789 70.5042 317.18 70.5042C319.553 70.5042 321.047 69.8714 321.064 68.7991C321.047 67.7093 319.553 67.0589 317.18 67.0589Z" fill="white"/>
<path d="M47.3789 44.4869V69.94H42.8086L31.6289 53.7681H31.418V69.94H26.1445V44.4869H30.7852L41.8945 60.6587H42.1406V44.4869H47.3789ZM51.668 69.94V44.4869H68.7539V48.8462H56.9414V55.0337H67.875V59.3931H56.9414V65.5806H68.7891V69.94H51.668ZM77.7539 44.4869L82.957 53.2408H83.1328L88.3711 44.4869H94.3477L86.5781 57.2134L94.5234 69.94H88.4062L83.1328 61.1861H82.957L77.6836 69.94H71.6016L79.582 57.2134L71.7422 44.4869H77.7539ZM96.5625 48.8462V44.4869H117.41V48.8462H109.605V69.94H104.367V48.8462H96.5625Z" fill="white"/>
<path d="M24 88.858H324" stroke="white"/>
<path d="M38.1777 224.93C38.1777 229.539 35.3066 232.195 31.5762 232.195C27.8066 232.195 24.9551 229.52 24.9551 224.93C24.9551 220.32 27.8066 217.664 31.5762 217.664C35.3066 217.664 38.1777 220.32 38.1777 224.93ZM35.1895 224.93C35.1895 221.902 33.7637 220.262 31.5762 220.262C29.3887 220.262 27.9434 221.902 27.9434 224.93C27.9434 227.957 29.3887 229.598 31.5762 229.598C33.7637 229.598 35.1895 227.957 35.1895 224.93ZM40.2871 232V217.859H43.1777V223.172H43.2559C43.666 222.312 44.5059 221.258 46.2832 221.258C48.627 221.258 50.5996 223.074 50.5996 226.707C50.5996 230.242 48.7051 232.176 46.2832 232.176C44.5449 232.176 43.666 231.18 43.2559 230.301H43.1387V232H40.2871ZM43.1191 226.688C43.1191 228.602 43.9395 229.871 45.3652 229.871C46.8496 229.871 47.6309 228.562 47.6309 226.688C47.6309 224.832 46.8496 223.562 45.3652 223.562C43.9199 223.562 43.1191 224.773 43.1191 226.688ZM52.4551 221.395H55.3457V232.527C55.3457 234.969 53.8418 235.984 51.3613 235.984L50.7754 235.965V233.699C50.9316 233.699 51.0293 233.719 51.166 233.719C52.1035 233.719 52.4551 233.289 52.4551 232.488V221.395ZM53.8809 220.008C53.002 220.008 52.2988 219.344 52.2988 218.543C52.2988 217.723 53.002 217.059 53.8809 217.059C54.7402 217.059 55.4434 217.723 55.4434 218.543C55.4434 219.344 54.7402 220.008 53.8809 220.008ZM62.3965 232.215C59.1543 232.215 57.1621 230.105 57.1621 226.746C57.1621 223.465 59.1738 221.258 62.2793 221.258C65.0723 221.258 67.2598 223.016 67.2598 226.629V227.449H60.0137C60.0137 229.051 60.9707 230.047 62.4551 230.047C63.4316 230.047 64.1348 229.617 64.4277 228.973H67.1816C66.7715 230.926 65.0137 232.215 62.3965 232.215ZM60.0137 225.633H64.5254C64.5254 224.344 63.627 223.426 62.3379 223.426C61.0098 223.426 60.0625 224.412 60.0137 225.633ZM73.8418 232.215C70.5996 232.215 68.6465 229.969 68.6465 226.727C68.6465 223.484 70.6191 221.258 73.8418 221.258C76.5762 221.258 78.4316 222.859 78.5488 225.281H75.834C75.6582 224.227 74.9746 223.504 73.8809 223.504C72.4941 223.504 71.5762 224.676 71.5762 226.688C71.5762 228.738 72.4746 229.91 73.8809 229.91C74.8965 229.91 75.6582 229.285 75.834 228.152H78.5488C78.4121 230.555 76.6543 232.215 73.8418 232.215ZM85.9316 221.395V223.562H83.9395V228.738C83.9395 229.578 84.3496 229.793 84.9355 229.812C85.2285 229.812 85.7363 229.793 86.0879 229.754V232.039C85.7754 232.098 85.2676 232.137 84.5449 232.137C82.4551 232.137 81.0293 231.199 81.0488 229.148V223.562H79.584V221.395H81.0488V218.855H83.9395V221.395H85.9316ZM87.748 232V221.395H90.6387V232H87.748ZM89.1934 220.008C88.3145 220.008 87.6113 219.344 87.6113 218.543C87.6113 217.723 88.3145 217.059 89.1934 217.059C90.0527 217.059 90.7559 217.723 90.7559 218.543C90.7559 219.344 90.0527 220.008 89.1934 220.008ZM102.729 221.395L98.998 232H95.7559L92.0449 221.395H95.0918L97.3184 229.012H97.4355L99.6621 221.395H102.729ZM108.588 232.215C105.346 232.215 103.354 230.105 103.354 226.746C103.354 223.465 105.365 221.258 108.471 221.258C111.264 221.258 113.451 223.016 113.451 226.629V227.449H106.205C106.205 229.051 107.162 230.047 108.646 230.047C109.623 230.047 110.326 229.617 110.619 228.973H113.373C112.963 230.926 111.205 232.215 108.588 232.215ZM106.205 225.633H110.717C110.717 224.344 109.818 223.426 108.529 223.426C107.201 223.426 106.254 224.412 106.205 225.633Z" fill="url(#paint1_linear_2204_3086)"/>
<path d="M32.9043 325.285C32.7871 324.172 31.8887 323.508 30.4629 323.508C28.9785 323.508 28.1582 324.191 28.1387 325.129C28.1191 326.145 29.1934 326.613 30.4043 326.887L31.6738 327.199C34.0957 327.746 35.9121 328.977 35.9121 331.34C35.9121 333.938 33.8809 335.578 30.4434 335.578C27.0254 335.578 24.8379 333.996 24.7598 330.969H27.6113C27.709 332.395 28.8418 333.117 30.4043 333.117C31.9473 333.117 32.9434 332.395 32.9434 331.34C32.9434 330.383 32.0645 329.934 30.5215 329.543L28.9785 329.172C26.5957 328.586 25.1309 327.395 25.1309 325.324C25.1309 322.746 27.3965 321.047 30.4824 321.047C33.6074 321.047 35.6777 322.785 35.7168 325.285H32.9043ZM42.5332 335.598C39.291 335.598 37.3379 333.352 37.3379 330.109C37.3379 326.867 39.3105 324.641 42.5332 324.641C45.2676 324.641 47.123 326.242 47.2402 328.664H44.5254C44.3496 327.609 43.666 326.887 42.5723 326.887C41.1855 326.887 40.2676 328.059 40.2676 330.07C40.2676 332.121 41.166 333.293 42.5723 333.293C43.5879 333.293 44.3496 332.668 44.5254 331.535H47.2402C47.1035 333.938 45.3457 335.598 42.5332 335.598ZM53.8027 335.598C50.5996 335.598 48.6074 333.391 48.6074 330.109C48.6074 326.828 50.5996 324.641 53.8027 324.641C57.0059 324.641 59.0176 326.828 59.0176 330.109C59.0176 333.391 57.0059 335.598 53.8027 335.598ZM53.8223 333.352C55.3066 333.352 56.0684 331.965 56.0684 330.109C56.0684 328.234 55.3066 326.848 53.8223 326.848C52.3184 326.848 51.5371 328.234 51.5371 330.109C51.5371 331.965 52.3184 333.352 53.8223 333.352ZM60.834 339.367V324.777H63.6855V326.555H63.8027C64.1934 325.695 65.0527 324.641 66.8301 324.641C69.1738 324.641 71.127 326.457 71.127 330.09C71.127 333.625 69.252 335.559 66.8301 335.559C65.0918 335.559 64.2129 334.562 63.8027 333.684H63.7246V339.367H60.834ZM63.666 330.07C63.666 331.984 64.4863 333.254 65.9121 333.254C67.3965 333.254 68.1777 331.945 68.1777 330.07C68.1777 328.215 67.3965 326.945 65.9121 326.945C64.4668 326.945 63.666 328.156 63.666 330.07ZM77.8066 335.598C74.5645 335.598 72.5723 333.488 72.5723 330.129C72.5723 326.848 74.584 324.641 77.6895 324.641C80.4824 324.641 82.6699 326.398 82.6699 330.012V330.832H75.4238C75.4238 332.434 76.3809 333.43 77.8652 333.43C78.8418 333.43 79.5449 333 79.8379 332.355H82.5918C82.1816 334.309 80.4238 335.598 77.8066 335.598ZM75.4238 329.016H79.9355C79.9355 327.727 79.0371 326.809 77.748 326.809C76.4199 326.809 75.4727 327.795 75.4238 329.016Z" fill="url(#paint2_linear_2204_3086)"/>
<path d="M30.5156 248.73V249.73H26.3906V251.542H29.9375V252.527H26.3906V254.48C28.3984 254.472 29.6484 254.402 31.1406 254.105L31.2656 255.121C29.6562 255.433 28.3438 255.48 26.0938 255.48H25.2188V248.73H30.5156ZM36.3594 256.98V261.621H35.1562V257.996H26.9375V256.98H36.3594ZM36.3594 247.746V256.324H35.1875V247.746H36.3594ZM33.6562 248.042V256.23H32.4688V252.417H30.5938V251.386H32.4688V248.042H33.6562ZM45.3125 249.777C45.3125 252.152 48.0312 254.277 50.4531 254.73L49.8906 255.761C47.7969 255.277 45.5859 253.785 44.6875 251.73C43.7891 253.777 41.5859 255.269 39.4844 255.761L38.9219 254.73C41.3281 254.261 44.0312 252.167 44.0312 249.777V248.714H45.3125V249.777ZM51.1094 258.714V259.73H38.3906V258.714H51.1094ZM63.4688 255.246V256.246H53.8594V248.933H63.3125V249.964H55.1094V252.027H63.0156V253.011H55.1094V255.246H63.4688ZM64.9375 258.792V259.808H52.2188V258.792H64.9375ZM78.75 254.183V255.152H66.0312V254.183H78.75ZM77.1562 256.261V259.214H68.8125V260.542H77.6094V261.433H67.5781V258.371H75.9375V257.183H67.5625V256.261H77.1562ZM77.1094 248.152V251.027H68.9062V252.246H77.3594V253.136H67.6875V250.183H75.875V249.042H67.6406V248.152H77.1094ZM95.3438 247.73V261.652H94.1094V247.73H95.3438ZM85.9219 248.917V252.589H90.0625V248.917H91.2656V258.292H84.7031V248.917H85.9219ZM85.9219 257.261H90.0625V253.574H85.9219V257.261ZM105.656 249.058V250.058H104.234V254.652C104.945 254.605 105.648 254.542 106.312 254.464L106.406 255.386C103.594 255.824 100.312 255.886 97.9062 255.886L97.7656 254.871L99.5625 254.839V250.058H98.1562V249.058H105.656ZM108.578 247.746V251.964H110.672V253.011H108.578V257.964H107.359V247.746H108.578ZM109.219 260.292V261.324H99.8906V256.996H101.094V260.292H109.219ZM100.766 254.824C101.508 254.8 102.273 254.777 103.031 254.73V250.058H100.766V254.824ZM116.375 250.292C116.375 252.105 117.766 253.824 119.797 254.527L119.156 255.496C117.586 254.933 116.375 253.769 115.781 252.339C115.18 253.941 113.898 255.222 112.25 255.824L111.609 254.855C113.656 254.121 115.141 252.261 115.141 250.308V249.699H112V248.699H119.484V249.699H116.375V250.292ZM123.062 256.792V261.621H121.828V257.808H113.719V256.792H123.062ZM123.062 247.73V256.058H121.828V252.402H119.047V251.371H121.828V247.73H123.062ZM131.703 248.636C134.609 248.636 136.781 250.152 136.781 252.449C136.781 254.761 134.609 256.277 131.703 256.261C128.797 256.277 126.625 254.761 126.625 252.449C126.625 250.152 128.797 248.636 131.703 248.636ZM131.703 249.636C129.469 249.621 127.781 250.792 127.797 252.449C127.781 254.136 129.469 255.261 131.703 255.261C133.922 255.261 135.594 254.136 135.594 252.449C135.594 250.792 133.922 249.621 131.703 249.636ZM138.094 258.746V259.777H125.375V258.746H138.094ZM151.922 258.871V259.902H139.203V258.871H144.922V256.246H140.797V251.964H149.109V249.777H140.766V248.761H150.312V252.964H142.016V255.23H150.641V256.246H146.125V258.871H151.922ZM169.75 255.089V256.089H164.094V258.808H162.875V256.089H157.031V255.089H169.75ZM168.328 260.292V261.324H158.656V257.527H159.875V260.292H168.328ZM159.953 248.183V249.964H166.828V248.183H168.047V253.73H158.734V248.183H159.953ZM159.953 252.73H166.828V250.902H159.953V252.73ZM175.609 249.964C175.609 251.886 177.031 253.652 179.047 254.339L178.375 255.324C176.828 254.753 175.625 253.566 175.031 252.089C174.445 253.73 173.195 255.011 171.562 255.652L170.891 254.636C173 253.886 174.391 252.058 174.406 249.917V248.449H175.609V249.964ZM182.391 256.714V261.621H181.156V257.699H173.047V256.714H182.391ZM182.391 247.73V255.949H181.156V251.683H178.062V250.652H181.156V247.73H182.391ZM195.453 247.73V253.464H197.781V254.48H195.453V261.621H194.234V247.73H195.453ZM192.891 249.964V250.98H184.625V249.964H188.203V247.902H189.422V249.964H192.891ZM188.828 252.136C190.797 252.136 192.219 253.449 192.234 255.324C192.219 257.199 190.797 258.511 188.828 258.511C186.844 258.511 185.406 257.199 185.422 255.324C185.406 253.449 186.844 252.136 188.828 252.136ZM188.828 253.167C187.531 253.167 186.578 254.074 186.594 255.324C186.578 256.589 187.531 257.48 188.828 257.464C190.109 257.48 191.047 256.589 191.062 255.324C191.047 254.074 190.109 253.167 188.828 253.167ZM209.672 249.136V250.527C209.656 252.23 209.656 254.136 209.156 256.933L207.906 256.792C208.438 254.136 208.438 252.183 208.438 250.527V250.152H199.875V249.136H209.672ZM211.188 258.636V259.652H198.531V258.636H203.5V253.667H204.703V258.636H211.188ZM214.641 259.308L213.422 263.558H212.266L213.125 259.308H214.641ZM231.219 247.73V253.23H233.547V254.261H231.219V261.652H230V247.73H231.219ZM227.562 249.089V250.105H222.297V257.136C224.812 257.136 226.594 257.019 228.656 256.636L228.812 257.699C226.641 258.089 224.812 258.167 222.172 258.167H221.078V249.089H227.562ZM247.219 249.839V250.855H245.156V252.792H247.219V253.824H245.156V255.98H243.938V247.73H245.156V249.839H247.219ZM238.203 248.574C240.312 248.558 241.844 249.902 241.859 251.839C241.844 253.777 240.312 255.089 238.203 255.105C236.094 255.089 234.547 253.777 234.562 251.839C234.547 249.902 236.094 248.558 238.203 248.574ZM238.203 249.621C236.797 249.605 235.75 250.527 235.766 251.839C235.75 253.152 236.797 254.058 238.203 254.074C239.625 254.058 240.656 253.152 240.656 251.839C240.656 250.527 239.625 249.605 238.203 249.621ZM240.703 256.402C243.531 256.417 245.281 257.355 245.281 259.011C245.281 260.636 243.531 261.589 240.703 261.589C237.859 261.589 236.094 260.636 236.094 259.011C236.094 257.355 237.859 256.417 240.703 256.402ZM240.703 257.402C238.609 257.402 237.312 257.996 237.328 259.011C237.312 260.011 238.609 260.605 240.703 260.605C242.812 260.605 244.094 260.011 244.094 259.011C244.094 257.996 242.812 257.402 240.703 257.402ZM258.984 247.746V252.324H261.078V253.355H258.984V258.152H257.766V247.746H258.984ZM256.438 249.449V250.449H248.156V249.449H251.688V247.746H252.906V249.449H256.438ZM252.297 251.214C254.281 251.214 255.625 252.23 255.641 253.808C255.625 255.371 254.281 256.371 252.297 256.371C250.297 256.371 248.938 255.371 248.953 253.808C248.938 252.23 250.297 251.214 252.297 251.214ZM252.297 252.183C250.984 252.183 250.109 252.824 250.125 253.808C250.109 254.792 250.984 255.417 252.297 255.402C253.594 255.417 254.469 254.792 254.484 253.808C254.469 252.824 253.594 252.183 252.297 252.183ZM259.625 260.292V261.324H250.297V257.324H251.5V260.292H259.625ZM277.484 247.73V256.011H276.25V252.371H273.453V251.355H276.25V247.73H277.484ZM272.875 256.449C275.766 256.449 277.531 257.386 277.531 259.027C277.531 260.667 275.766 261.605 272.875 261.621C269.984 261.605 268.219 260.667 268.219 259.027C268.219 257.386 269.984 256.449 272.875 256.449ZM272.875 257.402C270.75 257.402 269.422 258.011 269.438 259.027C269.422 260.027 270.75 260.636 272.875 260.636C275 260.636 276.312 260.027 276.312 259.027C276.312 258.011 275 257.402 272.875 257.402ZM270.797 250.277C270.797 252.089 272.188 253.808 274.219 254.511L273.578 255.496C272.016 254.933 270.805 253.769 270.219 252.324C269.609 253.957 268.32 255.261 266.672 255.886L266.031 254.902C268.094 254.152 269.562 252.277 269.562 250.292V249.777H266.422V248.746H273.906V249.777H270.797V250.277ZM292.516 258.824V259.839H279.797V258.824H285.516V255.824H281.297V248.714H282.531V251.23H289.75V248.714H290.953V255.824H286.719V258.824H292.516ZM282.531 254.824H289.75V252.23H282.531V254.824ZM306.328 254.183V255.152H293.609V254.183H306.328ZM304.734 256.261V259.214H296.391V260.542H305.188V261.433H295.156V258.371H303.516V257.183H295.141V256.261H304.734ZM304.688 248.152V251.027H296.484V252.246H304.938V253.136H295.266V250.183H303.453V249.042H295.219V248.152H304.688ZM37.2188 281.105V282.105H24.5469V281.105H30.2656V279.73H26.2344V274.136H35.6406V275.136H27.4688V276.433H35.2656V277.371H27.4688V278.746H35.7188V279.73H31.4844V281.105H37.2188ZM30.8906 283.152C33.9375 283.136 35.6562 283.917 35.6719 285.371C35.6562 286.824 33.9375 287.589 30.8906 287.589C27.8125 287.589 26.0938 286.824 26.0938 285.371C26.0938 283.917 27.8125 283.136 30.8906 283.152ZM30.8906 284.074C28.5938 284.074 27.3125 284.542 27.3281 285.371C27.3125 286.214 28.5938 286.652 30.8906 286.636C33.1562 286.652 34.4375 286.214 34.4375 285.371C34.4375 284.542 33.1562 284.074 30.8906 284.074ZM49.25 273.73V277.292H51.3438V278.339H49.25V281.808H48.0312V273.73H49.25ZM41.6875 282.417V283.902H48.0312V282.417H49.25V287.433H40.4688V282.417H41.6875ZM41.6875 286.449H48.0312V284.871H41.6875V286.449ZM46.7031 275.167V276.183H38.4219V275.167H41.9531V273.605H43.1719V275.167H46.7031ZM42.5625 276.824C44.5625 276.824 45.8906 277.777 45.9062 279.261C45.8906 280.746 44.5625 281.699 42.5625 281.699C40.5469 281.699 39.2031 280.746 39.2188 279.261C39.2031 277.777 40.5469 276.824 42.5625 276.824ZM42.5625 277.777C41.25 277.761 40.375 278.371 40.3906 279.261C40.375 280.167 41.25 280.761 42.5625 280.761C43.8594 280.761 44.7344 280.167 44.75 279.261C44.7344 278.371 43.8594 277.761 42.5625 277.777ZM59.1562 276.136V277.136H52.1875V276.136H55.0781V274.152H56.2969V276.136H59.1562ZM55.6719 278.074C57.4219 278.074 58.6719 279.386 58.6875 281.23C58.6719 283.089 57.4219 284.417 55.6719 284.417C53.9375 284.417 52.6875 283.089 52.6875 281.23C52.6875 279.386 53.9375 278.074 55.6719 278.074ZM55.6719 279.105C54.5781 279.121 53.7812 280.011 53.7812 281.23C53.7812 282.464 54.5781 283.355 55.6719 283.339C56.7812 283.355 57.5938 282.464 57.5938 281.23C57.5938 280.011 56.7812 279.121 55.6719 279.105ZM64.0469 273.73V287.621H62.875V280.605H61.0312V286.933H59.875V274.074H61.0312V279.589H62.875V273.73H64.0469ZM74 274.246C76.0781 274.261 77.5938 275.511 77.5938 277.324C77.5938 279.136 76.0781 280.386 74 280.386C71.8906 280.386 70.3906 279.136 70.3906 277.324C70.3906 275.511 71.8906 274.261 74 274.246ZM74 275.277C72.6094 275.277 71.5781 276.121 71.5938 277.324C71.5781 278.542 72.6094 279.386 74 279.386C75.375 279.386 76.4062 278.542 76.4062 277.324C76.4062 276.121 75.375 275.277 74 275.277ZM81.5312 273.73V280.871H80.3125V273.73H81.5312ZM81.5312 281.542V284.886H73.7344V286.449H82.0312V287.433H72.5312V283.964H80.3125V282.527H72.5V281.542H81.5312ZM88.5312 275.98C88.5312 277.871 89.9688 279.605 91.9844 280.292L91.3125 281.261C89.7734 280.699 88.5625 279.55 87.9531 278.105C87.3594 279.738 86.125 281.027 84.5 281.652L83.8438 280.667C85.9219 279.886 87.3125 278.027 87.3281 275.886V274.449H88.5312V275.98ZM94.75 273.73V277.355H96.8438V278.386H94.75V282.183H93.5312V273.73H94.75ZM90.2969 282.542C93.1562 282.542 94.875 283.464 94.875 285.058C94.875 286.683 93.1562 287.589 90.2969 287.589C87.4375 287.589 85.6875 286.683 85.6875 285.058C85.6875 283.464 87.4375 282.542 90.2969 282.542ZM90.2969 283.527C88.2031 283.527 86.9062 284.105 86.9219 285.058C86.9062 286.042 88.2031 286.605 90.2969 286.621C92.4062 286.605 93.6875 286.042 93.6875 285.058C93.6875 284.105 92.4062 283.527 90.2969 283.527ZM109.625 273.73V287.621H108.438V273.73H109.625ZM106.828 274.027V286.917H105.656V280.167H103.875C103.742 282.871 102.594 284.558 100.875 284.558C99.0625 284.558 97.8906 282.683 97.8906 279.73C97.8906 276.777 99.0625 274.902 100.875 274.902C102.562 274.902 103.703 276.535 103.859 279.152H105.656V274.027H106.828ZM100.875 276.058C99.75 276.058 99.0312 277.464 99.0469 279.73C99.0312 281.98 99.75 283.402 100.875 283.386C102 283.402 102.719 281.98 102.719 279.73C102.719 277.464 102 276.058 100.875 276.058ZM120.391 276.292C120.391 278.105 121.781 279.824 123.812 280.527L123.172 281.496C121.602 280.933 120.391 279.769 119.797 278.339C119.195 279.941 117.914 281.222 116.266 281.824L115.625 280.855C117.672 280.121 119.156 278.261 119.156 276.308V275.699H116.016V274.699H123.5V275.699H120.391V276.292ZM127.078 282.792V287.621H125.844V283.808H117.734V282.792H127.078ZM127.078 273.73V282.058H125.844V278.402H123.062V277.371H125.844V273.73H127.078ZM142.047 280.605V281.621H129.391V280.605H132.531V278.652C131.422 278.222 130.797 277.511 130.797 276.574C130.797 274.933 132.672 273.996 135.719 273.996C138.734 273.996 140.625 274.933 140.625 276.574C140.625 277.503 140.008 278.214 138.906 278.636V280.605H142.047ZM135.719 282.683C138.703 282.683 140.484 283.542 140.5 285.136C140.484 286.714 138.703 287.589 135.719 287.589C132.703 287.589 130.922 286.714 130.922 285.136C130.922 283.542 132.703 282.683 135.719 282.683ZM135.719 283.621C133.484 283.636 132.156 284.183 132.172 285.136C132.156 286.074 133.484 286.636 135.719 286.636C137.922 286.636 139.266 286.074 139.266 285.136C139.266 284.183 137.922 283.636 135.719 283.621ZM135.719 274.964C133.453 274.964 132.047 275.574 132.062 276.574C132.047 277.589 133.453 278.183 135.719 278.183C137.969 278.183 139.375 277.589 139.375 276.574C139.375 275.574 137.969 274.964 135.719 274.964ZM133.75 280.605H137.688V278.98C137.102 279.082 136.445 279.136 135.719 279.136C134.992 279.136 134.336 279.082 133.75 278.98V280.605ZM154.078 273.683V277.058H156.188V278.074H154.078V281.371H152.859V273.683H154.078ZM154.078 282.089V285.167H146.453V286.527H154.594V287.464H145.25V284.261H152.859V283.011H145.219V282.089H154.078ZM151.531 274.996V275.98H143.25V274.996H146.781V273.589H148V274.996H151.531ZM147.391 276.605C149.406 276.605 150.719 277.48 150.734 278.886C150.719 280.292 149.406 281.167 147.391 281.167C145.359 281.167 144.031 280.292 144.047 278.886C144.031 277.48 145.359 276.605 147.391 276.605ZM147.391 277.511C146.078 277.511 145.203 278.058 145.219 278.886C145.203 279.73 146.078 280.246 147.391 280.246C148.703 280.246 149.562 279.73 149.578 278.886C149.562 278.058 148.703 277.511 147.391 277.511ZM168.031 275.027C168.031 276.98 170.594 278.683 173.094 279.027L172.594 280.027C170.438 279.667 168.305 278.472 167.406 276.761C166.516 278.48 164.375 279.667 162.219 280.027L161.719 279.027C164.219 278.683 166.766 277.011 166.766 275.027V274.23H168.031V275.027ZM173.719 281.558V282.589H167.969V287.621H166.766V282.589H161.062V281.558H173.719ZM183.609 283.058C183.609 284.285 184.266 285.589 185.594 286.339C186.906 285.519 187.609 284.136 187.609 283.058V282.292H188.812V283.058C188.812 284.48 189.859 285.917 191.641 286.527L191.031 287.433C189.641 286.941 188.664 285.972 188.188 284.808C187.758 285.933 186.906 286.996 185.625 287.542C184.273 287.027 183.414 286.003 183 284.839C182.508 285.964 181.547 286.933 180.219 287.433L179.594 286.527C181.344 285.871 182.406 284.386 182.422 283.058V282.292H183.609V283.058ZM190.375 273.746V281.683H189.156V273.746H190.375ZM182.875 274.558C184.984 274.558 186.516 275.871 186.516 277.808C186.516 279.714 184.984 281.027 182.875 281.027C180.766 281.027 179.234 279.714 179.234 277.808C179.234 275.871 180.766 274.558 182.875 274.558ZM182.875 275.605C181.453 275.589 180.422 276.511 180.438 277.808C180.422 279.089 181.453 279.996 182.875 280.011C184.281 279.996 185.312 279.089 185.312 277.808C185.312 276.511 184.281 275.589 182.875 275.605ZM203.969 277.949V278.933H194.453V274.246H195.672V277.949H203.969ZM205.438 280.824V281.824H192.719V280.824H205.438ZM204.047 286.261V287.277H194.375V283.246H195.594V286.261H204.047ZM222.047 273.73V282.152H220.828V273.73H222.047ZM222.047 282.902V287.433H213.016V282.902H222.047ZM214.219 283.886V286.433H220.844V283.886H214.219ZM219.297 275.23V276.23H210.781V275.23H214.422V273.621H215.656V275.23H219.297ZM215.047 276.917C217.094 276.917 218.453 277.886 218.453 279.386C218.453 280.902 217.094 281.871 215.047 281.871C212.984 281.871 211.625 280.902 211.641 279.386C211.625 277.886 212.984 276.917 215.047 276.917ZM215.047 277.855C213.688 277.855 212.797 278.464 212.812 279.386C212.797 280.339 213.688 280.917 215.047 280.933C216.391 280.917 217.281 280.339 217.281 279.386C217.281 278.464 216.391 277.855 215.047 277.855ZM230.734 273.98C233.828 273.98 235.641 274.824 235.641 276.371C235.641 277.949 233.828 278.792 230.734 278.808C227.641 278.792 225.812 277.949 225.812 276.371C225.812 274.824 227.641 273.98 230.734 273.98ZM230.734 274.902C228.422 274.902 227.078 275.464 227.094 276.371C227.078 277.339 228.422 277.871 230.734 277.871C233.031 277.871 234.391 277.339 234.391 276.371C234.391 275.464 233.031 274.902 230.734 274.902ZM237.062 279.746V280.746H224.406V279.746H237.062ZM235.438 281.949V285.058H227.188V286.496H235.859V287.464H225.969V284.152H234.234V282.886H225.938V281.949H235.438ZM253.734 273.73V287.621H252.5V273.73H253.734ZM249.625 275.246C249.609 279.246 247.75 282.777 243.094 285.011L242.422 284.011C246.18 282.23 248.094 279.566 248.375 276.246H243.062V275.246H249.625ZM268.781 280.636V281.621H256.062V280.636H268.781ZM259 282.527V283.917H265.938V282.527H267.141V287.433H257.766V282.527H259ZM259 286.449H265.938V284.871H259V286.449ZM267.141 274.074V277.246H258.938V278.558H267.438V279.542H257.719V276.308H265.906V275.011H257.672V274.074H267.141ZM281.359 273.73V287.621H280.141V273.73H281.359ZM272.016 275.105V282.98C274.133 282.972 276.328 282.8 278.656 282.308L278.828 283.355C276.359 283.871 274.156 284.042 271.938 284.042H270.812V275.105H272.016ZM294.484 273.73V279.23H296.812V280.261H294.484V287.652H293.266V273.73H294.484ZM290.828 275.089V276.105H285.562V283.136C288.078 283.136 289.859 283.019 291.922 282.636L292.078 283.699C289.906 284.089 288.078 284.167 285.438 284.167H284.344V275.089H290.828ZM299.031 286.449C298.484 286.449 298.016 285.996 298.031 285.433C298.016 284.886 298.484 284.433 299.031 284.433C299.578 284.433 300.031 284.886 300.031 285.433C300.031 285.996 299.578 286.449 299.031 286.449Z" fill="black"/>
<path d="M35.9375 362.034C35.0625 362.034 34.3438 361.315 34.3438 360.424C34.3438 359.549 35.0625 358.831 35.9375 358.831C36.8281 358.831 37.5469 359.549 37.5469 360.424C37.5469 361.315 36.8281 362.034 35.9375 362.034ZM55.5781 354.284C55.5625 356.143 58.0469 357.721 60.4688 358.081L60.0156 359.049C57.8438 358.682 55.7344 357.526 54.8906 355.846C54.0469 357.526 51.9297 358.682 49.7969 359.049L49.3125 358.081C51.7188 357.721 54.2031 356.143 54.2031 354.284V354.19H49.75V353.19H60.0156V354.19H55.5781V354.284ZM61.2188 360.237V361.252H55.4688V366.206H54.2656V361.252H48.5625V360.237H61.2188ZM67.0938 354.956C67.0938 356.768 68.4531 358.393 70.5 359.065L69.9219 360.034C68.3203 359.51 67.1094 358.401 66.5156 357.002C65.9141 358.596 64.6328 359.838 62.9688 360.44L62.3438 359.456C64.4219 358.752 65.875 356.956 65.8906 354.956V354.362H62.7188V353.346H70.2188V354.362H67.0938V354.956ZM73.25 352.315V355.862H75.3438V356.893H73.25V360.706H72.0312V352.315H73.25ZM68.7969 361.081C71.6562 361.081 73.375 362.018 73.375 363.612C73.375 365.237 71.6562 366.174 68.7969 366.174C65.9375 366.174 64.1875 365.237 64.1875 363.612C64.1875 362.018 65.9375 361.081 68.7969 361.081ZM68.7969 362.065C66.7031 362.065 65.4062 362.643 65.4219 363.612C65.4062 364.612 66.7031 365.19 68.7969 365.19C70.9062 365.19 72.1875 364.612 72.1875 363.612C72.1875 362.643 70.9062 362.065 68.7969 362.065ZM83.9219 353.862V354.581C83.9062 355.674 83.9062 357.518 83.5156 360.096L82.2812 359.987C82.6562 357.659 82.6875 355.971 82.6875 354.862H76.8594V353.862H83.9219ZM80.2812 357.831V362.049C81.8203 361.995 83.3984 361.893 84.8438 361.721L84.9062 362.643C81.9844 363.096 78.7188 363.159 76.2344 363.143L76.0781 362.127C76.9922 362.12 78.0078 362.112 79.0781 362.081V357.831H80.2812ZM86.9375 352.315V358.127H89.1875V359.19H86.9375V366.206H85.7188V352.315H86.9375ZM101.766 353.393V354.127C101.75 355.034 101.75 356.424 101.406 358.237L100.172 358.143C100.508 356.479 100.539 355.299 100.562 354.424H94.8438V353.393H101.766ZM98.1875 356.471V359.456C99.7266 359.393 101.32 359.284 102.766 359.081L102.844 359.987C99.9375 360.487 96.5781 360.549 94.1094 360.549L93.9844 359.534C94.8828 359.526 95.8984 359.518 96.9688 359.487V356.471H98.1875ZM104.953 352.315V356.846H106.984V357.893H104.953V362.768H103.703V352.315H104.953ZM105.406 364.877V365.909H96.125V361.831H97.3594V364.877H105.406ZM119.406 352.315V360.456H118.172V356.831H115.359V355.799H118.172V352.315H119.406ZM119.406 361.143V366.018H110.328V361.143H119.406ZM111.547 362.127V365.018H118.203V362.127H111.547ZM112.719 354.784C112.719 356.581 114.109 358.315 116.141 359.034L115.5 360.002C113.93 359.44 112.719 358.268 112.125 356.831C111.523 358.432 110.242 359.713 108.594 360.315L107.953 359.346C110 358.612 111.484 356.768 111.484 354.784V354.237H108.344V353.221H115.828V354.237H112.719V354.784ZM138.438 359.674V360.674H132.781V363.393H131.562V360.674H125.719V359.674H138.438ZM137.016 364.877V365.909H127.344V362.112H128.562V364.877H137.016ZM128.641 352.768V354.549H135.516V352.768H136.734V358.315H127.422V352.768H128.641ZM128.641 357.315H135.516V355.487H128.641V357.315ZM144.297 354.549C144.297 356.471 145.719 358.237 147.734 358.924L147.062 359.909C145.516 359.338 144.312 358.151 143.719 356.674C143.133 358.315 141.883 359.596 140.25 360.237L139.578 359.221C141.688 358.471 143.078 356.643 143.094 354.502V353.034H144.297V354.549ZM151.078 361.299V366.206H149.844V362.284H141.734V361.299H151.078ZM151.078 352.315V360.534H149.844V356.268H146.75V355.237H149.844V352.315H151.078ZM155.672 363.893L154.453 368.143H153.297L154.156 363.893H155.672ZM172.25 352.315V357.815H174.578V358.846H172.25V366.237H171.031V352.315H172.25ZM168.594 353.674V354.69H163.328V361.721C165.844 361.721 167.625 361.604 169.688 361.221L169.844 362.284C167.672 362.674 165.844 362.752 163.203 362.752H162.109V353.674H168.594ZM188.25 354.424V355.44H186.188V357.377H188.25V358.409H186.188V360.565H184.969V352.315H186.188V354.424H188.25ZM179.234 353.159C181.344 353.143 182.875 354.487 182.891 356.424C182.875 358.362 181.344 359.674 179.234 359.69C177.125 359.674 175.578 358.362 175.594 356.424C175.578 354.487 177.125 353.143 179.234 353.159ZM179.234 354.206C177.828 354.19 176.781 355.112 176.797 356.424C176.781 357.737 177.828 358.643 179.234 358.659C180.656 358.643 181.688 357.737 181.688 356.424C181.688 355.112 180.656 354.19 179.234 354.206ZM181.734 360.987C184.562 361.002 186.312 361.94 186.312 363.596C186.312 365.221 184.562 366.174 181.734 366.174C178.891 366.174 177.125 365.221 177.125 363.596C177.125 361.94 178.891 361.002 181.734 360.987ZM181.734 361.987C179.641 361.987 178.344 362.581 178.359 363.596C178.344 364.596 179.641 365.19 181.734 365.19C183.844 365.19 185.125 364.596 185.125 363.596C185.125 362.581 183.844 361.987 181.734 361.987ZM200.016 352.331V356.909H202.109V357.94H200.016V362.737H198.797V352.331H200.016ZM197.469 354.034V355.034H189.188V354.034H192.719V352.331H193.938V354.034H197.469ZM193.328 355.799C195.312 355.799 196.656 356.815 196.672 358.393C196.656 359.956 195.312 360.956 193.328 360.956C191.328 360.956 189.969 359.956 189.984 358.393C189.969 356.815 191.328 355.799 193.328 355.799ZM193.328 356.768C192.016 356.768 191.141 357.409 191.156 358.393C191.141 359.377 192.016 360.002 193.328 359.987C194.625 360.002 195.5 359.377 195.516 358.393C195.5 357.409 194.625 356.768 193.328 356.768ZM200.656 364.877V365.909H191.328V361.909H192.531V364.877H200.656ZM212.953 353.315V354.315H208.828V356.127H212.375V357.112H208.828V359.065C210.836 359.057 212.086 358.987 213.578 358.69L213.703 359.706C212.094 360.018 210.781 360.065 208.531 360.065H207.656V353.315H212.953ZM218.797 361.565V366.206H217.594V362.581H209.375V361.565H218.797ZM218.797 352.331V360.909H217.625V352.331H218.797ZM216.094 352.627V360.815H214.906V357.002H213.031V355.971H214.906V352.627H216.094ZM227.75 354.362C227.75 356.737 230.469 358.862 232.891 359.315L232.328 360.346C230.234 359.862 228.023 358.37 227.125 356.315C226.227 358.362 224.023 359.854 221.922 360.346L221.359 359.315C223.766 358.846 226.469 356.752 226.469 354.362V353.299H227.75V354.362ZM233.547 363.299V364.315H220.828V363.299H233.547ZM245.906 359.831V360.831H236.297V353.518H245.75V354.549H237.547V356.612H245.453V357.596H237.547V359.831H245.906ZM247.375 363.377V364.393H234.656V363.377H247.375ZM263.953 352.315V366.237H262.719V352.315H263.953ZM254.531 353.502V357.174H258.672V353.502H259.875V362.877H253.312V353.502H254.531ZM254.531 361.846H258.672V358.159H254.531V361.846ZM277.484 353.721V355.268C277.484 357.049 277.484 358.846 276.984 361.424L275.781 361.284C276.281 358.831 276.281 357.002 276.281 355.268V354.737H267.656V353.721H277.484ZM278.984 363.221V364.237H266.328V363.221H269.469V358.643H270.688V363.221H272.938V358.643H274.141V363.221H278.984ZM35.9375 388.034C35.0625 388.034 34.3438 387.315 34.3438 386.424C34.3438 385.549 35.0625 384.831 35.9375 384.831C36.8281 384.831 37.5469 385.549 37.5469 386.424C37.5469 387.315 36.8281 388.034 35.9375 388.034ZM60.0781 378.315V386.596H58.8438V382.956H56.0469V381.94H58.8438V378.315H60.0781ZM55.4688 387.034C58.3594 387.034 60.125 387.971 60.125 389.612C60.125 391.252 58.3594 392.19 55.4688 392.206C52.5781 392.19 50.8125 391.252 50.8125 389.612C50.8125 387.971 52.5781 387.034 55.4688 387.034ZM55.4688 387.987C53.3438 387.987 52.0156 388.596 52.0312 389.612C52.0156 390.612 53.3438 391.221 55.4688 391.221C57.5938 391.221 58.9062 390.612 58.9062 389.612C58.9062 388.596 57.5938 387.987 55.4688 387.987ZM53.3906 380.862C53.3906 382.674 54.7812 384.393 56.8125 385.096L56.1719 386.081C54.6094 385.518 53.3984 384.354 52.8125 382.909C52.2031 384.542 50.9141 385.846 49.2656 386.471L48.625 385.487C50.6875 384.737 52.1562 382.862 52.1562 380.877V380.362H49.0156V379.331H56.5V380.362H53.3906V380.862ZM75.1094 389.409V390.424H62.3906V389.409H68.1094V386.409H63.8906V379.299H65.125V381.815H72.3438V379.299H73.5469V386.409H69.3125V389.409H75.1094ZM65.125 385.409H72.3438V382.815H65.125V385.409ZM92.8906 385.69V386.69H80.2188V385.69H85.9375V384.315H81.9062V378.721H91.3125V379.721H83.1406V381.018H90.9375V381.956H83.1406V383.331H91.3906V384.315H87.1562V385.69H92.8906ZM86.5625 387.737C89.6094 387.721 91.3281 388.502 91.3438 389.956C91.3281 391.409 89.6094 392.174 86.5625 392.174C83.4844 392.174 81.7656 391.409 81.7656 389.956C81.7656 388.502 83.4844 387.721 86.5625 387.737ZM86.5625 388.659C84.2656 388.659 82.9844 389.127 83 389.956C82.9844 390.799 84.2656 391.237 86.5625 391.221C88.8281 391.237 90.1094 390.799 90.1094 389.956C90.1094 389.127 88.8281 388.659 86.5625 388.659ZM104.922 378.315V381.877H107.016V382.924H104.922V386.393H103.703V378.315H104.922ZM97.3594 387.002V388.487H103.703V387.002H104.922V392.018H96.1406V387.002H97.3594ZM97.3594 391.034H103.703V389.456H97.3594V391.034ZM102.375 379.752V380.768H94.0938V379.752H97.625V378.19H98.8438V379.752H102.375ZM98.2344 381.409C100.234 381.409 101.562 382.362 101.578 383.846C101.562 385.331 100.234 386.284 98.2344 386.284C96.2188 386.284 94.875 385.331 94.8906 383.846C94.875 382.362 96.2188 381.409 98.2344 381.409ZM98.2344 382.362C96.9219 382.346 96.0469 382.956 96.0625 383.846C96.0469 384.752 96.9219 385.346 98.2344 385.346C99.5312 385.346 100.406 384.752 100.422 383.846C100.406 382.956 99.5312 382.346 98.2344 382.362ZM123.391 378.315V392.206H122.156V378.315H123.391ZM119.281 379.831C119.266 383.831 117.406 387.362 112.75 389.596L112.078 388.596C115.836 386.815 117.75 384.151 118.031 380.831H112.719V379.831H119.281ZM136.594 378.331V382.534H138.688V383.565H136.594V388.534H135.375V378.331H136.594ZM137.234 390.877V391.909H127.906V387.534H129.109V390.877H137.234ZM127.531 379.331V381.674H131.578V379.331H132.797V386.19H126.328V379.331H127.531ZM127.531 385.19H131.578V382.643H127.531V385.19ZM155.047 378.315V392.237H153.828V378.315H155.047ZM150.828 379.612V384.549H145.641V387.831C147.945 387.831 150 387.729 152.484 387.331L152.609 388.362C150.047 388.768 147.938 388.862 145.547 388.862H144.391V383.549H149.594V380.627H144.359V379.612H150.828ZM162.297 382.049C162.297 384.565 163.906 387.096 165.922 388.018L165.188 389.018C163.609 388.206 162.305 386.542 161.688 384.565C161.07 386.643 159.766 388.424 158.188 389.268L157.391 388.284C159.422 387.284 161.047 384.612 161.047 382.049V379.518H162.297V382.049ZM168.922 378.315V392.237H167.703V384.065H164.406V383.065H167.703V378.315H168.922ZM182.688 378.315V392.206H181.453V378.315H182.688ZM176.359 382.846C176.359 385.174 177.984 387.424 180.078 388.315L179.391 389.268C177.789 388.557 176.43 387.049 175.781 385.206C175.156 387.159 173.805 388.76 172.203 389.518L171.516 388.565C173.578 387.627 175.156 385.284 175.156 382.846V381.737H171.891V380.737H175.141V378.581H176.359V380.737H179.594V381.737H176.359V382.846ZM196.328 379.221V384.877H189.812V379.221H196.328ZM191.016 380.221V383.909H195.125V380.221H191.016ZM200.531 378.315V386.299H199.328V378.315H200.531ZM196.766 388.206C196.766 389.565 198.984 390.909 201.375 391.206L200.953 392.159C198.859 391.877 196.953 390.893 196.141 389.596C195.297 390.917 193.344 391.877 191.25 392.159L190.812 391.206C193.203 390.94 195.5 389.596 195.5 388.206H191.391V387.252H195.516V385.893H196.734V387.252H200.891V388.206H196.766ZM214.031 379.065V381.331H217.203V378.315H218.422V385.456H217.203V382.331H214.031V384.737H207.578V379.065H214.031ZM208.797 380.049V383.752H212.828V380.049H208.797ZM218.422 386.159V389.487H210.672V391.034H218.953V392.018H209.453V388.549H217.203V387.143H209.422V386.159H218.422ZM228.406 379.581V380.612H222.859V383.487H227.906V384.487H222.859V387.846C225.453 387.846 227.234 387.745 229.359 387.393L229.484 388.409C227.297 388.768 225.422 388.846 222.75 388.862H221.641V379.581H228.406ZM232.234 378.315V392.206H231V378.315H232.234ZM247.297 389.393V390.424H234.578V389.393H240.297V386.002H236.078V379.487H245.719V386.002H241.5V389.393H247.297ZM237.281 380.471V385.018H244.531V380.471H237.281ZM255.219 379.127V380.127H250.25V383.784C252.969 383.799 254.609 383.698 256.516 383.315L256.672 384.299C254.688 384.721 252.984 384.799 250.125 384.784H249.047V379.127H255.219ZM259.266 378.315V381.268H261.359V382.284H259.266V385.331H258.047V378.315H259.266ZM259.266 386.018V389.44H251.641V391.018H259.781V392.018H250.438V388.471H258.047V387.018H250.406V386.018H259.266ZM278.906 384.502V385.456H273.172V386.752H277.281V389.752H269.031V391.112H277.703V392.049H267.812V388.877H276.078V387.674H267.781V386.752H271.969V385.456H266.266V384.502H278.906ZM273.172 378.237V379.534H277.625V380.502H273.266C273.492 381.885 275.664 382.76 278.219 382.924L277.844 383.862C275.523 383.667 273.43 382.948 272.578 381.627C271.727 382.948 269.633 383.667 267.297 383.862L266.938 382.924C269.477 382.76 271.648 381.885 271.891 380.502H267.562V379.534H271.969V378.237H273.172ZM286.672 379.174V383.065H281.891V385.221C284.5 385.221 285.844 385.182 287.484 384.877L287.609 385.893C285.875 386.174 284.469 386.221 281.656 386.221H280.672V382.127H285.453V380.159H280.641V379.174H286.672ZM291.594 378.331V386.862H290.359V384.284H287.594V383.268H290.359V381.393H287.594V380.393H290.359V378.331H291.594ZM291.594 387.612V392.237H290.359V388.612H282.234V387.612H291.594ZM35.9375 414.034C35.0625 414.034 34.3438 413.315 34.3438 412.424C34.3438 411.549 35.0625 410.831 35.9375 410.831C36.8281 410.831 37.5469 411.549 37.5469 412.424C37.5469 413.315 36.8281 414.034 35.9375 414.034ZM53.1094 405.331C55.2969 405.331 56.8438 406.659 56.8438 408.596C56.8438 410.534 55.2969 411.862 53.1094 411.862C50.9219 411.862 49.3438 410.534 49.3594 408.596C49.3438 406.659 50.9219 405.331 53.1094 405.331ZM53.1094 406.409C51.625 406.409 50.5469 407.299 50.5625 408.596C50.5469 409.893 51.625 410.784 53.1094 410.784C54.5781 410.784 55.6406 409.893 55.6406 408.596C55.6406 407.299 54.5781 406.409 53.1094 406.409ZM59.9531 404.315V418.237H58.7344V404.315H59.9531ZM48.6406 414.127C51.2031 414.127 54.7344 414.112 57.8125 413.659L57.9062 414.565C54.7344 415.159 51.3125 415.174 48.8125 415.174L48.6406 414.127ZM73.9062 404.331V414.69H72.6719V411.331H68.9375V410.315H72.6719V408.206H69.125C68.1484 410.401 66.0156 412.073 63.1719 412.987L62.625 412.002C65.875 410.932 68.1094 408.932 68.375 406.424H63.3125V405.409H69.7188C69.7188 406.034 69.6328 406.635 69.4844 407.206H72.6719V404.331H73.9062ZM74.2656 416.877V417.909H65.0625V413.659H66.3125V416.877H74.2656ZM92.1406 404.315V418.206H90.9531V404.315H92.1406ZM89.3438 404.612V417.502H88.1719V410.752H86.3906C86.2578 413.456 85.1094 415.143 83.3906 415.143C81.5781 415.143 80.4062 413.268 80.4062 410.315C80.4062 407.362 81.5781 405.487 83.3906 405.487C85.0781 405.487 86.2188 407.12 86.375 409.737H88.1719V404.612H89.3438ZM83.3906 406.643C82.2656 406.643 81.5469 408.049 81.5625 410.315C81.5469 412.565 82.2656 413.987 83.3906 413.971C84.5156 413.987 85.2344 412.565 85.2344 410.315C85.2344 408.049 84.5156 406.643 83.3906 406.643ZM98.1875 408.268C98.1875 410.471 99.2656 412.862 101.109 413.956L100.406 414.909C99.0703 414.096 98.1094 412.612 97.625 410.924C97.1094 412.768 96.0781 414.354 94.6875 415.206L93.9062 414.284C95.8281 413.159 97 410.69 97 408.315V405.627H98.1875V408.268ZM105.969 404.315V418.206H104.781V404.315H105.969ZM103.094 404.612V417.502H101.938V410.346H99.5781V409.299H101.938V404.612H103.094ZM119.344 404.315V418.237H118.109V404.315H119.344ZM111.953 405.393C114.016 405.409 115.5 407.284 115.5 410.237C115.5 413.19 114.016 415.065 111.953 415.065C109.875 415.065 108.406 413.19 108.406 410.237C108.406 407.284 109.875 405.409 111.953 405.393ZM111.953 406.487C110.562 406.502 109.594 407.971 109.594 410.237C109.594 412.502 110.562 413.971 111.953 413.971C113.344 413.971 114.312 412.502 114.312 410.237C114.312 407.971 113.344 406.502 111.953 406.487ZM124 415.893L122.781 420.143H121.625L122.484 415.893H124ZM131.625 404.909V406.909H135.672V404.909H136.891V410.956H130.422V404.909H131.625ZM131.625 409.956H135.672V407.862H131.625V409.956ZM140.688 404.315V407.331H142.781V408.362H140.688V411.502H139.469V404.315H140.688ZM140.688 412.159V415.518H133.062V417.049H141.203V418.049H131.859V414.581H139.469V413.143H131.828V412.159H140.688ZM156.375 415.487V416.502H143.656V415.487H147.203V412.174H144.812V411.159H146.984V406.627H144.781V405.612H155.156V406.627H152.953V411.159H155.125V412.174H152.734V415.487H156.375ZM148.203 411.159H151.75V406.627H148.203V411.159ZM148.438 415.487H151.516V412.174H148.438V415.487ZM159.766 415.893L158.547 420.143H157.391L158.25 415.893H159.766ZM178.312 415.377V416.424H165.594V415.377H178.312ZM177.094 405.721V406.737H174.891V411.596H177.062V412.596H166.75V411.596H168.922V406.737H166.719V405.721H177.094ZM170.141 411.596H173.688V406.737H170.141V411.596ZM192.141 415.456V416.487H179.422V415.456H185.141V412.831H181.016V408.549H189.328V406.362H180.984V405.346H190.531V409.549H182.234V411.815H190.859V412.831H186.344V415.456H192.141ZM202.344 404.627V412.69H201.156V408.924H199.031V407.909H201.156V404.627H202.344ZM197.359 407.299C197.359 408.815 198.375 410.456 200.141 411.19L199.5 412.127C198.195 411.581 197.281 410.542 196.812 409.346C196.32 410.698 195.352 411.862 193.969 412.471L193.312 411.502C195.125 410.737 196.172 408.956 196.172 407.299V406.471H193.578V405.456H199.812V406.471H197.359V407.299ZM205.047 404.315V412.815H203.875V404.315H205.047ZM205.047 413.424V418.206H203.844V414.424H195.688V413.424H205.047ZM218.328 411.831V412.831H208.719V405.518H218.172V406.549H209.969V408.612H217.875V409.596H209.969V411.831H218.328ZM219.797 415.377V416.393H207.078V415.377H219.797ZM236.406 404.315V418.206H235.172V404.315H236.406ZM232.297 405.831C232.281 409.831 230.422 413.362 225.766 415.596L225.094 414.596C228.852 412.815 230.766 410.151 231.047 406.831H225.734V405.831H232.297ZM249.609 404.331V408.534H251.703V409.565H249.609V414.534H248.391V404.331H249.609ZM250.25 416.877V417.909H240.922V413.534H242.125V416.877H250.25ZM240.547 405.331V407.674H244.594V405.331H245.812V412.19H239.344V405.331H240.547ZM240.547 411.19H244.594V408.643H240.547V411.19ZM268.469 404.315V418.206H267.297V404.315H268.469ZM265.656 404.659V417.487H264.5V410.331H262.156V409.331H264.5V404.659H265.656ZM260.672 408.284C260.672 410.69 261.75 413.081 263.672 414.19L262.922 415.096C261.555 414.276 260.586 412.776 260.109 411.002C259.602 412.917 258.594 414.549 257.203 415.424L256.422 414.502C258.359 413.346 259.484 410.815 259.484 408.284V406.971H256.812V405.956H263.219V406.971H260.672V408.284ZM275.125 406.893C275.125 408.737 276.484 410.424 278.547 411.143L277.922 412.096C276.336 411.534 275.125 410.393 274.531 408.956C273.938 410.534 272.664 411.76 271.031 412.362L270.375 411.409C272.453 410.674 273.906 408.877 273.922 406.893V406.299H270.75V405.299H278.25V406.299H275.125V406.893ZM281.281 404.315V407.987H283.375V409.034H281.281V412.69H280.062V404.315H281.281ZM281.281 413.424V418.206H280.062V414.424H272.188V413.424H281.281ZM296.906 410.19V411.19H291.172V412.565H295.281V415.674H287.031V417.081H295.703V418.049H285.812V414.752H294.078V413.518H285.781V412.565H289.953V411.19H284.25V410.19H296.906ZM295.266 404.784V409.018H285.891V404.784H295.266ZM287.109 405.768V408.034H294.047V405.768H287.109Z" fill="black"/>
<path d="M32.8672 117.388C32.75 116.275 31.8516 115.611 30.4258 115.611C28.9414 115.611 28.1211 116.294 28.1016 117.232C28.082 118.247 29.1562 118.716 30.3672 118.99L31.6367 119.302C34.0586 119.849 35.875 121.079 35.875 123.443C35.875 126.04 33.8438 127.681 30.4062 127.681C26.9883 127.681 24.8008 126.099 24.7227 123.072H27.5742C27.6719 124.497 28.8047 125.22 30.3672 125.22C31.9102 125.22 32.9062 124.497 32.9062 123.443C32.9062 122.486 32.0273 122.036 30.4844 121.646L28.9414 121.275C26.5586 120.689 25.0938 119.497 25.0938 117.427C25.0938 114.849 27.3594 113.15 30.4453 113.15C33.5703 113.15 35.6406 114.888 35.6797 117.388H32.8672ZM43.3164 116.88V119.048H41.3242V124.224C41.3242 125.064 41.7344 125.279 42.3203 125.298C42.6133 125.298 43.1211 125.279 43.4727 125.24V127.525C43.1602 127.583 42.6523 127.622 41.9297 127.622C39.8398 127.622 38.4141 126.685 38.4336 124.634V119.048H36.9688V116.88H38.4336V114.341H41.3242V116.88H43.3164ZM44.625 124.517C44.625 122.154 46.5391 121.372 48.5703 121.255C49.332 121.206 50.7578 121.138 51.207 121.119V120.259C51.1875 119.38 50.582 118.853 49.5078 118.853C48.5312 118.853 47.9062 119.302 47.75 120.025H44.9961C45.1719 118.189 46.7734 116.744 49.5859 116.744C51.8906 116.744 54.0781 117.779 54.0781 120.337V127.486H51.3438V126.021H51.2656C50.7383 126.997 49.7422 127.681 48.1602 127.681C46.1289 127.681 44.625 126.626 44.625 124.517ZM47.3984 124.439C47.3984 125.259 48.0625 125.689 48.9805 125.689C50.2891 125.689 51.2266 124.81 51.207 123.697V122.915C50.7676 122.935 49.5371 123.003 49.0391 123.052C48.043 123.15 47.3984 123.619 47.3984 124.439ZM61.0508 131.685C58.1211 131.685 56.3242 130.376 56.1484 128.365H59C59.1562 129.204 59.957 129.595 61.1094 129.595C62.457 129.595 63.3555 129.029 63.3555 127.544V125.611H63.2188C62.8281 126.47 61.8906 127.329 60.1914 127.329C57.7891 127.329 55.875 125.65 55.875 122.115C55.875 118.521 57.8477 116.744 60.1914 116.744C61.9688 116.744 62.8281 117.798 63.2188 118.658H63.3359V116.88H66.207V127.603C66.207 130.298 64.0586 131.685 61.0508 131.685ZM61.0898 125.161C62.5352 125.161 63.3555 124.029 63.3555 122.154C63.3555 120.259 62.5352 119.048 61.0898 119.048C59.625 119.048 58.8438 120.318 58.8438 122.154C58.8438 123.99 59.625 125.161 61.0898 125.161ZM73.2578 127.701C70.0156 127.701 68.0234 125.591 68.0234 122.232C68.0234 118.951 70.0352 116.744 73.1406 116.744C75.9336 116.744 78.1211 118.501 78.1211 122.115V122.935H70.875C70.875 124.536 71.832 125.533 73.3164 125.533C74.293 125.533 74.9961 125.103 75.2891 124.458H78.043C77.6328 126.411 75.875 127.701 73.2578 127.701ZM70.875 121.119H75.3867C75.3867 119.829 74.4883 118.911 73.1992 118.911C71.8711 118.911 70.9238 119.898 70.875 121.119Z" fill="white"/>
<path d="M25.25 149.638V138.326H32.1094V139.576H26.6562V143.357H31.75V144.591H26.6562V148.388H32.1875V149.638H25.25ZM35.5 144.544V149.638H34.1562V141.154H35.4531V142.482H35.5625C35.9688 141.623 36.75 141.044 38.0469 141.044C39.7656 141.044 40.9062 142.091 40.9062 144.248V149.638H39.5625V144.341C39.5625 143.029 38.8438 142.248 37.6406 142.248C36.4062 142.248 35.5 143.076 35.5 144.544ZM46.5 152.998C44.4531 152.998 43.0625 152.107 42.9062 150.529H44.3125C44.5 151.388 45.2969 151.826 46.5 151.826C47.9531 151.826 48.8438 151.201 48.8438 149.794V148.076H48.7344C48.4531 148.544 47.9062 149.513 46.2656 149.513C44.2031 149.513 42.6562 147.951 42.6562 145.279C42.6562 142.669 44.1562 141.044 46.2812 141.044C47.9219 141.044 48.4531 142.044 48.7656 142.498H48.875V141.154H50.1875V149.873C50.1875 152.06 48.5625 152.998 46.5 152.998ZM46.4531 148.31C48 148.31 48.875 147.201 48.875 145.326C48.875 143.513 48.0312 142.248 46.4531 142.248C44.8281 142.248 44.0156 143.623 44.0156 145.326C44.0156 147.091 44.8438 148.31 46.4531 148.31ZM51.9219 147.232C51.9219 145.279 53.6406 144.841 55.1094 144.732C55.6484 144.693 57.0234 144.623 57.4062 144.607V143.919C57.4062 142.841 56.7656 142.216 55.4844 142.216C54.4062 142.216 53.7656 142.716 53.5781 143.357H52.1719C52.3438 141.998 53.6719 141.044 55.5469 141.044C56.6562 141.044 58.7344 141.373 58.7344 144.044V149.638H57.4062V148.482H57.3438C57.0625 149.06 56.2812 149.841 54.8125 149.841C53.2031 149.841 51.9219 148.888 51.9219 147.232ZM53.2656 147.294C53.2656 148.185 54.0156 148.638 55.0469 148.638C56.5625 148.638 57.4062 147.623 57.4062 146.56V145.701L55.2656 145.857C54.0469 145.935 53.2656 146.373 53.2656 147.294ZM64.3281 152.998C62.2812 152.998 60.8906 152.107 60.7344 150.529H62.1406C62.3281 151.388 63.125 151.826 64.3281 151.826C65.7812 151.826 66.6719 151.201 66.6719 149.794V148.076H66.5625C66.2812 148.544 65.7344 149.513 64.0938 149.513C62.0312 149.513 60.4844 147.951 60.4844 145.279C60.4844 142.669 61.9844 141.044 64.1094 141.044C65.75 141.044 66.2812 142.044 66.5938 142.498H66.7031V141.154H68.0156V149.873C68.0156 152.06 66.3906 152.998 64.3281 152.998ZM64.2812 148.31C65.8281 148.31 66.7031 147.201 66.7031 145.326C66.7031 143.513 65.8594 142.248 64.2812 142.248C62.6562 142.248 61.8438 143.623 61.8438 145.326C61.8438 147.091 62.6719 148.31 64.2812 148.31ZM73.7188 149.81C71.2656 149.81 69.75 148.076 69.75 145.466C69.75 142.857 71.2812 141.044 73.5938 141.044C75.375 141.044 77.25 142.138 77.25 145.279V145.841H71.0938C71.1562 147.638 72.2031 148.623 73.7188 148.623C74.7344 148.623 75.375 148.185 75.6875 147.654H77.125C76.7188 148.935 75.4688 149.81 73.7188 149.81ZM71.1094 144.701H75.8906C75.8906 143.279 74.9844 142.232 73.5938 142.232C72.125 142.232 71.1875 143.388 71.1094 144.701ZM79 149.638V141.154H80.2969V142.482H80.4062C80.7656 141.576 81.5781 141.044 82.6875 141.044C83.7969 141.044 84.5469 141.576 84.9531 142.482H85.0469C85.4844 141.607 86.375 141.044 87.5938 141.044C89.1094 141.044 90.1875 141.966 90.1875 143.966V149.638H88.8438V143.982C88.8438 142.732 88.0469 142.248 87.125 142.248C85.9375 142.248 85.2656 143.044 85.2656 144.123V149.638H83.9062V143.841C83.9062 142.888 83.2188 142.248 82.25 142.248C81.2344 142.248 80.3438 143.107 80.3438 144.341V149.638H79ZM95.9062 149.81C93.4531 149.81 91.9375 148.076 91.9375 145.466C91.9375 142.857 93.4688 141.044 95.7812 141.044C97.5625 141.044 99.4375 142.138 99.4375 145.279V145.841H93.2812C93.3438 147.638 94.3906 148.623 95.9062 148.623C96.9219 148.623 97.5625 148.185 97.875 147.654H99.3125C98.9062 148.935 97.6562 149.81 95.9062 149.81ZM93.2969 144.701H98.0781C98.0781 143.279 97.1719 142.232 95.7812 142.232C94.3125 142.232 93.375 143.388 93.2969 144.701ZM102.531 144.544V149.638H101.188V141.154H102.484V142.482H102.594C103 141.623 103.781 141.044 105.078 141.044C106.797 141.044 107.938 142.091 107.938 144.248V149.638H106.594V144.341C106.594 143.029 105.875 142.248 104.672 142.248C103.438 142.248 102.531 143.076 102.531 144.544ZM113.797 141.154V142.279H112.016V147.201C112.016 148.294 112.547 148.466 113.125 148.466C113.375 148.466 113.719 148.451 113.922 148.435V149.685C113.719 149.716 113.375 149.748 112.984 149.748C111.859 149.748 110.656 149.044 110.656 147.544V142.279H109.375V141.154H110.656V139.123H112.016V141.154H113.797ZM117.297 148.591L116.078 152.841H114.922L115.781 148.591H117.297ZM25.75 175.638H24.2812L28.4219 164.326H29.9062L34.0469 175.638H32.5625L31.4375 172.451H26.8906L25.75 175.638ZM27.3125 171.216H31L29.2031 166.154H29.1094L27.3125 171.216ZM35.4062 178.826V167.154H36.7031V168.498H36.8594C37.1406 168.044 37.6719 167.044 39.3125 167.044C41.4375 167.044 42.9219 168.732 42.9219 171.419C42.9219 174.107 41.4375 175.81 39.3281 175.81C37.7031 175.81 37.1406 174.81 36.8594 174.341H36.75V178.826H35.4062ZM36.7188 171.388C36.7188 173.294 37.5781 174.607 39.1406 174.607C40.75 174.607 41.5781 173.201 41.5781 171.388C41.5781 169.623 40.7656 168.248 39.1406 168.248C37.5469 168.248 36.7188 169.513 36.7188 171.388ZM44.6719 178.826V167.154H45.9688V168.498H46.125C46.4062 168.044 46.9375 167.044 48.5781 167.044C50.7031 167.044 52.1875 168.732 52.1875 171.419C52.1875 174.107 50.7031 175.81 48.5938 175.81C46.9688 175.81 46.4062 174.81 46.125 174.341H46.0156V178.826H44.6719ZM45.9844 171.388C45.9844 173.294 46.8438 174.607 48.4062 174.607C50.0156 174.607 50.8438 173.201 50.8438 171.388C50.8438 169.623 50.0312 168.248 48.4062 168.248C46.8125 168.248 45.9844 169.513 45.9844 171.388ZM55.2812 164.326V175.638H53.9375V164.326H55.2812ZM57.4219 175.638V167.154H58.7656V175.638H57.4219ZM58.0938 165.748C57.5781 165.748 57.1562 165.357 57.1562 164.857C57.1562 164.357 57.5781 163.966 58.0938 163.966C58.6094 163.966 59.0469 164.357 59.0469 164.857C59.0469 165.357 58.6094 165.748 58.0938 165.748ZM64.375 175.81C61.9688 175.81 60.5 173.982 60.5 171.435C60.5 168.857 62.0312 167.044 64.3438 167.044C66.1562 167.044 67.5 168.107 67.7188 169.716H66.375C66.1875 168.935 65.5 168.232 64.375 168.232C62.8594 168.232 61.8438 169.482 61.8438 171.388C61.8438 173.357 62.8281 174.607 64.375 174.607C65.375 174.607 66.1406 174.076 66.375 173.138H67.7188C67.5 174.654 66.2656 175.81 64.375 175.81ZM68.9688 173.232C68.9688 171.279 70.6875 170.841 72.1562 170.732C72.6953 170.693 74.0703 170.623 74.4531 170.607V169.919C74.4531 168.841 73.8125 168.216 72.5312 168.216C71.4531 168.216 70.8125 168.716 70.625 169.357H69.2188C69.3906 167.998 70.7188 167.044 72.5938 167.044C73.7031 167.044 75.7812 167.373 75.7812 170.044V175.638H74.4531V174.482H74.3906C74.1094 175.06 73.3281 175.841 71.8594 175.841C70.25 175.841 68.9688 174.888 68.9688 173.232ZM70.3125 173.294C70.3125 174.185 71.0625 174.638 72.0938 174.638C73.6094 174.638 74.4531 173.623 74.4531 172.56V171.701L72.3125 171.857C71.0938 171.935 70.3125 172.373 70.3125 173.294ZM81.6406 167.154V168.279H79.8594V173.201C79.8594 174.294 80.3906 174.466 80.9688 174.466C81.2188 174.466 81.5625 174.451 81.7656 174.435V175.685C81.5625 175.716 81.2188 175.748 80.8281 175.748C79.7031 175.748 78.5 175.044 78.5 173.544V168.279H77.2188V167.154H78.5V165.123H79.8594V167.154H81.6406ZM83.375 175.638V167.154H84.7188V175.638H83.375ZM84.0469 165.748C83.5312 165.748 83.1094 165.357 83.1094 164.857C83.1094 164.357 83.5312 163.966 84.0469 163.966C84.5625 163.966 85 164.357 85 164.857C85 165.357 84.5625 165.748 84.0469 165.748ZM90.3281 175.81C88.0156 175.81 86.4531 174.076 86.4531 171.435C86.4531 168.794 88.0156 167.044 90.3281 167.044C92.625 167.044 94.1719 168.794 94.1719 171.435C94.1719 174.076 92.625 175.81 90.3281 175.81ZM90.3281 174.623C92.0312 174.623 92.8281 173.123 92.8281 171.435C92.8281 169.748 92.0312 168.232 90.3281 168.232C88.5938 168.232 87.7969 169.748 87.7969 171.435C87.7969 173.123 88.5938 174.623 90.3281 174.623ZM97.2812 170.544V175.638H95.9375V167.154H97.2344V168.482H97.3438C97.75 167.623 98.5312 167.044 99.8281 167.044C101.547 167.044 102.688 168.091 102.688 170.248V175.638H101.344V170.341C101.344 169.029 100.625 168.248 99.4219 168.248C98.1875 168.248 97.2812 169.076 97.2812 170.544Z" fill="white"/>
<path d="M177.75 149.535H176.281L180.422 138.223H181.906L186.047 149.535H184.562L183.438 146.348H178.891L177.75 149.535ZM179.312 145.113H183L181.203 140.051H181.109L179.312 145.113ZM188.75 144.441V149.535H187.406V141.051H188.703V142.379H188.812C189.219 141.52 190 140.941 191.297 140.941C193.016 140.941 194.156 141.988 194.156 144.145V149.535H192.812V144.238C192.812 142.926 192.094 142.145 190.891 142.145C189.656 142.145 188.75 142.973 188.75 144.441ZM195.906 147.129C195.906 145.176 197.625 144.738 199.094 144.629C199.633 144.59 201.008 144.52 201.391 144.504V143.816C201.391 142.738 200.75 142.113 199.469 142.113C198.391 142.113 197.75 142.613 197.562 143.254H196.156C196.328 141.895 197.656 140.941 199.531 140.941C200.641 140.941 202.719 141.27 202.719 143.941V149.535H201.391V148.379H201.328C201.047 148.957 200.266 149.738 198.797 149.738C197.188 149.738 195.906 148.785 195.906 147.129ZM197.25 147.191C197.25 148.082 198 148.535 199.031 148.535C200.547 148.535 201.391 147.52 201.391 146.457V145.598L199.25 145.754C198.031 145.832 197.25 146.27 197.25 147.191ZM206.219 138.223V149.535H204.875V138.223H206.219ZM209.219 152.723C208.922 152.723 208.641 152.707 208.469 152.691V151.488C208.609 151.504 208.922 151.52 209.125 151.52C209.672 151.52 210.125 151.473 210.578 150.238L210.828 149.598L207.688 141.051H209.156L211.469 147.785H211.562L213.875 141.051H215.344L211.75 150.754C211.25 152.082 210.422 152.723 209.219 152.723ZM220.531 141.051V142.176H218.75V147.098C218.75 148.191 219.281 148.363 219.859 148.363C220.109 148.363 220.453 148.348 220.656 148.332V149.582C220.453 149.613 220.109 149.645 219.719 149.645C218.594 149.645 217.391 148.941 217.391 147.441V142.176H216.109V141.051H217.391V139.02H218.75V141.051H220.531ZM222.266 149.535V141.051H223.609V149.535H222.266ZM222.938 139.645C222.422 139.645 222 139.254 222 138.754C222 138.254 222.422 137.863 222.938 137.863C223.453 137.863 223.891 138.254 223.891 138.754C223.891 139.254 223.453 139.645 222.938 139.645ZM229.219 149.707C226.812 149.707 225.344 147.879 225.344 145.332C225.344 142.754 226.875 140.941 229.188 140.941C231 140.941 232.344 142.004 232.562 143.613H231.219C231.031 142.832 230.344 142.129 229.219 142.129C227.703 142.129 226.688 143.379 226.688 145.285C226.688 147.254 227.672 148.504 229.219 148.504C230.219 148.504 230.984 147.973 231.219 147.035H232.562C232.344 148.551 231.109 149.707 229.219 149.707ZM233.812 147.129C233.812 145.176 235.531 144.738 237 144.629C237.539 144.59 238.914 144.52 239.297 144.504V143.816C239.297 142.738 238.656 142.113 237.375 142.113C236.297 142.113 235.656 142.613 235.469 143.254H234.062C234.234 141.895 235.562 140.941 237.438 140.941C238.547 140.941 240.625 141.27 240.625 143.941V149.535H239.297V148.379H239.234C238.953 148.957 238.172 149.738 236.703 149.738C235.094 149.738 233.812 148.785 233.812 147.129ZM235.156 147.191C235.156 148.082 235.906 148.535 236.938 148.535C238.453 148.535 239.297 147.52 239.297 146.457V145.598L237.156 145.754C235.938 145.832 235.156 146.27 235.156 147.191ZM244.125 138.223V149.535H242.781V138.223H244.125ZM248.031 148.488L246.812 152.738H245.656L246.516 148.488H248.031ZM176.625 165.473V164.223H185.156V165.473H181.609V175.535H180.188V165.473H176.625ZM185.969 175.535V167.051H187.266V168.348H187.359C187.672 167.488 188.547 166.91 189.547 166.91C189.75 166.91 190.094 166.926 190.25 166.941V168.301C190.156 168.27 189.781 168.207 189.438 168.207C188.219 168.207 187.312 169.051 187.312 170.191V175.535H185.969ZM191.141 173.129C191.141 171.176 192.859 170.738 194.328 170.629C194.867 170.59 196.242 170.52 196.625 170.504V169.816C196.625 168.738 195.984 168.113 194.703 168.113C193.625 168.113 192.984 168.613 192.797 169.254H191.391C191.562 167.895 192.891 166.941 194.766 166.941C195.875 166.941 197.953 167.27 197.953 169.941V175.535H196.625V174.379H196.562C196.281 174.957 195.5 175.738 194.031 175.738C192.422 175.738 191.141 174.785 191.141 173.129ZM192.484 173.191C192.484 174.082 193.234 174.535 194.266 174.535C195.781 174.535 196.625 173.52 196.625 172.457V171.598L194.484 171.754C193.266 171.832 192.484 172.27 192.484 173.191ZM201.453 170.441V175.535H200.109V167.051H201.406V168.379H201.516C201.922 167.52 202.703 166.941 204 166.941C205.719 166.941 206.859 167.988 206.859 170.145V175.535H205.516V170.238C205.516 168.926 204.797 168.145 203.594 168.145C202.359 168.145 201.453 168.973 201.453 170.441ZM213.734 169.254C213.547 168.551 213.016 168.082 212.016 168.082C210.969 168.082 210.219 168.645 210.219 169.363C210.219 169.926 210.672 170.316 211.672 170.551L212.938 170.863C214.453 171.223 215.203 171.973 215.203 173.16C215.203 174.629 214 175.707 211.875 175.707C209.969 175.707 208.828 174.863 208.609 173.316H210.016C210.172 174.145 210.781 174.535 211.844 174.535C213.047 174.535 213.812 174.035 213.812 173.238C213.812 172.645 213.391 172.238 212.422 172.02L211.141 171.723C209.656 171.379 208.875 170.566 208.875 169.441C208.875 167.988 210.141 166.941 212.016 166.941C213.766 166.941 214.875 167.879 215.047 169.254H213.734ZM220.75 167.051V168.176H218.875V175.535H217.516V168.176H216.156V167.051H217.516V165.895C217.516 164.52 218.438 163.691 219.938 163.691C220.266 163.691 220.656 163.738 220.938 163.785V164.988C220.656 164.941 220.406 164.926 220.234 164.926C219.297 164.926 218.875 165.316 218.875 166.191V167.051H220.75ZM225.453 175.707C223.141 175.707 221.578 173.973 221.578 171.332C221.578 168.691 223.141 166.941 225.453 166.941C227.75 166.941 229.297 168.691 229.297 171.332C229.297 173.973 227.75 175.707 225.453 175.707ZM225.453 174.52C227.156 174.52 227.953 173.02 227.953 171.332C227.953 169.645 227.156 168.129 225.453 168.129C223.719 168.129 222.922 169.645 222.922 171.332C222.922 173.02 223.719 174.52 225.453 174.52ZM231.062 175.535V167.051H232.359V168.348H232.453C232.766 167.488 233.641 166.91 234.641 166.91C234.844 166.91 235.188 166.926 235.344 166.941V168.301C235.25 168.27 234.875 168.207 234.531 168.207C233.312 168.207 232.406 169.051 232.406 170.191V175.535H231.062ZM236.656 175.535V167.051H237.953V168.379H238.062C238.422 167.473 239.234 166.941 240.344 166.941C241.453 166.941 242.203 167.473 242.609 168.379H242.703C243.141 167.504 244.031 166.941 245.25 166.941C246.766 166.941 247.844 167.863 247.844 169.863V175.535H246.5V169.879C246.5 168.629 245.703 168.145 244.781 168.145C243.594 168.145 242.922 168.941 242.922 170.02V175.535H241.562V169.738C241.562 168.785 240.875 168.145 239.906 168.145C238.891 168.145 238 169.004 238 170.238V175.535H236.656ZM249.594 173.129C249.594 171.176 251.312 170.738 252.781 170.629C253.32 170.59 254.695 170.52 255.078 170.504V169.816C255.078 168.738 254.438 168.113 253.156 168.113C252.078 168.113 251.438 168.613 251.25 169.254H249.844C250.016 167.895 251.344 166.941 253.219 166.941C254.328 166.941 256.406 167.27 256.406 169.941V175.535H255.078V174.379H255.016C254.734 174.957 253.953 175.738 252.484 175.738C250.875 175.738 249.594 174.785 249.594 173.129ZM250.938 173.191C250.938 174.082 251.688 174.535 252.719 174.535C254.234 174.535 255.078 173.52 255.078 172.457V171.598L252.938 171.754C251.719 171.832 250.938 172.27 250.938 173.191ZM262.266 167.051V168.176H260.484V173.098C260.484 174.191 261.016 174.363 261.594 174.363C261.844 174.363 262.188 174.348 262.391 174.332V175.582C262.188 175.613 261.844 175.645 261.453 175.645C260.328 175.645 259.125 174.941 259.125 173.441V168.176H257.844V167.051H259.125V165.02H260.484V167.051H262.266ZM264 175.535V167.051H265.344V175.535H264ZM264.672 165.645C264.156 165.645 263.734 165.254 263.734 164.754C263.734 164.254 264.156 163.863 264.672 163.863C265.188 163.863 265.625 164.254 265.625 164.754C265.625 165.254 265.188 165.645 264.672 165.645ZM274.469 167.051L271.328 175.535H269.938L266.812 167.051H268.281L270.594 173.785H270.688L273 167.051H274.469ZM279.203 175.707C276.75 175.707 275.234 173.973 275.234 171.363C275.234 168.754 276.766 166.941 279.078 166.941C280.859 166.941 282.734 168.035 282.734 171.176V171.738H276.578C276.641 173.535 277.688 174.52 279.203 174.52C280.219 174.52 280.859 174.082 281.172 173.551H282.609C282.203 174.832 280.953 175.707 279.203 175.707ZM276.594 170.598H281.375C281.375 169.176 280.469 168.129 279.078 168.129C277.609 168.129 276.672 169.285 276.594 170.598Z" fill="white"/>
<path d="M176.812 127.28V113.139H182.359C185.582 113.139 187.418 114.955 187.418 117.748C187.418 119.682 186.529 121.088 184.918 121.772L187.926 127.28H184.684L181.988 122.26H179.742V127.28H176.812ZM179.742 119.877H181.812C183.551 119.877 184.391 119.155 184.391 117.748C184.391 116.323 183.551 115.541 181.812 115.541H179.742V119.877ZM194.02 127.494C190.777 127.494 188.785 125.385 188.785 122.026C188.785 118.744 190.797 116.537 193.902 116.537C196.695 116.537 198.883 118.295 198.883 121.909V122.729H191.637C191.637 124.33 192.594 125.326 194.078 125.326C195.055 125.326 195.758 124.897 196.051 124.252H198.805C198.395 126.205 196.637 127.494 194.02 127.494ZM191.637 120.912H196.148C196.148 119.623 195.25 118.705 193.961 118.705C192.633 118.705 191.686 119.692 191.637 120.912ZM200.191 124.311C200.191 121.948 202.105 121.166 204.137 121.049C204.898 121 206.324 120.932 206.773 120.912V120.053C206.754 119.174 206.148 118.647 205.074 118.647C204.098 118.647 203.473 119.096 203.316 119.819H200.562C200.738 117.983 202.34 116.537 205.152 116.537C207.457 116.537 209.645 117.573 209.645 120.131V127.28H206.91V125.815H206.832C206.305 126.791 205.309 127.475 203.727 127.475C201.695 127.475 200.191 126.42 200.191 124.311ZM202.965 124.233C202.965 125.053 203.629 125.483 204.547 125.483C205.855 125.483 206.793 124.604 206.773 123.491V122.709C206.334 122.729 205.104 122.797 204.605 122.846C203.609 122.944 202.965 123.412 202.965 124.233ZM215.758 127.455C213.336 127.455 211.441 125.522 211.441 121.987C211.441 118.354 213.414 116.537 215.758 116.537C217.535 116.537 218.375 117.592 218.766 118.451H218.863V113.139H221.754V127.28H218.902V125.58H218.766C218.355 126.459 217.477 127.455 215.758 127.455ZM216.656 125.151C218.102 125.151 218.922 123.881 218.922 121.967C218.922 120.053 218.102 118.842 216.656 118.842C215.191 118.842 214.41 120.112 214.41 121.967C214.41 123.842 215.191 125.151 216.656 125.151ZM228.883 127.494C225.641 127.494 223.648 125.385 223.648 122.026C223.648 118.744 225.66 116.537 228.766 116.537C231.559 116.537 233.746 118.295 233.746 121.909V122.729H226.5C226.5 124.33 227.457 125.326 228.941 125.326C229.918 125.326 230.621 124.897 230.914 124.252H233.668C233.258 126.205 231.5 127.494 228.883 127.494ZM226.5 120.912H231.012C231.012 119.623 230.113 118.705 228.824 118.705C227.496 118.705 226.549 119.692 226.5 120.912ZM235.562 127.28V116.674H238.355V118.51H238.473C238.863 117.201 239.84 116.518 241.031 116.518C241.324 116.518 241.695 116.557 241.949 116.616V119.194C241.676 119.116 241.129 119.037 240.719 119.037C239.41 119.037 238.453 119.955 238.453 121.244V127.28H235.562ZM250.953 113.139V127.28H248.023V113.139H250.953ZM257.184 127.455C254.762 127.455 252.867 125.522 252.867 121.987C252.867 118.354 254.84 116.537 257.184 116.537C258.961 116.537 259.801 117.592 260.191 118.451H260.289V113.139H263.18V127.28H260.328V125.58H260.191C259.781 126.459 258.902 127.455 257.184 127.455ZM258.082 125.151C259.527 125.151 260.348 123.881 260.348 121.967C260.348 120.053 259.527 118.842 258.082 118.842C256.617 118.842 255.836 120.112 255.836 121.967C255.836 123.842 256.617 125.151 258.082 125.151ZM270.309 127.494C267.066 127.494 265.074 125.385 265.074 122.026C265.074 118.744 267.086 116.537 270.191 116.537C272.984 116.537 275.172 118.295 275.172 121.909V122.729H267.926C267.926 124.33 268.883 125.326 270.367 125.326C271.344 125.326 272.047 124.897 272.34 124.252H275.094C274.684 126.205 272.926 127.494 270.309 127.494ZM267.926 120.912H272.438C272.438 119.623 271.539 118.705 270.25 118.705C268.922 118.705 267.975 119.692 267.926 120.912ZM279.879 121.147V127.28H276.988V116.674H279.742V118.53H279.859C280.348 117.299 281.48 116.537 283.043 116.537C285.25 116.537 286.715 118.041 286.695 120.522V127.28H283.824V121.03C283.824 119.721 283.102 118.94 281.91 118.94C280.699 118.94 279.879 119.741 279.879 121.147ZM294.527 116.674V118.842H292.535V124.018C292.535 124.858 292.945 125.073 293.531 125.092C293.824 125.092 294.332 125.073 294.684 125.034V127.319C294.371 127.377 293.863 127.416 293.141 127.416C291.051 127.416 289.625 126.479 289.645 124.428V118.842H288.18V116.674H289.645V114.135H292.535V116.674H294.527ZM296.344 127.28V116.674H299.234V127.28H296.344ZM297.789 115.287C296.91 115.287 296.207 114.623 296.207 113.823C296.207 113.002 296.91 112.338 297.789 112.338C298.648 112.338 299.352 113.002 299.352 113.823C299.352 114.623 298.648 115.287 297.789 115.287ZM307.066 116.674V118.842H305.074V124.018C305.074 124.858 305.484 125.073 306.07 125.092C306.363 125.092 306.871 125.073 307.223 125.034V127.319C306.91 127.377 306.402 127.416 305.68 127.416C303.59 127.416 302.164 126.479 302.184 124.428V118.842H300.719V116.674H302.184V114.135H305.074V116.674H307.066ZM310.582 131.264C310.016 131.264 309.488 131.244 309.117 131.205V128.959C309.488 128.979 309.918 128.998 310.289 128.998C310.855 128.998 311.324 128.94 311.676 128.022L311.852 127.573L308.043 116.674H311.07L313.297 124.487H313.414L315.66 116.674H318.727L314.586 128.451C313.98 130.151 312.828 131.264 310.582 131.264Z" fill="white"/>
<defs>
<linearGradient id="paint0_linear_2204_3086" x1="15.9074" y1="27.668" x2="356.196" y2="441.547" gradientUnits="userSpaceOnUse">
<stop stop-color="#3182F6"/>
<stop offset="1" stop-color="#004DBC"/>
</linearGradient>
<linearGradient id="paint1_linear_2204_3086" x1="16.2514" y1="241.457" x2="122.332" y2="241.457" gradientUnits="userSpaceOnUse">
<stop stop-color="#3182F6"/>
<stop offset="1" stop-color="#A009FF"/>
</linearGradient>
<linearGradient id="paint2_linear_2204_3086" x1="18.8943" y1="344.84" x2="88.9657" y2="344.84" gradientUnits="userSpaceOnUse">
<stop stop-color="#3182F6"/>
<stop offset="1" stop-color="#A009FF"/>
</linearGradient>
</defs>
</svg>
