<svg width="800" height="260" viewBox="0 0 800 260" fill="none" xmlns="http://www.w3.org/2000/svg">
<rect x="0.5" y="0.5" width="799" height="259" rx="14.5" fill="white" stroke="url(#paint0_linear_590_1004)"/>
<path d="M304.145 81.0957C302.668 81.0957 301.455 79.8828 301.455 78.3799C301.455 76.9033 302.668 75.6904 304.145 75.6904C305.647 75.6904 306.86 76.9033 306.86 78.3799C306.86 79.8828 305.647 81.0957 304.145 81.0957ZM326.609 86V66.9102H338.185V69.0195H328.982V75.4004H337.578V77.4834H328.982V83.8906H338.316V86H326.609ZM343.353 71.6826L346.728 77.5098L350.129 71.6826H352.739L348.125 78.8281L352.739 86H350.155L346.728 80.4629L343.353 86H340.742L345.251 78.8281L340.742 71.6826H343.353ZM360.729 86.29C356.668 86.29 354.189 83.2051 354.189 78.9072C354.189 74.5566 356.773 71.498 360.676 71.498C363.734 71.498 366.002 73.291 366.371 76.0068H364.104C363.787 74.6885 362.627 73.502 360.729 73.502C358.171 73.502 356.457 75.6113 356.457 78.8281C356.457 82.1504 358.118 84.2598 360.729 84.2598C362.416 84.2598 363.708 83.3633 364.104 81.7812H366.371C366.002 84.3389 363.919 86.29 360.729 86.29ZM375.178 86.29C371.038 86.29 368.48 83.3633 368.48 78.96C368.48 74.5566 371.064 71.498 374.967 71.498C377.973 71.498 381.137 73.3438 381.137 78.6436V79.5928H370.748C370.854 82.625 372.62 84.2861 375.178 84.2861C376.892 84.2861 377.973 83.5479 378.5 82.6514H380.926C380.24 84.8135 378.131 86.29 375.178 86.29ZM370.774 77.668H378.843C378.843 75.2686 377.313 73.502 374.967 73.502C372.488 73.502 370.906 75.4531 370.774 77.668ZM386.357 66.9102V86H384.09V66.9102H386.357ZM392.237 66.9102V86H389.97V66.9102H392.237ZM401.861 86.29C397.722 86.29 395.164 83.3633 395.164 78.96C395.164 74.5566 397.748 71.498 401.65 71.498C404.656 71.498 407.82 73.3438 407.82 78.6436V79.5928H397.432C397.537 82.625 399.304 84.2861 401.861 84.2861C403.575 84.2861 404.656 83.5479 405.184 82.6514H407.609C406.924 84.8135 404.814 86.29 401.861 86.29ZM397.458 77.668H405.526C405.526 75.2686 403.997 73.502 401.65 73.502C399.172 73.502 397.59 75.4531 397.458 77.668ZM413.041 77.4043V86H410.773V71.6826H412.962V73.9238H413.146C413.832 72.4736 415.15 71.498 417.339 71.498C420.239 71.498 422.164 73.2646 422.164 76.9033V86H419.896V77.0615C419.896 74.8467 418.684 73.5283 416.653 73.5283C414.57 73.5283 413.041 74.9258 413.041 77.4043ZM431.656 86.29C427.596 86.29 425.117 83.2051 425.117 78.9072C425.117 74.5566 427.701 71.498 431.604 71.498C434.662 71.498 436.93 73.291 437.299 76.0068H435.031C434.715 74.6885 433.555 73.502 431.656 73.502C429.099 73.502 427.385 75.6113 427.385 78.8281C427.385 82.1504 429.046 84.2598 431.656 84.2598C433.344 84.2598 434.636 83.3633 435.031 81.7812H437.299C436.93 84.3389 434.847 86.29 431.656 86.29ZM446.105 86.29C441.966 86.29 439.408 83.3633 439.408 78.96C439.408 74.5566 441.992 71.498 445.895 71.498C448.9 71.498 452.064 73.3438 452.064 78.6436V79.5928H441.676C441.781 82.625 443.548 84.2861 446.105 84.2861C447.819 84.2861 448.9 83.5479 449.428 82.6514H451.854C451.168 84.8135 449.059 86.29 446.105 86.29ZM441.702 77.668H449.771C449.771 75.2686 448.241 73.502 445.895 73.502C443.416 73.502 441.834 75.4531 441.702 77.668ZM456.626 86.1582C455.703 86.1582 454.912 85.3936 454.938 84.4443C454.912 83.5215 455.703 82.7568 456.626 82.7568C457.549 82.7568 458.313 83.5215 458.313 84.4443C458.313 85.3936 457.549 86.1582 456.626 86.1582ZM456.626 75.5586C455.703 75.5586 454.912 74.7939 454.938 73.8447C454.912 72.9219 455.703 72.1572 456.626 72.1572C457.549 72.1572 458.313 72.9219 458.313 73.8447C458.313 74.7939 457.549 75.5586 456.626 75.5586ZM486.764 70.7598V72.4209H479.486V75.4004H489.137V77.1143H467.779V75.4004H477.43V72.4209H470.706V65.2227H472.763V70.7598H486.764ZM486.79 79.4609V81.1221H483.151V86.1318H486.975V87.8193H469.968V86.1318H473.791V81.1221H470.179V79.4609H486.79ZM475.848 86.1318H481.121V81.1221H475.848V86.1318ZM512.472 77.0615V78.749H491.114V77.0615H512.472ZM510.099 85.8945V87.6348H493.883V80.8057H495.966V85.8945H510.099ZM501.793 65.5391C506.829 65.5127 510.072 67.2529 510.072 70.1797C510.072 73.1064 506.829 74.8467 501.793 74.8467C496.704 74.8467 493.487 73.1064 493.487 70.1797C493.487 67.2529 496.704 65.5127 501.793 65.5391ZM501.793 67.2002C498.022 67.2002 495.597 68.334 495.623 70.1797C495.597 72.0254 498.022 73.1592 501.793 73.1592C505.537 73.1592 507.963 72.0254 507.963 70.1797C507.963 68.334 505.537 67.2002 501.793 67.2002ZM532.985 66.8838C532.985 70.1797 537.31 73.0537 541.528 73.6338L540.685 75.3213C537.046 74.7148 533.447 72.6978 531.931 69.8105C530.428 72.7109 526.815 74.7148 523.177 75.3213L522.333 73.6338C526.552 73.0537 530.85 70.2324 530.85 66.8838V65.5391H532.985V66.8838ZM542.583 77.9053V79.6455H532.88V88.1357H530.85V79.6455H521.226V77.9053H542.583ZM551.021 65.8027C554.171 65.7764 556.558 67.6089 557.006 70.3115H561.91V64.6953H563.993V77.2725H561.91V72.0254H557.032C556.61 74.7939 554.198 76.6396 551.021 76.6396C547.461 76.6396 544.93 74.4248 544.93 71.208C544.93 68.0176 547.461 65.7764 551.021 65.8027ZM551.021 67.5693C548.621 67.543 546.907 69.0459 546.907 71.208C546.907 73.3438 548.621 74.8994 551.021 74.8994C553.394 74.8994 555.081 73.3438 555.081 71.208C555.081 69.0459 553.394 67.543 551.021 67.5693ZM550.968 78.459V81.4385H561.91V78.459H563.993V87.8193H548.885V78.459H550.968ZM550.968 86.1318H561.91V83.0996H550.968V86.1318ZM594.052 64.6953V88.1357H591.969V64.6953H594.052ZM587.117 67.2529C587.091 74.0029 583.953 79.9619 576.096 83.7324L574.962 82.0449C581.303 79.0391 584.533 74.5435 585.008 68.9404H576.043V67.2529H587.117ZM610.03 67.6221C610.004 70.4961 613.959 72.8428 618.099 73.4229L617.281 75.0576C613.498 74.5171 609.964 72.6187 608.686 69.8633C607.42 72.6187 603.9 74.5171 600.09 75.0576L599.325 73.4229C603.465 72.8428 607.341 70.4961 607.341 67.6221V67.5693H599.958V65.8818H617.466V67.5693H610.03V67.6221ZM619.443 76.7715V78.4854H609.898V83.2842H607.842V78.4854H597.98V76.7715H619.443ZM617.044 85.8945V87.6348H600.723V80.9375H602.806V85.8945H617.044ZM649.555 78.0635V79.7773H643.886V88.1357H641.803V79.7773H635.791V88.1357H633.655V79.7773H628.092V78.0635H649.555ZM638.771 65.6445C643.701 65.6445 647.023 67.6221 647.023 70.7598C647.023 73.8711 643.701 75.8486 638.771 75.8223C633.84 75.8486 630.518 73.8711 630.518 70.7598C630.518 67.6221 633.84 65.6445 638.771 65.6445ZM638.771 67.332C635.105 67.332 632.627 68.6768 632.653 70.7598C632.627 72.8428 635.105 74.1611 638.771 74.1611C642.409 74.1611 644.914 72.8428 644.914 70.7598C644.914 68.6768 642.409 67.332 638.771 67.332ZM659.838 71.8936C659.838 75.875 662.738 79.9092 666.192 81.4121L665.032 83.0469C662.29 81.7944 659.917 79.0918 658.836 75.8486C657.729 79.2896 655.369 82.2822 652.692 83.627L651.453 81.9922C654.802 80.3838 657.729 75.9541 657.755 71.8936V68.835H652.218V67.1211H665.428V68.835H659.838V71.8936ZM670.78 64.6953V88.1357H668.697V64.6953H670.78ZM304.145 135.096C302.668 135.096 301.455 133.883 301.455 132.38C301.455 130.903 302.668 129.69 304.145 129.69C305.647 129.69 306.86 130.903 306.86 132.38C306.86 133.883 305.647 135.096 304.145 135.096ZM339.107 120.91H341.48V133.54C341.48 137.469 338.554 140.343 334.045 140.343C329.536 140.343 326.609 137.469 326.609 133.54V120.91H328.982V133.355C328.982 136.124 330.907 138.128 334.045 138.128C337.209 138.128 339.107 136.124 339.107 133.355V120.91ZM347.677 131.404V140H345.409V125.683H347.598V127.924H347.782C348.468 126.474 349.786 125.498 351.975 125.498C354.875 125.498 356.8 127.265 356.8 130.903V140H354.532V131.062C354.532 128.847 353.319 127.528 351.289 127.528C349.206 127.528 347.677 128.926 347.677 131.404ZM360.438 140V125.683H362.706V140H360.438ZM361.572 123.31C360.702 123.31 359.99 122.65 359.99 121.807C359.99 120.963 360.702 120.304 361.572 120.304C362.442 120.304 363.181 120.963 363.181 121.807C363.181 122.65 362.442 123.31 361.572 123.31ZM372.726 125.683V127.581H369.562V140H367.268V127.581H364.974V125.683H367.268V123.731C367.268 121.411 368.823 120.014 371.354 120.014C371.908 120.014 372.567 120.093 373.042 120.172V122.202C372.567 122.123 372.146 122.097 371.855 122.097C370.273 122.097 369.562 122.756 369.562 124.232V125.683H372.726ZM380.662 140.29C376.76 140.29 374.123 137.363 374.123 132.907C374.123 128.451 376.76 125.498 380.662 125.498C384.538 125.498 387.148 128.451 387.148 132.907C387.148 137.363 384.538 140.29 380.662 140.29ZM380.662 138.286C383.536 138.286 384.881 135.755 384.881 132.907C384.881 130.06 383.536 127.502 380.662 127.502C377.735 127.502 376.391 130.06 376.391 132.907C376.391 135.755 377.735 138.286 380.662 138.286ZM390.128 140V125.683H392.316V127.871H392.475C393.002 126.421 394.479 125.445 396.166 125.445C396.509 125.445 397.089 125.472 397.353 125.498V127.792C397.194 127.739 396.562 127.634 395.981 127.634C393.925 127.634 392.396 129.058 392.396 130.982V140H390.128ZM399.567 140V125.683H401.756V127.924H401.94C402.547 126.395 403.918 125.498 405.79 125.498C407.662 125.498 408.928 126.395 409.613 127.924H409.771C410.51 126.447 412.013 125.498 414.069 125.498C416.627 125.498 418.446 127.054 418.446 130.429V140H416.179V130.455C416.179 128.346 414.834 127.528 413.278 127.528C411.274 127.528 410.141 128.873 410.141 130.692V140H407.847V130.218C407.847 128.609 406.687 127.528 405.052 127.528C403.338 127.528 401.835 128.979 401.835 131.062V140H399.567ZM422.085 140V125.683H424.353V140H422.085ZM423.219 123.31C422.349 123.31 421.637 122.65 421.637 121.807C421.637 120.963 422.349 120.304 423.219 120.304C424.089 120.304 424.827 120.963 424.827 121.807C424.827 122.65 424.089 123.31 423.219 123.31ZM434.214 125.683V127.581H431.208V135.887C431.208 137.732 432.104 138.022 433.08 138.022C433.502 138.022 434.082 137.996 434.425 137.97V140.079C434.082 140.132 433.502 140.185 432.843 140.185C430.944 140.185 428.914 138.998 428.914 136.467V127.581H426.752V125.683H428.914V122.255H431.208V125.683H434.214ZM438.591 145.379C438.09 145.379 437.615 145.353 437.325 145.326V143.296C437.562 143.322 438.09 143.349 438.433 143.349C439.355 143.349 440.12 143.27 440.885 141.187L441.307 140.105L436.007 125.683H438.485L442.388 137.047H442.546L446.448 125.683H448.927L442.862 142.057C442.019 144.298 440.621 145.379 438.591 145.379ZM453.04 140.158C452.117 140.158 451.326 139.394 451.353 138.444C451.326 137.521 452.117 136.757 453.04 136.757C453.963 136.757 454.728 137.521 454.728 138.444C454.728 139.394 453.963 140.158 453.04 140.158ZM453.04 129.559C452.117 129.559 451.326 128.794 451.353 127.845C451.326 126.922 452.117 126.157 453.04 126.157C453.963 126.157 454.728 126.922 454.728 127.845C454.728 128.794 453.963 129.559 453.04 129.559ZM482.519 118.695V124.812H486.052V126.526H482.519V132.775H480.462V118.695H482.519ZM476.138 120.436C476.138 126.395 471.919 130.798 465.09 132.802L464.22 131.114C469.875 129.479 473.488 126.223 473.923 122.149H465.248V120.436H476.138ZM475.109 133.039C479.829 133.039 482.782 134.753 482.782 137.548C482.782 140.396 479.829 142.083 475.109 142.083C470.442 142.083 467.41 140.396 467.437 137.548C467.41 134.753 470.442 133.039 475.109 133.039ZM475.109 134.7C471.682 134.674 469.467 135.781 469.493 137.548C469.467 139.314 471.682 140.422 475.109 140.422C478.563 140.422 480.778 139.314 480.778 137.548C480.778 135.781 478.563 134.674 475.109 134.7ZM495.386 124.997C495.386 129.137 498.128 133.382 501.45 135.017L500.185 136.678C497.601 135.32 495.438 132.551 494.41 129.295C493.355 132.762 491.141 135.715 488.504 137.126L487.186 135.465C490.613 133.777 493.329 129.269 493.355 124.997V120.726H495.386V124.997ZM505.669 118.695V128.214H509.598V130.007H505.669V142.136H503.612V118.695H505.669ZM535.965 118.695V125.841H539.498V127.581H535.965V135.86H533.882V118.695H535.965ZM529.637 120.515C529.637 126.553 525.312 131.035 518.562 133.145L517.666 131.483C523.282 129.73 526.947 126.381 527.396 122.255H518.642V120.515H529.637ZM537.046 139.895V141.635H521.278V134.12H523.335V139.895H537.046ZM569.108 130.033V131.747H559.432V134.516H566.498V141.819H550.361V134.516H557.401V131.747H547.751V130.033H569.108ZM567.078 119.46V121.174H563.466V126.104H566.999V127.818H549.834V126.104H553.367V121.174H549.755V119.46H567.078ZM552.418 136.15V140.132H564.468V136.15H552.418ZM555.424 126.104H561.409V121.174H555.424V126.104ZM590.413 118.695V130.877H588.383V118.695H590.413ZM590.439 132.011V137.601H577.282V140.211H591.283V141.872H575.252V136.045H588.383V133.646H575.199V132.011H590.439ZM579.523 122.018C579.523 125.076 582.028 127.739 585.562 128.794L584.533 130.402C581.765 129.532 579.563 127.673 578.521 125.261C577.506 127.897 575.265 129.954 572.404 130.903L571.429 129.269C574.936 128.108 577.44 125.234 577.44 122.018V121.754H571.956V120.04H584.929V121.754H579.523V122.018ZM620.63 118.695V136.15H618.547V129.348H614.539V127.607H618.547V124.892H614.539V123.178H618.547V118.695H620.63ZM614.354 120.62V122.308H611.955V130.508C613.049 130.442 614.104 130.363 615.119 130.244L615.225 131.8C610.663 132.512 605.311 132.591 601.514 132.591L601.25 130.824L604.282 130.798V122.308H601.909V120.62H614.354ZM621.263 139.895V141.635H605.521V134.7H607.604V139.895H621.263ZM606.286 130.745C607.486 130.732 608.725 130.692 609.951 130.64V122.308H606.286V130.745ZM632.337 126.342C632.337 130.086 634.789 133.936 638.19 135.57L636.978 137.179C634.394 135.913 632.35 133.355 631.388 130.323C630.359 133.58 628.184 136.309 625.508 137.601L624.321 135.992C627.749 134.384 630.307 130.376 630.333 126.342V124.47H624.954V122.782H630.307V119.144H632.39V122.782H637.663V124.47H632.337V126.342ZM642.673 118.695V128.319H646.602V130.086H642.673V142.136H640.616V118.695H642.673ZM663.529 131.062V135.359C665.784 135.267 668.091 135.069 670.253 134.753L670.411 136.282C665.059 137.258 659.284 137.284 655.065 137.284L654.775 135.57C656.74 135.557 659.06 135.544 661.499 135.465V131.062H663.529ZM669.04 121.78V123.494H663.529C663.582 126.526 666.1 128.992 669.567 129.98L668.592 131.615C665.771 130.771 663.569 128.965 662.527 126.579C661.499 129.097 659.311 130.969 656.489 131.826L655.487 130.244C658.955 129.229 661.394 126.658 661.446 123.494H656.067V121.78H661.499V118.88H663.529V121.78H669.04ZM673.865 118.695V142.188H671.809V118.695H673.865ZM699.441 137.363V139.077H677.979V137.363H687.576V131.615H689.606V137.363H699.441ZM689.659 122.097C689.659 126.025 694.3 129.453 698.387 130.165L697.464 131.879C693.891 131.154 690.121 128.728 688.604 125.34C687.062 128.715 683.318 131.154 679.745 131.879L678.822 130.165C682.909 129.453 687.497 126.025 687.497 122.097V120.304H689.659V122.097ZM719.507 118.695V128.688H723.251V130.429H719.507V142.136H717.424V118.695H719.507ZM701.023 135.887C702.935 135.887 705.163 135.887 707.483 135.808V133.197C704.754 132.894 702.975 131.299 703.001 128.979C702.975 126.342 705.216 124.628 708.538 124.628C711.808 124.628 714.075 126.342 714.102 128.979C714.075 131.299 712.269 132.894 709.566 133.224V135.729C711.755 135.623 713.957 135.452 716 135.148L716.132 136.73C711.017 137.601 705.479 137.653 701.366 137.653L701.023 135.887ZM715.578 121.569V123.257H701.445V121.569H707.483V118.748H709.566V121.569H715.578ZM708.538 126.236C706.376 126.236 704.926 127.344 704.926 128.979C704.926 130.613 706.376 131.668 708.538 131.642C710.674 131.668 712.124 130.613 712.124 128.979C712.124 127.344 710.674 126.236 708.538 126.236ZM304.145 189.096C302.668 189.096 301.455 187.883 301.455 186.38C301.455 184.903 302.668 183.69 304.145 183.69C305.647 183.69 306.86 184.903 306.86 186.38C306.86 187.883 305.647 189.096 304.145 189.096ZM339.635 180.922C339.081 178.285 336.813 176.861 334.309 176.861C330.854 176.861 328.165 179.524 328.165 184.455C328.165 189.386 330.854 192.049 334.309 192.049C336.813 192.049 339.055 190.625 339.635 188.015H342.008C341.322 191.917 338.185 194.264 334.309 194.264C329.404 194.264 325.871 190.493 325.871 184.455C325.871 178.417 329.404 174.646 334.309 174.646C338.158 174.646 341.296 176.967 342.008 180.922H339.635ZM350.894 194.29C346.991 194.29 344.354 191.363 344.354 186.907C344.354 182.451 346.991 179.498 350.894 179.498C354.77 179.498 357.38 182.451 357.38 186.907C357.38 191.363 354.77 194.29 350.894 194.29ZM350.894 192.286C353.768 192.286 355.112 189.755 355.112 186.907C355.112 184.06 353.768 181.502 350.894 181.502C347.967 181.502 346.622 184.06 346.622 186.907C346.622 189.755 347.967 192.286 350.894 192.286ZM362.627 185.404V194H360.359V179.683H362.548V181.924H362.732C363.418 180.474 364.736 179.498 366.925 179.498C369.825 179.498 371.75 181.265 371.75 184.903V194H369.482V185.062C369.482 182.847 368.27 181.528 366.239 181.528C364.156 181.528 362.627 182.926 362.627 185.404ZM383.352 183.4C383.035 182.214 382.139 181.423 380.451 181.423C378.685 181.423 377.419 182.372 377.419 183.585C377.419 184.534 378.184 185.193 379.871 185.589L382.007 186.116C384.564 186.723 385.83 187.988 385.83 189.992C385.83 192.471 383.8 194.29 380.214 194.29C376.997 194.29 375.072 192.866 374.703 190.256H377.076C377.34 191.653 378.368 192.312 380.161 192.312C382.191 192.312 383.483 191.469 383.483 190.124C383.483 189.122 382.771 188.437 381.137 188.067L378.975 187.566C376.47 186.986 375.151 185.615 375.151 183.717C375.151 181.265 377.287 179.498 380.451 179.498C383.404 179.498 385.276 181.08 385.566 183.4H383.352ZM388.783 194V179.683H391.051V194H388.783ZM389.917 177.31C389.047 177.31 388.335 176.65 388.335 175.807C388.335 174.963 389.047 174.304 389.917 174.304C390.787 174.304 391.525 174.963 391.525 175.807C391.525 176.65 390.787 177.31 389.917 177.31ZM402.626 183.4C402.31 182.214 401.413 181.423 399.726 181.423C397.959 181.423 396.693 182.372 396.693 183.585C396.693 184.534 397.458 185.193 399.146 185.589L401.281 186.116C403.839 186.723 405.104 187.988 405.104 189.992C405.104 192.471 403.074 194.29 399.488 194.29C396.271 194.29 394.347 192.866 393.978 190.256H396.351C396.614 191.653 397.643 192.312 399.436 192.312C401.466 192.312 402.758 191.469 402.758 190.124C402.758 189.122 402.046 188.437 400.411 188.067L398.249 187.566C395.744 186.986 394.426 185.615 394.426 183.717C394.426 181.265 396.562 179.498 399.726 179.498C402.679 179.498 404.551 181.08 404.841 183.4H402.626ZM414.307 179.683V181.581H411.301V189.887C411.301 191.732 412.197 192.022 413.173 192.022C413.595 192.022 414.175 191.996 414.518 191.97V194.079C414.175 194.132 413.595 194.185 412.936 194.185C411.037 194.185 409.007 192.998 409.007 190.467V181.581H406.845V179.683H409.007V176.255H411.301V179.683H414.307ZM423.087 194.29C418.947 194.29 416.39 191.363 416.39 186.96C416.39 182.557 418.974 179.498 422.876 179.498C425.882 179.498 429.046 181.344 429.046 186.644V187.593H418.657C418.763 190.625 420.529 192.286 423.087 192.286C424.801 192.286 425.882 191.548 426.409 190.651H428.835C428.149 192.813 426.04 194.29 423.087 194.29ZM418.684 185.668H426.752C426.752 183.269 425.223 181.502 422.876 181.502C420.397 181.502 418.815 183.453 418.684 185.668ZM434.267 185.404V194H431.999V179.683H434.188V181.924H434.372C435.058 180.474 436.376 179.498 438.564 179.498C441.465 179.498 443.39 181.265 443.39 184.903V194H441.122V185.062C441.122 182.847 439.909 181.528 437.879 181.528C435.796 181.528 434.267 182.926 434.267 185.404ZM452.882 194.29C448.821 194.29 446.343 191.205 446.343 186.907C446.343 182.557 448.927 179.498 452.829 179.498C455.888 179.498 458.155 181.291 458.524 184.007H456.257C455.94 182.688 454.78 181.502 452.882 181.502C450.324 181.502 448.61 183.611 448.61 186.828C448.61 190.15 450.271 192.26 452.882 192.26C454.569 192.26 455.861 191.363 456.257 189.781H458.524C458.155 192.339 456.072 194.29 452.882 194.29ZM462.77 199.379C462.269 199.379 461.794 199.353 461.504 199.326V197.296C461.741 197.322 462.269 197.349 462.611 197.349C463.534 197.349 464.299 197.27 465.063 195.187L465.485 194.105L460.186 179.683H462.664L466.566 191.047H466.725L470.627 179.683H473.105L467.041 196.057C466.197 198.298 464.8 199.379 462.77 199.379ZM477.219 194.158C476.296 194.158 475.505 193.394 475.531 192.444C475.505 191.521 476.296 190.757 477.219 190.757C478.142 190.757 478.906 191.521 478.906 192.444C478.906 193.394 478.142 194.158 477.219 194.158ZM477.219 183.559C476.296 183.559 475.505 182.794 475.531 181.845C475.505 180.922 476.296 180.157 477.219 180.157C478.142 180.157 478.906 180.922 478.906 181.845C478.906 182.794 478.142 183.559 477.219 183.559ZM507.805 172.722V189.992H505.722V180.948H500.817C500.356 183.835 497.93 185.8 494.832 185.8C491.325 185.8 488.741 183.4 488.741 179.999C488.741 176.598 491.325 174.225 494.832 174.225C497.996 174.225 500.461 176.242 500.844 179.234H505.722V172.722H507.805ZM508.464 193.895V195.635H492.749V188.226H494.832V193.895H508.464ZM494.832 176.044C492.485 176.07 490.719 177.679 490.719 179.999C490.719 182.319 492.485 183.98 494.832 184.007C497.126 183.98 498.893 182.319 498.893 179.999C498.893 177.679 497.126 176.07 494.832 176.044ZM531.746 172.695V196.136H529.769V172.695H531.746ZM527 173.275V194.923H525.049V182.847H521.094V181.159H525.049V173.275H527ZM518.589 179.393C518.589 183.453 520.408 187.487 523.651 189.359L522.386 190.889C520.079 189.504 518.444 186.973 517.64 183.98C516.783 187.21 515.082 189.966 512.735 191.442L511.417 189.887C514.687 187.936 516.585 183.664 516.585 179.393V177.178H512.076V175.464H522.887V177.178H518.589V179.393ZM556.979 182.056V183.796H553.183V196.136H551.126V172.695H553.183V182.056H556.979ZM538.074 175.016V188.437C541.502 188.423 544.996 188.16 548.858 187.355L549.122 189.122C545.088 189.939 541.449 190.177 537.89 190.177H536.018V175.016H538.074ZM571.798 173.565C575.305 173.592 577.862 175.701 577.862 178.76C577.862 181.818 575.305 183.928 571.798 183.928C568.238 183.928 565.707 181.818 565.707 178.76C565.707 175.701 568.238 173.592 571.798 173.565ZM571.798 175.306C569.451 175.306 567.711 176.729 567.737 178.76C567.711 180.816 569.451 182.24 571.798 182.24C574.118 182.24 575.858 180.816 575.858 178.76C575.858 176.729 574.118 175.306 571.798 175.306ZM584.507 172.695V184.745H582.45V172.695H584.507ZM584.507 185.879V191.521H571.35V194.158H585.351V195.819H569.319V189.966H582.45V187.54H569.267V185.879H584.507ZM601.487 174.515V175.754C601.461 177.283 601.461 179.63 600.881 182.688L598.798 182.53C599.365 179.722 599.417 177.731 599.457 176.255H589.807V174.515H601.487ZM595.449 179.709V184.745C598.046 184.64 600.736 184.455 603.175 184.112L603.307 185.642C598.402 186.485 592.733 186.591 588.567 186.591L588.356 184.877C589.873 184.864 591.586 184.851 593.393 184.798V179.709H595.449ZM606.866 172.695V180.342H610.294V182.108H606.866V190.335H604.757V172.695H606.866ZM607.631 193.895V195.635H591.969V188.753H594.052V193.895H607.631ZM625.455 180.395V182.082H620.709V185.352C622.897 185.259 625.086 185.101 627.116 184.877L627.274 186.406C622.238 187.092 616.648 187.25 612.245 187.25L611.929 185.562C613.985 185.549 616.292 185.523 618.652 185.431V182.082H614.064V174.225H625.271V175.938H616.147V180.395H625.455ZM631.15 172.722V190.256H629.067V172.722H631.15ZM631.915 193.895V195.635H615.937V189.043H617.993V193.895H631.915ZM653.694 174.884C653.694 178.18 658.019 181.054 662.237 181.634L661.394 183.321C657.755 182.715 654.156 180.698 652.64 177.811C651.137 180.711 647.524 182.715 643.886 183.321L643.042 181.634C647.261 181.054 651.559 178.232 651.559 174.884V173.539H653.694V174.884ZM663.292 185.905V187.646H653.589V196.136H651.559V187.646H641.935V185.905H663.292ZM671.729 173.803C674.88 173.776 677.267 175.609 677.715 178.312H682.619V172.695H684.702V185.272H682.619V180.025H677.741C677.319 182.794 674.907 184.64 671.729 184.64C668.17 184.64 665.639 182.425 665.639 179.208C665.639 176.018 668.17 173.776 671.729 173.803ZM671.729 175.569C669.33 175.543 667.616 177.046 667.616 179.208C667.616 181.344 669.33 182.899 671.729 182.899C674.103 182.899 675.79 181.344 675.79 179.208C675.79 177.046 674.103 175.543 671.729 175.569ZM671.677 186.459V189.438H682.619V186.459H684.702V195.819H669.594V186.459H671.677ZM671.677 194.132H682.619V191.1H671.677V194.132ZM715.42 172.695V196.136H713.442V172.695H715.42ZM710.674 173.275V194.923H708.723V182.847H704.768V181.159H708.723V173.275H710.674ZM702.263 179.393C702.263 183.453 704.082 187.487 707.325 189.359L706.06 190.889C703.752 189.504 702.118 186.973 701.313 183.98C700.457 187.21 698.756 189.966 696.409 191.442L695.091 189.887C698.36 187.936 700.259 183.664 700.259 179.393V177.178H695.75V175.464H706.561V177.178H702.263V179.393ZM729.315 187.514C734.352 187.514 737.542 189.096 737.542 191.812C737.542 194.501 734.352 196.083 729.315 196.083C724.306 196.083 721.115 194.501 721.115 191.812C721.115 189.096 724.306 187.514 729.315 187.514ZM729.315 189.096C725.571 189.122 723.146 190.15 723.172 191.812C723.146 193.446 725.571 194.448 729.315 194.448C733.06 194.448 735.459 193.446 735.485 191.812C735.459 190.15 733.06 189.122 729.315 189.096ZM737.357 173.908V175.886C737.357 177.784 737.357 179.683 736.698 182.108L734.668 181.871C735.301 179.445 735.301 177.731 735.301 175.886V175.596H721.273V173.908H737.357ZM740.073 183.638V185.325H718.742V183.638H727.575V179.103H729.605V183.638H740.073Z" fill="black"/>
<path d="M271 64L271 196" stroke="#F2F2F7" stroke-width="2"/>
<path d="M56.0659 194V172.082H60.6069V181.8H60.9097L68.8716 172.082H74.3511L66.1772 181.891L74.4419 194H68.9927L62.9077 184.948L60.6069 187.733V194H56.0659ZM76.6216 194V172.082H85.2192C90.2144 172.082 93.0601 175.14 93.0601 179.469C93.0601 183.858 90.1538 186.855 85.0981 186.855H81.1626V194H76.6216ZM81.1626 183.192H84.3716C87.0659 183.192 88.3677 181.679 88.3677 179.469C88.3677 177.289 87.0659 175.806 84.3716 175.806H81.1626V183.192ZM100.477 172.082V194H95.936V172.082H100.477ZM133.445 169.236V196.785H129.54V169.236H133.445ZM125.18 172.112C125.18 180.468 122.244 187.4 112.405 192.062L110.376 188.975C117.491 185.614 120.624 181.255 121.245 175.14H111.86V172.112H125.18ZM158.935 169.267V177.017H162.659V180.195H158.935V189.55H155.06V169.267H158.935ZM159.934 193.213V196.301H141.074V187.461H144.918V193.213H159.934ZM141.74 171.204V175.2H147.371V171.204H151.246V185.16H137.895V171.204H141.74ZM141.74 182.133H147.371V178.167H141.74V182.133ZM186.454 171.234V172.96C186.454 174.867 186.454 177.622 185.818 181.043L182.034 180.68C182.518 178.031 182.639 176.033 182.669 174.383H172.286V171.234H186.454ZM179.612 177.592V182.859C182.352 182.753 185.167 182.542 187.755 182.163L187.967 184.948C182.246 186.008 175.767 186.099 170.984 186.129L170.651 183.041C172.195 183.041 173.936 183.041 175.767 182.98V177.592H179.612ZM193.205 169.236V177.622H196.535V180.861H193.205V189.853H189.239V169.236H193.205ZM194.052 193.213V196.301H174.708V188.006H178.583V193.213H194.052ZM220.905 169.236V196.846H217.06V169.236H220.905ZM212.368 171.537V182.163H203.286V187.219C207.479 187.204 211.051 186.961 215.092 186.311L215.425 189.429C210.884 190.216 206.797 190.397 201.772 190.397H199.29V179.105H208.432V174.655H199.259V171.537H212.368Z" fill="black"/>
<circle cx="139" cy="107" r="45" fill="#CCE0FF"/>
<g filter="url(#filter0_i_590_1004)">
<circle cx="139" cy="107" r="42.3399" fill="#CCE0FF"/>
</g>
<rect x="111.732" y="81.064" width="54.532" height="51.8719" fill="#CCE0FF"/>
<g filter="url(#filter1_d_590_1004)">
<rect x="118.383" y="104.119" width="10.197" height="16.8473" rx="2" fill="#69A4FF"/>
</g>
<g filter="url(#filter2_d_590_1004)">
<path d="M132.571 94.1489C132.571 93.0444 133.466 92.1489 134.571 92.1489H140.768C141.872 92.1489 142.768 93.0444 142.768 94.1489V118.967C142.768 120.071 141.872 120.967 140.768 120.967H134.571C133.466 120.967 132.571 120.071 132.571 118.967V94.1489Z" fill="#69A4FF"/>
</g>
<g filter="url(#filter3_d_590_1004)">
<path d="M146.757 99.9106C146.757 98.8061 147.652 97.9106 148.757 97.9106H154.954C156.058 97.9106 156.954 98.8061 156.954 99.9106V118.965C156.954 120.069 156.058 120.965 154.954 120.965H148.757C147.652 120.965 146.757 120.069 146.757 118.965V99.9106Z" fill="#69A4FF"/>
</g>
<defs>
<filter id="filter0_i_590_1004" x="96.6602" y="64.6602" width="88.6797" height="87.6797" filterUnits="userSpaceOnUse" color-interpolation-filters="sRGB">
<feFlood flood-opacity="0" result="BackgroundImageFix"/>
<feBlend mode="normal" in="SourceGraphic" in2="BackgroundImageFix" result="shape"/>
<feColorMatrix in="SourceAlpha" type="matrix" values="0 0 0 0 0 0 0 0 0 0 0 0 0 0 0 0 0 0 127 0" result="hardAlpha"/>
<feOffset dx="4" dy="3"/>
<feGaussianBlur stdDeviation="3.5"/>
<feComposite in2="hardAlpha" operator="arithmetic" k2="-1" k3="1"/>
<feColorMatrix type="matrix" values="0 0 0 0 1 0 0 0 0 1 0 0 0 0 1 0 0 0 0.3 0"/>
<feBlend mode="normal" in2="shape" result="effect1_innerShadow_590_1004"/>
</filter>
<filter id="filter1_d_590_1004" x="111.383" y="98.1187" width="30.1973" height="36.8472" filterUnits="userSpaceOnUse" color-interpolation-filters="sRGB">
<feFlood flood-opacity="0" result="BackgroundImageFix"/>
<feColorMatrix in="SourceAlpha" type="matrix" values="0 0 0 0 0 0 0 0 0 0 0 0 0 0 0 0 0 0 127 0" result="hardAlpha"/>
<feOffset dx="3" dy="4"/>
<feGaussianBlur stdDeviation="5"/>
<feComposite in2="hardAlpha" operator="out"/>
<feColorMatrix type="matrix" values="0 0 0 0 0.592157 0 0 0 0 0.752941 0 0 0 0 1 0 0 0 1 0"/>
<feBlend mode="normal" in2="BackgroundImageFix" result="effect1_dropShadow_590_1004"/>
<feBlend mode="normal" in="SourceGraphic" in2="effect1_dropShadow_590_1004" result="shape"/>
</filter>
<filter id="filter2_d_590_1004" x="125.571" y="86.1489" width="30.1973" height="48.8179" filterUnits="userSpaceOnUse" color-interpolation-filters="sRGB">
<feFlood flood-opacity="0" result="BackgroundImageFix"/>
<feColorMatrix in="SourceAlpha" type="matrix" values="0 0 0 0 0 0 0 0 0 0 0 0 0 0 0 0 0 0 127 0" result="hardAlpha"/>
<feOffset dx="3" dy="4"/>
<feGaussianBlur stdDeviation="5"/>
<feComposite in2="hardAlpha" operator="out"/>
<feColorMatrix type="matrix" values="0 0 0 0 0.592157 0 0 0 0 0.752941 0 0 0 0 1 0 0 0 1 0"/>
<feBlend mode="normal" in2="BackgroundImageFix" result="effect1_dropShadow_590_1004"/>
<feBlend mode="normal" in="SourceGraphic" in2="effect1_dropShadow_590_1004" result="shape"/>
</filter>
<filter id="filter3_d_590_1004" x="139.757" y="91.9106" width="30.1973" height="43.0542" filterUnits="userSpaceOnUse" color-interpolation-filters="sRGB">
<feFlood flood-opacity="0" result="BackgroundImageFix"/>
<feColorMatrix in="SourceAlpha" type="matrix" values="0 0 0 0 0 0 0 0 0 0 0 0 0 0 0 0 0 0 127 0" result="hardAlpha"/>
<feOffset dx="3" dy="4"/>
<feGaussianBlur stdDeviation="5"/>
<feComposite in2="hardAlpha" operator="out"/>
<feColorMatrix type="matrix" values="0 0 0 0 0.592157 0 0 0 0 0.752941 0 0 0 0 1 0 0 0 1 0"/>
<feBlend mode="normal" in2="BackgroundImageFix" result="effect1_dropShadow_590_1004"/>
<feBlend mode="normal" in="SourceGraphic" in2="effect1_dropShadow_590_1004" result="shape"/>
</filter>
<linearGradient id="paint0_linear_590_1004" x1="-0.722946" y1="130" x2="1112.71" y2="130" gradientUnits="userSpaceOnUse">
<stop stop-color="#3182F6"/>
<stop offset="1" stop-color="#A009FF"/>
</linearGradient>
</defs>
</svg>
