<svg width="800" height="260" viewBox="0 0 800 260" fill="none" xmlns="http://www.w3.org/2000/svg">
<rect x="0.5" y="0.5" width="799" height="259" rx="14.5" fill="white" stroke="url(#paint0_linear_590_1002)"/>
<path d="M304.145 81.0957C302.668 81.0957 301.455 79.8828 301.455 78.3799C301.455 76.9033 302.668 75.6904 304.145 75.6904C305.647 75.6904 306.86 76.9033 306.86 78.3799C306.86 79.8828 305.647 81.0957 304.145 81.0957ZM344.776 64.7217V82.5195H342.693V80.0938H337.842V78.5908H342.693V64.7217H344.776ZM345.356 85.8945V87.6348H328.692V80.7793H330.775V85.8945H345.356ZM325.317 75.585C329.694 75.5586 335.548 75.5322 340.584 74.8994L340.716 76.4023C338.62 76.7319 336.431 76.9429 334.282 77.0615V81.7021H332.199V77.167C329.826 77.2725 327.572 77.2856 325.607 77.2725L325.317 75.585ZM333.017 65.6709C336.444 65.6709 338.791 67.3057 338.817 69.7578C338.791 72.2627 336.444 73.8184 333.017 73.8184C329.562 73.8184 327.216 72.2627 327.216 69.7578C327.216 67.3057 329.562 65.6709 333.017 65.6709ZM333.017 67.2529C330.723 67.2266 329.167 68.2549 329.193 69.7578C329.167 71.2871 330.723 72.2891 333.017 72.2891C335.231 72.2891 336.813 71.2871 336.84 69.7578C336.813 68.2549 335.231 67.2266 333.017 67.2529ZM355.086 66.5146C358.276 66.541 360.57 69.27 360.913 73.6602H366.16V64.6953H368.217V88.1885H366.16V75.374H360.939C360.689 79.9619 358.355 82.8359 355.086 82.8359C351.632 82.8359 349.206 79.6719 349.206 74.6885C349.206 69.7051 351.632 66.541 355.086 66.5146ZM355.086 68.3604C352.766 68.3867 351.184 70.8652 351.184 74.6885C351.184 78.5117 352.766 80.9902 355.086 80.9902C357.38 80.9902 358.988 78.5117 358.988 74.6885C358.988 70.8652 357.38 68.3867 355.086 68.3604ZM384.354 66.752V77.6152H373.358V66.752H384.354ZM375.389 68.4658V75.9541H382.323V68.4658H375.389ZM391.473 64.7217V81.5703H389.416V64.7217H391.473ZM392.211 85.6309V87.3447H376.338V79.9355H378.395V85.6309H392.211ZM413.99 66.8838C413.99 70.1797 418.314 73.0537 422.533 73.6338L421.689 75.3213C418.051 74.7148 414.452 72.6978 412.936 69.8105C411.433 72.7109 407.82 74.7148 404.182 75.3213L403.338 73.6338C407.557 73.0537 411.854 70.2324 411.854 66.8838V65.5391H413.99V66.8838ZM423.588 77.9053V79.6455H413.885V88.1357H411.854V79.6455H402.23V77.9053H423.588ZM437.589 67.6221C437.562 70.4961 441.518 72.8428 445.657 73.4229L444.84 75.0576C441.056 74.5171 437.523 72.6187 436.244 69.8633C434.979 72.6187 431.458 74.5171 427.648 75.0576L426.884 73.4229C431.023 72.8428 434.899 70.4961 434.899 67.6221V67.5693H427.517V65.8818H445.024V67.5693H437.589V67.6221ZM447.002 76.7715V78.4854H437.457V83.2842H435.4V78.4854H425.539V76.7715H447.002ZM444.603 85.8945V87.6348H428.281V80.9375H430.364V85.8945H444.603ZM475.004 64.6953V88.1885H472.921V64.6953H475.004ZM462.532 66.5146C466.013 66.541 468.518 69.7051 468.518 74.6885C468.518 79.6719 466.013 82.8359 462.532 82.8359C459.025 82.8359 456.547 79.6719 456.547 74.6885C456.547 69.7051 459.025 66.541 462.532 66.5146ZM462.532 68.3604C460.186 68.3867 458.551 70.8652 458.551 74.6885C458.551 78.5117 460.186 80.9902 462.532 80.9902C464.879 80.9902 466.514 78.5117 466.514 74.6885C466.514 70.8652 464.879 68.3867 462.532 68.3604ZM500.369 75.6641V77.3779H490.692V79.8828C495.122 80.0674 497.732 81.5176 497.759 83.9961C497.732 86.6064 494.727 88.083 489.69 88.083C484.602 88.083 481.596 86.6064 481.596 83.9961C481.596 81.5176 484.193 80.0674 488.662 79.8828V77.3779H479.012V75.6641H500.369ZM489.69 81.4648C485.92 81.4912 483.679 82.4141 483.705 83.9961C483.679 85.5518 485.92 86.4746 489.69 86.4746C493.408 86.4746 495.676 85.5518 495.676 83.9961C495.676 82.4141 493.408 81.4912 489.69 81.4648ZM498.471 65.8027V67.4902H491.035C491.167 70.127 495.043 72.1704 499.183 72.6055L498.418 74.2402C494.582 73.7788 490.982 72.0649 489.69 69.4414C488.412 72.0649 484.826 73.7788 480.963 74.2402L480.225 72.6055C484.285 72.1704 488.188 70.127 488.346 67.4902H480.963V65.8027H498.471ZM521.779 64.7217V81.9922H519.696V72.9482H514.792C514.331 75.8354 511.905 77.7998 508.807 77.7998C505.3 77.7998 502.716 75.4004 502.716 71.999C502.716 68.5977 505.3 66.2246 508.807 66.2246C511.971 66.2246 514.436 68.2417 514.818 71.2344H519.696V64.7217H521.779ZM522.438 85.8945V87.6348H506.724V80.2256H508.807V85.8945H522.438ZM508.807 68.0439C506.46 68.0703 504.693 69.6787 504.693 71.999C504.693 74.3193 506.46 75.9805 508.807 76.0068C511.101 75.9805 512.867 74.3193 512.867 71.999C512.867 69.6787 511.101 68.0703 508.807 68.0439ZM531.983 66.5146C535.174 66.541 537.468 69.27 537.811 73.6602H543.058V64.6953H545.114V88.1885H543.058V75.374H537.837C537.586 79.9619 535.253 82.8359 531.983 82.8359C528.529 82.8359 526.104 79.6719 526.104 74.6885C526.104 69.7051 528.529 66.541 531.983 66.5146ZM531.983 68.3604C529.663 68.3867 528.081 70.8652 528.081 74.6885C528.081 78.5117 529.663 80.9902 531.983 80.9902C534.277 80.9902 535.886 78.5117 535.886 74.6885C535.886 70.8652 534.277 68.3867 531.983 68.3604ZM574.329 66.2246V68.2812C574.329 70.5093 574.329 72.9219 573.67 76.2969H577.15V78.0107H567.474V88.1885H565.391V78.0107H555.793V76.2969H571.561C572.272 72.9219 572.272 70.4565 572.272 68.2812V67.9385H558.482V66.2246H574.329ZM586.985 70.9971C586.985 75.1367 589.728 79.3818 593.05 81.0166L591.784 82.6777C589.2 81.3198 587.038 78.5513 586.01 75.2949C584.955 78.7622 582.74 81.7153 580.104 83.126L578.785 81.4648C582.213 79.7773 584.929 75.2686 584.955 70.9971V66.7256H586.985V70.9971ZM597.269 64.6953V74.2139H601.197V76.0068H597.269V88.1357H595.212V64.6953H597.269ZM616.912 66.0137L610.742 88.874H608.686L614.829 66.0137H616.912ZM626.193 86V66.9102H637.769V69.0195H628.566V75.4004H637.162V77.4834H628.566V83.8906H637.9V86H626.193ZM651.928 71.709C651.717 69.8369 650.003 68.7559 647.709 68.7559C645.178 68.7559 643.517 70.0742 643.517 71.8936C643.517 73.8975 645.758 74.6357 647.208 75.0049L649.106 75.5322C651.163 76.0596 654.512 77.2461 654.512 80.8057C654.512 83.917 652.007 86.3428 647.577 86.3428C643.464 86.3428 640.906 84.207 640.695 81.043H643.121C643.332 83.1787 645.31 84.1807 647.577 84.1807C650.214 84.1807 652.191 82.8359 652.191 80.7529C652.191 78.9072 650.425 78.1953 648.421 77.6152L646.074 76.9824C643.068 76.1123 641.223 74.583 641.223 71.999C641.223 68.7822 644.097 66.6465 647.788 66.6465C651.479 66.6465 654.143 68.8086 654.248 71.709H651.928ZM657.913 86V66.9102H660.286V83.8906H669.146V86H657.913ZM697.358 64.7217V78.8018H695.275V75.6377H689.053V73.9238H695.275V70.7598H689.29C687.748 74.5303 684.122 77.2593 679.112 78.749L678.242 77.1143C683.911 75.4268 687.431 72.2627 687.866 68.2021H679.429V66.4619H690.107C690.107 67.3848 690.002 68.2681 689.817 69.0986H695.275V64.7217H697.358ZM689.686 79.0391C694.432 79.0391 697.49 80.7266 697.49 83.5215C697.49 86.3428 694.432 88.0303 689.686 88.0303C684.887 88.0303 681.854 86.3428 681.854 83.5215C681.854 80.7266 684.887 79.0391 689.686 79.0391ZM689.686 80.7002C686.152 80.6738 683.885 81.7549 683.885 83.5215C683.885 85.2881 686.152 86.3428 689.686 86.3428C693.166 86.3428 695.407 85.2881 695.434 83.5215C695.407 81.7549 693.166 80.6738 689.686 80.7002ZM720.693 64.6953V78.9072H718.61V73.5547H714.629V71.8408H718.61V64.6953H720.693ZM720.693 80.1729V87.8193H705.374V80.1729H720.693ZM707.431 81.834V86.1318H718.663V81.834H707.431ZM714.972 67.1738V68.8613H701.287V67.1738H707.114V64.4844H709.145V67.1738H714.972ZM708.116 70.0742C711.307 70.0742 713.548 71.7881 713.574 74.2402C713.548 76.7715 711.307 78.4326 708.116 78.4326C704.926 78.4326 702.685 76.7715 702.685 74.2402C702.685 71.7881 704.926 70.0742 708.116 70.0742ZM708.116 71.6826C706.086 71.6826 704.662 72.7373 704.662 74.2402C704.662 75.7959 706.086 76.8242 708.116 76.8506C710.146 76.8242 711.57 75.7959 711.57 74.2402C711.57 72.7373 710.146 71.6826 708.116 71.6826ZM304.145 135.096C302.668 135.096 301.455 133.883 301.455 132.38C301.455 130.903 302.668 129.69 304.145 129.69C305.647 129.69 306.86 130.903 306.86 132.38C306.86 133.883 305.647 135.096 304.145 135.096ZM331.725 120.515C335.179 120.541 337.631 123.705 337.657 128.688C337.631 133.672 335.179 136.836 331.725 136.836C328.244 136.836 325.818 133.672 325.818 128.688C325.818 123.705 328.244 120.541 331.725 120.515ZM331.725 122.36C329.404 122.387 327.77 124.865 327.77 128.688C327.77 132.512 329.404 134.99 331.725 134.99C334.071 134.99 335.653 132.512 335.653 128.688C335.653 124.865 334.071 122.387 331.725 122.36ZM343.59 118.695V128.056H347.519V129.849H343.59V142.136H341.533V118.695H343.59ZM370.168 130.297V131.958H348.784V130.297H358.461V127.555H351.5V119.803H367.505V121.464H353.53V125.867H367.663V127.555H360.465V130.297H370.168ZM359.463 133.672C364.499 133.672 367.505 135.201 367.531 137.891C367.505 140.606 364.499 142.109 359.463 142.136C354.4 142.109 351.368 140.606 351.368 137.891C351.368 135.201 354.4 133.672 359.463 133.672ZM359.463 135.307C355.692 135.307 353.451 136.282 353.478 137.891C353.451 139.525 355.692 140.475 359.463 140.475C363.181 140.475 365.448 139.525 365.448 137.891C365.448 136.282 363.181 135.307 359.463 135.307ZM386.964 122.387C386.938 125.735 389.311 128.688 392.765 129.849L391.604 131.457C389.021 130.481 386.99 128.583 385.988 126.104C384.973 128.913 382.824 131.101 380.003 132.169L378.869 130.481C382.481 129.216 384.881 126.104 384.907 122.466V120.04H386.964V122.387ZM398.328 118.695V132.591H396.245V125.445H391.024V123.731H396.245V118.695H398.328ZM390.55 133.276C395.428 133.276 398.407 134.885 398.407 137.706C398.407 140.501 395.428 142.083 390.55 142.083C385.672 142.083 382.692 140.501 382.692 137.706C382.692 134.885 385.672 133.276 390.55 133.276ZM390.55 134.911C386.964 134.911 384.723 135.966 384.749 137.706C384.723 139.394 386.964 140.422 390.55 140.422C394.136 140.422 396.351 139.394 396.351 137.706C396.351 135.966 394.136 134.911 390.55 134.911ZM410.167 123.151C410.167 126.21 412.461 128.952 415.915 130.086L414.939 131.721C412.237 130.837 410.193 128.965 409.191 126.605C408.176 129.295 406.014 131.391 403.206 132.406L402.151 130.745C405.658 129.559 408.11 126.526 408.137 123.151V122.149H402.784V120.436H415.44V122.149H410.167V123.151ZM420.556 118.695V124.681H424.089V126.421H420.556V132.854H418.499V118.695H420.556ZM413.041 133.487C417.866 133.487 420.767 135.069 420.767 137.759C420.767 140.501 417.866 142.083 413.041 142.083C408.216 142.083 405.263 140.501 405.263 137.759C405.263 135.069 408.216 133.487 413.041 133.487ZM413.041 135.148C409.508 135.148 407.319 136.124 407.346 137.759C407.319 139.446 409.508 140.422 413.041 140.422C416.601 140.422 418.763 139.446 418.763 137.759C418.763 136.124 416.601 135.148 413.041 135.148ZM453.699 129.664V131.378H444.022V133.883C448.452 134.067 451.062 135.518 451.089 137.996C451.062 140.606 448.057 142.083 443.021 142.083C437.932 142.083 434.926 140.606 434.926 137.996C434.926 135.518 437.523 134.067 441.992 133.883V131.378H432.342V129.664H453.699ZM443.021 135.465C439.25 135.491 437.009 136.414 437.035 137.996C437.009 139.552 439.25 140.475 443.021 140.475C446.738 140.475 449.006 139.552 449.006 137.996C449.006 136.414 446.738 135.491 443.021 135.465ZM451.801 119.803V121.49H444.365C444.497 124.127 448.373 126.17 452.513 126.605L451.748 128.24C447.912 127.779 444.312 126.065 443.021 123.441C441.742 126.065 438.156 127.779 434.293 128.24L433.555 126.605C437.615 126.17 441.518 124.127 441.676 121.49H434.293V119.803H451.801ZM475.03 118.722V132.037H472.974V118.722H475.03ZM475.03 133.382V141.819H459.79V133.382H475.03ZM461.82 135.069V140.132H473V135.069H461.82ZM463.982 121.938C463.956 125.261 466.487 128.188 469.941 129.4L468.887 130.982C466.171 130.046 464.009 128.069 462.954 125.498C461.913 128.24 459.724 130.402 456.916 131.431L455.861 129.796C459.421 128.557 461.873 125.393 461.873 121.938V119.645H463.982V121.938ZM486.685 120.409C490.376 120.409 492.986 122.65 492.986 125.92C492.986 129.189 490.376 131.431 486.685 131.431C482.993 131.431 480.33 129.189 480.356 125.92C480.33 122.65 482.993 120.409 486.685 120.409ZM486.685 122.229C484.18 122.229 482.36 123.731 482.387 125.92C482.36 128.108 484.18 129.611 486.685 129.611C489.163 129.611 490.956 128.108 490.956 125.92C490.956 123.731 489.163 122.229 486.685 122.229ZM498.233 118.695V142.188H496.177V118.695H498.233ZM479.144 135.254C483.468 135.254 489.427 135.228 494.621 134.463L494.779 135.992C489.427 136.994 483.652 137.021 479.434 137.021L479.144 135.254ZM527.949 121.068V123.679C527.949 126.685 527.949 129.717 527.105 134.067L525.075 133.83C525.919 129.69 525.919 126.605 525.919 123.679V122.782H511.364V121.068H527.949ZM530.48 137.1V138.813H509.123V137.1H514.423V129.374H516.479V137.1H520.276V129.374H522.307V137.1H530.48ZM553.815 130.007V131.694H548.12V134.674H551.179V142.136H549.096V136.335H534.831V134.674H538.127V131.694H532.458V130.007H553.815ZM543.137 119.275C548.226 119.249 551.416 120.937 551.416 123.731C551.416 126.553 548.226 128.24 543.137 128.214C538.048 128.24 534.831 126.553 534.831 123.731C534.831 120.937 538.048 119.249 543.137 119.275ZM543.137 120.937C539.34 120.91 536.94 121.991 536.967 123.731C536.94 125.524 539.34 126.605 543.137 126.605C546.881 126.605 549.307 125.524 549.307 123.731C549.307 121.991 546.881 120.91 543.137 120.937ZM540.21 134.674H546.09V131.694H540.21V134.674ZM570.559 123.31C570.559 125.894 573.195 128.135 576.676 128.952L575.727 130.534C572.918 129.849 570.664 128.28 569.609 126.157C568.555 128.464 566.3 130.205 563.439 131.009L562.49 129.4C565.971 128.451 568.528 126.078 568.528 123.31V122.756H563.229V121.068H568.528V118.59H570.611V121.068H575.858V122.756H570.559V123.31ZM581.976 118.695V131.009H579.919V126.236H575.146V124.549H579.919V118.695H581.976ZM581.976 132.143V137.68H568.897V140.211H582.872V141.872H566.841V136.098H579.919V133.777H566.788V132.143H581.976ZM599.932 121.227V122.914H585.957V121.227H591.916V118.59H593.973V121.227H599.932ZM592.944 124.127C596.319 124.153 598.561 125.788 598.587 128.372C598.561 130.93 596.319 132.591 592.944 132.591C589.569 132.591 587.275 130.93 587.302 128.372C587.275 125.788 589.569 124.153 592.944 124.127ZM592.944 125.735C590.729 125.762 589.253 126.79 589.279 128.372C589.253 129.928 590.729 130.93 592.944 130.93C595.133 130.93 596.609 129.928 596.636 128.372C596.609 126.79 595.133 125.762 592.944 125.735ZM604.229 118.695V125.208H607.763V126.948H604.229V133.355H602.173V118.695H604.229ZM604.229 134.647V142.136H602.173V136.335H588.884V134.647H604.229ZM622.238 121.306V122.519C622.212 124.364 622.212 127.476 621.553 131.826L619.47 131.642C620.103 127.713 620.155 124.865 620.155 122.993H610.32V121.306H622.238ZM616.095 128.003V135.122C618.692 135.03 621.355 134.858 623.794 134.568L623.899 136.124C618.969 136.889 613.458 136.994 609.266 136.968L609.002 135.254C610.544 135.241 612.258 135.228 614.064 135.175V128.003H616.095ZM627.327 118.695V128.504H631.124V130.297H627.327V142.136H625.271V118.695H627.327ZM646.285 123.784C646.285 126.553 648.131 129.269 651.11 130.35L650.108 131.958C647.814 131.048 646.193 129.295 645.362 127.159C644.545 129.479 642.897 131.391 640.563 132.38L639.535 130.824C642.515 129.585 644.308 126.764 644.334 123.784V123.494H640.01V121.807H644.334V118.985H646.285V121.807H650.53V123.494H646.285V123.784ZM659.258 118.722V133.065H657.28V126.711H654.222V132.96H652.218V119.144H654.222V124.997H657.28V118.722H659.258ZM659.258 134.331V142.136H657.228V136.019H643.464V134.331H659.258ZM682.039 118.722V132.116H679.982V118.722H682.039ZM682.039 133.382V141.819H666.799V133.382H682.039ZM668.829 135.069V140.132H680.009V135.069H668.829ZM669.383 119.961C672.942 119.961 675.526 122.176 675.526 125.445C675.526 128.662 672.942 130.903 669.383 130.903C665.823 130.903 663.239 128.662 663.239 125.445C663.239 122.176 665.823 119.961 669.383 119.961ZM669.383 121.728C666.983 121.701 665.243 123.257 665.27 125.445C665.243 127.607 666.983 129.137 669.383 129.137C671.756 129.137 673.496 127.607 673.496 125.445C673.496 123.257 671.756 121.701 669.383 121.728ZM704.346 118.695V124.443H707.879V126.157H704.346V132.011H702.289V118.695H704.346ZM697.938 120.225C697.912 126.131 693.772 130.35 686.838 132.248L685.994 130.587C691.769 129.031 695.289 125.907 695.724 121.938H687.049V120.225H697.938ZM704.346 133.092V141.819H689.501V133.092H704.346ZM691.558 134.806V140.132H702.289V134.806H691.558ZM304.145 189.096C302.668 189.096 301.455 187.883 301.455 186.38C301.455 184.903 302.668 183.69 304.145 183.69C305.647 183.69 306.86 184.903 306.86 186.38C306.86 187.883 305.647 189.096 304.145 189.096ZM344.803 172.722V189.913H342.746V172.722H344.803ZM345.541 193.895V195.635H329.668V188.331H331.725V193.895H345.541ZM333.755 176.387C333.729 179.946 336.181 183.163 339.661 184.429L338.58 186.09C335.864 185.048 333.755 182.939 332.727 180.236C331.685 183.11 329.549 185.417 326.82 186.512L325.687 184.903C329.246 183.532 331.646 180.078 331.646 176.387V174.04H333.755V176.387ZM362.442 174.884V181.054H352.713V184.033H363.102V185.694H357.67V189.623C359.951 189.531 362.231 189.373 364.394 189.122L364.552 190.678C359.357 191.469 353.688 191.574 349.206 191.548L348.916 189.781C350.973 189.781 353.253 189.768 355.613 189.702V185.694H350.656V179.498H360.412V176.571H350.604V174.884H362.442ZM368.006 172.695V196.188H365.949V172.695H368.006ZM390.444 172.616V178.312H394.004V180.025H390.444V185.589H388.388V172.616H390.444ZM390.444 186.802V191.996H377.577V194.29H391.314V195.872H375.547V190.467H388.388V188.357H375.494V186.802H390.444ZM386.146 174.831V176.492H372.172V174.831H378.131V172.458H380.188V174.831H386.146ZM379.159 177.547C382.561 177.547 384.775 179.023 384.802 181.396C384.775 183.77 382.561 185.246 379.159 185.246C375.731 185.246 373.49 183.77 373.517 181.396C373.49 179.023 375.731 177.547 379.159 177.547ZM379.159 179.076C376.944 179.076 375.468 179.999 375.494 181.396C375.468 182.82 376.944 183.69 379.159 183.69C381.374 183.69 382.824 182.82 382.851 181.396C382.824 179.999 381.374 179.076 379.159 179.076ZM413.99 174.884C413.99 178.18 418.314 181.054 422.533 181.634L421.689 183.321C418.051 182.715 414.452 180.698 412.936 177.811C411.433 180.711 407.82 182.715 404.182 183.321L403.338 181.634C407.557 181.054 411.854 178.232 411.854 174.884V173.539H413.99V174.884ZM423.588 185.905V187.646H413.885V196.136H411.854V187.646H402.23V185.905H423.588ZM440.278 188.437C440.278 190.506 441.386 192.708 443.627 193.974C445.842 192.589 447.028 190.256 447.028 188.437V187.145H449.059V188.437C449.059 190.836 450.825 193.262 453.831 194.29L452.803 195.819C450.456 194.989 448.808 193.354 448.004 191.39C447.279 193.288 445.842 195.081 443.68 196.004C441.399 195.134 439.949 193.407 439.25 191.442C438.419 193.341 436.798 194.976 434.557 195.819L433.502 194.29C436.455 193.183 438.248 190.678 438.274 188.437V187.145H440.278V188.437ZM451.695 172.722V186.116H449.639V172.722H451.695ZM439.039 174.093C442.599 174.093 445.183 176.308 445.183 179.577C445.183 182.794 442.599 185.009 439.039 185.009C435.479 185.009 432.896 182.794 432.896 179.577C432.896 176.308 435.479 174.093 439.039 174.093ZM439.039 175.859C436.64 175.833 434.899 177.389 434.926 179.577C434.899 181.739 436.64 183.269 439.039 183.295C441.412 183.269 443.152 181.739 443.152 179.577C443.152 177.389 441.412 175.833 439.039 175.859ZM474.635 179.814V181.476H458.577V173.565H460.634V179.814H474.635ZM477.113 184.666V186.354H455.65V184.666H477.113ZM474.767 193.842V195.556H458.445V188.753H460.502V193.842H474.767ZM504.614 175.068V177.679C504.614 180.685 504.614 183.717 503.771 188.067L501.74 187.83C502.584 183.69 502.584 180.605 502.584 177.679V176.782H488.029V175.068H504.614ZM507.146 191.1V192.813H485.788V191.1H491.088V183.374H493.145V191.1H496.941V183.374H498.972V191.1H507.146ZM530.48 184.007V185.694H524.785V188.674H527.844V196.136H525.761V190.335H511.496V188.674H514.792V185.694H509.123V184.007H530.48ZM519.802 173.275C524.891 173.249 528.081 174.937 528.081 177.731C528.081 180.553 524.891 182.24 519.802 182.214C514.713 182.24 511.496 180.553 511.496 177.731C511.496 174.937 514.713 173.249 519.802 173.275ZM519.802 174.937C516.005 174.91 513.605 175.991 513.632 177.731C513.605 179.524 516.005 180.605 519.802 180.605C523.546 180.605 525.972 179.524 525.972 177.731C525.972 175.991 523.546 174.91 519.802 174.937ZM516.875 188.674H522.755V185.694H516.875V188.674ZM542.082 174.937V180.658H547.171V174.937H549.096V190.282H540.104V174.937H542.082ZM542.082 188.568H547.171V182.346H542.082V188.568ZM559.326 172.695V196.136H557.322V183.717H554.053V194.949H552.075V173.196H554.053V182.003H557.322V172.695H559.326ZM582.002 172.722V186.802H579.919V183.638H573.696V181.924H579.919V178.76H573.934C572.391 182.53 568.766 185.259 563.756 186.749L562.886 185.114C568.555 183.427 572.075 180.263 572.51 176.202H564.072V174.462H574.751C574.751 175.385 574.646 176.268 574.461 177.099H579.919V172.722H582.002ZM574.329 187.039C579.075 187.039 582.134 188.727 582.134 191.521C582.134 194.343 579.075 196.03 574.329 196.03C569.53 196.03 566.498 194.343 566.498 191.521C566.498 188.727 569.53 187.039 574.329 187.039ZM574.329 188.7C570.796 188.674 568.528 189.755 568.528 191.521C568.528 193.288 570.796 194.343 574.329 194.343C577.81 194.343 580.051 193.288 580.077 191.521C580.051 189.755 577.81 188.674 574.329 188.7ZM598.903 175.306V176.519C598.877 178.364 598.877 181.476 598.218 185.826L596.135 185.642C596.768 181.713 596.82 178.865 596.82 176.993H586.985V175.306H598.903ZM592.76 182.003V189.122C595.357 189.03 598.02 188.858 600.459 188.568L600.564 190.124C595.634 190.889 590.123 190.994 585.931 190.968L585.667 189.254C587.209 189.241 588.923 189.228 590.729 189.175V182.003H592.76ZM603.992 172.695V182.504H607.789V184.297H603.992V196.136H601.936V172.695H603.992ZM634.842 175.068V177.679C634.842 180.685 634.842 183.717 633.998 188.067L631.968 187.83C632.812 183.69 632.812 180.605 632.812 177.679V176.782H618.257V175.068H634.842ZM637.373 191.1V192.813H616.016V191.1H621.315V183.374H623.372V191.1H627.169V183.374H629.199V191.1H637.373ZM644.123 186.775V189.518H655.83V186.775H657.913V195.819H642.066V186.775H644.123ZM644.123 194.158H655.83V191.152H644.123V194.158ZM660.708 183.4V185.114H639.351V183.4H660.708ZM651.11 174.066C651.11 176.967 655.382 179.551 659.495 180.078L658.73 181.739C655.092 181.199 651.532 179.34 650.056 176.703C648.553 179.353 644.967 181.199 641.354 181.739L640.563 180.078C644.729 179.524 648.975 177.046 648.975 174.066V172.959H651.11V174.066ZM688.895 187.804V196.136H686.812V189.465H673.127V187.804H688.895ZM688.895 172.695V186.512H686.812V183.137H680.773C679.679 184.468 677.952 185.259 675.922 185.246C672.415 185.272 669.831 182.952 669.831 179.63C669.831 176.36 672.415 174.04 675.922 174.04C677.939 174.04 679.666 174.831 680.773 176.149H686.812V172.695H688.895ZM675.922 175.807C673.522 175.807 671.809 177.415 671.809 179.63C671.809 181.924 673.522 183.506 675.922 183.506C678.216 183.506 679.982 181.924 679.982 179.63C679.982 177.415 678.216 175.807 675.922 175.807ZM681.696 181.423H686.812V177.863H681.696C681.881 178.417 681.986 178.997 681.986 179.63C681.986 180.263 681.881 180.869 681.696 181.423ZM714.682 176.387V178.127H711.122V181.317H714.682V183.084H711.122V186.907H709.065V172.722H711.122V176.387H714.682ZM704.425 174.172V180.5H695.882V183.77C700.048 183.77 703.067 183.625 706.719 183.005L706.93 184.745C703.159 185.378 700.021 185.51 695.671 185.51H693.852V178.865H702.395V175.886H693.799V174.172H704.425ZM703.607 187.593C708.38 187.593 711.333 189.175 711.333 191.864C711.333 194.554 708.38 196.083 703.607 196.083C698.756 196.083 695.829 194.554 695.829 191.864C695.829 189.175 698.756 187.593 703.607 187.593ZM703.607 189.228C700.021 189.228 697.833 190.203 697.859 191.864C697.833 193.499 700.021 194.475 703.607 194.475C707.167 194.475 709.329 193.499 709.329 191.864C709.329 190.203 707.167 189.228 703.607 189.228Z" fill="black"/>
<path d="M271 62L271 194" stroke="#F2F2F7" stroke-width="2"/>
<path d="M92.9844 173.959C92.9844 177.531 94.8916 181.073 99.2812 182.526L97.1924 185.554C94.271 184.479 92.2578 182.451 91.1074 179.893C89.9116 182.769 87.7622 185.039 84.5684 186.189L82.4795 183.162C87.0811 181.648 89.0791 177.864 89.0791 173.929V170.932H92.9844V173.959ZM105.881 169.267V189.61H102.036V178.228H96.8594V175.109H102.036V169.267H105.881ZM106.456 193.213V196.301H87.5352V187.461H91.4404V193.213H106.456ZM114.115 170.478V173.747H119.746V170.478H123.621V182.496H110.271V170.478H114.115ZM114.115 179.469H119.746V176.653H114.115V179.469ZM131.311 169.236V174.595H135.034V177.713H131.311V183.253H127.436V169.236H131.311ZM131.311 184.282V191.76H116.87V193.546H132.098V196.604H113.086V189.005H127.466V187.279H113.025V184.282H131.311ZM166.549 169.236V196.785H162.644V169.236H166.549ZM158.284 172.112C158.284 180.468 155.348 187.4 145.509 192.062L143.48 188.975C150.595 185.614 153.728 181.255 154.349 175.14H144.964V172.112H158.284ZM193.038 170.417V173.444H185.439C185.894 175.715 188.739 178.016 194.188 178.621L192.766 181.648C187.604 181.073 184.153 178.924 182.715 176.078C181.262 178.909 177.841 181.073 172.694 181.648L171.302 178.621C176.751 178.016 179.566 175.685 180.021 173.444H172.482V170.417H193.038ZM195.369 182.95V186.038H184.985V190.791H181.171V186.038H170.151V182.95H195.369ZM192.584 193.213V196.301H173.118V188.339H176.963V193.213H192.584Z" fill="black"/>
<circle cx="139" cy="107" r="45" fill="#CCE0FF"/>
<g filter="url(#filter0_i_590_1002)">
<circle cx="139" cy="107" r="42.3399" fill="#CCE0FF"/>
</g>
<g filter="url(#filter1_d_590_1002)">
<path d="M150.387 94.3203C152.339 92.3678 155.505 92.3679 157.458 94.3203L157.598 94.4599C159.55 96.4125 159.55 99.5786 157.598 101.531L138.998 120.131C137.279 121.85 134.621 122.054 132.677 120.747C132.376 120.555 132.089 120.328 131.826 120.065L121.002 109.24C119.049 107.288 119.049 104.122 121.002 102.169L121.141 102.03C123.093 100.078 126.259 100.078 128.212 102.03L135.444 109.263L150.387 94.3203Z" fill="#69A4FF"/>
</g>
<defs>
<filter id="filter0_i_590_1002" x="96.6602" y="64.6602" width="88.6797" height="87.6797" filterUnits="userSpaceOnUse" color-interpolation-filters="sRGB">
<feFlood flood-opacity="0" result="BackgroundImageFix"/>
<feBlend mode="normal" in="SourceGraphic" in2="BackgroundImageFix" result="shape"/>
<feColorMatrix in="SourceAlpha" type="matrix" values="0 0 0 0 0 0 0 0 0 0 0 0 0 0 0 0 0 0 127 0" result="hardAlpha"/>
<feOffset dx="4" dy="3"/>
<feGaussianBlur stdDeviation="3.5"/>
<feComposite in2="hardAlpha" operator="arithmetic" k2="-1" k3="1"/>
<feColorMatrix type="matrix" values="0 0 0 0 1 0 0 0 0 1 0 0 0 0 1 0 0 0 0.3 0"/>
<feBlend mode="normal" in2="shape" result="effect1_innerShadow_590_1002"/>
</filter>
<filter id="filter1_d_590_1002" x="112.538" y="86.856" width="59.5244" height="48.7388" filterUnits="userSpaceOnUse" color-interpolation-filters="sRGB">
<feFlood flood-opacity="0" result="BackgroundImageFix"/>
<feColorMatrix in="SourceAlpha" type="matrix" values="0 0 0 0 0 0 0 0 0 0 0 0 0 0 0 0 0 0 127 0" result="hardAlpha"/>
<feOffset dx="3" dy="4"/>
<feGaussianBlur stdDeviation="5"/>
<feComposite in2="hardAlpha" operator="out"/>
<feColorMatrix type="matrix" values="0 0 0 0 0.411765 0 0 0 0 0.643137 0 0 0 0 1 0 0 0 0.6 0"/>
<feBlend mode="normal" in2="BackgroundImageFix" result="effect1_dropShadow_590_1002"/>
<feBlend mode="normal" in="SourceGraphic" in2="effect1_dropShadow_590_1002" result="shape"/>
</filter>
<linearGradient id="paint0_linear_590_1002" x1="-0.722946" y1="130" x2="1112.71" y2="130" gradientUnits="userSpaceOnUse">
<stop stop-color="#3182F6"/>
<stop offset="1" stop-color="#A009FF"/>
</linearGradient>
</defs>
</svg>
