<svg width="1078" height="188" viewBox="0 0 1078 188" fill="none" xmlns="http://www.w3.org/2000/svg">
<rect x="2" y="2" width="1074" height="184" rx="13" fill="white" stroke="url(#paint0_linear_469_1604)" stroke-width="4"/>
<path d="M408.922 66.3672C407.828 66.3672 406.93 65.4688 406.93 64.3555C406.93 63.2617 407.828 62.3633 408.922 62.3633C410.035 62.3633 410.934 63.2617 410.934 64.3555C410.934 65.4688 410.035 66.3672 408.922 66.3672ZM439.02 54.2383V67.4219H437.477V65.625H433.883V64.5117H437.477V54.2383H439.02ZM439.449 69.9219V71.2109H427.105V66.1328H428.648V69.9219H439.449ZM424.605 62.2852C427.848 62.2656 432.184 62.2461 435.914 61.7773L436.012 62.8906C434.459 63.1348 432.838 63.291 431.246 63.3789V66.8164H429.703V63.457C427.945 63.5352 426.275 63.5449 424.82 63.5352L424.605 62.2852ZM430.309 54.9414C432.848 54.9414 434.586 56.1523 434.605 57.9688C434.586 59.8242 432.848 60.9766 430.309 60.9766C427.75 60.9766 426.012 59.8242 426.012 57.9688C426.012 56.1523 427.75 54.9414 430.309 54.9414ZM430.309 56.1133C428.609 56.0938 427.457 56.8555 427.477 57.9688C427.457 59.1016 428.609 59.8438 430.309 59.8438C431.949 59.8438 433.121 59.1016 433.141 57.9688C433.121 56.8555 431.949 56.0938 430.309 56.1133ZM446.656 55.5664C449.02 55.5859 450.719 57.6074 450.973 60.8594H454.859V54.2188H456.383V71.6211H454.859V62.1289H450.992C450.807 65.5273 449.078 67.6562 446.656 67.6562C444.098 67.6562 442.301 65.3125 442.301 61.6211C442.301 57.9297 444.098 55.5859 446.656 55.5664ZM446.656 56.9336C444.938 56.9531 443.766 58.7891 443.766 61.6211C443.766 64.4531 444.938 66.2891 446.656 66.2891C448.355 66.2891 449.547 64.4531 449.547 61.6211C449.547 58.7891 448.355 56.9531 446.656 56.9336ZM468.336 55.7422V63.7891H460.191V55.7422H468.336ZM461.695 57.0117V62.5586H466.832V57.0117H461.695ZM473.609 54.2383V66.7188H472.086V54.2383H473.609ZM474.156 69.7266V70.9961H462.398V65.5078H463.922V69.7266H474.156ZM490.289 55.8398C490.289 58.2812 493.492 60.4102 496.617 60.8398L495.992 62.0898C493.297 61.6406 490.631 60.1465 489.508 58.0078C488.395 60.1562 485.719 61.6406 483.023 62.0898L482.398 60.8398C485.523 60.4102 488.707 58.3203 488.707 55.8398V54.8438H490.289V55.8398ZM497.398 64.0039V65.293H490.211V71.582H488.707V65.293H481.578V64.0039H497.398ZM507.77 56.3867C507.75 58.5156 510.68 60.2539 513.746 60.6836L513.141 61.8945C510.338 61.4941 507.721 60.0879 506.773 58.0469C505.836 60.0879 503.229 61.4941 500.406 61.8945L499.84 60.6836C502.906 60.2539 505.777 58.5156 505.777 56.3867V56.3477H500.309V55.0977H513.277V56.3477H507.77V56.3867ZM514.742 63.1641V64.4336H507.672V67.9883H506.148V64.4336H498.844V63.1641H514.742ZM512.965 69.9219V71.2109H500.875V66.25H502.418V69.9219H512.965ZM521.832 55.4883C524.566 55.4883 526.5 57.1484 526.5 59.5703C526.5 61.9922 524.566 63.6523 521.832 63.6523C519.098 63.6523 517.125 61.9922 517.145 59.5703C517.125 57.1484 519.098 55.4883 521.832 55.4883ZM521.832 56.8359C519.977 56.8359 518.629 57.9492 518.648 59.5703C518.629 61.1914 519.977 62.3047 521.832 62.3047C523.668 62.3047 524.996 61.1914 524.996 59.5703C524.996 57.9492 523.668 56.8359 521.832 56.8359ZM530.387 54.2188V71.6211H528.863V54.2188H530.387ZM516.246 66.4844C519.449 66.4844 523.863 66.4648 527.711 65.8984L527.828 67.0312C523.863 67.7734 519.586 67.793 516.461 67.793L516.246 66.4844ZM552.77 54.2188V71.6211H551.227V54.2188H552.77ZM543.531 55.5664C546.109 55.5859 547.965 57.9297 547.965 61.6211C547.965 65.3125 546.109 67.6562 543.531 67.6562C540.934 67.6562 539.098 65.3125 539.098 61.6211C539.098 57.9297 540.934 55.5859 543.531 55.5664ZM543.531 56.9336C541.793 56.9531 540.582 58.7891 540.582 61.6211C540.582 64.4531 541.793 66.2891 543.531 66.2891C545.27 66.2891 546.48 64.4531 546.48 61.6211C546.48 58.7891 545.27 56.9531 543.531 56.9336ZM571.559 62.3438V63.6133H564.391V65.4688C567.672 65.6055 569.605 66.6797 569.625 68.5156C569.605 70.4492 567.379 71.543 563.648 71.543C559.879 71.543 557.652 70.4492 557.652 68.5156C557.652 66.6797 559.576 65.6055 562.887 65.4688V63.6133H555.738V62.3438H571.559ZM563.648 66.6406C560.855 66.6602 559.195 67.3438 559.215 68.5156C559.195 69.668 560.855 70.3516 563.648 70.3516C566.402 70.3516 568.082 69.668 568.082 68.5156C568.082 67.3438 566.402 66.6602 563.648 66.6406ZM570.152 55.0391V56.2891H564.645C564.742 58.2422 567.613 59.7559 570.68 60.0781L570.113 61.2891C567.271 60.9473 564.605 59.6777 563.648 57.7344C562.701 59.6777 560.045 60.9473 557.184 61.2891L556.637 60.0781C559.645 59.7559 562.535 58.2422 562.652 56.2891H557.184V55.0391H570.152ZM587.418 54.2383V67.0312H585.875V60.332H582.242C581.9 62.4707 580.104 63.9258 577.809 63.9258C575.211 63.9258 573.297 62.1484 573.297 59.6289C573.297 57.1094 575.211 55.3516 577.809 55.3516C580.152 55.3516 581.979 56.8457 582.262 59.0625H585.875V54.2383H587.418ZM587.906 69.9219V71.2109H576.266V65.7227H577.809V69.9219H587.906ZM577.809 56.6992C576.07 56.7188 574.762 57.9102 574.762 59.6289C574.762 61.3477 576.07 62.5781 577.809 62.5977C579.508 62.5781 580.816 61.3477 580.816 59.6289C580.816 57.9102 579.508 56.7188 577.809 56.6992ZM594.977 55.5664C597.34 55.5859 599.039 57.6074 599.293 60.8594H603.18V54.2188H604.703V71.6211H603.18V62.1289H599.312C599.127 65.5273 597.398 67.6562 594.977 67.6562C592.418 67.6562 590.621 65.3125 590.621 61.6211C590.621 57.9297 592.418 55.5859 594.977 55.5664ZM594.977 56.9336C593.258 56.9531 592.086 58.7891 592.086 61.6211C592.086 64.4531 593.258 66.2891 594.977 66.2891C596.676 66.2891 597.867 64.4531 597.867 61.6211C597.867 58.7891 596.676 56.9531 594.977 56.9336ZM626.344 55.3516V56.875C626.344 58.5254 626.344 60.3125 625.855 62.8125H628.434V64.082H621.266V71.6211H619.723V64.082H612.613V62.8125H624.293C624.82 60.3125 624.82 58.4863 624.82 56.875V56.6211H614.605V55.3516H626.344ZM635.719 58.8867C635.719 61.9531 637.75 65.0977 640.211 66.3086L639.273 67.5391C637.359 66.5332 635.758 64.4824 634.996 62.0703C634.215 64.6387 632.574 66.8262 630.621 67.8711L629.645 66.6406C632.184 65.3906 634.195 62.0508 634.215 58.8867V55.7227H635.719V58.8867ZM643.336 54.2188V61.2695H646.246V62.5977H643.336V71.582H641.812V54.2188H643.336ZM666.227 59.082V60.3516H654.371V54.5703H655.895V59.082H666.227ZM668.043 62.3828V63.6523H652.203V62.3828H668.043ZM660.113 65.2148C663.844 65.2148 666.07 66.3477 666.09 68.3594C666.07 70.3711 663.844 71.5039 660.113 71.5039C656.363 71.5039 654.117 70.3711 654.117 68.3594C654.117 66.3477 656.363 65.2148 660.113 65.2148ZM660.113 66.4258C657.32 66.4453 655.66 67.1289 655.68 68.3594C655.66 69.5703 657.32 70.3125 660.113 70.3125C662.867 70.3125 664.547 69.5703 664.547 68.3594C664.547 67.1289 662.867 66.4453 660.113 66.4258ZM677.73 55.293V60.1562H671.754V62.8516C675.016 62.8516 676.695 62.8027 678.746 62.4219L678.902 63.6914C676.734 64.043 674.977 64.1016 671.461 64.1016H670.23V58.9844H676.207V56.5234H670.191V55.293H677.73ZM683.883 54.2383V64.9023H682.34V61.6797H678.883V60.4102H682.34V58.0664H678.883V56.8164H682.34V54.2383H683.883ZM683.883 65.8398V71.6211H682.34V67.0898H672.184V65.8398H683.883ZM696.402 56.1523V57.0508C696.383 58.418 696.383 60.7227 695.895 63.9453L694.352 63.8086C694.82 60.8984 694.859 58.7891 694.859 57.4023H687.574V56.1523H696.402ZM691.852 61.1133V66.3867C693.775 66.3184 695.748 66.1914 697.555 65.9766L697.633 67.1289C693.98 67.6953 689.898 67.7734 686.793 67.7539L686.598 66.4844C687.74 66.4746 689.01 66.4648 690.348 66.4258V61.1133H691.852ZM700.172 54.2188V61.4844H702.984V62.8125H700.172V71.582H698.648V54.2188H700.172ZM723.395 54.2188V63.2227H721.891V54.2188H723.395ZM723.414 64.1016V68.2617H713.668V70.1367H724.039V71.3867H712.164V67.0703H721.891V65.332H712.125V64.1016H723.414ZM715.23 56.0547C715.211 58.5156 717.086 60.6836 719.664 61.5234L718.902 62.7148C716.871 62.0215 715.25 60.5664 714.469 58.6914C713.688 60.7129 712.057 62.3047 709.996 63.0469L709.195 61.8359C711.812 60.918 713.668 58.6133 713.668 56.0547V54.7266H715.23V56.0547ZM740.68 54.2188V63.2422H739.176V54.2188H740.68ZM740.699 64.082V68.2227H730.953V70.1562H741.324V71.3867H729.449V67.0703H739.176V65.293H729.41V64.082H740.699ZM732.613 56.6797C732.613 58.9453 734.469 60.918 737.086 61.6992L736.324 62.8906C734.273 62.2461 732.643 60.8691 731.871 59.082C731.119 61.0352 729.459 62.5586 727.34 63.2617L726.617 62.0508C729.215 61.1914 731.07 59.0625 731.07 56.6797V56.4844H727.008V55.2148H736.617V56.4844H732.613V56.6797ZM749.684 57.4219C749.684 59.6875 751.422 61.8359 753.961 62.7148L753.16 63.9258C751.197 63.2227 749.684 61.7676 748.941 59.9805C748.189 61.9824 746.588 63.584 744.527 64.3359L743.727 63.125C746.285 62.207 748.141 59.8828 748.141 57.4414V56.6797H744.215V55.4297H753.57V56.6797H749.684V57.4219ZM758.043 65.5469V71.582H756.5V66.8164H746.363V65.5469H758.043ZM758.043 54.2188V64.6289H756.5V60.0586H753.023V58.7695H756.5V54.2188H758.043ZM775.27 54.2383V66.9336H773.746V54.2383H775.27ZM775.816 69.9219V71.2109H764.059V65.6445H765.582V69.9219H775.816ZM765.895 55.4492C768.492 55.4492 770.445 57.207 770.445 59.707C770.445 62.2461 768.492 63.9844 765.895 63.9844C763.297 63.9844 761.344 62.2461 761.344 59.707C761.344 57.207 763.297 55.4492 765.895 55.4492ZM765.895 56.7969C764.137 56.7969 762.828 58.0078 762.848 59.707C762.828 61.4453 764.137 62.6367 765.895 62.6367C767.613 62.6367 768.941 61.4453 768.941 59.707C768.941 58.0078 767.613 56.7969 765.895 56.7969ZM784.098 70V55.8594H792.672V57.4219H785.855V62.1484H792.223V63.6914H785.855V68.4375H792.77V70H784.098ZM803.16 59.4141C803.004 58.0273 801.734 57.2266 800.035 57.2266C798.16 57.2266 796.93 58.2031 796.93 59.5508C796.93 61.0352 798.59 61.582 799.664 61.8555L801.07 62.2461C802.594 62.6367 805.074 63.5156 805.074 66.1523C805.074 68.457 803.219 70.2539 799.938 70.2539C796.891 70.2539 794.996 68.6719 794.84 66.3281H796.637C796.793 67.9102 798.258 68.6523 799.938 68.6523C801.891 68.6523 803.355 67.6562 803.355 66.1133C803.355 64.7461 802.047 64.2188 800.562 63.7891L798.824 63.3203C796.598 62.6758 795.23 61.543 795.23 59.6289C795.23 57.2461 797.359 55.6641 800.094 55.6641C802.828 55.6641 804.801 57.2656 804.879 59.4141H803.16ZM807.594 70V55.8594H809.352V68.4375H815.914V70H807.594ZM836.363 55.9766V57.9102C836.363 60.1367 836.363 62.3828 835.738 65.6055L834.234 65.4297C834.859 62.3633 834.859 60.0781 834.859 57.9102V57.2461H824.078V55.9766H836.363ZM838.238 67.8516V69.1211H822.418V67.8516H826.344V62.1289H827.867V67.8516H830.68V62.1289H832.184V67.8516H838.238ZM855.523 62.5977V63.8477H851.305V66.0547H853.57V71.582H852.027V67.2852H841.461V66.0547H843.902V63.8477H839.703V62.5977H855.523ZM847.613 54.6484C851.383 54.6289 853.746 55.8789 853.746 57.9492C853.746 60.0391 851.383 61.2891 847.613 61.2695C843.844 61.2891 841.461 60.0391 841.461 57.9492C841.461 55.8789 843.844 54.6289 847.613 54.6484ZM847.613 55.8789C844.801 55.8594 843.023 56.6602 843.043 57.9492C843.023 59.2773 844.801 60.0781 847.613 60.0781C850.387 60.0781 852.184 59.2773 852.184 57.9492C852.184 56.6602 850.387 55.8594 847.613 55.8789ZM845.445 66.0547H849.801V63.8477H845.445V66.0547ZM876.402 54.2383V64.668H874.859V62.3242H870.25V61.0547H874.859V58.7109H870.426C869.283 61.5039 866.598 63.5254 862.887 64.6289L862.242 63.418C866.441 62.168 869.049 59.8242 869.371 56.8164H863.121V55.5273H871.031C871.031 56.2109 870.953 56.8652 870.816 57.4805H874.859V54.2383H876.402ZM870.719 64.8438C874.234 64.8438 876.5 66.0938 876.5 68.1641C876.5 70.2539 874.234 71.5039 870.719 71.5039C867.164 71.5039 864.918 70.2539 864.918 68.1641C864.918 66.0938 867.164 64.8438 870.719 64.8438ZM870.719 66.0742C868.102 66.0547 866.422 66.8555 866.422 68.1641C866.422 69.4727 868.102 70.2539 870.719 70.2539C873.297 70.2539 874.957 69.4727 874.977 68.1641C874.957 66.8555 873.297 66.0547 870.719 66.0742ZM893.688 54.2188V64.7461H892.145V60.7812H889.195V59.5117H892.145V54.2188H893.688ZM893.688 65.6836V71.3477H882.34V65.6836H893.688ZM883.863 66.9141V70.0977H892.184V66.9141H883.863ZM889.449 56.0547V57.3047H879.312V56.0547H883.629V54.0625H885.133V56.0547H889.449ZM884.371 58.2031C886.734 58.2031 888.395 59.4727 888.414 61.2891C888.395 63.1641 886.734 64.3945 884.371 64.3945C882.008 64.3945 880.348 63.1641 880.348 61.2891C880.348 59.4727 882.008 58.2031 884.371 58.2031ZM884.371 59.3945C882.867 59.3945 881.812 60.1758 881.812 61.2891C881.812 62.4414 882.867 63.2031 884.371 63.2227C885.875 63.2031 886.93 62.4414 886.93 61.2891C886.93 60.1758 885.875 59.3945 884.371 59.3945ZM408.922 98.3672C407.828 98.3672 406.93 97.4688 406.93 96.3555C406.93 95.2617 407.828 94.3633 408.922 94.3633C410.035 94.3633 410.934 95.2617 410.934 96.3555C410.934 97.4688 410.035 98.3672 408.922 98.3672ZM429.352 87.5664C431.91 87.5859 433.727 89.9297 433.746 93.6211C433.727 97.3125 431.91 99.6562 429.352 99.6562C426.773 99.6562 424.977 97.3125 424.977 93.6211C424.977 89.9297 426.773 87.5859 429.352 87.5664ZM429.352 88.9336C427.633 88.9531 426.422 90.7891 426.422 93.6211C426.422 96.4531 427.633 98.2891 429.352 98.2891C431.09 98.2891 432.262 96.4531 432.262 93.6211C432.262 90.7891 431.09 88.9531 429.352 88.9336ZM438.141 86.2188V93.1523H441.051V94.4805H438.141V103.582H436.617V86.2188H438.141ZM456.305 86.2188V103.621H454.762V86.2188H456.305ZM447.066 87.5664C449.645 87.5859 451.5 89.9297 451.5 93.6211C451.5 97.3125 449.645 99.6562 447.066 99.6562C444.469 99.6562 442.633 97.3125 442.633 93.6211C442.633 89.9297 444.469 87.5859 447.066 87.5664ZM447.066 88.9336C445.328 88.9531 444.117 90.7891 444.117 93.6211C444.117 96.4531 445.328 98.2891 447.066 98.2891C448.805 98.2891 450.016 96.4531 450.016 93.6211C450.016 90.7891 448.805 88.9531 447.066 88.9336ZM464.957 87.4883C467.691 87.4883 469.625 89.1484 469.625 91.5703C469.625 93.9922 467.691 95.6523 464.957 95.6523C462.223 95.6523 460.25 93.9922 460.27 91.5703C460.25 89.1484 462.223 87.4883 464.957 87.4883ZM464.957 88.8359C463.102 88.8359 461.754 89.9492 461.773 91.5703C461.754 93.1914 463.102 94.3047 464.957 94.3047C466.793 94.3047 468.121 93.1914 468.121 91.5703C468.121 89.9492 466.793 88.8359 464.957 88.8359ZM473.512 86.2188V103.621H471.988V86.2188H473.512ZM459.371 98.4844C462.574 98.4844 466.988 98.4648 470.836 97.8984L470.953 99.0312C466.988 99.7734 462.711 99.793 459.586 99.793L459.371 98.4844ZM487.555 88.9531C487.535 91.4336 489.293 93.6211 491.852 94.4805L490.992 95.6719C489.078 94.9492 487.574 93.543 486.832 91.707C486.08 93.7871 484.488 95.4082 482.398 96.1992L481.559 94.9492C484.234 94.0117 486.012 91.707 486.031 89.0117V87.2148H487.555V88.9531ZM495.973 86.2188V96.5117H494.43V91.2188H490.562V89.9492H494.43V86.2188H495.973ZM490.211 97.0195C493.824 97.0195 496.031 98.2109 496.031 100.301C496.031 102.371 493.824 103.543 490.211 103.543C486.598 103.543 484.391 102.371 484.391 100.301C484.391 98.2109 486.598 97.0195 490.211 97.0195ZM490.211 98.2305C487.555 98.2305 485.895 99.0117 485.914 100.301C485.895 101.551 487.555 102.312 490.211 102.312C492.867 102.312 494.508 101.551 494.508 100.301C494.508 99.0117 492.867 98.2305 490.211 98.2305ZM504.742 89.5195C504.742 91.7852 506.441 93.8164 509 94.6562L508.277 95.8672C506.275 95.2129 504.762 93.8262 504.02 92.0781C503.268 94.0703 501.666 95.623 499.586 96.375L498.805 95.1445C501.402 94.2656 503.219 92.0195 503.238 89.5195V88.7773H499.273V87.5078H508.648V88.7773H504.742V89.5195ZM512.438 86.2188V90.6523H515.055V91.9414H512.438V96.707H510.914V86.2188H512.438ZM506.871 97.1758C510.445 97.1758 512.594 98.3477 512.594 100.34C512.594 102.371 510.445 103.543 506.871 103.543C503.297 103.543 501.109 102.371 501.109 100.34C501.109 98.3477 503.297 97.1758 506.871 97.1758ZM506.871 98.4062C504.254 98.4062 502.633 99.1289 502.652 100.34C502.633 101.59 504.254 102.312 506.871 102.312C509.508 102.312 511.109 101.59 511.109 100.34C511.109 99.1289 509.508 98.4062 506.871 98.4062ZM524.059 86.5312C527.926 86.5312 530.191 87.5859 530.191 89.5195C530.191 91.4922 527.926 92.5469 524.059 92.5664C520.191 92.5469 517.906 91.4922 517.906 89.5195C517.906 87.5859 520.191 86.5312 524.059 86.5312ZM524.059 87.6836C521.168 87.6836 519.488 88.3867 519.508 89.5195C519.488 90.7305 521.168 91.3945 524.059 91.3945C526.93 91.3945 528.629 90.7305 528.629 89.5195C528.629 88.3867 526.93 87.6836 524.059 87.6836ZM531.969 93.7383V94.9883H516.148V93.7383H531.969ZM529.938 96.4922V100.379H519.625V102.176H530.465V103.387H518.102V99.2461H528.434V97.6641H518.062V96.4922H529.938ZM554.273 94.3438V95.6133H547.105V97.4688C550.387 97.6055 552.32 98.6797 552.34 100.516C552.32 102.449 550.094 103.543 546.363 103.543C542.594 103.543 540.367 102.449 540.367 100.516C540.367 98.6797 542.291 97.6055 545.602 97.4688V95.6133H538.453V94.3438H554.273ZM546.363 98.6406C543.57 98.6602 541.91 99.3438 541.93 100.516C541.91 101.668 543.57 102.352 546.363 102.352C549.117 102.352 550.797 101.668 550.797 100.516C550.797 99.3438 549.117 98.6602 546.363 98.6406ZM552.867 87.0391V88.2891H547.359C547.457 90.2422 550.328 91.7559 553.395 92.0781L552.828 93.2891C549.986 92.9473 547.32 91.6777 546.363 89.7344C545.416 91.6777 542.76 92.9473 539.898 93.2891L539.352 92.0781C542.359 91.7559 545.25 90.2422 545.367 88.2891H539.898V87.0391H552.867ZM570.074 86.2383V96.1016H568.551V86.2383H570.074ZM570.074 97.0977V103.348H558.785V97.0977H570.074ZM560.289 98.3477V102.098H568.57V98.3477H560.289ZM561.891 88.6211C561.871 91.082 563.746 93.25 566.305 94.1484L565.523 95.3203C563.512 94.627 561.91 93.1621 561.129 91.2578C560.357 93.2891 558.736 94.8906 556.656 95.6523L555.875 94.4414C558.512 93.5234 560.328 91.1797 560.328 88.6211V86.9219H561.891V88.6211ZM587.906 86.2188V103.582H586.422V86.2188H587.906ZM584.41 86.5898V102.703H582.945V94.2656H580.719C580.553 97.6445 579.117 99.7539 576.969 99.7539C574.703 99.7539 573.238 97.4102 573.238 93.7188C573.238 90.0273 574.703 87.6836 576.969 87.6836C579.078 87.6836 580.504 89.7246 580.699 92.9961H582.945V86.5898H584.41ZM576.969 89.1289C575.562 89.1289 574.664 90.8867 574.684 93.7188C574.664 96.5312 575.562 98.3086 576.969 98.2891C578.375 98.3086 579.273 96.5312 579.273 93.7188C579.273 90.8867 578.375 89.1289 576.969 89.1289ZM609.176 92.7227V93.9531H597.516V87.2539H608.941V88.5234H599.078V92.7227H609.176ZM611.207 96.2578V97.5078H603.961V103.523H602.457V97.5078H595.309V96.2578H611.207ZM626.656 91.4922V92.7227H614.762V86.8633H616.285V91.4922H626.656ZM628.492 95.0859V96.3359H612.594V95.0859H628.492ZM626.754 101.883V103.152H614.664V98.1133H616.188V101.883H626.754ZM648.863 87.9766V89.9102C648.863 92.1367 648.863 94.3828 648.238 97.6055L646.734 97.4297C647.359 94.3633 647.359 92.0781 647.359 89.9102V89.2461H636.578V87.9766H648.863ZM650.738 99.8516V101.121H634.918V99.8516H638.844V94.1289H640.367V99.8516H643.18V94.1289H644.684V99.8516H650.738ZM668.023 94.5977V95.8477H663.805V98.0547H666.07V103.582H664.527V99.2852H653.961V98.0547H656.402V95.8477H652.203V94.5977H668.023ZM660.113 86.6484C663.883 86.6289 666.246 87.8789 666.246 89.9492C666.246 92.0391 663.883 93.2891 660.113 93.2695C656.344 93.2891 653.961 92.0391 653.961 89.9492C653.961 87.8789 656.344 86.6289 660.113 86.6484ZM660.113 87.8789C657.301 87.8594 655.523 88.6602 655.543 89.9492C655.523 91.2773 657.301 92.0781 660.113 92.0781C662.887 92.0781 664.684 91.2773 664.684 89.9492C664.684 88.6602 662.887 87.8594 660.113 87.8789ZM657.945 98.0547H662.301V95.8477H657.945V98.0547ZM680.426 89.6367C680.426 91.5508 682.379 93.2109 684.957 93.8164L684.254 94.9883C682.174 94.4805 680.504 93.3184 679.723 91.7461C678.941 93.4551 677.271 94.7441 675.152 95.3398L674.449 94.1484C677.027 93.4453 678.922 91.6875 678.922 89.6367V89.2266H674.996V87.9766H678.922V86.1406H680.465V87.9766H684.352V89.2266H680.426V89.6367ZM688.883 86.2188V95.3398H687.359V91.8047H683.824V90.5547H687.359V86.2188H688.883ZM688.883 96.1797V100.281H679.195V102.156H689.547V103.387H677.672V99.1094H687.359V97.3906H677.633V96.1797H688.883ZM702.184 88.0938V89.3438H691.832V88.0938H696.246V86.1406H697.77V88.0938H702.184ZM697.008 90.2422C699.508 90.2617 701.168 91.4727 701.188 93.3867C701.168 95.2812 699.508 96.5117 697.008 96.5117C694.508 96.5117 692.809 95.2812 692.828 93.3867C692.809 91.4727 694.508 90.2617 697.008 90.2422ZM697.008 91.4336C695.367 91.4531 694.273 92.2148 694.293 93.3867C694.273 94.5391 695.367 95.2812 697.008 95.2812C698.629 95.2812 699.723 94.5391 699.742 93.3867C699.723 92.2148 698.629 91.4531 697.008 91.4336ZM705.367 86.2188V91.043H707.984V92.332H705.367V97.0781H703.844V86.2188H705.367ZM705.367 98.0352V103.582H703.844V99.2852H694V98.0352H705.367ZM718.707 88.1523V89.0508C718.688 90.418 718.688 92.7227 718.199 95.9453L716.656 95.8086C717.125 92.8984 717.164 90.7891 717.164 89.4023H709.879V88.1523H718.707ZM714.156 93.1133V98.3867C716.08 98.3184 718.053 98.1914 719.859 97.9766L719.938 99.1289C716.285 99.6953 712.203 99.7734 709.098 99.7539L708.902 98.4844C710.045 98.4746 711.314 98.4648 712.652 98.4258V93.1133H714.156ZM722.477 86.2188V93.4844H725.289V94.8125H722.477V103.582H720.953V86.2188H722.477ZM736.52 89.9883C736.52 92.0391 737.887 94.0508 740.094 94.8516L739.352 96.043C737.652 95.3691 736.451 94.0703 735.836 92.4883C735.23 94.207 734.01 95.623 732.281 96.3555L731.52 95.2031C733.727 94.2852 735.055 92.1953 735.074 89.9883V89.7734H731.871V88.5234H735.074V86.4336H736.52V88.5234H739.664V89.7734H736.52V89.9883ZM746.129 86.2383V96.8633H744.664V92.1562H742.398V96.7852H740.914V86.5508H742.398V90.8867H744.664V86.2383H746.129ZM746.129 97.8008V103.582H744.625V99.0508H734.43V97.8008H746.129ZM763.004 86.2383V96.1602H761.48V86.2383H763.004ZM763.004 97.0977V103.348H751.715V97.0977H763.004ZM753.219 98.3477V102.098H761.5V98.3477H753.219ZM753.629 87.1562C756.266 87.1562 758.18 88.7969 758.18 91.2188C758.18 93.6016 756.266 95.2617 753.629 95.2617C750.992 95.2617 749.078 93.6016 749.078 91.2188C749.078 88.7969 750.992 87.1562 753.629 87.1562ZM753.629 88.4648C751.852 88.4453 750.562 89.5977 750.582 91.2188C750.562 92.8203 751.852 93.9531 753.629 93.9531C755.387 93.9531 756.676 92.8203 756.676 91.2188C756.676 89.5977 755.387 88.4453 753.629 88.4648ZM779.527 86.2188V90.4766H782.145V91.7461H779.527V96.082H778.004V86.2188H779.527ZM774.781 87.3516C774.762 91.7266 771.695 94.8516 766.559 96.2578L765.934 95.0273C770.211 93.875 772.818 91.5605 773.141 88.6211H766.715V87.3516H774.781ZM779.527 96.8828V103.348H768.531V96.8828H779.527ZM770.055 98.1523V102.098H778.004V98.1523H770.055ZM794.137 97.8789C794.137 99.4121 794.957 101.043 796.617 101.98C798.258 100.955 799.137 99.2266 799.137 97.8789V96.9219H800.641V97.8789C800.641 99.6562 801.949 101.453 804.176 102.215L803.414 103.348C801.676 102.732 800.455 101.521 799.859 100.066C799.322 101.473 798.258 102.801 796.656 103.484C794.967 102.84 793.893 101.561 793.375 100.105C792.76 101.512 791.559 102.723 789.898 103.348L789.117 102.215C791.305 101.395 792.633 99.5391 792.652 97.8789V96.9219H794.137V97.8789ZM802.594 86.2383V96.1602H801.07V86.2383H802.594ZM793.219 87.2539C795.855 87.2539 797.77 88.8945 797.77 91.3164C797.77 93.6992 795.855 95.3398 793.219 95.3398C790.582 95.3398 788.668 93.6992 788.668 91.3164C788.668 88.8945 790.582 87.2539 793.219 87.2539ZM793.219 88.5625C791.441 88.543 790.152 89.6953 790.172 91.3164C790.152 92.918 791.441 94.0508 793.219 94.0703C794.977 94.0508 796.266 92.918 796.266 91.3164C796.266 89.6953 794.977 88.543 793.219 88.5625ZM819.586 91.4922V92.7227H807.691V86.8633H809.215V91.4922H819.586ZM821.422 95.0859V96.3359H805.523V95.0859H821.422ZM819.684 101.883V103.152H807.594V98.1133H809.117V101.883H819.684ZM836.578 87.9766V99.168H828.57V87.9766H836.578ZM830.055 89.207V97.918H835.055V89.207H830.055ZM841.285 86.2188V93.1523H844.195V94.4805H841.285V103.582H839.762V86.2188H841.285ZM859.469 86.2383V98.9336H857.945V86.2383H859.469ZM860.016 101.922V103.211H848.258V97.6445H849.781V101.922H860.016ZM850.094 87.4492C852.691 87.4492 854.645 89.207 854.645 91.707C854.645 94.2461 852.691 95.9844 850.094 95.9844C847.496 95.9844 845.543 94.2461 845.543 91.707C845.543 89.207 847.496 87.4492 850.094 87.4492ZM850.094 88.7969C848.336 88.7969 847.027 90.0078 847.047 91.707C847.027 93.4453 848.336 94.6367 850.094 94.6367C851.812 94.6367 853.141 93.4453 853.141 91.707C853.141 90.0078 851.812 88.7969 850.094 88.7969ZM876.441 94.5781V95.8477H864.449V87.8398H876.266V89.1094H865.973V94.5781H876.441ZM878.316 99.9297V101.219H862.418V99.9297H878.316ZM894.449 86.2188V98.0742H892.984V86.2188H894.449ZM891.031 86.6094V96.4922H889.547V91.4922H886.812V90.2227H889.547V86.6094H891.031ZM889.488 97.7812C889.488 100.027 892.418 101.863 895.484 102.312L894.859 103.504C892.242 103.074 889.762 101.766 888.707 99.832C887.652 101.766 885.172 103.074 882.555 103.504L881.969 102.312C885.016 101.863 887.945 100.027 887.945 97.7812V97.2148H889.488V97.7812ZM884.84 89.5781C884.84 91.5703 886.148 93.5625 888.316 94.4609L887.496 95.6523C885.855 94.959 884.703 93.6504 884.117 92.0977C883.482 93.7578 882.252 95.2422 880.562 95.9844L879.723 94.8125C881.969 93.8164 883.355 91.5508 883.355 89.5781V87.293H884.84V89.5781ZM408.922 130.367C407.828 130.367 406.93 129.469 406.93 128.355C406.93 127.262 407.828 126.363 408.922 126.363C410.035 126.363 410.934 127.262 410.934 128.355C410.934 129.469 410.035 130.367 408.922 130.367ZM439.039 118.238V130.973H437.516V118.238H439.039ZM439.586 133.922V135.211H427.828V129.801H429.352V133.922H439.586ZM430.855 120.953C430.836 123.59 432.652 125.973 435.23 126.91L434.43 128.141C432.418 127.369 430.855 125.807 430.094 123.805C429.322 125.934 427.74 127.643 425.719 128.453L424.879 127.262C427.516 126.246 429.293 123.688 429.293 120.953V119.215H430.855V120.953ZM452.105 119.84V124.41H444.898V126.617H452.594V127.848H448.57V130.758C450.26 130.689 451.949 130.572 453.551 130.387L453.668 131.539C449.82 132.125 445.621 132.203 442.301 132.184L442.086 130.875C443.609 130.875 445.299 130.865 447.047 130.816V127.848H443.375V123.258H450.602V121.09H443.336V119.84H452.105ZM456.227 118.219V135.621H454.703V118.219H456.227ZM472.848 118.16V122.379H475.484V123.648H472.848V127.77H471.324V118.16H472.848ZM472.848 128.668V132.516H463.316V134.215H473.492V135.387H461.812V131.383H471.324V129.82H461.773V128.668H472.848ZM469.664 119.801V121.031H459.312V119.801H463.727V118.043H465.25V119.801H469.664ZM464.488 121.812C467.008 121.812 468.648 122.906 468.668 124.664C468.648 126.422 467.008 127.516 464.488 127.516C461.949 127.516 460.289 126.422 460.309 124.664C460.289 122.906 461.949 121.812 464.488 121.812ZM464.488 122.945C462.848 122.945 461.754 123.629 461.773 124.664C461.754 125.719 462.848 126.363 464.488 126.363C466.129 126.363 467.203 125.719 467.223 124.664C467.203 123.629 466.129 122.945 464.488 122.945ZM490.289 119.84C490.289 122.281 493.492 124.41 496.617 124.84L495.992 126.09C493.297 125.641 490.631 124.146 489.508 122.008C488.395 124.156 485.719 125.641 483.023 126.09L482.398 124.84C485.523 124.41 488.707 122.32 488.707 119.84V118.844H490.289V119.84ZM497.398 128.004V129.293H490.211V135.582H488.707V129.293H481.578V128.004H497.398ZM509.762 129.879C509.762 131.412 510.582 133.043 512.242 133.98C513.883 132.955 514.762 131.227 514.762 129.879V128.922H516.266V129.879C516.266 131.656 517.574 133.453 519.801 134.215L519.039 135.348C517.301 134.732 516.08 133.521 515.484 132.066C514.947 133.473 513.883 134.801 512.281 135.484C510.592 134.84 509.518 133.561 509 132.105C508.385 133.512 507.184 134.723 505.523 135.348L504.742 134.215C506.93 133.395 508.258 131.539 508.277 129.879V128.922H509.762V129.879ZM518.219 118.238V128.16H516.695V118.238H518.219ZM508.844 119.254C511.48 119.254 513.395 120.895 513.395 123.316C513.395 125.699 511.48 127.34 508.844 127.34C506.207 127.34 504.293 125.699 504.293 123.316C504.293 120.895 506.207 119.254 508.844 119.254ZM508.844 120.562C507.066 120.543 505.777 121.695 505.797 123.316C505.777 124.918 507.066 126.051 508.844 126.07C510.602 126.051 511.891 124.918 511.891 123.316C511.891 121.695 510.602 120.543 508.844 120.562ZM535.211 123.492V124.723H523.316V118.863H524.84V123.492H535.211ZM537.047 127.086V128.336H521.148V127.086H537.047ZM535.309 133.883V135.152H523.219V130.113H524.742V133.883H535.309ZM557.418 119.977V121.91C557.418 124.137 557.418 126.383 556.793 129.605L555.289 129.43C555.914 126.363 555.914 124.078 555.914 121.91V121.246H545.133V119.977H557.418ZM559.293 131.852V133.121H543.473V131.852H547.398V126.129H548.922V131.852H551.734V126.129H553.238V131.852H559.293ZM576.578 126.598V127.848H572.359V130.055H574.625V135.582H573.082V131.285H562.516V130.055H564.957V127.848H560.758V126.598H576.578ZM568.668 118.648C572.438 118.629 574.801 119.879 574.801 121.949C574.801 124.039 572.438 125.289 568.668 125.27C564.898 125.289 562.516 124.039 562.516 121.949C562.516 119.879 564.898 118.629 568.668 118.648ZM568.668 119.879C565.855 119.859 564.078 120.66 564.098 121.949C564.078 123.277 565.855 124.078 568.668 124.078C571.441 124.078 573.238 123.277 573.238 121.949C573.238 120.66 571.441 119.859 568.668 119.879ZM566.5 130.055H570.855V127.848H566.5V130.055ZM585.172 119.879V124.117H588.941V119.879H590.367V131.246H583.707V119.879H585.172ZM585.172 129.977H588.941V125.367H585.172V129.977ZM597.945 118.219V135.582H596.461V126.383H594.039V134.703H592.574V118.59H594.039V125.113H596.461V118.219H597.945ZM614.742 118.238V128.668H613.199V126.324H608.59V125.055H613.199V122.711H608.766C607.623 125.504 604.938 127.525 601.227 128.629L600.582 127.418C604.781 126.168 607.389 123.824 607.711 120.816H601.461V119.527H609.371C609.371 120.211 609.293 120.865 609.156 121.48H613.199V118.238H614.742ZM609.059 128.844C612.574 128.844 614.84 130.094 614.84 132.164C614.84 134.254 612.574 135.504 609.059 135.504C605.504 135.504 603.258 134.254 603.258 132.164C603.258 130.094 605.504 128.844 609.059 128.844ZM609.059 130.074C606.441 130.055 604.762 130.855 604.762 132.164C604.762 133.473 606.441 134.254 609.059 134.254C611.637 134.254 613.297 133.473 613.316 132.164C613.297 130.855 611.637 130.055 609.059 130.074ZM627.262 120.152V121.051C627.242 122.418 627.242 124.723 626.754 127.945L625.211 127.809C625.68 124.898 625.719 122.789 625.719 121.402H618.434V120.152H627.262ZM622.711 125.113V130.387C624.635 130.318 626.607 130.191 628.414 129.977L628.492 131.129C624.84 131.695 620.758 131.773 617.652 131.754L617.457 130.484C618.6 130.475 619.869 130.465 621.207 130.426V125.113H622.711ZM631.031 118.219V125.484H633.844V126.812H631.031V135.582H629.508V118.219H631.031ZM648.902 119.352C648.883 123.707 645.777 126.832 640.777 128.258L640.133 127.047C644.283 125.875 646.93 123.57 647.262 120.621H641.031V119.352H648.902ZM654.332 118.238V128.141H652.789V124H648.941V122.711H652.789V118.238H654.332ZM654.332 128.883V135.348H643.062V128.883H654.332ZM644.547 130.113V134.098H652.809V130.113H644.547ZM673.043 126.48V127.75H657.223V126.48H673.043ZM665.133 129.273C668.863 129.273 671.09 130.426 671.109 132.418C671.09 134.43 668.863 135.543 665.133 135.543C661.383 135.543 659.137 134.43 659.137 132.418C659.137 130.426 661.383 129.273 665.133 129.273ZM665.133 130.484C662.34 130.504 660.68 131.188 660.699 132.418C660.68 133.629 662.34 134.312 665.133 134.312C667.887 134.312 669.566 133.629 669.566 132.418C669.566 131.188 667.887 130.504 665.133 130.484ZM671.637 119.117V120.387H666.129C666.188 122.359 669.078 123.863 672.164 124.215L671.598 125.445C668.756 125.084 666.09 123.814 665.133 121.871C664.186 123.814 661.529 125.084 658.668 125.445L658.121 124.215C661.148 123.863 664.059 122.359 664.137 120.387H658.668V119.117H671.637ZM684.605 123.922V125.172H681.09V127.594C682.711 127.525 684.332 127.408 685.836 127.242L685.953 128.375C682.223 128.883 678.082 129 674.82 129L674.586 127.75C676.109 127.74 677.818 127.721 679.566 127.652V125.172H676.168V119.352H684.469V120.621H677.711V123.922H684.605ZM688.824 118.238V131.227H687.281V118.238H688.824ZM689.391 133.922V135.211H677.555V130.328H679.078V133.922H689.391ZM710.758 119.977V121.91C710.758 124.137 710.758 126.383 710.133 129.605L708.629 129.43C709.254 126.363 709.254 124.078 709.254 121.91V121.246H698.473V119.977H710.758ZM712.633 131.852V133.121H696.812V131.852H700.738V126.129H702.262V131.852H705.074V126.129H706.578V131.852H712.633ZM717.633 128.648V130.68H726.305V128.648H727.848V135.348H716.109V128.648H717.633ZM717.633 134.117H726.305V131.891H717.633V134.117ZM729.918 126.148V127.418H714.098V126.148H729.918ZM722.809 119.234C722.809 121.383 725.973 123.297 729.02 123.688L728.453 124.918C725.758 124.518 723.121 123.141 722.027 121.188C720.914 123.15 718.258 124.518 715.582 124.918L714.996 123.688C718.082 123.277 721.227 121.441 721.227 119.234V118.414H722.809V119.234ZM750.797 129.41V135.582H749.254V130.641H739.117V129.41H750.797ZM750.797 118.219V128.453H749.254V125.953H744.781C743.971 126.939 742.691 127.525 741.188 127.516C738.59 127.535 736.676 125.816 736.676 123.355C736.676 120.934 738.59 119.215 741.188 119.215C742.682 119.215 743.961 119.801 744.781 120.777H749.254V118.219H750.797ZM741.188 120.523C739.41 120.523 738.141 121.715 738.141 123.355C738.141 125.055 739.41 126.227 741.188 126.227C742.887 126.227 744.195 125.055 744.195 123.355C744.195 121.715 742.887 120.523 741.188 120.523ZM745.465 124.684H749.254V122.047H745.465C745.602 122.457 745.68 122.887 745.68 123.355C745.68 123.824 745.602 124.273 745.465 124.684ZM769.898 120.953V122.242H767.262V124.605H769.898V125.914H767.262V128.746H765.738V118.238H767.262V120.953H769.898ZM762.301 119.312V124H755.973V126.422C759.059 126.422 761.295 126.314 764 125.855L764.156 127.145C761.363 127.613 759.039 127.711 755.816 127.711H754.469V122.789H760.797V120.582H754.43V119.312H762.301ZM761.695 129.254C765.23 129.254 767.418 130.426 767.418 132.418C767.418 134.41 765.23 135.543 761.695 135.543C758.102 135.543 755.934 134.41 755.934 132.418C755.934 130.426 758.102 129.254 761.695 129.254ZM761.695 130.465C759.039 130.465 757.418 131.188 757.438 132.418C757.418 133.629 759.039 134.352 761.695 134.352C764.332 134.352 765.934 133.629 765.934 132.418C765.934 131.188 764.332 130.465 761.695 130.465ZM791.891 132.086V133.355H775.992V132.086H783.141V128.336H777.867V119.449H779.41V122.594H788.434V119.449H789.938V128.336H784.645V132.086H791.891ZM779.41 127.086H788.434V123.844H779.41V127.086ZM809.156 128.121V129.391H804.957V135.582H803.414V129.391H798.961V135.582H797.379V129.391H793.258V128.121H809.156ZM801.168 118.922C804.82 118.922 807.281 120.387 807.281 122.711C807.281 125.016 804.82 126.48 801.168 126.461C797.516 126.48 795.055 125.016 795.055 122.711C795.055 120.387 797.516 118.922 801.168 118.922ZM801.168 120.172C798.453 120.172 796.617 121.168 796.637 122.711C796.617 124.254 798.453 125.23 801.168 125.23C803.863 125.23 805.719 124.254 805.719 122.711C805.719 121.168 803.863 120.172 801.168 120.172Z" fill="black"/>
<path d="M212.713 87.9277C212.713 90.5059 214.26 93.0195 217.268 94.0508L215.957 95.9199C213.862 95.125 212.358 93.6104 211.553 91.709C210.704 93.8359 209.125 95.5225 206.848 96.3711L205.58 94.4805C208.695 93.4277 210.285 90.7422 210.307 87.9062V85.6934H212.713V87.9277ZM221.908 84.5117V98.9277H219.523V90.7422H215.656V88.7871H219.523V84.5117H221.908ZM222.338 101.592V103.525H209.104V97.3594H211.531V101.592H222.338ZM227.688 85.3496V87.8203H232.221V85.3496H234.584V93.8145H225.324V85.3496H227.688ZM227.688 91.9238H232.221V89.625H227.688V91.9238ZM239.977 84.4902V88.4219H242.684V90.3555H239.977V94.4375H237.592V84.4902H239.977ZM239.977 95.2109V100.303H229.664V101.85H240.578V103.74H227.301V98.5625H237.592V97.0801H227.279V95.2109H239.977ZM265.113 84.4902V103.912H262.707V84.4902H265.113ZM259.312 86.5527C259.312 92.332 257.078 97.252 250.268 100.475L249.021 98.5625C254.103 96.1455 256.466 92.8584 256.885 88.4434H250.01V86.5527H259.312ZM284.02 85.3711V87.2832H278.391C278.605 89.1094 280.979 90.8496 284.729 91.3008L283.826 93.1914C280.346 92.7725 277.778 91.2363 276.736 89.1309C275.694 91.2256 273.148 92.7725 269.668 93.1914L268.787 91.3008C272.536 90.8496 274.878 89.1094 275.104 87.2832H269.518V85.3711H284.02ZM285.631 94.2656V96.1992H278.133V99.7441H275.77V96.1992H267.885V94.2656H285.631ZM283.676 101.592V103.525H270.033V97.9609H272.418V101.592H283.676Z" fill="black"/>
<path d="M344 29L344 161" stroke="url(#paint1_linear_469_1604)" stroke-width="2"/>
<circle cx="106" cy="94" r="47" fill="#CCE0FF"/>
<g filter="url(#filter0_i_469_1604)">
<circle cx="106" cy="94" r="44.2217" fill="#CCE0FF"/>
</g>
<g filter="url(#filter1_d_469_1604)">
<path d="M118.05 80.6012C120.003 78.6486 123.169 78.6486 125.122 80.6012L125.582 81.0611C127.534 83.0137 127.534 86.179 125.582 88.1315L105.84 107.872C104.125 109.587 101.476 109.795 99.5328 108.498C99.2249 108.303 98.933 108.073 98.6647 107.804L87.0445 96.1842C85.0919 94.2316 85.0919 91.0655 87.0445 89.1129L87.5045 88.6529C89.4571 86.7007 92.6223 86.7006 94.5748 88.6529L102.287 96.3639L118.05 80.6012Z" fill="#69A4FF"/>
</g>
<defs>
<filter id="filter0_i_469_1604" x="61.7783" y="49.7783" width="92.4434" height="91.4434" filterUnits="userSpaceOnUse" color-interpolation-filters="sRGB">
<feFlood flood-opacity="0" result="BackgroundImageFix"/>
<feBlend mode="normal" in="SourceGraphic" in2="BackgroundImageFix" result="shape"/>
<feColorMatrix in="SourceAlpha" type="matrix" values="0 0 0 0 0 0 0 0 0 0 0 0 0 0 0 0 0 0 127 0" result="hardAlpha"/>
<feOffset dx="4" dy="3"/>
<feGaussianBlur stdDeviation="3.5"/>
<feComposite in2="hardAlpha" operator="arithmetic" k2="-1" k3="1"/>
<feColorMatrix type="matrix" values="0 0 0 0 1 0 0 0 0 1 0 0 0 0 1 0 0 0 0.3 0"/>
<feBlend mode="normal" in2="shape" result="effect1_innerShadow_469_1604"/>
</filter>
<filter id="filter1_d_469_1604" x="78.5801" y="73.1367" width="61.4658" height="50.1992" filterUnits="userSpaceOnUse" color-interpolation-filters="sRGB">
<feFlood flood-opacity="0" result="BackgroundImageFix"/>
<feColorMatrix in="SourceAlpha" type="matrix" values="0 0 0 0 0 0 0 0 0 0 0 0 0 0 0 0 0 0 127 0" result="hardAlpha"/>
<feOffset dx="3" dy="4"/>
<feGaussianBlur stdDeviation="5"/>
<feComposite in2="hardAlpha" operator="out"/>
<feColorMatrix type="matrix" values="0 0 0 0 0.411765 0 0 0 0 0.643137 0 0 0 0 1 0 0 0 0.6 0"/>
<feBlend mode="normal" in2="BackgroundImageFix" result="effect1_dropShadow_469_1604"/>
<feBlend mode="normal" in="SourceGraphic" in2="effect1_dropShadow_469_1604" result="shape"/>
</filter>
<linearGradient id="paint0_linear_469_1604" x1="-0.97417" y1="94" x2="1499.38" y2="93.9998" gradientUnits="userSpaceOnUse">
<stop stop-color="#3182F6"/>
<stop offset="1" stop-color="#A009FF"/>
</linearGradient>
<linearGradient id="paint1_linear_469_1604" x1="343.999" y1="95" x2="345.391" y2="95" gradientUnits="userSpaceOnUse">
<stop stop-color="#3182F6"/>
<stop offset="1" stop-color="#A009FF"/>
</linearGradient>
</defs>
</svg>
