<svg width="407" height="453" viewBox="0 0 407 453" fill="none" xmlns="http://www.w3.org/2000/svg">
<rect x="0.5" y="0.5" width="406" height="452" rx="20.5" fill="white" stroke="url(#paint0_linear_502_929)"/>
<rect x="1" y="195" width="405" height="257" rx="20" fill="#EDF6FF"/>
<path d="M276.958 59.2949V60.4551H262.649V59.2949H269.101V55.709H270.454V59.2949H276.958ZM275.587 49.293V50.4355H270.489C270.498 52.8877 273.1 54.6895 276.097 55.1816L275.569 56.2715C273.064 55.8232 270.771 54.5664 269.786 52.6152C268.793 54.5664 266.499 55.8232 263.985 56.2715L263.44 55.1816C266.455 54.6895 269.074 52.8877 269.083 50.4355H263.985V49.293H269.101V47.1309H270.454V49.293H275.587ZM292.462 54.2324V55.3926H278.206V54.2324H292.462ZM290.792 51.6133V52.7383H280.017V47.4297H290.687V48.5898H281.37V51.6133H290.792ZM285.325 56.7637C288.683 56.7637 290.687 57.7832 290.704 59.5762C290.687 61.3867 288.683 62.3887 285.325 62.3887C281.95 62.3887 279.929 61.3867 279.929 59.5762C279.929 57.7832 281.95 56.7637 285.325 56.7637ZM285.325 57.8359C282.812 57.8535 281.317 58.4863 281.335 59.5762C281.317 60.6836 282.812 61.2988 285.325 61.2988C287.804 61.2988 289.315 60.6836 289.315 59.5762C289.315 58.4863 287.804 57.8535 285.325 57.8359ZM303.114 48.4844V49.6094H293.798V48.4844H297.771V46.7266H299.142V48.4844H303.114ZM298.456 50.418C300.706 50.4355 302.2 51.5254 302.218 53.248C302.2 54.9531 300.706 56.0605 298.456 56.0605C296.206 56.0605 294.677 54.9531 294.694 53.248C294.677 51.5254 296.206 50.4355 298.456 50.418ZM298.456 51.4902C296.979 51.5078 295.995 52.1934 296.013 53.248C295.995 54.2852 296.979 54.9531 298.456 54.9531C299.915 54.9531 300.899 54.2852 300.917 53.248C300.899 52.1934 299.915 51.5078 298.456 51.4902ZM305.979 46.7969V51.1387H308.335V52.2988H305.979V56.5703H304.608V46.7969H305.979ZM305.979 57.4316V62.4238H304.608V58.5566H295.749V57.4316H305.979ZM321.87 48.3789V50.1191C321.87 52.123 321.87 54.1445 321.308 57.0449L319.954 56.8867C320.517 54.127 320.517 52.0703 320.517 50.1191V49.5215H310.813V48.3789H321.87ZM323.558 59.0664V60.209H309.319V59.0664H312.853V53.916H314.224V59.0664H316.755V53.916H318.108V59.0664H323.558ZM334.351 61.1758C331.819 61.1758 330.009 59.8223 329.921 57.8008H331.521C331.608 59.0137 332.821 59.7695 334.333 59.7695C336.003 59.7695 337.233 58.8555 337.233 57.5371C337.233 56.1484 336.126 55.1641 334.14 55.1641H333.103V53.7754H334.14C335.687 53.7754 336.759 52.9141 336.759 51.5957C336.759 50.3301 335.827 49.4688 334.386 49.4688C333.032 49.4688 331.784 50.2246 331.714 51.4727H330.185C330.272 49.4512 332.136 48.0977 334.403 48.0977C336.829 48.0977 338.306 49.6797 338.288 51.5078C338.306 52.9492 337.462 54.0215 336.126 54.3906V54.4785C337.778 54.7422 338.798 55.9199 338.78 57.5371C338.798 59.6289 336.882 61.1758 334.351 61.1758ZM349.854 48.4844V49.6094H340.538V48.4844H344.511V46.7266H345.882V48.4844H349.854ZM345.196 50.418C347.446 50.4355 348.94 51.5254 348.958 53.248C348.94 54.9531 347.446 56.0605 345.196 56.0605C342.946 56.0605 341.417 54.9531 341.435 53.248C341.417 51.5254 342.946 50.4355 345.196 50.418ZM345.196 51.4902C343.72 51.5078 342.735 52.1934 342.753 53.248C342.735 54.2852 343.72 54.9531 345.196 54.9531C346.655 54.9531 347.64 54.2852 347.657 53.248C347.64 52.1934 346.655 51.5078 345.196 51.4902ZM352.72 46.7969V51.1387H355.075V52.2988H352.72V56.5703H351.349V46.7969H352.72ZM352.72 57.4316V62.4238H351.349V58.5566H342.489V57.4316H352.72ZM369.015 46.8145V58.3809H367.626V52.9668H363.126V51.8594H367.626V49.9785H363.126V48.8711H367.626V46.8145H369.015ZM369.437 60.9297V62.0898H358.942V57.3965H360.331V60.9297H369.437ZM358.38 47.9395V54.8828C360.533 54.874 362.607 54.7598 364.989 54.3203L365.13 55.4629C362.581 55.9375 360.454 56.043 358.169 56.0605H356.991V47.9395H358.38Z" fill="#666666"/>
<path d="M46.9219 47.0859V49.4531H36.6094V47.0859H40.3125V44.4141H43.2656V47.0859H46.9219ZM41.8125 50.4141C44.5312 50.4141 46.4766 52.5234 46.5 55.4766C46.4766 58.4531 44.5312 60.5625 41.8125 60.5625C39.0938 60.5625 37.1016 58.4531 37.1016 55.4766C37.1016 52.5234 39.0938 50.4141 41.8125 50.4141ZM41.8125 52.8984C40.5703 52.8984 39.7266 53.8594 39.7266 55.4766C39.7266 57.0938 40.5703 58.0312 41.8125 58.0312C43.0078 58.0312 43.8516 57.0938 43.875 55.4766C43.8516 53.8594 43.0078 52.8984 41.8125 52.8984ZM55.0781 43.8281V65.1562H52.2422V54.8906H50.5078V64.2422H47.7188V44.25H50.5078V52.5H52.2422V43.8281H55.0781ZM75.3516 43.8281V54.5625H72.375V52.9219H67.5V50.6484H72.375V48.7734H67.7344C66.4102 51.9844 63.3633 54.0352 58.6406 55.0547L57.6328 52.6172C62.5195 51.6445 64.7812 49.6289 65.1797 47.0625H58.8281V44.6484H68.4844C68.4844 45.293 68.4375 45.9141 68.3438 46.5H72.375V43.8281H75.3516ZM75.3516 55.3359V61.1719H64.1953V62.5781H75.8203V64.9453H61.1953V58.9688H72.3516V57.6797H61.1719V55.3359H75.3516ZM93.5859 56.8828C98.0156 56.8828 100.781 58.4062 100.781 61.0078C100.781 63.6562 98.0156 65.1797 93.5859 65.1797C89.0625 65.1797 86.2734 63.6562 86.2734 61.0078C86.2734 58.4062 89.0625 56.8828 93.5859 56.8828ZM93.5859 59.2031C90.7734 59.2031 89.25 59.7891 89.2734 61.0078C89.25 62.2266 90.7734 62.8594 93.5859 62.8594C96.3516 62.8594 97.8281 62.2266 97.8281 61.0078C97.8281 59.7891 96.3516 59.2031 93.5859 59.2031ZM100.57 43.8281V48.7734H103.453V51.2812H100.57V56.4141H97.5703V43.8281H100.57ZM87.2578 45.1641V47.8594H91.6172V45.1641H94.6172V55.1953H84.2812V45.1641H87.2578ZM87.2578 52.8281H91.6172V50.1797H87.2578V52.8281ZM121.312 43.8281V49.9453H124.195V52.4297H121.312V59.3672H118.312V43.8281H121.312ZM122.086 62.3906V64.7812H107.484V57.7266H110.461V62.3906H122.086ZM110.391 45.2109C113.648 45.2109 116.203 47.4609 116.203 50.625C116.203 53.7422 113.648 56.0391 110.391 56.0391C107.109 56.0391 104.531 53.7422 104.531 50.625C104.531 47.4609 107.109 45.2109 110.391 45.2109ZM110.391 47.8125C108.773 47.7891 107.461 48.8438 107.484 50.625C107.461 52.3594 108.773 53.4375 110.391 53.4375C112.031 53.4375 113.273 52.3594 113.297 50.625C113.273 48.8438 112.031 47.7891 110.391 47.8125ZM149.156 43.8281V65.1562H146.297V43.8281H149.156ZM144.797 44.1328V64.1719H141.984V57.5625H139.477C138.68 59.6367 137.285 60.8203 135.492 60.8203C132.68 60.8203 130.852 57.8672 130.852 53.0625C130.852 48.2812 132.68 45.3516 135.492 45.3516C137.273 45.3516 138.668 46.5117 139.477 48.5625H141.984V44.1328H144.797ZM135.492 48.1641C134.25 48.1641 133.547 49.8047 133.57 53.0625C133.547 56.3438 134.25 57.9609 135.492 57.9375C136.734 57.9609 137.484 56.3438 137.484 53.0625C137.484 49.8047 136.711 48.1641 135.492 48.1641ZM140.062 50.9531C140.156 51.6094 140.203 52.3125 140.203 53.0625C140.203 53.8008 140.156 54.5039 140.062 55.1484H141.984V50.9531H140.062ZM159.703 48.6562C159.703 52.5703 161.484 56.5078 165.094 58.0312L163.336 60.4219C160.898 59.3203 159.211 57.1992 158.25 54.5625C157.277 57.4336 155.531 59.7539 152.93 60.9375L151.125 58.4531C154.852 56.8828 156.656 52.8047 156.68 48.6562V45.4688H159.703V48.6562ZM169.266 43.8281V65.2031H166.242V43.8281H169.266ZM185.695 46.0312V63H182.156V49.3828H182.062L178.172 51.8203V48.7031L182.367 46.0312H185.695Z" fill="black"/>
<path d="M51.5078 111.043V124.578H49.0273V121.219H46.625V119.246H49.0273V117.469H46.625V115.457H49.0273V111.043H51.5078ZM46.4492 112.898V114.871H36.5664V112.898H40.3945V111.004H42.875V112.898H46.4492ZM41.6055 115.496C44.0469 115.496 45.8047 116.941 45.8242 118.992C45.8047 121.043 44.0469 122.469 41.6055 122.469C39.1836 122.469 37.4258 121.043 37.4453 118.992C37.4258 116.941 39.1836 115.496 41.6055 115.496ZM41.6055 117.43C40.5117 117.449 39.75 117.996 39.7695 118.992C39.75 120.008 40.5117 120.574 41.6055 120.574C42.6797 120.574 43.4609 120.008 43.4805 118.992C43.4609 117.996 42.6797 117.449 41.6055 117.43ZM51.8789 126.492V128.484H39.6719V123.426H42.1914V126.492H51.8789ZM69.3203 111.023V128.797H66.9375V119.891H65.4336V127.977H63.0703V122.879L61.6641 124.754C60.0137 123.885 58.9492 122.41 58.3242 120.574C57.7285 122.684 56.6738 124.393 54.9844 125.398L53.4414 123.484C56.1367 121.961 57.0547 118.816 57.0547 115.418V114.852H54.0469V112.859H62.1914V114.852H59.4766V115.418C59.4766 118.514 60.3945 121.463 63.0703 122.84V111.277H65.4336V117.859H66.9375V111.023H69.3203ZM82.1914 113.816C82.1914 115.965 83.4414 118.035 86.2539 118.914L84.9258 120.848C83.041 120.223 81.7227 119.012 80.9609 117.449C80.1895 119.246 78.8125 120.652 76.7812 121.336L75.4336 119.383C78.4023 118.387 79.6719 116.023 79.6914 113.582V111.961H82.1914V113.816ZM89.8086 111.023V115.184H92.2109V117.254H89.8086V121.57H87.3086V111.023H89.8086ZM83.9883 121.922C87.6602 121.922 89.9844 123.191 89.9844 125.359C89.9844 127.547 87.6602 128.797 83.9883 128.797C80.2383 128.797 77.8945 127.547 77.8945 125.359C77.8945 123.191 80.2383 121.922 83.9883 121.922ZM83.9883 123.875C81.6445 123.875 80.375 124.383 80.3945 125.359C80.375 126.375 81.6445 126.844 83.9883 126.844C86.293 126.844 87.5234 126.375 87.5234 125.359C87.5234 124.383 86.293 123.875 83.9883 123.875ZM100.844 112.879V114.852H95.9805V117.527H100.492V119.441H95.9805V122.645C97.9824 122.625 99.4375 122.557 101.176 122.312L101.352 124.344C99.3008 124.676 97.543 124.734 94.8477 124.734H93.5977V112.879H100.844ZM108.402 111.023V128.797H106.02V119.91H104.477V127.977H102.133V111.277H104.477V117.918H106.02V111.023H108.402Z" fill="url(#paint1_linear_502_929)"/>
<path d="M40.8164 144.01C43.1191 144.027 44.7539 146.137 44.7715 149.459C44.7539 152.781 43.1191 154.891 40.8164 154.891C38.4961 154.891 36.8789 152.781 36.8789 149.459C36.8789 146.137 38.4961 144.027 40.8164 144.01ZM40.8164 145.24C39.2695 145.258 38.1797 146.91 38.1797 149.459C38.1797 152.008 39.2695 153.66 40.8164 153.66C42.3809 153.66 43.4355 152.008 43.4355 149.459C43.4355 146.91 42.3809 145.258 40.8164 145.24ZM48.7266 142.797V149.037H51.3457V150.232H48.7266V158.424H47.3555V142.797H48.7266ZM65.0742 142.797V158.459H63.6855V142.797H65.0742ZM56.7598 144.01C59.0801 144.027 60.75 146.137 60.75 149.459C60.75 152.781 59.0801 154.891 56.7598 154.891C54.4219 154.891 52.7695 152.781 52.7695 149.459C52.7695 146.137 54.4219 144.027 56.7598 144.01ZM56.7598 145.24C55.1953 145.258 54.1055 146.91 54.1055 149.459C54.1055 152.008 55.1953 153.66 56.7598 153.66C58.3242 153.66 59.4141 152.008 59.4141 149.459C59.4141 146.91 58.3242 145.258 56.7598 145.24ZM79.8398 142.797V149.16H82.3711V150.32H79.8398V158.424H78.4688V142.797H79.8398ZM75.7969 144.484C75.7969 148.914 73.7227 152.939 68.625 155.453L67.8516 154.363C71.8945 152.351 74.0918 149.345 74.4082 145.645H68.5723V144.484H75.7969ZM92.4434 146.189C92.4434 148.035 93.6738 149.846 95.6602 150.566L94.9922 151.639C93.4629 151.032 92.3818 149.863 91.8281 148.439C91.2832 149.986 90.1846 151.261 88.6289 151.92L87.9434 150.883C89.9297 150.057 91.125 148.176 91.1426 146.189V145.996H88.2598V144.871H91.1426V142.99H92.4434V144.871H95.2734V145.996H92.4434V146.189ZM101.092 142.814V152.377H99.7734V148.141H97.7344V152.307H96.3984V143.096H97.7344V146.998H99.7734V142.814H101.092ZM101.092 153.221V158.424H99.7383V154.346H90.5625V153.221H101.092ZM110.496 143.078C113.977 143.078 116.016 144.027 116.016 145.768C116.016 147.543 113.977 148.492 110.496 148.51C107.016 148.492 104.959 147.543 104.959 145.768C104.959 144.027 107.016 143.078 110.496 143.078ZM110.496 144.115C107.895 144.115 106.383 144.748 106.4 145.768C106.383 146.857 107.895 147.455 110.496 147.455C113.08 147.455 114.609 146.857 114.609 145.768C114.609 144.748 113.08 144.115 110.496 144.115ZM117.615 149.564V150.689H103.377V149.564H117.615ZM115.787 152.043V155.541H106.506V157.158H116.262V158.248H105.135V154.521H114.434V153.098H105.1V152.043H115.787ZM136.424 142.797V158.459H135.035V149.107H130.166V147.965H135.035V142.797H136.424ZM125.701 144.555V153.502C128.083 153.476 130.21 153.353 132.557 152.869L132.732 154.012C130.236 154.521 128.039 154.662 125.508 154.662H124.312V144.555H125.701ZM153.299 151.885V153.027H146.777V158.424H145.424V153.027H138.99V151.885H153.299ZM151.436 143.676V149.758H140.836V143.676H151.436ZM142.189 144.801V148.668H150.064V144.801H142.189ZM163.283 144.01C165.41 144.027 166.939 145.847 167.168 148.773H170.666V142.797H172.037V158.459H170.666V149.916H167.186C167.019 152.975 165.463 154.891 163.283 154.891C160.98 154.891 159.363 152.781 159.363 149.459C159.363 146.137 160.98 144.027 163.283 144.01ZM163.283 145.24C161.736 145.258 160.682 146.91 160.682 149.459C160.682 152.008 161.736 153.66 163.283 153.66C164.812 153.66 165.885 152.008 165.885 149.459C165.885 146.91 164.812 145.258 163.283 145.24ZM187.576 142.797V158.459H186.205V151.797H182.953V150.637H186.205V147.525H183.076V146.365H186.205V142.797H187.576ZM182.057 144.221V149.775H176.607V153.625C178.954 153.616 180.896 153.528 183.27 153.168L183.393 154.328C180.896 154.715 178.893 154.803 176.396 154.803H175.236V148.65H180.703V145.363H175.184V144.221H182.057ZM203.133 142.814V158.441H201.727V154.557H198.123V153.502H201.727V142.814H203.133ZM190.125 151.041C193.113 151.041 197.068 151.023 200.514 150.531L200.602 151.568C199.055 151.832 197.446 151.99 195.891 152.078V157.949H194.502V152.148C192.999 152.21 191.575 152.219 190.318 152.219L190.125 151.041ZM195.275 143.588C197.596 143.588 199.213 144.836 199.213 146.664C199.213 148.527 197.596 149.723 195.275 149.723C192.938 149.723 191.32 148.527 191.32 146.664C191.32 144.836 192.938 143.588 195.275 143.588ZM195.275 144.66C193.693 144.66 192.604 145.486 192.621 146.664C192.604 147.859 193.693 148.65 195.275 148.65C196.805 148.65 197.912 147.859 197.912 146.664C197.912 145.486 196.805 144.66 195.275 144.66ZM213.557 145.504V146.629H205.717V145.504H208.969V143.271H210.34V145.504H213.557ZM209.637 147.684C211.605 147.684 213.012 149.16 213.029 151.234C213.012 153.326 211.605 154.82 209.637 154.82C207.686 154.82 206.279 153.326 206.279 151.234C206.279 149.16 207.686 147.684 209.637 147.684ZM209.637 148.844C208.406 148.861 207.51 149.863 207.51 151.234C207.51 152.623 208.406 153.625 209.637 153.607C210.885 153.625 211.799 152.623 211.799 151.234C211.799 149.863 210.885 148.861 209.637 148.844ZM219.059 142.797V158.424H217.74V150.531H215.666V157.65H214.365V143.184H215.666V149.389H217.74V142.797H219.059ZM235.617 155.26V156.42H221.309V155.26H224.859V151.041C223.523 150.347 222.715 149.222 222.715 147.807C222.715 145.381 225.088 143.799 228.428 143.781C231.768 143.799 234.141 145.381 234.141 147.807C234.141 149.195 233.358 150.312 232.066 151.006V155.26H235.617ZM228.428 144.924C225.861 144.906 224.051 146.066 224.051 147.807C224.051 149.547 225.861 150.725 228.428 150.725C230.977 150.725 232.805 149.547 232.805 147.807C232.805 146.066 230.977 144.906 228.428 144.924ZM226.213 155.26H230.678V151.533C230.001 151.718 229.245 151.814 228.428 151.814C227.628 151.814 226.881 151.727 226.213 151.551V155.26Z" fill="black"/>
<path d="M45.1016 222.738V224.711H36.5078V222.738H39.5938V220.512H42.0547V222.738H45.1016ZM40.8438 225.512C43.1094 225.512 44.7305 227.27 44.75 229.73C44.7305 232.211 43.1094 233.969 40.8438 233.969C38.5781 233.969 36.918 232.211 36.918 229.73C36.918 227.27 38.5781 225.512 40.8438 225.512ZM40.8438 227.582C39.8086 227.582 39.1055 228.383 39.1055 229.73C39.1055 231.078 39.8086 231.859 40.8438 231.859C41.8398 231.859 42.543 231.078 42.5625 229.73C42.543 228.383 41.8398 227.582 40.8438 227.582ZM51.8984 220.023V237.797H49.5352V229.242H48.0898V237.035H45.7656V220.375H48.0898V227.25H49.5352V220.023H51.8984ZM68.793 220.023V228.969H66.3125V227.602H62.25V225.707H66.3125V224.145H62.4453C61.3418 226.82 58.8027 228.529 54.8672 229.379L54.0273 227.348C58.0996 226.537 59.9844 224.857 60.3164 222.719H55.0234V220.707H63.0703C63.0703 221.244 63.0312 221.762 62.9531 222.25H66.3125V220.023H68.793ZM68.793 229.613V234.477H59.4961V235.648H69.1836V237.621H56.9961V232.641H66.293V231.566H56.9766V229.613H68.793ZM79.3789 230.902C83.0703 230.902 85.375 232.172 85.375 234.34C85.375 236.547 83.0703 237.816 79.3789 237.816C75.6094 237.816 73.2852 236.547 73.2852 234.34C73.2852 232.172 75.6094 230.902 79.3789 230.902ZM79.3789 232.836C77.0352 232.836 75.7656 233.324 75.7852 234.34C75.7656 235.355 77.0352 235.883 79.3789 235.883C81.6836 235.883 82.9141 235.355 82.9141 234.34C82.9141 233.324 81.6836 232.836 79.3789 232.836ZM85.1992 220.023V224.145H87.6016V226.234H85.1992V230.512H82.6992V220.023H85.1992ZM74.1055 221.137V223.383H77.7383V221.137H80.2383V229.496H71.625V221.137H74.1055ZM74.1055 227.523H77.7383V225.316H74.1055V227.523ZM102.484 220.023V225.121H104.887V227.191H102.484V232.973H99.9844V220.023H102.484ZM103.129 235.492V237.484H90.9609V231.605H93.4414V235.492H103.129ZM93.3828 221.176C96.0977 221.176 98.2266 223.051 98.2266 225.688C98.2266 228.285 96.0977 230.199 93.3828 230.199C90.6484 230.199 88.5 228.285 88.5 225.688C88.5 223.051 90.6484 221.176 93.3828 221.176ZM93.3828 223.344C92.0352 223.324 90.9414 224.203 90.9609 225.688C90.9414 227.133 92.0352 228.031 93.3828 228.031C94.75 228.031 95.7852 227.133 95.8047 225.688C95.7852 224.203 94.75 223.324 93.3828 223.344Z" fill="url(#paint2_linear_502_929)"/>
<path d="M40.2812 323.453C42.3281 323.469 43.7812 325.344 43.7969 328.297C43.7812 331.25 42.3281 333.125 40.2812 333.125C38.2188 333.125 36.7812 331.25 36.7812 328.297C36.7812 325.344 38.2188 323.469 40.2812 323.453ZM40.2812 324.547C38.9062 324.562 37.9375 326.031 37.9375 328.297C37.9375 330.562 38.9062 332.031 40.2812 332.031C41.6719 332.031 42.6094 330.562 42.6094 328.297C42.6094 326.031 41.6719 324.562 40.2812 324.547ZM47.3125 322.375V327.922H49.6406V328.984H47.3125V336.266H46.0938V322.375H47.3125ZM61.8438 322.375V336.297H60.6094V322.375H61.8438ZM54.4531 323.453C56.5156 323.469 58 325.344 58 328.297C58 331.25 56.5156 333.125 54.4531 333.125C52.375 333.125 50.9062 331.25 50.9062 328.297C50.9062 325.344 52.375 323.469 54.4531 323.453ZM54.4531 324.547C53.0625 324.562 52.0938 326.031 52.0938 328.297C52.0938 330.562 53.0625 332.031 54.4531 332.031C55.8438 332.031 56.8125 330.562 56.8125 328.297C56.8125 326.031 55.8438 324.562 54.4531 324.547ZM74.9688 322.375V328.031H77.2188V329.062H74.9688V336.266H73.75V322.375H74.9688ZM71.375 323.875C71.375 327.812 69.5312 331.391 65 333.625L64.3125 332.656C67.9062 330.867 69.8594 328.195 70.1406 324.906H64.9531V323.875H71.375ZM93.5781 322.375V330.656H92.3438V327.016H89.5469V326H92.3438V322.375H93.5781ZM88.9688 331.094C91.8594 331.094 93.625 332.031 93.625 333.672C93.625 335.312 91.8594 336.25 88.9688 336.266C86.0781 336.25 84.3125 335.312 84.3125 333.672C84.3125 332.031 86.0781 331.094 88.9688 331.094ZM88.9688 332.047C86.8438 332.047 85.5156 332.656 85.5312 333.672C85.5156 334.672 86.8438 335.281 88.9688 335.281C91.0938 335.281 92.4062 334.672 92.4062 333.672C92.4062 332.656 91.0938 332.047 88.9688 332.047ZM86.8906 324.922C86.8906 326.734 88.2812 328.453 90.3125 329.156L89.6719 330.141C88.1094 329.578 86.8984 328.414 86.3125 326.969C85.7031 328.602 84.4141 329.906 82.7656 330.531L82.125 329.547C84.1875 328.797 85.6562 326.922 85.6562 324.938V324.422H82.5156V323.391H90V324.422H86.8906V324.922ZM106.734 322.391V326.594H108.812V327.625H106.734V331.703H105.5V322.391H106.734ZM95.8281 330.281C96.9375 330.281 98.2344 330.281 99.5938 330.234V329.219C97.9766 329.078 96.9375 328.32 96.9375 327.172C96.9375 325.906 98.2344 325.125 100.188 325.125C102.156 325.125 103.438 325.906 103.453 327.172C103.438 328.312 102.422 329.07 100.812 329.219V330.188C102.109 330.125 103.422 330.023 104.641 329.844L104.75 330.734C101.734 331.266 98.4062 331.281 95.9688 331.281L95.8281 330.281ZM106.734 332.391V336.266H105.5V333.375H97.5312V332.391H106.734ZM104.219 323.656V324.594H96.1719V323.656H99.5938V322.266H100.812V323.656H104.219ZM100.188 326C98.9062 325.984 98.1094 326.438 98.1094 327.172C98.1094 327.891 98.9062 328.391 100.188 328.375C101.469 328.391 102.281 327.891 102.281 327.172C102.281 326.438 101.469 325.984 100.188 326ZM120.469 322.375V328.109H122.797V329.125H120.469V336.266H119.25V322.375H120.469ZM117.906 324.609V325.625H109.641V324.609H113.219V322.547H114.438V324.609H117.906ZM113.844 326.781C115.812 326.781 117.234 328.094 117.25 329.969C117.234 331.844 115.812 333.156 113.844 333.156C111.859 333.156 110.422 331.844 110.438 329.969C110.422 328.094 111.859 326.781 113.844 326.781ZM113.844 327.812C112.547 327.812 111.594 328.719 111.609 329.969C111.594 331.234 112.547 332.125 113.844 332.109C115.125 332.125 116.062 331.234 116.078 329.969C116.062 328.719 115.125 327.812 113.844 327.812ZM135.438 322.375V336.266H134.266V322.375H135.438ZM132.516 322.75V335.562H131.344V329.078H128.406C127.555 330.695 126.219 332.125 124.281 333.266L123.562 332.375C126.586 330.586 128.102 328.078 128.328 325.172H124.156V324.156H129.547C129.539 325.523 129.32 326.844 128.859 328.078H131.344V322.75H132.516ZM146.094 326.641C146.078 328.875 147.688 331.328 149.703 332.281L149 333.25C147.438 332.492 146.117 330.836 145.5 328.953C144.859 331 143.461 332.797 141.906 333.594L141.156 332.625C143.156 331.656 144.875 329.016 144.891 326.641V324.828H141.656V323.812H149.219V324.828H146.094V326.641ZM152.141 322.375V328H154.469V329.047H152.141V336.266H150.922V322.375H152.141ZM166.688 322.391V332.578H165.469V322.391H166.688ZM167.125 334.938V335.969H157.719V331.641H158.938V334.938H167.125ZM160.141 324.562C160.125 326.672 161.578 328.578 163.641 329.328L163 330.312C161.391 329.695 160.141 328.445 159.531 326.844C158.914 328.547 157.648 329.914 156.031 330.562L155.359 329.609C157.469 328.797 158.891 326.75 158.891 324.562V323.172H160.141V324.562ZM173.594 323.391C175.781 323.391 177.328 324.719 177.328 326.656C177.328 328.594 175.781 329.922 173.594 329.922C171.406 329.922 169.828 328.594 169.844 326.656C169.828 324.719 171.406 323.391 173.594 323.391ZM173.594 324.469C172.109 324.469 171.031 325.359 171.047 326.656C171.031 327.953 172.109 328.844 173.594 328.844C175.062 328.844 176.125 327.953 176.125 326.656C176.125 325.359 175.062 324.469 173.594 324.469ZM180.438 322.375V336.297H179.219V322.375H180.438ZM169.125 332.188C171.688 332.188 175.219 332.172 178.297 331.719L178.391 332.625C175.219 333.219 171.797 333.234 169.297 333.234L169.125 332.188ZM192.312 323.922V328.719H188.547V331.812C190.148 331.805 191.664 331.75 193.516 331.422L193.609 332.438C191.625 332.797 190.047 332.828 188.281 332.844H187.359V327.703H191.141V324.938H187.328V323.922H192.312ZM198.766 322.375V336.266H197.594V322.375H198.766ZM195.922 322.719V335.531H194.766V328.391H192.984V327.391H194.766V322.719H195.922ZM212.516 322.391V329.703H211.344V322.391H212.516ZM209.766 322.672V329.625H208.609V326.562H206.766V329.031H201.359V323.203H202.516V325.047H205.609V323.203H206.766V325.531H208.609V322.672H209.766ZM212.516 330.375V333.625H204.547V335.125H213.078V336.109H203.328V332.688H211.312V331.344H203.297V330.375H212.516ZM202.516 328.062H205.609V326H202.516V328.062ZM220.875 322.625C223.969 322.625 225.781 323.469 225.781 325.016C225.781 326.594 223.969 327.438 220.875 327.453C217.781 327.438 215.953 326.594 215.953 325.016C215.953 323.469 217.781 322.625 220.875 322.625ZM220.875 323.547C218.562 323.547 217.219 324.109 217.234 325.016C217.219 325.984 218.562 326.516 220.875 326.516C223.172 326.516 224.531 325.984 224.531 325.016C224.531 324.109 223.172 323.547 220.875 323.547ZM227.203 328.391V329.391H214.547V328.391H227.203ZM225.578 330.594V333.703H217.328V335.141H226V336.109H216.109V332.797H224.375V331.531H216.078V330.594H225.578ZM243.25 322.375V325.391H245.344V326.422H243.25V329.453H242.031V322.375H243.25ZM243.25 330.109V333.5H235.625V335.094H243.766V336.078H234.422V332.562H242.031V331.094H234.391V330.109H243.25ZM236.266 322.891C238.359 322.906 239.875 324.156 239.875 325.969C239.875 327.797 238.359 329.062 236.266 329.062C234.188 329.062 232.641 327.797 232.656 325.969C232.641 324.156 234.188 322.906 236.266 322.891ZM236.266 323.922C234.875 323.906 233.844 324.766 233.859 325.969C233.844 327.188 234.875 328.062 236.266 328.062C237.656 328.062 238.672 327.188 238.672 325.969C238.672 324.766 237.656 323.906 236.266 323.922ZM257.359 323.781V325.172C257.344 326.875 257.344 328.781 256.844 331.578L255.594 331.438C256.125 328.781 256.125 326.828 256.125 325.172V324.797H247.562V323.781H257.359ZM258.875 333.281V334.297H246.219V333.281H251.188V328.312H252.391V333.281H258.875ZM270.984 326.516V328.156H276.766V329.172H264.047V328.156H269.781V326.516H270.984ZM275.594 322.812V323.781H271.203C271.305 325.203 273.633 326.242 276.047 326.438L275.641 327.359C273.328 327.141 271.148 326.242 270.406 324.781C269.648 326.242 267.469 327.141 265.141 327.359L264.734 326.438C267.133 326.242 269.461 325.203 269.594 323.781H265.219V322.812H275.594ZM275.562 331.016V331.984H265.25V331.016H269.781V329.703H271V331.016H275.562ZM270.391 332.672C273.062 332.672 274.594 333.297 274.594 334.5C274.594 335.719 273.062 336.344 270.391 336.344C267.688 336.344 266.203 335.719 266.203 334.5C266.203 333.297 267.688 332.672 270.391 332.672ZM270.391 333.531C268.516 333.547 267.438 333.859 267.438 334.5C267.438 335.141 268.516 335.5 270.391 335.484C272.281 335.5 273.328 335.141 273.344 334.5C273.328 333.859 272.281 333.547 270.391 333.531ZM281.609 323.453C283.656 323.469 285.109 325.344 285.125 328.297C285.109 331.25 283.656 333.125 281.609 333.125C279.547 333.125 278.109 331.25 278.109 328.297C278.109 325.344 279.547 323.469 281.609 323.453ZM281.609 324.547C280.234 324.562 279.266 326.031 279.266 328.297C279.266 330.562 280.234 332.031 281.609 332.031C283 332.031 283.938 330.562 283.938 328.297C283.938 326.031 283 324.562 281.609 324.547ZM288.641 322.375V327.922H290.969V328.984H288.641V336.266H287.422V322.375H288.641ZM302.469 322.375V328.109H304.797V329.125H302.469V336.266H301.25V322.375H302.469ZM299.906 324.609V325.625H291.641V324.609H295.219V322.547H296.438V324.609H299.906ZM295.844 326.781C297.812 326.781 299.234 328.094 299.25 329.969C299.234 331.844 297.812 333.156 295.844 333.156C293.859 333.156 292.422 331.844 292.438 329.969C292.422 328.094 293.859 326.781 295.844 326.781ZM295.844 327.812C294.547 327.812 293.594 328.719 293.609 329.969C293.594 331.234 294.547 332.125 295.844 332.109C297.125 332.125 298.062 331.234 298.078 329.969C298.062 328.719 297.125 327.812 295.844 327.812ZM316.781 326.594V327.578H307.266V322.891H308.484V326.594H316.781ZM318.25 329.469V330.469H305.531V329.469H318.25ZM316.859 334.906V335.922H307.188V331.891H308.406V334.906H316.859ZM330.406 324.344C330.391 326.203 332.875 327.781 335.297 328.141L334.844 329.109C332.672 328.742 330.562 327.586 329.719 325.906C328.875 327.586 326.758 328.742 324.625 329.109L324.141 328.141C326.547 327.781 329.031 326.203 329.031 324.344V324.25H324.578V323.25H334.844V324.25H330.406V324.344ZM336.047 330.297V331.312H330.297V336.266H329.094V331.312H323.391V330.297H336.047ZM349.094 322.375V336.266H347.922V322.375H349.094ZM346.281 322.719V335.547H345.125V328.391H342.781V327.391H345.125V322.719H346.281ZM341.297 326.344C341.297 328.75 342.375 331.141 344.297 332.25L343.547 333.156C342.18 332.336 341.211 330.836 340.734 329.062C340.227 330.977 339.219 332.609 337.828 333.484L337.047 332.562C338.984 331.406 340.109 328.875 340.109 326.344V325.031H337.438V324.016H343.844V325.031H341.297V326.344ZM355.594 323.391C357.781 323.391 359.328 324.719 359.328 326.656C359.328 328.594 357.781 329.922 355.594 329.922C353.406 329.922 351.828 328.594 351.844 326.656C351.828 324.719 353.406 323.391 355.594 323.391ZM355.594 324.469C354.109 324.469 353.031 325.359 353.047 326.656C353.031 327.953 354.109 328.844 355.594 328.844C357.062 328.844 358.125 327.953 358.125 326.656C358.125 325.359 357.062 324.469 355.594 324.469ZM362.438 322.375V336.297H361.219V322.375H362.438ZM351.125 332.188C353.688 332.188 357.219 332.172 360.297 331.719L360.391 332.625C357.219 333.219 353.797 333.234 351.297 333.234L351.125 332.188ZM40.6719 351.391C40.6719 353.031 41.7656 354.641 43.5312 355.281L42.9375 356.234C41.5781 355.695 40.6172 354.656 40.125 353.391C39.6406 354.766 38.6641 355.898 37.2812 356.484L36.6719 355.562C38.4375 354.828 39.5 353.156 39.5156 351.391V351.219H36.9531V350.219H39.5156V348.547H40.6719V350.219H43.1875V351.219H40.6719V351.391ZM48.3594 348.391V356.891H47.1875V353.125H45.375V356.828H44.1875V348.641H45.375V352.109H47.1875V348.391H48.3594ZM48.3594 357.641V362.266H47.1562V358.641H39V357.641H48.3594ZM56.7188 348.625C59.8125 348.625 61.625 349.469 61.625 351.016C61.625 352.594 59.8125 353.438 56.7188 353.453C53.625 353.438 51.7969 352.594 51.7969 351.016C51.7969 349.469 53.625 348.625 56.7188 348.625ZM56.7188 349.547C54.4062 349.547 53.0625 350.109 53.0781 351.016C53.0625 351.984 54.4062 352.516 56.7188 352.516C59.0156 352.516 60.375 351.984 60.375 351.016C60.375 350.109 59.0156 349.547 56.7188 349.547ZM63.0469 354.391V355.391H50.3906V354.391H63.0469ZM61.4219 356.594V359.703H53.1719V361.141H61.8438V362.109H51.9531V358.797H60.2188V357.531H51.9219V356.594H61.4219ZM79.7344 348.375V355.922H78.5156V352.781H75.7031V351.75H78.5156V348.375H79.7344ZM72.0312 356.594V358.328H78.5156V356.594H79.7344V362.078H70.7969V356.594H72.0312ZM72.0312 361.078H78.5156V359.312H72.0312V361.078ZM73.0625 350.641C73.0625 352.422 74.4531 354.172 76.4844 354.875L75.8438 355.828C74.2734 355.258 73.0625 354.094 72.4688 352.656C71.8672 354.266 70.5859 355.555 68.9375 356.156L68.2969 355.188C70.3438 354.453 71.8281 352.609 71.8281 350.641V350.234H68.6875V349.219H76.1719V350.234H73.0625V350.641ZM92.9219 348.328V351.703H95.0312V352.719H92.9219V356.016H91.7031V348.328H92.9219ZM92.9219 356.734V359.812H85.2969V361.172H93.4375V362.109H84.0938V358.906H91.7031V357.656H84.0625V356.734H92.9219ZM90.375 349.641V350.625H82.0938V349.641H85.625V348.234H86.8438V349.641H90.375ZM86.2344 351.25C88.25 351.25 89.5625 352.125 89.5781 353.531C89.5625 354.938 88.25 355.812 86.2344 355.812C84.2031 355.812 82.875 354.938 82.8906 353.531C82.875 352.125 84.2031 351.25 86.2344 351.25ZM86.2344 352.156C84.9219 352.156 84.0469 352.703 84.0625 353.531C84.0469 354.375 84.9219 354.891 86.2344 354.891C87.5469 354.891 88.4062 354.375 88.4219 353.531C88.4062 352.703 87.5469 352.156 86.2344 352.156ZM106.875 349.672C106.875 351.625 109.438 353.328 111.938 353.672L111.438 354.672C109.281 354.312 107.148 353.117 106.25 351.406C105.359 353.125 103.219 354.312 101.062 354.672L100.562 353.672C103.062 353.328 105.609 351.656 105.609 349.672V348.875H106.875V349.672ZM112.562 356.203V357.234H106.812V362.266H105.609V357.234H99.9062V356.203H112.562ZM122.453 357.703C122.453 358.93 123.109 360.234 124.438 360.984C125.75 360.164 126.453 358.781 126.453 357.703V356.938H127.656V357.703C127.656 359.125 128.703 360.562 130.484 361.172L129.875 362.078C128.484 361.586 127.508 360.617 127.031 359.453C126.602 360.578 125.75 361.641 124.469 362.188C123.117 361.672 122.258 360.648 121.844 359.484C121.352 360.609 120.391 361.578 119.062 362.078L118.438 361.172C120.188 360.516 121.25 359.031 121.266 357.703V356.938H122.453V357.703ZM129.219 348.391V356.328H128V348.391H129.219ZM121.719 349.203C123.828 349.203 125.359 350.516 125.359 352.453C125.359 354.359 123.828 355.672 121.719 355.672C119.609 355.672 118.078 354.359 118.078 352.453C118.078 350.516 119.609 349.203 121.719 349.203ZM121.719 350.25C120.297 350.234 119.266 351.156 119.281 352.453C119.266 353.734 120.297 354.641 121.719 354.656C123.125 354.641 124.156 353.734 124.156 352.453C124.156 351.156 123.125 350.234 121.719 350.25ZM142.797 354.891V355.891H138.5V359.484H144.297V360.516H131.578V359.484H137.297V355.891H133.203V349.516H142.656V350.516H134.438V354.891H142.797ZM158.109 356.031V357.047H145.391V356.031H151.141V354.562H147.047V351.172H155.234V349.734H147V348.734H156.469V352.094H148.266V353.578H156.766V354.562H152.344V356.031H158.109ZM156.547 358.109V362.141H155.312V359.109H146.812V358.109H156.547ZM175.125 348.375V362.266H173.953V354.984H171.906V361.547H170.781V348.688H171.906V353.969H173.953V348.375H175.125ZM168.969 350.078V351.094H164.984V357.781C166.898 357.773 168.227 357.703 169.766 357.391L169.875 358.422C168.203 358.766 166.781 358.828 164.656 358.828H163.766V350.078H168.969ZM190.047 350.562V351.594H187.938V353.484H190.047V354.531H187.938V356.797H186.719V348.391H187.938V350.562H190.047ZM183.969 349.25V353H178.906V354.938C181.375 354.938 183.164 354.852 185.328 354.484L185.453 355.516C183.219 355.891 181.359 355.969 178.781 355.969H177.703V352.031H182.766V350.266H177.672V349.25H183.969ZM183.484 357.203C186.312 357.203 188.062 358.141 188.062 359.734C188.062 361.328 186.312 362.234 183.484 362.234C180.609 362.234 178.875 361.328 178.875 359.734C178.875 358.141 180.609 357.203 183.484 357.203ZM183.484 358.172C181.359 358.172 180.062 358.75 180.078 359.734C180.062 360.703 181.359 361.281 183.484 361.281C185.594 361.281 186.875 360.703 186.875 359.734C186.875 358.75 185.594 358.172 183.484 358.172ZM195.453 349.391C197.641 349.391 199.188 350.719 199.188 352.656C199.188 354.594 197.641 355.922 195.453 355.922C193.266 355.922 191.688 354.594 191.703 352.656C191.688 350.719 193.266 349.391 195.453 349.391ZM195.453 350.469C193.969 350.469 192.891 351.359 192.906 352.656C192.891 353.953 193.969 354.844 195.453 354.844C196.922 354.844 197.984 353.953 197.984 352.656C197.984 351.359 196.922 350.469 195.453 350.469ZM202.297 348.375V362.297H201.078V348.375H202.297ZM190.984 358.188C193.547 358.188 197.078 358.172 200.156 357.719L200.25 358.625C197.078 359.219 193.656 359.234 191.156 359.234L190.984 358.188ZM219.969 354.891V355.891H215.672V359.484H221.469V360.516H208.75V359.484H214.469V355.891H210.375V349.516H219.828V350.516H211.609V354.891H219.969ZM227.469 352.109C227.469 354.625 229.078 357.156 231.094 358.078L230.359 359.078C228.781 358.266 227.477 356.602 226.859 354.625C226.242 356.703 224.938 358.484 223.359 359.328L222.562 358.344C224.594 357.344 226.219 354.672 226.219 352.109V349.578H227.469V352.109ZM234.094 348.375V362.297H232.875V354.125H229.578V353.125H232.875V348.375H234.094ZM249.109 354.828V355.797H236.391V354.828H249.109ZM247.516 356.906V359.859H239.172V361.188H247.969V362.078H237.938V359.016H246.297V357.828H237.922V356.906H247.516ZM247.469 348.797V351.672H239.266V352.891H247.719V353.781H238.047V350.828H246.234V349.688H238V348.797H247.469ZM266.125 348.375V362.266H264.953V348.375H266.125ZM263.312 348.719V361.547H262.156V354.391H259.812V353.391H262.156V348.719H263.312ZM258.328 352.344C258.328 354.75 259.406 357.141 261.328 358.25L260.578 359.156C259.211 358.336 258.242 356.836 257.766 355.062C257.258 356.977 256.25 358.609 254.859 359.484L254.078 358.562C256.016 357.406 257.141 354.875 257.141 352.344V351.031H254.469V350.016H260.875V351.031H258.328V352.344ZM274.359 357.156C277.344 357.156 279.234 358.094 279.234 359.703C279.234 361.297 277.344 362.234 274.359 362.234C271.391 362.234 269.5 361.297 269.5 359.703C269.5 358.094 271.391 357.156 274.359 357.156ZM274.359 358.094C272.141 358.109 270.703 358.719 270.719 359.703C270.703 360.672 272.141 361.266 274.359 361.266C276.578 361.266 278 360.672 278.016 359.703C278 358.719 276.578 358.109 274.359 358.094ZM279.125 349.094V350.266C279.125 351.391 279.125 352.516 278.734 353.953L277.531 353.812C277.906 352.375 277.906 351.359 277.906 350.266V350.094H269.594V349.094H279.125ZM280.734 354.859V355.859H268.094V354.859H273.328V352.172H274.531V354.859H280.734ZM292.656 348.375V354.109H294.984V355.125H292.656V362.266H291.438V348.375H292.656ZM290.094 350.609V351.625H281.828V350.609H285.406V348.547H286.625V350.609H290.094ZM286.031 352.781C288 352.781 289.422 354.094 289.438 355.969C289.422 357.844 288 359.156 286.031 359.156C284.047 359.156 282.609 357.844 282.625 355.969C282.609 354.094 284.047 352.781 286.031 352.781ZM286.031 353.812C284.734 353.812 283.781 354.719 283.797 355.969C283.781 357.234 284.734 358.125 286.031 358.109C287.312 358.125 288.25 357.234 288.266 355.969C288.25 354.719 287.312 353.812 286.031 353.812ZM302.625 349.766V351.719H306.031V348.375H307.25V362.297H306.031V356.562H302.625V358.75H296.297V349.766H302.625ZM297.516 350.734V357.766H301.438V350.734H297.516ZM302.625 355.547H306.031V352.734H302.625V355.547ZM326.281 356.625V357.625H320.484V362.266H319.281V357.625H313.562V356.625H326.281ZM316.406 348.953V350.875H323.406V348.953H324.641V354.938H315.188V348.953H316.406ZM316.406 353.938H323.406V351.875H316.406V353.938ZM338.266 348.375V351.781H340.359V352.812H338.266V356.266H337.047V348.375H338.266ZM334.219 349.328V350.328H329.281V354.422C332.07 354.438 333.656 354.336 335.516 353.969L335.672 354.969C333.719 355.359 332.062 355.438 329.141 355.438H328.062V349.328H334.219ZM338.266 356.984V362.078H329.5V356.984H338.266ZM330.703 357.984V361.078H337.047V357.984H330.703ZM39.3281 382.531V384.266H41.8594V382.531H43V388.078H38.1719V382.531H39.3281ZM39.3281 387.109H41.8594V385.203H39.3281V387.109ZM46.9688 383.625C46.9531 385.094 47.8281 386.625 49.5312 387.25L48.8906 388.188C47.6094 387.672 46.7656 386.695 46.3438 385.531C45.8984 386.672 45.0547 387.656 43.8281 388.188L43.1875 387.25C44.8594 386.562 45.75 385.031 45.75 383.625V382.438H46.9688V383.625ZM40.3906 375C42.25 375 43.6719 376.055 43.9375 377.656H46.8438V374.375H48.0781V381.734H46.8438V378.672H43.9531C43.7031 380.312 42.2734 381.391 40.3906 381.391C38.2812 381.391 36.7812 380.094 36.7812 378.188C36.7812 376.297 38.2812 375 40.3906 375ZM40.3906 376.031C38.9688 376.031 37.9531 376.922 37.9531 378.188C37.9531 379.469 38.9688 380.375 40.3906 380.375C41.7969 380.375 42.7969 379.469 42.7969 378.188C42.7969 376.922 41.7969 376.031 40.3906 376.031ZM61.8438 374.375V388.297H60.6094V374.375H61.8438ZM54.4531 375.453C56.5156 375.469 58 377.344 58 380.297C58 383.25 56.5156 385.125 54.4531 385.125C52.375 385.125 50.9062 383.25 50.9062 380.297C50.9062 377.344 52.375 375.469 54.4531 375.453ZM54.4531 376.547C53.0625 376.562 52.0938 378.031 52.0938 380.297C52.0938 382.562 53.0625 384.031 54.4531 384.031C55.8438 384.031 56.8125 382.562 56.8125 380.297C56.8125 378.031 55.8438 376.562 54.4531 376.547ZM78.9844 374.375V379.875H81.3125V380.906H78.9844V388.297H77.7656V374.375H78.9844ZM75.3281 375.734V376.75H70.0625V383.781C72.5781 383.781 74.3594 383.664 76.4219 383.281L76.5781 384.344C74.4062 384.734 72.5781 384.812 69.9375 384.812H68.8438V375.734H75.3281ZM94.7188 381.312V382.312H82.0625V381.312H87.7812V379.625H83.6719V374.938H93.1562V375.953H84.8906V378.609H93.2812V379.625H89V381.312H94.7188ZM93.1719 383.672V388.375H91.9531V384.672H83.4688V383.672H93.1719ZM100.438 375.391C102.625 375.391 104.172 376.719 104.172 378.656C104.172 380.594 102.625 381.922 100.438 381.922C98.25 381.922 96.6719 380.594 96.6875 378.656C96.6719 376.719 98.25 375.391 100.438 375.391ZM100.438 376.469C98.9531 376.469 97.875 377.359 97.8906 378.656C97.875 379.953 98.9531 380.844 100.438 380.844C101.906 380.844 102.969 379.953 102.969 378.656C102.969 377.359 101.906 376.469 100.438 376.469ZM107.281 374.375V388.297H106.062V374.375H107.281ZM95.9688 384.188C98.5312 384.188 102.062 384.172 105.141 383.719L105.234 384.625C102.062 385.219 98.6406 385.234 96.1406 385.234L95.9688 384.188ZM126.391 380.297V381.312H113.734V380.297H126.391ZM124.766 382.594V385.734H116.516V387.141H125.188V388.109H115.297V384.812H123.562V383.531H115.266V382.594H124.766ZM125.266 374.922V375.922H120.781C120.906 377.352 123.25 378.445 125.719 378.641L125.312 379.609C123.039 379.375 120.898 378.492 120.078 377.094C119.234 378.492 117.102 379.375 114.828 379.609L114.422 378.641C116.875 378.445 119.211 377.352 119.375 375.922H114.891V374.922H125.266ZM139.062 374.375V388.266H137.844V380.984H134.531V379.969H137.844V374.375H139.062ZM134.562 375.891C134.562 379.828 132.891 383.328 128.25 385.625L127.578 384.641C131.344 382.82 133.086 380.148 133.328 376.891H128.188V375.891H134.562ZM147.719 374.641C150.734 374.641 152.625 375.609 152.625 377.266C152.625 378.891 150.734 379.844 147.719 379.844C144.703 379.844 142.797 378.891 142.797 377.266C142.797 375.609 144.703 374.641 147.719 374.641ZM147.719 375.609C145.469 375.609 144.047 376.219 144.062 377.266C144.047 378.281 145.469 378.875 147.719 378.875C149.938 378.875 151.375 378.281 151.375 377.266C151.375 376.219 149.938 375.609 147.719 375.609ZM152.5 383.516V388.078H142.938V383.516H147.109V381.922H141.391V380.906H154.047V381.922H148.312V383.516H152.5ZM144.156 384.5V387.078H151.297V384.5H144.156ZM161.547 374.625C164.641 374.625 166.453 375.469 166.453 377.016C166.453 378.594 164.641 379.438 161.547 379.453C158.453 379.438 156.625 378.594 156.625 377.016C156.625 375.469 158.453 374.625 161.547 374.625ZM161.547 375.547C159.234 375.547 157.891 376.109 157.906 377.016C157.891 377.984 159.234 378.516 161.547 378.516C163.844 378.516 165.203 377.984 165.203 377.016C165.203 376.109 163.844 375.547 161.547 375.547ZM167.875 380.391V381.391H155.219V380.391H167.875ZM166.25 382.594V385.703H158V387.141H166.672V388.109H156.781V384.797H165.047V383.531H156.75V382.594H166.25ZM184.578 374.391V382.734H183.344V380.859H179.656V379.844H183.344V377.969H179.797C178.883 380.203 176.734 381.82 173.766 382.703L173.25 381.734C176.609 380.734 178.695 378.859 178.953 376.453H173.953V375.422H180.281C180.281 375.969 180.219 376.492 180.109 376.984H183.344V374.391H184.578ZM180.031 382.875C182.844 382.875 184.656 383.875 184.656 385.531C184.656 387.203 182.844 388.203 180.031 388.203C177.188 388.203 175.391 387.203 175.391 385.531C175.391 383.875 177.188 382.875 180.031 382.875ZM180.031 383.859C177.938 383.844 176.594 384.484 176.594 385.531C176.594 386.578 177.938 387.203 180.031 387.203C182.094 387.203 183.422 386.578 183.438 385.531C183.422 384.484 182.094 383.844 180.031 383.859ZM198.406 374.375V382.797H197.172V379.625H194.812V378.609H197.172V374.375H198.406ZM198.406 383.547V388.078H189.328V383.547H198.406ZM190.547 384.531V387.078H197.203V384.531H190.547ZM195.016 375.844V376.844H186.906V375.844H190.359V374.25H191.562V375.844H195.016ZM190.953 377.562C192.844 377.562 194.172 378.578 194.188 380.031C194.172 381.531 192.844 382.516 190.953 382.516C189.062 382.516 187.734 381.531 187.734 380.031C187.734 378.578 189.062 377.562 190.953 377.562ZM190.953 378.516C189.75 378.516 188.906 379.141 188.906 380.031C188.906 380.953 189.75 381.562 190.953 381.578C192.156 381.562 193 380.953 193 380.031C193 379.141 192.156 378.516 190.953 378.516ZM211.578 374.328V377.703H213.688V378.719H211.578V382.016H210.359V374.328H211.578ZM211.578 382.734V385.812H203.953V387.172H212.094V388.109H202.75V384.906H210.359V383.656H202.719V382.734H211.578ZM209.031 375.641V376.625H200.75V375.641H204.281V374.234H205.5V375.641H209.031ZM204.891 377.25C206.906 377.25 208.219 378.125 208.234 379.531C208.219 380.938 206.906 381.812 204.891 381.812C202.859 381.812 201.531 380.938 201.547 379.531C201.531 378.125 202.859 377.25 204.891 377.25ZM204.891 378.156C203.578 378.156 202.703 378.703 202.719 379.531C202.703 380.375 203.578 380.891 204.891 380.891C206.203 380.891 207.062 380.375 207.078 379.531C207.062 378.703 206.203 378.156 204.891 378.156ZM225.531 375.672C225.531 377.625 228.094 379.328 230.594 379.672L230.094 380.672C227.938 380.312 225.805 379.117 224.906 377.406C224.016 379.125 221.875 380.312 219.719 380.672L219.219 379.672C221.719 379.328 224.266 377.656 224.266 375.672V374.875H225.531V375.672ZM231.219 382.203V383.234H225.469V388.266H224.266V383.234H218.562V382.203H231.219ZM241.109 383.703C241.109 384.93 241.766 386.234 243.094 386.984C244.406 386.164 245.109 384.781 245.109 383.703V382.938H246.312V383.703C246.312 385.125 247.359 386.562 249.141 387.172L248.531 388.078C247.141 387.586 246.164 386.617 245.688 385.453C245.258 386.578 244.406 387.641 243.125 388.188C241.773 387.672 240.914 386.648 240.5 385.484C240.008 386.609 239.047 387.578 237.719 388.078L237.094 387.172C238.844 386.516 239.906 385.031 239.922 383.703V382.938H241.109V383.703ZM247.875 374.391V382.328H246.656V374.391H247.875ZM240.375 375.203C242.484 375.203 244.016 376.516 244.016 378.453C244.016 380.359 242.484 381.672 240.375 381.672C238.266 381.672 236.734 380.359 236.734 378.453C236.734 376.516 238.266 375.203 240.375 375.203ZM240.375 376.25C238.953 376.234 237.922 377.156 237.938 378.453C237.922 379.734 238.953 380.641 240.375 380.656C241.781 380.641 242.812 379.734 242.812 378.453C242.812 377.156 241.781 376.234 240.375 376.25ZM261.453 380.891V381.891H257.156V385.484H262.953V386.516H250.234V385.484H255.953V381.891H251.859V375.516H261.312V376.516H253.094V380.891H261.453ZM276.766 382.031V383.047H264.047V382.031H269.797V380.562H265.703V377.172H273.891V375.734H265.656V374.734H275.125V378.094H266.922V379.578H275.422V380.562H271V382.031H276.766ZM275.203 384.109V388.141H273.969V385.109H265.469V384.109H275.203ZM288.875 375.672C288.875 377.625 291.438 379.328 293.938 379.672L293.438 380.672C291.281 380.312 289.148 379.117 288.25 377.406C287.359 379.125 285.219 380.312 283.062 380.672L282.562 379.672C285.062 379.328 287.609 377.656 287.609 375.672V374.875H288.875V375.672ZM294.562 382.203V383.234H288.812V388.266H287.609V383.234H281.906V382.203H294.562ZM299.562 375.031C301.43 375.016 302.844 376.102 303.109 377.703H306.016V374.375H307.25V381.828H306.016V378.719H303.125C302.875 380.359 301.445 381.453 299.562 381.453C297.453 381.453 295.953 380.141 295.953 378.234C295.953 376.344 297.453 375.016 299.562 375.031ZM299.562 376.078C298.141 376.062 297.125 376.953 297.125 378.234C297.125 379.5 298.141 380.422 299.562 380.422C300.969 380.422 301.969 379.5 301.969 378.234C301.969 376.953 300.969 376.062 299.562 376.078ZM299.531 382.531V384.297H306.016V382.531H307.25V388.078H298.297V382.531H299.531ZM299.531 387.078H306.016V385.281H299.531V387.078ZM315.891 374.625C318.984 374.625 320.797 375.469 320.797 377.016C320.797 378.594 318.984 379.438 315.891 379.453C312.797 379.438 310.969 378.594 310.969 377.016C310.969 375.469 312.797 374.625 315.891 374.625ZM315.891 375.547C313.578 375.547 312.234 376.109 312.25 377.016C312.234 377.984 313.578 378.516 315.891 378.516C318.188 378.516 319.547 377.984 319.547 377.016C319.547 376.109 318.188 375.547 315.891 375.547ZM322.219 380.391V381.391H309.562V380.391H322.219ZM320.594 382.594V385.703H312.344V387.141H321.016V388.109H311.125V384.797H319.391V383.531H311.094V382.594H320.594ZM49.2656 407.438V408.453H43.625V411.297H42.3906V408.453H36.5469V407.438H49.2656ZM47.8438 412.922V413.969H38.1875V409.906H39.4219V412.922H47.8438ZM42.8906 400.734C45.8594 400.75 47.7812 401.812 47.7812 403.531C47.7812 405.25 45.8594 406.297 42.8906 406.297C39.9219 406.297 37.9844 405.25 37.9844 403.531C37.9844 401.812 39.9219 400.75 42.8906 400.734ZM42.8906 401.734C40.7344 401.734 39.2812 402.422 39.2969 403.531C39.2812 404.609 40.7344 405.297 42.8906 405.297C45.0469 405.297 46.4844 404.609 46.4844 403.531C46.4844 402.422 45.0469 401.734 42.8906 401.734ZM54.2188 401.219C55.3906 401.211 56.3906 401.648 57.0312 402.391H60.6719V400.375H61.9062V408.609H60.6719V406.625H57.0469C56.3906 407.367 55.3906 407.805 54.2188 407.797C52.1406 407.812 50.6094 406.453 50.6094 404.516C50.6094 402.562 52.1406 401.203 54.2188 401.219ZM54.2188 402.281C52.7969 402.266 51.7812 403.203 51.7812 404.516C51.7812 405.812 52.7969 406.75 54.2188 406.75C55.5938 406.75 56.625 405.812 56.625 404.516C56.625 403.203 55.5938 402.266 54.2188 402.281ZM57.2969 408.938C60.1719 408.938 61.9531 409.906 61.9531 411.578C61.9531 413.266 60.1719 414.234 57.2969 414.234C54.4062 414.234 52.6406 413.266 52.6406 411.578C52.6406 409.906 54.4062 408.938 57.2969 408.938ZM57.2969 409.891C55.1719 409.891 53.8438 410.531 53.8438 411.578C53.8438 412.625 55.1719 413.25 57.2969 413.25C59.4375 413.25 60.75 412.625 60.75 411.578C60.75 410.531 59.4375 409.891 57.2969 409.891ZM57.625 403.391C57.7422 403.734 57.8125 404.109 57.8125 404.516C57.8125 404.906 57.7422 405.273 57.625 405.609H60.6719V403.391H57.625ZM75.0781 400.375V403.938H77.1719V404.984H75.0781V408.453H73.8594V400.375H75.0781ZM67.5156 409.062V410.547H73.8594V409.062H75.0781V414.078H66.2969V409.062H67.5156ZM67.5156 413.094H73.8594V411.516H67.5156V413.094ZM72.5312 401.812V402.828H64.25V401.812H67.7812V400.25H69V401.812H72.5312ZM68.3906 403.469C70.3906 403.469 71.7188 404.422 71.7344 405.906C71.7188 407.391 70.3906 408.344 68.3906 408.344C66.375 408.344 65.0312 407.391 65.0469 405.906C65.0312 404.422 66.375 403.469 68.3906 403.469ZM68.3906 404.422C67.0781 404.406 66.2031 405.016 66.2188 405.906C66.2031 406.812 67.0781 407.406 68.3906 407.406C69.6875 407.406 70.5625 406.812 70.5781 405.906C70.5625 405.016 69.6875 404.406 68.3906 404.422ZM89.5 400.375V414.266H88.2812V400.375H89.5ZM80.1562 401.75V409.625C82.2734 409.617 84.4688 409.445 86.7969 408.953L86.9688 410C84.5 410.516 82.2969 410.688 80.0781 410.688H78.9531V401.75H80.1562ZM102.625 400.375V405.875H104.953V406.906H102.625V414.297H101.406V400.375H102.625ZM98.9688 401.734V402.75H93.7031V409.781C96.2188 409.781 98 409.664 100.062 409.281L100.219 410.344C98.0469 410.734 96.2188 410.812 93.5781 410.812H92.4844V401.734H98.9688Z" fill="black"/>
<path d="M36 84H371" stroke="url(#paint3_linear_502_929)"/>
<rect x="36" y="255" width="120" height="50" rx="10" fill="white"/>
<path d="M51.9844 286H49.4531L53.375 274.688H56.3906L60.2969 286H57.7812L56.9375 283.391H52.8438L51.9844 286ZM53.4375 281.562H56.3438L54.9219 277.234H54.8438L53.4375 281.562ZM66.1875 280.031C66.0938 279.438 65.5625 279.047 64.7969 279.047C64.0469 279.047 63.4688 279.406 63.4844 279.922C63.4688 280.297 63.7812 280.594 64.5781 280.766L66.0938 281.078C67.7344 281.422 68.5312 282.156 68.5469 283.375C68.5312 285.047 67.0312 286.172 64.7812 286.172C62.4844 286.172 61.1406 285.141 60.9531 283.484H63.2812C63.3906 284.156 63.9375 284.5 64.7812 284.5C65.625 284.5 66.1875 284.156 66.1875 283.609C66.1875 283.172 65.8281 282.906 65.0312 282.734L63.625 282.453C62.0156 282.141 61.1719 281.297 61.1875 280.047C61.1719 278.422 62.5781 277.406 64.7656 277.406C66.9062 277.406 68.2344 278.422 68.3594 280.031H66.1875ZM74.8125 280.031C74.7188 279.438 74.1875 279.047 73.4219 279.047C72.6719 279.047 72.0938 279.406 72.1094 279.922C72.0938 280.297 72.4062 280.594 73.2031 280.766L74.7188 281.078C76.3594 281.422 77.1562 282.156 77.1719 283.375C77.1562 285.047 75.6562 286.172 73.4062 286.172C71.1094 286.172 69.7656 285.141 69.5781 283.484H71.9062C72.0156 284.156 72.5625 284.5 73.4062 284.5C74.25 284.5 74.8125 284.156 74.8125 283.609C74.8125 283.172 74.4531 282.906 73.6562 282.734L72.25 282.453C70.6406 282.141 69.7969 281.297 69.8125 280.047C69.7969 278.422 71.2031 277.406 73.3906 277.406C75.5312 277.406 76.8594 278.422 76.9844 280.031H74.8125ZM82.4375 286.172C79.8438 286.172 78.25 284.484 78.25 281.797C78.25 279.172 79.8594 277.406 82.3438 277.406C84.5781 277.406 86.3281 278.812 86.3281 281.703V282.359H80.5312C80.5312 283.641 81.2969 284.438 82.4844 284.438C83.2656 284.438 83.8281 284.094 84.0625 283.578H86.2656C85.9375 285.141 84.5312 286.172 82.4375 286.172ZM80.5312 280.906H84.1406C84.1406 279.875 83.4219 279.141 82.3906 279.141C81.3281 279.141 80.5703 279.93 80.5312 280.906ZM92.625 280.031C92.5312 279.438 92 279.047 91.2344 279.047C90.4844 279.047 89.9062 279.406 89.9219 279.922C89.9062 280.297 90.2188 280.594 91.0156 280.766L92.5312 281.078C94.1719 281.422 94.9688 282.156 94.9844 283.375C94.9688 285.047 93.4688 286.172 91.2188 286.172C88.9219 286.172 87.5781 285.141 87.3906 283.484H89.7188C89.8281 284.156 90.375 284.5 91.2188 284.5C92.0625 284.5 92.625 284.156 92.625 283.609C92.625 283.172 92.2656 282.906 91.4688 282.734L90.0625 282.453C88.4531 282.141 87.6094 281.297 87.625 280.047C87.6094 278.422 89.0156 277.406 91.2031 277.406C93.3438 277.406 94.6719 278.422 94.7969 280.031H92.625ZM101.25 280.031C101.156 279.438 100.625 279.047 99.8594 279.047C99.1094 279.047 98.5312 279.406 98.5469 279.922C98.5312 280.297 98.8438 280.594 99.6406 280.766L101.156 281.078C102.797 281.422 103.594 282.156 103.609 283.375C103.594 285.047 102.094 286.172 99.8438 286.172C97.5469 286.172 96.2031 285.141 96.0156 283.484H98.3438C98.4531 284.156 99 284.5 99.8438 284.5C100.688 284.5 101.25 284.156 101.25 283.609C101.25 283.172 100.891 282.906 100.094 282.734L98.6875 282.453C97.0781 282.141 96.2344 281.297 96.25 280.047C96.2344 278.422 97.6406 277.406 99.8281 277.406C101.969 277.406 103.297 278.422 103.422 280.031H101.25ZM105.031 286V277.516H107.234V279H107.328C107.688 278.016 108.547 277.406 109.688 277.406C110.859 277.406 111.719 278.016 112 279H112.078C112.438 278.031 113.391 277.406 114.641 277.406C116.219 277.406 117.312 278.453 117.312 280.297V286H115V280.75C115 279.781 114.438 279.312 113.672 279.312C112.797 279.312 112.297 279.922 112.297 280.812V286H110.047V280.688C110.047 279.844 109.516 279.312 108.734 279.312C107.953 279.312 107.344 279.938 107.344 280.906V286H105.031ZM122.938 286.172C120.344 286.172 118.75 284.484 118.75 281.797C118.75 279.172 120.359 277.406 122.844 277.406C125.078 277.406 126.828 278.812 126.828 281.703V282.359H121.031C121.031 283.641 121.797 284.438 122.984 284.438C123.766 284.438 124.328 284.094 124.562 283.578H126.766C126.438 285.141 125.031 286.172 122.938 286.172ZM121.031 280.906H124.641C124.641 279.875 123.922 279.141 122.891 279.141C121.828 279.141 121.07 279.93 121.031 280.906ZM130.594 281.094V286H128.281V277.516H130.484V279H130.578C130.969 278.016 131.875 277.406 133.125 277.406C134.891 277.406 136.062 278.609 136.047 280.594V286H133.75V281C133.75 279.953 133.172 279.328 132.219 279.328C131.25 279.328 130.594 279.969 130.594 281.094ZM142.312 277.516V279.25H140.719V283.391C140.719 284.062 141.047 284.234 141.516 284.25C141.75 284.25 142.156 284.234 142.438 284.203V286.031C142.188 286.078 141.781 286.109 141.203 286.109C139.531 286.109 138.391 285.359 138.406 283.719V279.25H137.234V277.516H138.406V275.484H140.719V277.516H142.312Z" fill="url(#paint4_linear_502_929)"/>
<rect x="165" y="255" width="85" height="49" rx="10" fill="white"/>
<path d="M182.562 285.5H180.031L183.953 274.188H186.969L190.875 285.5H188.359L187.516 282.891H183.422L182.562 285.5ZM184.016 281.062H186.922L185.5 276.734H185.422L184.016 281.062ZM195.531 285.672C192.938 285.672 191.375 283.875 191.375 281.281C191.375 278.688 192.953 276.906 195.531 276.906C197.719 276.906 199.203 278.188 199.297 280.125H197.125C196.984 279.281 196.438 278.703 195.562 278.703C194.453 278.703 193.719 279.641 193.719 281.25C193.719 282.891 194.438 283.828 195.562 283.828C196.375 283.828 196.984 283.328 197.125 282.422H199.297C199.188 284.344 197.781 285.672 195.531 285.672ZM204.547 285.672C201.953 285.672 200.391 283.875 200.391 281.281C200.391 278.688 201.969 276.906 204.547 276.906C206.734 276.906 208.219 278.188 208.312 280.125H206.141C206 279.281 205.453 278.703 204.578 278.703C203.469 278.703 202.734 279.641 202.734 281.25C202.734 282.891 203.453 283.828 204.578 283.828C205.391 283.828 206 283.328 206.141 282.422H208.312C208.203 284.344 206.797 285.672 204.547 285.672ZM213.594 285.672C211 285.672 209.406 283.984 209.406 281.297C209.406 278.672 211.016 276.906 213.5 276.906C215.734 276.906 217.484 278.312 217.484 281.203V281.859H211.688C211.688 283.141 212.453 283.938 213.641 283.938C214.422 283.938 214.984 283.594 215.219 283.078H217.422C217.094 284.641 215.688 285.672 213.594 285.672ZM211.688 280.406H215.297C215.297 279.375 214.578 278.641 213.547 278.641C212.484 278.641 211.727 279.43 211.688 280.406ZM223.781 279.531C223.688 278.938 223.156 278.547 222.391 278.547C221.641 278.547 221.062 278.906 221.078 279.422C221.062 279.797 221.375 280.094 222.172 280.266L223.688 280.578C225.328 280.922 226.125 281.656 226.141 282.875C226.125 284.547 224.625 285.672 222.375 285.672C220.078 285.672 218.734 284.641 218.547 282.984H220.875C220.984 283.656 221.531 284 222.375 284C223.219 284 223.781 283.656 223.781 283.109C223.781 282.672 223.422 282.406 222.625 282.234L221.219 281.953C219.609 281.641 218.766 280.797 218.781 279.547C218.766 277.922 220.172 276.906 222.359 276.906C224.5 276.906 225.828 277.922 225.953 279.531H223.781ZM232.406 279.531C232.312 278.938 231.781 278.547 231.016 278.547C230.266 278.547 229.688 278.906 229.703 279.422C229.688 279.797 230 280.094 230.797 280.266L232.312 280.578C233.953 280.922 234.75 281.656 234.766 282.875C234.75 284.547 233.25 285.672 231 285.672C228.703 285.672 227.359 284.641 227.172 282.984H229.5C229.609 283.656 230.156 284 231 284C231.844 284 232.406 283.656 232.406 283.109C232.406 282.672 232.047 282.406 231.25 282.234L229.844 281.953C228.234 281.641 227.391 280.797 227.406 279.547C227.391 277.922 228.797 276.906 230.984 276.906C233.125 276.906 234.453 277.922 234.578 279.531H232.406Z" fill="url(#paint5_linear_502_929)"/>
<rect x="259" y="255" width="112" height="50" rx="10" fill="white"/>
<path d="M279.414 286H276.883L280.805 274.688H283.82L287.727 286H285.211L284.367 283.391H280.273L279.414 286ZM280.867 281.562H283.773L282.352 277.234H282.273L280.867 281.562ZM292.383 286.172C289.789 286.172 288.227 284.375 288.227 281.781C288.227 279.188 289.805 277.406 292.383 277.406C294.57 277.406 296.055 278.688 296.148 280.625H293.977C293.836 279.781 293.289 279.203 292.414 279.203C291.305 279.203 290.57 280.141 290.57 281.75C290.57 283.391 291.289 284.328 292.414 284.328C293.227 284.328 293.836 283.828 293.977 282.922H296.148C296.039 284.844 294.633 286.172 292.383 286.172ZM302.055 277.516V279.25H300.461V283.391C300.461 284.062 300.789 284.234 301.258 284.25C301.492 284.25 301.898 284.234 302.18 284.203V286.031C301.93 286.078 301.523 286.109 300.945 286.109C299.273 286.109 298.133 285.359 298.148 283.719V279.25H296.977V277.516H298.148V275.484H300.461V277.516H302.055ZM303.508 286V277.516H305.82V286H303.508ZM304.664 276.406C303.961 276.406 303.398 275.875 303.398 275.234C303.398 274.578 303.961 274.047 304.664 274.047C305.352 274.047 305.914 274.578 305.914 275.234C305.914 275.875 305.352 276.406 304.664 276.406ZM315.492 277.516L312.508 286H309.914L306.945 277.516H309.383L311.164 283.609H311.258L313.039 277.516H315.492ZM315.977 283.625C315.977 281.734 317.508 281.109 319.133 281.016C319.742 280.977 320.883 280.922 321.242 280.906V280.219C321.227 279.516 320.742 279.094 319.883 279.094C319.102 279.094 318.602 279.453 318.477 280.031H316.273C316.414 278.562 317.695 277.406 319.945 277.406C321.789 277.406 323.539 278.234 323.539 280.281V286H321.352V284.828H321.289C320.867 285.609 320.07 286.156 318.805 286.156C317.18 286.156 315.977 285.312 315.977 283.625ZM318.195 283.562C318.195 284.219 318.727 284.562 319.461 284.562C320.508 284.562 321.258 283.859 321.242 282.969V282.344C320.891 282.359 319.906 282.414 319.508 282.453C318.711 282.531 318.195 282.906 318.195 283.562ZM329.773 277.516V279.25H328.18V283.391C328.18 284.062 328.508 284.234 328.977 284.25C329.211 284.25 329.617 284.234 329.898 284.203V286.031C329.648 286.078 329.242 286.109 328.664 286.109C326.992 286.109 325.852 285.359 325.867 283.719V279.25H324.695V277.516H325.867V275.484H328.18V277.516H329.773ZM331.227 286V277.516H333.539V286H331.227ZM332.383 276.406C331.68 276.406 331.117 275.875 331.117 275.234C331.117 274.578 331.68 274.047 332.383 274.047C333.07 274.047 333.633 274.578 333.633 275.234C333.633 275.875 333.07 276.406 332.383 276.406ZM339.148 286.172C336.586 286.172 334.992 284.406 334.992 281.781C334.992 279.156 336.586 277.406 339.148 277.406C341.711 277.406 343.32 279.156 343.32 281.781C343.32 284.406 341.711 286.172 339.148 286.172ZM339.164 284.375C340.352 284.375 340.961 283.266 340.961 281.781C340.961 280.281 340.352 279.172 339.164 279.172C337.961 279.172 337.336 280.281 337.336 281.781C337.336 283.266 337.961 284.375 339.164 284.375ZM347.086 281.094V286H344.773V277.516H346.977V279H347.07C347.461 278.016 348.367 277.406 349.617 277.406C351.383 277.406 352.555 278.609 352.539 280.594V286H350.242V281C350.242 279.953 349.664 279.328 348.711 279.328C347.742 279.328 347.086 279.969 347.086 281.094Z" fill="url(#paint6_linear_502_929)"/>
<defs>
<linearGradient id="paint0_linear_502_929" x1="18.5" y1="27.609" x2="343.475" y2="492.631" gradientUnits="userSpaceOnUse">
<stop stop-color="#3182F6"/>
<stop offset="1" stop-color="#004DBC"/>
</linearGradient>
<linearGradient id="paint1_linear_502_929" x1="29.7288" y1="136" x2="100.593" y2="136" gradientUnits="userSpaceOnUse">
<stop stop-color="#3182F6"/>
<stop offset="1" stop-color="#A009FF"/>
</linearGradient>
<linearGradient id="paint2_linear_502_929" x1="31" y1="245" x2="99.125" y2="245" gradientUnits="userSpaceOnUse">
<stop stop-color="#3182F6"/>
<stop offset="1" stop-color="#A009FF"/>
</linearGradient>
<linearGradient id="paint3_linear_502_929" x1="36" y1="84.5" x2="371" y2="84.5" gradientUnits="userSpaceOnUse">
<stop stop-color="#3182F6"/>
<stop offset="1" stop-color="#A009FF"/>
</linearGradient>
<linearGradient id="paint4_linear_502_929" x1="41.6753" y1="279.5" x2="156.429" y2="279.5" gradientUnits="userSpaceOnUse">
<stop stop-color="#3182F6"/>
<stop offset="1" stop-color="#A009FF"/>
</linearGradient>
<linearGradient id="paint5_linear_502_929" x1="170.513" y1="279" x2="248.643" y2="279" gradientUnits="userSpaceOnUse">
<stop stop-color="#3182F6"/>
<stop offset="1" stop-color="#A009FF"/>
</linearGradient>
<linearGradient id="paint6_linear_502_929" x1="270.5" y1="279.5" x2="364.5" y2="279.5" gradientUnits="userSpaceOnUse">
<stop stop-color="#3182F6"/>
<stop offset="1" stop-color="#A009FF"/>
</linearGradient>
</defs>
</svg>
