<svg width="704" height="197" viewBox="0 0 704 197" fill="none" xmlns="http://www.w3.org/2000/svg">
<g filter="url(#filter0_d_462_1164)">
<rect x="50" y="40" width="604" height="97" rx="48.5" fill="white" shape-rendering="crispEdges"/>
<path d="M135.695 88.7598V90.1348H127.918V93.873H126.242V90.1348H118.207V88.7598H135.695ZM133.74 95.9141V97.332H120.441V92.1113H122.117V95.9141H133.74ZM122.225 79.2637V81.7129H131.678V79.2637H133.354V86.8906H120.549V79.2637H122.225ZM122.225 85.5156H131.678V83.002H122.225V85.5156ZM153.076 78.6406V89.9629H151.379V86.9551H146.91V88.5879H138.145V80.1016H146.91V81.7559H151.379V78.6406H153.076ZM139.82 81.4766V87.2129H145.256V81.4766H139.82ZM146.738 90.5215C150.713 90.5215 153.141 91.832 153.141 94.1309C153.141 96.4082 150.713 97.6973 146.738 97.6973C142.764 97.6973 140.336 96.4082 140.336 94.1309C140.336 91.832 142.764 90.5215 146.738 90.5215ZM146.738 91.832C143.816 91.8535 141.99 92.6914 142.012 94.1309C141.99 95.5059 143.816 96.3652 146.738 96.3652C149.66 96.3652 151.465 95.5059 151.465 94.1309C151.465 92.6914 149.66 91.8535 146.738 91.832ZM146.91 85.5371H151.379V83.1523H146.91V85.5371ZM172.756 80.7246V82.1211H170.629V91.3164C171.66 91.2412 172.681 91.1553 173.658 91.0371L173.744 92.2832C169.705 92.9277 165.129 92.9922 161.756 93.0137L161.541 91.5742L164.119 91.5527V82.1211H162.014V80.7246H172.756ZM176.559 78.6406V86.3105H179.76V87.7285H176.559V97.7402H174.883V78.6406H176.559ZM165.752 91.5312C166.815 91.5098 167.922 91.4668 169.018 91.4023V82.1211H165.752V91.5312ZM196.561 90.6719V97.7832H194.885V92.0898H183.713V90.6719H196.561ZM196.561 78.6621V89.7051H194.885V78.6621H196.561ZM183.691 79.7363V86.7402C186.57 86.7295 189.546 86.5146 192.715 85.8594L192.973 87.2773C189.6 87.9219 186.57 88.1582 183.541 88.1582H181.994V79.7363H183.691ZM209.322 81.4551C209.322 84.7207 213.061 87.6426 216.391 88.2656L215.617 89.6836C212.738 89.0176 209.698 86.9658 208.463 84.1406C207.228 86.9551 204.198 89.0068 201.309 89.6836L200.535 88.2656C203.844 87.6211 207.561 84.7422 207.561 81.4551V79.9941H209.322V81.4551ZM217.293 93.7441V95.1406H199.805V93.7441H217.293ZM236.285 87.5137V88.8457H218.797V87.5137H236.285ZM234.094 90.3711V94.4316H222.621V96.2578H234.717V97.4824H220.924V93.2715H232.418V91.6387H220.902V90.3711H234.094ZM234.029 79.2207V83.1738H222.75V84.8496H234.373V86.0742H221.074V82.0137H232.332V80.4453H221.01V79.2207H234.029ZM260.82 86.0312V87.4062H243.354V86.0312H248.768C249.358 83.7002 249.498 81.9492 249.541 80.7891H244.986V79.4141H251.217V79.9082C251.195 80.9072 251.195 83.0557 250.465 86.0312H256.309C256.867 83.6787 256.964 81.9707 256.996 80.7891H252.506V79.4141H258.629V80.1875C258.629 81.3477 258.629 83.335 258.006 86.0312H260.82ZM258.672 89.4473V90.7578H247.221V92.7773H258.178V94.0449H247.221V96.1504H258.801V97.4824H245.523V89.4473H258.672ZM278.588 78.6621V89.6406H276.977V84.8281H274.227V89.4473H272.658V79.0059H274.227V83.4316H276.977V78.6621H278.588ZM265.01 80.1445V86.9121C267.008 86.9014 268.952 86.7939 271.262 86.3535L271.455 87.7285C268.877 88.2441 266.814 88.3516 264.537 88.3516H263.334V80.1445H265.01ZM269.113 91.5098C269.092 93.1963 269.983 95.0225 271.799 96.0645C273.625 94.9258 274.549 92.9922 274.57 91.5098V90.2207H276.225V91.5098C276.203 93.5078 277.664 95.4844 280.113 96.2793L279.254 97.5684C277.363 96.8916 276.031 95.5488 275.387 93.916C274.785 95.4736 273.636 96.9668 271.842 97.7402C269.983 97.0098 268.823 95.5918 268.254 93.9805C267.577 95.5381 266.267 96.8809 264.451 97.5684L263.592 96.2793C265.977 95.4414 267.48 93.3789 267.48 91.5098V90.2207H269.113V91.5098ZM296.828 84.4414V85.7949H283.744V79.3496H285.42V84.4414H296.828ZM298.848 88.3945V89.7695H281.359V88.3945H298.848ZM296.936 95.8711V97.2676H283.637V91.7246H285.312V95.8711H296.936ZM316.744 78.6406V97.7402H315.111V78.6406H316.744ZM312.834 79.1133V96.752H311.223V87.3633H307.055V85.9453H311.223V79.1133H312.834ZM308.344 81.0039V82.4004H302.779V91.7246C305.529 91.7139 307.27 91.5957 309.332 91.1445L309.504 92.584C307.291 93.0352 305.422 93.1211 302.35 93.1426H301.146V81.0039H308.344ZM334.834 87.5996V88.9746H328.926V93.916H336.896V95.334H319.408V93.916H327.271V88.9746H321.643V80.209H334.641V81.584H323.34V87.5996H334.834Z" fill="black"/>
<path d="M349.143 79.8008C350.894 79.8008 352.354 80.7676 353.246 82.4434H357.543V78.4258H360.25V98.0195H357.543V90.6934H353.461C352.58 92.627 351.033 93.7441 349.143 93.7441C346.178 93.7441 344.051 91.0586 344.072 86.7617C344.051 82.5078 346.178 79.8008 349.143 79.8008ZM349.143 82.2715C347.682 82.2715 346.672 83.8613 346.693 86.7617C346.672 89.6836 347.682 91.252 349.143 91.252C350.625 91.252 351.592 89.6836 351.592 86.7617C351.592 83.8613 350.625 82.2715 349.143 82.2715ZM354.02 84.6562C354.138 85.3008 354.213 86.0098 354.213 86.7617C354.213 87.374 354.159 87.9541 354.084 88.502H357.543V84.6562H354.02ZM379.242 78.4473V92.7129H376.514V85.709H373.312V83.4961H376.514V78.4473H379.242ZM379.715 95.4414V97.6328H366.266V91.4668H369.016V95.4414H379.715ZM370.154 82.2715C370.154 84.5273 371.529 86.9551 374.645 87.9648L373.291 90.1348C371.121 89.4365 369.639 88.0078 368.779 86.2246C367.92 88.2012 366.362 89.7695 364.053 90.543L362.656 88.3086C365.879 87.2988 367.34 84.7422 367.361 82.25V81.9492H363.43V79.7578H374.043V81.9492H370.154V82.2715ZM398.148 78.4258V97.9766H395.377V78.4258H398.148ZM393.873 81.3691V83.5605H382.186V81.3691H386.633V78.6836H389.426V81.3691H393.873ZM388.072 84.6348C390.951 84.6348 393.1 86.5684 393.1 89.2969C393.1 92.0254 390.951 93.959 388.072 93.959C385.172 93.959 383.023 92.0254 383.023 89.2969C383.023 86.5684 385.172 84.6348 388.072 84.6348ZM388.072 86.8477C386.633 86.8691 385.645 87.793 385.645 89.2969C385.645 90.8223 386.633 91.7246 388.072 91.7031C389.49 91.7246 390.479 90.8223 390.479 89.2969C390.479 87.793 389.49 86.8691 388.072 86.8477ZM412.027 82.8945C412.027 84.8281 413.145 86.7617 415.615 87.5781L414.391 89.6406C412.661 89.0283 411.479 87.9004 410.781 86.5039C410.094 88.04 408.901 89.2754 407.107 89.9414L405.861 87.9219C408.311 86.998 409.428 84.9785 409.428 82.8945V82.7871H406.398V80.6387H409.428V78.6191H412.027V80.6387H415.035V82.7871H412.027V82.8945ZM422.662 78.4473V90.3926H420.062V85.5586H418.494V90.3496H415.916V78.748H418.494V83.3457H420.062V78.4473H422.662ZM422.662 91.2305V97.9766H419.934V93.4434H409.148V91.2305H422.662ZM446.295 78.4258V88.5664H443.566V78.4258H446.295ZM439.012 89.3398V94.4102H434.887V95.7422C437.121 95.7207 438.518 95.6348 440.129 95.3125L440.387 97.332C438.389 97.7188 436.691 97.7617 433.533 97.7617H432.244V92.5195H436.305V91.3809H432.244V89.3398H439.012ZM446.295 89.3398V97.9121H443.609V91.5312H439.742V89.3398H446.295ZM435.51 79.2207C438.475 79.1992 440.73 81.0898 440.73 83.7109C440.73 86.332 438.475 88.2012 435.51 88.2012C432.48 88.2012 430.246 86.332 430.246 83.7109C430.246 81.0898 432.48 79.1992 435.51 79.2207ZM435.51 81.4766C434.006 81.4551 432.889 82.293 432.91 83.7109C432.889 85.0859 434.006 85.9883 435.51 85.9883C436.992 85.9883 438.088 85.0859 438.088 83.7109C438.088 82.293 436.992 81.4551 435.51 81.4766ZM465.395 78.4258V97.9766H462.623V78.4258H465.395ZM459.529 80.4668C459.529 86.3965 457.445 91.3164 450.463 94.625L449.023 92.4336C454.072 90.0488 456.296 86.9551 456.736 82.6152H450.076V80.4668H459.529ZM485.848 87.1914V89.2324H467.951V87.1914H485.848ZM483.699 90.1992V94.8184H472.742V95.9355H484.279V97.8047H470.014V93.0781H480.992V92.0898H469.992V90.1992H483.699ZM483.678 78.7695V83.3672H472.914V84.4199H484.021V86.2676H470.186V81.627H480.928V80.6387H470.143V78.7695H483.678ZM497.449 79.8008C500.092 79.8008 502.058 81.9814 502.455 85.4941H505.85V78.4258H508.557V98.0195H505.85V87.6855H502.477C502.187 91.4453 500.178 93.7441 497.449 93.7441C494.484 93.7441 492.357 91.0586 492.379 86.7617C492.357 82.5078 494.484 79.8008 497.449 79.8008ZM497.449 82.2715C495.988 82.2715 494.979 83.8613 495 86.7617C494.979 89.6836 495.988 91.252 497.449 91.252C498.932 91.252 499.898 89.6836 499.898 86.7617C499.898 83.8613 498.932 82.2715 497.449 82.2715ZM527.549 78.4258V98.0195H524.82V90.1348H521.469V87.8789H524.82V84.8066H521.533V82.5723H524.82V78.4258H527.549ZM520.502 80.0586V87.5781H514.486V91.3809C516.903 91.3701 519.052 91.252 521.512 90.8867L521.727 93.1211C518.805 93.5938 516.312 93.6367 513.305 93.6367H511.758V85.4512H517.816V82.2285H511.715V80.0586H520.502ZM546.777 78.4473V97.9766H543.984V93.6582H540.01V91.5957H543.984V78.4473H546.777ZM529.998 88.3516C533.65 88.3516 538.527 88.3301 542.738 87.7715L542.889 89.7695C541.17 90.0811 539.397 90.2744 537.668 90.3926V97.3965H534.896V90.5215C533.274 90.5752 531.738 90.5859 530.342 90.5859L529.998 88.3516ZM536.4 79.2207C539.279 79.2207 541.406 80.8965 541.428 83.2383C541.406 85.6445 539.279 87.2344 536.4 87.2344C533.479 87.2344 531.373 85.6445 531.373 83.2383C531.373 80.8965 533.479 79.2207 536.4 79.2207ZM536.4 81.3047C534.939 81.3047 533.951 82.0566 533.951 83.2383C533.951 84.4629 534.939 85.1504 536.4 85.1504C537.818 85.1504 538.807 84.4629 538.828 83.2383C538.807 82.0566 537.818 81.3047 536.4 81.3047ZM558.529 81.4121V83.582H549.076V81.4121H552.471V78.9629H555.178V81.4121H558.529ZM553.846 84.4629C556.338 84.4629 558.121 86.3965 558.143 89.1035C558.121 91.832 556.338 93.7656 553.846 93.7656C551.354 93.7656 549.527 91.832 549.527 89.1035C549.527 86.3965 551.354 84.4629 553.846 84.4629ZM553.846 86.7402C552.707 86.7402 551.934 87.6211 551.934 89.1035C551.934 90.5859 552.707 91.4453 553.846 91.4453C554.941 91.4453 555.715 90.5859 555.736 89.1035C555.715 87.6211 554.941 86.7402 553.846 86.7402ZM566.006 78.4258V97.9766H563.406V88.5664H561.816V97.1387H559.26V78.8125H561.816V86.375H563.406V78.4258H566.006ZM586.008 93.4434V95.6992H568.111V93.4434H572.107V88.6523C570.593 87.75 569.68 86.3643 569.68 84.6348C569.68 81.4766 572.773 79.3711 577.027 79.3711C581.26 79.3711 584.375 81.4766 584.396 84.6348C584.386 86.3213 583.494 87.6963 582.033 88.6094V93.4434H586.008ZM577.027 81.541C574.234 81.541 572.387 82.6582 572.387 84.6348C572.387 86.5469 574.234 87.7285 577.027 87.7285C579.799 87.7285 581.668 86.5469 581.689 84.6348C581.668 82.6582 579.799 81.541 577.027 81.541ZM574.814 93.4434H579.262V89.6406C578.563 89.7803 577.812 89.8555 577.027 89.8555C576.243 89.8555 575.502 89.791 574.814 89.6406V93.4434Z" fill="url(#paint0_linear_462_1164)"/>
</g>
<defs>
<filter id="filter0_d_462_1164" x="0" y="0" width="704" height="197" filterUnits="userSpaceOnUse" color-interpolation-filters="sRGB">
<feFlood flood-opacity="0" result="BackgroundImageFix"/>
<feColorMatrix in="SourceAlpha" type="matrix" values="0 0 0 0 0 0 0 0 0 0 0 0 0 0 0 0 0 0 127 0" result="hardAlpha"/>
<feOffset dy="10"/>
<feGaussianBlur stdDeviation="25"/>
<feComposite in2="hardAlpha" operator="out"/>
<feColorMatrix type="matrix" values="0 0 0 0 0.192157 0 0 0 0 0.509804 0 0 0 0 0.964706 0 0 0 0.25 0"/>
<feBlend mode="normal" in2="BackgroundImageFix" result="effect1_dropShadow_462_1164"/>
<feBlend mode="normal" in="SourceGraphic" in2="effect1_dropShadow_462_1164" result="shape"/>
</filter>
<linearGradient id="paint0_linear_462_1164" x1="117" y1="88.5" x2="587" y2="88.5" gradientUnits="userSpaceOnUse">
<stop stop-color="#3182F6"/>
<stop offset="1" stop-color="#A009FF"/>
</linearGradient>
</defs>
</svg>
