<svg width="908" height="198" viewBox="0 0 908 198" fill="none" xmlns="http://www.w3.org/2000/svg">
<g filter="url(#filter0_d_462_1165)">
<rect x="50" y="40" width="808" height="98" rx="49" fill="white" shape-rendering="crispEdges"/>
<path d="M143.841 91.4941V98.2832H142.144V92.8477H130.993V91.4941H143.841ZM143.841 79.1406V90.3984H142.144V85.5H138.169C137.804 87.8203 135.827 89.3887 133.271 89.3672C130.413 89.3887 128.308 87.498 128.308 84.791C128.308 82.127 130.413 80.2363 133.271 80.2363C135.827 80.2363 137.804 81.7939 138.169 84.082H142.144V79.1406H143.841ZM133.271 81.6758C131.358 81.6758 129.919 82.9863 129.919 84.791C129.919 86.6602 131.358 87.9492 133.271 87.9492C135.14 87.9492 136.579 86.6602 136.579 84.791C136.579 82.9863 135.14 81.6758 133.271 81.6758ZM153.853 85.0059C153.853 88.25 156.216 91.5371 159.03 92.7617L158.085 94.0938C155.851 93.0732 153.917 90.8711 153.036 88.2285C152.134 91.0322 150.211 93.4707 148.03 94.5664L147.021 93.2344C149.749 91.9238 152.134 88.3145 152.155 85.0059V82.5137H147.644V81.1172H158.407V82.5137H153.853V85.0059ZM162.769 79.1406V98.2402H161.071V79.1406H162.769ZM183.522 94.459V95.877H166.034V94.459H173.897V90.8496H168.226V84.9629H179.655V81.9551H168.183V80.5586H181.31V86.3379H169.901V89.4531H181.761V90.8496H175.552V94.459H183.522ZM197.358 84.2754C197.337 87.7559 199.722 91.2793 202.536 92.5469L201.505 93.8789C199.335 92.8154 197.455 90.5703 196.542 87.8418C195.65 90.7314 193.771 93.1377 191.536 94.2656L190.462 92.8477C193.298 91.5371 195.661 87.9062 195.683 84.2754V80.7949H197.358V84.2754ZM206.317 79.1406V98.2832H204.62V79.1406H206.317ZM219.831 81.1387C219.81 86.6602 217.812 91.752 210.915 95.125L209.97 93.7715C213.547 92.0527 215.76 89.8506 216.974 87.2617L210.335 87.9062L210.056 86.4023L217.511 85.9082C217.854 84.8447 218.059 83.7168 218.134 82.5352H211.022V81.1387H219.831ZM225.374 79.1406V98.2402H223.677V79.1406H225.374ZM244.044 84.9414V86.2949H230.96V79.8496H232.636V84.9414H244.044ZM246.063 88.8945V90.2695H228.575V88.8945H246.063ZM244.151 96.3711V97.7676H230.853V92.2246H232.528V96.3711H244.151ZM269.481 79.1406V98.2402H267.87V79.1406H269.481ZM265.464 79.6562V97.2734H263.853V88.3574H259.813C258.643 90.5811 256.806 92.5469 254.142 94.1152L253.153 92.8906C257.311 90.4307 259.395 86.9824 259.706 82.9863H253.97V81.5898H261.382C261.371 83.4697 261.07 85.2852 260.437 86.9824H263.853V79.6562H265.464ZM282.78 80.623C285.595 80.6445 287.593 83.2227 287.614 87.2832C287.593 91.3438 285.595 93.9219 282.78 93.9219C279.944 93.9219 277.968 91.3438 277.968 87.2832C277.968 83.2227 279.944 80.6445 282.78 80.623ZM282.78 82.127C280.89 82.1484 279.558 84.168 279.558 87.2832C279.558 90.3984 280.89 92.418 282.78 92.418C284.692 92.418 285.981 90.3984 285.981 87.2832C285.981 84.168 284.692 82.1484 282.78 82.127ZM292.448 79.1406V86.7676H295.649V88.2285H292.448V98.2402H290.772V79.1406H292.448ZM312.45 79.1621V93.041H310.774V79.1621H312.45ZM313.052 96.4141V97.832H299.925V91.6445H301.622V96.4141H313.052ZM299.581 80.5801V87.9062C302.954 87.9277 305.683 87.7451 308.647 87.0898L308.884 88.5078C305.747 89.1523 302.933 89.3672 299.431 89.3672H297.884V80.5801H299.581ZM318.831 95.0605L317.155 100.904H315.565L316.747 95.0605H318.831ZM665.116 79.4844C669.37 79.4844 671.862 80.6445 671.862 82.7715C671.862 84.9414 669.37 86.1016 665.116 86.123C660.862 86.1016 658.349 84.9414 658.349 82.7715C658.349 80.6445 660.862 79.4844 665.116 79.4844ZM665.116 80.752C661.937 80.752 660.089 81.5254 660.11 82.7715C660.089 84.1035 661.937 84.834 665.116 84.834C668.274 84.834 670.144 84.1035 670.144 82.7715C670.144 81.5254 668.274 80.752 665.116 80.752ZM673.817 87.4121V88.7871H656.415V87.4121H673.817ZM671.583 90.4414V94.7168H660.239V96.6934H672.163V98.0254H658.563V93.4707H669.929V91.7305H658.521V90.4414H671.583ZM687.46 83.1367C687.46 85.4141 689.394 87.5195 692.208 88.3574L691.413 89.6465C689.211 88.9912 687.492 87.5732 686.665 85.7363C685.827 87.7559 684.055 89.292 681.788 90.0332L680.95 88.7012C683.786 87.8418 685.806 85.6504 685.806 83.1367V82.7715H681.487V81.375H685.806V79.0547H687.503V81.375H691.778V82.7715H687.46V83.1367ZM695.882 79.1406V83.8672H698.761V85.2852H695.882V90.248H694.206V79.1406H695.882ZM696.226 91.2793V92.6543H690.812C691.091 94.6523 693.895 96.3711 696.956 96.8652L696.333 98.1758C693.529 97.7139 690.994 96.3281 689.909 94.416C688.813 96.3174 686.3 97.6709 683.528 98.1543L682.884 96.8652C685.967 96.3711 688.738 94.6846 689.028 92.6543H683.636V91.2793H696.226ZM715.282 81.0742V82.9863C715.261 85.3281 715.261 87.9492 714.573 91.7949L712.854 91.6016C713.585 87.9492 713.585 85.2637 713.585 82.9863V82.4707H701.812V81.0742H715.282ZM717.366 94.1367V95.5332H699.964V94.1367H706.796V87.3047H708.45V94.1367H717.366ZM730.966 91.9668C730.966 93.6533 731.868 95.4473 733.694 96.4785C735.499 95.3506 736.466 93.4492 736.466 91.9668V90.9141H738.12V91.9668C738.12 93.9219 739.56 95.8984 742.009 96.7363L741.171 97.9824C739.259 97.3057 737.916 95.9736 737.261 94.373C736.67 95.9199 735.499 97.3809 733.737 98.1328C731.879 97.4238 730.697 96.0166 730.128 94.416C729.451 95.9629 728.13 97.2949 726.304 97.9824L725.444 96.7363C727.851 95.834 729.312 93.793 729.333 91.9668V90.9141H730.966V91.9668ZM740.269 79.1621V90.0762H738.593V79.1621H740.269ZM729.956 80.2793C732.856 80.2793 734.962 82.084 734.962 84.748C734.962 87.3691 732.856 89.1738 729.956 89.1738C727.056 89.1738 724.95 87.3691 724.95 84.748C724.95 82.084 727.056 80.2793 729.956 80.2793ZM729.956 81.7188C728.001 81.6973 726.583 82.9648 726.604 84.748C726.583 86.5098 728.001 87.7559 729.956 87.7773C731.89 87.7559 733.308 86.5098 733.308 84.748C733.308 82.9648 731.89 81.6973 729.956 81.7188ZM748.647 80.623C751.247 80.6445 753.116 82.8682 753.396 86.4453H757.671V79.1406H759.347V98.2832H757.671V87.8418H753.417C753.213 91.5801 751.312 93.9219 748.647 93.9219C745.833 93.9219 743.856 91.3438 743.856 87.2832C743.856 83.2227 745.833 80.6445 748.647 80.623ZM748.647 82.127C746.757 82.1484 745.468 84.168 745.468 87.2832C745.468 90.3984 746.757 92.418 748.647 92.418C750.517 92.418 751.827 90.3984 751.827 87.2832C751.827 84.168 750.517 82.1484 748.647 82.127ZM780.015 94.373V95.791H762.526V94.373H766.866V89.2168C765.233 88.3682 764.245 86.9932 764.245 85.2637C764.245 82.2988 767.146 80.3652 771.228 80.3438C775.31 80.3652 778.21 82.2988 778.21 85.2637C778.21 86.9609 777.254 88.3252 775.675 89.1738V94.373H780.015ZM771.228 81.7402C768.091 81.7188 765.878 83.1367 765.878 85.2637C765.878 87.3906 768.091 88.8301 771.228 88.8301C774.343 88.8301 776.577 87.3906 776.577 85.2637C776.577 83.1367 774.343 81.7188 771.228 81.7402ZM768.521 94.373H773.978V89.8184C773.15 90.0439 772.227 90.1621 771.228 90.1621C770.25 90.1621 769.337 90.0547 768.521 89.8398V94.373Z" fill="black"/>
<path d="M331.915 80.3008C334.901 80.3008 337.05 83.0078 337.071 87.2617C337.05 91.5586 334.901 94.2441 331.915 94.2441C328.929 94.2441 326.737 91.5586 326.759 87.2617C326.737 83.0078 328.929 80.3008 331.915 80.3008ZM331.915 82.7715C330.411 82.7715 329.401 84.3613 329.401 87.2617C329.401 90.1836 330.411 91.752 331.915 91.752C333.44 91.752 334.429 90.1836 334.45 87.2617C334.429 84.3613 333.44 82.7715 331.915 82.7715ZM342.077 78.9258V86.2949H344.956V88.5723H342.077V98.4766H339.327V78.9258H342.077ZM362.036 78.9258V98.5195H359.265V78.9258H362.036ZM351.423 80.3008C354.366 80.3008 356.558 83.0078 356.558 87.2617C356.558 91.5586 354.366 94.2441 351.423 94.2441C348.415 94.2441 346.224 91.5586 346.245 87.2617C346.224 83.0078 348.415 80.3008 351.423 80.3008ZM351.423 82.7715C349.897 82.7715 348.888 84.3613 348.888 87.2617C348.888 90.1836 349.897 91.752 351.423 91.752C352.905 91.752 353.915 90.1836 353.915 87.2617C353.915 84.3613 352.905 82.7715 351.423 82.7715ZM380.104 78.9258V86.4238H382.876V88.6797H380.104V98.4336H377.354V78.9258H380.104ZM374.884 80.9238C374.862 86.7676 372.585 91.8379 366.011 95.0605L364.464 92.9551C369.094 90.6348 371.575 87.5195 372.091 83.1582H365.581V80.9238H374.884ZM399.054 81.5039C399.054 84.3613 401.589 87.4336 406.015 88.1855L404.812 90.4629C401.406 89.7861 398.871 87.874 397.614 85.3496C396.314 87.8525 393.779 89.7754 390.396 90.4629L389.214 88.1855C393.554 87.4121 396.11 84.3398 396.132 81.5039V80.0859H399.054V81.5039ZM406.659 93.8145V96.0703H388.763V93.8145H406.659ZM418.067 81.5039C418.067 84.3613 420.603 87.4336 425.028 88.1855L423.825 90.4629C420.42 89.7861 417.885 87.874 416.628 85.3496C415.328 87.8525 412.793 89.7754 409.409 90.4629L408.228 88.1855C412.567 87.4121 415.124 84.3398 415.146 81.5039V80.0859H418.067V81.5039ZM425.673 93.8145V96.0703H407.776V93.8145H425.673ZM444.687 94.0508V96.3066H426.79V94.0508H434.331V91.1074H428.853V84.5332H439.917V82.3848H428.831V80.1934H442.624V86.6816H431.603V88.873H443.075V91.1074H437.06V94.0508H444.687ZM466.3 78.9258V86.5742H469.179V88.8301H466.3V98.4766H463.593V78.9258H466.3ZM462.261 81.8477V84.0391H450.767V81.8477H455.192V79.2266H457.942V81.8477H462.261ZM456.567 85.1348C459.425 85.1348 461.552 87.0684 461.552 89.7969C461.552 92.5254 459.425 94.459 456.567 94.459C453.688 94.459 451.562 92.5254 451.562 89.7969C451.562 87.0684 453.688 85.1348 456.567 85.1348ZM456.567 87.3477C455.192 87.3691 454.183 88.293 454.183 89.7969C454.183 91.3223 455.192 92.2246 456.567 92.2031C457.942 92.2246 458.931 91.3223 458.931 89.7969C458.931 88.293 457.942 87.3691 456.567 87.3477ZM486.001 80.623V82.4707C486.001 84.9199 486.001 87.6699 485.206 91.8164L482.456 91.5371C483.197 87.8418 483.229 85.0918 483.251 82.793H471.735V80.623H486.001ZM487.72 93.8574V96.0918H469.888V93.8574H476.269V87.1328H478.997V93.8574H487.72ZM510.343 78.9473V89.7754H507.593V78.9473H510.343ZM501.47 81.5039C501.448 83.8242 502.866 86.123 506.067 87.0039L504.757 89.1738C502.501 88.5078 500.943 87.1543 500.052 85.4141C499.16 87.3047 497.56 88.7979 495.218 89.4961L493.907 87.3477C497.173 86.3594 498.612 83.9316 498.612 81.5039V79.6133H501.47V81.5039ZM510.45 90.6562V92.8262H508.108V96.0703H510.622V98.2617H496.851V96.0703H499.386V92.8262H497.022V90.6562H510.45ZM502.093 96.0703H505.401V92.8262H502.093V96.0703ZM518.378 80.3008C521.021 80.3008 522.986 82.4814 523.384 85.9941H526.778V78.9258H529.485V98.5195H526.778V88.1855H523.405C523.115 91.9453 521.106 94.2441 518.378 94.2441C515.413 94.2441 513.286 91.5586 513.308 87.2617C513.286 83.0078 515.413 80.3008 518.378 80.3008ZM518.378 82.7715C516.917 82.7715 515.907 84.3613 515.929 87.2617C515.907 90.1836 516.917 91.752 518.378 91.752C519.86 91.752 520.827 90.1836 520.827 87.2617C520.827 84.3613 519.86 82.7715 518.378 82.7715ZM547.425 78.9258V86.5742H550.304V88.8301H547.425V98.4766H544.718V78.9258H547.425ZM543.386 81.8477V84.0391H531.892V81.8477H536.317V79.2266H539.067V81.8477H543.386ZM537.692 85.1348C540.55 85.1348 542.677 87.0684 542.677 89.7969C542.677 92.5254 540.55 94.459 537.692 94.459C534.813 94.459 532.687 92.5254 532.687 89.7969C532.687 87.0684 534.813 85.1348 537.692 85.1348ZM537.692 87.3477C536.317 87.3691 535.308 88.293 535.308 89.7969C535.308 91.3223 536.317 92.2246 537.692 92.2031C539.067 92.2246 540.056 91.3223 540.056 89.7969C540.056 88.293 539.067 87.3691 537.692 87.3477ZM566.89 84.2539V86.4023H553.226V79.6133H555.954V84.2539H566.89ZM568.888 88.5078V90.6562H550.991V88.5078H568.888ZM567.019 95.8555V98.0469H553.054V92.2461H555.804V95.8555H567.019ZM580.554 79.9785C582.111 79.9785 583.476 80.5479 584.421 81.5039H588.847V78.9258H591.575V90.377H588.847V88.0352H584.399C583.454 88.9805 582.101 89.5498 580.554 89.5391C577.589 89.5605 575.333 87.5195 575.354 84.7695C575.333 81.9766 577.589 79.9785 580.554 79.9785ZM580.554 82.3203C579.028 82.3203 577.933 83.2227 577.954 84.7695C577.933 86.2734 579.028 87.2402 580.554 87.2188C582.036 87.2402 583.11 86.2734 583.11 84.7695C583.11 83.2227 582.036 82.3203 580.554 82.3203ZM584.894 90.7852C589.04 90.7852 591.618 92.2031 591.64 94.6309C591.618 97.0586 589.04 98.4766 584.894 98.4766C580.769 98.4766 578.169 97.0586 578.169 94.6309C578.169 92.2031 580.769 90.7852 584.894 90.7852ZM584.894 92.8691C582.294 92.8691 580.854 93.4492 580.854 94.6309C580.854 95.7695 582.294 96.3496 584.894 96.3496C587.536 96.3496 588.954 95.7695 588.954 94.6309C588.954 93.4492 587.536 92.8691 584.894 92.8691ZM585.603 83.6738C585.667 84.0176 585.71 84.3936 585.71 84.7695C585.71 85.1455 585.667 85.5 585.603 85.8438H588.847V83.6738H585.603ZM599.503 80.3008C602.146 80.3008 604.111 82.4814 604.509 85.9941H607.903V78.9258H610.61V98.5195H607.903V88.1855H604.53C604.24 91.9453 602.231 94.2441 599.503 94.2441C596.538 94.2441 594.411 91.5586 594.433 87.2617C594.411 83.0078 596.538 80.3008 599.503 80.3008ZM599.503 82.7715C598.042 82.7715 597.032 84.3613 597.054 87.2617C597.032 90.1836 598.042 91.752 599.503 91.752C600.985 91.752 601.952 90.1836 601.952 87.2617C601.952 84.3613 600.985 82.7715 599.503 82.7715ZM628.571 80.4512C628.571 82.75 630.913 85.3066 635.403 85.8652L634.329 88.0781C630.913 87.584 628.41 86.0049 627.132 83.8887C625.843 86.0049 623.361 87.584 619.978 88.0781L618.882 85.8652C623.329 85.3066 625.692 82.75 625.692 80.4512V79.5059H628.571V80.4512ZM636.026 89.5605V91.7949H628.421V98.4766H625.714V91.7949H618.194V89.5605H636.026ZM642.665 79.7637C645.168 79.7422 647.155 81.1709 647.692 83.2656H650.958V78.9258H653.687V89.4316H650.958V85.457H647.714C647.198 87.6055 645.189 89.0664 642.665 89.0664C639.657 89.0664 637.444 87.1113 637.466 84.3828C637.444 81.6973 639.657 79.7422 642.665 79.7637ZM642.665 82.041C641.14 82.0195 640.044 82.9219 640.065 84.3828C640.044 85.8438 641.14 86.7676 642.665 86.7676C644.147 86.7676 645.222 85.8438 645.222 84.3828C645.222 82.9219 644.147 82.0195 642.665 82.041ZM643.353 90.291V92.1816H650.958V90.291H653.687V98.2617H640.646V90.291H643.353ZM643.353 96.0488H650.958V94.2871H643.353V96.0488Z" fill="url(#paint0_linear_462_1165)"/>
</g>
<defs>
<filter id="filter0_d_462_1165" x="0" y="0" width="908" height="198" filterUnits="userSpaceOnUse" color-interpolation-filters="sRGB">
<feFlood flood-opacity="0" result="BackgroundImageFix"/>
<feColorMatrix in="SourceAlpha" type="matrix" values="0 0 0 0 0 0 0 0 0 0 0 0 0 0 0 0 0 0 127 0" result="hardAlpha"/>
<feOffset dy="10"/>
<feGaussianBlur stdDeviation="25"/>
<feComposite in2="hardAlpha" operator="out"/>
<feColorMatrix type="matrix" values="0 0 0 0 0.192157 0 0 0 0 0.509804 0 0 0 0 0.964706 0 0 0 0.25 0"/>
<feBlend mode="normal" in2="BackgroundImageFix" result="effect1_dropShadow_462_1165"/>
<feBlend mode="normal" in="SourceGraphic" in2="effect1_dropShadow_462_1165" result="shape"/>
</filter>
<linearGradient id="paint0_linear_462_1165" x1="305.805" y1="89" x2="694.999" y2="89" gradientUnits="userSpaceOnUse">
<stop stop-color="#3182F6"/>
<stop offset="1" stop-color="#A009FF"/>
</linearGradient>
</defs>
</svg>
