<svg width="1072" height="197" viewBox="0 0 1072 197" fill="none" xmlns="http://www.w3.org/2000/svg">
<rect x="0.5" y="0.5" width="1071" height="196" rx="14.5" fill="white" stroke="url(#paint0_linear_469_1793)"/>
<path d="M426 33L426 165" stroke="#F2F2F7" stroke-width="2"/>
<path d="M82.3516 114.922V130.391H79.7266V114.922H82.3516ZM82.9375 133.555V135.664H68.3359V128.914H70.9609V133.555H82.9375ZM72.6016 118.156C72.6016 121.109 74.3359 123.898 77.6875 125.023L76.3516 127.086C73.9375 126.242 72.2148 124.555 71.2891 122.398C70.3281 124.707 68.582 126.559 66.0859 127.461L64.7266 125.398C68.1719 124.18 69.9062 121.203 69.9062 118.156V116.094H72.6016V118.156ZM104.758 125.305V127.414H85.4453V125.305H93.7891V122.352H96.3672V125.305H104.758ZM96.3906 116.047C96.3906 118.625 99.2266 120.969 103.656 121.531L102.648 123.57C99.168 123.031 96.4023 121.461 95.0547 119.234C93.6953 121.461 90.9297 123.031 87.4375 123.57L86.5 121.531C90.8594 120.969 93.7422 118.578 93.7422 116.047V115.25H96.3906V116.047ZM102.391 129.102V136.086H99.7891V131.141H87.5781V129.102H102.391ZM122.898 114.922V121.578H125.852V123.734H122.898V130.742H120.297V114.922H122.898ZM118.773 117.266V119.352H106.211V117.266H111.203V114.898H113.805V117.266H118.773ZM112.492 120.219C115.539 120.219 117.648 121.836 117.672 124.273C117.648 126.688 115.539 128.281 112.492 128.281C109.422 128.281 107.289 126.688 107.289 124.273C107.289 121.836 109.422 120.219 112.492 120.219ZM112.492 122.234C110.875 122.234 109.82 122.984 109.82 124.273C109.82 125.539 110.875 126.289 112.492 126.266C114.109 126.289 115.188 125.539 115.188 124.273C115.188 122.984 114.109 122.234 112.492 122.234ZM123.742 133.555V135.664H109.328V129.5H111.93V133.555H123.742ZM150.32 114.898V136.086H147.695V114.898H150.32ZM145.164 116.961V119.094H143.125V128.586C144.145 128.516 145.141 128.422 146.102 128.305L146.242 130.25C141.695 130.977 136.727 131.07 132.836 131.07L132.578 128.938L135.203 128.914V119.094H133.141V116.961H145.164ZM137.711 128.844C138.648 128.832 139.609 128.797 140.57 128.75V119.094H137.711V128.844ZM170.57 124.836V126.922H155.711V116.75H170.406V118.859H158.289V124.836H170.57ZM172.727 131.234V133.391H153.367V131.234H172.727ZM177.391 116.258V119.375H180.883V116.258H183.297V126.359H174.93V116.258H177.391ZM177.391 124.297H180.883V121.391H177.391V124.297ZM192.227 114.922V127.648H189.742V122.328H187.633V127.531H185.195V115.32H187.633V120.195H189.742V114.922H192.227ZM192.227 128.727V136.086H189.625V130.836H177.719V128.727H192.227ZM217.633 115.625V121.648H205.469V123.758H218.102V125.844H202.844V119.68H214.961V117.734H202.797V115.625H217.633ZM219.883 127.648V129.734H211.469V136.109H208.867V129.734H200.523V127.648H219.883ZM240.648 131.352V133.531H221.289V131.352H240.648ZM238.961 116.867V118.953H235.867V125.703H238.891V127.766H222.953V125.703H225.93V118.953H222.883V116.867H238.961ZM228.531 125.703H233.289V118.953H228.531V125.703ZM265.422 114.898V136.086H262.797V114.898H265.422ZM259.094 117.148C259.094 123.453 256.656 128.82 249.227 132.336L247.867 130.25C253.41 127.613 255.988 124.027 256.445 119.211H248.945V117.148H259.094ZM285.18 114.922V121.039H288.133V123.195H285.18V130.508H282.578V114.922H285.18ZM286.023 133.555V135.664H271.609V128.938H274.211V133.555H286.023ZM271.773 116.422V119.656H276.719V116.422H279.297V127.062H269.195V116.422H271.773ZM271.773 125H276.719V121.672H271.773V125ZM314.242 125.375V127.461H306.062V131.352H303.414V127.461H294.883V125.375H314.242ZM312.109 133.531V135.664H297.25V129.383H299.875V133.531H312.109ZM304.539 115.367C309.109 115.367 312.133 117.031 312.133 119.703C312.133 122.375 309.109 124.016 304.539 124.016C299.969 124.016 296.945 122.375 296.945 119.703C296.945 117.031 299.969 115.367 304.539 115.367ZM304.539 117.43C301.633 117.43 299.734 118.25 299.758 119.703C299.734 121.109 301.633 121.93 304.539 121.93C307.469 121.93 309.344 121.109 309.344 119.703C309.344 118.25 307.469 117.43 304.539 117.43ZM321.531 116.094C323.242 116.094 324.719 116.727 325.727 117.781H330.789V114.898H333.391V127.367H330.789V124.672H325.727C324.719 125.727 323.23 126.348 321.531 126.336C318.344 126.359 315.93 124.203 315.93 121.227C315.93 118.227 318.344 116.094 321.531 116.094ZM321.531 118.32C319.703 118.32 318.414 119.445 318.414 121.227C318.414 122.961 319.703 124.133 321.531 124.133C323.289 124.133 324.578 122.961 324.602 121.227C324.578 119.445 323.289 118.32 321.531 118.32ZM326.219 127.812C330.672 127.812 333.461 129.336 333.461 131.938C333.461 134.539 330.672 136.062 326.219 136.062C321.789 136.062 319 134.539 319.023 131.938C319 129.336 321.789 127.812 326.219 127.812ZM326.219 129.805C323.266 129.805 321.555 130.555 321.578 131.938C321.555 133.273 323.266 134.023 326.219 134.023C329.219 134.023 330.906 133.273 330.906 131.938C330.906 130.555 329.219 129.805 326.219 129.805ZM326.898 119.867C327.016 120.301 327.086 120.746 327.086 121.227C327.086 121.695 327.016 122.141 326.922 122.562H330.789V119.867H326.898Z" fill="url(#paint1_linear_469_1793)"/>
<path d="M76.4297 72.5703C76.4297 76.4023 78.7852 80.3047 84.0586 81.8867L81.7734 85.4023C78.1875 84.2773 75.6562 81.9746 74.2148 79.0742C72.7559 82.2207 70.1543 84.752 66.4102 86L64.0898 82.4844C69.3984 80.7617 71.8594 76.6133 71.8594 72.5703V72.1133H65.2852V68.5273H82.8633V72.1133H76.4297V72.5703ZM90.7383 66.2773V89.4102H86.2383V66.2773H90.7383ZM91.582 94.0859V97.6719H69.293V87.3008H73.8281V94.0859H91.582ZM120.656 66.2422V79.25H124.84V82.9766H120.656V98.2344H116.121V66.2422H120.656ZM94.6758 89.1992C97.0137 89.1992 99.7383 89.1992 102.586 89.1289V86.3867C99.1758 85.7188 96.9609 83.5566 96.9961 80.5859C96.9609 77 100.195 74.5742 104.871 74.5742C109.441 74.5742 112.711 77 112.746 80.5859C112.711 83.5566 110.461 85.7363 107.086 86.3867V88.9531C109.617 88.8301 112.166 88.6191 114.539 88.2852L114.82 91.5547C108 92.8203 100.688 92.8555 95.2734 92.8555L94.6758 89.1992ZM114.293 69.793V73.3086H95.3086V69.793H102.586V66.418H107.086V69.793H114.293ZM104.871 77.9844C102.691 77.9844 101.215 78.9336 101.25 80.5859C101.215 82.2734 102.691 83.1875 104.871 83.1875C106.98 83.1875 108.422 82.2734 108.422 80.5859C108.422 78.9336 106.98 77.9844 104.871 77.9844ZM151.418 66.2422V78.7578H156.129V82.4492H151.418V98.2344H146.988V66.2422H151.418ZM144.809 71.0234V74.6094H126V71.0234H133.242V66.7344H137.742V71.0234H144.809ZM135.492 76.4023C140.168 76.4023 143.648 79.5664 143.648 84.0312C143.648 88.4961 140.168 91.6602 135.492 91.6602C130.781 91.6602 127.301 88.4961 127.301 84.0312C127.301 79.5664 130.781 76.4023 135.492 76.4023ZM135.492 80.0234C133.242 80.0586 131.59 81.5703 131.59 84.0312C131.59 86.5273 133.242 88.0039 135.492 87.9688C137.742 88.0039 139.359 86.5273 139.359 84.0312C139.359 81.5703 137.742 80.0586 135.492 80.0234ZM183.27 74.9609V78.4766H160.91V67.3672H165.375V74.9609H183.27ZM186.539 81.9219V85.4375H157.254V81.9219H186.539ZM183.48 93.9453V97.5312H160.629V88.0391H165.129V93.9453H183.48ZM213.117 69.3008C213.082 79.1445 210.445 87.4062 198.914 93.3828L196.453 90.0078C201.516 87.3359 204.662 84.3652 206.508 80.832L197.227 81.6758L196.629 77.8789L207.914 77.2109C208.283 75.8574 208.512 74.416 208.652 72.8867H198.352V69.3008H213.117ZM223.664 66.2422V98.2344H219.199V82.2031H213.047V78.5469H219.199V66.2422H223.664ZM254.637 66.2422V98.3047H250.172V66.2422H254.637ZM244.723 68.9141V81.2539H234.176V87.125C239.045 87.1074 243.193 86.8262 247.887 86.0703L248.273 89.6914C243 90.6055 238.254 90.8164 232.418 90.8164H229.535V77.7031H240.152V72.5352H229.5V68.9141H244.723ZM284.73 67.1914V70.0039C284.73 72.4648 284.73 75.0664 284.133 78.2656H288.035V81.7812H280.863V84.0312H284.871V92.5039H266.66V94.4375H285.996V97.8828H262.195V89.3047H280.406V87.4414H262.16V84.0312H266.027V81.7812H258.996V78.2656H279.633C279.791 77.334 279.932 76.4551 280.02 75.6289L262.125 76.4023L261.633 72.8867L280.266 72.5V70.707H262.512V67.1914H284.73ZM270.527 84.0312H276.398V81.7812H270.527V84.0312ZM317.004 86.457V97.8828H295.383V86.457H317.004ZM299.848 89.9023V94.2969H312.574V89.9023H299.848ZM317.004 66.2773V85.0508H312.539V76.5078H307.371V72.8867H312.539V66.2773H317.004ZM305.754 67.7188V77.5273H295.734V80.5508C300.586 80.5156 304.066 80.3574 308.074 79.707L308.391 83.3281C303.82 84.1016 299.812 84.207 293.906 84.1719H291.305V74.1523H301.359V71.3398H291.234V67.7188H305.754Z" fill="black"/>
<path d="M548.922 54.3672C547.828 54.3672 546.93 53.4688 546.93 52.3555C546.93 51.2617 547.828 50.3633 548.922 50.3633C550.035 50.3633 550.934 51.2617 550.934 52.3555C550.934 53.4688 550.035 54.3672 548.922 54.3672ZM578.277 42.2188V46.75H580.895V48.0195H578.277V52.6484H576.754V42.2188H578.277ZM573.551 43.5078C573.551 47.9219 570.426 51.1836 565.367 52.668L564.723 51.418C568.912 50.207 571.588 47.7949 571.91 44.7773H565.484V43.5078H573.551ZM572.789 52.8438C576.285 52.8438 578.473 54.1133 578.473 56.1836C578.473 58.293 576.285 59.543 572.789 59.543C569.332 59.543 567.086 58.293 567.105 56.1836C567.086 54.1133 569.332 52.8438 572.789 52.8438ZM572.789 54.0742C570.25 54.0547 568.609 54.875 568.629 56.1836C568.609 57.4922 570.25 58.3125 572.789 58.3125C575.348 58.3125 576.988 57.4922 576.988 56.1836C576.988 54.875 575.348 54.0547 572.789 54.0742ZM587.809 46.8867C587.809 49.9531 589.84 53.0977 592.301 54.3086L591.363 55.5391C589.449 54.5332 587.848 52.4824 587.086 50.0703C586.305 52.6387 584.664 54.8262 582.711 55.8711L581.734 54.6406C584.273 53.3906 586.285 50.0508 586.305 46.8867V43.7227H587.809V46.8867ZM595.426 42.2188V49.2695H598.336V50.5977H595.426V59.582H593.902V42.2188H595.426ZM608.141 50.168V51.7109H598.414V50.168H608.141ZM623.004 42.2188V59.6211H621.461V42.2188H623.004ZM618.082 43.8789V45.168H611.363V53.9766C614.742 53.9766 616.969 53.8691 619.566 53.4102L619.723 54.6992C617.027 55.1875 614.742 55.2852 611.227 55.3047H609.82V43.8789H618.082ZM640.719 53.918V59.582H639.215V55.1484H629.02V53.918H640.719ZM632.926 43.5469V48.3711H628.258V50.9883C630.533 50.9785 632.232 50.8711 634.293 50.4414L634.469 51.7109C632.242 52.1211 630.406 52.2383 627.887 52.2188H626.773V47.2188H631.461V44.7969H626.734V43.5469H632.926ZM640.719 42.2383V53.0391H639.254V42.2383H640.719ZM637.281 42.5703V52.9219H635.816V47.9609H633.609V46.6914H635.816V42.5703H637.281ZM657.652 42.2188V59.6211H656.129V50.0508H652.457V48.7812H656.129V42.2188H657.652ZM652.164 43.8203V45.0898H645.602V48.7031H651.402V49.9531H645.602V54.1523C648.795 54.1523 650.826 54.0449 653.219 53.625L653.395 54.8945C650.875 55.3047 648.746 55.4219 645.387 55.4219H644.059V43.8203H652.164ZM669.41 50.168V51.7109H659.684V50.168H669.41ZM673.59 42.9219V45.1289H682.184V42.9219H683.707V49.8555H678.629V51.7109H685.777V52.9805H669.957V51.7109H677.105V49.8555H672.066V42.9219H673.59ZM673.59 48.625H682.184V46.3398H673.59V48.625ZM684.02 57.9219V59.2109H672.008V54.3672H673.551V57.9219H684.02ZM693.062 46.8867C693.062 49.9531 695.094 53.0977 697.555 54.3086L696.617 55.5391C694.703 54.5332 693.102 52.4824 692.34 50.0703C691.559 52.6387 689.918 54.8262 687.965 55.8711L686.988 54.6406C689.527 53.3906 691.539 50.0508 691.559 46.8867V43.7227H693.062V46.8867ZM700.68 42.2188V49.2695H703.59V50.5977H700.68V59.582H699.156V42.2188H700.68ZM723.121 42.2188V47.5117H725.738V48.8008H723.121V54.9336H721.578V42.2188H723.121ZM718.434 43.5664C718.434 48.0391 715.23 51.3594 710.23 52.9219L709.566 51.6914C713.727 50.3926 716.441 47.9121 716.773 44.8555H710.289V43.5664H718.434ZM723.922 57.9219V59.2109H712.242V53.6445H713.766V57.9219H723.922ZM747.73 52.1211V53.3906H743.531V59.582H741.988V53.3906H737.535V59.582H735.953V53.3906H731.832V52.1211H747.73ZM739.742 42.9219C743.395 42.9219 745.855 44.3867 745.855 46.7109C745.855 49.0156 743.395 50.4805 739.742 50.4609C736.09 50.4805 733.629 49.0156 733.629 46.7109C733.629 44.3867 736.09 42.9219 739.742 42.9219ZM739.742 44.1719C737.027 44.1719 735.191 45.168 735.211 46.7109C735.191 48.2539 737.027 49.2305 739.742 49.2305C742.438 49.2305 744.293 48.2539 744.293 46.7109C744.293 45.168 742.438 44.1719 739.742 44.1719ZM763.492 42.2188V59.582H761.949V42.2188H763.492ZM758.355 44.1133C758.336 49.1133 756.012 53.5273 750.191 56.3203L749.352 55.0703C754.049 52.8438 756.441 49.5137 756.793 45.3633H750.152V44.1133H758.355ZM772.457 45.4219C772.457 47.6875 774.195 49.8359 776.734 50.7148L775.934 51.9258C773.971 51.2227 772.457 49.7676 771.715 47.9805C770.963 49.9824 769.361 51.584 767.301 52.3359L766.5 51.125C769.059 50.207 770.914 47.8828 770.914 45.4414V44.6797H766.988V43.4297H776.344V44.6797H772.457V45.4219ZM780.816 53.5469V59.582H779.273V54.8164H769.137V53.5469H780.816ZM780.816 42.2188V52.6289H779.273V48.0586H775.797V46.7695H779.273V42.2188H780.816ZM803.082 42.2188V59.582H801.539V42.2188H803.082ZM799.078 44.1133V45.3828H797.105V53.7422C798.082 53.6738 799.049 53.5859 799.977 53.4688L800.074 54.6211C796.285 55.207 792.105 55.2656 788.883 55.2852L788.707 53.9766L791.109 53.957V45.3828H789.156V44.1133H799.078ZM792.613 53.9375C793.59 53.918 794.596 53.8789 795.602 53.8203V45.3828H792.613V53.9375ZM820.035 50.5781V51.8477H808.043V43.8398H819.859V45.1094H809.566V50.5781H820.035ZM821.91 55.9297V57.2188H806.012V55.9297H821.91ZM825.543 43.332V46.0859H829.41V43.332H830.855V51.418H824.098V43.332H825.543ZM825.543 50.1484H829.41V47.3164H825.543V50.1484ZM838.043 42.2383V52.6484H836.578V48.0195H834.273V52.5508H832.828V42.5703H834.273V46.75H836.578V42.2383H838.043ZM838.043 53.7031V59.582H836.539V54.9727H826.344V53.7031H838.043ZM859.547 42.9219V47.4336H849.078V49.6797H859.918V50.9492H847.535V46.2227H857.984V44.1719H847.496V42.9219H859.547ZM861.48 52.7852V54.0156H854.254V59.6211H852.73V54.0156H845.582V52.7852H861.48ZM878.785 56.0469V57.3555H862.887V56.0469H878.785ZM877.262 43.9766V45.2461H874.508V51.3203H877.223V52.5703H864.332V51.3203H867.047V45.2461H864.293V43.9766H877.262ZM868.57 51.3203H873.004V45.2461H868.57V51.3203ZM548.922 86.3672C547.828 86.3672 546.93 85.4688 546.93 84.3555C546.93 83.2617 547.828 82.3633 548.922 82.3633C550.035 82.3633 550.934 83.2617 550.934 84.3555C550.934 85.4688 550.035 86.3672 548.922 86.3672ZM573.277 79.4141C573.121 78.0273 571.852 77.2266 570.152 77.2266C568.277 77.2266 567.047 78.2031 567.047 79.5508C567.047 81.0352 568.707 81.582 569.781 81.8555L571.188 82.2461C572.711 82.6367 575.191 83.5156 575.191 86.1523C575.191 88.457 573.336 90.2539 570.055 90.2539C567.008 90.2539 565.113 88.6719 564.957 86.3281H566.754C566.91 87.9102 568.375 88.6523 570.055 88.6523C572.008 88.6523 573.473 87.6562 573.473 86.1133C573.473 84.7461 572.164 84.2188 570.68 83.7891L568.941 83.3203C566.715 82.6758 565.348 81.543 565.348 79.6289C565.348 77.2461 567.477 75.6641 570.211 75.6641C572.945 75.6641 574.918 77.2656 574.996 79.4141H573.277ZM577.711 90V75.8594H582.516C585.836 75.8594 587.34 77.6953 587.34 80.2148C587.34 82.0801 586.5 83.5547 584.703 84.1797L587.887 90H585.836L582.887 84.4922L582.535 84.5117H579.469V90H577.711ZM579.469 82.9102H582.457C584.703 82.9102 585.602 81.8945 585.602 80.2148C585.602 78.5156 584.703 77.4219 582.438 77.4219H579.469V82.9102ZM594.703 75.1953L590.133 92.1289H588.609L593.16 75.1953H594.703ZM597.184 90H595.348L600.523 75.8594H602.379L607.555 90H605.699L604.293 86.0156H598.609L597.184 90ZM599.137 84.4727H603.746L601.5 78.1445H601.383L599.137 84.4727ZM609.469 90V75.8594H614.273C617.594 75.8594 619.098 77.6953 619.098 80.2148C619.098 82.0801 618.258 83.5547 616.461 84.1797L619.645 90H617.594L614.645 84.4922L614.293 84.5117H611.227V90H609.469ZM611.227 82.9102H614.215C616.461 82.9102 617.359 81.8945 617.359 80.2148C617.359 78.5156 616.461 77.4219 614.195 77.4219H611.227V82.9102ZM641.637 82.4805V83.7695H625.797V82.4805H641.637ZM639.781 79.5703V80.8203H627.809V74.9219H639.664V76.2109H629.312V79.5703H639.781ZM633.707 85.293C637.438 85.293 639.664 86.4258 639.684 88.418C639.664 90.4297 637.438 91.543 633.707 91.543C629.957 91.543 627.711 90.4297 627.711 88.418C627.711 86.4258 629.957 85.293 633.707 85.293ZM633.707 86.4844C630.914 86.5039 629.254 87.207 629.273 88.418C629.254 89.6484 630.914 90.332 633.707 90.332C636.461 90.332 638.141 89.6484 638.141 88.418C638.141 87.207 636.461 86.5039 633.707 86.4844ZM662.496 74.2188V84.5703H660.953V80.0195H657.457V78.75H660.953V74.2188H662.496ZM656.734 85.1172C660.348 85.1172 662.555 86.2891 662.555 88.3398C662.555 90.3906 660.348 91.5625 656.734 91.582C653.121 91.5625 650.914 90.3906 650.914 88.3398C650.914 86.2891 653.121 85.1172 656.734 85.1172ZM656.734 86.3086C654.078 86.3086 652.418 87.0703 652.438 88.3398C652.418 89.5898 654.078 90.3516 656.734 90.3516C659.391 90.3516 661.031 89.5898 661.031 88.3398C661.031 87.0703 659.391 86.3086 656.734 86.3086ZM654.137 77.4023C654.137 79.668 655.875 81.8164 658.414 82.6953L657.613 83.9258C655.66 83.2227 654.146 81.7676 653.414 79.9609C652.652 82.002 651.041 83.6328 648.98 84.4141L648.18 83.1836C650.758 82.2461 652.594 79.9023 652.594 77.4219V76.7773H648.668V75.4883H658.023V76.7773H654.137V77.4023ZM681.598 76.9531V78.2422H678.961V80.6055H681.598V81.9141H678.961V84.7461H677.438V74.2383H678.961V76.9531H681.598ZM674 75.3125V80H667.672V82.4219C670.758 82.4219 672.994 82.3145 675.699 81.8555L675.855 83.1445C673.062 83.6133 670.738 83.7109 667.516 83.7109H666.168V78.7891H672.496V76.582H666.129V75.3125H674ZM673.395 85.2539C676.93 85.2539 679.117 86.4258 679.117 88.418C679.117 90.4102 676.93 91.543 673.395 91.543C669.801 91.543 667.633 90.4102 667.633 88.418C667.633 86.4258 669.801 85.2539 673.395 85.2539ZM673.395 86.4648C670.738 86.4648 669.117 87.1875 669.137 88.418C669.117 89.6289 670.738 90.3516 673.395 90.3516C676.031 90.3516 677.633 89.6289 677.633 88.418C677.633 87.1875 676.031 86.4648 673.395 86.4648ZM684.508 85.0781C683.824 85.0781 683.238 84.5117 683.258 83.8086C683.238 83.125 683.824 82.5586 684.508 82.5586C685.191 82.5586 685.758 83.125 685.758 83.8086C685.758 84.5117 685.191 85.0781 684.508 85.0781ZM702.145 74.2188V84.5703H700.602V80.0195H697.105V78.75H700.602V74.2188H702.145ZM696.383 85.1172C699.996 85.1172 702.203 86.2891 702.203 88.3398C702.203 90.3906 699.996 91.5625 696.383 91.582C692.77 91.5625 690.562 90.3906 690.562 88.3398C690.562 86.2891 692.77 85.1172 696.383 85.1172ZM696.383 86.3086C693.727 86.3086 692.066 87.0703 692.086 88.3398C692.066 89.5898 693.727 90.3516 696.383 90.3516C699.039 90.3516 700.68 89.5898 700.68 88.3398C700.68 87.0703 699.039 86.3086 696.383 86.3086ZM693.785 77.4023C693.785 79.668 695.523 81.8164 698.062 82.6953L697.262 83.9258C695.309 83.2227 693.795 81.7676 693.062 79.9609C692.301 82.002 690.689 83.6328 688.629 84.4141L687.828 83.1836C690.406 82.2461 692.242 79.9023 692.242 77.4219V76.7773H688.316V75.4883H697.672V76.7773H693.785V77.4023ZM711.012 76.9531C710.992 79.4336 712.75 81.6211 715.309 82.4805L714.449 83.6719C712.535 82.9492 711.031 81.543 710.289 79.707C709.537 81.7871 707.945 83.4082 705.855 84.1992L705.016 82.9492C707.691 82.0117 709.469 79.707 709.488 77.0117V75.2148H711.012V76.9531ZM719.43 74.2188V84.5117H717.887V79.2188H714.02V77.9492H717.887V74.2188H719.43ZM713.668 85.0195C717.281 85.0195 719.488 86.2109 719.488 88.3008C719.488 90.3711 717.281 91.543 713.668 91.543C710.055 91.543 707.848 90.3711 707.848 88.3008C707.848 86.2109 710.055 85.0195 713.668 85.0195ZM713.668 86.2305C711.012 86.2305 709.352 87.0117 709.371 88.3008C709.352 89.5508 711.012 90.3125 713.668 90.3125C716.324 90.3125 717.965 89.5508 717.965 88.3008C717.965 87.0117 716.324 86.2305 713.668 86.2305ZM742.203 74.2188V91.582H740.719V74.2188H742.203ZM738.648 74.6484V90.6836H737.184V82.1484H733.395V80.8594H737.184V74.6484H738.648ZM734.566 76.3672V77.6367H729.508V86.1133C732.008 86.1035 733.59 85.9961 735.465 85.5859L735.621 86.8945C733.609 87.3047 731.91 87.3828 729.117 87.4023H728.023V76.3672H734.566ZM758.941 74.2188V91.6211H757.398V74.2188H758.941ZM749.703 75.5664C752.281 75.5859 754.137 77.9297 754.137 81.6211C754.137 85.3125 752.281 87.6562 749.703 87.6562C747.105 87.6562 745.27 85.3125 745.27 81.6211C745.27 77.9297 747.105 75.5859 749.703 75.5664ZM749.703 76.9336C747.965 76.9531 746.754 78.7891 746.754 81.6211C746.754 84.4531 747.965 86.2891 749.703 86.2891C751.441 86.2891 752.652 84.4531 752.652 81.6211C752.652 78.7891 751.441 76.9531 749.703 76.9336ZM776.305 74.2188V91.6211H774.781V82.0508H771.109V80.7812H774.781V74.2188H776.305ZM770.816 75.8203V77.0898H764.254V80.7031H770.055V81.9531H764.254V86.1523C767.447 86.1523 769.479 86.0449 771.871 85.625L772.047 86.8945C769.527 87.3047 767.398 87.4219 764.039 87.4219H762.711V75.8203H770.816ZM795.094 88.1445V89.4336H779.195V88.1445H786.344V84.8633H781.188V79.5117H791.578V76.7773H781.148V75.5078H793.082V80.7617H782.711V83.5938H793.492V84.8633H787.848V88.1445H795.094ZM811.891 76.0938V77.3438H801.539V76.0938H805.953V74.1406H807.477V76.0938H811.891ZM806.715 78.2422C809.215 78.2617 810.875 79.4727 810.895 81.3867C810.875 83.2812 809.215 84.5117 806.715 84.5117C804.215 84.5117 802.516 83.2812 802.535 81.3867C802.516 79.4727 804.215 78.2617 806.715 78.2422ZM806.715 79.4336C805.074 79.4531 803.98 80.2148 804 81.3867C803.98 82.5391 805.074 83.2812 806.715 83.2812C808.336 83.2812 809.43 82.5391 809.449 81.3867C809.43 80.2148 808.336 79.4531 806.715 79.4336ZM815.074 74.2188V79.043H817.691V80.332H815.074V85.0781H813.551V74.2188H815.074ZM815.074 86.0352V91.582H813.551V87.2852H803.707V86.0352H815.074ZM822.32 84.6484V86.6797H830.992V84.6484H832.535V91.3477H820.797V84.6484H822.32ZM822.32 90.1172H830.992V87.8906H822.32V90.1172ZM834.605 82.1484V83.418H818.785V82.1484H834.605ZM827.496 75.2344C827.496 77.3828 830.66 79.2969 833.707 79.6875L833.141 80.918C830.445 80.5176 827.809 79.1406 826.715 77.1875C825.602 79.1504 822.945 80.5176 820.27 80.918L819.684 79.6875C822.77 79.2773 825.914 77.4414 825.914 75.2344V74.4141H827.496V75.2344ZM856.969 83.418V84.668H849.898V88.0664H848.375V84.668H841.07V83.418H856.969ZM855.191 89.9219V91.2109H843.102V86.4648H844.625V89.9219H855.191ZM844.723 74.7852V77.0117H853.316V74.7852H854.84V81.7188H843.199V74.7852H844.723ZM844.723 80.4688H853.316V78.1836H844.723V80.4688ZM864.293 77.0117C864.293 79.4141 866.07 81.6211 868.59 82.4805L867.75 83.7109C865.816 82.998 864.312 81.5137 863.57 79.668C862.838 81.7188 861.275 83.3203 859.234 84.1211L858.395 82.8516C861.031 81.9141 862.77 79.6289 862.789 76.9531V75.1172H864.293V77.0117ZM872.77 85.4492V91.582H871.227V86.6797H861.09V85.4492H872.77ZM872.77 74.2188V84.4922H871.227V79.1602H867.359V77.8711H871.227V74.2188H872.77ZM548.922 118.367C547.828 118.367 546.93 117.469 546.93 116.355C546.93 115.262 547.828 114.363 548.922 114.363C550.035 114.363 550.934 115.262 550.934 116.355C550.934 117.469 550.035 118.367 548.922 118.367ZM579.703 108.914V110.184H565.484V108.914H571.852V106.551H573.355V108.914H579.703ZM580.602 120.184V121.453H564.703V120.184H580.602ZM572.613 111.336C576.109 111.316 578.316 112.605 578.316 114.754C578.316 116.883 576.109 118.172 572.613 118.172C569.078 118.172 566.891 116.883 566.91 114.754C566.891 112.605 569.078 111.316 572.613 111.336ZM572.613 112.586C570.035 112.566 568.414 113.406 568.434 114.754C568.414 116.102 570.035 116.922 572.613 116.922C575.152 116.922 576.754 116.102 576.754 114.754C576.754 113.406 575.152 112.566 572.613 112.586ZM597.867 115.184V116.453H581.969V115.184H597.867ZM595.816 106.648V110.75H585.562V112.488H596.188V113.68H584.039V109.598H594.273V107.879H583.98V106.648H595.816ZM595.816 118.035V123.348H584.137V118.035H595.816ZM585.641 119.285V122.098H594.312V119.285H585.641ZM614.156 106.219V123.582H612.672V106.219H614.156ZM610.66 106.59V122.703H609.195V114.266H606.969C606.803 117.645 605.367 119.754 603.219 119.754C600.953 119.754 599.488 117.41 599.488 113.719C599.488 110.027 600.953 107.684 603.219 107.684C605.328 107.684 606.754 109.725 606.949 112.996H609.195V106.59H610.66ZM603.219 109.129C601.812 109.129 600.914 110.887 600.934 113.719C600.914 116.531 601.812 118.309 603.219 118.289C604.625 118.309 605.523 116.531 605.523 113.719C605.523 110.887 604.625 109.129 603.219 109.129ZM635.309 106.199V113.055H637.848V114.363H635.309V123.582H633.785V106.199H635.309ZM626.52 108.055V109.324H623.629V117.723C624.488 117.703 625.543 117.625 626.695 117.371L626.852 118.66C625.211 119.012 623.902 119.031 622.867 119.031H622.105V108.055H626.52ZM632.145 108.055V109.324H629.039V117.742C630.396 117.723 631.48 117.635 632.711 117.332L632.867 118.621C631.344 118.992 630.113 119.031 628.355 119.031H627.516V108.055H632.145ZM652.301 106.219V113.133H655.211V114.422H652.301V123.621H650.777V106.219H652.301ZM647.438 107.84V114.051H641.109V118.113C644.332 118.113 646.578 118.006 649.215 117.508L649.371 118.777C646.637 119.285 644.312 119.402 640.973 119.422H639.586V112.781H645.914V109.109H639.547V107.84H647.438ZM675.582 107.02V108.27H670.074C670.074 110.291 673.033 111.883 676.109 112.215L675.543 113.445C672.701 113.084 670.035 111.795 669.078 109.832C668.131 111.795 665.475 113.084 662.633 113.445L662.066 112.215C665.123 111.863 668.062 110.291 668.082 108.27H662.613V107.02H675.582ZM677.047 114.598V115.848H661.168V114.598H677.047ZM675.035 117.664V123.582H673.492V118.914H662.926V117.664H675.035ZM684.625 110.887C684.605 114.051 686.773 117.254 689.332 118.406L688.395 119.617C686.422 118.65 684.713 116.609 683.883 114.129C683.072 116.756 681.363 118.943 679.332 119.969L678.355 118.68C680.934 117.488 683.082 114.188 683.102 110.887V107.723H684.625V110.887ZM692.77 106.219V123.621H691.227V106.219H692.77ZM715.582 106.219V123.582H714.078V114.5H711.676V122.723H710.211V106.688H711.676V113.23H714.078V106.219H715.582ZM708.238 108.484C708.219 112.898 706.676 117.078 701.676 119.852L700.777 118.777C704.811 116.531 706.48 113.348 706.734 109.754H701.441V108.484H708.238ZM732.379 106.219V115.535H730.855V106.219H732.379ZM722.652 116.414V118.523H730.855V116.414H732.379V123.348H721.129V116.414H722.652ZM722.652 122.098H730.855V119.754H722.652V122.098ZM723.004 107.078C725.641 107.059 727.555 108.68 727.555 111.062C727.555 113.426 725.641 115.047 723.004 115.047C720.367 115.047 718.453 113.426 718.453 111.062C718.453 108.68 720.367 107.059 723.004 107.078ZM723.004 108.367C721.227 108.348 719.938 109.48 719.957 111.062C719.938 112.645 721.227 113.777 723.004 113.777C724.762 113.777 726.051 112.645 726.051 111.062C726.051 109.48 724.762 108.348 723.004 108.367ZM737.164 117.078C736.48 117.078 735.895 116.512 735.914 115.809C735.895 115.125 736.48 114.559 737.164 114.559C737.848 114.559 738.414 115.125 738.414 115.809C738.414 116.512 737.848 117.078 737.164 117.078ZM756.305 120.066V121.355H740.406V120.066H747.574V115.848H749.117V120.066H756.305ZM749.117 109.52C749.117 112.293 752.555 114.676 755.543 115.164L754.918 116.375C752.262 115.857 749.459 114.168 748.355 111.746C747.232 114.178 744.439 115.906 741.832 116.453L741.188 115.223C744.117 114.715 747.535 112.293 747.535 109.52V109.09H741.715V107.801H754.938V109.09H749.117V109.52ZM772.086 106.219V116.57H770.543V112.02H767.047V110.75H770.543V106.219H772.086ZM766.324 117.117C769.938 117.117 772.145 118.289 772.145 120.34C772.145 122.391 769.938 123.562 766.324 123.582C762.711 123.562 760.504 122.391 760.504 120.34C760.504 118.289 762.711 117.117 766.324 117.117ZM766.324 118.309C763.668 118.309 762.008 119.07 762.027 120.34C762.008 121.59 763.668 122.352 766.324 122.352C768.98 122.352 770.621 121.59 770.621 120.34C770.621 119.07 768.98 118.309 766.324 118.309ZM763.727 109.402C763.727 111.668 765.465 113.816 768.004 114.695L767.203 115.926C765.25 115.223 763.736 113.768 763.004 111.961C762.242 114.002 760.631 115.633 758.57 116.414L757.77 115.184C760.348 114.246 762.184 111.902 762.184 109.422V108.777H758.258V107.488H767.613V108.777H763.727V109.402ZM785.328 113.719V114.988H781.52V118.406C783.219 118.338 784.928 118.221 786.539 118.035L786.656 119.188C782.809 119.754 778.609 119.812 775.289 119.812L775.074 118.523C776.588 118.523 778.268 118.514 779.996 118.465V114.988H776.402V107.879H785.25V109.129H777.906V113.719H785.328ZM789.215 106.219V123.621H787.691V106.219H789.215ZM806.305 111.492V112.723H794.41V106.863H795.934V111.492H806.305ZM808.141 115.086V116.336H792.242V115.086H808.141ZM806.402 121.883V123.152H794.312V118.113H795.836V121.883H806.402ZM823.395 108.035C823.375 113.055 821.598 117.645 815.465 120.711L814.586 119.539C817.779 117.938 819.752 115.936 820.836 113.582L814.918 114.148L814.645 112.82L821.305 112.371C821.617 111.404 821.803 110.379 821.871 109.305H815.523V108.035H823.395ZM828.941 106.219V123.582H827.418V114.48H823.336V113.211H827.418V106.219H828.941ZM846.188 106.219V123.621H844.664V106.219H846.188ZM840.914 107.84V114.012H834.43V118.113C837.311 118.113 839.879 117.986 842.984 117.488L843.141 118.777C839.938 119.285 837.301 119.402 834.312 119.402H832.867V112.762H839.371V109.109H832.828V107.84H840.914ZM862.945 106.98V108.289C862.945 109.588 862.945 111.141 862.535 113.152H864.957V114.402H860.699V116.277H863.082V120.301H852.574V122.117H863.688V123.348H851.051V119.148H861.559V117.469H851.012V116.277H853.395V114.402H849.156V113.152H860.992C861.158 112.352 861.266 111.629 861.324 110.965L850.934 111.453L850.738 110.184L861.402 109.852C861.422 109.305 861.422 108.787 861.422 108.289V108.211H851.148V106.98H862.945ZM854.918 116.277H859.176V114.402H854.918V116.277ZM880.816 117.41V123.348H869.391V117.41H880.816ZM870.914 118.602V122.098H879.293V118.602H870.914ZM880.816 106.238V116.434H879.273V111.414H875.973V110.145H879.273V106.238H880.816ZM874.859 107.117V111.922H868.688V114.441C871.549 114.451 873.697 114.354 876.305 113.934L876.441 115.223C873.707 115.652 871.48 115.73 868.473 115.711H867.164V110.73H873.375V108.387H867.125V107.117H874.859ZM548.922 150.367C547.828 150.367 546.93 149.469 546.93 148.355C546.93 147.262 547.828 146.363 548.922 146.363C550.035 146.363 550.934 147.262 550.934 148.355C550.934 149.469 550.035 150.367 548.922 150.367ZM573.355 143.395V145.445H580.582V146.715H564.684V145.445H571.852V143.395H573.355ZM579.117 138.766V139.977H573.629C573.756 141.754 576.666 143.053 579.684 143.297L579.176 144.449C576.285 144.176 573.561 143.053 572.633 141.227C571.686 143.053 568.961 144.176 566.051 144.449L565.543 143.297C568.541 143.053 571.451 141.754 571.617 139.977H566.148V138.766H579.117ZM579.078 149.02V150.23H566.188V149.02H571.852V147.379H573.375V149.02H579.078ZM572.613 151.09C575.953 151.09 577.867 151.871 577.867 153.375C577.867 154.898 575.953 155.68 572.613 155.68C569.234 155.68 567.379 154.898 567.379 153.375C567.379 151.871 569.234 151.09 572.613 151.09ZM572.613 152.164C570.27 152.184 568.922 152.574 568.922 153.375C568.922 154.176 570.27 154.625 572.613 154.605C574.977 154.625 576.285 154.176 576.305 153.375C576.285 152.574 574.977 152.184 572.613 152.164ZM597.809 147.379V148.629H581.988V147.379H597.809ZM596.051 153.922V155.211H584.039V150.152H585.582V153.922H596.051ZM589.898 138.844C593.629 138.824 596.031 140.113 596.031 142.281C596.031 144.449 593.629 145.738 589.898 145.738C586.129 145.738 583.746 144.449 583.746 142.281C583.746 140.113 586.129 138.824 589.898 138.844ZM589.898 140.074C587.105 140.074 585.309 140.914 585.328 142.281C585.309 143.648 587.105 144.488 589.898 144.488C592.672 144.488 594.469 143.648 594.469 142.281C594.469 140.914 592.672 140.074 589.898 140.074ZM618.238 139.977V141.91C618.238 144.137 618.238 146.383 617.613 149.605L616.109 149.43C616.734 146.363 616.734 144.078 616.734 141.91V141.246H605.953V139.977H618.238ZM620.113 151.852V153.121H604.293V151.852H608.219V146.129H609.742V151.852H612.555V146.129H614.059V151.852H620.113ZM637.398 146.598V147.848H633.18V150.055H635.445V155.582H633.902V151.285H623.336V150.055H625.777V147.848H621.578V146.598H637.398ZM629.488 138.648C633.258 138.629 635.621 139.879 635.621 141.949C635.621 144.039 633.258 145.289 629.488 145.27C625.719 145.289 623.336 144.039 623.336 141.949C623.336 139.879 625.719 138.629 629.488 138.648ZM629.488 139.879C626.676 139.859 624.898 140.66 624.918 141.949C624.898 143.277 626.676 144.078 629.488 144.078C632.262 144.078 634.059 143.277 634.059 141.949C634.059 140.66 632.262 139.859 629.488 139.879ZM627.32 150.055H631.676V147.848H627.32V150.055ZM646.773 138.531C650.641 138.531 652.906 139.586 652.906 141.52C652.906 143.492 650.641 144.547 646.773 144.566C642.906 144.547 640.621 143.492 640.621 141.52C640.621 139.586 642.906 138.531 646.773 138.531ZM646.773 139.684C643.883 139.684 642.203 140.387 642.223 141.52C642.203 142.73 643.883 143.395 646.773 143.395C649.645 143.395 651.344 142.73 651.344 141.52C651.344 140.387 649.645 139.684 646.773 139.684ZM654.684 145.738V146.988H638.863V145.738H654.684ZM652.652 148.492V152.379H642.34V154.176H653.18V155.387H640.816V151.246H651.148V149.664H640.777V148.492H652.652ZM666.891 139.078C669.488 139.059 671.344 140.484 671.344 142.613C671.344 144.723 669.488 146.188 666.891 146.168C664.293 146.188 662.438 144.723 662.438 142.613C662.438 140.484 664.293 139.059 666.891 139.078ZM666.891 140.328C665.152 140.309 663.922 141.266 663.941 142.613C663.922 143.98 665.152 144.918 666.891 144.898C668.648 144.918 669.879 143.98 669.879 142.613C669.879 141.266 668.648 140.309 666.891 140.328ZM675.484 138.238V155.602H673.98V138.238H675.484ZM661.129 147.652C664.391 147.652 668.844 147.594 672.711 147.027L672.809 148.18C671.148 148.482 669.42 148.668 667.75 148.766V155.055H666.227V148.863C664.459 148.941 662.789 148.951 661.344 148.961L661.129 147.652ZM687.125 141.227V142.477H678.414V141.227H682.027V138.746H683.551V141.227H687.125ZM682.77 143.648C684.957 143.648 686.52 145.289 686.539 147.594C686.52 149.918 684.957 151.578 682.77 151.578C680.602 151.578 679.039 149.918 679.039 147.594C679.039 145.289 680.602 143.648 682.77 143.648ZM682.77 144.938C681.402 144.957 680.406 146.07 680.406 147.594C680.406 149.137 681.402 150.25 682.77 150.23C684.156 150.25 685.172 149.137 685.172 147.594C685.172 146.07 684.156 144.957 682.77 144.938ZM693.238 138.219V155.582H691.773V146.812H689.469V154.723H688.023V138.648H689.469V145.543H691.773V138.219H693.238ZM716.637 145.23V146.48H700.758V145.23H705.699C706.256 143.033 706.363 141.393 706.402 140.309H702.242V139.059H707.906V139.664C707.887 140.66 707.887 142.604 707.262 145.23H712.574C713.072 143.033 713.15 141.412 713.18 140.309H709.078V139.059H714.664V139.781C714.664 140.855 714.664 142.691 714.117 145.23H716.637ZM715.543 148.922V150.113H707.672V148.922H710.875V147.418H712.398V148.922H715.543ZM711.656 150.836C713.434 150.836 714.703 151.754 714.703 153.219C714.703 154.684 713.434 155.562 711.656 155.582C709.879 155.562 708.57 154.684 708.57 153.219C708.57 151.754 709.879 150.836 711.656 150.836ZM711.656 151.93C710.602 151.949 709.898 152.418 709.918 153.219C709.898 153.98 710.602 154.469 711.656 154.449C712.672 154.469 713.375 153.98 713.375 153.219C713.375 152.418 712.672 151.949 711.656 151.93ZM704.137 148.746V153.844C705.143 153.814 706.48 153.697 707.867 153.316L708.062 154.586C706.207 155.055 704.625 155.113 703.473 155.113H702.633V148.746H704.137ZM732.379 138.238V148.16H730.855V138.238H732.379ZM732.379 149.098V155.348H721.09V149.098H732.379ZM722.594 150.348V154.098H730.875V150.348H722.594ZM723.004 139.156C725.641 139.156 727.555 140.797 727.555 143.219C727.555 145.602 725.641 147.262 723.004 147.262C720.367 147.262 718.453 145.602 718.453 143.219C718.453 140.797 720.367 139.156 723.004 139.156ZM723.004 140.465C721.227 140.445 719.938 141.598 719.957 143.219C719.938 144.82 721.227 145.953 723.004 145.953C724.762 145.953 726.051 144.82 726.051 143.219C726.051 141.598 724.762 140.445 723.004 140.465ZM738.785 148.414V150.582H741.949V148.414H743.375V155.348H737.34V148.414H738.785ZM738.785 154.137H741.949V151.754H738.785V154.137ZM748.336 149.781C748.316 151.617 749.41 153.531 751.539 154.312L750.738 155.484C749.137 154.84 748.082 153.619 747.555 152.164C746.998 153.59 745.943 154.82 744.41 155.484L743.609 154.312C745.699 153.453 746.812 151.539 746.812 149.781V148.297H748.336V149.781ZM740.113 139C742.438 139 744.215 140.318 744.547 142.32H748.18V138.219H749.723V147.418H748.18V143.59H744.566C744.254 145.641 742.467 146.988 740.113 146.988C737.477 146.988 735.602 145.367 735.602 142.984C735.602 140.621 737.477 139 740.113 139ZM740.113 140.289C738.336 140.289 737.066 141.402 737.066 142.984C737.066 144.586 738.336 145.719 740.113 145.719C741.871 145.719 743.121 144.586 743.121 142.984C743.121 141.402 741.871 140.289 740.113 140.289ZM766.93 138.219V155.621H765.387V138.219H766.93ZM757.691 139.566C760.27 139.586 762.125 141.93 762.125 145.621C762.125 149.312 760.27 151.656 757.691 151.656C755.094 151.656 753.258 149.312 753.258 145.621C753.258 141.93 755.094 139.586 757.691 139.566ZM757.691 140.934C755.953 140.953 754.742 142.789 754.742 145.621C754.742 148.453 755.953 150.289 757.691 150.289C759.43 150.289 760.641 148.453 760.641 145.621C760.641 142.789 759.43 140.953 757.691 140.934ZM777.027 139.879V144.117H780.797V139.879H782.223V151.246H775.562V139.879H777.027ZM777.027 149.977H780.797V145.367H777.027V149.977ZM789.801 138.219V155.582H788.316V146.383H785.895V154.703H784.43V138.59H785.895V145.113H788.316V138.219H789.801ZM808.082 148.18V149.469H800.836V155.582H799.332V149.469H792.184V148.18H808.082ZM800.094 138.922C803.746 138.922 806.207 140.387 806.207 142.75C806.207 145.055 803.746 146.52 800.094 146.52C796.441 146.52 793.98 145.055 793.98 142.75C793.98 140.387 796.441 138.922 800.094 138.922ZM800.094 140.172C797.379 140.172 795.543 141.188 795.562 142.75C795.543 144.293 797.379 145.289 800.094 145.289C802.789 145.289 804.645 144.293 804.645 142.75C804.645 141.188 802.789 140.172 800.094 140.172ZM823.531 143.492V144.723H811.637V138.863H813.16V143.492H823.531ZM825.367 147.086V148.336H809.469V147.086H825.367ZM823.629 153.883V155.152H811.539V150.113H813.062V153.883H823.629ZM840.445 140.777C840.445 143.746 843.844 146.402 846.871 146.969L846.168 148.258C843.551 147.652 840.787 145.787 839.664 143.219C838.541 145.777 835.787 147.643 833.16 148.258L832.457 146.969C835.465 146.383 838.844 143.766 838.844 140.777V139.449H840.445V140.777ZM847.691 151.949V153.219H831.793V151.949H847.691ZM863.473 138.219V155.621H861.949V146.051H858.277V144.781H861.949V138.219H863.473ZM857.984 139.82V141.09H851.422V144.703H857.223V145.953H851.422V150.152C854.615 150.152 856.646 150.045 859.039 149.625L859.215 150.895C856.695 151.305 854.566 151.422 851.207 151.422H849.879V139.82H857.984ZM880.68 138.219V155.621H879.137V138.219H880.68ZM875.758 139.879V141.168H869.039V149.977C872.418 149.977 874.645 149.869 877.242 149.41L877.398 150.699C874.703 151.188 872.418 151.285 868.902 151.305H867.496V139.879H875.758ZM894.918 141.949C894.918 144.293 896.773 146.402 899.371 147.223L898.59 148.453C896.568 147.77 894.957 146.344 894.176 144.508C893.414 146.49 891.783 148.053 889.723 148.805L888.922 147.574C891.52 146.656 893.375 144.41 893.375 141.949V140.934H889.312V139.684H898.922V140.934H894.918V141.949ZM903.004 138.238V150.973H901.48V138.238H903.004ZM903.551 153.922V155.211H891.793V149.762H893.316V153.922H903.551ZM920.699 138.219V149.215H919.234V144.234H916.91V148.59H915.465V138.57H916.91V142.965H919.234V138.219H920.699ZM914.762 140.309V141.539H905.855V140.309H909.566V138.355H911.09V140.309H914.762ZM910.328 142.477C912.535 142.477 914.039 143.629 914.059 145.445C914.039 147.223 912.535 148.395 910.328 148.395C908.141 148.395 906.598 147.223 906.617 145.445C906.598 143.629 908.141 142.477 910.328 142.477ZM910.328 143.609C908.941 143.609 907.984 144.352 907.984 145.445C907.984 146.52 908.941 147.242 910.328 147.242C911.715 147.242 912.672 146.52 912.672 145.445C912.672 144.352 911.715 143.609 910.328 143.609ZM914.957 149.508C918.609 149.508 920.797 150.602 920.797 152.555C920.797 154.449 918.609 155.543 914.957 155.543C911.305 155.543 909.117 154.449 909.137 152.555C909.117 150.602 911.305 149.508 914.957 149.508ZM914.957 150.719C912.262 150.699 910.641 151.363 910.66 152.555C910.641 153.688 912.262 154.352 914.957 154.352C917.652 154.352 919.254 153.688 919.273 152.555C919.254 151.363 917.652 150.699 914.957 150.719Z" fill="black"/>
<defs>
<linearGradient id="paint0_linear_469_1793" x1="-0.968748" y1="98.5" x2="1491.03" y2="98.4998" gradientUnits="userSpaceOnUse">
<stop stop-color="#3182F6"/>
<stop offset="1" stop-color="#A009FF"/>
</linearGradient>
<linearGradient id="paint1_linear_469_1793" x1="63.6729" y1="125" x2="567.501" y2="125" gradientUnits="userSpaceOnUse">
<stop stop-color="#3182F6"/>
<stop offset="1" stop-color="#A009FF"/>
</linearGradient>
</defs>
</svg>
