<svg width="376" height="452" viewBox="0 0 376 452" fill="none" xmlns="http://www.w3.org/2000/svg">
<g filter="url(#filter0_i_525_855)">
<rect y="0.321289" width="376" height="451" rx="15" fill="white"/>
</g>
<rect x="0.5" y="0.821289" width="375" height="450" rx="14.5" stroke="url(#paint0_linear_525_855)"/>
<path d="M28.9375 390V381.516H29.9922V385.711H30.0977L33.8711 381.516H35.2539L31.7031 385.348L35.2539 390H33.9648L31.0469 386.074L29.9922 387.27V390H28.9375ZM36.2617 390V383.637H37.2344V384.609H37.3047C37.5391 383.965 38.1953 383.531 38.9453 383.531C39.0977 383.531 39.3555 383.543 39.4727 383.555V384.574C39.4023 384.551 39.1211 384.504 38.8633 384.504C37.9492 384.504 37.2695 385.137 37.2695 385.992V390H36.2617ZM40.1406 388.195C40.1406 386.73 41.4297 386.402 42.5312 386.32C42.9355 386.291 43.9668 386.238 44.2539 386.227V385.711C44.2539 384.902 43.7734 384.434 42.8125 384.434C42.0039 384.434 41.5234 384.809 41.3828 385.289H40.3281C40.457 384.27 41.4531 383.555 42.8594 383.555C43.6914 383.555 45.25 383.801 45.25 385.805V390H44.2539V389.133H44.207C43.9961 389.566 43.4102 390.152 42.3086 390.152C41.1016 390.152 40.1406 389.438 40.1406 388.195ZM41.1484 388.242C41.1484 388.91 41.7109 389.25 42.4844 389.25C43.6211 389.25 44.2539 388.488 44.2539 387.691V387.047L42.6484 387.164C41.7344 387.223 41.1484 387.551 41.1484 388.242ZM50.4062 385.289C50.2656 384.762 49.8672 384.41 49.1172 384.41C48.332 384.41 47.7695 384.832 47.7695 385.371C47.7695 385.793 48.1094 386.086 48.8594 386.262L49.8086 386.496C50.9453 386.766 51.5078 387.328 51.5078 388.219C51.5078 389.32 50.6055 390.129 49.0117 390.129C47.582 390.129 46.7266 389.496 46.5625 388.336H47.6172C47.7344 388.957 48.1914 389.25 48.9883 389.25C49.8906 389.25 50.4648 388.875 50.4648 388.277C50.4648 387.832 50.1484 387.527 49.4219 387.363L48.4609 387.141C47.3477 386.883 46.7617 386.273 46.7617 385.43C46.7617 384.34 47.7109 383.555 49.1172 383.555C50.4297 383.555 51.2617 384.258 51.3906 385.289H50.4062ZM53.8281 386.18V390H52.8203V381.516H53.8281V384.633H53.9102C54.2031 383.977 54.7773 383.555 55.7852 383.555C57.0859 383.555 57.9531 384.328 57.9531 385.957V390H56.9453V386.027C56.9453 385.031 56.3945 384.457 55.4805 384.457C54.5312 384.457 53.8281 385.078 53.8281 386.18ZM62.2422 390.129C60.4023 390.129 59.2656 388.828 59.2656 386.871C59.2656 384.914 60.4141 383.555 62.1484 383.555C63.4844 383.555 64.8906 384.375 64.8906 386.73V387.152H60.2734C60.3203 388.5 61.1055 389.238 62.2422 389.238C63.0039 389.238 63.4844 388.91 63.7188 388.512H64.7969C64.4922 389.473 63.5547 390.129 62.2422 390.129ZM60.2852 386.297H63.8711C63.8711 385.23 63.1914 384.445 62.1484 384.445C61.0469 384.445 60.3438 385.312 60.2852 386.297ZM67.2109 386.18V390H66.2031V383.637H67.1758V384.633H67.2578C67.5625 383.988 68.1484 383.555 69.1211 383.555C70.4102 383.555 71.2656 384.34 71.2656 385.957V390H70.2578V386.027C70.2578 385.043 69.7188 384.457 68.8164 384.457C67.8906 384.457 67.2109 385.078 67.2109 386.18ZM74.207 389.215L73.293 392.402H72.4258L73.0703 389.215H74.207ZM83.7227 383.648C83.6289 382.816 82.8672 382.336 81.8477 382.336C80.7227 382.336 79.9844 382.922 79.9844 383.73C79.9844 384.621 80.9805 384.949 81.625 385.113L82.4688 385.348C83.3828 385.582 84.8711 386.109 84.8711 387.691C84.8711 389.074 83.7578 390.152 81.7891 390.152C79.9609 390.152 78.8242 389.203 78.7305 387.797H79.8086C79.9023 388.746 80.7812 389.191 81.7891 389.191C82.9609 389.191 83.8398 388.594 83.8398 387.668C83.8398 386.848 83.0547 386.531 82.1641 386.273L81.1211 385.992C79.7852 385.605 78.9648 384.926 78.9648 383.777C78.9648 382.348 80.2422 381.398 81.8828 381.398C83.5234 381.398 84.707 382.359 84.7539 383.648H83.7227ZM86.9688 390.07C86.5586 390.07 86.207 389.73 86.2188 389.309C86.207 388.898 86.5586 388.559 86.9688 388.559C87.3789 388.559 87.7188 388.898 87.7188 389.309C87.7188 389.73 87.3789 390.07 86.9688 390.07ZM95.0547 390H92.418V381.516H95.1602C97.6328 381.516 99.0977 383.109 99.0977 385.746C99.0977 388.395 97.6328 390 95.0547 390ZM93.4727 389.062H94.9844C97.0703 389.062 98.0664 387.809 98.0664 385.746C98.0664 383.695 97.0703 382.453 95.0898 382.453H93.4727V389.062ZM100.691 390.07C100.281 390.07 99.9297 389.73 99.9414 389.309C99.9297 388.898 100.281 388.559 100.691 388.559C101.102 388.559 101.441 388.898 101.441 389.309C101.441 389.73 101.102 390.07 100.691 390.07ZM106.27 386.766C106.281 384.551 106.879 382.711 107.957 381.152H108.848C108.051 382.312 107.312 384.68 107.312 386.766C107.312 388.852 108.051 391.23 108.848 392.391H107.957C106.879 390.82 106.281 388.98 106.27 386.766ZM110.09 390L110.078 389.227L112.973 386.18C113.98 385.113 114.461 384.539 114.461 383.754C114.461 382.887 113.723 382.312 112.773 382.312C111.766 382.312 111.121 382.957 111.121 383.906H110.125C110.113 382.406 111.273 381.398 112.809 381.398C114.344 381.398 115.445 382.43 115.445 383.754C115.445 384.703 115 385.441 113.5 386.988L111.555 388.992V389.062H115.598V390H110.09ZM119.91 390.117C118.023 390.117 116.945 388.535 116.945 385.758C116.945 383.004 118.047 381.398 119.91 381.398C121.773 381.398 122.875 383.004 122.875 385.758C122.875 388.535 121.785 390.117 119.91 390.117ZM119.91 389.18C121.129 389.18 121.844 387.949 121.844 385.758C121.844 383.566 121.129 382.312 119.91 382.312C118.691 382.312 117.965 383.566 117.965 385.758C117.965 387.949 118.68 389.18 119.91 389.18ZM127.059 390.117C125.172 390.117 124.094 388.535 124.094 385.758C124.094 383.004 125.195 381.398 127.059 381.398C128.922 381.398 130.023 383.004 130.023 385.758C130.023 388.535 128.934 390.117 127.059 390.117ZM127.059 389.18C128.277 389.18 128.992 387.949 128.992 385.758C128.992 383.566 128.277 382.312 127.059 382.312C125.84 382.312 125.113 383.566 125.113 385.758C125.113 387.949 125.828 389.18 127.059 389.18ZM131.219 388.266V387.398L135.039 381.516H136.34V387.34H137.523V388.266H136.34V390H135.332V388.266H131.219ZM132.355 387.34H135.332V382.852H135.227L132.355 387.27V387.34ZM141.145 386.766C141.133 388.98 140.535 390.82 139.457 392.391H138.566C139.363 391.23 140.102 388.852 140.102 386.766C140.102 384.68 139.363 382.312 138.566 381.152H139.457C140.535 382.711 141.133 384.551 141.145 386.766ZM143.734 390.07C143.324 390.07 142.973 389.73 142.984 389.309C142.973 388.898 143.324 388.559 143.734 388.559C144.145 388.559 144.484 388.898 144.484 389.309C144.484 389.73 144.145 390.07 143.734 390.07ZM148.715 382.453V381.516H155.113V382.453H152.453V390H151.387V382.453H148.715ZM157.398 386.18V390H156.391V381.516H157.398V384.633H157.48C157.773 383.977 158.348 383.555 159.355 383.555C160.656 383.555 161.523 384.328 161.523 385.957V390H160.516V386.027C160.516 385.031 159.965 384.457 159.051 384.457C158.102 384.457 157.398 385.078 157.398 386.18ZM165.812 390.129C163.973 390.129 162.836 388.828 162.836 386.871C162.836 384.914 163.984 383.555 165.719 383.555C167.055 383.555 168.461 384.375 168.461 386.73V387.152H163.844C163.891 388.5 164.676 389.238 165.812 389.238C166.574 389.238 167.055 388.91 167.289 388.512H168.367C168.062 389.473 167.125 390.129 165.812 390.129ZM163.855 386.297H167.441C167.441 385.23 166.762 384.445 165.719 384.445C164.617 384.445 163.914 385.312 163.855 386.297ZM172.914 390V381.516H175.797C177.789 381.516 178.691 382.699 178.691 384.211C178.691 385.711 177.789 386.918 175.809 386.918H173.969V390H172.914ZM173.969 385.98H175.762C177.109 385.98 177.648 385.219 177.648 384.211C177.648 383.191 177.109 382.453 175.75 382.453H173.969V385.98ZM182.57 390.129C180.836 390.129 179.664 388.828 179.664 386.848C179.664 384.867 180.836 383.555 182.57 383.555C184.293 383.555 185.453 384.867 185.453 386.848C185.453 388.828 184.293 390.129 182.57 390.129ZM182.57 389.238C183.848 389.238 184.445 388.113 184.445 386.848C184.445 385.582 183.848 384.445 182.57 384.445C181.27 384.445 180.672 385.582 180.672 386.848C180.672 388.113 181.27 389.238 182.57 389.238ZM187.996 390L186.062 383.637H187.129L188.488 388.488H188.547L189.895 383.637H190.973L192.297 388.465H192.367L193.727 383.637H194.781L192.848 390H191.852L190.469 385.148H190.375L189.004 390H187.996ZM198.355 390.129C196.516 390.129 195.379 388.828 195.379 386.871C195.379 384.914 196.527 383.555 198.262 383.555C199.598 383.555 201.004 384.375 201.004 386.73V387.152H196.387C196.434 388.5 197.219 389.238 198.355 389.238C199.117 389.238 199.598 388.91 199.832 388.512H200.91C200.605 389.473 199.668 390.129 198.355 390.129ZM196.398 386.297H199.984C199.984 385.23 199.305 384.445 198.262 384.445C197.16 384.445 196.457 385.312 196.398 386.297ZM202.316 390V383.637H203.289V384.609H203.359C203.594 383.965 204.25 383.531 205 383.531C205.152 383.531 205.41 383.543 205.527 383.555V384.574C205.457 384.551 205.176 384.504 204.918 384.504C204.004 384.504 203.324 385.137 203.324 385.992V390H202.316ZM212.125 390.129C210.391 390.129 209.219 388.828 209.219 386.848C209.219 384.867 210.391 383.555 212.125 383.555C213.848 383.555 215.008 384.867 215.008 386.848C215.008 388.828 213.848 390.129 212.125 390.129ZM212.125 389.238C213.402 389.238 214 388.113 214 386.848C214 385.582 213.402 384.445 212.125 384.445C210.824 384.445 210.227 385.582 210.227 386.848C210.227 388.113 210.824 389.238 212.125 389.238ZM219.18 383.637V384.48H217.773V390H216.754V384.48H215.734V383.637H216.754V382.77C216.754 381.738 217.445 381.117 218.57 381.117C218.816 381.117 219.109 381.152 219.32 381.188V382.09C219.109 382.055 218.922 382.043 218.793 382.043C218.09 382.043 217.773 382.336 217.773 382.992V383.637H219.18ZM223.516 390V381.516H226.398C228.391 381.516 229.293 382.617 229.293 384.129C229.293 385.248 228.789 386.133 227.711 386.508L229.621 390H228.391L226.621 386.695L226.41 386.707H224.57V390H223.516ZM224.57 385.746H226.363C227.711 385.746 228.25 385.137 228.25 384.129C228.25 383.109 227.711 382.453 226.352 382.453H224.57V385.746ZM233.289 390.129C231.449 390.129 230.312 388.828 230.312 386.871C230.312 384.914 231.461 383.555 233.195 383.555C234.531 383.555 235.938 384.375 235.938 386.73V387.152H231.32C231.367 388.5 232.152 389.238 233.289 389.238C234.051 389.238 234.531 388.91 234.766 388.512H235.844C235.539 389.473 234.602 390.129 233.289 390.129ZM231.332 386.297H234.918C234.918 385.23 234.238 384.445 233.195 384.445C232.094 384.445 231.391 385.312 231.332 386.297ZM236.945 388.195C236.945 386.73 238.234 386.402 239.336 386.32C239.74 386.291 240.771 386.238 241.059 386.227V385.711C241.059 384.902 240.578 384.434 239.617 384.434C238.809 384.434 238.328 384.809 238.188 385.289H237.133C237.262 384.27 238.258 383.555 239.664 383.555C240.496 383.555 242.055 383.801 242.055 385.805V390H241.059V389.133H241.012C240.801 389.566 240.215 390.152 239.113 390.152C237.906 390.152 236.945 389.438 236.945 388.195ZM237.953 388.242C237.953 388.91 238.516 389.25 239.289 389.25C240.426 389.25 241.059 388.488 241.059 387.691V387.047L239.453 387.164C238.539 387.223 237.953 387.551 237.953 388.242ZM246.074 390.129C244.492 390.129 243.367 388.852 243.367 386.836C243.367 384.82 244.492 383.555 246.086 383.555C247.316 383.555 247.715 384.305 247.926 384.645H247.996V381.516H249.016V390H248.031V389.027H247.926C247.703 389.379 247.293 390.129 246.074 390.129ZM246.215 389.227C247.375 389.227 248.031 388.242 248.031 386.812C248.031 385.406 247.398 384.457 246.215 384.457C244.996 384.457 244.387 385.488 244.387 386.812C244.387 388.172 245.008 389.227 246.215 389.227ZM250.762 390V383.637H251.77V390H250.762ZM251.266 382.582C250.879 382.582 250.562 382.289 250.562 381.914C250.562 381.539 250.879 381.246 251.266 381.246C251.652 381.246 251.98 381.539 251.98 381.914C251.98 382.289 251.652 382.582 251.266 382.582ZM254.383 386.18V390H253.375V383.637H254.348V384.633H254.43C254.734 383.988 255.32 383.555 256.293 383.555C257.582 383.555 258.438 384.34 258.438 385.957V390H257.43V386.027C257.43 385.043 256.891 384.457 255.988 384.457C255.062 384.457 254.383 385.078 254.383 386.18ZM262.633 392.52C261.098 392.52 260.055 391.852 259.938 390.668H260.992C261.133 391.312 261.73 391.641 262.633 391.641C263.723 391.641 264.391 391.172 264.391 390.117V388.828H264.309C264.098 389.18 263.688 389.906 262.457 389.906C260.91 389.906 259.75 388.734 259.75 386.73C259.75 384.773 260.875 383.555 262.469 383.555C263.699 383.555 264.098 384.305 264.332 384.645H264.414V383.637H265.398V390.176C265.398 391.816 264.18 392.52 262.633 392.52ZM262.598 389.004C263.758 389.004 264.414 388.172 264.414 386.766C264.414 385.406 263.781 384.457 262.598 384.457C261.379 384.457 260.77 385.488 260.77 386.766C260.77 388.09 261.391 389.004 262.598 389.004ZM267.719 390.07C267.309 390.07 266.957 389.73 266.969 389.309C266.957 388.898 267.309 388.559 267.719 388.559C268.129 388.559 268.469 388.898 268.469 389.309C268.469 389.73 268.129 390.07 267.719 390.07ZM267.719 385.359C267.309 385.359 266.957 385.02 266.969 384.598C266.957 384.188 267.309 383.848 267.719 383.848C268.129 383.848 268.469 384.188 268.469 384.598C268.469 385.02 268.129 385.359 267.719 385.359ZM274.246 381.516V390H273.191V381.516H274.246ZM277 386.18V390H275.992V383.637H276.965V384.633H277.047C277.352 383.988 277.938 383.555 278.91 383.555C280.199 383.555 281.055 384.34 281.055 385.957V390H280.047V386.027C280.047 385.043 279.508 384.457 278.605 384.457C277.68 384.457 277 385.078 277 386.18ZM286.211 385.289C286.07 384.762 285.672 384.41 284.922 384.41C284.137 384.41 283.574 384.832 283.574 385.371C283.574 385.793 283.914 386.086 284.664 386.262L285.613 386.496C286.75 386.766 287.312 387.328 287.312 388.219C287.312 389.32 286.41 390.129 284.816 390.129C283.387 390.129 282.531 389.496 282.367 388.336H283.422C283.539 388.957 283.996 389.25 284.793 389.25C285.695 389.25 286.27 388.875 286.27 388.277C286.27 387.832 285.953 387.527 285.227 387.363L284.266 387.141C283.152 386.883 282.566 386.273 282.566 385.43C282.566 384.34 283.516 383.555 284.922 383.555C286.234 383.555 287.066 384.258 287.195 385.289H286.211ZM288.625 390V383.637H289.633V390H288.625ZM289.129 382.582C288.742 382.582 288.426 382.289 288.426 381.914C288.426 381.539 288.742 381.246 289.129 381.246C289.516 381.246 289.844 381.539 289.844 381.914C289.844 382.289 289.516 382.582 289.129 382.582ZM293.816 392.52C292.281 392.52 291.238 391.852 291.121 390.668H292.176C292.316 391.312 292.914 391.641 293.816 391.641C294.906 391.641 295.574 391.172 295.574 390.117V388.828H295.492C295.281 389.18 294.871 389.906 293.641 389.906C292.094 389.906 290.934 388.734 290.934 386.73C290.934 384.773 292.059 383.555 293.652 383.555C294.883 383.555 295.281 384.305 295.516 384.645H295.598V383.637H296.582V390.176C296.582 391.816 295.363 392.52 293.816 392.52ZM293.781 389.004C294.941 389.004 295.598 388.172 295.598 386.766C295.598 385.406 294.965 384.457 293.781 384.457C292.562 384.457 291.953 385.488 291.953 386.766C291.953 388.09 292.574 389.004 293.781 389.004ZM299.195 386.18V390H298.188V381.516H299.195V384.633H299.277C299.57 383.977 300.145 383.555 301.152 383.555C302.453 383.555 303.32 384.328 303.32 385.957V390H302.312V386.027C302.312 385.031 301.762 384.457 300.848 384.457C299.898 384.457 299.195 385.078 299.195 386.18ZM307.715 383.637V384.48H306.379V388.172C306.379 388.992 306.777 389.121 307.211 389.121C307.398 389.121 307.656 389.109 307.809 389.098V390.035C307.656 390.059 307.398 390.082 307.105 390.082C306.262 390.082 305.359 389.555 305.359 388.43V384.48H304.398V383.637H305.359V382.113H306.379V383.637H307.715ZM312.438 385.289C312.297 384.762 311.898 384.41 311.148 384.41C310.363 384.41 309.801 384.832 309.801 385.371C309.801 385.793 310.141 386.086 310.891 386.262L311.84 386.496C312.977 386.766 313.539 387.328 313.539 388.219C313.539 389.32 312.637 390.129 311.043 390.129C309.613 390.129 308.758 389.496 308.594 388.336H309.648C309.766 388.957 310.223 389.25 311.02 389.25C311.922 389.25 312.496 388.875 312.496 388.277C312.496 387.832 312.18 387.527 311.453 387.363L310.492 387.141C309.379 386.883 308.793 386.273 308.793 385.43C308.793 384.34 309.742 383.555 311.148 383.555C312.461 383.555 313.293 384.258 313.422 385.289H312.438ZM320.711 383.637V384.48H319.305V390H318.285V384.48H317.266V383.637H318.285V382.77C318.285 381.738 318.977 381.117 320.102 381.117C320.348 381.117 320.641 381.152 320.852 381.188V382.09C320.641 382.055 320.453 382.043 320.324 382.043C319.621 382.043 319.305 382.336 319.305 382.992V383.637H320.711ZM321.906 390V383.637H322.879V384.609H322.949C323.184 383.965 323.84 383.531 324.59 383.531C324.742 383.531 325 383.543 325.117 383.555V384.574C325.047 384.551 324.766 384.504 324.508 384.504C323.594 384.504 322.914 385.137 322.914 385.992V390H321.906ZM328.492 390.129C326.758 390.129 325.586 388.828 325.586 386.848C325.586 384.867 326.758 383.555 328.492 383.555C330.215 383.555 331.375 384.867 331.375 386.848C331.375 388.828 330.215 390.129 328.492 390.129ZM328.492 389.238C329.77 389.238 330.367 388.113 330.367 386.848C330.367 385.582 329.77 384.445 328.492 384.445C327.191 384.445 326.594 385.582 326.594 386.848C326.594 388.113 327.191 389.238 328.492 389.238ZM332.699 390V383.637H333.672V384.633H333.754C334.023 383.953 334.633 383.555 335.465 383.555C336.297 383.555 336.859 383.953 337.164 384.633H337.234C337.562 383.977 338.23 383.555 339.145 383.555C340.281 383.555 341.09 384.246 341.09 385.746V390H340.082V385.758C340.082 384.82 339.484 384.457 338.793 384.457C337.902 384.457 337.398 385.055 337.398 385.863V390H336.379V385.652C336.379 384.938 335.863 384.457 335.137 384.457C334.375 384.457 333.707 385.102 333.707 386.027V390H332.699ZM31.5859 402.637V403.48H30.25V407.172C30.25 407.992 30.6484 408.121 31.082 408.121C31.2695 408.121 31.5273 408.109 31.6797 408.098V409.035C31.5273 409.059 31.2695 409.082 30.9766 409.082C30.1328 409.082 29.2305 408.555 29.2305 407.43V403.48H28.2695V402.637H29.2305V401.113H30.25V402.637H31.5859ZM34.0352 405.18V409H33.0273V400.516H34.0352V403.633H34.1172C34.4102 402.977 34.9844 402.555 35.9922 402.555C37.293 402.555 38.1602 403.328 38.1602 404.957V409H37.1523V405.027C37.1523 404.031 36.6016 403.457 35.6875 403.457C34.7383 403.457 34.0352 404.078 34.0352 405.18ZM42.4492 409.129C40.6094 409.129 39.4727 407.828 39.4727 405.871C39.4727 403.914 40.6211 402.555 42.3555 402.555C43.6914 402.555 45.0977 403.375 45.0977 405.73V406.152H40.4805C40.5273 407.5 41.3125 408.238 42.4492 408.238C43.2109 408.238 43.6914 407.91 43.9258 407.512H45.0039C44.6992 408.473 43.7617 409.129 42.4492 409.129ZM40.4922 405.297H44.0781C44.0781 404.23 43.3984 403.445 42.3555 403.445C41.2539 403.445 40.5508 404.312 40.4922 405.297ZM49.5508 409V400.516H52.4336C54.4258 400.516 55.3281 401.617 55.3281 403.129C55.3281 404.248 54.8242 405.133 53.7461 405.508L55.6562 409H54.4258L52.6562 405.695L52.4453 405.707H50.6055V409H49.5508ZM50.6055 404.746H52.3984C53.7461 404.746 54.2852 404.137 54.2852 403.129C54.2852 402.109 53.7461 401.453 52.3867 401.453H50.6055V404.746ZM59.3242 409.129C57.4844 409.129 56.3477 407.828 56.3477 405.871C56.3477 403.914 57.4961 402.555 59.2305 402.555C60.5664 402.555 61.9727 403.375 61.9727 405.73V406.152H57.3555C57.4023 407.5 58.1875 408.238 59.3242 408.238C60.0859 408.238 60.5664 407.91 60.8008 407.512H61.8789C61.5742 408.473 60.6367 409.129 59.3242 409.129ZM57.3672 405.297H60.9531C60.9531 404.23 60.2734 403.445 59.2305 403.445C58.1289 403.445 57.4258 404.312 57.3672 405.297ZM66.8242 404.289C66.6836 403.762 66.2852 403.41 65.5352 403.41C64.75 403.41 64.1875 403.832 64.1875 404.371C64.1875 404.793 64.5273 405.086 65.2773 405.262L66.2266 405.496C67.3633 405.766 67.9258 406.328 67.9258 407.219C67.9258 408.32 67.0234 409.129 65.4297 409.129C64 409.129 63.1445 408.496 62.9805 407.336H64.0352C64.1523 407.957 64.6094 408.25 65.4062 408.25C66.3086 408.25 66.8828 407.875 66.8828 407.277C66.8828 406.832 66.5664 406.527 65.8398 406.363L64.8789 406.141C63.7656 405.883 63.1797 405.273 63.1797 404.43C63.1797 403.34 64.1289 402.555 65.5352 402.555C66.8477 402.555 67.6797 403.258 67.8086 404.289H66.8242ZM71.9102 409.129C70.0703 409.129 68.9336 407.828 68.9336 405.871C68.9336 403.914 70.082 402.555 71.8164 402.555C73.1523 402.555 74.5586 403.375 74.5586 405.73V406.152H69.9414C69.9883 407.5 70.7734 408.238 71.9102 408.238C72.6719 408.238 73.1523 407.91 73.3867 407.512H74.4648C74.1602 408.473 73.2227 409.129 71.9102 409.129ZM69.9531 405.297H73.5391C73.5391 404.23 72.8594 403.445 71.8164 403.445C70.7148 403.445 70.0117 404.312 69.9531 405.297ZM75.5664 407.195C75.5664 405.73 76.8555 405.402 77.957 405.32C78.3613 405.291 79.3926 405.238 79.6797 405.227V404.711C79.6797 403.902 79.1992 403.434 78.2383 403.434C77.4297 403.434 76.9492 403.809 76.8086 404.289H75.7539C75.8828 403.27 76.8789 402.555 78.2852 402.555C79.1172 402.555 80.6758 402.801 80.6758 404.805V409H79.6797V408.133H79.6328C79.4219 408.566 78.8359 409.152 77.7344 409.152C76.5273 409.152 75.5664 408.438 75.5664 407.195ZM76.5742 407.242C76.5742 407.91 77.1367 408.25 77.9102 408.25C79.0469 408.25 79.6797 407.488 79.6797 406.691V406.047L78.0742 406.164C77.1602 406.223 76.5742 406.551 76.5742 407.242ZM82.293 409V402.637H83.2656V403.609H83.3359C83.5703 402.965 84.2266 402.531 84.9766 402.531C85.1289 402.531 85.3867 402.543 85.5039 402.555V403.574C85.4336 403.551 85.1523 403.504 84.8945 403.504C83.9805 403.504 83.3008 404.137 83.3008 404.992V409H82.293ZM88.8789 409.129C87.0742 409.129 85.9727 407.758 85.9727 405.848C85.9727 403.914 87.1211 402.555 88.8555 402.555C90.2148 402.555 91.2227 403.352 91.3867 404.559H90.3789C90.2383 403.973 89.7227 403.445 88.8789 403.445C87.7422 403.445 86.9805 404.383 86.9805 405.812C86.9805 407.289 87.7188 408.227 88.8789 408.227C89.6289 408.227 90.2031 407.828 90.3789 407.125H91.3867C91.2227 408.262 90.2969 409.129 88.8789 409.129ZM93.6367 405.18V409H92.6289V400.516H93.6367V403.633H93.7188C94.0117 402.977 94.5859 402.555 95.5938 402.555C96.8945 402.555 97.7617 403.328 97.7617 404.957V409H96.7539V405.027C96.7539 404.031 96.2031 403.457 95.2891 403.457C94.3398 403.457 93.6367 404.078 93.6367 405.18ZM102.648 405.766C102.66 403.551 103.258 401.711 104.336 400.152H105.227C104.43 401.312 103.691 403.68 103.691 405.766C103.691 407.852 104.43 410.23 105.227 411.391H104.336C103.258 409.82 102.66 407.98 102.648 405.766ZM106.469 409L106.457 408.227L109.352 405.18C110.359 404.113 110.84 403.539 110.84 402.754C110.84 401.887 110.102 401.312 109.152 401.312C108.145 401.312 107.5 401.957 107.5 402.906H106.504C106.492 401.406 107.652 400.398 109.188 400.398C110.723 400.398 111.824 401.43 111.824 402.754C111.824 403.703 111.379 404.441 109.879 405.988L107.934 407.992V408.062H111.977V409H106.469ZM114.531 405.18V409H113.523V402.637H114.496V403.633H114.578C114.883 402.988 115.469 402.555 116.441 402.555C117.73 402.555 118.586 403.34 118.586 404.957V409H117.578V405.027C117.578 404.043 117.039 403.457 116.137 403.457C115.211 403.457 114.531 404.078 114.531 405.18ZM122.605 409.129C121.023 409.129 119.898 407.852 119.898 405.836C119.898 403.82 121.023 402.555 122.617 402.555C123.848 402.555 124.246 403.305 124.457 403.645H124.527V400.516H125.547V409H124.562V408.027H124.457C124.234 408.379 123.824 409.129 122.605 409.129ZM122.746 408.227C123.906 408.227 124.562 407.242 124.562 405.812C124.562 404.406 123.93 403.457 122.746 403.457C121.527 403.457 120.918 404.488 120.918 405.812C120.918 407.172 121.539 408.227 122.746 408.227ZM132.977 409.129C131.137 409.129 130 407.828 130 405.871C130 403.914 131.148 402.555 132.883 402.555C134.219 402.555 135.625 403.375 135.625 405.73V406.152H131.008C131.055 407.5 131.84 408.238 132.977 408.238C133.738 408.238 134.219 407.91 134.453 407.512H135.531C135.227 408.473 134.289 409.129 132.977 409.129ZM131.02 405.297H134.605C134.605 404.23 133.926 403.445 132.883 403.445C131.781 403.445 131.078 404.312 131.02 405.297ZM139.34 409.129C137.758 409.129 136.633 407.852 136.633 405.836C136.633 403.82 137.758 402.555 139.352 402.555C140.582 402.555 140.98 403.305 141.191 403.645H141.262V400.516H142.281V409H141.297V408.027H141.191C140.969 408.379 140.559 409.129 139.34 409.129ZM139.48 408.227C140.641 408.227 141.297 407.242 141.297 405.812C141.297 404.406 140.664 403.457 139.48 403.457C138.262 403.457 137.652 404.488 137.652 405.812C137.652 407.172 138.273 408.227 139.48 408.227ZM144.742 409.07C144.332 409.07 143.98 408.73 143.992 408.309C143.98 407.898 144.332 407.559 144.742 407.559C145.152 407.559 145.492 407.898 145.492 408.309C145.492 408.73 145.152 409.07 144.742 409.07ZM149.289 405.766C149.277 407.98 148.68 409.82 147.602 411.391H146.711C147.508 410.23 148.246 407.852 148.246 405.766C148.246 403.68 147.508 401.312 146.711 400.152H147.602C148.68 401.711 149.277 403.551 149.289 405.766ZM151.879 409.07C151.469 409.07 151.117 408.73 151.129 408.309C151.117 407.898 151.469 407.559 151.879 407.559C152.289 407.559 152.629 407.898 152.629 408.309C152.629 408.73 152.289 409.07 151.879 409.07ZM157.328 409V400.516H158.383V408.062H162.32V409H157.328ZM163.598 409V402.637H164.605V409H163.598ZM164.102 401.582C163.715 401.582 163.398 401.289 163.398 400.914C163.398 400.539 163.715 400.246 164.102 400.246C164.488 400.246 164.816 400.539 164.816 400.914C164.816 401.289 164.488 401.582 164.102 401.582ZM166.34 409V400.516H167.348V403.645H167.43C167.652 403.305 168.027 402.555 169.27 402.555C170.863 402.555 171.988 403.82 171.988 405.836C171.988 407.852 170.863 409.129 169.281 409.129C168.062 409.129 167.652 408.379 167.43 408.027H167.312V409H166.34ZM167.324 405.812C167.324 407.242 167.969 408.227 169.129 408.227C170.336 408.227 170.969 407.172 170.969 405.812C170.969 404.488 170.359 403.457 169.129 403.457C167.957 403.457 167.324 404.406 167.324 405.812ZM173.301 409V402.637H174.273V403.609H174.344C174.578 402.965 175.234 402.531 175.984 402.531C176.137 402.531 176.395 402.543 176.512 402.555V403.574C176.441 403.551 176.16 403.504 175.902 403.504C174.988 403.504 174.309 404.137 174.309 404.992V409H173.301ZM177.18 407.195C177.18 405.73 178.469 405.402 179.57 405.32C179.975 405.291 181.006 405.238 181.293 405.227V404.711C181.293 403.902 180.812 403.434 179.852 403.434C179.043 403.434 178.562 403.809 178.422 404.289H177.367C177.496 403.27 178.492 402.555 179.898 402.555C180.73 402.555 182.289 402.801 182.289 404.805V409H181.293V408.133H181.246C181.035 408.566 180.449 409.152 179.348 409.152C178.141 409.152 177.18 408.438 177.18 407.195ZM178.188 407.242C178.188 407.91 178.75 408.25 179.523 408.25C180.66 408.25 181.293 407.488 181.293 406.691V406.047L179.688 406.164C178.773 406.223 178.188 406.551 178.188 407.242ZM183.906 409V402.637H184.879V403.609H184.949C185.184 402.965 185.84 402.531 186.59 402.531C186.742 402.531 187 402.543 187.117 402.555V403.574C187.047 403.551 186.766 403.504 186.508 403.504C185.594 403.504 184.914 404.137 184.914 404.992V409H183.906ZM188.102 409V402.637H189.109V409H188.102ZM188.605 401.582C188.219 401.582 187.902 401.289 187.902 400.914C187.902 400.539 188.219 400.246 188.605 400.246C188.992 400.246 189.32 400.539 189.32 400.914C189.32 401.289 188.992 401.582 188.605 401.582ZM193.387 409.129C191.547 409.129 190.41 407.828 190.41 405.871C190.41 403.914 191.559 402.555 193.293 402.555C194.629 402.555 196.035 403.375 196.035 405.73V406.152H191.418C191.465 407.5 192.25 408.238 193.387 408.238C194.148 408.238 194.629 407.91 194.863 407.512H195.941C195.637 408.473 194.699 409.129 193.387 409.129ZM191.43 405.297H195.016C195.016 404.23 194.336 403.445 193.293 403.445C192.191 403.445 191.488 404.312 191.43 405.297ZM200.887 404.289C200.746 403.762 200.348 403.41 199.598 403.41C198.812 403.41 198.25 403.832 198.25 404.371C198.25 404.793 198.59 405.086 199.34 405.262L200.289 405.496C201.426 405.766 201.988 406.328 201.988 407.219C201.988 408.32 201.086 409.129 199.492 409.129C198.062 409.129 197.207 408.496 197.043 407.336H198.098C198.215 407.957 198.672 408.25 199.469 408.25C200.371 408.25 200.945 407.875 200.945 407.277C200.945 406.832 200.629 406.527 199.902 406.363L198.941 406.141C197.828 405.883 197.242 405.273 197.242 404.43C197.242 403.34 198.191 402.555 199.598 402.555C200.91 402.555 201.742 403.258 201.871 404.289H200.887ZM211.996 400.516H213.051V406.129C213.051 407.875 211.75 409.152 209.746 409.152C207.742 409.152 206.441 407.875 206.441 406.129V400.516H207.496V406.047C207.496 407.277 208.352 408.168 209.746 408.168C211.152 408.168 211.996 407.277 211.996 406.047V400.516ZM215.805 405.18V409H214.797V402.637H215.77V403.633H215.852C216.156 402.988 216.742 402.555 217.715 402.555C219.004 402.555 219.859 403.34 219.859 404.957V409H218.852V405.027C218.852 404.043 218.312 403.457 217.41 403.457C216.484 403.457 215.805 404.078 215.805 405.18ZM222.484 400.516V409H221.477V400.516H222.484ZM224.09 409V402.637H225.098V409H224.09ZM224.594 401.582C224.207 401.582 223.891 401.289 223.891 400.914C223.891 400.539 224.207 400.246 224.594 400.246C224.98 400.246 225.309 400.539 225.309 400.914C225.309 401.289 224.98 401.582 224.594 401.582ZM226.703 409V402.637H227.676V403.633H227.758C228.027 402.953 228.637 402.555 229.469 402.555C230.301 402.555 230.863 402.953 231.168 403.633H231.238C231.566 402.977 232.234 402.555 233.148 402.555C234.285 402.555 235.094 403.246 235.094 404.746V409H234.086V404.758C234.086 403.82 233.488 403.457 232.797 403.457C231.906 403.457 231.402 404.055 231.402 404.863V409H230.383V404.652C230.383 403.938 229.867 403.457 229.141 403.457C228.379 403.457 227.711 404.102 227.711 405.027V409H226.703ZM236.711 409V402.637H237.719V409H236.711ZM237.215 401.582C236.828 401.582 236.512 401.289 236.512 400.914C236.512 400.539 236.828 400.246 237.215 400.246C237.602 400.246 237.93 400.539 237.93 400.914C237.93 401.289 237.602 401.582 237.215 401.582ZM242.102 402.637V403.48H240.766V407.172C240.766 407.992 241.164 408.121 241.598 408.121C241.785 408.121 242.043 408.109 242.195 408.098V409.035C242.043 409.059 241.785 409.082 241.492 409.082C240.648 409.082 239.746 408.555 239.746 407.43V403.48H238.785V402.637H239.746V401.113H240.766V402.637H242.102ZM246.004 409.129C244.164 409.129 243.027 407.828 243.027 405.871C243.027 403.914 244.176 402.555 245.91 402.555C247.246 402.555 248.652 403.375 248.652 405.73V406.152H244.035C244.082 407.5 244.867 408.238 246.004 408.238C246.766 408.238 247.246 407.91 247.48 407.512H248.559C248.254 408.473 247.316 409.129 246.004 409.129ZM244.047 405.297H247.633C247.633 404.23 246.953 403.445 245.91 403.445C244.809 403.445 244.105 404.312 244.047 405.297ZM252.367 409.129C250.785 409.129 249.66 407.852 249.66 405.836C249.66 403.82 250.785 402.555 252.379 402.555C253.609 402.555 254.008 403.305 254.219 403.645H254.289V400.516H255.309V409H254.324V408.027H254.219C253.996 408.379 253.586 409.129 252.367 409.129ZM252.508 408.227C253.668 408.227 254.324 407.242 254.324 405.812C254.324 404.406 253.691 403.457 252.508 403.457C251.289 403.457 250.68 404.488 250.68 405.812C250.68 407.172 251.301 408.227 252.508 408.227ZM257.77 409.07C257.359 409.07 257.008 408.73 257.02 408.309C257.008 407.898 257.359 407.559 257.77 407.559C258.18 407.559 258.52 407.898 258.52 408.309C258.52 408.73 258.18 409.07 257.77 409.07Z" fill="#999999"/>
<path d="M32.4883 150.98C33.9043 150.98 35.1445 151.498 36.0039 152.367H40.0273V150.023H42.5078V160.434H40.0273V158.305H35.9844C35.125 159.164 33.8945 159.682 32.4883 159.672C29.793 159.691 27.7422 157.836 27.7617 155.336C27.7422 152.797 29.793 150.98 32.4883 150.98ZM32.4883 153.109C31.1016 153.109 30.1055 153.93 30.125 155.336C30.1055 156.703 31.1016 157.582 32.4883 157.562C33.8359 157.582 34.8125 156.703 34.8125 155.336C34.8125 153.93 33.8359 153.109 32.4883 153.109ZM36.4336 160.805C40.2031 160.805 42.5469 162.094 42.5664 164.301C42.5469 166.508 40.2031 167.797 36.4336 167.797C32.6836 167.797 30.3203 166.508 30.3203 164.301C30.3203 162.094 32.6836 160.805 36.4336 160.805ZM36.4336 162.699C34.0703 162.699 32.7617 163.227 32.7617 164.301C32.7617 165.336 34.0703 165.863 36.4336 165.863C38.8359 165.863 40.125 165.336 40.125 164.301C40.125 163.227 38.8359 162.699 36.4336 162.699ZM37.0781 154.34C37.1367 154.652 37.1758 154.994 37.1758 155.336C37.1758 155.678 37.1367 156 37.0781 156.312H40.0273V154.34H37.0781ZM49.7148 151.273C52.1172 151.273 53.9043 153.256 54.2656 156.449H57.3516V150.023H59.8125V167.836H57.3516V158.441H54.2852C54.0215 161.859 52.1953 163.949 49.7148 163.949C47.0195 163.949 45.0859 161.508 45.1055 157.602C45.0859 153.734 47.0195 151.273 49.7148 151.273ZM49.7148 153.52C48.3867 153.52 47.4687 154.965 47.4883 157.602C47.4687 160.258 48.3867 161.684 49.7148 161.684C51.0625 161.684 51.9414 160.258 51.9414 157.602C51.9414 154.965 51.0625 153.52 49.7148 153.52ZM76.5312 154.867V156.82H64.1094V150.648H66.5898V154.867H76.5312ZM78.3477 158.734V160.687H62.0781V158.734H78.3477ZM76.6484 165.414V167.406H63.9531V162.133H66.4531V165.414H76.6484ZM92 161.098C95.8867 161.098 98.3281 162.328 98.3477 164.457C98.3281 166.547 95.8867 167.797 92 167.797C88.1523 167.797 85.6719 166.547 85.6719 164.457C85.6719 162.328 88.1523 161.098 92 161.098ZM92 162.953C89.5586 162.953 88.1523 163.461 88.1523 164.457C88.1523 165.414 89.5586 165.902 92 165.902C94.4414 165.902 95.8672 165.414 95.8672 164.457C95.8672 163.461 94.4414 162.953 92 162.953ZM98.25 150.824V152.27C98.25 153.676 98.25 155.199 97.7422 157.035L95.3008 156.801C95.6914 155.189 95.7402 153.988 95.7695 152.777H85.8477V150.824H98.25ZM100.164 157.953V159.965H84.0312V157.953H90.0859V154.848H92.5469V157.953H100.164ZM117.527 160.277V162.23H110.574V167.797H108.113V162.23H101.258V160.277H117.527ZM105.633 150.707V152.758H113.094V150.707H115.594V158.559H103.172V150.707H105.633ZM105.633 156.566H113.094V154.711H105.633V156.566ZM132.586 150.023V156.84H135.105V158.891H132.586V167.758H130.086V150.023H132.586ZM127.84 151.84C127.82 157.152 125.75 161.762 119.773 164.691L118.367 162.777C122.576 160.668 124.832 157.836 125.301 153.871H119.383V151.84H127.84ZM145.242 151.273C147.957 151.273 149.91 153.734 149.93 157.602C149.91 161.508 147.957 163.949 145.242 163.949C142.527 163.949 140.535 161.508 140.555 157.602C140.535 153.734 142.527 151.273 145.242 151.273ZM145.242 153.52C143.875 153.52 142.957 154.965 142.957 157.602C142.957 160.258 143.875 161.684 145.242 161.684C146.629 161.684 147.527 160.258 147.547 157.602C147.527 154.965 146.629 153.52 145.242 153.52ZM154.48 150.023V156.723H157.098V158.793H154.48V167.797H151.98V150.023H154.48ZM172.625 150.043V159.496H170.125V150.043H172.625ZM161.238 150.863V156.762C163.924 156.742 166.219 156.566 168.621 156.059L168.914 158.07C166.121 158.637 163.504 158.852 160.32 158.852H158.777V150.863H161.238ZM163.27 160.238V162.035H170.145V160.238H172.625V167.602H160.77V160.238H163.27ZM163.27 165.609H170.145V163.949H163.27V165.609ZM189.969 150.023V167.797H187.488V150.023H189.969ZM178.445 151.723V161.273C180.848 161.244 183.426 161.02 186.043 160.512L186.355 162.562C183.23 163.207 180.301 163.422 177.547 163.402H175.984V151.723H178.445ZM206.336 150.023V156.625H208.953V158.656H206.336V167.836H203.836V150.023H206.336ZM201.355 151.664V153.676H195.496V161.469C198.074 161.439 200.203 161.322 202.566 160.902L202.84 162.992C200.086 163.461 197.664 163.539 194.52 163.52H193.016V151.664H201.355ZM213.348 164.555L211.668 170.121H209.598L210.574 164.555H213.348ZM31.8828 192.687V194.191H39.207V192.687H41.6875V199.602H29.4219V192.687H31.8828ZM31.8828 197.648H39.207V196.086H31.8828V197.648ZM43.7383 189.777V191.789H27.5273V189.777H43.7383ZM36.9219 182.805C36.9219 184.582 38.9727 186.594 42.9375 187.043L42.0586 188.996C38.9922 188.605 36.7754 187.336 35.6328 185.617C34.4902 187.336 32.2637 188.605 29.2266 188.996L28.3281 187.043C32.293 186.574 34.3437 184.621 34.3633 182.805V182.199H36.9219V182.805ZM61.0625 190.422V192.414H44.8125V190.422H61.0625ZM59.0898 193.937V199.816H56.6484V195.93H46.6094V193.937H59.0898ZM59.2852 187.004V188.996H46.7852V182.629H59.1094V184.582H49.2656V187.004H59.2852ZM71.1602 183.488V192.023H62.625V183.488H71.1602ZM65.0859 185.48V190.07H68.6992V185.48H65.0859ZM76.1992 182.023V187.141H78.6016V189.191H76.1992V194.992H73.6992V182.023H76.1992ZM76.8437 197.492V199.484H64.6758V193.723H67.1562V197.492H76.8437ZM94.2656 182.023V199.836H91.7461V182.023H94.2656ZM84.6172 183.273C87.293 183.273 89.2852 185.734 89.2852 189.602C89.2852 193.508 87.293 195.949 84.6172 195.949C81.8828 195.949 79.8906 193.508 79.9102 189.602C79.8906 185.734 81.8828 183.273 84.6172 183.273ZM84.6172 185.52C83.2305 185.52 82.3125 186.965 82.3125 189.602C82.3125 192.258 83.2305 193.684 84.6172 193.684C85.9648 193.684 86.8828 192.258 86.8828 189.602C86.8828 186.965 85.9648 185.52 84.6172 185.52ZM115.379 182.023V185.871H117.781V187.922H115.379V191.535H112.879V182.023H115.379ZM109.891 183.098V185.09H104.461V189.113C107.674 189.094 109.441 188.996 111.434 188.547L111.687 190.559C109.461 191.027 107.41 191.125 103.465 191.125H101.961V183.098H109.891ZM106.199 192.395V194.035H112.879V192.395H115.379V199.582H103.699V192.395H106.199ZM106.199 197.59H112.879V195.988H106.199V197.59ZM133.445 182.023V191.574H130.945V182.023H133.445ZM124.012 192.355V194.016H130.965V192.355H133.445V199.602H121.551V192.355H124.012ZM124.012 197.59H130.965V195.949H124.012V197.59ZM123.699 182.766C126.473 182.746 128.562 184.484 128.562 186.984C128.562 189.406 126.473 191.145 123.699 191.145C120.926 191.145 118.836 189.406 118.836 186.984C118.836 184.484 120.926 182.746 123.699 182.766ZM123.699 184.836C122.273 184.836 121.258 185.637 121.277 186.984C121.258 188.312 122.273 189.094 123.699 189.094C125.086 189.094 126.102 188.312 126.102 186.984C126.102 185.637 125.086 184.836 123.699 184.836ZM150.789 182.023V199.797H148.309V182.023H150.789ZM139.266 183.723V193.273C141.668 193.244 144.246 193.02 146.863 192.512L147.176 194.562C144.051 195.207 141.121 195.422 138.367 195.402H136.805V183.723H139.266ZM167.156 182.023V188.625H169.773V190.656H167.156V199.836H164.656V182.023H167.156ZM162.176 183.664V185.676H156.316V193.469C158.895 193.439 161.023 193.322 163.387 192.902L163.66 194.992C160.906 195.461 158.484 195.539 155.34 195.52H153.836V183.664H162.176ZM172.723 198.176C171.805 198.176 171.062 197.434 171.082 196.535C171.062 195.637 171.805 194.914 172.723 194.914C173.582 194.914 174.344 195.637 174.344 196.535C174.344 197.434 173.582 198.176 172.723 198.176Z" fill="black"/>
<path d="M32.6875 67.5831H27.625L35.4687 44.9581H41.5L49.3125 67.5831H44.2812L42.5937 62.3644H34.4062L32.6875 67.5831ZM35.5937 58.7081H41.4062L38.5625 50.0519H38.4062L35.5937 58.7081ZM58.625 67.9269C53.4375 67.9269 50.3125 64.3331 50.3125 59.1456C50.3125 53.9581 53.4687 50.3956 58.625 50.3956C63 50.3956 65.9687 52.9581 66.1562 56.8331H61.8125C61.5312 55.1456 60.4375 53.9894 58.6875 53.9894C56.4687 53.9894 55 55.8644 55 59.0831C55 62.3644 56.4375 64.2394 58.6875 64.2394C60.3125 64.2394 61.5312 63.2394 61.8125 61.4269H66.1562C65.9375 65.2706 63.125 67.9269 58.625 67.9269ZM80.25 73.9581V64.8644H80.0937C79.4375 66.2706 78.0312 67.8644 75.2812 67.8644C71.4062 67.8644 68.375 64.7706 68.375 59.1144C68.375 53.3019 71.5312 50.3956 75.2812 50.3956C78.125 50.3956 79.4687 52.0831 80.0937 53.4581H80.3125V50.6144H84.875V73.9581H80.25ZM76.7187 64.1769C79.0312 64.1769 80.3437 62.1456 80.3437 59.0831C80.3437 56.0206 79.0312 54.0831 76.7187 54.0831C74.375 54.0831 73.125 56.1144 73.125 59.0831C73.125 62.0831 74.375 64.1769 76.7187 64.1769ZM99.375 60.3644V50.6144H104V67.5831H99.5625V64.5206H99.375C98.5937 66.4894 96.7812 67.8019 94.2187 67.8019C90.8125 67.8019 88.5 65.3956 88.5 61.4269V50.6144H93.125V60.6144C93.125 62.6144 94.2812 63.8956 96.0937 63.8956C97.7812 63.8956 99.375 62.6769 99.375 60.3644ZM107.594 67.5831V50.6144H112.219V67.5831H107.594ZM109.906 48.3956C108.5 48.3956 107.375 47.3331 107.375 46.0519C107.375 44.7394 108.5 43.6769 109.906 43.6769C111.281 43.6769 112.406 44.7394 112.406 46.0519C112.406 47.3331 111.281 48.3956 109.906 48.3956ZM125.5 55.6456C125.312 54.4581 124.25 53.6769 122.719 53.6769C121.219 53.6769 120.062 54.3956 120.094 55.4269C120.062 56.1769 120.687 56.7706 122.281 57.1144L125.312 57.7394C128.594 58.4269 130.187 59.8956 130.219 62.3331C130.187 65.6769 127.187 67.9269 122.687 67.9269C118.094 67.9269 115.406 65.8644 115.031 62.5519H119.687C119.906 63.8956 121 64.5831 122.687 64.5831C124.375 64.5831 125.5 63.8956 125.5 62.8019C125.5 61.9269 124.781 61.3956 123.187 61.0519L120.375 60.4894C117.156 59.8644 115.469 58.1769 115.5 55.6769C115.469 52.4269 118.281 50.3956 122.656 50.3956C126.937 50.3956 129.594 52.4269 129.844 55.6456H125.5ZM133.062 67.5831V50.6144H137.687V67.5831H133.062ZM135.375 48.3956C133.969 48.3956 132.844 47.3331 132.844 46.0519C132.844 44.7394 133.969 43.6769 135.375 43.6769C136.75 43.6769 137.875 44.7394 137.875 46.0519C137.875 47.3331 136.75 48.3956 135.375 48.3956ZM150.219 50.6144V54.0831H147.031V62.3644C147.031 63.7081 147.687 64.0519 148.625 64.0831C149.094 64.0831 149.906 64.0519 150.469 63.9894V67.6456C149.969 67.7394 149.156 67.8019 148 67.8019C144.656 67.8019 142.375 66.3019 142.406 63.0206V54.0831H140.062V50.6144H142.406V46.5519H147.031V50.6144H150.219ZM153.125 67.5831V50.6144H157.75V67.5831H153.125ZM155.437 48.3956C154.031 48.3956 152.906 47.3331 152.906 46.0519C152.906 44.7394 154.031 43.6769 155.437 43.6769C156.812 43.6769 157.937 44.7394 157.937 46.0519C157.937 47.3331 156.812 48.3956 155.437 48.3956ZM168.969 67.9269C163.844 67.9269 160.656 64.3956 160.656 59.1456C160.656 53.8956 163.844 50.3956 168.969 50.3956C174.094 50.3956 177.312 53.8956 177.312 59.1456C177.312 64.3956 174.094 67.9269 168.969 67.9269ZM169 64.3331C171.375 64.3331 172.594 62.1144 172.594 59.1456C172.594 56.1456 171.375 53.9269 169 53.9269C166.594 53.9269 165.344 56.1456 165.344 59.1456C165.344 62.1144 166.594 64.3331 169 64.3331ZM184.844 57.7706V67.5831H180.219V50.6144H184.625V53.5831H184.812C185.594 51.6144 187.406 50.3956 189.906 50.3956C193.437 50.3956 195.781 52.8019 195.75 56.7706V67.5831H191.156V57.5831C191.156 55.4894 190 54.2394 188.094 54.2394C186.156 54.2394 184.844 55.5206 184.844 57.7706ZM214.344 67.9269C209.219 67.9269 206.031 64.3956 206.031 59.1456C206.031 53.8956 209.219 50.3956 214.344 50.3956C219.469 50.3956 222.687 53.8956 222.687 59.1456C222.687 64.3956 219.469 67.9269 214.344 67.9269ZM214.375 64.3331C216.75 64.3331 217.969 62.1144 217.969 59.1456C217.969 56.1456 216.75 53.9269 214.375 53.9269C211.969 53.9269 210.719 56.1456 210.719 59.1456C210.719 62.1144 211.969 64.3331 214.375 64.3331ZM240.781 50.6144L234.812 67.5831H229.625L223.687 50.6144H228.562L232.125 62.8019H232.312L235.875 50.6144H240.781ZM250.156 67.9269C244.969 67.9269 241.781 64.5519 241.781 59.1769C241.781 53.9269 245 50.3956 249.969 50.3956C254.437 50.3956 257.937 53.2081 257.937 58.9894V60.3019H246.344C246.344 62.8644 247.875 64.4581 250.25 64.4581C251.812 64.4581 252.937 63.7706 253.406 62.7394H257.812C257.156 65.8644 254.344 67.9269 250.156 67.9269ZM246.344 57.3956H253.562C253.562 55.3331 252.125 53.8644 250.062 53.8644C247.937 53.8644 246.422 55.4425 246.344 57.3956ZM260.844 67.5831V50.6144H265.312V53.5519H265.5C266.125 51.4581 267.687 50.3644 269.594 50.3644C270.062 50.3644 270.656 50.4269 271.062 50.5206V54.6456C270.625 54.5206 269.75 54.3956 269.094 54.3956C267 54.3956 265.469 55.8644 265.469 57.9269V67.5831H260.844ZM41.1875 93.4269C41 91.6456 39.5625 90.5831 37.2812 90.5831C34.9062 90.5831 33.5937 91.6769 33.5625 93.1769C33.5312 94.8019 35.25 95.5519 37.1875 95.9894L39.2187 96.4894C43.0937 97.3644 46 99.3331 46 103.114C46 107.271 42.75 109.896 37.25 109.896C31.7812 109.896 28.2812 107.364 28.1562 102.521H32.7187C32.875 104.802 34.6875 105.958 37.1875 105.958C39.6562 105.958 41.25 104.802 41.25 103.114C41.25 101.583 39.8437 100.864 37.375 100.239L34.9062 99.6456C31.0937 98.7081 28.75 96.8019 28.75 93.4894C28.75 89.3644 32.375 86.6456 37.3125 86.6456C42.3125 86.6456 45.625 89.4269 45.6875 93.4269H41.1875ZM57.9062 92.6144V96.0831H54.7187V104.364C54.7187 105.708 55.375 106.052 56.3125 106.083C56.7812 106.083 57.5937 106.052 58.1562 105.989V109.646C57.6562 109.739 56.8437 109.802 55.6875 109.802C52.3437 109.802 50.0625 108.302 50.0937 105.021V96.0831H47.75V92.6144H50.0937V88.5519H54.7187V92.6144H57.9062ZM71.6875 102.364V92.6144H76.3125V109.583H71.875V106.521H71.6875C70.9062 108.489 69.0937 109.802 66.5312 109.802C63.125 109.802 60.8125 107.396 60.8125 103.427V92.6144H65.4375V102.614C65.4375 104.614 66.5937 105.896 68.4062 105.896C70.0937 105.896 71.6875 104.677 71.6875 102.364ZM86.1562 109.864C82.2812 109.864 79.25 106.771 79.25 101.114C79.25 95.3019 82.4062 92.3956 86.1562 92.3956C89 92.3956 90.3437 94.0831 90.9687 95.4581H91.125V86.9581H95.75V109.583H91.1875V106.864H90.9687C90.3125 108.271 88.9062 109.864 86.1562 109.864ZM87.5937 106.177C89.9062 106.177 91.2187 104.146 91.2187 101.083C91.2187 98.0206 89.9062 96.0831 87.5937 96.0831C85.25 96.0831 84 98.1144 84 101.083C84 104.083 85.25 106.177 87.5937 106.177ZM102.187 115.958C101.281 115.958 100.437 115.927 99.8437 115.864V112.271C100.437 112.302 101.125 112.333 101.719 112.333C102.625 112.333 103.375 112.239 103.937 110.771L104.219 110.052L98.125 92.6144H102.969L106.531 105.114H106.719L110.312 92.6144H115.219L108.594 111.458C107.625 114.177 105.781 115.958 102.187 115.958ZM117.469 109.583V92.6144H122.094V109.583H117.469ZM119.781 90.3956C118.375 90.3956 117.25 89.3331 117.25 88.0519C117.25 86.7394 118.375 85.6769 119.781 85.6769C121.156 85.6769 122.281 86.7394 122.281 88.0519C122.281 89.3331 121.156 90.3956 119.781 90.3956ZM130.312 99.7706V109.583H125.687V92.6144H130.094V95.5831H130.281C131.062 93.6144 132.875 92.3956 135.375 92.3956C138.906 92.3956 141.25 94.8019 141.219 98.7706V109.583H136.625V99.5831C136.625 97.4894 135.469 96.2394 133.562 96.2394C131.625 96.2394 130.312 97.5206 130.312 99.7706ZM152.437 116.302C147.75 116.302 144.875 114.208 144.594 110.989H149.156C149.406 112.333 150.687 112.958 152.531 112.958C154.687 112.958 156.125 112.052 156.125 109.677V106.583H155.906C155.281 107.958 153.781 109.333 151.062 109.333C147.219 109.333 144.156 106.646 144.156 100.989C144.156 95.2394 147.312 92.3956 151.062 92.3956C153.906 92.3956 155.281 94.0831 155.906 95.4581H156.094V92.6144H160.687V109.771C160.687 114.083 157.25 116.302 152.437 116.302ZM152.5 105.864C154.812 105.864 156.125 104.052 156.125 101.052C156.125 98.0206 154.812 96.0831 152.5 96.0831C150.156 96.0831 148.906 98.1144 148.906 101.052C148.906 103.989 150.156 105.864 152.5 105.864Z" fill="url(#paint1_linear_525_855)"/>
<path d="M31.3906 245.219C32.5625 245.211 33.5625 245.648 34.2031 246.391H37.8437V244.375H39.0781V252.609H37.8437V250.625H34.2187C33.5625 251.367 32.5625 251.805 31.3906 251.797C29.3125 251.812 27.7812 250.453 27.7812 248.516C27.7812 246.562 29.3125 245.203 31.3906 245.219ZM31.3906 246.281C29.9687 246.266 28.9531 247.203 28.9531 248.516C28.9531 249.812 29.9687 250.75 31.3906 250.75C32.7656 250.75 33.7969 249.812 33.7969 248.516C33.7969 247.203 32.7656 246.266 31.3906 246.281ZM34.4687 252.937C37.3437 252.937 39.125 253.906 39.125 255.578C39.125 257.266 37.3437 258.234 34.4687 258.234C31.5781 258.234 29.8125 257.266 29.8125 255.578C29.8125 253.906 31.5781 252.937 34.4687 252.937ZM34.4687 253.891C32.3437 253.891 31.0156 254.531 31.0156 255.578C31.0156 256.625 32.3437 257.25 34.4687 257.25C36.6094 257.25 37.9219 256.625 37.9219 255.578C37.9219 254.531 36.6094 253.891 34.4687 253.891ZM34.7969 247.391C34.9141 247.734 34.9844 248.109 34.9844 248.516C34.9844 248.906 34.9141 249.273 34.7969 249.609H37.8437V247.391H34.7969ZM45.125 245.453C47.0156 245.469 48.375 247.086 48.5781 249.687H51.6875V244.375H52.9062V258.297H51.6875V250.703H48.5937C48.4453 253.422 47.0625 255.125 45.125 255.125C43.0781 255.125 41.6406 253.25 41.6406 250.297C41.6406 247.344 43.0781 245.469 45.125 245.453ZM45.125 246.547C43.75 246.562 42.8125 248.031 42.8125 250.297C42.8125 252.562 43.75 254.031 45.125 254.031C46.4844 254.031 47.4375 252.562 47.4375 250.297C47.4375 248.031 46.4844 246.562 45.125 246.547ZM66.4531 248.594V249.578H56.9375V244.891H58.1562V248.594H66.4531ZM67.9219 251.469V252.469H55.2031V251.469H67.9219ZM66.5312 256.906V257.922H56.8594V253.891H58.0781V256.906H66.5312ZM79.3437 253.156C82.3281 253.156 84.2187 254.094 84.2187 255.703C84.2187 257.297 82.3281 258.234 79.3437 258.234C76.375 258.234 74.4844 257.297 74.4844 255.703C74.4844 254.094 76.375 253.156 79.3437 253.156ZM79.3437 254.094C77.125 254.109 75.6875 254.719 75.7031 255.703C75.6875 256.672 77.125 257.266 79.3437 257.266C81.5625 257.266 82.9844 256.672 83 255.703C82.9844 254.719 81.5625 254.109 79.3437 254.094ZM84.1094 245.094V246.266C84.1094 247.391 84.1094 248.516 83.7187 249.953L82.5156 249.812C82.8906 248.375 82.8906 247.359 82.8906 246.266V246.094H74.5781V245.094H84.1094ZM85.7187 250.859V251.859H73.0781V250.859H78.3125V248.172H79.5156V250.859H85.7187ZM99.5937 252.625V253.625H93.7969V258.266H92.5937V253.625H86.875V252.625H99.5937ZM89.7187 244.953V246.875H96.7187V244.953H97.9531V250.937H88.5V244.953H89.7187ZM89.7187 249.937H96.7187V247.875H89.7187V249.937ZM111.469 244.375V250.109H113.797V251.125H111.469V258.266H110.25V244.375H111.469ZM108.906 246.609V247.625H100.641V246.609H104.219V244.547H105.437V246.609H108.906ZM104.844 248.781C106.812 248.781 108.234 250.094 108.25 251.969C108.234 253.844 106.812 255.156 104.844 255.156C102.859 255.156 101.422 253.844 101.437 251.969C101.422 250.094 102.859 248.781 104.844 248.781ZM104.844 249.812C103.547 249.812 102.594 250.719 102.609 251.969C102.594 253.234 103.547 254.125 104.844 254.109C106.125 254.125 107.062 253.234 107.078 251.969C107.062 250.719 106.125 249.812 104.844 249.812ZM125.781 248.594V249.578H116.266V244.891H117.484V248.594H125.781ZM127.25 251.469V252.469H114.531V251.469H127.25ZM125.859 256.906V257.922H116.187V253.891H117.406V256.906H125.859ZM143.906 244.391V253.797H142.672V249.328H139.625V248.297H142.672V244.391H143.906ZM139.562 245.484C139.547 249.047 137.172 251.609 133.172 252.891L132.625 251.906C135.945 250.883 137.992 248.953 138.25 246.484H133.312V245.484H139.562ZM140 253.219C140 255.25 142.219 256.766 144.672 257.203L144.156 258.187C142.109 257.789 140.227 256.719 139.406 255.094C138.555 256.727 136.648 257.812 134.578 258.219L134.078 257.25C136.531 256.828 138.781 255.266 138.797 253.219V252.578H140V253.219ZM157.672 244.375V258.297H156.437V244.375H157.672ZM150.281 245.453C152.344 245.469 153.828 247.344 153.828 250.297C153.828 253.25 152.344 255.125 150.281 255.125C148.203 255.125 146.734 253.25 146.734 250.297C146.734 247.344 148.203 245.469 150.281 245.453ZM150.281 246.547C148.891 246.562 147.922 248.031 147.922 250.297C147.922 252.562 148.891 254.031 150.281 254.031C151.672 254.031 152.641 252.562 152.641 250.297C152.641 248.031 151.672 246.562 150.281 246.547ZM167.781 245.453C169.828 245.469 171.281 247.344 171.297 250.297C171.281 253.25 169.828 255.125 167.781 255.125C165.719 255.125 164.281 253.25 164.281 250.297C164.281 247.344 165.719 245.469 167.781 245.453ZM167.781 246.547C166.406 246.562 165.437 248.031 165.437 250.297C165.437 252.562 166.406 254.031 167.781 254.031C169.172 254.031 170.109 252.562 170.109 250.297C170.109 248.031 169.172 246.562 167.781 246.547ZM174.812 244.375V249.922H177.141V250.984H174.812V258.266H173.594V244.375H174.812ZM189.344 244.375V258.266H188.125V244.375H189.344ZM180 245.75V253.625C182.117 253.617 184.312 253.445 186.641 252.953L186.812 254C184.344 254.516 182.141 254.687 179.922 254.687H178.797V245.75H180ZM202.469 244.375V249.906H204.797V250.937H202.469V258.297H201.25V244.375H202.469ZM198.578 245.672V250.641H193.516V253.891C196.094 253.891 197.891 253.805 200 253.406L200.125 254.422C197.937 254.828 196.078 254.922 193.406 254.937H192.297V249.625H197.359V246.687H192.266V245.672H198.578ZM207.828 255.953L206.609 260.203H205.453L206.312 255.953H207.828ZM40.2656 277.484V278.5H34.6094V281.344H33.3906V278.5H27.5469V277.484H40.2656ZM38.6094 271.062V275.891H29.2031V271.062H38.6094ZM30.4062 272.031V274.906H37.3906V272.031H30.4062ZM38.8437 282.937V283.969H29.1719V279.969H30.4062V282.937H38.8437ZM53.1875 270.391V278.656H52.0156V274.984H50.1719V278.562H49.0156V270.656H50.1719V273.969H52.0156V270.391H53.1875ZM53.1875 279.437V284.266H51.9844V280.422H43.8281V279.437H53.1875ZM47.4062 271.578V277.594H42.0312V271.578H47.4062ZM43.1875 272.547V276.641H46.2656V272.547H43.1875ZM71.9375 277.359V278.375H59.2344V277.359H64.9531V275.219H66.1562V277.359H71.9375ZM66.1719 271.25C66.1719 273.094 68.6719 274.641 71.125 274.984L70.625 275.969C68.5156 275.602 66.4297 274.484 65.5625 272.875C64.6875 274.492 62.5937 275.602 60.4687 275.969L60 274.984C62.4531 274.641 64.9375 273.094 64.9375 271.25V270.594H66.1719V271.25ZM70.3281 279.734V284.266H69.0937V280.719H60.6406V279.734H70.3281ZM87.9375 270.391V274.594H90.0312V275.625H87.9375V280.594H86.7187V270.391H87.9375ZM88.5781 282.937V283.969H79.25V279.594H80.4531V282.937H88.5781ZM78.875 271.391V273.734H82.9219V271.391H84.1406V278.25H77.6719V271.391H78.875ZM78.875 277.25H82.9219V274.703H78.875V277.25ZM103.562 277.562V278.578H90.9062V277.562H96.625V275.891H92.5937V270.703H93.8125V272.312H100.687V270.703H101.906V275.891H97.8437V277.562H103.562ZM102 279.953V284.266H100.766V280.937H92.3125V279.953H102ZM93.8125 274.906H100.687V273.25H93.8125V274.906ZM120 276.703V277.734H115.687V281.437H121.469V282.453H108.75V281.437H114.469V277.734H110.312V271.562H111.562V276.703H120ZM135.234 276.562V277.516H129.5V278.812H133.609V281.812H125.359V283.172H134.031V284.109H124.141V280.937H132.406V279.734H124.109V278.812H128.297V277.516H122.594V276.562H135.234ZM129.5 270.297V271.594H133.953V272.562H129.594C129.82 273.945 131.992 274.82 134.547 274.984L134.172 275.922C131.852 275.727 129.758 275.008 128.906 273.687C128.055 275.008 125.961 275.727 123.625 275.922L123.266 274.984C125.805 274.82 127.977 273.945 128.219 272.562H123.891V271.594H128.297V270.297H129.5ZM149.125 281.516V282.547H136.406V281.516H142.125V278.891H138V274.609H146.312V272.422H137.969V271.406H147.516V275.609H139.219V277.875H147.844V278.891H143.328V281.516H149.125ZM158.953 274.641C158.937 276.875 160.547 279.328 162.562 280.281L161.859 281.25C160.297 280.492 158.977 278.836 158.359 276.953C157.719 279 156.32 280.797 154.766 281.594L154.016 280.625C156.016 279.656 157.734 277.016 157.75 274.641V272.828H154.516V271.812H162.078V272.828H158.953V274.641ZM165 270.375V276H167.328V277.047H165V284.266H163.781V270.375H165ZM179.594 270.391V280.656H178.359V276.906H174.766C174.125 277.727 173.094 278.219 171.906 278.219C169.828 278.219 168.297 276.781 168.297 274.75C168.297 272.719 169.828 271.281 171.906 271.266C173.086 271.273 174.094 271.758 174.75 272.562H178.359V270.391H179.594ZM179.984 282.937V283.969H170.672V279.578H171.906V282.937H179.984ZM171.906 272.359C170.484 272.375 169.469 273.359 169.469 274.75C169.469 276.141 170.484 277.125 171.906 277.125C173.266 277.125 174.312 276.141 174.312 274.75C174.312 273.359 173.266 272.375 171.906 272.359ZM175.312 273.578C175.43 273.937 175.5 274.328 175.5 274.75C175.5 275.156 175.43 275.539 175.312 275.891H178.359V273.578H175.312ZM188.828 272.422C188.828 274.797 191.547 276.922 193.969 277.375L193.406 278.406C191.312 277.922 189.102 276.43 188.203 274.375C187.305 276.422 185.102 277.914 183 278.406L182.437 277.375C184.844 276.906 187.547 274.812 187.547 272.422V271.359H188.828V272.422ZM194.625 281.359V282.375H181.906V281.359H194.625ZM207.25 270.391V278.016H206.016V274.297H203.375V273.281H206.016V270.391H207.25ZM199.375 278.672V280.375H206.031V278.672H207.25V284.078H198.156V278.672H199.375ZM199.375 283.078H206.031V281.359H199.375V283.078ZM202.484 270.969V274.719H197.547V276.641C199.836 276.633 201.555 276.555 203.641 276.219L203.75 277.25C201.562 277.578 199.781 277.656 197.375 277.656H196.328V273.766H201.297V271.969H196.297V270.969H202.484ZM221.453 270.375V284.266H220.281V270.375H221.453ZM218.531 270.75V283.562H217.359V277.078H214.422C213.57 278.695 212.234 280.125 210.297 281.266L209.578 280.375C212.602 278.586 214.117 276.078 214.344 273.172H210.172V272.156H215.562C215.555 273.523 215.336 274.844 214.875 276.078H217.359V270.75H218.531ZM227.422 275.937L228.641 271.687H229.797L228.937 275.937H227.422ZM233.766 278.719V280.344H240.703V278.719H241.937V284.078H232.547V278.719H233.766ZM233.766 283.094H240.703V281.312H233.766V283.094ZM243.594 276.719V277.734H230.937V276.719H243.594ZM237.906 271.187C237.906 272.906 240.437 274.437 242.875 274.75L242.422 275.734C240.266 275.414 238.156 274.312 237.281 272.75C236.391 274.32 234.266 275.414 232.125 275.734L231.656 274.75C234.125 274.422 236.641 272.953 236.641 271.187V270.531H237.906V271.187ZM257.437 277.141V278.156H244.766V277.141H257.437ZM255.875 279.828V284.344H254.656V280.828H246.172V279.828H255.875ZM255.984 274.594V275.594H246.375V270.922H255.859V271.922H247.594V274.594H255.984ZM260.984 271.703L259.766 275.953H258.609L259.469 271.703H260.984ZM269.062 272.781V273.781H262.094V272.781H264.984V270.797H266.203V272.781H269.062ZM265.578 274.719C267.328 274.719 268.578 276.031 268.594 277.875C268.578 279.734 267.328 281.062 265.578 281.062C263.844 281.062 262.594 279.734 262.594 277.875C262.594 276.031 263.844 274.719 265.578 274.719ZM265.578 275.75C264.484 275.766 263.687 276.656 263.687 277.875C263.687 279.109 264.484 280 265.578 279.984C266.687 280 267.5 279.109 267.5 277.875C267.5 276.656 266.687 275.766 265.578 275.75ZM273.953 270.375V284.266H272.781V277.25H270.937V283.578H269.781V270.719H270.937V276.234H272.781V270.375H273.953ZM279.672 271.453C281.719 271.469 283.172 273.344 283.187 276.297C283.172 279.25 281.719 281.125 279.672 281.125C277.609 281.125 276.172 279.25 276.172 276.297C276.172 273.344 277.609 271.469 279.672 271.453ZM279.672 272.547C278.297 272.562 277.328 274.031 277.328 276.297C277.328 278.562 278.297 280.031 279.672 280.031C281.062 280.031 282 278.562 282 276.297C282 274.031 281.062 272.562 279.672 272.547ZM288.953 273.875V274.922H286.703V278.016H288.953V279.047H286.703V284.266H285.484V270.375H286.703V273.875H288.953ZM304.656 270.375V273.937H306.75V274.984H304.656V278.453H303.437V270.375H304.656ZM297.094 279.062V280.547H303.437V279.062H304.656V284.078H295.875V279.062H297.094ZM297.094 283.094H303.437V281.516H297.094V283.094ZM302.109 271.812V272.828H293.828V271.812H297.359V270.25H298.578V271.812H302.109ZM297.969 273.469C299.969 273.469 301.297 274.422 301.312 275.906C301.297 277.391 299.969 278.344 297.969 278.344C295.953 278.344 294.609 277.391 294.625 275.906C294.609 274.422 295.953 273.469 297.969 273.469ZM297.969 274.422C296.656 274.406 295.781 275.016 295.797 275.906C295.781 276.812 296.656 277.406 297.969 277.406C299.266 277.406 300.141 276.812 300.156 275.906C300.141 275.016 299.266 274.406 297.969 274.422ZM319.078 270.375V284.266H317.859V270.375H319.078ZM309.734 271.75V279.625C311.852 279.617 314.047 279.445 316.375 278.953L316.547 280C314.078 280.516 311.875 280.687 309.656 280.687H308.531V271.75H309.734ZM332.203 270.375V275.875H334.531V276.906H332.203V284.297H330.984V270.375H332.203ZM328.547 271.734V272.75H323.281V279.781C325.797 279.781 327.578 279.664 329.641 279.281L329.797 280.344C327.625 280.734 325.797 280.812 323.156 280.812H322.062V271.734H328.547ZM336.75 283.094C336.203 283.094 335.734 282.641 335.75 282.078C335.734 281.531 336.203 281.078 336.75 281.078C337.297 281.078 337.75 281.531 337.75 282.078C337.75 282.641 337.297 283.094 336.75 283.094ZM35.5469 297.891V298.906H34V305.594C34.75 305.539 35.4922 305.477 36.2031 305.391L36.2656 306.297C33.3281 306.766 30 306.812 27.5469 306.828L27.3906 305.781L29.2656 305.766V298.906H27.7344V297.891H35.5469ZM38.3125 296.375V301.953H40.6406V302.984H38.3125V310.266H37.0937V296.375H38.3125ZM30.4531 305.75C31.2266 305.734 32.0312 305.703 32.8281 305.656V298.906H30.4531V305.75ZM52.9062 296.375V306.719H51.6719V302.687H49.2969V301.656H51.6719V300.047H49.2969V299.031H51.6719V296.375H52.9062ZM49.1875 297.516V298.516H47.7656V303.375C48.4141 303.336 49.0391 303.289 49.6406 303.219L49.7031 304.141C47 304.562 43.8281 304.609 41.5781 304.609L41.4219 303.562L43.2187 303.547V298.516H41.8125V297.516H49.1875ZM53.2812 308.937V309.969H43.9531V305.859H45.1875V308.937H53.2812ZM44.4062 303.516C45.1172 303.508 45.8516 303.484 46.5781 303.453V298.516H44.4062V303.516ZM60.0469 298.937C60.0469 300.75 61.4375 302.469 63.4687 303.172L62.8281 304.141C61.2578 303.578 60.0469 302.414 59.4531 300.984C58.8516 302.586 57.5703 303.867 55.9219 304.469L55.2812 303.5C57.3281 302.766 58.8125 300.906 58.8125 298.953V298.344H55.6719V297.344H63.1562V298.344H60.0469V298.937ZM66.7344 305.437V310.266H65.5V306.453H57.3906V305.437H66.7344ZM66.7344 296.375V304.703H65.5V301.047H62.7187V300.016H65.5V296.375H66.7344ZM80.5156 296.391V306.547H79.2969V296.391H80.5156ZM80.9531 308.937V309.969H71.5469V305.516H72.7656V308.937H80.9531ZM73.0156 297.359C75.0937 297.359 76.6562 298.766 76.6562 300.766C76.6562 302.797 75.0937 304.187 73.0156 304.187C70.9375 304.187 69.375 302.797 69.375 300.766C69.375 298.766 70.9375 297.359 73.0156 297.359ZM73.0156 298.437C71.6094 298.437 70.5625 299.406 70.5781 300.766C70.5625 302.156 71.6094 303.109 73.0156 303.109C74.3906 303.109 75.4531 302.156 75.4531 300.766C75.4531 299.406 74.3906 298.437 73.0156 298.437ZM93.1719 305.156C96.1562 305.156 98.0469 306.094 98.0469 307.703C98.0469 309.297 96.1562 310.234 93.1719 310.234C90.2031 310.234 88.3125 309.297 88.3125 307.703C88.3125 306.094 90.2031 305.156 93.1719 305.156ZM93.1719 306.094C90.9531 306.109 89.5156 306.719 89.5312 307.703C89.5156 308.672 90.9531 309.266 93.1719 309.266C95.3906 309.266 96.8125 308.672 96.8281 307.703C96.8125 306.719 95.3906 306.109 93.1719 306.094ZM97.9375 297.094V298.266C97.9375 299.391 97.9375 300.516 97.5469 301.953L96.3437 301.812C96.7187 300.375 96.7187 299.359 96.7187 298.266V298.094H88.4062V297.094H97.9375ZM99.5469 302.859V303.859H86.9062V302.859H92.1406V300.172H93.3437V302.859H99.5469ZM113.422 304.625V305.625H107.625V310.266H106.422V305.625H100.703V304.625H113.422ZM103.547 296.953V298.875H110.547V296.953H111.781V302.937H102.328V296.953H103.547ZM103.547 301.937H110.547V299.875H103.547V301.937ZM121.562 297.641V304.031H115.141V297.641H121.562ZM116.344 298.641V303.047H120.375V298.641H116.344ZM125.406 296.375V300.609H127.5V301.641H125.406V306.562H124.187V296.375H125.406ZM126.047 308.937V309.969H116.719V305.594H117.922V308.937H126.047ZM134.703 297.281C137.609 297.281 139.781 298.797 139.781 301.094C139.781 303.406 137.609 304.922 134.703 304.906C131.797 304.922 129.625 303.406 129.625 301.094C129.625 298.797 131.797 297.281 134.703 297.281ZM134.703 298.281C132.469 298.266 130.781 299.437 130.797 301.094C130.781 302.781 132.469 303.906 134.703 303.906C136.922 303.906 138.594 302.781 138.594 301.094C138.594 299.437 136.922 298.266 134.703 298.281ZM141.094 307.391V308.422H128.375V307.391H141.094ZM154.922 307.516V308.547H142.203V307.516H147.922V304.891H143.797V300.609H152.109V298.422H143.766V297.406H153.312V301.609H145.016V303.875H153.641V304.891H149.125V307.516H154.922ZM167.266 300.594V301.578H157.75V296.891H158.969V300.594H167.266ZM168.734 303.469V304.469H156.016V303.469H168.734ZM167.344 308.906V309.922H157.672V305.891H158.891V308.906H167.344ZM177.703 297.219C178.875 297.211 179.875 297.648 180.516 298.391H184.156V296.375H185.391V304.609H184.156V302.625H180.531C179.875 303.367 178.875 303.805 177.703 303.797C175.625 303.812 174.094 302.453 174.094 300.516C174.094 298.562 175.625 297.203 177.703 297.219ZM177.703 298.281C176.281 298.266 175.266 299.203 175.266 300.516C175.266 301.812 176.281 302.75 177.703 302.75C179.078 302.75 180.109 301.812 180.109 300.516C180.109 299.203 179.078 298.266 177.703 298.281ZM180.781 304.937C183.656 304.937 185.437 305.906 185.437 307.578C185.437 309.266 183.656 310.234 180.781 310.234C177.891 310.234 176.125 309.266 176.125 307.578C176.125 305.906 177.891 304.937 180.781 304.937ZM180.781 305.891C178.656 305.891 177.328 306.531 177.328 307.578C177.328 308.625 178.656 309.25 180.781 309.25C182.922 309.25 184.234 308.625 184.234 307.578C184.234 306.531 182.922 305.891 180.781 305.891ZM181.109 299.391C181.227 299.734 181.297 300.109 181.297 300.516C181.297 300.906 181.227 301.273 181.109 301.609H184.156V299.391H181.109ZM191.437 297.453C193.328 297.469 194.687 299.086 194.891 301.687H198V296.375H199.219V310.297H198V302.703H194.906C194.758 305.422 193.375 307.125 191.437 307.125C189.391 307.125 187.953 305.25 187.953 302.297C187.953 299.344 189.391 297.469 191.437 297.453ZM191.437 298.547C190.062 298.562 189.125 300.031 189.125 302.297C189.125 304.562 190.062 306.031 191.437 306.031C192.797 306.031 193.75 304.562 193.75 302.297C193.75 300.031 192.797 298.562 191.437 298.547ZM212.281 296.375V302.031H214.531V303.062H212.281V310.266H211.062V296.375H212.281ZM208.687 297.875C208.687 301.812 206.844 305.391 202.312 307.625L201.625 306.656C205.219 304.867 207.172 302.195 207.453 298.906H202.266V297.875H208.687ZM230.578 299.719V300.734H221.094V296.609H222.297V299.719H230.578ZM232.078 302.109V303.109H219.359V302.109H232.078ZM230.437 304.359V307.609H222.219V309.094H230.937V310.078H220.984V306.672H229.234V305.328H220.953V304.359H230.437ZM238.172 300.641C238.172 303 239.891 305.391 241.937 306.281L241.25 307.25C239.625 306.508 238.219 304.906 237.578 302.984C236.922 305.023 235.523 306.797 233.937 307.594L233.203 306.625C235.187 305.672 236.922 303.047 236.937 300.641V298.828H233.656V297.812H241.484V298.828H238.172V300.641ZM244.656 296.375V310.266H243.422V296.375H244.656ZM254.922 297.172C257 297.172 258.531 298.5 258.531 300.375C258.531 302.266 257 303.578 254.922 303.594C252.844 303.578 251.297 302.266 251.312 300.375C251.297 298.5 252.844 297.172 254.922 297.172ZM254.922 298.203C253.562 298.203 252.5 299.125 252.516 300.375C252.5 301.656 253.562 302.578 254.922 302.578C256.297 302.578 257.328 301.656 257.328 300.375C257.328 299.125 256.297 298.203 254.922 298.203ZM261.906 296.375V299.516H264V300.531H261.906V303.328H260.687V296.375H261.906ZM253.719 304.828V308.875C254.523 308.852 255.594 308.734 256.578 308.406L256.766 309.391C255.406 309.844 254.094 309.891 253.187 309.891H252.531V304.828H253.719ZM263.297 304.891V305.844H256.281V304.891H259.203V303.656H260.406V304.891H263.297ZM259.781 306.312C261.297 306.312 262.375 307.078 262.391 308.281C262.375 309.484 261.297 310.234 259.781 310.234C258.25 310.234 257.187 309.484 257.203 308.281C257.187 307.078 258.25 306.312 259.781 306.312ZM259.781 307.203C258.922 307.203 258.297 307.641 258.297 308.281C258.297 308.937 258.922 309.359 259.781 309.359C260.656 309.359 261.266 308.937 261.266 308.281C261.266 307.641 260.656 307.203 259.781 307.203ZM267.703 304.719V306.344H274.641V304.719H275.875V310.078H266.484V304.719H267.703ZM267.703 309.094H274.641V307.312H267.703V309.094ZM277.531 302.719V303.734H264.875V302.719H277.531ZM271.844 297.187C271.844 298.906 274.375 300.437 276.812 300.75L276.359 301.734C274.203 301.414 272.094 300.312 271.219 298.75C270.328 300.32 268.203 301.414 266.062 301.734L265.594 300.75C268.062 300.422 270.578 298.953 270.578 297.187V296.531H271.844V297.187ZM290.156 296.375V310.266H288.937V296.375H290.156ZM280.812 297.75V305.625C282.93 305.617 285.125 305.445 287.453 304.953L287.625 306C285.156 306.516 282.953 306.687 280.734 306.687H279.609V297.75H280.812ZM303.281 296.375V301.875H305.609V302.906H303.281V310.297H302.062V296.375H303.281ZM299.625 297.734V298.75H294.359V305.781C296.875 305.781 298.656 305.664 300.719 305.281L300.875 306.344C298.703 306.734 296.875 306.812 294.234 306.812H293.141V297.734H299.625ZM307.828 309.094C307.281 309.094 306.812 308.641 306.828 308.078C306.812 307.531 307.281 307.078 307.828 307.078C308.375 307.078 308.828 307.531 308.828 308.078C308.828 308.641 308.375 309.094 307.828 309.094Z" fill="black"/>
<path d="M28 221H350" stroke="url(#paint2_linear_525_855)"/>
<defs>
<filter id="filter0_i_525_855" x="0" y="0.321289" width="378" height="453" filterUnits="userSpaceOnUse" color-interpolation-filters="sRGB">
<feFlood flood-opacity="0" result="BackgroundImageFix"/>
<feBlend mode="normal" in="SourceGraphic" in2="BackgroundImageFix" result="shape"/>
<feColorMatrix in="SourceAlpha" type="matrix" values="0 0 0 0 0 0 0 0 0 0 0 0 0 0 0 0 0 0 127 0" result="hardAlpha"/>
<feOffset dx="4" dy="4"/>
<feGaussianBlur stdDeviation="1"/>
<feComposite in2="hardAlpha" operator="arithmetic" k2="-1" k3="1"/>
<feColorMatrix type="matrix" values="0 0 0 0 1 0 0 0 0 1 0 0 0 0 1 0 0 0 0.25 0"/>
<feBlend mode="normal" in2="shape" result="effect1_innerShadow_525_855"/>
</filter>
<linearGradient id="paint0_linear_525_855" x1="-17.3604" y1="-7.94311" x2="340.771" y2="488.539" gradientUnits="userSpaceOnUse">
<stop stop-color="#3182F6"/>
<stop offset="1" stop-color="#A009FF"/>
</linearGradient>
<linearGradient id="paint1_linear_525_855" x1="27" y1="35.5831" x2="288.25" y2="149.254" gradientUnits="userSpaceOnUse">
<stop stop-color="#3182F6"/>
<stop offset="1" stop-color="#A009FF"/>
</linearGradient>
<linearGradient id="paint2_linear_525_855" x1="27.709" y1="221.5" x2="475.866" y2="221.496" gradientUnits="userSpaceOnUse">
<stop stop-color="#3182F6"/>
<stop offset="1" stop-color="#A009FF"/>
</linearGradient>
</defs>
</svg>
