<svg width="800" height="260" viewBox="0 0 800 260" fill="none" xmlns="http://www.w3.org/2000/svg">
<rect x="0.5" y="0.5" width="799" height="259" rx="14.5" fill="white" stroke="url(#paint0_linear_590_1003)"/>
<path d="M304.145 81.0957C302.668 81.0957 301.455 79.8828 301.455 78.3799C301.455 76.9033 302.668 75.6904 304.145 75.6904C305.647 75.6904 306.86 76.9033 306.86 78.3799C306.86 79.8828 305.647 81.0957 304.145 81.0957ZM346.912 83.5479V85.2617H325.449V83.5479H331.435V77.958H327.4V76.2441H331.065V68.5977H327.348V66.8838H344.855V68.5977H341.138V76.2441H344.803V77.958H340.769V83.5479H346.912ZM333.122 76.2441H339.107V68.5977H333.122V76.2441ZM333.518 83.5479H338.712V77.958H333.518V83.5479ZM360.808 67.6221C360.781 70.4961 364.736 72.8428 368.876 73.4229L368.059 75.0576C364.275 74.5171 360.742 72.6187 359.463 69.8633C358.197 72.6187 354.677 74.5171 350.867 75.0576L350.103 73.4229C354.242 72.8428 358.118 70.4961 358.118 67.6221V67.5693H350.735V65.8818H368.243V67.5693H360.808V67.6221ZM370.221 76.7715V78.4854H360.676V83.2842H358.619V78.4854H348.758V76.7715H370.221ZM367.821 85.8945V87.6348H351.5V80.9375H353.583V85.8945H367.821ZM390.312 64.6953V74.6885H394.057V76.4287H390.312V88.1357H388.229V64.6953H390.312ZM371.829 81.8867C373.741 81.8867 375.969 81.8867 378.289 81.8076V79.1973C375.56 78.894 373.78 77.2988 373.807 74.9785C373.78 72.3418 376.021 70.6279 379.344 70.6279C382.613 70.6279 384.881 72.3418 384.907 74.9785C384.881 77.2988 383.075 78.894 380.372 79.2236V81.7285C382.561 81.623 384.762 81.4517 386.806 81.1484L386.938 82.7305C381.822 83.6006 376.285 83.6533 372.172 83.6533L371.829 81.8867ZM386.384 67.5693V69.2568H372.251V67.5693H378.289V64.748H380.372V67.5693H386.384ZM379.344 72.2363C377.182 72.2363 375.731 73.3438 375.731 74.9785C375.731 76.6133 377.182 77.668 379.344 77.6416C381.479 77.668 382.93 76.6133 382.93 74.9785C382.93 73.3438 381.479 72.2363 379.344 72.2363ZM409.086 72.3945V74.082H404.34V77.3516C406.528 77.2593 408.717 77.1011 410.747 76.877L410.905 78.4062C405.869 79.0918 400.279 79.25 395.876 79.25L395.56 77.5625C397.616 77.5493 399.923 77.5229 402.283 77.4307V74.082H397.695V66.2246H408.901V67.9385H399.778V72.3945H409.086ZM414.781 64.7217V82.2559H412.698V64.7217H414.781ZM415.546 85.8945V87.6348H399.567V81.043H401.624V85.8945H415.546ZM444.919 64.7217V81.9131H442.862V64.7217H444.919ZM445.657 85.8945V87.6348H429.784V80.3311H431.841V85.8945H445.657ZM433.871 68.3867C433.845 71.9463 436.297 75.1631 439.777 76.4287L438.696 78.0898C435.98 77.0483 433.871 74.939 432.843 72.2363C431.801 75.1104 429.666 77.4175 426.937 78.5117L425.803 76.9033C429.362 75.5322 431.762 72.0781 431.762 68.3867V66.04H433.871V68.3867ZM467.305 66.2246V68.0176C467.305 70.127 467.305 72.7373 466.646 76.4551H470.258V78.1689H464.615V88.1357H462.559V78.1689H456.547V88.1357H454.49V78.1689H448.9V76.4551H464.536C465.301 72.7637 465.301 70.1138 465.301 68.0176V67.9385H451.643V66.2246H467.305ZM497.337 64.6953V70.8125H500.87V72.5264H497.337V78.7754H495.28V64.6953H497.337ZM490.956 66.4355C490.956 72.3945 486.737 76.7979 479.908 78.8018L479.038 77.1143C484.694 75.4795 488.306 72.2231 488.741 68.1494H480.066V66.4355H490.956ZM489.928 79.0391C494.647 79.0391 497.601 80.7529 497.601 83.5479C497.601 86.3955 494.647 88.083 489.928 88.083C485.261 88.083 482.229 86.3955 482.255 83.5479C482.229 80.7529 485.261 79.0391 489.928 79.0391ZM489.928 80.7002C486.5 80.6738 484.285 81.7812 484.312 83.5479C484.285 85.3145 486.5 86.4219 489.928 86.4219C493.382 86.4219 495.597 85.3145 495.597 83.5479C495.597 81.7812 493.382 80.6738 489.928 80.7002ZM510.204 70.9971C510.204 75.1367 512.946 79.3818 516.269 81.0166L515.003 82.6777C512.419 81.3198 510.257 78.5513 509.229 75.2949C508.174 78.7622 505.959 81.7153 503.322 83.126L502.004 81.4648C505.432 79.7773 508.147 75.2686 508.174 70.9971V66.7256H510.204V70.9971ZM520.487 64.6953V74.2139H524.416V76.0068H520.487V88.1357H518.431V64.6953H520.487ZM551.284 67.0684V69.6787C551.284 72.6846 551.284 75.7168 550.44 80.0674L548.41 79.8301C549.254 75.6904 549.254 72.6055 549.254 69.6787V68.7822H534.699V67.0684H551.284ZM553.815 83.0996V84.8135H532.458V83.0996H537.758V75.374H539.814V83.0996H543.611V75.374H545.642V83.0996H553.815ZM577.15 76.0068V77.6943H571.455V80.6738H574.514V88.1357H572.431V82.335H558.166V80.6738H561.462V77.6943H555.793V76.0068H577.15ZM566.472 65.2754C571.561 65.249 574.751 66.9365 574.751 69.7314C574.751 72.5527 571.561 74.2402 566.472 74.2139C561.383 74.2402 558.166 72.5527 558.166 69.7314C558.166 66.9365 561.383 65.249 566.472 65.2754ZM566.472 66.9365C562.675 66.9102 560.275 67.9912 560.302 69.7314C560.275 71.5244 562.675 72.6055 566.472 72.6055C570.216 72.6055 572.642 71.5244 572.642 69.7314C572.642 67.9912 570.216 66.9102 566.472 66.9365ZM563.545 80.6738H569.425V77.6943H563.545V80.6738ZM607.367 83.3633V85.1299H585.904V83.3633H607.367ZM605.311 67.0684V68.7822H601.593V76.9824H605.258V78.6699H587.855V76.9824H591.521V68.7822H587.803V67.0684H605.311ZM593.577 76.9824H599.562V68.7822H593.577V76.9824ZM630.702 83.4951V85.2354H609.239V83.4951H618.89V79.0654H611.929V71.8408H625.956V68.1494H611.876V66.4355H627.986V73.5283H613.985V77.3516H628.54V79.0654H620.92V83.4951H630.702ZM651.058 67.2002V69.5469C651.058 72.5 651.058 75.8486 650.188 80.9375L648.078 80.7266C649.027 75.9277 649.027 72.4209 649.027 69.5469V68.9141H634.895V67.2002H651.058ZM653.932 82.9678V84.6816H632.574V82.9678H653.932ZM675.816 64.7217V78.6963H673.839V72.3945H670.543V78.3799H668.618V65.1699H670.543V70.6807H673.839V64.7217H675.816ZM675.816 79.8037V87.8193H660.339V79.8037H675.816ZM662.369 81.4912V86.1318H673.786V81.4912H662.369ZM665.823 66.251V72.6318H658.994V76.0068C662.079 75.9937 664.439 75.8486 667.221 75.2949L667.458 76.9824C664.426 77.5625 661.921 77.6416 658.52 77.6416H656.99V71.0234H663.846V67.9385H656.938V66.251H665.823ZM304.145 135.096C302.668 135.096 301.455 133.883 301.455 132.38C301.455 130.903 302.668 129.69 304.145 129.69C305.647 129.69 306.86 130.903 306.86 132.38C306.86 133.883 305.647 135.096 304.145 135.096ZM337.367 121.147C337.341 127.924 334.941 134.12 326.662 138.26L325.476 136.678C329.787 134.516 332.45 131.813 333.913 128.636L325.924 129.4L325.555 127.607L334.546 127.001C334.968 125.696 335.218 124.312 335.311 122.861H326.741V121.147H337.367ZM344.855 118.695V142.136H342.799V129.849H337.288V128.135H342.799V118.695H344.855ZM368.138 118.695V142.188H366.081V118.695H368.138ZM361.019 120.884V129.216H352.265V134.753C356.154 134.753 359.621 134.582 363.813 133.909L364.024 135.649C359.7 136.335 356.141 136.493 352.106 136.493H350.155V127.528H358.936V122.598H350.103V120.884H361.019ZM390.761 119.724V121.49C390.761 123.244 390.761 125.34 390.207 128.056H393.477V129.743H387.729V132.274H390.945V137.706H376.76V140.158H391.763V141.819H374.703V136.15H388.889V133.883H374.65V132.274H377.867V129.743H372.146V128.056H388.124C388.348 126.975 388.493 125.999 388.572 125.103L374.545 125.762L374.281 124.048L388.678 123.6C388.704 122.861 388.704 122.163 388.704 121.49V121.385H374.835V119.724H390.761ZM379.924 132.274H385.672V129.743H379.924V132.274ZM414.887 133.804V141.819H399.462V133.804H414.887ZM401.519 135.412V140.132H412.83V135.412H401.519ZM414.887 118.722V132.485H412.804V125.709H408.348V123.995H412.804V118.722H414.887ZM406.845 119.908V126.395H398.513V129.796C402.375 129.809 405.276 129.677 408.796 129.11L408.98 130.851C405.289 131.431 402.283 131.536 398.223 131.51H396.456V124.786H404.841V121.622H396.403V119.908H406.845ZM437.8 120.225V129.77H426.805V120.225H437.8ZM428.835 121.912V128.135H435.77V121.912H428.835ZM444.893 118.695V132.169H442.862V118.695H444.893ZM438.538 135.386C438.538 137.68 442.282 139.947 446.316 140.448L445.604 142.057C442.071 141.582 438.854 139.921 437.483 137.732C436.06 139.96 432.764 141.582 429.23 142.057L428.492 140.448C432.526 140 436.402 137.732 436.402 135.386H429.468V133.777H436.429V131.483H438.485V133.777H445.499V135.386H438.538ZM467.437 120.884C467.437 124.18 471.761 127.054 475.979 127.634L475.136 129.321C471.497 128.715 467.898 126.698 466.382 123.811C464.879 126.711 461.267 128.715 457.628 129.321L456.784 127.634C461.003 127.054 465.301 124.232 465.301 120.884V119.539H467.437V120.884ZM477.034 131.905V133.646H467.331V142.136H465.301V133.646H455.677V131.905H477.034ZM485.472 119.803C488.623 119.776 491.009 121.609 491.457 124.312H496.361V118.695H498.444V131.272H496.361V126.025H491.483C491.062 128.794 488.649 130.64 485.472 130.64C481.912 130.64 479.381 128.425 479.381 125.208C479.381 122.018 481.912 119.776 485.472 119.803ZM485.472 121.569C483.072 121.543 481.358 123.046 481.358 125.208C481.358 127.344 483.072 128.899 485.472 128.899C487.845 128.899 489.532 127.344 489.532 125.208C489.532 123.046 487.845 121.543 485.472 121.569ZM485.419 132.459V135.438H496.361V132.459H498.444V141.819H483.336V132.459H485.419ZM485.419 140.132H496.361V137.1H485.419V140.132ZM528.556 118.695V130.824H526.473V124.733H521.252V123.02H526.473V118.695H528.556ZM528.556 132.011V137.601H515.451V140.158H529.426V141.819H513.421V136.019H526.499V133.672H513.368V132.011H528.556ZM517.112 121.675C517.086 124.76 519.512 127.555 522.939 128.688L521.832 130.297C519.235 129.374 517.165 127.528 516.137 125.155C515.135 127.832 513.012 129.875 510.23 130.877L509.097 129.216C512.63 128.056 515.056 125.103 515.082 121.675V119.46H517.112V121.675ZM552.523 118.695V142.136H550.546V118.695H552.523ZM547.777 119.328V140.949H545.8V132.828H541.449V131.114H545.8V126.948H541.845C540.698 130.917 538.127 134.423 533.697 137.073L532.432 135.57C537.534 132.551 540.091 128.319 540.5 123.415H533.486V121.701H542.557C542.557 122.901 542.451 124.087 542.24 125.234H545.8V119.328H547.777ZM583.953 129.849V131.589H562.569V129.849H583.953ZM581.448 125.92V127.607H565.285V119.645H581.29V121.385H567.315V125.92H581.448ZM573.248 133.646C578.284 133.646 581.29 135.175 581.316 137.864C581.29 140.58 578.284 142.083 573.248 142.083C568.186 142.083 565.153 140.58 565.153 137.864C565.153 135.175 568.186 133.646 573.248 133.646ZM573.248 135.254C569.478 135.28 567.236 136.229 567.263 137.864C567.236 139.525 569.478 140.448 573.248 140.448C576.966 140.448 579.233 139.525 579.233 137.864C579.233 136.229 576.966 135.28 573.248 135.254ZM612.008 118.695V130.851H609.978V118.695H612.008ZM612.034 132.037V137.653H598.877V140.185H612.878V141.872H596.847V136.045H609.978V133.698H596.794V132.037H612.034ZM600.986 121.174C600.96 124.496 603.491 127.423 606.972 128.557L605.943 130.165C603.201 129.229 601.013 127.265 599.958 124.733C598.903 127.462 596.702 129.611 593.92 130.613L592.839 128.979C596.372 127.739 598.877 124.628 598.877 121.174V119.381H600.986V121.174ZM637.452 132.327V134.041H627.67V142.136H625.64V134.041H615.989V132.327H637.452ZM634.657 120.014V129.137H618.758V120.014H634.657ZM620.788 121.701V127.502H632.601V121.701H620.788ZM667.484 129.664V131.378H657.808V133.883C662.237 134.067 664.848 135.518 664.874 137.996C664.848 140.606 661.842 142.083 656.806 142.083C651.717 142.083 648.711 140.606 648.711 137.996C648.711 135.518 651.308 134.067 655.777 133.883V131.378H646.127V129.664H667.484ZM656.806 135.465C653.035 135.491 650.794 136.414 650.82 137.996C650.794 139.552 653.035 140.475 656.806 140.475C660.523 140.475 662.791 139.552 662.791 137.996C662.791 136.414 660.523 135.491 656.806 135.465ZM665.586 119.803V121.49H658.15C658.282 124.127 662.158 126.17 666.298 126.605L665.533 128.24C661.697 127.779 658.098 126.065 656.806 123.441C655.527 126.065 651.941 127.779 648.078 128.24L647.34 126.605C651.4 126.17 655.303 124.127 655.461 121.49H648.078V119.803H665.586ZM688.815 118.722V132.037H686.759V118.722H688.815ZM688.815 133.382V141.819H673.575V133.382H688.815ZM675.605 135.069V140.132H686.785V135.069H675.605ZM677.768 121.938C677.741 125.261 680.272 128.188 683.727 129.4L682.672 130.982C679.956 130.046 677.794 128.069 676.739 125.498C675.698 128.24 673.509 130.402 670.701 131.431L669.646 129.796C673.206 128.557 675.658 125.393 675.658 121.938V119.645H677.768V121.938ZM720.931 132.09V133.777H711.465V137.311H709.408V133.777H699.573V132.09H720.931ZM718.61 139.921V141.635H702.289V135.729H704.372V139.921H718.61ZM719.691 120.937V122.545H700.681V120.937H709.224V118.432H711.28V120.937H719.691ZM710.252 123.547C715.051 123.547 717.846 124.786 717.846 127.106C717.846 129.427 715.051 130.692 710.252 130.666C705.4 130.692 702.632 129.427 702.632 127.106C702.632 124.786 705.4 123.547 710.252 123.547ZM710.252 125.076C706.692 125.076 704.715 125.788 704.741 127.106C704.715 128.425 706.692 129.137 710.252 129.137C713.759 129.137 715.763 128.425 715.763 127.106C715.763 125.788 713.759 125.076 710.252 125.076ZM734.035 120.383V127.212H725.967V131.088C730.251 131.088 732.598 130.969 735.459 130.481L735.67 132.195C732.611 132.723 730.159 132.802 725.571 132.802H723.884V125.577H731.926V122.07H723.831V120.383H734.035ZM742.341 118.722V135.966H740.258V129.638H735.617V127.924H740.258V124.364H735.617V122.677H740.258V118.722H742.341ZM743.053 139.789V141.503H727.101V134.7H729.184V139.789H743.053ZM304.145 189.096C302.668 189.096 301.455 187.883 301.455 186.38C301.455 184.903 302.668 183.69 304.145 183.69C305.647 183.69 306.86 184.903 306.86 186.38C306.86 187.883 305.647 189.096 304.145 189.096ZM344.882 172.695V186.67H342.799V180.526H338.079V178.812H342.799V172.695H344.882ZM337.104 187.408C341.981 187.408 344.961 188.99 344.961 191.759C344.961 194.527 341.981 196.109 337.104 196.136C332.226 196.109 329.246 194.527 329.246 191.759C329.246 188.99 332.226 187.408 337.104 187.408ZM337.104 189.017C333.518 189.017 331.276 190.045 331.303 191.759C331.276 193.446 333.518 194.475 337.104 194.475C340.689 194.475 342.904 193.446 342.904 191.759C342.904 190.045 340.689 189.017 337.104 189.017ZM333.597 176.993C333.597 180.052 335.943 182.952 339.371 184.139L338.29 185.8C335.653 184.851 333.61 182.886 332.621 180.447C331.593 183.203 329.417 185.404 326.636 186.459L325.555 184.798C329.035 183.532 331.514 180.368 331.514 177.02V176.149H326.214V174.409H338.844V176.149H333.597V176.993ZM368.164 172.695V196.136H366.081V172.695H368.164ZM361.229 175.253C361.203 182.003 358.065 187.962 350.208 191.732L349.074 190.045C355.416 187.039 358.646 182.543 359.12 176.94H350.155V175.253H361.229ZM398.803 172.695V190.256H396.825V172.695H398.803ZM394.32 173.17V189.57H392.343V181.054H389.047V185.668H379.977V174.963H389.047V179.313H392.343V173.17H394.32ZM399.515 193.895V195.635H383.431V188.067H385.487V193.895H399.515ZM381.928 176.624V184.033H387.122V176.624H381.928ZM421.215 184.903V186.591H413.938V191.495H423.693V193.209H402.23V191.495H411.881V186.591H404.999V174.62H420.951V176.334H407.108V179.683H420.45V181.37H407.108V184.903H421.215ZM444.919 172.722V187.145H442.862V172.722H444.919ZM437.457 174.198V180.632H428.809V183.954C433.001 183.954 436.139 183.849 439.936 183.216L440.173 184.93C436.244 185.562 433.027 185.694 428.703 185.694H426.805V178.997H435.4V175.938H426.752V174.198H437.457ZM437.141 187.619C442.071 187.619 445.077 189.175 445.077 191.864C445.077 194.554 442.071 196.083 437.141 196.083C432.21 196.083 429.23 194.554 429.23 191.864C429.23 189.175 432.21 187.619 437.141 187.619ZM437.141 189.28C433.502 189.28 431.261 190.256 431.261 191.864C431.261 193.473 433.502 194.422 437.141 194.422C440.779 194.422 442.994 193.473 442.994 191.864C442.994 190.256 440.779 189.28 437.141 189.28ZM459.579 173.117C464.8 173.117 467.858 174.541 467.858 177.151C467.858 179.814 464.8 181.238 459.579 181.265C454.358 181.238 451.273 179.814 451.273 177.151C451.273 174.541 454.358 173.117 459.579 173.117ZM459.579 174.673C455.677 174.673 453.409 175.622 453.436 177.151C453.409 178.786 455.677 179.683 459.579 179.683C463.455 179.683 465.749 178.786 465.749 177.151C465.749 175.622 463.455 174.673 459.579 174.673ZM470.258 182.847V184.534H448.9V182.847H470.258ZM467.516 186.564V191.812H453.594V194.237H468.228V195.872H451.537V190.282H465.485V188.146H451.484V186.564H467.516ZM500.369 185.141V186.828H478.985V185.141H488.636V182.82H481.833V173.381H497.706V175.068H483.916V177.257H497.073V178.839H483.916V181.159H497.838V182.82H490.692V185.141H500.369ZM489.69 188.595C494.832 188.568 497.732 189.887 497.759 192.339C497.732 194.791 494.832 196.083 489.69 196.083C484.496 196.083 481.596 194.791 481.596 192.339C481.596 189.887 484.496 188.568 489.69 188.595ZM489.69 190.15C485.814 190.15 483.652 190.941 483.679 192.339C483.652 193.763 485.814 194.501 489.69 194.475C493.514 194.501 495.676 193.763 495.676 192.339C495.676 190.941 493.514 190.15 489.69 190.15ZM520.672 172.722V180.447H524.205V182.188H520.672V190.282H518.615V172.722H520.672ZM516.374 175.596V177.283H502.399V175.596H508.358V172.722H510.415V175.596H516.374ZM509.387 178.575C512.735 178.575 515.003 180.289 515.029 182.952C515.003 185.589 512.735 187.276 509.387 187.276C506.012 187.276 503.718 185.589 503.744 182.952C503.718 180.289 506.012 178.575 509.387 178.575ZM509.387 180.21C507.172 180.21 505.695 181.291 505.722 182.952C505.695 184.613 507.172 185.668 509.387 185.642C511.575 185.668 513.052 184.613 513.078 182.952C513.052 181.291 511.575 180.21 509.387 180.21ZM521.753 193.895V195.635H506.012V188.885H508.042V193.895H521.753ZM540.843 179.894C540.843 183.875 543.743 187.909 547.197 189.412L546.037 191.047C543.295 189.794 540.922 187.092 539.841 183.849C538.733 187.29 536.374 190.282 533.697 191.627L532.458 189.992C535.807 188.384 538.733 183.954 538.76 179.894V176.835H533.223V175.121H546.433V176.835H540.843V179.894ZM551.785 172.695V196.136H549.702V172.695H551.785ZM577.229 184.481V186.195H555.793V184.481H565.443V180.869H567.474V184.481H577.229ZM567.5 174.172C567.5 177.283 571.719 179.894 575.858 180.474L575.015 182.135C571.455 181.515 567.935 179.63 566.472 176.914C564.995 179.643 561.462 181.515 557.876 182.135L557.085 180.474C561.225 179.894 565.417 177.283 565.417 174.172V173.064H567.5V174.172ZM574.514 188.489V196.136H572.431V190.15H558.166V188.489H574.514ZM593.973 176.387C593.946 179.735 596.319 182.688 599.773 183.849L598.613 185.457C596.029 184.481 593.999 182.583 592.997 180.104C591.982 182.913 589.833 185.101 587.012 186.169L585.878 184.481C589.49 183.216 591.89 180.104 591.916 176.466V174.04H593.973V176.387ZM605.337 172.695V186.591H603.254V179.445H598.033V177.731H603.254V172.695H605.337ZM597.559 187.276C602.437 187.276 605.416 188.885 605.416 191.706C605.416 194.501 602.437 196.083 597.559 196.083C592.681 196.083 589.701 194.501 589.701 191.706C589.701 188.885 592.681 187.276 597.559 187.276ZM597.559 188.911C593.973 188.911 591.731 189.966 591.758 191.706C591.731 193.394 593.973 194.422 597.559 194.422C601.145 194.422 603.359 193.394 603.359 191.706C603.359 189.966 601.145 188.911 597.559 188.911ZM617.176 177.151C617.176 180.21 619.47 182.952 622.924 184.086L621.948 185.721C619.246 184.837 617.202 182.965 616.2 180.605C615.185 183.295 613.023 185.391 610.215 186.406L609.16 184.745C612.667 183.559 615.119 180.526 615.146 177.151V176.149H609.793V174.436H622.449V176.149H617.176V177.151ZM627.564 172.695V178.681H631.098V180.421H627.564V186.854H625.508V172.695H627.564ZM620.05 187.487C624.875 187.487 627.775 189.069 627.775 191.759C627.775 194.501 624.875 196.083 620.05 196.083C615.225 196.083 612.271 194.501 612.271 191.759C612.271 189.069 615.225 187.487 620.05 187.487ZM620.05 189.148C616.517 189.148 614.328 190.124 614.354 191.759C614.328 193.446 616.517 194.422 620.05 194.422C623.609 194.422 625.771 193.446 625.771 191.759C625.771 190.124 623.609 189.148 620.05 189.148ZM647.735 179.894C647.735 183.875 650.636 187.909 654.09 189.412L652.93 191.047C650.188 189.794 647.814 187.092 646.733 183.849C645.626 187.29 643.266 190.282 640.59 191.627L639.351 189.992C642.699 188.384 645.626 183.954 645.652 179.894V176.835H640.115V175.121H653.325V176.835H647.735V179.894ZM658.678 172.695V196.136H656.595V172.695H658.678ZM682.013 172.722V190.52H679.93V188.094H675.078V186.591H679.93V172.722H682.013ZM682.593 193.895V195.635H665.929V188.779H668.012V193.895H682.593ZM662.554 183.585C666.931 183.559 672.784 183.532 677.82 182.899L677.952 184.402C675.856 184.732 673.667 184.943 671.519 185.062V189.702H669.436V185.167C667.062 185.272 664.808 185.286 662.844 185.272L662.554 183.585ZM670.253 173.671C673.681 173.671 676.027 175.306 676.054 177.758C676.027 180.263 673.681 181.818 670.253 181.818C666.799 181.818 664.452 180.263 664.452 177.758C664.452 175.306 666.799 173.671 670.253 173.671ZM670.253 175.253C667.959 175.227 666.403 176.255 666.43 177.758C666.403 179.287 667.959 180.289 670.253 180.289C672.468 180.289 674.05 179.287 674.076 177.758C674.05 176.255 672.468 175.227 670.253 175.253Z" fill="black"/>
<path d="M271 64L271 196" stroke="#F2F2F7" stroke-width="2"/>
<path d="M51.0708 177.622C51.0708 181.8 52.5845 185.978 56.4897 188.097L54.3706 190.912C51.8882 189.641 50.2383 187.4 49.2847 184.706C48.3159 187.643 46.666 190.125 44.1685 191.578L41.9585 188.672C45.9243 186.371 47.4077 181.891 47.438 177.622V176.986H42.9878V173.898H47.438V170.175H51.0405V173.898H55.3999V176.986H51.0708V177.622ZM66.2983 169.236V196.785H62.6353V169.236H66.2983ZM60.6675 169.69V195.514H57.0347V182.829H53.7954V179.681H57.0347V169.69H60.6675ZM93.1509 169.236V196.785H89.5181V169.236H93.1509ZM87.3989 169.842V195.574H83.7358V186.492H79.8306V183.374H83.7358V179.62H80.3452C79.0586 184.161 76.2734 188.006 71.1118 191.063L68.8413 188.339C74.4268 185.039 76.8789 181.028 77.4087 175.624H70.4458V172.506H81.2534C81.2534 173.883 81.1626 175.215 81.0112 176.502H83.7358V169.842H87.3989ZM111.951 170.78V173.838H106.471C106.501 177.092 108.439 180.422 112.798 181.86L110.891 184.827C107.833 183.858 105.745 181.86 104.564 179.378C103.323 182.133 101.128 184.358 97.8735 185.402L95.9058 182.345C100.432 180.892 102.49 177.274 102.536 173.838H96.9956V170.78H111.951ZM119.277 186.855V196.785H115.432V189.943H100.356V186.855H119.277ZM119.277 169.236V185.645H115.432V179.015H111.164V175.866H115.432V169.236H119.277ZM152.457 183.465V186.522H132.96V171.265H152.245V174.383H136.896V177.289H151.609V180.316H136.896V183.465H152.457ZM155.211 190.428V193.576H129.994V190.428H155.211ZM167.321 171.991V182.436H161.266V187.128C163.945 187.098 166.488 186.977 169.349 186.432L169.682 189.58C166.08 190.246 162.992 190.307 159.51 190.337H157.573V179.378H163.597V175.049H157.542V171.991H167.321ZM180.611 169.236V196.785H176.948V169.236H180.611ZM174.889 169.751V195.453H171.287V181.77H168.471V178.651H171.287V169.751H174.889ZM206.646 169.236V196.846H202.741V169.236H206.646ZM191.691 171.174C195.838 171.174 198.926 174.988 198.926 180.982C198.926 187.037 195.838 190.821 191.691 190.821C187.453 190.821 184.365 187.037 184.395 180.982C184.365 174.988 187.453 171.174 191.691 171.174ZM191.691 174.655C189.542 174.655 188.119 176.896 188.119 180.982C188.119 185.1 189.542 187.31 191.691 187.31C193.78 187.31 195.203 185.1 195.203 180.982C195.203 176.896 193.78 174.655 191.691 174.655ZM233.347 169.236V185.221H229.502V169.236H233.347ZM215.819 170.962V180.468C219.603 180.422 223.327 180.12 227.262 179.287L227.716 182.405C223.145 183.374 218.786 183.677 214.335 183.646H211.944V170.962H215.819ZM223.993 185.554C229.805 185.554 233.468 187.643 233.468 191.215C233.468 194.696 229.805 196.785 223.993 196.785C218.15 196.785 214.457 194.696 214.487 191.215C214.457 187.643 218.15 185.554 223.993 185.554ZM223.993 188.672C220.33 188.672 218.332 189.489 218.332 191.215C218.332 192.85 220.33 193.728 223.993 193.728C227.625 193.728 229.563 192.85 229.593 191.215C229.563 189.489 227.625 188.672 223.993 188.672Z" fill="black"/>
<circle cx="139" cy="107" r="45" fill="#CCE0FF"/>
<g filter="url(#filter0_i_590_1003)">
<circle cx="139" cy="107" r="42.3399" fill="#CCE0FF"/>
</g>
<g filter="url(#filter1_d_590_1003)">
<path d="M133.111 86.8953C131.899 86.9312 130.834 87.7737 130.594 88.963C130.317 90.3447 131.255 91.6808 132.688 91.9483C132.811 91.9711 132.935 91.9917 133.06 91.9972C134.955 92.1613 136.845 92.4277 138.705 92.8234C139.277 92.9451 139.841 93.1006 140.407 93.2506C141.351 94.553 142.24 95.8934 143.025 97.2893C143.091 97.4045 143.143 97.5252 143.206 97.6415L141.485 98.858C141.479 98.8623 141.472 98.8645 141.467 98.8689L131.328 106.037C130.927 106.321 130.614 106.672 130.38 107.06C130.284 107.206 130.197 107.359 130.128 107.526C130.114 107.559 130.102 107.595 130.091 107.628C128.898 110.849 127.566 114.017 126.121 117.142C122.943 118.514 119.714 119.773 116.438 120.916C116.357 120.939 116.277 120.968 116.199 120.999C114.706 121.596 113.998 123.245 114.619 124.684C115.24 126.122 116.952 126.805 118.446 126.206C118.48 126.191 118.515 126.181 118.547 126.165C122.269 124.864 125.944 123.423 129.546 121.836C130.344 121.503 130.899 120.858 131.151 120.114C132.151 117.978 133.092 115.814 133.983 113.632L136.511 114.388C136.531 114.394 136.55 114.394 136.569 114.398C137.389 114.632 138.206 114.875 139.022 115.122V115.163L139.064 115.133C140.575 115.594 142.073 116.088 143.567 116.599C141.938 118.408 140.263 120.181 138.537 121.907C138.475 121.965 138.417 122.023 138.361 122.085C137.296 123.255 137.415 125.035 138.63 126.062C139.845 127.089 141.697 126.973 142.762 125.801C142.786 125.774 142.811 125.75 142.833 125.723C145.578 122.974 148.216 120.119 150.722 117.164C150.79 117.088 150.839 117.003 150.896 116.922C150.94 116.859 150.988 116.801 151.028 116.735C151.702 115.596 151.479 114.117 150.424 113.221H150.422C150.107 112.955 149.745 112.77 149.368 112.656C149.346 112.648 149.326 112.642 149.303 112.636C147.82 112.086 146.325 111.566 144.824 111.061L145.421 110.638L148.679 108.334L149.704 107.61C150.735 109.182 151.857 110.7 153.069 112.148C153.386 112.592 153.826 112.905 154.315 113.082C154.343 113.093 154.375 113.098 154.403 113.107C154.524 113.147 154.648 113.184 154.773 113.207C154.886 113.229 155 113.234 155.115 113.241C155.159 113.243 155.203 113.251 155.247 113.251C155.909 113.257 156.571 113.026 157.086 112.557C157.821 111.928 158.549 111.286 159.246 110.61C160.721 109.178 162.094 107.652 163.371 106.054C164.334 105.024 164.262 103.441 163.215 102.491C162.15 101.527 160.477 101.575 159.476 102.6C159.39 102.688 159.307 102.777 159.233 102.876C158.105 104.294 156.89 105.655 155.588 106.93C155.006 106.153 154.448 105.358 153.926 104.544C153.474 103.84 153.059 103.116 152.654 102.385C152.601 102.278 152.54 102.178 152.473 102.079C152.467 102.068 152.456 102.06 152.45 102.05C152.38 101.93 152.318 101.808 152.232 101.695L149.11 97.5991C149.079 97.5567 149.038 97.5263 149.004 97.486C148.993 97.4632 148.988 97.4404 148.978 97.4176C148.566 96.5566 148.139 95.6999 147.667 94.8628C146.668 93.0897 145.55 91.3829 144.33 89.7436C144.319 89.7251 144.302 89.712 144.29 89.6946C144.24 89.6175 144.179 89.5479 144.121 89.4761C144.079 89.4272 144.044 89.3707 144 89.325C143.663 88.9695 143.223 88.6999 142.705 88.5738C141.759 88.3107 140.807 88.0585 139.842 87.8542C137.797 87.4204 135.725 87.1182 133.639 86.9323C133.461 86.9018 133.284 86.8899 133.111 86.8953ZM155.51 87.0084C154.734 87.0606 153.993 87.3791 153.368 87.8281C152.743 88.277 152.226 88.8532 151.77 89.4653C151.14 90.3067 150.644 91.2318 150.247 92.1961V92.1983C150.203 92.2896 150.161 92.3809 150.121 92.4744C150.103 92.519 150.082 92.5603 150.064 92.6038C150.066 92.6038 150.066 92.6049 150.068 92.606C149.173 94.8443 149.689 97.3784 151.398 99.1243C151.731 99.4646 152.101 99.7668 152.504 100.027L152.506 100.033C152.76 100.214 153.012 100.4 153.24 100.61C153.328 100.695 153.463 100.81 153.559 100.887C154.241 101.582 155.368 101.679 156.158 101.099C156.31 100.995 156.464 100.893 156.618 100.795C156.931 100.598 157.24 100.393 157.534 100.171C157.641 100.09 157.746 100.005 157.851 99.9168C157.915 99.8647 158.003 99.8592 158.071 99.906C158.138 99.9527 158.21 99.994 158.281 100.033C158.385 100.091 158.488 100.143 158.596 100.176C158.705 100.208 158.818 100.22 158.933 100.203C159.028 100.189 159.116 100.156 159.182 100.092C159.249 100.029 159.283 99.9527 159.317 99.8668C159.444 99.5461 159.527 99.2102 159.583 98.871C159.616 98.6819 159.638 98.4905 159.66 98.3003C159.692 98.0916 159.801 97.8981 159.962 97.7524C159.973 97.7437 159.985 97.7383 159.995 97.7296C160.467 97.3502 160.889 96.9142 161.249 96.437C161.604 95.9663 161.893 95.4542 162.121 94.915C162.187 94.7856 162.282 94.6671 162.39 94.5693C162.484 94.4834 162.595 94.4128 162.711 94.3617C162.778 94.3345 162.841 94.3062 162.91 94.2812C162.94 94.2693 162.979 94.2606 163.009 94.2497C163.106 94.2236 163.192 94.1736 163.265 94.1073C163.517 93.8801 163.527 93.5017 163.291 93.2604C163.256 93.2224 163.217 93.1832 163.173 93.156C163.151 93.1408 163.129 93.1289 163.109 93.1115C162.424 92.532 161.894 91.8026 161.434 91.0481C160.967 90.2817 160.565 89.4761 160.016 88.7673C159.88 88.5901 159.73 88.4195 159.571 88.2575H159.568C159.092 87.7715 158.522 87.3802 157.862 87.2019C157.475 87.0975 157.066 87.0736 156.665 87.1258C156.641 87.129 156.616 87.1269 156.594 87.1214C156.239 87.0269 155.872 86.9834 155.51 87.0084Z" fill="#69A4FF"/>
</g>
<defs>
<filter id="filter0_i_590_1003" x="96.6597" y="64.6597" width="88.6797" height="87.6797" filterUnits="userSpaceOnUse" color-interpolation-filters="sRGB">
<feFlood flood-opacity="0" result="BackgroundImageFix"/>
<feBlend mode="normal" in="SourceGraphic" in2="BackgroundImageFix" result="shape"/>
<feColorMatrix in="SourceAlpha" type="matrix" values="0 0 0 0 0 0 0 0 0 0 0 0 0 0 0 0 0 0 127 0" result="hardAlpha"/>
<feOffset dx="4" dy="3"/>
<feGaussianBlur stdDeviation="3.5"/>
<feComposite in2="hardAlpha" operator="arithmetic" k2="-1" k3="1"/>
<feColorMatrix type="matrix" values="0 0 0 0 1 0 0 0 0 1 0 0 0 0 1 0 0 0 0.3 0"/>
<feBlend mode="normal" in2="shape" result="effect1_innerShadow_590_1003"/>
</filter>
<filter id="filter1_d_590_1003" x="107.394" y="80.894" width="69.6553" height="59.8682" filterUnits="userSpaceOnUse" color-interpolation-filters="sRGB">
<feFlood flood-opacity="0" result="BackgroundImageFix"/>
<feColorMatrix in="SourceAlpha" type="matrix" values="0 0 0 0 0 0 0 0 0 0 0 0 0 0 0 0 0 0 127 0" result="hardAlpha"/>
<feOffset dx="3" dy="4"/>
<feGaussianBlur stdDeviation="5"/>
<feComposite in2="hardAlpha" operator="out"/>
<feColorMatrix type="matrix" values="0 0 0 0 0.588235 0 0 0 0 0.74902 0 0 0 0 1 0 0 0 1 0"/>
<feBlend mode="normal" in2="BackgroundImageFix" result="effect1_dropShadow_590_1003"/>
<feBlend mode="normal" in="SourceGraphic" in2="effect1_dropShadow_590_1003" result="shape"/>
</filter>
<linearGradient id="paint0_linear_590_1003" x1="-0.722946" y1="130" x2="1112.71" y2="130" gradientUnits="userSpaceOnUse">
<stop stop-color="#3182F6"/>
<stop offset="1" stop-color="#A009FF"/>
</linearGradient>
</defs>
</svg>
