<svg width="407" height="453" viewBox="0 0 407 453" fill="none" xmlns="http://www.w3.org/2000/svg">
<rect x="0.5" y="0.5" width="406" height="452" rx="20.5" fill="white" stroke="url(#paint0_linear_502_931)"/>
<rect x="1" y="195" width="405" height="257" rx="20" fill="#EDF6FF"/>
<path d="M280.066 59.2949V60.4551H265.758V59.2949H272.209V55.709H273.562V59.2949H280.066ZM278.695 49.293V50.4355H273.598C273.606 52.8877 276.208 54.6895 279.205 55.1816L278.678 56.2715C276.173 55.8232 273.879 54.5664 272.895 52.6152C271.901 54.5664 269.607 55.8232 267.094 56.2715L266.549 55.1816C269.563 54.6895 272.183 52.8877 272.191 50.4355H267.094V49.293H272.209V47.1309H273.562V49.293H278.695ZM295.57 54.2324V55.3926H281.314V54.2324H295.57ZM293.9 51.6133V52.7383H283.125V47.4297H293.795V48.5898H284.479V51.6133H293.9ZM288.434 56.7637C291.791 56.7637 293.795 57.7832 293.812 59.5762C293.795 61.3867 291.791 62.3887 288.434 62.3887C285.059 62.3887 283.037 61.3867 283.037 59.5762C283.037 57.7832 285.059 56.7637 288.434 56.7637ZM288.434 57.8359C285.92 57.8535 284.426 58.4863 284.443 59.5762C284.426 60.6836 285.92 61.2988 288.434 61.2988C290.912 61.2988 292.424 60.6836 292.424 59.5762C292.424 58.4863 290.912 57.8535 288.434 57.8359ZM306.223 48.4844V49.6094H296.906V48.4844H300.879V46.7266H302.25V48.4844H306.223ZM301.564 50.418C303.814 50.4355 305.309 51.5254 305.326 53.248C305.309 54.9531 303.814 56.0605 301.564 56.0605C299.314 56.0605 297.785 54.9531 297.803 53.248C297.785 51.5254 299.314 50.4355 301.564 50.418ZM301.564 51.4902C300.088 51.5078 299.104 52.1934 299.121 53.248C299.104 54.2852 300.088 54.9531 301.564 54.9531C303.023 54.9531 304.008 54.2852 304.025 53.248C304.008 52.1934 303.023 51.5078 301.564 51.4902ZM309.088 46.7969V51.1387H311.443V52.2988H309.088V56.5703H307.717V46.7969H309.088ZM309.088 57.4316V62.4238H307.717V58.5566H298.857V57.4316H309.088ZM324.979 48.3789V50.1191C324.979 52.123 324.979 54.1445 324.416 57.0449L323.062 56.8867C323.625 54.127 323.625 52.0703 323.625 50.1191V49.5215H313.922V48.3789H324.979ZM326.666 59.0664V60.209H312.428V59.0664H315.961V53.916H317.332V59.0664H319.863V53.916H321.217V59.0664H326.666ZM337.564 48.2734V61H335.965V49.9258H335.895L332.801 51.9824V50.3828L335.965 48.2734H337.564ZM349.746 48.4844V49.6094H340.43V48.4844H344.402V46.7266H345.773V48.4844H349.746ZM345.088 50.418C347.338 50.4355 348.832 51.5254 348.85 53.248C348.832 54.9531 347.338 56.0605 345.088 56.0605C342.838 56.0605 341.309 54.9531 341.326 53.248C341.309 51.5254 342.838 50.4355 345.088 50.418ZM345.088 51.4902C343.611 51.5078 342.627 52.1934 342.645 53.248C342.627 54.2852 343.611 54.9531 345.088 54.9531C346.547 54.9531 347.531 54.2852 347.549 53.248C347.531 52.1934 346.547 51.5078 345.088 51.4902ZM352.611 46.7969V51.1387H354.967V52.2988H352.611V56.5703H351.24V46.7969H352.611ZM352.611 57.4316V62.4238H351.24V58.5566H342.381V57.4316H352.611ZM368.906 46.8145V58.3809H367.518V52.9668H363.018V51.8594H367.518V49.9785H363.018V48.8711H367.518V46.8145H368.906ZM369.328 60.9297V62.0898H358.834V57.3965H360.223V60.9297H369.328ZM358.271 47.9395V54.8828C360.425 54.874 362.499 54.7598 364.881 54.3203L365.021 55.4629C362.473 55.9375 360.346 56.043 358.061 56.0605H356.883V47.9395H358.271Z" fill="#666666"/>
<path d="M46.9219 47.0859V49.4531H36.6094V47.0859H40.3125V44.4141H43.2656V47.0859H46.9219ZM41.8125 50.4141C44.5312 50.4141 46.4766 52.5234 46.5 55.4766C46.4766 58.4531 44.5312 60.5625 41.8125 60.5625C39.0938 60.5625 37.1016 58.4531 37.1016 55.4766C37.1016 52.5234 39.0938 50.4141 41.8125 50.4141ZM41.8125 52.8984C40.5703 52.8984 39.7266 53.8594 39.7266 55.4766C39.7266 57.0938 40.5703 58.0312 41.8125 58.0312C43.0078 58.0312 43.8516 57.0938 43.875 55.4766C43.8516 53.8594 43.0078 52.8984 41.8125 52.8984ZM55.0781 43.8281V65.1562H52.2422V54.8906H50.5078V64.2422H47.7188V44.25H50.5078V52.5H52.2422V43.8281H55.0781ZM75.3516 43.8281V54.5625H72.375V52.9219H67.5V50.6484H72.375V48.7734H67.7344C66.4102 51.9844 63.3633 54.0352 58.6406 55.0547L57.6328 52.6172C62.5195 51.6445 64.7812 49.6289 65.1797 47.0625H58.8281V44.6484H68.4844C68.4844 45.293 68.4375 45.9141 68.3438 46.5H72.375V43.8281H75.3516ZM75.3516 55.3359V61.1719H64.1953V62.5781H75.8203V64.9453H61.1953V58.9688H72.3516V57.6797H61.1719V55.3359H75.3516ZM93.5859 56.8828C98.0156 56.8828 100.781 58.4062 100.781 61.0078C100.781 63.6562 98.0156 65.1797 93.5859 65.1797C89.0625 65.1797 86.2734 63.6562 86.2734 61.0078C86.2734 58.4062 89.0625 56.8828 93.5859 56.8828ZM93.5859 59.2031C90.7734 59.2031 89.25 59.7891 89.2734 61.0078C89.25 62.2266 90.7734 62.8594 93.5859 62.8594C96.3516 62.8594 97.8281 62.2266 97.8281 61.0078C97.8281 59.7891 96.3516 59.2031 93.5859 59.2031ZM100.57 43.8281V48.7734H103.453V51.2812H100.57V56.4141H97.5703V43.8281H100.57ZM87.2578 45.1641V47.8594H91.6172V45.1641H94.6172V55.1953H84.2812V45.1641H87.2578ZM87.2578 52.8281H91.6172V50.1797H87.2578V52.8281ZM121.312 43.8281V49.9453H124.195V52.4297H121.312V59.3672H118.312V43.8281H121.312ZM122.086 62.3906V64.7812H107.484V57.7266H110.461V62.3906H122.086ZM110.391 45.2109C113.648 45.2109 116.203 47.4609 116.203 50.625C116.203 53.7422 113.648 56.0391 110.391 56.0391C107.109 56.0391 104.531 53.7422 104.531 50.625C104.531 47.4609 107.109 45.2109 110.391 45.2109ZM110.391 47.8125C108.773 47.7891 107.461 48.8438 107.484 50.625C107.461 52.3594 108.773 53.4375 110.391 53.4375C112.031 53.4375 113.273 52.3594 113.297 50.625C113.273 48.8438 112.031 47.7891 110.391 47.8125ZM149.156 43.8281V65.1562H146.297V43.8281H149.156ZM144.797 44.1328V64.1719H141.984V57.5625H139.477C138.68 59.6367 137.285 60.8203 135.492 60.8203C132.68 60.8203 130.852 57.8672 130.852 53.0625C130.852 48.2812 132.68 45.3516 135.492 45.3516C137.273 45.3516 138.668 46.5117 139.477 48.5625H141.984V44.1328H144.797ZM135.492 48.1641C134.25 48.1641 133.547 49.8047 133.57 53.0625C133.547 56.3438 134.25 57.9609 135.492 57.9375C136.734 57.9609 137.484 56.3438 137.484 53.0625C137.484 49.8047 136.711 48.1641 135.492 48.1641ZM140.062 50.9531C140.156 51.6094 140.203 52.3125 140.203 53.0625C140.203 53.8008 140.156 54.5039 140.062 55.1484H141.984V50.9531H140.062ZM159.703 48.6562C159.703 52.5703 161.484 56.5078 165.094 58.0312L163.336 60.4219C160.898 59.3203 159.211 57.1992 158.25 54.5625C157.277 57.4336 155.531 59.7539 152.93 60.9375L151.125 58.4531C154.852 56.8828 156.656 52.8047 156.68 48.6562V45.4688H159.703V48.6562ZM169.266 43.8281V65.2031H166.242V43.8281H169.266ZM184.664 63.2344C180.938 63.2344 178.266 61.1719 178.195 58.2188H181.758C181.828 59.4844 183.047 60.3281 184.688 60.3281C186.375 60.3281 187.594 59.3672 187.57 58.0078C187.594 56.625 186.352 55.6406 184.359 55.6406H182.789V53.0391H184.359C186.023 53.0391 187.195 52.125 187.195 50.7891C187.195 49.5 186.211 48.6094 184.711 48.6094C183.211 48.6094 181.969 49.4531 181.922 50.7422H178.547C178.594 47.8125 181.242 45.7969 184.711 45.7969C188.25 45.7969 190.617 47.8828 190.594 50.5781C190.617 52.4766 189.281 53.8359 187.383 54.1641V54.3047C189.867 54.6094 191.25 56.1328 191.227 58.2422C191.25 61.1484 188.484 63.2344 184.664 63.2344Z" fill="black"/>
<path d="M51.5078 111.043V124.578H49.0273V121.219H46.625V119.246H49.0273V117.469H46.625V115.457H49.0273V111.043H51.5078ZM46.4492 112.898V114.871H36.5664V112.898H40.3945V111.004H42.875V112.898H46.4492ZM41.6055 115.496C44.0469 115.496 45.8047 116.941 45.8242 118.992C45.8047 121.043 44.0469 122.469 41.6055 122.469C39.1836 122.469 37.4258 121.043 37.4453 118.992C37.4258 116.941 39.1836 115.496 41.6055 115.496ZM41.6055 117.43C40.5117 117.449 39.75 117.996 39.7695 118.992C39.75 120.008 40.5117 120.574 41.6055 120.574C42.6797 120.574 43.4609 120.008 43.4805 118.992C43.4609 117.996 42.6797 117.449 41.6055 117.43ZM51.8789 126.492V128.484H39.6719V123.426H42.1914V126.492H51.8789ZM69.3203 111.023V128.797H66.9375V119.891H65.4336V127.977H63.0703V122.879L61.6641 124.754C60.0137 123.885 58.9492 122.41 58.3242 120.574C57.7285 122.684 56.6738 124.393 54.9844 125.398L53.4414 123.484C56.1367 121.961 57.0547 118.816 57.0547 115.418V114.852H54.0469V112.859H62.1914V114.852H59.4766V115.418C59.4766 118.514 60.3945 121.463 63.0703 122.84V111.277H65.4336V117.859H66.9375V111.023H69.3203ZM82.1914 113.816C82.1914 115.965 83.4414 118.035 86.2539 118.914L84.9258 120.848C83.041 120.223 81.7227 119.012 80.9609 117.449C80.1895 119.246 78.8125 120.652 76.7812 121.336L75.4336 119.383C78.4023 118.387 79.6719 116.023 79.6914 113.582V111.961H82.1914V113.816ZM89.8086 111.023V115.184H92.2109V117.254H89.8086V121.57H87.3086V111.023H89.8086ZM83.9883 121.922C87.6602 121.922 89.9844 123.191 89.9844 125.359C89.9844 127.547 87.6602 128.797 83.9883 128.797C80.2383 128.797 77.8945 127.547 77.8945 125.359C77.8945 123.191 80.2383 121.922 83.9883 121.922ZM83.9883 123.875C81.6445 123.875 80.375 124.383 80.3945 125.359C80.375 126.375 81.6445 126.844 83.9883 126.844C86.293 126.844 87.5234 126.375 87.5234 125.359C87.5234 124.383 86.293 123.875 83.9883 123.875ZM100.844 112.879V114.852H95.9805V117.527H100.492V119.441H95.9805V122.645C97.9824 122.625 99.4375 122.557 101.176 122.312L101.352 124.344C99.3008 124.676 97.543 124.734 94.8477 124.734H93.5977V112.879H100.844ZM108.402 111.023V128.797H106.02V119.91H104.477V127.977H102.133V111.277H104.477V117.918H106.02V111.023H108.402Z" fill="url(#paint1_linear_502_931)"/>
<path d="M45.9844 144.484V145.609H36.668V144.484H40.6406V142.727H42.0117V144.484H45.9844ZM41.3262 146.418C43.5762 146.436 45.0703 147.525 45.0879 149.248C45.0703 150.953 43.5762 152.061 41.3262 152.061C39.0762 152.061 37.5469 150.953 37.5645 149.248C37.5469 147.525 39.0762 146.436 41.3262 146.418ZM41.3262 147.49C39.8496 147.508 38.8652 148.193 38.8828 149.248C38.8652 150.285 39.8496 150.953 41.3262 150.953C42.7852 150.953 43.7695 150.285 43.7871 149.248C43.7695 148.193 42.7852 147.508 41.3262 147.49ZM48.8496 142.797V147.139H51.2051V148.299H48.8496V152.57H47.4785V142.797H48.8496ZM48.8496 153.432V158.424H47.4785V154.557H38.6191V153.432H48.8496ZM65.0742 142.814V154.68H63.6855V153.062H60.4512V152.061H63.6855V142.814H65.0742ZM65.4609 156.93V158.09H54.3516V153.52H55.7402V156.93H65.4609ZM52.1016 150.057C55.0195 150.039 58.9219 150.021 62.2793 149.6L62.3672 150.602C60.9697 150.821 59.5107 150.962 58.0781 151.041V154.135H56.6895V151.111C55.1074 151.182 53.6045 151.19 52.2949 151.182L52.1016 150.057ZM57.2344 143.447C59.5195 143.447 61.084 144.537 61.1016 146.172C61.084 147.842 59.5195 148.879 57.2344 148.879C54.9316 148.879 53.3672 147.842 53.3672 146.172C53.3672 144.537 54.9316 143.447 57.2344 143.447ZM57.2344 144.502C55.7051 144.484 54.668 145.17 54.6855 146.172C54.668 147.191 55.7051 147.859 57.2344 147.859C58.7109 147.859 59.7656 147.191 59.7832 146.172C59.7656 145.17 58.7109 144.484 57.2344 144.502ZM84.3574 142.797V149.16H86.8887V150.32H84.3574V158.424H82.9863V142.797H84.3574ZM80.3145 144.484C80.3145 148.914 78.2402 152.939 73.1426 155.453L72.3691 154.363C76.4121 152.351 78.6094 149.345 78.9258 145.645H73.0898V144.484H80.3145ZM100.459 147.543V148.65H89.7539V143.377H91.125V147.543H100.459ZM102.111 150.777V151.902H87.8027V150.777H102.111ZM100.547 156.895V158.037H89.666V153.502H91.0371V156.895H100.547ZM116.332 142.797V150.83H114.943V147.719H111.48V146.576H114.943V142.797H116.332ZM111.357 143.57C111.357 147.455 108.615 150.021 104.115 151.164L103.623 150.021C107.367 149.116 109.608 147.218 109.898 144.713H104.432V143.57H111.357ZM116.332 151.498V155.312H107.613V157.141H116.859V158.283H106.242V154.258H114.943V152.623H106.207V151.498H116.332ZM136.424 142.797V158.459H135.035V149.107H130.166V147.965H135.035V142.797H136.424ZM125.701 144.555V153.502C128.083 153.476 130.21 153.353 132.557 152.869L132.732 154.012C130.236 154.521 128.039 154.662 125.508 154.662H124.312V144.555H125.701ZM153.299 151.885V153.027H146.777V158.424H145.424V153.027H138.99V151.885H153.299ZM151.436 143.676V149.758H140.836V143.676H151.436ZM142.189 144.801V148.668H150.064V144.801H142.189ZM165.99 151.797V155.383H162.422V157.141C164.171 157.132 165.208 157.088 166.5 156.842L166.623 157.896C165.164 158.195 164.039 158.213 161.93 158.213H161.104V154.381H164.672V152.852H161.086V151.797H165.99ZM173.092 152.43V153.502H166.5V152.43H169.084V151.041H170.438V152.43H173.092ZM169.734 154.135C171.281 154.135 172.424 154.961 172.424 156.262C172.424 157.598 171.281 158.389 169.734 158.389C168.188 158.389 167.045 157.598 167.045 156.262C167.045 154.961 168.188 154.135 169.734 154.135ZM169.734 155.119C168.82 155.119 168.24 155.541 168.24 156.262C168.24 156.982 168.82 157.404 169.734 157.404C170.613 157.404 171.229 156.982 171.246 156.262C171.229 155.541 170.613 155.119 169.734 155.119ZM171.967 142.797V150.689H170.613V142.797H171.967ZM164.619 144.484C164.602 146.629 166.324 148.457 168.627 149.195L167.959 150.303C166.122 149.696 164.654 148.413 163.951 146.752C163.248 148.562 161.763 149.978 159.873 150.654L159.188 149.547C161.525 148.738 163.213 146.734 163.213 144.484V143.289H164.619V144.484ZM178.84 144.01C180.967 144.027 182.496 145.847 182.725 148.773H186.223V142.797H187.594V158.459H186.223V149.916H182.742C182.575 152.975 181.02 154.891 178.84 154.891C176.537 154.891 174.92 152.781 174.92 149.459C174.92 146.137 176.537 144.027 178.84 144.01ZM178.84 145.24C177.293 145.258 176.238 146.91 176.238 149.459C176.238 152.008 177.293 153.66 178.84 153.66C180.369 153.66 181.441 152.008 181.441 149.459C181.441 146.91 180.369 145.258 178.84 145.24ZM202.289 142.797V149.248H204.908V150.391H202.289V158.424H200.918V142.797H202.289ZM199.406 145.311V146.453H190.107V145.311H194.133V142.99H195.504V145.311H199.406ZM194.836 147.754C197.051 147.754 198.65 149.23 198.668 151.34C198.65 153.449 197.051 154.926 194.836 154.926C192.604 154.926 190.986 153.449 191.004 151.34C190.986 149.23 192.604 147.754 194.836 147.754ZM194.836 148.914C193.377 148.914 192.305 149.934 192.322 151.34C192.305 152.764 193.377 153.766 194.836 153.748C196.277 153.766 197.332 152.764 197.35 151.34C197.332 149.934 196.277 148.914 194.836 148.914ZM218.391 147.543V148.65H207.686V143.377H209.057V147.543H218.391ZM220.043 150.777V151.902H205.734V150.777H220.043ZM218.479 156.895V158.037H207.598V153.502H208.969V156.895H218.479ZM234.686 142.797V158.424H233.35V142.797H234.686ZM231.486 143.184V157.615H230.168V149.934H226.758V148.773H230.168V143.184H231.486ZM227.812 144.73V145.873H223.26V153.502C225.51 153.493 226.934 153.396 228.621 153.027L228.762 154.205C226.951 154.574 225.422 154.645 222.908 154.662H221.924V144.73H227.812ZM245.584 144.01C247.711 144.027 249.24 145.847 249.469 148.773H252.967V142.797H254.338V158.459H252.967V149.916H249.486C249.319 152.975 247.764 154.891 245.584 154.891C243.281 154.891 241.664 152.781 241.664 149.459C241.664 146.137 243.281 144.027 245.584 144.01ZM245.584 145.24C244.037 145.258 242.982 146.91 242.982 149.459C242.982 152.008 244.037 153.66 245.584 153.66C247.113 153.66 248.186 152.008 248.186 149.459C248.186 146.91 247.113 145.258 245.584 145.24ZM270.035 152.904V158.459H268.682V154.047H259.277V152.904H270.035ZM270.035 142.797V152.148H268.682V147.965H265.746V146.84H268.682V142.797H270.035ZM261.334 143.992V145.135H258.732V150.004C259.506 149.986 260.438 149.907 261.475 149.67L261.633 150.83C260.174 151.146 258.996 151.146 258.047 151.146H257.379V143.992H261.334ZM266.555 143.992V145.135H263.584V150.004C264.92 150.004 265.957 149.934 267.152 149.67L267.293 150.795C265.834 151.111 264.691 151.146 262.986 151.146H262.195V143.992H266.555ZM284.59 142.797V149.248H287.209V150.391H284.59V158.424H283.219V142.797H284.59ZM281.707 145.311V146.453H272.408V145.311H276.434V142.99H277.805V145.311H281.707ZM277.137 147.754C279.352 147.754 280.951 149.23 280.969 151.34C280.951 153.449 279.352 154.926 277.137 154.926C274.904 154.926 273.287 153.449 273.305 151.34C273.287 149.23 274.904 147.754 277.137 147.754ZM277.137 148.914C275.678 148.914 274.605 149.934 274.623 151.34C274.605 152.764 275.678 153.766 277.137 153.748C278.578 153.766 279.633 152.764 279.65 151.34C279.633 149.934 278.578 148.914 277.137 148.914ZM293.361 151.727V155.312H297.035V151.727H298.406V155.312H302.361V156.473H288.053V155.312H291.99V151.727H293.361ZM295.893 145.627C295.893 148.141 298.986 150.268 301.676 150.707L301.113 151.814C298.723 151.34 296.2 149.811 295.207 147.648C294.196 149.828 291.683 151.393 289.336 151.867L288.756 150.76C291.393 150.32 294.469 148.141 294.469 145.627V145.346H289.23V144.203H301.131V145.346H295.893V145.627ZM306.105 153.326C306.123 150.971 306.844 150.25 308.057 149.512C308.777 149.072 309.34 148.369 309.34 147.385C309.34 146.189 308.408 145.434 307.248 145.434C306.246 145.434 305.244 146.031 305.139 147.473H303.539C303.627 145.346 305.244 144.098 307.248 144.098C309.445 144.098 310.887 145.521 310.887 147.455C310.887 148.826 310.236 149.793 309.146 150.461C308.057 151.129 307.652 151.797 307.617 153.326V153.414H306.105V153.326ZM306.914 157.105C306.299 157.105 305.771 156.596 305.789 155.963C305.771 155.348 306.299 154.838 306.914 154.838C307.529 154.838 308.039 155.348 308.039 155.963C308.039 156.596 307.529 157.105 306.914 157.105Z" fill="black"/>
<path d="M45.1016 222.738V224.711H36.5078V222.738H39.5938V220.512H42.0547V222.738H45.1016ZM40.8438 225.512C43.1094 225.512 44.7305 227.27 44.75 229.73C44.7305 232.211 43.1094 233.969 40.8438 233.969C38.5781 233.969 36.918 232.211 36.918 229.73C36.918 227.27 38.5781 225.512 40.8438 225.512ZM40.8438 227.582C39.8086 227.582 39.1055 228.383 39.1055 229.73C39.1055 231.078 39.8086 231.859 40.8438 231.859C41.8398 231.859 42.543 231.078 42.5625 229.73C42.543 228.383 41.8398 227.582 40.8438 227.582ZM51.8984 220.023V237.797H49.5352V229.242H48.0898V237.035H45.7656V220.375H48.0898V227.25H49.5352V220.023H51.8984ZM68.793 220.023V228.969H66.3125V227.602H62.25V225.707H66.3125V224.145H62.4453C61.3418 226.82 58.8027 228.529 54.8672 229.379L54.0273 227.348C58.0996 226.537 59.9844 224.857 60.3164 222.719H55.0234V220.707H63.0703C63.0703 221.244 63.0312 221.762 62.9531 222.25H66.3125V220.023H68.793ZM68.793 229.613V234.477H59.4961V235.648H69.1836V237.621H56.9961V232.641H66.293V231.566H56.9766V229.613H68.793ZM79.3789 230.902C83.0703 230.902 85.375 232.172 85.375 234.34C85.375 236.547 83.0703 237.816 79.3789 237.816C75.6094 237.816 73.2852 236.547 73.2852 234.34C73.2852 232.172 75.6094 230.902 79.3789 230.902ZM79.3789 232.836C77.0352 232.836 75.7656 233.324 75.7852 234.34C75.7656 235.355 77.0352 235.883 79.3789 235.883C81.6836 235.883 82.9141 235.355 82.9141 234.34C82.9141 233.324 81.6836 232.836 79.3789 232.836ZM85.1992 220.023V224.145H87.6016V226.234H85.1992V230.512H82.6992V220.023H85.1992ZM74.1055 221.137V223.383H77.7383V221.137H80.2383V229.496H71.625V221.137H74.1055ZM74.1055 227.523H77.7383V225.316H74.1055V227.523ZM102.484 220.023V225.121H104.887V227.191H102.484V232.973H99.9844V220.023H102.484ZM103.129 235.492V237.484H90.9609V231.605H93.4414V235.492H103.129ZM93.3828 221.176C96.0977 221.176 98.2266 223.051 98.2266 225.688C98.2266 228.285 96.0977 230.199 93.3828 230.199C90.6484 230.199 88.5 228.285 88.5 225.688C88.5 223.051 90.6484 221.176 93.3828 221.176ZM93.3828 223.344C92.0352 223.324 90.9414 224.203 90.9609 225.688C90.9414 227.133 92.0352 228.031 93.3828 228.031C94.75 228.031 95.7852 227.133 95.8047 225.688C95.7852 224.203 94.75 223.324 93.3828 223.344Z" fill="url(#paint2_linear_502_931)"/>
<path d="M47.4219 335.375V338.906H49.5156V339.953H47.4219V343.531H46.2031V335.375H47.4219ZM43.6094 336.266C43.6094 339.781 41.1562 342.281 37.0469 343.375L36.5469 342.422C39.9531 341.5 42.0547 339.641 42.3125 337.281H37.1719V336.266H43.6094ZM47.4219 344.172V349.266H46.2031V345.172H38.3281V344.172H47.4219ZM65.2656 335.391V339.594H67.3594V340.625H65.2656V345.594H64.0469V335.391H65.2656ZM65.9062 347.938V348.969H56.5781V344.594H57.7812V347.938H65.9062ZM56.2031 336.391V338.734H60.25V336.391H61.4688V343.25H55V336.391H56.2031ZM56.2031 342.25H60.25V339.703H56.2031V342.25ZM75.2188 336.781V345.734H68.8125V336.781H75.2188ZM70 337.766V344.734H74V337.766H70ZM78.9844 335.375V340.922H81.3125V341.984H78.9844V349.266H77.7656V335.375H78.9844ZM92.8125 335.375V340.875H95.1406V341.906H92.8125V349.297H91.5938V335.375H92.8125ZM89.1562 336.734V337.75H83.8906V344.781C86.4062 344.781 88.1875 344.664 90.25 344.281L90.4062 345.344C88.2344 345.734 86.4062 345.812 83.7656 345.812H82.6719V336.734H89.1562ZM110.859 336.859V338.25C110.859 340 110.859 341.984 110.344 345L109.094 344.875C109.656 342.031 109.656 339.953 109.656 338.25V337.875H101.281V336.859H110.859ZM112.562 346.203V347.219H99.9062V346.203H112.562ZM125.203 335.375V349.297H123.984V335.375H125.203ZM120.984 336.672V341.609H115.797V344.891C118.102 344.891 120.156 344.789 122.641 344.391L122.766 345.422C120.203 345.828 118.094 345.922 115.703 345.922H114.547V340.609H119.75V337.688H114.516V336.672H120.984ZM138.703 336.781V338.172C138.688 339.875 138.688 341.781 138.188 344.578L136.938 344.438C137.469 341.781 137.469 339.828 137.469 338.172V337.797H128.906V336.781H138.703ZM140.219 346.281V347.297H127.562V346.281H132.531V341.312H133.734V346.281H140.219ZM156.922 335.391V345.578H155.688V340.25H152.828V339.234H155.688V335.391H156.922ZM157.312 347.938V348.969H148V344.656H149.234V347.938H157.312ZM150.234 338.25C150.234 340.047 151.625 341.797 153.656 342.484L153.016 343.469C151.445 342.906 150.234 341.734 149.641 340.297C149.039 341.898 147.758 343.18 146.109 343.797L145.469 342.797C147.516 342.078 149 340.25 149 338.25V337.531H145.859V336.516H153.344V337.531H150.234V338.25ZM163.297 339.656C163.297 341.891 164.438 344.172 166.328 345.188L165.625 346.109C164.242 345.359 163.242 343.922 162.734 342.25C162.234 344.031 161.242 345.578 159.859 346.422L159.125 345.484C161.016 344.391 162.125 341.953 162.141 339.656V338.969H159.5V337.953H162.141V335.891H163.312V337.953H165.906V338.969H163.297V339.656ZM171.109 335.375V349.266H169.938V335.375H171.109ZM168.297 335.719V348.547H167.141V341.906H164.953V340.859H167.141V335.719H168.297ZM185.391 336.875V337.875H177.109V336.875H180.641V335.312H181.859V336.875H185.391ZM181.25 338.594C183.25 338.609 184.578 339.578 184.594 341.109C184.578 342.625 183.25 343.609 181.25 343.609C179.25 343.609 177.891 342.625 177.906 341.109C177.891 339.578 179.25 338.609 181.25 338.594ZM181.25 339.547C179.938 339.562 179.062 340.172 179.078 341.109C179.062 342.031 179.938 342.625 181.25 342.625C182.547 342.625 183.422 342.031 183.438 341.109C183.422 340.172 182.547 339.562 181.25 339.547ZM187.938 335.375V339.234H190.031V340.266H187.938V344.062H186.719V335.375H187.938ZM187.938 344.828V349.266H186.719V345.828H178.844V344.828H187.938ZM202.359 335.391V345.938H201.125V344.5H198.25V343.609H201.125V335.391H202.359ZM202.703 347.938V348.969H192.828V344.906H194.062V347.938H202.703ZM190.828 341.828C193.422 341.812 196.891 341.797 199.875 341.422L199.953 342.312C198.711 342.508 197.414 342.633 196.141 342.703V345.453H194.906V342.766C193.5 342.828 192.164 342.836 191 342.828L190.828 341.828ZM195.391 335.953C197.422 335.953 198.812 336.922 198.828 338.375C198.812 339.859 197.422 340.781 195.391 340.781C193.344 340.781 191.953 339.859 191.953 338.375C191.953 336.922 193.344 335.953 195.391 335.953ZM195.391 336.891C194.031 336.875 193.109 337.484 193.125 338.375C193.109 339.281 194.031 339.875 195.391 339.875C196.703 339.875 197.641 339.281 197.656 338.375C197.641 337.484 196.703 336.875 195.391 336.891ZM213.375 339.906C213.375 342.125 214.828 344.406 216.844 345.375L216.125 346.328C214.594 345.578 213.383 344.062 212.812 342.266C212.203 344.195 210.914 345.812 209.328 346.578L208.625 345.625C210.656 344.672 212.172 342.297 212.188 339.906V338.797H209V337.797H212.172V335.641H213.406V337.797H216.531V338.797H213.375V339.906ZM219.5 335.375V341.078H221.828V342.125H219.5V349.266H218.281V335.375H219.5ZM234.031 335.391V345.938H232.797V344.5H229.922V343.609H232.797V335.391H234.031ZM234.375 347.938V348.969H224.5V344.906H225.734V347.938H234.375ZM222.5 341.828C225.094 341.812 228.562 341.797 231.547 341.422L231.625 342.312C230.383 342.508 229.086 342.633 227.812 342.703V345.453H226.578V342.766C225.172 342.828 223.836 342.836 222.672 342.828L222.5 341.828ZM227.062 335.953C229.094 335.953 230.484 336.922 230.5 338.375C230.484 339.859 229.094 340.781 227.062 340.781C225.016 340.781 223.625 339.859 223.625 338.375C223.625 336.922 225.016 335.953 227.062 335.953ZM227.062 336.891C225.703 336.875 224.781 337.484 224.797 338.375C224.781 339.281 225.703 339.875 227.062 339.875C228.375 339.875 229.312 339.281 229.328 338.375C229.312 337.484 228.375 336.875 227.062 336.891ZM240.953 336.391C243.141 336.391 244.688 337.719 244.688 339.656C244.688 341.594 243.141 342.922 240.953 342.922C238.766 342.922 237.188 341.594 237.203 339.656C237.188 337.719 238.766 336.391 240.953 336.391ZM240.953 337.469C239.469 337.469 238.391 338.359 238.406 339.656C238.391 340.953 239.469 341.844 240.953 341.844C242.422 341.844 243.484 340.953 243.484 339.656C243.484 338.359 242.422 337.469 240.953 337.469ZM247.797 335.375V349.297H246.578V335.375H247.797ZM236.484 345.188C239.047 345.188 242.578 345.172 245.656 344.719L245.75 345.625C242.578 346.219 239.156 346.234 236.656 346.234L236.484 345.188ZM265.719 335.375V349.297H264.5V335.375H265.719ZM261.5 336.672V341.609H256.312V344.891C258.617 344.891 260.672 344.789 263.156 344.391L263.281 345.422C260.719 345.828 258.609 345.922 256.219 345.922H255.062V340.609H260.266V337.688H255.031V336.672H261.5ZM275.156 336.703V337.734H270.016V344.812C272.516 344.812 274.172 344.727 276.094 344.359L276.25 345.375C274.203 345.766 272.516 345.859 269.844 345.859H268.781V336.703H275.156ZM279.609 335.375V349.297H278.375V341.453H274.328V340.438H278.375V335.375H279.609ZM294.625 346.469V347.484H281.906V346.469H287.625V343.469H283.406V336.359H284.641V338.875H291.859V336.359H293.062V343.469H288.828V346.469H294.625ZM284.641 342.469H291.859V339.875H284.641V342.469ZM306.953 342.062V343.078H297.359V336.672H306.812V337.688H298.578V342.062H306.953ZM308.453 346.344V347.375H295.734V346.344H308.453ZM313.75 336.281C315.891 336.297 317.438 337.609 317.453 339.547C317.438 341.289 316.188 342.531 314.375 342.75V345.125C315.672 345.062 316.977 344.969 318.188 344.812L318.266 345.734C315.328 346.234 312.031 346.266 309.594 346.25L309.391 345.219C310.508 345.211 311.805 345.203 313.141 345.156V342.75C311.297 342.539 310.031 341.297 310.047 339.547C310.031 337.609 311.578 336.297 313.75 336.281ZM313.75 337.344C312.297 337.344 311.234 338.25 311.25 339.547C311.234 340.844 312.297 341.75 313.75 341.75C315.188 341.75 316.234 340.844 316.25 339.547C316.234 338.25 315.188 337.344 313.75 337.344ZM320.297 335.375V341.109H322.562V342.172H320.297V349.266H319.078V335.375H320.297ZM49.2812 372.5V373.547H36.5625V372.5H42.2656V369.297H37.7188V368.312H39.8906V363.75H37.6875V362.734H48.0625V363.75H45.8594V368.312H48.0312V369.297H43.4688V372.5H49.2812ZM41.1094 368.312H44.6562V363.75H41.1094V368.312ZM61.8594 361.391V371.547H60.6406V361.391H61.8594ZM62.2969 373.938V374.969H52.8906V370.516H54.1094V373.938H62.2969ZM54.3594 362.359C56.4375 362.359 58 363.766 58 365.766C58 367.797 56.4375 369.188 54.3594 369.188C52.2812 369.188 50.7188 367.797 50.7188 365.766C50.7188 363.766 52.2812 362.359 54.3594 362.359ZM54.3594 363.438C52.9531 363.438 51.9062 364.406 51.9219 365.766C51.9062 367.156 52.9531 368.109 54.3594 368.109C55.7344 368.109 56.7969 367.156 56.7969 365.766C56.7969 364.406 55.7344 363.438 54.3594 363.438ZM75.4688 368.891V369.891H65.8594V362.578H75.3125V363.609H67.1094V365.672H75.0156V366.656H67.1094V368.891H75.4688ZM76.9375 372.438V373.453H64.2188V372.438H76.9375ZM93.9375 361.375V375.266H92.7656V361.375H93.9375ZM91.125 361.719V374.547H89.9688V367.391H87.625V366.391H89.9688V361.719H91.125ZM86.1406 365.344C86.1406 367.75 87.2188 370.141 89.1406 371.25L88.3906 372.156C87.0234 371.336 86.0547 369.836 85.5781 368.062C85.0703 369.977 84.0625 371.609 82.6719 372.484L81.8906 371.562C83.8281 370.406 84.9531 367.875 84.9531 365.344V364.031H82.2812V363.016H88.6875V364.031H86.1406V365.344ZM107.109 367.891V368.891H102.812V372.484H108.609V373.516H95.8906V372.484H101.609V368.891H97.5156V362.516H106.969V363.516H98.75V367.891H107.109ZM125.219 361.375V375.266H123.984V361.375H125.219ZM121.109 362.891C121.094 366.891 119.234 370.422 114.578 372.656L113.906 371.656C117.664 369.875 119.578 367.211 119.859 363.891H114.547V362.891H121.109ZM138.422 361.391V365.594H140.516V366.625H138.422V371.594H137.203V361.391H138.422ZM139.062 373.938V374.969H129.734V370.594H130.938V373.938H139.062ZM129.359 362.391V364.734H133.406V362.391H134.625V369.25H128.156V362.391H129.359ZM129.359 368.25H133.406V365.703H129.359V368.25ZM145.938 362.391C148.125 362.391 149.672 363.719 149.672 365.656C149.672 367.594 148.125 368.922 145.938 368.922C143.75 368.922 142.172 367.594 142.188 365.656C142.172 363.719 143.75 362.391 145.938 362.391ZM145.938 363.469C144.453 363.469 143.375 364.359 143.391 365.656C143.375 366.953 144.453 367.844 145.938 367.844C147.406 367.844 148.469 366.953 148.469 365.656C148.469 364.359 147.406 363.469 145.938 363.469ZM152.781 361.375V375.297H151.562V361.375H152.781ZM141.469 371.188C144.031 371.188 147.562 371.172 150.641 370.719L150.734 371.625C147.562 372.219 144.141 372.234 141.641 372.234L141.469 371.188ZM171.125 361.375V375.266H169.953V361.375H171.125ZM168.203 361.75V374.562H167.031V368.078H164.094C163.242 369.695 161.906 371.125 159.969 372.266L159.25 371.375C162.273 369.586 163.789 367.078 164.016 364.172H159.844V363.156H165.234C165.227 364.523 165.008 365.844 164.547 367.078H167.031V361.75H168.203ZM184.531 361.391V369.328H183.312V361.391H184.531ZM184.531 370.078V375.078H175.5V370.078H184.531ZM176.703 371.078V374.078H183.328V371.078H176.703ZM177.031 362.125C179.141 362.125 180.672 363.438 180.672 365.375C180.672 367.281 179.141 368.609 177.031 368.609C174.922 368.609 173.391 367.281 173.391 365.375C173.391 363.438 174.922 362.125 177.031 362.125ZM177.031 363.172C175.609 363.156 174.578 364.078 174.594 365.375C174.578 366.656 175.609 367.562 177.031 367.562C178.438 367.562 179.469 366.656 179.469 365.375C179.469 364.078 178.438 363.156 177.031 363.172ZM203.625 372.453V373.484H190.906V372.453H194.062V368.703C192.875 368.086 192.156 367.086 192.156 365.828C192.156 363.672 194.266 362.266 197.234 362.25C200.203 362.266 202.312 363.672 202.312 365.828C202.312 367.062 201.617 368.055 200.469 368.672V372.453H203.625ZM197.234 363.266C194.953 363.25 193.344 364.281 193.344 365.828C193.344 367.375 194.953 368.422 197.234 368.422C199.5 368.422 201.125 367.375 201.125 365.828C201.125 364.281 199.5 363.25 197.234 363.266ZM195.266 372.453H199.234V369.141C198.633 369.305 197.961 369.391 197.234 369.391C196.523 369.391 195.859 369.312 195.266 369.156V372.453ZM217.453 372.438V373.453H204.734V372.438H210.422V369.031H211.625V372.438H217.453ZM211.656 363.391C211.656 365.719 214.406 367.75 216.828 368.172L216.281 369.188C214.164 368.758 211.93 367.32 211.031 365.312C210.117 367.312 207.898 368.758 205.781 369.188L205.234 368.172C207.656 367.75 210.375 365.719 210.375 363.391V362.328H211.656V363.391ZM231.266 367.828V368.797H218.547V367.828H231.266ZM229.672 369.906V372.859H221.328V374.188H230.125V375.078H220.094V372.016H228.453V370.828H220.078V369.906H229.672ZM229.625 361.797V364.672H221.422V365.891H229.875V366.781H220.203V363.828H228.391V362.688H220.156V361.797H229.625ZM249.062 368.75V369.75H236.391V368.75H242.109V367.375H238.078V361.781H247.484V362.781H239.312V364.078H247.109V365.016H239.312V366.391H247.562V367.375H243.328V368.75H249.062ZM242.734 370.797C245.781 370.781 247.5 371.562 247.516 373.016C247.5 374.469 245.781 375.234 242.734 375.234C239.656 375.234 237.938 374.469 237.938 373.016C237.938 371.562 239.656 370.781 242.734 370.797ZM242.734 371.719C240.438 371.719 239.156 372.188 239.172 373.016C239.156 373.859 240.438 374.297 242.734 374.281C245 374.297 246.281 373.859 246.281 373.016C246.281 372.188 245 371.719 242.734 371.719ZM257.172 363.781V364.781H250.203V363.781H253.094V361.797H254.312V363.781H257.172ZM253.688 365.719C255.438 365.719 256.688 367.031 256.703 368.875C256.688 370.734 255.438 372.062 253.688 372.062C251.953 372.062 250.703 370.734 250.703 368.875C250.703 367.031 251.953 365.719 253.688 365.719ZM253.688 366.75C252.594 366.766 251.797 367.656 251.797 368.875C251.797 370.109 252.594 371 253.688 370.984C254.797 371 255.609 370.109 255.609 368.875C255.609 367.656 254.797 366.766 253.688 366.75ZM262.062 361.375V375.266H260.891V368.25H259.047V374.578H257.891V361.719H259.047V367.234H260.891V361.375H262.062ZM276.391 362.875V363.875H268.109V362.875H271.641V361.312H272.859V362.875H276.391ZM272.25 364.594C274.25 364.609 275.578 365.578 275.594 367.109C275.578 368.625 274.25 369.609 272.25 369.609C270.25 369.609 268.891 368.625 268.906 367.109C268.891 365.578 270.25 364.609 272.25 364.594ZM272.25 365.547C270.938 365.562 270.062 366.172 270.078 367.109C270.062 368.031 270.938 368.625 272.25 368.625C273.547 368.625 274.422 368.031 274.438 367.109C274.422 366.172 273.547 365.562 272.25 365.547ZM278.938 361.375V365.234H281.031V366.266H278.938V370.062H277.719V361.375H278.938ZM278.938 370.828V375.266H277.719V371.828H269.844V370.828H278.938ZM284.734 369.719V371.344H291.672V369.719H292.906V375.078H283.516V369.719H284.734ZM284.734 374.094H291.672V372.312H284.734V374.094ZM294.562 367.719V368.734H281.906V367.719H294.562ZM288.875 362.188C288.875 363.906 291.406 365.438 293.844 365.75L293.391 366.734C291.234 366.414 289.125 365.312 288.25 363.75C287.359 365.32 285.234 366.414 283.094 366.734L282.625 365.75C285.094 365.422 287.609 363.953 287.609 362.188V361.531H288.875V362.188ZM300.281 362.391C302.469 362.391 304.016 363.719 304.016 365.656C304.016 367.594 302.469 368.922 300.281 368.922C298.094 368.922 296.516 367.594 296.531 365.656C296.516 363.719 298.094 362.391 300.281 362.391ZM300.281 363.469C298.797 363.469 297.719 364.359 297.734 365.656C297.719 366.953 298.797 367.844 300.281 367.844C301.75 367.844 302.812 366.953 302.812 365.656C302.812 364.359 301.75 363.469 300.281 363.469ZM307.125 361.375V375.297H305.906V361.375H307.125ZM295.812 371.188C298.375 371.188 301.906 371.172 304.984 370.719L305.078 371.625C301.906 372.219 298.484 372.234 295.984 372.234L295.812 371.188ZM326.234 367.297V368.312H313.578V367.297H326.234ZM324.609 369.594V372.734H316.359V374.141H325.031V375.109H315.141V371.812H323.406V370.531H315.109V369.594H324.609ZM325.109 361.922V362.922H320.625C320.75 364.352 323.094 365.445 325.562 365.641L325.156 366.609C322.883 366.375 320.742 365.492 319.922 364.094C319.078 365.492 316.945 366.375 314.672 366.609L314.266 365.641C316.719 365.445 319.055 364.352 319.219 362.922H314.734V361.922H325.109ZM338.906 361.375V375.266H337.688V367.984H334.375V366.969H337.688V361.375H338.906ZM334.406 362.891C334.406 366.828 332.734 370.328 328.094 372.625L327.422 371.641C331.188 369.82 332.93 367.148 333.172 363.891H328.031V362.891H334.406ZM347.562 361.641C350.578 361.641 352.469 362.609 352.469 364.266C352.469 365.891 350.578 366.844 347.562 366.844C344.547 366.844 342.641 365.891 342.641 364.266C342.641 362.609 344.547 361.641 347.562 361.641ZM347.562 362.609C345.312 362.609 343.891 363.219 343.906 364.266C343.891 365.281 345.312 365.875 347.562 365.875C349.781 365.875 351.219 365.281 351.219 364.266C351.219 363.219 349.781 362.609 347.562 362.609ZM352.344 370.516V375.078H342.781V370.516H346.953V368.922H341.234V367.906H353.891V368.922H348.156V370.516H352.344ZM344 371.5V374.078H351.141V371.5H344ZM361.391 361.625C364.484 361.625 366.297 362.469 366.297 364.016C366.297 365.594 364.484 366.438 361.391 366.453C358.297 366.438 356.469 365.594 356.469 364.016C356.469 362.469 358.297 361.625 361.391 361.625ZM361.391 362.547C359.078 362.547 357.734 363.109 357.75 364.016C357.734 364.984 359.078 365.516 361.391 365.516C363.688 365.516 365.047 364.984 365.047 364.016C365.047 363.109 363.688 362.547 361.391 362.547ZM367.719 367.391V368.391H355.062V367.391H367.719ZM366.094 369.594V372.703H357.844V374.141H366.516V375.109H356.625V371.797H364.891V370.531H356.594V369.594H366.094ZM47.4062 387.391V391.594H49.4844V392.625H47.4062V396.703H46.1719V387.391H47.4062ZM36.5 395.281C37.6094 395.281 38.9062 395.281 40.2656 395.234V394.219C38.6484 394.078 37.6094 393.32 37.6094 392.172C37.6094 390.906 38.9062 390.125 40.8594 390.125C42.8281 390.125 44.1094 390.906 44.125 392.172C44.1094 393.312 43.0938 394.07 41.4844 394.219V395.188C42.7812 395.125 44.0938 395.023 45.3125 394.844L45.4219 395.734C42.4062 396.266 39.0781 396.281 36.6406 396.281L36.5 395.281ZM47.4062 397.391V401.266H46.1719V398.375H38.2031V397.391H47.4062ZM44.8906 388.656V389.594H36.8438V388.656H40.2656V387.266H41.4844V388.656H44.8906ZM40.8594 391C39.5781 390.984 38.7812 391.438 38.7812 392.172C38.7812 392.891 39.5781 393.391 40.8594 393.375C42.1406 393.391 42.9531 392.891 42.9531 392.172C42.9531 391.438 42.1406 390.984 40.8594 391ZM63.1094 398.469V399.484H50.3906V398.469H56.1094V395.469H51.8906V388.359H53.125V390.875H60.3438V388.359H61.5469V395.469H57.3125V398.469H63.1094ZM53.125 394.469H60.3438V391.875H53.125V394.469ZM75.0781 387.375V390.938H77.1719V391.984H75.0781V395.453H73.8594V387.375H75.0781ZM67.5156 396.062V397.547H73.8594V396.062H75.0781V401.078H66.2969V396.062H67.5156ZM67.5156 400.094H73.8594V398.516H67.5156V400.094ZM72.5312 388.812V389.828H64.25V388.812H67.7812V387.25H69V388.812H72.5312ZM68.3906 390.469C70.3906 390.469 71.7188 391.422 71.7344 392.906C71.7188 394.391 70.3906 395.344 68.3906 395.344C66.375 395.344 65.0312 394.391 65.0469 392.906C65.0312 391.422 66.375 390.469 68.3906 390.469ZM68.3906 391.422C67.0781 391.406 66.2031 392.016 66.2188 392.906C66.2031 393.812 67.0781 394.406 68.3906 394.406C69.6875 394.406 70.5625 393.812 70.5781 392.906C70.5625 392.016 69.6875 391.406 68.3906 391.422ZM89.5 387.375V401.266H88.2812V387.375H89.5ZM80.1562 388.75V396.625C82.2734 396.617 84.4688 396.445 86.7969 395.953L86.9688 397C84.5 397.516 82.2969 397.688 80.0781 397.688H78.9531V388.75H80.1562ZM102.625 387.375V392.875H104.953V393.906H102.625V401.297H101.406V387.375H102.625ZM98.9688 388.734V389.75H93.7031V396.781C96.2188 396.781 98 396.664 100.062 396.281L100.219 397.344C98.0469 397.734 96.2188 397.812 93.5781 397.812H92.4844V388.734H98.9688ZM107.172 400.094C106.625 400.094 106.156 399.641 106.172 399.078C106.156 398.531 106.625 398.078 107.172 398.078C107.719 398.078 108.172 398.531 108.172 399.078C108.172 399.641 107.719 400.094 107.172 400.094Z" fill="black"/>
<path d="M36 84H371" stroke="url(#paint3_linear_502_931)"/>
<rect x="36.25" y="255" width="127" height="50" rx="10" fill="white"/>
<path d="M51.0391 286V274.688H55.4766C58.0547 274.688 59.5234 276.266 59.5234 278.5C59.5234 280.766 58.0234 282.312 55.4141 282.312H53.3828V286H51.0391ZM53.3828 280.422H55.0391C56.4297 280.422 57.1016 279.641 57.1016 278.5C57.1016 277.375 56.4297 276.609 55.0391 276.609H53.3828V280.422ZM64.6328 286.172C62.0703 286.172 60.4766 284.406 60.4766 281.781C60.4766 279.156 62.0703 277.406 64.6328 277.406C67.1953 277.406 68.8047 279.156 68.8047 281.781C68.8047 284.406 67.1953 286.172 64.6328 286.172ZM64.6484 284.375C65.8359 284.375 66.4453 283.266 66.4453 281.781C66.4453 280.281 65.8359 279.172 64.6484 279.172C63.4453 279.172 62.8203 280.281 62.8203 281.781C62.8203 283.266 63.4453 284.375 64.6484 284.375ZM70.2578 286V277.516H72.5703V286H70.2578ZM71.4141 276.406C70.7109 276.406 70.1484 275.875 70.1484 275.234C70.1484 274.578 70.7109 274.047 71.4141 274.047C72.1016 274.047 72.6641 274.578 72.6641 275.234C72.6641 275.875 72.1016 276.406 71.4141 276.406ZM76.6797 281.094V286H74.3672V277.516H76.5703V279H76.6641C77.0547 278.016 77.9609 277.406 79.2109 277.406C80.9766 277.406 82.1484 278.609 82.1328 280.594V286H79.8359V281C79.8359 279.953 79.2578 279.328 78.3047 279.328C77.3359 279.328 76.6797 279.969 76.6797 281.094ZM88.3984 277.516V279.25H86.8047V283.391C86.8047 284.062 87.1328 284.234 87.6016 284.25C87.8359 284.25 88.2422 284.234 88.5234 284.203V286.031C88.2734 286.078 87.8672 286.109 87.2891 286.109C85.6172 286.109 84.4766 285.359 84.4922 283.719V279.25H83.3203V277.516H84.4922V275.484H86.8047V277.516H88.3984ZM99.7266 277.922C99.6328 277.031 98.9141 276.5 97.7734 276.5C96.5859 276.5 95.9297 277.047 95.9141 277.797C95.8984 278.609 96.7578 278.984 97.7266 279.203L98.7422 279.453C100.68 279.891 102.133 280.875 102.133 282.766C102.133 284.844 100.508 286.156 97.7578 286.156C95.0234 286.156 93.2734 284.891 93.2109 282.469H95.4922C95.5703 283.609 96.4766 284.188 97.7266 284.188C98.9609 284.188 99.7578 283.609 99.7578 282.766C99.7578 282 99.0547 281.641 97.8203 281.328L96.5859 281.031C94.6797 280.562 93.5078 279.609 93.5078 277.953C93.5078 275.891 95.3203 274.531 97.7891 274.531C100.289 274.531 101.945 275.922 101.977 277.922H99.7266ZM104.977 289.188C104.523 289.188 104.102 289.172 103.805 289.141V287.344C104.102 287.359 104.445 287.375 104.742 287.375C105.195 287.375 105.57 287.328 105.852 286.594L105.992 286.234L102.945 277.516H105.367L107.148 283.766H107.242L109.039 277.516H111.492L108.18 286.938C107.695 288.297 106.773 289.188 104.977 289.188ZM117.461 280.031C117.367 279.438 116.836 279.047 116.07 279.047C115.32 279.047 114.742 279.406 114.758 279.922C114.742 280.297 115.055 280.594 115.852 280.766L117.367 281.078C119.008 281.422 119.805 282.156 119.82 283.375C119.805 285.047 118.305 286.172 116.055 286.172C113.758 286.172 112.414 285.141 112.227 283.484H114.555C114.664 284.156 115.211 284.5 116.055 284.5C116.898 284.5 117.461 284.156 117.461 283.609C117.461 283.172 117.102 282.906 116.305 282.734L114.898 282.453C113.289 282.141 112.445 281.297 112.461 280.047C112.445 278.422 113.852 277.406 116.039 277.406C118.18 277.406 119.508 278.422 119.633 280.031H117.461ZM125.711 277.516V279.25H124.117V283.391C124.117 284.062 124.445 284.234 124.914 284.25C125.148 284.25 125.555 284.234 125.836 284.203V286.031C125.586 286.078 125.18 286.109 124.602 286.109C122.93 286.109 121.789 285.359 121.805 283.719V279.25H120.633V277.516H121.805V275.484H124.117V277.516H125.711ZM130.914 286.172C128.32 286.172 126.727 284.484 126.727 281.797C126.727 279.172 128.336 277.406 130.82 277.406C133.055 277.406 134.805 278.812 134.805 281.703V282.359H129.008C129.008 283.641 129.773 284.438 130.961 284.438C131.742 284.438 132.305 284.094 132.539 283.578H134.742C134.414 285.141 133.008 286.172 130.914 286.172ZM129.008 280.906H132.617C132.617 279.875 131.898 279.141 130.867 279.141C129.805 279.141 129.047 279.93 129.008 280.906ZM136.258 286V277.516H138.461V279H138.555C138.914 278.016 139.773 277.406 140.914 277.406C142.086 277.406 142.945 278.016 143.227 279H143.305C143.664 278.031 144.617 277.406 145.867 277.406C147.445 277.406 148.539 278.453 148.539 280.297V286H146.227V280.75C146.227 279.781 145.664 279.312 144.898 279.312C144.023 279.312 143.523 279.922 143.523 280.812V286H141.273V280.688C141.273 279.844 140.742 279.312 139.961 279.312C139.18 279.312 138.57 279.938 138.57 280.906V286H136.258Z" fill="url(#paint4_linear_502_931)"/>
<rect x="172.25" y="255.5" width="93" height="49" rx="10" fill="white"/>
<path d="M189.242 286V274.688H193.68C196.258 274.688 197.727 276.141 197.727 278.375C197.727 279.922 197.016 281.047 195.727 281.594L198.133 286H195.539L193.383 281.984H191.586V286H189.242ZM191.586 280.078H193.242C194.633 280.078 195.305 279.5 195.305 278.375C195.305 277.234 194.633 276.609 193.242 276.609H191.586V280.078ZM198.898 283.625C198.898 281.734 200.43 281.109 202.055 281.016C202.664 280.977 203.805 280.922 204.164 280.906V280.219C204.148 279.516 203.664 279.094 202.805 279.094C202.023 279.094 201.523 279.453 201.398 280.031H199.195C199.336 278.562 200.617 277.406 202.867 277.406C204.711 277.406 206.461 278.234 206.461 280.281V286H204.273V284.828H204.211C203.789 285.609 202.992 286.156 201.727 286.156C200.102 286.156 198.898 285.312 198.898 283.625ZM201.117 283.562C201.117 284.219 201.648 284.562 202.383 284.562C203.43 284.562 204.18 283.859 204.164 282.969V282.344C203.812 282.359 202.828 282.414 202.43 282.453C201.633 282.531 201.117 282.906 201.117 283.562ZM210.539 281.094V286H208.227V277.516H210.43V279H210.523C210.914 278.016 211.82 277.406 213.07 277.406C214.836 277.406 216.008 278.609 215.992 280.594V286H213.695V281C213.695 279.953 213.117 279.328 212.164 279.328C211.195 279.328 210.539 279.969 210.539 281.094ZM217.789 286V274.688H220.102V280.766H220.227L222.977 277.516H225.633L222.477 281.188L225.805 286H223.086L220.758 282.547L220.102 283.281V286H217.789ZM226.711 286V277.516H229.023V286H226.711ZM227.867 276.406C227.164 276.406 226.602 275.875 226.602 275.234C226.602 274.578 227.164 274.047 227.867 274.047C228.555 274.047 229.117 274.578 229.117 275.234C229.117 275.875 228.555 276.406 227.867 276.406ZM233.133 281.094V286H230.82V277.516H233.023V279H233.117C233.508 278.016 234.414 277.406 235.664 277.406C237.43 277.406 238.602 278.609 238.586 280.594V286H236.289V281C236.289 279.953 235.711 279.328 234.758 279.328C233.789 279.328 233.133 279.969 233.133 281.094ZM244.195 289.359C241.852 289.359 240.414 288.312 240.273 286.703H242.555C242.68 287.375 243.32 287.688 244.242 287.688C245.32 287.688 246.039 287.234 246.039 286.047V284.5H245.93C245.617 285.188 244.867 285.875 243.508 285.875C241.586 285.875 240.055 284.531 240.055 281.703C240.055 278.828 241.633 277.406 243.508 277.406C244.93 277.406 245.617 278.25 245.93 278.938H246.023V277.516H248.32V286.094C248.32 288.25 246.602 289.359 244.195 289.359ZM244.227 284.141C245.383 284.141 246.039 283.234 246.039 281.734C246.039 280.219 245.383 279.25 244.227 279.25C243.055 279.25 242.43 280.266 242.43 281.734C242.43 283.203 243.055 284.141 244.227 284.141Z" fill="url(#paint5_linear_502_931)"/>
<rect x="274.25" y="255" width="96.5" height="50" rx="10" fill="white"/>
<path d="M286.914 286H284.383L288.305 274.688H291.32L295.227 286H292.711L291.867 283.391H287.773L286.914 286ZM288.367 281.562H291.273L289.852 277.234H289.773L288.367 281.562ZM299.883 286.172C297.289 286.172 295.727 284.375 295.727 281.781C295.727 279.188 297.305 277.406 299.883 277.406C302.07 277.406 303.555 278.688 303.648 280.625H301.477C301.336 279.781 300.789 279.203 299.914 279.203C298.805 279.203 298.07 280.141 298.07 281.75C298.07 283.391 298.789 284.328 299.914 284.328C300.727 284.328 301.336 283.828 301.477 282.922H303.648C303.539 284.844 302.133 286.172 299.883 286.172ZM309.555 277.516V279.25H307.961V283.391C307.961 284.062 308.289 284.234 308.758 284.25C308.992 284.25 309.398 284.234 309.68 284.203V286.031C309.43 286.078 309.023 286.109 308.445 286.109C306.773 286.109 305.633 285.359 305.648 283.719V279.25H304.477V277.516H305.648V275.484H307.961V277.516H309.555ZM311.008 286V277.516H313.32V286H311.008ZM312.164 276.406C311.461 276.406 310.898 275.875 310.898 275.234C310.898 274.578 311.461 274.047 312.164 274.047C312.852 274.047 313.414 274.578 313.414 275.234C313.414 275.875 312.852 276.406 312.164 276.406ZM322.992 277.516L320.008 286H317.414L314.445 277.516H316.883L318.664 283.609H318.758L320.539 277.516H322.992ZM323.477 283.625C323.477 281.734 325.008 281.109 326.633 281.016C327.242 280.977 328.383 280.922 328.742 280.906V280.219C328.727 279.516 328.242 279.094 327.383 279.094C326.602 279.094 326.102 279.453 325.977 280.031H323.773C323.914 278.562 325.195 277.406 327.445 277.406C329.289 277.406 331.039 278.234 331.039 280.281V286H328.852V284.828H328.789C328.367 285.609 327.57 286.156 326.305 286.156C324.68 286.156 323.477 285.312 323.477 283.625ZM325.695 283.562C325.695 284.219 326.227 284.562 326.961 284.562C328.008 284.562 328.758 283.859 328.742 282.969V282.344C328.391 282.359 327.406 282.414 327.008 282.453C326.211 282.531 325.695 282.906 325.695 283.562ZM337.273 277.516V279.25H335.68V283.391C335.68 284.062 336.008 284.234 336.477 284.25C336.711 284.25 337.117 284.234 337.398 284.203V286.031C337.148 286.078 336.742 286.109 336.164 286.109C334.492 286.109 333.352 285.359 333.367 283.719V279.25H332.195V277.516H333.367V275.484H335.68V277.516H337.273ZM338.727 286V277.516H341.039V286H338.727ZM339.883 276.406C339.18 276.406 338.617 275.875 338.617 275.234C338.617 274.578 339.18 274.047 339.883 274.047C340.57 274.047 341.133 274.578 341.133 275.234C341.133 275.875 340.57 276.406 339.883 276.406ZM346.648 286.172C344.086 286.172 342.492 284.406 342.492 281.781C342.492 279.156 344.086 277.406 346.648 277.406C349.211 277.406 350.82 279.156 350.82 281.781C350.82 284.406 349.211 286.172 346.648 286.172ZM346.664 284.375C347.852 284.375 348.461 283.266 348.461 281.781C348.461 280.281 347.852 279.172 346.664 279.172C345.461 279.172 344.836 280.281 344.836 281.781C344.836 283.266 345.461 284.375 346.664 284.375ZM354.586 281.094V286H352.273V277.516H354.477V279H354.57C354.961 278.016 355.867 277.406 357.117 277.406C358.883 277.406 360.055 278.609 360.039 280.594V286H357.742V281C357.742 279.953 357.164 279.328 356.211 279.328C355.242 279.328 354.586 279.969 354.586 281.094Z" fill="url(#paint6_linear_502_931)"/>
<defs>
<linearGradient id="paint0_linear_502_931" x1="18.5" y1="27.609" x2="343.475" y2="492.631" gradientUnits="userSpaceOnUse">
<stop stop-color="#3182F6"/>
<stop offset="1" stop-color="#004DBC"/>
</linearGradient>
<linearGradient id="paint1_linear_502_931" x1="29.7288" y1="136" x2="100.593" y2="136" gradientUnits="userSpaceOnUse">
<stop stop-color="#3182F6"/>
<stop offset="1" stop-color="#A009FF"/>
</linearGradient>
<linearGradient id="paint2_linear_502_931" x1="31" y1="245" x2="99.125" y2="245" gradientUnits="userSpaceOnUse">
<stop stop-color="#3182F6"/>
<stop offset="1" stop-color="#A009FF"/>
</linearGradient>
<linearGradient id="paint3_linear_502_931" x1="36" y1="84.5" x2="371" y2="84.5" gradientUnits="userSpaceOnUse">
<stop stop-color="#3182F6"/>
<stop offset="1" stop-color="#A009FF"/>
</linearGradient>
<linearGradient id="paint4_linear_502_931" x1="41.9578" y1="279.5" x2="164.036" y2="279.5" gradientUnits="userSpaceOnUse">
<stop stop-color="#3182F6"/>
<stop offset="1" stop-color="#A009FF"/>
</linearGradient>
<linearGradient id="paint5_linear_502_931" x1="181.763" y1="279.5" x2="259.893" y2="279.5" gradientUnits="userSpaceOnUse">
<stop stop-color="#3182F6"/>
<stop offset="1" stop-color="#A009FF"/>
</linearGradient>
<linearGradient id="paint6_linear_502_931" x1="278" y1="279.5" x2="372" y2="279.5" gradientUnits="userSpaceOnUse">
<stop stop-color="#3182F6"/>
<stop offset="1" stop-color="#A009FF"/>
</linearGradient>
</defs>
</svg>
