<svg width="547" height="593" viewBox="0 0 547 593" fill="none" xmlns="http://www.w3.org/2000/svg">
<g filter="url(#filter0_d_477_991)">
<rect x="70.5" y="60.5" width="406" height="452" rx="20.5" fill="white" stroke="url(#paint0_linear_477_991)"/>
<rect x="71" y="255" width="405" height="257" rx="20" fill="#EDF6FF"/>
<path d="M350.066 119.295V120.455H335.758V119.295H342.209V115.709H343.562V119.295H350.066ZM348.695 109.293V110.436H343.598C343.606 112.888 346.208 114.689 349.205 115.182L348.678 116.271C346.173 115.823 343.879 114.566 342.895 112.615C341.901 114.566 339.607 115.823 337.094 116.271L336.549 115.182C339.563 114.689 342.183 112.888 342.191 110.436H337.094V109.293H342.209V107.131H343.562V109.293H348.695ZM365.57 114.232V115.393H351.314V114.232H365.57ZM363.9 111.613V112.738H353.125V107.43H363.795V108.59H354.479V111.613H363.9ZM358.434 116.764C361.791 116.764 363.795 117.783 363.812 119.576C363.795 121.387 361.791 122.389 358.434 122.389C355.059 122.389 353.037 121.387 353.037 119.576C353.037 117.783 355.059 116.764 358.434 116.764ZM358.434 117.836C355.92 117.854 354.426 118.486 354.443 119.576C354.426 120.684 355.92 121.299 358.434 121.299C360.912 121.299 362.424 120.684 362.424 119.576C362.424 118.486 360.912 117.854 358.434 117.836ZM376.223 108.484V109.609H366.906V108.484H370.879V106.727H372.25V108.484H376.223ZM371.564 110.418C373.814 110.436 375.309 111.525 375.326 113.248C375.309 114.953 373.814 116.061 371.564 116.061C369.314 116.061 367.785 114.953 367.803 113.248C367.785 111.525 369.314 110.436 371.564 110.418ZM371.564 111.49C370.088 111.508 369.104 112.193 369.121 113.248C369.104 114.285 370.088 114.953 371.564 114.953C373.023 114.953 374.008 114.285 374.025 113.248C374.008 112.193 373.023 111.508 371.564 111.49ZM379.088 106.797V111.139H381.443V112.299H379.088V116.57H377.717V106.797H379.088ZM379.088 117.432V122.424H377.717V118.557H368.857V117.432H379.088ZM394.979 108.379V110.119C394.979 112.123 394.979 114.145 394.416 117.045L393.062 116.887C393.625 114.127 393.625 112.07 393.625 110.119V109.521H383.922V108.379H394.979ZM396.666 119.066V120.209H382.428V119.066H385.961V113.916H387.332V119.066H389.863V113.916H391.217V119.066H396.666ZM407.564 108.273V121H405.965V109.926H405.895L402.801 111.982V110.383L405.965 108.273H407.564ZM419.746 108.484V109.609H410.43V108.484H414.402V106.727H415.773V108.484H419.746ZM415.088 110.418C417.338 110.436 418.832 111.525 418.85 113.248C418.832 114.953 417.338 116.061 415.088 116.061C412.838 116.061 411.309 114.953 411.326 113.248C411.309 111.525 412.838 110.436 415.088 110.418ZM415.088 111.49C413.611 111.508 412.627 112.193 412.645 113.248C412.627 114.285 413.611 114.953 415.088 114.953C416.547 114.953 417.531 114.285 417.549 113.248C417.531 112.193 416.547 111.508 415.088 111.49ZM422.611 106.797V111.139H424.967V112.299H422.611V116.57H421.24V106.797H422.611ZM422.611 117.432V122.424H421.24V118.557H412.381V117.432H422.611ZM438.906 106.814V118.381H437.518V112.967H433.018V111.859H437.518V109.979H433.018V108.871H437.518V106.814H438.906ZM439.328 120.93V122.09H428.834V117.396H430.223V120.93H439.328ZM428.271 107.939V114.883C430.425 114.874 432.499 114.76 434.881 114.32L435.021 115.463C432.473 115.938 430.346 116.043 428.061 116.061H426.883V107.939H428.271Z" fill="#666666"/>
<path d="M116.922 107.086V109.453H106.609V107.086H110.312V104.414H113.266V107.086H116.922ZM111.812 110.414C114.531 110.414 116.477 112.523 116.5 115.477C116.477 118.453 114.531 120.562 111.812 120.562C109.094 120.562 107.102 118.453 107.102 115.477C107.102 112.523 109.094 110.414 111.812 110.414ZM111.812 112.898C110.57 112.898 109.727 113.859 109.727 115.477C109.727 117.094 110.57 118.031 111.812 118.031C113.008 118.031 113.852 117.094 113.875 115.477C113.852 113.859 113.008 112.898 111.812 112.898ZM125.078 103.828V125.156H122.242V114.891H120.508V124.242H117.719V104.25H120.508V112.5H122.242V103.828H125.078ZM145.352 103.828V114.562H142.375V112.922H137.5V110.648H142.375V108.773H137.734C136.41 111.984 133.363 114.035 128.641 115.055L127.633 112.617C132.52 111.645 134.781 109.629 135.18 107.062H128.828V104.648H138.484C138.484 105.293 138.438 105.914 138.344 106.5H142.375V103.828H145.352ZM145.352 115.336V121.172H134.195V122.578H145.82V124.945H131.195V118.969H142.352V117.68H131.172V115.336H145.352ZM163.586 116.883C168.016 116.883 170.781 118.406 170.781 121.008C170.781 123.656 168.016 125.18 163.586 125.18C159.062 125.18 156.273 123.656 156.273 121.008C156.273 118.406 159.062 116.883 163.586 116.883ZM163.586 119.203C160.773 119.203 159.25 119.789 159.273 121.008C159.25 122.227 160.773 122.859 163.586 122.859C166.352 122.859 167.828 122.227 167.828 121.008C167.828 119.789 166.352 119.203 163.586 119.203ZM170.57 103.828V108.773H173.453V111.281H170.57V116.414H167.57V103.828H170.57ZM157.258 105.164V107.859H161.617V105.164H164.617V115.195H154.281V105.164H157.258ZM157.258 112.828H161.617V110.18H157.258V112.828ZM191.312 103.828V109.945H194.195V112.43H191.312V119.367H188.312V103.828H191.312ZM192.086 122.391V124.781H177.484V117.727H180.461V122.391H192.086ZM180.391 105.211C183.648 105.211 186.203 107.461 186.203 110.625C186.203 113.742 183.648 116.039 180.391 116.039C177.109 116.039 174.531 113.742 174.531 110.625C174.531 107.461 177.109 105.211 180.391 105.211ZM180.391 107.812C178.773 107.789 177.461 108.844 177.484 110.625C177.461 112.359 178.773 113.438 180.391 113.438C182.031 113.438 183.273 112.359 183.297 110.625C183.273 108.844 182.031 107.789 180.391 107.812ZM219.156 103.828V125.156H216.297V103.828H219.156ZM214.797 104.133V124.172H211.984V117.562H209.477C208.68 119.637 207.285 120.82 205.492 120.82C202.68 120.82 200.852 117.867 200.852 113.062C200.852 108.281 202.68 105.352 205.492 105.352C207.273 105.352 208.668 106.512 209.477 108.562H211.984V104.133H214.797ZM205.492 108.164C204.25 108.164 203.547 109.805 203.57 113.062C203.547 116.344 204.25 117.961 205.492 117.938C206.734 117.961 207.484 116.344 207.484 113.062C207.484 109.805 206.711 108.164 205.492 108.164ZM210.062 110.953C210.156 111.609 210.203 112.312 210.203 113.062C210.203 113.801 210.156 114.504 210.062 115.148H211.984V110.953H210.062ZM229.703 108.656C229.703 112.57 231.484 116.508 235.094 118.031L233.336 120.422C230.898 119.32 229.211 117.199 228.25 114.562C227.277 117.434 225.531 119.754 222.93 120.938L221.125 118.453C224.852 116.883 226.656 112.805 226.68 108.656V105.469H229.703V108.656ZM239.266 103.828V125.203H236.242V103.828H239.266ZM254.664 123.234C250.938 123.234 248.266 121.172 248.195 118.219H251.758C251.828 119.484 253.047 120.328 254.688 120.328C256.375 120.328 257.594 119.367 257.57 118.008C257.594 116.625 256.352 115.641 254.359 115.641H252.789V113.039H254.359C256.023 113.039 257.195 112.125 257.195 110.789C257.195 109.5 256.211 108.609 254.711 108.609C253.211 108.609 251.969 109.453 251.922 110.742H248.547C248.594 107.812 251.242 105.797 254.711 105.797C258.25 105.797 260.617 107.883 260.594 110.578C260.617 112.477 259.281 113.836 257.383 114.164V114.305C259.867 114.609 261.25 116.133 261.227 118.242C261.25 121.148 258.484 123.234 254.664 123.234Z" fill="black"/>
<path d="M121.508 171.043V184.578H119.027V181.219H116.625V179.246H119.027V177.469H116.625V175.457H119.027V171.043H121.508ZM116.449 172.898V174.871H106.566V172.898H110.395V171.004H112.875V172.898H116.449ZM111.605 175.496C114.047 175.496 115.805 176.941 115.824 178.992C115.805 181.043 114.047 182.469 111.605 182.469C109.184 182.469 107.426 181.043 107.445 178.992C107.426 176.941 109.184 175.496 111.605 175.496ZM111.605 177.43C110.512 177.449 109.75 177.996 109.77 178.992C109.75 180.008 110.512 180.574 111.605 180.574C112.68 180.574 113.461 180.008 113.48 178.992C113.461 177.996 112.68 177.449 111.605 177.43ZM121.879 186.492V188.484H109.672V183.426H112.191V186.492H121.879ZM139.32 171.023V188.797H136.938V179.891H135.434V187.977H133.07V182.879L131.664 184.754C130.014 183.885 128.949 182.41 128.324 180.574C127.729 182.684 126.674 184.393 124.984 185.398L123.441 183.484C126.137 181.961 127.055 178.816 127.055 175.418V174.852H124.047V172.859H132.191V174.852H129.477V175.418C129.477 178.514 130.395 181.463 133.07 182.84V171.277H135.434V177.859H136.938V171.023H139.32ZM152.191 173.816C152.191 175.965 153.441 178.035 156.254 178.914L154.926 180.848C153.041 180.223 151.723 179.012 150.961 177.449C150.189 179.246 148.812 180.652 146.781 181.336L145.434 179.383C148.402 178.387 149.672 176.023 149.691 173.582V171.961H152.191V173.816ZM159.809 171.023V175.184H162.211V177.254H159.809V181.57H157.309V171.023H159.809ZM153.988 181.922C157.66 181.922 159.984 183.191 159.984 185.359C159.984 187.547 157.66 188.797 153.988 188.797C150.238 188.797 147.895 187.547 147.895 185.359C147.895 183.191 150.238 181.922 153.988 181.922ZM153.988 183.875C151.645 183.875 150.375 184.383 150.395 185.359C150.375 186.375 151.645 186.844 153.988 186.844C156.293 186.844 157.523 186.375 157.523 185.359C157.523 184.383 156.293 183.875 153.988 183.875ZM170.844 172.879V174.852H165.98V177.527H170.492V179.441H165.98V182.645C167.982 182.625 169.438 182.557 171.176 182.312L171.352 184.344C169.301 184.676 167.543 184.734 164.848 184.734H163.598V172.879H170.844ZM178.402 171.023V188.797H176.02V179.91H174.477V187.977H172.133V171.277H174.477V177.918H176.02V171.023H178.402Z" fill="url(#paint1_linear_477_991)"/>
<path d="M115.984 204.484V205.609H106.668V204.484H110.641V202.727H112.012V204.484H115.984ZM111.326 206.418C113.576 206.436 115.07 207.525 115.088 209.248C115.07 210.953 113.576 212.061 111.326 212.061C109.076 212.061 107.547 210.953 107.564 209.248C107.547 207.525 109.076 206.436 111.326 206.418ZM111.326 207.49C109.85 207.508 108.865 208.193 108.883 209.248C108.865 210.285 109.85 210.953 111.326 210.953C112.785 210.953 113.77 210.285 113.787 209.248C113.77 208.193 112.785 207.508 111.326 207.49ZM118.85 202.797V207.139H121.205V208.299H118.85V212.57H117.479V202.797H118.85ZM118.85 213.432V218.424H117.479V214.557H108.619V213.432H118.85ZM135.074 202.814V214.68H133.686V213.062H130.451V212.061H133.686V202.814H135.074ZM135.461 216.93V218.09H124.352V213.52H125.74V216.93H135.461ZM122.102 210.057C125.02 210.039 128.922 210.021 132.279 209.6L132.367 210.602C130.97 210.821 129.511 210.962 128.078 211.041V214.135H126.689V211.111C125.107 211.182 123.604 211.19 122.295 211.182L122.102 210.057ZM127.234 203.447C129.52 203.447 131.084 204.537 131.102 206.172C131.084 207.842 129.52 208.879 127.234 208.879C124.932 208.879 123.367 207.842 123.367 206.172C123.367 204.537 124.932 203.447 127.234 203.447ZM127.234 204.502C125.705 204.484 124.668 205.17 124.686 206.172C124.668 207.191 125.705 207.859 127.234 207.859C128.711 207.859 129.766 207.191 129.783 206.172C129.766 205.17 128.711 204.484 127.234 204.502ZM154.357 202.797V209.16H156.889V210.32H154.357V218.424H152.986V202.797H154.357ZM150.314 204.484C150.314 208.914 148.24 212.939 143.143 215.453L142.369 214.363C146.412 212.351 148.609 209.345 148.926 205.645H143.09V204.484H150.314ZM170.459 207.543V208.65H159.754V203.377H161.125V207.543H170.459ZM172.111 210.777V211.902H157.803V210.777H172.111ZM170.547 216.895V218.037H159.666V213.502H161.037V216.895H170.547ZM186.332 202.797V210.83H184.943V207.719H181.48V206.576H184.943V202.797H186.332ZM181.357 203.57C181.357 207.455 178.615 210.021 174.115 211.164L173.623 210.021C177.367 209.116 179.608 207.218 179.898 204.713H174.432V203.57H181.357ZM186.332 211.498V215.312H177.613V217.141H186.859V218.283H176.242V214.258H184.943V212.623H176.207V211.498H186.332ZM206.424 202.797V218.459H205.035V209.107H200.166V207.965H205.035V202.797H206.424ZM195.701 204.555V213.502C198.083 213.476 200.21 213.353 202.557 212.869L202.732 214.012C200.236 214.521 198.039 214.662 195.508 214.662H194.312V204.555H195.701ZM223.299 211.885V213.027H216.777V218.424H215.424V213.027H208.99V211.885H223.299ZM221.436 203.676V209.758H210.836V203.676H221.436ZM212.189 204.801V208.668H220.064V204.801H212.189ZM235.99 211.797V215.383H232.422V217.141C234.171 217.132 235.208 217.088 236.5 216.842L236.623 217.896C235.164 218.195 234.039 218.213 231.93 218.213H231.104V214.381H234.672V212.852H231.086V211.797H235.99ZM243.092 212.43V213.502H236.5V212.43H239.084V211.041H240.438V212.43H243.092ZM239.734 214.135C241.281 214.135 242.424 214.961 242.424 216.262C242.424 217.598 241.281 218.389 239.734 218.389C238.188 218.389 237.045 217.598 237.045 216.262C237.045 214.961 238.188 214.135 239.734 214.135ZM239.734 215.119C238.82 215.119 238.24 215.541 238.24 216.262C238.24 216.982 238.82 217.404 239.734 217.404C240.613 217.404 241.229 216.982 241.246 216.262C241.229 215.541 240.613 215.119 239.734 215.119ZM241.967 202.797V210.689H240.613V202.797H241.967ZM234.619 204.484C234.602 206.629 236.324 208.457 238.627 209.195L237.959 210.303C236.122 209.696 234.654 208.413 233.951 206.752C233.248 208.562 231.763 209.978 229.873 210.654L229.188 209.547C231.525 208.738 233.213 206.734 233.213 204.484V203.289H234.619V204.484ZM248.84 204.01C250.967 204.027 252.496 205.847 252.725 208.773H256.223V202.797H257.594V218.459H256.223V209.916H252.742C252.575 212.975 251.02 214.891 248.84 214.891C246.537 214.891 244.92 212.781 244.92 209.459C244.92 206.137 246.537 204.027 248.84 204.01ZM248.84 205.24C247.293 205.258 246.238 206.91 246.238 209.459C246.238 212.008 247.293 213.66 248.84 213.66C250.369 213.66 251.441 212.008 251.441 209.459C251.441 206.91 250.369 205.258 248.84 205.24ZM272.289 202.797V209.248H274.908V210.391H272.289V218.424H270.918V202.797H272.289ZM269.406 205.311V206.453H260.107V205.311H264.133V202.99H265.504V205.311H269.406ZM264.836 207.754C267.051 207.754 268.65 209.23 268.668 211.34C268.65 213.449 267.051 214.926 264.836 214.926C262.604 214.926 260.986 213.449 261.004 211.34C260.986 209.23 262.604 207.754 264.836 207.754ZM264.836 208.914C263.377 208.914 262.305 209.934 262.322 211.34C262.305 212.764 263.377 213.766 264.836 213.748C266.277 213.766 267.332 212.764 267.35 211.34C267.332 209.934 266.277 208.914 264.836 208.914ZM288.391 207.543V208.65H277.686V203.377H279.057V207.543H288.391ZM290.043 210.777V211.902H275.734V210.777H290.043ZM288.479 216.895V218.037H277.598V213.502H278.969V216.895H288.479ZM304.686 202.797V218.424H303.35V202.797H304.686ZM301.486 203.184V217.615H300.168V209.934H296.758V208.773H300.168V203.184H301.486ZM297.812 204.73V205.873H293.26V213.502C295.51 213.493 296.934 213.396 298.621 213.027L298.762 214.205C296.951 214.574 295.422 214.645 292.908 214.662H291.924V204.73H297.812ZM315.584 204.01C317.711 204.027 319.24 205.847 319.469 208.773H322.967V202.797H324.338V218.459H322.967V209.916H319.486C319.319 212.975 317.764 214.891 315.584 214.891C313.281 214.891 311.664 212.781 311.664 209.459C311.664 206.137 313.281 204.027 315.584 204.01ZM315.584 205.24C314.037 205.258 312.982 206.91 312.982 209.459C312.982 212.008 314.037 213.66 315.584 213.66C317.113 213.66 318.186 212.008 318.186 209.459C318.186 206.91 317.113 205.258 315.584 205.24ZM340.035 212.904V218.459H338.682V214.047H329.277V212.904H340.035ZM340.035 202.797V212.148H338.682V207.965H335.746V206.84H338.682V202.797H340.035ZM331.334 203.992V205.135H328.732V210.004C329.506 209.986 330.438 209.907 331.475 209.67L331.633 210.83C330.174 211.146 328.996 211.146 328.047 211.146H327.379V203.992H331.334ZM336.555 203.992V205.135H333.584V210.004C334.92 210.004 335.957 209.934 337.152 209.67L337.293 210.795C335.834 211.111 334.691 211.146 332.986 211.146H332.195V203.992H336.555ZM354.59 202.797V209.248H357.209V210.391H354.59V218.424H353.219V202.797H354.59ZM351.707 205.311V206.453H342.408V205.311H346.434V202.99H347.805V205.311H351.707ZM347.137 207.754C349.352 207.754 350.951 209.23 350.969 211.34C350.951 213.449 349.352 214.926 347.137 214.926C344.904 214.926 343.287 213.449 343.305 211.34C343.287 209.23 344.904 207.754 347.137 207.754ZM347.137 208.914C345.678 208.914 344.605 209.934 344.623 211.34C344.605 212.764 345.678 213.766 347.137 213.748C348.578 213.766 349.633 212.764 349.65 211.34C349.633 209.934 348.578 208.914 347.137 208.914ZM363.361 211.727V215.312H367.035V211.727H368.406V215.312H372.361V216.473H358.053V215.312H361.99V211.727H363.361ZM365.893 205.627C365.893 208.141 368.986 210.268 371.676 210.707L371.113 211.814C368.723 211.34 366.2 209.811 365.207 207.648C364.196 209.828 361.683 211.393 359.336 211.867L358.756 210.76C361.393 210.32 364.469 208.141 364.469 205.627V205.346H359.23V204.203H371.131V205.346H365.893V205.627ZM376.105 213.326C376.123 210.971 376.844 210.25 378.057 209.512C378.777 209.072 379.34 208.369 379.34 207.385C379.34 206.189 378.408 205.434 377.248 205.434C376.246 205.434 375.244 206.031 375.139 207.473H373.539C373.627 205.346 375.244 204.098 377.248 204.098C379.445 204.098 380.887 205.521 380.887 207.455C380.887 208.826 380.236 209.793 379.146 210.461C378.057 211.129 377.652 211.797 377.617 213.326V213.414H376.105V213.326ZM376.914 217.105C376.299 217.105 375.771 216.596 375.789 215.963C375.771 215.348 376.299 214.838 376.914 214.838C377.529 214.838 378.039 215.348 378.039 215.963C378.039 216.596 377.529 217.105 376.914 217.105Z" fill="black"/>
<path d="M115.102 282.738V284.711H106.508V282.738H109.594V280.512H112.055V282.738H115.102ZM110.844 285.512C113.109 285.512 114.73 287.27 114.75 289.73C114.73 292.211 113.109 293.969 110.844 293.969C108.578 293.969 106.918 292.211 106.918 289.73C106.918 287.27 108.578 285.512 110.844 285.512ZM110.844 287.582C109.809 287.582 109.105 288.383 109.105 289.73C109.105 291.078 109.809 291.859 110.844 291.859C111.84 291.859 112.543 291.078 112.562 289.73C112.543 288.383 111.84 287.582 110.844 287.582ZM121.898 280.023V297.797H119.535V289.242H118.09V297.035H115.766V280.375H118.09V287.25H119.535V280.023H121.898ZM138.793 280.023V288.969H136.312V287.602H132.25V285.707H136.312V284.145H132.445C131.342 286.82 128.803 288.529 124.867 289.379L124.027 287.348C128.1 286.537 129.984 284.857 130.316 282.719H125.023V280.707H133.07C133.07 281.244 133.031 281.762 132.953 282.25H136.312V280.023H138.793ZM138.793 289.613V294.477H129.496V295.648H139.184V297.621H126.996V292.641H136.293V291.566H126.977V289.613H138.793ZM149.379 290.902C153.07 290.902 155.375 292.172 155.375 294.34C155.375 296.547 153.07 297.816 149.379 297.816C145.609 297.816 143.285 296.547 143.285 294.34C143.285 292.172 145.609 290.902 149.379 290.902ZM149.379 292.836C147.035 292.836 145.766 293.324 145.785 294.34C145.766 295.355 147.035 295.883 149.379 295.883C151.684 295.883 152.914 295.355 152.914 294.34C152.914 293.324 151.684 292.836 149.379 292.836ZM155.199 280.023V284.145H157.602V286.234H155.199V290.512H152.699V280.023H155.199ZM144.105 281.137V283.383H147.738V281.137H150.238V289.496H141.625V281.137H144.105ZM144.105 287.523H147.738V285.316H144.105V287.523ZM172.484 280.023V285.121H174.887V287.191H172.484V292.973H169.984V280.023H172.484ZM173.129 295.492V297.484H160.961V291.605H163.441V295.492H173.129ZM163.383 281.176C166.098 281.176 168.227 283.051 168.227 285.688C168.227 288.285 166.098 290.199 163.383 290.199C160.648 290.199 158.5 288.285 158.5 285.688C158.5 283.051 160.648 281.176 163.383 281.176ZM163.383 283.344C162.035 283.324 160.941 284.203 160.961 285.688C160.941 287.133 162.035 288.031 163.383 288.031C164.75 288.031 165.785 287.133 165.805 285.688C165.785 284.203 164.75 283.324 163.383 283.344Z" fill="url(#paint2_linear_477_991)"/>
<path d="M117.422 395.375V398.906H119.516V399.953H117.422V403.531H116.203V395.375H117.422ZM113.609 396.266C113.609 399.781 111.156 402.281 107.047 403.375L106.547 402.422C109.953 401.5 112.055 399.641 112.312 397.281H107.172V396.266H113.609ZM117.422 404.172V409.266H116.203V405.172H108.328V404.172H117.422ZM135.266 395.391V399.594H137.359V400.625H135.266V405.594H134.047V395.391H135.266ZM135.906 407.938V408.969H126.578V404.594H127.781V407.938H135.906ZM126.203 396.391V398.734H130.25V396.391H131.469V403.25H125V396.391H126.203ZM126.203 402.25H130.25V399.703H126.203V402.25ZM145.219 396.781V405.734H138.812V396.781H145.219ZM140 397.766V404.734H144V397.766H140ZM148.984 395.375V400.922H151.312V401.984H148.984V409.266H147.766V395.375H148.984ZM162.812 395.375V400.875H165.141V401.906H162.812V409.297H161.594V395.375H162.812ZM159.156 396.734V397.75H153.891V404.781C156.406 404.781 158.188 404.664 160.25 404.281L160.406 405.344C158.234 405.734 156.406 405.812 153.766 405.812H152.672V396.734H159.156ZM180.859 396.859V398.25C180.859 400 180.859 401.984 180.344 405L179.094 404.875C179.656 402.031 179.656 399.953 179.656 398.25V397.875H171.281V396.859H180.859ZM182.562 406.203V407.219H169.906V406.203H182.562ZM195.203 395.375V409.297H193.984V395.375H195.203ZM190.984 396.672V401.609H185.797V404.891C188.102 404.891 190.156 404.789 192.641 404.391L192.766 405.422C190.203 405.828 188.094 405.922 185.703 405.922H184.547V400.609H189.75V397.688H184.516V396.672H190.984ZM208.703 396.781V398.172C208.688 399.875 208.688 401.781 208.188 404.578L206.938 404.438C207.469 401.781 207.469 399.828 207.469 398.172V397.797H198.906V396.781H208.703ZM210.219 406.281V407.297H197.562V406.281H202.531V401.312H203.734V406.281H210.219ZM226.922 395.391V405.578H225.688V400.25H222.828V399.234H225.688V395.391H226.922ZM227.312 407.938V408.969H218V404.656H219.234V407.938H227.312ZM220.234 398.25C220.234 400.047 221.625 401.797 223.656 402.484L223.016 403.469C221.445 402.906 220.234 401.734 219.641 400.297C219.039 401.898 217.758 403.18 216.109 403.797L215.469 402.797C217.516 402.078 219 400.25 219 398.25V397.531H215.859V396.516H223.344V397.531H220.234V398.25ZM233.297 399.656C233.297 401.891 234.438 404.172 236.328 405.188L235.625 406.109C234.242 405.359 233.242 403.922 232.734 402.25C232.234 404.031 231.242 405.578 229.859 406.422L229.125 405.484C231.016 404.391 232.125 401.953 232.141 399.656V398.969H229.5V397.953H232.141V395.891H233.312V397.953H235.906V398.969H233.297V399.656ZM241.109 395.375V409.266H239.938V395.375H241.109ZM238.297 395.719V408.547H237.141V401.906H234.953V400.859H237.141V395.719H238.297ZM255.391 396.875V397.875H247.109V396.875H250.641V395.312H251.859V396.875H255.391ZM251.25 398.594C253.25 398.609 254.578 399.578 254.594 401.109C254.578 402.625 253.25 403.609 251.25 403.609C249.25 403.609 247.891 402.625 247.906 401.109C247.891 399.578 249.25 398.609 251.25 398.594ZM251.25 399.547C249.938 399.562 249.062 400.172 249.078 401.109C249.062 402.031 249.938 402.625 251.25 402.625C252.547 402.625 253.422 402.031 253.438 401.109C253.422 400.172 252.547 399.562 251.25 399.547ZM257.938 395.375V399.234H260.031V400.266H257.938V404.062H256.719V395.375H257.938ZM257.938 404.828V409.266H256.719V405.828H248.844V404.828H257.938ZM272.359 395.391V405.938H271.125V404.5H268.25V403.609H271.125V395.391H272.359ZM272.703 407.938V408.969H262.828V404.906H264.062V407.938H272.703ZM260.828 401.828C263.422 401.812 266.891 401.797 269.875 401.422L269.953 402.312C268.711 402.508 267.414 402.633 266.141 402.703V405.453H264.906V402.766C263.5 402.828 262.164 402.836 261 402.828L260.828 401.828ZM265.391 395.953C267.422 395.953 268.812 396.922 268.828 398.375C268.812 399.859 267.422 400.781 265.391 400.781C263.344 400.781 261.953 399.859 261.953 398.375C261.953 396.922 263.344 395.953 265.391 395.953ZM265.391 396.891C264.031 396.875 263.109 397.484 263.125 398.375C263.109 399.281 264.031 399.875 265.391 399.875C266.703 399.875 267.641 399.281 267.656 398.375C267.641 397.484 266.703 396.875 265.391 396.891ZM283.375 399.906C283.375 402.125 284.828 404.406 286.844 405.375L286.125 406.328C284.594 405.578 283.383 404.062 282.812 402.266C282.203 404.195 280.914 405.812 279.328 406.578L278.625 405.625C280.656 404.672 282.172 402.297 282.188 399.906V398.797H279V397.797H282.172V395.641H283.406V397.797H286.531V398.797H283.375V399.906ZM289.5 395.375V401.078H291.828V402.125H289.5V409.266H288.281V395.375H289.5ZM304.031 395.391V405.938H302.797V404.5H299.922V403.609H302.797V395.391H304.031ZM304.375 407.938V408.969H294.5V404.906H295.734V407.938H304.375ZM292.5 401.828C295.094 401.812 298.562 401.797 301.547 401.422L301.625 402.312C300.383 402.508 299.086 402.633 297.812 402.703V405.453H296.578V402.766C295.172 402.828 293.836 402.836 292.672 402.828L292.5 401.828ZM297.062 395.953C299.094 395.953 300.484 396.922 300.5 398.375C300.484 399.859 299.094 400.781 297.062 400.781C295.016 400.781 293.625 399.859 293.625 398.375C293.625 396.922 295.016 395.953 297.062 395.953ZM297.062 396.891C295.703 396.875 294.781 397.484 294.797 398.375C294.781 399.281 295.703 399.875 297.062 399.875C298.375 399.875 299.312 399.281 299.328 398.375C299.312 397.484 298.375 396.875 297.062 396.891ZM310.953 396.391C313.141 396.391 314.688 397.719 314.688 399.656C314.688 401.594 313.141 402.922 310.953 402.922C308.766 402.922 307.188 401.594 307.203 399.656C307.188 397.719 308.766 396.391 310.953 396.391ZM310.953 397.469C309.469 397.469 308.391 398.359 308.406 399.656C308.391 400.953 309.469 401.844 310.953 401.844C312.422 401.844 313.484 400.953 313.484 399.656C313.484 398.359 312.422 397.469 310.953 397.469ZM317.797 395.375V409.297H316.578V395.375H317.797ZM306.484 405.188C309.047 405.188 312.578 405.172 315.656 404.719L315.75 405.625C312.578 406.219 309.156 406.234 306.656 406.234L306.484 405.188ZM335.719 395.375V409.297H334.5V395.375H335.719ZM331.5 396.672V401.609H326.312V404.891C328.617 404.891 330.672 404.789 333.156 404.391L333.281 405.422C330.719 405.828 328.609 405.922 326.219 405.922H325.062V400.609H330.266V397.688H325.031V396.672H331.5ZM345.156 396.703V397.734H340.016V404.812C342.516 404.812 344.172 404.727 346.094 404.359L346.25 405.375C344.203 405.766 342.516 405.859 339.844 405.859H338.781V396.703H345.156ZM349.609 395.375V409.297H348.375V401.453H344.328V400.438H348.375V395.375H349.609ZM364.625 406.469V407.484H351.906V406.469H357.625V403.469H353.406V396.359H354.641V398.875H361.859V396.359H363.062V403.469H358.828V406.469H364.625ZM354.641 402.469H361.859V399.875H354.641V402.469ZM376.953 402.062V403.078H367.359V396.672H376.812V397.688H368.578V402.062H376.953ZM378.453 406.344V407.375H365.734V406.344H378.453ZM383.75 396.281C385.891 396.297 387.438 397.609 387.453 399.547C387.438 401.289 386.188 402.531 384.375 402.75V405.125C385.672 405.062 386.977 404.969 388.188 404.812L388.266 405.734C385.328 406.234 382.031 406.266 379.594 406.25L379.391 405.219C380.508 405.211 381.805 405.203 383.141 405.156V402.75C381.297 402.539 380.031 401.297 380.047 399.547C380.031 397.609 381.578 396.297 383.75 396.281ZM383.75 397.344C382.297 397.344 381.234 398.25 381.25 399.547C381.234 400.844 382.297 401.75 383.75 401.75C385.188 401.75 386.234 400.844 386.25 399.547C386.234 398.25 385.188 397.344 383.75 397.344ZM390.297 395.375V401.109H392.562V402.172H390.297V409.266H389.078V395.375H390.297ZM119.281 432.5V433.547H106.562V432.5H112.266V429.297H107.719V428.312H109.891V423.75H107.688V422.734H118.062V423.75H115.859V428.312H118.031V429.297H113.469V432.5H119.281ZM111.109 428.312H114.656V423.75H111.109V428.312ZM131.859 421.391V431.547H130.641V421.391H131.859ZM132.297 433.938V434.969H122.891V430.516H124.109V433.938H132.297ZM124.359 422.359C126.438 422.359 128 423.766 128 425.766C128 427.797 126.438 429.188 124.359 429.188C122.281 429.188 120.719 427.797 120.719 425.766C120.719 423.766 122.281 422.359 124.359 422.359ZM124.359 423.438C122.953 423.438 121.906 424.406 121.922 425.766C121.906 427.156 122.953 428.109 124.359 428.109C125.734 428.109 126.797 427.156 126.797 425.766C126.797 424.406 125.734 423.438 124.359 423.438ZM145.469 428.891V429.891H135.859V422.578H145.312V423.609H137.109V425.672H145.016V426.656H137.109V428.891H145.469ZM146.938 432.438V433.453H134.219V432.438H146.938ZM163.938 421.375V435.266H162.766V421.375H163.938ZM161.125 421.719V434.547H159.969V427.391H157.625V426.391H159.969V421.719H161.125ZM156.141 425.344C156.141 427.75 157.219 430.141 159.141 431.25L158.391 432.156C157.023 431.336 156.055 429.836 155.578 428.062C155.07 429.977 154.062 431.609 152.672 432.484L151.891 431.562C153.828 430.406 154.953 427.875 154.953 425.344V424.031H152.281V423.016H158.688V424.031H156.141V425.344ZM177.109 427.891V428.891H172.812V432.484H178.609V433.516H165.891V432.484H171.609V428.891H167.516V422.516H176.969V423.516H168.75V427.891H177.109ZM195.219 421.375V435.266H193.984V421.375H195.219ZM191.109 422.891C191.094 426.891 189.234 430.422 184.578 432.656L183.906 431.656C187.664 429.875 189.578 427.211 189.859 423.891H184.547V422.891H191.109ZM208.422 421.391V425.594H210.516V426.625H208.422V431.594H207.203V421.391H208.422ZM209.062 433.938V434.969H199.734V430.594H200.938V433.938H209.062ZM199.359 422.391V424.734H203.406V422.391H204.625V429.25H198.156V422.391H199.359ZM199.359 428.25H203.406V425.703H199.359V428.25ZM215.938 422.391C218.125 422.391 219.672 423.719 219.672 425.656C219.672 427.594 218.125 428.922 215.938 428.922C213.75 428.922 212.172 427.594 212.188 425.656C212.172 423.719 213.75 422.391 215.938 422.391ZM215.938 423.469C214.453 423.469 213.375 424.359 213.391 425.656C213.375 426.953 214.453 427.844 215.938 427.844C217.406 427.844 218.469 426.953 218.469 425.656C218.469 424.359 217.406 423.469 215.938 423.469ZM222.781 421.375V435.297H221.562V421.375H222.781ZM211.469 431.188C214.031 431.188 217.562 431.172 220.641 430.719L220.734 431.625C217.562 432.219 214.141 432.234 211.641 432.234L211.469 431.188ZM241.125 421.375V435.266H239.953V421.375H241.125ZM238.203 421.75V434.562H237.031V428.078H234.094C233.242 429.695 231.906 431.125 229.969 432.266L229.25 431.375C232.273 429.586 233.789 427.078 234.016 424.172H229.844V423.156H235.234C235.227 424.523 235.008 425.844 234.547 427.078H237.031V421.75H238.203ZM254.531 421.391V429.328H253.312V421.391H254.531ZM254.531 430.078V435.078H245.5V430.078H254.531ZM246.703 431.078V434.078H253.328V431.078H246.703ZM247.031 422.125C249.141 422.125 250.672 423.438 250.672 425.375C250.672 427.281 249.141 428.609 247.031 428.609C244.922 428.609 243.391 427.281 243.391 425.375C243.391 423.438 244.922 422.125 247.031 422.125ZM247.031 423.172C245.609 423.156 244.578 424.078 244.594 425.375C244.578 426.656 245.609 427.562 247.031 427.562C248.438 427.562 249.469 426.656 249.469 425.375C249.469 424.078 248.438 423.156 247.031 423.172ZM273.625 432.453V433.484H260.906V432.453H264.062V428.703C262.875 428.086 262.156 427.086 262.156 425.828C262.156 423.672 264.266 422.266 267.234 422.25C270.203 422.266 272.312 423.672 272.312 425.828C272.312 427.062 271.617 428.055 270.469 428.672V432.453H273.625ZM267.234 423.266C264.953 423.25 263.344 424.281 263.344 425.828C263.344 427.375 264.953 428.422 267.234 428.422C269.5 428.422 271.125 427.375 271.125 425.828C271.125 424.281 269.5 423.25 267.234 423.266ZM265.266 432.453H269.234V429.141C268.633 429.305 267.961 429.391 267.234 429.391C266.523 429.391 265.859 429.312 265.266 429.156V432.453ZM287.453 432.438V433.453H274.734V432.438H280.422V429.031H281.625V432.438H287.453ZM281.656 423.391C281.656 425.719 284.406 427.75 286.828 428.172L286.281 429.188C284.164 428.758 281.93 427.32 281.031 425.312C280.117 427.312 277.898 428.758 275.781 429.188L275.234 428.172C277.656 427.75 280.375 425.719 280.375 423.391V422.328H281.656V423.391ZM301.266 427.828V428.797H288.547V427.828H301.266ZM299.672 429.906V432.859H291.328V434.188H300.125V435.078H290.094V432.016H298.453V430.828H290.078V429.906H299.672ZM299.625 421.797V424.672H291.422V425.891H299.875V426.781H290.203V423.828H298.391V422.688H290.156V421.797H299.625ZM319.062 428.75V429.75H306.391V428.75H312.109V427.375H308.078V421.781H317.484V422.781H309.312V424.078H317.109V425.016H309.312V426.391H317.562V427.375H313.328V428.75H319.062ZM312.734 430.797C315.781 430.781 317.5 431.562 317.516 433.016C317.5 434.469 315.781 435.234 312.734 435.234C309.656 435.234 307.938 434.469 307.938 433.016C307.938 431.562 309.656 430.781 312.734 430.797ZM312.734 431.719C310.438 431.719 309.156 432.188 309.172 433.016C309.156 433.859 310.438 434.297 312.734 434.281C315 434.297 316.281 433.859 316.281 433.016C316.281 432.188 315 431.719 312.734 431.719ZM327.172 423.781V424.781H320.203V423.781H323.094V421.797H324.312V423.781H327.172ZM323.688 425.719C325.438 425.719 326.688 427.031 326.703 428.875C326.688 430.734 325.438 432.062 323.688 432.062C321.953 432.062 320.703 430.734 320.703 428.875C320.703 427.031 321.953 425.719 323.688 425.719ZM323.688 426.75C322.594 426.766 321.797 427.656 321.797 428.875C321.797 430.109 322.594 431 323.688 430.984C324.797 431 325.609 430.109 325.609 428.875C325.609 427.656 324.797 426.766 323.688 426.75ZM332.062 421.375V435.266H330.891V428.25H329.047V434.578H327.891V421.719H329.047V427.234H330.891V421.375H332.062ZM346.391 422.875V423.875H338.109V422.875H341.641V421.312H342.859V422.875H346.391ZM342.25 424.594C344.25 424.609 345.578 425.578 345.594 427.109C345.578 428.625 344.25 429.609 342.25 429.609C340.25 429.609 338.891 428.625 338.906 427.109C338.891 425.578 340.25 424.609 342.25 424.594ZM342.25 425.547C340.938 425.562 340.062 426.172 340.078 427.109C340.062 428.031 340.938 428.625 342.25 428.625C343.547 428.625 344.422 428.031 344.438 427.109C344.422 426.172 343.547 425.562 342.25 425.547ZM348.938 421.375V425.234H351.031V426.266H348.938V430.062H347.719V421.375H348.938ZM348.938 430.828V435.266H347.719V431.828H339.844V430.828H348.938ZM354.734 429.719V431.344H361.672V429.719H362.906V435.078H353.516V429.719H354.734ZM354.734 434.094H361.672V432.312H354.734V434.094ZM364.562 427.719V428.734H351.906V427.719H364.562ZM358.875 422.188C358.875 423.906 361.406 425.438 363.844 425.75L363.391 426.734C361.234 426.414 359.125 425.312 358.25 423.75C357.359 425.32 355.234 426.414 353.094 426.734L352.625 425.75C355.094 425.422 357.609 423.953 357.609 422.188V421.531H358.875V422.188ZM370.281 422.391C372.469 422.391 374.016 423.719 374.016 425.656C374.016 427.594 372.469 428.922 370.281 428.922C368.094 428.922 366.516 427.594 366.531 425.656C366.516 423.719 368.094 422.391 370.281 422.391ZM370.281 423.469C368.797 423.469 367.719 424.359 367.734 425.656C367.719 426.953 368.797 427.844 370.281 427.844C371.75 427.844 372.812 426.953 372.812 425.656C372.812 424.359 371.75 423.469 370.281 423.469ZM377.125 421.375V435.297H375.906V421.375H377.125ZM365.812 431.188C368.375 431.188 371.906 431.172 374.984 430.719L375.078 431.625C371.906 432.219 368.484 432.234 365.984 432.234L365.812 431.188ZM396.234 427.297V428.312H383.578V427.297H396.234ZM394.609 429.594V432.734H386.359V434.141H395.031V435.109H385.141V431.812H393.406V430.531H385.109V429.594H394.609ZM395.109 421.922V422.922H390.625C390.75 424.352 393.094 425.445 395.562 425.641L395.156 426.609C392.883 426.375 390.742 425.492 389.922 424.094C389.078 425.492 386.945 426.375 384.672 426.609L384.266 425.641C386.719 425.445 389.055 424.352 389.219 422.922H384.734V421.922H395.109ZM408.906 421.375V435.266H407.688V427.984H404.375V426.969H407.688V421.375H408.906ZM404.406 422.891C404.406 426.828 402.734 430.328 398.094 432.625L397.422 431.641C401.188 429.82 402.93 427.148 403.172 423.891H398.031V422.891H404.406ZM417.562 421.641C420.578 421.641 422.469 422.609 422.469 424.266C422.469 425.891 420.578 426.844 417.562 426.844C414.547 426.844 412.641 425.891 412.641 424.266C412.641 422.609 414.547 421.641 417.562 421.641ZM417.562 422.609C415.312 422.609 413.891 423.219 413.906 424.266C413.891 425.281 415.312 425.875 417.562 425.875C419.781 425.875 421.219 425.281 421.219 424.266C421.219 423.219 419.781 422.609 417.562 422.609ZM422.344 430.516V435.078H412.781V430.516H416.953V428.922H411.234V427.906H423.891V428.922H418.156V430.516H422.344ZM414 431.5V434.078H421.141V431.5H414ZM431.391 421.625C434.484 421.625 436.297 422.469 436.297 424.016C436.297 425.594 434.484 426.438 431.391 426.453C428.297 426.438 426.469 425.594 426.469 424.016C426.469 422.469 428.297 421.625 431.391 421.625ZM431.391 422.547C429.078 422.547 427.734 423.109 427.75 424.016C427.734 424.984 429.078 425.516 431.391 425.516C433.688 425.516 435.047 424.984 435.047 424.016C435.047 423.109 433.688 422.547 431.391 422.547ZM437.719 427.391V428.391H425.062V427.391H437.719ZM436.094 429.594V432.703H427.844V434.141H436.516V435.109H426.625V431.797H434.891V430.531H426.594V429.594H436.094ZM117.406 447.391V451.594H119.484V452.625H117.406V456.703H116.172V447.391H117.406ZM106.5 455.281C107.609 455.281 108.906 455.281 110.266 455.234V454.219C108.648 454.078 107.609 453.32 107.609 452.172C107.609 450.906 108.906 450.125 110.859 450.125C112.828 450.125 114.109 450.906 114.125 452.172C114.109 453.312 113.094 454.07 111.484 454.219V455.188C112.781 455.125 114.094 455.023 115.312 454.844L115.422 455.734C112.406 456.266 109.078 456.281 106.641 456.281L106.5 455.281ZM117.406 457.391V461.266H116.172V458.375H108.203V457.391H117.406ZM114.891 448.656V449.594H106.844V448.656H110.266V447.266H111.484V448.656H114.891ZM110.859 451C109.578 450.984 108.781 451.438 108.781 452.172C108.781 452.891 109.578 453.391 110.859 453.375C112.141 453.391 112.953 452.891 112.953 452.172C112.953 451.438 112.141 450.984 110.859 451ZM133.109 458.469V459.484H120.391V458.469H126.109V455.469H121.891V448.359H123.125V450.875H130.344V448.359H131.547V455.469H127.312V458.469H133.109ZM123.125 454.469H130.344V451.875H123.125V454.469ZM145.078 447.375V450.938H147.172V451.984H145.078V455.453H143.859V447.375H145.078ZM137.516 456.062V457.547H143.859V456.062H145.078V461.078H136.297V456.062H137.516ZM137.516 460.094H143.859V458.516H137.516V460.094ZM142.531 448.812V449.828H134.25V448.812H137.781V447.25H139V448.812H142.531ZM138.391 450.469C140.391 450.469 141.719 451.422 141.734 452.906C141.719 454.391 140.391 455.344 138.391 455.344C136.375 455.344 135.031 454.391 135.047 452.906C135.031 451.422 136.375 450.469 138.391 450.469ZM138.391 451.422C137.078 451.406 136.203 452.016 136.219 452.906C136.203 453.812 137.078 454.406 138.391 454.406C139.688 454.406 140.562 453.812 140.578 452.906C140.562 452.016 139.688 451.406 138.391 451.422ZM159.5 447.375V461.266H158.281V447.375H159.5ZM150.156 448.75V456.625C152.273 456.617 154.469 456.445 156.797 455.953L156.969 457C154.5 457.516 152.297 457.688 150.078 457.688H148.953V448.75H150.156ZM172.625 447.375V452.875H174.953V453.906H172.625V461.297H171.406V447.375H172.625ZM168.969 448.734V449.75H163.703V456.781C166.219 456.781 168 456.664 170.062 456.281L170.219 457.344C168.047 457.734 166.219 457.812 163.578 457.812H162.484V448.734H168.969ZM177.172 460.094C176.625 460.094 176.156 459.641 176.172 459.078C176.156 458.531 176.625 458.078 177.172 458.078C177.719 458.078 178.172 458.531 178.172 459.078C178.172 459.641 177.719 460.094 177.172 460.094Z" fill="black"/>
<path d="M106 144H441" stroke="url(#paint3_linear_477_991)"/>
<rect x="106.25" y="315" width="127" height="50" rx="10" fill="white"/>
<path d="M121.039 346V334.688H125.477C128.055 334.688 129.523 336.266 129.523 338.5C129.523 340.766 128.023 342.312 125.414 342.312H123.383V346H121.039ZM123.383 340.422H125.039C126.43 340.422 127.102 339.641 127.102 338.5C127.102 337.375 126.43 336.609 125.039 336.609H123.383V340.422ZM134.633 346.172C132.07 346.172 130.477 344.406 130.477 341.781C130.477 339.156 132.07 337.406 134.633 337.406C137.195 337.406 138.805 339.156 138.805 341.781C138.805 344.406 137.195 346.172 134.633 346.172ZM134.648 344.375C135.836 344.375 136.445 343.266 136.445 341.781C136.445 340.281 135.836 339.172 134.648 339.172C133.445 339.172 132.82 340.281 132.82 341.781C132.82 343.266 133.445 344.375 134.648 344.375ZM140.258 346V337.516H142.57V346H140.258ZM141.414 336.406C140.711 336.406 140.148 335.875 140.148 335.234C140.148 334.578 140.711 334.047 141.414 334.047C142.102 334.047 142.664 334.578 142.664 335.234C142.664 335.875 142.102 336.406 141.414 336.406ZM146.68 341.094V346H144.367V337.516H146.57V339H146.664C147.055 338.016 147.961 337.406 149.211 337.406C150.977 337.406 152.148 338.609 152.133 340.594V346H149.836V341C149.836 339.953 149.258 339.328 148.305 339.328C147.336 339.328 146.68 339.969 146.68 341.094ZM158.398 337.516V339.25H156.805V343.391C156.805 344.062 157.133 344.234 157.602 344.25C157.836 344.25 158.242 344.234 158.523 344.203V346.031C158.273 346.078 157.867 346.109 157.289 346.109C155.617 346.109 154.477 345.359 154.492 343.719V339.25H153.32V337.516H154.492V335.484H156.805V337.516H158.398ZM169.727 337.922C169.633 337.031 168.914 336.5 167.773 336.5C166.586 336.5 165.93 337.047 165.914 337.797C165.898 338.609 166.758 338.984 167.727 339.203L168.742 339.453C170.68 339.891 172.133 340.875 172.133 342.766C172.133 344.844 170.508 346.156 167.758 346.156C165.023 346.156 163.273 344.891 163.211 342.469H165.492C165.57 343.609 166.477 344.188 167.727 344.188C168.961 344.188 169.758 343.609 169.758 342.766C169.758 342 169.055 341.641 167.82 341.328L166.586 341.031C164.68 340.562 163.508 339.609 163.508 337.953C163.508 335.891 165.32 334.531 167.789 334.531C170.289 334.531 171.945 335.922 171.977 337.922H169.727ZM174.977 349.188C174.523 349.188 174.102 349.172 173.805 349.141V347.344C174.102 347.359 174.445 347.375 174.742 347.375C175.195 347.375 175.57 347.328 175.852 346.594L175.992 346.234L172.945 337.516H175.367L177.148 343.766H177.242L179.039 337.516H181.492L178.18 346.938C177.695 348.297 176.773 349.188 174.977 349.188ZM187.461 340.031C187.367 339.438 186.836 339.047 186.07 339.047C185.32 339.047 184.742 339.406 184.758 339.922C184.742 340.297 185.055 340.594 185.852 340.766L187.367 341.078C189.008 341.422 189.805 342.156 189.82 343.375C189.805 345.047 188.305 346.172 186.055 346.172C183.758 346.172 182.414 345.141 182.227 343.484H184.555C184.664 344.156 185.211 344.5 186.055 344.5C186.898 344.5 187.461 344.156 187.461 343.609C187.461 343.172 187.102 342.906 186.305 342.734L184.898 342.453C183.289 342.141 182.445 341.297 182.461 340.047C182.445 338.422 183.852 337.406 186.039 337.406C188.18 337.406 189.508 338.422 189.633 340.031H187.461ZM195.711 337.516V339.25H194.117V343.391C194.117 344.062 194.445 344.234 194.914 344.25C195.148 344.25 195.555 344.234 195.836 344.203V346.031C195.586 346.078 195.18 346.109 194.602 346.109C192.93 346.109 191.789 345.359 191.805 343.719V339.25H190.633V337.516H191.805V335.484H194.117V337.516H195.711ZM200.914 346.172C198.32 346.172 196.727 344.484 196.727 341.797C196.727 339.172 198.336 337.406 200.82 337.406C203.055 337.406 204.805 338.812 204.805 341.703V342.359H199.008C199.008 343.641 199.773 344.438 200.961 344.438C201.742 344.438 202.305 344.094 202.539 343.578H204.742C204.414 345.141 203.008 346.172 200.914 346.172ZM199.008 340.906H202.617C202.617 339.875 201.898 339.141 200.867 339.141C199.805 339.141 199.047 339.93 199.008 340.906ZM206.258 346V337.516H208.461V339H208.555C208.914 338.016 209.773 337.406 210.914 337.406C212.086 337.406 212.945 338.016 213.227 339H213.305C213.664 338.031 214.617 337.406 215.867 337.406C217.445 337.406 218.539 338.453 218.539 340.297V346H216.227V340.75C216.227 339.781 215.664 339.312 214.898 339.312C214.023 339.312 213.523 339.922 213.523 340.812V346H211.273V340.688C211.273 339.844 210.742 339.312 209.961 339.312C209.18 339.312 208.57 339.938 208.57 340.906V346H206.258Z" fill="url(#paint4_linear_477_991)"/>
<rect x="242.25" y="315.5" width="93" height="49" rx="10" fill="white"/>
<path d="M259.242 346V334.688H263.68C266.258 334.688 267.727 336.141 267.727 338.375C267.727 339.922 267.016 341.047 265.727 341.594L268.133 346H265.539L263.383 341.984H261.586V346H259.242ZM261.586 340.078H263.242C264.633 340.078 265.305 339.5 265.305 338.375C265.305 337.234 264.633 336.609 263.242 336.609H261.586V340.078ZM268.898 343.625C268.898 341.734 270.43 341.109 272.055 341.016C272.664 340.977 273.805 340.922 274.164 340.906V340.219C274.148 339.516 273.664 339.094 272.805 339.094C272.023 339.094 271.523 339.453 271.398 340.031H269.195C269.336 338.562 270.617 337.406 272.867 337.406C274.711 337.406 276.461 338.234 276.461 340.281V346H274.273V344.828H274.211C273.789 345.609 272.992 346.156 271.727 346.156C270.102 346.156 268.898 345.312 268.898 343.625ZM271.117 343.562C271.117 344.219 271.648 344.562 272.383 344.562C273.43 344.562 274.18 343.859 274.164 342.969V342.344C273.812 342.359 272.828 342.414 272.43 342.453C271.633 342.531 271.117 342.906 271.117 343.562ZM280.539 341.094V346H278.227V337.516H280.43V339H280.523C280.914 338.016 281.82 337.406 283.07 337.406C284.836 337.406 286.008 338.609 285.992 340.594V346H283.695V341C283.695 339.953 283.117 339.328 282.164 339.328C281.195 339.328 280.539 339.969 280.539 341.094ZM287.789 346V334.688H290.102V340.766H290.227L292.977 337.516H295.633L292.477 341.188L295.805 346H293.086L290.758 342.547L290.102 343.281V346H287.789ZM296.711 346V337.516H299.023V346H296.711ZM297.867 336.406C297.164 336.406 296.602 335.875 296.602 335.234C296.602 334.578 297.164 334.047 297.867 334.047C298.555 334.047 299.117 334.578 299.117 335.234C299.117 335.875 298.555 336.406 297.867 336.406ZM303.133 341.094V346H300.82V337.516H303.023V339H303.117C303.508 338.016 304.414 337.406 305.664 337.406C307.43 337.406 308.602 338.609 308.586 340.594V346H306.289V341C306.289 339.953 305.711 339.328 304.758 339.328C303.789 339.328 303.133 339.969 303.133 341.094ZM314.195 349.359C311.852 349.359 310.414 348.312 310.273 346.703H312.555C312.68 347.375 313.32 347.688 314.242 347.688C315.32 347.688 316.039 347.234 316.039 346.047V344.5H315.93C315.617 345.188 314.867 345.875 313.508 345.875C311.586 345.875 310.055 344.531 310.055 341.703C310.055 338.828 311.633 337.406 313.508 337.406C314.93 337.406 315.617 338.25 315.93 338.938H316.023V337.516H318.32V346.094C318.32 348.25 316.602 349.359 314.195 349.359ZM314.227 344.141C315.383 344.141 316.039 343.234 316.039 341.734C316.039 340.219 315.383 339.25 314.227 339.25C313.055 339.25 312.43 340.266 312.43 341.734C312.43 343.203 313.055 344.141 314.227 344.141Z" fill="url(#paint5_linear_477_991)"/>
<rect x="344.25" y="315" width="96.5" height="50" rx="10" fill="white"/>
<path d="M356.914 346H354.383L358.305 334.688H361.32L365.227 346H362.711L361.867 343.391H357.773L356.914 346ZM358.367 341.562H361.273L359.852 337.234H359.773L358.367 341.562ZM369.883 346.172C367.289 346.172 365.727 344.375 365.727 341.781C365.727 339.188 367.305 337.406 369.883 337.406C372.07 337.406 373.555 338.688 373.648 340.625H371.477C371.336 339.781 370.789 339.203 369.914 339.203C368.805 339.203 368.07 340.141 368.07 341.75C368.07 343.391 368.789 344.328 369.914 344.328C370.727 344.328 371.336 343.828 371.477 342.922H373.648C373.539 344.844 372.133 346.172 369.883 346.172ZM379.555 337.516V339.25H377.961V343.391C377.961 344.062 378.289 344.234 378.758 344.25C378.992 344.25 379.398 344.234 379.68 344.203V346.031C379.43 346.078 379.023 346.109 378.445 346.109C376.773 346.109 375.633 345.359 375.648 343.719V339.25H374.477V337.516H375.648V335.484H377.961V337.516H379.555ZM381.008 346V337.516H383.32V346H381.008ZM382.164 336.406C381.461 336.406 380.898 335.875 380.898 335.234C380.898 334.578 381.461 334.047 382.164 334.047C382.852 334.047 383.414 334.578 383.414 335.234C383.414 335.875 382.852 336.406 382.164 336.406ZM392.992 337.516L390.008 346H387.414L384.445 337.516H386.883L388.664 343.609H388.758L390.539 337.516H392.992ZM393.477 343.625C393.477 341.734 395.008 341.109 396.633 341.016C397.242 340.977 398.383 340.922 398.742 340.906V340.219C398.727 339.516 398.242 339.094 397.383 339.094C396.602 339.094 396.102 339.453 395.977 340.031H393.773C393.914 338.562 395.195 337.406 397.445 337.406C399.289 337.406 401.039 338.234 401.039 340.281V346H398.852V344.828H398.789C398.367 345.609 397.57 346.156 396.305 346.156C394.68 346.156 393.477 345.312 393.477 343.625ZM395.695 343.562C395.695 344.219 396.227 344.562 396.961 344.562C398.008 344.562 398.758 343.859 398.742 342.969V342.344C398.391 342.359 397.406 342.414 397.008 342.453C396.211 342.531 395.695 342.906 395.695 343.562ZM407.273 337.516V339.25H405.68V343.391C405.68 344.062 406.008 344.234 406.477 344.25C406.711 344.25 407.117 344.234 407.398 344.203V346.031C407.148 346.078 406.742 346.109 406.164 346.109C404.492 346.109 403.352 345.359 403.367 343.719V339.25H402.195V337.516H403.367V335.484H405.68V337.516H407.273ZM408.727 346V337.516H411.039V346H408.727ZM409.883 336.406C409.18 336.406 408.617 335.875 408.617 335.234C408.617 334.578 409.18 334.047 409.883 334.047C410.57 334.047 411.133 334.578 411.133 335.234C411.133 335.875 410.57 336.406 409.883 336.406ZM416.648 346.172C414.086 346.172 412.492 344.406 412.492 341.781C412.492 339.156 414.086 337.406 416.648 337.406C419.211 337.406 420.82 339.156 420.82 341.781C420.82 344.406 419.211 346.172 416.648 346.172ZM416.664 344.375C417.852 344.375 418.461 343.266 418.461 341.781C418.461 340.281 417.852 339.172 416.664 339.172C415.461 339.172 414.836 340.281 414.836 341.781C414.836 343.266 415.461 344.375 416.664 344.375ZM424.586 341.094V346H422.273V337.516H424.477V339H424.57C424.961 338.016 425.867 337.406 427.117 337.406C428.883 337.406 430.055 338.609 430.039 340.594V346H427.742V341C427.742 339.953 427.164 339.328 426.211 339.328C425.242 339.328 424.586 339.969 424.586 341.094Z" fill="url(#paint6_linear_477_991)"/>
</g>
<defs>
<filter id="filter0_d_477_991" x="0" y="0" width="547" height="593" filterUnits="userSpaceOnUse" color-interpolation-filters="sRGB">
<feFlood flood-opacity="0" result="BackgroundImageFix"/>
<feColorMatrix in="SourceAlpha" type="matrix" values="0 0 0 0 0 0 0 0 0 0 0 0 0 0 0 0 0 0 127 0" result="hardAlpha"/>
<feOffset dy="10"/>
<feGaussianBlur stdDeviation="35"/>
<feComposite in2="hardAlpha" operator="out"/>
<feColorMatrix type="matrix" values="0 0 0 0 0.192157 0 0 0 0 0.509804 0 0 0 0 0.964706 0 0 0 0.3 0"/>
<feBlend mode="normal" in2="BackgroundImageFix" result="effect1_dropShadow_477_991"/>
<feBlend mode="normal" in="SourceGraphic" in2="effect1_dropShadow_477_991" result="shape"/>
</filter>
<linearGradient id="paint0_linear_477_991" x1="88.5" y1="87.609" x2="413.475" y2="552.631" gradientUnits="userSpaceOnUse">
<stop stop-color="#3182F6"/>
<stop offset="1" stop-color="#004DBC"/>
</linearGradient>
<linearGradient id="paint1_linear_477_991" x1="99.7288" y1="196" x2="170.593" y2="196" gradientUnits="userSpaceOnUse">
<stop stop-color="#3182F6"/>
<stop offset="1" stop-color="#A009FF"/>
</linearGradient>
<linearGradient id="paint2_linear_477_991" x1="101" y1="305" x2="169.125" y2="305" gradientUnits="userSpaceOnUse">
<stop stop-color="#3182F6"/>
<stop offset="1" stop-color="#A009FF"/>
</linearGradient>
<linearGradient id="paint3_linear_477_991" x1="106" y1="144.5" x2="441" y2="144.5" gradientUnits="userSpaceOnUse">
<stop stop-color="#3182F6"/>
<stop offset="1" stop-color="#A009FF"/>
</linearGradient>
<linearGradient id="paint4_linear_477_991" x1="111.958" y1="339.5" x2="234.036" y2="339.5" gradientUnits="userSpaceOnUse">
<stop stop-color="#3182F6"/>
<stop offset="1" stop-color="#A009FF"/>
</linearGradient>
<linearGradient id="paint5_linear_477_991" x1="251.763" y1="339.5" x2="329.893" y2="339.5" gradientUnits="userSpaceOnUse">
<stop stop-color="#3182F6"/>
<stop offset="1" stop-color="#A009FF"/>
</linearGradient>
<linearGradient id="paint6_linear_477_991" x1="348" y1="339.5" x2="442" y2="339.5" gradientUnits="userSpaceOnUse">
<stop stop-color="#3182F6"/>
<stop offset="1" stop-color="#A009FF"/>
</linearGradient>
</defs>
</svg>
