<svg width="800" height="197" viewBox="0 0 800 197" fill="none" xmlns="http://www.w3.org/2000/svg">
<g filter="url(#filter0_d_462_1162)">
<rect x="50" y="40" width="700" height="97" rx="48.5" fill="white" shape-rendering="crispEdges"/>
<path d="M125.892 80.123C128.706 80.1445 130.704 82.7227 130.726 86.7832C130.704 90.8438 128.706 93.4219 125.892 93.4219C123.056 93.4219 121.079 90.8438 121.079 86.7832C121.079 82.7227 123.056 80.1445 125.892 80.123ZM125.892 81.627C124.001 81.6484 122.669 83.668 122.669 86.7832C122.669 89.8984 124.001 91.918 125.892 91.918C127.804 91.918 129.093 89.8984 129.093 86.7832C129.093 83.668 127.804 81.6484 125.892 81.627ZM135.56 78.6406V86.2676H138.761V87.7285H135.56V97.7402H133.884V78.6406H135.56ZM155.54 78.6406V97.7832H153.843V78.6406H155.54ZM145.378 80.123C148.214 80.1445 150.255 82.7227 150.255 86.7832C150.255 90.8438 148.214 93.4219 145.378 93.4219C142.521 93.4219 140.501 90.8438 140.501 86.7832C140.501 82.7227 142.521 80.1445 145.378 80.123ZM145.378 81.627C143.466 81.6484 142.134 83.668 142.134 86.7832C142.134 89.8984 143.466 91.918 145.378 91.918C147.29 91.918 148.622 89.8984 148.622 86.7832C148.622 83.668 147.29 81.6484 145.378 81.627ZM652.28 81.9492V83.3242H642.698V81.9492H646.673V79.2207H648.349V81.9492H652.28ZM647.489 84.6133C649.896 84.6133 651.614 86.418 651.636 88.9531C651.614 91.5098 649.896 93.3359 647.489 93.3359C645.104 93.3359 643.386 91.5098 643.386 88.9531C643.386 86.418 645.104 84.6133 647.489 84.6133ZM647.489 86.0312C645.985 86.0527 644.89 87.2773 644.89 88.9531C644.89 90.6504 645.985 91.875 647.489 91.8535C649.015 91.875 650.132 90.6504 650.132 88.9531C650.132 87.2773 649.015 86.0527 647.489 86.0312ZM659.005 78.6406V97.7402H657.394V88.0938H654.858V96.7949H653.269V79.1133H654.858V86.6973H657.394V78.6406H659.005ZM679.243 93.873V95.291H661.755V93.873H666.095V88.7168C664.462 87.8682 663.474 86.4932 663.474 84.7637C663.474 81.7988 666.374 79.8652 670.456 79.8438C674.538 79.8652 677.438 81.7988 677.438 84.7637C677.438 86.4609 676.482 87.8252 674.903 88.6738V93.873H679.243ZM670.456 81.2402C667.319 81.2188 665.106 82.6367 665.106 84.7637C665.106 86.8906 667.319 88.3301 670.456 88.3301C673.571 88.3301 675.806 86.8906 675.806 84.7637C675.806 82.6367 673.571 81.2188 670.456 81.2402ZM667.749 93.873H673.206V89.3184C672.379 89.5439 671.455 89.6621 670.456 89.6621C669.479 89.6621 668.565 89.5547 667.749 89.3398V93.873Z" fill="black"/>
<path d="M180.483 78.4258V88.3301H177.755V78.4258H180.483ZM180.505 89.168V94.4746H170.106V95.6777H181.042V97.8477H167.421V92.4336H177.776V91.2949H167.378V89.168H180.505ZM171.632 80.3594C171.61 82.7227 173.028 85 176.229 85.9238L174.897 88.0293C172.652 87.374 171.105 86.0205 170.235 84.291C169.333 86.1816 167.732 87.6855 165.401 88.373L164.048 86.2246C167.313 85.2578 168.774 82.7871 168.774 80.3594V78.8555H171.632V80.3594ZM192.536 79.5645V85.666H186.628V87.75C189.539 87.75 191.258 87.6533 193.245 87.2773L193.503 89.4688C191.226 89.877 189.163 89.9414 185.382 89.9414H183.921V83.625H189.786V81.7129H183.878V79.5645H192.536ZM199.626 78.4473V90.4785H196.897V87.4707H193.653V85.3008H196.897V83.3242H193.653V81.1543H196.897V78.4473H199.626ZM199.626 91.3594V97.9766H196.897V93.5508H186.155V91.3594H199.626ZM218.532 78.4258V98.0195H215.761V78.4258H218.532ZM207.919 79.8008C210.862 79.8008 213.054 82.5078 213.054 86.7617C213.054 91.0586 210.862 93.7441 207.919 93.7441C204.911 93.7441 202.72 91.0586 202.741 86.7617C202.72 82.5078 204.911 79.8008 207.919 79.8008ZM207.919 82.2715C206.394 82.2715 205.384 83.8613 205.384 86.7617C205.384 89.6836 206.394 91.252 207.919 91.252C209.401 91.252 210.411 89.6836 210.411 86.7617C210.411 83.8613 209.401 82.2715 207.919 82.2715ZM231.638 79.8008C234.28 79.8008 236.246 81.9814 236.644 85.4941H240.038V78.4258H242.745V98.0195H240.038V87.6855H236.665C236.375 91.4453 234.366 93.7441 231.638 93.7441C228.673 93.7441 226.546 91.0586 226.567 86.7617C226.546 82.5078 228.673 79.8008 231.638 79.8008ZM231.638 82.2715C230.177 82.2715 229.167 83.8613 229.188 86.7617C229.167 89.6836 230.177 91.252 231.638 91.252C233.12 91.252 234.087 89.6836 234.087 86.7617C234.087 83.8613 233.12 82.2715 231.638 82.2715ZM261.2 87.0625V89.2969H247.257V80.123H250.007V87.0625H261.2ZM263.155 93.3789V95.6562H245.259V93.3789H263.155ZM285.821 78.4258V90.0273H283.093V85.4082H280.042V83.1953H283.093V78.4258H285.821ZM279.14 90.457C283.308 90.4785 285.864 91.8535 285.886 94.2383C285.864 96.6016 283.308 97.998 279.14 97.998C274.972 97.998 272.415 96.6016 272.415 94.2383C272.415 91.8535 274.972 90.4785 279.14 90.457ZM279.14 92.5625C276.54 92.5625 275.144 93.0996 275.144 94.2383C275.144 95.3555 276.54 95.9141 279.14 95.9141C281.739 95.9141 283.157 95.3555 283.157 94.2383C283.157 93.0996 281.739 92.5625 279.14 92.5625ZM280.622 79.6074V81.7988H276.733C276.798 84.0762 278.173 86.375 281.224 87.3848L279.87 89.5332C277.711 88.835 276.229 87.417 275.38 85.6445C274.51 87.6426 272.952 89.2539 270.632 90.0488L269.214 87.8789C272.426 86.8047 273.865 84.248 273.94 81.7988H270.009V79.6074H280.622ZM304.298 87.1699V89.3398H298.626V93.5078H306.253V95.7422H288.356V93.5078H295.897V89.3398H290.462V79.8008H304.147V81.9922H293.212V87.1699H304.298ZM323.741 78.4473V92.498H320.991V78.4473H323.741ZM324.257 95.4414V97.6328H310.636V91.0801H313.407V95.4414H324.257ZM313.021 79.6934C316.028 79.6934 318.37 81.7559 318.37 84.6133C318.37 87.5352 316.028 89.5762 313.021 89.5762C310.013 89.5762 307.671 87.5352 307.671 84.6133C307.671 81.7559 310.013 79.6934 313.021 79.6934ZM313.021 82.0781C311.495 82.0566 310.335 83.0234 310.356 84.6133C310.335 86.2461 311.495 87.1914 313.021 87.1914C314.503 87.1914 315.663 86.2461 315.663 84.6133C315.663 83.0234 314.503 82.0566 313.021 82.0781ZM333.968 83.7539C333.968 86.9121 335.579 90.2852 338.866 91.6602L337.384 93.8086C335.074 92.8311 333.484 90.8867 332.614 88.502C331.723 91.0908 330.101 93.2393 327.802 94.3027L326.233 92.1328C329.478 90.6934 331.153 87.0625 331.153 83.7539V82.5508H327.007V80.3164H338.05V82.5508H333.968V83.7539ZM342.755 78.4258V97.9766H339.983V78.4258H342.755ZM366.946 78.4258V90.0273H364.218V85.4082H361.167V83.1953H364.218V78.4258H366.946ZM360.265 90.457C364.433 90.4785 366.989 91.8535 367.011 94.2383C366.989 96.6016 364.433 97.998 360.265 97.998C356.097 97.998 353.54 96.6016 353.54 94.2383C353.54 91.8535 356.097 90.4785 360.265 90.457ZM360.265 92.5625C357.665 92.5625 356.269 93.0996 356.269 94.2383C356.269 95.3555 357.665 95.9141 360.265 95.9141C362.864 95.9141 364.282 95.3555 364.282 94.2383C364.282 93.0996 362.864 92.5625 360.265 92.5625ZM361.747 79.6074V81.7988H357.858C357.923 84.0762 359.298 86.375 362.349 87.3848L360.995 89.5332C358.836 88.835 357.354 87.417 356.505 85.6445C355.635 87.6426 354.077 89.2539 351.757 90.0488L350.339 87.8789C353.551 86.8047 354.99 84.248 355.065 81.7988H351.134V79.6074H361.747ZM385.122 78.4473V84.0332H387.614V86.2891H385.122V91.7246H382.372V78.4473H385.122ZM369.267 89.2109C370.695 89.2109 372.328 89.2109 374.015 89.168V88.0723C371.888 87.7715 370.556 86.7402 370.577 85.2363C370.556 83.4316 372.468 82.3145 375.368 82.3145C378.247 82.3145 380.138 83.4316 380.159 85.2363C380.138 86.7402 378.838 87.7607 376.743 88.0508V89.0605C378.354 88.9961 379.955 88.8672 381.47 88.6738L381.663 90.5645C377.538 91.2949 373.005 91.3379 369.546 91.3379L369.267 89.2109ZM385.122 92.5195V97.9766H382.372V94.625H371.759V92.5195H385.122ZM380.976 79.8652V81.8633H369.782V79.8652H374.015V78.2754H376.743V79.8652H380.976ZM375.368 84.1406C373.972 84.1406 373.177 84.4844 373.198 85.2363C373.177 85.9453 373.972 86.3535 375.368 86.3535C376.743 86.3535 377.517 85.9453 377.538 85.2363C377.517 84.4844 376.743 84.1406 375.368 84.1406ZM404.866 78.4258V97.9766H402.095V78.4258H404.866ZM400.591 81.3691V83.5605H388.903V81.3691H393.351V78.6836H396.144V81.3691H400.591ZM394.79 84.6348C397.669 84.6348 399.817 86.5684 399.817 89.2969C399.817 92.0254 397.669 93.959 394.79 93.959C391.89 93.959 389.741 92.0254 389.741 89.2969C389.741 86.5684 391.89 84.6348 394.79 84.6348ZM394.79 86.8477C393.351 86.8691 392.362 87.793 392.362 89.2969C392.362 90.8223 393.351 91.7246 394.79 91.7031C396.208 91.7246 397.196 90.8223 397.196 89.2969C397.196 87.793 396.208 86.8691 394.79 86.8477ZM430.476 93.4434V95.6992H412.579V93.4434H420.12V89.4473H414.47V79.8652H428.478V89.4473H422.849V93.4434H430.476ZM417.177 82.0566V87.2988H425.771V82.0566H417.177ZM449.489 93.5078V95.7422H431.593V93.5078H449.489ZM447.427 79.7363V86.2461H436.405V88.4805H447.878V90.6289H433.655V84.0547H444.72V81.9277H433.634V79.7363H447.427ZM459.265 79.7793C459.265 81.1543 459.093 82.4004 458.728 83.5391H460.769V78.8125H463.347V89.2969H460.769V85.709H457.718C456.525 87.5566 454.635 89.0068 451.96 90.1133L450.628 88.0938C454.227 86.6865 456.01 84.6777 456.407 81.9707H451.616V79.7793H459.265ZM467.407 78.4473V89.5547H464.808V78.4473H467.407ZM457.825 91.0801C457.825 92.6484 458.491 94.2705 460.081 95.334C461.682 94.1846 462.38 92.4873 462.38 91.0801V90.1562H465.087V91.0801C465.065 93.0781 466.183 95.0332 468.782 95.8281L467.45 97.8262C465.57 97.1816 464.346 95.9678 463.669 94.4531C463.024 95.957 461.896 97.2783 460.124 97.9766C458.309 97.3213 457.17 96.0322 456.536 94.5176C455.849 95.9785 454.646 97.1709 452.862 97.8262L451.487 95.8281C454.065 94.9473 455.204 92.9707 455.226 91.0801V90.1562H457.825V91.0801ZM485.733 80.123V81.9707C485.733 84.4199 485.733 87.1699 484.938 91.3164L482.188 91.0371C482.93 87.3418 482.962 84.5918 482.983 82.293H471.468V80.123H485.733ZM487.452 93.3574V95.5918H469.62V93.3574H476.001V86.6328H478.729V93.3574H487.452ZM492.759 94.4102L490.911 100.533H488.634L489.708 94.4102H492.759ZM510.913 80.166V82.3359H499.312V80.166H503.759V78.3184H506.487V80.166H510.913ZM505.112 82.959C507.948 82.959 509.925 84.4199 509.925 86.5684C509.925 88.7168 507.948 90.1777 505.112 90.1777C502.276 90.1777 500.257 88.7168 500.257 86.5684C500.257 84.4199 502.276 82.959 505.112 82.959ZM505.112 85.0215C503.802 85.0215 502.921 85.5586 502.942 86.5684C502.921 87.5566 503.802 88.0723 505.112 88.0723C506.423 88.0723 507.325 87.5566 507.325 86.5684C507.325 85.5586 506.423 85.0215 505.112 85.0215ZM514.823 78.4258V83.4961H517.466V85.7305H514.823V90.6934H512.073V78.4258H514.823ZM514.823 91.5098V97.9766H512.073V93.7012H501.653V91.5098H514.823ZM523.116 90.1562V91.8105H531.173V90.1562H533.901V97.7617H520.409V90.1562H523.116ZM523.116 95.6133H531.173V93.8945H523.116V95.6133ZM536.157 86.9551V89.168H518.325V86.9551H536.157ZM528.659 79.2852C528.659 81.2402 530.915 83.4531 535.276 83.9473L534.31 86.0957C530.937 85.666 528.498 84.2695 527.241 82.3789C525.984 84.2695 523.535 85.666 520.194 86.0957L519.206 83.9473C523.567 83.4316 525.823 81.2832 525.845 79.2852V78.6191H528.659V79.2852ZM551.519 90.3926C555.579 90.3926 558.114 91.7891 558.114 94.1738C558.114 96.6016 555.579 97.998 551.519 97.998C547.372 97.998 544.815 96.6016 544.815 94.1738C544.815 91.7891 547.372 90.3926 551.519 90.3926ZM551.519 92.5195C548.94 92.5195 547.544 93.0566 547.565 94.1738C547.544 95.291 548.94 95.8711 551.519 95.8711C554.054 95.8711 555.407 95.291 555.407 94.1738C555.407 93.0566 554.054 92.5195 551.519 92.5195ZM557.921 78.4258V82.959H560.563V85.2578H557.921V89.9629H555.171V78.4258H557.921ZM545.718 79.6504V82.1211H549.714V79.6504H552.464V88.8457H542.989V79.6504H545.718ZM545.718 86.6758H549.714V84.248H545.718V86.6758ZM579.47 81.2832V83.4961H576.935V85.4941H579.47V87.7285H576.935V90.8438H574.185V78.4258H576.935V81.2832H579.47ZM570.554 91.0156C574.571 91.0156 577.149 92.3262 577.149 94.5176C577.149 96.666 574.571 97.9766 570.554 97.9766C566.45 97.9766 563.915 96.666 563.937 94.5176C563.915 92.3262 566.45 91.0156 570.554 91.0156ZM570.554 93.0996C567.997 93.0996 566.622 93.5508 566.644 94.5176C566.622 95.4414 567.997 95.9355 570.554 95.9355C573.046 95.9355 574.399 95.4414 574.399 94.5176C574.399 93.5508 573.046 93.0996 570.554 93.0996ZM573.024 80.2949V82.4219H561.423V80.2949H565.87V78.3184H568.599V80.2949H573.024ZM567.224 83.0879C570.06 83.0879 572.036 84.5273 572.036 86.6113C572.036 88.7168 570.06 90.1133 567.224 90.1133C564.345 90.1133 562.368 88.7168 562.368 86.6113C562.368 84.5273 564.345 83.0879 567.224 83.0879ZM567.224 85.0859C565.913 85.0859 565.032 85.623 565.054 86.6113C565.032 87.5781 565.913 88.0938 567.224 88.0723C568.534 88.0938 569.437 87.5781 569.437 86.6113C569.437 85.623 568.534 85.0859 567.224 85.0859ZM596.378 87.1699V89.3398H590.706V93.5078H598.333V95.7422H580.437V93.5078H587.978V89.3398H582.542V79.8008H596.228V81.9922H585.292V87.1699H596.378ZM609.505 78.7266V80.0801H617.347V78.7266H620.075V85.2793H606.798V78.7266H609.505ZM609.505 83.2383H617.347V82.0566H609.505V83.2383ZM622.353 86.2891V88.502H614.79V89.7266H620.183V94.668H609.29V95.7852H620.698V97.8477H606.604V92.7773H617.476V91.7246H606.583V89.7266H612.04V88.502H604.521V86.2891H622.353ZM639.046 78.4258V84.0332H641.688V86.3105H639.046V92.6699H636.296V78.4258H639.046ZM639.755 95.4414V97.6328H626.37V91.166H629.099V95.4414H639.755ZM629.034 79.6934C632.021 79.6934 634.362 81.7559 634.362 84.6562C634.362 87.5137 632.021 89.6191 629.034 89.6191C626.026 89.6191 623.663 87.5137 623.663 84.6562C623.663 81.7559 626.026 79.6934 629.034 79.6934ZM629.034 82.0781C627.552 82.0566 626.349 83.0234 626.37 84.6562C626.349 86.2461 627.552 87.2344 629.034 87.2344C630.538 87.2344 631.677 86.2461 631.698 84.6562C631.677 83.0234 630.538 82.0566 629.034 82.0781Z" fill="url(#paint0_linear_462_1162)"/>
</g>
<defs>
<filter id="filter0_d_462_1162" x="0" y="0" width="800" height="197" filterUnits="userSpaceOnUse" color-interpolation-filters="sRGB">
<feFlood flood-opacity="0" result="BackgroundImageFix"/>
<feColorMatrix in="SourceAlpha" type="matrix" values="0 0 0 0 0 0 0 0 0 0 0 0 0 0 0 0 0 0 127 0" result="hardAlpha"/>
<feOffset dy="10"/>
<feGaussianBlur stdDeviation="25"/>
<feComposite in2="hardAlpha" operator="out"/>
<feColorMatrix type="matrix" values="0 0 0 0 0.192157 0 0 0 0 0.509804 0 0 0 0 0.964706 0 0 0 0.3 0"/>
<feBlend mode="normal" in2="BackgroundImageFix" result="effect1_dropShadow_462_1162"/>
<feBlend mode="normal" in="SourceGraphic" in2="effect1_dropShadow_462_1162" result="shape"/>
</filter>
<linearGradient id="paint0_linear_462_1162" x1="120" y1="88.5" x2="680" y2="88.5" gradientUnits="userSpaceOnUse">
<stop stop-color="#3182F6"/>
<stop offset="1" stop-color="#A009FF"/>
</linearGradient>
</defs>
</svg>
