<svg width="874" height="164" viewBox="0 0 874 164" fill="none" xmlns="http://www.w3.org/2000/svg">
<rect width="874" height="164" rx="82" fill="white"/>
<path d="M148.23 84.2031V87.2891H133.934V99.3203H130.301V87.2891H116.199V84.2031H148.23ZM132.137 65.6484C139.52 65.6484 144.598 68.6562 144.598 73.4219C144.598 78.1484 139.52 81.1172 132.137 81.1172C124.715 81.1172 119.676 78.1484 119.676 73.4219C119.676 68.6562 124.715 65.6484 132.137 65.6484ZM132.137 68.6172C126.941 68.6562 123.465 70.4531 123.504 73.4219C123.465 76.3516 126.941 78.1484 132.137 78.1484C137.332 78.1484 140.809 76.3516 140.809 73.4219C140.809 70.4531 137.332 68.6562 132.137 68.6172ZM179.871 64.3203V99.3984H176.16V64.3203H179.871ZM169.168 67.4844V80.2578H156.59V87.9141C162.254 87.8945 167.215 87.6406 173.074 86.6641L173.426 89.7109C167.215 90.7656 161.941 91 155.77 91H152.801V77.2891H165.379V70.4922H152.762V67.4844H169.168ZM204.52 66.9375C209.754 66.9375 213.465 71.7031 213.504 79.2031C213.465 86.7422 209.754 91.5078 204.52 91.5078C199.285 91.5078 195.535 86.7422 195.574 79.2031C195.535 71.7031 199.285 66.9375 204.52 66.9375ZM204.52 70.2578C201.316 70.2578 199.129 73.6953 199.129 79.2031C199.129 84.75 201.316 88.1875 204.52 88.1875C207.762 88.1875 209.949 84.75 209.949 79.2031C209.949 73.6953 207.762 70.2578 204.52 70.2578ZM222.41 64.3203V78.0312H228.035V81.1562H222.41V99.3203H218.699V64.3203H222.41ZM258.699 64.3203V99.3984H254.988V64.3203H258.699ZM239.988 66.9375C245.184 66.9375 249.012 71.7031 249.012 79.2031C249.012 86.7422 245.184 91.5078 239.988 91.5078C234.715 91.5078 230.926 86.7422 230.926 79.2031C230.926 71.7031 234.715 66.9375 239.988 66.9375ZM239.988 70.2578C236.746 70.2578 234.52 73.6953 234.52 79.2031C234.52 84.75 236.746 88.1875 239.988 88.1875C243.191 88.1875 245.418 84.75 245.418 79.2031C245.418 73.6953 243.191 70.2578 239.988 70.2578Z" fill="black"/>
<path d="M303.543 64.0469V82.0547H298.582V64.0469H303.543ZM303.582 83.5781V93.2266H284.676V95.4141H304.559V99.3594H279.793V89.5156H298.621V87.4453H279.715V83.5781H303.582ZM287.449 67.5625C287.41 71.8594 289.988 76 295.809 77.6797L293.387 81.5078C289.305 80.3164 286.492 77.8555 284.91 74.7109C283.27 78.1484 280.359 80.8828 276.121 82.1328L273.66 78.2266C279.598 76.4688 282.254 71.9766 282.254 67.5625V64.8281H287.449V67.5625ZM325.457 66.1172V77.2109H314.715V81C320.008 81 323.133 80.8242 326.746 80.1406L327.215 84.125C323.074 84.8672 319.324 84.9844 312.449 84.9844H309.793V73.5H320.457V70.0234H309.715V66.1172H325.457ZM338.348 64.0859V85.9609H333.387V80.4922H327.488V76.5469H333.387V72.9531H327.488V69.0078H333.387V64.0859H338.348ZM338.348 87.5625V99.5938H333.387V91.5469H313.855V87.5625H338.348ZM372.723 64.0469V99.6719H367.684V64.0469H372.723ZM353.426 66.5469C358.777 66.5469 362.762 71.4688 362.762 79.2031C362.762 87.0156 358.777 91.8984 353.426 91.8984C347.957 91.8984 343.973 87.0156 344.012 79.2031C343.973 71.4688 347.957 66.5469 353.426 66.5469ZM353.426 71.0391C350.652 71.0391 348.816 73.9297 348.816 79.2031C348.816 84.5156 350.652 87.3672 353.426 87.3672C356.121 87.3672 357.957 84.5156 357.957 79.2031C357.957 73.9297 356.121 71.0391 353.426 71.0391ZM396.551 66.5469C401.355 66.5469 404.93 70.5117 405.652 76.8984H411.824V64.0469H416.746V99.6719H411.824V80.8828H405.691C405.164 87.7188 401.512 91.8984 396.551 91.8984C391.16 91.8984 387.293 87.0156 387.332 79.2031C387.293 71.4688 391.16 66.5469 396.551 66.5469ZM396.551 71.0391C393.895 71.0391 392.059 73.9297 392.098 79.2031C392.059 84.5156 393.895 87.3672 396.551 87.3672C399.246 87.3672 401.004 84.5156 401.004 79.2031C401.004 73.9297 399.246 71.0391 396.551 71.0391ZM451.082 64.0469V99.6719H446.043V64.0469H451.082ZM440.77 67.1719V71.2344H428.465V86.9766C434.832 86.957 438.738 86.8203 443.23 86L443.699 90.1016C438.777 91.0391 434.246 91.1953 426.551 91.1953H423.465V67.1719H440.77ZM467.684 69.3203C467.684 71.2734 469.188 73.5586 472.098 74.8672C474.949 73.5781 476.395 71.332 476.395 69.3203V69.2812H472.801V65.2578H486.082V69.2812H481.473V69.3203C481.434 71.7422 483.426 74.2031 487.723 75.2188L485.535 78.8125C482.195 77.9727 480.008 76.2148 478.816 73.9688C477.664 76.2539 475.496 78.207 472.098 79.0859C468.641 78.207 466.453 76.2344 465.262 73.9297C464.051 76.1367 461.883 77.9531 458.543 78.8125L456.512 75.2188C460.73 74.1641 462.762 71.625 462.762 69.3203V69.2812H458.035V65.2578H471.355V69.2812H467.684V69.3203ZM488.309 80.5312V84.5156H455.887V80.5312H488.309ZM484.441 86.9375V99.2031H459.637V86.9375H484.441ZM464.559 90.8828V95.2188H479.559V90.8828H464.559ZM520.223 64.0859V89.6328H515.223V64.0859H520.223ZM521.16 94.9844V98.9688H496.395V87.0547H501.434V94.9844H521.16ZM500.73 66.3516C506.199 66.3516 510.457 70.1016 510.457 75.2969C510.457 80.6094 506.199 84.3203 500.73 84.3203C495.262 84.3203 491.004 80.6094 491.004 75.2969C491.004 70.1016 495.262 66.3516 500.73 66.3516ZM500.73 70.6875C497.957 70.6484 495.848 72.4062 495.887 75.2969C495.848 78.2656 497.957 79.9844 500.73 79.9844C503.426 79.9844 505.535 78.2656 505.535 75.2969C505.535 72.4062 503.426 70.6484 500.73 70.6875ZM538.816 73.7344C538.816 79.4766 541.746 85.6094 547.723 88.1094L545.027 92.0156C540.828 90.2383 537.938 86.7031 536.355 82.3672C534.734 87.0742 531.785 90.9805 527.605 92.9141L524.754 88.9688C530.652 86.3516 533.699 79.75 533.699 73.7344V71.5469H526.16V67.4844H546.238V71.5469H538.816V73.7344ZM554.793 64.0469V99.5938H549.754V64.0469H554.793ZM597.02 64.0469V71.8203H601.824V75.9219H597.02V83.9297H592.02V64.0469H597.02ZM587.059 66.1172C587.02 75.5312 581.082 81.8984 570.418 84.7109L568.426 80.7656C576.395 78.793 580.789 74.8477 581.629 70.1016H570.184V66.1172H587.059ZM597.02 85.2578V99.1641H573.777V85.2578H597.02ZM578.738 89.2812V95.2578H592.098V89.2812H578.738ZM633.152 64.0469V99.6719H628.113V64.0469H633.152ZM613.855 66.5469C619.207 66.5469 623.191 71.4688 623.191 79.2031C623.191 87.0156 619.207 91.8984 613.855 91.8984C608.387 91.8984 604.402 87.0156 604.441 79.2031C604.402 71.4688 608.387 66.5469 613.855 66.5469ZM613.855 71.0391C611.082 71.0391 609.246 73.9297 609.246 79.2031C609.246 84.5156 611.082 87.3672 613.855 87.3672C616.551 87.3672 618.387 84.5156 618.387 79.2031C618.387 73.9297 616.551 71.0391 613.855 71.0391ZM675.379 64.0469V74.2422H680.184V78.3828H675.379V89.9453H670.379V64.0469H675.379ZM676.668 94.9844V98.9688H652.332V87.2109H657.293V94.9844H676.668ZM657.176 66.3516C662.605 66.3516 666.863 70.1016 666.863 75.375C666.863 80.5703 662.605 84.3984 657.176 84.3984C651.707 84.3984 647.41 80.5703 647.41 75.375C647.41 70.1016 651.707 66.3516 657.176 66.3516ZM657.176 70.6875C654.48 70.6484 652.293 72.4062 652.332 75.375C652.293 78.2656 654.48 80.0625 657.176 80.0625C659.91 80.0625 661.98 78.2656 662.02 75.375C661.98 72.4062 659.91 70.6484 657.176 70.6875ZM701.551 66.1562C707.02 66.1562 711.277 69.75 711.316 74.8672C711.277 79.1641 708.289 82.3867 704.09 83.3047V88.1484C706.902 88.0312 709.695 87.7969 712.332 87.4453L712.684 91.1172C705.262 92.5234 697.254 92.5234 691.199 92.4453L690.535 88.4219C693.094 88.4023 696.043 88.4023 699.129 88.3438V83.3438C694.773 82.4648 691.785 79.2227 691.785 74.8672C691.785 69.75 695.926 66.1562 701.551 66.1562ZM701.551 70.375C698.738 70.375 696.629 72.0156 696.668 74.8672C696.629 77.6797 698.738 79.3594 701.551 79.3594C704.285 79.3594 706.395 77.6797 706.395 74.8672C706.395 72.0156 704.285 70.375 701.551 70.375ZM719.207 64.0469V77.9922H724.051V82.1719H719.207V99.5938H714.207V64.0469H719.207ZM758.074 91.3516V95.4531H725.535V91.3516H732.801V82.6406C730.047 81 728.387 78.4805 728.387 75.3359C728.387 69.5938 734.012 65.7656 741.746 65.7656C749.441 65.7656 755.105 69.5938 755.145 75.3359C755.125 78.4023 753.504 80.9023 750.848 82.5625V91.3516H758.074ZM741.746 69.7109C736.668 69.7109 733.309 71.7422 733.309 75.3359C733.309 78.8125 736.668 80.9609 741.746 80.9609C746.785 80.9609 750.184 78.8125 750.223 75.3359C750.184 71.7422 746.785 69.7109 741.746 69.7109ZM737.723 91.3516H745.809V84.4375C744.539 84.6914 743.172 84.8281 741.746 84.8281C740.32 84.8281 738.973 84.7109 737.723 84.4375V91.3516Z" fill="url(#paint0_linear_568_838)"/>
<defs>
<linearGradient id="paint0_linear_568_838" x1="113.917" y1="82" x2="1011.62" y2="81.9998" gradientUnits="userSpaceOnUse">
<stop stop-color="#3182F6"/>
<stop offset="1" stop-color="#A009FF"/>
</linearGradient>
</defs>
</svg>
