<svg width="874" height="164" viewBox="0 0 874 164" fill="none" xmlns="http://www.w3.org/2000/svg">
<rect width="874" height="164" rx="82" fill="white"/>
<path d="M106.18 67.9141V70.9609H102.586V87.25C104.324 87.1523 106.023 86.9766 107.664 86.7812L107.859 89.4766C100.516 90.6875 92.2734 90.8047 86.1406 90.8438L85.7109 87.7578L90.1641 87.7188V70.9609H86.5703V67.9141H106.18ZM113.406 64.3203V78.1094H119.031V81.1562H113.406V99.3203H109.695V64.3203H113.406ZM93.7578 87.6406C95.4766 87.6211 97.2344 87.5625 98.9922 87.4844V70.9609H93.7578V87.6406ZM149.734 86.1172V99.3984H146.023V89.2031H126.023V86.1172H149.734ZM149.734 64.3594V84.4766H146.023V64.3594H149.734ZM126.57 66.2734V78.8906C131.57 78.8516 136.844 78.4414 142.43 77.3281L142.938 80.375C136.805 81.5859 131.219 81.9766 125.75 81.9766H122.859V66.2734H126.57ZM173.055 69.2812C173.055 74.9844 179.148 80.375 185.867 81.5859L184.148 84.6719C178.562 83.4609 173.406 79.7891 171.141 74.8672C168.836 79.75 163.699 83.4219 158.094 84.6719L156.453 81.5859C163.094 80.3359 169.148 74.9844 169.148 69.2812V66.625H173.055V69.2812ZM187.312 91.625V94.7109H155.281V91.625H187.312ZM221.844 80.375V83.2266H189.812V80.375H221.844ZM217.898 85.6875V93.3828H197.352V96.2734H218.992V98.8906H193.641V90.9219H214.227V88.3438H193.602V85.6875H217.898ZM217.82 65.2188V72.7969H197.586V75.4531H218.406V78.0703H193.914V70.3359H214.109V67.8359H193.836V65.2188H217.82ZM264.031 64.3594V86H260.516V76.7812H256.531V85.4922H253.055V64.8672H256.531V73.7734H260.516V64.3594H264.031ZM251.688 68.1094V71.0781H233.992V68.1094H241.062V64.4766H244.734V68.1094H251.688ZM242.859 72.6406C247.312 72.6406 250.438 75.0234 250.438 78.6953C250.438 82.2891 247.312 84.7109 242.859 84.7109C238.484 84.7109 235.359 82.2891 235.359 78.6953C235.359 75.0234 238.484 72.6406 242.859 72.6406ZM242.859 75.375C240.398 75.375 238.68 76.625 238.68 78.6953C238.68 80.6875 240.398 81.9766 242.859 81.9766C245.398 81.9766 247.078 80.6875 247.078 78.6953C247.078 76.625 245.359 75.375 242.859 75.375ZM246.922 88.0703C246.883 90.9414 248.348 93.8906 251.492 95.6484C254.637 93.7539 256.18 90.5898 256.18 88.0703V87.0156H259.852V88.0703C259.852 91.4297 262.273 94.7891 266.805 96.0781L265.047 98.8906C261.57 97.7578 259.207 95.4922 258.016 92.7188C256.883 95.4141 254.793 97.9336 251.57 99.2031C248.23 97.9922 246.121 95.6289 245.047 92.875C243.758 95.5312 241.395 97.7383 238.094 98.8906L236.336 96.0781C240.789 94.6719 243.25 91.2344 243.289 88.0703V87.0156H246.922V88.0703ZM297.078 74.5547V77.5234H272.977V65.5703H276.648V74.5547H297.078ZM300.75 81.9375V84.9062H268.719V81.9375H300.75ZM297.312 95.4531V98.5H272.703V88.2266H276.414V95.4531H297.312ZM333.406 64.3203V99.3203H329.812V64.3203H333.406ZM326.18 65.0625V97.5625H322.664V80.5703H315.477V77.4844H322.664V65.0625H326.18ZM317.859 68.5V71.5469H308.211V87.9922C312.801 87.9531 315.887 87.7578 319.5 86.9766L319.812 90.1016C315.789 90.9219 312.352 91.0781 306.883 91.0781H304.578V68.5H317.859ZM366.258 80.4531V83.4219H355.672V91.9766H369.93V95.0234H337.898V91.9766H352V83.4219H341.883V67.0156H365.945V70.0234H345.594V80.4531H366.258Z" fill="black"/>
<path d="M393.484 72.1719C393.484 75.6875 395.516 79.2031 400.008 80.6875L397.781 84.4375C394.637 83.3242 392.488 81.2734 391.219 78.7344C389.969 81.5273 387.801 83.7734 384.539 84.9844L382.273 81.3125C386.727 79.6328 388.758 75.9609 388.758 72.1719V71.9766H383.25V68.0703H388.758V64.3984H393.484V68.0703H398.953V71.9766H393.484V72.1719ZM412.82 64.0859V85.8047H408.094V77.0156H405.242V85.7266H400.555V64.6328H405.242V72.9922H408.094V64.0859H412.82ZM412.82 87.3281V99.5938H407.859V91.3516H388.25V87.3281H412.82ZM455.789 64.0469V82.4844H450.828V64.0469H455.789ZM442.547 83.8906V93.1094H435.047V95.5312C439.109 95.4922 441.648 95.3359 444.578 94.75L445.047 98.4219C441.414 99.125 438.328 99.2031 432.586 99.2031H430.242V89.6719H437.625V87.6016H430.242V83.8906H442.547ZM455.789 83.8906V99.4766H450.906V87.875H443.875V83.8906H455.789ZM436.18 65.4922C441.57 65.4531 445.672 68.8906 445.672 73.6562C445.672 78.4219 441.57 81.8203 436.18 81.8203C430.672 81.8203 426.609 78.4219 426.609 73.6562C426.609 68.8906 430.672 65.4531 436.18 65.4922ZM436.18 69.5938C433.445 69.5547 431.414 71.0781 431.453 73.6562C431.414 76.1562 433.445 77.7969 436.18 77.7969C438.875 77.7969 440.867 76.1562 440.867 73.6562C440.867 71.0781 438.875 69.5547 436.18 69.5938ZM490.516 64.0469V99.5938H485.477V64.0469H490.516ZM479.852 67.7578C479.852 78.5391 476.062 87.4844 463.367 93.5L460.75 89.5156C469.93 85.1797 473.973 79.5547 474.773 71.6641H462.664V67.7578H479.852ZM524.07 73.7344V77.6406H499.227V65.2969H504.188V73.7344H524.07ZM527.703 81.4688V85.375H495.164V81.4688H527.703ZM524.305 94.8281V98.8125H498.914V88.2656H503.914V94.8281H524.305ZM548.797 66.5469C551.98 66.5469 554.637 68.3047 556.258 71.3516H564.07V64.0469H568.992V99.6719H564.07V86.3516H556.648C555.047 89.8672 552.234 91.8984 548.797 91.8984C543.406 91.8984 539.539 87.0156 539.578 79.2031C539.539 71.4688 543.406 66.5469 548.797 66.5469ZM548.797 71.0391C546.141 71.0391 544.305 73.9297 544.344 79.2031C544.305 84.5156 546.141 87.3672 548.797 87.3672C551.492 87.3672 553.25 84.5156 553.25 79.2031C553.25 73.9297 551.492 71.0391 548.797 71.0391ZM557.664 75.375C557.879 76.5469 558.016 77.8359 558.016 79.2031C558.016 80.3164 557.918 81.3711 557.781 82.3672H564.07V75.375H557.664ZM603.523 64.0859V90.0234H598.562V77.2891H592.742V73.2656H598.562V64.0859H603.523ZM604.383 94.9844V98.9688H579.93V87.7578H584.93V94.9844H604.383ZM587 71.0391C587 75.1406 589.5 79.5547 595.164 81.3906L592.703 85.3359C588.758 84.0664 586.062 81.4688 584.5 78.2266C582.938 81.8203 580.105 84.6719 575.906 86.0781L573.367 82.0156C579.227 80.1797 581.883 75.5312 581.922 71V70.4531H574.773V66.4688H594.07V70.4531H587V71.0391ZM637.898 64.0469V99.5938H632.859V64.0469H637.898ZM630.125 69.3984V73.3828H608.875V69.3984H616.961V64.5156H622.039V69.3984H630.125ZM619.578 75.3359C624.812 75.3359 628.719 78.8516 628.719 83.8125C628.719 88.7734 624.812 92.2891 619.578 92.2891C614.305 92.2891 610.398 88.7734 610.398 83.8125C610.398 78.8516 614.305 75.3359 619.578 75.3359ZM619.578 79.3594C616.961 79.3984 615.164 81.0781 615.164 83.8125C615.164 86.5859 616.961 88.2266 619.578 88.1875C622.156 88.2266 623.953 86.5859 623.953 83.8125C623.953 81.0781 622.156 79.3984 619.578 79.3594ZM681.688 64.0469V85.5312H676.688V64.0469H681.688ZM681.688 87.0547V99.2031H657.859V87.0547H681.688ZM662.781 90.9609V95.2188H676.805V90.9609H662.781ZM673.914 67.2109V71.1953H652.312V67.2109H660.633V63.7734H665.672V67.2109H673.914ZM663.172 72.2891C668.523 72.2891 672.117 74.8281 672.117 78.6562C672.117 82.6016 668.523 85.1016 663.172 85.1016C657.82 85.1016 654.188 82.6016 654.227 78.6562C654.188 74.8281 657.82 72.2891 663.172 72.2891ZM663.172 75.9609C660.594 75.9609 658.992 76.8984 658.992 78.6562C658.992 80.4531 660.594 81.4297 663.172 81.4297C665.711 81.4297 667.312 80.4531 667.352 78.6562C667.312 76.8984 665.711 75.9609 663.172 75.9609ZM718.992 77.9141V81.8203H686.492V77.9141H718.992ZM715.125 72.0547V75.9609H690.555V64.75H714.852V68.7344H695.516V72.0547H715.125ZM714.969 83.9297V93.2266H695.164V95.4141H715.906V99.2812H690.281V89.6719H710.047V87.6797H690.242V83.9297H714.969ZM730.867 66.5469C735.672 66.5469 739.246 70.5117 739.969 76.8984H746.141V64.0469H751.062V99.6719H746.141V80.8828H740.008C739.48 87.7188 735.828 91.8984 730.867 91.8984C725.477 91.8984 721.609 87.0156 721.648 79.2031C721.609 71.4688 725.477 66.5469 730.867 66.5469ZM730.867 71.0391C728.211 71.0391 726.375 73.9297 726.414 79.2031C726.375 84.5156 728.211 87.3672 730.867 87.3672C733.562 87.3672 735.32 84.5156 735.32 79.2031C735.32 73.9297 733.562 71.0391 730.867 71.0391ZM788.172 91.3516V95.4531H755.633V91.3516H762.898V82.6406C760.145 81 758.484 78.4805 758.484 75.3359C758.484 69.5938 764.109 65.7656 771.844 65.7656C779.539 65.7656 785.203 69.5938 785.242 75.3359C785.223 78.4023 783.602 80.9023 780.945 82.5625V91.3516H788.172ZM771.844 69.7109C766.766 69.7109 763.406 71.7422 763.406 75.3359C763.406 78.8125 766.766 80.9609 771.844 80.9609C776.883 80.9609 780.281 78.8125 780.32 75.3359C780.281 71.7422 776.883 69.7109 771.844 69.7109ZM767.82 91.3516H775.906V84.4375C774.637 84.6914 773.27 84.8281 771.844 84.8281C770.418 84.8281 769.07 84.7109 767.82 84.4375V91.3516Z" fill="url(#paint0_linear_568_849)"/>
<defs>
<linearGradient id="paint0_linear_568_849" x1="83.8629" y1="82" x2="1065.08" y2="81.9997" gradientUnits="userSpaceOnUse">
<stop stop-color="#3182F6"/>
<stop offset="1" stop-color="#A009FF"/>
</linearGradient>
</defs>
</svg>
