<svg width="800" height="260" viewBox="0 0 800 260" fill="none" xmlns="http://www.w3.org/2000/svg">
<rect x="0.5" y="0.5" width="799" height="259" rx="14.5" fill="white" stroke="url(#paint0_linear_590_878)"/>
<path d="M62.5664 141.307V164.26H59.8242V141.307H62.5664ZM57.7422 141.764V163.143H55.1016V152.123H50.6836V149.812H55.1016V141.764H57.7422ZM52.2578 143.998V146.258H46.291V156.643C49.0078 156.617 50.9502 156.503 53.1973 156.033L53.4258 158.344C50.8359 158.877 48.5508 158.979 45.0723 159.004H43.5234V143.998H52.2578ZM84.3262 141.307V164.285H81.4824V141.307H84.3262ZM71.9609 142.982C75.4141 142.982 77.9277 146.131 77.9531 151.082C77.9277 156.084 75.4141 159.207 71.9609 159.207C68.4824 159.207 65.9688 156.084 65.9688 151.082C65.9688 146.131 68.4824 142.982 71.9609 142.982ZM71.9609 145.521C70.0059 145.521 68.6855 147.578 68.6855 151.082C68.6855 154.611 70.0059 156.668 71.9609 156.668C73.8906 156.668 75.2109 154.611 75.2109 151.082C75.2109 147.578 73.8906 145.521 71.9609 145.521ZM106.949 141.307V164.285H104.156V151.895H99.8398V149.609H104.156V141.307H106.949ZM99.4844 143.287V145.598H91.5879V149.711H98.5703V151.945H91.5879V156.668C95.0791 156.655 97.6943 156.541 100.652 156.059L100.932 158.344C97.5801 158.852 94.6602 158.979 90.5469 159.004H88.7441V143.287H99.4844ZM135.514 141.307V164.26H132.67V141.307H135.514ZM128.658 143.744C128.658 150.574 126.018 156.389 117.969 160.197L116.496 157.938C122.501 155.081 125.294 151.196 125.789 145.979H117.664V143.744H128.658ZM156.918 141.332V147.959H160.117V150.295H156.918V158.217H154.1V141.332H156.918ZM157.832 161.518V163.803H142.217V156.516H145.035V161.518H157.832ZM142.395 142.957V146.461H147.752V142.957H150.545V154.484H139.602V142.957H142.395ZM142.395 152.25H147.752V148.645H142.395V152.25ZM179.109 142.83V152.809H168.242V142.83H179.109ZM171.01 145.09V150.549H176.342V145.09H171.01ZM185.559 141.307V146.461H188.758V148.797H185.559V154.256H182.74V141.307H185.559ZM185.889 155.424V157.658H179.795C180.239 159.613 182.842 161.454 186.854 162.025L185.838 164.184C182.258 163.676 179.528 162.14 178.221 160.07C176.888 162.14 174.209 163.663 170.629 164.133L169.588 162C173.638 161.454 176.177 159.664 176.646 157.658H170.527V155.424H185.889ZM210.848 152.453V154.688H201.758V156.693H208.309V163.98H192.389V156.693H198.965V154.688H189.926V152.453H210.848ZM201.758 141.281V143.338H208.791V145.572H201.961C202.291 147.451 204.995 149 209.807 149.33L208.994 151.412C204.843 151.095 201.796 149.876 200.361 147.934C198.914 149.876 195.867 151.095 191.754 151.412L190.916 149.33C195.753 149 198.419 147.451 198.762 145.572H191.982V143.338H198.965V141.281H201.758ZM195.182 158.953V161.695H205.566V158.953H195.182ZM232.201 143.516V145.75H218.592V143.516H224V141.205H226.818V143.516H232.201ZM225.396 146.639C228.723 146.639 230.982 148.314 231.008 150.828C230.982 153.342 228.723 155.018 225.396 155.018C222.07 155.018 219.76 153.342 219.76 150.828C219.76 148.314 222.07 146.639 225.396 146.639ZM225.396 148.771C223.645 148.771 222.502 149.533 222.502 150.828C222.502 152.123 223.645 152.859 225.396 152.834C227.148 152.859 228.316 152.123 228.316 150.828C228.316 149.533 227.148 148.771 225.396 148.771ZM236.67 141.307V147.4H239.869V149.711H236.67V155.678H233.852V141.307H236.67ZM236.67 156.744V164.26H233.852V159.004H221.385V156.744H236.67ZM246.344 155.068V157.252H256.449V155.068H259.268V163.98H243.551V155.068H246.344ZM246.344 161.746H256.449V159.41H246.344V161.746ZM261.959 151.463V153.773H241.037V151.463H261.959ZM252.945 142.424C252.945 144.887 256.094 147.477 260.842 148.035L259.852 150.27C256.005 149.749 252.971 148.048 251.498 145.725C250.013 148.061 246.966 149.749 243.145 150.27L242.104 148.035C246.902 147.451 250.025 144.963 250.051 142.424V141.561H252.945V142.424Z" fill="url(#paint1_linear_590_878)"/>
<path d="M53.5645 104.686C53.5645 107.985 55.5928 111.346 60.1338 112.708L58.166 115.735C55.0781 114.767 52.8984 112.784 51.6572 110.286C50.4009 112.996 48.1606 115.175 44.9365 116.25L42.9385 113.223C47.5098 111.739 49.6289 108.167 49.6289 104.686V104.292H43.9678V101.204H59.1045V104.292H53.5645V104.686ZM65.8857 99.2666V119.187H62.0107V99.2666H65.8857ZM66.6123 123.213V126.301H47.4189V117.37H51.3242V123.213H66.6123ZM91.4668 99.2363V106.744H95.1904V109.923H91.4668V119.156H87.5918V99.2363H91.4668ZM83.1113 101.446V104.534H74.5439V111.497C79.5239 111.467 82.2637 111.315 85.3516 110.649L85.7451 113.737C82.2939 114.464 79.1152 114.615 73 114.615H70.6689V101.446H83.1113ZM92.4658 123.213V126.301H73.6055V117.037H77.4502V123.213H92.4658ZM121.589 115.13V118.157H110.812V126.785H106.997V118.157H96.3711V115.13H121.589ZM103.152 100.296V103.475H114.717V100.296H118.592V112.466H99.3379V100.296H103.152ZM103.152 109.378H114.717V106.502H103.152V109.378ZM146.443 99.2363V126.846H142.629V112.072H137.785V108.954H142.629V99.2363H146.443ZM137.331 101.537V104.655H128.31V109.227H136.332V112.254H128.31V117.461C132.124 117.431 135.182 117.294 138.603 116.765L138.996 119.853C134.97 120.458 131.367 120.609 126.645 120.609H124.465V101.537H137.331ZM178.866 99.2363V109.469H182.923V112.617H178.866V126.846H174.991V99.2363H178.866ZM171.146 101.779V104.897H162.064V116.977C166.061 116.931 169.36 116.75 173.023 116.099L173.447 119.338C169.179 120.064 165.425 120.186 160.551 120.155H158.22V101.779H171.146ZM209.109 112.678V115.735H183.892V112.678H209.109ZM190.915 116.886V118.732H202.328V116.886H206.143V126.422H187.07V116.886H190.915ZM190.915 123.455H202.328V121.608H190.915V123.455ZM206.052 99.7207V106.835H190.885V108.379H206.566V111.315H187.04V104.08H202.177V102.597H186.979V99.7207H206.052ZM233.873 99.2363V126.785H230.028V99.2363H233.873ZM216.012 101.87V116.674C219.735 116.628 223.731 116.28 227.788 115.493L228.272 118.672C223.429 119.671 218.888 120.004 214.619 119.974H212.197V101.87H216.012ZM259.242 99.2363V109.469H263.299V112.617H259.242V126.846H255.367V99.2363H259.242ZM251.522 101.779V104.897H242.44V116.977C246.437 116.931 249.736 116.75 253.399 116.099L253.823 119.338C249.555 120.064 245.801 120.186 240.927 120.155H238.596V101.779H251.522Z" fill="black"/>
<path d="M325.145 81.0957C323.668 81.0957 322.455 79.8828 322.455 78.3799C322.455 76.9033 323.668 75.6904 325.145 75.6904C326.647 75.6904 327.86 76.9033 327.86 78.3799C327.86 79.8828 326.647 81.0957 325.145 81.0957ZM367.912 83.4424V85.1826H346.449V83.4424H367.912ZM365.196 66.4883V73.5811H351.195V77.4307H365.75V79.0918H349.139V71.8936H363.166V68.2021H349.086V66.4883H365.196ZM373.001 67.2529V80.3838C375.532 80.3574 377.932 80.2124 380.753 79.6191L381.043 81.4121C377.905 82.0713 375.295 82.2031 372.421 82.2031H370.944V67.2529H373.001ZM389.85 64.6953V88.1357H387.872V64.6953H389.85ZM384.84 65.2754V86.9492H382.862V74.3193H377.51V72.6055H382.862V65.2754H384.84ZM400.95 68.4922C400.95 71.6826 403.376 74.6094 406.777 75.7695L405.644 77.4043C403.046 76.4551 401.003 74.5171 399.975 72.0781C398.973 74.8335 396.89 77.0088 394.147 78.0635L393.04 76.4023C396.547 75.084 398.894 71.9463 398.92 68.334V65.9082H400.95V68.4922ZM411.444 64.6953V70.8125H414.978V72.5527H411.444V78.96H409.388V64.6953H411.444ZM403.93 79.5664C408.755 79.5664 411.655 81.1221 411.655 83.8115C411.655 86.5537 408.755 88.083 403.93 88.083C399.104 88.083 396.151 86.5537 396.151 83.8115C396.151 81.1221 399.104 79.5664 403.93 79.5664ZM403.93 81.2275C400.396 81.2275 398.208 82.2031 398.234 83.8115C398.208 85.4727 400.396 86.4219 403.93 86.4482C407.489 86.4219 409.651 85.4727 409.651 83.8115C409.651 82.2031 407.489 81.2275 403.93 81.2275ZM428.135 68.1494C428.135 72.1572 432.723 75.7432 436.81 76.5078L435.86 78.248C432.327 77.4307 428.596 74.9126 427.08 71.4453C425.564 74.8994 421.846 77.4175 418.3 78.248L417.351 76.5078C421.411 75.7168 425.973 72.1836 425.973 68.1494V66.3564H428.135V68.1494ZM437.917 83.2314V84.9453H416.454V83.2314H437.917ZM461.226 75.585V77.2197H439.763V75.585H461.226ZM458.536 79.0918V84.0752H444.456V86.3164H459.301V87.8193H442.373V82.6514H456.479V80.6475H442.347V79.0918H458.536ZM458.457 65.4072V70.2588H444.614V72.3154H458.879V73.8184H442.558V68.835H456.374V66.9102H442.479V65.4072H458.457ZM491.258 77.1406V78.8281H469.874V77.1406H479.524V74.8203H472.722V65.3809H488.595V67.0684H474.805V69.2568H487.962V70.8389H474.805V73.1592H488.727V74.8203H481.581V77.1406H491.258ZM480.579 80.5947C485.721 80.5684 488.621 81.8867 488.647 84.3389C488.621 86.791 485.721 88.083 480.579 88.083C475.385 88.083 472.484 86.791 472.484 84.3389C472.484 81.8867 475.385 80.5684 480.579 80.5947ZM480.579 82.1504C476.703 82.1504 474.541 82.9414 474.567 84.3389C474.541 85.7627 476.703 86.501 480.579 86.4746C484.402 86.501 486.564 85.7627 486.564 84.3389C486.564 82.9414 484.402 82.1504 480.579 82.1504ZM511.561 64.7217V72.4473H515.094V74.1875H511.561V82.2822H509.504V64.7217H511.561ZM507.263 67.5957V69.2832H493.288V67.5957H499.247V64.7217H501.304V67.5957H507.263ZM500.275 70.5752C503.624 70.5752 505.892 72.2891 505.918 74.9521C505.892 77.5889 503.624 79.2764 500.275 79.2764C496.9 79.2764 494.606 77.5889 494.633 74.9521C494.606 72.2891 496.9 70.5752 500.275 70.5752ZM500.275 72.21C498.061 72.21 496.584 73.291 496.61 74.9521C496.584 76.6133 498.061 77.668 500.275 77.6416C502.464 77.668 503.94 76.6133 503.967 74.9521C503.94 73.291 502.464 72.21 500.275 72.21ZM512.642 85.8945V87.6348H496.9V80.8848H498.931V85.8945H512.642ZM523.874 86V84.2861L534.131 69.0195H523.769V66.9102H536.979V68.624L526.722 83.8906H537.084V86H523.874ZM540.564 86V66.9102H547.051C551.533 66.9102 553.563 69.5732 553.563 72.9746C553.563 76.3496 551.533 79.0654 547.077 79.0654H542.938V86H540.564ZM542.938 76.9561H546.972C550.004 76.9561 551.217 75.2422 551.217 72.9746C551.217 70.6807 550.004 69.0195 546.945 69.0195H542.938V76.9561ZM562.818 86H556.886V66.9102H563.056C568.619 66.9102 571.915 70.4961 571.915 76.4287C571.915 82.3877 568.619 86 562.818 86ZM559.259 83.8906H562.66C567.354 83.8906 569.595 81.0693 569.595 76.4287C569.595 71.8145 567.354 69.0195 562.897 69.0195H559.259V83.8906ZM589.449 69.7314C589.449 72.8955 591.954 75.7432 595.461 76.8506L594.406 78.5117C591.677 77.5889 589.502 75.6641 588.447 73.1855C587.419 75.8618 585.217 77.9712 582.436 78.9863L581.354 77.3252C584.861 76.0859 587.366 73.0537 587.366 69.7314V68.3604H581.882V66.6729H594.854V68.3604H589.449V69.7314ZM600.365 64.7217V81.9131H598.309V64.7217H600.365ZM601.104 85.8945V87.6348H585.23V80.2783H587.287V85.8945H601.104ZM622.672 64.6953V71.6826H626.231V73.4229H622.672V81.6758H620.615V64.6953H622.672ZM615.896 66.7256V68.4658H607.511V75.7695C612.217 75.7695 614.894 75.6509 618.031 75.0049L618.295 76.7188C614.999 77.3516 612.204 77.5098 607.273 77.5098H605.454V66.7256H615.896ZM623.753 85.8945V87.6348H608.012V79.9619H610.042V85.8945H623.753ZM646.692 66.2246V75.7695H635.697V66.2246H646.692ZM637.728 67.9121V74.1348H644.662V67.9121H637.728ZM653.785 64.6953V78.1689H651.755V64.6953H653.785ZM647.431 81.3857C647.431 83.6797 651.175 85.9473 655.209 86.4482L654.497 88.0566C650.964 87.582 647.747 85.9209 646.376 83.7324C644.952 85.9604 641.656 87.582 638.123 88.0566L637.385 86.4482C641.419 86 645.295 83.7324 645.295 81.3857H638.36V79.7773H645.321V77.4834H647.378V79.7773H654.392V81.3857H647.431ZM686.006 77.1143V78.8018H676.461V83.3896H674.404V78.8018H664.543V77.1143H686.006ZM683.606 85.8945V87.6348H667.285V81.2275H669.342V85.8945H683.606ZM669.474 65.46V68.4658H681.075V65.46H683.132V74.8203H667.417V65.46H669.474ZM669.474 73.1328H681.075V70.0479H669.474V73.1328ZM695.894 68.4658C695.894 71.709 698.293 74.6885 701.694 75.8486L700.561 77.5098C697.95 76.5474 695.92 74.5435 694.918 72.0518C693.929 74.8203 691.82 76.9824 689.064 78.0635L687.931 76.3496C691.49 75.084 693.837 71.999 693.863 68.3867V65.9082H695.894V68.4658ZM707.337 79.8564V88.1357H705.254V81.5176H691.569V79.8564H707.337ZM707.337 64.6953V78.5645H705.254V71.3662H700.033V69.626H705.254V64.6953H707.337ZM325.145 135.096C323.668 135.096 322.455 133.883 322.455 132.38C322.455 130.903 323.668 129.69 325.145 129.69C326.647 129.69 327.86 130.903 327.86 132.38C327.86 133.883 326.647 135.096 325.145 135.096ZM358.024 125.709C357.813 123.837 356.1 122.756 353.806 122.756C351.274 122.756 349.613 124.074 349.613 125.894C349.613 127.897 351.854 128.636 353.305 129.005L355.203 129.532C357.26 130.06 360.608 131.246 360.608 134.806C360.608 137.917 358.104 140.343 353.674 140.343C349.561 140.343 347.003 138.207 346.792 135.043H349.218C349.429 137.179 351.406 138.181 353.674 138.181C356.311 138.181 358.288 136.836 358.288 134.753C358.288 132.907 356.521 132.195 354.518 131.615L352.171 130.982C349.165 130.112 347.319 128.583 347.319 125.999C347.319 122.782 350.193 120.646 353.885 120.646C357.576 120.646 360.239 122.809 360.345 125.709H358.024ZM364.01 140V120.91H370.496C374.979 120.91 377.009 123.389 377.009 126.79C377.009 129.308 375.875 131.299 373.449 132.143L377.747 140H374.979L370.997 132.564L370.522 132.591H366.383V140H364.01ZM366.383 130.429H370.417C373.449 130.429 374.662 129.058 374.662 126.79C374.662 124.496 373.449 123.02 370.391 123.02H366.383V130.429ZM406.118 118.695V142.136H404.114V118.695H406.118ZM401.319 119.275V140.923H399.342V129.4H394.227V127.66H399.342V119.275H401.319ZM395.809 121.596V123.31H388.979V134.753C392.354 134.74 394.49 134.595 397.021 134.041L397.232 135.808C394.517 136.361 392.223 136.467 388.452 136.493H386.976V121.596H395.809ZM428.715 118.695V142.188H426.632V118.695H428.715ZM416.243 120.515C419.724 120.541 422.229 123.705 422.229 128.688C422.229 133.672 419.724 136.836 416.243 136.836C412.736 136.836 410.258 133.672 410.258 128.688C410.258 123.705 412.736 120.541 416.243 120.515ZM416.243 122.36C413.896 122.387 412.262 124.865 412.262 128.688C412.262 132.512 413.896 134.99 416.243 134.99C418.59 134.99 420.225 132.512 420.225 128.688C420.225 124.865 418.59 122.387 416.243 122.36ZM452.155 118.695V142.188H450.099V129.269H445.142V127.555H450.099V118.695H452.155ZM444.746 120.857V122.571H435.887V127.449H443.718V129.137H435.887V134.806C440.198 134.806 442.94 134.661 446.17 134.094L446.407 135.808C443.006 136.361 440.132 136.52 435.597 136.52H433.804V120.857H444.746ZM477.521 137.495V139.235H456.058V137.495H465.708V133.065H458.747V125.841H472.774V122.149H458.694V120.436H474.805V127.528H460.804V131.352H475.358V133.065H467.738V137.495H477.521ZM505.602 118.722V136.599H503.519V131.562H499.458V129.875H503.519V126.685H499.458V124.971H503.519V118.722H505.602ZM499.458 121.596V123.283H486.195V121.596H491.891V118.695H493.947V121.596H499.458ZM492.893 124.575C496.03 124.575 498.245 126.368 498.245 129.058C498.245 131.721 496.03 133.54 492.893 133.54C489.755 133.54 487.566 131.721 487.593 129.058C487.566 126.368 489.755 124.575 492.893 124.575ZM492.893 126.21C490.889 126.236 489.518 127.37 489.518 129.058C489.518 130.745 490.889 131.879 492.893 131.879C494.896 131.879 496.268 130.745 496.294 129.058C496.268 127.37 494.896 126.236 492.893 126.21ZM506.129 139.895V141.635H490.44V135.017H492.523V139.895H506.129ZM517.229 119.855C520.736 119.829 523.241 121.754 523.241 124.628C523.241 127.476 520.736 129.453 517.229 129.427C513.723 129.453 511.218 127.476 511.218 124.628C511.218 121.754 513.723 119.829 517.229 119.855ZM517.229 121.543C514.883 121.517 513.222 122.809 513.248 124.628C513.222 126.474 514.883 127.739 517.229 127.713C519.603 127.739 521.264 126.474 521.264 124.628C521.264 122.809 519.603 121.517 517.229 121.543ZM528.831 118.722V142.162H526.801V118.722H528.831ZM509.451 131.431C513.854 131.431 519.866 131.352 525.087 130.587L525.219 132.143C522.978 132.551 520.644 132.802 518.39 132.934V141.424H516.333V133.065C513.947 133.171 511.692 133.184 509.741 133.197L509.451 131.431ZM552.166 118.695V142.136H550.083V118.695H552.166ZM541.487 126.342C541.487 130.271 544.229 134.067 547.763 135.57L546.603 137.179C543.9 135.979 541.606 133.435 540.512 130.323C539.457 133.619 537.176 136.322 534.474 137.601L533.313 135.992C536.794 134.41 539.457 130.455 539.457 126.342V124.47H533.946V122.782H539.431V119.144H541.487V122.782H546.945V124.47H541.487V126.342ZM563.24 120.225C566.853 120.251 569.463 122.466 569.489 125.735C569.463 128.675 567.354 130.771 564.295 131.141V135.148C566.483 135.043 568.685 134.885 570.729 134.621L570.86 136.177C565.903 137.021 560.34 137.073 556.227 137.047L555.884 135.307C557.769 135.293 559.958 135.28 562.212 135.201V131.141C559.101 130.785 556.965 128.688 556.991 125.735C556.965 122.466 559.575 120.251 563.24 120.225ZM563.24 122.018C560.788 122.018 558.995 123.547 559.021 125.735C558.995 127.924 560.788 129.453 563.24 129.453C565.666 129.453 567.433 127.924 567.459 125.735C567.433 123.547 565.666 122.018 563.24 122.018ZM574.288 118.695V128.372H578.111V130.165H574.288V142.136H572.231V118.695H574.288ZM604.426 118.695V127.977H608.354V129.717H604.426V142.188H602.369V118.695H604.426ZM598.256 120.989V122.703H589.37V134.568C593.615 134.568 596.621 134.371 600.102 133.725L600.365 135.518C596.7 136.177 593.615 136.309 589.159 136.309H587.313V120.989H598.256ZM620.299 119.223C625.388 119.223 628.578 120.857 628.578 123.679C628.578 126.447 625.388 128.056 620.299 128.056C615.21 128.056 611.993 126.447 611.993 123.679C611.993 120.857 615.21 119.223 620.299 119.223ZM620.299 120.884C616.502 120.884 614.103 121.938 614.129 123.679C614.103 125.393 616.502 126.395 620.299 126.421C624.043 126.395 626.469 125.393 626.469 123.679C626.469 121.938 624.043 120.884 620.299 120.884ZM628.367 134.12V141.819H612.23V134.12H628.367ZM614.287 135.781V140.132H626.337V135.781H614.287ZM630.978 130.086V131.8H609.62V130.086H630.978ZM658.373 119.697V127.607H651.438V130.613H661.089V132.301H639.731V130.613H649.382V127.607H642.5V119.697H658.373ZM644.53 121.358V125.946H656.316V121.358H644.53ZM658.452 134.753V142.136H656.369V136.414H642.104V134.753H658.452ZM684.529 137.548V139.262H663.066V137.548H669.052V131.958H665.018V130.244H668.683V122.598H664.965V120.884H682.473V122.598H678.755V130.244H682.42V131.958H678.386V137.548H684.529ZM670.739 130.244H676.725V122.598H670.739V130.244ZM671.135 137.548H676.329V131.958H671.135V137.548ZM713.217 118.695V142.136H711.239V118.695H713.217ZM708.471 119.275V140.923H706.52V128.847H702.564V127.159H706.52V119.275H708.471ZM700.06 125.393C700.06 129.453 701.879 133.487 705.122 135.359L703.856 136.889C701.549 135.504 699.915 132.973 699.11 129.98C698.253 133.21 696.553 135.966 694.206 137.442L692.888 135.887C696.157 133.936 698.056 129.664 698.056 125.393V123.178H693.547V121.464H704.357V123.178H700.06V125.393ZM724.845 124.997C724.818 129.269 727.745 133.593 731.199 135.148L729.934 136.783C727.271 135.478 724.963 132.723 723.843 129.374C722.749 132.92 720.441 135.874 717.699 137.258L716.381 135.518C719.861 133.909 722.762 129.453 722.788 124.997V120.726H724.845V124.997ZM735.84 118.695V142.188H733.757V118.695H735.84ZM325.145 189.096C323.668 189.096 322.455 187.883 322.455 186.38C322.455 184.903 323.668 183.69 325.145 183.69C326.647 183.69 327.86 184.903 327.86 186.38C327.86 187.883 326.647 189.096 325.145 189.096ZM365.882 172.695V184.692H363.799V182.24H357.55V180.605H363.799V177.784H357.893C356.416 181.489 352.777 183.98 347.583 185.22L346.845 183.506C352.593 182.174 355.941 179.366 356.337 175.596H348.031V173.882H358.604C358.604 174.66 358.525 175.411 358.394 176.123H363.799V172.695H365.882ZM365.882 185.747V191.469H352.804V194.211H366.673V195.925H350.747V189.887H363.799V187.435H350.694V185.747H365.882ZM382.783 175.306V176.519C382.757 178.364 382.757 181.476 382.098 185.826L380.015 185.642C380.647 181.713 380.7 178.865 380.7 176.993H370.865V175.306H382.783ZM376.64 182.003V189.122C379.237 189.03 381.9 188.858 384.339 188.568L384.444 190.124C379.514 190.889 374.003 190.994 369.811 190.968L369.547 189.254C371.089 189.241 372.803 189.228 374.609 189.175V182.003H376.64ZM387.872 172.695V182.504H391.669V184.297H387.872V196.136H385.815V172.695H387.872ZM412.077 179.814V181.476H396.02V173.565H398.076V179.814H412.077ZM414.556 184.666V186.354H393.093V184.666H414.556ZM412.209 193.842V195.556H395.888V188.753H397.944V193.842H412.209ZM437.258 175.227V176.914H423.283V175.227H429.242V172.59H431.299V175.227H437.258ZM430.271 178.127C433.646 178.153 435.887 179.788 435.913 182.372C435.887 184.93 433.646 186.591 430.271 186.591C426.896 186.591 424.602 184.93 424.628 182.372C424.602 179.788 426.896 178.153 430.271 178.127ZM430.271 179.735C428.056 179.762 426.579 180.79 426.605 182.372C426.579 183.928 428.056 184.93 430.271 184.93C432.459 184.93 433.936 183.928 433.962 182.372C433.936 180.79 432.459 179.762 430.271 179.735ZM441.556 172.695V179.208H445.089V180.948H441.556V187.355H439.499V172.695H441.556ZM441.556 188.647V196.136H439.499V190.335H426.21V188.647H441.556ZM468.002 186.617V188.305H458.22V196.136H456.189V188.305H446.539V186.617H468.002ZM451.338 173.671V176.914H463.15V173.671H465.233V183.77H449.281V173.671H451.338ZM451.338 182.082H463.15V178.602H451.338V182.082ZM491.363 191.39V193.13H469.9V191.39H479.551V185.668H472.432V174.673H488.7V185.668H481.581V191.39H491.363ZM474.462 176.334V184.007H486.696V176.334H474.462ZM500.302 174.225C503.914 174.251 506.524 176.466 506.551 179.735C506.524 182.675 504.415 184.771 501.356 185.141V189.148C503.545 189.043 505.747 188.885 507.79 188.621L507.922 190.177C502.965 191.021 497.401 191.073 493.288 191.047L492.945 189.307C494.831 189.293 497.019 189.28 499.273 189.201V185.141C496.162 184.785 494.026 182.688 494.053 179.735C494.026 176.466 496.637 174.251 500.302 174.225ZM500.302 176.018C497.85 176.018 496.057 177.547 496.083 179.735C496.057 181.924 497.85 183.453 500.302 183.453C502.728 183.453 504.494 181.924 504.521 179.735C504.494 177.547 502.728 176.018 500.302 176.018ZM511.35 172.695V182.372H515.173V184.165H511.35V196.136H509.293V172.695H511.35ZM544.783 186.907V188.621H535.027V196.136H532.997V188.621H523.32V186.907H544.783ZM542.357 182.794V184.481H526.194V173.803H542.094V175.49H528.251V178.232H541.54V179.894H528.251V182.794H542.357ZM566.114 172.695V186.591H564.031V182.899H558.547V184.903H547.789V174.488H558.547V176.519H564.031V172.695H566.114ZM549.846 176.176V183.216H556.517V176.176H549.846ZM558.336 187.276C563.214 187.276 566.193 188.885 566.193 191.706C566.193 194.501 563.214 196.083 558.336 196.083C553.458 196.083 550.479 194.501 550.479 191.706C550.479 188.885 553.458 187.276 558.336 187.276ZM558.336 188.885C554.75 188.911 552.509 189.939 552.535 191.706C552.509 193.394 554.75 194.448 558.336 194.448C561.922 194.448 564.137 193.394 564.137 191.706C564.137 189.939 561.922 188.911 558.336 188.885ZM558.547 181.159H564.031V178.232H558.547V181.159ZM588.157 172.695V182.372H592.086V184.086H588.157V196.136H586.101V172.695H588.157ZM583.833 176.466V178.18H569.885V176.466H575.923V172.985H577.979V176.466H583.833ZM576.978 180.131C580.3 180.131 582.699 182.346 582.726 185.51C582.699 188.674 580.3 190.889 576.978 190.889C573.629 190.889 571.203 188.674 571.229 185.51C571.203 182.346 573.629 180.131 576.978 180.131ZM576.978 181.871C574.789 181.871 573.181 183.4 573.207 185.51C573.181 187.646 574.789 189.148 576.978 189.122C579.14 189.148 580.722 187.646 580.748 185.51C580.722 183.4 579.14 181.871 576.978 181.871ZM613.417 172.695V196.136H611.439V172.695H613.417ZM608.486 173.328V194.949H606.509V184.007H601.552C600.115 186.736 597.86 189.148 594.591 191.073L593.378 189.57C598.48 186.551 601.038 182.319 601.42 177.415H594.38V175.701H603.477C603.463 178.008 603.094 180.236 602.316 182.319H606.509V173.328H608.486ZM634.062 187.514C639.099 187.514 642.289 189.096 642.289 191.812C642.289 194.501 639.099 196.083 634.062 196.083C629.053 196.083 625.862 194.501 625.862 191.812C625.862 189.096 629.053 187.514 634.062 187.514ZM634.062 189.096C630.318 189.122 627.893 190.15 627.919 191.812C627.893 193.446 630.318 194.448 634.062 194.448C637.807 194.448 640.206 193.446 640.232 191.812C640.206 190.15 637.807 189.122 634.062 189.096ZM642.104 173.908V175.886C642.104 177.784 642.104 179.683 641.445 182.108L639.415 181.871C640.048 179.445 640.048 177.731 640.048 175.886V175.596H626.021V173.908H642.104ZM644.82 183.638V185.325H623.489V183.638H632.322V179.103H634.353V183.638H644.82ZM668.234 186.063V187.777H662.565V196.136H660.482V187.777H654.471V196.136H652.335V187.777H646.771V186.063H668.234ZM657.45 173.645C662.381 173.645 665.703 175.622 665.703 178.76C665.703 181.871 662.381 183.849 657.45 183.822C652.52 183.849 649.197 181.871 649.197 178.76C649.197 175.622 652.52 173.645 657.45 173.645ZM657.45 175.332C653.785 175.332 651.307 176.677 651.333 178.76C651.307 180.843 653.785 182.161 657.45 182.161C661.089 182.161 663.594 180.843 663.594 178.76C663.594 176.677 661.089 175.332 657.45 175.332Z" fill="black"/>
<path d="M292 62L292 194" stroke="#F2F2F7" stroke-width="2"/>
<defs>
<linearGradient id="paint0_linear_590_878" x1="-0.722946" y1="130" x2="1112.71" y2="130" gradientUnits="userSpaceOnUse">
<stop stop-color="#3182F6"/>
<stop offset="1" stop-color="#A009FF"/>
</linearGradient>
<linearGradient id="paint1_linear_590_878" x1="41.7922" y1="153" x2="361.904" y2="153" gradientUnits="userSpaceOnUse">
<stop stop-color="#3182F6"/>
<stop offset="1" stop-color="#A009FF"/>
</linearGradient>
</defs>
</svg>
