<svg width="800" height="260" viewBox="0 0 800 260" fill="none" xmlns="http://www.w3.org/2000/svg">
<rect x="0.5" y="0.5" width="799" height="259" rx="14.5" fill="white" stroke="url(#paint0_linear_590_881)"/>
<path d="M61.9316 141.307V164.26H59.0879V141.307H61.9316ZM56.3457 143.541V145.852H54.1367V156.135C55.2412 156.059 56.3203 155.957 57.3613 155.83L57.5137 157.938C52.5879 158.725 47.2051 158.826 42.9902 158.826L42.7109 156.516L45.5547 156.49V145.852H43.3203V143.541H56.3457ZM48.2715 156.414C49.2871 156.401 50.3281 156.363 51.3691 156.312V145.852H48.2715V156.414ZM83.8691 152.072V154.332H67.7715V143.312H83.6914V145.598H70.5645V152.072H83.8691ZM86.2051 159.004V161.34H65.2324V159.004H86.2051ZM91.2578 142.779V146.156H95.041V142.779H97.6562V153.723H88.5918V142.779H91.2578ZM91.2578 151.488H95.041V148.34H91.2578V151.488ZM107.33 141.332V155.119H104.639V149.355H102.354V154.992H99.7129V141.764H102.354V147.045H104.639V141.332H107.33ZM107.33 156.287V164.26H104.512V158.572H91.6133V156.287H107.33ZM134.854 142.094V148.619H121.676V150.904H135.361V153.164H118.832V146.486H131.959V144.379H118.781V142.094H134.854ZM137.291 155.119V157.379H128.176V164.285H125.357V157.379H116.318V155.119H137.291ZM159.787 159.131V161.492H138.814V159.131H159.787ZM157.959 143.439V145.699H154.607V153.012H157.883V155.246H140.617V153.012H143.842V145.699H140.541V143.439H157.959ZM146.66 153.012H151.814V145.699H146.66V153.012ZM186.625 141.307V164.26H183.781V141.307H186.625ZM179.77 143.744C179.77 150.574 177.129 156.389 169.08 160.197L167.607 157.938C173.612 155.081 176.405 151.196 176.9 145.979H168.775V143.744H179.77ZM208.029 141.332V147.959H211.229V150.295H208.029V158.217H205.211V141.332H208.029ZM208.943 161.518V163.803H193.328V156.516H196.146V161.518H208.943ZM193.506 142.957V146.461H198.863V142.957H201.656V154.484H190.713V142.957H193.506ZM193.506 152.25H198.863V148.645H193.506V152.25ZM239.514 152.656V154.916H230.652V159.131H227.783V154.916H218.541V152.656H239.514ZM237.203 161.492V163.803H221.105V156.998H223.949V161.492H237.203ZM229.002 141.814C233.953 141.814 237.229 143.617 237.229 146.512C237.229 149.406 233.953 151.184 229.002 151.184C224.051 151.184 220.775 149.406 220.775 146.512C220.775 143.617 224.051 141.814 229.002 141.814ZM229.002 144.049C225.854 144.049 223.797 144.938 223.822 146.512C223.797 148.035 225.854 148.924 229.002 148.924C232.176 148.924 234.207 148.035 234.207 146.512C234.207 144.938 232.176 144.049 229.002 144.049ZM247.41 142.602C249.264 142.602 250.863 143.287 251.955 144.43H257.439V141.307H260.258V154.814H257.439V151.895H251.955C250.863 153.037 249.251 153.71 247.41 153.697C243.957 153.723 241.342 151.387 241.342 148.162C241.342 144.912 243.957 142.602 247.41 142.602ZM247.41 145.014C245.43 145.014 244.033 146.232 244.033 148.162C244.033 150.041 245.43 151.311 247.41 151.311C249.314 151.311 250.711 150.041 250.736 148.162C250.711 146.232 249.314 145.014 247.41 145.014ZM252.488 155.297C257.312 155.297 260.334 156.947 260.334 159.766C260.334 162.584 257.312 164.234 252.488 164.234C247.689 164.234 244.668 162.584 244.693 159.766C244.668 156.947 247.689 155.297 252.488 155.297ZM252.488 157.455C249.289 157.455 247.436 158.268 247.461 159.766C247.436 161.213 249.289 162.025 252.488 162.025C255.738 162.025 257.566 161.213 257.566 159.766C257.566 158.268 255.738 157.455 252.488 157.455ZM253.225 146.689C253.352 147.159 253.428 147.642 253.428 148.162C253.428 148.67 253.352 149.152 253.25 149.609H257.439V146.689H253.225Z" fill="url(#paint1_linear_590_881)"/>
<path d="M53.5645 104.686C53.5645 107.985 55.5928 111.346 60.1338 112.708L58.166 115.735C55.0781 114.767 52.8984 112.784 51.6572 110.286C50.4009 112.996 48.1606 115.175 44.9365 116.25L42.9385 113.223C47.5098 111.739 49.6289 108.167 49.6289 104.686V104.292H43.9678V101.204H59.1045V104.292H53.5645V104.686ZM65.8857 99.2666V119.187H62.0107V99.2666H65.8857ZM66.6123 123.213V126.301H47.4189V117.37H51.3242V123.213H66.6123ZM91.6484 99.2363V110.438H95.251V113.646H91.6484V126.785H87.7432V99.2363H91.6484ZM69.2764 119.005C71.2896 119.005 73.6357 119.005 76.0879 118.944V116.583C73.1514 116.008 71.2441 114.146 71.2744 111.588C71.2441 108.5 74.0293 106.411 78.0557 106.411C81.9912 106.411 84.8066 108.5 84.8369 111.588C84.8066 114.146 82.8691 116.023 79.9629 116.583V118.793C82.1426 118.687 84.3374 118.505 86.3809 118.218L86.623 121.033C80.75 122.123 74.4531 122.153 69.791 122.153L69.2764 119.005ZM86.1689 102.294V105.321H69.8213V102.294H76.0879V99.3877H79.9629V102.294H86.1689ZM78.0557 109.348C76.1787 109.348 74.9072 110.165 74.9375 111.588C74.9072 113.041 76.1787 113.828 78.0557 113.828C79.8721 113.828 81.1133 113.041 81.1133 111.588C81.1133 110.165 79.8721 109.348 78.0557 109.348ZM118.138 99.2363V110.014H122.194V113.192H118.138V126.785H114.323V99.2363H118.138ZM112.446 103.354V106.441H96.25V103.354H102.486V99.6602H106.361V103.354H112.446ZM104.424 107.985C108.45 107.985 111.447 110.71 111.447 114.555C111.447 118.399 108.45 121.124 104.424 121.124C100.367 121.124 97.3701 118.399 97.3701 114.555C97.3701 110.71 100.367 107.985 104.424 107.985ZM104.424 111.104C102.486 111.134 101.063 112.436 101.063 114.555C101.063 116.704 102.486 117.976 104.424 117.945C106.361 117.976 107.754 116.704 107.754 114.555C107.754 112.436 106.361 111.134 104.424 111.104ZM145.565 106.744V109.771H126.312V100.205H130.156V106.744H145.565ZM148.381 112.738V115.766H123.163V112.738H148.381ZM145.747 123.092V126.18H126.069V118.006H129.944V123.092H145.747ZM171.268 101.87C171.237 110.347 168.967 117.461 159.037 122.607L156.918 119.701C161.277 117.4 163.987 114.842 165.576 111.8L157.584 112.526L157.069 109.257L166.787 108.682C167.105 107.516 167.302 106.275 167.423 104.958H158.553V101.87H171.268ZM180.35 99.2363V126.785H176.505V112.98H171.207V109.832H176.505V99.2363H180.35ZM207.021 99.2363V126.846H203.176V99.2363H207.021ZM198.483 101.537V112.163H189.401V117.219C193.594 117.204 197.167 116.961 201.208 116.311L201.541 119.429C197 120.216 192.913 120.397 187.888 120.397H185.405V109.105H194.548V104.655H185.375V101.537H198.483ZM232.935 100.054V102.476C232.935 104.595 232.935 106.835 232.42 109.59H235.78V112.617H229.604V114.555H233.056V121.851H217.374V123.516H234.024V126.482H213.529V119.096H229.211V117.491H213.499V114.555H216.829V112.617H210.774V109.59H228.545C228.681 108.788 228.802 108.031 228.878 107.319L213.469 107.985L213.045 104.958L229.09 104.625V103.081H213.802V100.054H232.935ZM220.704 114.555H225.76V112.617H220.704V114.555ZM260.726 116.644V126.482H242.107V116.644H260.726ZM245.952 119.61V123.395H256.911V119.61H245.952ZM260.726 99.2666V115.433H256.881V108.076H252.431V104.958H256.881V99.2666H260.726ZM251.038 100.508V108.954H242.41V111.558C246.588 111.527 249.585 111.391 253.036 110.831L253.309 113.949C249.373 114.615 245.922 114.706 240.836 114.676H238.596V106.048H247.254V103.626H238.535V100.508H251.038Z" fill="black"/>
<path d="M325.145 81.0957C323.668 81.0957 322.455 79.8828 322.455 78.3799C322.455 76.9033 323.668 75.6904 325.145 75.6904C326.647 75.6904 327.86 76.9033 327.86 78.3799C327.86 79.8828 326.647 81.0957 325.145 81.0957ZM364.774 64.6953V70.8125H368.308V72.5264H364.774V78.7754H362.718V64.6953H364.774ZM358.394 66.4355C358.394 72.3945 354.175 76.7979 347.346 78.8018L346.476 77.1143C352.131 75.4795 355.744 72.2231 356.179 68.1494H347.504V66.4355H358.394ZM357.365 79.0391C362.085 79.0391 365.038 80.7529 365.038 83.5479C365.038 86.3955 362.085 88.083 357.365 88.083C352.698 88.083 349.666 86.3955 349.692 83.5479C349.666 80.7529 352.698 79.0391 357.365 79.0391ZM357.365 80.7002C353.938 80.6738 351.723 81.7812 351.749 83.5479C351.723 85.3145 353.938 86.4219 357.365 86.4219C360.819 86.4219 363.034 85.3145 363.034 83.5479C363.034 81.7812 360.819 80.6738 357.365 80.7002ZM377.642 70.9971C377.642 75.1367 380.384 79.3818 383.706 81.0166L382.44 82.6777C379.856 81.3198 377.694 78.5513 376.666 75.2949C375.611 78.7622 373.396 81.7153 370.76 83.126L369.441 81.4648C372.869 79.7773 375.585 75.2686 375.611 70.9971V66.7256H377.642V70.9971ZM387.925 64.6953V74.2139H391.854V76.0068H387.925V88.1357H385.868V64.6953H387.925ZM405.09 75.4268V77.5098H391.959V75.4268H405.09ZM425.155 64.6953V88.1885H423.072V64.6953H425.155ZM418.511 66.9365V68.6768H409.44V80.5684C414.002 80.5684 417.008 80.4233 420.515 79.8037L420.726 81.5439C417.087 82.2031 414.002 82.335 409.256 82.3613H407.357V66.9365H418.511ZM449.07 80.4893V88.1357H447.04V82.1504H433.276V80.4893H449.07ZM438.55 66.4883V73.001H432.248V76.5342C435.32 76.521 437.614 76.376 440.396 75.7959L440.633 77.5098C437.627 78.0635 435.148 78.2217 431.747 78.1953H430.244V71.4453H436.572V68.1758H430.191V66.4883H438.55ZM449.07 64.7217V79.3027H447.093V64.7217H449.07ZM444.43 65.1699V79.1445H442.452V72.4473H439.473V70.7334H442.452V65.1699H444.43ZM471.931 64.6953V88.1885H469.874V75.2686H464.917V73.5547H469.874V64.6953H471.931ZM464.521 66.8574V68.5713H455.662V73.4492H463.493V75.1367H455.662V80.8057C459.973 80.8057 462.715 80.6606 465.945 80.0938L466.183 81.8076C462.781 82.3613 459.907 82.5195 455.372 82.5195H453.579V66.8574H464.521ZM487.804 75.4268V77.5098H474.673V75.4268H487.804ZM493.446 65.6445V68.624H505.048V65.6445H507.104V75.0049H500.249V77.5098H509.899V79.2236H488.542V77.5098H498.192V75.0049H491.39V65.6445H493.446ZM493.446 73.3438H505.048V70.2588H493.446V73.3438ZM507.526 85.8945V87.6348H491.311V81.0957H493.394V85.8945H507.526ZM519.734 70.9971C519.734 75.1367 522.477 79.3818 525.799 81.0166L524.533 82.6777C521.949 81.3198 519.787 78.5513 518.759 75.2949C517.704 78.7622 515.489 81.7153 512.853 83.126L511.534 81.4648C514.962 79.7773 517.678 75.2686 517.704 70.9971V66.7256H519.734V70.9971ZM530.018 64.6953V74.2139H533.946V76.0068H530.018V88.1357H527.961V64.6953H530.018ZM560.313 64.6953V71.8408H563.847V73.5811H560.313V81.8604H558.23V64.6953H560.313ZM553.985 66.5146C553.985 72.5527 549.661 77.0352 542.911 79.1445L542.015 77.4834C547.631 75.73 551.296 72.3813 551.744 68.2549H542.99V66.5146H553.985ZM561.395 85.8945V87.6348H545.627V80.1201H547.684V85.8945H561.395ZM593.536 78.0635V79.7773H587.867V88.1357H585.784V79.7773H579.772V88.1357H577.637V79.7773H572.073V78.0635H593.536ZM582.752 65.6445C587.683 65.6445 591.005 67.6221 591.005 70.7598C591.005 73.8711 587.683 75.8486 582.752 75.8223C577.821 75.8486 574.499 73.8711 574.499 70.7598C574.499 67.6221 577.821 65.6445 582.752 65.6445ZM582.752 67.332C579.087 67.332 576.608 68.6768 576.635 70.7598C576.608 72.8428 579.087 74.1611 582.752 74.1611C586.391 74.1611 588.896 72.8428 588.896 70.7598C588.896 68.6768 586.391 67.332 582.752 67.332ZM614.814 64.6953V88.1357H612.731V64.6953H614.814ZM607.88 67.2529C607.854 74.0029 604.716 79.9619 596.858 83.7324L595.725 82.0449C602.066 79.0391 605.296 74.5435 605.771 68.9404H596.806V67.2529H607.88ZM626.917 69.0195C626.917 72.0781 629.264 74.9785 632.691 76.165L631.61 77.7998C628.96 76.8506 626.917 74.8862 625.915 72.4736C624.9 75.1763 622.738 77.3384 619.956 78.3535L618.875 76.7188C622.329 75.4795 624.834 72.3418 624.834 69.0459V68.0176H619.534V66.3301H632.164V68.0176H626.917V69.0195ZM638.202 79.9883V88.1357H636.119V81.7021H622.435V79.9883H638.202ZM638.202 64.6953V78.749H636.119V72.5791H631.426V70.8389H636.119V64.6953H638.202ZM668.261 64.6953V88.1357H666.178V64.6953H668.261ZM662.855 67.2529V68.9668H660.192V80.252C661.511 80.1597 662.816 80.041 664.068 79.8828L664.2 81.4385C659.085 82.2295 653.442 82.3086 649.092 82.335L648.854 80.5684L652.098 80.542V68.9668H649.461V67.2529H662.855ZM654.128 80.5156C655.446 80.4893 656.804 80.4365 658.162 80.3574V68.9668H654.128V80.5156ZM691.147 75.9805V77.6943H674.958V66.8838H690.91V68.5977H677.015V75.9805H691.147ZM693.679 83.2051V84.9453H672.216V83.2051H693.679ZM698.583 66.1982V69.916H703.804V66.1982H705.755V77.1143H696.632V66.1982H698.583ZM698.583 75.4004H703.804V71.5771H698.583V75.4004ZM715.458 64.7217V78.7754H713.48V72.5264H710.369V78.6436H708.418V65.1699H710.369V70.8125H713.48V64.7217H715.458ZM715.458 80.1992V88.1357H713.428V81.9131H699.664V80.1992H715.458ZM325.145 135.096C323.668 135.096 322.455 133.883 322.455 132.38C322.455 130.903 323.668 129.69 325.145 129.69C326.647 129.69 327.86 130.903 327.86 132.38C327.86 133.883 326.647 135.096 325.145 135.096ZM358.024 125.709C357.813 123.837 356.1 122.756 353.806 122.756C351.274 122.756 349.613 124.074 349.613 125.894C349.613 127.897 351.854 128.636 353.305 129.005L355.203 129.532C357.26 130.06 360.608 131.246 360.608 134.806C360.608 137.917 358.104 140.343 353.674 140.343C349.561 140.343 347.003 138.207 346.792 135.043H349.218C349.429 137.179 351.406 138.181 353.674 138.181C356.311 138.181 358.288 136.836 358.288 134.753C358.288 132.907 356.521 132.195 354.518 131.615L352.171 130.982C349.165 130.112 347.319 128.583 347.319 125.999C347.319 122.782 350.193 120.646 353.885 120.646C357.576 120.646 360.239 122.809 360.345 125.709H358.024ZM364.01 140V120.91H370.496C374.979 120.91 377.009 123.389 377.009 126.79C377.009 129.308 375.875 131.299 373.449 132.143L377.747 140H374.979L370.997 132.564L370.522 132.591H366.383V140H364.01ZM366.383 130.429H370.417C373.449 130.429 374.662 129.058 374.662 126.79C374.662 124.496 373.449 123.02 370.391 123.02H366.383V130.429ZM386.949 120.014L380.779 142.874H378.723L384.866 120.014H386.949ZM390.298 140H387.819L394.807 120.91H397.312L404.299 140H401.794L399.896 134.621H392.223L390.298 140ZM392.935 132.538H399.157L396.125 123.995H395.967L392.935 132.538ZM406.883 140V120.91H413.369C417.852 120.91 419.882 123.389 419.882 126.79C419.882 129.308 418.748 131.299 416.322 132.143L420.62 140H417.852L413.87 132.564L413.396 132.591H409.256V140H406.883ZM409.256 130.429H413.29C416.322 130.429 417.535 129.058 417.535 126.79C417.535 124.496 416.322 123.02 413.264 123.02H409.256V130.429ZM448.306 118.695V142.136H446.223V118.695H448.306ZM441.371 121.253C441.345 128.003 438.207 133.962 430.35 137.732L429.216 136.045C435.557 133.039 438.787 128.543 439.262 122.94H430.297V121.253H441.371ZM470.586 118.722V125.814H474.119V127.555H470.586V135.939H468.529V118.722H470.586ZM471.667 139.895V141.635H455.926V134.252H457.956V139.895H471.667ZM455.293 120.409V124.364H462.122V120.409H464.179V131.984H453.263V120.409H455.293ZM455.293 130.297H462.122V125.999H455.293V130.297ZM501.699 118.695V130.851H499.669V118.695H501.699ZM501.726 132.037V137.653H488.568V140.185H502.569V141.872H486.538V136.045H499.669V133.698H486.485V132.037H501.726ZM490.678 121.174C490.651 124.496 493.183 127.423 496.663 128.557L495.635 130.165C492.893 129.229 490.704 127.265 489.649 124.733C488.595 127.462 486.393 129.611 483.611 130.613L482.53 128.979C486.063 127.739 488.568 124.628 488.568 121.174V119.381H490.678V121.174ZM514.039 124.997C514.013 129.269 516.939 133.593 520.394 135.148L519.128 136.783C516.465 135.478 514.158 132.723 513.037 129.374C511.943 132.92 509.636 135.874 506.894 137.258L505.575 135.518C509.056 133.909 511.956 129.453 511.982 124.997V120.726H514.039V124.997ZM525.034 118.695V142.188H522.951V118.695H525.034ZM547.367 118.695V125.841H550.9V127.581H547.367V135.86H545.284V118.695H547.367ZM541.039 120.515C541.039 126.553 536.715 131.035 529.965 133.145L529.068 131.483C534.685 129.73 538.35 126.381 538.798 122.255H530.044V120.515H541.039ZM548.448 139.895V141.635H532.681V134.12H534.737V139.895H548.448ZM573.181 121.227V122.914H559.206V121.227H565.165V118.59H567.222V121.227H573.181ZM566.193 124.127C569.568 124.153 571.81 125.788 571.836 128.372C571.81 130.93 569.568 132.591 566.193 132.591C562.818 132.591 560.524 130.93 560.551 128.372C560.524 125.788 562.818 124.153 566.193 124.127ZM566.193 125.735C563.979 125.762 562.502 126.79 562.528 128.372C562.502 129.928 563.979 130.93 566.193 130.93C568.382 130.93 569.858 129.928 569.885 128.372C569.858 126.79 568.382 125.762 566.193 125.735ZM577.479 118.695V125.208H581.012V126.948H577.479V133.355H575.422V118.695H577.479ZM577.479 134.647V142.136H575.422V136.335H562.133V134.647H577.479ZM587.261 132.775V135.518H598.968V132.775H601.051V141.819H585.204V132.775H587.261ZM587.261 140.158H598.968V137.152H587.261V140.158ZM603.846 129.4V131.114H582.488V129.4H603.846ZM594.248 120.066C594.248 122.967 598.52 125.551 602.633 126.078L601.868 127.739C598.229 127.199 594.67 125.34 593.193 122.703C591.69 125.353 588.104 127.199 584.492 127.739L583.701 126.078C587.867 125.524 592.112 123.046 592.112 120.066V118.959H594.248V120.066ZM634.036 131.114V132.802H624.491V137.39H622.435V132.802H612.573V131.114H634.036ZM631.637 139.895V141.635H615.315V135.228H617.372V139.895H631.637ZM617.504 119.46V122.466H629.105V119.46H631.162V128.82H615.447V119.46H617.504ZM617.504 127.133H629.105V124.048H617.504V127.133ZM643.924 122.466C643.924 125.709 646.323 128.688 649.725 129.849L648.591 131.51C645.98 130.547 643.95 128.543 642.948 126.052C641.959 128.82 639.85 130.982 637.095 132.063L635.961 130.35C639.521 129.084 641.867 125.999 641.894 122.387V119.908H643.924V122.466ZM655.367 133.856V142.136H653.284V135.518H639.6V133.856H655.367ZM655.367 118.695V132.564H653.284V125.366H648.063V123.626H653.284V118.695H655.367ZM661.748 133.355C660.825 133.355 660.034 132.591 660.061 131.642C660.034 130.719 660.825 129.954 661.748 129.954C662.671 129.954 663.436 130.719 663.436 131.642C663.436 132.591 662.671 133.355 661.748 133.355ZM687.588 137.39V139.13H666.125V137.39H675.802V131.694H677.885V137.39H687.588ZM677.885 123.151C677.885 126.896 682.525 130.112 686.56 130.771L685.716 132.406C682.13 131.708 678.346 129.427 676.856 126.157C675.34 129.44 671.57 131.773 668.05 132.512L667.18 130.851C671.135 130.165 675.749 126.896 675.749 123.151V122.571H667.892V120.831H685.742V122.571H677.885V123.151ZM708.893 118.695V132.67H706.81V126.526H702.09V124.812H706.81V118.695H708.893ZM701.114 133.408C705.992 133.408 708.972 134.99 708.972 137.759C708.972 140.527 705.992 142.109 701.114 142.136C696.236 142.109 693.257 140.527 693.257 137.759C693.257 134.99 696.236 133.408 701.114 133.408ZM701.114 135.017C697.528 135.017 695.287 136.045 695.313 137.759C695.287 139.446 697.528 140.475 701.114 140.475C704.7 140.475 706.915 139.446 706.915 137.759C706.915 136.045 704.7 135.017 701.114 135.017ZM697.607 122.993C697.607 126.052 699.954 128.952 703.382 130.139L702.301 131.8C699.664 130.851 697.621 128.886 696.632 126.447C695.604 129.203 693.428 131.404 690.646 132.459L689.565 130.798C693.046 129.532 695.524 126.368 695.524 123.02V122.149H690.225V120.409H702.854V122.149H697.607V122.993ZM325.145 189.096C323.668 189.096 322.455 187.883 322.455 186.38C322.455 184.903 323.668 183.69 325.145 183.69C326.647 183.69 327.86 184.903 327.86 186.38C327.86 187.883 326.647 189.096 325.145 189.096ZM364.774 172.695V178.812H368.308V180.526H364.774V186.775H362.718V172.695H364.774ZM358.394 174.436C358.394 180.395 354.175 184.798 347.346 186.802L346.476 185.114C352.131 183.479 355.744 180.223 356.179 176.149H347.504V174.436H358.394ZM357.365 187.039C362.085 187.039 365.038 188.753 365.038 191.548C365.038 194.396 362.085 196.083 357.365 196.083C352.698 196.083 349.666 194.396 349.692 191.548C349.666 188.753 352.698 187.039 357.365 187.039ZM357.365 188.7C353.938 188.674 351.723 189.781 351.749 191.548C351.723 193.314 353.938 194.422 357.365 194.422C360.819 194.422 363.034 193.314 363.034 191.548C363.034 189.781 360.819 188.674 357.365 188.7ZM377.642 178.997C377.642 183.137 380.384 187.382 383.706 189.017L382.44 190.678C379.856 189.32 377.694 186.551 376.666 183.295C375.611 186.762 373.396 189.715 370.76 191.126L369.441 189.465C372.869 187.777 375.585 183.269 375.611 178.997V174.726H377.642V178.997ZM387.925 172.695V182.214H391.854V184.007H387.925V196.136H385.868V172.695H387.925ZM401.557 177.731C401.557 180.896 404.062 183.743 407.568 184.851L406.514 186.512C403.785 185.589 401.609 183.664 400.555 181.186C399.526 183.862 397.325 185.971 394.543 186.986L393.462 185.325C396.969 184.086 399.474 181.054 399.474 177.731V176.36H393.989V174.673H406.962V176.36H401.557V177.731ZM412.473 172.722V189.913H410.416V172.722H412.473ZM413.211 193.895V195.635H397.338V188.278H399.395V193.895H413.211ZM424.127 174.409C427.818 174.409 430.429 176.65 430.429 179.92C430.429 183.189 427.818 185.431 424.127 185.431C420.436 185.431 417.772 183.189 417.799 179.92C417.772 176.65 420.436 174.409 424.127 174.409ZM424.127 176.229C421.622 176.229 419.803 177.731 419.829 179.92C419.803 182.108 421.622 183.611 424.127 183.611C426.605 183.611 428.398 182.108 428.398 179.92C428.398 177.731 426.605 176.229 424.127 176.229ZM435.676 172.695V196.188H433.619V172.695H435.676ZM416.586 189.254C420.91 189.254 426.869 189.228 432.063 188.463L432.222 189.992C426.869 190.994 421.095 191.021 416.876 191.021L416.586 189.254ZM454.95 179.894C454.95 183.875 457.851 187.909 461.305 189.412L460.145 191.047C457.402 189.794 455.029 187.092 453.948 183.849C452.841 187.29 450.481 190.282 447.805 191.627L446.565 189.992C449.914 188.384 452.841 183.954 452.867 179.894V176.835H447.33V175.121H460.54V176.835H454.95V179.894ZM465.893 172.695V196.136H463.81V172.695H465.893ZM491.337 184.481V186.195H469.9V184.481H479.551V180.869H481.581V184.481H491.337ZM481.607 174.172C481.607 177.283 485.826 179.894 489.966 180.474L489.122 182.135C485.562 181.515 482.042 179.63 480.579 176.914C479.103 179.643 475.569 181.515 471.983 182.135L471.192 180.474C475.332 179.894 479.524 177.283 479.524 174.172V173.064H481.607V174.172ZM488.621 188.489V196.136H486.538V190.15H472.273V188.489H488.621ZM501.383 177.02C501.383 180.078 503.729 182.979 507.157 184.165L506.076 185.8C503.426 184.851 501.383 182.886 500.381 180.474C499.366 183.176 497.204 185.338 494.422 186.354L493.341 184.719C496.795 183.479 499.3 180.342 499.3 177.046V176.018H494V174.33H506.63V176.018H501.383V177.02ZM512.668 187.988V196.136H510.585V189.702H496.9V187.988H512.668ZM512.668 172.695V186.749H510.585V180.579H505.892V178.839H510.585V172.695H512.668ZM535.924 172.722V189.86H533.867V172.722H535.924ZM536.662 193.895V195.635H520.789V188.12H522.846V193.895H536.662ZM523.268 174.356C526.774 174.356 529.411 176.729 529.411 180.104C529.411 183.532 526.774 185.879 523.268 185.879C519.761 185.879 517.124 183.532 517.124 180.104C517.124 176.729 519.761 174.356 523.268 174.356ZM523.268 176.176C520.895 176.176 519.128 177.811 519.154 180.104C519.128 182.451 520.895 184.06 523.268 184.06C525.588 184.06 527.381 182.451 527.381 180.104C527.381 177.811 525.588 176.176 523.268 176.176ZM566.114 172.722V189.913H564.031V180.922H559.206V179.208H564.031V172.722H566.114ZM566.773 193.895V195.635H551.059V188.357H553.142V193.895H566.773ZM554.829 177.547C554.829 180.579 557.176 183.532 560.604 184.692L559.522 186.354C556.873 185.404 554.829 183.427 553.827 181.001C552.812 183.704 550.65 185.866 547.868 186.907L546.787 185.22C550.241 184.007 552.746 180.922 552.746 177.547V176.334H547.446V174.62H560.076V176.334H554.829V177.547ZM591.453 184.692V186.406H581.908V191.205H579.852V186.406H569.99V184.692H591.453ZM588.658 173.855V182.003H572.785V173.855H588.658ZM574.815 175.49V180.342H586.602V175.49H574.815ZM589.054 193.895V195.635H572.732V188.885H574.815V193.895H589.054ZM601.42 176.387C601.394 179.735 603.767 182.688 607.221 183.849L606.061 185.457C603.477 184.481 601.446 182.583 600.444 180.104C599.429 182.913 597.28 185.101 594.459 186.169L593.325 184.481C596.938 183.216 599.337 180.104 599.363 176.466V174.04H601.42V176.387ZM612.784 172.695V186.591H610.701V179.445H605.48V177.731H610.701V172.695H612.784ZM605.006 187.276C609.884 187.276 612.863 188.885 612.863 191.706C612.863 194.501 609.884 196.083 605.006 196.083C600.128 196.083 597.148 194.501 597.148 191.706C597.148 188.885 600.128 187.276 605.006 187.276ZM605.006 188.911C601.42 188.911 599.179 189.966 599.205 191.706C599.179 193.394 601.42 194.422 605.006 194.422C608.592 194.422 610.807 193.394 610.807 191.706C610.807 189.966 608.592 188.911 605.006 188.911ZM641.788 172.695V178.812H645.321V180.526H641.788V186.775H639.731V172.695H641.788ZM635.407 174.436C635.407 180.395 631.188 184.798 624.359 186.802L623.489 185.114C629.145 183.479 632.757 180.223 633.192 176.149H624.518V174.436H635.407ZM634.379 187.039C639.099 187.039 642.052 188.753 642.052 191.548C642.052 194.396 639.099 196.083 634.379 196.083C629.712 196.083 626.68 194.396 626.706 191.548C626.68 188.753 629.712 187.039 634.379 187.039ZM634.379 188.7C630.951 188.674 628.736 189.781 628.763 191.548C628.736 193.314 630.951 194.422 634.379 194.422C637.833 194.422 640.048 193.314 640.048 191.548C640.048 189.781 637.833 188.674 634.379 188.7ZM664.991 172.695V182.688H668.735V184.429H664.991V196.136H662.908V172.695H664.991ZM646.508 189.887C648.419 189.887 650.647 189.887 652.968 189.808V187.197C650.239 186.894 648.459 185.299 648.485 182.979C648.459 180.342 650.7 178.628 654.022 178.628C657.292 178.628 659.56 180.342 659.586 182.979C659.56 185.299 657.753 186.894 655.051 187.224V189.729C657.239 189.623 659.441 189.452 661.484 189.148L661.616 190.73C656.501 191.601 650.964 191.653 646.851 191.653L646.508 189.887ZM661.062 175.569V177.257H646.93V175.569H652.968V172.748H655.051V175.569H661.062ZM654.022 180.236C651.86 180.236 650.41 181.344 650.41 182.979C650.41 184.613 651.86 185.668 654.022 185.642C656.158 185.668 657.608 184.613 657.608 182.979C657.608 181.344 656.158 180.236 654.022 180.236ZM696.948 172.695V196.136H694.971V172.695H696.948ZM692.202 173.275V194.923H690.251V182.847H686.296V181.159H690.251V173.275H692.202ZM683.791 179.393C683.791 183.453 685.61 187.487 688.854 189.359L687.588 190.889C685.281 189.504 683.646 186.973 682.842 183.98C681.985 187.21 680.284 189.966 677.938 191.442L676.619 189.887C679.889 187.936 681.787 183.664 681.787 179.393V177.178H677.278V175.464H688.089V177.178H683.791V179.393ZM710.844 187.514C715.88 187.514 719.07 189.096 719.07 191.812C719.07 194.501 715.88 196.083 710.844 196.083C705.834 196.083 702.644 194.501 702.644 191.812C702.644 189.096 705.834 187.514 710.844 187.514ZM710.844 189.096C707.1 189.122 704.674 190.15 704.7 191.812C704.674 193.446 707.1 194.448 710.844 194.448C714.588 194.448 716.987 193.446 717.014 191.812C716.987 190.15 714.588 189.122 710.844 189.096ZM718.886 173.908V175.886C718.886 177.784 718.886 179.683 718.227 182.108L716.196 181.871C716.829 179.445 716.829 177.731 716.829 175.886V175.596H702.802V173.908H718.886ZM721.602 183.638V185.325H700.271V183.638H709.104V179.103H711.134V183.638H721.602Z" fill="black"/>
<path d="M292 62L292 194" stroke="#F2F2F7" stroke-width="2"/>
<defs>
<linearGradient id="paint0_linear_590_881" x1="-0.722946" y1="130" x2="1112.71" y2="130" gradientUnits="userSpaceOnUse">
<stop stop-color="#3182F6"/>
<stop offset="1" stop-color="#A009FF"/>
</linearGradient>
<linearGradient id="paint1_linear_590_881" x1="41.7922" y1="153" x2="361.904" y2="153" gradientUnits="userSpaceOnUse">
<stop stop-color="#3182F6"/>
<stop offset="1" stop-color="#A009FF"/>
</linearGradient>
</defs>
</svg>
