<svg width="712" height="713" viewBox="0 0 712 713" fill="none" xmlns="http://www.w3.org/2000/svg">
<path d="M603.49 356.825C603.49 389.336 597.087 421.529 584.645 451.566C572.203 481.602 553.968 508.894 530.978 531.883C507.989 554.872 480.698 573.108 450.661 585.55C420.624 597.991 388.431 604.395 355.92 604.395L355.92 356.825H603.49Z" fill="#C3E1FD"/>
<path fill-rule="evenodd" clip-rule="evenodd" d="M584.083 451.333C596.416 421.557 602.802 389.658 602.881 357.433H356.528L356.528 603.786C388.753 603.706 420.653 597.321 450.428 584.988C480.391 572.577 507.616 554.386 530.548 531.453C553.481 508.521 571.672 481.296 584.083 451.333ZM356.528 604.394C356.325 604.395 356.123 604.395 355.92 604.395L355.92 356.825H603.49C603.49 357.027 603.49 357.23 603.489 357.433C603.41 389.738 597.009 421.716 584.645 451.566C572.203 481.602 553.967 508.894 530.978 531.883C507.989 554.872 480.698 573.108 450.661 585.55C420.812 597.914 388.833 604.315 356.528 604.394Z" fill="#3182F6"/>
<path d="M355.92 109.255C388.431 109.255 420.624 115.658 450.661 128.1C480.698 140.541 507.989 158.777 530.978 181.766C553.967 204.755 572.203 232.047 584.645 262.084C597.087 292.12 603.49 324.313 603.49 356.825L355.92 356.825L355.92 109.255Z" fill="#97CAFE"/>
<path fill-rule="evenodd" clip-rule="evenodd" d="M450.428 128.662C420.653 116.328 388.753 109.943 356.528 109.864L356.528 356.216L602.881 356.216C602.802 323.992 596.416 292.092 584.083 262.316C571.672 232.354 553.481 205.129 530.548 182.196C507.616 159.264 480.391 141.073 450.428 128.662ZM603.489 356.216C603.49 356.419 603.49 356.622 603.49 356.825L355.92 356.825L355.92 109.255C356.123 109.255 356.325 109.255 356.528 109.255C388.833 109.335 420.812 115.736 450.661 128.1C480.698 140.541 507.989 158.777 530.978 181.766C553.968 204.755 572.203 232.047 584.645 262.084C597.009 291.933 603.41 323.912 603.489 356.216Z" fill="#3182F6"/>
<path d="M108.35 356.825C108.35 389.336 114.753 421.529 127.195 451.566C139.636 481.602 157.872 508.894 180.861 531.883C203.85 554.872 231.142 573.108 261.179 585.55C291.215 597.991 323.409 604.395 355.92 604.395L355.92 356.825L108.35 356.825Z" fill="#C3E1FD"/>
<path fill-rule="evenodd" clip-rule="evenodd" d="M127.757 451.333C115.423 421.557 109.038 389.658 108.959 357.433L355.312 357.433L355.312 603.786C323.087 603.706 291.187 597.321 261.412 584.988C231.449 572.577 204.224 554.386 181.291 531.453C158.359 508.521 140.168 481.296 127.757 451.333ZM355.312 604.394C355.514 604.395 355.717 604.395 355.92 604.395L355.92 356.825L108.35 356.825C108.35 357.027 108.35 357.23 108.35 357.433C108.43 389.738 114.831 421.716 127.195 451.566C139.636 481.602 157.872 508.894 180.861 531.883C203.85 554.872 231.142 573.108 261.179 585.55C291.028 597.914 323.007 604.315 355.312 604.394Z" fill="#3182F6"/>
<path d="M355.92 109.255C323.409 109.255 291.216 115.658 261.179 128.1C231.142 140.541 203.85 158.777 180.861 181.766C157.872 204.755 139.636 232.047 127.195 262.084C114.753 292.12 108.35 324.313 108.35 356.825L355.92 356.825L355.92 109.255Z" fill="#97CAFE"/>
<path fill-rule="evenodd" clip-rule="evenodd" d="M261.412 128.662C291.187 116.328 323.087 109.943 355.312 109.864L355.312 356.216L108.959 356.216C109.038 323.992 115.424 292.092 127.757 262.316C140.168 232.354 158.359 205.129 181.291 182.196C204.224 159.264 231.449 141.073 261.412 128.662ZM108.35 356.216C108.35 356.419 108.35 356.622 108.35 356.825L355.92 356.825L355.92 109.255C355.717 109.255 355.514 109.255 355.312 109.255C323.007 109.335 291.028 115.736 261.179 128.1C231.142 140.541 203.85 158.777 180.861 181.766C157.872 204.755 139.636 232.047 127.195 262.084C114.831 291.933 108.43 323.912 108.35 356.216Z" fill="#3182F6"/>
<path d="M417.357 356.825C417.357 390.755 389.851 418.261 355.92 418.261C321.99 418.261 294.484 390.755 294.484 356.825C294.484 322.894 321.99 295.388 355.92 295.388C389.851 295.388 417.357 322.894 417.357 356.825Z" fill="url(#paint0_linear_460_1127)"/>
<path d="M215.253 227.869V215.827H219.977C222.721 215.827 224.285 217.373 224.285 219.752C224.285 221.399 223.528 222.596 222.156 223.178L224.717 227.869H221.956L219.661 223.594H217.748V227.869H215.253ZM217.748 221.565H219.511C220.992 221.565 221.707 220.95 221.707 219.752C221.707 218.538 220.992 217.872 219.511 217.872H217.748V221.565Z" fill="#666666"/>
<path d="M205.14 215.827L208.067 225.008H208.184L211.128 215.827H213.889L209.731 227.869H206.521L202.346 215.827H205.14Z" fill="#666666"/>
<path d="M193.447 227.869V215.827H201.381V217.889H195.942V220.816H200.865V222.879H195.942V227.869H193.447Z" fill="#666666"/>
<path d="M236.589 503.063V508.286H234.127V499.255H236.472V500.835H236.572C236.988 499.787 237.952 499.138 239.283 499.138C241.163 499.138 242.41 500.419 242.393 502.531V508.286H239.948V502.964C239.948 501.849 239.333 501.184 238.318 501.184C237.287 501.184 236.589 501.866 236.589 503.063Z" fill="#666666"/>
<path d="M228.139 508.469C225.411 508.469 223.714 506.59 223.714 503.795C223.714 501.001 225.411 499.138 228.139 499.138C230.866 499.138 232.58 501.001 232.58 503.795C232.58 506.59 230.866 508.469 228.139 508.469ZM228.155 506.556C229.419 506.556 230.068 505.375 230.068 503.795C230.068 502.199 229.419 501.018 228.155 501.018C226.875 501.018 226.209 502.199 226.209 503.795C226.209 505.375 226.875 506.556 228.155 506.556Z" fill="#666666"/>
<path d="M219.706 508.286V499.254H222.168V508.286H219.706ZM220.937 498.074C220.189 498.074 219.59 497.508 219.59 496.826C219.59 496.128 220.189 495.562 220.937 495.562C221.669 495.562 222.268 496.128 222.268 496.826C222.268 497.508 221.669 498.074 220.937 498.074Z" fill="#666666"/>
<path d="M218.16 499.255V501.101H216.463V505.508C216.463 506.224 216.812 506.407 217.311 506.423C217.561 506.423 217.993 506.407 218.293 506.373V508.319C218.026 508.369 217.594 508.403 216.979 508.403C215.199 508.403 213.985 507.604 214.001 505.858V501.101H212.754V499.255H214.001V497.092H216.463V499.255H218.16Z" fill="#666666"/>
<path d="M207.864 508.469C205.103 508.469 203.439 506.556 203.439 503.795C203.439 501.034 205.119 499.138 207.864 499.138C210.192 499.138 211.772 500.502 211.872 502.565H209.56C209.411 501.666 208.828 501.051 207.897 501.051C206.716 501.051 205.934 502.049 205.934 503.762C205.934 505.508 206.699 506.506 207.897 506.506C208.762 506.506 209.411 505.974 209.56 505.01H211.872C211.756 507.055 210.259 508.469 207.864 508.469Z" fill="#666666"/>
<path d="M196.088 503.063V508.286H193.626V499.255H195.971V500.835H196.071C196.487 499.787 197.451 499.138 198.782 499.138C200.662 499.138 201.909 500.419 201.892 502.531V508.286H199.447V502.964C199.447 501.849 198.832 501.184 197.817 501.184C196.786 501.184 196.088 501.866 196.088 503.063Z" fill="#666666"/>
<path d="M189.252 504.444V499.255H191.713V508.286H189.351V506.656H189.252C188.836 507.704 187.871 508.403 186.507 508.403C184.694 508.403 183.463 507.122 183.463 505.01V499.255H185.925V504.577C185.925 505.642 186.54 506.324 187.505 506.324C188.403 506.324 189.252 505.675 189.252 504.444Z" fill="#666666"/>
<path d="M174.499 508.286V496.244H182.432V498.307H176.993V501.234H181.917V503.296H176.993V508.286H174.499Z" fill="#666666"/>
<path d="M236.729 489.964C234.235 489.964 232.704 488.85 232.555 487.137H234.983C235.116 487.852 235.798 488.185 236.779 488.185C237.927 488.185 238.692 487.702 238.692 486.438V484.791H238.576C238.243 485.523 237.445 486.255 235.998 486.255C233.952 486.255 232.322 484.825 232.322 481.814C232.322 478.754 234.002 477.24 235.998 477.24C237.511 477.24 238.243 478.138 238.576 478.87H238.675V477.357H241.12V486.488C241.12 488.783 239.291 489.964 236.729 489.964ZM236.763 484.409C237.994 484.409 238.692 483.444 238.692 481.847C238.692 480.234 237.994 479.203 236.763 479.203C235.515 479.203 234.85 480.284 234.85 481.847C234.85 483.411 235.515 484.409 236.763 484.409Z" fill="#666666"/>
<path d="M224.954 481.166V486.388H222.492V477.357H224.837V478.937H224.937C225.353 477.889 226.318 477.24 227.648 477.24C229.528 477.24 230.775 478.521 230.759 480.633V486.388H228.314V481.066C228.314 479.951 227.698 479.286 226.684 479.286C225.652 479.286 224.954 479.968 224.954 481.166Z" fill="#666666"/>
<path d="M218.117 486.388V477.357H220.579V486.388H218.117ZM219.348 476.176C218.6 476.176 218.001 475.61 218.001 474.928C218.001 474.23 218.6 473.664 219.348 473.664C220.08 473.664 220.679 474.23 220.679 474.928C220.679 475.61 220.08 476.176 219.348 476.176Z" fill="#666666"/>
<path d="M212.579 486.571C209.818 486.571 208.155 484.658 208.155 481.897C208.155 479.136 209.835 477.24 212.579 477.24C214.908 477.24 216.488 478.604 216.588 480.667H214.276C214.126 479.768 213.544 479.153 212.612 479.153C211.431 479.153 210.65 480.151 210.65 481.864C210.65 483.611 211.415 484.609 212.612 484.609C213.477 484.609 214.126 484.076 214.276 483.112H216.588C216.471 485.157 214.974 486.571 212.579 486.571Z" fill="#666666"/>
<path d="M204.147 486.388V477.357H206.608V486.388H204.147ZM205.378 476.176C204.629 476.176 204.03 475.61 204.03 474.928C204.03 474.23 204.629 473.664 205.378 473.664C206.109 473.664 206.708 474.23 206.708 474.928C206.708 475.61 206.109 476.176 205.378 476.176Z" fill="#666666"/>
<path d="M202.599 477.357V479.203H200.902V483.61C200.902 484.326 201.252 484.509 201.751 484.525C202 484.525 202.433 484.509 202.732 484.475V486.421C202.466 486.471 202.033 486.505 201.418 486.505C199.638 486.505 198.424 485.706 198.441 483.96V479.203H197.193V477.357H198.441V475.194H200.902V477.357H202.599Z" fill="#666666"/>
<path d="M191.854 486.571C189.127 486.571 187.43 484.692 187.43 481.897C187.43 479.103 189.127 477.24 191.854 477.24C194.582 477.24 196.295 479.103 196.295 481.897C196.295 484.692 194.582 486.571 191.854 486.571ZM191.871 484.658C193.135 484.658 193.784 483.477 193.784 481.897C193.784 480.301 193.135 479.12 191.871 479.12C190.59 479.12 189.925 480.301 189.925 481.897C189.925 483.477 190.59 484.658 191.871 484.658Z" fill="#666666"/>
<path d="M185.817 474.346V486.388H183.655L178.366 478.737H178.266V486.388H175.771V474.346H177.967L183.222 481.997H183.339V474.346H185.817Z" fill="#666666"/>
<path d="M503.468 227.869V215.827H508.192C510.936 215.827 512.5 217.373 512.5 219.752C512.5 221.399 511.743 222.596 510.371 223.178L512.932 227.869H510.171L507.876 223.594H505.963V227.869H503.468ZM505.963 221.565H507.726C509.207 221.565 509.922 220.95 509.922 219.752C509.922 218.538 509.207 217.872 507.726 217.872H505.963V221.565Z" fill="#666666"/>
<path d="M493.439 227.869V215.827H501.523V217.889H495.934V220.816H501.107V222.879H495.934V225.806H501.54V227.869H493.439Z" fill="#666666"/>
<path d="M527.386 517.945C524.891 517.945 523.361 516.831 523.211 515.118H525.639C525.772 515.833 526.454 516.165 527.436 516.165C528.583 516.165 529.348 515.683 529.348 514.419V512.772H529.232C528.899 513.504 528.101 514.236 526.654 514.236C524.608 514.236 522.978 512.806 522.978 509.795C522.978 506.735 524.658 505.221 526.654 505.221C528.167 505.221 528.899 506.119 529.232 506.851H529.332V505.338H531.777V514.469C531.777 516.764 529.947 517.945 527.386 517.945ZM527.419 512.39C528.65 512.39 529.348 511.425 529.348 509.828C529.348 508.215 528.65 507.184 527.419 507.184C526.172 507.184 525.506 508.265 525.506 509.828C525.506 511.392 526.172 512.39 527.419 512.39Z" fill="#666666"/>
<path d="M515.61 509.147V514.369H513.148V505.338H515.493V506.918H515.593C516.009 505.87 516.973 505.221 518.304 505.221C520.184 505.221 521.431 506.502 521.414 508.614V514.369H518.969V509.047C518.969 507.932 518.354 507.267 517.339 507.267C516.308 507.267 515.61 507.949 515.61 509.147Z" fill="#666666"/>
<path d="M508.773 514.369V505.337H511.234V514.369H508.773ZM510.003 504.157C509.255 504.157 508.656 503.591 508.656 502.909C508.656 502.211 509.255 501.645 510.003 501.645C510.735 501.645 511.334 502.211 511.334 502.909C511.334 503.591 510.735 504.157 510.003 504.157Z" fill="#666666"/>
<path d="M507.226 505.338V507.184H505.53V511.591C505.53 512.307 505.879 512.49 506.378 512.506C506.628 512.506 507.06 512.49 507.359 512.456V514.402C507.093 514.452 506.661 514.486 506.045 514.486C504.266 514.486 503.052 513.687 503.068 511.941V507.184H501.821V505.338H503.068V503.175H505.53V505.338H507.226Z" fill="#666666"/>
<path d="M498.445 508.015C498.345 507.383 497.78 506.968 496.965 506.968C496.166 506.968 495.551 507.35 495.568 507.899C495.551 508.298 495.884 508.614 496.732 508.797L498.345 509.13C500.092 509.496 500.94 510.278 500.957 511.575C500.94 513.355 499.343 514.552 496.948 514.552C494.503 514.552 493.073 513.454 492.873 511.691H495.351C495.468 512.407 496.05 512.772 496.948 512.772C497.846 512.772 498.445 512.407 498.445 511.824C498.445 511.359 498.062 511.076 497.214 510.893L495.717 510.594C494.004 510.261 493.106 509.363 493.123 508.032C493.106 506.302 494.603 505.221 496.931 505.221C499.21 505.221 500.624 506.302 500.757 508.015H498.445Z" fill="#666666"/>
<path d="M487.6 514.552C484.839 514.552 483.142 512.756 483.142 509.895C483.142 507.101 484.855 505.221 487.5 505.221C489.878 505.221 491.741 506.718 491.741 509.795V510.494H485.57C485.57 511.858 486.385 512.706 487.65 512.706C488.481 512.706 489.08 512.34 489.329 511.791H491.675C491.325 513.454 489.828 514.552 487.6 514.552ZM485.57 508.947H489.413C489.413 507.849 488.648 507.067 487.55 507.067C486.419 507.067 485.612 507.907 485.57 508.947Z" fill="#666666"/>
<path d="M473.462 504.39V502.327H483.325V504.39H479.633V514.369H477.154V504.39H473.462Z" fill="#666666"/>
<path d="M545.499 486.118C545.399 485.485 544.834 485.07 544.019 485.07C543.221 485.07 542.605 485.452 542.622 486.001C542.605 486.4 542.938 486.716 543.786 486.899L545.399 487.232C547.146 487.598 547.994 488.38 548.011 489.677C547.994 491.457 546.397 492.654 544.002 492.654C541.557 492.654 540.127 491.556 539.927 489.793H542.406C542.522 490.509 543.104 490.874 544.002 490.874C544.9 490.874 545.499 490.509 545.499 489.926C545.499 489.461 545.117 489.178 544.268 488.995L542.771 488.696C541.058 488.363 540.16 487.465 540.177 486.134C540.16 484.404 541.657 483.323 543.986 483.323C546.264 483.323 547.678 484.404 547.811 486.118H545.499Z" fill="#666666"/>
<path d="M535.968 492.471V483.44H538.43V492.471H535.968ZM537.199 482.259C536.451 482.259 535.852 481.693 535.852 481.011C535.852 480.313 536.451 479.747 537.199 479.747C537.931 479.747 538.53 480.313 538.53 481.011C538.53 481.693 537.931 482.259 537.199 482.259Z" fill="#666666"/>
<path d="M531.943 486.118C531.843 485.485 531.278 485.07 530.463 485.07C529.664 485.07 529.049 485.452 529.066 486.001C529.049 486.4 529.382 486.716 530.23 486.899L531.843 487.232C533.59 487.598 534.438 488.38 534.455 489.677C534.438 491.457 532.841 492.654 530.446 492.654C528.001 492.654 526.571 491.556 526.371 489.793H528.849C528.966 490.509 529.548 490.874 530.446 490.874C531.344 490.874 531.943 490.509 531.943 489.926C531.943 489.461 531.56 489.178 530.712 488.995L529.215 488.696C527.502 488.363 526.604 487.465 526.621 486.134C526.604 484.404 528.101 483.323 530.429 483.323C532.708 483.323 534.122 484.404 534.255 486.118H531.943Z" fill="#666666"/>
<path d="M521.098 492.654C518.337 492.654 516.641 490.858 516.641 487.997C516.641 485.203 518.354 483.323 520.998 483.323C523.377 483.323 525.24 484.82 525.24 487.897V488.596H519.069C519.069 489.96 519.884 490.808 521.148 490.808C521.98 490.808 522.578 490.442 522.828 489.893H525.173C524.824 491.556 523.327 492.654 521.098 492.654ZM519.069 487.049H522.911C522.911 485.951 522.146 485.169 521.048 485.169C519.917 485.169 519.111 486.009 519.069 487.049Z" fill="#666666"/>
<path d="M509.256 487.249V492.471H506.794V480.429H509.19V485.02H509.289C509.705 483.972 510.62 483.323 511.984 483.323C513.863 483.323 515.111 484.587 515.111 486.716V492.471H512.649V487.149C512.649 486.034 512.05 485.369 511.019 485.369C509.988 485.369 509.256 486.051 509.256 487.249Z" fill="#666666"/>
<path d="M505.048 483.44V485.286H503.352V489.693C503.352 490.409 503.701 490.592 504.2 490.608C504.449 490.608 504.882 490.592 505.181 490.558V492.504C504.915 492.554 504.483 492.588 503.867 492.588C502.088 492.588 500.873 491.789 500.89 490.043V485.286H499.643V483.44H500.89V481.277H503.352V483.44H505.048Z" fill="#666666"/>
<path d="M494.303 492.654C491.575 492.654 489.879 490.775 489.879 487.98C489.879 485.186 491.575 483.323 494.303 483.323C497.031 483.323 498.744 485.186 498.744 487.98C498.744 490.775 497.031 492.654 494.303 492.654ZM494.32 490.741C495.584 490.741 496.233 489.56 496.233 487.98C496.233 486.384 495.584 485.203 494.32 485.203C493.039 485.203 492.374 486.384 492.374 487.98C492.374 489.56 493.039 490.741 494.32 490.741Z" fill="#666666"/>
<path d="M479.882 495.864V483.44H482.311V484.953H482.41C482.743 484.221 483.475 483.323 484.989 483.323C486.984 483.323 488.648 484.87 488.648 487.964C488.648 490.974 487.051 492.621 484.989 492.621C483.508 492.621 482.76 491.773 482.41 491.024H482.344V495.864H479.882ZM482.294 487.947C482.294 489.577 482.993 490.658 484.207 490.658C485.471 490.658 486.136 489.544 486.136 487.947C486.136 486.367 485.471 485.286 484.207 485.286C482.976 485.286 482.294 486.317 482.294 487.947Z" fill="#666666"/>
<path d="M471.749 495.864C471.266 495.864 470.817 495.847 470.501 495.814V493.901C470.817 493.918 471.183 493.935 471.499 493.935C471.982 493.935 472.381 493.885 472.68 493.103L472.83 492.72L469.586 483.439H472.164L474.061 490.093H474.16L476.073 483.439H478.684L475.158 493.469C474.643 494.916 473.661 495.864 471.749 495.864Z" fill="#666666"/>
<path d="M458.094 492.471V480.429H460.589V485.419H465.811V480.429H468.323V492.471H465.811V487.481H460.589V492.471H458.094Z" fill="#666666"/>
<path d="M511.032 356.825C511.032 377.194 507.02 397.364 499.225 416.183C491.429 435.002 480.004 452.102 465.601 466.505C451.197 480.909 434.098 492.334 415.279 500.129C396.46 507.924 376.29 511.936 355.92 511.936C335.551 511.936 315.381 507.924 296.562 500.129C277.743 492.334 260.643 480.909 246.24 466.505C231.836 452.102 220.411 435.002 212.616 416.183C204.821 397.364 200.809 377.194 200.809 356.825H294.496C294.496 364.891 296.085 372.878 299.172 380.331C302.258 387.783 306.783 394.554 312.487 400.258C318.19 405.962 324.962 410.486 332.414 413.573C339.866 416.66 347.854 418.249 355.92 418.249C363.986 418.249 371.974 416.66 379.426 413.573C386.878 410.486 393.65 405.962 399.354 400.258C405.057 394.554 409.582 387.783 412.669 380.331C415.756 372.878 417.344 364.891 417.344 356.825H511.032Z" fill="#0045FF"/>
<path d="M511.032 356.824C511.032 315.686 494.69 276.233 465.601 247.144C436.512 218.055 397.058 201.713 355.92 201.713C314.782 201.713 275.329 218.055 246.24 247.144C217.151 276.233 200.809 315.686 200.809 356.824L294.495 356.824C294.495 340.533 300.966 324.91 312.486 313.39C324.005 301.871 339.629 295.399 355.92 295.399C372.211 295.399 387.835 301.871 399.354 313.39C410.874 324.91 417.345 340.533 417.345 356.824H511.032Z" fill="#1E96FF"/>
<path d="M294.484 356.824C294.484 382.692 273.514 403.662 247.646 403.662C221.779 403.662 200.809 382.692 200.809 356.824C200.809 330.957 221.779 309.987 247.646 309.987C273.514 309.987 294.484 330.957 294.484 356.824Z" fill="#0045FF"/>
<path d="M511.032 356.824C511.032 382.692 490.062 403.662 464.195 403.662C438.327 403.662 417.357 382.692 417.357 356.824C417.357 330.957 438.327 309.987 464.195 309.987C490.062 309.987 511.032 330.957 511.032 356.824Z" fill="#1E96FF"/>
<path d="M381.263 264.92V267.293H379.082V272.96C379.082 273.88 379.531 274.115 380.172 274.137C380.493 274.137 381.049 274.115 381.434 274.072V276.574C381.092 276.639 380.536 276.681 379.745 276.681C377.457 276.681 375.895 275.655 375.917 273.409V267.293H374.313V264.92H375.917V262.14H379.082V264.92H381.263Z" fill="white"/>
<path d="M369.522 271.592V264.919H372.687V276.531H369.651V274.436H369.522C368.988 275.783 367.748 276.681 365.994 276.681C363.663 276.681 362.081 275.034 362.081 272.319V264.919H365.246V271.763C365.246 273.131 366.037 274.008 367.277 274.008C368.432 274.008 369.522 273.174 369.522 271.592Z" fill="white"/>
<path d="M348.758 280.894V264.92H351.88V266.866H352.008C352.436 265.925 353.377 264.77 355.323 264.77C357.889 264.77 360.028 266.759 360.028 270.736C360.028 274.607 357.975 276.724 355.323 276.724C353.42 276.724 352.457 275.634 352.008 274.671H351.923V280.894H348.758ZM351.859 270.715C351.859 272.811 352.757 274.201 354.318 274.201C355.943 274.201 356.799 272.768 356.799 270.715C356.799 268.683 355.943 267.293 354.318 267.293C352.735 267.293 351.859 268.619 351.859 270.715Z" fill="white"/>
<path d="M338.835 269.817V276.532H335.67V264.92H338.685V266.951H338.813C339.348 265.604 340.588 264.77 342.299 264.77C344.716 264.77 346.32 266.417 346.298 269.133V276.532H343.155V269.689C343.155 268.256 342.363 267.4 341.059 267.4C339.733 267.4 338.835 268.277 338.835 269.817Z" fill="white"/>
<path d="M333.125 261.049V276.532H329.917V261.049H333.125Z" fill="white"/>
<path d="M395.408 248.178C391.859 248.178 389.677 245.868 389.677 242.19C389.677 238.598 391.88 236.181 395.28 236.181C398.338 236.181 400.733 238.106 400.733 242.062V242.96H392.799C392.799 244.714 393.847 245.804 395.473 245.804C396.542 245.804 397.312 245.334 397.632 244.628H400.648C400.199 246.767 398.274 248.178 395.408 248.178ZM392.799 240.971H397.739C397.739 239.56 396.756 238.555 395.344 238.555C393.89 238.555 392.853 239.635 392.799 240.971Z" fill="white"/>
<path d="M388.994 236.331L384.909 247.943H381.36L377.296 236.331H380.632L383.07 244.671H383.199L385.636 236.331H388.994Z" fill="white"/>
<path d="M372.592 247.942V236.33H375.757V247.942H372.592ZM374.174 234.812C373.212 234.812 372.442 234.085 372.442 233.208C372.442 232.31 373.212 231.583 374.174 231.583C375.115 231.583 375.885 232.31 375.885 233.208C375.885 234.085 375.115 234.812 374.174 234.812Z" fill="white"/>
<path d="M370.602 236.33V238.704H368.421V244.371C368.421 245.291 368.87 245.526 369.512 245.547C369.833 245.547 370.389 245.526 370.774 245.483V247.985C370.431 248.049 369.875 248.092 369.084 248.092C366.796 248.092 365.235 247.066 365.256 244.82V238.704H363.652V236.33H365.256V233.55H368.421V236.33H370.602Z" fill="white"/>
<path d="M351.164 252.305V236.331H354.286V238.277H354.414C354.842 237.336 355.783 236.181 357.729 236.181C360.295 236.181 362.433 238.17 362.433 242.148C362.433 246.018 360.38 248.135 357.729 248.135C355.825 248.135 354.863 247.045 354.414 246.082H354.329V252.305H351.164ZM354.264 242.126C354.264 244.222 355.163 245.612 356.724 245.612C358.349 245.612 359.204 244.179 359.204 242.126C359.204 240.095 358.349 238.705 356.724 238.705C355.141 238.705 354.264 240.03 354.264 242.126Z" fill="white"/>
<path d="M338.397 244.692C338.397 242.105 340.493 241.249 342.717 241.121C343.551 241.068 345.112 240.993 345.604 240.971V240.03C345.582 239.068 344.919 238.491 343.743 238.491C342.674 238.491 341.99 238.983 341.819 239.774H338.803C338.996 237.764 340.749 236.181 343.829 236.181C346.352 236.181 348.747 237.315 348.747 240.116V247.943H345.753V246.339H345.668C345.09 247.408 344 248.157 342.268 248.157C340.044 248.157 338.397 247.002 338.397 244.692ZM341.434 244.607C341.434 245.505 342.161 245.975 343.166 245.975C344.599 245.975 345.625 245.013 345.604 243.794V242.939C345.123 242.96 343.775 243.035 343.23 243.088C342.139 243.195 341.434 243.709 341.434 244.607Z" fill="white"/>
<path d="M329.843 248.135C327.192 248.135 325.117 246.018 325.117 242.147C325.117 238.17 327.277 236.181 329.843 236.181C331.789 236.181 332.709 237.336 333.137 238.277H333.243V232.46H336.408V247.943H333.286V246.082H333.137C332.687 247.044 331.725 248.135 329.843 248.135ZM330.827 245.612C332.409 245.612 333.308 244.222 333.308 242.126C333.308 240.03 332.409 238.704 330.827 238.704C329.223 238.704 328.368 240.094 328.368 242.126C328.368 244.179 329.223 245.612 330.827 245.612Z" fill="white"/>
<path d="M313.035 247.943H309.57L314.938 232.46H319.065L324.411 247.943H320.968L319.814 244.371H314.211L313.035 247.943ZM315.023 241.869H319.001L317.055 235.946H316.948L315.023 241.869Z" fill="white"/>
<path d="M400.841 357.36V363.515H397.94V352.871H400.704V354.733H400.822C401.312 353.498 402.449 352.734 404.017 352.734C406.232 352.734 407.702 354.243 407.683 356.733V363.515H404.801V357.243C404.801 355.929 404.076 355.145 402.88 355.145C401.664 355.145 400.841 355.949 400.841 357.36Z" fill="white"/>
<path d="M390.882 363.731C387.667 363.731 385.668 361.516 385.668 358.223C385.668 354.929 387.667 352.734 390.882 352.734C394.097 352.734 396.116 354.929 396.116 358.223C396.116 361.516 394.097 363.731 390.882 363.731ZM390.902 361.477C392.392 361.477 393.156 360.085 393.156 358.223C393.156 356.341 392.392 354.949 390.902 354.949C389.392 354.949 388.608 356.341 388.608 358.223C388.608 360.085 389.392 361.477 390.902 361.477Z" fill="white"/>
<path d="M380.944 363.515V352.871H383.846V363.515H380.944ZM382.395 351.479C381.513 351.479 380.807 350.813 380.807 350.009C380.807 349.186 381.513 348.519 382.395 348.519C383.257 348.519 383.963 349.186 383.963 350.009C383.963 350.813 383.257 351.479 382.395 351.479Z" fill="white"/>
<path d="M379.12 352.871V355.047H377.12V360.242C377.12 361.085 377.532 361.3 378.12 361.32C378.414 361.32 378.924 361.3 379.277 361.261V363.555C378.963 363.613 378.453 363.653 377.728 363.653C375.631 363.653 374.2 362.712 374.219 360.653V355.047H372.749V352.871H374.219V350.323H377.12V352.871H379.12Z" fill="white"/>
<path d="M368.358 363.515V352.871H371.26V363.515H368.358ZM369.809 351.479C368.927 351.479 368.221 350.813 368.221 350.009C368.221 349.186 368.927 348.519 369.809 348.519C370.672 348.519 371.377 349.186 371.377 350.009C371.377 350.813 370.672 351.479 369.809 351.479Z" fill="white"/>
<path d="M363.614 356.027C363.497 355.282 362.83 354.792 361.87 354.792C360.929 354.792 360.203 355.243 360.223 355.89C360.203 356.36 360.595 356.733 361.595 356.948L363.497 357.341C365.555 357.772 366.555 358.693 366.574 360.222C366.555 362.32 364.673 363.731 361.85 363.731C358.968 363.731 357.283 362.437 357.047 360.359H359.968C360.105 361.202 360.791 361.634 361.85 361.634C362.909 361.634 363.614 361.202 363.614 360.516C363.614 359.967 363.163 359.634 362.164 359.418L360.399 359.066C358.38 358.674 357.322 357.615 357.341 356.047C357.322 354.008 359.086 352.734 361.83 352.734C364.516 352.734 366.182 354.008 366.339 356.027H363.614Z" fill="white"/>
<path d="M352.381 363.515V352.871H355.283V363.515H352.381ZM353.832 351.479C352.95 351.479 352.244 350.813 352.244 350.009C352.244 349.186 352.95 348.519 353.832 348.519C354.694 348.519 355.4 349.186 355.4 350.009C355.4 350.813 354.694 351.479 353.832 351.479Z" fill="white"/>
<path d="M347.226 358.987V352.871H350.127V363.515H347.344V361.594H347.226C346.736 362.829 345.599 363.652 343.992 363.652C341.855 363.652 340.404 362.143 340.404 359.653V352.871H343.306V359.143C343.306 360.398 344.031 361.202 345.168 361.202C346.226 361.202 347.226 360.437 347.226 358.987Z" fill="white"/>
<path d="M335.229 367.514V361.81H335.131C334.719 362.692 333.837 363.692 332.112 363.692C329.681 363.692 327.78 361.751 327.78 358.203C327.78 354.557 329.76 352.734 332.112 352.734C333.896 352.734 334.739 353.792 335.131 354.655H335.268V352.871H338.13V367.514H335.229ZM333.014 361.379C334.464 361.379 335.288 360.105 335.288 358.183C335.288 356.262 334.464 355.047 333.014 355.047C331.544 355.047 330.759 356.321 330.759 358.183C330.759 360.065 331.544 361.379 333.014 361.379Z" fill="white"/>
<path d="M321.664 363.731C318.41 363.731 316.45 361.477 316.45 358.223C316.45 354.969 318.43 352.734 321.664 352.734C324.408 352.734 326.271 354.341 326.388 356.772H323.664C323.487 355.714 322.801 354.988 321.703 354.988C320.311 354.988 319.39 356.164 319.39 358.183C319.39 360.242 320.292 361.418 321.703 361.418C322.723 361.418 323.487 360.791 323.664 359.654H326.388C326.251 362.065 324.487 363.731 321.664 363.731Z" fill="white"/>
<path d="M305.394 363.515H302.218L307.139 349.323H310.922L315.823 363.515H312.667L311.608 360.242H306.472L305.394 363.515ZM307.217 357.948H310.863L309.079 352.518H308.981L307.217 357.948Z" fill="white"/>
<path d="M391.858 469.301V471.675H389.677V477.342C389.677 478.261 390.126 478.497 390.767 478.518C391.088 478.518 391.644 478.497 392.029 478.454V480.956C391.687 481.02 391.131 481.063 390.339 481.063C388.051 481.063 386.49 480.036 386.512 477.791V471.675H384.908V469.301H386.512V466.521H389.677V469.301H391.858Z" fill="white"/>
<path d="M380.117 475.973V469.301H383.282V480.913H380.245V478.818H380.117C379.582 480.165 378.342 481.063 376.588 481.063C374.257 481.063 372.675 479.416 372.675 476.7V469.301H375.84V476.144C375.84 477.513 376.631 478.39 377.871 478.39C379.026 478.39 380.117 477.556 380.117 475.973Z" fill="white"/>
<path d="M359.353 485.276V469.301H362.475V471.247H362.603C363.031 470.306 363.972 469.151 365.918 469.151C368.484 469.151 370.622 471.14 370.622 475.118C370.622 478.988 368.569 481.106 365.918 481.106C364.014 481.106 363.052 480.015 362.603 479.053H362.517V485.276H359.353ZM362.453 475.096C362.453 477.192 363.352 478.582 364.913 478.582C366.538 478.582 367.393 477.149 367.393 475.096C367.393 473.065 366.538 471.675 364.913 471.675C363.33 471.675 362.453 473.001 362.453 475.096Z" fill="white"/>
<path d="M357.363 469.301V471.675H355.182V477.342C355.182 478.261 355.631 478.497 356.273 478.518C356.593 478.518 357.149 478.497 357.534 478.454V480.956C357.192 481.02 356.636 481.063 355.845 481.063C353.557 481.063 351.996 480.036 352.017 477.791V471.675H350.413V469.301H352.017V466.521H355.182V469.301H357.363Z" fill="white"/>
<path d="M345.623 475.973V469.301H348.788V480.913H345.751V478.818H345.623C345.088 480.165 343.848 481.063 342.095 481.063C339.764 481.063 338.181 479.416 338.181 476.7V469.301H341.346V476.144C341.346 477.513 342.137 478.39 343.378 478.39C344.532 478.39 345.623 477.556 345.623 475.973Z" fill="white"/>
<path d="M335.936 473.172C335.936 478.219 332.792 481.127 328.708 481.127C324.581 481.127 321.458 478.197 321.458 473.172C321.458 468.125 324.581 465.217 328.708 465.217C332.792 465.217 335.936 468.125 335.936 473.172ZM332.664 473.172C332.664 469.857 331.103 468.061 328.708 468.061C326.313 468.061 324.73 469.857 324.73 473.172C324.73 476.487 326.313 478.283 328.708 478.283C331.103 478.283 332.664 476.487 332.664 473.172Z" fill="white"/>
<path d="M404.603 452.516C401.951 452.516 399.877 450.399 399.877 446.529C399.877 442.551 402.037 440.562 404.603 440.562C406.549 440.562 407.469 441.717 407.896 442.658H408.003V436.841H411.168V452.324H408.046V450.463H407.896C407.447 451.426 406.485 452.516 404.603 452.516ZM405.587 449.993C407.169 449.993 408.067 448.603 408.067 446.507C408.067 444.412 407.169 443.086 405.587 443.086C403.983 443.086 403.127 444.476 403.127 446.507C403.127 448.56 403.983 449.993 405.587 449.993Z" fill="white"/>
<path d="M393.012 452.559C389.463 452.559 387.281 450.25 387.281 446.572C387.281 442.979 389.484 440.562 392.884 440.562C395.942 440.562 398.337 442.487 398.337 446.443V447.342H390.403C390.403 449.095 391.451 450.186 393.077 450.186C394.146 450.186 394.916 449.715 395.236 449.01H398.252C397.803 451.148 395.878 452.559 393.012 452.559ZM390.403 445.353H395.343C395.343 443.941 394.36 442.936 392.948 442.936C391.494 442.936 390.457 444.016 390.403 445.353Z" fill="white"/>
<path d="M378.642 452.516C375.99 452.516 373.916 450.399 373.916 446.529C373.916 442.551 376.076 440.562 378.642 440.562C380.588 440.562 381.508 441.717 381.935 442.658H382.042V436.841H385.207V452.324H382.085V450.463H381.935C381.486 451.426 380.524 452.516 378.642 452.516ZM379.626 449.993C381.208 449.993 382.106 448.603 382.106 446.507C382.106 444.412 381.208 443.086 379.626 443.086C378.022 443.086 377.167 444.476 377.167 446.507C377.167 448.56 378.022 449.993 379.626 449.993Z" fill="white"/>
<path d="M371.906 436.841V452.324H368.741V436.841H371.906Z" fill="white"/>
<path d="M361.041 452.559C357.534 452.559 355.353 450.143 355.353 446.55C355.353 442.958 357.534 440.562 361.041 440.562C364.549 440.562 366.751 442.958 366.751 446.55C366.751 450.143 364.549 452.559 361.041 452.559ZM361.063 450.1C362.688 450.1 363.522 448.582 363.522 446.55C363.522 444.497 362.688 442.979 361.063 442.979C359.416 442.979 358.561 444.497 358.561 446.55C358.561 448.582 359.416 450.1 361.063 450.1Z" fill="white"/>
<path d="M354.391 440.712V443.086H352.082V452.324H348.917V443.086H347.27V440.712H348.917V439.835C348.917 437.397 350.392 436.114 352.723 436.114C353.45 436.114 354.049 436.178 354.605 436.307V438.702C354.156 438.659 353.814 438.638 353.643 438.638C352.616 438.638 352.082 439.044 352.082 440.006V440.712H354.391Z" fill="white"/>
<path d="M346.35 440.712V443.086H344.041V452.324H340.876V443.086H339.229V440.712H340.876V439.835C340.876 437.397 342.351 436.114 344.682 436.114C345.409 436.114 346.008 436.178 346.564 436.307V438.702C346.115 438.659 345.773 438.638 345.602 438.638C344.575 438.638 344.041 439.044 344.041 440.006V440.712H346.35Z" fill="white"/>
<path d="M327.403 449.074C327.403 446.486 329.499 445.631 331.723 445.502C332.557 445.449 334.118 445.374 334.61 445.353V444.412C334.588 443.449 333.925 442.872 332.749 442.872C331.68 442.872 330.995 443.364 330.824 444.155H327.809C328.002 442.145 329.755 440.562 332.835 440.562C335.358 440.562 337.753 441.696 337.753 444.497V452.324H334.759V450.72H334.674C334.096 451.79 333.006 452.538 331.273 452.538C329.049 452.538 327.403 451.383 327.403 449.074ZM330.439 448.988C330.439 449.886 331.167 450.357 332.172 450.357C333.604 450.357 334.631 449.394 334.61 448.176V447.32C334.128 447.342 332.781 447.416 332.236 447.47C331.145 447.577 330.439 448.09 330.439 448.988Z" fill="white"/>
<path d="M320.839 452.559C317.289 452.559 315.15 450.1 315.15 446.55C315.15 443 317.31 440.562 320.839 440.562C323.833 440.562 325.864 442.316 325.993 444.968H323.02C322.828 443.813 322.079 443.022 320.882 443.022C319.363 443.022 318.358 444.305 318.358 446.507C318.358 448.753 319.342 450.036 320.882 450.036C321.994 450.036 322.828 449.352 323.02 448.111H325.993C325.843 450.742 323.918 452.559 320.839 452.559Z" fill="white"/>
<path d="M310.295 441.268C310.167 440.049 309.183 439.322 307.622 439.322C305.997 439.322 305.099 440.07 305.078 441.097C305.056 442.209 306.232 442.722 307.558 443.022L308.948 443.364C311.6 443.962 313.589 445.31 313.589 447.897C313.589 450.741 311.365 452.538 307.601 452.538C303.859 452.538 301.463 450.806 301.378 447.491H304.5C304.607 449.052 305.847 449.843 307.558 449.843C309.248 449.843 310.338 449.052 310.338 447.897C310.338 446.849 309.376 446.358 307.686 445.93L305.997 445.524C303.388 444.882 301.784 443.578 301.784 441.311C301.784 438.488 304.265 436.627 307.644 436.627C311.065 436.627 313.332 438.531 313.375 441.268H310.295Z" fill="white"/>
<path d="M664.095 534.727C632.864 588.823 587.943 633.744 533.847 664.975C479.752 696.207 418.389 712.649 355.925 712.649C293.462 712.649 232.099 696.207 178.003 664.975C123.908 633.744 78.9872 588.823 47.7554 534.727L141.605 480.543C163.325 518.165 194.566 549.405 232.187 571.126C269.808 592.847 312.484 604.282 355.925 604.282C399.367 604.282 442.042 592.847 479.663 571.126C517.285 549.405 548.525 518.165 570.246 480.543L664.095 534.727Z" fill="#3232E0"/>
<path fill-rule="evenodd" clip-rule="evenodd" d="M47.4335 534.169C16.4104 480.21 0.0810521 419.054 0.0810547 356.805C0.0810518 294.341 16.5233 232.978 47.7551 178.883C78.987 124.788 123.908 79.8668 178.003 48.635C232.098 17.4032 293.462 0.960937 355.925 0.960938V109.534C312.52 109.534 269.879 120.959 232.289 142.662C194.699 164.364 163.484 195.579 141.782 233.169C120.079 270.759 108.654 313.4 108.654 356.805C108.654 400.143 120.044 442.719 141.682 480.267C153.034 496.996 154.58 519.414 143.793 538.097C128.76 564.136 95.464 573.058 69.4252 558.024C59.4596 552.271 52.0012 543.842 47.4335 534.169Z" fill="#3182F6"/>
<path fill-rule="evenodd" clip-rule="evenodd" d="M360.101 109.594C349.663 110.319 338.904 108.047 329.161 102.422C303.123 87.3888 294.201 54.0931 309.234 28.0543C320.323 8.84848 341.347 -1.04502 362.066 1.11768C422.415 2.15425 481.546 18.5268 533.875 48.7393C587.97 79.9711 632.891 124.892 664.123 178.987C695.355 233.082 711.797 294.446 711.797 356.909C711.797 419.373 695.355 480.736 664.123 534.831L570.164 480.584C591.874 442.982 603.303 400.328 603.303 356.909C603.303 313.49 591.874 270.836 570.164 233.234C548.455 195.633 517.23 164.408 479.628 142.698C443.224 121.68 402.085 110.298 360.101 109.594Z" fill="#275EF2"/>
<path d="M664.482 534.448C649.448 560.487 616.153 569.409 590.114 554.375C564.075 539.342 555.154 506.046 570.187 480.007C585.221 453.968 618.516 445.047 644.555 460.08C670.594 475.114 679.515 508.41 664.482 534.448Z" fill="#3232E0"/>
<path d="M402.002 51.5972V53.3115H400.427V57.4043C400.427 58.0685 400.751 58.2383 401.214 58.2538C401.446 58.2538 401.847 58.2383 402.125 58.2075V60.0145C401.878 60.0608 401.477 60.0917 400.905 60.0917C399.253 60.0917 398.125 59.3504 398.141 57.7287V53.3115H396.982V51.5972H398.141V49.5894H400.427V51.5972H402.002Z" fill="white"/>
<path d="M390.419 55.1342V59.9838H388.133V51.5974H390.311V53.0646H390.404C390.79 52.0916 391.686 51.4893 392.921 51.4893C394.666 51.4893 395.825 52.6785 395.809 54.64V59.9838H393.539V55.0415C393.539 54.0067 392.967 53.3889 392.025 53.3889C391.068 53.3889 390.419 54.0222 390.419 55.1342Z" fill="white"/>
<path d="M382.851 60.1537C380.287 60.1537 378.711 58.4857 378.711 55.8292C378.711 53.2345 380.302 51.4893 382.758 51.4893C384.966 51.4893 386.696 52.8793 386.696 55.7365V56.3852H380.966C380.966 57.6517 381.723 58.4393 382.897 58.4393C383.669 58.4393 384.225 58.0996 384.457 57.5899H386.635C386.31 59.1343 384.92 60.1537 382.851 60.1537ZM380.966 54.9489H384.534C384.534 53.9295 383.824 53.2036 382.804 53.2036C381.754 53.2036 381.005 53.9836 380.966 54.9489Z" fill="white"/>
<path d="M365.151 59.9838V51.5974H367.329V53.0646H367.422C367.777 52.0916 368.626 51.4893 369.754 51.4893C370.912 51.4893 371.762 52.0916 372.04 53.0646H372.117C372.472 52.107 373.414 51.4893 374.65 51.4893C376.21 51.4893 377.291 52.524 377.291 54.3465V59.9838H375.005V54.7944C375.005 53.8368 374.449 53.3735 373.692 53.3735C372.827 53.3735 372.333 53.9758 372.333 54.8562V59.9838H370.109V54.7326C370.109 53.8986 369.584 53.3735 368.812 53.3735C368.04 53.3735 367.437 53.9913 367.437 54.9489V59.9838H365.151Z" fill="white"/>
<path d="M361.413 54.084C361.321 53.4971 360.795 53.1109 360.039 53.1109C359.297 53.1109 358.726 53.4662 358.741 53.9758C358.726 54.3465 359.035 54.64 359.822 54.8099L361.321 55.1187C362.942 55.4585 363.73 56.1844 363.745 57.3891C363.73 59.0417 362.247 60.1537 360.023 60.1537C357.753 60.1537 356.425 59.1343 356.239 57.4972H358.541C358.649 58.1613 359.189 58.5011 360.023 58.5011C360.857 58.5011 361.413 58.1613 361.413 57.6208C361.413 57.1883 361.058 56.9258 360.27 56.7559L358.88 56.4779C357.289 56.169 356.455 55.335 356.471 54.0994C356.455 52.4932 357.845 51.4893 360.008 51.4893C362.124 51.4893 363.436 52.4932 363.56 54.084H361.413Z" fill="white"/>
<path d="M352.888 54.084C352.795 53.4971 352.27 53.1109 351.513 53.1109C350.772 53.1109 350.2 53.4662 350.216 53.9758C350.2 54.3465 350.509 54.64 351.297 54.8099L352.795 55.1187C354.417 55.4585 355.205 56.1844 355.22 57.3891C355.205 59.0417 353.722 60.1537 351.498 60.1537C349.227 60.1537 347.899 59.1343 347.714 57.4972H350.015C350.123 58.1613 350.664 58.5011 351.498 58.5011C352.332 58.5011 352.888 58.1613 352.888 57.6208C352.888 57.1883 352.533 56.9258 351.745 56.7559L350.355 56.4779C348.764 56.169 347.93 55.335 347.946 54.0994C347.93 52.4932 349.32 51.4893 351.482 51.4893C353.598 51.4893 354.911 52.4932 355.035 54.084H352.888Z" fill="white"/>
<path d="M342.818 60.1537C340.254 60.1537 338.679 58.4857 338.679 55.8292C338.679 53.2345 340.27 51.4893 342.725 51.4893C344.934 51.4893 346.664 52.8793 346.664 55.7365V56.3852H340.934C340.934 57.6517 341.69 58.4393 342.864 58.4393C343.636 58.4393 344.192 58.0996 344.424 57.5899H346.602C346.277 59.1343 344.887 60.1537 342.818 60.1537ZM340.934 54.9489H344.501C344.501 53.9295 343.791 53.2036 342.772 53.2036C341.721 53.2036 340.972 53.9836 340.934 54.9489Z" fill="white"/>
<path d="M335.281 54.084C335.189 53.4971 334.664 53.1109 333.907 53.1109C333.165 53.1109 332.594 53.4662 332.609 53.9758C332.594 54.3465 332.903 54.64 333.691 54.8099L335.189 55.1187C336.81 55.4585 337.598 56.1844 337.614 57.3891C337.598 59.0417 336.115 60.1537 333.891 60.1537C331.621 60.1537 330.293 59.1343 330.107 57.4972H332.409C332.517 58.1613 333.057 58.5011 333.891 58.5011C334.725 58.5011 335.281 58.1613 335.281 57.6208C335.281 57.1883 334.926 56.9258 334.138 56.7559L332.748 56.4779C331.158 56.169 330.324 55.335 330.339 54.0994C330.324 52.4932 331.714 51.4893 333.876 51.4893C335.992 51.4893 337.305 52.4932 337.428 54.084H335.281Z" fill="white"/>
<path d="M326.756 54.084C326.663 53.4971 326.138 53.1109 325.381 53.1109C324.64 53.1109 324.069 53.4662 324.084 53.9758C324.069 54.3465 324.378 54.64 325.165 54.8099L326.663 55.1187C328.285 55.4585 329.073 56.1844 329.088 57.3891C329.073 59.0417 327.59 60.1537 325.366 60.1537C323.096 60.1537 321.767 59.1343 321.582 57.4972H323.883C323.991 58.1613 324.532 58.5011 325.366 58.5011C326.2 58.5011 326.756 58.1613 326.756 57.6208C326.756 57.1883 326.401 56.9258 325.613 56.7559L324.223 56.4779C322.632 56.169 321.798 55.335 321.814 54.0994C321.798 52.4932 323.188 51.4893 325.351 51.4893C327.466 51.4893 328.779 52.4932 328.903 54.084H326.756Z" fill="white"/>
<path d="M312.717 59.9837H310.215L314.091 48.8018H317.072L320.933 59.9837H318.447L317.613 57.4044H313.566L312.717 59.9837ZM314.153 55.5974H317.026L315.62 51.3192H315.543L314.153 55.5974Z" fill="white"/>
<path d="M648.893 508.911V513.761H646.607V505.374H648.785V506.841H648.878C649.264 505.868 650.16 505.266 651.395 505.266C653.14 505.266 654.299 506.455 654.283 508.417V513.761H652.013V508.818C652.013 507.784 651.442 507.166 650.499 507.166C649.542 507.166 648.893 507.799 648.893 508.911Z" fill="white"/>
<path d="M641.047 513.931C638.514 513.931 636.938 512.185 636.938 509.591C636.938 506.996 638.514 505.266 641.047 505.266C643.58 505.266 645.17 506.996 645.17 509.591C645.17 512.185 643.58 513.931 641.047 513.931ZM641.062 512.154C642.236 512.154 642.838 511.058 642.838 509.591C642.838 508.108 642.236 507.011 641.062 507.011C639.873 507.011 639.255 508.108 639.255 509.591C639.255 511.058 639.873 512.154 641.062 512.154Z" fill="white"/>
<path d="M633.217 513.76V505.374H635.502V513.76H633.217ZM634.359 504.277C633.664 504.277 633.108 503.752 633.108 503.119C633.108 502.47 633.664 501.945 634.359 501.945C635.039 501.945 635.595 502.47 635.595 503.119C635.595 503.752 635.039 504.277 634.359 504.277Z" fill="white"/>
<path d="M631.78 505.374V507.088H630.204V511.181C630.204 511.845 630.529 512.015 630.992 512.031C631.224 512.031 631.625 512.015 631.903 511.984V513.791C631.656 513.838 631.255 513.869 630.683 513.869C629.031 513.869 627.903 513.127 627.919 511.506V507.088H626.76V505.374H627.919V503.366H630.204V505.374H631.78Z" fill="white"/>
<path d="M618.142 511.413C618.142 509.544 619.656 508.926 621.262 508.834C621.864 508.795 622.992 508.741 623.347 508.726V508.046C623.331 507.351 622.853 506.934 622.003 506.934C621.231 506.934 620.737 507.289 620.613 507.861H618.436C618.575 506.409 619.841 505.266 622.065 505.266C623.887 505.266 625.617 506.085 625.617 508.108V513.761H623.455V512.602H623.393C622.976 513.375 622.189 513.915 620.938 513.915C619.331 513.915 618.142 513.081 618.142 511.413ZM620.335 511.351C620.335 512 620.86 512.34 621.586 512.34C622.621 512.34 623.362 511.645 623.347 510.764V510.147C622.999 510.162 622.026 510.216 621.633 510.255C620.845 510.332 620.335 510.703 620.335 511.351Z" fill="white"/>
<path d="M617.664 505.374L614.714 513.76H612.15L609.215 505.374H611.625L613.385 511.397H613.478L615.239 505.374H617.664Z" fill="white"/>
<path d="M605.818 513.76V505.374H608.104V513.76H605.818ZM606.961 504.277C606.266 504.277 605.71 503.752 605.71 503.119C605.71 502.47 606.266 501.945 606.961 501.945C607.641 501.945 608.197 502.47 608.197 503.119C608.197 503.752 607.641 504.277 606.961 504.277Z" fill="white"/>
<path d="M604.381 505.374V507.088H602.806V511.181C602.806 511.845 603.13 512.015 603.594 512.031C603.825 512.031 604.227 512.015 604.505 511.984V513.791C604.258 513.838 603.856 513.869 603.285 513.869C601.632 513.869 600.505 513.127 600.52 511.506V507.088H599.362V505.374H600.52V503.366H602.806V505.374H604.381Z" fill="white"/>
<path d="M594.821 513.931C592.257 513.931 590.712 512.154 590.712 509.591C590.712 507.027 592.272 505.266 594.821 505.266C596.983 505.266 598.45 506.533 598.543 508.448H596.396C596.257 507.614 595.716 507.042 594.852 507.042C593.755 507.042 593.029 507.969 593.029 509.56C593.029 511.181 593.74 512.108 594.852 512.108C595.655 512.108 596.257 511.614 596.396 510.718H598.543C598.435 512.618 597.045 513.931 594.821 513.931Z" fill="white"/>
<path d="M582.002 513.761H579.5L583.377 502.579H586.357L590.219 513.761H587.732L586.898 511.181H582.851L582.002 513.761ZM583.438 509.374H586.311L584.906 505.096H584.828L583.438 509.374Z" fill="white"/>
<path d="M121.715 511.511C121.622 510.924 121.097 510.538 120.34 510.538C119.599 510.538 119.028 510.893 119.043 511.403C119.028 511.773 119.336 512.067 120.124 512.237L121.622 512.546C123.244 512.885 124.032 513.611 124.047 514.816C124.032 516.468 122.549 517.58 120.325 517.58C118.055 517.58 116.726 516.561 116.541 514.924H118.842C118.95 515.588 119.491 515.928 120.325 515.928C121.159 515.928 121.715 515.588 121.715 515.048C121.715 514.615 121.36 514.353 120.572 514.183L119.182 513.905C117.591 513.596 116.757 512.762 116.773 511.526C116.757 509.92 118.147 508.916 120.31 508.916C122.425 508.916 123.738 509.92 123.862 511.511H121.715Z" fill="white"/>
<path d="M113.19 511.511C113.097 510.924 112.572 510.538 111.815 510.538C111.074 510.538 110.502 510.893 110.518 511.403C110.502 511.773 110.811 512.067 111.599 512.237L113.097 512.546C114.719 512.885 115.506 513.611 115.522 514.816C115.506 516.468 114.024 517.58 111.8 517.58C109.529 517.58 108.201 516.561 108.016 514.924H110.317C110.425 515.588 110.966 515.928 111.8 515.928C112.634 515.928 113.19 515.588 113.19 515.048C113.19 514.615 112.834 514.353 112.047 514.183L110.657 513.905C109.066 513.596 108.232 512.762 108.247 511.526C108.232 509.92 109.622 508.916 111.784 508.916C113.9 508.916 115.213 509.92 115.336 511.511H113.19Z" fill="white"/>
<path d="M103.12 517.58C100.556 517.58 98.9805 515.912 98.9805 513.256C98.9805 510.661 100.571 508.916 103.027 508.916C105.236 508.916 106.965 510.306 106.965 513.163V513.812H101.235C101.235 515.078 101.992 515.866 103.166 515.866C103.938 515.866 104.494 515.526 104.726 515.017H106.904C106.579 516.561 105.189 517.58 103.12 517.58ZM101.235 512.376H104.803C104.803 511.356 104.093 510.63 103.073 510.63C102.023 510.63 101.274 511.41 101.235 512.376Z" fill="white"/>
<path d="M94.1776 517.58C91.6138 517.58 90.0693 515.804 90.0693 513.241C90.0693 510.677 91.6292 508.916 94.1776 508.916C96.3399 508.916 97.8071 510.182 97.8998 512.098H95.753C95.614 511.264 95.0734 510.692 94.2085 510.692C93.1119 510.692 92.386 511.619 92.386 513.21C92.386 514.831 93.0965 515.758 94.2085 515.758C95.0116 515.758 95.614 515.264 95.753 514.368H97.8998C97.7916 516.268 96.4016 517.58 94.1776 517.58Z" fill="white"/>
<path d="M85.2655 517.58C82.7017 517.58 81.1572 515.804 81.1572 513.241C81.1572 510.677 82.7171 508.916 85.2655 508.916C87.4277 508.916 88.895 510.182 88.9877 512.098H86.8408C86.7018 511.264 86.1613 510.692 85.2964 510.692C84.1998 510.692 83.4739 511.619 83.4739 513.21C83.4739 514.831 84.1844 515.758 85.2964 515.758C86.0995 515.758 86.7018 515.264 86.8408 514.368H88.9877C88.8795 516.268 87.4895 517.58 85.2655 517.58Z" fill="white"/>
<path d="M72.4473 517.41H69.9453L73.8219 506.229H76.8027L80.6639 517.41H78.1773L77.3433 514.831H73.2968L72.4473 517.41ZM73.8837 513.024H76.7564L75.3509 508.746H75.2737L73.8837 513.024Z" fill="white"/>
<defs>
<linearGradient id="paint0_linear_460_1127" x1="294.373" y1="356.825" x2="465.386" y2="356.825" gradientUnits="userSpaceOnUse">
<stop stop-color="#3182F6"/>
<stop offset="1" stop-color="#A009FF"/>
</linearGradient>
</defs>
</svg>
