<svg width="712" height="712" viewBox="0 0 712 712" fill="none" xmlns="http://www.w3.org/2000/svg">
<path d="M603.409 356C603.409 388.511 597.005 420.704 584.564 450.741C572.122 480.778 553.886 508.07 530.897 531.059C507.908 554.048 480.616 572.283 450.58 584.725C420.543 597.167 388.35 603.57 355.839 603.57L355.839 356H603.409Z" fill="#C3E1FD"/>
<path fill-rule="evenodd" clip-rule="evenodd" d="M584.002 450.508C596.335 420.733 602.721 388.833 602.8 356.608H356.447L356.447 602.961C388.672 602.882 420.572 596.496 450.347 584.163C480.31 571.752 507.535 553.561 530.467 530.628C553.4 507.696 571.591 480.471 584.002 450.508ZM356.447 603.569C356.244 603.57 356.042 603.57 355.839 603.57L355.839 356H603.409C603.409 356.203 603.409 356.406 603.408 356.608C603.329 388.913 596.928 420.892 584.564 450.741C572.122 480.778 553.886 508.07 530.897 531.059C507.908 554.048 480.616 572.283 450.58 584.725C420.731 597.089 388.752 603.49 356.447 603.569Z" fill="#3182F6"/>
<path d="M355.839 108.43C388.35 108.43 420.543 114.833 450.58 127.275C480.616 139.717 507.908 157.952 530.897 180.941C553.886 203.93 572.122 231.222 584.564 261.259C597.005 291.296 603.409 323.489 603.409 356L355.839 356L355.839 108.43Z" fill="#97CAFE"/>
<path fill-rule="evenodd" clip-rule="evenodd" d="M450.347 127.837C420.572 115.504 388.672 109.118 356.447 109.039L356.447 355.392L602.8 355.392C602.721 323.167 596.335 291.267 584.002 261.492C571.591 231.529 553.4 204.304 530.467 181.372C507.535 158.439 480.31 140.248 450.347 127.837ZM603.408 355.392C603.409 355.594 603.409 355.797 603.409 356L355.839 356L355.839 108.43C356.042 108.43 356.244 108.43 356.447 108.431C388.752 108.51 420.731 114.911 450.58 127.275C480.616 139.717 507.908 157.952 530.897 180.941C553.886 203.93 572.122 231.222 584.564 261.259C596.928 291.108 603.329 323.087 603.408 355.392Z" fill="#3182F6"/>
<path d="M108.269 356C108.269 388.511 114.672 420.704 127.114 450.741C139.555 480.778 157.791 508.07 180.78 531.059C203.769 554.048 231.061 572.283 261.098 584.725C291.134 597.167 323.327 603.57 355.839 603.57L355.839 356L108.269 356Z" fill="#C3E1FD"/>
<path fill-rule="evenodd" clip-rule="evenodd" d="M127.676 450.508C115.342 420.733 108.957 388.833 108.878 356.608L355.231 356.608L355.231 602.961C323.006 602.882 291.106 596.496 261.331 584.163C231.368 571.752 204.143 553.561 181.21 530.628C158.278 507.696 140.087 480.471 127.676 450.508ZM355.231 603.569C355.433 603.57 355.636 603.57 355.839 603.57L355.839 356L108.269 356C108.269 356.203 108.269 356.406 108.269 356.608C108.349 388.913 114.75 420.892 127.114 450.741C139.555 480.778 157.791 508.07 180.78 531.059C203.769 554.048 231.061 572.283 261.098 584.725C290.947 597.089 322.926 603.49 355.231 603.569Z" fill="#3182F6"/>
<path d="M355.839 108.43C323.328 108.43 291.135 114.833 261.098 127.275C231.061 139.717 203.769 157.952 180.78 180.941C157.791 203.93 139.555 231.222 127.114 261.259C114.672 291.296 108.269 323.489 108.269 356L355.839 356L355.839 108.43Z" fill="#97CAFE"/>
<path fill-rule="evenodd" clip-rule="evenodd" d="M261.331 127.837C291.106 115.504 323.006 109.118 355.231 109.039L355.231 355.392L108.878 355.392C108.957 323.167 115.342 291.267 127.676 261.492C140.087 231.529 158.278 204.304 181.21 181.372C204.143 158.439 231.368 140.248 261.331 127.837ZM108.269 355.392C108.269 355.594 108.269 355.797 108.269 356L355.839 356L355.839 108.43C355.636 108.43 355.433 108.43 355.231 108.431C322.926 108.51 290.947 114.911 261.098 127.275C231.061 139.717 203.769 157.952 180.78 180.941C157.791 203.93 139.555 231.222 127.114 261.259C114.75 291.108 108.349 323.087 108.269 355.392Z" fill="#3182F6"/>
<path d="M417.276 356C417.276 389.93 389.77 417.436 355.839 417.436C321.909 417.436 294.403 389.93 294.403 356C294.403 322.069 321.909 294.563 355.839 294.563C389.77 294.563 417.276 322.069 417.276 356Z" fill="url(#paint0_linear_469_1720)"/>
<path d="M224.304 227.869V215H229.352C232.285 215 233.956 216.653 233.956 219.195C233.956 220.955 233.147 222.234 231.68 222.857L234.418 227.869H231.467L229.014 223.301H226.97V227.869H224.304ZM226.97 221.132H228.854C230.436 221.132 231.2 220.475 231.2 219.195C231.2 217.897 230.436 217.186 228.854 217.186H226.97V221.132Z" fill="#666666"/>
<path d="M213.496 215L216.624 224.812H216.749L219.895 215H222.846L218.402 227.869H214.971L210.51 215H213.496Z" fill="#666666"/>
<path d="M201 227.869V215H209.479V217.204H203.666V220.333H208.928V222.537H203.666V227.869H201Z" fill="#666666"/>
<path d="M244.354 507.419V513H241.724V503.348H244.23V505.037H244.337C244.781 503.917 245.812 503.224 247.234 503.224C249.243 503.224 250.576 504.593 250.558 506.85V513H247.945V507.312C247.945 506.121 247.287 505.41 246.203 505.41C245.101 505.41 244.354 506.139 244.354 507.419Z" fill="#666666"/>
<path d="M235.324 513.196C232.409 513.196 230.596 511.187 230.596 508.201C230.596 505.215 232.409 503.224 235.324 503.224C238.239 503.224 240.07 505.215 240.07 508.201C240.07 511.187 238.239 513.196 235.324 513.196ZM235.342 511.152C236.693 511.152 237.386 509.89 237.386 508.201C237.386 506.494 236.693 505.232 235.342 505.232C233.973 505.232 233.262 506.494 233.262 508.201C233.262 509.89 233.973 511.152 235.342 511.152Z" fill="#666666"/>
<path d="M226.312 513V503.348H228.943V513H226.312ZM227.628 502.086C226.828 502.086 226.188 501.482 226.188 500.753C226.188 500.006 226.828 499.402 227.628 499.402C228.41 499.402 229.05 500.006 229.05 500.753C229.05 501.482 228.41 502.086 227.628 502.086Z" fill="#666666"/>
<path d="M224.66 503.348V505.321H222.847V510.032C222.847 510.796 223.22 510.991 223.753 511.009C224.02 511.009 224.482 510.991 224.802 510.956V513.036C224.518 513.089 224.055 513.124 223.398 513.124C221.496 513.124 220.198 512.271 220.216 510.405V505.321H218.883V503.348H220.216V501.037H222.847V503.348H224.66Z" fill="#666666"/>
<path d="M213.657 513.196C210.706 513.196 208.929 511.152 208.929 508.201C208.929 505.25 210.724 503.224 213.657 503.224C216.145 503.224 217.834 504.681 217.941 506.886H215.47C215.31 505.926 214.688 505.268 213.692 505.268C212.43 505.268 211.595 506.335 211.595 508.165C211.595 510.032 212.413 511.098 213.692 511.098C214.617 511.098 215.31 510.529 215.47 509.498H217.941C217.816 511.685 216.217 513.196 213.657 513.196Z" fill="#666666"/>
<path d="M201.072 507.419V513H198.441V503.348H200.948V505.037H201.054C201.499 503.917 202.53 503.224 203.952 503.224C205.96 503.224 207.293 504.593 207.276 506.85V513H204.663V507.312C204.663 506.121 204.005 505.41 202.921 505.41C201.819 505.41 201.072 506.139 201.072 507.419Z" fill="#666666"/>
<path d="M193.766 508.894V503.348H196.397V513H193.872V511.258H193.766C193.321 512.378 192.29 513.124 190.833 513.124C188.895 513.124 187.58 511.756 187.58 509.498V503.348H190.211V509.036C190.211 510.174 190.868 510.903 191.899 510.903C192.859 510.903 193.766 510.209 193.766 508.894Z" fill="#666666"/>
<path d="M178 513V500.131H186.479V502.335H180.666V505.463H185.928V507.668H180.666V513H178Z" fill="#666666"/>
<path d="M244.505 493.419C241.839 493.419 240.203 492.229 240.043 490.398H242.638C242.781 491.162 243.509 491.518 244.558 491.518C245.785 491.518 246.602 491.002 246.602 489.651V487.891H246.478C246.122 488.674 245.269 489.456 243.723 489.456C241.536 489.456 239.794 487.927 239.794 484.71C239.794 481.439 241.59 479.822 243.723 479.822C245.34 479.822 246.122 480.781 246.478 481.563H246.585V479.946H249.197V489.704C249.197 492.157 247.242 493.419 244.505 493.419ZM244.54 487.483C245.856 487.483 246.602 486.452 246.602 484.745C246.602 483.021 245.856 481.919 244.54 481.919C243.207 481.919 242.496 483.074 242.496 484.745C242.496 486.416 243.207 487.483 244.54 487.483Z" fill="#666666"/>
<path d="M231.92 484.016V489.598H229.29V479.946H231.796V481.635H231.902C232.347 480.515 233.378 479.822 234.8 479.822C236.808 479.822 238.142 481.19 238.124 483.448V489.598H235.511V483.91C235.511 482.719 234.853 482.008 233.769 482.008C232.667 482.008 231.92 482.737 231.92 484.016Z" fill="#666666"/>
<path d="M224.615 489.598V479.946H227.245V489.598H224.615ZM225.93 478.684C225.13 478.684 224.49 478.08 224.49 477.351C224.49 476.604 225.13 476 225.93 476C226.712 476 227.352 476.604 227.352 477.351C227.352 478.08 226.712 478.684 225.93 478.684Z" fill="#666666"/>
<path d="M218.696 489.793C215.745 489.793 213.968 487.749 213.968 484.799C213.968 481.848 215.763 479.822 218.696 479.822C221.184 479.822 222.873 481.279 222.98 483.483H220.509C220.349 482.523 219.727 481.866 218.732 481.866C217.469 481.866 216.634 482.932 216.634 484.763C216.634 486.629 217.452 487.696 218.732 487.696C219.656 487.696 220.349 487.127 220.509 486.096H222.98C222.855 488.282 221.256 489.793 218.696 489.793Z" fill="#666666"/>
<path d="M209.684 489.598V479.946H212.315V489.598H209.684ZM211 478.684C210.2 478.684 209.56 478.08 209.56 477.351C209.56 476.604 210.2 476 211 476C211.782 476 212.422 476.604 212.422 477.351C212.422 478.08 211.782 478.684 211 478.684Z" fill="#666666"/>
<path d="M208.03 479.946V481.919H206.217V486.629C206.217 487.394 206.591 487.589 207.124 487.607C207.39 487.607 207.853 487.589 208.173 487.554V489.633C207.888 489.687 207.426 489.722 206.768 489.722C204.866 489.722 203.569 488.869 203.587 487.003V481.919H202.253V479.946H203.587V477.635H206.217V479.946H208.03Z" fill="#666666"/>
<path d="M196.548 489.793C193.632 489.793 191.819 487.785 191.819 484.799C191.819 481.812 193.632 479.822 196.548 479.822C199.463 479.822 201.293 481.812 201.293 484.799C201.293 487.785 199.463 489.793 196.548 489.793ZM196.565 487.749C197.916 487.749 198.609 486.487 198.609 484.799C198.609 483.092 197.916 481.83 196.565 481.83C195.197 481.83 194.486 483.092 194.486 484.799C194.486 486.487 195.197 487.749 196.565 487.749Z" fill="#666666"/>
<path d="M190.096 476.729V489.598H187.785L182.132 481.421H182.026V489.598H179.359V476.729H181.706L187.323 484.905H187.447V476.729H190.096Z" fill="#666666"/>
<path d="M498.958 228.158V215H504.12C507.119 215 508.827 216.69 508.827 219.289C508.827 221.088 508 222.397 506.501 223.033L509.3 228.158H506.283L503.775 223.487H501.685V228.158H498.958ZM501.685 221.27H503.611C505.229 221.27 506.01 220.598 506.01 219.289C506.01 217.962 505.229 217.235 503.611 217.235H501.685V221.27Z" fill="#666666"/>
<path d="M488 228.158V215H496.833V217.254H490.726V220.452H496.378V222.706H490.726V225.905H496.851V228.158H488Z" fill="#666666"/>
<path d="M531.051 521.822C528.385 521.822 526.75 520.631 526.59 518.8H529.185C529.327 519.564 530.056 519.92 531.105 519.92C532.331 519.92 533.149 519.404 533.149 518.054V516.294H533.024C532.669 517.076 531.816 517.858 530.269 517.858C528.083 517.858 526.341 516.329 526.341 513.112C526.341 509.841 528.136 508.224 530.269 508.224C531.887 508.224 532.669 509.184 533.024 509.966H533.131V508.348H535.744V518.107C535.744 520.56 533.789 521.822 531.051 521.822ZM531.087 515.885C532.402 515.885 533.149 514.854 533.149 513.148C533.149 511.423 532.402 510.321 531.087 510.321C529.754 510.321 529.043 511.477 529.043 513.148C529.043 514.818 529.754 515.885 531.087 515.885Z" fill="#666666"/>
<path d="M518.466 512.419V518H515.835V508.348H518.342V510.037H518.448C518.893 508.917 519.924 508.224 521.346 508.224C523.354 508.224 524.687 509.593 524.67 511.85V518H522.057V512.312C522.057 511.121 521.399 510.41 520.315 510.41C519.213 510.41 518.466 511.139 518.466 512.419Z" fill="#666666"/>
<path d="M511.16 518V508.348H513.791V518H511.16ZM512.475 507.086C511.676 507.086 511.036 506.482 511.036 505.753C511.036 505.006 511.676 504.402 512.475 504.402C513.258 504.402 513.897 505.006 513.897 505.753C513.897 506.482 513.258 507.086 512.475 507.086Z" fill="#666666"/>
<path d="M509.507 508.348V510.321H507.694V515.032C507.694 515.796 508.068 515.991 508.601 516.009C508.867 516.009 509.33 515.991 509.65 515.956V518.036C509.365 518.089 508.903 518.124 508.245 518.124C506.343 518.124 505.046 517.271 505.064 515.405V510.321H503.73V508.348H505.064V506.037H507.694V508.348H509.507Z" fill="#666666"/>
<path d="M500.123 511.21C500.016 510.535 499.412 510.09 498.541 510.09C497.687 510.09 497.03 510.499 497.048 511.086C497.03 511.512 497.385 511.85 498.292 512.046L500.016 512.401C501.882 512.792 502.789 513.628 502.807 515.014C502.789 516.916 501.082 518.196 498.523 518.196C495.91 518.196 494.381 517.023 494.168 515.138H496.816C496.941 515.903 497.563 516.294 498.523 516.294C499.483 516.294 500.123 515.903 500.123 515.281C500.123 514.783 499.714 514.481 498.807 514.285L497.208 513.965C495.377 513.61 494.417 512.65 494.435 511.228C494.417 509.379 496.017 508.224 498.505 508.224C500.94 508.224 502.451 509.379 502.593 511.21H500.123Z" fill="#666666"/>
<path d="M488.532 518.196C485.582 518.196 483.769 516.276 483.769 513.219C483.769 510.232 485.599 508.224 488.426 508.224C490.967 508.224 492.958 509.824 492.958 513.112V513.859H486.364C486.364 515.316 487.235 516.223 488.586 516.223C489.474 516.223 490.114 515.832 490.381 515.245H492.887C492.514 517.023 490.914 518.196 488.532 518.196ZM486.364 512.205H490.47C490.47 511.032 489.652 510.197 488.479 510.197C487.27 510.197 486.408 511.095 486.364 512.205Z" fill="#666666"/>
<path d="M473.424 507.335V505.131H483.964V507.335H480.018V518H477.37V507.335H473.424Z" fill="#666666"/>
<path d="M550.409 487.808C550.303 487.132 549.698 486.688 548.827 486.688C547.974 486.688 547.316 487.097 547.334 487.683C547.316 488.11 547.672 488.448 548.578 488.643L550.303 488.999C552.169 489.39 553.076 490.225 553.093 491.612C553.076 493.514 551.369 494.793 548.809 494.793C546.197 494.793 544.668 493.62 544.455 491.736H547.103C547.228 492.5 547.85 492.891 548.809 492.891C549.769 492.891 550.409 492.5 550.409 491.878C550.409 491.381 550 491.078 549.094 490.883L547.494 490.563C545.663 490.207 544.703 489.248 544.721 487.826C544.703 485.977 546.303 484.822 548.792 484.822C551.227 484.822 552.738 485.977 552.88 487.808H550.409Z" fill="#666666"/>
<path d="M540.224 494.598V484.946H542.854V494.598H540.224ZM541.539 483.684C540.739 483.684 540.099 483.08 540.099 482.351C540.099 481.604 540.739 481 541.539 481C542.321 481 542.961 481.604 542.961 482.351C542.961 483.08 542.321 483.684 541.539 483.684Z" fill="#666666"/>
<path d="M535.922 487.808C535.815 487.132 535.211 486.688 534.34 486.688C533.487 486.688 532.829 487.097 532.847 487.683C532.829 488.11 533.185 488.448 534.091 488.643L535.815 488.999C537.682 489.39 538.588 490.225 538.606 491.612C538.588 493.514 536.882 494.793 534.322 494.793C531.709 494.793 530.181 493.62 529.967 491.736H532.616C532.74 492.5 533.362 492.891 534.322 492.891C535.282 492.891 535.922 492.5 535.922 491.878C535.922 491.381 535.513 491.078 534.607 490.883L533.007 490.563C531.176 490.207 530.216 489.248 530.234 487.826C530.216 485.977 531.816 484.822 534.304 484.822C536.74 484.822 538.25 485.977 538.393 487.808H535.922Z" fill="#666666"/>
<path d="M524.332 494.793C521.381 494.793 519.568 492.874 519.568 489.816C519.568 486.83 521.399 484.822 524.225 484.822C526.767 484.822 528.758 486.421 528.758 489.71V490.456H522.164C522.164 491.914 523.035 492.82 524.385 492.82C525.274 492.82 525.914 492.429 526.181 491.843H528.687C528.314 493.62 526.714 494.793 524.332 494.793ZM522.164 488.803H526.27C526.27 487.63 525.452 486.795 524.279 486.795C523.07 486.795 522.208 487.692 522.164 488.803Z" fill="#666666"/>
<path d="M511.677 489.017V494.598H509.046V481.729H511.606V486.635H511.712C512.157 485.515 513.134 484.822 514.592 484.822C516.6 484.822 517.933 486.173 517.933 488.448V494.598H515.303V488.91C515.303 487.719 514.663 487.008 513.561 487.008C512.459 487.008 511.677 487.737 511.677 489.017Z" fill="#666666"/>
<path d="M507.18 484.946V486.919H505.367V491.629C505.367 492.394 505.74 492.589 506.273 492.607C506.54 492.607 507.002 492.589 507.322 492.554V494.633C507.038 494.687 506.575 494.722 505.918 494.722C504.016 494.722 502.718 493.869 502.736 492.003V486.919H501.403V484.946H502.736V482.635H505.367V484.946H507.18Z" fill="#666666"/>
<path d="M495.696 494.793C492.781 494.793 490.968 492.785 490.968 489.799C490.968 486.812 492.781 484.822 495.696 484.822C498.612 484.822 500.442 486.812 500.442 489.799C500.442 492.785 498.612 494.793 495.696 494.793ZM495.714 492.749C497.065 492.749 497.758 491.487 497.758 489.799C497.758 488.092 497.065 486.83 495.714 486.83C494.346 486.83 493.635 488.092 493.635 489.799C493.635 491.487 494.346 492.749 495.714 492.749Z" fill="#666666"/>
<path d="M480.285 498.224V484.946H482.88V486.563H482.987C483.342 485.781 484.125 484.822 485.742 484.822C487.875 484.822 489.653 486.475 489.653 489.781C489.653 492.998 487.946 494.758 485.742 494.758C484.16 494.758 483.36 493.851 482.987 493.051H482.916V498.224H480.285ZM482.863 489.763C482.863 491.505 483.609 492.66 484.907 492.66C486.258 492.66 486.969 491.469 486.969 489.763C486.969 488.074 486.258 486.919 484.907 486.919C483.591 486.919 482.863 488.021 482.863 489.763Z" fill="#666666"/>
<path d="M471.593 498.224C471.078 498.224 470.598 498.206 470.26 498.171V496.127C470.598 496.144 470.989 496.162 471.326 496.162C471.842 496.162 472.268 496.109 472.588 495.273L472.748 494.865L469.282 484.946H472.037L474.064 492.056H474.17L476.215 484.946H479.005L475.237 495.664C474.686 497.211 473.637 498.224 471.593 498.224Z" fill="#666666"/>
<path d="M457 494.598V481.729H459.666V487.061H465.248V481.729H467.932V494.598H465.248V489.265H459.666V494.598H457Z" fill="#666666"/>
<path d="M510.951 356C510.951 376.369 506.939 396.539 499.143 415.358C491.348 434.177 479.923 451.277 465.52 465.68C451.116 480.084 434.017 491.509 415.198 499.304C396.379 507.099 376.209 511.111 355.839 511.111C335.47 511.111 315.299 507.099 296.48 499.304C277.661 491.509 260.562 480.084 246.159 465.68C231.755 451.277 220.33 434.177 212.535 415.358C204.74 396.539 200.728 376.369 200.728 356H294.415C294.415 364.066 296.004 372.053 299.091 379.506C302.177 386.958 306.702 393.729 312.406 399.433C318.109 405.137 324.881 409.661 332.333 412.748C339.785 415.835 347.773 417.424 355.839 417.424C363.905 417.424 371.893 415.835 379.345 412.748C386.797 409.661 393.569 405.137 399.273 399.433C404.976 393.729 409.501 386.958 412.588 379.506C415.674 372.053 417.263 364.066 417.263 356H510.951Z" fill="#0045FF"/>
<path d="M510.951 356C510.951 314.862 494.609 275.408 465.52 246.319C436.43 217.23 396.977 200.888 355.839 200.888C314.701 200.888 275.248 217.23 246.159 246.319C217.07 275.408 200.728 314.862 200.728 356L294.414 356C294.414 339.709 300.885 324.085 312.405 312.566C323.924 301.046 339.548 294.574 355.839 294.574C372.13 294.574 387.754 301.046 399.273 312.566C410.793 324.085 417.264 339.709 417.264 356H510.951Z" fill="#1E96FF"/>
<path d="M294.403 356C294.403 381.867 273.433 402.837 247.565 402.837C221.697 402.837 200.728 381.867 200.728 356C200.728 330.132 221.697 309.162 247.565 309.162C273.433 309.162 294.403 330.132 294.403 356Z" fill="#0045FF"/>
<path d="M510.951 356C510.951 381.867 489.981 402.837 464.113 402.837C438.246 402.837 417.276 381.867 417.276 356C417.276 330.132 438.246 309.162 464.113 309.162C489.981 309.162 510.951 330.132 510.951 356Z" fill="#1E96FF"/>
<path d="M381.182 264.095V266.469H379.001V272.136C379.001 273.055 379.45 273.29 380.091 273.312C380.412 273.312 380.968 273.29 381.353 273.248V275.75C381.011 275.814 380.455 275.857 379.664 275.857C377.376 275.857 375.814 274.83 375.836 272.585V266.469H374.232V264.095H375.836V261.315H379.001V264.095H381.182Z" fill="white"/>
<path d="M369.441 270.767V264.095H372.606V275.707H369.57V273.611H369.441C368.907 274.958 367.667 275.857 365.913 275.857C363.582 275.857 362 274.21 362 271.494V264.095H365.164V270.938C365.164 272.307 365.956 273.184 367.196 273.184C368.351 273.184 369.441 272.35 369.441 270.767Z" fill="white"/>
<path d="M348.677 280.069V264.095H351.799V266.041H351.927C352.355 265.1 353.296 263.945 355.242 263.945C357.808 263.945 359.947 265.934 359.947 269.912C359.947 273.782 357.894 275.899 355.242 275.899C353.339 275.899 352.376 274.809 351.927 273.847H351.842V280.069H348.677ZM351.778 269.89C351.778 271.986 352.676 273.376 354.237 273.376C355.862 273.376 356.717 271.943 356.717 269.89C356.717 267.859 355.862 266.469 354.237 266.469C352.654 266.469 351.778 267.795 351.778 269.89Z" fill="white"/>
<path d="M338.754 268.992V275.707H335.589V264.095H338.604V266.127H338.732C339.267 264.779 340.507 263.945 342.218 263.945C344.635 263.945 346.239 265.592 346.217 268.308V275.707H343.074V268.864C343.074 267.431 342.282 266.576 340.978 266.576C339.652 266.576 338.754 267.452 338.754 268.992Z" fill="white"/>
<path d="M333.044 260.224V275.707H329.836V260.224H333.044Z" fill="white"/>
<path d="M395.327 247.353C391.777 247.353 389.596 245.044 389.596 241.365C389.596 237.773 391.799 235.356 395.199 235.356C398.257 235.356 400.652 237.281 400.652 241.237V242.135H392.718C392.718 243.889 393.766 244.979 395.391 244.979C396.461 244.979 397.231 244.509 397.551 243.803H400.567C400.118 245.942 398.193 247.353 395.327 247.353ZM392.718 240.146H397.658C397.658 238.735 396.675 237.73 395.263 237.73C393.809 237.73 392.772 238.81 392.718 240.146Z" fill="white"/>
<path d="M388.913 235.506L384.828 247.118H381.278L377.215 235.506H380.551L382.989 243.846H383.118L385.555 235.506H388.913Z" fill="white"/>
<path d="M372.511 247.118V235.506H375.675V247.118H372.511ZM374.093 233.987C373.131 233.987 372.361 233.26 372.361 232.384C372.361 231.485 373.131 230.758 374.093 230.758C375.034 230.758 375.804 231.485 375.804 232.384C375.804 233.26 375.034 233.987 374.093 233.987Z" fill="white"/>
<path d="M370.521 235.506V237.88H368.34V243.547C368.34 244.466 368.789 244.701 369.431 244.723C369.752 244.723 370.308 244.701 370.692 244.659V247.161C370.35 247.225 369.794 247.268 369.003 247.268C366.715 247.268 365.154 246.241 365.175 243.996V237.88H363.571V235.506H365.175V232.726H368.34V235.506H370.521Z" fill="white"/>
<path d="M351.083 251.48V235.506H354.205V237.452H354.333C354.761 236.511 355.702 235.356 357.648 235.356C360.214 235.356 362.352 237.345 362.352 241.323C362.352 245.193 360.299 247.31 357.648 247.31C355.744 247.31 354.782 246.22 354.333 245.257H354.247V251.48H351.083ZM354.183 241.301C354.183 243.397 355.081 244.787 356.643 244.787C358.268 244.787 359.123 243.354 359.123 241.301C359.123 239.27 358.268 237.88 356.643 237.88C355.06 237.88 354.183 239.205 354.183 241.301Z" fill="white"/>
<path d="M338.316 243.867C338.316 241.28 340.412 240.424 342.636 240.296C343.47 240.243 345.031 240.168 345.523 240.146V239.205C345.501 238.243 344.838 237.666 343.662 237.666C342.593 237.666 341.909 238.158 341.737 238.949H338.722C338.915 236.939 340.668 235.356 343.748 235.356C346.271 235.356 348.666 236.49 348.666 239.291V247.118H345.672V245.514H345.587C345.009 246.583 343.919 247.332 342.187 247.332C339.963 247.332 338.316 246.177 338.316 243.867ZM341.353 243.782C341.353 244.68 342.08 245.15 343.085 245.15C344.518 245.15 345.544 244.188 345.523 242.969V242.114C345.041 242.135 343.694 242.21 343.149 242.264C342.058 242.37 341.353 242.884 341.353 243.782Z" fill="white"/>
<path d="M329.762 247.31C327.11 247.31 325.036 245.193 325.036 241.323C325.036 237.345 327.196 235.356 329.762 235.356C331.708 235.356 332.628 236.511 333.055 237.452H333.162V231.635H336.327V247.118H333.205V245.257H333.055C332.606 246.22 331.644 247.31 329.762 247.31ZM330.746 244.787C332.328 244.787 333.227 243.397 333.227 241.301C333.227 239.205 332.328 237.88 330.746 237.88C329.142 237.88 328.287 239.27 328.287 241.301C328.287 243.354 329.142 244.787 330.746 244.787Z" fill="white"/>
<path d="M312.954 247.118H309.489L314.857 231.635H318.984L324.33 247.118H320.887L319.733 243.547H314.13L312.954 247.118ZM314.942 241.045H318.92L316.974 235.121H316.867L314.942 241.045Z" fill="white"/>
<path d="M400.76 356.535V362.69H397.859V352.046H400.623V353.908H400.74C401.231 352.673 402.368 351.909 403.936 351.909C406.151 351.909 407.621 353.418 407.601 355.908V362.69H404.72V356.418C404.72 355.104 403.995 354.32 402.799 354.32C401.583 354.32 400.76 355.124 400.76 356.535Z" fill="white"/>
<path d="M390.801 362.906C387.586 362.906 385.587 360.691 385.587 357.398C385.587 354.104 387.586 351.909 390.801 351.909C394.016 351.909 396.035 354.104 396.035 357.398C396.035 360.691 394.016 362.906 390.801 362.906ZM390.821 360.652C392.311 360.652 393.075 359.26 393.075 357.398C393.075 355.516 392.311 354.124 390.821 354.124C389.311 354.124 388.527 355.516 388.527 357.398C388.527 359.26 389.311 360.652 390.821 360.652Z" fill="white"/>
<path d="M380.863 362.69V352.046H383.765V362.69H380.863ZM382.314 350.654C381.432 350.654 380.726 349.988 380.726 349.184C380.726 348.361 381.432 347.694 382.314 347.694C383.176 347.694 383.882 348.361 383.882 349.184C383.882 349.988 383.176 350.654 382.314 350.654Z" fill="white"/>
<path d="M379.039 352.046V354.222H377.039V359.417C377.039 360.26 377.451 360.475 378.039 360.495C378.333 360.495 378.843 360.475 379.196 360.436V362.73C378.882 362.788 378.372 362.828 377.647 362.828C375.55 362.828 374.119 361.887 374.138 359.828V354.222H372.668V352.046H374.138V349.498H377.039V352.046H379.039Z" fill="white"/>
<path d="M368.277 362.69V352.046H371.179V362.69H368.277ZM369.728 350.654C368.846 350.654 368.14 349.988 368.14 349.184C368.14 348.361 368.846 347.694 369.728 347.694C370.59 347.694 371.296 348.361 371.296 349.184C371.296 349.988 370.59 350.654 369.728 350.654Z" fill="white"/>
<path d="M363.533 355.202C363.416 354.457 362.749 353.967 361.789 353.967C360.848 353.967 360.122 354.418 360.142 355.065C360.122 355.535 360.514 355.908 361.514 356.124L363.416 356.516C365.474 356.947 366.474 357.868 366.493 359.397C366.474 361.495 364.592 362.906 361.769 362.906C358.887 362.906 357.202 361.612 356.966 359.534H359.887C360.024 360.377 360.71 360.809 361.769 360.809C362.828 360.809 363.533 360.377 363.533 359.691C363.533 359.142 363.082 358.809 362.083 358.593L360.318 358.241C358.299 357.849 357.241 356.79 357.26 355.222C357.241 353.183 359.005 351.909 361.749 351.909C364.435 351.909 366.101 353.183 366.258 355.202H363.533Z" fill="white"/>
<path d="M352.3 362.69V352.046H355.202V362.69H352.3ZM353.751 350.654C352.869 350.654 352.163 349.988 352.163 349.184C352.163 348.361 352.869 347.694 353.751 347.694C354.613 347.694 355.319 348.361 355.319 349.184C355.319 349.988 354.613 350.654 353.751 350.654Z" fill="white"/>
<path d="M347.145 358.162V352.046H350.046V362.69H347.263V360.769H347.145C346.655 362.004 345.518 362.828 343.911 362.828C341.774 362.828 340.323 361.318 340.323 358.829V352.046H343.224V358.319C343.224 359.574 343.95 360.377 345.087 360.377C346.145 360.377 347.145 359.613 347.145 358.162Z" fill="white"/>
<path d="M335.148 366.689V360.985H335.05C334.638 361.867 333.756 362.867 332.031 362.867C329.6 362.867 327.699 360.926 327.699 357.378C327.699 353.732 329.679 351.909 332.031 351.909C333.815 351.909 334.658 352.967 335.05 353.83H335.187V352.046H338.049V366.689H335.148ZM332.933 360.554C334.383 360.554 335.207 359.28 335.207 357.359C335.207 355.437 334.383 354.222 332.933 354.222C331.462 354.222 330.678 355.496 330.678 357.359C330.678 359.24 331.462 360.554 332.933 360.554Z" fill="white"/>
<path d="M321.583 362.906C318.329 362.906 316.369 360.652 316.369 357.398C316.369 354.144 318.349 351.909 321.583 351.909C324.327 351.909 326.19 353.516 326.307 355.947H323.582C323.406 354.889 322.72 354.163 321.622 354.163C320.23 354.163 319.309 355.339 319.309 357.359C319.309 359.417 320.211 360.593 321.622 360.593C322.642 360.593 323.406 359.966 323.582 358.829H326.307C326.17 361.24 324.406 362.906 321.583 362.906Z" fill="white"/>
<path d="M305.313 362.69H302.137L307.058 348.498H310.841L315.742 362.69H312.585L311.527 359.417H306.391L305.313 362.69ZM307.136 357.123H310.782L308.998 351.693H308.9L307.136 357.123Z" fill="white"/>
<path d="M391.777 468.477V470.85H389.595V476.517C389.595 477.437 390.045 477.672 390.686 477.693C391.007 477.693 391.563 477.672 391.948 477.629V480.131C391.606 480.195 391.05 480.238 390.258 480.238C387.97 480.238 386.409 479.212 386.431 476.966V470.85H384.827V468.477H386.431V465.697H389.595V468.477H391.777Z" fill="white"/>
<path d="M380.036 475.149V468.477H383.201V480.089H380.164V477.993H380.036C379.501 479.34 378.261 480.238 376.507 480.238C374.176 480.238 372.594 478.592 372.594 475.876V468.477H375.759V475.32C375.759 476.688 376.55 477.565 377.79 477.565C378.945 477.565 380.036 476.731 380.036 475.149Z" fill="white"/>
<path d="M359.271 484.451V468.476H362.394V470.422H362.522C362.95 469.481 363.891 468.327 365.837 468.327C368.403 468.327 370.541 470.315 370.541 474.293C370.541 478.164 368.488 480.281 365.837 480.281C363.933 480.281 362.971 479.19 362.522 478.228H362.436V484.451H359.271ZM362.372 474.272C362.372 476.367 363.27 477.757 364.832 477.757C366.457 477.757 367.312 476.325 367.312 474.272C367.312 472.24 366.457 470.85 364.832 470.85C363.249 470.85 362.372 472.176 362.372 474.272Z" fill="white"/>
<path d="M357.282 468.477V470.85H355.101V476.517C355.101 477.437 355.55 477.672 356.191 477.693C356.512 477.693 357.068 477.672 357.453 477.629V480.131C357.111 480.195 356.555 480.238 355.764 480.238C353.476 480.238 351.915 479.212 351.936 476.966V470.85H350.332V468.477H351.936V465.697H355.101V468.477H357.282Z" fill="white"/>
<path d="M345.542 475.149V468.477H348.707V480.089H345.67V477.993H345.542C345.007 479.34 343.767 480.238 342.014 480.238C339.683 480.238 338.1 478.592 338.1 475.876V468.477H341.265V475.32C341.265 476.688 342.056 477.565 343.297 477.565C344.451 477.565 345.542 476.731 345.542 475.149Z" fill="white"/>
<path d="M335.855 472.347C335.855 477.394 332.711 480.302 328.627 480.302C324.5 480.302 321.377 477.372 321.377 472.347C321.377 467.3 324.5 464.392 328.627 464.392C332.711 464.392 335.855 467.3 335.855 472.347ZM332.583 472.347C332.583 469.032 331.022 467.236 328.627 467.236C326.232 467.236 324.649 469.032 324.649 472.347C324.649 475.662 326.232 477.458 328.627 477.458C331.022 477.458 332.583 475.662 332.583 472.347Z" fill="white"/>
<path d="M404.522 451.692C401.87 451.692 399.796 449.575 399.796 445.704C399.796 441.727 401.956 439.738 404.522 439.738C406.468 439.738 407.388 440.893 407.815 441.834H407.922V436.017H411.087V451.499H407.965V449.639H407.815C407.366 450.601 406.404 451.692 404.522 451.692ZM405.506 449.169C407.088 449.169 407.986 447.779 407.986 445.683C407.986 443.587 407.088 442.261 405.506 442.261C403.902 442.261 403.046 443.651 403.046 445.683C403.046 447.736 403.902 449.169 405.506 449.169Z" fill="white"/>
<path d="M392.931 451.735C389.381 451.735 387.2 449.425 387.2 445.747C387.2 442.154 389.403 439.738 392.803 439.738C395.861 439.738 398.256 441.662 398.256 445.619V446.517H390.322C390.322 448.27 391.37 449.361 392.995 449.361C394.065 449.361 394.835 448.891 395.155 448.185H398.171C397.722 450.323 395.797 451.735 392.931 451.735ZM390.322 444.528H395.262C395.262 443.117 394.279 442.112 392.867 442.112C391.413 442.112 390.376 443.191 390.322 444.528Z" fill="white"/>
<path d="M378.561 451.692C375.909 451.692 373.835 449.575 373.835 445.704C373.835 441.727 375.995 439.738 378.561 439.738C380.507 439.738 381.427 440.893 381.854 441.834H381.961V436.017H385.126V451.499H382.004V449.639H381.854C381.405 450.601 380.443 451.692 378.561 451.692ZM379.545 449.169C381.127 449.169 382.025 447.779 382.025 445.683C382.025 443.587 381.127 442.261 379.545 442.261C377.941 442.261 377.085 443.651 377.085 445.683C377.085 447.736 377.941 449.169 379.545 449.169Z" fill="white"/>
<path d="M371.825 436.017V451.499H368.66V436.017H371.825Z" fill="white"/>
<path d="M360.96 451.735C357.453 451.735 355.272 449.318 355.272 445.726C355.272 442.133 357.453 439.738 360.96 439.738C364.467 439.738 366.67 442.133 366.67 445.726C366.67 449.318 364.467 451.735 360.96 451.735ZM360.982 449.275C362.607 449.275 363.441 447.757 363.441 445.726C363.441 443.673 362.607 442.154 360.982 442.154C359.335 442.154 358.48 443.673 358.48 445.726C358.48 447.757 359.335 449.275 360.982 449.275Z" fill="white"/>
<path d="M354.31 439.887V442.261H352.001V451.499H348.836V442.261H347.189V439.887H348.836V439.011C348.836 436.573 350.311 435.29 352.642 435.29C353.369 435.29 353.968 435.354 354.524 435.482V437.877C354.075 437.834 353.733 437.813 353.562 437.813C352.535 437.813 352.001 438.219 352.001 439.182V439.887H354.31Z" fill="white"/>
<path d="M346.269 439.887V442.261H343.96V451.499H340.795V442.261H339.148V439.887H340.795V439.011C340.795 436.573 342.27 435.29 344.601 435.29C345.328 435.29 345.927 435.354 346.483 435.482V437.877C346.034 437.834 345.692 437.813 345.521 437.813C344.494 437.813 343.96 438.219 343.96 439.182V439.887H346.269Z" fill="white"/>
<path d="M327.322 448.249C327.322 445.661 329.417 444.806 331.642 444.678C332.476 444.624 334.037 444.549 334.528 444.528V443.587C334.507 442.625 333.844 442.047 332.668 442.047C331.599 442.047 330.914 442.539 330.743 443.33H327.728C327.921 441.32 329.674 439.738 332.754 439.738C335.277 439.738 337.672 440.871 337.672 443.673V451.499H334.678V449.896H334.593C334.015 450.965 332.925 451.713 331.192 451.713C328.968 451.713 327.322 450.559 327.322 448.249ZM330.358 448.163C330.358 449.062 331.086 449.532 332.091 449.532C333.523 449.532 334.55 448.57 334.528 447.351V446.495C334.047 446.517 332.7 446.592 332.155 446.645C331.064 446.752 330.358 447.265 330.358 448.163Z" fill="white"/>
<path d="M320.758 451.735C317.208 451.735 315.069 449.275 315.069 445.726C315.069 442.176 317.229 439.738 320.758 439.738C323.752 439.738 325.783 441.491 325.911 444.143H322.939C322.747 442.988 321.998 442.197 320.8 442.197C319.282 442.197 318.277 443.48 318.277 445.683C318.277 447.928 319.261 449.211 320.8 449.211C321.912 449.211 322.747 448.527 322.939 447.287H325.911C325.762 449.917 323.837 451.735 320.758 451.735Z" fill="white"/>
<path d="M310.214 440.443C310.086 439.225 309.102 438.497 307.541 438.497C305.916 438.497 305.018 439.246 304.996 440.272C304.975 441.384 306.151 441.898 307.477 442.197L308.867 442.539C311.519 443.138 313.508 444.485 313.508 447.073C313.508 449.917 311.284 451.713 307.52 451.713C303.778 451.713 301.382 449.981 301.297 446.666H304.419C304.526 448.228 305.766 449.019 307.477 449.019C309.167 449.019 310.257 448.228 310.257 447.073C310.257 446.025 309.295 445.533 307.605 445.105L305.916 444.699C303.307 444.058 301.703 442.753 301.703 440.486C301.703 437.663 304.184 435.803 307.563 435.803C310.984 435.803 313.251 437.706 313.294 440.443H310.214Z" fill="white"/>
<path d="M664.014 533.903C632.783 587.998 587.862 632.919 533.766 664.151C479.671 695.383 418.308 711.825 355.844 711.825C293.381 711.825 232.017 695.383 177.922 664.151C123.827 632.919 78.9062 587.998 47.6743 533.903L141.524 479.719C163.244 517.34 194.485 548.581 232.106 570.301C269.727 592.022 312.403 603.457 355.844 603.457C399.285 603.457 441.961 592.022 479.582 570.301C517.204 548.581 548.444 517.34 570.165 479.719L664.014 533.903Z" fill="#3232E0"/>
<path fill-rule="evenodd" clip-rule="evenodd" d="M47.3524 533.344C16.3293 479.385 -2.60547e-06 418.229 0 355.98C-2.92438e-06 293.517 16.4422 232.153 47.6741 178.058C78.9059 123.963 123.827 79.0421 177.922 47.8103C232.017 16.5784 293.38 0.13623 355.844 0.13623V108.709C312.439 108.709 269.798 120.134 232.208 141.837C194.618 163.54 163.403 194.755 141.701 232.345C119.998 269.935 108.573 312.575 108.573 355.98C108.573 399.319 119.963 441.895 141.601 479.442C152.953 496.171 154.499 518.59 143.712 537.273C128.679 563.312 95.383 572.233 69.3442 557.2C59.3785 551.446 51.9202 543.017 47.3524 533.344Z" fill="#3182F6"/>
<path fill-rule="evenodd" clip-rule="evenodd" d="M360.02 108.77C349.582 109.494 338.823 107.223 329.08 101.598C303.041 86.5641 294.12 53.2684 309.153 27.2296C320.242 8.02377 341.266 -1.86972 361.985 0.292978C422.334 1.32955 481.465 17.7021 533.794 47.9146C587.889 79.1464 632.81 124.067 664.042 178.163C695.274 232.258 711.716 293.621 711.716 356.085C711.716 418.548 695.274 479.911 664.042 534.007L570.083 479.759C591.793 442.158 603.222 399.504 603.222 356.085C603.222 312.666 591.793 270.012 570.083 232.41C548.374 194.808 517.149 163.583 479.547 141.874C443.143 120.856 402.004 109.474 360.02 108.77Z" fill="#275EF2"/>
<path d="M664.401 533.624C649.367 559.662 616.072 568.584 590.033 553.55C563.994 538.517 555.073 505.221 570.106 479.183C585.14 453.144 618.435 444.222 644.474 459.256C670.513 474.289 679.434 507.585 664.401 533.624Z" fill="#3232E0"/>
<path d="M413.028 49.9547V51.7669H411.363V56.0934C411.363 56.7955 411.706 56.9751 412.196 56.9914C412.441 56.9914 412.865 56.9751 413.159 56.9424V58.8526C412.898 58.9016 412.473 58.9342 411.869 58.9342C410.122 58.9342 408.93 58.1506 408.947 56.4363V51.7669H407.722V49.9547H408.947V47.8323H411.363V49.9547H413.028Z" fill="white"/>
<path d="M400.783 53.6938V58.8203H398.367V49.9551H400.669V51.5061H400.767C401.175 50.4775 402.122 49.8408 403.428 49.8408C405.273 49.8408 406.497 51.098 406.481 53.1714V58.8203H404.081V53.5959C404.081 52.502 403.477 51.849 402.481 51.849C401.469 51.849 400.783 52.5183 400.783 53.6938Z" fill="white"/>
<path d="M392.783 58.9999C390.073 58.9999 388.408 57.2367 388.408 54.4285C388.408 51.6857 390.089 49.8408 392.685 49.8408C395.02 49.8408 396.849 51.3102 396.849 54.3306V55.0163H390.791C390.791 56.3551 391.591 57.1877 392.832 57.1877C393.649 57.1877 394.236 56.8285 394.481 56.2897H396.783C396.44 57.9224 394.971 58.9999 392.783 58.9999ZM390.791 53.4979H394.563C394.563 52.4204 393.812 51.6531 392.734 51.6531C391.624 51.6531 390.832 52.4775 390.791 53.4979Z" fill="white"/>
<path d="M374.073 58.8203V49.9551H376.375V51.5061H376.473C376.849 50.4775 377.747 49.8408 378.939 49.8408C380.163 49.8408 381.061 50.4775 381.355 51.5061H381.437C381.812 50.4939 382.808 49.8408 384.114 49.8408C385.763 49.8408 386.906 50.9347 386.906 52.8612V58.8203H384.49V53.3347C384.49 52.3224 383.902 51.8326 383.102 51.8326C382.188 51.8326 381.665 52.4694 381.665 53.4V58.8203H379.314V53.2694C379.314 52.3877 378.759 51.8326 377.943 51.8326C377.126 51.8326 376.49 52.4857 376.49 53.4979V58.8203H374.073Z" fill="white"/>
<path d="M370.121 52.5837C370.023 51.9633 369.468 51.5551 368.668 51.5551C367.884 51.5551 367.28 51.9306 367.296 52.4694C367.28 52.8612 367.606 53.1714 368.439 53.351L370.023 53.6775C371.737 54.0367 372.57 54.804 372.586 56.0775C372.57 57.8244 371.002 58.9999 368.651 58.9999C366.251 58.9999 364.847 57.9224 364.651 56.1918H367.084C367.198 56.8938 367.77 57.253 368.651 57.253C369.533 57.253 370.121 56.8938 370.121 56.3224C370.121 55.8653 369.745 55.5877 368.913 55.4081L367.443 55.1142C365.762 54.7877 364.88 53.9061 364.896 52.6C364.88 50.902 366.349 49.8408 368.635 49.8408C370.872 49.8408 372.26 50.902 372.39 52.5837H370.121Z" fill="white"/>
<path d="M361.11 52.5837C361.012 51.9633 360.457 51.5551 359.657 51.5551C358.873 51.5551 358.269 51.9306 358.286 52.4694C358.269 52.8612 358.596 53.1714 359.428 53.351L361.012 53.6775C362.726 54.0367 363.559 54.804 363.575 56.0775C363.559 57.8244 361.992 58.9999 359.641 58.9999C357.241 58.9999 355.837 57.9224 355.641 56.1918H358.073C358.188 56.8938 358.759 57.253 359.641 57.253C360.522 57.253 361.11 56.8938 361.11 56.3224C361.11 55.8653 360.734 55.5877 359.902 55.4081L358.432 55.1142C356.751 54.7877 355.869 53.9061 355.886 52.6C355.869 50.902 357.339 49.8408 359.624 49.8408C361.861 49.8408 363.249 50.902 363.379 52.5837H361.11Z" fill="white"/>
<path d="M350.464 58.9999C347.754 58.9999 346.088 57.2367 346.088 54.4285C346.088 51.6857 347.77 49.8408 350.366 49.8408C352.701 49.8408 354.529 51.3102 354.529 54.3306V55.0163H348.472C348.472 56.3551 349.272 57.1877 350.513 57.1877C351.329 57.1877 351.917 56.8285 352.162 56.2897H354.464C354.121 57.9224 352.652 58.9999 350.464 58.9999ZM348.472 53.4979H352.243C352.243 52.4204 351.492 51.6531 350.415 51.6531C349.305 51.6531 348.513 52.4775 348.472 53.4979Z" fill="white"/>
<path d="M342.498 52.5837C342.4 51.9633 341.845 51.5551 341.045 51.5551C340.261 51.5551 339.657 51.9306 339.673 52.4694C339.657 52.8612 339.983 53.1714 340.816 53.351L342.4 53.6775C344.114 54.0367 344.947 54.804 344.963 56.0775C344.947 57.8244 343.379 58.9999 341.028 58.9999C338.628 58.9999 337.224 57.9224 337.028 56.1918H339.461C339.575 56.8938 340.147 57.253 341.028 57.253C341.91 57.253 342.498 56.8938 342.498 56.3224C342.498 55.8653 342.122 55.5877 341.29 55.4081L339.82 55.1142C338.139 54.7877 337.257 53.9061 337.273 52.6C337.257 50.902 338.726 49.8408 341.012 49.8408C343.249 49.8408 344.636 50.902 344.767 52.5837H342.498Z" fill="white"/>
<path d="M333.486 52.5837C333.389 51.9633 332.833 51.5551 332.033 51.5551C331.25 51.5551 330.646 51.9306 330.662 52.4694C330.646 52.8612 330.972 53.1714 331.805 53.351L333.389 53.6775C335.103 54.0367 335.935 54.804 335.952 56.0775C335.935 57.8244 334.368 58.9999 332.017 58.9999C329.617 58.9999 328.213 57.9224 328.017 56.1918H330.45C330.564 56.8938 331.135 57.253 332.017 57.253C332.899 57.253 333.486 56.8938 333.486 56.3224C333.486 55.8653 333.111 55.5877 332.278 55.4081L330.809 55.1142C329.127 54.7877 328.246 53.9061 328.262 52.6C328.246 50.902 329.715 49.8408 332.001 49.8408C334.237 49.8408 335.625 50.902 335.756 52.5837H333.486Z" fill="white"/>
<path d="M318.645 58.8203H316L320.098 47H323.249L327.331 58.8203H324.702L323.82 56.0938H319.543L318.645 58.8203ZM320.163 54.1836H323.2L321.714 49.6612H321.633L320.163 54.1836Z" fill="white"/>
<path d="M649.481 504.974V509.83H647.192V501.433H649.373V502.902H649.466C649.852 501.928 650.749 501.325 651.986 501.325C653.734 501.325 654.894 502.515 654.878 504.479V509.83H652.605V504.881C652.605 503.845 652.033 503.227 651.089 503.227C650.131 503.227 649.481 503.861 649.481 504.974Z" fill="white"/>
<path d="M641.625 510C639.089 510 637.512 508.253 637.512 505.655C637.512 503.057 639.089 501.325 641.625 501.325C644.161 501.325 645.754 503.057 645.754 505.655C645.754 508.253 644.161 510 641.625 510ZM641.641 508.222C642.816 508.222 643.419 507.124 643.419 505.655C643.419 504.17 642.816 503.072 641.641 503.072C640.45 503.072 639.831 504.17 639.831 505.655C639.831 507.124 640.45 508.222 641.641 508.222Z" fill="white"/>
<path d="M633.785 509.83V501.433H636.073V509.83H633.785ZM634.929 500.335C634.233 500.335 633.676 499.809 633.676 499.175C633.676 498.526 634.233 498 634.929 498C635.609 498 636.166 498.526 636.166 499.175C636.166 499.809 635.609 500.335 634.929 500.335Z" fill="white"/>
<path d="M632.346 501.433V503.149H630.769V507.247C630.769 507.912 631.094 508.082 631.557 508.098C631.789 508.098 632.192 508.082 632.47 508.051V509.861C632.222 509.907 631.82 509.938 631.248 509.938C629.594 509.938 628.465 509.196 628.48 507.572V503.149H627.32V501.433H628.48V499.422H630.769V501.433H632.346Z" fill="white"/>
<path d="M618.691 507.479C618.691 505.608 620.207 504.99 621.815 504.897C622.418 504.858 623.547 504.804 623.903 504.789V504.108C623.887 503.412 623.408 502.995 622.557 502.995C621.784 502.995 621.289 503.351 621.166 503.923H618.985C619.124 502.469 620.392 501.325 622.619 501.325C624.444 501.325 626.176 502.144 626.176 504.17V509.83H624.011V508.67H623.949C623.532 509.443 622.743 509.985 621.49 509.985C619.882 509.985 618.691 509.15 618.691 507.479ZM620.887 507.418C620.887 508.067 621.413 508.407 622.14 508.407C623.176 508.407 623.918 507.711 623.903 506.83V506.211C623.555 506.227 622.581 506.281 622.186 506.32C621.398 506.397 620.887 506.768 620.887 507.418Z" fill="white"/>
<path d="M618.212 501.433L615.258 509.83H612.691L609.753 501.433H612.165L613.928 507.464H614.021L615.784 501.433H618.212Z" fill="white"/>
<path d="M606.351 509.83V501.433H608.64V509.83H606.351ZM607.496 500.335C606.8 500.335 606.243 499.809 606.243 499.175C606.243 498.526 606.8 498 607.496 498C608.176 498 608.733 498.526 608.733 499.175C608.733 499.809 608.176 500.335 607.496 500.335Z" fill="white"/>
<path d="M604.913 501.433V503.149H603.336V507.247C603.336 507.912 603.66 508.082 604.124 508.098C604.356 508.098 604.758 508.082 605.037 508.051V509.861C604.789 509.907 604.387 509.938 603.815 509.938C602.16 509.938 601.032 509.196 601.047 507.572V503.149H599.887V501.433H601.047V499.422H603.336V501.433H604.913Z" fill="white"/>
<path d="M595.341 510C592.773 510 591.227 508.222 591.227 505.655C591.227 503.088 592.789 501.325 595.341 501.325C597.505 501.325 598.975 502.593 599.067 504.51H596.918C596.779 503.675 596.237 503.103 595.371 503.103C594.273 503.103 593.547 504.031 593.547 505.624C593.547 507.247 594.258 508.175 595.371 508.175C596.176 508.175 596.779 507.68 596.918 506.784H599.067C598.959 508.686 597.567 510 595.341 510Z" fill="white"/>
<path d="M582.505 509.83H580L583.881 498.634H586.866L590.732 509.83H588.242L587.407 507.248H583.356L582.505 509.83ZM583.943 505.438H586.82L585.412 501.155H585.335L583.943 505.438Z" fill="white"/>
<path d="M125.725 513.584C125.627 512.963 125.072 512.555 124.272 512.555C123.488 512.555 122.884 512.931 122.9 513.47C122.884 513.861 123.21 514.172 124.043 514.351L125.627 514.678C127.341 515.037 128.173 515.804 128.19 517.078C128.173 518.825 126.606 520 124.255 520C121.855 520 120.451 518.923 120.255 517.192H122.688C122.802 517.894 123.374 518.253 124.255 518.253C125.137 518.253 125.725 517.894 125.725 517.323C125.725 516.865 125.349 516.588 124.516 516.408L123.047 516.114C121.366 515.788 120.484 514.906 120.5 513.6C120.484 511.902 121.953 510.841 124.239 510.841C126.476 510.841 127.863 511.902 127.994 513.584H125.725Z" fill="white"/>
<path d="M116.712 513.584C116.614 512.963 116.059 512.555 115.259 512.555C114.476 512.555 113.872 512.931 113.888 513.47C113.872 513.861 114.198 514.172 115.031 514.351L116.614 514.678C118.329 515.037 119.161 515.804 119.178 517.078C119.161 518.825 117.594 520 115.243 520C112.843 520 111.439 518.923 111.243 517.192H113.676C113.79 517.894 114.361 518.253 115.243 518.253C116.125 518.253 116.712 517.894 116.712 517.323C116.712 516.865 116.337 516.588 115.504 516.408L114.035 516.114C112.353 515.788 111.472 514.906 111.488 513.6C111.472 511.902 112.941 510.841 115.227 510.841C117.463 510.841 118.851 511.902 118.982 513.584H116.712Z" fill="white"/>
<path d="M106.068 520C103.358 520 101.693 518.237 101.693 515.429C101.693 512.686 103.374 510.841 105.97 510.841C108.305 510.841 110.133 512.31 110.133 515.331V516.016H104.076C104.076 517.355 104.876 518.188 106.117 518.188C106.934 518.188 107.521 517.829 107.766 517.29H110.068C109.725 518.923 108.256 520 106.068 520ZM104.076 514.498H107.848C107.848 513.421 107.097 512.653 106.019 512.653C104.909 512.653 104.117 513.478 104.076 514.498Z" fill="white"/>
<path d="M96.6157 520C93.9055 520 92.2729 518.123 92.2729 515.412C92.2729 512.702 93.9219 510.841 96.6157 510.841C98.9013 510.841 100.452 512.18 100.55 514.204H98.2809C98.134 513.323 97.5626 512.719 96.6483 512.719C95.4892 512.719 94.7218 513.698 94.7218 515.38C94.7218 517.094 95.4728 518.074 96.6483 518.074C97.4973 518.074 98.134 517.551 98.2809 516.604H100.55C100.436 518.612 98.9666 520 96.6157 520Z" fill="white"/>
<path d="M87.1948 520C84.4846 520 82.8521 518.123 82.8521 515.412C82.8521 512.702 84.501 510.841 87.1948 510.841C89.4804 510.841 91.0314 512.18 91.1293 514.204H88.86C88.7131 513.323 88.1417 512.719 87.2274 512.719C86.0683 512.719 85.3009 513.698 85.3009 515.38C85.3009 517.094 86.0519 518.074 87.2274 518.074C88.0764 518.074 88.7131 517.551 88.86 516.604H91.1293C91.015 518.612 89.5457 520 87.1948 520Z" fill="white"/>
<path d="M73.6448 519.82H71L75.0978 508H78.2487L82.3302 519.82H79.7018L78.8201 517.094H74.5427L73.6448 519.82ZM75.1631 515.184H78.1998L76.7141 510.661H76.6325L75.1631 515.184Z" fill="white"/>
<defs>
<linearGradient id="paint0_linear_469_1720" x1="294.292" y1="356" x2="465.305" y2="356" gradientUnits="userSpaceOnUse">
<stop stop-color="#3182F6"/>
<stop offset="1" stop-color="#A009FF"/>
</linearGradient>
</defs>
</svg>
