<svg width="728" height="109" viewBox="0 0 728 109" fill="none" xmlns="http://www.w3.org/2000/svg">
<path d="M0 54.4411C0 24.3741 24.3741 0 54.4411 0H727.086V108.882H54.4411C24.3741 108.882 0 84.5081 0 54.4411V54.4411Z" fill="url(#paint0_linear_650_999)"/>
<path d="M0 54.4411C0 24.3741 24.3741 0 54.4411 0C84.5081 0 108.882 24.3741 108.882 54.4411C108.882 84.5081 84.5081 108.882 54.4411 108.882C24.3741 108.882 0 84.5081 0 54.4411Z" fill="url(#paint1_linear_650_999)"/>
<path d="M88.1445 53.7266V57.7731H86.2373V50.7755H88.0543V51.9998H88.1316C88.4538 51.1879 89.2012 50.6853 90.2322 50.6853C91.6884 50.6853 92.6549 51.6776 92.642 53.3142V57.7731H90.7476V53.6493C90.7476 52.7859 90.2708 52.2704 89.4847 52.2704C88.6858 52.2704 88.1445 52.7987 88.1445 53.7266Z" fill="white"/>
<path d="M81.5983 57.9148C79.4848 57.9148 78.1704 56.4586 78.1704 54.2936C78.1704 52.1286 79.4848 50.6853 81.5983 50.6853C83.7117 50.6853 85.039 52.1286 85.039 54.2936C85.039 56.4586 83.7117 57.9148 81.5983 57.9148ZM81.6111 56.4328C82.5905 56.4328 83.0931 55.5179 83.0931 54.2936C83.0931 53.0565 82.5905 52.1415 81.6111 52.1415C80.6189 52.1415 80.1034 53.0565 80.1034 54.2936C80.1034 55.5179 80.6189 56.4328 81.6111 56.4328Z" fill="white"/>
<path d="M75.0638 57.7732V50.7757H76.9711V57.7732H75.0638ZM76.0175 49.8607C75.4376 49.8607 74.9736 49.4226 74.9736 48.8942C74.9736 48.3529 75.4376 47.9148 76.0175 47.9148C76.5845 47.9148 77.0484 48.3529 77.0484 48.8942C77.0484 49.4226 76.5845 49.8607 76.0175 49.8607Z" fill="white"/>
<path d="M73.8659 50.7756V52.2061H72.5515V55.6211C72.5515 56.1752 72.8221 56.317 73.2087 56.3299C73.402 56.3299 73.737 56.317 73.969 56.2912V57.799C73.7628 57.8376 73.4278 57.8634 72.9509 57.8634C71.5721 57.8634 70.6313 57.2448 70.6442 55.8917V52.2061H69.6777V50.7756H70.6442V49.1003H72.5515V50.7756H73.8659Z" fill="white"/>
<path d="M62.4868 55.8143C62.4868 54.255 63.7497 53.7395 65.0899 53.6622C65.5925 53.6299 66.5332 53.5848 66.8296 53.572V53.0049C66.8167 52.425 66.4172 52.0771 65.7085 52.0771C65.0641 52.0771 64.6518 52.3735 64.5487 52.8503H62.7317C62.8476 51.6389 63.9043 50.6853 65.76 50.6853C67.2807 50.6853 68.724 51.3683 68.724 53.0565V57.7731H66.9198V56.8066H66.8683C66.5203 57.4509 65.8631 57.9019 64.8193 57.9019C63.4791 57.9019 62.4868 57.2061 62.4868 55.8143ZM64.3167 55.7627C64.3167 56.304 64.7549 56.5875 65.3605 56.5875C66.2239 56.5875 66.8425 56.0076 66.8296 55.273V54.7575C66.5397 54.7704 65.7278 54.8155 65.3992 54.8478C64.742 54.9122 64.3167 55.2215 64.3167 55.7627Z" fill="white"/>
<path d="M58.5309 57.9148C56.3917 57.9148 55.103 56.4328 55.103 54.2936C55.103 52.1544 56.4046 50.6853 58.5309 50.6853C60.335 50.6853 61.5592 51.742 61.6366 53.34H59.8453C59.7293 52.6441 59.2783 52.1673 58.5567 52.1673C57.6417 52.1673 57.036 52.9405 57.036 54.2678C57.036 55.621 57.6288 56.3942 58.5567 56.3942C59.2268 56.3942 59.7293 55.9818 59.8453 55.2344H61.6366C61.5464 56.8194 60.3866 57.9148 58.5309 57.9148Z" fill="white"/>
<path d="M51.9979 57.7732V50.7757H53.9051V57.7732H51.9979ZM52.9515 49.8607C52.3716 49.8607 51.9077 49.4226 51.9077 48.8942C51.9077 48.3529 52.3716 47.9148 52.9515 47.9148C53.5185 47.9148 53.9825 48.3529 53.9825 48.8942C53.9825 49.4226 53.5185 49.8607 52.9515 49.8607Z" fill="white"/>
<path d="M50.8767 50.7756V52.206H49.4849V57.7731H47.5777V52.206H46.5854V50.7756H47.5777V50.2472C47.5777 48.7781 48.4669 48.0049 49.8715 48.0049C50.3097 48.0049 50.6705 48.0435 51.0056 48.1209V49.5642C50.735 49.5384 50.5288 49.5255 50.4257 49.5255C49.8071 49.5255 49.4849 49.7704 49.4849 50.3503V50.7756H50.8767Z" fill="white"/>
<path d="M43.7626 57.7732V50.7757H45.6698V57.7732H43.7626ZM44.7162 49.8607C44.1363 49.8607 43.6724 49.4226 43.6724 48.8942C43.6724 48.3529 44.1363 47.9148 44.7162 47.9148C45.2832 47.9148 45.7471 48.3529 45.7471 48.8942C45.7471 49.4226 45.2832 49.8607 44.7162 49.8607Z" fill="white"/>
<path d="M32.165 57.7731V50.7755H33.9821V51.9998H34.0594C34.3558 51.1879 35.0645 50.6853 36.0053 50.6853C36.9718 50.6853 37.6805 51.1879 37.9125 51.9998H37.9769C38.2733 51.2008 39.0594 50.6853 40.0903 50.6853C41.3919 50.6853 42.294 51.5487 42.294 53.0694V57.7731H40.3867V53.4431C40.3867 52.6441 39.9228 52.2575 39.2914 52.2575C38.5697 52.2575 38.1573 52.7601 38.1573 53.4946V57.7731H36.3017V53.3915C36.3017 52.6957 35.8635 52.2575 35.2192 52.2575C34.5748 52.2575 34.0723 52.773 34.0723 53.572V57.7731H32.165Z" fill="white"/>
<path d="M24.4717 55.8143C24.4717 54.255 25.7346 53.7395 27.0748 53.6622C27.5774 53.6299 28.5181 53.5848 28.8145 53.572V53.0049C28.8016 52.425 28.4021 52.0771 27.6933 52.0771C27.049 52.0771 26.6366 52.3735 26.5335 52.8503H24.7165C24.8325 51.6389 25.8892 50.6853 27.7449 50.6853C29.2655 50.6853 30.7088 51.3683 30.7088 53.0565V57.7731H28.9047V56.8066H28.8531C28.5052 57.4509 27.848 57.9019 26.8042 57.9019C25.464 57.9019 24.4717 57.2061 24.4717 55.8143ZM26.3016 55.7627C26.3016 56.304 26.7397 56.5875 27.3454 56.5875C28.2088 56.5875 28.8274 56.0076 28.8145 55.273V54.7575C28.5245 54.7704 27.7127 54.8155 27.3841 54.8478C26.7268 54.9122 26.3016 55.2215 26.3016 55.7627Z" fill="white"/>
<path d="M21.3789 51.4457C21.1212 50.5694 20.4124 50.0282 19.3944 50.0282C17.951 50.0282 16.9717 51.1364 16.9717 53.0952C16.9717 55.0669 17.9253 56.1881 19.4072 56.1881C20.741 56.1881 21.5335 55.4342 21.5593 54.255H19.5361V52.7988H23.4279V53.9587C23.4279 56.4072 21.7526 57.902 19.3944 57.902C16.7784 57.902 15 56.0721 15 53.121C15 50.0926 16.8943 48.3142 19.3557 48.3142C21.4562 48.3142 23.0799 49.6029 23.3377 51.4457H21.3789Z" fill="white"/>
<defs>
<linearGradient id="paint0_linear_650_999" x1="105.947" y1="54.7751" x2="1255.59" y2="54.7751" gradientUnits="userSpaceOnUse">
<stop stop-color="#3182F6"/>
<stop offset="1" stop-color="#A009FF"/>
</linearGradient>
<linearGradient id="paint1_linear_650_999" x1="-8.90174" y1="54.5569" x2="117.348" y2="54.5569" gradientUnits="userSpaceOnUse">
<stop stop-color="#2C25F0"/>
<stop offset="1" stop-color="#3182F6"/>
</linearGradient>
</defs>
</svg>
