<svg width="538" height="110" viewBox="0 0 538 110" fill="none" xmlns="http://www.w3.org/2000/svg">
<path d="M0 55.3493C0 25.2823 24.3741 0.908203 54.4411 0.908203H537.086V109.79H54.4412C24.3742 109.79 0 85.4163 0 55.3493V55.3493Z" fill="url(#paint0_linear_467_1364)"/>
<path d="M0 55.3493C0 25.2823 24.3741 0.908203 54.4411 0.908203V0.908203C84.5081 0.908203 108.882 25.2823 108.882 55.3493V55.3493C108.882 85.4163 84.5081 109.79 54.4411 109.79V109.79C24.3741 109.79 0 85.4163 0 55.3493V55.3493Z" fill="url(#paint1_linear_467_1364)"/>
<path d="M95.8053 56.2787V61.1283H93.5195V52.7419H95.6972V54.2091H95.7899C96.176 53.2361 97.0718 52.6338 98.3074 52.6338C100.053 52.6338 101.211 53.823 101.196 55.7845V61.1283H98.9251V56.1861C98.9251 55.1513 98.3537 54.5335 97.4116 54.5335C96.454 54.5335 95.8053 55.1667 95.8053 56.2787Z" fill="white"/>
<path d="M87.9593 61.2982C85.4264 61.2982 83.8511 59.553 83.8511 56.9583C83.8511 54.3636 85.4264 52.6338 87.9593 52.6338C90.4923 52.6338 92.0831 54.3636 92.0831 56.9583C92.0831 59.553 90.4923 61.2982 87.9593 61.2982ZM87.9748 59.5221C89.1486 59.5221 89.7509 58.4255 89.7509 56.9583C89.7509 55.4756 89.1486 54.379 87.9748 54.379C86.7856 54.379 86.1678 55.4756 86.1678 56.9583C86.1678 58.4255 86.7856 59.5221 87.9748 59.5221Z" fill="white"/>
<path d="M80.1286 61.1281V52.7417H82.4144V61.1281H80.1286ZM81.2715 51.6451C80.5765 51.6451 80.0205 51.12 80.0205 50.4868C80.0205 49.8381 80.5765 49.313 81.2715 49.313C81.9511 49.313 82.5071 49.8381 82.5071 50.4868C82.5071 51.12 81.9511 51.6451 81.2715 51.6451Z" fill="white"/>
<path d="M78.6924 52.7417V54.456H77.117V58.5489C77.117 59.213 77.4413 59.3829 77.9047 59.3983C78.1363 59.3983 78.5379 59.3829 78.8159 59.352V61.159C78.5688 61.2053 78.1672 61.2362 77.5958 61.2362C75.9432 61.2362 74.8158 60.4949 74.8312 58.8732V54.456H73.6729V52.7417H74.8312V50.7339H77.117V52.7417H78.6924Z" fill="white"/>
<path d="M65.0547 58.7807C65.0547 56.912 66.5683 56.2942 68.1745 56.2015C68.7768 56.1629 69.9043 56.1088 70.2595 56.0934V55.4138C70.2441 54.7188 69.7653 54.3018 68.9158 54.3018C68.1436 54.3018 67.6494 54.657 67.5258 55.2285H65.3481C65.4871 53.7767 66.7536 52.6338 68.9776 52.6338C70.8001 52.6338 72.5299 53.4524 72.5299 55.4756V61.1283H70.3676V59.97H70.3059C69.8889 60.7422 69.1012 61.2828 67.8502 61.2828C66.2439 61.2828 65.0547 60.4488 65.0547 58.7807ZM67.2478 58.719C67.2478 59.3676 67.7729 59.7074 68.4988 59.7074C69.5336 59.7074 70.275 59.0124 70.2595 58.1321V57.5143C69.912 57.5297 68.939 57.5838 68.5452 57.6224C67.7575 57.6996 67.2478 58.0703 67.2478 58.719Z" fill="white"/>
<path d="M60.3138 61.2982C57.75 61.2982 56.2056 59.5221 56.2056 56.9583C56.2056 54.3945 57.7655 52.6338 60.3138 52.6338C62.4761 52.6338 63.9433 53.9002 64.036 55.8154H61.8892C61.7502 54.9814 61.2096 54.4099 60.3447 54.4099C59.2482 54.4099 58.5223 55.3366 58.5223 56.9274C58.5223 58.5491 59.2327 59.4758 60.3447 59.4758C61.1478 59.4758 61.7502 58.9815 61.8892 58.0857H64.036C63.9279 59.9854 62.5379 61.2982 60.3138 61.2982Z" fill="white"/>
<path d="M52.4836 61.1281V52.7417H54.7694V61.1281H52.4836ZM53.6265 51.6451C52.9315 51.6451 52.3755 51.12 52.3755 50.4868C52.3755 49.8381 52.9315 49.313 53.6265 49.313C54.3061 49.313 54.8621 49.8381 54.8621 50.4868C54.8621 51.12 54.3061 51.6451 53.6265 51.6451Z" fill="white"/>
<path d="M51.1396 52.742V54.4563H49.4716V61.1284H47.1858V54.4563H45.9966V52.742H47.1858V52.1088C47.1858 50.3481 48.2515 49.4214 49.935 49.4214C50.4601 49.4214 50.8925 49.4677 51.2941 49.5604V51.2902C50.9698 51.2593 50.7226 51.2439 50.5991 51.2439C49.8577 51.2439 49.4716 51.5373 49.4716 52.2323V52.742H51.1396Z" fill="white"/>
<path d="M42.614 61.1281V52.7417H44.8998V61.1281H42.614ZM43.7569 51.6451C43.0619 51.6451 42.5059 51.12 42.5059 50.4868C42.5059 49.8381 43.0619 49.313 43.7569 49.313C44.4364 49.313 44.9924 49.8381 44.9924 50.4868C44.9924 51.12 44.4364 51.6451 43.7569 51.6451Z" fill="white"/>
<path d="M28.7139 61.1283V52.7419H30.8916V54.2091H30.9842C31.3395 53.2361 32.1889 52.6338 33.3164 52.6338C34.4747 52.6338 35.3242 53.2361 35.6022 54.2091H35.6794C36.0346 53.2516 36.9767 52.6338 38.2123 52.6338C39.7722 52.6338 40.8533 53.6686 40.8533 55.491V61.1283H38.5675V55.9389C38.5675 54.9814 38.0115 54.518 37.2547 54.518C36.3898 54.518 35.8956 55.1204 35.8956 56.0007V61.1283H33.6716V55.8772C33.6716 55.0432 33.1465 54.518 32.3742 54.518C31.602 54.518 30.9997 55.1358 30.9997 56.0934V61.1283H28.7139Z" fill="white"/>
<path d="M19.4937 58.7807C19.4937 56.912 21.0072 56.2942 22.6135 56.2015C23.2158 56.1629 24.3433 56.1088 24.6985 56.0934V55.4138C24.683 54.7188 24.2043 54.3018 23.3548 54.3018C22.5826 54.3018 22.0883 54.657 21.9648 55.2285H19.7871C19.9261 53.7767 21.1926 52.6338 23.4166 52.6338C25.2391 52.6338 26.9688 53.4524 26.9688 55.4756V61.1283H24.8066V59.97H24.7448C24.3278 60.7422 23.5401 61.2828 22.2891 61.2828C20.6829 61.2828 19.4937 60.4488 19.4937 58.7807ZM21.6868 58.719C21.6868 59.3676 22.2119 59.7074 22.9378 59.7074C23.9726 59.7074 24.7139 59.0124 24.6985 58.1321V57.5143C24.351 57.5297 23.378 57.5838 22.9841 57.6224C22.1965 57.6996 21.6868 58.0703 21.6868 58.719Z" fill="white"/>
<path d="M15.7867 53.5445C15.4778 52.4943 14.6283 51.8456 13.4082 51.8456C11.6784 51.8456 10.5046 53.1739 10.5046 55.5215C10.5046 57.8845 11.6475 59.2282 13.4237 59.2282C15.0222 59.2282 15.972 58.3247 16.0029 56.9115H13.5781V55.1662H18.2424V56.5562C18.2424 59.4907 16.2346 61.2823 13.4082 61.2823C10.273 61.2823 8.1416 59.0892 8.1416 55.5523C8.1416 51.9229 10.412 49.7915 13.3619 49.7915C15.8794 49.7915 17.8254 51.336 18.1343 53.5445H15.7867Z" fill="white"/>
<defs>
<linearGradient id="paint0_linear_467_1364" x1="105.947" y1="55.6833" x2="1255.59" y2="55.6833" gradientUnits="userSpaceOnUse">
<stop stop-color="#3182F6"/>
<stop offset="1" stop-color="#A009FF"/>
</linearGradient>
<linearGradient id="paint1_linear_467_1364" x1="-8.90174" y1="55.4651" x2="117.348" y2="55.4651" gradientUnits="userSpaceOnUse">
<stop stop-color="#2C25F0"/>
<stop offset="1" stop-color="#3182F6"/>
</linearGradient>
</defs>
</svg>
