<svg width="728" height="109" viewBox="0 0 728 109" fill="none" xmlns="http://www.w3.org/2000/svg">
<path d="M0 54.4411C0 24.3741 24.3741 0 54.4411 0H727.086V108.882H54.4411C24.3741 108.882 0 84.5081 0 54.4411Z" fill="url(#paint0_linear_650_999)"/>
<path d="M0 54.4411C0 24.3741 24.3741 0 54.4411 0C84.5081 0 108.882 24.3741 108.882 54.4411C108.882 84.5081 84.5081 108.882 54.4411 108.882C24.3741 108.882 0 84.5081 0 54.4411Z" fill="url(#paint1_linear_650_999)"/>
<path d="M94.7735 54.889V59.7448H92.4849V51.3478H94.6653V52.8168H94.7581C95.1447 51.8426 96.0416 51.2395 97.2787 51.2395C99.0261 51.2395 100.186 52.4302 100.17 54.3942V59.7448H97.8973V54.7963C97.8973 53.7602 97.3251 53.1416 96.3818 53.1416C95.423 53.1416 94.7735 53.7756 94.7735 54.889Z" fill="white"/>
<path d="M86.9181 59.9149C84.382 59.9149 82.8047 58.1675 82.8047 55.5695C82.8047 52.9715 84.382 51.2395 86.9181 51.2395C89.4542 51.2395 91.047 52.9715 91.047 55.5695C91.047 58.1675 89.4542 59.9149 86.9181 59.9149ZM86.9336 58.1365C88.1088 58.1365 88.7119 57.0386 88.7119 55.5695C88.7119 54.0849 88.1088 52.987 86.9336 52.987C85.7429 52.987 85.1243 54.0849 85.1243 55.5695C85.1243 57.0386 85.7429 58.1365 86.9336 58.1365Z" fill="white"/>
<path d="M79.0765 59.7449V51.3478H81.3652V59.7449H79.0765ZM80.2208 50.2499C79.525 50.2499 78.9683 49.7241 78.9683 49.0901C78.9683 48.4406 79.525 47.9148 80.2208 47.9148C80.9013 47.9148 81.458 48.4406 81.458 49.0901C81.458 49.7241 80.9013 50.2499 80.2208 50.2499Z" fill="white"/>
<path d="M77.6391 51.3477V53.0643H76.0618V57.1623C76.0618 57.8272 76.3865 57.9973 76.8504 58.0128C77.0824 58.0128 77.4844 57.9973 77.7628 57.9664V59.7757C77.5154 59.8221 77.1133 59.853 76.5411 59.853C74.8865 59.853 73.7576 59.1108 73.7731 57.487V53.0643H72.6133V51.3477H73.7731V49.3374H76.0618V51.3477H77.6391Z" fill="white"/>
<path d="M63.9844 57.3942C63.9844 55.5231 65.4998 54.9045 67.1081 54.8117C67.7112 54.7731 68.8401 54.7189 69.1957 54.7035V54.0231C69.1803 53.3272 68.7009 52.9096 67.8504 52.9096C67.0772 52.9096 66.5823 53.2653 66.4586 53.8375H64.2782C64.4174 52.3839 65.6854 51.2395 67.9122 51.2395C69.737 51.2395 71.469 52.0591 71.469 54.0849V59.7448H69.304V58.585H69.2421C68.8246 59.3582 68.0359 59.8994 66.7834 59.8994C65.1751 59.8994 63.9844 59.0644 63.9844 57.3942ZM66.1803 57.3324C66.1803 57.9819 66.706 58.3221 67.4329 58.3221C68.4689 58.3221 69.2112 57.6262 69.1957 56.7447V56.1262C68.8478 56.1416 67.8736 56.1958 67.4792 56.2344C66.6906 56.3118 66.1803 56.6829 66.1803 57.3324Z" fill="white"/>
<path d="M59.237 59.9149C56.6699 59.9149 55.1235 58.1365 55.1235 55.5695C55.1235 53.0024 56.6854 51.2395 59.237 51.2395C61.4019 51.2395 62.871 52.5076 62.9638 54.4251H60.8143C60.6751 53.5901 60.1339 53.0179 59.2679 53.0179C58.1699 53.0179 57.4431 53.9457 57.4431 55.5385C57.4431 57.1623 58.1545 58.0901 59.2679 58.0901C60.072 58.0901 60.6751 57.5953 60.8143 56.6984H62.9638C62.8555 58.6004 61.4638 59.9149 59.237 59.9149Z" fill="white"/>
<path d="M51.3978 59.7449V51.3478H53.6865V59.7449H51.3978ZM52.5421 50.2499C51.8463 50.2499 51.2896 49.7241 51.2896 49.0901C51.2896 48.4406 51.8463 47.9148 52.5421 47.9148C53.2226 47.9148 53.7793 48.4406 53.7793 49.0901C53.7793 49.7241 53.2226 50.2499 52.5421 50.2499Z" fill="white"/>
<path d="M50.0524 51.3477V53.0643H48.3822V59.7448H46.0936V53.0643H44.9028V51.3477H46.0936V50.7137C46.0936 48.9508 47.1606 48.0229 48.8462 48.0229C49.3719 48.0229 49.8049 48.0693 50.207 48.1621V49.8941C49.8822 49.8632 49.6348 49.8477 49.5111 49.8477C48.7688 49.8477 48.3822 50.1415 48.3822 50.8374V51.3477H50.0524Z" fill="white"/>
<path d="M41.515 59.7449V51.3478H43.8037V59.7449H41.515ZM42.6593 50.2499C41.9634 50.2499 41.4067 49.7241 41.4067 49.0901C41.4067 48.4406 41.9634 47.9148 42.6593 47.9148C43.3397 47.9148 43.8964 48.4406 43.8964 49.0901C43.8964 49.7241 43.3397 50.2499 42.6593 50.2499Z" fill="white"/>
<path d="M27.5981 59.7448V51.3478H29.7786V52.8168H29.8714C30.227 51.8426 31.0775 51.2395 32.2064 51.2395C33.3662 51.2395 34.2167 51.8426 34.4951 52.8168H34.5724C34.9281 51.8581 35.8714 51.2395 37.1085 51.2395C38.6704 51.2395 39.7529 52.2756 39.7529 54.1004V59.7448H37.4642V54.5488C37.4642 53.5901 36.9075 53.1261 36.1497 53.1261C35.2838 53.1261 34.7889 53.7292 34.7889 54.6107V59.7448H32.5621V54.487C32.5621 53.6519 32.0363 53.1261 31.2631 53.1261C30.4899 53.1261 29.8868 53.7447 29.8868 54.7035V59.7448H27.5981Z" fill="white"/>
<path d="M18.3662 57.3942C18.3662 55.5231 19.8817 54.9045 21.4899 54.8117C22.093 54.7731 23.2219 54.7189 23.5776 54.7035V54.0231C23.5621 53.3272 23.0827 52.9096 22.2322 52.9096C21.459 52.9096 20.9642 53.2653 20.8405 53.8375H18.66C18.7992 52.3839 20.0673 51.2395 22.2941 51.2395C24.1188 51.2395 25.8508 52.0591 25.8508 54.0849V59.7448H23.6858V58.585H23.624C23.2064 59.3582 22.4178 59.8994 21.1652 59.8994C19.5569 59.8994 18.3662 59.0644 18.3662 57.3942ZM20.5621 57.3324C20.5621 57.9819 21.0879 58.3221 21.8147 58.3221C22.8508 58.3221 23.593 57.6262 23.5776 56.7447V56.1262C23.2296 56.1416 22.2554 56.1958 21.8611 56.2344C21.0724 56.3118 20.5621 56.6829 20.5621 57.3324Z" fill="white"/>
<path d="M14.6547 52.1518C14.3454 51.1003 13.4949 50.4508 12.2732 50.4508C10.5413 50.4508 9.36599 51.7807 9.36599 54.1313C9.36599 56.4973 10.5103 57.8427 12.2887 57.8427C13.8892 57.8427 14.8403 56.938 14.8712 55.523H12.4433V53.7756H17.1135V55.1674C17.1135 58.1055 15.1031 59.8994 12.2732 59.8994C9.13403 59.8994 7 57.7035 7 54.1622C7 50.5281 9.27321 48.394 12.2268 48.394C14.7475 48.394 16.6959 49.9405 17.0052 52.1518H14.6547Z" fill="white"/>
<defs>
<linearGradient id="paint0_linear_650_999" x1="105.947" y1="54.7751" x2="1255.59" y2="54.7751" gradientUnits="userSpaceOnUse">
<stop stop-color="#3182F6"/>
<stop offset="1" stop-color="#A009FF"/>
</linearGradient>
<linearGradient id="paint1_linear_650_999" x1="-8.90174" y1="54.5569" x2="117.348" y2="54.5569" gradientUnits="userSpaceOnUse">
<stop stop-color="#2C25F0"/>
<stop offset="1" stop-color="#3182F6"/>
</linearGradient>
</defs>
</svg>
