<svg width="622" height="161" viewBox="0 0 622 161" fill="none" xmlns="http://www.w3.org/2000/svg">
<rect y="0.790039" width="622" height="160" rx="25" fill="url(#paint0_linear_723_991)"/>
<path d="M384.883 73.4647C384.883 70.4909 387.305 68.0801 390.292 68.0801H592.473C595.461 68.0801 597.883 70.4909 597.883 73.4647V97.6955C597.883 100.669 595.461 103.08 592.473 103.08H390.292C387.305 103.08 384.883 100.669 384.883 97.6955V73.4647Z" fill="white"/>
<path d="M373.246 86.1412C372.762 85.8967 372.762 85.2634 373.246 85.019L384.836 79.1617C385.306 78.9242 385.883 79.2335 385.883 79.7228L385.883 91.4374C385.883 91.9266 385.306 92.236 384.836 91.9985L373.246 86.1412Z" fill="white"/>
<path d="M576.104 78.944V81.9691H577.974V83.5652H576.104V86.6815H574.158V78.944H576.104ZM572.228 79.7496C572.212 83.4132 569.902 85.891 565.752 86.9855L564.977 85.4502C568.078 84.6825 569.788 83.1472 570.115 81.3002H565.661V79.7496H572.228ZM576.104 87.1984V92.6101H567.059V87.1984H576.104ZM568.99 88.7641V91.0899H574.189V88.7641H568.99Z" fill="url(#paint1_linear_723_991)"/>
<path d="M558.76 80.2513V89.4026H552.117V80.2513H558.76ZM554.033 81.7714V87.8672H556.83V81.7714H554.033ZM562.591 78.944V84.1581H564.628V85.7694H562.591V92.7773H560.645V78.944H562.591Z" fill="url(#paint2_linear_723_991)"/>
<path d="M538.576 79.3544C540.674 79.3544 542.27 80.6617 542.27 82.5163C542.27 84.3405 540.674 85.663 538.576 85.663C536.433 85.663 534.852 84.3405 534.852 82.5163C534.852 80.6617 536.433 79.3544 538.576 79.3544ZM538.576 80.9354C537.512 80.9354 536.721 81.513 536.737 82.5163C536.721 83.5044 537.512 84.0973 538.576 84.0973C539.625 84.0973 540.4 83.5044 540.4 82.5163C540.4 81.513 539.625 80.9354 538.576 80.9354ZM546.222 78.944V85.8758H544.276V78.944H546.222ZM546.222 86.4535V90.2082H538.865V91.1051H546.602V92.6253H536.965V88.7945H544.292V87.9432H536.934V86.4535H546.222Z" fill="url(#paint3_linear_723_991)"/>
<path d="M529.088 91.5307C526.336 91.5307 524.664 89.4785 524.664 85.8758C524.664 82.273 526.336 80.2208 529.088 80.2208C531.839 80.2208 533.511 82.2882 533.511 85.8758C533.511 89.4937 531.839 91.5307 529.088 91.5307ZM529.088 89.6457C530.365 89.6457 531.185 88.4144 531.17 85.8758C531.17 83.3675 530.365 82.0906 529.088 82.0906C527.811 82.0906 527.005 83.3675 527.005 85.8758C526.99 88.4144 527.811 89.6457 529.088 89.6457Z" fill="url(#paint4_linear_723_991)"/>
<path d="M518.946 91.5307C516.529 91.5307 514.796 90.193 514.75 88.2776H517.061C517.106 89.0985 517.897 89.6457 518.961 89.6457C520.055 89.6457 520.846 89.0225 520.831 88.1408C520.846 87.2439 520.04 86.6054 518.748 86.6054H517.729V84.9181H518.748C519.827 84.9181 520.587 84.3252 520.587 83.4587C520.587 82.6227 519.949 82.045 518.976 82.045C518.003 82.045 517.197 82.5922 517.167 83.4283H514.978C515.008 81.5281 516.726 80.2208 518.976 80.2208C521.271 80.2208 522.807 81.5738 522.792 83.3219C522.807 84.5532 521.94 85.4349 520.709 85.6477V85.7389C522.32 85.9366 523.217 86.9247 523.202 88.2928C523.217 90.1778 521.423 91.5307 518.946 91.5307Z" fill="url(#paint5_linear_723_991)"/>
<path d="M509.095 78.9591V86.9703H507.15V86.5294H504.641V85.3589H507.15V78.9591H509.095ZM497.375 83.8236C500.05 83.8388 503.364 83.8084 506.329 83.5347L506.42 84.7357C505.196 84.9029 503.942 85.0093 502.711 85.0701V87.0007H500.795V85.1461C499.663 85.1765 498.576 85.1765 497.573 85.1613L497.375 83.8236ZM509.095 87.3807V90.6186H501.312V91.3331H509.415V92.686H499.412V89.3721H507.165V88.688H499.351V87.3807H509.095ZM501.829 79.1415C503.881 79.1415 505.295 79.9776 505.31 81.2241C505.295 82.5162 503.881 83.2915 501.829 83.2915C499.716 83.2915 498.317 82.5162 498.317 81.2241C498.317 79.9776 499.716 79.1415 501.829 79.1415ZM501.829 80.4184C500.78 80.4032 500.142 80.7225 500.157 81.2241C500.142 81.741 500.78 82.0298 501.829 82.0298C502.848 82.0298 503.501 81.741 503.501 81.2241C503.501 80.7225 502.848 80.4032 501.829 80.4184Z" fill="url(#paint6_linear_723_991)"/>
<path d="M492.087 91.5307C489.807 91.5155 487.648 90.1626 487.648 86.1342C487.648 82.425 489.427 80.2208 492.178 80.2208C494.398 80.2208 495.903 81.6194 496.131 83.4283H493.881C493.699 82.6531 493.06 82.1818 492.178 82.1818C490.689 82.1818 489.898 83.5347 489.883 85.6933H489.989C490.491 84.7205 491.586 84.1428 492.802 84.1428C494.778 84.1428 496.252 85.6325 496.252 87.6999C496.252 89.9345 494.565 91.5459 492.087 91.5307ZM492.072 89.7217C493.197 89.7217 494.033 88.8704 494.033 87.7607C494.033 86.6662 493.227 85.7998 492.102 85.7998C490.978 85.7998 490.126 86.6814 490.111 87.7607C490.126 88.84 490.947 89.7217 492.072 89.7217Z" fill="url(#paint7_linear_723_991)"/>
<path d="M482.983 86.3623V87.9128H470.32V86.3623H475.686V85.359H471.901V81.5586H479.502V80.7073H471.871V79.2024H481.448V82.9571H473.832V83.8692H481.706V85.359H477.617V86.3623H482.983ZM481.524 88.7033V92.7165H479.563V90.2234H471.734V88.7033H481.524Z" fill="url(#paint8_linear_723_991)"/>
<path d="M469.53 85.2678V86.8488H456.883V85.2678H469.53ZM468.086 82.7596V84.2949H458.418V79.3088H468.01V80.8746H460.349V82.7596H468.086ZM463.176 87.6848C466.171 87.6848 467.98 88.5969 467.995 90.2235C467.98 91.8652 466.171 92.7773 463.176 92.7773C460.151 92.7773 458.327 91.8652 458.327 90.2235C458.327 88.5969 460.151 87.6848 463.176 87.6848ZM463.176 89.1594C461.261 89.1594 460.288 89.5242 460.303 90.2235C460.288 90.9531 461.261 91.3028 463.176 91.3028C465.046 91.3028 466.034 90.9531 466.049 90.2235C466.034 89.5242 465.046 89.1594 463.176 89.1594Z" fill="url(#paint9_linear_723_991)"/>
<path d="M451.501 78.9591V89.0529H449.571V84.0972H447.306V82.5314H449.571V78.9591H451.501ZM451.836 90.9834V92.534H442.319V88.1712H444.265V90.9834H451.836ZM445.071 81.665C445.071 83.2611 446.044 84.9789 448.248 85.6933L447.29 87.2287C445.755 86.7346 444.706 85.7237 444.098 84.462C443.49 85.8606 442.388 86.9703 440.754 87.5175L439.766 85.9366C442.046 85.2221 443.08 83.4131 443.095 81.6498V81.4369H440.313V79.8864H447.822V81.4369H445.071V81.665Z" fill="url(#paint10_linear_723_991)"/>
<path d="M431.482 82.0755C431.467 84.5533 432.531 87.0615 434.751 88.1256L433.58 89.6762C432.098 88.9465 431.102 87.5784 430.525 85.9062C429.924 87.7 428.853 89.1669 427.287 89.9346L426.086 88.3689C428.427 87.2896 429.537 84.6445 429.537 82.0755V80.0081H431.482V82.0755ZM437.305 78.944V84.2797H439.342V85.9214H437.305V92.7773H435.359V78.944H437.305Z" fill="url(#paint11_linear_723_991)"/>
<path d="M420.883 85.5801C420.883 89.7222 417.525 93.0801 413.383 93.0801C409.241 93.0801 405.883 89.7222 405.883 85.5801C405.883 81.4379 409.241 78.0801 413.383 78.0801C417.525 78.0801 420.883 81.4379 420.883 85.5801Z" fill="url(#paint12_linear_723_991)"/>
<path d="M411.554 90.0801L409.883 83.0801H411.207L412.192 87.9723H412.24L413.314 83.0801H414.452L415.526 87.982H415.574L416.559 83.0801H417.883L416.212 90.0801H415.025L413.911 85.4585H413.863L412.741 90.0801H411.554Z" fill="white"/>
<path d="M418.883 85.0801V87.0801H408.883V85.0801H418.883Z" fill="white"/>
<path d="M357.002 74.4867V95.5374H354.018V74.4867H357.002ZM350.687 76.6843C350.687 83.0689 348.443 88.3663 340.925 91.9287L339.375 89.5692C344.811 87.0014 347.205 83.6703 347.68 78.9976H340.508V76.6843H350.687Z" fill="white"/>
<path d="M335.53 74.4867V79.2751H338.376V81.7041H335.53V86.7701H332.569V74.4867H335.53ZM322.391 75.7127V78.3961H326.694V75.7127H329.655V85.7291H319.453V75.7127H322.391ZM322.391 83.4159H326.694V80.6862H322.391V83.4159ZM335.646 87.7186V90.0549H324.704V92.9465H336.039V95.2598H321.766V87.7186H335.646Z" fill="white"/>
<path d="M315.991 74.5098V89.6385H313.03V74.5098H315.991ZM316.546 92.8077V95.1672H301.88V88.1117H304.864V92.8077H316.546ZM304.448 75.8515C307.686 75.8515 310.208 78.0722 310.208 81.1488C310.208 84.2949 307.686 86.4925 304.448 86.4925C301.209 86.4925 298.688 84.2949 298.688 81.1488C298.688 78.0722 301.209 75.8515 304.448 75.8515ZM304.448 78.4192C302.805 78.396 301.556 79.437 301.579 81.1488C301.556 82.9069 302.805 83.9247 304.448 83.9247C306.044 83.9247 307.293 82.9069 307.293 81.1488C307.293 79.437 306.044 78.396 304.448 78.4192Z" fill="white"/>
<path d="M294.585 74.4404V79.0207H297.43V81.3802H294.585V85.8448H291.624V74.4404H294.585ZM294.585 86.7007V92.0212H283.55V93.2241H295.186V95.3986H280.659V90.0087H291.647V88.8289H280.612V86.7007H294.585ZM290.374 76.0597V78.3036H277.883V76.0597H282.671V74.3479H285.609V76.0597H290.374ZM284.129 78.8125C287.275 78.8125 289.31 80.1542 289.31 82.2593C289.31 84.4106 287.275 85.706 284.129 85.706C280.983 85.706 278.901 84.4106 278.901 82.2593C278.901 80.1542 280.983 78.8125 284.129 78.8125ZM284.129 80.8944C282.671 80.8944 281.769 81.3802 281.792 82.2593C281.769 83.1614 282.671 83.6009 284.129 83.6009C285.586 83.6009 286.511 83.1614 286.511 82.2593C286.511 81.3802 285.586 80.8944 284.129 80.8944Z" fill="white"/>
<path d="M269.795 74.5098V90.4019H266.834V88.7363H262.809V86.7238H266.834V74.5098H269.795ZM270.258 92.8077V95.1672H254.574V88.8751H257.512V86.0761C255.627 86.157 253.834 86.1686 252.238 86.1686L251.891 83.8322C255.754 83.8091 260.959 83.7628 265.4 83.2076L265.562 85.3127C263.896 85.5903 262.173 85.7869 260.473 85.9141V89.9161H257.512V92.8077H270.258ZM258.738 75.2269C261.791 75.2037 263.989 76.7536 263.989 78.9975C263.989 81.2414 261.791 82.6987 258.738 82.6987C255.615 82.6987 253.441 81.2414 253.441 78.9975C253.441 76.7536 255.592 75.2037 258.738 75.2269ZM258.738 77.3782C257.234 77.3782 256.216 77.9565 256.24 78.9975C256.216 80.0153 257.234 80.5705 258.738 80.5705C260.149 80.5705 261.167 80.0153 261.19 78.9975C261.167 77.9565 260.149 77.3782 258.738 77.3782Z" fill="white"/>
<path d="M242.218 76.2216V86.3306H232.109V76.2216H242.218ZM235.024 78.5812V84.0173H239.304V78.5812H235.024ZM248.187 74.4867V80.5474H251.032V82.9764H248.187V89.8468H245.226V74.4867H248.187ZM248.95 92.8077V95.1673H234.538V88.3431H237.476V92.8077H248.95Z" fill="white"/>
<path d="M223.036 93.6405C218.849 93.6405 216.305 90.5176 216.305 85.0351C216.305 79.5527 218.849 76.4298 223.036 76.4298C227.223 76.4298 229.768 79.5758 229.768 85.0351C229.768 90.5407 227.223 93.6405 223.036 93.6405ZM223.036 90.772C224.979 90.772 226.229 88.8983 226.205 85.0351C226.205 81.2183 224.979 79.2751 223.036 79.2751C221.093 79.2751 219.867 81.2183 219.867 85.0351C219.844 88.8983 221.093 90.772 223.036 90.772Z" fill="white"/>
<path d="M212.652 76.6611V93.4092H209.159V79.9691H209.067L205.227 82.3749V79.2983L209.367 76.6611H212.652Z" fill="white"/>
<path d="M197.018 74.4867V95.5374H194.219V84.9658H192.183V94.5195H189.477V74.8337H192.183V82.6062H194.219V74.4867H197.018ZM187.256 76.9156V79.2983H182.375V88.2737C184.411 88.2622 186.215 88.1581 188.251 87.788L188.459 90.1937C185.891 90.6795 183.647 90.7489 180.871 90.7721H179.414V76.9156H187.256Z" fill="white"/>
<path d="M166.781 85.8679V89.0371C168.504 88.933 170.25 88.7711 171.893 88.5282L172.124 90.6795C167.451 91.5817 162.455 91.628 158.777 91.628L158.43 89.2453C160.014 89.2337 161.876 89.2222 163.843 89.1528V85.8679H166.781ZM171.129 76.9619V79.3445H166.827C167.023 81.3802 168.608 83.2887 171.777 84.0636L170.436 86.3537C167.972 85.7291 166.272 84.3643 165.323 82.6062C164.386 84.4453 162.709 85.8795 160.234 86.5157L158.846 84.2949C162.027 83.4506 163.565 81.4727 163.773 79.3445H159.517V76.9619H163.843V74.6718H166.781V76.9619H171.129ZM176.034 74.4867V95.5836H173.096V74.4867H176.034Z" fill="white"/>
<path d="M149.756 76.3142V78.3036C149.756 80.9407 149.756 83.9017 148.9 88.3663L145.939 88.0656C146.737 84.0868 146.772 81.1258 146.795 78.6506H134.396V76.3142H149.756ZM151.606 90.5639V92.9697H132.406V90.5639H139.277V83.3234H142.214V90.5639H151.606Z" fill="white"/>
<path d="M128.545 74.4867V82.7219H131.645V85.1508H128.545V95.5374H125.63V74.4867H128.545ZM124.196 77.6327V79.9923H111.82V77.6327H116.586V74.8106H119.547V77.6327H124.196ZM118.066 81.172C121.143 81.172 123.433 83.254 123.433 86.1918C123.433 89.1296 121.143 91.2116 118.066 91.2116C114.966 91.2116 112.676 89.1296 112.676 86.1918C112.676 83.254 114.966 81.172 118.066 81.172ZM118.066 83.5547C116.586 83.5778 115.498 84.5725 115.498 86.1918C115.498 87.8342 116.586 88.8058 118.066 88.7827C119.547 88.8058 120.611 87.8342 120.611 86.1918C120.611 84.5725 119.547 83.5778 118.066 83.5547Z" fill="white"/>
<path d="M110.707 85.7753V88.1349H91.4375V85.7753H99.6033V84.2486H93.8433V78.4654H105.41V77.17H93.797V74.8799H108.371V80.5936H96.7811V81.9816H108.764V84.2486H102.541V85.7753H110.707ZM108.486 89.3378V95.4448H105.502V91.651H93.5888V89.3378H108.486Z" fill="white"/>
<path d="M90.2307 84.1099V86.5157H70.9844V84.1099H90.2307ZM88.0331 80.293V82.6294H73.3208V75.0419H87.9175V77.4245H76.2586V80.293H88.0331ZM80.5613 87.7879C85.1184 87.7879 87.8712 89.1759 87.8943 91.6511C87.8712 94.1494 85.1184 95.5374 80.5613 95.5374C75.9579 95.5374 73.182 94.1494 73.182 91.6511C73.182 89.1759 75.9579 87.7879 80.5613 87.7879ZM80.5613 90.0318C77.6466 90.0318 76.1661 90.587 76.1892 91.6511C76.1661 92.7615 77.6466 93.2935 80.5613 93.2935C83.4066 93.2935 84.9102 92.7615 84.9333 91.6511C84.9102 90.587 83.4066 90.0318 80.5613 90.0318Z" fill="white"/>
<path d="M62.8037 74.5098V89.8698H59.8659V82.3286H56.4191V79.9459H59.8659V74.5098H62.8037ZM63.3126 92.8077V95.1672H48.8316V88.5281H51.7926V92.8077H63.3126ZM53.0186 78.6274C53.0186 81.0563 54.4991 83.6703 57.8533 84.7575L56.396 87.0939C54.0596 86.3421 52.4634 84.8038 51.5381 82.8838C50.6128 85.012 48.9357 86.7007 46.4489 87.5334L44.9453 85.1276C48.4152 84.0404 49.9882 81.2876 50.0114 78.6042V78.2804H45.7781V75.9209H57.2056V78.2804H53.0186V78.6274Z" fill="white"/>
<path d="M32.3371 79.252C32.3139 83.0226 33.9332 86.8395 37.3106 88.4588L35.5294 90.8183C33.274 89.708 31.7588 87.626 30.8797 85.0814C29.966 87.8111 28.3351 90.0434 25.9525 91.2116L24.125 88.8289C27.6874 87.1865 29.3761 83.1614 29.3761 79.252V76.106H32.3371V79.252ZM41.1969 74.4867V82.6062H44.2966V85.1046H41.1969V95.5374H38.2359V74.4867H41.1969Z" fill="white"/>
<path d="M129.368 58.5V68.7471H127.952V63.264H126.155V62.1067H127.952V58.5H129.368ZM125.986 59.3539V60.5112H122.638V62.2078H125.615V63.3314H122.638V65.264C124.054 65.2527 125.188 65.2022 126.458 65.0056L126.604 66.1516C125.11 66.3763 123.773 66.4325 122.02 66.4325H121.211V59.3539H125.986Z" fill="white"/>
<path d="M116.171 59.8483C116.171 61.3426 117.497 62.9493 119.811 63.3426L119.182 64.5336C117.401 64.1797 116.076 63.1797 115.418 61.8595C114.738 63.1684 113.413 64.1741 111.643 64.5336L111.025 63.3426C113.295 62.9381 114.632 61.3314 114.643 59.8483V59.1067H116.171V59.8483ZM120.149 66.2864V67.4662H110.789V66.2864H120.149Z" fill="white"/>
<path d="M110.195 64.3989V65.5225H106.195V68.7247H104.78V65.5225H100.836V64.3989H110.195ZM103.353 58.8933V60.0731H107.645V58.8933H109.083V63.4101H101.937V58.8933H103.353ZM103.353 62.2641H107.645V61.1967H103.353V62.2641Z" fill="white"/>
<path d="M93.5395 59.4101V62.0393H95.472V58.5H96.8877V68.7471H95.472V63.1966H93.5395V66.2303H88.6406V59.4101H93.5395ZM90.0676 60.5225V65.1179H92.135V60.5225H90.0676Z" fill="white"/>
<path d="M87.1059 58.5V64.3426H85.6677V61.6573H84.4879V60.5112H85.6677V58.5H87.1059ZM87.1059 64.8033V68.5898H79.9823V64.8033H87.1059ZM81.3868 65.9157V67.4662H85.6901V65.9157H81.3868ZM80.9599 59.6798C80.9599 60.5674 81.0835 61.6123 81.679 62.4213C82.2407 61.6236 82.3531 60.5786 82.3531 59.6798V59.073H83.7014V59.6798C83.7014 60.9382 84.0272 62.2752 85.2182 62.9943L84.4317 64.0056C83.7407 63.5955 83.3025 62.9494 83.0497 62.1854C82.7913 62.9831 82.37 63.6853 81.6677 64.1179C80.9542 63.6741 80.5273 62.9606 80.2857 62.1516C80.0217 62.9269 79.5891 63.5898 78.8925 64.0056L78.1172 62.9943C79.297 62.2752 79.6116 60.882 79.6116 59.6798V59.073H80.9599V59.6798Z" fill="white"/>
<path d="M71.7142 59.2303V60.3989H70.8715V63.0505C71.2929 63.028 71.7086 62.9943 72.1075 62.9494L72.2086 63.9943C70.13 64.3202 67.8266 64.3651 66.0401 64.3651L65.8828 63.1853L66.9839 63.1741V60.3989H66.1525V59.2303H71.7142ZM74.276 65.1629V68.7246H72.8378V66.3089H67.2423V65.1629H74.276ZM74.276 58.5V64.7584H72.8378V58.5H74.276ZM68.3547 63.1629L69.4895 63.1292V60.3989H68.3547V63.1629Z" fill="white"/>
<path d="M64.6346 58.5V68.7246H63.2638V58.5H64.6346ZM62.4998 58.6461V68.2527H61.1515V63.4213H60.3312C60.1964 65.4325 59.3425 66.646 58.0841 66.646C56.7358 66.646 55.8594 65.2303 55.8594 62.9269C55.8594 60.6348 56.7358 59.2303 58.0841 59.2303C59.3144 59.2303 60.1571 60.3764 60.32 62.2865H61.1515V58.6461H62.4998ZM58.0841 60.5786C57.511 60.5786 57.174 61.3651 57.1852 62.9269C57.174 64.4999 57.511 65.2752 58.0841 65.264C58.6683 65.2752 59.0166 64.4999 59.0166 62.9269C59.0166 61.3651 58.6683 60.5786 58.0841 60.5786Z" fill="white"/>
<path d="M49.2319 67.8033C47.5353 67.8033 46.2993 66.8033 46.2656 65.3988H47.9061C47.9398 66.0392 48.524 66.4662 49.2319 66.4662C50.0746 66.4662 50.6701 65.8707 50.6701 65.028C50.6701 64.1628 50.0633 63.5673 49.2094 63.5561C48.6027 63.5561 48.1757 63.7808 47.9285 64.2415H46.4005L46.8387 59.5562H51.8498V60.9382H48.2319L48.0072 62.9943H48.0746C48.378 62.5898 48.9847 62.3089 49.7038 62.3089C51.1982 62.3089 52.3105 63.4213 52.3105 64.9831C52.3105 66.6235 51.0633 67.8033 49.2319 67.8033Z" fill="white"/>
<path d="M39.2194 67.691L39.2081 66.4663L42.1294 63.7809C42.8935 63.0506 43.298 62.6011 43.298 61.9607C43.298 61.2416 42.7474 60.7921 42.0058 60.7921C41.2418 60.7921 40.7474 61.2753 40.7474 62.0506H39.1407C39.1295 60.4551 40.3092 59.4438 42.0283 59.4438C43.7699 59.4438 44.9272 60.4326 44.9272 61.8483C44.9272 62.7697 44.4777 63.5337 42.8036 65.0505L41.5676 66.2528V66.2977H45.0395V67.691H39.2194Z" fill="white"/>
<path d="M34.7774 67.8033C32.7438 67.8033 31.5078 66.2865 31.5078 63.6236C31.5078 60.9607 32.7438 59.4438 34.7774 59.4438C36.8111 59.4438 38.0471 60.9719 38.0471 63.6236C38.0471 66.2977 36.8111 67.8033 34.7774 67.8033ZM34.7774 66.4101C35.7213 66.4101 36.328 65.5 36.3168 63.6236C36.3168 61.7697 35.7213 60.8259 34.7774 60.8259C33.8336 60.8259 33.2381 61.7697 33.2381 63.6236C33.2269 65.5 33.8336 66.4101 34.7774 66.4101Z" fill="white"/>
<path d="M24.6022 67.691L24.5909 66.4663L27.5123 63.7809C28.2763 63.0506 28.6808 62.6011 28.6808 61.9607C28.6808 61.2416 28.1302 60.7921 27.3887 60.7921C26.6246 60.7921 26.1302 61.2753 26.1302 62.0506H24.5235C24.5123 60.4551 25.692 59.4438 27.4111 59.4438C29.1527 59.4438 30.31 60.4326 30.31 61.8483C30.31 62.7697 29.8605 63.5337 28.1864 65.0505L26.9505 66.2528V66.2977H30.4223V67.691H24.6022Z" fill="white"/>
<defs>
<linearGradient id="paint0_linear_723_991" x1="-0.562091" y1="80.79" x2="865.132" y2="80.79" gradientUnits="userSpaceOnUse">
<stop stop-color="#3182F6"/>
<stop offset="1" stop-color="#A009FF"/>
</linearGradient>
<linearGradient id="paint1_linear_723_991" x1="564.965" y1="85.777" x2="583.054" y2="85.777" gradientUnits="userSpaceOnUse">
<stop stop-color="#3182F6"/>
<stop offset="1" stop-color="#A009FF"/>
</linearGradient>
<linearGradient id="paint2_linear_723_991" x1="552.106" y1="85.8606" x2="569.518" y2="85.8606" gradientUnits="userSpaceOnUse">
<stop stop-color="#3182F6"/>
<stop offset="1" stop-color="#A009FF"/>
</linearGradient>
<linearGradient id="paint3_linear_723_991" x1="534.841" y1="85.7846" x2="551.195" y2="85.7846" gradientUnits="userSpaceOnUse">
<stop stop-color="#3182F6"/>
<stop offset="1" stop-color="#A009FF"/>
</linearGradient>
<linearGradient id="paint4_linear_723_991" x1="524.656" y1="85.8758" x2="536.97" y2="85.8758" gradientUnits="userSpaceOnUse">
<stop stop-color="#3182F6"/>
<stop offset="1" stop-color="#A009FF"/>
</linearGradient>
<linearGradient id="paint5_linear_723_991" x1="514.742" y1="85.8758" x2="526.506" y2="85.8758" gradientUnits="userSpaceOnUse">
<stop stop-color="#3182F6"/>
<stop offset="1" stop-color="#A009FF"/>
</linearGradient>
<linearGradient id="paint6_linear_723_991" x1="497.364" y1="85.8226" x2="514.121" y2="85.8226" gradientUnits="userSpaceOnUse">
<stop stop-color="#3182F6"/>
<stop offset="1" stop-color="#A009FF"/>
</linearGradient>
<linearGradient id="paint7_linear_723_991" x1="487.641" y1="85.8758" x2="499.616" y2="85.8758" gradientUnits="userSpaceOnUse">
<stop stop-color="#3182F6"/>
<stop offset="1" stop-color="#A009FF"/>
</linearGradient>
<linearGradient id="paint8_linear_723_991" x1="470.309" y1="85.9594" x2="487.933" y2="85.9594" gradientUnits="userSpaceOnUse">
<stop stop-color="#3182F6"/>
<stop offset="1" stop-color="#A009FF"/>
</linearGradient>
<linearGradient id="paint9_linear_723_991" x1="456.871" y1="86.0431" x2="474.474" y2="86.0431" gradientUnits="userSpaceOnUse">
<stop stop-color="#3182F6"/>
<stop offset="1" stop-color="#A009FF"/>
</linearGradient>
<linearGradient id="paint10_linear_723_991" x1="439.755" y1="85.7465" x2="456.554" y2="85.7465" gradientUnits="userSpaceOnUse">
<stop stop-color="#3182F6"/>
<stop offset="1" stop-color="#A009FF"/>
</linearGradient>
<linearGradient id="paint11_linear_723_991" x1="426.074" y1="85.8606" x2="444.523" y2="85.8606" gradientUnits="userSpaceOnUse">
<stop stop-color="#3182F6"/>
<stop offset="1" stop-color="#A009FF"/>
</linearGradient>
<linearGradient id="paint12_linear_723_991" x1="405.869" y1="85.5801" x2="426.746" y2="85.5801" gradientUnits="userSpaceOnUse">
<stop stop-color="#3182F6"/>
<stop offset="1" stop-color="#A009FF"/>
</linearGradient>
</defs>
</svg>
