<svg width="347" height="347" viewBox="0 0 347 347" fill="none" xmlns="http://www.w3.org/2000/svg">
<rect x="0.5" y="0.5" width="346" height="346" rx="20.5" fill="white" stroke="url(#paint0_linear_586_1017)"/>
<path d="M27.668 70V50.2031H35.4336C39.9453 50.2031 42.5156 52.9648 42.5156 56.875C42.5156 60.8398 39.8906 63.5469 35.3242 63.5469H31.7695V70H27.668ZM31.7695 60.2383H34.668C37.1016 60.2383 38.2773 58.8711 38.2773 56.875C38.2773 54.9062 37.1016 53.5664 34.668 53.5664H31.7695V60.2383ZM45.1133 70V50.2031H49.2148V66.6094H57.7461V70H45.1133ZM72.6484 50.2031H76.7773V63.0547C76.7773 67.4023 73.4961 70.2734 68.5742 70.2734C63.6523 70.2734 60.3984 67.4023 60.3984 63.0547V50.2031H64.5V62.7266C64.5 64.9961 66.1133 66.6641 68.5742 66.6641C71.0625 66.6641 72.6484 64.9961 72.6484 62.7266V50.2031ZM90.8594 55.8633C90.6953 54.3047 89.4375 53.375 87.4414 53.375C85.3633 53.375 84.2148 54.332 84.1875 55.6445C84.1602 57.0664 85.6641 57.7227 87.3594 58.1055L89.1367 58.543C92.5273 59.3086 95.0703 61.0312 95.0703 64.3398C95.0703 67.9766 92.2266 70.2734 87.4141 70.2734C82.6289 70.2734 79.5664 68.0586 79.457 63.8203H83.4492C83.5859 65.8164 85.1719 66.8281 87.3594 66.8281C89.5195 66.8281 90.9141 65.8164 90.9141 64.3398C90.9141 63 89.6836 62.3711 87.5234 61.8242L85.3633 61.3047C82.0273 60.4844 79.9766 58.8164 79.9766 55.918C79.9766 52.3086 83.1484 49.9297 87.4688 49.9297C91.8438 49.9297 94.7422 52.3633 94.7969 55.8633H90.8594Z" fill="url(#paint1_linear_586_1017)"/>
<path d="M25.0454 130.168L324.045 130.168" stroke="url(#paint2_linear_586_1017)"/>
<path d="M33.9126 238.162C33.7954 237.049 32.897 236.385 31.4712 236.385C29.9868 236.385 29.1665 237.068 29.147 238.006C29.1274 239.021 30.2017 239.49 31.4126 239.764L32.6821 240.076C35.104 240.623 36.9204 241.854 36.9204 244.217C36.9204 246.814 34.8892 248.455 31.4517 248.455C28.0337 248.455 25.8462 246.873 25.7681 243.846H28.6196C28.7173 245.271 29.8501 245.994 31.4126 245.994C32.9556 245.994 33.9517 245.271 33.9517 244.217C33.9517 243.26 33.0728 242.811 31.5298 242.42L29.9868 242.049C27.604 241.463 26.1392 240.271 26.1392 238.201C26.1392 235.623 28.4048 233.924 31.4907 233.924C34.6157 233.924 36.686 235.662 36.7251 238.162H33.9126ZM43.5415 248.475C40.2993 248.475 38.3462 246.229 38.3462 242.986C38.3462 239.744 40.3188 237.518 43.5415 237.518C46.2759 237.518 48.1313 239.119 48.2485 241.541H45.5337C45.3579 240.486 44.6743 239.764 43.5806 239.764C42.1938 239.764 41.2759 240.936 41.2759 242.947C41.2759 244.998 42.1743 246.17 43.5806 246.17C44.5962 246.17 45.3579 245.545 45.5337 244.412H48.2485C48.1118 246.814 46.354 248.475 43.5415 248.475ZM54.811 248.475C51.6079 248.475 49.6157 246.268 49.6157 242.986C49.6157 239.705 51.6079 237.518 54.811 237.518C58.0142 237.518 60.0259 239.705 60.0259 242.986C60.0259 246.268 58.0142 248.475 54.811 248.475ZM54.8306 246.229C56.3149 246.229 57.0767 244.842 57.0767 242.986C57.0767 241.111 56.3149 239.725 54.8306 239.725C53.3267 239.725 52.5454 241.111 52.5454 242.986C52.5454 244.842 53.3267 246.229 54.8306 246.229ZM61.8423 252.244V237.654H64.6938V239.432H64.811C65.2017 238.572 66.061 237.518 67.8384 237.518C70.1821 237.518 72.1353 239.334 72.1353 242.967C72.1353 246.502 70.2603 248.436 67.8384 248.436C66.1001 248.436 65.2212 247.439 64.811 246.561H64.7329V252.244H61.8423ZM64.6743 242.947C64.6743 244.861 65.4946 246.131 66.9204 246.131C68.4048 246.131 69.186 244.822 69.186 242.947C69.186 241.092 68.4048 239.822 66.9204 239.822C65.4751 239.822 64.6743 241.033 64.6743 242.947ZM78.8149 248.475C75.5728 248.475 73.5806 246.365 73.5806 243.006C73.5806 239.725 75.5923 237.518 78.6978 237.518C81.4907 237.518 83.6782 239.275 83.6782 242.889V243.709H76.4321C76.4321 245.311 77.3892 246.307 78.8735 246.307C79.8501 246.307 80.5532 245.877 80.8462 245.232H83.6001C83.1899 247.186 81.4321 248.475 78.8149 248.475ZM76.4321 241.893H80.9438C80.9438 240.604 80.0454 239.686 78.7563 239.686C77.4282 239.686 76.481 240.672 76.4321 241.893Z" fill="url(#paint3_linear_586_1017)"/>
<path d="M36.9829 270.671C36.1079 270.671 35.3892 269.953 35.3892 269.062C35.3892 268.187 36.1079 267.468 36.9829 267.468C37.8735 267.468 38.5923 268.187 38.5923 269.062C38.5923 269.953 37.8735 270.671 36.9829 270.671ZM61.061 260.953V268.359H59.8579V260.953H61.061ZM55.9829 268.953V272.156H52.5767V273.703C54.3735 273.695 55.522 273.656 56.9517 273.406L57.0767 274.343C55.4985 274.64 54.2642 274.656 52.2329 274.656H51.3892V271.25H54.7954V269.906H51.3735V268.953H55.9829ZM61.061 268.953V274.734H59.8579V269.968H56.6079V268.953H61.061ZM53.5454 261.593C55.6235 261.593 57.1392 262.875 57.1392 264.703C57.1392 266.546 55.6235 267.828 53.5454 267.828C51.436 267.828 49.936 266.546 49.936 264.703C49.936 262.875 51.436 261.593 53.5454 261.593ZM53.5454 262.625C52.1548 262.609 51.1235 263.484 51.1392 264.703C51.1235 265.937 52.1548 266.812 53.5454 266.812C54.9204 266.812 55.9517 265.937 55.9517 264.703C55.9517 263.484 54.9204 262.609 53.5454 262.625ZM74.9204 260.953V274.843H73.686V260.953H74.9204ZM70.811 262.468C70.7954 266.468 68.936 270 64.2798 272.234L63.6079 271.234C67.3657 269.453 69.2798 266.789 69.561 263.468H64.2485V262.468H70.811ZM92.7642 260.953V274.843H91.5298V260.953H92.7642ZM88.6548 262.468C88.6392 266.468 86.7798 270 82.1235 272.234L81.4517 271.234C85.2095 269.453 87.1235 266.789 87.4048 263.468H82.0923V262.468H88.6548ZM105.967 260.968V265.171H108.061V266.203H105.967V271.171H104.749V260.968H105.967ZM106.608 273.515V274.546H97.2798V270.171H98.4829V273.515H106.608ZM96.9048 261.968V264.312H100.952V261.968H102.17V268.828H95.7017V261.968H96.9048ZM96.9048 267.828H100.952V265.281H96.9048V267.828ZM124.42 260.968V268.859H123.202V260.968H124.42ZM124.42 269.656V274.656H115.389V269.656H124.42ZM116.592 270.656V273.656H123.217V270.656H116.592ZM117.874 262.875C117.858 264.843 119.358 266.578 121.405 267.296L120.78 268.234C119.17 267.679 117.889 266.507 117.264 264.984C116.647 266.609 115.35 267.89 113.686 268.5L113.061 267.531C115.17 266.796 116.624 264.921 116.624 262.875V261.515H117.874V262.875ZM137.561 260.953V266.875H139.78V267.906H137.561V274.843H136.327V260.953H137.561ZM126.608 271.14C127.741 271.14 129.061 271.14 130.436 271.093V269.546C128.819 269.367 127.764 268.421 127.78 267.046C127.764 265.484 129.092 264.468 131.061 264.468C132.999 264.468 134.342 265.484 134.358 267.046C134.342 268.421 133.272 269.367 131.67 269.562V271.046C132.967 270.984 134.272 270.882 135.483 270.703L135.561 271.64C132.53 272.156 129.249 272.187 126.811 272.187L126.608 271.14ZM135.233 262.656V263.656H126.858V262.656H130.436V260.984H131.67V262.656H135.233ZM131.061 265.421C129.78 265.421 128.92 266.078 128.92 267.046C128.92 268.015 129.78 268.64 131.061 268.625C132.327 268.64 133.186 268.015 133.186 267.046C133.186 266.078 132.327 265.421 131.061 265.421ZM151.592 262.25C151.592 264.203 154.155 265.906 156.655 266.25L156.155 267.25C153.999 266.89 151.866 265.695 150.967 263.984C150.077 265.703 147.936 266.89 145.78 267.25L145.28 266.25C147.78 265.906 150.327 264.234 150.327 262.25V261.453H151.592V262.25ZM157.28 268.781V269.812H151.53V274.843H150.327V269.812H144.624V268.781H157.28ZM162.28 261.609C164.147 261.593 165.561 262.679 165.827 264.281H168.733V260.953H169.967V268.406H168.733V265.296H165.842C165.592 266.937 164.163 268.031 162.28 268.031C160.17 268.031 158.67 266.718 158.67 264.812C158.67 262.921 160.17 261.593 162.28 261.609ZM162.28 262.656C160.858 262.64 159.842 263.531 159.842 264.812C159.842 266.078 160.858 267 162.28 267C163.686 267 164.686 266.078 164.686 264.812C164.686 263.531 163.686 262.64 162.28 262.656ZM162.249 269.109V270.875H168.733V269.109H169.967V274.656H161.014V269.109H162.249ZM162.249 273.656H168.733V271.859H162.249V273.656ZM178.608 261.859C181.514 261.859 183.686 263.375 183.686 265.671C183.686 267.984 181.514 269.5 178.608 269.484C175.702 269.5 173.53 267.984 173.53 265.671C173.53 263.375 175.702 261.859 178.608 261.859ZM178.608 262.859C176.374 262.843 174.686 264.015 174.702 265.671C174.686 267.359 176.374 268.484 178.608 268.484C180.827 268.484 182.499 267.359 182.499 265.671C182.499 264.015 180.827 262.843 178.608 262.859ZM184.999 271.968V273H172.28V271.968H184.999ZM198.827 272.093V273.125H186.108V272.093H191.827V269.468H187.702V265.187H196.014V263H187.67V261.984H197.217V266.187H188.92V268.453H197.545V269.468H193.03V272.093H198.827ZM215.405 260.953V268.156H214.202V260.953H215.405ZM215.42 268.859V272.187H207.624V273.687H215.92V274.687H206.42V271.234H214.202V269.843H206.389V268.859H215.42ZM208.874 262.421C208.858 264.39 210.358 266.125 212.42 266.796L211.811 267.75C210.186 267.195 208.889 266.031 208.264 264.531C207.639 266.148 206.334 267.421 204.686 268.015L204.045 267.046C206.139 266.312 207.624 264.468 207.624 262.421V261.359H208.874V262.421ZM224.374 261.812V265.703H219.592V267.859C222.202 267.859 223.545 267.82 225.186 267.515L225.311 268.531C223.577 268.812 222.17 268.859 219.358 268.859H218.374V264.765H223.155V262.796H218.342V261.812H224.374ZM229.295 260.968V269.5H228.061V266.921H225.295V265.906H228.061V264.031H225.295V263.031H228.061V260.968H229.295ZM229.295 270.25V274.875H228.061V271.25H219.936V270.25H229.295ZM246.467 260.968V265.171H248.545V266.203H246.467V270.281H245.233V260.968H246.467ZM235.561 268.859C236.67 268.859 237.967 268.859 239.327 268.812V267.796C237.709 267.656 236.67 266.898 236.67 265.75C236.67 264.484 237.967 263.703 239.92 263.703C241.889 263.703 243.17 264.484 243.186 265.75C243.17 266.89 242.155 267.648 240.545 267.796V268.765C241.842 268.703 243.155 268.601 244.374 268.421L244.483 269.312C241.467 269.843 238.139 269.859 235.702 269.859L235.561 268.859ZM246.467 270.968V274.843H245.233V271.953H237.264V270.968H246.467ZM243.952 262.234V263.171H235.905V262.234H239.327V260.843H240.545V262.234H243.952ZM239.92 264.578C238.639 264.562 237.842 265.015 237.842 265.75C237.842 266.468 238.639 266.968 239.92 266.953C241.202 266.968 242.014 266.468 242.014 265.75C242.014 265.015 241.202 264.562 239.92 264.578ZM254.155 263.593C254.155 265.406 255.514 267.031 257.561 267.703L256.983 268.671C255.381 268.148 254.17 267.039 253.577 265.64C252.975 267.234 251.694 268.476 250.03 269.078L249.405 268.093C251.483 267.39 252.936 265.593 252.952 263.593V263H249.78V261.984H257.28V263H254.155V263.593ZM260.311 260.953V264.5H262.405V265.531H260.311V269.343H259.092V260.953H260.311ZM255.858 269.718C258.717 269.718 260.436 270.656 260.436 272.25C260.436 273.875 258.717 274.812 255.858 274.812C252.999 274.812 251.249 273.875 251.249 272.25C251.249 270.656 252.999 269.718 255.858 269.718ZM255.858 270.703C253.764 270.703 252.467 271.281 252.483 272.25C252.467 273.25 253.764 273.828 255.858 273.828C257.967 273.828 259.249 273.25 259.249 272.25C259.249 271.281 257.967 270.703 255.858 270.703ZM36.9829 296.671C36.1079 296.671 35.3892 295.953 35.3892 295.062C35.3892 294.187 36.1079 293.468 36.9829 293.468C37.8735 293.468 38.5923 294.187 38.5923 295.062C38.5923 295.953 37.8735 296.671 36.9829 296.671ZM56.6235 288.921C56.6079 290.781 59.0923 292.359 61.5142 292.718L61.061 293.687C58.8892 293.32 56.7798 292.164 55.936 290.484C55.0923 292.164 52.9751 293.32 50.8423 293.687L50.3579 292.718C52.7642 292.359 55.2485 290.781 55.2485 288.921V288.828H50.7954V287.828H61.061V288.828H56.6235V288.921ZM62.2642 294.875V295.89H56.5142V300.843H55.311V295.89H49.6079V294.875H62.2642ZM75.311 286.953V300.843H74.1392V286.953H75.311ZM72.4985 287.296V300.125H71.3423V292.968H68.9985V291.968H71.3423V287.296H72.4985ZM67.5142 290.921C67.5142 293.328 68.5923 295.718 70.5142 296.828L69.7642 297.734C68.397 296.914 67.4282 295.414 66.9517 293.64C66.4438 295.554 65.436 297.187 64.0454 298.062L63.2642 297.14C65.2017 295.984 66.3267 293.453 66.3267 290.921V289.609H63.6548V288.593H70.061V289.609H67.5142V290.921ZM88.7642 286.953V294.218H87.5454V292.437H84.2642V293.656H77.9673V287.609H79.186V289.609H83.061V287.609H84.2642V288.953H87.5454V286.953H88.7642ZM88.7642 294.89V298.156H81.0142V299.671H89.2954V300.656H79.7954V297.218H87.5454V295.875H79.7642V294.89H88.7642ZM79.186 292.656H83.061V290.578H79.186V292.656ZM84.2642 291.468H87.5454V289.906H84.2642V291.468ZM100.108 289.25C100.108 291.062 101.624 292.671 103.686 293.296L103.061 294.265C101.436 293.75 100.131 292.632 99.4985 291.203C98.8892 292.734 97.5767 293.929 95.9204 294.5L95.2798 293.531C97.3735 292.875 98.8735 291.156 98.8735 289.25V288.89H95.6235V287.89H103.311V288.89H100.108V289.25ZM106.577 286.953V294.468H105.358V286.953H106.577ZM98.7954 295.156V296.843H105.358V295.156H106.577V300.656H97.5767V295.156H98.7954ZM98.7954 299.656H105.358V297.828H98.7954V299.656ZM121.592 293.453V294.468H115.858V295.953C118.483 296.062 120.03 296.921 120.045 298.39C120.03 299.937 118.249 300.812 115.264 300.812C112.249 300.812 110.467 299.937 110.467 298.39C110.467 296.921 112.006 296.062 114.655 295.953V294.468H108.936V293.453H121.592ZM115.264 296.89C113.03 296.906 111.702 297.453 111.717 298.39C111.702 299.312 113.03 299.859 115.264 299.859C117.467 299.859 118.811 299.312 118.811 298.39C118.811 297.453 117.467 296.906 115.264 296.89ZM120.467 287.609V288.609H116.061C116.139 290.171 118.436 291.382 120.889 291.64L120.436 292.609C118.163 292.335 116.03 291.32 115.264 289.765C114.506 291.32 112.381 292.335 110.092 292.609L109.655 291.64C112.061 291.382 114.374 290.171 114.467 288.609H110.092V287.609H120.467ZM139.436 294.89V295.89H133.827V297.984H132.608V295.89H126.78V294.89H139.436ZM138.061 299.531V300.546H128.389V297.046H129.624V299.531H138.061ZM138.702 288.281V289.234H127.436V288.281H132.499V286.796H133.717V288.281H138.702ZM133.108 289.828C135.952 289.828 137.608 290.562 137.608 291.937C137.608 293.312 135.952 294.062 133.108 294.046C130.233 294.062 128.592 293.312 128.592 291.937C128.592 290.562 130.233 289.828 133.108 289.828ZM133.108 290.734C130.999 290.734 129.827 291.156 129.842 291.937C129.827 292.718 130.999 293.14 133.108 293.14C135.186 293.14 136.374 292.718 136.374 291.937C136.374 291.156 135.186 290.734 133.108 290.734ZM147.202 287.953V292H142.42V294.296C144.959 294.296 146.35 294.226 148.045 293.937L148.17 294.953C146.358 295.265 144.905 295.312 142.186 295.312H141.186V291.031H145.952V288.953H141.155V287.953H147.202ZM152.124 286.968V297.187H150.889V293.437H148.139V292.421H150.889V290.312H148.139V289.312H150.889V286.968H152.124ZM152.545 299.453V300.468H143.092V296.437H144.327V299.453H152.545ZM160.764 287.203C163.858 287.203 165.67 288.046 165.67 289.593C165.67 291.171 163.858 292.015 160.764 292.031C157.67 292.015 155.842 291.171 155.842 289.593C155.842 288.046 157.67 287.203 160.764 287.203ZM160.764 288.125C158.452 288.125 157.108 288.687 157.124 289.593C157.108 290.562 158.452 291.093 160.764 291.093C163.061 291.093 164.42 290.562 164.42 289.593C164.42 288.687 163.061 288.125 160.764 288.125ZM167.092 292.968V293.968H154.436V292.968H167.092ZM165.467 295.171V298.281H157.217V299.718H165.889V300.687H155.999V297.375H164.264V296.109H155.967V295.171H165.467ZM184.936 294.328V295.328H172.264V294.328H177.983V292.953H173.952V287.359H183.358V288.359H175.186V289.656H182.983V290.593H175.186V291.968H183.436V292.953H179.202V294.328H184.936ZM178.608 296.375C181.655 296.359 183.374 297.14 183.389 298.593C183.374 300.046 181.655 300.812 178.608 300.812C175.53 300.812 173.811 300.046 173.811 298.593C173.811 297.14 175.53 296.359 178.608 296.375ZM178.608 297.296C176.311 297.296 175.03 297.765 175.045 298.593C175.03 299.437 176.311 299.875 178.608 299.859C180.874 299.875 182.155 299.437 182.155 298.593C182.155 297.765 180.874 297.296 178.608 297.296ZM196.967 286.968V291.546H199.061V292.578H196.967V297.375H195.749V286.968H196.967ZM194.42 288.671V289.671H186.139V288.671H189.67V286.968H190.889V288.671H194.42ZM190.28 290.437C192.264 290.437 193.608 291.453 193.624 293.031C193.608 294.593 192.264 295.593 190.28 295.593C188.28 295.593 186.92 294.593 186.936 293.031C186.92 291.453 188.28 290.437 190.28 290.437ZM190.28 291.406C188.967 291.406 188.092 292.046 188.108 293.031C188.092 294.015 188.967 294.64 190.28 294.625C191.577 294.64 192.452 294.015 192.467 293.031C192.452 292.046 191.577 291.406 190.28 291.406ZM197.608 299.515V300.546H188.28V296.546H189.483V299.515H197.608ZM214.999 287.718V288.765C214.999 289.875 214.999 291.179 214.67 292.921H216.67V293.937H213.108V297.296H211.92V293.937H209.374V297.296H208.17V293.937H203.952V292.921H213.452C213.78 291.164 213.78 289.875 213.78 288.765V288.718H205.561V287.718H214.999ZM215.374 299.515V300.546H205.514V296.203H206.733V299.515H215.374ZM225.655 288.515V289.515H217.795V288.515H221.17V286.843H222.389V288.515H225.655ZM221.764 290.234C223.624 290.234 224.936 291.25 224.936 292.796C224.936 294.359 223.624 295.375 221.764 295.375C219.889 295.375 218.608 294.359 218.624 292.796C218.608 291.25 219.889 290.234 221.764 290.234ZM221.764 291.156C220.561 291.171 219.764 291.828 219.764 292.796C219.764 293.781 220.561 294.421 221.764 294.421C222.967 294.421 223.78 293.781 223.795 292.796C223.78 291.828 222.967 291.171 221.764 291.156ZM229.295 286.953V295.937H228.061V294.015H225.639V293H228.061V291.312H225.655V290.296H228.061V286.953H229.295ZM224.717 296.078C227.608 296.078 229.374 296.937 229.374 298.453C229.374 299.937 227.608 300.812 224.717 300.812C221.795 300.812 220.045 299.937 220.045 298.453C220.045 296.937 221.795 296.078 224.717 296.078ZM224.717 297.031C222.608 297.031 221.311 297.546 221.311 298.453C221.311 299.328 222.608 299.859 224.717 299.859C226.795 299.859 228.077 299.328 228.077 298.453C228.077 297.546 226.795 297.031 224.717 297.031ZM240.327 289.39C240.311 291.187 241.686 292.812 243.749 293.468L243.155 294.421C241.553 293.906 240.327 292.812 239.733 291.421C239.124 292.96 237.842 294.148 236.17 294.718L235.53 293.75C237.624 293.046 239.077 291.359 239.092 289.406V288.906H235.936V287.89H243.42V288.906H240.327V289.39ZM246.483 286.953V290.171H248.577V291.203H246.483V294.562H245.264V286.953H246.483ZM238.905 295.234V296.937H245.264V295.234H246.483V300.656H237.686V295.234H238.905ZM238.905 299.656H245.264V297.906H238.905V299.656ZM260.92 286.953V297.437H259.702V286.953H260.92ZM261.358 299.515V300.546H251.952V296.531H253.17V299.515H261.358ZM258.17 288.687V289.687H249.655V288.687H253.295V286.937H254.53V288.687H258.17ZM253.92 290.437C255.936 290.437 257.327 291.453 257.327 293.031C257.327 294.609 255.936 295.593 253.92 295.593C251.889 295.593 250.499 294.609 250.514 293.031C250.499 291.453 251.889 290.437 253.92 290.437ZM253.92 291.406C252.561 291.421 251.67 292.046 251.686 293.031C251.67 294.015 252.561 294.64 253.92 294.625C255.249 294.64 256.155 294.015 256.155 293.031C256.155 292.046 255.249 291.421 253.92 291.406ZM272.077 289.14C272.061 291.125 273.467 292.875 275.514 293.562L274.827 294.515C273.295 293.937 272.092 292.812 271.499 291.343C270.897 293.007 269.624 294.304 267.952 294.937L267.28 293.937C269.42 293.187 270.842 291.343 270.858 289.187V287.75H272.077V289.14ZM278.811 286.953V295.187H277.577V290.953H274.483V289.937H277.577V286.953H278.811ZM274.202 295.593C277.092 295.593 278.858 296.546 278.858 298.218C278.858 299.875 277.092 300.812 274.202 300.812C271.311 300.812 269.545 299.875 269.545 298.218C269.545 296.546 271.311 295.593 274.202 295.593ZM274.202 296.562C272.077 296.562 270.749 297.187 270.764 298.218C270.749 299.218 272.077 299.828 274.202 299.828C276.327 299.828 277.639 299.218 277.639 298.218C277.639 297.187 276.327 296.562 274.202 296.562ZM285.827 289.593C285.827 291.406 287.186 293.031 289.233 293.703L288.655 294.671C287.053 294.148 285.842 293.039 285.249 291.64C284.647 293.234 283.366 294.476 281.702 295.078L281.077 294.093C283.155 293.39 284.608 291.593 284.624 289.593V289H281.452V287.984H288.952V289H285.827V289.593ZM291.983 286.953V290.5H294.077V291.531H291.983V295.343H290.764V286.953H291.983ZM287.53 295.718C290.389 295.718 292.108 296.656 292.108 298.25C292.108 299.875 290.389 300.812 287.53 300.812C284.67 300.812 282.92 299.875 282.92 298.25C282.92 296.656 284.67 295.718 287.53 295.718ZM287.53 296.703C285.436 296.703 284.139 297.281 284.155 298.25C284.139 299.25 285.436 299.828 287.53 299.828C289.639 299.828 290.92 299.25 290.92 298.25C290.92 297.281 289.639 296.703 287.53 296.703Z" fill="black"/>
<path d="M39.3096 96.2666V97.251H26.6377V96.2666H39.3096ZM37.6689 98.6104V102.798H36.4189V99.5947H28.0596V98.6104H37.6689ZM37.8096 93.9697V94.9229H28.3252V89.2822H37.7314V90.2666H29.5596V91.5947H37.3564V92.5479H29.5596V93.9697H37.8096ZM51.9971 88.9072V97.1885H50.7627V93.5479H47.9658V92.5322H50.7627V88.9072H51.9971ZM47.3877 97.626C50.2783 97.626 52.0439 98.5635 52.0439 100.204C52.0439 101.845 50.2783 102.782 47.3877 102.798C44.4971 102.782 42.7314 101.845 42.7314 100.204C42.7314 98.5635 44.4971 97.626 47.3877 97.626ZM47.3877 98.5791C45.2627 98.5791 43.9346 99.1885 43.9502 100.204C43.9346 101.204 45.2627 101.813 47.3877 101.813C49.5127 101.813 50.8252 101.204 50.8252 100.204C50.8252 99.1885 49.5127 98.5791 47.3877 98.5791ZM45.3096 91.4541C45.3096 93.2666 46.7002 94.9854 48.7314 95.6885L48.0908 96.6729C46.5283 96.1104 45.3174 94.9463 44.7314 93.501C44.1221 95.1338 42.833 96.4385 41.1846 97.0635L40.5439 96.0791C42.6064 95.3291 44.0752 93.4541 44.0752 91.4697V90.9541H40.9346V89.9229H48.4189V90.9541H45.3096V91.4541ZM62.1533 89.751C63.3252 89.7432 64.3252 90.1807 64.9658 90.9229H68.6064V88.9072H69.8408V97.1416H68.6064V95.1572H64.9814C64.3252 95.8994 63.3252 96.3369 62.1533 96.3291C60.0752 96.3447 58.5439 94.9854 58.5439 93.0479C58.5439 91.0947 60.0752 89.7354 62.1533 89.751ZM62.1533 90.8135C60.7314 90.7979 59.7158 91.7354 59.7158 93.0479C59.7158 94.3447 60.7314 95.2822 62.1533 95.2822C63.5283 95.2822 64.5596 94.3447 64.5596 93.0479C64.5596 91.7354 63.5283 90.7979 62.1533 90.8135ZM65.2314 97.4697C68.1064 97.4697 69.8877 98.4385 69.8877 100.11C69.8877 101.798 68.1064 102.767 65.2314 102.767C62.3408 102.767 60.5752 101.798 60.5752 100.11C60.5752 98.4385 62.3408 97.4697 65.2314 97.4697ZM65.2314 98.4229C63.1064 98.4229 61.7783 99.0635 61.7783 100.11C61.7783 101.157 63.1064 101.782 65.2314 101.782C67.3721 101.782 68.6846 101.157 68.6846 100.11C68.6846 99.0635 67.3721 98.4229 65.2314 98.4229ZM65.5596 91.9229C65.6768 92.2666 65.7471 92.6416 65.7471 93.0479C65.7471 93.4385 65.6768 93.8057 65.5596 94.1416H68.6064V91.9229H65.5596ZM83.6689 97.8604V102.798H82.4346V98.8447H74.3252V97.8604H83.6689ZM83.6689 88.9072V97.0947H82.4346V95.0947H78.8564C78.208 95.8838 77.1846 96.3525 75.9814 96.3447C73.9033 96.3604 72.3721 94.9854 72.3721 93.0166C72.3721 91.0791 73.9033 89.7041 75.9814 89.7041C77.1768 89.7041 78.2002 90.1729 78.8564 90.9541H82.4346V88.9072H83.6689ZM75.9814 90.751C74.5596 90.751 73.5439 91.7041 73.5439 93.0166C73.5439 94.376 74.5596 95.3135 75.9814 95.3135C77.3408 95.3135 78.3877 94.376 78.3877 93.0166C78.3877 91.7041 77.3408 90.751 75.9814 90.751ZM79.4033 94.0791H82.4346V91.9697H79.4033C79.5127 92.2979 79.5752 92.6416 79.5752 93.0166C79.5752 93.3916 79.5127 93.751 79.4033 94.0791ZM94.9971 91.2041C94.9971 93.0166 96.5127 94.626 98.5752 95.251L97.9502 96.2197C96.3252 95.7041 95.0205 94.5869 94.3877 93.1572C93.7783 94.6885 92.4658 95.8838 90.8096 96.4541L90.1689 95.4854C92.2627 94.8291 93.7627 93.1104 93.7627 91.2041V90.8447H90.5127V89.8447H98.2002V90.8447H94.9971V91.2041ZM101.466 88.9072V96.4229H100.247V88.9072H101.466ZM93.6846 97.1104V98.7979H100.247V97.1104H101.466V102.61H92.4658V97.1104H93.6846ZM93.6846 101.61H100.247V99.7822H93.6846V101.61ZM116.481 95.4072V96.4229H110.747V97.9072C113.372 98.0166 114.919 98.876 114.935 100.345C114.919 101.892 113.138 102.767 110.153 102.767C107.138 102.767 105.356 101.892 105.356 100.345C105.356 98.876 106.896 98.0166 109.544 97.9072V96.4229H103.825V95.4072H116.481ZM110.153 98.8447C107.919 98.8604 106.591 99.4072 106.606 100.345C106.591 101.267 107.919 101.813 110.153 101.813C112.356 101.813 113.7 101.267 113.7 100.345C113.7 99.4072 112.356 98.8604 110.153 98.8447ZM115.356 89.5635V90.5635H110.95C111.028 92.126 113.325 93.3369 115.778 93.5947L115.325 94.5635C113.052 94.29 110.919 93.2744 110.153 91.7197C109.396 93.2744 107.271 94.29 104.981 94.5635L104.544 93.5947C106.95 93.3369 109.263 92.126 109.356 90.5635H104.981V89.5635H115.356ZM132.528 88.9072V92.5322H134.622V93.5479H132.528V97.251H131.31V88.9072H132.528ZM128.747 89.9385C128.747 93.4697 126.247 96.0791 122.2 97.2666L121.685 96.2666C125.036 95.2979 127.177 93.3682 127.435 90.9541H122.294V89.9385H128.747ZM128.138 97.4072C130.935 97.4072 132.685 98.4229 132.685 100.079C132.685 101.767 130.935 102.767 128.138 102.767C125.372 102.767 123.575 101.767 123.591 100.079C123.575 98.4229 125.372 97.4072 128.138 97.4072ZM128.138 98.3916C126.106 98.376 124.794 99.0322 124.81 100.079C124.794 101.126 126.106 101.782 128.138 101.782C130.185 101.782 131.497 101.126 131.497 100.079C131.497 99.0322 130.185 98.376 128.138 98.3916ZM146.278 88.9072V94.8291H148.497V95.8604H146.278V102.798H145.044V88.9072H146.278ZM135.325 99.0947C136.458 99.0947 137.778 99.0947 139.153 99.0479V97.501C137.536 97.3213 136.481 96.376 136.497 95.001C136.481 93.4385 137.81 92.4229 139.778 92.4229C141.716 92.4229 143.06 93.4385 143.075 95.001C143.06 96.376 141.989 97.3213 140.388 97.5166V99.001C141.685 98.9385 142.989 98.8369 144.2 98.6572L144.278 99.5947C141.247 100.11 137.966 100.142 135.528 100.142L135.325 99.0947ZM143.95 90.6104V91.6104H135.575V90.6104H139.153V88.9385H140.388V90.6104H143.95ZM139.778 93.376C138.497 93.376 137.638 94.0322 137.638 95.001C137.638 95.9697 138.497 96.5947 139.778 96.5791C141.044 96.5947 141.903 95.9697 141.903 95.001C141.903 94.0322 141.044 93.376 139.778 93.376ZM162.028 95.3604V96.3291H149.31V95.3604H162.028ZM160.435 97.4385V100.392H152.091V101.72H160.888V102.61H150.856V99.5479H159.216V98.3604H150.841V97.4385H160.435ZM160.388 89.3291V92.2041H152.185V93.4229H160.638V94.3135H150.966V91.3604H159.153V90.2197H150.919V89.3291H160.388ZM171.747 89.5947C173.825 89.5791 175.31 90.7197 175.31 92.4229C175.31 94.1104 173.825 95.2822 171.747 95.2666C169.669 95.2822 168.185 94.1104 168.185 92.4229C168.185 90.7197 169.669 89.5791 171.747 89.5947ZM171.747 90.5947C170.356 90.5791 169.372 91.3447 169.388 92.4229C169.372 93.5166 170.356 94.2666 171.747 94.251C173.153 94.2666 174.138 93.5166 174.138 92.4229C174.138 91.3447 173.153 90.5791 171.747 90.5947ZM178.622 88.9229V102.813H177.419V88.9229H178.622ZM167.138 96.4541C169.747 96.4541 173.31 96.4072 176.403 95.9541L176.481 96.876C175.153 97.1182 173.771 97.2666 172.435 97.3447V102.376H171.216V97.4229C169.802 97.4854 168.466 97.4932 167.31 97.501L167.138 96.4541ZM191.856 88.9229V93.501H193.95V94.5322H191.856V99.3291H190.638V88.9229H191.856ZM189.31 90.626V91.626H181.028V90.626H184.56V88.9229H185.778V90.626H189.31ZM185.169 92.3916C187.153 92.3916 188.497 93.4072 188.513 94.9854C188.497 96.5479 187.153 97.5479 185.169 97.5479C183.169 97.5479 181.81 96.5479 181.825 94.9854C181.81 93.4072 183.169 92.3916 185.169 92.3916ZM185.169 93.3604C183.856 93.3604 182.981 94.001 182.997 94.9854C182.981 95.9697 183.856 96.5947 185.169 96.5791C186.466 96.5947 187.341 95.9697 187.356 94.9854C187.341 94.001 186.466 93.3604 185.169 93.3604ZM192.497 101.47V102.501H183.169V98.501H184.372V101.47H192.497ZM204.56 90.6104V91.5947H200.56V94.3447H203.919V95.3291H200.56V98.4541C202.552 98.4307 203.771 98.3604 205.278 98.0791L205.388 99.0791C203.778 99.4072 202.466 99.4385 200.263 99.4541H199.388V90.6104H204.56ZM210.731 88.9072V102.798H209.544V88.9072H210.731ZM207.888 89.251V102.079H206.716V95.2041H204.669V94.1885H206.716V89.251H207.888ZM219.653 90.3135V99.2666H213.247V90.3135H219.653ZM214.435 91.2979V98.2666H218.435V91.2979H214.435ZM223.419 88.9072V94.4541H225.747V95.5166H223.419V102.798H222.2V88.9072H223.419ZM234.372 90.4697V91.4697H226.513V90.4697H229.888V88.7979H231.106V90.4697H234.372ZM230.481 92.1885C232.341 92.1885 233.653 93.2041 233.653 94.751C233.653 96.3135 232.341 97.3291 230.481 97.3291C228.606 97.3291 227.325 96.3135 227.341 94.751C227.325 93.2041 228.606 92.1885 230.481 92.1885ZM230.481 93.1104C229.278 93.126 228.481 93.7822 228.481 94.751C228.481 95.7354 229.278 96.376 230.481 96.376C231.685 96.376 232.497 95.7354 232.513 94.751C232.497 93.7822 231.685 93.126 230.481 93.1104ZM238.013 88.9072V97.8916H236.778V95.9697H234.356V94.9541H236.778V93.2666H234.372V92.251H236.778V88.9072H238.013ZM233.435 98.0322C236.325 98.0322 238.091 98.8916 238.091 100.407C238.091 101.892 236.325 102.767 233.435 102.767C230.513 102.767 228.763 101.892 228.763 100.407C228.763 98.8916 230.513 98.0322 233.435 98.0322ZM233.435 98.9854C231.325 98.9854 230.028 99.501 230.028 100.407C230.028 101.282 231.325 101.813 233.435 101.813C235.513 101.813 236.794 101.282 236.794 100.407C236.794 99.501 235.513 98.9854 233.435 98.9854ZM257.06 99.9854V101.017H244.341V99.9854H250.06V96.5947H245.841V90.0791H255.481V96.5947H251.263V99.9854H257.06ZM247.044 91.0635V95.6104H254.294V91.0635H247.044ZM269.325 92.5947V93.5947H259.856V89.4072H269.185V90.4229H261.091V92.5947H269.325ZM270.825 94.7197V95.7197H267.45V97.1572H269.2V100.251H260.95V101.657H269.622V102.642H259.731V99.3447H267.997V98.0947H259.7V97.1572H261.653V95.7197H258.169V94.7197H270.825ZM262.872 97.1572H266.231V95.7197H262.872V97.1572Z" fill="black"/>
<path d="M37.4673 156.407V170.298H36.2642V163.032H34.3423V169.61H33.1704V156.782H34.3423V162.017H36.2642V156.407H37.4673ZM31.5923 158.22C31.5767 161.751 30.3423 165.095 26.3423 167.313L25.6235 166.454C28.8501 164.657 30.186 162.11 30.3892 159.235H26.1548V158.22H31.5923ZM50.936 156.407V163.673H49.7173V161.892H46.436V163.11H40.1392V157.063H41.3579V159.063H45.2329V157.063H46.436V158.407H49.7173V156.407H50.936ZM50.936 164.345V167.61H43.186V169.126H51.4673V170.11H41.9673V166.673H49.7173V165.329H41.936V164.345H50.936ZM41.3579 162.11H45.2329V160.032H41.3579V162.11ZM46.436 160.923H49.7173V159.36H46.436V160.923ZM72.5954 158.563V159.563H70.5329V161.517H72.5954V162.563H70.5329V164.673H69.3141V156.407H70.5329V158.563H72.5954ZM70.5329 165.313V170.298H69.3141V166.329H61.4391V165.313H70.5329ZM63.5797 157.251C65.6891 157.235 67.2204 158.595 67.236 160.517C67.2204 162.47 65.6891 163.813 63.5797 163.813C61.4704 163.813 59.9235 162.47 59.9391 160.517C59.9235 158.595 61.4704 157.235 63.5797 157.251ZM63.5797 158.298C62.1735 158.298 61.1266 159.204 61.1422 160.517C61.1266 161.845 62.1735 162.767 63.5797 162.751C65.0016 162.767 66.0329 161.845 66.0329 160.517C66.0329 159.204 65.0016 158.298 63.5797 158.298ZM85.0172 156.407V164.548H83.7829V160.923H80.9704V159.892H83.7829V156.407H85.0172ZM85.0172 165.235V170.11H75.9391V165.235H85.0172ZM77.1579 166.22V169.11H83.8141V166.22H77.1579ZM78.3297 158.876C78.3297 160.673 79.7204 162.407 81.7516 163.126L81.111 164.095C79.5407 163.532 78.3297 162.36 77.736 160.923C77.1344 162.524 75.8532 163.806 74.2047 164.407L73.5641 163.438C75.611 162.704 77.0954 160.86 77.0954 158.876V158.329H73.9547V157.313H81.4391V158.329H78.3297V158.876ZM93.6579 156.657C96.7516 156.657 98.5641 157.501 98.5641 159.048C98.5641 160.626 96.7516 161.47 93.6579 161.485C90.5641 161.47 88.736 160.626 88.736 159.048C88.736 157.501 90.5641 156.657 93.6579 156.657ZM93.6579 157.579C91.3454 157.579 90.0016 158.142 90.0172 159.048C90.0016 160.017 91.3454 160.548 93.6579 160.548C95.9547 160.548 97.3141 160.017 97.3141 159.048C97.3141 158.142 95.9547 157.579 93.6579 157.579ZM99.986 162.423V163.423H87.3297V162.423H99.986ZM98.361 164.626V167.735H90.111V169.173H98.7829V170.142H88.8922V166.829H97.1579V165.563H88.861V164.626H98.361ZM120.286 167.501V168.517H107.567V167.501H113.286V164.501H109.067V157.392H110.302V159.907H117.52V157.392H118.723V164.501H114.489V167.501H120.286ZM110.302 163.501H117.52V160.907H110.302V163.501ZM125.63 157.063C127.661 157.063 129.083 158.157 129.083 159.813C129.083 161.243 127.958 162.282 126.286 162.485V163.845C127.583 163.79 128.903 163.673 130.114 163.485L130.208 164.407C127.27 164.938 123.942 164.97 121.536 164.97L121.38 163.954C122.458 163.962 123.723 163.954 125.052 163.907V162.501C123.333 162.313 122.177 161.267 122.192 159.813C122.177 158.157 123.598 157.063 125.63 157.063ZM125.63 158.017C124.286 158.017 123.333 158.735 123.348 159.813C123.333 160.86 124.286 161.579 125.63 161.595C126.989 161.579 127.911 160.86 127.927 159.813C127.911 158.735 126.989 158.017 125.63 158.017ZM132.239 156.423V161.126H134.317V162.173H132.239V167.048H131.005V156.423H132.239ZM132.739 168.954V169.985H123.411V166.126H124.645V168.954H132.739ZM145.973 156.407V162.142H148.302V163.157H145.973V170.298H144.755V156.407H145.973ZM143.411 158.642V159.657H135.145V158.642H138.723V156.579H139.942V158.642H143.411ZM139.348 160.813C141.317 160.813 142.739 162.126 142.755 164.001C142.739 165.876 141.317 167.188 139.348 167.188C137.364 167.188 135.927 165.876 135.942 164.001C135.927 162.126 137.364 160.813 139.348 160.813ZM139.348 161.845C138.052 161.845 137.098 162.751 137.114 164.001C137.098 165.267 138.052 166.157 139.348 166.142C140.63 166.157 141.567 165.267 141.583 164.001C141.567 162.751 140.63 161.845 139.348 161.845ZM160.552 156.407V170.298H159.333V163.017H156.02V162.001H159.333V156.407H160.552ZM156.052 157.923C156.052 161.86 154.38 165.36 149.739 167.657L149.067 166.673C152.833 164.853 154.575 162.181 154.817 158.923H149.677V157.923H156.052ZM175.88 161.954V162.985H173.63V170.298H172.411V156.407H173.63V161.954H175.88ZM164.677 157.782V165.735C166.708 165.728 168.778 165.571 171.067 165.095L171.223 166.142C168.833 166.626 166.677 166.767 164.567 166.767H163.458V157.782H164.677ZM195.773 163.767V164.751H183.102V163.767H195.773ZM194.133 166.11V170.298H192.883V167.095H184.523V166.11H194.133ZM194.273 161.47V162.423H184.789V156.782H194.195V157.767H186.023V159.095H193.82V160.048H186.023V161.47H194.273ZM208.461 156.407V164.688H207.227V161.048H204.43V160.032H207.227V156.407H208.461ZM203.852 165.126C206.742 165.126 208.508 166.063 208.508 167.704C208.508 169.345 206.742 170.282 203.852 170.298C200.961 170.282 199.195 169.345 199.195 167.704C199.195 166.063 200.961 165.126 203.852 165.126ZM203.852 166.079C201.727 166.079 200.398 166.688 200.414 167.704C200.398 168.704 201.727 169.313 203.852 169.313C205.977 169.313 207.289 168.704 207.289 167.704C207.289 166.688 205.977 166.079 203.852 166.079ZM201.773 158.954C201.773 160.767 203.164 162.485 205.195 163.188L204.555 164.173C202.992 163.61 201.781 162.446 201.195 161.001C200.586 162.634 199.297 163.938 197.648 164.563L197.008 163.579C199.07 162.829 200.539 160.954 200.539 158.97V158.454H197.398V157.423H204.883V158.454H201.773V158.954ZM228.698 165.36V170.298H227.464V166.345H219.355V165.36H228.698ZM228.698 156.407V164.595H227.464V162.595H223.886C223.237 163.384 222.214 163.853 221.011 163.845C218.933 163.86 217.401 162.485 217.401 160.517C217.401 158.579 218.933 157.204 221.011 157.204C222.206 157.204 223.23 157.673 223.886 158.454H227.464V156.407H228.698ZM221.011 158.251C219.589 158.251 218.573 159.204 218.573 160.517C218.573 161.876 219.589 162.813 221.011 162.813C222.37 162.813 223.417 161.876 223.417 160.517C223.417 159.204 222.37 158.251 221.011 158.251ZM224.433 161.579H227.464V159.47H224.433C224.542 159.798 224.605 160.142 224.605 160.517C224.605 160.892 224.542 161.251 224.433 161.579ZM243.98 158.595V159.626H241.87V161.517H243.98V162.563H241.87V164.829H240.651V156.423H241.87V158.595H243.98ZM237.901 157.282V161.032H232.839V162.97C235.308 162.97 237.097 162.884 239.261 162.517L239.386 163.548C237.151 163.923 235.292 164.001 232.714 164.001H231.636V160.063H236.698V158.298H231.605V157.282H237.901ZM237.417 165.235C240.245 165.235 241.995 166.173 241.995 167.767C241.995 169.36 240.245 170.267 237.417 170.267C234.542 170.267 232.808 169.36 232.808 167.767C232.808 166.173 234.542 165.235 237.417 165.235ZM237.417 166.204C235.292 166.204 233.995 166.782 234.011 167.767C233.995 168.735 235.292 169.313 237.417 169.313C239.526 169.313 240.808 168.735 240.808 167.767C240.808 166.782 239.526 166.204 237.417 166.204ZM252.108 164.72C252.123 161.767 252.92 159.313 254.358 157.235H255.545C254.483 158.782 253.498 161.938 253.498 164.72C253.498 167.501 254.483 170.673 255.545 172.22H254.358C252.92 170.126 252.123 167.673 252.108 164.72ZM269.358 163.345V164.345H256.701V163.345H262.42V161.657H258.311V156.97H267.795V157.985H259.53V160.642H267.92V161.657H263.639V163.345H269.358ZM267.811 165.704V170.407H266.592V166.704H258.108V165.704H267.811ZM277.467 158.813V159.813H270.498V158.813H273.389V156.829H274.608V158.813H277.467ZM273.983 160.751C275.733 160.751 276.983 162.063 276.998 163.907C276.983 165.767 275.733 167.095 273.983 167.095C272.248 167.095 270.998 165.767 270.998 163.907C270.998 162.063 272.248 160.751 273.983 160.751ZM273.983 161.782C272.889 161.798 272.092 162.688 272.092 163.907C272.092 165.142 272.889 166.032 273.983 166.017C275.092 166.032 275.905 165.142 275.905 163.907C275.905 162.688 275.092 161.798 273.983 161.782ZM282.358 156.407V170.298H281.186V163.282H279.342V169.61H278.186V156.751H279.342V162.267H281.186V156.407H282.358ZM286.639 167.985L285.42 172.235H284.264L285.123 167.985H286.639ZM299.564 158.985C299.564 160.829 300.923 162.517 302.986 163.235L302.361 164.188C300.775 163.626 299.564 162.485 298.97 161.048C298.376 162.626 297.103 163.853 295.47 164.454L294.814 163.501C296.892 162.767 298.345 160.97 298.361 158.985V158.392H295.189V157.392H302.689V158.392H299.564V158.985ZM305.72 156.407V160.079H307.814V161.126H305.72V164.782H304.501V156.407H305.72ZM305.72 165.517V170.298H304.501V166.517H296.626V165.517H305.72ZM321.392 163.517V164.532H315.736V167.376H314.517V164.532H308.673V163.517H321.392ZM319.736 157.095V161.923H310.329V157.095H319.736ZM311.533 158.063V160.938H318.517V158.063H311.533ZM319.97 168.97V170.001H310.298V166.001H311.533V168.97H319.97ZM38.2798 189.017V190.048H25.6079V189.017H38.2798ZM36.7954 186.688V187.688H27.2173V182.97H36.7017V184.001H28.4204V186.688H36.7954ZM31.936 191.267C34.9204 191.267 36.7017 192.173 36.7173 193.767C36.7017 195.376 34.9204 196.267 31.936 196.267C28.936 196.267 27.1392 195.376 27.1392 193.767C27.1392 192.173 28.936 191.267 31.936 191.267ZM31.936 192.22C29.7017 192.235 28.3735 192.798 28.3892 193.767C28.3735 194.751 29.7017 195.298 31.936 195.298C34.1392 195.298 35.4829 194.751 35.4829 193.767C35.4829 192.798 34.1392 192.235 31.936 192.22ZM42.9048 190.72C42.8892 193.673 42.0923 196.126 40.6548 198.22H39.4673C40.5298 196.673 41.5142 193.501 41.5142 190.72C41.5142 187.938 40.5298 184.782 39.4673 183.235H40.6548C42.0923 185.313 42.8892 187.767 42.9048 190.72ZM51.2173 182.657C54.311 182.657 56.1235 183.501 56.1235 185.048C56.1235 186.626 54.311 187.47 51.2173 187.485C48.1235 187.47 46.2954 186.626 46.2954 185.048C46.2954 183.501 48.1235 182.657 51.2173 182.657ZM51.2173 183.579C48.9048 183.579 47.561 184.142 47.5767 185.048C47.561 186.017 48.9048 186.548 51.2173 186.548C53.5142 186.548 54.8735 186.017 54.8735 185.048C54.8735 184.142 53.5142 183.579 51.2173 183.579ZM57.5454 188.423V189.423H44.8892V188.423H57.5454ZM55.9204 190.626V193.735H47.6704V195.173H56.3423V196.142H46.4517V192.829H54.7173V191.563H46.4204V190.626H55.9204ZM74.2017 182.423V190.313H72.9829V182.423H74.2017ZM74.2017 191.11V196.11H65.1704V191.11H74.2017ZM66.3735 192.11V195.11H72.9985V192.11H66.3735ZM67.6548 184.329C67.6392 186.298 69.1392 188.032 71.186 188.751L70.561 189.688C68.9517 189.134 67.6704 187.962 67.0454 186.438C66.4282 188.063 65.1313 189.345 63.4673 189.954L62.8423 188.985C64.9517 188.251 66.4048 186.376 66.4048 184.329V182.97H67.6548V184.329ZM87.3423 182.407V188.329H89.561V189.36H87.3423V196.298H86.1079V182.407H87.3423ZM76.3892 192.595C77.522 192.595 78.8423 192.595 80.2173 192.548V191.001C78.6001 190.821 77.5454 189.876 77.561 188.501C77.5454 186.938 78.8735 185.923 80.8423 185.923C82.7798 185.923 84.1235 186.938 84.1392 188.501C84.1235 189.876 83.0532 190.821 81.4517 191.017V192.501C82.7485 192.438 84.0532 192.337 85.2642 192.157L85.3423 193.095C82.311 193.61 79.0298 193.642 76.5923 193.642L76.3892 192.595ZM85.0142 184.11V185.11H76.6392V184.11H80.2173V182.438H81.4517V184.11H85.0142ZM80.8423 186.876C79.561 186.876 78.7017 187.532 78.7017 188.501C78.7017 189.47 79.561 190.095 80.8423 190.079C82.1079 190.095 82.9673 189.47 82.9673 188.501C82.9673 187.532 82.1079 186.876 80.8423 186.876ZM101.139 182.407V188.142H103.467V189.157H101.139V196.298H99.9204V182.407H101.139ZM98.5767 184.642V185.657H90.311V184.642H93.8892V182.579H95.1079V184.642H98.5767ZM94.5142 186.813C96.4829 186.813 97.9048 188.126 97.9204 190.001C97.9048 191.876 96.4829 193.188 94.5142 193.188C92.5298 193.188 91.0923 191.876 91.1079 190.001C91.0923 188.126 92.5298 186.813 94.5142 186.813ZM94.5142 187.845C93.2173 187.845 92.2642 188.751 92.2798 190.001C92.2642 191.267 93.2173 192.157 94.5142 192.142C95.7954 192.157 96.7329 191.267 96.7485 190.001C96.7329 188.751 95.7954 187.845 94.5142 187.845ZM115.358 183.813V185.204C115.342 186.907 115.342 188.813 114.842 191.61L113.592 191.47C114.124 188.813 114.124 186.86 114.124 185.204V184.829H105.561V183.813H115.358ZM116.874 193.313V194.329H104.217V193.313H109.186V188.345H110.389V193.313H116.874ZM133.53 182.423V190.142H132.311V182.423H133.53ZM126.983 184.298C126.967 186.22 128.467 187.954 130.53 188.626L129.936 189.595C128.295 189.04 126.999 187.884 126.374 186.376C125.749 187.993 124.436 189.259 122.78 189.845L122.155 188.876C124.249 188.142 125.733 186.313 125.733 184.298V182.938H126.983V184.298ZM133.624 190.97V191.97H131.702V195.11H133.764V196.11H124.155V195.11H126.233V191.97H124.28V190.97H133.624ZM127.436 195.11H130.483V191.97H127.436V195.11ZM148.545 189.735V190.735H135.889V189.735H148.545ZM147.139 194.97V196.001H137.53V191.954H138.764V194.97H147.139ZM142.217 182.907C145.202 182.892 147.124 183.923 147.124 185.657C147.124 187.392 145.202 188.423 142.217 188.423C139.202 188.423 137.295 187.392 137.295 185.657C137.295 183.923 139.202 182.892 142.217 182.907ZM142.217 183.892C139.983 183.892 138.545 184.563 138.561 185.657C138.545 186.751 139.983 187.423 142.217 187.423C144.436 187.423 145.874 186.751 145.874 185.657C145.874 184.563 144.436 183.892 142.217 183.892ZM162.045 183.907V184.907H153.764V183.907H157.295V182.345H158.514V183.907H162.045ZM157.905 185.626C159.905 185.642 161.233 186.61 161.249 188.142C161.233 189.657 159.905 190.642 157.905 190.642C155.905 190.642 154.545 189.657 154.561 188.142C154.545 186.61 155.905 185.642 157.905 185.626ZM157.905 186.579C156.592 186.595 155.717 187.204 155.733 188.142C155.717 189.063 156.592 189.657 157.905 189.657C159.202 189.657 160.077 189.063 160.092 188.142C160.077 187.204 159.202 186.595 157.905 186.579ZM164.592 182.407V186.267H166.686V187.298H164.592V191.095H163.374V182.407H164.592ZM164.592 191.86V196.298H163.374V192.86H155.499V191.86H164.592ZM170.389 190.751V192.376H177.327V190.751H178.561V196.11H169.17V190.751H170.389ZM170.389 195.126H177.327V193.345H170.389V195.126ZM180.217 188.751V189.767H167.561V188.751H180.217ZM174.53 183.22C174.53 184.938 177.061 186.47 179.499 186.782L179.045 187.767C176.889 187.446 174.78 186.345 173.905 184.782C173.014 186.353 170.889 187.446 168.749 187.767L168.28 186.782C170.749 186.454 173.264 184.985 173.264 183.22V182.563H174.53V183.22ZM186.092 186.673C186.077 188.907 187.686 191.36 189.702 192.313L188.999 193.282C187.436 192.524 186.116 190.868 185.499 188.985C184.858 191.032 183.459 192.829 181.905 193.626L181.155 192.657C183.155 191.688 184.874 189.048 184.889 186.673V184.86H181.655V183.845H189.217V184.86H186.092V186.673ZM192.139 182.407V188.032H194.467V189.079H192.139V196.298H190.92V182.407H192.139ZM207.124 182.407V196.298H205.936V182.407H207.124ZM204.327 182.704V195.595H203.155V188.845H201.374C201.241 191.548 200.092 193.235 198.374 193.235C196.561 193.235 195.389 191.36 195.389 188.407C195.389 185.454 196.561 183.579 198.374 183.579C200.061 183.579 201.202 185.212 201.358 187.829H203.155V182.704H204.327ZM198.374 184.735C197.249 184.735 196.53 186.142 196.545 188.407C196.53 190.657 197.249 192.079 198.374 192.063C199.499 192.079 200.217 190.657 200.217 188.407C200.217 186.142 199.499 184.735 198.374 184.735ZM220.936 182.407V196.298H219.764V182.407H220.936ZM218.014 182.782V195.595H216.842V189.11H213.905C213.053 190.728 211.717 192.157 209.78 193.298L209.061 192.407C212.084 190.618 213.6 188.11 213.827 185.204H209.655V184.188H215.045C215.038 185.556 214.819 186.876 214.358 188.11H216.842V182.782H218.014ZM231.717 184.97C231.717 186.782 233.108 188.501 235.139 189.204L234.499 190.173C232.928 189.61 231.717 188.446 231.124 187.017C230.522 188.618 229.241 189.899 227.592 190.501L226.952 189.532C228.999 188.798 230.483 186.938 230.483 184.985V184.376H227.342V183.376H234.827V184.376H231.717V184.97ZM238.405 191.47V196.298H237.17V192.485H229.061V191.47H238.405ZM238.405 182.407V190.735H237.17V187.079H234.389V186.048H237.17V182.407H238.405ZM251.577 182.407V185.97H253.67V187.017H251.577V190.485H250.358V182.407H251.577ZM244.014 191.095V192.579H250.358V191.095H251.577V196.11H242.795V191.095H244.014ZM244.014 195.126H250.358V193.548H244.014V195.126ZM249.03 183.845V184.86H240.749V183.845H244.28V182.282H245.499V183.845H249.03ZM244.889 185.501C246.889 185.501 248.217 186.454 248.233 187.938C248.217 189.423 246.889 190.376 244.889 190.376C242.874 190.376 241.53 189.423 241.545 187.938C241.53 186.454 242.874 185.501 244.889 185.501ZM244.889 186.454C243.577 186.438 242.702 187.048 242.717 187.938C242.702 188.845 243.577 189.438 244.889 189.438C246.186 189.438 247.061 188.845 247.077 187.938C247.061 187.048 246.186 186.438 244.889 186.454ZM265.405 182.407V185.97H267.499V187.017H265.405V190.485H264.186V182.407H265.405ZM257.842 191.095V192.579H264.186V191.095H265.405V196.11H256.624V191.095H257.842ZM257.842 195.126H264.186V193.548H257.842V195.126ZM262.858 183.845V184.86H254.577V183.845H258.108V182.282H259.327V183.845H262.858ZM258.717 185.501C260.717 185.501 262.045 186.454 262.061 187.938C262.045 189.423 260.717 190.376 258.717 190.376C256.702 190.376 255.358 189.423 255.374 187.938C255.358 186.454 256.702 185.501 258.717 185.501ZM258.717 186.454C257.405 186.438 256.53 187.048 256.545 187.938C256.53 188.845 257.405 189.438 258.717 189.438C260.014 189.438 260.889 188.845 260.905 187.938C260.889 187.048 260.014 186.438 258.717 186.454ZM279.827 182.407V196.298H278.608V182.407H279.827ZM270.483 183.782V191.657C272.6 191.649 274.795 191.478 277.124 190.985L277.295 192.032C274.827 192.548 272.624 192.72 270.405 192.72H269.28V183.782H270.483ZM292.952 182.407V187.907H295.28V188.938H292.952V196.329H291.733V182.407H292.952ZM289.295 183.767V184.782H284.03V191.813C286.545 191.813 288.327 191.696 290.389 191.313L290.545 192.376C288.374 192.767 286.545 192.845 283.905 192.845H282.811V183.767H289.295ZM297.499 195.126C296.952 195.126 296.483 194.673 296.499 194.11C296.483 193.563 296.952 193.11 297.499 193.11C298.045 193.11 298.499 193.563 298.499 194.11C298.499 194.673 298.045 195.126 297.499 195.126Z" fill="black"/>
<defs>
<linearGradient id="paint0_linear_586_1017" x1="0.68823" y1="173.5" x2="480.856" y2="173.5" gradientUnits="userSpaceOnUse">
<stop stop-color="#3182F6"/>
<stop offset="1" stop-color="#A009FF"/>
</linearGradient>
<linearGradient id="paint1_linear_586_1017" x1="25.7325" y1="60" x2="437.703" y2="59.9999" gradientUnits="userSpaceOnUse">
<stop stop-color="#3182F6"/>
<stop offset="1" stop-color="#A009FF"/>
</linearGradient>
<linearGradient id="paint2_linear_586_1017" x1="25.0454" y1="130.668" x2="324.045" y2="130.668" gradientUnits="userSpaceOnUse">
<stop stop-color="#3182F6"/>
<stop offset="1" stop-color="#A009FF"/>
</linearGradient>
<linearGradient id="paint3_linear_586_1017" x1="20.5649" y1="257.714" x2="81.612" y2="257.714" gradientUnits="userSpaceOnUse">
<stop stop-color="#3182F6"/>
<stop offset="1" stop-color="#A009FF"/>
</linearGradient>
</defs>
</svg>
