<svg width="565" height="239" viewBox="0 0 565 239" fill="none" xmlns="http://www.w3.org/2000/svg">
<path d="M422.061 55.6372C421.817 56.1209 421.183 56.1209 420.939 55.6372L415.082 44.0472C414.844 43.5773 415.153 43 415.643 43L427.357 43C427.847 43 428.156 43.5773 427.918 44.0472L422.061 55.6372Z" fill="white"/>
<rect y="79" width="565" height="160" rx="30" fill="url(#paint0_linear_725_1246)"/>
<path d="M274 7.34823C274 3.28992 277.305 0 281.382 0H557.293C561.37 0 564.675 3.28992 564.675 7.34823V40.4153C564.675 44.4736 561.37 47.7635 557.293 47.7635H281.382C277.305 47.7635 274 44.4736 274 40.4153V7.34823Z" fill="white"/>
<path d="M534.951 14.8256V18.9539H537.503V21.1321H534.951V25.3848H532.296V14.8256H534.951ZM529.661 15.9251C529.64 20.9246 526.487 24.3061 520.824 25.7997L519.766 23.7045C523.998 22.6569 526.331 20.5616 526.777 18.0411H520.699V15.9251H529.661ZM534.951 26.0901V33.4754H522.608V26.0901H534.951ZM525.242 28.2269V31.4009H532.337V28.2269H525.242Z" fill="url(#paint1_linear_725_1246)"/>
<path d="M511.284 16.6097V29.0982H502.219V16.6097H511.284ZM504.833 18.6842V27.0029H508.65V18.6842H504.833ZM516.512 14.8256V21.9411H519.292V24.1401H516.512V33.7036H513.857V14.8256H516.512Z" fill="url(#paint2_linear_725_1246)"/>
<path d="M483.747 15.3857C486.609 15.3857 488.788 17.1698 488.788 19.7007C488.788 22.1901 486.609 23.9949 483.747 23.9949C480.822 23.9949 478.664 22.1901 478.664 19.7007C478.664 17.1698 480.822 15.3857 483.747 15.3857ZM483.747 17.5432C482.294 17.5432 481.216 18.3315 481.236 19.7007C481.216 21.0491 482.294 21.8582 483.747 21.8582C485.178 21.8582 486.236 21.0491 486.236 19.7007C486.236 18.3315 485.178 17.5432 483.747 17.5432ZM494.181 14.8256V24.2853H491.526V14.8256H494.181ZM494.181 25.0736V30.1976H484.141V31.4216H494.7V33.4961H481.548V28.2684H491.547V27.1066H481.506V25.0736H494.181Z" fill="url(#paint3_linear_725_1246)"/>
<path d="M470.795 32.0025C467.04 32.0025 464.758 29.2019 464.758 24.2854C464.758 19.3688 467.04 16.5682 470.795 16.5682C474.549 16.5682 476.831 19.3896 476.831 24.2854C476.831 29.2227 474.549 32.0025 470.795 32.0025ZM470.795 29.4301C472.537 29.4301 473.657 27.7498 473.637 24.2854C473.637 20.8624 472.537 19.1199 470.795 19.1199C469.052 19.1199 467.953 20.8624 467.953 24.2854C467.932 27.7498 469.052 29.4301 470.795 29.4301Z" fill="url(#paint4_linear_725_1246)"/>
<path d="M456.952 32.0025C453.654 32.0025 451.289 30.1769 451.227 27.5631H454.38C454.442 28.6833 455.521 29.4301 456.973 29.4301C458.467 29.4301 459.545 28.5796 459.525 27.3764C459.545 26.1524 458.446 25.2811 456.682 25.2811H455.293V22.9784H456.682C458.155 22.9784 459.193 22.1694 459.193 20.9869C459.193 19.8459 458.321 19.0576 456.994 19.0576C455.666 19.0576 454.567 19.8045 454.525 20.9454H451.538C451.579 18.3523 453.923 16.5682 456.994 16.5682C460.126 16.5682 462.221 18.4145 462.201 20.8002C462.221 22.4806 461.039 23.6838 459.359 23.9742V24.0987C461.558 24.3683 462.782 25.7168 462.761 27.5838C462.782 30.1562 460.334 32.0025 456.952 32.0025Z" fill="url(#paint5_linear_725_1246)"/>
<path d="M443.51 14.8463V25.7789H440.855V25.1773H437.432V23.5799H440.855V14.8463H443.51ZM427.516 21.4847C431.167 21.5055 435.689 21.464 439.734 21.0906L439.859 22.7294C438.189 22.9576 436.477 23.1028 434.797 23.1858V25.8204H432.183V23.2895C430.638 23.331 429.154 23.331 427.785 23.3103L427.516 21.4847ZM443.51 26.339V30.7577H432.889V31.7327H443.946V33.579H430.295V29.0566H440.875V28.1231H430.212V26.339H443.51ZM433.594 15.0953C436.394 15.0953 438.324 16.2362 438.345 17.9373C438.324 19.7006 436.394 20.7586 433.594 20.7586C430.71 20.7586 428.802 19.7006 428.802 17.9373C428.802 16.2362 430.71 15.0953 433.594 15.0953ZM433.594 16.8378C432.162 16.8171 431.291 17.2527 431.312 17.9373C431.291 18.6426 432.162 19.0368 433.594 19.0368C434.984 19.0368 435.876 18.6426 435.876 17.9373C435.876 17.2527 434.984 16.8171 433.594 16.8378Z" fill="url(#paint6_linear_725_1246)"/>
<path d="M420.292 32.0025C417.18 31.9818 414.234 30.1355 414.234 24.638C414.234 19.5763 416.662 16.5682 420.416 16.5682C423.445 16.5682 425.499 18.4768 425.81 20.9454H422.74C422.491 19.8874 421.62 19.2443 420.416 19.2443C418.383 19.2443 417.305 21.0906 417.284 24.0364H417.429C418.114 22.7088 419.607 21.9204 421.267 21.9204C423.964 21.9204 425.976 23.9534 425.976 26.7748C425.976 29.8243 423.673 32.0232 420.292 32.0025ZM420.271 29.5338C421.806 29.5338 422.947 28.3721 422.947 26.8577C422.947 25.3641 421.848 24.1816 420.313 24.1816C418.778 24.1816 417.616 25.3849 417.595 26.8577C417.616 28.3306 418.736 29.5338 420.271 29.5338Z" fill="url(#paint7_linear_725_1246)"/>
<path d="M407.882 24.9492V27.0652H390.602V24.9492H397.925V23.58H392.759V18.3938H403.132V17.232H392.718V15.1783H405.787V20.3023H395.394V21.547H406.14V23.58H400.559V24.9492H407.882ZM405.891 28.1439V33.6206H403.215V30.2184H392.531V28.1439H405.891Z" fill="url(#paint8_linear_725_1246)"/>
<path d="M389.518 23.4555V25.613H372.258V23.4555H389.518ZM387.547 20.0326V22.1278H374.353V15.3235H387.443V17.4602H376.988V20.0326H387.547ZM380.846 26.754C384.933 26.754 387.402 27.9987 387.422 30.2184C387.402 32.4588 384.933 33.7035 380.846 33.7035C376.718 33.7035 374.229 32.4588 374.229 30.2184C374.229 27.9987 376.718 26.754 380.846 26.754ZM380.846 28.7662C378.232 28.7662 376.905 29.2641 376.925 30.2184C376.905 31.2141 378.232 31.6913 380.846 31.6913C383.398 31.6913 384.746 31.2141 384.767 30.2184C384.746 29.2641 383.398 28.7662 380.846 28.7662Z" fill="url(#paint9_linear_725_1246)"/>
<path d="M364.914 14.8463V28.621H362.279V21.8581H359.188V19.7214H362.279V14.8463H364.914ZM365.37 31.2556V33.3716H352.384V27.4178H355.039V31.2556H365.37ZM356.138 18.5389C356.138 20.7171 357.466 23.0613 360.474 24.0363L359.167 26.1316C357.072 25.4574 355.641 24.0778 354.811 22.356C353.981 24.2645 352.477 25.7789 350.247 26.5257L348.898 24.3683C352.01 23.3932 353.421 20.9246 353.442 18.5182V18.2277H349.645V16.1118H359.893V18.2277H356.138V18.5389Z" fill="url(#paint10_linear_725_1246)"/>
<path d="M337.599 19.0991C337.578 22.4805 339.03 25.9034 342.059 27.3556L340.462 29.4716C338.439 28.4758 337.08 26.6088 336.292 24.3268C335.472 26.7747 334.01 28.7766 331.873 29.8242L330.234 27.6875C333.429 26.2146 334.943 22.605 334.943 19.0991V16.2778H337.599V19.0991ZM345.544 14.8256V22.1071H348.324V24.3476H345.544V33.7036H342.889V14.8256H345.544Z" fill="url(#paint11_linear_725_1246)"/>
<path d="M323.126 23.8818C323.126 29.5344 318.544 34.1168 312.891 34.1168C307.239 34.1168 302.656 29.5344 302.656 23.8818C302.656 18.2291 307.239 13.6467 312.891 13.6467C318.544 13.6467 323.126 18.2291 323.126 23.8818Z" fill="url(#paint12_linear_725_1246)"/>
<path d="M310.398 30.0228L308.117 20.4701H309.924L311.268 27.1464H311.334L312.799 20.4701H314.353L315.818 27.1596H315.884L317.228 20.4701H319.035L316.754 30.0228H315.135L313.614 23.7159H313.548L312.017 30.0228H310.398Z" fill="white"/>
<path d="M320.397 23.1994V25.9287H306.75V23.1994H320.397Z" fill="white"/>
<path d="M533.236 154.88V186.324H528.779V154.88H533.236ZM523.803 158.162C523.803 167.699 520.451 175.612 509.221 180.934L506.906 177.409C515.026 173.574 518.603 168.598 519.311 161.618H508.599V158.162H523.803Z" fill="white"/>
<path d="M501.163 154.88V162.032H505.414V165.661H501.163V173.228H496.741V154.88H501.163ZM481.537 156.711V160.719H487.964V156.711H492.387V171.673H477.148V156.711H481.537ZM481.537 168.218H487.964V164.14H481.537V168.218ZM501.336 174.645V178.135H484.992V182.454H501.924V185.909H480.604V174.645H501.336Z" fill="white"/>
<path d="M471.971 154.914V177.513H467.548V154.914H471.971ZM472.801 182.247V185.771H450.893V175.232H455.351V182.247H472.801ZM454.729 156.918C459.567 156.918 463.333 160.236 463.333 164.831C463.333 169.531 459.567 172.813 454.729 172.813C449.891 172.813 446.125 169.531 446.125 164.831C446.125 160.236 449.891 156.918 454.729 156.918ZM454.729 160.754C452.276 160.719 450.41 162.274 450.444 164.831C450.41 167.457 452.276 168.978 454.729 168.978C457.113 168.978 458.979 167.457 458.979 164.831C458.979 162.274 457.113 160.719 454.729 160.754Z" fill="white"/>
<path d="M439.995 154.811V161.652H444.245V165.177H439.995V171.846H435.572V154.811H439.995ZM439.995 173.124V181.072H423.513V182.869H440.893V186.117H419.193V178.066H435.607V176.303H419.124V173.124H439.995ZM433.706 157.23V160.581H415.047V157.23H422.2V154.673H426.588V157.23H433.706ZM424.376 161.341C429.076 161.341 432.117 163.346 432.117 166.49C432.117 169.704 429.076 171.639 424.376 171.639C419.677 171.639 416.567 169.704 416.567 166.49C416.567 163.346 419.677 161.341 424.376 161.341ZM424.376 164.451C422.2 164.451 420.852 165.177 420.887 166.49C420.852 167.838 422.2 168.494 424.376 168.494C426.553 168.494 427.936 167.838 427.936 166.49C427.936 165.177 426.553 164.451 424.376 164.451Z" fill="white"/>
<path d="M402.971 154.914V178.653H398.548V176.165H392.536V173.159H398.548V154.914H402.971ZM403.662 182.247V185.771H380.235V176.372H384.623V172.191C381.807 172.312 379.129 172.33 376.745 172.33L376.227 168.84C381.997 168.805 389.772 168.736 396.406 167.907L396.648 171.051C394.16 171.466 391.586 171.759 389.046 171.949V177.927H384.623V182.247H403.662ZM386.455 155.986C391.016 155.951 394.298 158.266 394.298 161.618C394.298 164.97 391.016 167.146 386.455 167.146C381.79 167.146 378.542 164.97 378.542 161.618C378.542 158.266 381.755 155.951 386.455 155.986ZM386.455 159.199C384.209 159.199 382.688 160.063 382.723 161.618C382.688 163.138 384.209 163.968 386.455 163.968C388.562 163.968 390.083 163.138 390.117 161.618C390.083 160.063 388.562 159.199 386.455 159.199Z" fill="white"/>
<path d="M361.78 157.471V172.571H346.68V157.471H361.78ZM351.033 160.996V169.116H357.426V160.996H351.033ZM370.695 154.88V163.933H374.945V167.561H370.695V177.824H366.272V154.88H370.695ZM371.835 182.247V185.771H350.308V175.578H354.696V182.247H371.835Z" fill="white"/>
<path d="M333.126 183.491C326.871 183.491 323.07 178.826 323.07 170.636C323.07 162.447 326.871 157.782 333.126 157.782C339.38 157.782 343.181 162.482 343.181 170.636C343.181 178.86 339.38 183.491 333.126 183.491ZM333.126 179.206C336.028 179.206 337.894 176.407 337.859 170.636C337.859 164.935 336.028 162.032 333.126 162.032C330.223 162.032 328.392 164.935 328.392 170.636C328.357 176.407 330.223 179.206 333.126 179.206Z" fill="white"/>
<path d="M317.615 158.128V183.145H312.398V163.069H312.259L306.523 166.663V162.067L312.709 158.128H317.615Z" fill="white"/>
<path d="M294.264 154.88V186.324H290.083V170.533H287.043V184.804H283V155.398H287.043V167.008H290.083V154.88H294.264ZM279.683 158.508V162.067H272.392V175.474C275.432 175.457 278.128 175.301 281.168 174.748L281.479 178.342C277.644 179.068 274.292 179.171 270.146 179.206H267.969V158.508H279.683Z" fill="white"/>
<path d="M249.099 171.88V176.614C251.673 176.459 254.282 176.217 256.735 175.854L257.081 179.068C250.101 180.415 242.637 180.484 237.143 180.484L236.625 176.925C238.992 176.908 241.774 176.891 244.711 176.787V171.88H249.099ZM255.595 158.577V162.136H249.168C249.462 165.177 251.829 168.028 256.563 169.185L254.559 172.606C250.879 171.673 248.339 169.634 246.922 167.008C245.523 169.755 243.017 171.898 239.32 172.848L237.247 169.531C241.998 168.269 244.296 165.315 244.607 162.136H238.249V158.577H244.711V155.156H249.099V158.577H255.595ZM262.921 154.88V186.393H258.532V154.88H262.921Z" fill="white"/>
<path d="M223.665 157.609V160.581C223.665 164.52 223.665 168.943 222.387 175.612L217.964 175.163C219.156 169.22 219.208 164.797 219.243 161.099H200.722V157.609H223.665ZM226.43 178.895V182.488H197.75V178.895H208.013V168.079H212.401V178.895H226.43Z" fill="white"/>
<path d="M191.983 154.88V167.181H196.613V170.809H191.983V186.324H187.629V154.88H191.983ZM185.486 159.579V163.104H167V159.579H174.118V155.364H178.541V159.579H185.486ZM176.33 164.866C180.925 164.866 184.346 167.976 184.346 172.364C184.346 176.753 180.925 179.862 176.33 179.862C171.699 179.862 168.278 176.753 168.278 172.364C168.278 167.976 171.699 164.866 176.33 164.866ZM176.33 168.425C174.118 168.46 172.494 169.945 172.494 172.364C172.494 174.817 174.118 176.269 176.33 176.234C178.541 176.269 180.131 174.817 180.131 172.364C180.131 169.945 178.541 168.46 176.33 168.425Z" fill="white"/>
<path d="M165.33 171.742V175.267H136.547V171.742H148.744V169.462H140.14V160.823H157.417V158.888H140.071V155.467H161.84V164.002H144.529V166.075H162.428V169.462H153.133V171.742H165.33ZM162.013 177.063V186.186H157.556V180.519H139.76V177.063H162.013Z" fill="white"/>
<path d="M134.757 169.254V172.848H106.008V169.254H134.757ZM131.474 163.553V167.043H109.498V155.709H131.301V159.268H113.886V163.553H131.474ZM120.313 174.748C127.12 174.748 131.232 176.822 131.267 180.519C131.232 184.251 127.12 186.324 120.313 186.324C113.437 186.324 109.29 184.251 109.29 180.519C109.29 176.822 113.437 174.748 120.313 174.748ZM120.313 178.1C115.959 178.1 113.748 178.929 113.782 180.519C113.748 182.177 115.959 182.972 120.313 182.972C124.563 182.972 126.809 182.177 126.844 180.519C126.809 178.929 124.563 178.1 120.313 178.1Z" fill="white"/>
<path d="M93.7851 154.914V177.858H89.3967V166.594H84.2482V163.035H89.3967V154.914H93.7851ZM94.5453 182.247V185.771H72.9144V175.854H77.3374V182.247H94.5453ZM79.1687 161.065C79.1687 164.693 81.3802 168.598 86.3905 170.222L84.2136 173.712C80.7237 172.589 78.3394 170.291 76.9573 167.423C75.5751 170.602 73.0699 173.124 69.3554 174.368L67.1094 170.775C72.2925 169.151 74.6421 165.039 74.6767 161.03V160.547H68.3533V157.022H85.423V160.547H79.1687V161.065Z" fill="white"/>
<path d="M48.2667 161.998C48.2321 167.63 50.6509 173.332 55.6958 175.75L53.0351 179.275C49.6661 177.616 47.4028 174.506 46.0898 170.706C44.7249 174.783 42.2888 178.117 38.7298 179.862L36 176.303C41.3213 173.85 43.8438 167.838 43.8438 161.998V157.299H48.2667V161.998ZM61.5009 154.88V167.008H66.1311V170.74H61.5009V186.324H57.0779V154.88H61.5009Z" fill="white"/>
<path d="M193.208 131V146.306H191.093V138.116H188.408V136.387H191.093V131H193.208ZM188.156 132.276V134.004H183.155V136.539H187.603V138.217H183.155V141.104C185.27 141.087 186.965 141.011 188.861 140.718L189.079 142.429C186.847 142.765 184.85 142.849 182.232 142.849H181.023V132.276H188.156Z" fill="white"/>
<path d="M173.492 133.014C173.492 135.246 175.473 137.646 178.93 138.234L177.99 140.013C175.33 139.484 173.35 137.99 172.368 136.018C171.352 137.973 169.372 139.476 166.729 140.013L165.806 138.234C169.196 137.629 171.193 135.229 171.21 133.014V131.906H173.492V133.014ZM179.434 142.631V144.393H165.453V142.631H179.434Z" fill="white"/>
<path d="M164.582 139.811V141.49H158.607V146.273H156.493V141.49H150.602V139.811H164.582ZM154.361 131.587V133.35H160.772V131.587H162.921V138.334H152.246V131.587H154.361ZM154.361 136.622H160.772V135.028H154.361V136.622Z" fill="white"/>
<path d="M139.693 132.359V136.287H142.579V131H144.694V146.306H142.579V138.015H139.693V142.547H132.375V132.359H139.693ZM134.506 134.021V140.885H137.595V134.021H134.506Z" fill="white"/>
<path d="M130.083 131V139.727H127.935V135.716H126.172V134.004H127.935V131H130.083ZM130.083 140.415V146.071H119.442V140.415H130.083ZM121.54 142.077V144.393H127.968V142.077H121.54ZM120.902 132.762C120.902 134.088 121.087 135.649 121.977 136.857C122.816 135.666 122.984 134.105 122.984 132.762V131.856H124.998V132.762C124.998 134.642 125.484 136.639 127.263 137.713L126.089 139.224C125.056 138.611 124.402 137.646 124.024 136.505C123.638 137.697 123.009 138.746 121.96 139.392C120.894 138.729 120.256 137.663 119.895 136.455C119.501 137.613 118.855 138.603 117.814 139.224L116.656 137.713C118.419 136.639 118.888 134.558 118.888 132.762V131.856H120.902V132.762Z" fill="white"/>
<path d="M107.093 132.091V133.836H105.835V137.797C106.464 137.764 107.085 137.713 107.681 137.646L107.832 139.207C104.727 139.694 101.286 139.761 98.6178 139.761L98.3828 137.999L100.028 137.982V133.836H98.7856V132.091H107.093ZM110.92 140.953V146.273H108.772V142.664H100.414V140.953H110.92ZM110.92 131V140.348H108.772V131H110.92ZM102.075 137.965L103.77 137.915V133.836H102.075V137.965Z" fill="white"/>
<path d="M96.5219 131V146.273H94.4743V131H96.5219ZM93.333 131.218V145.568H91.319V138.351H90.0938C89.8924 141.355 88.6169 143.168 86.7372 143.168C84.7232 143.168 83.4141 141.053 83.4141 137.613C83.4141 134.189 84.7232 132.091 86.7372 132.091C88.5749 132.091 89.8337 133.803 90.0771 136.656H91.319V131.218H93.333ZM86.7372 134.105C85.8812 134.105 85.3777 135.28 85.3945 137.613C85.3777 139.962 85.8812 141.12 86.7372 141.104C87.6099 141.12 88.1302 139.962 88.1302 137.613C88.1302 135.28 87.6099 134.105 86.7372 134.105Z" fill="white"/>
<path d="M73.5011 144.897C70.9668 144.897 69.1207 143.403 69.0703 141.305H71.5207C71.571 142.262 72.4438 142.899 73.5011 142.899C74.7599 142.899 75.6494 142.01 75.6494 140.751C75.6494 139.459 74.7431 138.569 73.4676 138.553C72.5613 138.553 71.9235 138.888 71.5543 139.576H69.2717L69.9263 132.578H77.4116V134.642H72.0074L71.6717 137.713H71.7724C72.2256 137.109 73.1319 136.69 74.206 136.69C76.4382 136.69 78.0998 138.351 78.0998 140.684C78.0998 143.134 76.2368 144.897 73.5011 144.897Z" fill="white"/>
<path d="M58.5473 144.729L58.5305 142.899L62.8942 138.888C64.0355 137.797 64.6397 137.126 64.6397 136.169C64.6397 135.095 63.8173 134.424 62.7096 134.424C61.5683 134.424 60.8298 135.145 60.8298 136.303H58.4298C58.413 133.92 60.1753 132.41 62.7431 132.41C65.3446 132.41 67.0732 133.887 67.0732 136.001C67.0732 137.378 66.4019 138.519 63.9012 140.785L62.055 142.58V142.648H67.2411V144.729H58.5473Z" fill="white"/>
<path d="M51.9152 144.897C48.8774 144.897 47.0312 142.631 47.0312 138.653C47.0312 134.675 48.8774 132.41 51.9152 132.41C54.953 132.41 56.7992 134.692 56.7992 138.653C56.7992 142.648 54.953 144.897 51.9152 144.897ZM51.9152 142.815C53.325 142.815 54.2313 141.456 54.2145 138.653C54.2145 135.884 53.325 134.474 51.9152 134.474C50.5054 134.474 49.6159 135.884 49.6159 138.653C49.5991 141.456 50.5054 142.815 51.9152 142.815Z" fill="white"/>
<path d="M36.7192 144.729L36.7024 142.899L41.0661 138.888C42.2073 137.797 42.8115 137.126 42.8115 136.169C42.8115 135.095 41.9891 134.424 40.8814 134.424C39.7402 134.424 39.0017 135.145 39.0017 136.303H36.6017C36.5849 133.92 38.3472 132.41 40.915 132.41C43.5164 132.41 45.2451 133.887 45.2451 136.001C45.2451 137.378 44.5738 138.519 42.0731 140.785L40.2269 142.58V142.648H45.413V144.729H36.7192Z" fill="white"/>
<defs>
<linearGradient id="paint0_linear_725_1246" x1="-0.510581" y1="159" x2="785.851" y2="159" gradientUnits="userSpaceOnUse">
<stop stop-color="#3182F6"/>
<stop offset="1" stop-color="#A009FF"/>
</linearGradient>
<linearGradient id="paint1_linear_725_1246" x1="519.75" y1="24.1505" x2="544.436" y2="24.1505" gradientUnits="userSpaceOnUse">
<stop stop-color="#3182F6"/>
<stop offset="1" stop-color="#A009FF"/>
</linearGradient>
<linearGradient id="paint2_linear_725_1246" x1="502.203" y1="24.2646" x2="525.966" y2="24.2646" gradientUnits="userSpaceOnUse">
<stop stop-color="#3182F6"/>
<stop offset="1" stop-color="#A009FF"/>
</linearGradient>
<linearGradient id="paint3_linear_725_1246" x1="478.65" y1="24.1609" x2="500.968" y2="24.1609" gradientUnits="userSpaceOnUse">
<stop stop-color="#3182F6"/>
<stop offset="1" stop-color="#A009FF"/>
</linearGradient>
<linearGradient id="paint4_linear_725_1246" x1="464.747" y1="24.2854" x2="481.551" y2="24.2854" gradientUnits="userSpaceOnUse">
<stop stop-color="#3182F6"/>
<stop offset="1" stop-color="#A009FF"/>
</linearGradient>
<linearGradient id="paint5_linear_725_1246" x1="451.216" y1="24.2854" x2="467.27" y2="24.2854" gradientUnits="userSpaceOnUse">
<stop stop-color="#3182F6"/>
<stop offset="1" stop-color="#A009FF"/>
</linearGradient>
<linearGradient id="paint6_linear_725_1246" x1="427.501" y1="24.2127" x2="450.368" y2="24.2127" gradientUnits="userSpaceOnUse">
<stop stop-color="#3182F6"/>
<stop offset="1" stop-color="#A009FF"/>
</linearGradient>
<linearGradient id="paint7_linear_725_1246" x1="414.224" y1="24.2854" x2="430.566" y2="24.2854" gradientUnits="userSpaceOnUse">
<stop stop-color="#3182F6"/>
<stop offset="1" stop-color="#A009FF"/>
</linearGradient>
<linearGradient id="paint8_linear_725_1246" x1="390.586" y1="24.3994" x2="414.637" y2="24.3994" gradientUnits="userSpaceOnUse">
<stop stop-color="#3182F6"/>
<stop offset="1" stop-color="#A009FF"/>
</linearGradient>
<linearGradient id="paint9_linear_725_1246" x1="372.242" y1="24.5135" x2="396.264" y2="24.5135" gradientUnits="userSpaceOnUse">
<stop stop-color="#3182F6"/>
<stop offset="1" stop-color="#A009FF"/>
</linearGradient>
<linearGradient id="paint10_linear_725_1246" x1="348.884" y1="24.1089" x2="371.808" y2="24.1089" gradientUnits="userSpaceOnUse">
<stop stop-color="#3182F6"/>
<stop offset="1" stop-color="#A009FF"/>
</linearGradient>
<linearGradient id="paint11_linear_725_1246" x1="330.218" y1="24.2646" x2="355.395" y2="24.2646" gradientUnits="userSpaceOnUse">
<stop stop-color="#3182F6"/>
<stop offset="1" stop-color="#A009FF"/>
</linearGradient>
<linearGradient id="paint12_linear_725_1246" x1="302.638" y1="23.8818" x2="331.128" y2="23.8818" gradientUnits="userSpaceOnUse">
<stop stop-color="#3182F6"/>
<stop offset="1" stop-color="#A009FF"/>
</linearGradient>
</defs>
</svg>
