<svg width="347" height="347" viewBox="0 0 347 347" fill="none" xmlns="http://www.w3.org/2000/svg">
<rect x="0.5" y="0.5" width="346" height="346" rx="20.5" fill="white" stroke="url(#paint0_linear_469_1568)"/>
<path d="M28.1445 77V51.5469H38.1289C43.9297 51.5469 47.2344 55.0977 47.2344 60.125C47.2344 65.2227 43.8594 68.7031 37.9883 68.7031H33.418V77H28.1445ZM33.418 64.4492H37.1445C40.2734 64.4492 41.7852 62.6914 41.7852 60.125C41.7852 57.5938 40.2734 55.8711 37.1445 55.8711H33.418V64.4492ZM50.5742 77V51.5469H55.8477V72.6406H66.8164V77H50.5742ZM85.9766 51.5469H91.2852V68.0703C91.2852 73.6602 87.0664 77.3516 80.7383 77.3516C74.4102 77.3516 70.2266 73.6602 70.2266 68.0703V51.5469H75.5V67.6484C75.5 70.5664 77.5742 72.7109 80.7383 72.7109C83.9375 72.7109 85.9766 70.5664 85.9766 67.6484V51.5469ZM109.391 58.8242C109.18 56.8203 107.562 55.625 104.996 55.625C102.324 55.625 100.848 56.8555 100.812 58.543C100.777 60.3711 102.711 61.2148 104.891 61.707L107.176 62.2695C111.535 63.2539 114.805 65.4688 114.805 69.7227C114.805 74.3984 111.148 77.3516 104.961 77.3516C98.8086 77.3516 94.8711 74.5039 94.7305 69.0547H99.8633C100.039 71.6211 102.078 72.9219 104.891 72.9219C107.668 72.9219 109.461 71.6211 109.461 69.7227C109.461 68 107.879 67.1914 105.102 66.4883L102.324 65.8203C98.0352 64.7656 95.3984 62.6211 95.3984 58.8945C95.3984 54.2539 99.4766 51.1953 105.031 51.1953C110.656 51.1953 114.383 54.3242 114.453 58.8242H109.391Z" fill="url(#paint1_linear_469_1568)"/>
<path d="M25.0454 124.168L324.045 124.168" stroke="url(#paint2_linear_469_1568)"/>
<path d="M33.9126 232.162C33.7954 231.049 32.897 230.385 31.4712 230.385C29.9868 230.385 29.1665 231.068 29.147 232.006C29.1274 233.021 30.2017 233.49 31.4126 233.764L32.6821 234.076C35.104 234.623 36.9204 235.854 36.9204 238.217C36.9204 240.814 34.8892 242.455 31.4517 242.455C28.0337 242.455 25.8462 240.873 25.7681 237.846H28.6196C28.7173 239.271 29.8501 239.994 31.4126 239.994C32.9556 239.994 33.9517 239.271 33.9517 238.217C33.9517 237.26 33.0728 236.811 31.5298 236.42L29.9868 236.049C27.604 235.463 26.1392 234.271 26.1392 232.201C26.1392 229.623 28.4048 227.924 31.4907 227.924C34.6157 227.924 36.686 229.662 36.7251 232.162H33.9126ZM43.5415 242.475C40.2993 242.475 38.3462 240.229 38.3462 236.986C38.3462 233.744 40.3188 231.518 43.5415 231.518C46.2759 231.518 48.1313 233.119 48.2485 235.541H45.5337C45.3579 234.486 44.6743 233.764 43.5806 233.764C42.1938 233.764 41.2759 234.936 41.2759 236.947C41.2759 238.998 42.1743 240.17 43.5806 240.17C44.5962 240.17 45.3579 239.545 45.5337 238.412H48.2485C48.1118 240.814 46.354 242.475 43.5415 242.475ZM54.811 242.475C51.6079 242.475 49.6157 240.268 49.6157 236.986C49.6157 233.705 51.6079 231.518 54.811 231.518C58.0142 231.518 60.0259 233.705 60.0259 236.986C60.0259 240.268 58.0142 242.475 54.811 242.475ZM54.8306 240.229C56.3149 240.229 57.0767 238.842 57.0767 236.986C57.0767 235.111 56.3149 233.725 54.8306 233.725C53.3267 233.725 52.5454 235.111 52.5454 236.986C52.5454 238.842 53.3267 240.229 54.8306 240.229ZM61.8423 246.244V231.654H64.6938V233.432H64.811C65.2017 232.572 66.061 231.518 67.8384 231.518C70.1821 231.518 72.1353 233.334 72.1353 236.967C72.1353 240.502 70.2603 242.436 67.8384 242.436C66.1001 242.436 65.2212 241.439 64.811 240.561H64.7329V246.244H61.8423ZM64.6743 236.947C64.6743 238.861 65.4946 240.131 66.9204 240.131C68.4048 240.131 69.186 238.822 69.186 236.947C69.186 235.092 68.4048 233.822 66.9204 233.822C65.4751 233.822 64.6743 235.033 64.6743 236.947ZM78.8149 242.475C75.5728 242.475 73.5806 240.365 73.5806 237.006C73.5806 233.725 75.5923 231.518 78.6978 231.518C81.4907 231.518 83.6782 233.275 83.6782 236.889V237.709H76.4321C76.4321 239.311 77.3892 240.307 78.8735 240.307C79.8501 240.307 80.5532 239.877 80.8462 239.232H83.6001C83.1899 241.186 81.4321 242.475 78.8149 242.475ZM76.4321 235.893H80.9438C80.9438 234.604 80.0454 233.686 78.7563 233.686C77.4282 233.686 76.481 234.672 76.4321 235.893Z" fill="url(#paint3_linear_469_1568)"/>
<path d="M36.9829 264.671C36.1079 264.671 35.3892 263.953 35.3892 263.062C35.3892 262.187 36.1079 261.468 36.9829 261.468C37.8735 261.468 38.5923 262.187 38.5923 263.062C38.5923 263.953 37.8735 264.671 36.9829 264.671ZM61.061 254.953V262.359H59.8579V254.953H61.061ZM55.9829 262.953V266.156H52.5767V267.703C54.3735 267.695 55.522 267.656 56.9517 267.406L57.0767 268.343C55.4985 268.64 54.2642 268.656 52.2329 268.656H51.3892V265.25H54.7954V263.906H51.3735V262.953H55.9829ZM61.061 262.953V268.734H59.8579V263.968H56.6079V262.953H61.061ZM53.5454 255.593C55.6235 255.593 57.1392 256.875 57.1392 258.703C57.1392 260.546 55.6235 261.828 53.5454 261.828C51.436 261.828 49.936 260.546 49.936 258.703C49.936 256.875 51.436 255.593 53.5454 255.593ZM53.5454 256.625C52.1548 256.609 51.1235 257.484 51.1392 258.703C51.1235 259.937 52.1548 260.812 53.5454 260.812C54.9204 260.812 55.9517 259.937 55.9517 258.703C55.9517 257.484 54.9204 256.609 53.5454 256.625ZM74.9204 254.953V268.843H73.686V254.953H74.9204ZM70.811 256.468C70.7954 260.468 68.936 264 64.2798 266.234L63.6079 265.234C67.3657 263.453 69.2798 260.789 69.561 257.468H64.2485V256.468H70.811ZM92.7642 254.953V268.843H91.5298V254.953H92.7642ZM88.6548 256.468C88.6392 260.468 86.7798 264 82.1235 266.234L81.4517 265.234C85.2095 263.453 87.1235 260.789 87.4048 257.468H82.0923V256.468H88.6548ZM105.967 254.968V259.171H108.061V260.203H105.967V265.171H104.749V254.968H105.967ZM106.608 267.515V268.546H97.2798V264.171H98.4829V267.515H106.608ZM96.9048 255.968V258.312H100.952V255.968H102.17V262.828H95.7017V255.968H96.9048ZM96.9048 261.828H100.952V259.281H96.9048V261.828ZM124.42 254.968V262.859H123.202V254.968H124.42ZM124.42 263.656V268.656H115.389V263.656H124.42ZM116.592 264.656V267.656H123.217V264.656H116.592ZM117.874 256.875C117.858 258.843 119.358 260.578 121.405 261.296L120.78 262.234C119.17 261.679 117.889 260.507 117.264 258.984C116.647 260.609 115.35 261.89 113.686 262.5L113.061 261.531C115.17 260.796 116.624 258.921 116.624 256.875V255.515H117.874V256.875ZM137.561 254.953V260.875H139.78V261.906H137.561V268.843H136.327V254.953H137.561ZM126.608 265.14C127.741 265.14 129.061 265.14 130.436 265.093V263.546C128.819 263.367 127.764 262.421 127.78 261.046C127.764 259.484 129.092 258.468 131.061 258.468C132.999 258.468 134.342 259.484 134.358 261.046C134.342 262.421 133.272 263.367 131.67 263.562V265.046C132.967 264.984 134.272 264.882 135.483 264.703L135.561 265.64C132.53 266.156 129.249 266.187 126.811 266.187L126.608 265.14ZM135.233 256.656V257.656H126.858V256.656H130.436V254.984H131.67V256.656H135.233ZM131.061 259.421C129.78 259.421 128.92 260.078 128.92 261.046C128.92 262.015 129.78 262.64 131.061 262.625C132.327 262.64 133.186 262.015 133.186 261.046C133.186 260.078 132.327 259.421 131.061 259.421ZM151.592 256.25C151.592 258.203 154.155 259.906 156.655 260.25L156.155 261.25C153.999 260.89 151.866 259.695 150.967 257.984C150.077 259.703 147.936 260.89 145.78 261.25L145.28 260.25C147.78 259.906 150.327 258.234 150.327 256.25V255.453H151.592V256.25ZM157.28 262.781V263.812H151.53V268.843H150.327V263.812H144.624V262.781H157.28ZM162.28 255.609C164.147 255.593 165.561 256.679 165.827 258.281H168.733V254.953H169.967V262.406H168.733V259.296H165.842C165.592 260.937 164.163 262.031 162.28 262.031C160.17 262.031 158.67 260.718 158.67 258.812C158.67 256.921 160.17 255.593 162.28 255.609ZM162.28 256.656C160.858 256.64 159.842 257.531 159.842 258.812C159.842 260.078 160.858 261 162.28 261C163.686 261 164.686 260.078 164.686 258.812C164.686 257.531 163.686 256.64 162.28 256.656ZM162.249 263.109V264.875H168.733V263.109H169.967V268.656H161.014V263.109H162.249ZM162.249 267.656H168.733V265.859H162.249V267.656ZM178.608 255.859C181.514 255.859 183.686 257.375 183.686 259.671C183.686 261.984 181.514 263.5 178.608 263.484C175.702 263.5 173.53 261.984 173.53 259.671C173.53 257.375 175.702 255.859 178.608 255.859ZM178.608 256.859C176.374 256.843 174.686 258.015 174.702 259.671C174.686 261.359 176.374 262.484 178.608 262.484C180.827 262.484 182.499 261.359 182.499 259.671C182.499 258.015 180.827 256.843 178.608 256.859ZM184.999 265.968V267H172.28V265.968H184.999ZM198.827 266.093V267.125H186.108V266.093H191.827V263.468H187.702V259.187H196.014V257H187.67V255.984H197.217V260.187H188.92V262.453H197.545V263.468H193.03V266.093H198.827ZM215.405 254.953V262.156H214.202V254.953H215.405ZM215.42 262.859V266.187H207.624V267.687H215.92V268.687H206.42V265.234H214.202V263.843H206.389V262.859H215.42ZM208.874 256.421C208.858 258.39 210.358 260.125 212.42 260.796L211.811 261.75C210.186 261.195 208.889 260.031 208.264 258.531C207.639 260.148 206.334 261.421 204.686 262.015L204.045 261.046C206.139 260.312 207.624 258.468 207.624 256.421V255.359H208.874V256.421ZM224.374 255.812V259.703H219.592V261.859C222.202 261.859 223.545 261.82 225.186 261.515L225.311 262.531C223.577 262.812 222.17 262.859 219.358 262.859H218.374V258.765H223.155V256.796H218.342V255.812H224.374ZM229.295 254.968V263.5H228.061V260.921H225.295V259.906H228.061V258.031H225.295V257.031H228.061V254.968H229.295ZM229.295 264.25V268.875H228.061V265.25H219.936V264.25H229.295ZM246.467 254.968V259.171H248.545V260.203H246.467V264.281H245.233V254.968H246.467ZM235.561 262.859C236.67 262.859 237.967 262.859 239.327 262.812V261.796C237.709 261.656 236.67 260.898 236.67 259.75C236.67 258.484 237.967 257.703 239.92 257.703C241.889 257.703 243.17 258.484 243.186 259.75C243.17 260.89 242.155 261.648 240.545 261.796V262.765C241.842 262.703 243.155 262.601 244.374 262.421L244.483 263.312C241.467 263.843 238.139 263.859 235.702 263.859L235.561 262.859ZM246.467 264.968V268.843H245.233V265.953H237.264V264.968H246.467ZM243.952 256.234V257.171H235.905V256.234H239.327V254.843H240.545V256.234H243.952ZM239.92 258.578C238.639 258.562 237.842 259.015 237.842 259.75C237.842 260.468 238.639 260.968 239.92 260.953C241.202 260.968 242.014 260.468 242.014 259.75C242.014 259.015 241.202 258.562 239.92 258.578ZM254.155 257.593C254.155 259.406 255.514 261.031 257.561 261.703L256.983 262.671C255.381 262.148 254.17 261.039 253.577 259.64C252.975 261.234 251.694 262.476 250.03 263.078L249.405 262.093C251.483 261.39 252.936 259.593 252.952 257.593V257H249.78V255.984H257.28V257H254.155V257.593ZM260.311 254.953V258.5H262.405V259.531H260.311V263.343H259.092V254.953H260.311ZM255.858 263.718C258.717 263.718 260.436 264.656 260.436 266.25C260.436 267.875 258.717 268.812 255.858 268.812C252.999 268.812 251.249 267.875 251.249 266.25C251.249 264.656 252.999 263.718 255.858 263.718ZM255.858 264.703C253.764 264.703 252.467 265.281 252.483 266.25C252.467 267.25 253.764 267.828 255.858 267.828C257.967 267.828 259.249 267.25 259.249 266.25C259.249 265.281 257.967 264.703 255.858 264.703ZM36.9829 290.671C36.1079 290.671 35.3892 289.953 35.3892 289.062C35.3892 288.187 36.1079 287.468 36.9829 287.468C37.8735 287.468 38.5923 288.187 38.5923 289.062C38.5923 289.953 37.8735 290.671 36.9829 290.671ZM56.6235 282.921C56.6079 284.781 59.0923 286.359 61.5142 286.718L61.061 287.687C58.8892 287.32 56.7798 286.164 55.936 284.484C55.0923 286.164 52.9751 287.32 50.8423 287.687L50.3579 286.718C52.7642 286.359 55.2485 284.781 55.2485 282.921V282.828H50.7954V281.828H61.061V282.828H56.6235V282.921ZM62.2642 288.875V289.89H56.5142V294.843H55.311V289.89H49.6079V288.875H62.2642ZM75.311 280.953V294.843H74.1392V280.953H75.311ZM72.4985 281.296V294.125H71.3423V286.968H68.9985V285.968H71.3423V281.296H72.4985ZM67.5142 284.921C67.5142 287.328 68.5923 289.718 70.5142 290.828L69.7642 291.734C68.397 290.914 67.4282 289.414 66.9517 287.64C66.4438 289.554 65.436 291.187 64.0454 292.062L63.2642 291.14C65.2017 289.984 66.3267 287.453 66.3267 284.921V283.609H63.6548V282.593H70.061V283.609H67.5142V284.921ZM88.7642 280.953V288.218H87.5454V286.437H84.2642V287.656H77.9673V281.609H79.186V283.609H83.061V281.609H84.2642V282.953H87.5454V280.953H88.7642ZM88.7642 288.89V292.156H81.0142V293.671H89.2954V294.656H79.7954V291.218H87.5454V289.875H79.7642V288.89H88.7642ZM79.186 286.656H83.061V284.578H79.186V286.656ZM84.2642 285.468H87.5454V283.906H84.2642V285.468ZM100.108 283.25C100.108 285.062 101.624 286.671 103.686 287.296L103.061 288.265C101.436 287.75 100.131 286.632 99.4985 285.203C98.8892 286.734 97.5767 287.929 95.9204 288.5L95.2798 287.531C97.3735 286.875 98.8735 285.156 98.8735 283.25V282.89H95.6235V281.89H103.311V282.89H100.108V283.25ZM106.577 280.953V288.468H105.358V280.953H106.577ZM98.7954 289.156V290.843H105.358V289.156H106.577V294.656H97.5767V289.156H98.7954ZM98.7954 293.656H105.358V291.828H98.7954V293.656ZM121.592 287.453V288.468H115.858V289.953C118.483 290.062 120.03 290.921 120.045 292.39C120.03 293.937 118.249 294.812 115.264 294.812C112.249 294.812 110.467 293.937 110.467 292.39C110.467 290.921 112.006 290.062 114.655 289.953V288.468H108.936V287.453H121.592ZM115.264 290.89C113.03 290.906 111.702 291.453 111.717 292.39C111.702 293.312 113.03 293.859 115.264 293.859C117.467 293.859 118.811 293.312 118.811 292.39C118.811 291.453 117.467 290.906 115.264 290.89ZM120.467 281.609V282.609H116.061C116.139 284.171 118.436 285.382 120.889 285.64L120.436 286.609C118.163 286.335 116.03 285.32 115.264 283.765C114.506 285.32 112.381 286.335 110.092 286.609L109.655 285.64C112.061 285.382 114.374 284.171 114.467 282.609H110.092V281.609H120.467ZM139.436 288.89V289.89H133.827V291.984H132.608V289.89H126.78V288.89H139.436ZM138.061 293.531V294.546H128.389V291.046H129.624V293.531H138.061ZM138.702 282.281V283.234H127.436V282.281H132.499V280.796H133.717V282.281H138.702ZM133.108 283.828C135.952 283.828 137.608 284.562 137.608 285.937C137.608 287.312 135.952 288.062 133.108 288.046C130.233 288.062 128.592 287.312 128.592 285.937C128.592 284.562 130.233 283.828 133.108 283.828ZM133.108 284.734C130.999 284.734 129.827 285.156 129.842 285.937C129.827 286.718 130.999 287.14 133.108 287.14C135.186 287.14 136.374 286.718 136.374 285.937C136.374 285.156 135.186 284.734 133.108 284.734ZM147.202 281.953V286H142.42V288.296C144.959 288.296 146.35 288.226 148.045 287.937L148.17 288.953C146.358 289.265 144.905 289.312 142.186 289.312H141.186V285.031H145.952V282.953H141.155V281.953H147.202ZM152.124 280.968V291.187H150.889V287.437H148.139V286.421H150.889V284.312H148.139V283.312H150.889V280.968H152.124ZM152.545 293.453V294.468H143.092V290.437H144.327V293.453H152.545ZM160.764 281.203C163.858 281.203 165.67 282.046 165.67 283.593C165.67 285.171 163.858 286.015 160.764 286.031C157.67 286.015 155.842 285.171 155.842 283.593C155.842 282.046 157.67 281.203 160.764 281.203ZM160.764 282.125C158.452 282.125 157.108 282.687 157.124 283.593C157.108 284.562 158.452 285.093 160.764 285.093C163.061 285.093 164.42 284.562 164.42 283.593C164.42 282.687 163.061 282.125 160.764 282.125ZM167.092 286.968V287.968H154.436V286.968H167.092ZM165.467 289.171V292.281H157.217V293.718H165.889V294.687H155.999V291.375H164.264V290.109H155.967V289.171H165.467ZM184.936 288.328V289.328H172.264V288.328H177.983V286.953H173.952V281.359H183.358V282.359H175.186V283.656H182.983V284.593H175.186V285.968H183.436V286.953H179.202V288.328H184.936ZM178.608 290.375C181.655 290.359 183.374 291.14 183.389 292.593C183.374 294.046 181.655 294.812 178.608 294.812C175.53 294.812 173.811 294.046 173.811 292.593C173.811 291.14 175.53 290.359 178.608 290.375ZM178.608 291.296C176.311 291.296 175.03 291.765 175.045 292.593C175.03 293.437 176.311 293.875 178.608 293.859C180.874 293.875 182.155 293.437 182.155 292.593C182.155 291.765 180.874 291.296 178.608 291.296ZM196.967 280.968V285.546H199.061V286.578H196.967V291.375H195.749V280.968H196.967ZM194.42 282.671V283.671H186.139V282.671H189.67V280.968H190.889V282.671H194.42ZM190.28 284.437C192.264 284.437 193.608 285.453 193.624 287.031C193.608 288.593 192.264 289.593 190.28 289.593C188.28 289.593 186.92 288.593 186.936 287.031C186.92 285.453 188.28 284.437 190.28 284.437ZM190.28 285.406C188.967 285.406 188.092 286.046 188.108 287.031C188.092 288.015 188.967 288.64 190.28 288.625C191.577 288.64 192.452 288.015 192.467 287.031C192.452 286.046 191.577 285.406 190.28 285.406ZM197.608 293.515V294.546H188.28V290.546H189.483V293.515H197.608ZM214.999 281.718V282.765C214.999 283.875 214.999 285.179 214.67 286.921H216.67V287.937H213.108V291.296H211.92V287.937H209.374V291.296H208.17V287.937H203.952V286.921H213.452C213.78 285.164 213.78 283.875 213.78 282.765V282.718H205.561V281.718H214.999ZM215.374 293.515V294.546H205.514V290.203H206.733V293.515H215.374ZM225.655 282.515V283.515H217.795V282.515H221.17V280.843H222.389V282.515H225.655ZM221.764 284.234C223.624 284.234 224.936 285.25 224.936 286.796C224.936 288.359 223.624 289.375 221.764 289.375C219.889 289.375 218.608 288.359 218.624 286.796C218.608 285.25 219.889 284.234 221.764 284.234ZM221.764 285.156C220.561 285.171 219.764 285.828 219.764 286.796C219.764 287.781 220.561 288.421 221.764 288.421C222.967 288.421 223.78 287.781 223.795 286.796C223.78 285.828 222.967 285.171 221.764 285.156ZM229.295 280.953V289.937H228.061V288.015H225.639V287H228.061V285.312H225.655V284.296H228.061V280.953H229.295ZM224.717 290.078C227.608 290.078 229.374 290.937 229.374 292.453C229.374 293.937 227.608 294.812 224.717 294.812C221.795 294.812 220.045 293.937 220.045 292.453C220.045 290.937 221.795 290.078 224.717 290.078ZM224.717 291.031C222.608 291.031 221.311 291.546 221.311 292.453C221.311 293.328 222.608 293.859 224.717 293.859C226.795 293.859 228.077 293.328 228.077 292.453C228.077 291.546 226.795 291.031 224.717 291.031ZM240.327 283.39C240.311 285.187 241.686 286.812 243.749 287.468L243.155 288.421C241.553 287.906 240.327 286.812 239.733 285.421C239.124 286.96 237.842 288.148 236.17 288.718L235.53 287.75C237.624 287.046 239.077 285.359 239.092 283.406V282.906H235.936V281.89H243.42V282.906H240.327V283.39ZM246.483 280.953V284.171H248.577V285.203H246.483V288.562H245.264V280.953H246.483ZM238.905 289.234V290.937H245.264V289.234H246.483V294.656H237.686V289.234H238.905ZM238.905 293.656H245.264V291.906H238.905V293.656ZM260.92 280.953V291.437H259.702V280.953H260.92ZM261.358 293.515V294.546H251.952V290.531H253.17V293.515H261.358ZM258.17 282.687V283.687H249.655V282.687H253.295V280.937H254.53V282.687H258.17ZM253.92 284.437C255.936 284.437 257.327 285.453 257.327 287.031C257.327 288.609 255.936 289.593 253.92 289.593C251.889 289.593 250.499 288.609 250.514 287.031C250.499 285.453 251.889 284.437 253.92 284.437ZM253.92 285.406C252.561 285.421 251.67 286.046 251.686 287.031C251.67 288.015 252.561 288.64 253.92 288.625C255.249 288.64 256.155 288.015 256.155 287.031C256.155 286.046 255.249 285.421 253.92 285.406ZM272.077 283.14C272.061 285.125 273.467 286.875 275.514 287.562L274.827 288.515C273.295 287.937 272.092 286.812 271.499 285.343C270.897 287.007 269.624 288.304 267.952 288.937L267.28 287.937C269.42 287.187 270.842 285.343 270.858 283.187V281.75H272.077V283.14ZM278.811 280.953V289.187H277.577V284.953H274.483V283.937H277.577V280.953H278.811ZM274.202 289.593C277.092 289.593 278.858 290.546 278.858 292.218C278.858 293.875 277.092 294.812 274.202 294.812C271.311 294.812 269.545 293.875 269.545 292.218C269.545 290.546 271.311 289.593 274.202 289.593ZM274.202 290.562C272.077 290.562 270.749 291.187 270.764 292.218C270.749 293.218 272.077 293.828 274.202 293.828C276.327 293.828 277.639 293.218 277.639 292.218C277.639 291.187 276.327 290.562 274.202 290.562ZM285.827 283.593C285.827 285.406 287.186 287.031 289.233 287.703L288.655 288.671C287.053 288.148 285.842 287.039 285.249 285.64C284.647 287.234 283.366 288.476 281.702 289.078L281.077 288.093C283.155 287.39 284.608 285.593 284.624 283.593V283H281.452V281.984H288.952V283H285.827V283.593ZM291.983 280.953V284.5H294.077V285.531H291.983V289.343H290.764V280.953H291.983ZM287.53 289.718C290.389 289.718 292.108 290.656 292.108 292.25C292.108 293.875 290.389 294.812 287.53 294.812C284.67 294.812 282.92 293.875 282.92 292.25C282.92 290.656 284.67 289.718 287.53 289.718ZM287.53 290.703C285.436 290.703 284.139 291.281 284.155 292.25C284.139 293.25 285.436 293.828 287.53 293.828C289.639 293.828 290.92 293.25 290.92 292.25C290.92 291.281 289.639 290.703 287.53 290.703Z" fill="black"/>
<path d="M39.3096 100.267V101.251H26.6377V100.267H39.3096ZM37.6689 102.61V106.798H36.4189V103.595H28.0596V102.61H37.6689ZM37.8096 97.9697V98.9229H28.3252V93.2822H37.7314V94.2666H29.5596V95.5947H37.3564V96.5479H29.5596V97.9697H37.8096ZM51.9971 92.9072V101.188H50.7627V97.5479H47.9658V96.5322H50.7627V92.9072H51.9971ZM47.3877 101.626C50.2783 101.626 52.0439 102.563 52.0439 104.204C52.0439 105.845 50.2783 106.782 47.3877 106.798C44.4971 106.782 42.7314 105.845 42.7314 104.204C42.7314 102.563 44.4971 101.626 47.3877 101.626ZM47.3877 102.579C45.2627 102.579 43.9346 103.188 43.9502 104.204C43.9346 105.204 45.2627 105.813 47.3877 105.813C49.5127 105.813 50.8252 105.204 50.8252 104.204C50.8252 103.188 49.5127 102.579 47.3877 102.579ZM45.3096 95.4541C45.3096 97.2666 46.7002 98.9854 48.7314 99.6885L48.0908 100.673C46.5283 100.11 45.3174 98.9463 44.7314 97.501C44.1221 99.1338 42.833 100.438 41.1846 101.063L40.5439 100.079C42.6064 99.3291 44.0752 97.4541 44.0752 95.4697V94.9541H40.9346V93.9229H48.4189V94.9541H45.3096V95.4541ZM62.1533 93.751C63.3252 93.7432 64.3252 94.1807 64.9658 94.9229H68.6064V92.9072H69.8408V101.142H68.6064V99.1572H64.9814C64.3252 99.8994 63.3252 100.337 62.1533 100.329C60.0752 100.345 58.5439 98.9854 58.5439 97.0479C58.5439 95.0947 60.0752 93.7354 62.1533 93.751ZM62.1533 94.8135C60.7314 94.7979 59.7158 95.7354 59.7158 97.0479C59.7158 98.3447 60.7314 99.2822 62.1533 99.2822C63.5283 99.2822 64.5596 98.3447 64.5596 97.0479C64.5596 95.7354 63.5283 94.7979 62.1533 94.8135ZM65.2314 101.47C68.1064 101.47 69.8877 102.438 69.8877 104.11C69.8877 105.798 68.1064 106.767 65.2314 106.767C62.3408 106.767 60.5752 105.798 60.5752 104.11C60.5752 102.438 62.3408 101.47 65.2314 101.47ZM65.2314 102.423C63.1064 102.423 61.7783 103.063 61.7783 104.11C61.7783 105.157 63.1064 105.782 65.2314 105.782C67.3721 105.782 68.6846 105.157 68.6846 104.11C68.6846 103.063 67.3721 102.423 65.2314 102.423ZM65.5596 95.9229C65.6768 96.2666 65.7471 96.6416 65.7471 97.0479C65.7471 97.4385 65.6768 97.8057 65.5596 98.1416H68.6064V95.9229H65.5596ZM83.6689 101.86V106.798H82.4346V102.845H74.3252V101.86H83.6689ZM83.6689 92.9072V101.095H82.4346V99.0947H78.8564C78.208 99.8838 77.1846 100.353 75.9814 100.345C73.9033 100.36 72.3721 98.9854 72.3721 97.0166C72.3721 95.0791 73.9033 93.7041 75.9814 93.7041C77.1768 93.7041 78.2002 94.1729 78.8564 94.9541H82.4346V92.9072H83.6689ZM75.9814 94.751C74.5596 94.751 73.5439 95.7041 73.5439 97.0166C73.5439 98.376 74.5596 99.3135 75.9814 99.3135C77.3408 99.3135 78.3877 98.376 78.3877 97.0166C78.3877 95.7041 77.3408 94.751 75.9814 94.751ZM79.4033 98.0791H82.4346V95.9697H79.4033C79.5127 96.2979 79.5752 96.6416 79.5752 97.0166C79.5752 97.3916 79.5127 97.751 79.4033 98.0791ZM94.9971 95.2041C94.9971 97.0166 96.5127 98.626 98.5752 99.251L97.9502 100.22C96.3252 99.7041 95.0205 98.5869 94.3877 97.1572C93.7783 98.6885 92.4658 99.8838 90.8096 100.454L90.1689 99.4854C92.2627 98.8291 93.7627 97.1104 93.7627 95.2041V94.8447H90.5127V93.8447H98.2002V94.8447H94.9971V95.2041ZM101.466 92.9072V100.423H100.247V92.9072H101.466ZM93.6846 101.11V102.798H100.247V101.11H101.466V106.61H92.4658V101.11H93.6846ZM93.6846 105.61H100.247V103.782H93.6846V105.61ZM116.481 99.4072V100.423H110.747V101.907C113.372 102.017 114.919 102.876 114.935 104.345C114.919 105.892 113.138 106.767 110.153 106.767C107.138 106.767 105.356 105.892 105.356 104.345C105.356 102.876 106.896 102.017 109.544 101.907V100.423H103.825V99.4072H116.481ZM110.153 102.845C107.919 102.86 106.591 103.407 106.606 104.345C106.591 105.267 107.919 105.813 110.153 105.813C112.356 105.813 113.7 105.267 113.7 104.345C113.7 103.407 112.356 102.86 110.153 102.845ZM115.356 93.5635V94.5635H110.95C111.028 96.126 113.325 97.3369 115.778 97.5947L115.325 98.5635C113.052 98.29 110.919 97.2744 110.153 95.7197C109.396 97.2744 107.271 98.29 104.981 98.5635L104.544 97.5947C106.95 97.3369 109.263 96.126 109.356 94.5635H104.981V93.5635H115.356ZM132.528 92.9072V96.5322H134.622V97.5479H132.528V101.251H131.31V92.9072H132.528ZM128.747 93.9385C128.747 97.4697 126.247 100.079 122.2 101.267L121.685 100.267C125.036 99.2979 127.177 97.3682 127.435 94.9541H122.294V93.9385H128.747ZM128.138 101.407C130.935 101.407 132.685 102.423 132.685 104.079C132.685 105.767 130.935 106.767 128.138 106.767C125.372 106.767 123.575 105.767 123.591 104.079C123.575 102.423 125.372 101.407 128.138 101.407ZM128.138 102.392C126.106 102.376 124.794 103.032 124.81 104.079C124.794 105.126 126.106 105.782 128.138 105.782C130.185 105.782 131.497 105.126 131.497 104.079C131.497 103.032 130.185 102.376 128.138 102.392ZM146.278 92.9072V98.8291H148.497V99.8604H146.278V106.798H145.044V92.9072H146.278ZM135.325 103.095C136.458 103.095 137.778 103.095 139.153 103.048V101.501C137.536 101.321 136.481 100.376 136.497 99.001C136.481 97.4385 137.81 96.4229 139.778 96.4229C141.716 96.4229 143.06 97.4385 143.075 99.001C143.06 100.376 141.989 101.321 140.388 101.517V103.001C141.685 102.938 142.989 102.837 144.2 102.657L144.278 103.595C141.247 104.11 137.966 104.142 135.528 104.142L135.325 103.095ZM143.95 94.6104V95.6104H135.575V94.6104H139.153V92.9385H140.388V94.6104H143.95ZM139.778 97.376C138.497 97.376 137.638 98.0322 137.638 99.001C137.638 99.9697 138.497 100.595 139.778 100.579C141.044 100.595 141.903 99.9697 141.903 99.001C141.903 98.0322 141.044 97.376 139.778 97.376ZM162.028 99.3604V100.329H149.31V99.3604H162.028ZM160.435 101.438V104.392H152.091V105.72H160.888V106.61H150.856V103.548H159.216V102.36H150.841V101.438H160.435ZM160.388 93.3291V96.2041H152.185V97.4229H160.638V98.3135H150.966V95.3604H159.153V94.2197H150.919V93.3291H160.388ZM171.747 93.5947C173.825 93.5791 175.31 94.7197 175.31 96.4229C175.31 98.1104 173.825 99.2822 171.747 99.2666C169.669 99.2822 168.185 98.1104 168.185 96.4229C168.185 94.7197 169.669 93.5791 171.747 93.5947ZM171.747 94.5947C170.356 94.5791 169.372 95.3447 169.388 96.4229C169.372 97.5166 170.356 98.2666 171.747 98.251C173.153 98.2666 174.138 97.5166 174.138 96.4229C174.138 95.3447 173.153 94.5791 171.747 94.5947ZM178.622 92.9229V106.813H177.419V92.9229H178.622ZM167.138 100.454C169.747 100.454 173.31 100.407 176.403 99.9541L176.481 100.876C175.153 101.118 173.771 101.267 172.435 101.345V106.376H171.216V101.423C169.802 101.485 168.466 101.493 167.31 101.501L167.138 100.454ZM191.856 92.9229V97.501H193.95V98.5322H191.856V103.329H190.638V92.9229H191.856ZM189.31 94.626V95.626H181.028V94.626H184.56V92.9229H185.778V94.626H189.31ZM185.169 96.3916C187.153 96.3916 188.497 97.4072 188.513 98.9854C188.497 100.548 187.153 101.548 185.169 101.548C183.169 101.548 181.81 100.548 181.825 98.9854C181.81 97.4072 183.169 96.3916 185.169 96.3916ZM185.169 97.3604C183.856 97.3604 182.981 98.001 182.997 98.9854C182.981 99.9697 183.856 100.595 185.169 100.579C186.466 100.595 187.341 99.9697 187.356 98.9854C187.341 98.001 186.466 97.3604 185.169 97.3604ZM192.497 105.47V106.501H183.169V102.501H184.372V105.47H192.497ZM204.56 94.6104V95.5947H200.56V98.3447H203.919V99.3291H200.56V102.454C202.552 102.431 203.771 102.36 205.278 102.079L205.388 103.079C203.778 103.407 202.466 103.438 200.263 103.454H199.388V94.6104H204.56ZM210.731 92.9072V106.798H209.544V92.9072H210.731ZM207.888 93.251V106.079H206.716V99.2041H204.669V98.1885H206.716V93.251H207.888ZM219.653 94.3135V103.267H213.247V94.3135H219.653ZM214.435 95.2979V102.267H218.435V95.2979H214.435ZM223.419 92.9072V98.4541H225.747V99.5166H223.419V106.798H222.2V92.9072H223.419ZM234.372 94.4697V95.4697H226.513V94.4697H229.888V92.7979H231.106V94.4697H234.372ZM230.481 96.1885C232.341 96.1885 233.653 97.2041 233.653 98.751C233.653 100.313 232.341 101.329 230.481 101.329C228.606 101.329 227.325 100.313 227.341 98.751C227.325 97.2041 228.606 96.1885 230.481 96.1885ZM230.481 97.1104C229.278 97.126 228.481 97.7822 228.481 98.751C228.481 99.7354 229.278 100.376 230.481 100.376C231.685 100.376 232.497 99.7354 232.513 98.751C232.497 97.7822 231.685 97.126 230.481 97.1104ZM238.013 92.9072V101.892H236.778V99.9697H234.356V98.9541H236.778V97.2666H234.372V96.251H236.778V92.9072H238.013ZM233.435 102.032C236.325 102.032 238.091 102.892 238.091 104.407C238.091 105.892 236.325 106.767 233.435 106.767C230.513 106.767 228.763 105.892 228.763 104.407C228.763 102.892 230.513 102.032 233.435 102.032ZM233.435 102.985C231.325 102.985 230.028 103.501 230.028 104.407C230.028 105.282 231.325 105.813 233.435 105.813C235.513 105.813 236.794 105.282 236.794 104.407C236.794 103.501 235.513 102.985 233.435 102.985ZM257.06 103.985V105.017H244.341V103.985H250.06V100.595H245.841V94.0791H255.481V100.595H251.263V103.985H257.06ZM247.044 95.0635V99.6104H254.294V95.0635H247.044ZM269.325 96.5947V97.5947H259.856V93.4072H269.185V94.4229H261.091V96.5947H269.325ZM270.825 98.7197V99.7197H267.45V101.157H269.2V104.251H260.95V105.657H269.622V106.642H259.731V103.345H267.997V102.095H259.7V101.157H261.653V99.7197H258.169V98.7197H270.825ZM262.872 101.157H266.231V99.7197H262.872V101.157Z" fill="black"/>
<path d="M37.4673 150.407V164.298H36.2642V157.032H34.3423V163.61H33.1704V150.782H34.3423V156.017H36.2642V150.407H37.4673ZM31.5923 152.22C31.5767 155.751 30.3423 159.095 26.3423 161.313L25.6235 160.454C28.8501 158.657 30.186 156.11 30.3892 153.235H26.1548V152.22H31.5923ZM50.936 150.407V157.673H49.7173V155.892H46.436V157.11H40.1392V151.063H41.3579V153.063H45.2329V151.063H46.436V152.407H49.7173V150.407H50.936ZM50.936 158.345V161.61H43.186V163.126H51.4673V164.11H41.9673V160.673H49.7173V159.329H41.936V158.345H50.936ZM41.3579 156.11H45.2329V154.032H41.3579V156.11ZM46.436 154.923H49.7173V153.36H46.436V154.923ZM72.5954 152.563V153.563H70.5329V155.517H72.5954V156.563H70.5329V158.673H69.3141V150.407H70.5329V152.563H72.5954ZM70.5329 159.313V164.298H69.3141V160.329H61.4391V159.313H70.5329ZM63.5797 151.251C65.6891 151.235 67.2204 152.595 67.236 154.517C67.2204 156.47 65.6891 157.813 63.5797 157.813C61.4704 157.813 59.9235 156.47 59.9391 154.517C59.9235 152.595 61.4704 151.235 63.5797 151.251ZM63.5797 152.298C62.1735 152.298 61.1266 153.204 61.1422 154.517C61.1266 155.845 62.1735 156.767 63.5797 156.751C65.0016 156.767 66.0329 155.845 66.0329 154.517C66.0329 153.204 65.0016 152.298 63.5797 152.298ZM85.0172 150.407V158.548H83.7829V154.923H80.9704V153.892H83.7829V150.407H85.0172ZM85.0172 159.235V164.11H75.9391V159.235H85.0172ZM77.1579 160.22V163.11H83.8141V160.22H77.1579ZM78.3297 152.876C78.3297 154.673 79.7204 156.407 81.7516 157.126L81.111 158.095C79.5407 157.532 78.3297 156.36 77.736 154.923C77.1344 156.524 75.8532 157.806 74.2047 158.407L73.5641 157.438C75.611 156.704 77.0954 154.86 77.0954 152.876V152.329H73.9547V151.313H81.4391V152.329H78.3297V152.876ZM93.6579 150.657C96.7516 150.657 98.5641 151.501 98.5641 153.048C98.5641 154.626 96.7516 155.47 93.6579 155.485C90.5641 155.47 88.736 154.626 88.736 153.048C88.736 151.501 90.5641 150.657 93.6579 150.657ZM93.6579 151.579C91.3454 151.579 90.0016 152.142 90.0172 153.048C90.0016 154.017 91.3454 154.548 93.6579 154.548C95.9547 154.548 97.3141 154.017 97.3141 153.048C97.3141 152.142 95.9547 151.579 93.6579 151.579ZM99.986 156.423V157.423H87.3297V156.423H99.986ZM98.361 158.626V161.735H90.111V163.173H98.7829V164.142H88.8922V160.829H97.1579V159.563H88.861V158.626H98.361ZM120.286 161.501V162.517H107.567V161.501H113.286V158.501H109.067V151.392H110.302V153.907H117.52V151.392H118.723V158.501H114.489V161.501H120.286ZM110.302 157.501H117.52V154.907H110.302V157.501ZM125.63 151.063C127.661 151.063 129.083 152.157 129.083 153.813C129.083 155.243 127.958 156.282 126.286 156.485V157.845C127.583 157.79 128.903 157.673 130.114 157.485L130.208 158.407C127.27 158.938 123.942 158.97 121.536 158.97L121.38 157.954C122.458 157.962 123.723 157.954 125.052 157.907V156.501C123.333 156.313 122.177 155.267 122.192 153.813C122.177 152.157 123.598 151.063 125.63 151.063ZM125.63 152.017C124.286 152.017 123.333 152.735 123.348 153.813C123.333 154.86 124.286 155.579 125.63 155.595C126.989 155.579 127.911 154.86 127.927 153.813C127.911 152.735 126.989 152.017 125.63 152.017ZM132.239 150.423V155.126H134.317V156.173H132.239V161.048H131.005V150.423H132.239ZM132.739 162.954V163.985H123.411V160.126H124.645V162.954H132.739ZM145.973 150.407V156.142H148.302V157.157H145.973V164.298H144.755V150.407H145.973ZM143.411 152.642V153.657H135.145V152.642H138.723V150.579H139.942V152.642H143.411ZM139.348 154.813C141.317 154.813 142.739 156.126 142.755 158.001C142.739 159.876 141.317 161.188 139.348 161.188C137.364 161.188 135.927 159.876 135.942 158.001C135.927 156.126 137.364 154.813 139.348 154.813ZM139.348 155.845C138.052 155.845 137.098 156.751 137.114 158.001C137.098 159.267 138.052 160.157 139.348 160.142C140.63 160.157 141.567 159.267 141.583 158.001C141.567 156.751 140.63 155.845 139.348 155.845ZM160.552 150.407V164.298H159.333V157.017H156.02V156.001H159.333V150.407H160.552ZM156.052 151.923C156.052 155.86 154.38 159.36 149.739 161.657L149.067 160.673C152.833 158.853 154.575 156.181 154.817 152.923H149.677V151.923H156.052ZM175.88 155.954V156.985H173.63V164.298H172.411V150.407H173.63V155.954H175.88ZM164.677 151.782V159.735C166.708 159.728 168.778 159.571 171.067 159.095L171.223 160.142C168.833 160.626 166.677 160.767 164.567 160.767H163.458V151.782H164.677ZM195.773 157.767V158.751H183.102V157.767H195.773ZM194.133 160.11V164.298H192.883V161.095H184.523V160.11H194.133ZM194.273 155.47V156.423H184.789V150.782H194.195V151.767H186.023V153.095H193.82V154.048H186.023V155.47H194.273ZM208.461 150.407V158.688H207.227V155.048H204.43V154.032H207.227V150.407H208.461ZM203.852 159.126C206.742 159.126 208.508 160.063 208.508 161.704C208.508 163.345 206.742 164.282 203.852 164.298C200.961 164.282 199.195 163.345 199.195 161.704C199.195 160.063 200.961 159.126 203.852 159.126ZM203.852 160.079C201.727 160.079 200.398 160.688 200.414 161.704C200.398 162.704 201.727 163.313 203.852 163.313C205.977 163.313 207.289 162.704 207.289 161.704C207.289 160.688 205.977 160.079 203.852 160.079ZM201.773 152.954C201.773 154.767 203.164 156.485 205.195 157.188L204.555 158.173C202.992 157.61 201.781 156.446 201.195 155.001C200.586 156.634 199.297 157.938 197.648 158.563L197.008 157.579C199.07 156.829 200.539 154.954 200.539 152.97V152.454H197.398V151.423H204.883V152.454H201.773V152.954ZM228.698 159.36V164.298H227.464V160.345H219.355V159.36H228.698ZM228.698 150.407V158.595H227.464V156.595H223.886C223.237 157.384 222.214 157.853 221.011 157.845C218.933 157.86 217.401 156.485 217.401 154.517C217.401 152.579 218.933 151.204 221.011 151.204C222.206 151.204 223.23 151.673 223.886 152.454H227.464V150.407H228.698ZM221.011 152.251C219.589 152.251 218.573 153.204 218.573 154.517C218.573 155.876 219.589 156.813 221.011 156.813C222.37 156.813 223.417 155.876 223.417 154.517C223.417 153.204 222.37 152.251 221.011 152.251ZM224.433 155.579H227.464V153.47H224.433C224.542 153.798 224.605 154.142 224.605 154.517C224.605 154.892 224.542 155.251 224.433 155.579ZM243.98 152.595V153.626H241.87V155.517H243.98V156.563H241.87V158.829H240.651V150.423H241.87V152.595H243.98ZM237.901 151.282V155.032H232.839V156.97C235.308 156.97 237.097 156.884 239.261 156.517L239.386 157.548C237.151 157.923 235.292 158.001 232.714 158.001H231.636V154.063H236.698V152.298H231.605V151.282H237.901ZM237.417 159.235C240.245 159.235 241.995 160.173 241.995 161.767C241.995 163.36 240.245 164.267 237.417 164.267C234.542 164.267 232.808 163.36 232.808 161.767C232.808 160.173 234.542 159.235 237.417 159.235ZM237.417 160.204C235.292 160.204 233.995 160.782 234.011 161.767C233.995 162.735 235.292 163.313 237.417 163.313C239.526 163.313 240.808 162.735 240.808 161.767C240.808 160.782 239.526 160.204 237.417 160.204ZM252.108 158.72C252.123 155.767 252.92 153.313 254.358 151.235H255.545C254.483 152.782 253.498 155.938 253.498 158.72C253.498 161.501 254.483 164.673 255.545 166.22H254.358C252.92 164.126 252.123 161.673 252.108 158.72ZM269.358 157.345V158.345H256.701V157.345H262.42V155.657H258.311V150.97H267.795V151.985H259.53V154.642H267.92V155.657H263.639V157.345H269.358ZM267.811 159.704V164.407H266.592V160.704H258.108V159.704H267.811ZM277.467 152.813V153.813H270.498V152.813H273.389V150.829H274.608V152.813H277.467ZM273.983 154.751C275.733 154.751 276.983 156.063 276.998 157.907C276.983 159.767 275.733 161.095 273.983 161.095C272.248 161.095 270.998 159.767 270.998 157.907C270.998 156.063 272.248 154.751 273.983 154.751ZM273.983 155.782C272.889 155.798 272.092 156.688 272.092 157.907C272.092 159.142 272.889 160.032 273.983 160.017C275.092 160.032 275.905 159.142 275.905 157.907C275.905 156.688 275.092 155.798 273.983 155.782ZM282.358 150.407V164.298H281.186V157.282H279.342V163.61H278.186V150.751H279.342V156.267H281.186V150.407H282.358ZM286.639 161.985L285.42 166.235H284.264L285.123 161.985H286.639ZM299.564 152.985C299.564 154.829 300.923 156.517 302.986 157.235L302.361 158.188C300.775 157.626 299.564 156.485 298.97 155.048C298.376 156.626 297.103 157.853 295.47 158.454L294.814 157.501C296.892 156.767 298.345 154.97 298.361 152.985V152.392H295.189V151.392H302.689V152.392H299.564V152.985ZM305.72 150.407V154.079H307.814V155.126H305.72V158.782H304.501V150.407H305.72ZM305.72 159.517V164.298H304.501V160.517H296.626V159.517H305.72ZM321.392 157.517V158.532H315.736V161.376H314.517V158.532H308.673V157.517H321.392ZM319.736 151.095V155.923H310.329V151.095H319.736ZM311.533 152.063V154.938H318.517V152.063H311.533ZM319.97 162.97V164.001H310.298V160.001H311.533V162.97H319.97ZM38.2798 183.017V184.048H25.6079V183.017H38.2798ZM36.7954 180.688V181.688H27.2173V176.97H36.7017V178.001H28.4204V180.688H36.7954ZM31.936 185.267C34.9204 185.267 36.7017 186.173 36.7173 187.767C36.7017 189.376 34.9204 190.267 31.936 190.267C28.936 190.267 27.1392 189.376 27.1392 187.767C27.1392 186.173 28.936 185.267 31.936 185.267ZM31.936 186.22C29.7017 186.235 28.3735 186.798 28.3892 187.767C28.3735 188.751 29.7017 189.298 31.936 189.298C34.1392 189.298 35.4829 188.751 35.4829 187.767C35.4829 186.798 34.1392 186.235 31.936 186.22ZM42.9048 184.72C42.8892 187.673 42.0923 190.126 40.6548 192.22H39.4673C40.5298 190.673 41.5142 187.501 41.5142 184.72C41.5142 181.938 40.5298 178.782 39.4673 177.235H40.6548C42.0923 179.313 42.8892 181.767 42.9048 184.72ZM51.2173 176.657C54.311 176.657 56.1235 177.501 56.1235 179.048C56.1235 180.626 54.311 181.47 51.2173 181.485C48.1235 181.47 46.2954 180.626 46.2954 179.048C46.2954 177.501 48.1235 176.657 51.2173 176.657ZM51.2173 177.579C48.9048 177.579 47.561 178.142 47.5767 179.048C47.561 180.017 48.9048 180.548 51.2173 180.548C53.5142 180.548 54.8735 180.017 54.8735 179.048C54.8735 178.142 53.5142 177.579 51.2173 177.579ZM57.5454 182.423V183.423H44.8892V182.423H57.5454ZM55.9204 184.626V187.735H47.6704V189.173H56.3423V190.142H46.4517V186.829H54.7173V185.563H46.4204V184.626H55.9204ZM74.2017 176.423V184.313H72.9829V176.423H74.2017ZM74.2017 185.11V190.11H65.1704V185.11H74.2017ZM66.3735 186.11V189.11H72.9985V186.11H66.3735ZM67.6548 178.329C67.6392 180.298 69.1392 182.032 71.186 182.751L70.561 183.688C68.9517 183.134 67.6704 181.962 67.0454 180.438C66.4282 182.063 65.1313 183.345 63.4673 183.954L62.8423 182.985C64.9517 182.251 66.4048 180.376 66.4048 178.329V176.97H67.6548V178.329ZM87.3423 176.407V182.329H89.561V183.36H87.3423V190.298H86.1079V176.407H87.3423ZM76.3892 186.595C77.522 186.595 78.8423 186.595 80.2173 186.548V185.001C78.6001 184.821 77.5454 183.876 77.561 182.501C77.5454 180.938 78.8735 179.923 80.8423 179.923C82.7798 179.923 84.1235 180.938 84.1392 182.501C84.1235 183.876 83.0532 184.821 81.4517 185.017V186.501C82.7485 186.438 84.0532 186.337 85.2642 186.157L85.3423 187.095C82.311 187.61 79.0298 187.642 76.5923 187.642L76.3892 186.595ZM85.0142 178.11V179.11H76.6392V178.11H80.2173V176.438H81.4517V178.11H85.0142ZM80.8423 180.876C79.561 180.876 78.7017 181.532 78.7017 182.501C78.7017 183.47 79.561 184.095 80.8423 184.079C82.1079 184.095 82.9673 183.47 82.9673 182.501C82.9673 181.532 82.1079 180.876 80.8423 180.876ZM101.139 176.407V182.142H103.467V183.157H101.139V190.298H99.9204V176.407H101.139ZM98.5767 178.642V179.657H90.311V178.642H93.8892V176.579H95.1079V178.642H98.5767ZM94.5142 180.813C96.4829 180.813 97.9048 182.126 97.9204 184.001C97.9048 185.876 96.4829 187.188 94.5142 187.188C92.5298 187.188 91.0923 185.876 91.1079 184.001C91.0923 182.126 92.5298 180.813 94.5142 180.813ZM94.5142 181.845C93.2173 181.845 92.2642 182.751 92.2798 184.001C92.2642 185.267 93.2173 186.157 94.5142 186.142C95.7954 186.157 96.7329 185.267 96.7485 184.001C96.7329 182.751 95.7954 181.845 94.5142 181.845ZM115.358 177.813V179.204C115.342 180.907 115.342 182.813 114.842 185.61L113.592 185.47C114.124 182.813 114.124 180.86 114.124 179.204V178.829H105.561V177.813H115.358ZM116.874 187.313V188.329H104.217V187.313H109.186V182.345H110.389V187.313H116.874ZM133.53 176.423V184.142H132.311V176.423H133.53ZM126.983 178.298C126.967 180.22 128.467 181.954 130.53 182.626L129.936 183.595C128.295 183.04 126.999 181.884 126.374 180.376C125.749 181.993 124.436 183.259 122.78 183.845L122.155 182.876C124.249 182.142 125.733 180.313 125.733 178.298V176.938H126.983V178.298ZM133.624 184.97V185.97H131.702V189.11H133.764V190.11H124.155V189.11H126.233V185.97H124.28V184.97H133.624ZM127.436 189.11H130.483V185.97H127.436V189.11ZM148.545 183.735V184.735H135.889V183.735H148.545ZM147.139 188.97V190.001H137.53V185.954H138.764V188.97H147.139ZM142.217 176.907C145.202 176.892 147.124 177.923 147.124 179.657C147.124 181.392 145.202 182.423 142.217 182.423C139.202 182.423 137.295 181.392 137.295 179.657C137.295 177.923 139.202 176.892 142.217 176.907ZM142.217 177.892C139.983 177.892 138.545 178.563 138.561 179.657C138.545 180.751 139.983 181.423 142.217 181.423C144.436 181.423 145.874 180.751 145.874 179.657C145.874 178.563 144.436 177.892 142.217 177.892ZM162.045 177.907V178.907H153.764V177.907H157.295V176.345H158.514V177.907H162.045ZM157.905 179.626C159.905 179.642 161.233 180.61 161.249 182.142C161.233 183.657 159.905 184.642 157.905 184.642C155.905 184.642 154.545 183.657 154.561 182.142C154.545 180.61 155.905 179.642 157.905 179.626ZM157.905 180.579C156.592 180.595 155.717 181.204 155.733 182.142C155.717 183.063 156.592 183.657 157.905 183.657C159.202 183.657 160.077 183.063 160.092 182.142C160.077 181.204 159.202 180.595 157.905 180.579ZM164.592 176.407V180.267H166.686V181.298H164.592V185.095H163.374V176.407H164.592ZM164.592 185.86V190.298H163.374V186.86H155.499V185.86H164.592ZM170.389 184.751V186.376H177.327V184.751H178.561V190.11H169.17V184.751H170.389ZM170.389 189.126H177.327V187.345H170.389V189.126ZM180.217 182.751V183.767H167.561V182.751H180.217ZM174.53 177.22C174.53 178.938 177.061 180.47 179.499 180.782L179.045 181.767C176.889 181.446 174.78 180.345 173.905 178.782C173.014 180.353 170.889 181.446 168.749 181.767L168.28 180.782C170.749 180.454 173.264 178.985 173.264 177.22V176.563H174.53V177.22ZM186.092 180.673C186.077 182.907 187.686 185.36 189.702 186.313L188.999 187.282C187.436 186.524 186.116 184.868 185.499 182.985C184.858 185.032 183.459 186.829 181.905 187.626L181.155 186.657C183.155 185.688 184.874 183.048 184.889 180.673V178.86H181.655V177.845H189.217V178.86H186.092V180.673ZM192.139 176.407V182.032H194.467V183.079H192.139V190.298H190.92V176.407H192.139ZM207.124 176.407V190.298H205.936V176.407H207.124ZM204.327 176.704V189.595H203.155V182.845H201.374C201.241 185.548 200.092 187.235 198.374 187.235C196.561 187.235 195.389 185.36 195.389 182.407C195.389 179.454 196.561 177.579 198.374 177.579C200.061 177.579 201.202 179.212 201.358 181.829H203.155V176.704H204.327ZM198.374 178.735C197.249 178.735 196.53 180.142 196.545 182.407C196.53 184.657 197.249 186.079 198.374 186.063C199.499 186.079 200.217 184.657 200.217 182.407C200.217 180.142 199.499 178.735 198.374 178.735ZM220.936 176.407V190.298H219.764V176.407H220.936ZM218.014 176.782V189.595H216.842V183.11H213.905C213.053 184.728 211.717 186.157 209.78 187.298L209.061 186.407C212.084 184.618 213.6 182.11 213.827 179.204H209.655V178.188H215.045C215.038 179.556 214.819 180.876 214.358 182.11H216.842V176.782H218.014ZM231.717 178.97C231.717 180.782 233.108 182.501 235.139 183.204L234.499 184.173C232.928 183.61 231.717 182.446 231.124 181.017C230.522 182.618 229.241 183.899 227.592 184.501L226.952 183.532C228.999 182.798 230.483 180.938 230.483 178.985V178.376H227.342V177.376H234.827V178.376H231.717V178.97ZM238.405 185.47V190.298H237.17V186.485H229.061V185.47H238.405ZM238.405 176.407V184.735H237.17V181.079H234.389V180.048H237.17V176.407H238.405ZM251.577 176.407V179.97H253.67V181.017H251.577V184.485H250.358V176.407H251.577ZM244.014 185.095V186.579H250.358V185.095H251.577V190.11H242.795V185.095H244.014ZM244.014 189.126H250.358V187.548H244.014V189.126ZM249.03 177.845V178.86H240.749V177.845H244.28V176.282H245.499V177.845H249.03ZM244.889 179.501C246.889 179.501 248.217 180.454 248.233 181.938C248.217 183.423 246.889 184.376 244.889 184.376C242.874 184.376 241.53 183.423 241.545 181.938C241.53 180.454 242.874 179.501 244.889 179.501ZM244.889 180.454C243.577 180.438 242.702 181.048 242.717 181.938C242.702 182.845 243.577 183.438 244.889 183.438C246.186 183.438 247.061 182.845 247.077 181.938C247.061 181.048 246.186 180.438 244.889 180.454ZM265.405 176.407V179.97H267.499V181.017H265.405V184.485H264.186V176.407H265.405ZM257.842 185.095V186.579H264.186V185.095H265.405V190.11H256.624V185.095H257.842ZM257.842 189.126H264.186V187.548H257.842V189.126ZM262.858 177.845V178.86H254.577V177.845H258.108V176.282H259.327V177.845H262.858ZM258.717 179.501C260.717 179.501 262.045 180.454 262.061 181.938C262.045 183.423 260.717 184.376 258.717 184.376C256.702 184.376 255.358 183.423 255.374 181.938C255.358 180.454 256.702 179.501 258.717 179.501ZM258.717 180.454C257.405 180.438 256.53 181.048 256.545 181.938C256.53 182.845 257.405 183.438 258.717 183.438C260.014 183.438 260.889 182.845 260.905 181.938C260.889 181.048 260.014 180.438 258.717 180.454ZM279.827 176.407V190.298H278.608V176.407H279.827ZM270.483 177.782V185.657C272.6 185.649 274.795 185.478 277.124 184.985L277.295 186.032C274.827 186.548 272.624 186.72 270.405 186.72H269.28V177.782H270.483ZM292.952 176.407V181.907H295.28V182.938H292.952V190.329H291.733V176.407H292.952ZM289.295 177.767V178.782H284.03V185.813C286.545 185.813 288.327 185.696 290.389 185.313L290.545 186.376C288.374 186.767 286.545 186.845 283.905 186.845H282.811V177.767H289.295ZM297.499 189.126C296.952 189.126 296.483 188.673 296.499 188.11C296.483 187.563 296.952 187.11 297.499 187.11C298.045 187.11 298.499 187.563 298.499 188.11C298.499 188.673 298.045 189.126 297.499 189.126Z" fill="black"/>
<defs>
<linearGradient id="paint0_linear_469_1568" x1="0.68823" y1="173.5" x2="480.856" y2="173.5" gradientUnits="userSpaceOnUse">
<stop stop-color="#3182F6"/>
<stop offset="1" stop-color="#A009FF"/>
</linearGradient>
<linearGradient id="paint1_linear_469_1568" x1="25.7325" y1="64" x2="437.703" y2="63.9999" gradientUnits="userSpaceOnUse">
<stop stop-color="#3182F6"/>
<stop offset="1" stop-color="#A009FF"/>
</linearGradient>
<linearGradient id="paint2_linear_469_1568" x1="25.0454" y1="124.668" x2="324.045" y2="124.668" gradientUnits="userSpaceOnUse">
<stop stop-color="#3182F6"/>
<stop offset="1" stop-color="#A009FF"/>
</linearGradient>
<linearGradient id="paint3_linear_469_1568" x1="20.5649" y1="251.714" x2="81.612" y2="251.714" gradientUnits="userSpaceOnUse">
<stop stop-color="#3182F6"/>
<stop offset="1" stop-color="#A009FF"/>
</linearGradient>
</defs>
</svg>
