<svg width="579" height="245" viewBox="0 0 579 245" fill="none" xmlns="http://www.w3.org/2000/svg">
<rect y="85" width="565" height="160" rx="30" fill="url(#paint0_linear_725_1246)"/>
<g filter="url(#filter0_d_725_1246)">
<path d="M422.061 61.6372C421.817 62.1209 421.183 62.1209 420.939 61.6372L415.082 50.0472C414.844 49.5773 415.153 49 415.643 49L427.357 49C427.847 49 428.156 49.5773 427.918 50.0472L422.061 61.6372Z" fill="white"/>
<path d="M274 13.3482C274 9.28992 277.305 6 281.382 6H557.293C561.37 6 564.675 9.28992 564.675 13.3482V46.4153C564.675 50.4736 561.37 53.7635 557.293 53.7635H281.382C277.305 53.7635 274 50.4736 274 46.4153V13.3482Z" fill="white"/>
<path d="M345.536 28.1067H348.316V30.3479H345.536V39.7034H342.881V20.8254H345.536V28.1067ZM380.847 32.7542C384.933 32.7542 387.402 33.9986 387.423 36.218C387.402 38.4584 384.933 39.7033 380.847 39.7034C376.718 39.7034 374.229 38.4585 374.229 36.218C374.229 33.9985 376.719 32.7542 380.847 32.7542ZM516.504 27.9417H519.284V30.1399H516.504V39.7034H513.849V20.8254H516.504V27.9417ZM405.883 39.6204H403.207V36.218H392.523V34.1438H405.883V39.6204ZM443.502 36.7581H432.881V37.7327H443.938V39.5793H430.288V35.0569H440.867V34.1233H430.205V32.3391H443.502V36.7581ZM494.174 36.1975H484.133V37.4221H494.692V39.4963H481.54V34.2688H491.539V33.1067H481.498V31.0735H494.174V36.1975ZM534.951 39.4758H522.607V32.0901H534.951V39.4758ZM355.039 37.2561H365.37V39.3713H352.384V33.4182H355.039V37.2561ZM420.416 22.5686C423.445 22.5686 425.499 24.4769 425.811 26.9456H422.74C422.491 25.8876 421.619 25.2444 420.416 25.2444C418.383 25.2446 417.305 27.0908 417.284 30.0364H417.429C418.113 28.7088 419.607 27.9203 421.267 27.9202C423.963 27.9202 425.976 29.9534 425.976 32.7747C425.976 35.8241 423.673 38.0229 420.292 38.0022C417.18 37.9815 414.234 36.1354 414.234 30.6379C414.234 25.5764 416.661 22.5688 420.416 22.5686ZM456.994 22.5686C460.126 22.5688 462.221 24.4146 462.2 26.8C462.221 28.4804 461.039 29.6834 459.358 29.9739V30.0989C461.557 30.3686 462.781 31.7172 462.761 33.5842C462.781 36.1564 460.333 38.0022 456.952 38.0022C453.654 38.0022 451.289 36.1766 451.227 33.5627H454.38C454.442 34.6829 455.521 35.4298 456.973 35.4299C458.466 35.4299 459.545 34.5794 459.524 33.3762C459.545 32.1524 458.446 31.2815 456.683 31.2815H455.293V28.9788H456.683C458.155 28.9787 459.192 28.169 459.192 26.9866C459.192 25.8459 458.321 25.058 456.994 25.0579C455.666 25.0579 454.567 25.8046 454.525 26.9456H451.538C451.58 24.3524 453.924 22.5686 456.994 22.5686ZM470.795 22.5686C474.55 22.5688 476.831 25.3897 476.831 30.2854C476.831 35.2225 474.55 38.002 470.795 38.0022C467.04 38.0022 464.758 35.2019 464.758 30.2854C464.758 25.3688 467.04 22.5686 470.795 22.5686ZM380.847 34.7659C378.233 34.7659 376.905 35.264 376.926 36.218C376.905 37.2138 378.233 37.6917 380.847 37.6917C383.398 37.6916 384.746 37.2137 384.767 36.218C384.746 35.264 383.398 34.7659 380.847 34.7659ZM525.242 37.4006H532.337V34.2268H525.242V37.4006ZM337.591 25.0989C337.57 28.4802 339.022 31.9035 342.051 33.3557L340.454 35.4719C338.431 34.4762 337.072 32.6084 336.284 30.3264C335.465 32.7743 334.002 34.7768 331.865 35.8245L330.227 33.6877C333.421 32.2149 334.936 28.6048 334.936 25.0989V22.2776H337.591V25.0989ZM420.312 30.1819C418.777 30.182 417.616 31.3849 417.595 32.8577C417.615 34.3306 418.736 35.5334 420.271 35.5334C421.806 35.5333 422.947 34.3719 422.947 32.8577C422.947 31.3641 421.848 30.1819 420.312 30.1819ZM470.795 25.1194C469.052 25.1194 467.952 26.8625 467.952 30.2854C467.931 33.7498 469.052 35.4299 470.795 35.4299C472.537 35.4297 473.657 33.7496 473.637 30.2854C473.637 26.8627 472.537 25.1196 470.795 25.1194ZM511.276 35.0979H502.211V22.6096H511.276V35.0979ZM364.913 34.6213H362.279V27.8586H359.188V25.7219H362.279V20.8459H364.913V34.6213ZM405.779 26.302H395.386V27.5471H406.132V29.5803H400.552V30.9495H407.874V33.0647H390.594V30.9495H397.917V29.5803H392.751V24.3938H403.124V23.2317H392.71V21.178H405.779V26.302ZM504.825 33.0032H508.642V24.6838H504.825V33.0032ZM359.894 24.2278H356.139V24.5393C356.139 26.7174 357.467 29.0614 360.475 30.0364L359.167 32.1321C357.072 31.4579 355.64 30.0775 354.811 28.3557C353.981 30.2642 352.477 31.7788 350.247 32.5256L348.898 30.3684C352.01 29.3934 353.421 26.9242 353.441 24.5178V24.2278H349.646V22.1116H359.894V24.2278ZM439.851 28.7297C438.181 28.9579 436.469 29.1028 434.789 29.1858V31.8206H432.176V29.2893C430.63 29.3308 429.147 29.3315 427.777 29.3108L427.508 27.4846C431.159 27.5054 435.681 27.4645 439.727 27.0911L439.851 28.7297ZM529.661 21.925C529.64 26.9246 526.487 30.3064 520.823 31.8L519.766 29.7043C523.998 28.6567 526.331 26.5617 526.777 24.0413H520.699V21.925H529.661ZM443.502 31.7786H440.847V31.177H437.424V29.5803H440.847V20.8459H443.502V31.7786ZM389.518 31.6125H372.258V29.4553H389.518V31.6125ZM534.951 24.9543H537.503V27.1321H534.951V31.385H532.296V20.8254H534.951V24.9543ZM494.174 30.2854H491.519V20.8254H494.174V30.2854ZM483.738 21.386C486.601 21.386 488.78 23.1697 488.78 25.7004C488.78 28.1898 486.601 29.9954 483.738 29.9954C480.813 29.9952 478.656 28.1897 478.656 25.7004C478.656 23.1699 480.814 21.3862 483.738 21.386ZM387.443 23.4602H376.987V26.0325H387.547V28.1282H374.354V21.3235H387.443V23.4602ZM483.738 23.5432C482.286 23.5434 481.208 24.3316 481.229 25.7004C481.208 27.0487 482.286 27.8585 483.738 27.8586C485.17 27.8586 486.229 27.0489 486.229 25.7004C486.228 24.3315 485.17 23.5432 483.738 23.5432ZM433.586 21.095C436.387 21.095 438.316 22.2367 438.337 23.9377C438.316 25.7008 436.386 26.759 433.586 26.759C430.703 26.759 428.794 25.7008 428.794 23.9377C428.794 22.2367 430.702 21.095 433.586 21.095ZM433.586 22.8381C432.155 22.8174 431.283 23.2532 431.304 23.9377C431.283 24.6428 432.155 25.0363 433.586 25.0364C434.976 25.0364 435.868 24.6428 435.868 23.9377C435.868 23.2532 434.976 22.8174 433.586 22.8381Z" fill="url(#paint1_linear_725_1246)"/>
<path d="M323.126 29.8818C323.126 35.5344 318.544 40.1168 312.891 40.1168C307.239 40.1168 302.656 35.5344 302.656 29.8818C302.656 24.2291 307.239 19.6467 312.891 19.6467C318.544 19.6467 323.126 24.2291 323.126 29.8818Z" fill="url(#paint2_linear_725_1246)"/>
<path d="M309.648 35.5527L307.367 26H309.174L310.518 32.6763H310.584L312.049 26H313.603L315.068 32.6895H315.134L316.478 26H318.285L316.004 35.5527H314.385L312.864 29.2458H312.798L311.267 35.5527H309.648Z" fill="white"/>
<path d="M320 29V31H306V29H320Z" fill="white"/>
</g>
<path d="M533.236 160.88V192.324H528.779V160.88H533.236ZM523.803 164.162C523.803 173.699 520.451 181.612 509.221 186.934L506.906 183.409C515.026 179.574 518.603 174.598 519.311 167.618H508.599V164.162H523.803Z" fill="white"/>
<path d="M501.163 160.88V168.032H505.414V171.661H501.163V179.228H496.741V160.88H501.163ZM481.537 162.711V166.719H487.964V162.711H492.387V177.673H477.148V162.711H481.537ZM481.537 174.218H487.964V170.14H481.537V174.218ZM501.336 180.645V184.135H484.992V188.454H501.924V191.909H480.604V180.645H501.336Z" fill="white"/>
<path d="M471.971 160.914V183.513H467.548V160.914H471.971ZM472.801 188.247V191.771H450.893V181.232H455.351V188.247H472.801ZM454.729 162.918C459.567 162.918 463.333 166.236 463.333 170.831C463.333 175.531 459.567 178.813 454.729 178.813C449.891 178.813 446.125 175.531 446.125 170.831C446.125 166.236 449.891 162.918 454.729 162.918ZM454.729 166.754C452.276 166.719 450.41 168.274 450.444 170.831C450.41 173.457 452.276 174.978 454.729 174.978C457.113 174.978 458.979 173.457 458.979 170.831C458.979 168.274 457.113 166.719 454.729 166.754Z" fill="white"/>
<path d="M439.995 160.811V167.652H444.245V171.177H439.995V177.846H435.572V160.811H439.995ZM439.995 179.124V187.072H423.513V188.869H440.893V192.117H419.193V184.066H435.607V182.303H419.124V179.124H439.995ZM433.706 163.23V166.581H415.047V163.23H422.2V160.673H426.588V163.23H433.706ZM424.376 167.341C429.076 167.341 432.117 169.346 432.117 172.49C432.117 175.704 429.076 177.639 424.376 177.639C419.677 177.639 416.567 175.704 416.567 172.49C416.567 169.346 419.677 167.341 424.376 167.341ZM424.376 170.451C422.2 170.451 420.852 171.177 420.887 172.49C420.852 173.838 422.2 174.494 424.376 174.494C426.553 174.494 427.936 173.838 427.936 172.49C427.936 171.177 426.553 170.451 424.376 170.451Z" fill="white"/>
<path d="M402.971 160.914V184.653H398.548V182.165H392.536V179.159H398.548V160.914H402.971ZM403.662 188.247V191.771H380.235V182.372H384.623V178.191C381.807 178.312 379.129 178.33 376.745 178.33L376.227 174.84C381.997 174.805 389.772 174.736 396.406 173.907L396.648 177.051C394.16 177.466 391.586 177.759 389.046 177.949V183.927H384.623V188.247H403.662ZM386.455 161.986C391.016 161.951 394.298 164.266 394.298 167.618C394.298 170.97 391.016 173.146 386.455 173.146C381.79 173.146 378.542 170.97 378.542 167.618C378.542 164.266 381.755 161.951 386.455 161.986ZM386.455 165.199C384.209 165.199 382.688 166.063 382.723 167.618C382.688 169.138 384.209 169.968 386.455 169.968C388.562 169.968 390.083 169.138 390.117 167.618C390.083 166.063 388.562 165.199 386.455 165.199Z" fill="white"/>
<path d="M361.78 163.471V178.571H346.68V163.471H361.78ZM351.033 166.996V175.116H357.426V166.996H351.033ZM370.695 160.88V169.933H374.945V173.561H370.695V183.824H366.272V160.88H370.695ZM371.835 188.247V191.771H350.308V181.578H354.696V188.247H371.835Z" fill="white"/>
<path d="M333.126 189.491C326.871 189.491 323.07 184.826 323.07 176.636C323.07 168.447 326.871 163.782 333.126 163.782C339.38 163.782 343.181 168.482 343.181 176.636C343.181 184.86 339.38 189.491 333.126 189.491ZM333.126 185.206C336.028 185.206 337.894 182.407 337.859 176.636C337.859 170.935 336.028 168.032 333.126 168.032C330.223 168.032 328.392 170.935 328.392 176.636C328.357 182.407 330.223 185.206 333.126 185.206Z" fill="white"/>
<path d="M317.615 164.128V189.145H312.398V169.069H312.259L306.523 172.663V168.067L312.709 164.128H317.615Z" fill="white"/>
<path d="M294.264 160.88V192.324H290.083V176.533H287.043V190.804H283V161.398H287.043V173.008H290.083V160.88H294.264ZM279.683 164.508V168.067H272.392V181.474C275.432 181.457 278.128 181.301 281.168 180.748L281.479 184.342C277.644 185.068 274.292 185.171 270.146 185.206H267.969V164.508H279.683Z" fill="white"/>
<path d="M249.099 177.88V182.614C251.673 182.459 254.282 182.217 256.735 181.854L257.081 185.068C250.101 186.415 242.637 186.484 237.143 186.484L236.625 182.925C238.992 182.908 241.774 182.891 244.711 182.787V177.88H249.099ZM255.595 164.577V168.136H249.168C249.462 171.177 251.829 174.028 256.563 175.185L254.559 178.606C250.879 177.673 248.339 175.634 246.922 173.008C245.523 175.755 243.017 177.898 239.32 178.848L237.247 175.531C241.998 174.269 244.296 171.315 244.607 168.136H238.249V164.577H244.711V161.156H249.099V164.577H255.595ZM262.921 160.88V192.393H258.532V160.88H262.921Z" fill="white"/>
<path d="M223.665 163.609V166.581C223.665 170.52 223.665 174.943 222.387 181.612L217.964 181.163C219.156 175.22 219.208 170.797 219.243 167.099H200.722V163.609H223.665ZM226.43 184.895V188.488H197.75V184.895H208.013V174.079H212.401V184.895H226.43Z" fill="white"/>
<path d="M191.983 160.88V173.181H196.613V176.809H191.983V192.324H187.629V160.88H191.983ZM185.486 165.579V169.104H167V165.579H174.118V161.364H178.541V165.579H185.486ZM176.33 170.866C180.925 170.866 184.346 173.976 184.346 178.364C184.346 182.753 180.925 185.862 176.33 185.862C171.699 185.862 168.278 182.753 168.278 178.364C168.278 173.976 171.699 170.866 176.33 170.866ZM176.33 174.425C174.118 174.46 172.494 175.945 172.494 178.364C172.494 180.817 174.118 182.269 176.33 182.234C178.541 182.269 180.131 180.817 180.131 178.364C180.131 175.945 178.541 174.46 176.33 174.425Z" fill="white"/>
<path d="M165.33 177.742V181.267H136.547V177.742H148.744V175.462H140.14V166.823H157.417V164.888H140.071V161.467H161.84V170.002H144.529V172.075H162.428V175.462H153.133V177.742H165.33ZM162.013 183.063V192.186H157.556V186.519H139.76V183.063H162.013Z" fill="white"/>
<path d="M134.757 175.254V178.848H106.008V175.254H134.757ZM131.474 169.553V173.043H109.498V161.709H131.301V165.268H113.886V169.553H131.474ZM120.313 180.748C127.12 180.748 131.232 182.822 131.267 186.519C131.232 190.251 127.12 192.324 120.313 192.324C113.437 192.324 109.29 190.251 109.29 186.519C109.29 182.822 113.437 180.748 120.313 180.748ZM120.313 184.1C115.959 184.1 113.748 184.929 113.782 186.519C113.748 188.177 115.959 188.972 120.313 188.972C124.563 188.972 126.809 188.177 126.844 186.519C126.809 184.929 124.563 184.1 120.313 184.1Z" fill="white"/>
<path d="M93.7851 160.914V183.858H89.3967V172.594H84.2482V169.035H89.3967V160.914H93.7851ZM94.5453 188.247V191.771H72.9144V181.854H77.3374V188.247H94.5453ZM79.1687 167.065C79.1687 170.693 81.3802 174.598 86.3905 176.222L84.2136 179.712C80.7237 178.589 78.3394 176.291 76.9573 173.423C75.5751 176.602 73.0699 179.124 69.3554 180.368L67.1094 176.775C72.2925 175.151 74.6421 171.039 74.6767 167.03V166.547H68.3533V163.022H85.423V166.547H79.1687V167.065Z" fill="white"/>
<path d="M48.2667 167.998C48.2321 173.63 50.6509 179.332 55.6958 181.75L53.0351 185.275C49.6661 183.616 47.4028 180.506 46.0898 176.706C44.7249 180.783 42.2888 184.117 38.7298 185.862L36 182.303C41.3213 179.85 43.8438 173.838 43.8438 167.998V163.299H48.2667V167.998ZM61.5009 160.88V173.008H66.1311V176.74H61.5009V192.324H57.0779V160.88H61.5009Z" fill="white"/>
<path d="M193.208 137V152.306H191.093V144.116H188.408V142.387H191.093V137H193.208ZM188.156 138.276V140.004H183.155V142.539H187.603V144.217H183.155V147.104C185.27 147.087 186.965 147.011 188.861 146.718L189.079 148.429C186.847 148.765 184.85 148.849 182.232 148.849H181.023V138.276H188.156Z" fill="white"/>
<path d="M173.492 139.014C173.492 141.246 175.473 143.646 178.93 144.234L177.99 146.013C175.33 145.484 173.35 143.99 172.368 142.018C171.352 143.973 169.372 145.476 166.729 146.013L165.806 144.234C169.196 143.629 171.193 141.229 171.21 139.014V137.906H173.492V139.014ZM179.434 148.631V150.393H165.453V148.631H179.434Z" fill="white"/>
<path d="M164.582 145.811V147.49H158.607V152.273H156.493V147.49H150.602V145.811H164.582ZM154.361 137.587V139.35H160.772V137.587H162.921V144.334H152.246V137.587H154.361ZM154.361 142.622H160.772V141.028H154.361V142.622Z" fill="white"/>
<path d="M139.693 138.359V142.287H142.579V137H144.694V152.306H142.579V144.015H139.693V148.547H132.375V138.359H139.693ZM134.506 140.021V146.885H137.595V140.021H134.506Z" fill="white"/>
<path d="M130.083 137V145.727H127.935V141.716H126.172V140.004H127.935V137H130.083ZM130.083 146.415V152.071H119.442V146.415H130.083ZM121.54 148.077V150.393H127.968V148.077H121.54ZM120.902 138.762C120.902 140.088 121.087 141.649 121.977 142.857C122.816 141.666 122.984 140.105 122.984 138.762V137.856H124.998V138.762C124.998 140.642 125.484 142.639 127.263 143.713L126.089 145.224C125.056 144.611 124.402 143.646 124.024 142.505C123.638 143.697 123.009 144.746 121.96 145.392C120.894 144.729 120.256 143.663 119.895 142.455C119.501 143.613 118.855 144.603 117.814 145.224L116.656 143.713C118.419 142.639 118.888 140.558 118.888 138.762V137.856H120.902V138.762Z" fill="white"/>
<path d="M107.093 138.091V139.836H105.835V143.797C106.464 143.764 107.085 143.713 107.681 143.646L107.832 145.207C104.727 145.694 101.286 145.761 98.6178 145.761L98.3828 143.999L100.028 143.982V139.836H98.7856V138.091H107.093ZM110.92 146.953V152.273H108.772V148.664H100.414V146.953H110.92ZM110.92 137V146.348H108.772V137H110.92ZM102.075 143.965L103.77 143.915V139.836H102.075V143.965Z" fill="white"/>
<path d="M96.5219 137V152.273H94.4743V137H96.5219ZM93.333 137.218V151.568H91.319V144.351H90.0938C89.8924 147.355 88.6169 149.168 86.7372 149.168C84.7232 149.168 83.4141 147.053 83.4141 143.613C83.4141 140.189 84.7232 138.091 86.7372 138.091C88.5749 138.091 89.8337 139.803 90.0771 142.656H91.319V137.218H93.333ZM86.7372 140.105C85.8812 140.105 85.3777 141.28 85.3945 143.613C85.3777 145.962 85.8812 147.12 86.7372 147.104C87.6099 147.12 88.1302 145.962 88.1302 143.613C88.1302 141.28 87.6099 140.105 86.7372 140.105Z" fill="white"/>
<path d="M73.5011 150.897C70.9668 150.897 69.1207 149.403 69.0703 147.305H71.5207C71.571 148.262 72.4438 148.899 73.5011 148.899C74.7599 148.899 75.6494 148.01 75.6494 146.751C75.6494 145.459 74.7431 144.569 73.4676 144.553C72.5613 144.553 71.9235 144.888 71.5543 145.576H69.2717L69.9263 138.578H77.4116V140.642H72.0074L71.6717 143.713H71.7724C72.2256 143.109 73.1319 142.69 74.206 142.69C76.4382 142.69 78.0998 144.351 78.0998 146.684C78.0998 149.134 76.2368 150.897 73.5011 150.897Z" fill="white"/>
<path d="M58.5473 150.729L58.5305 148.899L62.8942 144.888C64.0355 143.797 64.6397 143.126 64.6397 142.169C64.6397 141.095 63.8173 140.424 62.7096 140.424C61.5683 140.424 60.8298 141.145 60.8298 142.303H58.4298C58.413 139.92 60.1753 138.41 62.7431 138.41C65.3446 138.41 67.0732 139.887 67.0732 142.001C67.0732 143.378 66.4019 144.519 63.9012 146.785L62.055 148.58V148.648H67.2411V150.729H58.5473Z" fill="white"/>
<path d="M51.9152 150.897C48.8774 150.897 47.0312 148.631 47.0312 144.653C47.0312 140.675 48.8774 138.41 51.9152 138.41C54.953 138.41 56.7992 140.692 56.7992 144.653C56.7992 148.648 54.953 150.897 51.9152 150.897ZM51.9152 148.815C53.325 148.815 54.2313 147.456 54.2145 144.653C54.2145 141.884 53.325 140.474 51.9152 140.474C50.5054 140.474 49.6159 141.884 49.6159 144.653C49.5991 147.456 50.5054 148.815 51.9152 148.815Z" fill="white"/>
<path d="M36.7192 150.729L36.7024 148.899L41.0661 144.888C42.2073 143.797 42.8115 143.126 42.8115 142.169C42.8115 141.095 41.9891 140.424 40.8814 140.424C39.7402 140.424 39.0017 141.145 39.0017 142.303H36.6017C36.5849 139.92 38.3472 138.41 40.915 138.41C43.5164 138.41 45.2451 139.887 45.2451 142.001C45.2451 143.378 44.5738 144.519 42.0731 146.785L40.2269 148.58V148.648H45.413V150.729H36.7192Z" fill="white"/>
<defs>
<filter id="filter0_d_725_1246" x="268" y="0" width="310.672" height="76" filterUnits="userSpaceOnUse" color-interpolation-filters="sRGB">
<feFlood flood-opacity="0" result="BackgroundImageFix"/>
<feColorMatrix in="SourceAlpha" type="matrix" values="0 0 0 0 0 0 0 0 0 0 0 0 0 0 0 0 0 0 127 0" result="hardAlpha"/>
<feOffset dx="4" dy="4"/>
<feGaussianBlur stdDeviation="5"/>
<feComposite in2="hardAlpha" operator="out"/>
<feColorMatrix type="matrix" values="0 0 0 0 0.197581 0 0 0 0 0.197581 0 0 0 0 0.878711 0 0 0 0.25 0"/>
<feBlend mode="normal" in2="BackgroundImageFix" result="effect1_dropShadow_725_1246"/>
<feBlend mode="normal" in="SourceGraphic" in2="effect1_dropShadow_725_1246" result="shape"/>
</filter>
<linearGradient id="paint0_linear_725_1246" x1="-0.510581" y1="165" x2="785.851" y2="165" gradientUnits="userSpaceOnUse">
<stop stop-color="#3182F6"/>
<stop offset="1" stop-color="#A009FF"/>
</linearGradient>
<linearGradient id="paint1_linear_725_1246" x1="330.039" y1="30.2644" x2="618.525" y2="30.2643" gradientUnits="userSpaceOnUse">
<stop stop-color="#3182F6"/>
<stop offset="1" stop-color="#A009FF"/>
</linearGradient>
<linearGradient id="paint2_linear_725_1246" x1="302.638" y1="29.8818" x2="331.128" y2="29.8818" gradientUnits="userSpaceOnUse">
<stop stop-color="#3182F6"/>
<stop offset="1" stop-color="#A009FF"/>
</linearGradient>
</defs>
</svg>
