<svg width="1026" height="156" viewBox="0 0 1026 156" fill="none" xmlns="http://www.w3.org/2000/svg">
<rect width="1026" height="156" rx="25" fill="url(#paint0_linear_721_1049)"/>
<rect x="620" y="61" width="315" height="52" rx="8" fill="white"/>
<path d="M603.575 88.3743C602.889 87.9934 602.889 87.0066 603.575 86.6257L620.015 77.4993C620.681 77.1293 621.5 77.6112 621.5 78.3736L621.5 96.6264C621.5 97.3888 620.681 97.8707 620.015 97.5007L603.575 88.3743Z" fill="white"/>
<path d="M692.131 82.2539C692.108 85.915 693.681 89.6211 696.96 91.1934L695.23 93.4844C693.041 92.4062 691.569 90.3848 690.716 87.9141C689.829 90.5645 688.245 92.7319 685.932 93.8662L684.157 91.5527C687.616 89.958 689.256 86.0498 689.256 82.2539V79.1992H692.131V82.2539ZM700.733 77.627V85.5107H703.743V87.9365H700.733V98.0664H697.858V77.627H700.733ZM721.712 77.6494V92.5635H718.859V85.2412H715.513V82.9277H718.859V77.6494H721.712ZM722.206 95.416V97.707H708.146V91.2607H711.021V95.416H722.206ZM712.211 81.6475C712.211 84.0059 713.648 86.5439 716.905 87.5996L715.49 89.8682C713.222 89.1382 711.672 87.6445 710.773 85.7803C709.875 87.8467 708.247 89.4863 705.832 90.2949L704.372 87.959C707.741 86.9033 709.269 84.2305 709.291 81.625V81.3105H705.181V79.0195H716.276V81.3105H712.211V81.6475ZM748.351 86.9707V89.3066H729.663V86.9707H748.351ZM746.217 83.2646V85.5332H731.932V78.166H746.104V80.4795H734.784V83.2646H746.217ZM738.962 90.542C743.387 90.542 746.06 91.8896 746.082 94.293C746.06 96.7188 743.387 98.0664 738.962 98.0664C734.492 98.0664 731.797 96.7188 731.797 94.293C731.797 91.8896 734.492 90.542 738.962 90.542ZM738.962 92.7207C736.132 92.7207 734.694 93.2598 734.717 94.293C734.694 95.3711 736.132 95.8877 738.962 95.8877C741.725 95.8877 743.185 95.3711 743.207 94.293C743.185 93.2598 741.725 92.7207 738.962 92.7207ZM768.229 88.5879V90.8789H749.519V88.5879H757.447V87.1055H751.854V81.4902H763.085V80.2324H751.81V78.0088H765.96V83.5566H754.707V84.9043H766.342V87.1055H760.3V88.5879H768.229ZM766.072 92.0469V97.9766H763.175V94.293H751.607V92.0469H766.072ZM776.022 96L782.873 82.6133V82.501H774.899V79.7383H786.377V82.5459L779.526 96H776.022ZM805.267 77.6494V89.4863H802.392V88.835H798.686V87.1055H802.392V77.6494H805.267ZM787.949 84.8369C791.902 84.8594 796.799 84.8145 801.179 84.4102L801.313 86.1846C799.505 86.4316 797.652 86.5889 795.833 86.6787V89.5312H793.003V86.791C791.33 86.8359 789.724 86.8359 788.241 86.8135L787.949 84.8369ZM805.267 90.0928V94.877H793.767V95.9326H805.738V97.9316H790.959V93.0352H802.414V92.0244H790.869V90.0928H805.267ZM794.53 77.9189C797.562 77.9189 799.651 79.1543 799.674 80.9961C799.651 82.9053 797.562 84.0508 794.53 84.0508C791.408 84.0508 789.342 82.9053 789.342 80.9961C789.342 79.1543 791.408 77.9189 794.53 77.9189ZM794.53 79.8057C792.98 79.7832 792.037 80.2549 792.06 80.9961C792.037 81.7598 792.98 82.1865 794.53 82.1865C796.035 82.1865 797.001 81.7598 797.001 80.9961C797.001 80.2549 796.035 79.7832 794.53 79.8057ZM819.911 96.2246C816.205 96.2246 813.532 94.2705 813.532 91.6201C813.532 89.5762 815.104 87.9141 817.126 87.5996V87.4873C815.374 87.1504 814.161 85.668 814.161 83.8936C814.161 81.3555 816.587 79.5137 819.911 79.5137C823.235 79.5137 825.661 81.3555 825.684 83.8936C825.661 85.6904 824.426 87.1504 822.719 87.4873V87.5996C824.695 87.9141 826.29 89.5762 826.29 91.6201C826.29 94.2705 823.617 96.2246 819.911 96.2246ZM819.911 93.6416C821.618 93.6416 822.764 92.6758 822.764 91.2832C822.764 89.8682 821.573 88.835 819.911 88.835C818.249 88.835 817.036 89.8682 817.059 91.2832C817.036 92.6758 818.182 93.6416 819.911 93.6416ZM819.911 86.4541C821.349 86.4541 822.382 85.5332 822.382 84.2305C822.382 82.9727 821.371 82.0742 819.911 82.0742C818.451 82.0742 817.463 82.9502 817.463 84.2305C817.463 85.5332 818.474 86.4541 819.911 86.4541ZM833.747 78.2334C836.847 78.2334 839.205 80.165 839.205 82.9053C839.205 85.6006 836.847 87.5547 833.747 87.5547C830.58 87.5547 828.244 85.6006 828.244 82.9053C828.244 80.165 830.58 78.2334 833.747 78.2334ZM833.747 80.5693C832.175 80.5693 831.007 81.4229 831.029 82.9053C831.007 84.3652 832.175 85.2412 833.747 85.2412C835.297 85.2412 836.442 84.3652 836.442 82.9053C836.442 81.4229 835.297 80.5693 833.747 80.5693ZM845.045 77.627V87.8691H842.17V77.627H845.045ZM845.045 88.7227V94.2705H834.174V95.5957H845.606V97.8418H831.366V92.1816H842.192V90.9238H831.321V88.7227H845.045ZM863.575 79.5586V93.0801H853.76V79.5586H863.575ZM856.59 81.8047V90.8115H860.723V81.8047H856.59ZM869.235 77.627V85.3311H872.245V87.7119H869.235V98.0664H866.36V77.627H869.235ZM889.203 77.627V82.0967H891.966V84.4551H889.203V89.0596H886.328V77.627H889.203ZM883.476 78.8174C883.453 84.2305 880.039 87.8916 873.907 89.5088L872.762 87.2402C877.344 86.106 879.871 83.8374 880.354 81.1084H873.772V78.8174H883.476ZM889.203 89.8232V97.8193H875.839V89.8232H889.203ZM878.691 92.1367V95.5732H886.373V92.1367H878.691Z" fill="url(#paint1_linear_721_1049)"/>
<circle cx="666" cy="88" r="11" fill="url(#paint2_linear_721_1049)"/>
<path d="M662.86 93.5L660.484 83.1875H662.366L663.766 90.3949H663.835L665.361 83.1875H666.979L668.505 90.4091H668.574L669.974 83.1875H671.855L669.48 93.5H667.793L666.21 86.6915H666.141L664.546 93.5H662.86Z" fill="white"/>
<path d="M673.224 87.1796V89.1243H659.125V87.1796H673.224Z" fill="white"/>
<path d="M99.373 78.082C99.3389 83.6533 101.731 89.293 106.722 91.6855L104.09 95.1719C100.757 93.5312 98.5186 90.4551 97.2197 86.6953C95.8696 90.7285 93.46 94.0269 89.9395 95.7529L87.2393 92.2324C92.5029 89.8057 94.998 83.8584 94.998 78.082V73.4336H99.373V78.082ZM112.464 71.041V83.0381H117.044V86.7295H112.464V102.145H108.089V71.041H112.464ZM144.388 71.0752V93.7705H140.047V82.6279H134.954V79.1074H140.047V71.0752H144.388ZM145.14 98.1113V101.598H123.743V91.7881H128.118V98.1113H145.14ZM129.93 77.1592C129.93 80.748 132.117 84.6104 137.073 86.2168L134.92 89.6689C131.468 88.5581 129.109 86.2852 127.742 83.4482C126.375 86.5928 123.897 89.0879 120.223 90.3184L118.001 86.7637C123.128 85.1572 125.452 81.0898 125.486 77.125V76.6465H119.231V73.1602H136.116V76.6465H129.93V77.1592ZM184.925 85.2598V88.8145H156.487V85.2598H184.925ZM181.678 79.6201V83.0723H159.939V71.8613H181.507V75.3818H164.28V79.6201H181.678ZM170.638 90.6943C177.371 90.6943 181.438 92.7451 181.473 96.4023C181.438 100.094 177.371 102.145 170.638 102.145C163.836 102.145 159.734 100.094 159.734 96.4023C159.734 92.7451 163.836 90.6943 170.638 90.6943ZM170.638 94.0098C166.331 94.0098 164.144 94.8301 164.178 96.4023C164.144 98.043 166.331 98.8291 170.638 98.8291C174.842 98.8291 177.063 98.043 177.098 96.4023C177.063 94.8301 174.842 94.0098 170.638 94.0098ZM215.174 87.7207V91.207H186.702V87.7207H198.768V85.4648H190.257V76.9199H207.347V75.0059H190.188V71.6221H211.722V80.0645H194.598V82.1152H212.303V85.4648H203.108V87.7207H215.174ZM211.893 92.9844V102.008H207.483V96.4023H189.881V92.9844H211.893ZM241.526 71.041V83.209H246.106V86.7979H241.526V102.145H237.22V71.041H241.526ZM235.101 75.6895V79.1758H216.814V75.6895H223.855V71.5195H228.23V75.6895H235.101ZM226.043 80.9189C230.589 80.9189 233.973 83.9951 233.973 88.3359C233.973 92.6768 230.589 95.7529 226.043 95.7529C221.463 95.7529 218.079 92.6768 218.079 88.3359C218.079 83.9951 221.463 80.9189 226.043 80.9189ZM226.043 84.4395C223.855 84.4736 222.249 85.9434 222.249 88.3359C222.249 90.7627 223.855 92.1982 226.043 92.1641C228.23 92.1982 229.803 90.7627 229.803 88.3359C229.803 85.9434 228.23 84.4736 226.043 84.4395ZM272.869 73.7412V76.6807C272.869 80.5771 272.869 84.9521 271.604 91.5488L267.229 91.1045C268.409 85.2256 268.46 80.8506 268.494 77.1934H250.174V73.7412H272.869ZM275.604 94.7959V98.3506H247.234V94.7959H257.386V84.0977H261.727V94.7959H275.604ZM298.025 87.8574V92.54C300.572 92.3862 303.152 92.147 305.579 91.7881L305.921 94.9668C299.017 96.2998 291.634 96.3682 286.199 96.3682L285.687 92.8477C288.028 92.8306 290.779 92.8135 293.685 92.7109V87.8574H298.025ZM304.451 74.6982V78.2188H298.094C298.384 81.2266 300.726 84.0464 305.408 85.1914L303.426 88.5752C299.786 87.6523 297.273 85.6357 295.872 83.0381C294.488 85.7554 292.01 87.8745 288.353 88.8145L286.302 85.5332C291.001 84.2856 293.274 81.3633 293.582 78.2188H287.293V74.6982H293.685V71.3145H298.025V74.6982H304.451ZM311.697 71.041V102.213H307.356V71.041H311.697ZM342.698 71.041V102.145H338.562V86.5244H335.555V100.641H331.556V71.5537H335.555V83.0381H338.562V71.041H342.698ZM328.274 74.6299V78.1504H321.062V91.4121C324.07 91.395 326.736 91.2412 329.744 90.6943L330.052 94.249C326.258 94.9668 322.942 95.0693 318.841 95.1035H316.688V74.6299H328.274ZM365.804 74.2539V99H360.643V79.1416H360.506L354.832 82.6963V78.1504L360.95 74.2539H365.804ZM381.15 99.3418C374.964 99.3418 371.204 94.7275 371.204 86.627C371.204 78.5264 374.964 73.9121 381.15 73.9121C387.337 73.9121 391.097 78.5605 391.097 86.627C391.097 94.7617 387.337 99.3418 381.15 99.3418ZM381.15 95.1035C384.021 95.1035 385.867 92.335 385.833 86.627C385.833 80.9873 384.021 78.1162 381.15 78.1162C378.279 78.1162 376.468 80.9873 376.468 86.627C376.434 92.335 378.279 95.1035 381.15 95.1035ZM409.485 73.6045V88.541H394.549V73.6045H409.485ZM398.855 77.0908V85.123H405.179V77.0908H398.855ZM418.304 71.041V79.9961H422.508V83.585H418.304V93.7363H413.929V71.041H418.304ZM419.432 98.1113V101.598H398.138V91.5146H402.479V98.1113H419.432ZM450.228 71.0752V94.5566H445.853V92.0957H439.905V89.1221H445.853V71.0752H450.228ZM450.911 98.1113V101.598H427.737V92.3008H432.078V88.165C429.292 88.2847 426.644 88.3018 424.285 88.3018L423.772 84.8496C429.48 84.8154 437.171 84.7471 443.733 83.9268L443.973 87.0371C441.512 87.4473 438.965 87.7378 436.453 87.9258V93.8389H432.078V98.1113H450.911ZM433.89 72.1348C438.401 72.1006 441.648 74.3906 441.648 77.7061C441.648 81.0215 438.401 83.1748 433.89 83.1748C429.275 83.1748 426.062 81.0215 426.062 77.7061C426.062 74.3906 429.241 72.1006 433.89 72.1348ZM433.89 75.3135C431.668 75.3135 430.164 76.168 430.198 77.7061C430.164 79.21 431.668 80.0303 433.89 80.0303C435.975 80.0303 437.479 79.21 437.513 77.7061C437.479 76.168 435.975 75.3135 433.89 75.3135ZM486.868 70.9727V77.7402H491.072V81.2266H486.868V87.8232H482.493V70.9727H486.868ZM486.868 89.0879V96.9492H470.564V98.7266H487.757V101.939H466.292V93.9756H482.527V92.2324H466.224V89.0879H486.868ZM480.647 73.3652V76.6807H462.19V73.3652H469.266V70.8359H473.606V73.3652H480.647ZM471.419 77.4326C476.067 77.4326 479.075 79.415 479.075 82.5254C479.075 85.7041 476.067 87.6182 471.419 87.6182C466.771 87.6182 463.694 85.7041 463.694 82.5254C463.694 79.415 466.771 77.4326 471.419 77.4326ZM471.419 80.5088C469.266 80.5088 467.933 81.2266 467.967 82.5254C467.933 83.8584 469.266 84.5078 471.419 84.5078C473.572 84.5078 474.939 83.8584 474.939 82.5254C474.939 81.2266 473.572 80.5088 471.419 80.5088ZM518.484 71.0752V93.4287H514.109V71.0752H518.484ZM519.305 98.1113V101.598H497.635V91.1729H502.044V98.1113H519.305ZM501.429 73.0576C506.214 73.0576 509.939 76.3389 509.939 80.8848C509.939 85.5332 506.214 88.7803 501.429 88.7803C496.644 88.7803 492.918 85.5332 492.918 80.8848C492.918 76.3389 496.644 73.0576 501.429 73.0576ZM501.429 76.8516C499.002 76.8174 497.156 78.3555 497.19 80.8848C497.156 83.4824 499.002 84.9863 501.429 84.9863C503.787 84.9863 505.633 83.4824 505.633 80.8848C505.633 78.3555 503.787 76.8174 501.429 76.8516ZM547.366 71.041V78.1162H551.57V81.7051H547.366V89.1904H542.991V71.041H547.366ZM527.952 72.8525V76.8174H534.31V72.8525H538.685V87.6523H523.611V72.8525H527.952ZM527.952 84.2344H534.31V80.2012H527.952V84.2344ZM547.537 90.5918V94.0439H531.37V98.3164H548.118V101.734H527.029V90.5918H547.537ZM579.085 71.041V102.145H574.676V71.041H579.085ZM569.754 74.2881C569.754 83.7217 566.438 91.5488 555.33 96.8125L553.04 93.3262C561.072 89.5322 564.61 84.6104 565.311 77.7061H554.715V74.2881H569.754Z" fill="white"/>
<path d="M87.9463 61L87.9297 59.1904L92.2461 55.2227C93.375 54.1436 93.9727 53.4795 93.9727 52.5332C93.9727 51.4707 93.1592 50.8066 92.0635 50.8066C90.9346 50.8066 90.2041 51.5205 90.2041 52.666H87.8301C87.8135 50.3086 89.5566 48.8145 92.0967 48.8145C94.6699 48.8145 96.3799 50.2754 96.3799 52.3672C96.3799 53.7285 95.7158 54.8574 93.2422 57.0986L91.416 58.875V58.9414H96.5459V61H87.9463ZM102.987 61.166C99.9824 61.166 98.1562 58.9248 98.1562 54.9902C98.1562 51.0557 99.9824 48.8145 102.987 48.8145C105.992 48.8145 107.818 51.0723 107.818 54.9902C107.818 58.9414 105.992 61.166 102.987 61.166ZM102.987 59.1074C104.382 59.1074 105.278 57.7627 105.262 54.9902C105.262 52.251 104.382 50.8564 102.987 50.8564C101.593 50.8564 100.713 52.251 100.713 54.9902C100.696 57.7627 101.593 59.1074 102.987 59.1074ZM109.545 61L109.528 59.1904L113.845 55.2227C114.974 54.1436 115.571 53.4795 115.571 52.5332C115.571 51.4707 114.758 50.8066 113.662 50.8066C112.533 50.8066 111.803 51.5205 111.803 52.666H109.429C109.412 50.3086 111.155 48.8145 113.695 48.8145C116.269 48.8145 117.979 50.2754 117.979 52.3672C117.979 53.7285 117.314 54.8574 114.841 57.0986L113.015 58.875V58.9414H118.145V61H109.545ZM124.337 61.166C121.83 61.166 120.004 59.6885 119.954 57.6133H122.378C122.428 58.5596 123.291 59.1904 124.337 59.1904C125.582 59.1904 126.462 58.3105 126.462 57.0654C126.462 55.7871 125.565 54.9072 124.304 54.8906C123.407 54.8906 122.776 55.2227 122.411 55.9033H120.153L120.801 48.9805H128.205V51.0225H122.859L122.527 54.0605H122.627C123.075 53.4629 123.972 53.0479 125.034 53.0479C127.242 53.0479 128.886 54.6914 128.886 56.999C128.886 59.4229 127.043 61.166 124.337 61.166ZM147.098 47.4199V62.5273H145.072V47.4199H147.098ZM143.943 47.6357V61.8301H141.951V54.6914H140.739C140.54 57.6631 139.278 59.4561 137.419 59.4561C135.427 59.4561 134.132 57.3643 134.132 53.9609C134.132 50.5742 135.427 48.499 137.419 48.499C139.237 48.499 140.482 50.1924 140.723 53.0146H141.951V47.6357H143.943ZM137.419 50.4912C136.572 50.4912 136.074 51.6533 136.091 53.9609C136.074 56.2852 136.572 57.4307 137.419 57.4141C138.282 57.4307 138.797 56.2852 138.797 53.9609C138.797 51.6533 138.282 50.4912 137.419 50.4912ZM157.557 48.499V50.2256H156.312V54.1436C156.934 54.1104 157.548 54.0605 158.138 53.9941L158.287 55.5381C155.216 56.0195 151.812 56.0859 149.173 56.0859L148.94 54.3428L150.567 54.3262V50.2256H149.339V48.499H157.557ZM161.342 57.2646V62.5273H159.217V58.958H150.949V57.2646H161.342ZM161.342 47.4199V56.667H159.217V47.4199H161.342ZM152.593 54.3096L154.27 54.2598V50.2256H152.593V54.3096ZM180.301 47.4199V56.0527H178.176V52.085H176.433V50.3916H178.176V47.4199H180.301ZM180.301 56.7334V62.3281H169.775V56.7334H180.301ZM171.851 58.377V60.668H178.209V58.377H171.851ZM171.22 49.1631C171.22 50.4746 171.402 52.0186 172.282 53.2139C173.112 52.0352 173.278 50.4912 173.278 49.1631V48.2666H175.271V49.1631C175.271 51.0225 175.752 52.998 177.512 54.0605L176.35 55.5547C175.329 54.9487 174.681 53.9941 174.308 52.8652C173.926 54.0439 173.303 55.0815 172.266 55.7207C171.211 55.0649 170.581 54.0107 170.224 52.8154C169.833 53.9609 169.194 54.9404 168.165 55.5547L167.02 54.0605C168.763 52.998 169.228 50.9395 169.228 49.1631V48.2666H171.22V49.1631ZM189.797 48.7646V52.6494H192.652V47.4199H194.744V62.5605H192.652V54.3594H189.797V58.8418H182.559V48.7646H189.797ZM184.667 50.4082V57.1982H187.722V50.4082H184.667ZM210.499 56.1357V57.7959H204.589V62.5273H202.497V57.7959H196.67V56.1357H210.499ZM200.389 48.001V49.7441H206.73V48.001H208.855V54.6748H198.297V48.001H200.389ZM200.389 52.9814H206.73V51.4043H200.389V52.9814ZM219.331 49.4121C219.331 51.6201 221.29 53.9941 224.71 54.5752L223.78 56.335C221.149 55.812 219.19 54.3345 218.219 52.3838C217.214 54.3179 215.255 55.8037 212.641 56.335L211.728 54.5752C215.081 53.9775 217.057 51.6035 217.073 49.4121V48.3164H219.331V49.4121ZM225.208 58.9248V60.668H211.379V58.9248H225.208ZM238.821 47.4199V62.5605H236.729V54.459H234.073V52.749H236.729V47.4199H238.821ZM233.824 48.6816V50.3916H228.877V52.8984H233.276V54.5586H228.877V57.4141C230.969 57.3975 232.646 57.3228 234.521 57.0322L234.737 58.7256C232.529 59.0576 230.554 59.1406 227.964 59.1406H226.769V48.6816H233.824Z" fill="white"/>
<defs>
<linearGradient id="paint0_linear_721_1049" x1="-0.927178" y1="78" x2="1427.05" y2="77.9998" gradientUnits="userSpaceOnUse">
<stop stop-color="#3182F6"/>
<stop offset="1" stop-color="#A009FF"/>
</linearGradient>
<linearGradient id="paint1_linear_721_1049" x1="683.811" y1="87.5" x2="974.695" y2="87.5" gradientUnits="userSpaceOnUse">
<stop stop-color="#3182F6"/>
<stop offset="1" stop-color="#A009FF"/>
</linearGradient>
<linearGradient id="paint2_linear_721_1049" x1="654.98" y1="88" x2="685.6" y2="88" gradientUnits="userSpaceOnUse">
<stop stop-color="#3182F6"/>
<stop offset="1" stop-color="#A009FF"/>
</linearGradient>
</defs>
</svg>
