<svg width="376" height="451" viewBox="0 0 376 451" fill="none" xmlns="http://www.w3.org/2000/svg">
<g filter="url(#filter0_i_463_1318)">
<rect y="0.321289" width="376" height="450.344" rx="15" fill="white"/>
</g>
<rect x="0.5" y="0.821289" width="375" height="449.344" rx="14.5" stroke="url(#paint0_linear_463_1318)"/>
<path d="M28.9375 396.093V387.609H29.9922V391.804H30.0977L33.8711 387.609H35.2539L31.7031 391.441L35.2539 396.093H33.9648L31.0469 392.167L29.9922 393.363V396.093H28.9375ZM36.2617 396.093V389.73H37.2344V390.703H37.3047C37.5391 390.058 38.1953 389.624 38.9453 389.624C39.0977 389.624 39.3555 389.636 39.4727 389.648V390.667C39.4023 390.644 39.1211 390.597 38.8633 390.597C37.9492 390.597 37.2695 391.23 37.2695 392.085V396.093H36.2617ZM40.1406 394.288C40.1406 392.824 41.4297 392.495 42.5312 392.413C42.9355 392.384 43.9668 392.331 44.2539 392.32V391.804C44.2539 390.995 43.7734 390.527 42.8125 390.527C42.0039 390.527 41.5234 390.902 41.3828 391.382H40.3281C40.457 390.363 41.4531 389.648 42.8594 389.648C43.6914 389.648 45.25 389.894 45.25 391.898V396.093H44.2539V395.226H44.207C43.9961 395.66 43.4102 396.245 42.3086 396.245C41.1016 396.245 40.1406 395.531 40.1406 394.288ZM41.1484 394.335C41.1484 395.003 41.7109 395.343 42.4844 395.343C43.6211 395.343 44.2539 394.581 44.2539 393.785V393.14L42.6484 393.257C41.7344 393.316 41.1484 393.644 41.1484 394.335ZM50.4062 391.382C50.2656 390.855 49.8672 390.503 49.1172 390.503C48.332 390.503 47.7695 390.925 47.7695 391.464C47.7695 391.886 48.1094 392.179 48.8594 392.355L49.8086 392.589C50.9453 392.859 51.5078 393.421 51.5078 394.312C51.5078 395.413 50.6055 396.222 49.0117 396.222C47.582 396.222 46.7266 395.589 46.5625 394.429H47.6172C47.7344 395.05 48.1914 395.343 48.9883 395.343C49.8906 395.343 50.4648 394.968 50.4648 394.37C50.4648 393.925 50.1484 393.62 49.4219 393.456L48.4609 393.234C47.3477 392.976 46.7617 392.367 46.7617 391.523C46.7617 390.433 47.7109 389.648 49.1172 389.648C50.4297 389.648 51.2617 390.351 51.3906 391.382H50.4062ZM53.8281 392.273V396.093H52.8203V387.609H53.8281V390.726H53.9102C54.2031 390.07 54.7773 389.648 55.7852 389.648C57.0859 389.648 57.9531 390.421 57.9531 392.05V396.093H56.9453V392.12C56.9453 391.124 56.3945 390.55 55.4805 390.55C54.5312 390.55 53.8281 391.171 53.8281 392.273ZM62.2422 396.222C60.4023 396.222 59.2656 394.921 59.2656 392.964C59.2656 391.007 60.4141 389.648 62.1484 389.648C63.4844 389.648 64.8906 390.468 64.8906 392.824V393.245H60.2734C60.3203 394.593 61.1055 395.331 62.2422 395.331C63.0039 395.331 63.4844 395.003 63.7188 394.605H64.7969C64.4922 395.566 63.5547 396.222 62.2422 396.222ZM60.2852 392.39H63.8711C63.8711 391.324 63.1914 390.538 62.1484 390.538C61.0469 390.538 60.3438 391.406 60.2852 392.39ZM67.2109 392.273V396.093H66.2031V389.73H67.1758V390.726H67.2578C67.5625 390.081 68.1484 389.648 69.1211 389.648C70.4102 389.648 71.2656 390.433 71.2656 392.05V396.093H70.2578V392.12C70.2578 391.136 69.7188 390.55 68.8164 390.55C67.8906 390.55 67.2109 391.171 67.2109 392.273ZM74.207 395.308L73.293 398.495H72.4258L73.0703 395.308H74.207ZM83.7227 389.742C83.6289 388.91 82.8672 388.429 81.8477 388.429C80.7227 388.429 79.9844 389.015 79.9844 389.824C79.9844 390.714 80.9805 391.042 81.625 391.206L82.4688 391.441C83.3828 391.675 84.8711 392.203 84.8711 393.785C84.8711 395.167 83.7578 396.245 81.7891 396.245C79.9609 396.245 78.8242 395.296 78.7305 393.89H79.8086C79.9023 394.839 80.7812 395.285 81.7891 395.285C82.9609 395.285 83.8398 394.687 83.8398 393.761C83.8398 392.941 83.0547 392.624 82.1641 392.367L81.1211 392.085C79.7852 391.699 78.9648 391.019 78.9648 389.87C78.9648 388.441 80.2422 387.492 81.8828 387.492C83.5234 387.492 84.707 388.453 84.7539 389.742H83.7227ZM86.9688 396.163C86.5586 396.163 86.207 395.824 86.2188 395.402C86.207 394.992 86.5586 394.652 86.9688 394.652C87.3789 394.652 87.7188 394.992 87.7188 395.402C87.7188 395.824 87.3789 396.163 86.9688 396.163ZM95.0547 396.093H92.418V387.609H95.1602C97.6328 387.609 99.0977 389.203 99.0977 391.839C99.0977 394.488 97.6328 396.093 95.0547 396.093ZM93.4727 395.156H94.9844C97.0703 395.156 98.0664 393.902 98.0664 391.839C98.0664 389.788 97.0703 388.546 95.0898 388.546H93.4727V395.156ZM100.691 396.163C100.281 396.163 99.9297 395.824 99.9414 395.402C99.9297 394.992 100.281 394.652 100.691 394.652C101.102 394.652 101.441 394.992 101.441 395.402C101.441 395.824 101.102 396.163 100.691 396.163ZM106.27 392.859C106.281 390.644 106.879 388.804 107.957 387.245H108.848C108.051 388.406 107.312 390.773 107.312 392.859C107.312 394.945 108.051 397.324 108.848 398.484H107.957C106.879 396.913 106.281 395.074 106.27 392.859ZM110.09 396.093L110.078 395.32L112.973 392.273C113.98 391.206 114.461 390.632 114.461 389.847C114.461 388.98 113.723 388.406 112.773 388.406C111.766 388.406 111.121 389.05 111.121 389.999H110.125C110.113 388.499 111.273 387.492 112.809 387.492C114.344 387.492 115.445 388.523 115.445 389.847C115.445 390.796 115 391.535 113.5 393.081L111.555 395.085V395.156H115.598V396.093H110.09ZM119.91 396.21C118.023 396.21 116.945 394.628 116.945 391.851C116.945 389.097 118.047 387.492 119.91 387.492C121.773 387.492 122.875 389.097 122.875 391.851C122.875 394.628 121.785 396.21 119.91 396.21ZM119.91 395.273C121.129 395.273 121.844 394.042 121.844 391.851C121.844 389.66 121.129 388.406 119.91 388.406C118.691 388.406 117.965 389.66 117.965 391.851C117.965 394.042 118.68 395.273 119.91 395.273ZM127.059 396.21C125.172 396.21 124.094 394.628 124.094 391.851C124.094 389.097 125.195 387.492 127.059 387.492C128.922 387.492 130.023 389.097 130.023 391.851C130.023 394.628 128.934 396.21 127.059 396.21ZM127.059 395.273C128.277 395.273 128.992 394.042 128.992 391.851C128.992 389.66 128.277 388.406 127.059 388.406C125.84 388.406 125.113 389.66 125.113 391.851C125.113 394.042 125.828 395.273 127.059 395.273ZM131.219 394.359V393.492L135.039 387.609H136.34V393.433H137.523V394.359H136.34V396.093H135.332V394.359H131.219ZM132.355 393.433H135.332V388.945H135.227L132.355 393.363V393.433ZM141.145 392.859C141.133 395.074 140.535 396.913 139.457 398.484H138.566C139.363 397.324 140.102 394.945 140.102 392.859C140.102 390.773 139.363 388.406 138.566 387.245H139.457C140.535 388.804 141.133 390.644 141.145 392.859ZM143.734 396.163C143.324 396.163 142.973 395.824 142.984 395.402C142.973 394.992 143.324 394.652 143.734 394.652C144.145 394.652 144.484 394.992 144.484 395.402C144.484 395.824 144.145 396.163 143.734 396.163ZM148.715 388.546V387.609H155.113V388.546H152.453V396.093H151.387V388.546H148.715ZM157.398 392.273V396.093H156.391V387.609H157.398V390.726H157.48C157.773 390.07 158.348 389.648 159.355 389.648C160.656 389.648 161.523 390.421 161.523 392.05V396.093H160.516V392.12C160.516 391.124 159.965 390.55 159.051 390.55C158.102 390.55 157.398 391.171 157.398 392.273ZM165.812 396.222C163.973 396.222 162.836 394.921 162.836 392.964C162.836 391.007 163.984 389.648 165.719 389.648C167.055 389.648 168.461 390.468 168.461 392.824V393.245H163.844C163.891 394.593 164.676 395.331 165.812 395.331C166.574 395.331 167.055 395.003 167.289 394.605H168.367C168.062 395.566 167.125 396.222 165.812 396.222ZM163.855 392.39H167.441C167.441 391.324 166.762 390.538 165.719 390.538C164.617 390.538 163.914 391.406 163.855 392.39ZM172.914 396.093V387.609H175.797C177.789 387.609 178.691 388.792 178.691 390.304C178.691 391.804 177.789 393.011 175.809 393.011H173.969V396.093H172.914ZM173.969 392.074H175.762C177.109 392.074 177.648 391.312 177.648 390.304C177.648 389.285 177.109 388.546 175.75 388.546H173.969V392.074ZM182.57 396.222C180.836 396.222 179.664 394.921 179.664 392.941C179.664 390.96 180.836 389.648 182.57 389.648C184.293 389.648 185.453 390.96 185.453 392.941C185.453 394.921 184.293 396.222 182.57 396.222ZM182.57 395.331C183.848 395.331 184.445 394.206 184.445 392.941C184.445 391.675 183.848 390.538 182.57 390.538C181.27 390.538 180.672 391.675 180.672 392.941C180.672 394.206 181.27 395.331 182.57 395.331ZM187.996 396.093L186.062 389.73H187.129L188.488 394.581H188.547L189.895 389.73H190.973L192.297 394.558H192.367L193.727 389.73H194.781L192.848 396.093H191.852L190.469 391.242H190.375L189.004 396.093H187.996ZM198.355 396.222C196.516 396.222 195.379 394.921 195.379 392.964C195.379 391.007 196.527 389.648 198.262 389.648C199.598 389.648 201.004 390.468 201.004 392.824V393.245H196.387C196.434 394.593 197.219 395.331 198.355 395.331C199.117 395.331 199.598 395.003 199.832 394.605H200.91C200.605 395.566 199.668 396.222 198.355 396.222ZM196.398 392.39H199.984C199.984 391.324 199.305 390.538 198.262 390.538C197.16 390.538 196.457 391.406 196.398 392.39ZM202.316 396.093V389.73H203.289V390.703H203.359C203.594 390.058 204.25 389.624 205 389.624C205.152 389.624 205.41 389.636 205.527 389.648V390.667C205.457 390.644 205.176 390.597 204.918 390.597C204.004 390.597 203.324 391.23 203.324 392.085V396.093H202.316ZM212.125 396.222C210.391 396.222 209.219 394.921 209.219 392.941C209.219 390.96 210.391 389.648 212.125 389.648C213.848 389.648 215.008 390.96 215.008 392.941C215.008 394.921 213.848 396.222 212.125 396.222ZM212.125 395.331C213.402 395.331 214 394.206 214 392.941C214 391.675 213.402 390.538 212.125 390.538C210.824 390.538 210.227 391.675 210.227 392.941C210.227 394.206 210.824 395.331 212.125 395.331ZM219.18 389.73V390.574H217.773V396.093H216.754V390.574H215.734V389.73H216.754V388.863C216.754 387.831 217.445 387.21 218.57 387.21C218.816 387.21 219.109 387.245 219.32 387.281V388.183C219.109 388.148 218.922 388.136 218.793 388.136C218.09 388.136 217.773 388.429 217.773 389.085V389.73H219.18ZM223.516 396.093V387.609H226.398C228.391 387.609 229.293 388.71 229.293 390.222C229.293 391.341 228.789 392.226 227.711 392.601L229.621 396.093H228.391L226.621 392.788L226.41 392.8H224.57V396.093H223.516ZM224.57 391.839H226.363C227.711 391.839 228.25 391.23 228.25 390.222C228.25 389.203 227.711 388.546 226.352 388.546H224.57V391.839ZM233.289 396.222C231.449 396.222 230.312 394.921 230.312 392.964C230.312 391.007 231.461 389.648 233.195 389.648C234.531 389.648 235.938 390.468 235.938 392.824V393.245H231.32C231.367 394.593 232.152 395.331 233.289 395.331C234.051 395.331 234.531 395.003 234.766 394.605H235.844C235.539 395.566 234.602 396.222 233.289 396.222ZM231.332 392.39H234.918C234.918 391.324 234.238 390.538 233.195 390.538C232.094 390.538 231.391 391.406 231.332 392.39ZM236.945 394.288C236.945 392.824 238.234 392.495 239.336 392.413C239.74 392.384 240.771 392.331 241.059 392.32V391.804C241.059 390.995 240.578 390.527 239.617 390.527C238.809 390.527 238.328 390.902 238.188 391.382H237.133C237.262 390.363 238.258 389.648 239.664 389.648C240.496 389.648 242.055 389.894 242.055 391.898V396.093H241.059V395.226H241.012C240.801 395.66 240.215 396.245 239.113 396.245C237.906 396.245 236.945 395.531 236.945 394.288ZM237.953 394.335C237.953 395.003 238.516 395.343 239.289 395.343C240.426 395.343 241.059 394.581 241.059 393.785V393.14L239.453 393.257C238.539 393.316 237.953 393.644 237.953 394.335ZM246.074 396.222C244.492 396.222 243.367 394.945 243.367 392.929C243.367 390.913 244.492 389.648 246.086 389.648C247.316 389.648 247.715 390.398 247.926 390.738H247.996V387.609H249.016V396.093H248.031V395.12H247.926C247.703 395.472 247.293 396.222 246.074 396.222ZM246.215 395.32C247.375 395.32 248.031 394.335 248.031 392.906C248.031 391.499 247.398 390.55 246.215 390.55C244.996 390.55 244.387 391.581 244.387 392.906C244.387 394.265 245.008 395.32 246.215 395.32ZM250.762 396.093V389.73H251.77V396.093H250.762ZM251.266 388.675C250.879 388.675 250.562 388.382 250.562 388.007C250.562 387.632 250.879 387.339 251.266 387.339C251.652 387.339 251.98 387.632 251.98 388.007C251.98 388.382 251.652 388.675 251.266 388.675ZM254.383 392.273V396.093H253.375V389.73H254.348V390.726H254.43C254.734 390.081 255.32 389.648 256.293 389.648C257.582 389.648 258.438 390.433 258.438 392.05V396.093H257.43V392.12C257.43 391.136 256.891 390.55 255.988 390.55C255.062 390.55 254.383 391.171 254.383 392.273ZM262.633 398.613C261.098 398.613 260.055 397.945 259.938 396.761H260.992C261.133 397.406 261.73 397.734 262.633 397.734C263.723 397.734 264.391 397.265 264.391 396.21V394.921H264.309C264.098 395.273 263.688 395.999 262.457 395.999C260.91 395.999 259.75 394.828 259.75 392.824C259.75 390.867 260.875 389.648 262.469 389.648C263.699 389.648 264.098 390.398 264.332 390.738H264.414V389.73H265.398V396.269C265.398 397.91 264.18 398.613 262.633 398.613ZM262.598 395.097C263.758 395.097 264.414 394.265 264.414 392.859C264.414 391.499 263.781 390.55 262.598 390.55C261.379 390.55 260.77 391.581 260.77 392.859C260.77 394.183 261.391 395.097 262.598 395.097ZM267.719 396.163C267.309 396.163 266.957 395.824 266.969 395.402C266.957 394.992 267.309 394.652 267.719 394.652C268.129 394.652 268.469 394.992 268.469 395.402C268.469 395.824 268.129 396.163 267.719 396.163ZM267.719 391.453C267.309 391.453 266.957 391.113 266.969 390.691C266.957 390.281 267.309 389.941 267.719 389.941C268.129 389.941 268.469 390.281 268.469 390.691C268.469 391.113 268.129 391.453 267.719 391.453ZM274.246 387.609V396.093H273.191V387.609H274.246ZM277 392.273V396.093H275.992V389.73H276.965V390.726H277.047C277.352 390.081 277.938 389.648 278.91 389.648C280.199 389.648 281.055 390.433 281.055 392.05V396.093H280.047V392.12C280.047 391.136 279.508 390.55 278.605 390.55C277.68 390.55 277 391.171 277 392.273ZM286.211 391.382C286.07 390.855 285.672 390.503 284.922 390.503C284.137 390.503 283.574 390.925 283.574 391.464C283.574 391.886 283.914 392.179 284.664 392.355L285.613 392.589C286.75 392.859 287.312 393.421 287.312 394.312C287.312 395.413 286.41 396.222 284.816 396.222C283.387 396.222 282.531 395.589 282.367 394.429H283.422C283.539 395.05 283.996 395.343 284.793 395.343C285.695 395.343 286.27 394.968 286.27 394.37C286.27 393.925 285.953 393.62 285.227 393.456L284.266 393.234C283.152 392.976 282.566 392.367 282.566 391.523C282.566 390.433 283.516 389.648 284.922 389.648C286.234 389.648 287.066 390.351 287.195 391.382H286.211ZM288.625 396.093V389.73H289.633V396.093H288.625ZM289.129 388.675C288.742 388.675 288.426 388.382 288.426 388.007C288.426 387.632 288.742 387.339 289.129 387.339C289.516 387.339 289.844 387.632 289.844 388.007C289.844 388.382 289.516 388.675 289.129 388.675ZM293.816 398.613C292.281 398.613 291.238 397.945 291.121 396.761H292.176C292.316 397.406 292.914 397.734 293.816 397.734C294.906 397.734 295.574 397.265 295.574 396.21V394.921H295.492C295.281 395.273 294.871 395.999 293.641 395.999C292.094 395.999 290.934 394.828 290.934 392.824C290.934 390.867 292.059 389.648 293.652 389.648C294.883 389.648 295.281 390.398 295.516 390.738H295.598V389.73H296.582V396.269C296.582 397.91 295.363 398.613 293.816 398.613ZM293.781 395.097C294.941 395.097 295.598 394.265 295.598 392.859C295.598 391.499 294.965 390.55 293.781 390.55C292.562 390.55 291.953 391.581 291.953 392.859C291.953 394.183 292.574 395.097 293.781 395.097ZM299.195 392.273V396.093H298.188V387.609H299.195V390.726H299.277C299.57 390.07 300.145 389.648 301.152 389.648C302.453 389.648 303.32 390.421 303.32 392.05V396.093H302.312V392.12C302.312 391.124 301.762 390.55 300.848 390.55C299.898 390.55 299.195 391.171 299.195 392.273ZM307.715 389.73V390.574H306.379V394.265C306.379 395.085 306.777 395.214 307.211 395.214C307.398 395.214 307.656 395.203 307.809 395.191V396.128C307.656 396.152 307.398 396.175 307.105 396.175C306.262 396.175 305.359 395.648 305.359 394.523V390.574H304.398V389.73H305.359V388.206H306.379V389.73H307.715ZM312.438 391.382C312.297 390.855 311.898 390.503 311.148 390.503C310.363 390.503 309.801 390.925 309.801 391.464C309.801 391.886 310.141 392.179 310.891 392.355L311.84 392.589C312.977 392.859 313.539 393.421 313.539 394.312C313.539 395.413 312.637 396.222 311.043 396.222C309.613 396.222 308.758 395.589 308.594 394.429H309.648C309.766 395.05 310.223 395.343 311.02 395.343C311.922 395.343 312.496 394.968 312.496 394.37C312.496 393.925 312.18 393.62 311.453 393.456L310.492 393.234C309.379 392.976 308.793 392.367 308.793 391.523C308.793 390.433 309.742 389.648 311.148 389.648C312.461 389.648 313.293 390.351 313.422 391.382H312.438ZM320.711 389.73V390.574H319.305V396.093H318.285V390.574H317.266V389.73H318.285V388.863C318.285 387.831 318.977 387.21 320.102 387.21C320.348 387.21 320.641 387.245 320.852 387.281V388.183C320.641 388.148 320.453 388.136 320.324 388.136C319.621 388.136 319.305 388.429 319.305 389.085V389.73H320.711ZM321.906 396.093V389.73H322.879V390.703H322.949C323.184 390.058 323.84 389.624 324.59 389.624C324.742 389.624 325 389.636 325.117 389.648V390.667C325.047 390.644 324.766 390.597 324.508 390.597C323.594 390.597 322.914 391.23 322.914 392.085V396.093H321.906ZM328.492 396.222C326.758 396.222 325.586 394.921 325.586 392.941C325.586 390.96 326.758 389.648 328.492 389.648C330.215 389.648 331.375 390.96 331.375 392.941C331.375 394.921 330.215 396.222 328.492 396.222ZM328.492 395.331C329.77 395.331 330.367 394.206 330.367 392.941C330.367 391.675 329.77 390.538 328.492 390.538C327.191 390.538 326.594 391.675 326.594 392.941C326.594 394.206 327.191 395.331 328.492 395.331ZM332.699 396.093V389.73H333.672V390.726H333.754C334.023 390.046 334.633 389.648 335.465 389.648C336.297 389.648 336.859 390.046 337.164 390.726H337.234C337.562 390.07 338.23 389.648 339.145 389.648C340.281 389.648 341.09 390.339 341.09 391.839V396.093H340.082V391.851C340.082 390.913 339.484 390.55 338.793 390.55C337.902 390.55 337.398 391.148 337.398 391.956V396.093H336.379V391.745C336.379 391.031 335.863 390.55 335.137 390.55C334.375 390.55 333.707 391.195 333.707 392.12V396.093H332.699ZM31.5859 408.73V409.574H30.25V413.265C30.25 414.085 30.6484 414.214 31.082 414.214C31.2695 414.214 31.5273 414.203 31.6797 414.191V415.128C31.5273 415.152 31.2695 415.175 30.9766 415.175C30.1328 415.175 29.2305 414.648 29.2305 413.523V409.574H28.2695V408.73H29.2305V407.206H30.25V408.73H31.5859ZM34.0352 411.273V415.093H33.0273V406.609H34.0352V409.726H34.1172C34.4102 409.07 34.9844 408.648 35.9922 408.648C37.293 408.648 38.1602 409.421 38.1602 411.05V415.093H37.1523V411.12C37.1523 410.124 36.6016 409.55 35.6875 409.55C34.7383 409.55 34.0352 410.171 34.0352 411.273ZM42.4492 415.222C40.6094 415.222 39.4727 413.921 39.4727 411.964C39.4727 410.007 40.6211 408.648 42.3555 408.648C43.6914 408.648 45.0977 409.468 45.0977 411.824V412.245H40.4805C40.5273 413.593 41.3125 414.331 42.4492 414.331C43.2109 414.331 43.6914 414.003 43.9258 413.605H45.0039C44.6992 414.566 43.7617 415.222 42.4492 415.222ZM40.4922 411.39H44.0781C44.0781 410.324 43.3984 409.538 42.3555 409.538C41.2539 409.538 40.5508 410.406 40.4922 411.39ZM49.5508 415.093V406.609H52.4336C54.4258 406.609 55.3281 407.71 55.3281 409.222C55.3281 410.341 54.8242 411.226 53.7461 411.601L55.6562 415.093H54.4258L52.6562 411.788L52.4453 411.8H50.6055V415.093H49.5508ZM50.6055 410.839H52.3984C53.7461 410.839 54.2852 410.23 54.2852 409.222C54.2852 408.203 53.7461 407.546 52.3867 407.546H50.6055V410.839ZM59.3242 415.222C57.4844 415.222 56.3477 413.921 56.3477 411.964C56.3477 410.007 57.4961 408.648 59.2305 408.648C60.5664 408.648 61.9727 409.468 61.9727 411.824V412.245H57.3555C57.4023 413.593 58.1875 414.331 59.3242 414.331C60.0859 414.331 60.5664 414.003 60.8008 413.605H61.8789C61.5742 414.566 60.6367 415.222 59.3242 415.222ZM57.3672 411.39H60.9531C60.9531 410.324 60.2734 409.538 59.2305 409.538C58.1289 409.538 57.4258 410.406 57.3672 411.39ZM66.8242 410.382C66.6836 409.855 66.2852 409.503 65.5352 409.503C64.75 409.503 64.1875 409.925 64.1875 410.464C64.1875 410.886 64.5273 411.179 65.2773 411.355L66.2266 411.589C67.3633 411.859 67.9258 412.421 67.9258 413.312C67.9258 414.413 67.0234 415.222 65.4297 415.222C64 415.222 63.1445 414.589 62.9805 413.429H64.0352C64.1523 414.05 64.6094 414.343 65.4062 414.343C66.3086 414.343 66.8828 413.968 66.8828 413.37C66.8828 412.925 66.5664 412.62 65.8398 412.456L64.8789 412.234C63.7656 411.976 63.1797 411.367 63.1797 410.523C63.1797 409.433 64.1289 408.648 65.5352 408.648C66.8477 408.648 67.6797 409.351 67.8086 410.382H66.8242ZM71.9102 415.222C70.0703 415.222 68.9336 413.921 68.9336 411.964C68.9336 410.007 70.082 408.648 71.8164 408.648C73.1523 408.648 74.5586 409.468 74.5586 411.824V412.245H69.9414C69.9883 413.593 70.7734 414.331 71.9102 414.331C72.6719 414.331 73.1523 414.003 73.3867 413.605H74.4648C74.1602 414.566 73.2227 415.222 71.9102 415.222ZM69.9531 411.39H73.5391C73.5391 410.324 72.8594 409.538 71.8164 409.538C70.7148 409.538 70.0117 410.406 69.9531 411.39ZM75.5664 413.288C75.5664 411.824 76.8555 411.495 77.957 411.413C78.3613 411.384 79.3926 411.331 79.6797 411.32V410.804C79.6797 409.995 79.1992 409.527 78.2383 409.527C77.4297 409.527 76.9492 409.902 76.8086 410.382H75.7539C75.8828 409.363 76.8789 408.648 78.2852 408.648C79.1172 408.648 80.6758 408.894 80.6758 410.898V415.093H79.6797V414.226H79.6328C79.4219 414.66 78.8359 415.245 77.7344 415.245C76.5273 415.245 75.5664 414.531 75.5664 413.288ZM76.5742 413.335C76.5742 414.003 77.1367 414.343 77.9102 414.343C79.0469 414.343 79.6797 413.581 79.6797 412.785V412.14L78.0742 412.257C77.1602 412.316 76.5742 412.644 76.5742 413.335ZM82.293 415.093V408.73H83.2656V409.703H83.3359C83.5703 409.058 84.2266 408.624 84.9766 408.624C85.1289 408.624 85.3867 408.636 85.5039 408.648V409.667C85.4336 409.644 85.1523 409.597 84.8945 409.597C83.9805 409.597 83.3008 410.23 83.3008 411.085V415.093H82.293ZM88.8789 415.222C87.0742 415.222 85.9727 413.851 85.9727 411.941C85.9727 410.007 87.1211 408.648 88.8555 408.648C90.2148 408.648 91.2227 409.445 91.3867 410.652H90.3789C90.2383 410.066 89.7227 409.538 88.8789 409.538C87.7422 409.538 86.9805 410.476 86.9805 411.906C86.9805 413.382 87.7188 414.32 88.8789 414.32C89.6289 414.32 90.2031 413.921 90.3789 413.218H91.3867C91.2227 414.355 90.2969 415.222 88.8789 415.222ZM93.6367 411.273V415.093H92.6289V406.609H93.6367V409.726H93.7188C94.0117 409.07 94.5859 408.648 95.5938 408.648C96.8945 408.648 97.7617 409.421 97.7617 411.05V415.093H96.7539V411.12C96.7539 410.124 96.2031 409.55 95.2891 409.55C94.3398 409.55 93.6367 410.171 93.6367 411.273ZM102.648 411.859C102.66 409.644 103.258 407.804 104.336 406.245H105.227C104.43 407.406 103.691 409.773 103.691 411.859C103.691 413.945 104.43 416.324 105.227 417.484H104.336C103.258 415.913 102.66 414.074 102.648 411.859ZM106.469 415.093L106.457 414.32L109.352 411.273C110.359 410.206 110.84 409.632 110.84 408.847C110.84 407.98 110.102 407.406 109.152 407.406C108.145 407.406 107.5 408.05 107.5 408.999H106.504C106.492 407.499 107.652 406.492 109.188 406.492C110.723 406.492 111.824 407.523 111.824 408.847C111.824 409.796 111.379 410.535 109.879 412.081L107.934 414.085V414.156H111.977V415.093H106.469ZM114.531 411.273V415.093H113.523V408.73H114.496V409.726H114.578C114.883 409.081 115.469 408.648 116.441 408.648C117.73 408.648 118.586 409.433 118.586 411.05V415.093H117.578V411.12C117.578 410.136 117.039 409.55 116.137 409.55C115.211 409.55 114.531 410.171 114.531 411.273ZM122.605 415.222C121.023 415.222 119.898 413.945 119.898 411.929C119.898 409.913 121.023 408.648 122.617 408.648C123.848 408.648 124.246 409.398 124.457 409.738H124.527V406.609H125.547V415.093H124.562V414.12H124.457C124.234 414.472 123.824 415.222 122.605 415.222ZM122.746 414.32C123.906 414.32 124.562 413.335 124.562 411.906C124.562 410.499 123.93 409.55 122.746 409.55C121.527 409.55 120.918 410.581 120.918 411.906C120.918 413.265 121.539 414.32 122.746 414.32ZM132.977 415.222C131.137 415.222 130 413.921 130 411.964C130 410.007 131.148 408.648 132.883 408.648C134.219 408.648 135.625 409.468 135.625 411.824V412.245H131.008C131.055 413.593 131.84 414.331 132.977 414.331C133.738 414.331 134.219 414.003 134.453 413.605H135.531C135.227 414.566 134.289 415.222 132.977 415.222ZM131.02 411.39H134.605C134.605 410.324 133.926 409.538 132.883 409.538C131.781 409.538 131.078 410.406 131.02 411.39ZM139.34 415.222C137.758 415.222 136.633 413.945 136.633 411.929C136.633 409.913 137.758 408.648 139.352 408.648C140.582 408.648 140.98 409.398 141.191 409.738H141.262V406.609H142.281V415.093H141.297V414.12H141.191C140.969 414.472 140.559 415.222 139.34 415.222ZM139.48 414.32C140.641 414.32 141.297 413.335 141.297 411.906C141.297 410.499 140.664 409.55 139.48 409.55C138.262 409.55 137.652 410.581 137.652 411.906C137.652 413.265 138.273 414.32 139.48 414.32ZM144.742 415.163C144.332 415.163 143.98 414.824 143.992 414.402C143.98 413.992 144.332 413.652 144.742 413.652C145.152 413.652 145.492 413.992 145.492 414.402C145.492 414.824 145.152 415.163 144.742 415.163ZM149.289 411.859C149.277 414.074 148.68 415.913 147.602 417.484H146.711C147.508 416.324 148.246 413.945 148.246 411.859C148.246 409.773 147.508 407.406 146.711 406.245H147.602C148.68 407.804 149.277 409.644 149.289 411.859ZM151.879 415.163C151.469 415.163 151.117 414.824 151.129 414.402C151.117 413.992 151.469 413.652 151.879 413.652C152.289 413.652 152.629 413.992 152.629 414.402C152.629 414.824 152.289 415.163 151.879 415.163ZM157.328 415.093V406.609H158.383V414.156H162.32V415.093H157.328ZM163.598 415.093V408.73H164.605V415.093H163.598ZM164.102 407.675C163.715 407.675 163.398 407.382 163.398 407.007C163.398 406.632 163.715 406.339 164.102 406.339C164.488 406.339 164.816 406.632 164.816 407.007C164.816 407.382 164.488 407.675 164.102 407.675ZM166.34 415.093V406.609H167.348V409.738H167.43C167.652 409.398 168.027 408.648 169.27 408.648C170.863 408.648 171.988 409.913 171.988 411.929C171.988 413.945 170.863 415.222 169.281 415.222C168.062 415.222 167.652 414.472 167.43 414.12H167.312V415.093H166.34ZM167.324 411.906C167.324 413.335 167.969 414.32 169.129 414.32C170.336 414.32 170.969 413.265 170.969 411.906C170.969 410.581 170.359 409.55 169.129 409.55C167.957 409.55 167.324 410.499 167.324 411.906ZM173.301 415.093V408.73H174.273V409.703H174.344C174.578 409.058 175.234 408.624 175.984 408.624C176.137 408.624 176.395 408.636 176.512 408.648V409.667C176.441 409.644 176.16 409.597 175.902 409.597C174.988 409.597 174.309 410.23 174.309 411.085V415.093H173.301ZM177.18 413.288C177.18 411.824 178.469 411.495 179.57 411.413C179.975 411.384 181.006 411.331 181.293 411.32V410.804C181.293 409.995 180.812 409.527 179.852 409.527C179.043 409.527 178.562 409.902 178.422 410.382H177.367C177.496 409.363 178.492 408.648 179.898 408.648C180.73 408.648 182.289 408.894 182.289 410.898V415.093H181.293V414.226H181.246C181.035 414.66 180.449 415.245 179.348 415.245C178.141 415.245 177.18 414.531 177.18 413.288ZM178.188 413.335C178.188 414.003 178.75 414.343 179.523 414.343C180.66 414.343 181.293 413.581 181.293 412.785V412.14L179.688 412.257C178.773 412.316 178.188 412.644 178.188 413.335ZM183.906 415.093V408.73H184.879V409.703H184.949C185.184 409.058 185.84 408.624 186.59 408.624C186.742 408.624 187 408.636 187.117 408.648V409.667C187.047 409.644 186.766 409.597 186.508 409.597C185.594 409.597 184.914 410.23 184.914 411.085V415.093H183.906ZM188.102 415.093V408.73H189.109V415.093H188.102ZM188.605 407.675C188.219 407.675 187.902 407.382 187.902 407.007C187.902 406.632 188.219 406.339 188.605 406.339C188.992 406.339 189.32 406.632 189.32 407.007C189.32 407.382 188.992 407.675 188.605 407.675ZM193.387 415.222C191.547 415.222 190.41 413.921 190.41 411.964C190.41 410.007 191.559 408.648 193.293 408.648C194.629 408.648 196.035 409.468 196.035 411.824V412.245H191.418C191.465 413.593 192.25 414.331 193.387 414.331C194.148 414.331 194.629 414.003 194.863 413.605H195.941C195.637 414.566 194.699 415.222 193.387 415.222ZM191.43 411.39H195.016C195.016 410.324 194.336 409.538 193.293 409.538C192.191 409.538 191.488 410.406 191.43 411.39ZM200.887 410.382C200.746 409.855 200.348 409.503 199.598 409.503C198.812 409.503 198.25 409.925 198.25 410.464C198.25 410.886 198.59 411.179 199.34 411.355L200.289 411.589C201.426 411.859 201.988 412.421 201.988 413.312C201.988 414.413 201.086 415.222 199.492 415.222C198.062 415.222 197.207 414.589 197.043 413.429H198.098C198.215 414.05 198.672 414.343 199.469 414.343C200.371 414.343 200.945 413.968 200.945 413.37C200.945 412.925 200.629 412.62 199.902 412.456L198.941 412.234C197.828 411.976 197.242 411.367 197.242 410.523C197.242 409.433 198.191 408.648 199.598 408.648C200.91 408.648 201.742 409.351 201.871 410.382H200.887ZM211.996 406.609H213.051V412.222C213.051 413.968 211.75 415.245 209.746 415.245C207.742 415.245 206.441 413.968 206.441 412.222V406.609H207.496V412.14C207.496 413.37 208.352 414.261 209.746 414.261C211.152 414.261 211.996 413.37 211.996 412.14V406.609ZM215.805 411.273V415.093H214.797V408.73H215.77V409.726H215.852C216.156 409.081 216.742 408.648 217.715 408.648C219.004 408.648 219.859 409.433 219.859 411.05V415.093H218.852V411.12C218.852 410.136 218.312 409.55 217.41 409.55C216.484 409.55 215.805 410.171 215.805 411.273ZM222.484 406.609V415.093H221.477V406.609H222.484ZM224.09 415.093V408.73H225.098V415.093H224.09ZM224.594 407.675C224.207 407.675 223.891 407.382 223.891 407.007C223.891 406.632 224.207 406.339 224.594 406.339C224.98 406.339 225.309 406.632 225.309 407.007C225.309 407.382 224.98 407.675 224.594 407.675ZM226.703 415.093V408.73H227.676V409.726H227.758C228.027 409.046 228.637 408.648 229.469 408.648C230.301 408.648 230.863 409.046 231.168 409.726H231.238C231.566 409.07 232.234 408.648 233.148 408.648C234.285 408.648 235.094 409.339 235.094 410.839V415.093H234.086V410.851C234.086 409.913 233.488 409.55 232.797 409.55C231.906 409.55 231.402 410.148 231.402 410.956V415.093H230.383V410.745C230.383 410.031 229.867 409.55 229.141 409.55C228.379 409.55 227.711 410.195 227.711 411.12V415.093H226.703ZM236.711 415.093V408.73H237.719V415.093H236.711ZM237.215 407.675C236.828 407.675 236.512 407.382 236.512 407.007C236.512 406.632 236.828 406.339 237.215 406.339C237.602 406.339 237.93 406.632 237.93 407.007C237.93 407.382 237.602 407.675 237.215 407.675ZM242.102 408.73V409.574H240.766V413.265C240.766 414.085 241.164 414.214 241.598 414.214C241.785 414.214 242.043 414.203 242.195 414.191V415.128C242.043 415.152 241.785 415.175 241.492 415.175C240.648 415.175 239.746 414.648 239.746 413.523V409.574H238.785V408.73H239.746V407.206H240.766V408.73H242.102ZM246.004 415.222C244.164 415.222 243.027 413.921 243.027 411.964C243.027 410.007 244.176 408.648 245.91 408.648C247.246 408.648 248.652 409.468 248.652 411.824V412.245H244.035C244.082 413.593 244.867 414.331 246.004 414.331C246.766 414.331 247.246 414.003 247.48 413.605H248.559C248.254 414.566 247.316 415.222 246.004 415.222ZM244.047 411.39H247.633C247.633 410.324 246.953 409.538 245.91 409.538C244.809 409.538 244.105 410.406 244.047 411.39ZM252.367 415.222C250.785 415.222 249.66 413.945 249.66 411.929C249.66 409.913 250.785 408.648 252.379 408.648C253.609 408.648 254.008 409.398 254.219 409.738H254.289V406.609H255.309V415.093H254.324V414.12H254.219C253.996 414.472 253.586 415.222 252.367 415.222ZM252.508 414.32C253.668 414.32 254.324 413.335 254.324 411.906C254.324 410.499 253.691 409.55 252.508 409.55C251.289 409.55 250.68 410.581 250.68 411.906C250.68 413.265 251.301 414.32 252.508 414.32ZM257.77 415.163C257.359 415.163 257.008 414.824 257.02 414.402C257.008 413.992 257.359 413.652 257.77 413.652C258.18 413.652 258.52 413.992 258.52 414.402C258.52 414.824 258.18 415.163 257.77 415.163Z" fill="#999999"/>
<path d="M33.0371 202.91C34.5947 202.91 35.959 203.479 36.9043 204.435H41.3301V201.857H44.0586V213.308H41.3301V210.967H36.8828C35.9375 211.912 34.584 212.481 33.0371 212.47C30.0723 212.492 27.8164 210.451 27.8379 207.701C27.8164 204.908 30.0723 202.91 33.0371 202.91ZM33.0371 205.252C31.5117 205.252 30.416 206.154 30.4375 207.701C30.416 209.205 31.5117 210.172 33.0371 210.15C34.5195 210.172 35.5937 209.205 35.5937 207.701C35.5937 206.154 34.5195 205.252 33.0371 205.252ZM37.377 213.717C41.5234 213.717 44.1016 215.135 44.123 217.562C44.1016 219.99 41.5234 221.408 37.377 221.408C33.252 221.408 30.6523 219.99 30.6523 217.562C30.6523 215.135 33.252 213.717 37.377 213.717ZM37.377 215.801C34.7773 215.801 33.3379 216.381 33.3379 217.562C33.3379 218.701 34.7773 219.281 37.377 219.281C40.0195 219.281 41.4375 218.701 41.4375 217.562C41.4375 216.381 40.0195 215.801 37.377 215.801ZM38.0859 206.605C38.1504 206.949 38.1934 207.325 38.1934 207.701C38.1934 208.077 38.1504 208.431 38.0859 208.775H41.3301V206.605H38.0859ZM51.9863 203.232C54.6289 203.232 56.5947 205.413 56.9922 208.926H60.3867V201.857H63.0937V221.451H60.3867V211.117H57.0137C56.7236 214.877 54.7148 217.176 51.9863 217.176C49.0215 217.176 46.8945 214.49 46.916 210.193C46.8945 205.939 49.0215 203.232 51.9863 203.232ZM51.9863 205.703C50.5254 205.703 49.5156 207.293 49.5371 210.193C49.5156 213.115 50.5254 214.683 51.9863 214.683C53.4687 214.683 54.4355 213.115 54.4355 210.193C54.4355 207.293 53.4687 205.703 51.9863 205.703ZM81.4844 207.185V209.334H67.8203V202.545H70.5488V207.185H81.4844ZM83.4824 211.439V213.588H65.5859V211.439H83.4824ZM81.6133 218.787V220.978H67.6484V215.177H70.3984V218.787H81.6133ZM98.5 214.039C102.775 214.039 105.461 215.392 105.482 217.734C105.461 220.033 102.775 221.408 98.5 221.408C94.2676 221.408 91.5391 220.033 91.5391 217.734C91.5391 215.392 94.2676 214.039 98.5 214.039ZM98.5 216.08C95.8144 216.08 94.2676 216.638 94.2676 217.734C94.2676 218.787 95.8144 219.324 98.5 219.324C101.186 219.324 102.754 218.787 102.754 217.734C102.754 216.638 101.186 216.08 98.5 216.08ZM105.375 202.738V204.328C105.375 205.875 105.375 207.551 104.816 209.57L102.131 209.312C102.561 207.54 102.614 206.219 102.646 204.886H91.7324V202.738H105.375ZM107.48 210.58V212.793H89.7344V210.58H96.3945V207.164H99.1016V210.58H107.48ZM126.58 213.136V215.285H118.932V221.408H116.225V215.285H108.684V213.136H126.58ZM113.496 202.609V204.865H121.703V202.609H124.453V211.246H110.789V202.609H113.496ZM113.496 209.054H121.703V207.013H113.496V209.054ZM143.145 201.857V209.355H145.916V211.611H143.145V221.365H140.395V201.857H143.145ZM137.924 203.855C137.902 209.699 135.625 214.769 129.051 217.992L127.504 215.886C132.134 213.566 134.615 210.451 135.131 206.09H128.621V203.855H137.924ZM157.066 203.232C160.053 203.232 162.201 205.939 162.223 210.193C162.201 214.49 160.053 217.176 157.066 217.176C154.08 217.176 151.889 214.49 151.91 210.193C151.889 205.939 154.08 203.232 157.066 203.232ZM157.066 205.703C155.562 205.703 154.553 207.293 154.553 210.193C154.553 213.115 155.562 214.683 157.066 214.683C158.592 214.683 159.58 213.115 159.602 210.193C159.58 207.293 158.592 205.703 157.066 205.703ZM167.229 201.857V209.226H170.107V211.504H167.229V221.408H164.479V201.857H167.229ZM187.187 201.879V212.277H184.437V201.879H187.187ZM174.662 202.781V209.269C177.616 209.248 180.141 209.054 182.783 208.496L183.105 210.709C180.033 211.332 177.154 211.568 173.652 211.568H171.955V202.781H174.662ZM176.896 213.094V215.07H184.459V213.094H187.187V221.193H174.146V213.094H176.896ZM176.896 219.002H184.459V217.176H176.896V219.002ZM206.266 201.857V221.408H203.537V201.857H206.266ZM193.59 203.726V214.232C196.232 214.2 199.068 213.953 201.947 213.394L202.291 215.65C198.854 216.359 195.631 216.595 192.602 216.574H190.883V203.726H193.59ZM224.27 201.857V209.119H227.148V211.353H224.27V221.451H221.52V201.857H224.27ZM218.791 203.662V205.875H212.346V214.447C215.182 214.415 217.523 214.286 220.123 213.824L220.424 216.123C217.395 216.638 214.73 216.724 211.271 216.703H209.617V203.662H218.791ZM231.982 217.842L230.135 223.965H227.857L228.932 217.842H231.982ZM32.3711 248.588V250.242H40.4277V248.588H43.1562V256.193H29.6641V248.588H32.3711ZM32.3711 254.045H40.4277V252.326H32.3711V254.045ZM45.4121 245.386V247.599H27.5801V245.386H45.4121ZM37.9141 237.717C37.9141 239.672 40.1699 241.885 44.5312 242.379L43.5645 244.527C40.1914 244.097 37.7529 242.701 36.4961 240.81C35.2393 242.701 32.79 244.097 29.4492 244.527L28.4609 242.379C32.8223 241.863 35.0781 239.715 35.0996 237.717V237.051H37.9141V237.717ZM64.4687 246.095V248.287H46.5937V246.095H64.4687ZM62.2988 249.963V256.429H59.6133V252.154H48.5703V249.963H62.2988ZM62.5137 242.336V244.527H48.7637V237.523H62.3203V239.672H51.4922V242.336H62.5137ZM75.5762 238.469V247.857H66.1875V238.469H75.5762ZM68.8945 240.66V245.709H72.8691V240.66H68.8945ZM81.1191 236.857V242.486H83.7617V244.742H81.1191V251.123H78.3691V236.857H81.1191ZM81.8281 253.873V256.064H68.4434V249.726H71.1719V253.873H81.8281ZM100.992 236.857V256.451H98.2207V236.857H100.992ZM90.3789 238.232C93.3223 238.232 95.5137 240.939 95.5137 245.193C95.5137 249.49 93.3223 252.176 90.3789 252.176C87.3711 252.176 85.1797 249.49 85.2012 245.193C85.1797 240.939 87.3711 238.232 90.3789 238.232ZM90.3789 240.703C88.8535 240.703 87.8437 242.293 87.8437 245.193C87.8437 248.115 88.8535 249.683 90.3789 249.683C91.8613 249.683 92.8711 248.115 92.8711 245.193C92.8711 242.293 91.8613 240.703 90.3789 240.703ZM124.217 236.857V241.09H126.859V243.345H124.217V247.32H121.467V236.857H124.217ZM118.18 238.039V240.23H112.207V244.656C115.741 244.635 117.686 244.527 119.877 244.033L120.156 246.246C117.707 246.761 115.451 246.869 111.111 246.869H109.457V238.039H118.18ZM114.119 248.265V250.07H121.467V248.265H124.217V256.172H111.369V248.265H114.119ZM114.119 253.98H121.467V252.219H114.119V253.98ZM144.09 236.857V247.363H141.34V236.857H144.09ZM133.713 248.222V250.049H141.361V248.222H144.09V256.193H131.006V248.222H133.713ZM133.713 253.98H141.361V252.176H133.713V253.98ZM133.369 237.674C136.42 237.652 138.719 239.564 138.719 242.314C138.719 244.978 136.42 246.89 133.369 246.89C130.318 246.89 128.02 244.978 128.02 242.314C128.02 239.564 130.318 237.652 133.369 237.674ZM133.369 239.951C131.801 239.951 130.684 240.832 130.705 242.314C130.684 243.775 131.801 244.635 133.369 244.635C134.895 244.635 136.012 243.775 136.012 242.314C136.012 240.832 134.895 239.951 133.369 239.951ZM163.168 236.857V256.408H160.439V236.857H163.168ZM150.492 238.726V249.232C153.135 249.2 155.971 248.953 158.85 248.394L159.193 250.65C155.756 251.359 152.533 251.595 149.504 251.574H147.785V238.726H150.492ZM181.172 236.857V244.119H184.051V246.353H181.172V256.451H178.422V236.857H181.172ZM175.693 238.662V240.875H169.248V249.447C172.084 249.415 174.426 249.286 177.025 248.824L177.326 251.123C174.297 251.638 171.633 251.724 168.174 251.703H166.52V238.662H175.693ZM187.295 254.625C186.285 254.625 185.469 253.808 185.49 252.82C185.469 251.832 186.285 251.037 187.295 251.037C188.24 251.037 189.078 251.832 189.078 252.82C189.078 253.808 188.24 254.625 187.295 254.625Z" fill="#666666"/>
<path d="M34.1094 73.5831H27.7812L37.5859 45.3019H45.125L54.8906 73.5831H48.6016L46.4922 67.0597H36.2578L34.1094 73.5831ZM37.7422 62.4894H45.0078L41.4531 51.6691H41.2578L37.7422 62.4894ZM66.5312 74.0128C60.0469 74.0128 56.1406 69.5206 56.1406 63.0363C56.1406 56.5519 60.0859 52.0988 66.5312 52.0988C72 52.0988 75.7109 55.3019 75.9453 60.1456H70.5156C70.1641 58.0363 68.7969 56.5909 66.6094 56.5909C63.8359 56.5909 62 58.9347 62 62.9581C62 67.0597 63.7969 69.4034 66.6094 69.4034C68.6406 69.4034 70.1641 68.1534 70.5156 65.8878H75.9453C75.6719 70.6925 72.1562 74.0128 66.5312 74.0128ZM93.5625 81.5519V70.1847H93.3672C92.5469 71.9425 90.7891 73.9347 87.3516 73.9347C82.5078 73.9347 78.7187 70.0675 78.7187 62.9972C78.7187 55.7316 82.6641 52.0988 87.3516 52.0988C90.9062 52.0988 92.5859 54.2081 93.3672 55.9269H93.6406V52.3722H99.3437V81.5519H93.5625ZM89.1484 69.3253C92.0391 69.3253 93.6797 66.7863 93.6797 62.9581C93.6797 59.13 92.0391 56.7081 89.1484 56.7081C86.2187 56.7081 84.6562 59.2472 84.6562 62.9581C84.6562 66.7081 86.2187 69.3253 89.1484 69.3253ZM117.469 64.5597V52.3722H123.25V73.5831H117.703V69.755H117.469C116.492 72.2159 114.227 73.8566 111.023 73.8566C106.766 73.8566 103.875 70.8488 103.875 65.8878V52.3722H109.656V64.8722C109.656 67.3722 111.102 68.9738 113.367 68.9738C115.477 68.9738 117.469 67.4503 117.469 64.5597ZM127.742 73.5831V52.3722H133.523V73.5831H127.742ZM130.633 49.5988C128.875 49.5988 127.469 48.2706 127.469 46.6691C127.469 45.0284 128.875 43.7003 130.633 43.7003C132.352 43.7003 133.758 45.0284 133.758 46.6691C133.758 48.2706 132.352 49.5988 130.633 49.5988ZM150.125 58.6613C149.891 57.1769 148.562 56.2003 146.648 56.2003C144.773 56.2003 143.328 57.0988 143.367 58.3878C143.328 59.3253 144.109 60.0675 146.102 60.4972L149.891 61.2784C153.992 62.1378 155.984 63.9738 156.023 67.0206C155.984 71.2003 152.234 74.0128 146.609 74.0128C140.867 74.0128 137.508 71.4347 137.039 67.2941H142.859C143.133 68.9738 144.5 69.8331 146.609 69.8331C148.719 69.8331 150.125 68.9738 150.125 67.6066C150.125 66.5128 149.227 65.8488 147.234 65.4191L143.719 64.7159C139.695 63.9347 137.586 61.8253 137.625 58.7003C137.586 54.6378 141.102 52.0988 146.57 52.0988C151.922 52.0988 155.242 54.6378 155.555 58.6613H150.125ZM159.578 73.5831V52.3722H165.359V73.5831H159.578ZM162.469 49.5988C160.711 49.5988 159.305 48.2706 159.305 46.6691C159.305 45.0284 160.711 43.7003 162.469 43.7003C164.187 43.7003 165.594 45.0284 165.594 46.6691C165.594 48.2706 164.187 49.5988 162.469 49.5988ZM181.023 52.3722V56.7081H177.039V67.0597C177.039 68.7394 177.859 69.1691 179.031 69.2081C179.617 69.2081 180.633 69.1691 181.336 69.0909V73.6613C180.711 73.7784 179.695 73.8566 178.25 73.8566C174.07 73.8566 171.219 71.9816 171.258 67.88V56.7081H168.328V52.3722H171.258V47.2941H177.039V52.3722H181.023ZM184.656 73.5831V52.3722H190.437V73.5831H184.656ZM187.547 49.5988C185.789 49.5988 184.383 48.2706 184.383 46.6691C184.383 45.0284 185.789 43.7003 187.547 43.7003C189.266 43.7003 190.672 45.0284 190.672 46.6691C190.672 48.2706 189.266 49.5988 187.547 49.5988ZM204.461 74.0128C198.055 74.0128 194.07 69.5988 194.07 63.0363C194.07 56.4738 198.055 52.0988 204.461 52.0988C210.867 52.0988 214.891 56.4738 214.891 63.0363C214.891 69.5988 210.867 74.0128 204.461 74.0128ZM204.5 69.5206C207.469 69.5206 208.992 66.7472 208.992 63.0363C208.992 59.2863 207.469 56.5128 204.5 56.5128C201.492 56.5128 199.93 59.2863 199.93 63.0363C199.93 66.7472 201.492 69.5206 204.5 69.5206ZM224.305 61.3175V73.5831H218.523V52.3722H224.031V56.0831H224.266C225.242 53.6222 227.508 52.0988 230.633 52.0988C235.047 52.0988 237.977 55.1066 237.937 60.0675V73.5831H232.195V61.0831C232.195 58.4659 230.75 56.9034 228.367 56.9034C225.945 56.9034 224.305 58.505 224.305 61.3175ZM261.18 74.0128C254.773 74.0128 250.789 69.5988 250.789 63.0363C250.789 56.4738 254.773 52.0988 261.18 52.0988C267.586 52.0988 271.609 56.4738 271.609 63.0363C271.609 69.5988 267.586 74.0128 261.18 74.0128ZM261.219 69.5206C264.187 69.5206 265.711 66.7472 265.711 63.0363C265.711 59.2863 264.187 56.5128 261.219 56.5128C258.211 56.5128 256.648 59.2863 256.648 63.0363C256.648 66.7472 258.211 69.5206 261.219 69.5206ZM294.227 52.3722L286.766 73.5831H280.281L272.859 52.3722H278.953L283.406 67.6066H283.641L288.094 52.3722H294.227ZM305.945 74.0128C299.461 74.0128 295.477 69.7941 295.477 63.0753C295.477 56.5128 299.5 52.0988 305.711 52.0988C311.297 52.0988 315.672 55.6144 315.672 62.8409V64.4816H301.18C301.18 67.6847 303.094 69.6769 306.062 69.6769C308.016 69.6769 309.422 68.8175 310.008 67.5284H315.516C314.695 71.4347 311.18 74.0128 305.945 74.0128ZM301.18 60.8488H310.203C310.203 58.2706 308.406 56.4347 305.828 56.4347C303.172 56.4347 301.277 58.4073 301.18 60.8488ZM319.305 73.5831V52.3722H324.891V56.0441H325.125C325.906 53.4269 327.859 52.0597 330.242 52.0597C330.828 52.0597 331.57 52.1378 332.078 52.255V57.4113C331.531 57.255 330.437 57.0988 329.617 57.0988C327 57.0988 325.086 58.9347 325.086 61.5128V73.5831H319.305ZM44.7344 101.388C44.5 99.1613 42.7031 97.8331 39.8516 97.8331C36.8828 97.8331 35.2422 99.2003 35.2031 101.075C35.1641 103.107 37.3125 104.044 39.7344 104.591L42.2734 105.216C47.1172 106.31 50.75 108.771 50.75 113.497C50.75 118.692 46.6875 121.974 39.8125 121.974C32.9766 121.974 28.6016 118.81 28.4453 112.755H34.1484C34.3437 115.607 36.6094 117.052 39.7344 117.052C42.8203 117.052 44.8125 115.607 44.8125 113.497C44.8125 111.583 43.0547 110.685 39.9687 109.903L36.8828 109.161C32.1172 107.989 29.1875 105.607 29.1875 101.466C29.1875 96.3097 33.7187 92.9113 39.8906 92.9113C46.1406 92.9113 50.2812 96.3878 50.3594 101.388H44.7344ZM65.6328 100.372V104.708H61.6484V115.06C61.6484 116.739 62.4687 117.169 63.6406 117.208C64.2266 117.208 65.2422 117.169 65.9453 117.091V121.661C65.3203 121.778 64.3047 121.857 62.8594 121.857C58.6797 121.857 55.8281 119.982 55.8672 115.88V104.708H52.9375V100.372H55.8672V95.2941H61.6484V100.372H65.6328ZM82.8594 112.56V100.372H88.6406V121.583H83.0937V117.755H82.8594C81.8828 120.216 79.6172 121.857 76.4141 121.857C72.1562 121.857 69.2656 118.849 69.2656 113.888V100.372H75.0469V112.872C75.0469 115.372 76.4922 116.974 78.7578 116.974C80.8672 116.974 82.8594 115.45 82.8594 112.56ZM100.945 121.935C96.1016 121.935 92.3125 118.067 92.3125 110.997C92.3125 103.732 96.2578 100.099 100.945 100.099C104.5 100.099 106.18 102.208 106.961 103.927H107.156V93.3019H112.937V121.583H107.234V118.185H106.961C106.141 119.942 104.383 121.935 100.945 121.935ZM102.742 117.325C105.633 117.325 107.273 114.786 107.273 110.958C107.273 107.13 105.633 104.708 102.742 104.708C99.8125 104.708 98.25 107.247 98.25 110.958C98.25 114.708 99.8125 117.325 102.742 117.325ZM120.984 129.552C119.852 129.552 118.797 129.513 118.055 129.435V124.942C118.797 124.982 119.656 125.021 120.398 125.021C121.531 125.021 122.469 124.903 123.172 123.067L123.523 122.169L115.906 100.372H121.961L126.414 115.997H126.648L131.141 100.372H137.273L128.992 123.927C127.781 127.325 125.477 129.552 120.984 129.552ZM140.086 121.583V100.372H145.867V121.583H140.086ZM142.977 97.5988C141.219 97.5988 139.812 96.2706 139.812 94.6691C139.812 93.0284 141.219 91.7003 142.977 91.7003C144.695 91.7003 146.102 93.0284 146.102 94.6691C146.102 96.2706 144.695 97.5988 142.977 97.5988ZM156.141 109.318V121.583H150.359V100.372H155.867V104.083H156.102C157.078 101.622 159.344 100.099 162.469 100.099C166.883 100.099 169.812 103.107 169.773 108.068V121.583H164.031V109.083C164.031 106.466 162.586 104.903 160.203 104.903C157.781 104.903 156.141 106.505 156.141 109.318ZM183.797 129.982C177.937 129.982 174.344 127.364 173.992 123.341H179.695C180.008 125.021 181.609 125.802 183.914 125.802C186.609 125.802 188.406 124.669 188.406 121.7V117.833H188.133C187.352 119.552 185.477 121.271 182.078 121.271C177.273 121.271 173.445 117.911 173.445 110.841C173.445 103.653 177.391 100.099 182.078 100.099C185.633 100.099 187.352 102.208 188.133 103.927H188.367V100.372H194.109V121.817C194.109 127.208 189.812 129.982 183.797 129.982ZM183.875 116.935C186.766 116.935 188.406 114.669 188.406 110.919C188.406 107.13 186.766 104.708 183.875 104.708C180.945 104.708 179.383 107.247 179.383 110.919C179.383 114.591 180.945 116.935 183.875 116.935Z" fill="url(#paint1_linear_463_1318)"/>
<path d="M31.3906 296.013C32.5625 296.005 33.5625 296.443 34.2031 297.185H37.8437V295.17H39.0781V303.404H37.8437V301.42H34.2187C33.5625 302.162 32.5625 302.599 31.3906 302.591C29.3125 302.607 27.7812 301.248 27.7812 299.31C27.7812 297.357 29.3125 295.998 31.3906 296.013ZM31.3906 297.076C29.9687 297.06 28.9531 297.998 28.9531 299.31C28.9531 300.607 29.9687 301.545 31.3906 301.545C32.7656 301.545 33.7969 300.607 33.7969 299.31C33.7969 297.998 32.7656 297.06 31.3906 297.076ZM34.4687 303.732C37.3437 303.732 39.125 304.701 39.125 306.373C39.125 308.06 37.3437 309.029 34.4687 309.029C31.5781 309.029 29.8125 308.06 29.8125 306.373C29.8125 304.701 31.5781 303.732 34.4687 303.732ZM34.4687 304.685C32.3437 304.685 31.0156 305.326 31.0156 306.373C31.0156 307.42 32.3437 308.045 34.4687 308.045C36.6094 308.045 37.9219 307.42 37.9219 306.373C37.9219 305.326 36.6094 304.685 34.4687 304.685ZM34.7969 298.185C34.9141 298.529 34.9844 298.904 34.9844 299.31C34.9844 299.701 34.9141 300.068 34.7969 300.404H37.8437V298.185H34.7969ZM45.125 296.248C47.0156 296.263 48.375 297.88 48.5781 300.482H51.6875V295.17H52.9062V309.091H51.6875V301.498H48.5937C48.4453 304.216 47.0625 305.92 45.125 305.92C43.0781 305.92 41.6406 304.045 41.6406 301.091C41.6406 298.138 43.0781 296.263 45.125 296.248ZM45.125 297.341C43.75 297.357 42.8125 298.826 42.8125 301.091C42.8125 303.357 43.75 304.826 45.125 304.826C46.4844 304.826 47.4375 303.357 47.4375 301.091C47.4375 298.826 46.4844 297.357 45.125 297.341ZM66.4531 299.388V300.373H56.9375V295.685H58.1562V299.388H66.4531ZM67.9219 302.263V303.263H55.2031V302.263H67.9219ZM66.5312 307.701V308.716H56.8594V304.685H58.0781V307.701H66.5312ZM79.3437 303.951C82.3281 303.951 84.2187 304.888 84.2187 306.498C84.2187 308.091 82.3281 309.029 79.3437 309.029C76.375 309.029 74.4844 308.091 74.4844 306.498C74.4844 304.888 76.375 303.951 79.3437 303.951ZM79.3437 304.888C77.125 304.904 75.6875 305.513 75.7031 306.498C75.6875 307.466 77.125 308.06 79.3437 308.06C81.5625 308.06 82.9844 307.466 83 306.498C82.9844 305.513 81.5625 304.904 79.3437 304.888ZM84.1094 295.888V297.06C84.1094 298.185 84.1094 299.31 83.7187 300.748L82.5156 300.607C82.8906 299.17 82.8906 298.154 82.8906 297.06V296.888H74.5781V295.888H84.1094ZM85.7187 301.654V302.654H73.0781V301.654H78.3125V298.966H79.5156V301.654H85.7187ZM99.5937 303.42V304.42H93.7969V309.06H92.5937V304.42H86.875V303.42H99.5937ZM89.7187 295.748V297.67H96.7187V295.748H97.9531V301.732H88.5V295.748H89.7187ZM89.7187 300.732H96.7187V298.67H89.7187V300.732ZM111.469 295.17V300.904H113.797V301.92H111.469V309.06H110.25V295.17H111.469ZM108.906 297.404V298.42H100.641V297.404H104.219V295.341H105.437V297.404H108.906ZM104.844 299.576C106.812 299.576 108.234 300.888 108.25 302.763C108.234 304.638 106.812 305.951 104.844 305.951C102.859 305.951 101.422 304.638 101.437 302.763C101.422 300.888 102.859 299.576 104.844 299.576ZM104.844 300.607C103.547 300.607 102.594 301.513 102.609 302.763C102.594 304.029 103.547 304.92 104.844 304.904C106.125 304.92 107.062 304.029 107.078 302.763C107.062 301.513 106.125 300.607 104.844 300.607ZM125.781 299.388V300.373H116.266V295.685H117.484V299.388H125.781ZM127.25 302.263V303.263H114.531V302.263H127.25ZM125.859 307.701V308.716H116.187V304.685H117.406V307.701H125.859ZM143.906 295.185V304.591H142.672V300.123H139.625V299.091H142.672V295.185H143.906ZM139.562 296.279C139.547 299.841 137.172 302.404 133.172 303.685L132.625 302.701C135.945 301.677 137.992 299.748 138.25 297.279H133.312V296.279H139.562ZM140 304.013C140 306.045 142.219 307.56 144.672 307.998L144.156 308.982C142.109 308.584 140.227 307.513 139.406 305.888C138.555 307.521 136.648 308.607 134.578 309.013L134.078 308.045C136.531 307.623 138.781 306.06 138.797 304.013V303.373H140V304.013ZM157.672 295.17V309.091H156.437V295.17H157.672ZM150.281 296.248C152.344 296.263 153.828 298.138 153.828 301.091C153.828 304.045 152.344 305.92 150.281 305.92C148.203 305.92 146.734 304.045 146.734 301.091C146.734 298.138 148.203 296.263 150.281 296.248ZM150.281 297.341C148.891 297.357 147.922 298.826 147.922 301.091C147.922 303.357 148.891 304.826 150.281 304.826C151.672 304.826 152.641 303.357 152.641 301.091C152.641 298.826 151.672 297.357 150.281 297.341ZM167.781 296.248C169.828 296.263 171.281 298.138 171.297 301.091C171.281 304.045 169.828 305.92 167.781 305.92C165.719 305.92 164.281 304.045 164.281 301.091C164.281 298.138 165.719 296.263 167.781 296.248ZM167.781 297.341C166.406 297.357 165.437 298.826 165.437 301.091C165.437 303.357 166.406 304.826 167.781 304.826C169.172 304.826 170.109 303.357 170.109 301.091C170.109 298.826 169.172 297.357 167.781 297.341ZM174.812 295.17V300.716H177.141V301.779H174.812V309.06H173.594V295.17H174.812ZM189.344 295.17V309.06H188.125V295.17H189.344ZM180 296.545V304.42C182.117 304.412 184.312 304.24 186.641 303.748L186.812 304.795C184.344 305.31 182.141 305.482 179.922 305.482H178.797V296.545H180ZM202.469 295.17V300.701H204.797V301.732H202.469V309.091H201.25V295.17H202.469ZM198.578 296.466V301.435H193.516V304.685C196.094 304.685 197.891 304.599 200 304.201L200.125 305.216C197.937 305.623 196.078 305.716 193.406 305.732H192.297V300.42H197.359V297.482H192.266V296.466H198.578ZM207.828 306.748L206.609 310.998H205.453L206.312 306.748H207.828ZM226.359 302.279V303.295H220.703V306.138H219.484V303.295H213.641V302.279H226.359ZM224.703 295.857V300.685H215.297V295.857H224.703ZM216.5 296.826V299.701H223.484V296.826H216.5ZM224.937 307.732V308.763H215.266V304.763H216.5V307.732H224.937ZM239.281 295.185V303.451H238.109V299.779H236.266V303.357H235.109V295.451H236.266V298.763H238.109V295.185H239.281ZM239.281 304.232V309.06H238.078V305.216H229.922V304.232H239.281ZM233.5 296.373V302.388H228.125V296.373H233.5ZM229.281 297.341V301.435H232.359V297.341H229.281ZM258.031 302.154V303.17H245.328V302.154H251.047V300.013H252.25V302.154H258.031ZM252.266 296.045C252.266 297.888 254.766 299.435 257.219 299.779L256.719 300.763C254.609 300.396 252.523 299.279 251.656 297.67C250.781 299.287 248.687 300.396 246.562 300.763L246.094 299.779C248.547 299.435 251.031 297.888 251.031 296.045V295.388H252.266V296.045ZM256.422 304.529V309.06H255.187V305.513H246.734V304.529H256.422ZM274.031 295.185V299.388H276.125V300.42H274.031V305.388H272.812V295.185H274.031ZM274.672 307.732V308.763H265.344V304.388H266.547V307.732H274.672ZM264.969 296.185V298.529H269.016V296.185H270.234V303.045H263.766V296.185H264.969ZM264.969 302.045H269.016V299.498H264.969V302.045ZM289.656 302.357V303.373H277V302.357H282.719V300.685H278.687V295.498H279.906V297.107H286.781V295.498H288V300.685H283.937V302.357H289.656ZM288.094 304.748V309.06H286.859V305.732H278.406V304.748H288.094ZM279.906 299.701H286.781V298.045H279.906V299.701ZM306.094 301.498V302.529H301.781V306.232H307.562V307.248H294.844V306.232H300.562V302.529H296.406V296.357H297.656V301.498H306.094ZM321.328 301.357V302.31H315.594V303.607H319.703V306.607H311.453V307.966H320.125V308.904H310.234V305.732H318.5V304.529H310.203V303.607H314.391V302.31H308.687V301.357H321.328ZM315.594 295.091V296.388H320.047V297.357H315.687C315.914 298.74 318.086 299.615 320.641 299.779L320.266 300.716C317.945 300.521 315.852 299.802 315 298.482C314.148 299.802 312.055 300.521 309.719 300.716L309.359 299.779C311.898 299.615 314.07 298.74 314.312 297.357H309.984V296.388H314.391V295.091H315.594ZM335.219 306.31V307.341H322.5V306.31H328.219V303.685H324.094V299.404H332.406V297.216H324.062V296.201H333.609V300.404H325.312V302.67H333.937V303.685H329.422V306.31H335.219ZM32.2656 325.435C32.25 327.67 33.8594 330.123 35.875 331.076L35.1719 332.045C33.6094 331.287 32.2891 329.63 31.6719 327.748C31.0312 329.795 29.6328 331.591 28.0781 332.388L27.3281 331.42C29.3281 330.451 31.0469 327.81 31.0625 325.435V323.623H27.8281V322.607H35.3906V323.623H32.2656V325.435ZM38.3125 321.17V326.795H40.6406V327.841H38.3125V335.06H37.0937V321.17H38.3125ZM52.9062 321.185V331.451H51.6719V327.701H48.0781C47.4375 328.521 46.4062 329.013 45.2187 329.013C43.1406 329.013 41.6094 327.576 41.6094 325.545C41.6094 323.513 43.1406 322.076 45.2187 322.06C46.3984 322.068 47.4062 322.552 48.0625 323.357H51.6719V321.185H52.9062ZM53.2969 333.732V334.763H43.9844V330.373H45.2187V333.732H53.2969ZM45.2187 323.154C43.7969 323.17 42.7812 324.154 42.7812 325.545C42.7812 326.935 43.7969 327.92 45.2187 327.92C46.5781 327.92 47.625 326.935 47.625 325.545C47.625 324.154 46.5781 323.17 45.2187 323.154ZM48.625 324.373C48.7422 324.732 48.8125 325.123 48.8125 325.545C48.8125 325.951 48.7422 326.334 48.625 326.685H51.6719V324.373H48.625ZM62.1406 323.216C62.1406 325.591 64.8594 327.716 67.2812 328.17L66.7187 329.201C64.625 328.716 62.4141 327.224 61.5156 325.17C60.6172 327.216 58.4141 328.709 56.3125 329.201L55.75 328.17C58.1562 327.701 60.8594 325.607 60.8594 323.216V322.154H62.1406V323.216ZM67.9375 332.154V333.17H55.2187V332.154H67.9375ZM80.5625 321.185V328.81H79.3281V325.091H76.6875V324.076H79.3281V321.185H80.5625ZM72.6875 329.466V331.17H79.3437V329.466H80.5625V334.873H71.4687V329.466H72.6875ZM72.6875 333.873H79.3437V332.154H72.6875V333.873ZM75.7969 321.763V325.513H70.8594V327.435C73.1484 327.427 74.8672 327.349 76.9531 327.013L77.0625 328.045C74.875 328.373 73.0937 328.451 70.6875 328.451H69.6406V324.56H74.6094V322.763H69.6094V321.763H75.7969ZM94.7656 321.17V335.06H93.5937V321.17H94.7656ZM91.8437 321.545V334.357H90.6719V327.873H87.7344C86.8828 329.49 85.5469 330.92 83.6094 332.06L82.8906 331.17C85.9141 329.38 87.4297 326.873 87.6562 323.966H83.4844V322.951H88.875C88.8672 324.318 88.6484 325.638 88.1875 326.873H90.6719V321.545H91.8437ZM100.734 326.732L101.953 322.482H103.109L102.25 326.732H100.734ZM107.078 329.513V331.138H114.016V329.513H115.25V334.873H105.859V329.513H107.078ZM107.078 333.888H114.016V332.107H107.078V333.888ZM116.906 327.513V328.529H104.25V327.513H116.906ZM111.219 321.982C111.219 323.701 113.75 325.232 116.187 325.545L115.734 326.529C113.578 326.209 111.469 325.107 110.594 323.545C109.703 325.115 107.578 326.209 105.437 326.529L104.969 325.545C107.437 325.216 109.953 323.748 109.953 321.982V321.326H111.219V321.982ZM130.75 327.935V328.951H118.078V327.935H130.75ZM129.187 330.623V335.138H127.969V331.623H119.484V330.623H129.187ZM129.297 325.388V326.388H119.687V321.716H129.172V322.716H120.906V325.388H129.297ZM134.297 322.498L133.078 326.748H131.922L132.781 322.498H134.297ZM142.375 323.576V324.576H135.406V323.576H138.297V321.591H139.516V323.576H142.375ZM138.891 325.513C140.641 325.513 141.891 326.826 141.906 328.67C141.891 330.529 140.641 331.857 138.891 331.857C137.156 331.857 135.906 330.529 135.906 328.67C135.906 326.826 137.156 325.513 138.891 325.513ZM138.891 326.545C137.797 326.56 137 327.451 137 328.67C137 329.904 137.797 330.795 138.891 330.779C140 330.795 140.812 329.904 140.812 328.67C140.812 327.451 140 326.56 138.891 326.545ZM147.266 321.17V335.06H146.094V328.045H144.25V334.373H143.094V321.513H144.25V327.029H146.094V321.17H147.266ZM152.984 322.248C155.031 322.263 156.484 324.138 156.5 327.091C156.484 330.045 155.031 331.92 152.984 331.92C150.922 331.92 149.484 330.045 149.484 327.091C149.484 324.138 150.922 322.263 152.984 322.248ZM152.984 323.341C151.609 323.357 150.641 324.826 150.641 327.091C150.641 329.357 151.609 330.826 152.984 330.826C154.375 330.826 155.312 329.357 155.312 327.091C155.312 324.826 154.375 323.357 152.984 323.341ZM162.266 324.67V325.716H160.016V328.81H162.266V329.841H160.016V335.06H158.797V321.17H160.016V324.67H162.266ZM177.969 321.17V324.732H180.062V325.779H177.969V329.248H176.75V321.17H177.969ZM170.406 329.857V331.341H176.75V329.857H177.969V334.873H169.187V329.857H170.406ZM170.406 333.888H176.75V332.31H170.406V333.888ZM175.422 322.607V323.623H167.141V322.607H170.672V321.045H171.891V322.607H175.422ZM171.281 324.263C173.281 324.263 174.609 325.216 174.625 326.701C174.609 328.185 173.281 329.138 171.281 329.138C169.266 329.138 167.922 328.185 167.937 326.701C167.922 325.216 169.266 324.263 171.281 324.263ZM171.281 325.216C169.969 325.201 169.094 325.81 169.109 326.701C169.094 327.607 169.969 328.201 171.281 328.201C172.578 328.201 173.453 327.607 173.469 326.701C173.453 325.81 172.578 325.201 171.281 325.216ZM192.391 321.17V335.06H191.172V321.17H192.391ZM183.047 322.545V330.42C185.164 330.412 187.359 330.24 189.687 329.748L189.859 330.795C187.391 331.31 185.187 331.482 182.969 331.482H181.844V322.545H183.047ZM205.516 321.17V326.67H207.844V327.701H205.516V335.091H204.297V321.17H205.516ZM201.859 322.529V323.545H196.594V330.576C199.109 330.576 200.891 330.459 202.953 330.076L203.109 331.138C200.937 331.529 199.109 331.607 196.469 331.607H195.375V322.529H201.859ZM210.062 333.888C209.516 333.888 209.047 333.435 209.062 332.873C209.047 332.326 209.516 331.873 210.062 331.873C210.609 331.873 211.062 332.326 211.062 332.873C211.062 333.435 210.609 333.888 210.062 333.888ZM224.625 322.685V323.701H223.078V330.388C223.828 330.334 224.57 330.271 225.281 330.185L225.344 331.091C222.406 331.56 219.078 331.607 216.625 331.623L216.469 330.576L218.344 330.56V323.701H216.812V322.685H224.625ZM227.391 321.17V326.748H229.719V327.779H227.391V335.06H226.172V321.17H227.391ZM219.531 330.545C220.305 330.529 221.109 330.498 221.906 330.451V323.701H219.531V330.545ZM241.984 321.17V331.513H240.75V327.482H238.375V326.451H240.75V324.841H238.375V323.826H240.75V321.17H241.984ZM238.266 322.31V323.31H236.844V328.17C237.492 328.13 238.117 328.084 238.719 328.013L238.781 328.935C236.078 329.357 232.906 329.404 230.656 329.404L230.5 328.357L232.297 328.341V323.31H230.891V322.31H238.266ZM242.359 333.732V334.763H233.031V330.654H234.266V333.732H242.359ZM233.484 328.31C234.195 328.302 234.93 328.279 235.656 328.248V323.31H233.484V328.31ZM249.125 323.732C249.125 325.545 250.516 327.263 252.547 327.966L251.906 328.935C250.336 328.373 249.125 327.209 248.531 325.779C247.93 327.38 246.648 328.662 245 329.263L244.359 328.295C246.406 327.56 247.891 325.701 247.891 323.748V323.138H244.75V322.138H252.234V323.138H249.125V323.732ZM255.812 330.232V335.06H254.578V331.248H246.469V330.232H255.812ZM255.812 321.17V329.498H254.578V325.841H251.797V324.81H254.578V321.17H255.812ZM269.594 321.185V331.341H268.375V321.185H269.594ZM270.031 333.732V334.763H260.625V330.31H261.844V333.732H270.031ZM262.094 322.154C264.172 322.154 265.734 323.56 265.734 325.56C265.734 327.591 264.172 328.982 262.094 328.982C260.016 328.982 258.453 327.591 258.453 325.56C258.453 323.56 260.016 322.154 262.094 322.154ZM262.094 323.232C260.687 323.232 259.641 324.201 259.656 325.56C259.641 326.951 260.687 327.904 262.094 327.904C263.469 327.904 264.531 326.951 264.531 325.56C264.531 324.201 263.469 323.232 262.094 323.232ZM282.25 329.951C285.234 329.951 287.125 330.888 287.125 332.498C287.125 334.091 285.234 335.029 282.25 335.029C279.281 335.029 277.391 334.091 277.391 332.498C277.391 330.888 279.281 329.951 282.25 329.951ZM282.25 330.888C280.031 330.904 278.594 331.513 278.609 332.498C278.594 333.466 280.031 334.06 282.25 334.06C284.469 334.06 285.891 333.466 285.906 332.498C285.891 331.513 284.469 330.904 282.25 330.888ZM287.016 321.888V323.06C287.016 324.185 287.016 325.31 286.625 326.748L285.422 326.607C285.797 325.17 285.797 324.154 285.797 323.06V322.888H277.484V321.888H287.016ZM288.625 327.654V328.654H275.984V327.654H281.219V324.966H282.422V327.654H288.625ZM302.5 329.42V330.42H296.703V335.06H295.5V330.42H289.781V329.42H302.5ZM292.625 321.748V323.67H299.625V321.748H300.859V327.732H291.406V321.748H292.625ZM292.625 326.732H299.625V324.67H292.625V326.732ZM310.641 322.435V328.826H304.219V322.435H310.641ZM305.422 323.435V327.841H309.453V323.435H305.422ZM314.484 321.17V325.404H316.578V326.435H314.484V331.357H313.266V321.17H314.484ZM315.125 333.732V334.763H305.797V330.388H307V333.732H315.125ZM323.781 322.076C326.687 322.076 328.859 323.591 328.859 325.888C328.859 328.201 326.687 329.716 323.781 329.701C320.875 329.716 318.703 328.201 318.703 325.888C318.703 323.591 320.875 322.076 323.781 322.076ZM323.781 323.076C321.547 323.06 319.859 324.232 319.875 325.888C319.859 327.576 321.547 328.701 323.781 328.701C326 328.701 327.672 327.576 327.672 325.888C327.672 324.232 326 323.06 323.781 323.076ZM330.172 332.185V333.216H317.453V332.185H330.172ZM344 332.31V333.341H331.281V332.31H337V329.685H332.875V325.404H341.187V323.216H332.844V322.201H342.391V326.404H334.094V328.67H342.719V329.685H338.203V332.31H344ZM38.7969 351.388V352.373H29.2812V347.685H30.5V351.388H38.7969ZM40.2656 354.263V355.263H27.5469V354.263H40.2656ZM38.875 359.701V360.716H29.2031V356.685H30.4219V359.701H38.875ZM49.2344 348.013C50.4062 348.005 51.4062 348.443 52.0469 349.185H55.6875V347.17H56.9219V355.404H55.6875V353.42H52.0625C51.4062 354.162 50.4062 354.599 49.2344 354.591C47.1562 354.607 45.625 353.248 45.625 351.31C45.625 349.357 47.1562 347.998 49.2344 348.013ZM49.2344 349.076C47.8125 349.06 46.7969 349.998 46.7969 351.31C46.7969 352.607 47.8125 353.545 49.2344 353.545C50.6094 353.545 51.6406 352.607 51.6406 351.31C51.6406 349.998 50.6094 349.06 49.2344 349.076ZM52.3125 355.732C55.1875 355.732 56.9687 356.701 56.9687 358.373C56.9687 360.06 55.1875 361.029 52.3125 361.029C49.4219 361.029 47.6562 360.06 47.6562 358.373C47.6562 356.701 49.4219 355.732 52.3125 355.732ZM52.3125 356.685C50.1875 356.685 48.8594 357.326 48.8594 358.373C48.8594 359.42 50.1875 360.045 52.3125 360.045C54.4531 360.045 55.7656 359.42 55.7656 358.373C55.7656 357.326 54.4531 356.685 52.3125 356.685ZM52.6406 350.185C52.7578 350.529 52.8281 350.904 52.8281 351.31C52.8281 351.701 52.7578 352.068 52.6406 352.404H55.6875V350.185H52.6406ZM62.9687 348.248C64.8594 348.263 66.2187 349.88 66.4219 352.482H69.5312V347.17H70.75V361.091H69.5312V353.498H66.4375C66.2891 356.216 64.9062 357.92 62.9687 357.92C60.9219 357.92 59.4844 356.045 59.4844 353.091C59.4844 350.138 60.9219 348.263 62.9687 348.248ZM62.9687 349.341C61.5937 349.357 60.6562 350.826 60.6562 353.091C60.6562 355.357 61.5937 356.826 62.9687 356.826C64.3281 356.826 65.2812 355.357 65.2812 353.091C65.2812 350.826 64.3281 349.357 62.9687 349.341ZM83.8125 347.17V352.826H86.0625V353.857H83.8125V361.06H82.5937V347.17H83.8125ZM80.2187 348.67C80.2187 352.607 78.375 356.185 73.8437 358.42L73.1562 357.451C76.75 355.662 78.7031 352.99 78.9844 349.701H73.7969V348.67H80.2187ZM102.109 350.513V351.529H92.625V347.404H93.8281V350.513H102.109ZM103.609 352.904V353.904H90.8906V352.904H103.609ZM101.969 355.154V358.404H93.75V359.888H102.469V360.873H92.5156V357.466H100.766V356.123H92.4844V355.154H101.969ZM109.703 351.435C109.703 353.795 111.422 356.185 113.469 357.076L112.781 358.045C111.156 357.302 109.75 355.701 109.109 353.779C108.453 355.818 107.055 357.591 105.469 358.388L104.734 357.42C106.719 356.466 108.453 353.841 108.469 351.435V349.623H105.187V348.607H113.016V349.623H109.703V351.435ZM116.187 347.17V361.06H114.953V347.17H116.187ZM126.453 347.966C128.531 347.966 130.062 349.295 130.062 351.17C130.062 353.06 128.531 354.373 126.453 354.388C124.375 354.373 122.828 353.06 122.844 351.17C122.828 349.295 124.375 347.966 126.453 347.966ZM126.453 348.998C125.094 348.998 124.031 349.92 124.047 351.17C124.031 352.451 125.094 353.373 126.453 353.373C127.828 353.373 128.859 352.451 128.859 351.17C128.859 349.92 127.828 348.998 126.453 348.998ZM133.437 347.17V350.31H135.531V351.326H133.437V354.123H132.219V347.17H133.437ZM125.25 355.623V359.67C126.055 359.646 127.125 359.529 128.109 359.201L128.297 360.185C126.937 360.638 125.625 360.685 124.719 360.685H124.062V355.623H125.25ZM134.828 355.685V356.638H127.812V355.685H130.734V354.451H131.937V355.685H134.828ZM131.312 357.107C132.828 357.107 133.906 357.873 133.922 359.076C133.906 360.279 132.828 361.029 131.312 361.029C129.781 361.029 128.719 360.279 128.734 359.076C128.719 357.873 129.781 357.107 131.312 357.107ZM131.312 357.998C130.453 357.998 129.828 358.435 129.828 359.076C129.828 359.732 130.453 360.154 131.312 360.154C132.187 360.154 132.797 359.732 132.797 359.076C132.797 358.435 132.187 357.998 131.312 357.998ZM139.234 355.513V357.138H146.172V355.513H147.406V360.873H138.016V355.513H139.234ZM139.234 359.888H146.172V358.107H139.234V359.888ZM149.062 353.513V354.529H136.406V353.513H149.062ZM143.375 347.982C143.375 349.701 145.906 351.232 148.344 351.545L147.891 352.529C145.734 352.209 143.625 351.107 142.75 349.545C141.859 351.115 139.734 352.209 137.594 352.529L137.125 351.545C139.594 351.216 142.109 349.748 142.109 347.982V347.326H143.375V347.982ZM161.687 347.17V361.06H160.469V347.17H161.687ZM152.344 348.545V356.42C154.461 356.412 156.656 356.24 158.984 355.748L159.156 356.795C156.687 357.31 154.484 357.482 152.266 357.482H151.141V348.545H152.344ZM174.812 347.17V352.67H177.141V353.701H174.812V361.091H173.594V347.17H174.812ZM171.156 348.529V349.545H165.891V356.576C168.406 356.576 170.187 356.459 172.25 356.076L172.406 357.138C170.234 357.529 168.406 357.607 165.766 357.607H164.672V348.529H171.156ZM179.359 359.888C178.812 359.888 178.344 359.435 178.359 358.873C178.344 358.326 178.812 357.873 179.359 357.873C179.906 357.873 180.359 358.326 180.359 358.873C180.359 359.435 179.906 359.888 179.359 359.888Z" fill="#666666"/>
<path d="M28 274.635H350" stroke="url(#paint2_linear_463_1318)"/>
<defs>
<filter id="filter0_i_463_1318" x="0" y="0.321289" width="378" height="452.344" filterUnits="userSpaceOnUse" color-interpolation-filters="sRGB">
<feFlood flood-opacity="0" result="BackgroundImageFix"/>
<feBlend mode="normal" in="SourceGraphic" in2="BackgroundImageFix" result="shape"/>
<feColorMatrix in="SourceAlpha" type="matrix" values="0 0 0 0 0 0 0 0 0 0 0 0 0 0 0 0 0 0 127 0" result="hardAlpha"/>
<feOffset dx="4" dy="4"/>
<feGaussianBlur stdDeviation="1"/>
<feComposite in2="hardAlpha" operator="arithmetic" k2="-1" k3="1"/>
<feColorMatrix type="matrix" values="0 0 0 0 1 0 0 0 0 1 0 0 0 0 1 0 0 0 0.25 0"/>
<feBlend mode="normal" in2="shape" result="effect1_innerShadow_463_1318"/>
</filter>
<linearGradient id="paint0_linear_463_1318" x1="-17.3604" y1="-7.93109" x2="340.086" y2="488.323" gradientUnits="userSpaceOnUse">
<stop stop-color="#3182F6"/>
<stop offset="1" stop-color="#A009FF"/>
</linearGradient>
<linearGradient id="paint1_linear_463_1318" x1="27" y1="35.5831" x2="288.25" y2="149.254" gradientUnits="userSpaceOnUse">
<stop stop-color="#3182F6"/>
<stop offset="1" stop-color="#A009FF"/>
</linearGradient>
<linearGradient id="paint2_linear_463_1318" x1="27.709" y1="275.135" x2="475.866" y2="275.131" gradientUnits="userSpaceOnUse">
<stop stop-color="#3182F6"/>
<stop offset="1" stop-color="#A009FF"/>
</linearGradient>
</defs>
</svg>
