<svg width="347" height="454" viewBox="0 0 347 454" fill="none" xmlns="http://www.w3.org/2000/svg">
<rect x="0.5" y="0.5" width="346" height="453" rx="20.5" fill="#285FF2" stroke="url(#paint0_linear_469_1540)"/>
<rect x="1" y="194" width="345" height="259" rx="20" fill="white"/>
<path d="M208.494 68.4829V69.6431H194.186V68.4829H200.637V64.897H201.99V68.4829H208.494ZM207.123 58.481V59.6235H202.025C202.034 62.0757 204.636 63.8774 207.633 64.3696L207.105 65.4595C204.601 65.0112 202.307 63.7544 201.322 61.8032C200.329 63.7544 198.035 65.0112 195.521 65.4595L194.977 64.3696C197.991 63.8774 200.61 62.0757 200.619 59.6235H195.521V58.481H200.637V56.3188H201.99V58.481H207.123ZM223.998 63.4204V64.5806H209.742V63.4204H223.998ZM222.328 60.8013V61.9263H211.553V56.6177H222.223V57.7778H212.906V60.8013H222.328ZM216.861 65.9517C220.219 65.9517 222.223 66.9712 222.24 68.7642C222.223 70.5747 220.219 71.5767 216.861 71.5767C213.486 71.5767 211.465 70.5747 211.465 68.7642C211.465 66.9712 213.486 65.9517 216.861 65.9517ZM216.861 67.0239C214.348 67.0415 212.854 67.6743 212.871 68.7642C212.854 69.8716 214.348 70.4868 216.861 70.4868C219.34 70.4868 220.852 69.8716 220.852 68.7642C220.852 67.6743 219.34 67.0415 216.861 67.0239ZM234.65 57.6724V58.7974H225.334V57.6724H229.307V55.9146H230.678V57.6724H234.65ZM229.992 59.606C232.242 59.6235 233.736 60.7134 233.754 62.436C233.736 64.1411 232.242 65.2485 229.992 65.2485C227.742 65.2485 226.213 64.1411 226.23 62.436C226.213 60.7134 227.742 59.6235 229.992 59.606ZM229.992 60.6782C228.516 60.6958 227.531 61.3813 227.549 62.436C227.531 63.4731 228.516 64.1411 229.992 64.1411C231.451 64.1411 232.436 63.4731 232.453 62.436C232.436 61.3813 231.451 60.6958 229.992 60.6782ZM237.516 55.9849V60.3267H239.871V61.4868H237.516V65.7583H236.145V55.9849H237.516ZM237.516 66.6196V71.6118H236.145V67.7446H227.285V66.6196H237.516ZM253.406 57.5669V59.3071C253.406 61.311 253.406 63.3325 252.844 66.2329L251.49 66.0747C252.053 63.3149 252.053 61.2583 252.053 59.3071V58.7095H242.35V57.5669H253.406ZM255.094 68.2544V69.397H240.855V68.2544H244.389V63.104H245.76V68.2544H248.291V63.104H249.645V68.2544H255.094ZM261.492 70.188L261.475 69.0278L265.816 64.4575C267.328 62.8579 268.049 61.9966 268.049 60.8188C268.049 59.5181 266.941 58.6567 265.518 58.6567C264.006 58.6567 263.039 59.6235 263.039 61.0474H261.545C261.527 58.7974 263.268 57.2856 265.57 57.2856C267.873 57.2856 269.525 58.8325 269.525 60.8188C269.525 62.2427 268.857 63.3501 266.607 65.6704L263.689 68.6763V68.7817H269.754V70.188H261.492ZM272.566 63.6313C273.129 62.981 273.832 62.6294 274.605 62.6294C275.941 62.6294 277.154 63.6489 278.438 63.6489C279.229 63.6489 279.914 63.2622 280.441 62.5415V64.0005C279.861 64.6685 279.176 65.0024 278.402 65.0024C277.066 65.0024 275.854 63.9829 274.553 63.9829C273.779 63.9829 273.094 64.3696 272.566 65.0903V63.6313ZM287.49 70.3638C285.188 70.3638 283.447 68.9399 283.359 66.9888H284.889C285.012 68.1313 286.119 68.9751 287.49 68.9751C289.143 68.9751 290.338 67.7622 290.338 66.1626C290.338 64.5103 289.09 63.2974 287.385 63.2798C286.312 63.2622 285.486 63.5962 285.012 64.4224H283.482L284.379 57.4614H291.27V58.8677H285.697L285.223 62.5942H285.346C285.908 62.1548 286.77 61.856 287.666 61.856C290.092 61.856 291.885 63.6489 291.885 66.1274C291.885 68.5884 290.021 70.3638 287.49 70.3638ZM302.871 57.6724V58.7974H293.555V57.6724H297.527V55.9146H298.898V57.6724H302.871ZM298.213 59.606C300.463 59.6235 301.957 60.7134 301.975 62.436C301.957 64.1411 300.463 65.2485 298.213 65.2485C295.963 65.2485 294.434 64.1411 294.451 62.436C294.434 60.7134 295.963 59.6235 298.213 59.606ZM298.213 60.6782C296.736 60.6958 295.752 61.3813 295.77 62.436C295.752 63.4731 296.736 64.1411 298.213 64.1411C299.672 64.1411 300.656 63.4731 300.674 62.436C300.656 61.3813 299.672 60.6958 298.213 60.6782ZM305.736 55.9849V60.3267H308.092V61.4868H305.736V65.7583H304.365V55.9849H305.736ZM305.736 66.6196V71.6118H304.365V67.7446H295.506V66.6196H305.736ZM322.031 56.0024V67.5688H320.643V62.1548H316.143V61.0474H320.643V59.1665H316.143V58.0591H320.643V56.0024H322.031ZM322.453 70.1177V71.2778H311.959V66.5845H313.348V70.1177H322.453ZM311.396 57.1274V64.0708C313.55 64.062 315.624 63.9478 318.006 63.5083L318.146 64.6509C315.598 65.1255 313.471 65.231 311.186 65.2485H310.008V57.1274H311.396Z" fill="white"/>
<path d="M43.1602 53.3462C42.7383 50.5337 40.5586 48.811 37.6055 48.811C33.6328 48.811 31.0312 51.8696 31.0312 57.2134C31.0312 62.6978 33.668 65.6157 37.5703 65.6157C40.4883 65.6157 42.6328 63.9985 43.1602 61.2563L48.5039 61.2915C47.9062 66.0024 43.9688 70.2915 37.5 70.2915C30.6797 70.2915 25.6523 65.5103 25.6523 57.2134C25.6523 48.9165 30.7852 44.1353 37.5 44.1353C43.3711 44.1353 47.8008 47.5103 48.5039 53.3462H43.1602ZM75.5039 57.2134C75.5039 65.5103 70.3359 70.2915 63.6211 70.2915C56.8359 70.2915 51.7031 65.4751 51.7031 57.2134C51.7031 48.9165 56.8359 44.1353 63.6211 44.1353C70.3359 44.1353 75.5039 48.9165 75.5039 57.2134ZM70.125 57.2134C70.125 51.7642 67.5586 48.811 63.6211 48.811C59.6836 48.811 57.082 51.7642 57.082 57.2134C57.082 62.6626 59.6836 65.6157 63.6211 65.6157C67.5586 65.6157 70.125 62.6626 70.125 57.2134ZM79.3008 69.9399V44.4868H89.2852C95.0859 44.4868 98.3906 47.7563 98.3906 52.7837C98.3906 56.2642 96.791 58.7954 93.8906 60.0259L99.3047 69.9399H93.4688L88.6172 60.9048H84.5742V69.9399H79.3008ZM84.5742 56.6157H88.3008C91.4297 56.6157 92.9414 55.3149 92.9414 52.7837C92.9414 50.2173 91.4297 48.811 88.3008 48.811H84.5742V56.6157ZM102.047 69.9399V44.4868H119.133V48.8462H107.32V55.0337H118.254V59.3931H107.32V65.5806H119.168V69.9399H102.047Z" fill="white"/>
<path d="M24 88.8579H324" stroke="white"/>
<path d="M38.1777 224.93C38.1777 229.539 35.3066 232.195 31.5762 232.195C27.8066 232.195 24.9551 229.52 24.9551 224.93C24.9551 220.32 27.8066 217.664 31.5762 217.664C35.3066 217.664 38.1777 220.32 38.1777 224.93ZM35.1895 224.93C35.1895 221.902 33.7637 220.262 31.5762 220.262C29.3887 220.262 27.9434 221.902 27.9434 224.93C27.9434 227.957 29.3887 229.598 31.5762 229.598C33.7637 229.598 35.1895 227.957 35.1895 224.93ZM40.2871 232V217.859H43.1777V223.172H43.2559C43.666 222.312 44.5059 221.258 46.2832 221.258C48.627 221.258 50.5996 223.074 50.5996 226.707C50.5996 230.242 48.7051 232.176 46.2832 232.176C44.5449 232.176 43.666 231.18 43.2559 230.301H43.1387V232H40.2871ZM43.1191 226.688C43.1191 228.602 43.9395 229.871 45.3652 229.871C46.8496 229.871 47.6309 228.562 47.6309 226.688C47.6309 224.832 46.8496 223.562 45.3652 223.562C43.9199 223.562 43.1191 224.773 43.1191 226.688ZM52.4551 221.395H55.3457V232.527C55.3457 234.969 53.8418 235.984 51.3613 235.984L50.7754 235.965V233.699C50.9316 233.699 51.0293 233.719 51.166 233.719C52.1035 233.719 52.4551 233.289 52.4551 232.488V221.395ZM53.8809 220.008C53.002 220.008 52.2988 219.344 52.2988 218.543C52.2988 217.723 53.002 217.059 53.8809 217.059C54.7402 217.059 55.4434 217.723 55.4434 218.543C55.4434 219.344 54.7402 220.008 53.8809 220.008ZM62.3965 232.215C59.1543 232.215 57.1621 230.105 57.1621 226.746C57.1621 223.465 59.1738 221.258 62.2793 221.258C65.0723 221.258 67.2598 223.016 67.2598 226.629V227.449H60.0137C60.0137 229.051 60.9707 230.047 62.4551 230.047C63.4316 230.047 64.1348 229.617 64.4277 228.973H67.1816C66.7715 230.926 65.0137 232.215 62.3965 232.215ZM60.0137 225.633H64.5254C64.5254 224.344 63.627 223.426 62.3379 223.426C61.0098 223.426 60.0625 224.412 60.0137 225.633ZM73.8418 232.215C70.5996 232.215 68.6465 229.969 68.6465 226.727C68.6465 223.484 70.6191 221.258 73.8418 221.258C76.5762 221.258 78.4316 222.859 78.5488 225.281H75.834C75.6582 224.227 74.9746 223.504 73.8809 223.504C72.4941 223.504 71.5762 224.676 71.5762 226.688C71.5762 228.738 72.4746 229.91 73.8809 229.91C74.8965 229.91 75.6582 229.285 75.834 228.152H78.5488C78.4121 230.555 76.6543 232.215 73.8418 232.215ZM85.9316 221.395V223.562H83.9395V228.738C83.9395 229.578 84.3496 229.793 84.9355 229.812C85.2285 229.812 85.7363 229.793 86.0879 229.754V232.039C85.7754 232.098 85.2676 232.137 84.5449 232.137C82.4551 232.137 81.0293 231.199 81.0488 229.148V223.562H79.584V221.395H81.0488V218.855H83.9395V221.395H85.9316ZM87.748 232V221.395H90.6387V232H87.748ZM89.1934 220.008C88.3145 220.008 87.6113 219.344 87.6113 218.543C87.6113 217.723 88.3145 217.059 89.1934 217.059C90.0527 217.059 90.7559 217.723 90.7559 218.543C90.7559 219.344 90.0527 220.008 89.1934 220.008ZM102.729 221.395L98.998 232H95.7559L92.0449 221.395H95.0918L97.3184 229.012H97.4355L99.6621 221.395H102.729ZM108.588 232.215C105.346 232.215 103.354 230.105 103.354 226.746C103.354 223.465 105.365 221.258 108.471 221.258C111.264 221.258 113.451 223.016 113.451 226.629V227.449H106.205C106.205 229.051 107.162 230.047 108.646 230.047C109.623 230.047 110.326 229.617 110.619 228.973H113.373C112.963 230.926 111.205 232.215 108.588 232.215ZM106.205 225.633H110.717C110.717 224.344 109.818 223.426 108.529 223.426C107.201 223.426 106.254 224.412 106.205 225.633Z" fill="url(#paint1_linear_469_1540)"/>
<path d="M32.9043 325.285C32.7871 324.172 31.8887 323.508 30.4629 323.508C28.9785 323.508 28.1582 324.191 28.1387 325.129C28.1191 326.145 29.1934 326.613 30.4043 326.887L31.6738 327.199C34.0957 327.746 35.9121 328.977 35.9121 331.34C35.9121 333.938 33.8809 335.578 30.4434 335.578C27.0254 335.578 24.8379 333.996 24.7598 330.969H27.6113C27.709 332.395 28.8418 333.117 30.4043 333.117C31.9473 333.117 32.9434 332.395 32.9434 331.34C32.9434 330.383 32.0645 329.934 30.5215 329.543L28.9785 329.172C26.5957 328.586 25.1309 327.395 25.1309 325.324C25.1309 322.746 27.3965 321.047 30.4824 321.047C33.6074 321.047 35.6777 322.785 35.7168 325.285H32.9043ZM42.5332 335.598C39.291 335.598 37.3379 333.352 37.3379 330.109C37.3379 326.867 39.3105 324.641 42.5332 324.641C45.2676 324.641 47.123 326.242 47.2402 328.664H44.5254C44.3496 327.609 43.666 326.887 42.5723 326.887C41.1855 326.887 40.2676 328.059 40.2676 330.07C40.2676 332.121 41.166 333.293 42.5723 333.293C43.5879 333.293 44.3496 332.668 44.5254 331.535H47.2402C47.1035 333.938 45.3457 335.598 42.5332 335.598ZM53.8027 335.598C50.5996 335.598 48.6074 333.391 48.6074 330.109C48.6074 326.828 50.5996 324.641 53.8027 324.641C57.0059 324.641 59.0176 326.828 59.0176 330.109C59.0176 333.391 57.0059 335.598 53.8027 335.598ZM53.8223 333.352C55.3066 333.352 56.0684 331.965 56.0684 330.109C56.0684 328.234 55.3066 326.848 53.8223 326.848C52.3184 326.848 51.5371 328.234 51.5371 330.109C51.5371 331.965 52.3184 333.352 53.8223 333.352ZM60.834 339.367V324.777H63.6855V326.555H63.8027C64.1934 325.695 65.0527 324.641 66.8301 324.641C69.1738 324.641 71.127 326.457 71.127 330.09C71.127 333.625 69.252 335.559 66.8301 335.559C65.0918 335.559 64.2129 334.562 63.8027 333.684H63.7246V339.367H60.834ZM63.666 330.07C63.666 331.984 64.4863 333.254 65.9121 333.254C67.3965 333.254 68.1777 331.945 68.1777 330.07C68.1777 328.215 67.3965 326.945 65.9121 326.945C64.4668 326.945 63.666 328.156 63.666 330.07ZM77.8066 335.598C74.5645 335.598 72.5723 333.488 72.5723 330.129C72.5723 326.848 74.584 324.641 77.6895 324.641C80.4824 324.641 82.6699 326.398 82.6699 330.012V330.832H75.4238C75.4238 332.434 76.3809 333.43 77.8652 333.43C78.8418 333.43 79.5449 333 79.8379 332.355H82.5918C82.1816 334.309 80.4238 335.598 77.8066 335.598ZM75.4238 329.016H79.9355C79.9355 327.727 79.0371 326.809 77.748 326.809C76.4199 326.809 75.4727 327.795 75.4238 329.016Z" fill="url(#paint2_linear_469_1540)"/>
<path d="M37.2656 255.652V256.667H33.9062V261.621H32.6719V256.667H29.1094V261.621H27.8438V256.667H24.5469V255.652H37.2656ZM30.875 248.292C33.7969 248.292 35.7656 249.464 35.7656 251.324C35.7656 253.167 33.7969 254.339 30.875 254.324C27.9531 254.339 25.9844 253.167 25.9844 251.324C25.9844 249.464 27.9531 248.292 30.875 248.292ZM30.875 249.292C28.7031 249.292 27.2344 250.089 27.25 251.324C27.2344 252.558 28.7031 253.339 30.875 253.339C33.0312 253.339 34.5156 252.558 34.5156 251.324C34.5156 250.089 33.0312 249.292 30.875 249.292ZM43.125 250.73C43.125 252.433 44.5312 253.964 46.5781 254.558L46 255.542C44.3984 255.042 43.1641 254.003 42.5469 252.667C41.9453 254.183 40.6641 255.339 39.0312 255.902L38.4062 254.933C40.4844 254.292 41.9219 252.636 41.9219 250.73V250.449H38.7812V249.433H41.9219V247.667H43.1562V249.433H46.2656V250.449H43.125V250.73ZM49.25 247.73V251.355H51.3438V252.371H49.25V256.261H48.0312V247.73H49.25ZM44.7969 256.605C47.6562 256.605 49.375 257.511 49.375 259.089C49.375 260.683 47.6562 261.574 44.7969 261.574C41.9219 261.574 40.1875 260.683 40.1875 259.089C40.1875 257.511 41.9219 256.605 44.7969 256.605ZM44.7969 257.574C42.6875 257.574 41.4062 258.121 41.4219 259.089C41.4062 260.058 42.6875 260.621 44.7969 260.621C46.9062 260.621 48.1875 260.058 48.1875 259.089C48.1875 258.121 46.9062 257.574 44.7969 257.574ZM62.9688 247.73V253.464H65.2969V254.48H62.9688V261.621H61.75V247.73H62.9688ZM60.4062 249.964V250.98H52.1406V249.964H55.7188V247.902H56.9375V249.964H60.4062ZM56.3438 252.136C58.3125 252.136 59.7344 253.449 59.75 255.324C59.7344 257.199 58.3125 258.511 56.3438 258.511C54.3594 258.511 52.9219 257.199 52.9375 255.324C52.9219 253.449 54.3594 252.136 56.3438 252.136ZM56.3438 253.167C55.0469 253.167 54.0938 254.074 54.1094 255.324C54.0938 256.589 55.0469 257.48 56.3438 257.464C57.625 257.48 58.5625 256.589 58.5781 255.324C58.5625 254.074 57.625 253.167 56.3438 253.167ZM77.9375 247.73V261.621H76.7656V247.73H77.9375ZM75.0156 248.105V260.917H73.8438V254.433H70.9062C70.0547 256.05 68.7188 257.48 66.7812 258.621L66.0625 257.73C69.0859 255.941 70.6016 253.433 70.8281 250.527H66.6562V249.511H72.0469C72.0391 250.878 71.8203 252.199 71.3594 253.433H73.8438V248.105H75.0156ZM95.3438 247.73V255.136H94.1406V247.73H95.3438ZM90.2656 255.73V258.933H86.8594V260.48C88.6562 260.472 89.8047 260.433 91.2344 260.183L91.3594 261.121C89.7812 261.417 88.5469 261.433 86.5156 261.433H85.6719V258.027H89.0781V256.683H85.6562V255.73H90.2656ZM95.3438 255.73V261.511H94.1406V256.746H90.8906V255.73H95.3438ZM87.8281 248.371C89.9062 248.371 91.4219 249.652 91.4219 251.48C91.4219 253.324 89.9062 254.605 87.8281 254.605C85.7188 254.605 84.2188 253.324 84.2188 251.48C84.2188 249.652 85.7188 248.371 87.8281 248.371ZM87.8281 249.402C86.4375 249.386 85.4062 250.261 85.4219 251.48C85.4062 252.714 86.4375 253.589 87.8281 253.589C89.2031 253.589 90.2344 252.714 90.2344 251.48C90.2344 250.261 89.2031 249.386 87.8281 249.402ZM108.859 249.136V250.527C108.844 252.23 108.844 254.136 108.344 256.933L107.094 256.792C107.625 254.136 107.625 252.183 107.625 250.527V250.152H99.0625V249.136H108.859ZM110.375 258.636V259.652H97.7188V258.636H102.688V253.667H103.891V258.636H110.375ZM113.828 259.308L112.609 263.558H111.453L112.312 259.308H113.828ZM131.516 247.73V261.621H130.312V254.433H128.312V260.902H127.156V248.042H128.312V253.386H130.312V247.73H131.516ZM121.578 249.433V256.933C122.961 256.917 124.43 256.824 126.125 256.48L126.281 257.574C124.344 257.917 122.75 258.027 121.219 258.027H120.359V249.433H121.578ZM146.141 254.605V255.621H133.484V254.605H136.625V252.652C135.516 252.222 134.891 251.511 134.891 250.574C134.891 248.933 136.766 247.996 139.812 247.996C142.828 247.996 144.719 248.933 144.719 250.574C144.719 251.503 144.102 252.214 143 252.636V254.605H146.141ZM139.812 256.683C142.797 256.683 144.578 257.542 144.594 259.136C144.578 260.714 142.797 261.589 139.812 261.589C136.797 261.589 135.016 260.714 135.016 259.136C135.016 257.542 136.797 256.683 139.812 256.683ZM139.812 257.621C137.578 257.636 136.25 258.183 136.266 259.136C136.25 260.074 137.578 260.636 139.812 260.636C142.016 260.636 143.359 260.074 143.359 259.136C143.359 258.183 142.016 257.636 139.812 257.621ZM139.812 248.964C137.547 248.964 136.141 249.574 136.156 250.574C136.141 251.589 137.547 252.183 139.812 252.183C142.062 252.183 143.469 251.589 143.469 250.574C143.469 249.574 142.062 248.964 139.812 248.964ZM137.844 254.605H141.781V252.98C141.195 253.082 140.539 253.136 139.812 253.136C139.086 253.136 138.43 253.082 137.844 252.98V254.605ZM153.641 247.98C156.734 247.98 158.547 248.824 158.547 250.371C158.547 251.949 156.734 252.792 153.641 252.808C150.547 252.792 148.719 251.949 148.719 250.371C148.719 248.824 150.547 247.98 153.641 247.98ZM153.641 248.902C151.328 248.902 149.984 249.464 150 250.371C149.984 251.339 151.328 251.871 153.641 251.871C155.938 251.871 157.297 251.339 157.297 250.371C157.297 249.464 155.938 248.902 153.641 248.902ZM159.969 253.746V254.746H147.312V253.746H159.969ZM158.344 255.949V259.058H150.094V260.496H158.766V261.464H148.875V258.152H157.141V256.886H148.844V255.949H158.344ZM177.875 258.808V259.839H165.156V258.808H168.312V255.058C167.125 254.441 166.406 253.441 166.406 252.183C166.406 250.027 168.516 248.621 171.484 248.605C174.453 248.621 176.562 250.027 176.562 252.183C176.562 253.417 175.867 254.41 174.719 255.027V258.808H177.875ZM171.484 249.621C169.203 249.605 167.594 250.636 167.594 252.183C167.594 253.73 169.203 254.777 171.484 254.777C173.75 254.777 175.375 253.73 175.375 252.183C175.375 250.636 173.75 249.605 171.484 249.621ZM169.516 258.808H173.484V255.496C172.883 255.66 172.211 255.746 171.484 255.746C170.773 255.746 170.109 255.667 169.516 255.511V258.808ZM191.906 249.886V250.886H189.844V252.839H191.906V253.886H189.844V255.996H188.625V247.73H189.844V249.886H191.906ZM189.844 256.636V261.621H188.625V257.652H180.75V256.636H189.844ZM182.891 248.574C185 248.558 186.531 249.917 186.547 251.839C186.531 253.792 185 255.136 182.891 255.136C180.781 255.136 179.234 253.792 179.25 251.839C179.234 249.917 180.781 248.558 182.891 248.574ZM182.891 249.621C181.484 249.621 180.438 250.527 180.453 251.839C180.438 253.167 181.484 254.089 182.891 254.074C184.312 254.089 185.344 253.167 185.344 251.839C185.344 250.527 184.312 249.621 182.891 249.621ZM203.562 247.73V253.464H205.891V254.48H203.562V261.621H202.344V247.73H203.562ZM201 249.964V250.98H192.734V249.964H196.312V247.902H197.531V249.964H201ZM196.938 252.136C198.906 252.136 200.328 253.449 200.344 255.324C200.328 257.199 198.906 258.511 196.938 258.511C194.953 258.511 193.516 257.199 193.531 255.324C193.516 253.449 194.953 252.136 196.938 252.136ZM196.938 253.167C195.641 253.167 194.688 254.074 194.703 255.324C194.688 256.589 195.641 257.48 196.938 257.464C198.219 257.48 199.156 256.589 199.172 255.324C199.156 254.074 198.219 253.167 196.938 253.167ZM213.531 249.121V251.074H216.938V247.73H218.156V261.652H216.938V255.917H213.531V258.105H207.203V249.121H213.531ZM208.422 250.089V257.121H212.344V250.089H208.422ZM213.531 254.902H216.938V252.089H213.531V254.902ZM229.188 251.996C229.172 254.23 230.781 256.683 232.797 257.636L232.094 258.605C230.531 257.847 229.211 256.191 228.594 254.308C227.953 256.355 226.555 258.152 225 258.949L224.25 257.98C226.25 257.011 227.969 254.371 227.984 251.996V250.183H224.75V249.167H232.312V250.183H229.188V251.996ZM235.234 247.73V253.355H237.562V254.402H235.234V261.621H234.016V247.73H235.234ZM249.781 247.746V257.933H248.562V247.746H249.781ZM250.219 260.292V261.324H240.812V256.996H242.031V260.292H250.219ZM243.234 249.917C243.219 252.027 244.672 253.933 246.734 254.683L246.094 255.667C244.484 255.05 243.234 253.8 242.625 252.199C242.008 253.902 240.742 255.269 239.125 255.917L238.453 254.964C240.562 254.152 241.984 252.105 241.984 249.917V248.527H243.234V249.917ZM256.688 248.746C258.875 248.746 260.422 250.074 260.422 252.011C260.422 253.949 258.875 255.277 256.688 255.277C254.5 255.277 252.922 253.949 252.938 252.011C252.922 250.074 254.5 248.746 256.688 248.746ZM256.688 249.824C255.203 249.824 254.125 250.714 254.141 252.011C254.125 253.308 255.203 254.199 256.688 254.199C258.156 254.199 259.219 253.308 259.219 252.011C259.219 250.714 258.156 249.824 256.688 249.824ZM263.531 247.73V261.652H262.312V247.73H263.531ZM252.219 257.542C254.781 257.542 258.312 257.527 261.391 257.074L261.484 257.98C258.312 258.574 254.891 258.589 252.391 258.589L252.219 257.542ZM274.125 250.496C274.125 252.027 275.203 253.589 276.984 254.261L276.344 255.199C275.008 254.683 274.047 253.691 273.547 252.496C273.031 253.824 272.039 255.003 270.672 255.589L270 254.636C271.828 253.839 272.953 252.042 272.953 250.496V248.605H274.125V250.496ZM281.781 247.746V256.324H280.609V252.496H278.766V255.886H277.609V248.011H278.766V251.48H280.609V247.746H281.781ZM277.188 256.636C280.062 256.636 281.859 257.542 281.859 259.121C281.859 260.683 280.062 261.589 277.188 261.589C274.297 261.589 272.516 260.683 272.531 259.121C272.516 257.542 274.297 256.636 277.188 256.636ZM277.188 257.574C275.062 257.574 273.734 258.152 273.75 259.121C273.734 260.074 275.062 260.636 277.188 260.636C279.297 260.636 280.625 260.074 280.641 259.121C280.625 258.152 279.297 257.574 277.188 257.574ZM294.672 247.73V251.261H296.766V252.308H294.672V255.886H293.453V247.73H294.672ZM290.859 248.621C290.859 252.136 288.406 254.636 284.297 255.73L283.797 254.777C287.203 253.855 289.305 251.996 289.562 249.636H284.422V248.621H290.859ZM294.672 256.527V261.621H293.453V257.527H285.578V256.527H294.672ZM305.344 249.277V249.996C305.328 251.089 305.328 252.933 304.938 255.511L303.703 255.402C304.078 253.074 304.109 251.386 304.109 250.277H298.281V249.277H305.344ZM301.703 253.246V257.464C303.242 257.41 304.82 257.308 306.266 257.136L306.328 258.058C303.406 258.511 300.141 258.574 297.656 258.558L297.5 257.542C298.414 257.535 299.43 257.527 300.5 257.496V253.246H301.703ZM308.359 247.73V253.542H310.609V254.605H308.359V261.621H307.141V247.73H308.359ZM36.0781 273.746V284.011H34.8438V280.261H31.25C30.6094 281.082 29.5781 281.574 28.3906 281.574C26.3125 281.574 24.7812 280.136 24.7812 278.105C24.7812 276.074 26.3125 274.636 28.3906 274.621C29.5703 274.628 30.5781 275.113 31.2344 275.917H34.8438V273.746H36.0781ZM36.4688 286.292V287.324H27.1562V282.933H28.3906V286.292H36.4688ZM28.3906 275.714C26.9688 275.73 25.9531 276.714 25.9531 278.105C25.9531 279.496 26.9688 280.48 28.3906 280.48C29.75 280.48 30.7969 279.496 30.7969 278.105C30.7969 276.714 29.75 275.73 28.3906 275.714ZM31.7969 276.933C31.9141 277.292 31.9844 277.683 31.9844 278.105C31.9844 278.511 31.9141 278.894 31.7969 279.246H34.8438V276.933H31.7969ZM49.9062 273.73V280.839H48.6719V279.386H44.9688V278.417H48.6719V276.746H45.1719C44.2969 278.941 42.1406 280.417 39.0625 281.152L38.625 280.136C42.0312 279.347 44.0156 277.683 44.25 275.449H39.3281V274.433H45.5938C45.5938 274.894 45.5469 275.339 45.4688 275.761H48.6719V273.73H49.9062ZM49.9062 281.464V284.855H42.1562V286.48H50.375V287.496H40.9375V283.917H48.6719V282.464H40.9062V281.464H49.9062ZM62.9688 273.73V279.464H65.2969V280.48H62.9688V287.621H61.75V273.73H62.9688ZM60.4062 275.964V276.98H52.1406V275.964H55.7188V273.902H56.9375V275.964H60.4062ZM56.3438 278.136C58.3125 278.136 59.7344 279.449 59.75 281.324C59.7344 283.199 58.3125 284.511 56.3438 284.511C54.3594 284.511 52.9219 283.199 52.9375 281.324C52.9219 279.449 54.3594 278.136 56.3438 278.136ZM56.3438 279.167C55.0469 279.167 54.0938 280.074 54.1094 281.324C54.0938 282.589 55.0469 283.48 56.3438 283.464C57.625 283.48 58.5625 282.589 58.5781 281.324C58.5625 280.074 57.625 279.167 56.3438 279.167ZM77.2812 277.949V278.933H67.7656V274.246H68.9844V277.949H77.2812ZM78.75 280.824V281.824H66.0312V280.824H78.75ZM77.3594 286.261V287.277H67.6875V283.246H68.9062V286.261H77.3594ZM95.1094 277.621V278.636H85.625V274.011H86.8438V277.621H95.1094ZM96.5625 280.261V281.277H83.8906V280.261H96.5625ZM90.2188 282.527C93.2031 282.527 94.9844 283.433 95 285.042C94.9844 286.652 93.2031 287.558 90.2188 287.558C87.2188 287.558 85.4219 286.652 85.4219 285.042C85.4219 283.433 87.2188 282.527 90.2188 282.527ZM90.2188 283.496C87.9844 283.511 86.6562 284.058 86.6719 285.042C86.6562 286.011 87.9844 286.605 90.2188 286.605C92.4219 286.605 93.7656 286.011 93.7656 285.042C93.7656 284.058 92.4219 283.511 90.2188 283.496ZM104.312 274.589V278.48H99.5312V280.636C102.141 280.636 103.484 280.597 105.125 280.292L105.25 281.308C103.516 281.589 102.109 281.636 99.2969 281.636H98.3125V277.542H103.094V275.574H98.2812V274.589H104.312ZM109.234 273.746V282.277H108V279.699H105.234V278.683H108V276.808H105.234V275.808H108V273.746H109.234ZM109.234 283.027V287.652H108V284.027H99.875V283.027H109.234ZM117.875 273.98C120.969 273.98 122.781 274.824 122.781 276.371C122.781 277.949 120.969 278.792 117.875 278.808C114.781 278.792 112.953 277.949 112.953 276.371C112.953 274.824 114.781 273.98 117.875 273.98ZM117.875 274.902C115.562 274.902 114.219 275.464 114.234 276.371C114.219 277.339 115.562 277.871 117.875 277.871C120.172 277.871 121.531 277.339 121.531 276.371C121.531 275.464 120.172 274.902 117.875 274.902ZM124.203 279.746V280.746H111.547V279.746H124.203ZM122.578 281.949V285.058H114.328V286.496H123V287.464H113.109V284.152H121.375V282.886H113.078V281.949H122.578ZM140.875 273.73V287.621H139.641V273.73H140.875ZM136.766 275.246C136.75 279.246 134.891 282.777 130.234 285.011L129.562 284.011C133.32 282.23 135.234 279.566 135.516 276.246H130.203V275.246H136.766ZM155.922 280.636V281.621H143.203V280.636H155.922ZM146.141 282.527V283.917H153.078V282.527H154.281V287.433H144.906V282.527H146.141ZM146.141 286.449H153.078V284.871H146.141V286.449ZM154.281 274.074V277.246H146.078V278.558H154.578V279.542H144.859V276.308H153.047V275.011H144.812V274.074H154.281ZM168.5 273.73V287.621H167.281V273.73H168.5ZM159.156 275.105V282.98C161.273 282.972 163.469 282.8 165.797 282.308L165.969 283.355C163.5 283.871 161.297 284.042 159.078 284.042H157.953V275.105H159.156ZM181.625 273.73V279.23H183.953V280.261H181.625V287.652H180.406V273.73H181.625ZM177.969 275.089V276.105H172.703V283.136C175.219 283.136 177 283.019 179.062 282.636L179.219 283.699C177.047 284.089 175.219 284.167 172.578 284.167H171.484V275.089H177.969ZM186.172 286.449C185.625 286.449 185.156 285.996 185.172 285.433C185.156 284.886 185.625 284.433 186.172 284.433C186.719 284.433 187.172 284.886 187.172 285.433C187.172 285.996 186.719 286.449 186.172 286.449Z" fill="black"/>
<path d="M35.9375 362.034C35.0625 362.034 34.3438 361.315 34.3438 360.424C34.3438 359.549 35.0625 358.831 35.9375 358.831C36.8281 358.831 37.5469 359.549 37.5469 360.424C37.5469 361.315 36.8281 362.034 35.9375 362.034ZM59.5469 353.221V354.44C59.5469 355.76 59.5469 357.19 59.1562 359.19H61.2188V360.206H55.4844V366.237H54.25V360.206H48.5625V359.19H57.9062C58.3281 357.19 58.3281 355.729 58.3281 354.44V354.237H50.1562V353.221H59.5469ZM75.0938 359.424V360.44H69.4375V363.284H68.2188V360.44H62.375V359.424H75.0938ZM73.4375 353.002V357.831H64.0312V353.002H73.4375ZM65.2344 353.971V356.846H72.2188V353.971H65.2344ZM73.6719 364.877V365.909H64V361.909H65.2344V364.877H73.6719ZM91.0938 352.315V356.456H93.2031V357.487H91.0938V362.377H89.875V352.315H91.0938ZM87.0781 353.518V354.549H82.1094V358.877C84.8984 358.877 86.4844 358.807 88.3438 358.424L88.5 359.44C86.5469 359.815 84.8906 359.909 81.9688 359.909H80.8906V353.518H87.0781ZM91.7344 364.877V365.909H82.4062V361.362H83.6094V364.877H91.7344ZM98.6406 353.002C100.719 352.987 102.203 354.127 102.203 355.831C102.203 357.518 100.719 358.69 98.6406 358.674C96.5625 358.69 95.0781 357.518 95.0781 355.831C95.0781 354.127 96.5625 352.987 98.6406 353.002ZM98.6406 354.002C97.25 353.987 96.2656 354.752 96.2812 355.831C96.2656 356.924 97.25 357.674 98.6406 357.659C100.047 357.674 101.031 356.924 101.031 355.831C101.031 354.752 100.047 353.987 98.6406 354.002ZM105.516 352.331V366.221H104.312V352.331H105.516ZM94.0312 359.862C96.6406 359.862 100.203 359.815 103.297 359.362L103.375 360.284C102.047 360.526 100.664 360.674 99.3281 360.752V365.784H98.1094V360.831C96.6953 360.893 95.3594 360.901 94.2031 360.909L94.0312 359.862ZM112.438 353.331C114.625 353.331 116.172 354.659 116.172 356.596C116.172 358.534 114.625 359.862 112.438 359.862C110.25 359.862 108.672 358.534 108.688 356.596C108.672 354.659 110.25 353.331 112.438 353.331ZM112.438 354.409C110.953 354.409 109.875 355.299 109.891 356.596C109.875 357.893 110.953 358.784 112.438 358.784C113.906 358.784 114.969 357.893 114.969 356.596C114.969 355.299 113.906 354.409 112.438 354.409ZM119.281 352.315V366.237H118.062V352.315H119.281ZM107.969 362.127C110.531 362.127 114.062 362.112 117.141 361.659L117.234 362.565C114.062 363.159 110.641 363.174 108.141 363.174L107.969 362.127ZM130.438 356.581C130.422 358.815 132.031 361.268 134.047 362.221L133.344 363.19C131.781 362.432 130.461 360.776 129.844 358.893C129.203 360.94 127.805 362.737 126.25 363.534L125.5 362.565C127.5 361.596 129.219 358.956 129.234 356.581V354.768H126V353.752H133.562V354.768H130.438V356.581ZM136.484 352.315V357.94H138.812V358.987H136.484V366.206H135.266V352.315H136.484ZM151.078 352.331V362.596H149.844V358.846H146.25C145.609 359.667 144.578 360.159 143.391 360.159C141.312 360.159 139.781 358.721 139.781 356.69C139.781 354.659 141.312 353.221 143.391 353.206C144.57 353.213 145.578 353.698 146.234 354.502H149.844V352.331H151.078ZM151.469 364.877V365.909H142.156V361.518H143.391V364.877H151.469ZM143.391 354.299C141.969 354.315 140.953 355.299 140.953 356.69C140.953 358.081 141.969 359.065 143.391 359.065C144.75 359.065 145.797 358.081 145.797 356.69C145.797 355.299 144.75 354.315 143.391 354.299ZM146.797 355.518C146.914 355.877 146.984 356.268 146.984 356.69C146.984 357.096 146.914 357.479 146.797 357.831H149.844V355.518H146.797ZM160.312 354.362C160.312 356.737 163.031 358.862 165.453 359.315L164.891 360.346C162.797 359.862 160.586 358.37 159.688 356.315C158.789 358.362 156.586 359.854 154.484 360.346L153.922 359.315C156.328 358.846 159.031 356.752 159.031 354.362V353.299H160.312V354.362ZM166.109 363.299V364.315H153.391V363.299H166.109ZM178.719 352.315V366.237H177.5V358.69H174.797V357.659H177.5V352.315H178.719ZM173.953 353.612V358.471H168.969V361.846C171.359 361.846 173.094 361.776 175.125 361.393L175.219 362.424C173.125 362.799 171.328 362.877 168.812 362.893H167.75V357.456H172.766V354.627H167.703V353.612H173.953ZM193.75 359.377V360.393H188.109V363.237H186.875V360.393H181.031V359.377H193.75ZM192.328 364.862V365.909H182.672V361.846H183.906V364.862H192.328ZM187.375 352.674C190.344 352.69 192.266 353.752 192.266 355.471C192.266 357.19 190.344 358.237 187.375 358.237C184.406 358.237 182.469 357.19 182.469 355.471C182.469 353.752 184.406 352.69 187.375 352.674ZM187.375 353.674C185.219 353.674 183.766 354.362 183.781 355.471C183.766 356.549 185.219 357.237 187.375 357.237C189.531 357.237 190.969 356.549 190.969 355.471C190.969 354.362 189.531 353.674 187.375 353.674ZM211.594 360.237V361.252H208.234V366.206H207V361.252H203.438V366.206H202.172V361.252H198.875V360.237H211.594ZM205.203 352.877C208.125 352.877 210.094 354.049 210.094 355.909C210.094 357.752 208.125 358.924 205.203 358.909C202.281 358.924 200.312 357.752 200.312 355.909C200.312 354.049 202.281 352.877 205.203 352.877ZM205.203 353.877C203.031 353.877 201.562 354.674 201.578 355.909C201.562 357.143 203.031 357.924 205.203 357.924C207.359 357.924 208.844 357.143 208.844 355.909C208.844 354.674 207.359 353.877 205.203 353.877ZM217.453 355.315C217.453 357.018 218.859 358.549 220.906 359.143L220.328 360.127C218.727 359.627 217.492 358.588 216.875 357.252C216.273 358.768 214.992 359.924 213.359 360.487L212.734 359.518C214.812 358.877 216.25 357.221 216.25 355.315V355.034H213.109V354.018H216.25V352.252H217.484V354.018H220.594V355.034H217.453V355.315ZM223.578 352.315V355.94H225.672V356.956H223.578V360.846H222.359V352.315H223.578ZM219.125 361.19C221.984 361.19 223.703 362.096 223.703 363.674C223.703 365.268 221.984 366.159 219.125 366.159C216.25 366.159 214.516 365.268 214.516 363.674C214.516 362.096 216.25 361.19 219.125 361.19ZM219.125 362.159C217.016 362.159 215.734 362.706 215.75 363.674C215.734 364.643 217.016 365.206 219.125 365.206C221.234 365.206 222.516 364.643 222.516 363.674C222.516 362.706 221.234 362.159 219.125 362.159ZM237.406 352.331V356.909H239.5V357.94H237.406V362.737H236.188V352.331H237.406ZM234.859 354.034V355.034H226.578V354.034H230.109V352.331H231.328V354.034H234.859ZM230.719 355.799C232.703 355.799 234.047 356.815 234.062 358.393C234.047 359.956 232.703 360.956 230.719 360.956C228.719 360.956 227.359 359.956 227.375 358.393C227.359 356.815 228.719 355.799 230.719 355.799ZM230.719 356.768C229.406 356.768 228.531 357.409 228.547 358.393C228.531 359.377 229.406 360.002 230.719 359.987C232.016 360.002 232.891 359.377 232.906 358.393C232.891 357.409 232.016 356.768 230.719 356.768ZM238.047 364.877V365.909H228.719V361.909H229.922V364.877H238.047ZM255.844 352.315V359.721H254.641V352.315H255.844ZM250.766 360.315V363.518H247.359V365.065C249.156 365.057 250.305 365.018 251.734 364.768L251.859 365.706C250.281 366.002 249.047 366.018 247.016 366.018H246.172V362.612H249.578V361.268H246.156V360.315H250.766ZM255.844 360.315V366.096H254.641V361.331H251.391V360.315H255.844ZM248.328 352.956C250.406 352.956 251.922 354.237 251.922 356.065C251.922 357.909 250.406 359.19 248.328 359.19C246.219 359.19 244.719 357.909 244.719 356.065C244.719 354.237 246.219 352.956 248.328 352.956ZM248.328 353.987C246.938 353.971 245.906 354.846 245.922 356.065C245.906 357.299 246.938 358.174 248.328 358.174C249.703 358.174 250.734 357.299 250.734 356.065C250.734 354.846 249.703 353.971 248.328 353.987ZM269.703 352.315V366.206H268.469V352.315H269.703ZM265.594 353.831C265.578 357.831 263.719 361.362 259.062 363.596L258.391 362.596C262.148 360.815 264.062 358.151 264.344 354.831H259.031V353.831H265.594ZM35.9375 388.034C35.0625 388.034 34.3438 387.315 34.3438 386.424C34.3438 385.549 35.0625 384.831 35.9375 384.831C36.8281 384.831 37.5469 385.549 37.5469 386.424C37.5469 387.315 36.8281 388.034 35.9375 388.034ZM61.2188 384.815V385.831H55.4844V387.315C58.1094 387.424 59.6562 388.284 59.6719 389.752C59.6562 391.299 57.875 392.174 54.8906 392.174C51.875 392.174 50.0938 391.299 50.0938 389.752C50.0938 388.284 51.6328 387.424 54.2812 387.315V385.831H48.5625V384.815H61.2188ZM54.8906 388.252C52.6562 388.268 51.3281 388.815 51.3438 389.752C51.3281 390.674 52.6562 391.221 54.8906 391.221C57.0938 391.221 58.4375 390.674 58.4375 389.752C58.4375 388.815 57.0938 388.268 54.8906 388.252ZM60.0938 378.971V379.971H55.6875C55.7656 381.534 58.0625 382.745 60.5156 383.002L60.0625 383.971C57.7891 383.698 55.6562 382.682 54.8906 381.127C54.1328 382.682 52.0078 383.698 49.7188 383.971L49.2812 383.002C51.6875 382.745 54 381.534 54.0938 379.971H49.7188V378.971H60.0938ZM73.8594 378.331V386.221H72.6406V378.331H73.8594ZM73.8594 387.018V392.018H64.8281V387.018H73.8594ZM66.0312 388.018V391.018H72.6562V388.018H66.0312ZM67.3125 380.237C67.2969 382.206 68.7969 383.94 70.8438 384.659L70.2188 385.596C68.6094 385.042 67.3281 383.87 66.7031 382.346C66.0859 383.971 64.7891 385.252 63.125 385.862L62.5 384.893C64.6094 384.159 66.0625 382.284 66.0625 380.237V378.877H67.3125V380.237ZM92.0938 378.315V392.206H90.8906V385.018H88.8906V391.487H87.7344V378.627H88.8906V383.971H90.8906V378.315H92.0938ZM82.1562 380.018V387.518C83.5391 387.502 85.0078 387.409 86.7031 387.065L86.8594 388.159C84.9219 388.502 83.3281 388.612 81.7969 388.612H80.9375V380.018H82.1562ZM106.719 385.19V386.206H94.0625V385.19H97.2031V383.237C96.0938 382.807 95.4688 382.096 95.4688 381.159C95.4688 379.518 97.3438 378.581 100.391 378.581C103.406 378.581 105.297 379.518 105.297 381.159C105.297 382.088 104.68 382.799 103.578 383.221V385.19H106.719ZM100.391 387.268C103.375 387.268 105.156 388.127 105.172 389.721C105.156 391.299 103.375 392.174 100.391 392.174C97.375 392.174 95.5938 391.299 95.5938 389.721C95.5938 388.127 97.375 387.268 100.391 387.268ZM100.391 388.206C98.1562 388.221 96.8281 388.768 96.8438 389.721C96.8281 390.659 98.1562 391.221 100.391 391.221C102.594 391.221 103.938 390.659 103.938 389.721C103.938 388.768 102.594 388.221 100.391 388.206ZM100.391 379.549C98.125 379.549 96.7188 380.159 96.7344 381.159C96.7188 382.174 98.125 382.768 100.391 382.768C102.641 382.768 104.047 382.174 104.047 381.159C104.047 380.159 102.641 379.549 100.391 379.549ZM98.4219 385.19H102.359V383.565C101.773 383.667 101.117 383.721 100.391 383.721C99.6641 383.721 99.0078 383.667 98.4219 383.565V385.19ZM123.359 378.315V392.237H122.125V378.315H123.359ZM115.969 379.393C118.031 379.409 119.516 381.284 119.516 384.237C119.516 387.19 118.031 389.065 115.969 389.065C113.891 389.065 112.422 387.19 112.422 384.237C112.422 381.284 113.891 379.409 115.969 379.393ZM115.969 380.487C114.578 380.502 113.609 381.971 113.609 384.237C113.609 386.502 114.578 387.971 115.969 387.971C117.359 387.971 118.328 386.502 118.328 384.237C118.328 381.971 117.359 380.502 115.969 380.487ZM132.672 380.721V381.721H125.703V380.721H128.594V378.737H129.812V380.721H132.672ZM129.188 382.659C130.938 382.659 132.188 383.971 132.203 385.815C132.188 387.674 130.938 389.002 129.188 389.002C127.453 389.002 126.203 387.674 126.203 385.815C126.203 383.971 127.453 382.659 129.188 382.659ZM129.188 383.69C128.094 383.706 127.297 384.596 127.297 385.815C127.297 387.049 128.094 387.94 129.188 387.924C130.297 387.94 131.109 387.049 131.109 385.815C131.109 384.596 130.297 383.706 129.188 383.69ZM137.562 378.315V392.206H136.391V385.19H134.547V391.518H133.391V378.659H134.547V384.174H136.391V378.315H137.562ZM150.828 379.221V384.877H144.312V379.221H150.828ZM145.516 380.221V383.909H149.625V380.221H145.516ZM155.031 378.315V386.299H153.828V378.315H155.031ZM151.266 388.206C151.266 389.565 153.484 390.909 155.875 391.206L155.453 392.159C153.359 391.877 151.453 390.893 150.641 389.596C149.797 390.917 147.844 391.877 145.75 392.159L145.312 391.206C147.703 390.94 150 389.596 150 388.206H145.891V387.252H150.016V385.893H151.234V387.252H155.391V388.206H151.266ZM172.281 378.315V382.549H174.375V383.581H172.281V388.487H171.047V378.315H172.281ZM168.531 379.393C168.531 382.971 165.969 385.627 161.969 386.877L161.438 385.893C164.766 384.854 166.938 382.87 167.203 380.424H162.016V379.393H168.531ZM172.922 390.877V391.909H163.578V387.456H164.797V390.877H172.922ZM186.109 378.315V382.456H188.219V383.487H186.109V388.377H184.891V378.315H186.109ZM182.094 379.518V380.549H177.125V384.877C179.914 384.877 181.5 384.807 183.359 384.424L183.516 385.44C181.562 385.815 179.906 385.909 176.984 385.909H175.906V379.518H182.094ZM186.75 390.877V391.909H177.422V387.362H178.625V390.877H186.75ZM199.938 378.331V382.909H202.031V383.94H199.938V388.737H198.719V378.331H199.938ZM197.391 380.034V381.034H189.109V380.034H192.641V378.331H193.859V380.034H197.391ZM193.25 381.799C195.234 381.799 196.578 382.815 196.594 384.393C196.578 385.956 195.234 386.956 193.25 386.956C191.25 386.956 189.891 385.956 189.906 384.393C189.891 382.815 191.25 381.799 193.25 381.799ZM193.25 382.768C191.938 382.768 191.062 383.409 191.078 384.393C191.062 385.377 191.938 386.002 193.25 385.987C194.547 386.002 195.422 385.377 195.438 384.393C195.422 383.409 194.547 382.768 193.25 382.768ZM200.578 390.877V391.909H191.25V387.909H192.453V390.877H200.578ZM219.641 389.393V390.424H206.922V389.393H210.078V385.643C208.891 385.026 208.172 384.026 208.172 382.768C208.172 380.612 210.281 379.206 213.25 379.19C216.219 379.206 218.328 380.612 218.328 382.768C218.328 384.002 217.633 384.995 216.484 385.612V389.393H219.641ZM213.25 380.206C210.969 380.19 209.359 381.221 209.359 382.768C209.359 384.315 210.969 385.362 213.25 385.362C215.516 385.362 217.141 384.315 217.141 382.768C217.141 381.221 215.516 380.19 213.25 380.206ZM211.281 389.393H215.25V386.081C214.648 386.245 213.977 386.331 213.25 386.331C212.539 386.331 211.875 386.252 211.281 386.096V389.393ZM233.672 380.471V381.471H231.609V383.424H233.672V384.471H231.609V386.581H230.391V378.315H231.609V380.471H233.672ZM231.609 387.221V392.206H230.391V388.237H222.516V387.221H231.609ZM224.656 379.159C226.766 379.143 228.297 380.502 228.312 382.424C228.297 384.377 226.766 385.721 224.656 385.721C222.547 385.721 221 384.377 221.016 382.424C221 380.502 222.547 379.143 224.656 379.159ZM224.656 380.206C223.25 380.206 222.203 381.112 222.219 382.424C222.203 383.752 223.25 384.674 224.656 384.659C226.078 384.674 227.109 383.752 227.109 382.424C227.109 381.112 226.078 380.206 224.656 380.206ZM236.047 387.002C235.5 387.002 235.031 386.549 235.047 385.987C235.031 385.44 235.5 384.987 236.047 384.987C236.594 384.987 237.047 385.44 237.047 385.987C237.047 386.549 236.594 387.002 236.047 387.002ZM251.297 386.721V387.752H245.562V392.237H244.359V387.752H238.641V386.721H251.297ZM245.578 381.065C245.578 382.799 248 384.315 250.484 384.659L250.031 385.643C247.883 385.315 245.859 384.237 244.984 382.721C244.094 384.252 242.039 385.315 239.891 385.643L239.438 384.659C241.906 384.315 244.359 382.815 244.359 381.065V381.049H239.875V380.049H244.359V378.315H245.562V380.049H250.078V381.049H245.578V381.065ZM265.172 386.252V387.268H252.453V386.252H258.203V384.721H254.109V381.299H262.297V379.752H254.062V378.768H263.531V382.206H255.328V383.752H263.828V384.721H259.406V386.252H265.172ZM263.828 391.049V392.065H254.141V388.206H255.375V391.049H263.828ZM35.9375 414.034C35.0625 414.034 34.3438 413.315 34.3438 412.424C34.3438 411.549 35.0625 410.831 35.9375 410.831C36.8281 410.831 37.5469 411.549 37.5469 412.424C37.5469 413.315 36.8281 414.034 35.9375 414.034ZM60.0312 404.315V418.237H58.8125V404.315H60.0312ZM55.8125 405.612V410.549H50.625V413.831C52.9297 413.831 54.9844 413.729 57.4688 413.331L57.5938 414.362C55.0312 414.768 52.9219 414.862 50.5312 414.862H49.375V409.549H54.5781V406.627H49.3438V405.612H55.8125ZM73.8594 404.315V412.877H72.6406V404.315H73.8594ZM69.8281 405.409V406.424H64.4688V410.487C67.4531 410.487 69.1875 410.393 71.2031 409.987L71.3438 411.018C69.25 411.409 67.4688 411.487 64.3906 411.502H63.25V405.409H69.8281ZM69.2188 412.877C72.1094 412.877 73.8906 413.862 73.9062 415.534C73.8906 417.221 72.1094 418.19 69.2188 418.206C66.2969 418.19 64.5312 417.221 64.5312 415.534C64.5312 413.862 66.2969 412.877 69.2188 412.877ZM69.2188 413.862C67.0625 413.862 65.7656 414.487 65.7656 415.534C65.7656 416.581 67.0625 417.206 69.2188 417.206C71.3594 417.206 72.6875 416.581 72.6875 415.534C72.6875 414.487 71.3594 413.862 69.2188 413.862ZM91.0938 404.315V407.784H93.1875V408.815H91.0938V412.596H89.875V404.315H91.0938ZM86.6406 412.768C89.4219 412.768 91.2188 413.815 91.2188 415.487C91.2188 417.174 89.4219 418.19 86.6406 418.206C83.8281 418.19 82.0312 417.174 82.0312 415.487C82.0312 413.815 83.8281 412.768 86.6406 412.768ZM86.6406 413.784C84.5625 413.784 83.2188 414.424 83.2344 415.487C83.2188 416.534 84.5625 417.19 86.6406 417.206C88.6719 417.19 90.0312 416.534 90.0312 415.487C90.0312 414.424 88.6719 413.784 86.6406 413.784ZM82.1406 405.174V410.299C84.1172 410.292 86.1562 410.151 88.4062 409.69L88.5625 410.69C86.2031 411.174 84.1094 411.331 82.0156 411.331H80.9062V405.174H82.1406ZM106.719 411.252V412.252H94.0625V411.252H99.7812V409.565H95.6719V404.877H105.156V405.893H96.8906V408.549H105.281V409.565H101V411.252H106.719ZM105.172 413.612V418.315H103.953V414.612H95.4688V413.612H105.172ZM110.172 415.893L108.953 420.143H107.797L108.656 415.893H110.172ZM127.453 404.315V418.237H126.219V404.315H127.453ZM120.062 405.393C122.125 405.409 123.609 407.284 123.609 410.237C123.609 413.19 122.125 415.065 120.062 415.065C117.984 415.065 116.516 413.19 116.516 410.237C116.516 407.284 117.984 405.409 120.062 405.393ZM120.062 406.487C118.672 406.502 117.703 407.971 117.703 410.237C117.703 412.502 118.672 413.971 120.062 413.971C121.453 413.971 122.422 412.502 122.422 410.237C122.422 407.971 121.453 406.502 120.062 406.487ZM133.547 405.393C135.594 405.409 137.047 407.284 137.062 410.237C137.047 413.19 135.594 415.065 133.547 415.065C131.484 415.065 130.047 413.19 130.047 410.237C130.047 407.284 131.484 405.409 133.547 405.393ZM133.547 406.487C132.172 406.502 131.203 407.971 131.203 410.237C131.203 412.502 132.172 413.971 133.547 413.971C134.938 413.971 135.875 412.502 135.875 410.237C135.875 407.971 134.938 406.502 133.547 406.487ZM142.828 407.815V408.862H140.578V411.956H142.828V412.987H140.578V418.206H139.359V404.315H140.578V407.815H142.828ZM155.141 404.315V418.206H153.906V404.315H155.141ZM151.031 405.831C151.016 409.831 149.156 413.362 144.5 415.596L143.828 414.596C147.586 412.815 149.5 410.151 149.781 406.831H144.469V405.831H151.031ZM174.219 415.393V416.424H161.5V415.393H164.656V411.643C163.469 411.026 162.75 410.026 162.75 408.768C162.75 406.612 164.859 405.206 167.828 405.19C170.797 405.206 172.906 406.612 172.906 408.768C172.906 410.002 172.211 410.995 171.062 411.612V415.393H174.219ZM167.828 406.206C165.547 406.19 163.938 407.221 163.938 408.768C163.938 410.315 165.547 411.362 167.828 411.362C170.094 411.362 171.719 410.315 171.719 408.768C171.719 407.221 170.094 406.19 167.828 406.206ZM165.859 415.393H169.828V412.081C169.227 412.245 168.555 412.331 167.828 412.331C167.117 412.331 166.453 412.252 165.859 412.096V415.393ZM188.25 406.471V407.471H186.188V409.424H188.25V410.471H186.188V412.581H184.969V404.315H186.188V406.471H188.25ZM186.188 413.221V418.206H184.969V414.237H177.094V413.221H186.188ZM179.234 405.159C181.344 405.143 182.875 406.502 182.891 408.424C182.875 410.377 181.344 411.721 179.234 411.721C177.125 411.721 175.578 410.377 175.594 408.424C175.578 406.502 177.125 405.143 179.234 405.159ZM179.234 406.206C177.828 406.206 176.781 407.112 176.797 408.424C176.781 409.752 177.828 410.674 179.234 410.659C180.656 410.674 181.688 409.752 181.688 408.424C181.688 407.112 180.656 406.206 179.234 406.206ZM191.438 415.893L190.219 420.143H189.062L189.922 415.893H191.438ZM200.547 406.956C200.531 407.792 200.844 409.221 201.859 410.143C202.828 409.245 203.141 407.87 203.156 406.956V406.127H202.156V405.112H206.047V406.127H204.328V406.956C204.312 408.096 205.016 409.706 206.578 410.44L205.953 411.331C204.844 410.807 204.148 409.862 203.781 408.846C203.484 409.877 202.914 410.893 201.844 411.471C200.781 410.893 200.211 409.862 199.922 408.831C199.547 409.846 198.852 410.807 197.75 411.331L197.141 410.44C198.672 409.69 199.391 408.049 199.391 406.956V406.127H197.625V405.112H201.547V406.127H200.547V406.956ZM205.109 412.315V414.096H207.312V412.315H208.406V418.049H203.984V412.315H205.109ZM205.109 417.081H207.312V415.034H205.109V417.081ZM208.406 404.315V407.268H210.219V408.315H208.406V411.549H207.188V404.315H208.406ZM203.141 412.44V415.596H199.969V417.112C201.422 417.112 202.305 417.088 203.438 416.846L203.547 417.784C202.266 418.034 201.281 418.049 199.516 418.049H198.797V414.69H201.938V413.377H198.766V412.44H203.141ZM223.75 411.643V412.643H211.094V411.643H223.75ZM222.344 416.877V417.909H212.734V413.862H213.969V416.877H222.344ZM217.422 404.815C220.406 404.799 222.328 405.831 222.328 407.565C222.328 409.299 220.406 410.331 217.422 410.331C214.406 410.331 212.5 409.299 212.5 407.565C212.5 405.831 214.406 404.799 217.422 404.815ZM217.422 405.799C215.188 405.799 213.75 406.471 213.766 407.565C213.75 408.659 215.188 409.331 217.422 409.331C219.641 409.331 221.078 408.659 221.078 407.565C221.078 406.471 219.641 405.799 217.422 405.799ZM239.984 404.924V405.815C239.984 406.76 239.984 407.948 239.672 409.518H241.656V410.502H228.938V409.518H238.438C238.75 407.971 238.766 406.831 238.766 405.924H230.547V404.924H239.984ZM240.031 411.909V415.409H231.703V417.049H240.391V418.049H230.469V414.44H238.812V412.893H230.453V411.909H240.031ZM246.953 407.221C246.953 408.534 247.664 410.237 249.109 411.206C250.516 410.268 251.234 408.596 251.234 407.221V405.44H252.469V407.221C252.453 408.924 253.469 410.69 255.297 411.456L254.609 412.393C253.25 411.784 252.312 410.643 251.844 409.299C251.391 410.651 250.492 411.901 249.094 412.549C247.68 411.893 246.766 410.588 246.328 409.221C245.836 410.557 244.891 411.768 243.562 412.393L242.906 411.456C244.672 410.643 245.719 408.768 245.734 407.221V405.44H246.953V407.221ZM255.469 415.315V416.331H242.766V415.315H255.469ZM268.078 404.315V418.206H266.844V404.315H268.078ZM263.969 405.831C263.953 409.831 262.094 413.362 257.438 415.596L256.766 414.596C260.523 412.815 262.438 410.151 262.719 406.831H257.406V405.831H263.969ZM281.406 405.612C281.406 407.565 283.969 409.268 286.469 409.612L285.969 410.612C283.812 410.252 281.68 409.057 280.781 407.346C279.891 409.065 277.75 410.252 275.594 410.612L275.094 409.612C277.594 409.268 280.141 407.596 280.141 405.612V404.815H281.406V405.612ZM287.094 412.143V413.174H281.344V418.206H280.141V413.174H274.438V412.143H287.094ZM300.062 404.315V413.112H298.891V409.127H297.031V412.612H295.875V404.596H297.031V408.112H298.891V404.315H300.062ZM295.312 405.987V406.971H288.188V405.987H291.156V404.424H292.375V405.987H295.312ZM291.766 407.721C293.531 407.721 294.734 408.643 294.75 410.096C294.734 411.518 293.531 412.456 291.766 412.456C290.016 412.456 288.781 411.518 288.797 410.096C288.781 408.643 290.016 407.721 291.766 407.721ZM291.766 408.627C290.656 408.627 289.891 409.221 289.891 410.096C289.891 410.956 290.656 411.534 291.766 411.534C292.875 411.534 293.641 410.956 293.641 410.096C293.641 409.221 292.875 408.627 291.766 408.627ZM295.469 413.346C298.391 413.346 300.141 414.221 300.141 415.784C300.141 417.299 298.391 418.174 295.469 418.174C292.547 418.174 290.797 417.299 290.812 415.784C290.797 414.221 292.547 413.346 295.469 413.346ZM295.469 414.315C293.312 414.299 292.016 414.831 292.031 415.784C292.016 416.69 293.312 417.221 295.469 417.221C297.625 417.221 298.906 416.69 298.922 415.784C298.906 414.831 297.625 414.299 295.469 414.315Z" fill="black"/>
<path d="M25.1914 127.486V113.345H30.7383C33.9609 113.345 35.7969 115.318 35.7969 118.111C35.7969 120.943 33.9219 122.876 30.6602 122.876H28.1211V127.486H25.1914ZM28.1211 120.513H30.1914C31.9297 120.513 32.7695 119.537 32.7695 118.111C32.7695 116.705 31.9297 115.748 30.1914 115.748H28.1211V120.513ZM40.4844 121.353V127.486H37.5938V113.345H40.4062V118.736H40.5234C41.0117 117.505 42.0859 116.744 43.6875 116.744C45.8945 116.744 47.3594 118.228 47.3594 120.728V127.486H44.4688V121.236C44.4688 119.927 43.7656 119.146 42.5547 119.146C41.3438 119.146 40.4844 119.947 40.4844 121.353ZM49.0781 124.517C49.0781 122.154 50.9922 121.373 53.0234 121.255C53.7852 121.207 55.2109 121.138 55.6602 121.119V120.259C55.6406 119.38 55.0352 118.853 53.9609 118.853C52.9844 118.853 52.3594 119.302 52.2031 120.025H49.4492C49.625 118.189 51.2266 116.744 54.0391 116.744C56.3438 116.744 58.5312 117.779 58.5312 120.337V127.486H55.7969V126.021H55.7188C55.1914 126.998 54.1953 127.681 52.6133 127.681C50.582 127.681 49.0781 126.626 49.0781 124.517ZM51.8516 124.439C51.8516 125.259 52.5156 125.689 53.4336 125.689C54.7422 125.689 55.6797 124.81 55.6602 123.697V122.916C55.2207 122.935 53.9902 123.003 53.4922 123.052C52.4961 123.15 51.8516 123.619 51.8516 124.439ZM66.793 120.025C66.6758 119.283 66.0117 118.794 65.0547 118.794C64.1172 118.794 63.3945 119.244 63.4141 119.888C63.3945 120.357 63.7852 120.728 64.7812 120.943L66.6758 121.333C68.7266 121.763 69.7227 122.681 69.7422 124.205C69.7227 126.294 67.8477 127.701 65.0352 127.701C62.1641 127.701 60.4844 126.412 60.25 124.341H63.1602C63.2969 125.181 63.9805 125.611 65.0352 125.611C66.0898 125.611 66.793 125.181 66.793 124.498C66.793 123.951 66.3438 123.619 65.3477 123.404L63.5898 123.052C61.5781 122.662 60.5234 121.607 60.543 120.044C60.5234 118.013 62.2812 116.744 65.0156 116.744C67.6914 116.744 69.3516 118.013 69.5078 120.025H66.793ZM76.3242 127.701C73.082 127.701 71.0898 125.591 71.0898 122.232C71.0898 118.951 73.1016 116.744 76.207 116.744C79 116.744 81.1875 118.501 81.1875 122.115V122.935H73.9414C73.9414 124.537 74.8984 125.533 76.3828 125.533C77.3594 125.533 78.0625 125.103 78.3555 124.458H81.1094C80.6992 126.412 78.9414 127.701 76.3242 127.701ZM73.9414 121.119H78.4531C78.4531 119.83 77.5547 118.912 76.2656 118.912C74.9375 118.912 73.9902 119.898 73.9414 121.119Z" fill="white"/>
<path d="M25.25 149.638V138.326H32.0625V139.576H26.6562V143.357H31.5469V144.591H26.6562V149.638H25.25ZM35.3281 138.326V149.638H33.9844V138.326H35.3281ZM42.8281 146.154V141.154H44.1562V149.638H42.8281V148.201H42.7344C42.3281 149.06 41.5 149.748 40.2188 149.748C38.6094 149.748 37.4688 148.701 37.4688 146.544V141.154H38.8125V146.451C38.8125 147.669 39.5781 148.451 40.6562 148.451C41.6094 148.451 42.8281 147.732 42.8281 146.154ZM49.875 149.81C47.4219 149.81 45.9062 148.076 45.9062 145.466C45.9062 142.857 47.4375 141.044 49.75 141.044C51.5312 141.044 53.4062 142.138 53.4062 145.279V145.841H47.25C47.3125 147.638 48.3594 148.623 49.875 148.623C50.8906 148.623 51.5312 148.185 51.8438 147.654H53.2812C52.875 148.935 51.625 149.81 49.875 149.81ZM47.2656 144.701H52.0469C52.0469 143.279 51.1406 142.232 49.75 142.232C48.2812 142.232 47.3438 143.388 47.2656 144.701ZM56.5 144.544V149.638H55.1562V141.154H56.4531V142.482H56.5625C56.9688 141.623 57.75 141.044 59.0469 141.044C60.7656 141.044 61.9062 142.091 61.9062 144.248V149.638H60.5625V144.341C60.5625 143.029 59.8438 142.248 58.6406 142.248C57.4062 142.248 56.5 143.076 56.5 144.544ZM67.5312 149.81C65.125 149.81 63.6562 147.982 63.6562 145.435C63.6562 142.857 65.1875 141.044 67.5 141.044C69.3125 141.044 70.6562 142.107 70.875 143.716H69.5312C69.3438 142.935 68.6562 142.232 67.5312 142.232C66.0156 142.232 65 143.482 65 145.388C65 147.357 65.9844 148.607 67.5312 148.607C68.5312 148.607 69.2969 148.076 69.5312 147.138H70.875C70.6562 148.654 69.4219 149.81 67.5312 149.81ZM73.3906 152.826C73.0938 152.826 72.8125 152.81 72.6406 152.794V151.591C72.7812 151.607 73.0938 151.623 73.2969 151.623C73.8438 151.623 74.2969 151.576 74.75 150.341L75 149.701L71.8594 141.154H73.3281L75.6406 147.888H75.7344L78.0469 141.154H79.5156L75.9219 150.857C75.4219 152.185 74.5938 152.826 73.3906 152.826ZM82.2344 148.591L81.0156 152.841H79.8594L80.7188 148.591H82.2344ZM32.9688 167.888C32.6406 166.326 31.2969 165.482 29.8125 165.482C27.7656 165.482 26.1719 167.06 26.1719 169.982C26.1719 172.904 27.7656 174.482 29.8125 174.482C31.2969 174.482 32.625 173.638 32.9688 172.091H34.375C33.9688 174.404 32.1094 175.794 29.8125 175.794C26.9062 175.794 24.8125 173.56 24.8125 169.982C24.8125 166.404 26.9062 164.169 29.8125 164.169C32.0938 164.169 33.9531 165.544 34.375 167.888H32.9688ZM39.6406 175.81C37.3281 175.81 35.7656 174.076 35.7656 171.435C35.7656 168.794 37.3281 167.044 39.6406 167.044C41.9375 167.044 43.4844 168.794 43.4844 171.435C43.4844 174.076 41.9375 175.81 39.6406 175.81ZM39.6406 174.623C41.3438 174.623 42.1406 173.123 42.1406 171.435C42.1406 169.748 41.3438 168.232 39.6406 168.232C37.9062 168.232 37.1094 169.748 37.1094 171.435C37.1094 173.123 37.9062 174.623 39.6406 174.623ZM45.25 175.638V167.154H46.5469V168.482H46.6562C47.0156 167.576 47.8281 167.044 48.9375 167.044C50.0469 167.044 50.7969 167.576 51.2031 168.482H51.2969C51.7344 167.607 52.625 167.044 53.8438 167.044C55.3594 167.044 56.4375 167.966 56.4375 169.966V175.638H55.0938V169.982C55.0938 168.732 54.2969 168.248 53.375 168.248C52.1875 168.248 51.5156 169.044 51.5156 170.123V175.638H50.1562V169.841C50.1562 168.888 49.4688 168.248 48.5 168.248C47.4844 168.248 46.5938 169.107 46.5938 170.341V175.638H45.25ZM58.5938 178.826V167.154H59.8906V168.498H60.0469C60.3281 168.044 60.8594 167.044 62.5 167.044C64.625 167.044 66.1094 168.732 66.1094 171.419C66.1094 174.107 64.625 175.81 62.5156 175.81C60.8906 175.81 60.3281 174.81 60.0469 174.341H59.9375V178.826H58.5938ZM59.9062 171.388C59.9062 173.294 60.7656 174.607 62.3281 174.607C63.9375 174.607 64.7656 173.201 64.7656 171.388C64.7656 169.623 63.9531 168.248 62.3281 168.248C60.7344 168.248 59.9062 169.513 59.9062 171.388ZM67.8594 175.638V167.154H69.1562V168.451H69.25C69.5625 167.591 70.4375 167.013 71.4375 167.013C71.6406 167.013 71.9844 167.029 72.1406 167.044V168.404C72.0469 168.373 71.6719 168.31 71.3281 168.31C70.1094 168.31 69.2031 169.154 69.2031 170.294V175.638H67.8594ZM76.7344 175.81C74.2812 175.81 72.7656 174.076 72.7656 171.466C72.7656 168.857 74.2969 167.044 76.6094 167.044C78.3906 167.044 80.2656 168.138 80.2656 171.279V171.841H74.1094C74.1719 173.638 75.2188 174.623 76.7344 174.623C77.75 174.623 78.3906 174.185 78.7031 173.654H80.1406C79.7344 174.935 78.4844 175.81 76.7344 175.81ZM74.125 170.701H78.9062C78.9062 169.279 78 168.232 76.6094 168.232C75.1406 168.232 74.2031 169.388 74.125 170.701ZM83.3594 170.544V175.638H82.0156V164.326H83.3594V168.482H83.4688C83.8594 167.607 84.625 167.044 85.9688 167.044C87.7031 167.044 88.8594 168.076 88.8594 170.248V175.638H87.5156V170.341C87.5156 169.013 86.7812 168.248 85.5625 168.248C84.2969 168.248 83.3594 169.076 83.3594 170.544ZM94.5781 175.81C92.125 175.81 90.6094 174.076 90.6094 171.466C90.6094 168.857 92.1406 167.044 94.4531 167.044C96.2344 167.044 98.1094 168.138 98.1094 171.279V171.841H91.9531C92.0156 173.638 93.0625 174.623 94.5781 174.623C95.5938 174.623 96.2344 174.185 96.5469 173.654H97.9844C97.5781 174.935 96.3281 175.81 94.5781 175.81ZM91.9688 170.701H96.75C96.75 169.279 95.8438 168.232 94.4531 168.232C92.9844 168.232 92.0469 169.388 91.9688 170.701ZM101.203 170.544V175.638H99.8594V167.154H101.156V168.482H101.266C101.672 167.623 102.453 167.044 103.75 167.044C105.469 167.044 106.609 168.091 106.609 170.248V175.638H105.266V170.341C105.266 169.029 104.547 168.248 103.344 168.248C102.109 168.248 101.203 169.076 101.203 170.544ZM113.484 169.357C113.297 168.654 112.766 168.185 111.766 168.185C110.719 168.185 109.969 168.748 109.969 169.466C109.969 170.029 110.422 170.419 111.422 170.654L112.688 170.966C114.203 171.326 114.953 172.076 114.953 173.263C114.953 174.732 113.75 175.81 111.625 175.81C109.719 175.81 108.578 174.966 108.359 173.419H109.766C109.922 174.248 110.531 174.638 111.594 174.638C112.797 174.638 113.562 174.138 113.562 173.341C113.562 172.748 113.141 172.341 112.172 172.123L110.891 171.826C109.406 171.482 108.625 170.669 108.625 169.544C108.625 168.091 109.891 167.044 111.766 167.044C113.516 167.044 114.625 167.982 114.797 169.357H113.484ZM116.703 175.638V167.154H118.047V175.638H116.703ZM117.375 165.748C116.859 165.748 116.438 165.357 116.438 164.857C116.438 164.357 116.859 163.966 117.375 163.966C117.891 163.966 118.328 164.357 118.328 164.857C118.328 165.357 117.891 165.748 117.375 165.748ZM123.656 175.81C121.344 175.81 119.781 174.076 119.781 171.435C119.781 168.794 121.344 167.044 123.656 167.044C125.953 167.044 127.5 168.794 127.5 171.435C127.5 174.076 125.953 175.81 123.656 175.81ZM123.656 174.623C125.359 174.623 126.156 173.123 126.156 171.435C126.156 169.748 125.359 168.232 123.656 168.232C121.922 168.232 121.125 169.748 121.125 171.435C121.125 173.123 121.922 174.623 123.656 174.623ZM130.609 170.544V175.638H129.266V167.154H130.562V168.482H130.672C131.078 167.623 131.859 167.044 133.156 167.044C134.875 167.044 136.016 168.091 136.016 170.248V175.638H134.672V170.341C134.672 169.029 133.953 168.248 132.75 168.248C131.516 168.248 130.609 169.076 130.609 170.544Z" fill="white"/>
<path d="M178.656 138.223V149.535H177.25V138.223H178.656ZM182.328 144.441V149.535H180.984V141.051H182.281V142.379H182.391C182.797 141.52 183.578 140.941 184.875 140.941C186.594 140.941 187.734 141.988 187.734 144.145V149.535H186.391V144.238C186.391 142.926 185.672 142.145 184.469 142.145C183.234 142.145 182.328 142.973 182.328 144.441ZM193.094 149.707C190.984 149.707 189.484 148.004 189.484 145.316C189.484 142.629 190.984 140.941 193.109 140.941C194.75 140.941 195.281 141.941 195.562 142.395H195.656V138.223H197.016V149.535H195.703V148.238H195.562C195.266 148.707 194.719 149.707 193.094 149.707ZM193.281 148.504C194.828 148.504 195.703 147.191 195.703 145.285C195.703 143.41 194.859 142.145 193.281 142.145C191.656 142.145 190.844 143.52 190.844 145.285C190.844 147.098 191.672 148.504 193.281 148.504ZM202.906 149.707C200.453 149.707 198.938 147.973 198.938 145.363C198.938 142.754 200.469 140.941 202.781 140.941C204.562 140.941 206.438 142.035 206.438 145.176V145.738H200.281C200.344 147.535 201.391 148.52 202.906 148.52C203.922 148.52 204.562 148.082 204.875 147.551H206.312C205.906 148.832 204.656 149.707 202.906 149.707ZM200.297 144.598H205.078C205.078 143.176 204.172 142.129 202.781 142.129C201.312 142.129 200.375 143.285 200.297 144.598ZM208.188 152.723V141.051H209.484V142.395H209.641C209.922 141.941 210.453 140.941 212.094 140.941C214.219 140.941 215.703 142.629 215.703 145.316C215.703 148.004 214.219 149.707 212.109 149.707C210.484 149.707 209.922 148.707 209.641 148.238H209.531V152.723H208.188ZM209.5 145.285C209.5 147.191 210.359 148.504 211.922 148.504C213.531 148.504 214.359 147.098 214.359 145.285C214.359 143.52 213.547 142.145 211.922 142.145C210.328 142.145 209.5 143.41 209.5 145.285ZM221.016 149.707C218.562 149.707 217.047 147.973 217.047 145.363C217.047 142.754 218.578 140.941 220.891 140.941C222.672 140.941 224.547 142.035 224.547 145.176V145.738H218.391C218.453 147.535 219.5 148.52 221.016 148.52C222.031 148.52 222.672 148.082 222.984 147.551H224.422C224.016 148.832 222.766 149.707 221.016 149.707ZM218.406 144.598H223.188C223.188 143.176 222.281 142.129 220.891 142.129C219.422 142.129 218.484 143.285 218.406 144.598ZM227.641 144.441V149.535H226.297V141.051H227.594V142.379H227.703C228.109 141.52 228.891 140.941 230.188 140.941C231.906 140.941 233.047 141.988 233.047 144.145V149.535H231.703V144.238C231.703 142.926 230.984 142.145 229.781 142.145C228.547 142.145 227.641 142.973 227.641 144.441ZM238.406 149.707C236.297 149.707 234.797 148.004 234.797 145.316C234.797 142.629 236.297 140.941 238.422 140.941C240.062 140.941 240.594 141.941 240.875 142.395H240.969V138.223H242.328V149.535H241.016V148.238H240.875C240.578 148.707 240.031 149.707 238.406 149.707ZM238.594 148.504C240.141 148.504 241.016 147.191 241.016 145.285C241.016 143.41 240.172 142.145 238.594 142.145C236.969 142.145 236.156 143.52 236.156 145.285C236.156 147.098 236.984 148.504 238.594 148.504ZM248.219 149.707C245.766 149.707 244.25 147.973 244.25 145.363C244.25 142.754 245.781 140.941 248.094 140.941C249.875 140.941 251.75 142.035 251.75 145.176V145.738H245.594C245.656 147.535 246.703 148.52 248.219 148.52C249.234 148.52 249.875 148.082 250.188 147.551H251.625C251.219 148.832 249.969 149.707 248.219 149.707ZM245.609 144.598H250.391C250.391 143.176 249.484 142.129 248.094 142.129C246.625 142.129 245.688 143.285 245.609 144.598ZM254.844 144.441V149.535H253.5V141.051H254.797V142.379H254.906C255.312 141.52 256.094 140.941 257.391 140.941C259.109 140.941 260.25 141.988 260.25 144.145V149.535H258.906V144.238C258.906 142.926 258.188 142.145 256.984 142.145C255.75 142.145 254.844 142.973 254.844 144.441ZM266.109 141.051V142.176H264.328V147.098C264.328 148.191 264.859 148.363 265.438 148.363C265.688 148.363 266.031 148.348 266.234 148.332V149.582C266.031 149.613 265.688 149.645 265.297 149.645C264.172 149.645 262.969 148.941 262.969 147.441V142.176H261.688V141.051H262.969V139.02H264.328V141.051H266.109ZM269.609 148.488L268.391 152.738H267.234L268.094 148.488H269.609ZM177.25 175.535V164.223H181.094C183.75 164.223 184.953 165.691 184.953 167.707C184.953 169.199 184.281 170.379 182.844 170.879L185.391 175.535H183.75L181.391 171.129L181.109 171.145H178.656V175.535H177.25ZM178.656 169.863H181.047C182.844 169.863 183.562 169.051 183.562 167.707C183.562 166.348 182.844 165.473 181.031 165.473H178.656V169.863ZM190.281 175.707C187.828 175.707 186.312 173.973 186.312 171.363C186.312 168.754 187.844 166.941 190.156 166.941C191.938 166.941 193.812 168.035 193.812 171.176V171.738H187.656C187.719 173.535 188.766 174.52 190.281 174.52C191.297 174.52 191.938 174.082 192.25 173.551H193.688C193.281 174.832 192.031 175.707 190.281 175.707ZM187.672 170.598H192.453C192.453 169.176 191.547 168.129 190.156 168.129C188.688 168.129 187.75 169.285 187.672 170.598ZM199.359 167.051V168.176H197.484V175.535H196.125V168.176H194.766V167.051H196.125V165.895C196.125 164.52 197.047 163.691 198.547 163.691C198.875 163.691 199.266 163.738 199.547 163.785V164.988C199.266 164.941 199.016 164.926 198.844 164.926C197.906 164.926 197.484 165.316 197.484 166.191V167.051H199.359ZM202.297 164.223V175.535H200.953V164.223H202.297ZM208 175.707C205.547 175.707 204.031 173.973 204.031 171.363C204.031 168.754 205.562 166.941 207.875 166.941C209.656 166.941 211.531 168.035 211.531 171.176V171.738H205.375C205.438 173.535 206.484 174.52 208 174.52C209.016 174.52 209.656 174.082 209.969 173.551H211.406C211 174.832 209.75 175.707 208 175.707ZM205.391 170.598H210.172C210.172 169.176 209.266 168.129 207.875 168.129C206.406 168.129 205.469 169.285 205.391 170.598ZM216.75 175.707C214.344 175.707 212.875 173.879 212.875 171.332C212.875 168.754 214.406 166.941 216.719 166.941C218.531 166.941 219.875 168.004 220.094 169.613H218.75C218.562 168.832 217.875 168.129 216.75 168.129C215.234 168.129 214.219 169.379 214.219 171.285C214.219 173.254 215.203 174.504 216.75 174.504C217.75 174.504 218.516 173.973 218.75 173.035H220.094C219.875 174.551 218.641 175.707 216.75 175.707ZM225.453 167.051V168.176H223.672V173.098C223.672 174.191 224.203 174.363 224.781 174.363C225.031 174.363 225.375 174.348 225.578 174.332V175.582C225.375 175.613 225.031 175.645 224.641 175.645C223.516 175.645 222.312 174.941 222.312 173.441V168.176H221.031V167.051H222.312V165.02H223.672V167.051H225.453ZM227.188 175.535V167.051H228.531V175.535H227.188ZM227.859 165.645C227.344 165.645 226.922 165.254 226.922 164.754C226.922 164.254 227.344 163.863 227.859 163.863C228.375 163.863 228.812 164.254 228.812 164.754C228.812 165.254 228.375 165.645 227.859 165.645ZM237.656 167.051L234.516 175.535H233.125L230 167.051H231.469L233.781 173.785H233.875L236.188 167.051H237.656ZM242.391 175.707C239.938 175.707 238.422 173.973 238.422 171.363C238.422 168.754 239.953 166.941 242.266 166.941C244.047 166.941 245.922 168.035 245.922 171.176V171.738H239.766C239.828 173.535 240.875 174.52 242.391 174.52C243.406 174.52 244.047 174.082 244.359 173.551H245.797C245.391 174.832 244.141 175.707 242.391 175.707ZM239.781 170.598H244.562C244.562 169.176 243.656 168.129 242.266 168.129C240.797 168.129 239.859 169.285 239.781 170.598Z" fill="white"/>
<path d="M176.812 127.28V113.139H182.359C185.582 113.139 187.418 114.956 187.418 117.749C187.418 119.682 186.529 121.088 184.918 121.772L187.926 127.28H184.684L181.988 122.26H179.742V127.28H176.812ZM179.742 119.877H181.812C183.551 119.877 184.391 119.155 184.391 117.749C184.391 116.323 183.551 115.542 181.812 115.542H179.742V119.877ZM194.02 127.495C190.777 127.495 188.785 125.385 188.785 122.026C188.785 118.745 190.797 116.538 193.902 116.538C196.695 116.538 198.883 118.295 198.883 121.909V122.729H191.637C191.637 124.331 192.594 125.327 194.078 125.327C195.055 125.327 195.758 124.897 196.051 124.252H198.805C198.395 126.206 196.637 127.495 194.02 127.495ZM191.637 120.913H196.148C196.148 119.624 195.25 118.706 193.961 118.706C192.633 118.706 191.686 119.692 191.637 120.913ZM200.191 124.311C200.191 121.948 202.105 121.167 204.137 121.049C204.898 121 206.324 120.932 206.773 120.913V120.053C206.754 119.174 206.148 118.647 205.074 118.647C204.098 118.647 203.473 119.096 203.316 119.819H200.562C200.738 117.983 202.34 116.538 205.152 116.538C207.457 116.538 209.645 117.573 209.645 120.131V127.28H206.91V125.815H206.832C206.305 126.792 205.309 127.475 203.727 127.475C201.695 127.475 200.191 126.42 200.191 124.311ZM202.965 124.233C202.965 125.053 203.629 125.483 204.547 125.483C205.855 125.483 206.793 124.604 206.773 123.491V122.709C206.334 122.729 205.104 122.797 204.605 122.846C203.609 122.944 202.965 123.413 202.965 124.233ZM215.758 127.456C213.336 127.456 211.441 125.522 211.441 121.987C211.441 118.354 213.414 116.538 215.758 116.538C217.535 116.538 218.375 117.592 218.766 118.452H218.863V113.139H221.754V127.28H218.902V125.581H218.766C218.355 126.459 217.477 127.456 215.758 127.456ZM216.656 125.151C218.102 125.151 218.922 123.881 218.922 121.967C218.922 120.053 218.102 118.842 216.656 118.842C215.191 118.842 214.41 120.112 214.41 121.967C214.41 123.842 215.191 125.151 216.656 125.151ZM228.883 127.495C225.641 127.495 223.648 125.385 223.648 122.026C223.648 118.745 225.66 116.538 228.766 116.538C231.559 116.538 233.746 118.295 233.746 121.909V122.729H226.5C226.5 124.331 227.457 125.327 228.941 125.327C229.918 125.327 230.621 124.897 230.914 124.252H233.668C233.258 126.206 231.5 127.495 228.883 127.495ZM226.5 120.913H231.012C231.012 119.624 230.113 118.706 228.824 118.706C227.496 118.706 226.549 119.692 226.5 120.913ZM235.562 127.28V116.674H238.355V118.51H238.473C238.863 117.202 239.84 116.518 241.031 116.518C241.324 116.518 241.695 116.557 241.949 116.616V119.194C241.676 119.116 241.129 119.038 240.719 119.038C239.41 119.038 238.453 119.956 238.453 121.245V127.28H235.562ZM250.953 113.139V127.28H248.023V113.139H250.953ZM257.184 127.456C254.762 127.456 252.867 125.522 252.867 121.987C252.867 118.354 254.84 116.538 257.184 116.538C258.961 116.538 259.801 117.592 260.191 118.452H260.289V113.139H263.18V127.28H260.328V125.581H260.191C259.781 126.459 258.902 127.456 257.184 127.456ZM258.082 125.151C259.527 125.151 260.348 123.881 260.348 121.967C260.348 120.053 259.527 118.842 258.082 118.842C256.617 118.842 255.836 120.112 255.836 121.967C255.836 123.842 256.617 125.151 258.082 125.151ZM270.309 127.495C267.066 127.495 265.074 125.385 265.074 122.026C265.074 118.745 267.086 116.538 270.191 116.538C272.984 116.538 275.172 118.295 275.172 121.909V122.729H267.926C267.926 124.331 268.883 125.327 270.367 125.327C271.344 125.327 272.047 124.897 272.34 124.252H275.094C274.684 126.206 272.926 127.495 270.309 127.495ZM267.926 120.913H272.438C272.438 119.624 271.539 118.706 270.25 118.706C268.922 118.706 267.975 119.692 267.926 120.913ZM279.879 121.147V127.28H276.988V116.674H279.742V118.53H279.859C280.348 117.299 281.48 116.538 283.043 116.538C285.25 116.538 286.715 118.042 286.695 120.522V127.28H283.824V121.03C283.824 119.721 283.102 118.94 281.91 118.94C280.699 118.94 279.879 119.741 279.879 121.147ZM294.527 116.674V118.842H292.535V124.018C292.535 124.858 292.945 125.073 293.531 125.092C293.824 125.092 294.332 125.073 294.684 125.034V127.319C294.371 127.377 293.863 127.417 293.141 127.417C291.051 127.417 289.625 126.479 289.645 124.428V118.842H288.18V116.674H289.645V114.135H292.535V116.674H294.527ZM296.344 127.28V116.674H299.234V127.28H296.344ZM297.789 115.288C296.91 115.288 296.207 114.624 296.207 113.823C296.207 113.002 296.91 112.338 297.789 112.338C298.648 112.338 299.352 113.002 299.352 113.823C299.352 114.624 298.648 115.288 297.789 115.288ZM307.066 116.674V118.842H305.074V124.018C305.074 124.858 305.484 125.073 306.07 125.092C306.363 125.092 306.871 125.073 307.223 125.034V127.319C306.91 127.377 306.402 127.417 305.68 127.417C303.59 127.417 302.164 126.479 302.184 124.428V118.842H300.719V116.674H302.184V114.135H305.074V116.674H307.066ZM310.582 131.264C310.016 131.264 309.488 131.245 309.117 131.206V128.959C309.488 128.979 309.918 128.999 310.289 128.999C310.855 128.999 311.324 128.94 311.676 128.022L311.852 127.573L308.043 116.674H311.07L313.297 124.487H313.414L315.66 116.674H318.727L314.586 128.452C313.98 130.151 312.828 131.264 310.582 131.264Z" fill="white"/>
<defs>
<linearGradient id="paint0_linear_469_1540" x1="15.9074" y1="27.668" x2="356.196" y2="441.547" gradientUnits="userSpaceOnUse">
<stop stop-color="#3182F6"/>
<stop offset="1" stop-color="#004DBC"/>
</linearGradient>
<linearGradient id="paint1_linear_469_1540" x1="16.2514" y1="241.457" x2="122.332" y2="241.457" gradientUnits="userSpaceOnUse">
<stop stop-color="#3182F6"/>
<stop offset="1" stop-color="#A009FF"/>
</linearGradient>
<linearGradient id="paint2_linear_469_1540" x1="18.8943" y1="344.84" x2="88.9657" y2="344.84" gradientUnits="userSpaceOnUse">
<stop stop-color="#3182F6"/>
<stop offset="1" stop-color="#A009FF"/>
</linearGradient>
</defs>
</svg>
