<svg width="765" height="188" viewBox="0 0 765 188" fill="none" xmlns="http://www.w3.org/2000/svg">
<rect x="2" y="2" width="761" height="184" rx="13" fill="white" stroke="url(#paint0_linear_469_1759)" stroke-width="4"/>
<path d="M234.922 66.3672C233.828 66.3672 232.93 65.4688 232.93 64.3555C232.93 63.2617 233.828 62.3633 234.922 62.3633C236.035 62.3633 236.934 63.2617 236.934 64.3555C236.934 65.4688 236.035 66.3672 234.922 66.3672ZM265.02 54.2383V67.4219H263.477V65.625H259.883V64.5117H263.477V54.2383H265.02ZM265.449 69.9219V71.2109H253.105V66.1328H254.648V69.9219H265.449ZM250.605 62.2852C253.848 62.2656 258.184 62.2461 261.914 61.7773L262.012 62.8906C260.459 63.1348 258.838 63.291 257.246 63.3789V66.8164H255.703V63.457C253.945 63.5352 252.275 63.5449 250.82 63.5352L250.605 62.2852ZM256.309 54.9414C258.848 54.9414 260.586 56.1523 260.605 57.9688C260.586 59.8242 258.848 60.9766 256.309 60.9766C253.75 60.9766 252.012 59.8242 252.012 57.9688C252.012 56.1523 253.75 54.9414 256.309 54.9414ZM256.309 56.1133C254.609 56.0938 253.457 56.8555 253.477 57.9688C253.457 59.1016 254.609 59.8438 256.309 59.8438C257.949 59.8438 259.121 59.1016 259.141 57.9688C259.121 56.8555 257.949 56.0938 256.309 56.1133ZM272.656 55.5664C275.02 55.5859 276.719 57.6074 276.973 60.8594H280.859V54.2188H282.383V71.6211H280.859V62.1289H276.992C276.807 65.5273 275.078 67.6562 272.656 67.6562C270.098 67.6562 268.301 65.3125 268.301 61.6211C268.301 57.9297 270.098 55.5859 272.656 55.5664ZM272.656 56.9336C270.938 56.9531 269.766 58.7891 269.766 61.6211C269.766 64.4531 270.938 66.2891 272.656 66.2891C274.355 66.2891 275.547 64.4531 275.547 61.6211C275.547 58.7891 274.355 56.9531 272.656 56.9336ZM294.336 55.7422V63.7891H286.191V55.7422H294.336ZM287.695 57.0117V62.5586H292.832V57.0117H287.695ZM299.609 54.2383V66.7188H298.086V54.2383H299.609ZM300.156 69.7266V70.9961H288.398V65.5078H289.922V69.7266H300.156ZM316.289 55.8398C316.289 58.2812 319.492 60.4102 322.617 60.8398L321.992 62.0898C319.297 61.6406 316.631 60.1465 315.508 58.0078C314.395 60.1562 311.719 61.6406 309.023 62.0898L308.398 60.8398C311.523 60.4102 314.707 58.3203 314.707 55.8398V54.8438H316.289V55.8398ZM323.398 64.0039V65.293H316.211V71.582H314.707V65.293H307.578V64.0039H323.398ZM333.77 56.3867C333.75 58.5156 336.68 60.2539 339.746 60.6836L339.141 61.8945C336.338 61.4941 333.721 60.0879 332.773 58.0469C331.836 60.0879 329.229 61.4941 326.406 61.8945L325.84 60.6836C328.906 60.2539 331.777 58.5156 331.777 56.3867V56.3477H326.309V55.0977H339.277V56.3477H333.77V56.3867ZM340.742 63.1641V64.4336H333.672V67.9883H332.148V64.4336H324.844V63.1641H340.742ZM338.965 69.9219V71.2109H326.875V66.25H328.418V69.9219H338.965ZM347.832 55.4883C350.566 55.4883 352.5 57.1484 352.5 59.5703C352.5 61.9922 350.566 63.6523 347.832 63.6523C345.098 63.6523 343.125 61.9922 343.145 59.5703C343.125 57.1484 345.098 55.4883 347.832 55.4883ZM347.832 56.8359C345.977 56.8359 344.629 57.9492 344.648 59.5703C344.629 61.1914 345.977 62.3047 347.832 62.3047C349.668 62.3047 350.996 61.1914 350.996 59.5703C350.996 57.9492 349.668 56.8359 347.832 56.8359ZM356.387 54.2188V71.6211H354.863V54.2188H356.387ZM342.246 66.4844C345.449 66.4844 349.863 66.4648 353.711 65.8984L353.828 67.0312C349.863 67.7734 345.586 67.793 342.461 67.793L342.246 66.4844ZM378.77 54.2188V71.6211H377.227V54.2188H378.77ZM369.531 55.5664C372.109 55.5859 373.965 57.9297 373.965 61.6211C373.965 65.3125 372.109 67.6562 369.531 67.6562C366.934 67.6562 365.098 65.3125 365.098 61.6211C365.098 57.9297 366.934 55.5859 369.531 55.5664ZM369.531 56.9336C367.793 56.9531 366.582 58.7891 366.582 61.6211C366.582 64.4531 367.793 66.2891 369.531 66.2891C371.27 66.2891 372.48 64.4531 372.48 61.6211C372.48 58.7891 371.27 56.9531 369.531 56.9336ZM397.559 62.3438V63.6133H390.391V65.4688C393.672 65.6055 395.605 66.6797 395.625 68.5156C395.605 70.4492 393.379 71.543 389.648 71.543C385.879 71.543 383.652 70.4492 383.652 68.5156C383.652 66.6797 385.576 65.6055 388.887 65.4688V63.6133H381.738V62.3438H397.559ZM389.648 66.6406C386.855 66.6602 385.195 67.3438 385.215 68.5156C385.195 69.668 386.855 70.3516 389.648 70.3516C392.402 70.3516 394.082 69.668 394.082 68.5156C394.082 67.3438 392.402 66.6602 389.648 66.6406ZM396.152 55.0391V56.2891H390.645C390.742 58.2422 393.613 59.7559 396.68 60.0781L396.113 61.2891C393.271 60.9473 390.605 59.6777 389.648 57.7344C388.701 59.6777 386.045 60.9473 383.184 61.2891L382.637 60.0781C385.645 59.7559 388.535 58.2422 388.652 56.2891H383.184V55.0391H396.152ZM413.418 54.2383V67.0312H411.875V60.332H408.242C407.9 62.4707 406.104 63.9258 403.809 63.9258C401.211 63.9258 399.297 62.1484 399.297 59.6289C399.297 57.1094 401.211 55.3516 403.809 55.3516C406.152 55.3516 407.979 56.8457 408.262 59.0625H411.875V54.2383H413.418ZM413.906 69.9219V71.2109H402.266V65.7227H403.809V69.9219H413.906ZM403.809 56.6992C402.07 56.7188 400.762 57.9102 400.762 59.6289C400.762 61.3477 402.07 62.5781 403.809 62.5977C405.508 62.5781 406.816 61.3477 406.816 59.6289C406.816 57.9102 405.508 56.7188 403.809 56.6992ZM420.977 55.5664C423.34 55.5859 425.039 57.6074 425.293 60.8594H429.18V54.2188H430.703V71.6211H429.18V62.1289H425.312C425.127 65.5273 423.398 67.6562 420.977 67.6562C418.418 67.6562 416.621 65.3125 416.621 61.6211C416.621 57.9297 418.418 55.5859 420.977 55.5664ZM420.977 56.9336C419.258 56.9531 418.086 58.7891 418.086 61.6211C418.086 64.4531 419.258 66.2891 420.977 66.2891C422.676 66.2891 423.867 64.4531 423.867 61.6211C423.867 58.7891 422.676 56.9531 420.977 56.9336ZM452.344 55.3516V56.875C452.344 58.5254 452.344 60.3125 451.855 62.8125H454.434V64.082H447.266V71.6211H445.723V64.082H438.613V62.8125H450.293C450.82 60.3125 450.82 58.4863 450.82 56.875V56.6211H440.605V55.3516H452.344ZM461.719 58.8867C461.719 61.9531 463.75 65.0977 466.211 66.3086L465.273 67.5391C463.359 66.5332 461.758 64.4824 460.996 62.0703C460.215 64.6387 458.574 66.8262 456.621 67.8711L455.645 66.6406C458.184 65.3906 460.195 62.0508 460.215 58.8867V55.7227H461.719V58.8867ZM469.336 54.2188V61.2695H472.246V62.5977H469.336V71.582H467.812V54.2188H469.336ZM492.227 59.082V60.3516H480.371V54.5703H481.895V59.082H492.227ZM494.043 62.3828V63.6523H478.203V62.3828H494.043ZM486.113 65.2148C489.844 65.2148 492.07 66.3477 492.09 68.3594C492.07 70.3711 489.844 71.5039 486.113 71.5039C482.363 71.5039 480.117 70.3711 480.117 68.3594C480.117 66.3477 482.363 65.2148 486.113 65.2148ZM486.113 66.4258C483.32 66.4453 481.66 67.1289 481.68 68.3594C481.66 69.5703 483.32 70.3125 486.113 70.3125C488.867 70.3125 490.547 69.5703 490.547 68.3594C490.547 67.1289 488.867 66.4453 486.113 66.4258ZM503.73 55.293V60.1562H497.754V62.8516C501.016 62.8516 502.695 62.8027 504.746 62.4219L504.902 63.6914C502.734 64.043 500.977 64.1016 497.461 64.1016H496.23V58.9844H502.207V56.5234H496.191V55.293H503.73ZM509.883 54.2383V64.9023H508.34V61.6797H504.883V60.4102H508.34V58.0664H504.883V56.8164H508.34V54.2383H509.883ZM509.883 65.8398V71.6211H508.34V67.0898H498.184V65.8398H509.883ZM522.402 56.1523V57.0508C522.383 58.418 522.383 60.7227 521.895 63.9453L520.352 63.8086C520.82 60.8984 520.859 58.7891 520.859 57.4023H513.574V56.1523H522.402ZM517.852 61.1133V66.3867C519.775 66.3184 521.748 66.1914 523.555 65.9766L523.633 67.1289C519.98 67.6953 515.898 67.7734 512.793 67.7539L512.598 66.4844C513.74 66.4746 515.01 66.4648 516.348 66.4258V61.1133H517.852ZM526.172 54.2188V61.4844H528.984V62.8125H526.172V71.582H524.648V54.2188H526.172ZM549.395 54.2188V63.2227H547.891V54.2188H549.395ZM549.414 64.1016V68.2617H539.668V70.1367H550.039V71.3867H538.164V67.0703H547.891V65.332H538.125V64.1016H549.414ZM541.23 56.0547C541.211 58.5156 543.086 60.6836 545.664 61.5234L544.902 62.7148C542.871 62.0215 541.25 60.5664 540.469 58.6914C539.688 60.7129 538.057 62.3047 535.996 63.0469L535.195 61.8359C537.812 60.918 539.668 58.6133 539.668 56.0547V54.7266H541.23V56.0547ZM566.68 54.2188V63.2422H565.176V54.2188H566.68ZM566.699 64.082V68.2227H556.953V70.1562H567.324V71.3867H555.449V67.0703H565.176V65.293H555.41V64.082H566.699ZM558.613 56.6797C558.613 58.9453 560.469 60.918 563.086 61.6992L562.324 62.8906C560.273 62.2461 558.643 60.8691 557.871 59.082C557.119 61.0352 555.459 62.5586 553.34 63.2617L552.617 62.0508C555.215 61.1914 557.07 59.0625 557.07 56.6797V56.4844H553.008V55.2148H562.617V56.4844H558.613V56.6797ZM575.684 57.4219C575.684 59.6875 577.422 61.8359 579.961 62.7148L579.16 63.9258C577.197 63.2227 575.684 61.7676 574.941 59.9805C574.189 61.9824 572.588 63.584 570.527 64.3359L569.727 63.125C572.285 62.207 574.141 59.8828 574.141 57.4414V56.6797H570.215V55.4297H579.57V56.6797H575.684V57.4219ZM584.043 65.5469V71.582H582.5V66.8164H572.363V65.5469H584.043ZM584.043 54.2188V64.6289H582.5V60.0586H579.023V58.7695H582.5V54.2188H584.043ZM601.27 54.2383V66.9336H599.746V54.2383H601.27ZM601.816 69.9219V71.2109H590.059V65.6445H591.582V69.9219H601.816ZM591.895 55.4492C594.492 55.4492 596.445 57.207 596.445 59.707C596.445 62.2461 594.492 63.9844 591.895 63.9844C589.297 63.9844 587.344 62.2461 587.344 59.707C587.344 57.207 589.297 55.4492 591.895 55.4492ZM591.895 56.7969C590.137 56.7969 588.828 58.0078 588.848 59.707C588.828 61.4453 590.137 62.6367 591.895 62.6367C593.613 62.6367 594.941 61.4453 594.941 59.707C594.941 58.0078 593.613 56.7969 591.895 56.7969ZM610.098 70V55.8594H618.672V57.4219H611.855V62.1484H618.223V63.6914H611.855V68.4375H618.77V70H610.098ZM629.16 59.4141C629.004 58.0273 627.734 57.2266 626.035 57.2266C624.16 57.2266 622.93 58.2031 622.93 59.5508C622.93 61.0352 624.59 61.582 625.664 61.8555L627.07 62.2461C628.594 62.6367 631.074 63.5156 631.074 66.1523C631.074 68.457 629.219 70.2539 625.938 70.2539C622.891 70.2539 620.996 68.6719 620.84 66.3281H622.637C622.793 67.9102 624.258 68.6523 625.938 68.6523C627.891 68.6523 629.355 67.6562 629.355 66.1133C629.355 64.7461 628.047 64.2188 626.562 63.7891L624.824 63.3203C622.598 62.6758 621.23 61.543 621.23 59.6289C621.23 57.2461 623.359 55.6641 626.094 55.6641C628.828 55.6641 630.801 57.2656 630.879 59.4141H629.16ZM633.594 70V55.8594H635.352V68.4375H641.914V70H633.594ZM662.363 55.9766V57.9102C662.363 60.1367 662.363 62.3828 661.738 65.6055L660.234 65.4297C660.859 62.3633 660.859 60.0781 660.859 57.9102V57.2461H650.078V55.9766H662.363ZM664.238 67.8516V69.1211H648.418V67.8516H652.344V62.1289H653.867V67.8516H656.68V62.1289H658.184V67.8516H664.238ZM681.523 62.5977V63.8477H677.305V66.0547H679.57V71.582H678.027V67.2852H667.461V66.0547H669.902V63.8477H665.703V62.5977H681.523ZM673.613 54.6484C677.383 54.6289 679.746 55.8789 679.746 57.9492C679.746 60.0391 677.383 61.2891 673.613 61.2695C669.844 61.2891 667.461 60.0391 667.461 57.9492C667.461 55.8789 669.844 54.6289 673.613 54.6484ZM673.613 55.8789C670.801 55.8594 669.023 56.6602 669.043 57.9492C669.023 59.2773 670.801 60.0781 673.613 60.0781C676.387 60.0781 678.184 59.2773 678.184 57.9492C678.184 56.6602 676.387 55.8594 673.613 55.8789ZM671.445 66.0547H675.801V63.8477H671.445V66.0547ZM702.402 54.2383V64.668H700.859V62.3242H696.25V61.0547H700.859V58.7109H696.426C695.283 61.5039 692.598 63.5254 688.887 64.6289L688.242 63.418C692.441 62.168 695.049 59.8242 695.371 56.8164H689.121V55.5273H697.031C697.031 56.2109 696.953 56.8652 696.816 57.4805H700.859V54.2383H702.402ZM696.719 64.8438C700.234 64.8438 702.5 66.0938 702.5 68.1641C702.5 70.2539 700.234 71.5039 696.719 71.5039C693.164 71.5039 690.918 70.2539 690.918 68.1641C690.918 66.0938 693.164 64.8438 696.719 64.8438ZM696.719 66.0742C694.102 66.0547 692.422 66.8555 692.422 68.1641C692.422 69.4727 694.102 70.2539 696.719 70.2539C699.297 70.2539 700.957 69.4727 700.977 68.1641C700.957 66.8555 699.297 66.0547 696.719 66.0742ZM719.688 54.2188V64.7461H718.145V60.7812H715.195V59.5117H718.145V54.2188H719.688ZM719.688 65.6836V71.3477H708.34V65.6836H719.688ZM709.863 66.9141V70.0977H718.184V66.9141H709.863ZM715.449 56.0547V57.3047H705.312V56.0547H709.629V54.0625H711.133V56.0547H715.449ZM710.371 58.2031C712.734 58.2031 714.395 59.4727 714.414 61.2891C714.395 63.1641 712.734 64.3945 710.371 64.3945C708.008 64.3945 706.348 63.1641 706.348 61.2891C706.348 59.4727 708.008 58.2031 710.371 58.2031ZM710.371 59.3945C708.867 59.3945 707.812 60.1758 707.812 61.2891C707.812 62.4414 708.867 63.2031 710.371 63.2227C711.875 63.2031 712.93 62.4414 712.93 61.2891C712.93 60.1758 711.875 59.3945 710.371 59.3945ZM234.922 98.3672C233.828 98.3672 232.93 97.4688 232.93 96.3555C232.93 95.2617 233.828 94.3633 234.922 94.3633C236.035 94.3633 236.934 95.2617 236.934 96.3555C236.934 97.4688 236.035 98.3672 234.922 98.3672ZM255.352 87.5664C257.91 87.5859 259.727 89.9297 259.746 93.6211C259.727 97.3125 257.91 99.6562 255.352 99.6562C252.773 99.6562 250.977 97.3125 250.977 93.6211C250.977 89.9297 252.773 87.5859 255.352 87.5664ZM255.352 88.9336C253.633 88.9531 252.422 90.7891 252.422 93.6211C252.422 96.4531 253.633 98.2891 255.352 98.2891C257.09 98.2891 258.262 96.4531 258.262 93.6211C258.262 90.7891 257.09 88.9531 255.352 88.9336ZM264.141 86.2188V93.1523H267.051V94.4805H264.141V103.582H262.617V86.2188H264.141ZM282.305 86.2188V103.621H280.762V86.2188H282.305ZM273.066 87.5664C275.645 87.5859 277.5 89.9297 277.5 93.6211C277.5 97.3125 275.645 99.6562 273.066 99.6562C270.469 99.6562 268.633 97.3125 268.633 93.6211C268.633 89.9297 270.469 87.5859 273.066 87.5664ZM273.066 88.9336C271.328 88.9531 270.117 90.7891 270.117 93.6211C270.117 96.4531 271.328 98.2891 273.066 98.2891C274.805 98.2891 276.016 96.4531 276.016 93.6211C276.016 90.7891 274.805 88.9531 273.066 88.9336ZM290.957 87.4883C293.691 87.4883 295.625 89.1484 295.625 91.5703C295.625 93.9922 293.691 95.6523 290.957 95.6523C288.223 95.6523 286.25 93.9922 286.27 91.5703C286.25 89.1484 288.223 87.4883 290.957 87.4883ZM290.957 88.8359C289.102 88.8359 287.754 89.9492 287.773 91.5703C287.754 93.1914 289.102 94.3047 290.957 94.3047C292.793 94.3047 294.121 93.1914 294.121 91.5703C294.121 89.9492 292.793 88.8359 290.957 88.8359ZM299.512 86.2188V103.621H297.988V86.2188H299.512ZM285.371 98.4844C288.574 98.4844 292.988 98.4648 296.836 97.8984L296.953 99.0312C292.988 99.7734 288.711 99.793 285.586 99.793L285.371 98.4844ZM313.555 88.9531C313.535 91.4336 315.293 93.6211 317.852 94.4805L316.992 95.6719C315.078 94.9492 313.574 93.543 312.832 91.707C312.08 93.7871 310.488 95.4082 308.398 96.1992L307.559 94.9492C310.234 94.0117 312.012 91.707 312.031 89.0117V87.2148H313.555V88.9531ZM321.973 86.2188V96.5117H320.43V91.2188H316.562V89.9492H320.43V86.2188H321.973ZM316.211 97.0195C319.824 97.0195 322.031 98.2109 322.031 100.301C322.031 102.371 319.824 103.543 316.211 103.543C312.598 103.543 310.391 102.371 310.391 100.301C310.391 98.2109 312.598 97.0195 316.211 97.0195ZM316.211 98.2305C313.555 98.2305 311.895 99.0117 311.914 100.301C311.895 101.551 313.555 102.312 316.211 102.312C318.867 102.312 320.508 101.551 320.508 100.301C320.508 99.0117 318.867 98.2305 316.211 98.2305ZM330.742 89.5195C330.742 91.7852 332.441 93.8164 335 94.6562L334.277 95.8672C332.275 95.2129 330.762 93.8262 330.02 92.0781C329.268 94.0703 327.666 95.623 325.586 96.375L324.805 95.1445C327.402 94.2656 329.219 92.0195 329.238 89.5195V88.7773H325.273V87.5078H334.648V88.7773H330.742V89.5195ZM338.438 86.2188V90.6523H341.055V91.9414H338.438V96.707H336.914V86.2188H338.438ZM332.871 97.1758C336.445 97.1758 338.594 98.3477 338.594 100.34C338.594 102.371 336.445 103.543 332.871 103.543C329.297 103.543 327.109 102.371 327.109 100.34C327.109 98.3477 329.297 97.1758 332.871 97.1758ZM332.871 98.4062C330.254 98.4062 328.633 99.1289 328.652 100.34C328.633 101.59 330.254 102.312 332.871 102.312C335.508 102.312 337.109 101.59 337.109 100.34C337.109 99.1289 335.508 98.4062 332.871 98.4062ZM350.059 86.5312C353.926 86.5312 356.191 87.5859 356.191 89.5195C356.191 91.4922 353.926 92.5469 350.059 92.5664C346.191 92.5469 343.906 91.4922 343.906 89.5195C343.906 87.5859 346.191 86.5312 350.059 86.5312ZM350.059 87.6836C347.168 87.6836 345.488 88.3867 345.508 89.5195C345.488 90.7305 347.168 91.3945 350.059 91.3945C352.93 91.3945 354.629 90.7305 354.629 89.5195C354.629 88.3867 352.93 87.6836 350.059 87.6836ZM357.969 93.7383V94.9883H342.148V93.7383H357.969ZM355.938 96.4922V100.379H345.625V102.176H356.465V103.387H344.102V99.2461H354.434V97.6641H344.062V96.4922H355.938ZM380.273 94.3438V95.6133H373.105V97.4688C376.387 97.6055 378.32 98.6797 378.34 100.516C378.32 102.449 376.094 103.543 372.363 103.543C368.594 103.543 366.367 102.449 366.367 100.516C366.367 98.6797 368.291 97.6055 371.602 97.4688V95.6133H364.453V94.3438H380.273ZM372.363 98.6406C369.57 98.6602 367.91 99.3438 367.93 100.516C367.91 101.668 369.57 102.352 372.363 102.352C375.117 102.352 376.797 101.668 376.797 100.516C376.797 99.3438 375.117 98.6602 372.363 98.6406ZM378.867 87.0391V88.2891H373.359C373.457 90.2422 376.328 91.7559 379.395 92.0781L378.828 93.2891C375.986 92.9473 373.32 91.6777 372.363 89.7344C371.416 91.6777 368.76 92.9473 365.898 93.2891L365.352 92.0781C368.359 91.7559 371.25 90.2422 371.367 88.2891H365.898V87.0391H378.867ZM396.074 86.2383V96.1016H394.551V86.2383H396.074ZM396.074 97.0977V103.348H384.785V97.0977H396.074ZM386.289 98.3477V102.098H394.57V98.3477H386.289ZM387.891 88.6211C387.871 91.082 389.746 93.25 392.305 94.1484L391.523 95.3203C389.512 94.627 387.91 93.1621 387.129 91.2578C386.357 93.2891 384.736 94.8906 382.656 95.6523L381.875 94.4414C384.512 93.5234 386.328 91.1797 386.328 88.6211V86.9219H387.891V88.6211ZM413.906 86.2188V103.582H412.422V86.2188H413.906ZM410.41 86.5898V102.703H408.945V94.2656H406.719C406.553 97.6445 405.117 99.7539 402.969 99.7539C400.703 99.7539 399.238 97.4102 399.238 93.7188C399.238 90.0273 400.703 87.6836 402.969 87.6836C405.078 87.6836 406.504 89.7246 406.699 92.9961H408.945V86.5898H410.41ZM402.969 89.1289C401.562 89.1289 400.664 90.8867 400.684 93.7188C400.664 96.5312 401.562 98.3086 402.969 98.2891C404.375 98.3086 405.273 96.5312 405.273 93.7188C405.273 90.8867 404.375 89.1289 402.969 89.1289ZM435.176 92.7227V93.9531H423.516V87.2539H434.941V88.5234H425.078V92.7227H435.176ZM437.207 96.2578V97.5078H429.961V103.523H428.457V97.5078H421.309V96.2578H437.207ZM452.656 91.4922V92.7227H440.762V86.8633H442.285V91.4922H452.656ZM454.492 95.0859V96.3359H438.594V95.0859H454.492ZM452.754 101.883V103.152H440.664V98.1133H442.188V101.883H452.754ZM474.863 87.9766V89.9102C474.863 92.1367 474.863 94.3828 474.238 97.6055L472.734 97.4297C473.359 94.3633 473.359 92.0781 473.359 89.9102V89.2461H462.578V87.9766H474.863ZM476.738 99.8516V101.121H460.918V99.8516H464.844V94.1289H466.367V99.8516H469.18V94.1289H470.684V99.8516H476.738ZM494.023 94.5977V95.8477H489.805V98.0547H492.07V103.582H490.527V99.2852H479.961V98.0547H482.402V95.8477H478.203V94.5977H494.023ZM486.113 86.6484C489.883 86.6289 492.246 87.8789 492.246 89.9492C492.246 92.0391 489.883 93.2891 486.113 93.2695C482.344 93.2891 479.961 92.0391 479.961 89.9492C479.961 87.8789 482.344 86.6289 486.113 86.6484ZM486.113 87.8789C483.301 87.8594 481.523 88.6602 481.543 89.9492C481.523 91.2773 483.301 92.0781 486.113 92.0781C488.887 92.0781 490.684 91.2773 490.684 89.9492C490.684 88.6602 488.887 87.8594 486.113 87.8789ZM483.945 98.0547H488.301V95.8477H483.945V98.0547ZM506.426 89.6367C506.426 91.5508 508.379 93.2109 510.957 93.8164L510.254 94.9883C508.174 94.4805 506.504 93.3184 505.723 91.7461C504.941 93.4551 503.271 94.7441 501.152 95.3398L500.449 94.1484C503.027 93.4453 504.922 91.6875 504.922 89.6367V89.2266H500.996V87.9766H504.922V86.1406H506.465V87.9766H510.352V89.2266H506.426V89.6367ZM514.883 86.2188V95.3398H513.359V91.8047H509.824V90.5547H513.359V86.2188H514.883ZM514.883 96.1797V100.281H505.195V102.156H515.547V103.387H503.672V99.1094H513.359V97.3906H503.633V96.1797H514.883ZM528.184 88.0938V89.3438H517.832V88.0938H522.246V86.1406H523.77V88.0938H528.184ZM523.008 90.2422C525.508 90.2617 527.168 91.4727 527.188 93.3867C527.168 95.2812 525.508 96.5117 523.008 96.5117C520.508 96.5117 518.809 95.2812 518.828 93.3867C518.809 91.4727 520.508 90.2617 523.008 90.2422ZM523.008 91.4336C521.367 91.4531 520.273 92.2148 520.293 93.3867C520.273 94.5391 521.367 95.2812 523.008 95.2812C524.629 95.2812 525.723 94.5391 525.742 93.3867C525.723 92.2148 524.629 91.4531 523.008 91.4336ZM531.367 86.2188V91.043H533.984V92.332H531.367V97.0781H529.844V86.2188H531.367ZM531.367 98.0352V103.582H529.844V99.2852H520V98.0352H531.367ZM544.707 88.1523V89.0508C544.688 90.418 544.688 92.7227 544.199 95.9453L542.656 95.8086C543.125 92.8984 543.164 90.7891 543.164 89.4023H535.879V88.1523H544.707ZM540.156 93.1133V98.3867C542.08 98.3184 544.053 98.1914 545.859 97.9766L545.938 99.1289C542.285 99.6953 538.203 99.7734 535.098 99.7539L534.902 98.4844C536.045 98.4746 537.314 98.4648 538.652 98.4258V93.1133H540.156ZM548.477 86.2188V93.4844H551.289V94.8125H548.477V103.582H546.953V86.2188H548.477ZM562.52 89.9883C562.52 92.0391 563.887 94.0508 566.094 94.8516L565.352 96.043C563.652 95.3691 562.451 94.0703 561.836 92.4883C561.23 94.207 560.01 95.623 558.281 96.3555L557.52 95.2031C559.727 94.2852 561.055 92.1953 561.074 89.9883V89.7734H557.871V88.5234H561.074V86.4336H562.52V88.5234H565.664V89.7734H562.52V89.9883ZM572.129 86.2383V96.8633H570.664V92.1562H568.398V96.7852H566.914V86.5508H568.398V90.8867H570.664V86.2383H572.129ZM572.129 97.8008V103.582H570.625V99.0508H560.43V97.8008H572.129ZM589.004 86.2383V96.1602H587.48V86.2383H589.004ZM589.004 97.0977V103.348H577.715V97.0977H589.004ZM579.219 98.3477V102.098H587.5V98.3477H579.219ZM579.629 87.1562C582.266 87.1562 584.18 88.7969 584.18 91.2188C584.18 93.6016 582.266 95.2617 579.629 95.2617C576.992 95.2617 575.078 93.6016 575.078 91.2188C575.078 88.7969 576.992 87.1562 579.629 87.1562ZM579.629 88.4648C577.852 88.4453 576.562 89.5977 576.582 91.2188C576.562 92.8203 577.852 93.9531 579.629 93.9531C581.387 93.9531 582.676 92.8203 582.676 91.2188C582.676 89.5977 581.387 88.4453 579.629 88.4648ZM605.527 86.2188V90.4766H608.145V91.7461H605.527V96.082H604.004V86.2188H605.527ZM600.781 87.3516C600.762 91.7266 597.695 94.8516 592.559 96.2578L591.934 95.0273C596.211 93.875 598.818 91.5605 599.141 88.6211H592.715V87.3516H600.781ZM605.527 96.8828V103.348H594.531V96.8828H605.527ZM596.055 98.1523V102.098H604.004V98.1523H596.055ZM620.137 97.8789C620.137 99.4121 620.957 101.043 622.617 101.98C624.258 100.955 625.137 99.2266 625.137 97.8789V96.9219H626.641V97.8789C626.641 99.6562 627.949 101.453 630.176 102.215L629.414 103.348C627.676 102.732 626.455 101.521 625.859 100.066C625.322 101.473 624.258 102.801 622.656 103.484C620.967 102.84 619.893 101.561 619.375 100.105C618.76 101.512 617.559 102.723 615.898 103.348L615.117 102.215C617.305 101.395 618.633 99.5391 618.652 97.8789V96.9219H620.137V97.8789ZM628.594 86.2383V96.1602H627.07V86.2383H628.594ZM619.219 87.2539C621.855 87.2539 623.77 88.8945 623.77 91.3164C623.77 93.6992 621.855 95.3398 619.219 95.3398C616.582 95.3398 614.668 93.6992 614.668 91.3164C614.668 88.8945 616.582 87.2539 619.219 87.2539ZM619.219 88.5625C617.441 88.543 616.152 89.6953 616.172 91.3164C616.152 92.918 617.441 94.0508 619.219 94.0703C620.977 94.0508 622.266 92.918 622.266 91.3164C622.266 89.6953 620.977 88.543 619.219 88.5625ZM645.586 91.4922V92.7227H633.691V86.8633H635.215V91.4922H645.586ZM647.422 95.0859V96.3359H631.523V95.0859H647.422ZM645.684 101.883V103.152H633.594V98.1133H635.117V101.883H645.684ZM662.578 87.9766V99.168H654.57V87.9766H662.578ZM656.055 89.207V97.918H661.055V89.207H656.055ZM667.285 86.2188V93.1523H670.195V94.4805H667.285V103.582H665.762V86.2188H667.285ZM685.469 86.2383V98.9336H683.945V86.2383H685.469ZM686.016 101.922V103.211H674.258V97.6445H675.781V101.922H686.016ZM676.094 87.4492C678.691 87.4492 680.645 89.207 680.645 91.707C680.645 94.2461 678.691 95.9844 676.094 95.9844C673.496 95.9844 671.543 94.2461 671.543 91.707C671.543 89.207 673.496 87.4492 676.094 87.4492ZM676.094 88.7969C674.336 88.7969 673.027 90.0078 673.047 91.707C673.027 93.4453 674.336 94.6367 676.094 94.6367C677.812 94.6367 679.141 93.4453 679.141 91.707C679.141 90.0078 677.812 88.7969 676.094 88.7969ZM702.441 94.5781V95.8477H690.449V87.8398H702.266V89.1094H691.973V94.5781H702.441ZM704.316 99.9297V101.219H688.418V99.9297H704.316ZM720.449 86.2188V98.0742H718.984V86.2188H720.449ZM717.031 86.6094V96.4922H715.547V91.4922H712.812V90.2227H715.547V86.6094H717.031ZM715.488 97.7812C715.488 100.027 718.418 101.863 721.484 102.312L720.859 103.504C718.242 103.074 715.762 101.766 714.707 99.832C713.652 101.766 711.172 103.074 708.555 103.504L707.969 102.312C711.016 101.863 713.945 100.027 713.945 97.7812V97.2148H715.488V97.7812ZM710.84 89.5781C710.84 91.5703 712.148 93.5625 714.316 94.4609L713.496 95.6523C711.855 94.959 710.703 93.6504 710.117 92.0977C709.482 93.7578 708.252 95.2422 706.562 95.9844L705.723 94.8125C707.969 93.8164 709.355 91.5508 709.355 89.5781V87.293H710.84V89.5781ZM234.922 130.367C233.828 130.367 232.93 129.469 232.93 128.355C232.93 127.262 233.828 126.363 234.922 126.363C236.035 126.363 236.934 127.262 236.934 128.355C236.934 129.469 236.035 130.367 234.922 130.367ZM265.039 118.238V130.973H263.516V118.238H265.039ZM265.586 133.922V135.211H253.828V129.801H255.352V133.922H265.586ZM256.855 120.953C256.836 123.59 258.652 125.973 261.23 126.91L260.43 128.141C258.418 127.369 256.855 125.807 256.094 123.805C255.322 125.934 253.74 127.643 251.719 128.453L250.879 127.262C253.516 126.246 255.293 123.688 255.293 120.953V119.215H256.855V120.953ZM278.105 119.84V124.41H270.898V126.617H278.594V127.848H274.57V130.758C276.26 130.689 277.949 130.572 279.551 130.387L279.668 131.539C275.82 132.125 271.621 132.203 268.301 132.184L268.086 130.875C269.609 130.875 271.299 130.865 273.047 130.816V127.848H269.375V123.258H276.602V121.09H269.336V119.84H278.105ZM282.227 118.219V135.621H280.703V118.219H282.227ZM298.848 118.16V122.379H301.484V123.648H298.848V127.77H297.324V118.16H298.848ZM298.848 128.668V132.516H289.316V134.215H299.492V135.387H287.812V131.383H297.324V129.82H287.773V128.668H298.848ZM295.664 119.801V121.031H285.312V119.801H289.727V118.043H291.25V119.801H295.664ZM290.488 121.812C293.008 121.812 294.648 122.906 294.668 124.664C294.648 126.422 293.008 127.516 290.488 127.516C287.949 127.516 286.289 126.422 286.309 124.664C286.289 122.906 287.949 121.812 290.488 121.812ZM290.488 122.945C288.848 122.945 287.754 123.629 287.773 124.664C287.754 125.719 288.848 126.363 290.488 126.363C292.129 126.363 293.203 125.719 293.223 124.664C293.203 123.629 292.129 122.945 290.488 122.945ZM316.289 119.84C316.289 122.281 319.492 124.41 322.617 124.84L321.992 126.09C319.297 125.641 316.631 124.146 315.508 122.008C314.395 124.156 311.719 125.641 309.023 126.09L308.398 124.84C311.523 124.41 314.707 122.32 314.707 119.84V118.844H316.289V119.84ZM323.398 128.004V129.293H316.211V135.582H314.707V129.293H307.578V128.004H323.398ZM335.762 129.879C335.762 131.412 336.582 133.043 338.242 133.98C339.883 132.955 340.762 131.227 340.762 129.879V128.922H342.266V129.879C342.266 131.656 343.574 133.453 345.801 134.215L345.039 135.348C343.301 134.732 342.08 133.521 341.484 132.066C340.947 133.473 339.883 134.801 338.281 135.484C336.592 134.84 335.518 133.561 335 132.105C334.385 133.512 333.184 134.723 331.523 135.348L330.742 134.215C332.93 133.395 334.258 131.539 334.277 129.879V128.922H335.762V129.879ZM344.219 118.238V128.16H342.695V118.238H344.219ZM334.844 119.254C337.48 119.254 339.395 120.895 339.395 123.316C339.395 125.699 337.48 127.34 334.844 127.34C332.207 127.34 330.293 125.699 330.293 123.316C330.293 120.895 332.207 119.254 334.844 119.254ZM334.844 120.562C333.066 120.543 331.777 121.695 331.797 123.316C331.777 124.918 333.066 126.051 334.844 126.07C336.602 126.051 337.891 124.918 337.891 123.316C337.891 121.695 336.602 120.543 334.844 120.562ZM361.211 123.492V124.723H349.316V118.863H350.84V123.492H361.211ZM363.047 127.086V128.336H347.148V127.086H363.047ZM361.309 133.883V135.152H349.219V130.113H350.742V133.883H361.309ZM383.418 119.977V121.91C383.418 124.137 383.418 126.383 382.793 129.605L381.289 129.43C381.914 126.363 381.914 124.078 381.914 121.91V121.246H371.133V119.977H383.418ZM385.293 131.852V133.121H369.473V131.852H373.398V126.129H374.922V131.852H377.734V126.129H379.238V131.852H385.293ZM402.578 126.598V127.848H398.359V130.055H400.625V135.582H399.082V131.285H388.516V130.055H390.957V127.848H386.758V126.598H402.578ZM394.668 118.648C398.438 118.629 400.801 119.879 400.801 121.949C400.801 124.039 398.438 125.289 394.668 125.27C390.898 125.289 388.516 124.039 388.516 121.949C388.516 119.879 390.898 118.629 394.668 118.648ZM394.668 119.879C391.855 119.859 390.078 120.66 390.098 121.949C390.078 123.277 391.855 124.078 394.668 124.078C397.441 124.078 399.238 123.277 399.238 121.949C399.238 120.66 397.441 119.859 394.668 119.879ZM392.5 130.055H396.855V127.848H392.5V130.055ZM411.172 119.879V124.117H414.941V119.879H416.367V131.246H409.707V119.879H411.172ZM411.172 129.977H414.941V125.367H411.172V129.977ZM423.945 118.219V135.582H422.461V126.383H420.039V134.703H418.574V118.59H420.039V125.113H422.461V118.219H423.945ZM440.742 118.238V128.668H439.199V126.324H434.59V125.055H439.199V122.711H434.766C433.623 125.504 430.938 127.525 427.227 128.629L426.582 127.418C430.781 126.168 433.389 123.824 433.711 120.816H427.461V119.527H435.371C435.371 120.211 435.293 120.865 435.156 121.48H439.199V118.238H440.742ZM435.059 128.844C438.574 128.844 440.84 130.094 440.84 132.164C440.84 134.254 438.574 135.504 435.059 135.504C431.504 135.504 429.258 134.254 429.258 132.164C429.258 130.094 431.504 128.844 435.059 128.844ZM435.059 130.074C432.441 130.055 430.762 130.855 430.762 132.164C430.762 133.473 432.441 134.254 435.059 134.254C437.637 134.254 439.297 133.473 439.316 132.164C439.297 130.855 437.637 130.055 435.059 130.074ZM453.262 120.152V121.051C453.242 122.418 453.242 124.723 452.754 127.945L451.211 127.809C451.68 124.898 451.719 122.789 451.719 121.402H444.434V120.152H453.262ZM448.711 125.113V130.387C450.635 130.318 452.607 130.191 454.414 129.977L454.492 131.129C450.84 131.695 446.758 131.773 443.652 131.754L443.457 130.484C444.6 130.475 445.869 130.465 447.207 130.426V125.113H448.711ZM457.031 118.219V125.484H459.844V126.812H457.031V135.582H455.508V118.219H457.031ZM474.902 119.352C474.883 123.707 471.777 126.832 466.777 128.258L466.133 127.047C470.283 125.875 472.93 123.57 473.262 120.621H467.031V119.352H474.902ZM480.332 118.238V128.141H478.789V124H474.941V122.711H478.789V118.238H480.332ZM480.332 128.883V135.348H469.062V128.883H480.332ZM470.547 130.113V134.098H478.809V130.113H470.547ZM499.043 126.48V127.75H483.223V126.48H499.043ZM491.133 129.273C494.863 129.273 497.09 130.426 497.109 132.418C497.09 134.43 494.863 135.543 491.133 135.543C487.383 135.543 485.137 134.43 485.137 132.418C485.137 130.426 487.383 129.273 491.133 129.273ZM491.133 130.484C488.34 130.504 486.68 131.188 486.699 132.418C486.68 133.629 488.34 134.312 491.133 134.312C493.887 134.312 495.566 133.629 495.566 132.418C495.566 131.188 493.887 130.504 491.133 130.484ZM497.637 119.117V120.387H492.129C492.188 122.359 495.078 123.863 498.164 124.215L497.598 125.445C494.756 125.084 492.09 123.814 491.133 121.871C490.186 123.814 487.529 125.084 484.668 125.445L484.121 124.215C487.148 123.863 490.059 122.359 490.137 120.387H484.668V119.117H497.637ZM510.605 123.922V125.172H507.09V127.594C508.711 127.525 510.332 127.408 511.836 127.242L511.953 128.375C508.223 128.883 504.082 129 500.82 129L500.586 127.75C502.109 127.74 503.818 127.721 505.566 127.652V125.172H502.168V119.352H510.469V120.621H503.711V123.922H510.605ZM514.824 118.238V131.227H513.281V118.238H514.824ZM515.391 133.922V135.211H503.555V130.328H505.078V133.922H515.391ZM536.758 119.977V121.91C536.758 124.137 536.758 126.383 536.133 129.605L534.629 129.43C535.254 126.363 535.254 124.078 535.254 121.91V121.246H524.473V119.977H536.758ZM538.633 131.852V133.121H522.812V131.852H526.738V126.129H528.262V131.852H531.074V126.129H532.578V131.852H538.633ZM543.633 128.648V130.68H552.305V128.648H553.848V135.348H542.109V128.648H543.633ZM543.633 134.117H552.305V131.891H543.633V134.117ZM555.918 126.148V127.418H540.098V126.148H555.918ZM548.809 119.234C548.809 121.383 551.973 123.297 555.02 123.688L554.453 124.918C551.758 124.518 549.121 123.141 548.027 121.188C546.914 123.15 544.258 124.518 541.582 124.918L540.996 123.688C544.082 123.277 547.227 121.441 547.227 119.234V118.414H548.809V119.234ZM576.797 129.41V135.582H575.254V130.641H565.117V129.41H576.797ZM576.797 118.219V128.453H575.254V125.953H570.781C569.971 126.939 568.691 127.525 567.188 127.516C564.59 127.535 562.676 125.816 562.676 123.355C562.676 120.934 564.59 119.215 567.188 119.215C568.682 119.215 569.961 119.801 570.781 120.777H575.254V118.219H576.797ZM567.188 120.523C565.41 120.523 564.141 121.715 564.141 123.355C564.141 125.055 565.41 126.227 567.188 126.227C568.887 126.227 570.195 125.055 570.195 123.355C570.195 121.715 568.887 120.523 567.188 120.523ZM571.465 124.684H575.254V122.047H571.465C571.602 122.457 571.68 122.887 571.68 123.355C571.68 123.824 571.602 124.273 571.465 124.684ZM595.898 120.953V122.242H593.262V124.605H595.898V125.914H593.262V128.746H591.738V118.238H593.262V120.953H595.898ZM588.301 119.312V124H581.973V126.422C585.059 126.422 587.295 126.314 590 125.855L590.156 127.145C587.363 127.613 585.039 127.711 581.816 127.711H580.469V122.789H586.797V120.582H580.43V119.312H588.301ZM587.695 129.254C591.23 129.254 593.418 130.426 593.418 132.418C593.418 134.41 591.23 135.543 587.695 135.543C584.102 135.543 581.934 134.41 581.934 132.418C581.934 130.426 584.102 129.254 587.695 129.254ZM587.695 130.465C585.039 130.465 583.418 131.188 583.438 132.418C583.418 133.629 585.039 134.352 587.695 134.352C590.332 134.352 591.934 133.629 591.934 132.418C591.934 131.188 590.332 130.465 587.695 130.465ZM617.891 132.086V133.355H601.992V132.086H609.141V128.336H603.867V119.449H605.41V122.594H614.434V119.449H615.938V128.336H610.645V132.086H617.891ZM605.41 127.086H614.434V123.844H605.41V127.086ZM635.156 128.121V129.391H630.957V135.582H629.414V129.391H624.961V135.582H623.379V129.391H619.258V128.121H635.156ZM627.168 118.922C630.82 118.922 633.281 120.387 633.281 122.711C633.281 125.016 630.82 126.48 627.168 126.461C623.516 126.48 621.055 125.016 621.055 122.711C621.055 120.387 623.516 118.922 627.168 118.922ZM627.168 120.172C624.453 120.172 622.617 121.168 622.637 122.711C622.617 124.254 624.453 125.23 627.168 125.23C629.863 125.23 631.719 124.254 631.719 122.711C631.719 121.168 629.863 120.172 627.168 120.172Z" fill="black"/>
<path d="M196 29L196 161" stroke="url(#paint1_linear_469_1759)" stroke-width="2"/>
<path d="M72.0117 129.207C72.0117 131.551 73.418 133.836 76.1523 134.773L74.9609 136.473C73.0566 135.75 71.6895 134.373 70.957 132.645C70.1855 134.578 68.75 136.111 66.6797 136.883L65.5273 135.164C68.3594 134.207 69.8047 131.766 69.8242 129.188V127.176H72.0117V129.207ZM80.3711 126.102V139.207H78.2031V131.766H74.6875V129.988H78.2031V126.102H80.3711ZM80.7617 141.629V143.387H68.7305V137.781H70.9375V141.629H80.7617ZM85.625 126.863V129.109H89.7461V126.863H91.8945V134.559H83.4766V126.863H85.625ZM85.625 132.84H89.7461V130.75H85.625V132.84ZM96.7969 126.082V129.656H99.2578V131.414H96.7969V135.125H94.6289V126.082H96.7969ZM96.7969 135.828V140.457H87.4219V141.863H97.3438V143.582H85.2734V138.875H94.6289V137.527H85.2539V135.828H96.7969ZM119.648 126.082V143.738H117.461V126.082H119.648ZM114.375 127.957C114.375 133.211 112.344 137.684 106.152 140.613L105.02 138.875C109.639 136.678 111.787 133.689 112.168 129.676H105.918V127.957H114.375ZM136.836 126.883V128.621H131.719C131.914 130.281 134.072 131.863 137.48 132.273L136.66 133.992C133.496 133.611 131.162 132.215 130.215 130.301C129.268 132.205 126.953 133.611 123.789 133.992L122.988 132.273C126.396 131.863 128.525 130.281 128.73 128.621H123.652V126.883H136.836ZM138.301 134.969V136.727H131.484V139.949H129.336V136.727H122.168V134.969H138.301ZM136.523 141.629V143.387H124.121V138.328H126.289V141.629H136.523Z" fill="black"/>
<circle cx="102.227" cy="72.227" r="35.227" fill="#CCE0FF"/>
<g filter="url(#filter0_i_469_1759)">
<circle cx="102.227" cy="72.2269" r="33.1446" fill="#CCE0FF"/>
</g>
<g filter="url(#filter1_d_469_1759)">
<path d="M111.087 62.3562C112.646 60.7979 115.172 60.7979 116.731 62.3562C118.29 63.9149 118.29 66.4421 116.731 68.0008L102.281 82.4519C100.908 83.825 98.7829 83.9882 97.2309 82.9422C96.9923 82.7894 96.7657 82.6097 96.5571 82.4012L88.1918 74.0359C86.6333 72.4773 86.6333 69.95 88.1918 68.3914C89.7504 66.8328 92.2777 66.8329 93.8364 68.3914L99.4438 73.9988L111.087 62.3562Z" fill="#69A4FF"/>
</g>
<defs>
<filter id="filter0_i_469_1759" x="69.0825" y="39.0823" width="70.2891" height="69.2893" filterUnits="userSpaceOnUse" color-interpolation-filters="sRGB">
<feFlood flood-opacity="0" result="BackgroundImageFix"/>
<feBlend mode="normal" in="SourceGraphic" in2="BackgroundImageFix" result="shape"/>
<feColorMatrix in="SourceAlpha" type="matrix" values="0 0 0 0 0 0 0 0 0 0 0 0 0 0 0 0 0 0 127 0" result="hardAlpha"/>
<feOffset dx="4" dy="3"/>
<feGaussianBlur stdDeviation="3.5"/>
<feComposite in2="hardAlpha" operator="arithmetic" k2="-1" k3="1"/>
<feColorMatrix type="matrix" values="0 0 0 0 1 0 0 0 0 1 0 0 0 0 1 0 0 0 0.3 0"/>
<feBlend mode="normal" in2="shape" result="effect1_innerShadow_469_1759"/>
</filter>
<filter id="filter1_d_469_1759" x="80.0229" y="55.1875" width="50.877" height="42.4333" filterUnits="userSpaceOnUse" color-interpolation-filters="sRGB">
<feFlood flood-opacity="0" result="BackgroundImageFix"/>
<feColorMatrix in="SourceAlpha" type="matrix" values="0 0 0 0 0 0 0 0 0 0 0 0 0 0 0 0 0 0 127 0" result="hardAlpha"/>
<feOffset dx="3" dy="4"/>
<feGaussianBlur stdDeviation="5"/>
<feComposite in2="hardAlpha" operator="out"/>
<feColorMatrix type="matrix" values="0 0 0 0 0.411765 0 0 0 0 0.643137 0 0 0 0 1 0 0 0 0.6 0"/>
<feBlend mode="normal" in2="BackgroundImageFix" result="effect1_dropShadow_469_1759"/>
<feBlend mode="normal" in="SourceGraphic" in2="effect1_dropShadow_469_1759" result="shape"/>
</filter>
<linearGradient id="paint0_linear_469_1759" x1="-0.691317" y1="94" x2="1064.03" y2="93.9999" gradientUnits="userSpaceOnUse">
<stop stop-color="#3182F6"/>
<stop offset="1" stop-color="#A009FF"/>
</linearGradient>
<linearGradient id="paint1_linear_469_1759" x1="195.999" y1="95" x2="197.391" y2="95" gradientUnits="userSpaceOnUse">
<stop stop-color="#3182F6"/>
<stop offset="1" stop-color="#A009FF"/>
</linearGradient>
</defs>
</svg>
