<svg width="1078" height="188" viewBox="0 0 1078 188" fill="none" xmlns="http://www.w3.org/2000/svg">
<rect x="2" y="2" width="1074" height="184" rx="13" fill="white" stroke="url(#paint0_linear_469_1605)" stroke-width="4"/>
<path d="M408.922 66.3672C407.828 66.3672 406.93 65.4688 406.93 64.3555C406.93 63.2617 407.828 62.3633 408.922 62.3633C410.035 62.3633 410.934 63.2617 410.934 64.3555C410.934 65.4688 410.035 66.3672 408.922 66.3672ZM440.602 68.1836V69.4531H424.703V68.1836H429.137V64.043H426.148V62.7734H428.863V57.1094H426.109V55.8398H439.078V57.1094H436.324V62.7734H439.039V64.043H436.051V68.1836H440.602ZM430.387 62.7734H434.82V57.1094H430.387V62.7734ZM430.68 68.1836H434.527V64.043H430.68V68.1836ZM450.895 56.3867C450.875 58.5156 453.805 60.2539 456.871 60.6836L456.266 61.8945C453.463 61.4941 450.846 60.0879 449.898 58.0469C448.961 60.0879 446.354 61.4941 443.531 61.8945L442.965 60.6836C446.031 60.2539 448.902 58.5156 448.902 56.3867V56.3477H443.434V55.0977H456.402V56.3477H450.895V56.3867ZM457.867 63.1641V64.4336H450.797V67.9883H449.273V64.4336H441.969V63.1641H457.867ZM456.09 69.9219V71.2109H444V66.25H445.543V69.9219H456.09ZM472.75 54.2188V61.6211H475.523V62.9102H472.75V71.582H471.207V54.2188H472.75ZM459.059 66.9531C460.475 66.9531 462.125 66.9531 463.844 66.8945V64.9609C461.822 64.7363 460.504 63.5547 460.523 61.8359C460.504 59.8828 462.164 58.6133 464.625 58.6133C467.047 58.6133 468.727 59.8828 468.746 61.8359C468.727 63.5547 467.389 64.7363 465.387 64.9805V66.8359C467.008 66.7578 468.639 66.6309 470.152 66.4062L470.25 67.5781C466.461 68.2227 462.359 68.2617 459.312 68.2617L459.059 66.9531ZM469.84 56.3477V57.5977H459.371V56.3477H463.844V54.2578H465.387V56.3477H469.84ZM464.625 59.8047C463.023 59.8047 461.949 60.625 461.949 61.8359C461.949 63.0469 463.023 63.8281 464.625 63.8086C466.207 63.8281 467.281 63.0469 467.281 61.8359C467.281 60.625 466.207 59.8047 464.625 59.8047ZM486.656 59.9219V61.1719H483.141V63.5938C484.762 63.5254 486.383 63.4082 487.887 63.2422L488.004 64.375C484.273 64.8828 480.133 65 476.871 65L476.637 63.75C478.16 63.7402 479.869 63.7207 481.617 63.6523V61.1719H478.219V55.3516H486.52V56.6211H479.762V59.9219H486.656ZM490.875 54.2383V67.2266H489.332V54.2383H490.875ZM491.441 69.9219V71.2109H479.605V66.3281H481.129V69.9219H491.441ZM513.199 54.2383V66.9727H511.676V54.2383H513.199ZM513.746 69.9219V71.2109H501.988V65.8008H503.512V69.9219H513.746ZM505.016 56.9531C504.996 59.5898 506.812 61.9727 509.391 62.9102L508.59 64.1406C506.578 63.3691 505.016 61.8066 504.254 59.8047C503.482 61.9336 501.9 63.6426 499.879 64.4531L499.039 63.2617C501.676 62.2461 503.453 59.6875 503.453 56.9531V55.2148H505.016V56.9531ZM529.781 55.3516V56.6797C529.781 58.2422 529.781 60.1758 529.293 62.9297H531.969V64.1992H527.789V71.582H526.266V64.1992H521.812V71.582H520.289V64.1992H516.148V62.9297H527.73C528.297 60.1953 528.297 58.2324 528.297 56.6797V56.6211H518.18V55.3516H529.781ZM552.027 54.2188V58.75H554.645V60.0195H552.027V64.6484H550.504V54.2188H552.027ZM547.301 55.5078C547.301 59.9219 544.176 63.1836 539.117 64.668L538.473 63.418C542.662 62.207 545.338 59.7949 545.66 56.7773H539.234V55.5078H547.301ZM546.539 64.8438C550.035 64.8438 552.223 66.1133 552.223 68.1836C552.223 70.293 550.035 71.543 546.539 71.543C543.082 71.543 540.836 70.293 540.855 68.1836C540.836 66.1133 543.082 64.8438 546.539 64.8438ZM546.539 66.0742C544 66.0547 542.359 66.875 542.379 68.1836C542.359 69.4922 544 70.3125 546.539 70.3125C549.098 70.3125 550.738 69.4922 550.738 68.1836C550.738 66.875 549.098 66.0547 546.539 66.0742ZM561.559 58.8867C561.559 61.9531 563.59 65.0977 566.051 66.3086L565.113 67.5391C563.199 66.5332 561.598 64.4824 560.836 62.0703C560.055 64.6387 558.414 66.8262 556.461 67.8711L555.484 66.6406C558.023 65.3906 560.035 62.0508 560.055 58.8867V55.7227H561.559V58.8867ZM569.176 54.2188V61.2695H572.086V62.5977H569.176V71.582H567.652V54.2188H569.176ZM591.988 55.9766V57.9102C591.988 60.1367 591.988 62.3828 591.363 65.6055L589.859 65.4297C590.484 62.3633 590.484 60.0781 590.484 57.9102V57.2461H579.703V55.9766H591.988ZM593.863 67.8516V69.1211H578.043V67.8516H581.969V62.1289H583.492V67.8516H586.305V62.1289H587.809V67.8516H593.863ZM611.148 62.5977V63.8477H606.93V66.0547H609.195V71.582H607.652V67.2852H597.086V66.0547H599.527V63.8477H595.328V62.5977H611.148ZM603.238 54.6484C607.008 54.6289 609.371 55.8789 609.371 57.9492C609.371 60.0391 607.008 61.2891 603.238 61.2695C599.469 61.2891 597.086 60.0391 597.086 57.9492C597.086 55.8789 599.469 54.6289 603.238 54.6484ZM603.238 55.8789C600.426 55.8594 598.648 56.6602 598.668 57.9492C598.648 59.2773 600.426 60.0781 603.238 60.0781C606.012 60.0781 607.809 59.2773 607.809 57.9492C607.809 56.6602 606.012 55.8594 603.238 55.8789ZM601.07 66.0547H605.426V63.8477H601.07V66.0547ZM633.531 68.0469V69.3555H617.633V68.0469H633.531ZM632.008 55.9766V57.2461H629.254V63.3203H631.969V64.5703H619.078V63.3203H621.793V57.2461H619.039V55.9766H632.008ZM623.316 63.3203H627.75V57.2461H623.316V63.3203ZM650.816 68.1445V69.4336H634.918V68.1445H642.066V64.8633H636.91V59.5117H647.301V56.7773H636.871V55.5078H648.805V60.7617H638.434V63.5938H649.215V64.8633H643.57V68.1445H650.816ZM665.895 56.0742V57.8125C665.895 60 665.895 62.4805 665.25 66.25L663.688 66.0938C664.391 62.5391 664.391 59.9414 664.391 57.8125V57.3438H653.922V56.0742H665.895ZM668.023 67.7539V69.0234H652.203V67.7539H668.023ZM684.234 54.2383V64.5898H682.77V59.9219H680.328V64.3555H678.902V54.5703H680.328V58.6523H682.77V54.2383H684.234ZM684.234 65.4102V71.3477H672.77V65.4102H684.234ZM674.273 66.6602V70.0977H682.73V66.6602H674.273ZM676.832 55.3711V60.0977H671.773V62.5977C674.059 62.5879 675.807 62.4805 677.867 62.0703L678.043 63.3203C675.797 63.75 673.941 63.8086 671.422 63.8086H670.289V58.9062H675.367V56.6211H670.25V55.3711H676.832ZM694.684 54.5312C698.551 54.5312 700.816 55.5859 700.816 57.5195C700.816 59.4922 698.551 60.5469 694.684 60.5664C690.816 60.5469 688.531 59.4922 688.531 57.5195C688.531 55.5859 690.816 54.5312 694.684 54.5312ZM694.684 55.6836C691.793 55.6836 690.113 56.3867 690.133 57.5195C690.113 58.7305 691.793 59.3945 694.684 59.3945C697.555 59.3945 699.254 58.7305 699.254 57.5195C699.254 56.3867 697.555 55.6836 694.684 55.6836ZM702.594 61.7383V62.9883H686.773V61.7383H702.594ZM700.562 64.4922V68.3789H690.25V70.1758H701.09V71.3867H688.727V67.2461H699.059V65.6641H688.688V64.4922H700.562ZM724.898 63.4375V64.6875H709.059V63.4375H716.207V61.7188H711.168V54.7266H722.926V55.9766H712.711V57.5977H722.457V58.7695H712.711V60.4883H723.023V61.7188H717.73V63.4375H724.898ZM716.988 65.9961C720.797 65.9766 722.945 66.9531 722.965 68.7695C722.945 70.5859 720.797 71.543 716.988 71.543C713.141 71.543 710.992 70.5859 710.992 68.7695C710.992 66.9531 713.141 65.9766 716.988 65.9961ZM716.988 67.1484C714.117 67.1484 712.516 67.7344 712.535 68.7695C712.516 69.8242 714.117 70.3711 716.988 70.3516C719.82 70.3711 721.422 69.8242 721.422 68.7695C721.422 67.7344 719.82 67.1484 716.988 67.1484ZM739.938 54.2383V59.9609H742.555V61.25H739.938V67.2461H738.414V54.2383H739.938ZM736.754 56.3672V57.6172H726.402V56.3672H730.816V54.2383H732.34V56.3672H736.754ZM731.578 58.5742C734.059 58.5742 735.738 59.8438 735.758 61.8164C735.738 63.7695 734.059 65.0195 731.578 65.0195C729.078 65.0195 727.379 63.7695 727.398 61.8164C727.379 59.8438 729.078 58.5742 731.578 58.5742ZM731.578 59.7852C729.938 59.7852 728.844 60.5859 728.863 61.8164C728.844 63.0469 729.938 63.8281 731.578 63.8086C733.199 63.8281 734.293 63.0469 734.312 61.8164C734.293 60.5859 733.199 59.7852 731.578 59.7852ZM740.738 69.9219V71.2109H729.078V66.2109H730.582V69.9219H740.738ZM764.566 68.1055V69.3945H748.668V68.1055H755.836V64.1211H757.34V68.1055H764.566ZM763.043 56.9922V58.2617H757.379C757.389 60.9863 760.279 62.9883 763.609 63.5352L763.023 64.7461C760.24 64.248 757.691 62.8516 756.598 60.6836C755.494 62.8516 752.945 64.248 750.152 64.7461L749.547 63.5352C752.896 62.9883 755.807 60.9863 755.816 58.2617H750.152V56.9922H755.836V54.5898H757.34V56.9922H763.043ZM780.309 54.2188V71.582H778.766V54.2188H780.309ZM775.172 56.1133C775.152 61.1133 772.828 65.5273 767.008 68.3203L766.168 67.0703C770.865 64.8438 773.258 61.5137 773.609 57.3633H766.969V56.1133H775.172ZM802.652 65.4102V71.582H801.109V66.6406H790.973V65.4102H802.652ZM802.652 54.2188V64.4531H801.109V61.9531H796.637C795.826 62.9395 794.547 63.5254 793.043 63.5156C790.445 63.5352 788.531 61.8164 788.531 59.3555C788.531 56.9336 790.445 55.2148 793.043 55.2148C794.537 55.2148 795.816 55.8008 796.637 56.7773H801.109V54.2188H802.652ZM793.043 56.5234C791.266 56.5234 789.996 57.7148 789.996 59.3555C789.996 61.0547 791.266 62.2266 793.043 62.2266C794.742 62.2266 796.051 61.0547 796.051 59.3555C796.051 57.7148 794.742 56.5234 793.043 56.5234ZM797.32 60.6836H801.109V58.0469H797.32C797.457 58.457 797.535 58.8867 797.535 59.3555C797.535 59.8242 797.457 60.2734 797.32 60.6836ZM821.754 56.9531V58.2422H819.117V60.6055H821.754V61.9141H819.117V64.7461H817.594V54.2383H819.117V56.9531H821.754ZM814.156 55.3125V60H807.828V62.4219C810.914 62.4219 813.15 62.3145 815.855 61.8555L816.012 63.1445C813.219 63.6133 810.895 63.7109 807.672 63.7109H806.324V58.7891H812.652V56.582H806.285V55.3125H814.156ZM813.551 65.2539C817.086 65.2539 819.273 66.4258 819.273 68.418C819.273 70.4102 817.086 71.543 813.551 71.543C809.957 71.543 807.789 70.4102 807.789 68.418C807.789 66.4258 809.957 65.2539 813.551 65.2539ZM813.551 66.4648C810.895 66.4648 809.273 67.1875 809.293 68.418C809.273 69.6289 810.895 70.3516 813.551 70.3516C816.188 70.3516 817.789 69.6289 817.789 68.418C817.789 67.1875 816.188 66.4648 813.551 66.4648ZM841.422 54.2188V58.75H844.039V60.0195H841.422V64.6484H839.898V54.2188H841.422ZM836.695 55.5078C836.695 59.9219 833.57 63.1836 828.512 64.668L827.867 63.418C832.057 62.207 834.732 59.7949 835.055 56.7773H828.629V55.5078H836.695ZM835.934 64.8438C839.43 64.8438 841.617 66.1133 841.617 68.1836C841.617 70.293 839.43 71.543 835.934 71.543C832.477 71.543 830.23 70.293 830.25 68.1836C830.23 66.1133 832.477 64.8438 835.934 64.8438ZM835.934 66.0742C833.395 66.0547 831.754 66.875 831.773 68.1836C831.754 69.4922 833.395 70.3125 835.934 70.3125C838.492 70.3125 840.133 69.4922 840.133 68.1836C840.133 66.875 838.492 66.0547 835.934 66.0742ZM858.609 54.2188V61.6211H861.383V62.9102H858.609V71.582H857.066V54.2188H858.609ZM844.918 66.9531C846.334 66.9531 847.984 66.9531 849.703 66.8945V64.9609C847.682 64.7363 846.363 63.5547 846.383 61.8359C846.363 59.8828 848.023 58.6133 850.484 58.6133C852.906 58.6133 854.586 59.8828 854.605 61.8359C854.586 63.5547 853.248 64.7363 851.246 64.9805V66.8359C852.867 66.7578 854.498 66.6309 856.012 66.4062L856.109 67.5781C852.32 68.2227 848.219 68.2617 845.172 68.2617L844.918 66.9531ZM855.699 56.3477V57.5977H845.23V56.3477H849.703V54.2578H851.246V56.3477H855.699ZM850.484 59.8047C848.883 59.8047 847.809 60.625 847.809 61.8359C847.809 63.0469 848.883 63.8281 850.484 63.8086C852.066 63.8281 853.141 63.0469 853.141 61.8359C853.141 60.625 852.066 59.8047 850.484 59.8047ZM408.922 98.3672C407.828 98.3672 406.93 97.4688 406.93 96.3555C406.93 95.2617 407.828 94.3633 408.922 94.3633C410.035 94.3633 410.934 95.2617 410.934 96.3555C410.934 97.4688 410.035 98.3672 408.922 98.3672ZM433.531 88.0352C433.512 93.0547 431.734 97.6445 425.602 100.711L424.723 99.5391C427.916 97.9375 429.889 95.9355 430.973 93.582L425.055 94.1484L424.781 92.8203L431.441 92.3711C431.754 91.4043 431.939 90.3789 432.008 89.3047H425.66V88.0352H433.531ZM439.078 86.2188V103.582H437.555V94.4805H433.473V93.2109H437.555V86.2188H439.078ZM456.324 86.2188V103.621H454.801V86.2188H456.324ZM451.051 87.8398V94.0117H444.566V98.1133C447.447 98.1133 450.016 97.9863 453.121 97.4883L453.277 98.7773C450.074 99.2852 447.438 99.4023 444.449 99.4023H443.004V92.7617H449.508V89.1094H442.965V87.8398H451.051ZM473.082 86.9805V88.2891C473.082 89.5879 473.082 91.1406 472.672 93.1523H475.094V94.4023H470.836V96.2773H473.219V100.301H462.711V102.117H473.824V103.348H461.188V99.1484H471.695V97.4688H461.148V96.2773H463.531V94.4023H459.293V93.1523H471.129C471.295 92.3516 471.402 91.6289 471.461 90.9648L461.07 91.4531L460.875 90.1836L471.539 89.8516C471.559 89.3047 471.559 88.7871 471.559 88.2891V88.2109H461.285V86.9805H473.082ZM465.055 96.2773H469.312V94.4023H465.055V96.2773ZM490.953 97.4102V103.348H479.527V97.4102H490.953ZM481.051 98.6016V102.098H489.43V98.6016H481.051ZM490.953 86.2383V96.4336H489.41V91.4141H486.109V90.1445H489.41V86.2383H490.953ZM484.996 87.1172V91.9219H478.824V94.4414C481.686 94.4512 483.834 94.3535 486.441 93.9336L486.578 95.2227C483.844 95.6523 481.617 95.7305 478.609 95.7109H477.301V90.7305H483.512V88.3867H477.262V87.1172H484.996ZM513.18 86.2188V103.621H511.637V86.2188H513.18ZM503.941 87.5664C506.52 87.5859 508.375 89.9297 508.375 93.6211C508.375 97.3125 506.52 99.6562 503.941 99.6562C501.344 99.6562 499.508 97.3125 499.508 93.6211C499.508 89.9297 501.344 87.5859 503.941 87.5664ZM503.941 88.9336C502.203 88.9531 500.992 90.7891 500.992 93.6211C500.992 96.4531 502.203 98.2891 503.941 98.2891C505.68 98.2891 506.891 96.4531 506.891 93.6211C506.891 90.7891 505.68 88.9531 503.941 88.9336ZM524.82 89.2266V90.4766H516.109V89.2266H519.723V86.7461H521.246V89.2266H524.82ZM520.465 91.6484C522.652 91.6484 524.215 93.2891 524.234 95.5938C524.215 97.918 522.652 99.5781 520.465 99.5781C518.297 99.5781 516.734 97.918 516.734 95.5938C516.734 93.2891 518.297 91.6484 520.465 91.6484ZM520.465 92.9375C519.098 92.957 518.102 94.0703 518.102 95.5938C518.102 97.1367 519.098 98.25 520.465 98.2305C521.852 98.25 522.867 97.1367 522.867 95.5938C522.867 94.0703 521.852 92.957 520.465 92.9375ZM530.934 86.2188V103.582H529.469V94.8125H527.164V102.723H525.719V86.6484H527.164V93.543H529.469V86.2188H530.934ZM549.312 96.5312V97.7812H542.066V103.582H540.562V97.7812H533.414V96.5312H549.312ZM536.969 86.9414V89.3438H545.719V86.9414H547.262V94.4219H535.445V86.9414H536.969ZM536.969 93.1719H545.719V90.5938H536.969V93.1719ZM565.113 86.2188V103.621H563.59V94.0508H559.918V92.7812H563.59V86.2188H565.113ZM559.625 87.8203V89.0898H553.062V92.7031H558.863V93.9531H553.062V98.1523C556.256 98.1523 558.287 98.0449 560.68 97.625L560.855 98.8945C558.336 99.3047 556.207 99.4219 552.848 99.4219H551.52V87.8203H559.625ZM581.734 87.8398C581.734 90.2812 584.938 92.4102 588.062 92.8398L587.438 94.0898C584.742 93.6406 582.076 92.1465 580.953 90.0078C579.84 92.1562 577.164 93.6406 574.469 94.0898L573.844 92.8398C576.969 92.4102 580.152 90.3203 580.152 87.8398V86.8438H581.734V87.8398ZM588.844 96.0039V97.293H581.656V103.582H580.152V97.293H573.023V96.0039H588.844ZM595.094 87.0391C597.428 87.0195 599.195 88.377 599.527 90.3789H603.16V86.2188H604.703V95.5352H603.16V91.6484H599.547C599.234 93.6992 597.447 95.0664 595.094 95.0664C592.457 95.0664 590.582 93.4258 590.582 91.043C590.582 88.6797 592.457 87.0195 595.094 87.0391ZM595.094 88.3477C593.316 88.3281 592.047 89.4414 592.047 91.043C592.047 92.625 593.316 93.7773 595.094 93.7773C596.852 93.7773 598.102 92.625 598.102 91.043C598.102 89.4414 596.852 88.3281 595.094 88.3477ZM595.055 96.4141V98.6211H603.16V96.4141H604.703V103.348H593.512V96.4141H595.055ZM595.055 102.098H603.16V99.8516H595.055V102.098ZM627.008 86.2188V95.2031H625.465V90.6914H621.598V89.4219H625.465V86.2188H627.008ZM627.008 96.082V100.223H617.301V102.117H627.652V103.348H615.797V99.0508H625.484V97.3125H615.758V96.082H627.008ZM618.531 88.4258C618.512 90.7109 620.309 92.7812 622.848 93.6211L622.027 94.8125C620.104 94.1289 618.57 92.7617 617.809 91.0039C617.066 92.9863 615.494 94.5 613.434 95.2422L612.594 94.0117C615.211 93.1523 617.008 90.9648 617.027 88.4258V86.7852H618.531V88.4258ZM644.762 86.2188V103.582H643.297V86.2188H644.762ZM641.246 86.6875V102.703H639.781V96.6875H636.559V95.418H639.781V92.332H636.852C636.002 95.2715 634.098 97.8691 630.816 99.832L629.879 98.7188C633.658 96.4824 635.553 93.3477 635.855 89.7148H630.66V88.4453H637.379C637.379 89.334 637.301 90.2129 637.145 91.0625H639.781V86.6875H641.246ZM660.934 86.2188V93.3867H663.57V94.6758H660.934V103.582H659.391V86.2188H660.934ZM652.457 88.1133C652.438 92.2539 651.5 96.3164 648.355 99.6562L647.125 98.7773C649.752 96.0918 650.807 92.8594 651.012 89.4023H647.672V88.1133H652.457ZM657.223 88.1133C657.203 92.2344 656.598 97.0195 653.355 100.809L652.105 99.9492C654.82 96.8828 655.641 93.0254 655.777 89.4023H653.004V88.1133H657.223ZM670.68 91.5508C670.68 94.5 672.828 97.4883 675.387 98.6016L674.527 99.8125C672.496 98.8848 670.738 96.8828 669.938 94.4805C669.117 97.0293 667.369 99.2461 665.387 100.242L664.469 99.0312C666.949 97.8398 669.117 94.5586 669.137 91.5508V89.2852H665.035V88.0156H674.82V89.2852H670.68V91.5508ZM678.785 86.2188V103.582H677.242V86.2188H678.785ZM701.09 86.2188V95.2227H699.586V86.2188H701.09ZM701.109 96.1016V100.262H691.363V102.137H701.734V103.387H689.859V99.0703H699.586V97.332H689.82V96.1016H701.109ZM692.926 88.0547C692.906 90.5156 694.781 92.6836 697.359 93.5234L696.598 94.7148C694.566 94.0215 692.945 92.5664 692.164 90.6914C691.383 92.7129 689.752 94.3047 687.691 95.0469L686.891 93.8359C689.508 92.918 691.363 90.6133 691.363 88.0547V86.7266H692.926V88.0547ZM719.938 96.3164V97.5859H712.691V103.582H711.188V97.5859H704.039V96.3164H719.938ZM717.867 87.1953V93.9531H706.09V87.1953H717.867ZM707.594 88.4453V92.7422H716.344V88.4453H707.594ZM742.184 94.3438V95.6133H735.016V97.4688C738.297 97.6055 740.23 98.6797 740.25 100.516C740.23 102.449 738.004 103.543 734.273 103.543C730.504 103.543 728.277 102.449 728.277 100.516C728.277 98.6797 730.201 97.6055 733.512 97.4688V95.6133H726.363V94.3438H742.184ZM734.273 98.6406C731.48 98.6602 729.82 99.3438 729.84 100.516C729.82 101.668 731.48 102.352 734.273 102.352C737.027 102.352 738.707 101.668 738.707 100.516C738.707 99.3438 737.027 98.6602 734.273 98.6406ZM740.777 87.0391V88.2891H735.27C735.367 90.2422 738.238 91.7559 741.305 92.0781L740.738 93.2891C737.896 92.9473 735.23 91.6777 734.273 89.7344C733.326 91.6777 730.67 92.9473 727.809 93.2891L727.262 92.0781C730.27 91.7559 733.16 90.2422 733.277 88.2891H727.809V87.0391H740.777ZM757.984 86.2383V96.1016H756.461V86.2383H757.984ZM757.984 97.0977V103.348H746.695V97.0977H757.984ZM748.199 98.3477V102.098H756.48V98.3477H748.199ZM749.801 88.6211C749.781 91.082 751.656 93.25 754.215 94.1484L753.434 95.3203C751.422 94.627 749.82 93.1621 749.039 91.2578C748.268 93.2891 746.646 94.8906 744.566 95.6523L743.785 94.4414C746.422 93.5234 748.238 91.1797 748.238 88.6211V86.9219H749.801V88.6211ZM780.016 95.6133V96.8633H768.004V87.7227H779.82V89.0117H769.566V91.5898H779.449V92.8203H769.566V95.6133H780.016ZM781.852 100.047V101.316H765.953V100.047H781.852ZM790.016 88.1523V94.1484H785.309V98.0156C787.311 98.0059 789.205 97.9375 791.52 97.5273L791.637 98.7969C789.156 99.2461 787.184 99.2852 784.977 99.3047H783.824V92.8789H788.551V89.4219H783.785V88.1523H790.016ZM798.082 86.2188V103.582H796.617V86.2188H798.082ZM794.527 86.6484V102.664H793.082V93.7383H790.855V92.4883H793.082V86.6484H794.527ZM814.84 86.2188V103.621H813.297V86.2188H814.84ZM805.602 87.5664C808.18 87.5859 810.035 89.9297 810.035 93.6211C810.035 97.3125 808.18 99.6562 805.602 99.6562C803.004 99.6562 801.168 97.3125 801.168 93.6211C801.168 89.9297 803.004 87.5859 805.602 87.5664ZM805.602 88.9336C803.863 88.9531 802.652 90.7891 802.652 93.6211C802.652 96.4531 803.863 98.2891 805.602 98.2891C807.34 98.2891 808.551 96.4531 808.551 93.6211C808.551 90.7891 807.34 88.9531 805.602 88.9336ZM832.105 86.2188V96.6484H830.582V86.2188H832.105ZM820.445 87.3711V93.7969C823.512 93.7871 825.992 93.6113 828.688 93.0156L828.902 94.3047C826.051 94.9102 823.492 95.1055 820.309 95.0859H818.902V87.3711H820.445ZM826.324 96.7461C829.938 96.7461 832.184 98.0156 832.184 100.164C832.184 102.293 829.938 103.543 826.324 103.543C822.691 103.543 820.445 102.293 820.445 100.164C820.445 98.0156 822.691 96.7461 826.324 96.7461ZM826.324 98.0156C823.629 98.0156 821.988 98.7969 821.988 100.164C821.988 101.492 823.629 102.312 826.324 102.312C829 102.312 830.641 101.492 830.66 100.164C830.641 98.7969 829 98.0156 826.324 98.0156ZM408.922 130.367C407.828 130.367 406.93 129.469 406.93 128.355C406.93 127.262 407.828 126.363 408.922 126.363C410.035 126.363 410.934 127.262 410.934 128.355C410.934 129.469 410.035 130.367 408.922 130.367ZM439.098 118.219V128.57H437.555V124.02H434.059V122.75H437.555V118.219H439.098ZM433.336 129.117C436.949 129.117 439.156 130.289 439.156 132.34C439.156 134.391 436.949 135.562 433.336 135.582C429.723 135.562 427.516 134.391 427.516 132.34C427.516 130.289 429.723 129.117 433.336 129.117ZM433.336 130.309C430.68 130.309 429.02 131.07 429.039 132.34C429.02 133.59 430.68 134.352 433.336 134.352C435.992 134.352 437.633 133.59 437.633 132.34C437.633 131.07 435.992 130.309 433.336 130.309ZM430.738 121.402C430.738 123.668 432.477 125.816 435.016 126.695L434.215 127.926C432.262 127.223 430.748 125.768 430.016 123.961C429.254 126.002 427.643 127.633 425.582 128.414L424.781 127.184C427.359 126.246 429.195 123.902 429.195 121.422V120.777H425.27V119.488H434.625V120.777H430.738V121.402ZM456.344 118.219V135.582H454.801V118.219H456.344ZM451.207 120.113C451.188 125.113 448.863 129.527 443.043 132.32L442.203 131.07C446.9 128.844 449.293 125.514 449.645 121.363H443.004V120.113H451.207ZM478.648 118.219V135.582H477.105V118.219H478.648ZM474.645 120.113V121.383H472.672V129.742C473.648 129.674 474.615 129.586 475.543 129.469L475.641 130.621C471.852 131.207 467.672 131.266 464.449 131.285L464.273 129.977L466.676 129.957V121.383H464.723V120.113H474.645ZM468.18 129.938C469.156 129.918 470.162 129.879 471.168 129.82V121.383H468.18V129.938ZM495.602 126.578V127.848H483.609V119.84H495.426V121.109H485.133V126.578H495.602ZM497.477 131.93V133.219H481.578V131.93H497.477ZM501.109 119.332V122.086H504.977V119.332H506.422V127.418H499.664V119.332H501.109ZM501.109 126.148H504.977V123.316H501.109V126.148ZM513.609 118.238V128.648H512.145V124.02H509.84V128.551H508.395V118.57H509.84V122.75H512.145V118.238H513.609ZM513.609 129.703V135.582H512.105V130.973H501.91V129.703H513.609ZM519 132.691L517.477 138.004H516.031L517.105 132.691H519ZM540.621 118.219V135.621H539.098V118.219H540.621ZM535.348 119.84V126.012H528.863V130.113C531.744 130.113 534.312 129.986 537.418 129.488L537.574 130.777C534.371 131.285 531.734 131.402 528.746 131.402H527.301V124.762H533.805V121.109H527.262V119.84H535.348ZM557.887 118.766V119.977H555.211V123.336H557.828V124.527H545.113V123.336H547.73V119.977H545.055V118.766H557.887ZM559.391 125.992V127.223H543.57V125.992H559.391ZM557.359 128.785V132.555H547.047V134.215H557.887V135.387H545.523V131.441H555.855V129.938H545.484V128.785H557.359ZM549.254 123.336H553.688V119.977H549.254V123.336ZM575.602 129.918V135.582H574.098V131.148H563.902V129.918H575.602ZM567.809 119.547V124.371H563.141V126.988C565.416 126.979 567.115 126.871 569.176 126.441L569.352 127.711C567.125 128.121 565.289 128.238 562.77 128.219H561.656V123.219H566.344V120.797H561.617V119.547H567.809ZM575.602 118.238V129.039H574.137V118.238H575.602ZM572.164 118.57V128.922H570.699V123.961H568.492V122.691H570.699V118.57H572.164ZM584.078 121.441C584.078 123.98 585.816 126.383 588.336 127.379L587.477 128.57C585.562 127.779 584.078 126.197 583.355 124.215C582.604 126.354 581.041 128.053 579.02 128.883L578.18 127.652C580.758 126.656 582.555 124.156 582.574 121.441V119.215H584.078V121.441ZM592.535 118.238V131.207H590.992V125.641H587.418V124.391H590.992V122.086H587.418V120.816H590.992V118.238H592.535ZM592.926 133.922V135.211H581.305V129.859H582.848V133.922H592.926ZM598.277 132.691L596.754 138.004H595.309L596.383 132.691H598.277ZM620.309 118.219V131.227H618.844V118.219H620.309ZM616.988 118.57V130.719H615.523V124.41H613.082V127.828H606.363V119.898H613.082V123.121H615.523V118.57H616.988ZM620.836 133.922V135.211H608.922V129.605H610.445V133.922H620.836ZM607.809 121.129V126.617H611.656V121.129H607.809ZM636.91 127.262V128.512H631.52V132.145H638.746V133.414H622.848V132.145H629.996V128.512H624.898V119.645H636.715V120.914H626.461V123.395H636.344V124.645H626.461V127.262H636.91ZM654.469 118.238V128.922H652.945V118.238H654.469ZM648.941 119.332V124.098H642.535V126.559C645.641 126.559 647.965 126.48 650.777 126.012L650.953 127.281C648.043 127.75 645.66 127.848 642.457 127.848H641.051V122.887H647.418V120.621H641.012V119.332H648.941ZM648.707 129.273C652.359 129.273 654.586 130.426 654.586 132.418C654.586 134.41 652.359 135.543 648.707 135.543C645.055 135.543 642.848 134.41 642.848 132.418C642.848 130.426 645.055 129.273 648.707 129.273ZM648.707 130.504C646.012 130.504 644.352 131.227 644.352 132.418C644.352 133.609 646.012 134.312 648.707 134.312C651.402 134.312 653.043 133.609 653.043 132.418C653.043 131.227 651.402 130.504 648.707 130.504ZM665.328 118.531C669.195 118.531 671.461 119.586 671.461 121.52C671.461 123.492 669.195 124.547 665.328 124.566C661.461 124.547 659.176 123.492 659.176 121.52C659.176 119.586 661.461 118.531 665.328 118.531ZM665.328 119.684C662.438 119.684 660.758 120.387 660.777 121.52C660.758 122.73 662.438 123.395 665.328 123.395C668.199 123.395 669.898 122.73 669.898 121.52C669.898 120.387 668.199 119.684 665.328 119.684ZM673.238 125.738V126.988H657.418V125.738H673.238ZM671.207 128.492V132.379H660.895V134.176H671.734V135.387H659.371V131.246H669.703V129.664H659.332V128.492H671.207ZM695.543 127.438V128.688H679.703V127.438H686.852V125.719H681.812V118.727H693.57V119.977H683.355V121.598H693.102V122.77H683.355V124.488H693.668V125.719H688.375V127.438H695.543ZM687.633 129.996C691.441 129.977 693.59 130.953 693.609 132.77C693.59 134.586 691.441 135.543 687.633 135.543C683.785 135.543 681.637 134.586 681.637 132.77C681.637 130.953 683.785 129.977 687.633 129.996ZM687.633 131.148C684.762 131.148 683.16 131.734 683.18 132.77C683.16 133.824 684.762 134.371 687.633 134.352C690.465 134.371 692.066 133.824 692.066 132.77C692.066 131.734 690.465 131.148 687.633 131.148ZM710.582 118.238V123.961H713.199V125.25H710.582V131.246H709.059V118.238H710.582ZM707.398 120.367V121.617H697.047V120.367H701.461V118.238H702.984V120.367H707.398ZM702.223 122.574C704.703 122.574 706.383 123.844 706.402 125.816C706.383 127.77 704.703 129.02 702.223 129.02C699.723 129.02 698.023 127.77 698.043 125.816C698.023 123.844 699.723 122.574 702.223 122.574ZM702.223 123.785C700.582 123.785 699.488 124.586 699.508 125.816C699.488 127.047 700.582 127.828 702.223 127.809C703.844 127.828 704.938 127.047 704.957 125.816C704.938 124.586 703.844 123.785 702.223 123.785ZM711.383 133.922V135.211H699.723V130.211H701.227V133.922H711.383ZM725.523 123.551C725.523 126.5 727.672 129.488 730.23 130.602L729.371 131.812C727.34 130.885 725.582 128.883 724.781 126.48C723.961 129.029 722.213 131.246 720.23 132.242L719.312 131.031C721.793 129.84 723.961 126.559 723.98 123.551V121.285H719.879V120.016H729.664V121.285H725.523V123.551ZM733.629 118.219V135.582H732.086V118.219H733.629ZM752.477 126.949V128.219H736.598V126.949H743.746V124.273H745.25V126.949H752.477ZM745.27 119.312C745.27 121.617 748.395 123.551 751.461 123.98L750.836 125.211C748.199 124.752 745.592 123.355 744.508 121.344C743.414 123.365 740.797 124.752 738.141 125.211L737.555 123.98C740.621 123.551 743.727 121.617 743.727 119.312V118.492H745.27V119.312ZM750.465 129.918V135.582H748.922V131.148H738.355V129.918H750.465ZM759.918 121.422C759.918 123.688 761.656 125.836 764.195 126.715L763.395 127.926C761.432 127.223 759.918 125.768 759.176 123.98C758.424 125.982 756.822 127.584 754.762 128.336L753.961 127.125C756.52 126.207 758.375 123.883 758.375 121.441V120.68H754.449V119.43H763.805V120.68H759.918V121.422ZM768.277 129.547V135.582H766.734V130.816H756.598V129.547H768.277ZM768.277 118.219V128.629H766.734V124.059H763.258V122.77H766.734V118.219H768.277ZM785.504 118.238V130.934H783.98V118.238H785.504ZM786.051 133.922V135.211H774.293V129.645H775.816V133.922H786.051ZM776.129 119.449C778.727 119.449 780.68 121.207 780.68 123.707C780.68 126.246 778.727 127.984 776.129 127.984C773.531 127.984 771.578 126.246 771.578 123.707C771.578 121.207 773.531 119.449 776.129 119.449ZM776.129 120.797C774.371 120.797 773.062 122.008 773.082 123.707C773.062 125.445 774.371 126.637 776.129 126.637C777.848 126.637 779.176 125.445 779.176 123.707C779.176 122.008 777.848 120.797 776.129 120.797ZM799.449 120.953C799.43 123.434 801.188 125.621 803.746 126.48L802.887 127.672C800.973 126.949 799.469 125.543 798.727 123.707C797.975 125.787 796.383 127.408 794.293 128.199L793.453 126.949C796.129 126.012 797.906 123.707 797.926 121.012V119.215H799.449V120.953ZM807.867 118.219V128.512H806.324V123.219H802.457V121.949H806.324V118.219H807.867ZM802.105 129.02C805.719 129.02 807.926 130.211 807.926 132.301C807.926 134.371 805.719 135.543 802.105 135.543C798.492 135.543 796.285 134.371 796.285 132.301C796.285 130.211 798.492 129.02 802.105 129.02ZM802.105 130.23C799.449 130.23 797.789 131.012 797.809 132.301C797.789 133.551 799.449 134.312 802.105 134.312C804.762 134.312 806.402 133.551 806.402 132.301C806.402 131.012 804.762 130.23 802.105 130.23ZM816.637 121.52C816.637 123.785 818.336 125.816 820.895 126.656L820.172 127.867C818.17 127.213 816.656 125.826 815.914 124.078C815.162 126.07 813.561 127.623 811.48 128.375L810.699 127.145C813.297 126.266 815.113 124.02 815.133 121.52V120.777H811.168V119.508H820.543V120.777H816.637V121.52ZM824.332 118.219V122.652H826.949V123.941H824.332V128.707H822.809V118.219H824.332ZM818.766 129.176C822.34 129.176 824.488 130.348 824.488 132.34C824.488 134.371 822.34 135.543 818.766 135.543C815.191 135.543 813.004 134.371 813.004 132.34C813.004 130.348 815.191 129.176 818.766 129.176ZM818.766 130.406C816.148 130.406 814.527 131.129 814.547 132.34C814.527 133.59 816.148 134.312 818.766 134.312C821.402 134.312 823.004 133.59 823.004 132.34C823.004 131.129 821.402 130.406 818.766 130.406ZM839.273 123.551C839.273 126.5 841.422 129.488 843.98 130.602L843.121 131.812C841.09 130.885 839.332 128.883 838.531 126.48C837.711 129.029 835.963 131.246 833.98 132.242L833.062 131.031C835.543 129.84 837.711 126.559 837.73 123.551V121.285H833.629V120.016H843.414V121.285H839.273V123.551ZM847.379 118.219V135.582H845.836V118.219H847.379ZM864.664 118.238V131.422H863.121V129.625H859.527V128.512H863.121V118.238H864.664ZM865.094 133.922V135.211H852.75V130.133H854.293V133.922H865.094ZM850.25 126.285C853.492 126.266 857.828 126.246 861.559 125.777L861.656 126.891C860.104 127.135 858.482 127.291 856.891 127.379V130.816H855.348V127.457C853.59 127.535 851.92 127.545 850.465 127.535L850.25 126.285ZM855.953 118.941C858.492 118.941 860.23 120.152 860.25 121.969C860.23 123.824 858.492 124.977 855.953 124.977C853.395 124.977 851.656 123.824 851.656 121.969C851.656 120.152 853.395 118.941 855.953 118.941ZM855.953 120.113C854.254 120.094 853.102 120.855 853.121 121.969C853.102 123.102 854.254 123.844 855.953 123.844C857.594 123.844 858.766 123.102 858.785 121.969C858.766 120.855 857.594 120.094 855.953 120.113Z" fill="black"/>
<path d="M214.574 72.4199C214.574 75.4277 215.82 78.457 218.527 79.918L217.195 81.6797C215.391 80.7236 214.166 79.0156 213.479 76.9746C212.791 79.1768 211.566 81.0566 209.74 82.1309L208.344 80.3262C211.094 78.7363 212.318 75.4922 212.318 72.4199V71.8184H209.01V69.8848H212.318V67.1777H214.574V69.8848H217.818V71.8184H214.574V72.4199ZM225.359 66.4902V85.9121H223.082V66.4902H225.359ZM221.406 66.8555V84.9668H219.15V75.9219H216.615V73.9453H219.15V66.8555H221.406ZM244.416 66.4902V85.9121H242.139V66.4902H244.416ZM240.398 66.9629V84.9883H238.121V78.5H235.092V76.5449H238.121V73.666H235.436C234.522 76.8887 232.492 79.6602 228.861 81.8086L227.465 80.1113C231.493 77.7373 233.341 74.6973 233.695 70.7871H228.496V68.8535H236.059C236.059 69.8311 235.994 70.7871 235.865 71.7109H238.121V66.9629H240.398ZM253.805 69.8203C253.805 72.1836 255.373 74.5684 258.381 75.5781L257.178 77.4258C255.008 76.7168 253.472 75.2451 252.623 73.4297C251.774 75.46 250.152 77.0928 247.854 77.8555L246.629 75.9648C249.723 74.9551 251.377 72.377 251.377 69.8418V69.584H247.338V67.6719H257.822V69.584H253.805V69.8203ZM262.936 78.9941V85.9121H260.551V80.9062H249.701V78.9941H262.936ZM262.936 66.4902V78.0703H260.551V73.2578H257.242V71.3027H260.551V66.4902H262.936ZM281.863 66.5117V80.541H279.457V66.5117H281.863ZM282.4 83.5918V85.5254H269.016V79.123H271.422V83.5918H282.4ZM271.271 67.7793C274.215 67.7793 276.492 69.8203 276.492 72.6348C276.492 75.5137 274.215 77.5117 271.271 77.5117C268.307 77.5117 266.029 75.5137 266.029 72.6348C266.029 69.8203 268.307 67.7793 271.271 67.7793ZM271.271 69.8633C269.617 69.8633 268.35 70.959 268.371 72.6348C268.35 74.3535 269.617 75.4277 271.271 75.4277C272.883 75.4277 274.15 74.3535 274.15 72.6348C274.15 70.959 272.883 69.8633 271.271 69.8633ZM224.436 111.674V113.564H210.814V103.016H224.264V104.949H213.242V107.291H223.812V109.16H213.242V111.674H224.436ZM226.391 116.594V118.549H208.645V116.594H226.391ZM235.135 103.51V110.643H230.537V114.295C232.546 114.273 234.447 114.188 236.639 113.779L236.832 115.734C234.232 116.207 232.041 116.271 229.592 116.271H228.238V108.752H232.836V105.422H228.217V103.51H235.135ZM244.373 101.49V120.912H242.096V101.49H244.373ZM240.377 101.898V119.924H238.121V110.191H235.994V108.236H238.121V101.898H240.377ZM262.828 101.49V120.934H260.422V101.49H262.828ZM252.365 102.908C255.287 102.908 257.414 105.572 257.436 109.762C257.414 113.994 255.287 116.637 252.365 116.637C249.422 116.637 247.295 113.994 247.295 109.762C247.295 105.572 249.422 102.908 252.365 102.908ZM252.365 105.057C250.711 105.057 249.594 106.797 249.594 109.762C249.594 112.748 250.711 114.488 252.365 114.488C253.998 114.488 255.115 112.748 255.115 109.762C255.115 106.797 253.998 105.057 252.365 105.057ZM281.799 101.49V112.877H279.414V101.49H281.799ZM269.23 102.736V109.59C272.12 109.558 274.806 109.343 277.674 108.752L277.953 110.686C274.752 111.373 271.744 111.588 268.479 111.566H266.824V102.736H269.23ZM275.246 113.092C279.328 113.07 281.885 114.531 281.885 117.002C281.885 119.43 279.328 120.891 275.246 120.891C271.164 120.891 268.586 119.43 268.607 117.002C268.586 114.531 271.164 113.07 275.246 113.092ZM275.246 115.025C272.539 115.025 270.992 115.691 270.992 117.002C270.992 118.27 272.539 118.979 275.246 118.979C277.953 118.979 279.479 118.27 279.5 117.002C279.479 115.691 277.953 115.025 275.246 115.025Z" fill="black"/>
<path d="M344 29L344 161" stroke="url(#paint1_linear_469_1605)" stroke-width="2"/>
<circle cx="108" cy="94" r="47" fill="#CCE0FF"/>
<g filter="url(#filter0_i_469_1605)">
<circle cx="108" cy="94" r="44.2217" fill="#CCE0FF"/>
</g>
<g filter="url(#filter1_d_469_1605)">
<path d="M101.85 73.0013C100.584 73.0388 99.4711 73.9188 99.2213 75.1609C98.9313 76.6041 99.9108 77.9995 101.408 78.2788C101.536 78.3027 101.666 78.3243 101.797 78.3299C103.776 78.5014 105.75 78.7796 107.692 79.1929C108.29 79.32 108.878 79.4824 109.47 79.6391C110.455 80.9993 111.384 82.3993 112.204 83.8572C112.273 83.9776 112.327 84.1036 112.393 84.2251L110.596 85.4957C110.59 85.5002 110.583 85.5025 110.577 85.507L99.9874 92.9941C99.569 93.2905 99.2413 93.6572 98.9973 94.0626C98.8971 94.2147 98.8064 94.3748 98.7345 94.5485C98.7191 94.5837 98.7073 94.6212 98.6956 94.6553C97.4497 98.0196 96.0577 101.328 94.5489 104.593C91.2298 106.026 87.8576 107.34 84.4358 108.534C84.351 108.558 84.2673 108.588 84.1859 108.621C82.6265 109.244 81.8875 110.967 82.5358 112.469C83.1841 113.971 84.9721 114.684 86.5327 114.059C86.5681 114.044 86.6046 114.033 86.6388 114.017C90.5261 112.658 94.3639 111.152 98.1263 109.495C98.9596 109.147 99.5395 108.474 99.8023 107.697C100.847 105.466 101.83 103.205 102.761 100.926L105.401 101.715C105.421 101.722 105.441 101.722 105.461 101.727C106.318 101.971 107.171 102.224 108.024 102.483V102.525L108.067 102.494C109.646 102.976 111.21 103.491 112.77 104.025C111.069 105.914 109.319 107.766 107.517 109.569C107.452 109.629 107.392 109.691 107.333 109.755C106.22 110.977 106.345 112.836 107.613 113.909C108.883 114.982 110.817 114.86 111.93 113.636C111.955 113.608 111.981 113.583 112.004 113.555C114.871 110.683 117.626 107.701 120.243 104.615C120.314 104.536 120.366 104.447 120.425 104.362C120.471 104.296 120.521 104.236 120.563 104.167C121.267 102.978 121.034 101.433 119.932 100.497H119.93C119.601 100.219 119.222 100.026 118.829 99.9066C118.806 99.8987 118.785 99.8919 118.762 99.8862C117.213 99.3117 115.651 98.7689 114.083 98.241L114.707 97.7993L118.11 95.3933L119.18 94.6371C120.257 96.2789 121.429 97.864 122.695 99.3764C123.026 99.8397 123.486 100.167 123.996 100.352C124.026 100.363 124.059 100.369 124.088 100.378C124.214 100.42 124.344 100.458 124.475 100.482C124.592 100.505 124.712 100.511 124.832 100.518C124.878 100.52 124.924 100.529 124.97 100.529C125.66 100.535 126.352 100.294 126.89 99.8033C127.658 99.147 128.418 98.476 129.146 97.7698C130.686 96.2744 132.121 94.6802 133.455 93.0111C134.46 91.9359 134.385 90.2827 133.291 89.2903C132.18 88.2832 130.432 88.3331 129.386 89.4039C129.297 89.4958 129.209 89.5889 129.133 89.6923C127.954 91.1729 126.686 92.5944 125.326 93.9263C124.717 93.1145 124.135 92.2845 123.589 91.434C123.118 90.6994 122.684 89.9432 122.261 89.179C122.206 89.0678 122.142 88.9633 122.072 88.86C122.065 88.8486 122.055 88.8395 122.048 88.8293C121.975 88.7044 121.91 88.5773 121.82 88.4592L118.56 84.1808C118.527 84.1366 118.485 84.1048 118.449 84.0628C118.437 84.0389 118.433 84.0151 118.422 83.9912C117.992 83.092 117.545 82.1972 117.052 81.3229C116.009 79.471 114.841 77.6884 113.567 75.9762C113.555 75.9569 113.538 75.9432 113.526 75.9251C113.473 75.8445 113.409 75.7718 113.349 75.6969C113.305 75.6458 113.269 75.5867 113.223 75.539C112.87 75.1677 112.411 74.8862 111.87 74.7544C110.882 74.4797 109.887 74.2162 108.879 74.0028C106.744 73.5497 104.58 73.2341 102.401 73.0399C102.215 73.0081 102.03 72.9956 101.85 73.0013ZM125.244 73.1194C124.433 73.1739 123.66 73.5066 123.007 73.9755C122.354 74.4445 121.814 75.0462 121.338 75.6855C120.68 76.5643 120.162 77.5306 119.747 78.5377V78.54C119.701 78.6354 119.657 78.7307 119.616 78.8284C119.597 78.8749 119.575 78.9181 119.556 78.9635C119.558 78.9635 119.558 78.9646 119.561 78.9658C118.626 81.3036 119.165 83.9503 120.949 85.7739C121.297 86.1293 121.683 86.4449 122.104 86.7163L122.107 86.7231C122.372 86.9116 122.635 87.1057 122.873 87.326C122.965 87.4146 123.106 87.5349 123.206 87.6144C123.918 88.3411 125.096 88.4421 125.921 87.8358C126.08 87.7279 126.24 87.6212 126.402 87.519C126.728 87.3135 127.051 87.0989 127.358 86.8673C127.47 86.7821 127.579 86.6936 127.689 86.6016C127.756 86.5471 127.848 86.5414 127.919 86.5902C127.989 86.6391 128.064 86.6822 128.138 86.7231C128.246 86.7833 128.355 86.8378 128.467 86.8718C128.581 86.9059 128.699 86.9184 128.819 86.9002C128.918 86.8855 129.01 86.8514 129.08 86.7844C129.149 86.7185 129.185 86.6391 129.22 86.5494C129.353 86.2144 129.439 85.8636 129.498 85.5093C129.532 85.3117 129.556 85.1119 129.578 84.9132C129.612 84.6952 129.726 84.4931 129.894 84.3409C129.906 84.3319 129.918 84.3262 129.928 84.3171C130.421 83.9208 130.862 83.4655 131.238 82.9671C131.609 82.4754 131.911 81.9406 132.149 81.3774C132.217 81.2423 132.318 81.1186 132.43 81.0164C132.529 80.9267 132.644 80.8529 132.765 80.7995C132.835 80.7711 132.901 80.7416 132.973 80.7155C133.005 80.703 133.045 80.6939 133.077 80.6826C133.178 80.6553 133.268 80.6031 133.344 80.5338C133.607 80.2965 133.618 79.9014 133.371 79.6493C133.335 79.6096 133.294 79.5687 133.248 79.5403C133.225 79.5244 133.202 79.5119 133.18 79.4938C132.465 78.8886 131.912 78.1267 131.431 77.3387C130.943 76.5382 130.524 75.6969 129.951 74.9565C129.808 74.7715 129.651 74.5932 129.485 74.424H129.483C128.985 73.9165 128.39 73.5077 127.701 73.3215C127.296 73.2125 126.87 73.1875 126.45 73.242C126.425 73.2454 126.399 73.2432 126.376 73.2375C126.006 73.1387 125.623 73.0933 125.244 73.1194Z" fill="#69A4FF"/>
</g>
<defs>
<filter id="filter0_i_469_1605" x="63.7783" y="49.7783" width="92.4434" height="91.4434" filterUnits="userSpaceOnUse" color-interpolation-filters="sRGB">
<feFlood flood-opacity="0" result="BackgroundImageFix"/>
<feBlend mode="normal" in="SourceGraphic" in2="BackgroundImageFix" result="shape"/>
<feColorMatrix in="SourceAlpha" type="matrix" values="0 0 0 0 0 0 0 0 0 0 0 0 0 0 0 0 0 0 127 0" result="hardAlpha"/>
<feOffset dx="4" dy="3"/>
<feGaussianBlur stdDeviation="3.5"/>
<feComposite in2="hardAlpha" operator="arithmetic" k2="-1" k3="1"/>
<feColorMatrix type="matrix" values="0 0 0 0 1 0 0 0 0 1 0 0 0 0 1 0 0 0 0.3 0"/>
<feBlend mode="normal" in2="shape" result="effect1_innerShadow_469_1605"/>
</filter>
<filter id="filter1_d_469_1605" x="75.3008" y="67" width="71.8623" height="61.6406" filterUnits="userSpaceOnUse" color-interpolation-filters="sRGB">
<feFlood flood-opacity="0" result="BackgroundImageFix"/>
<feColorMatrix in="SourceAlpha" type="matrix" values="0 0 0 0 0 0 0 0 0 0 0 0 0 0 0 0 0 0 127 0" result="hardAlpha"/>
<feOffset dx="3" dy="4"/>
<feGaussianBlur stdDeviation="5"/>
<feComposite in2="hardAlpha" operator="out"/>
<feColorMatrix type="matrix" values="0 0 0 0 0.588235 0 0 0 0 0.74902 0 0 0 0 1 0 0 0 1 0"/>
<feBlend mode="normal" in2="BackgroundImageFix" result="effect1_dropShadow_469_1605"/>
<feBlend mode="normal" in="SourceGraphic" in2="effect1_dropShadow_469_1605" result="shape"/>
</filter>
<linearGradient id="paint0_linear_469_1605" x1="-0.97417" y1="94" x2="1499.38" y2="93.9998" gradientUnits="userSpaceOnUse">
<stop stop-color="#3182F6"/>
<stop offset="1" stop-color="#A009FF"/>
</linearGradient>
<linearGradient id="paint1_linear_469_1605" x1="343.999" y1="95" x2="345.391" y2="95" gradientUnits="userSpaceOnUse">
<stop stop-color="#3182F6"/>
<stop offset="1" stop-color="#A009FF"/>
</linearGradient>
</defs>
</svg>
