<svg width="765" height="188" viewBox="0 0 765 188" fill="none" xmlns="http://www.w3.org/2000/svg">
<rect x="2" y="2" width="761" height="184" rx="13" fill="white" stroke="url(#paint0_linear_469_1760)" stroke-width="4"/>
<path d="M237.906 61.6406C236.594 61.6406 235.516 60.5625 235.516 59.2266C235.516 57.9141 236.594 56.8359 237.906 56.8359C239.242 56.8359 240.32 57.9141 240.32 59.2266C240.32 60.5625 239.242 61.6406 237.906 61.6406ZM275.922 63.8203V65.3438H256.844V63.8203H262.164V58.8516H258.578V57.3281H261.836V50.5312H258.531V49.0078H274.094V50.5312H270.789V57.3281H274.047V58.8516H270.461V63.8203H275.922ZM263.664 57.3281H268.984V50.5312H263.664V57.3281ZM264.016 63.8203H268.633V58.8516H264.016V63.8203ZM288.273 49.6641C288.25 52.2188 291.766 54.3047 295.445 54.8203L294.719 56.2734C291.355 55.793 288.215 54.1055 287.078 51.6562C285.953 54.1055 282.824 55.793 279.438 56.2734L278.758 54.8203C282.438 54.3047 285.883 52.2188 285.883 49.6641V49.6172H279.32V48.1172H294.883V49.6172H288.273V49.6641ZM296.641 57.7969V59.3203H288.156V63.5859H286.328V59.3203H277.562V57.7969H296.641ZM294.508 65.9062V67.4531H280V61.5H281.852V65.9062H294.508ZM314.5 47.0625V55.9453H317.828V57.4922H314.5V67.8984H312.648V47.0625H314.5ZM298.07 62.3438C299.77 62.3438 301.75 62.3438 303.812 62.2734V59.9531C301.387 59.6836 299.805 58.2656 299.828 56.2031C299.805 53.8594 301.797 52.3359 304.75 52.3359C307.656 52.3359 309.672 53.8594 309.695 56.2031C309.672 58.2656 308.066 59.6836 305.664 59.9766V62.2031C307.609 62.1094 309.566 61.957 311.383 61.6875L311.5 63.0938C306.953 63.8672 302.031 63.9141 298.375 63.9141L298.07 62.3438ZM311.008 49.6172V51.1172H298.445V49.6172H303.812V47.1094H305.664V49.6172H311.008ZM304.75 53.7656C302.828 53.7656 301.539 54.75 301.539 56.2031C301.539 57.6562 302.828 58.5938 304.75 58.5703C306.648 58.5938 307.938 57.6562 307.938 56.2031C307.938 54.75 306.648 53.7656 304.75 53.7656ZM331.188 53.9062V55.4062H326.969V58.3125C328.914 58.2305 330.859 58.0898 332.664 57.8906L332.805 59.25C328.328 59.8594 323.359 60 319.445 60L319.164 58.5C320.992 58.4883 323.043 58.4648 325.141 58.3828V55.4062H321.062V48.4219H331.023V49.9453H322.914V53.9062H331.188ZM336.25 47.0859V62.6719H334.398V47.0859H336.25ZM336.93 65.9062V67.4531H322.727V61.5938H324.555V65.9062H336.93ZM363.039 47.0859V62.3672H361.211V47.0859H363.039ZM363.695 65.9062V67.4531H349.586V60.9609H351.414V65.9062H363.695ZM353.219 50.3438C353.195 53.5078 355.375 56.3672 358.469 57.4922L357.508 58.9688C355.094 58.043 353.219 56.168 352.305 53.7656C351.379 56.3203 349.48 58.3711 347.055 59.3438L346.047 57.9141C349.211 56.6953 351.344 53.625 351.344 50.3438V48.2578H353.219V50.3438ZM382.938 48.4219V50.0156C382.938 51.8906 382.938 54.2109 382.352 57.5156H385.562V59.0391H380.547V67.8984H378.719V59.0391H373.375V67.8984H371.547V59.0391H366.578V57.5156H380.477C381.156 54.2344 381.156 51.8789 381.156 50.0156V49.9453H369.016V48.4219H382.938ZM409.633 47.0625V52.5H412.773V54.0234H409.633V59.5781H407.805V47.0625H409.633ZM403.961 48.6094C403.961 53.9062 400.211 57.8203 394.141 59.6016L393.367 58.1016C398.395 56.6484 401.605 53.7539 401.992 50.1328H394.281V48.6094H403.961ZM403.047 59.8125C407.242 59.8125 409.867 61.3359 409.867 63.8203C409.867 66.3516 407.242 67.8516 403.047 67.8516C398.898 67.8516 396.203 66.3516 396.227 63.8203C396.203 61.3359 398.898 59.8125 403.047 59.8125ZM403.047 61.2891C400 61.2656 398.031 62.25 398.055 63.8203C398.031 65.3906 400 66.375 403.047 66.375C406.117 66.375 408.086 65.3906 408.086 63.8203C408.086 62.25 406.117 61.2656 403.047 61.2891ZM421.07 52.6641C421.07 56.3438 423.508 60.1172 426.461 61.5703L425.336 63.0469C423.039 61.8398 421.117 59.3789 420.203 56.4844C419.266 59.5664 417.297 62.1914 414.953 63.4453L413.781 61.9688C416.828 60.4688 419.242 56.4609 419.266 52.6641V48.8672H421.07V52.6641ZM430.211 47.0625V55.5234H433.703V57.1172H430.211V67.8984H428.383V47.0625H430.211ZM457.586 49.1719V51.4922C457.586 54.1641 457.586 56.8594 456.836 60.7266L455.031 60.5156C455.781 56.8359 455.781 54.0938 455.781 51.4922V50.6953H442.844V49.1719H457.586ZM459.836 63.4219V64.9453H440.852V63.4219H445.562V56.5547H447.391V63.4219H450.766V56.5547H452.57V63.4219H459.836ZM480.578 57.1172V58.6172H475.516V61.2656H478.234V67.8984H476.383V62.7422H463.703V61.2656H466.633V58.6172H461.594V57.1172H480.578ZM471.086 47.5781C475.609 47.5547 478.445 49.0547 478.445 51.5391C478.445 54.0469 475.609 55.5469 471.086 55.5234C466.562 55.5469 463.703 54.0469 463.703 51.5391C463.703 49.0547 466.562 47.5547 471.086 47.5781ZM471.086 49.0547C467.711 49.0312 465.578 49.9922 465.602 51.5391C465.578 53.1328 467.711 54.0938 471.086 54.0938C474.414 54.0938 476.57 53.1328 476.57 51.5391C476.57 49.9922 474.414 49.0312 471.086 49.0547ZM468.484 61.2656H473.711V58.6172H468.484V61.2656ZM507.438 63.6562V65.2266H488.359V63.6562H507.438ZM505.609 49.1719V50.6953H502.305V57.9844H505.562V59.4844H490.094V57.9844H493.352V50.6953H490.047V49.1719H505.609ZM495.18 57.9844H500.5V50.6953H495.18V57.9844ZM528.18 63.7734V65.3203H509.102V63.7734H517.68V59.8359H511.492V53.4141H523.961V50.1328H511.445V48.6094H525.766V54.9141H513.32V58.3125H526.258V59.8359H519.484V63.7734H528.18ZM546.273 49.2891V51.375C546.273 54 546.273 56.9766 545.5 61.5L543.625 61.3125C544.469 57.0469 544.469 53.9297 544.469 51.375V50.8125H531.906V49.2891H546.273ZM548.828 63.3047V64.8281H529.844V63.3047H548.828ZM568.281 47.0859V59.5078H566.523V53.9062H563.594V59.2266H561.883V47.4844H563.594V52.3828H566.523V47.0859H568.281ZM568.281 60.4922V67.6172H554.523V60.4922H568.281ZM556.328 61.9922V66.1172H566.477V61.9922H556.328ZM559.398 48.4453V54.1172H553.328V57.1172C556.07 57.1055 558.168 56.9766 560.641 56.4844L560.852 57.9844C558.156 58.5 555.93 58.5703 552.906 58.5703H551.547V52.6875H557.641V49.9453H551.5V48.4453H559.398ZM237.906 99.6406C236.594 99.6406 235.516 98.5625 235.516 97.2266C235.516 95.9141 236.594 94.8359 237.906 94.8359C239.242 94.8359 240.32 95.9141 240.32 97.2266C240.32 98.5625 239.242 99.6406 237.906 99.6406ZM267.438 87.2422C267.414 93.2656 265.281 98.7734 257.922 102.453L256.867 101.047C260.699 99.125 263.066 96.7227 264.367 93.8984L257.266 94.5781L256.938 92.9844L264.93 92.4453C265.305 91.2852 265.527 90.0547 265.609 88.7656H257.992V87.2422H267.438ZM274.094 85.0625V105.898H272.266V94.9766H267.367V93.4531H272.266V85.0625H274.094ZM294.789 85.0625V105.945H292.961V85.0625H294.789ZM288.461 87.0078V94.4141H280.68V99.3359C284.137 99.3359 287.219 99.1836 290.945 98.5859L291.133 100.133C287.289 100.742 284.125 100.883 280.539 100.883H278.805V92.9141H286.609V88.5312H278.758V87.0078H288.461ZM314.898 85.9766V87.5469C314.898 89.1055 314.898 90.9688 314.406 93.3828H317.312V94.8828H312.203V97.1328H315.062V101.961H302.453V104.141H315.789V105.617H300.625V100.578H313.234V98.5625H300.578V97.1328H303.438V94.8828H298.352V93.3828H312.555C312.754 92.4219 312.883 91.5547 312.953 90.7578L300.484 91.3438L300.25 89.8203L313.047 89.4219C313.07 88.7656 313.07 88.1445 313.07 87.5469V87.4531H300.742V85.9766H314.898ZM305.266 97.1328H310.375V94.8828H305.266V97.1328ZM336.344 98.4922V105.617H322.633V98.4922H336.344ZM324.461 99.9219V104.117H334.516V99.9219H324.461ZM336.344 85.0859V97.3203H334.492V91.2969H330.531V89.7734H334.492V85.0859H336.344ZM329.195 86.1406V91.9062H321.789V94.9297C325.223 94.9414 327.801 94.8242 330.93 94.3203L331.094 95.8672C327.812 96.3828 325.141 96.4766 321.531 96.4531H319.961V90.4766H327.414V87.6641H319.914V86.1406H329.195ZM363.625 85.0625V105.898H361.82V95H358.938V104.867H357.18V85.625H358.938V93.4766H361.82V85.0625H363.625ZM354.812 87.7812C354.789 93.0781 352.938 98.0938 346.938 101.422L345.859 100.133C350.699 97.4375 352.703 93.6172 353.008 89.3047H346.656V87.7812H354.812ZM369.273 85.9531V88.9531H375.344V85.9531H377.172V95.0234H367.469V85.9531H369.273ZM369.273 93.5234H375.344V90.3828H369.273V93.5234ZM382.867 85.0625V89.5859H386.008V91.1328H382.867V95.8438H381.039V85.0625H382.867ZM382.867 96.8281V101.867H371.43V104.164H383.641V105.664H369.625V100.461H381.039V98.3047H369.578V96.8281H382.867ZM404.219 86.4219V94.9062H394.445V86.4219H404.219ZM396.25 87.9219V93.4531H402.414V87.9219H396.25ZM410.523 85.0625V97.0391H408.719V85.0625H410.523ZM404.875 99.8984C404.875 101.938 408.203 103.953 411.789 104.398L411.156 105.828C408.016 105.406 405.156 103.93 403.938 101.984C402.672 103.965 399.742 105.406 396.602 105.828L395.945 104.398C399.531 104 402.977 101.984 402.977 99.8984H396.812V98.4688H403V96.4297H404.828V98.4688H411.062V99.8984H404.875ZM430.562 87.0078C430.562 89.9375 434.406 92.4922 438.156 93.0078L437.406 94.5078C434.172 93.9688 430.973 92.1758 429.625 89.6094C428.289 92.1875 425.078 93.9688 421.844 94.5078L421.094 93.0078C424.844 92.4922 428.664 89.9844 428.664 87.0078V85.8125H430.562V87.0078ZM439.094 96.8047V98.3516H430.469V105.898H428.664V98.3516H420.109V96.8047H439.094ZM446.594 86.0469C449.395 86.0234 451.516 87.6523 451.914 90.0547H456.273V85.0625H458.125V96.2422H456.273V91.5781H451.938C451.562 94.0391 449.418 95.6797 446.594 95.6797C443.43 95.6797 441.18 93.7109 441.18 90.8516C441.18 88.0156 443.43 86.0234 446.594 86.0469ZM446.594 87.6172C444.461 87.5938 442.938 88.9297 442.938 90.8516C442.938 92.75 444.461 94.1328 446.594 94.1328C448.703 94.1328 450.203 92.75 450.203 90.8516C450.203 88.9297 448.703 87.5938 446.594 87.6172ZM446.547 97.2969V99.9453H456.273V97.2969H458.125V105.617H444.695V97.2969H446.547ZM446.547 104.117H456.273V101.422H446.547V104.117ZM484.891 85.0625V95.8438H483.039V90.4297H478.398V88.9062H483.039V85.0625H484.891ZM484.891 96.8984V101.867H473.242V104.141H485.664V105.617H471.438V100.461H483.062V98.375H471.391V96.8984H484.891ZM474.719 87.7109C474.695 90.4531 476.852 92.9375 479.898 93.9453L478.914 95.375C476.605 94.5547 474.766 92.9141 473.852 90.8047C472.961 93.1836 471.074 95 468.602 95.8906L467.594 94.4141C470.734 93.3828 472.891 90.7578 472.914 87.7109V85.7422H474.719V87.7109ZM506.195 85.0625V105.898H504.438V85.0625H506.195ZM501.977 85.625V104.844H500.219V97.625H496.352V96.1016H500.219V92.3984H496.703C495.684 95.9258 493.398 99.043 489.461 101.398L488.336 100.062C492.871 97.3789 495.145 93.6172 495.508 89.2578H489.273V87.7344H497.336C497.336 88.8008 497.242 89.8555 497.055 90.875H500.219V85.625H501.977ZM525.602 85.0625V93.6641H528.766V95.2109H525.602V105.898H523.75V85.0625H525.602ZM515.43 87.3359C515.406 92.3047 514.281 97.1797 510.508 101.188L509.031 100.133C512.184 96.9102 513.449 93.0312 513.695 88.8828H509.688V87.3359H515.43ZM521.148 87.3359C521.125 92.2812 520.398 98.0234 516.508 102.57L515.008 101.539C518.266 97.8594 519.25 93.2305 519.414 88.8828H516.086V87.3359H521.148ZM537.297 91.4609C537.297 95 539.875 98.5859 542.945 99.9219L541.914 101.375C539.477 100.262 537.367 97.8594 536.406 94.9766C535.422 98.0352 533.324 100.695 530.945 101.891L529.844 100.438C532.82 99.0078 535.422 95.0703 535.445 91.4609V88.7422H530.523V87.2188H542.266V88.7422H537.297V91.4609ZM547.023 85.0625V105.898H545.172V85.0625H547.023ZM573.789 85.0625V95.8672H571.984V85.0625H573.789ZM573.812 96.9219V101.914H562.117V104.164H574.562V105.664H560.312V100.484H571.984V98.3984H560.266V96.9219H573.812ZM563.992 87.2656C563.969 90.2188 566.219 92.8203 569.312 93.8281L568.398 95.2578C565.961 94.4258 564.016 92.6797 563.078 90.4297C562.141 92.8555 560.184 94.7656 557.711 95.6562L556.75 94.2031C559.891 93.1016 562.117 90.3359 562.117 87.2656V85.6719H563.992V87.2656ZM596.406 97.1797V98.7031H587.711V105.898H585.906V98.7031H577.328V97.1797H596.406ZM593.922 86.2344V94.3438H579.789V86.2344H593.922ZM581.594 87.7344V92.8906H592.094V87.7344H581.594ZM623.102 94.8125V96.3359H614.5V98.5625C618.438 98.7266 620.758 100.016 620.781 102.219C620.758 104.539 618.086 105.852 613.609 105.852C609.086 105.852 606.414 104.539 606.414 102.219C606.414 100.016 608.723 98.7266 612.695 98.5625V96.3359H604.117V94.8125H623.102ZM613.609 99.9688C610.258 99.9922 608.266 100.812 608.289 102.219C608.266 103.602 610.258 104.422 613.609 104.422C616.914 104.422 618.93 103.602 618.93 102.219C618.93 100.812 616.914 99.9922 613.609 99.9688ZM621.414 86.0469V87.5469H614.805C614.922 89.8906 618.367 91.707 622.047 92.0938L621.367 93.5469C617.957 93.1367 614.758 91.6133 613.609 89.2812C612.473 91.6133 609.285 93.1367 605.852 93.5469L605.195 92.0938C608.805 91.707 612.273 89.8906 612.414 87.5469H605.852V86.0469H621.414ZM642.062 85.0859V96.9219H640.234V85.0859H642.062ZM642.062 98.1172V105.617H628.516V98.1172H642.062ZM630.32 99.6172V104.117H640.258V99.6172H630.32ZM632.242 87.9453C632.219 90.8984 634.469 93.5 637.539 94.5781L636.602 95.9844C634.188 95.1523 632.266 93.3945 631.328 91.1094C630.402 93.5469 628.457 95.4688 625.961 96.3828L625.023 94.9297C628.188 93.8281 630.367 91.0156 630.367 87.9453V85.9062H632.242V87.9453ZM670.609 96.9688V98.4688H662.195V101.609H660.367V98.4688H651.625V96.9688H670.609ZM668.547 103.93V105.453H654.039V100.203H655.891V103.93H668.547ZM669.508 87.0547V88.4844H652.609V87.0547H660.203V84.8281H662.031V87.0547H669.508ZM661.117 89.375C665.383 89.375 667.867 90.4766 667.867 92.5391C667.867 94.6016 665.383 95.7266 661.117 95.7031C656.805 95.7266 654.344 94.6016 654.344 92.5391C654.344 90.4766 656.805 89.375 661.117 89.375ZM661.117 90.7344C657.953 90.7344 656.195 91.3672 656.219 92.5391C656.195 93.7109 657.953 94.3438 661.117 94.3438C664.234 94.3438 666.016 93.7109 666.016 92.5391C666.016 91.3672 664.234 90.7344 661.117 90.7344ZM682.258 86.5625V92.6328H675.086V96.0781C678.895 96.0781 680.98 95.9727 683.523 95.5391L683.711 97.0625C680.992 97.5312 678.812 97.6016 674.734 97.6016H673.234V91.1797H680.383V88.0625H673.188V86.5625H682.258ZM689.641 85.0859V100.414H687.789V94.7891H683.664V93.2656H687.789V90.1016H683.664V88.6016H687.789V85.0859H689.641ZM690.273 103.812V105.336H676.094V99.2891H677.945V103.812H690.273ZM237.906 137.641C236.594 137.641 235.516 136.562 235.516 135.227C235.516 133.914 236.594 132.836 237.906 132.836C239.242 132.836 240.32 133.914 240.32 135.227C240.32 136.562 239.242 137.641 237.906 137.641ZM274.117 123.062V135.484H272.266V130.023H268.07V128.5H272.266V123.062H274.117ZM267.203 136.141C271.539 136.141 274.188 137.547 274.188 140.008C274.188 142.469 271.539 143.875 267.203 143.898C262.867 143.875 260.219 142.469 260.219 140.008C260.219 137.547 262.867 136.141 267.203 136.141ZM267.203 137.57C264.016 137.57 262.023 138.484 262.047 140.008C262.023 141.508 264.016 142.422 267.203 142.422C270.391 142.422 272.359 141.508 272.359 140.008C272.359 138.484 270.391 137.57 267.203 137.57ZM264.086 126.883C264.086 129.602 266.172 132.18 269.219 133.234L268.258 134.711C265.914 133.867 264.098 132.121 263.219 129.953C262.305 132.402 260.371 134.359 257.898 135.297L256.938 133.82C260.031 132.695 262.234 129.883 262.234 126.906V126.133H257.523V124.586H268.75V126.133H264.086V126.883ZM294.812 123.062V143.898H292.961V123.062H294.812ZM288.648 125.336C288.625 131.336 285.836 136.633 278.852 139.984L277.844 138.484C283.48 135.812 286.352 131.816 286.773 126.836H278.805V125.336H288.648ZM321.578 123.062V143.898H319.727V123.062H321.578ZM316.773 125.336V126.859H314.406V136.891C315.578 136.809 316.738 136.703 317.852 136.562L317.969 137.945C313.422 138.648 308.406 138.719 304.539 138.742L304.328 137.172L307.211 137.148V126.859H304.867V125.336H316.773ZM309.016 137.125C310.188 137.102 311.395 137.055 312.602 136.984V126.859H309.016V137.125ZM341.922 133.094V134.617H327.531V125.008H341.711V126.531H329.359V133.094H341.922ZM344.172 139.516V141.062H325.094V139.516H344.172ZM348.531 124.398V127.703H353.172V124.398H354.906V134.102H346.797V124.398H348.531ZM348.531 132.578H353.172V129.18H348.531V132.578ZM363.531 123.086V135.578H361.773V130.023H359.008V135.461H357.273V123.484H359.008V128.5H361.773V123.086H363.531ZM363.531 136.844V143.898H361.727V138.367H349.492V136.844H363.531ZM370 140.43L368.172 146.805H366.438L367.727 140.43H370ZM396.438 123.062V138.672H394.68V123.062H396.438ZM392.453 123.484V138.062H390.695V130.492H387.766V134.594H379.703V125.078H387.766V128.945H390.695V123.484H392.453ZM397.07 141.906V143.453H382.773V136.727H384.602V141.906H397.07ZM381.438 126.555V133.141H386.055V126.555H381.438ZM416.359 133.914V135.414H409.891V139.773H418.562V141.297H399.484V139.773H408.062V135.414H401.945V124.773H416.125V126.297H403.82V129.273H415.68V130.773H403.82V133.914H416.359ZM437.43 123.086V135.906H435.602V123.086H437.43ZM430.797 124.398V130.117H423.109V133.07C426.836 133.07 429.625 132.977 433 132.414L433.211 133.938C429.719 134.5 426.859 134.617 423.016 134.617H421.328V128.664H428.969V125.945H421.281V124.398H430.797ZM430.516 136.328C434.898 136.328 437.57 137.711 437.57 140.102C437.57 142.492 434.898 143.852 430.516 143.852C426.133 143.852 423.484 142.492 423.484 140.102C423.484 137.711 426.133 136.328 430.516 136.328ZM430.516 137.805C427.281 137.805 425.289 138.672 425.289 140.102C425.289 141.531 427.281 142.375 430.516 142.375C433.75 142.375 435.719 141.531 435.719 140.102C435.719 138.672 433.75 137.805 430.516 137.805ZM450.461 123.438C455.102 123.438 457.82 124.703 457.82 127.023C457.82 129.391 455.102 130.656 450.461 130.68C445.82 130.656 443.078 129.391 443.078 127.023C443.078 124.703 445.82 123.438 450.461 123.438ZM450.461 124.82C446.992 124.82 444.977 125.664 445 127.023C444.977 128.477 446.992 129.273 450.461 129.273C453.906 129.273 455.945 128.477 455.945 127.023C455.945 125.664 453.906 124.82 450.461 124.82ZM459.953 132.086V133.586H440.969V132.086H459.953ZM457.516 135.391V140.055H445.141V142.211H458.148V143.664H443.312V138.695H455.711V136.797H443.266V135.391H457.516ZM486.719 134.125V135.625H467.711V134.125H476.289V132.062H470.242V123.672H484.352V125.172H472.094V127.117H483.789V128.523H472.094V130.586H484.469V132.062H478.117V134.125H486.719ZM477.227 137.195C481.797 137.172 484.375 138.344 484.398 140.523C484.375 142.703 481.797 143.852 477.227 143.852C472.609 143.852 470.031 142.703 470.031 140.523C470.031 138.344 472.609 137.172 477.227 137.195ZM477.227 138.578C473.781 138.578 471.859 139.281 471.883 140.523C471.859 141.789 473.781 142.445 477.227 142.422C480.625 142.445 482.547 141.789 482.547 140.523C482.547 139.281 480.625 138.578 477.227 138.578ZM504.766 123.086V129.953H507.906V131.5H504.766V138.695H502.938V123.086H504.766ZM500.945 125.641V127.141H488.523V125.641H493.82V123.086H495.648V125.641H500.945ZM494.734 128.289C497.711 128.289 499.727 129.812 499.75 132.18C499.727 134.523 497.711 136.023 494.734 136.023C491.734 136.023 489.695 134.523 489.719 132.18C489.695 129.812 491.734 128.289 494.734 128.289ZM494.734 129.742C492.766 129.742 491.453 130.703 491.477 132.18C491.453 133.656 492.766 134.594 494.734 134.57C496.68 134.594 497.992 133.656 498.016 132.18C497.992 130.703 496.68 129.742 494.734 129.742ZM505.727 141.906V143.453H491.734V137.453H493.539V141.906H505.727ZM522.695 129.461C522.695 133 525.273 136.586 528.344 137.922L527.312 139.375C524.875 138.262 522.766 135.859 521.805 132.977C520.82 136.035 518.723 138.695 516.344 139.891L515.242 138.438C518.219 137.008 520.82 133.07 520.844 129.461V126.742H515.922V125.219H527.664V126.742H522.695V129.461ZM532.422 123.062V143.898H530.57V123.062H532.422ZM555.039 133.539V135.062H535.984V133.539H544.562V130.328H546.367V133.539H555.039ZM546.391 124.375C546.391 127.141 550.141 129.461 553.82 129.977L553.07 131.453C549.906 130.902 546.777 129.227 545.477 126.812C544.164 129.238 541.023 130.902 537.836 131.453L537.133 129.977C540.812 129.461 544.539 127.141 544.539 124.375V123.391H546.391V124.375ZM552.625 137.102V143.898H550.773V138.578H538.094V137.102H552.625ZM569.922 126.344C569.898 129.32 572.008 131.945 575.078 132.977L574.047 134.406C571.75 133.539 569.945 131.852 569.055 129.648C568.152 132.145 566.242 134.09 563.734 135.039L562.727 133.539C565.938 132.414 568.07 129.648 568.094 126.414V124.258H569.922V126.344ZM580.023 123.062V135.414H578.172V129.062H573.531V127.539H578.172V123.062H580.023ZM573.109 136.023C577.445 136.023 580.094 137.453 580.094 139.961C580.094 142.445 577.445 143.852 573.109 143.852C568.773 143.852 566.125 142.445 566.125 139.961C566.125 137.453 568.773 136.023 573.109 136.023ZM573.109 137.477C569.922 137.477 567.93 138.414 567.953 139.961C567.93 141.461 569.922 142.375 573.109 142.375C576.297 142.375 578.266 141.461 578.266 139.961C578.266 138.414 576.297 137.477 573.109 137.477ZM590.547 127.023C590.547 129.742 592.586 132.18 595.656 133.188L594.789 134.641C592.387 133.855 590.57 132.191 589.68 130.094C588.777 132.484 586.855 134.348 584.359 135.25L583.422 133.773C586.539 132.719 588.719 130.023 588.742 127.023V126.133H583.984V124.609H595.234V126.133H590.547V127.023ZM599.781 123.062V128.383H602.922V129.93H599.781V135.648H597.953V123.062H599.781ZM593.102 136.211C597.391 136.211 599.969 137.617 599.969 140.008C599.969 142.445 597.391 143.852 593.102 143.852C588.812 143.852 586.188 142.445 586.188 140.008C586.188 137.617 588.812 136.211 593.102 136.211ZM593.102 137.688C589.961 137.688 588.016 138.555 588.039 140.008C588.016 141.508 589.961 142.375 593.102 142.375C596.266 142.375 598.188 141.508 598.188 140.008C598.188 138.555 596.266 137.688 593.102 137.688ZM617.711 129.461C617.711 133 620.289 136.586 623.359 137.922L622.328 139.375C619.891 138.262 617.781 135.859 616.82 132.977C615.836 136.035 613.738 138.695 611.359 139.891L610.258 138.438C613.234 137.008 615.836 133.07 615.859 129.461V126.742H610.938V125.219H622.68V126.742H617.711V129.461ZM627.438 123.062V143.898H625.586V123.062H627.438ZM648.18 123.086V138.906H646.328V136.75H642.016V135.414H646.328V123.086H648.18ZM648.695 141.906V143.453H633.883V137.359H635.734V141.906H648.695ZM630.883 132.742C634.773 132.719 639.977 132.695 644.453 132.133L644.57 133.469C642.707 133.762 640.762 133.949 638.852 134.055V138.18H637V134.148C634.891 134.242 632.887 134.254 631.141 134.242L630.883 132.742ZM637.727 123.93C640.773 123.93 642.859 125.383 642.883 127.562C642.859 129.789 640.773 131.172 637.727 131.172C634.656 131.172 632.57 129.789 632.57 127.562C632.57 125.383 634.656 123.93 637.727 123.93ZM637.727 125.336C635.688 125.312 634.305 126.227 634.328 127.562C634.305 128.922 635.688 129.812 637.727 129.812C639.695 129.812 641.102 128.922 641.125 127.562C641.102 126.227 639.695 125.312 637.727 125.336Z" fill="black"/>
<path d="M206 29L206 161" stroke="url(#paint1_linear_469_1760)" stroke-width="2"/>
<path d="M30.873 130.348C30.873 133.492 32.1758 136.659 35.0059 138.187L33.6133 140.028C31.7266 139.029 30.4463 137.243 29.7275 135.109C29.0088 137.412 27.7285 139.377 25.8193 140.5L24.3594 138.613C27.2344 136.951 28.5146 133.56 28.5146 130.348V129.719H25.0557V127.697H28.5146V124.867H30.873V127.697H34.2646V129.719H30.873V130.348ZM42.1484 124.148V144.453H39.7676V124.148H42.1484ZM38.0156 124.53V143.465H35.6572V134.009H33.0068V131.942H35.6572V124.53H38.0156ZM62.0713 124.148V144.453H59.6904V124.148H62.0713ZM57.8711 124.643V143.487H55.4902V136.704H52.3232V134.66H55.4902V131.65H52.6826C51.728 135.02 49.6055 137.917 45.8096 140.163L44.3496 138.389C48.561 135.907 50.4927 132.729 50.8633 128.641H45.4277V126.619H53.334C53.334 127.641 53.2666 128.641 53.1318 129.606H55.4902V124.643H57.8711ZM71.8867 127.63C71.8867 130.101 73.5264 132.594 76.6709 133.649L75.4131 135.581C73.1445 134.84 71.5386 133.301 70.6514 131.403C69.7642 133.526 68.0684 135.233 65.665 136.03L64.3848 134.054C67.6191 132.998 69.3486 130.303 69.3486 127.652V127.383H65.126V125.384H76.0869V127.383H71.8867V127.63ZM81.4326 137.221V144.453H78.9395V139.22H67.5967V137.221H81.4326ZM81.4326 124.148V136.255H78.9395V131.224H75.4805V129.18H78.9395V124.148H81.4326ZM101.221 124.171V138.838H98.7051V124.171H101.221ZM101.782 142.027V144.049H87.7891V137.355H90.3047V142.027H101.782ZM90.1475 125.496C93.2246 125.496 95.6055 127.63 95.6055 130.572C95.6055 133.582 93.2246 135.671 90.1475 135.671C87.0479 135.671 84.667 133.582 84.667 130.572C84.667 127.63 87.0479 125.496 90.1475 125.496ZM90.1475 127.675C88.418 127.675 87.0928 128.82 87.1152 130.572C87.0928 132.369 88.418 133.492 90.1475 133.492C91.832 133.492 93.1572 132.369 93.1572 130.572C93.1572 128.82 91.832 127.675 90.1475 127.675ZM126.152 134.795V136.771H111.912V125.743H125.973V127.765H114.45V130.213H125.501V132.167H114.45V134.795H126.152ZM128.196 139.938V141.982H109.644V139.938H128.196ZM137.338 126.26V133.717H132.531V137.535C134.631 137.513 136.619 137.423 138.91 136.996L139.112 139.04C136.395 139.534 134.104 139.602 131.543 139.602H130.128V131.74H134.935V128.259H130.105V126.26H137.338ZM146.996 124.148V144.453H144.615V124.148H146.996ZM142.818 124.575V143.42H140.46V133.245H138.236V131.201H140.46V124.575H142.818ZM166.29 124.148V144.476H163.774V124.148H166.29ZM155.352 125.631C158.406 125.631 160.63 128.416 160.652 132.796C160.63 137.221 158.406 139.983 155.352 139.983C152.274 139.983 150.051 137.221 150.051 132.796C150.051 128.416 152.274 125.631 155.352 125.631ZM155.352 127.877C153.622 127.877 152.454 129.696 152.454 132.796C152.454 135.918 153.622 137.737 155.352 137.737C157.059 137.737 158.227 135.918 158.227 132.796C158.227 129.696 157.059 127.877 155.352 127.877ZM186.123 124.148V136.053H183.63V124.148H186.123ZM172.983 125.451V132.616C176.004 132.583 178.812 132.358 181.811 131.74L182.103 133.762C178.756 134.48 175.611 134.705 172.197 134.683H170.468V125.451H172.983ZM179.272 136.277C183.54 136.255 186.213 137.782 186.213 140.365C186.213 142.903 183.54 144.431 179.272 144.431C175.005 144.431 172.31 142.903 172.332 140.365C172.31 137.782 175.005 136.255 179.272 136.277ZM179.272 138.299C176.442 138.299 174.825 138.995 174.825 140.365C174.825 141.69 176.442 142.432 179.272 142.432C182.103 142.432 183.697 141.69 183.72 140.365C183.697 138.995 182.103 138.299 179.272 138.299Z" fill="black"/>
<circle cx="106.227" cy="73.227" r="35.227" fill="#CCE0FF"/>
<g filter="url(#filter0_i_469_1760)">
<circle cx="106.227" cy="73.2267" r="33.1446" fill="#CCE0FF"/>
</g>
<g filter="url(#filter1_d_469_1760)">
<path d="M101.617 57.4883C100.668 57.5164 99.8342 58.1759 99.6469 59.1069C99.4296 60.1886 100.164 61.2345 101.286 61.4439C101.382 61.4617 101.479 61.4779 101.577 61.4821C103.061 61.6107 104.54 61.8192 105.996 62.1289C106.444 62.2242 106.885 62.3459 107.328 62.4634C108.067 63.4829 108.763 64.5322 109.378 65.6249C109.429 65.7151 109.47 65.8096 109.519 65.9007L108.172 66.8529C108.168 66.8564 108.162 66.8581 108.158 66.8615L100.221 72.4731C99.9075 72.6952 99.6619 72.9701 99.4791 73.2739C99.404 73.388 99.336 73.5079 99.2821 73.6382C99.2706 73.6645 99.2617 73.6926 99.2529 73.7181C98.3191 76.2397 97.2758 78.7196 96.145 81.1663C93.6572 82.2403 91.1297 83.2258 88.5651 84.1202C88.5015 84.1381 88.4388 84.161 88.3778 84.1857C87.209 84.6529 86.6551 85.9439 87.141 87.0698C87.6269 88.1957 88.967 88.7302 90.1367 88.2613C90.1632 88.2502 90.1906 88.2417 90.2162 88.2298C93.1298 87.2111 96.0063 86.0827 98.8262 84.841C99.4508 84.5798 99.8855 84.0751 100.082 83.493C100.865 81.8207 101.602 80.1263 102.3 78.4183L104.279 79.0098C104.294 79.0149 104.309 79.0149 104.324 79.0183C104.966 79.2013 105.606 79.3911 106.244 79.5851V79.6166L106.277 79.5936C107.46 79.9544 108.632 80.3408 109.802 80.7408C108.527 82.1569 107.215 83.5449 105.865 84.8963C105.816 84.9414 105.771 84.9874 105.727 85.0359C104.893 85.9516 104.986 87.3447 105.937 88.1489C106.888 88.9532 108.338 88.8621 109.172 87.9447C109.191 87.9234 109.21 87.9047 109.228 87.8834C111.376 85.7312 113.442 83.4964 115.403 81.1833C115.456 81.1237 115.495 81.0574 115.539 80.9935C115.574 80.9442 115.612 80.8991 115.642 80.8472C116.171 79.9561 115.996 78.7979 115.17 78.0967H115.168C114.922 77.8882 114.638 77.7435 114.343 77.6541C114.326 77.6482 114.31 77.6431 114.293 77.6388C113.132 77.2082 111.961 76.8014 110.786 76.4057L111.254 76.0746L113.804 74.2713L114.606 73.7045C115.414 74.9351 116.292 76.1231 117.241 77.2567C117.489 77.6039 117.833 77.849 118.216 77.9877C118.238 77.9962 118.263 78.0005 118.285 78.0073C118.379 78.0388 118.477 78.0677 118.575 78.0856C118.663 78.1026 118.752 78.1069 118.842 78.112C118.877 78.1137 118.911 78.1205 118.946 78.1205C119.463 78.1247 119.982 77.9443 120.385 77.5767C120.961 77.0848 121.531 76.5818 122.076 76.0525C123.23 74.9317 124.305 73.7369 125.305 72.4859C126.059 71.6799 126.003 70.4409 125.183 69.6971C124.35 68.9422 123.039 68.9797 122.256 69.7822C122.189 69.8511 122.123 69.9209 122.066 69.9983C121.182 71.1081 120.232 72.1735 119.212 73.1718C118.757 72.5633 118.32 71.9412 117.911 71.3038C117.558 70.7532 117.233 70.1864 116.915 69.6137C116.874 69.5303 116.826 69.452 116.774 69.3745C116.769 69.366 116.761 69.3592 116.756 69.3516C116.701 69.2579 116.652 69.1626 116.585 69.0741L114.141 65.8675C114.117 65.8343 114.085 65.8104 114.058 65.779C114.05 65.7611 114.046 65.7432 114.038 65.7253C113.716 65.0513 113.381 64.3807 113.012 63.7254C112.23 62.3374 111.354 61.0013 110.399 59.718C110.39 59.7035 110.377 59.6933 110.368 59.6797C110.329 59.6193 110.281 59.5648 110.236 59.5086C110.203 59.4703 110.176 59.4261 110.141 59.3903C109.877 59.112 109.533 58.901 109.127 58.8023C108.387 58.5963 107.641 58.3989 106.886 58.2389C105.285 57.8993 103.663 57.6628 102.03 57.5172C101.891 57.4934 101.752 57.484 101.617 57.4883ZM119.151 57.5768C118.544 57.6177 117.964 57.867 117.475 58.2185C116.985 58.5699 116.581 59.021 116.224 59.5001C115.731 60.1588 115.342 60.883 115.031 61.6379V61.6396C114.997 61.7111 114.964 61.7826 114.933 61.8557C114.919 61.8906 114.902 61.923 114.888 61.957C114.89 61.957 114.89 61.9579 114.892 61.9587C114.191 63.711 114.595 65.6947 115.932 67.0615C116.193 67.3278 116.483 67.5644 116.798 67.7678L116.8 67.7729C116.999 67.9142 117.196 68.0597 117.374 68.2248C117.443 68.2912 117.549 68.3814 117.624 68.441C118.158 68.9856 119.04 69.0614 119.659 68.6069C119.778 68.5261 119.898 68.4461 120.019 68.3695C120.264 68.2154 120.506 68.0546 120.735 67.881C120.819 67.8172 120.902 67.7508 120.984 67.6818C121.034 67.641 121.103 67.6367 121.156 67.6733C121.209 67.7099 121.265 67.7423 121.32 67.7729C121.402 67.818 121.483 67.8589 121.567 67.8844C121.652 67.9099 121.741 67.9193 121.831 67.9057C121.905 67.8946 121.974 67.8691 122.026 67.8189C122.078 67.7695 122.105 67.7099 122.131 67.6427C122.231 67.3916 122.296 67.1287 122.34 66.8632C122.365 66.7151 122.383 66.5653 122.4 66.4164C122.425 66.253 122.51 66.1015 122.637 65.9875C122.645 65.9807 122.654 65.9764 122.662 65.9696C123.032 65.6726 123.362 65.3313 123.644 64.9577C123.922 64.5892 124.148 64.1884 124.327 63.7663C124.378 63.665 124.453 63.5723 124.537 63.4957C124.611 63.4284 124.698 63.3731 124.789 63.3331C124.841 63.3118 124.89 63.2897 124.944 63.2701C124.968 63.2608 124.998 63.254 125.022 63.2455C125.098 63.225 125.165 63.1859 125.222 63.134C125.419 62.9561 125.427 62.66 125.243 62.471C125.215 62.4412 125.184 62.4106 125.15 62.3893C125.133 62.3774 125.116 62.3681 125.1 62.3544C124.563 61.9009 124.149 61.3298 123.789 60.7392C123.423 60.1392 123.108 59.5086 122.679 58.9538C122.572 58.815 122.455 58.6814 122.33 58.5546H122.328C121.955 58.1742 121.509 57.8679 120.993 57.7283C120.69 57.6466 120.37 57.6279 120.055 57.6687C120.037 57.6713 120.017 57.6696 120 57.6653C119.722 57.5913 119.435 57.5572 119.151 57.5768Z" fill="#69A4FF"/>
</g>
<defs>
<filter id="filter0_i_469_1760" x="73.082" y="40.082" width="70.2891" height="69.2891" filterUnits="userSpaceOnUse" color-interpolation-filters="sRGB">
<feFlood flood-opacity="0" result="BackgroundImageFix"/>
<feBlend mode="normal" in="SourceGraphic" in2="BackgroundImageFix" result="shape"/>
<feColorMatrix in="SourceAlpha" type="matrix" values="0 0 0 0 0 0 0 0 0 0 0 0 0 0 0 0 0 0 127 0" result="hardAlpha"/>
<feOffset dx="4" dy="3"/>
<feGaussianBlur stdDeviation="3.5"/>
<feComposite in2="hardAlpha" operator="arithmetic" k2="-1" k3="1"/>
<feColorMatrix type="matrix" values="0 0 0 0 1 0 0 0 0 1 0 0 0 0 1 0 0 0 0.3 0"/>
<feBlend mode="normal" in2="shape" result="effect1_innerShadow_469_1760"/>
</filter>
<filter id="filter1_d_469_1760" x="79.9648" y="51.4873" width="58.8711" height="51.21" filterUnits="userSpaceOnUse" color-interpolation-filters="sRGB">
<feFlood flood-opacity="0" result="BackgroundImageFix"/>
<feColorMatrix in="SourceAlpha" type="matrix" values="0 0 0 0 0 0 0 0 0 0 0 0 0 0 0 0 0 0 127 0" result="hardAlpha"/>
<feOffset dx="3" dy="4"/>
<feGaussianBlur stdDeviation="5"/>
<feComposite in2="hardAlpha" operator="out"/>
<feColorMatrix type="matrix" values="0 0 0 0 0.588235 0 0 0 0 0.74902 0 0 0 0 1 0 0 0 1 0"/>
<feBlend mode="normal" in2="BackgroundImageFix" result="effect1_dropShadow_469_1760"/>
<feBlend mode="normal" in="SourceGraphic" in2="effect1_dropShadow_469_1760" result="shape"/>
</filter>
<linearGradient id="paint0_linear_469_1760" x1="-0.691317" y1="94" x2="1064.03" y2="93.9999" gradientUnits="userSpaceOnUse">
<stop stop-color="#3182F6"/>
<stop offset="1" stop-color="#A009FF"/>
</linearGradient>
<linearGradient id="paint1_linear_469_1760" x1="205.999" y1="95" x2="207.391" y2="95" gradientUnits="userSpaceOnUse">
<stop stop-color="#3182F6"/>
<stop offset="1" stop-color="#A009FF"/>
</linearGradient>
</defs>
</svg>
