<svg width="765" height="188" viewBox="0 0 765 188" fill="none" xmlns="http://www.w3.org/2000/svg">
<rect x="2" y="2" width="761" height="184" rx="13" fill="white" stroke="url(#paint0_linear_469_1761)" stroke-width="4"/>
<path d="M236.906 59.6406C235.594 59.6406 234.516 58.5625 234.516 57.2266C234.516 55.9141 235.594 54.8359 236.906 54.8359C238.242 54.8359 239.32 55.9141 239.32 57.2266C239.32 58.5625 238.242 59.6406 236.906 59.6406ZM256.875 64V47.0312H267.164V48.9062H258.984V54.5781H266.625V56.4297H258.984V62.125H267.281V64H256.875ZM271.758 51.2734L274.758 56.4531L277.781 51.2734H280.102L276 57.625L280.102 64H277.805L274.758 59.0781L271.758 64H269.438L273.445 57.625L269.438 51.2734H271.758ZM287.203 64.2578C283.594 64.2578 281.391 61.5156 281.391 57.6953C281.391 53.8281 283.688 51.1094 287.156 51.1094C289.875 51.1094 291.891 52.7031 292.219 55.1172H290.203C289.922 53.9453 288.891 52.8906 287.203 52.8906C284.93 52.8906 283.406 54.7656 283.406 57.625C283.406 60.5781 284.883 62.4531 287.203 62.4531C288.703 62.4531 289.852 61.6562 290.203 60.25H292.219C291.891 62.5234 290.039 64.2578 287.203 64.2578ZM300.047 64.2578C296.367 64.2578 294.094 61.6562 294.094 57.7422C294.094 53.8281 296.391 51.1094 299.859 51.1094C302.531 51.1094 305.344 52.75 305.344 57.4609V58.3047H296.109C296.203 61 297.773 62.4766 300.047 62.4766C301.57 62.4766 302.531 61.8203 303 61.0234H305.156C304.547 62.9453 302.672 64.2578 300.047 64.2578ZM296.133 56.5938H303.305C303.305 54.4609 301.945 52.8906 299.859 52.8906C297.656 52.8906 296.25 54.625 296.133 56.5938ZM309.984 47.0312V64H307.969V47.0312H309.984ZM315.211 47.0312V64H313.195V47.0312H315.211ZM323.766 64.2578C320.086 64.2578 317.812 61.6562 317.812 57.7422C317.812 53.8281 320.109 51.1094 323.578 51.1094C326.25 51.1094 329.062 52.75 329.062 57.4609V58.3047H319.828C319.922 61 321.492 62.4766 323.766 62.4766C325.289 62.4766 326.25 61.8203 326.719 61.0234H328.875C328.266 62.9453 326.391 64.2578 323.766 64.2578ZM319.852 56.5938H327.023C327.023 54.4609 325.664 52.8906 323.578 52.8906C321.375 52.8906 319.969 54.625 319.852 56.5938ZM333.703 56.3594V64H331.688V51.2734H333.633V53.2656H333.797C334.406 51.9766 335.578 51.1094 337.523 51.1094C340.102 51.1094 341.812 52.6797 341.812 55.9141V64H339.797V56.0547C339.797 54.0859 338.719 52.9141 336.914 52.9141C335.062 52.9141 333.703 54.1562 333.703 56.3594ZM350.25 64.2578C346.641 64.2578 344.438 61.5156 344.438 57.6953C344.438 53.8281 346.734 51.1094 350.203 51.1094C352.922 51.1094 354.938 52.7031 355.266 55.1172H353.25C352.969 53.9453 351.938 52.8906 350.25 52.8906C347.977 52.8906 346.453 54.7656 346.453 57.625C346.453 60.5781 347.93 62.4531 350.25 62.4531C351.75 62.4531 352.898 61.6562 353.25 60.25H355.266C354.938 62.5234 353.086 64.2578 350.25 64.2578ZM363.094 64.2578C359.414 64.2578 357.141 61.6562 357.141 57.7422C357.141 53.8281 359.438 51.1094 362.906 51.1094C365.578 51.1094 368.391 52.75 368.391 57.4609V58.3047H359.156C359.25 61 360.82 62.4766 363.094 62.4766C364.617 62.4766 365.578 61.8203 366.047 61.0234H368.203C367.594 62.9453 365.719 64.2578 363.094 64.2578ZM359.18 56.5938H366.352C366.352 54.4609 364.992 52.8906 362.906 52.8906C360.703 52.8906 359.297 54.625 359.18 56.5938ZM372.445 64.1406C371.625 64.1406 370.922 63.4609 370.945 62.6172C370.922 61.7969 371.625 61.1172 372.445 61.1172C373.266 61.1172 373.945 61.7969 373.945 62.6172C373.945 63.4609 373.266 64.1406 372.445 64.1406ZM372.445 54.7188C371.625 54.7188 370.922 54.0391 370.945 53.1953C370.922 52.375 371.625 51.6953 372.445 51.6953C373.266 51.6953 373.945 52.375 373.945 53.1953C373.945 54.0391 373.266 54.7188 372.445 54.7188ZM399.234 50.4531V51.9297H392.766V54.5781H401.344V56.1016H382.359V54.5781H390.938V51.9297H384.961V45.5312H386.789V50.4531H399.234ZM399.258 58.1875V59.6641H396.023V64.1172H399.422V65.6172H384.305V64.1172H387.703V59.6641H384.492V58.1875H399.258ZM389.531 64.1172H394.219V59.6641H389.531V64.1172ZM422.086 56.0547V57.5547H403.102V56.0547H422.086ZM419.977 63.9062V65.4531H405.562V59.3828H407.414V63.9062H419.977ZM412.594 45.8125C417.07 45.7891 419.953 47.3359 419.953 49.9375C419.953 52.5391 417.07 54.0859 412.594 54.0859C408.07 54.0859 405.211 52.5391 405.211 49.9375C405.211 47.3359 408.07 45.7891 412.594 45.8125ZM412.594 47.2891C409.242 47.2891 407.086 48.2969 407.109 49.9375C407.086 51.5781 409.242 52.5859 412.594 52.5859C415.922 52.5859 418.078 51.5781 418.078 49.9375C418.078 48.2969 415.922 47.2891 412.594 47.2891ZM440.32 47.0078C440.32 49.9375 444.164 52.4922 447.914 53.0078L447.164 54.5078C443.93 53.9688 440.73 52.1758 439.383 49.6094C438.047 52.1875 434.836 53.9688 431.602 54.5078L430.852 53.0078C434.602 52.4922 438.422 49.9844 438.422 47.0078V45.8125H440.32V47.0078ZM448.852 56.8047V58.3516H440.227V65.8984H438.422V58.3516H429.867V56.8047H448.852ZM456.352 46.0469C459.152 46.0234 461.273 47.6523 461.672 50.0547H466.031V45.0625H467.883V56.2422H466.031V51.5781H461.695C461.32 54.0391 459.176 55.6797 456.352 55.6797C453.188 55.6797 450.938 53.7109 450.938 50.8516C450.938 48.0156 453.188 46.0234 456.352 46.0469ZM456.352 47.6172C454.219 47.5938 452.695 48.9297 452.695 50.8516C452.695 52.75 454.219 54.1328 456.352 54.1328C458.461 54.1328 459.961 52.75 459.961 50.8516C459.961 48.9297 458.461 47.5938 456.352 47.6172ZM456.305 57.2969V59.9453H466.031V57.2969H467.883V65.6172H454.453V57.2969H456.305ZM456.305 64.1172H466.031V61.4219H456.305V64.1172ZM494.602 45.0625V65.8984H492.75V45.0625H494.602ZM488.438 47.3359C488.414 53.3359 485.625 58.6328 478.641 61.9844L477.633 60.4844C483.27 57.8125 486.141 53.8164 486.562 48.8359H478.594V47.3359H488.438ZM508.805 47.6641C508.781 50.2188 512.297 52.3047 515.977 52.8203L515.25 54.2734C511.887 53.793 508.746 52.1055 507.609 49.6562C506.484 52.1055 503.355 53.793 499.969 54.2734L499.289 52.8203C502.969 52.3047 506.414 50.2188 506.414 47.6641V47.6172H499.852V46.1172H515.414V47.6172H508.805V47.6641ZM517.172 55.7969V57.3203H508.688V61.5859H506.859V57.3203H498.094V55.7969H517.172ZM515.039 63.9062V65.4531H500.531V59.5H502.383V63.9062H515.039ZM543.938 56.9453V58.4688H538.898V65.8984H537.047V58.4688H531.703V65.8984H529.805V58.4688H524.859V56.9453H543.938ZM534.352 45.9062C538.734 45.9062 541.688 47.6641 541.688 50.4531C541.688 53.2188 538.734 54.9766 534.352 54.9531C529.969 54.9766 527.016 53.2188 527.016 50.4531C527.016 47.6641 529.969 45.9062 534.352 45.9062ZM534.352 47.4062C531.094 47.4062 528.891 48.6016 528.914 50.4531C528.891 52.3047 531.094 53.4766 534.352 53.4766C537.586 53.4766 539.812 52.3047 539.812 50.4531C539.812 48.6016 537.586 47.4062 534.352 47.4062ZM553.078 51.4609C553.078 55 555.656 58.5859 558.727 59.9219L557.695 61.375C555.258 60.2617 553.148 57.8594 552.188 54.9766C551.203 58.0352 549.105 60.6953 546.727 61.8906L545.625 60.4375C548.602 59.0078 551.203 55.0703 551.227 51.4609V48.7422H546.305V47.2188H558.047V48.7422H553.078V51.4609ZM562.805 45.0625V65.8984H560.953V45.0625H562.805ZM236.906 97.6406C235.594 97.6406 234.516 96.5625 234.516 95.2266C234.516 93.9141 235.594 92.8359 236.906 92.8359C238.242 92.8359 239.32 93.9141 239.32 95.2266C239.32 96.5625 238.242 97.6406 236.906 97.6406ZM267.984 85.0312H270.094V96.2578C270.094 99.75 267.492 102.305 263.484 102.305C259.477 102.305 256.875 99.75 256.875 96.2578V85.0312H258.984V96.0938C258.984 98.5547 260.695 100.336 263.484 100.336C266.297 100.336 267.984 98.5547 267.984 96.0938V85.0312ZM275.602 94.3594V102H273.586V89.2734H275.531V91.2656H275.695C276.305 89.9766 277.477 89.1094 279.422 89.1094C282 89.1094 283.711 90.6797 283.711 93.9141V102H281.695V94.0547C281.695 92.0859 280.617 90.9141 278.812 90.9141C276.961 90.9141 275.602 92.1562 275.602 94.3594ZM286.945 102V89.2734H288.961V102H286.945ZM287.953 87.1641C287.18 87.1641 286.547 86.5781 286.547 85.8281C286.547 85.0781 287.18 84.4922 287.953 84.4922C288.727 84.4922 289.383 85.0781 289.383 85.8281C289.383 86.5781 288.727 87.1641 287.953 87.1641ZM297.867 89.2734V90.9609H295.055V102H293.016V90.9609H290.977V89.2734H293.016V87.5391C293.016 85.4766 294.398 84.2344 296.648 84.2344C297.141 84.2344 297.727 84.3047 298.148 84.375V86.1797C297.727 86.1094 297.352 86.0859 297.094 86.0859C295.688 86.0859 295.055 86.6719 295.055 87.9844V89.2734H297.867ZM304.922 102.258C301.453 102.258 299.109 99.6562 299.109 95.6953C299.109 91.7344 301.453 89.1094 304.922 89.1094C308.367 89.1094 310.688 91.7344 310.688 95.6953C310.688 99.6562 308.367 102.258 304.922 102.258ZM304.922 100.477C307.477 100.477 308.672 98.2266 308.672 95.6953C308.672 93.1641 307.477 90.8906 304.922 90.8906C302.32 90.8906 301.125 93.1641 301.125 95.6953C301.125 98.2266 302.32 100.477 304.922 100.477ZM313.336 102V89.2734H315.281V91.2188H315.422C315.891 89.9297 317.203 89.0625 318.703 89.0625C319.008 89.0625 319.523 89.0859 319.758 89.1094V91.1484C319.617 91.1016 319.055 91.0078 318.539 91.0078C316.711 91.0078 315.352 92.2734 315.352 93.9844V102H313.336ZM321.727 102V89.2734H323.672V91.2656H323.836C324.375 89.9062 325.594 89.1094 327.258 89.1094C328.922 89.1094 330.047 89.9062 330.656 91.2656H330.797C331.453 89.9531 332.789 89.1094 334.617 89.1094C336.891 89.1094 338.508 90.4922 338.508 93.4922V102H336.492V93.5156C336.492 91.6406 335.297 90.9141 333.914 90.9141C332.133 90.9141 331.125 92.1094 331.125 93.7266V102H329.086V93.3047C329.086 91.875 328.055 90.9141 326.602 90.9141C325.078 90.9141 323.742 92.2031 323.742 94.0547V102H321.727ZM341.742 102V89.2734H343.758V102H341.742ZM342.75 87.1641C341.977 87.1641 341.344 86.5781 341.344 85.8281C341.344 85.0781 341.977 84.4922 342.75 84.4922C343.523 84.4922 344.18 85.0781 344.18 85.8281C344.18 86.5781 343.523 87.1641 342.75 87.1641ZM352.523 89.2734V90.9609H349.852V98.3438C349.852 99.9844 350.648 100.242 351.516 100.242C351.891 100.242 352.406 100.219 352.711 100.195V102.07C352.406 102.117 351.891 102.164 351.305 102.164C349.617 102.164 347.812 101.109 347.812 98.8594V90.9609H345.891V89.2734H347.812V86.2266H349.852V89.2734H352.523ZM356.414 106.781C355.969 106.781 355.547 106.758 355.289 106.734V104.93C355.5 104.953 355.969 104.977 356.273 104.977C357.094 104.977 357.773 104.906 358.453 103.055L358.828 102.094L354.117 89.2734H356.32L359.789 99.375H359.93L363.398 89.2734H365.602L360.211 103.828C359.461 105.82 358.219 106.781 356.414 106.781ZM369.258 102.141C368.438 102.141 367.734 101.461 367.758 100.617C367.734 99.7969 368.438 99.1172 369.258 99.1172C370.078 99.1172 370.758 99.7969 370.758 100.617C370.758 101.461 370.078 102.141 369.258 102.141ZM369.258 92.7188C368.438 92.7188 367.734 92.0391 367.758 91.1953C367.734 90.375 368.438 89.6953 369.258 89.6953C370.078 89.6953 370.758 90.375 370.758 91.1953C370.758 92.0391 370.078 92.7188 369.258 92.7188ZM395.461 83.0625V88.5H398.602V90.0234H395.461V95.5781H393.633V83.0625H395.461ZM389.789 84.6094C389.789 89.9062 386.039 93.8203 379.969 95.6016L379.195 94.1016C384.223 92.6484 387.434 89.7539 387.82 86.1328H380.109V84.6094H389.789ZM388.875 95.8125C393.07 95.8125 395.695 97.3359 395.695 99.8203C395.695 102.352 393.07 103.852 388.875 103.852C384.727 103.852 382.031 102.352 382.055 99.8203C382.031 97.3359 384.727 95.8125 388.875 95.8125ZM388.875 97.2891C385.828 97.2656 383.859 98.25 383.883 99.8203C383.859 101.391 385.828 102.375 388.875 102.375C391.945 102.375 393.914 101.391 393.914 99.8203C393.914 98.25 391.945 97.2656 388.875 97.2891ZM406.898 88.6641C406.898 92.3438 409.336 96.1172 412.289 97.5703L411.164 99.0469C408.867 97.8398 406.945 95.3789 406.031 92.4844C405.094 95.5664 403.125 98.1914 400.781 99.4453L399.609 97.9688C402.656 96.4688 405.07 92.4609 405.094 88.6641V84.8672H406.898V88.6641ZM416.039 83.0625V91.5234H419.531V93.1172H416.039V103.898H414.211V83.0625H416.039ZM442.969 83.0625V89.4141H446.109V90.9609H442.969V98.3203H441.117V83.0625H442.969ZM437.344 84.6797C437.344 90.0469 433.5 94.0312 427.5 95.9062L426.703 94.4297C431.695 92.8711 434.953 89.8945 435.352 86.2266H427.57V84.6797H437.344ZM443.93 101.906V103.453H429.914V96.7734H431.742V101.906H443.93ZM472.43 93.1406V94.6641H463.828V97.125H470.109V103.617H455.766V97.125H462.023V94.6641H453.445V93.1406H472.43ZM470.625 83.7422V85.2656H467.414V89.6484H470.555V91.1719H455.297V89.6484H458.438V85.2656H455.227V83.7422H470.625ZM457.594 98.5781V102.117H468.305V98.5781H457.594ZM460.266 89.6484H465.586V85.2656H460.266V89.6484ZM491.367 83.0625V93.8906H489.562V83.0625H491.367ZM491.391 94.8984V99.8672H479.695V102.188H492.141V103.664H477.891V98.4844H489.562V96.3516H477.844V94.8984H491.391ZM481.688 86.0156C481.688 88.7344 483.914 91.1016 487.055 92.0391L486.141 93.4688C483.68 92.6953 481.723 91.043 480.797 88.8984C479.895 91.2422 477.902 93.0703 475.359 93.9141L474.492 92.4609C477.609 91.4297 479.836 88.875 479.836 86.0156V85.7812H474.961V84.2578H486.492V85.7812H481.688V86.0156ZM518.227 83.0625V98.5781H516.375V92.5312H512.812V90.9844H516.375V88.5703H512.812V87.0469H516.375V83.0625H518.227ZM512.648 84.7734V86.2734H510.516V93.5625C511.488 93.5039 512.426 93.4336 513.328 93.3281L513.422 94.7109C509.367 95.3438 504.609 95.4141 501.234 95.4141L501 93.8438L503.695 93.8203V86.2734H501.586V84.7734H512.648ZM518.789 101.906V103.453H504.797V97.2891H506.648V101.906H518.789ZM505.477 93.7734C506.543 93.7617 507.645 93.7266 508.734 93.6797V86.2734H505.477V93.7734ZM528.633 89.8594C528.633 93.1875 530.812 96.6094 533.836 98.0625L532.758 99.4922C530.461 98.3672 528.645 96.0938 527.789 93.3984C526.875 96.293 524.941 98.7188 522.562 99.8672L521.508 98.4375C524.555 97.0078 526.828 93.4453 526.852 89.8594V88.1953H522.07V86.6953H526.828V83.4609H528.68V86.6953H533.367V88.1953H528.633V89.8594ZM537.82 83.0625V91.6172H541.312V93.1875H537.82V103.898H535.992V83.0625H537.82ZM556.359 94.0547V97.875C558.363 97.793 560.414 97.6172 562.336 97.3359L562.477 98.6953C557.719 99.5625 552.586 99.5859 548.836 99.5859L548.578 98.0625C550.324 98.0508 552.387 98.0391 554.555 97.9688V94.0547H556.359ZM561.258 85.8047V87.3281H556.359C556.406 90.0234 558.645 92.2148 561.727 93.0938L560.859 94.5469C558.352 93.7969 556.395 92.1914 555.469 90.0703C554.555 92.3086 552.609 93.9727 550.102 94.7344L549.211 93.3281C552.293 92.4258 554.461 90.1406 554.508 87.3281H549.727V85.8047H554.555V83.2266H556.359V85.8047H561.258ZM565.547 83.0625V103.945H563.719V83.0625H565.547ZM588.281 99.6562V101.18H569.203V99.6562H577.734V94.5469H579.539V99.6562H588.281ZM579.586 86.0859C579.586 89.5781 583.711 92.625 587.344 93.2578L586.523 94.7812C583.348 94.1367 579.996 91.9805 578.648 88.9688C577.277 91.9688 573.949 94.1367 570.773 94.7812L569.953 93.2578C573.586 92.625 577.664 89.5781 577.664 86.0859V84.4922H579.586V86.0859ZM606.117 83.0625V91.9453H609.445V93.4922H606.117V103.898H604.266V83.0625H606.117ZM589.688 98.3438C591.387 98.3438 593.367 98.3438 595.43 98.2734V95.9531C593.004 95.6836 591.422 94.2656 591.445 92.2031C591.422 89.8594 593.414 88.3359 596.367 88.3359C599.273 88.3359 601.289 89.8594 601.312 92.2031C601.289 94.2656 599.684 95.6836 597.281 95.9766V98.2031C599.227 98.1094 601.184 97.957 603 97.6875L603.117 99.0938C598.57 99.8672 593.648 99.9141 589.992 99.9141L589.688 98.3438ZM602.625 85.6172V87.1172H590.062V85.6172H595.43V83.1094H597.281V85.6172H602.625ZM596.367 89.7656C594.445 89.7656 593.156 90.75 593.156 92.2031C593.156 93.6562 594.445 94.5938 596.367 94.5703C598.266 94.5938 599.555 93.6562 599.555 92.2031C599.555 90.75 598.266 89.7656 596.367 89.7656ZM236.906 135.641C235.594 135.641 234.516 134.562 234.516 133.227C234.516 131.914 235.594 130.836 236.906 130.836C238.242 130.836 239.32 131.914 239.32 133.227C239.32 134.562 238.242 135.641 236.906 135.641ZM268.453 128.375C267.961 126.031 265.945 124.766 263.719 124.766C260.648 124.766 258.258 127.133 258.258 131.516C258.258 135.898 260.648 138.266 263.719 138.266C265.945 138.266 267.938 137 268.453 134.68H270.562C269.953 138.148 267.164 140.234 263.719 140.234C259.359 140.234 256.219 136.883 256.219 131.516C256.219 126.148 259.359 122.797 263.719 122.797C267.141 122.797 269.93 124.859 270.562 128.375H268.453ZM278.461 140.258C274.992 140.258 272.648 137.656 272.648 133.695C272.648 129.734 274.992 127.109 278.461 127.109C281.906 127.109 284.227 129.734 284.227 133.695C284.227 137.656 281.906 140.258 278.461 140.258ZM278.461 138.477C281.016 138.477 282.211 136.227 282.211 133.695C282.211 131.164 281.016 128.891 278.461 128.891C275.859 128.891 274.664 131.164 274.664 133.695C274.664 136.227 275.859 138.477 278.461 138.477ZM288.891 132.359V140H286.875V127.273H288.82V129.266H288.984C289.594 127.977 290.766 127.109 292.711 127.109C295.289 127.109 297 128.68 297 131.914V140H294.984V132.055C294.984 130.086 293.906 128.914 292.102 128.914C290.25 128.914 288.891 130.156 288.891 132.359ZM307.312 130.578C307.031 129.523 306.234 128.82 304.734 128.82C303.164 128.82 302.039 129.664 302.039 130.742C302.039 131.586 302.719 132.172 304.219 132.523L306.117 132.992C308.391 133.531 309.516 134.656 309.516 136.438C309.516 138.641 307.711 140.258 304.523 140.258C301.664 140.258 299.953 138.992 299.625 136.672H301.734C301.969 137.914 302.883 138.5 304.477 138.5C306.281 138.5 307.43 137.75 307.43 136.555C307.43 135.664 306.797 135.055 305.344 134.727L303.422 134.281C301.195 133.766 300.023 132.547 300.023 130.859C300.023 128.68 301.922 127.109 304.734 127.109C307.359 127.109 309.023 128.516 309.281 130.578H307.312ZM312.141 140V127.273H314.156V140H312.141ZM313.148 125.164C312.375 125.164 311.742 124.578 311.742 123.828C311.742 123.078 312.375 122.492 313.148 122.492C313.922 122.492 314.578 123.078 314.578 123.828C314.578 124.578 313.922 125.164 313.148 125.164ZM324.445 130.578C324.164 129.523 323.367 128.82 321.867 128.82C320.297 128.82 319.172 129.664 319.172 130.742C319.172 131.586 319.852 132.172 321.352 132.523L323.25 132.992C325.523 133.531 326.648 134.656 326.648 136.438C326.648 138.641 324.844 140.258 321.656 140.258C318.797 140.258 317.086 138.992 316.758 136.672H318.867C319.102 137.914 320.016 138.5 321.609 138.5C323.414 138.5 324.562 137.75 324.562 136.555C324.562 135.664 323.93 135.055 322.477 134.727L320.555 134.281C318.328 133.766 317.156 132.547 317.156 130.859C317.156 128.68 319.055 127.109 321.867 127.109C324.492 127.109 326.156 128.516 326.414 130.578H324.445ZM334.828 127.273V128.961H332.156V136.344C332.156 137.984 332.953 138.242 333.82 138.242C334.195 138.242 334.711 138.219 335.016 138.195V140.07C334.711 140.117 334.195 140.164 333.609 140.164C331.922 140.164 330.117 139.109 330.117 136.859V128.961H328.195V127.273H330.117V124.227H332.156V127.273H334.828ZM342.633 140.258C338.953 140.258 336.68 137.656 336.68 133.742C336.68 129.828 338.977 127.109 342.445 127.109C345.117 127.109 347.93 128.75 347.93 133.461V134.305H338.695C338.789 137 340.359 138.477 342.633 138.477C344.156 138.477 345.117 137.82 345.586 137.023H347.742C347.133 138.945 345.258 140.258 342.633 140.258ZM338.719 132.594H345.891C345.891 130.461 344.531 128.891 342.445 128.891C340.242 128.891 338.836 130.625 338.719 132.594ZM352.57 132.359V140H350.555V127.273H352.5V129.266H352.664C353.273 127.977 354.445 127.109 356.391 127.109C358.969 127.109 360.68 128.68 360.68 131.914V140H358.664V132.055C358.664 130.086 357.586 128.914 355.781 128.914C353.93 128.914 352.57 130.156 352.57 132.359ZM369.117 140.258C365.508 140.258 363.305 137.516 363.305 133.695C363.305 129.828 365.602 127.109 369.07 127.109C371.789 127.109 373.805 128.703 374.133 131.117H372.117C371.836 129.945 370.805 128.891 369.117 128.891C366.844 128.891 365.32 130.766 365.32 133.625C365.32 136.578 366.797 138.453 369.117 138.453C370.617 138.453 371.766 137.656 372.117 136.25H374.133C373.805 138.523 371.953 140.258 369.117 140.258ZM377.906 144.781C377.461 144.781 377.039 144.758 376.781 144.734V142.93C376.992 142.953 377.461 142.977 377.766 142.977C378.586 142.977 379.266 142.906 379.945 141.055L380.32 140.094L375.609 127.273H377.812L381.281 137.375H381.422L384.891 127.273H387.094L381.703 141.828C380.953 143.82 379.711 144.781 377.906 144.781ZM390.75 140.141C389.93 140.141 389.227 139.461 389.25 138.617C389.227 137.797 389.93 137.117 390.75 137.117C391.57 137.117 392.25 137.797 392.25 138.617C392.25 139.461 391.57 140.141 390.75 140.141ZM390.75 130.719C389.93 130.719 389.227 130.039 389.25 129.195C389.227 128.375 389.93 127.695 390.75 127.695C391.57 127.695 392.25 128.375 392.25 129.195C392.25 130.039 391.57 130.719 390.75 130.719ZM417.938 121.086V136.438H416.086V128.398H411.727C411.316 130.965 409.16 132.711 406.406 132.711C403.289 132.711 400.992 130.578 400.992 127.555C400.992 124.531 403.289 122.422 406.406 122.422C409.219 122.422 411.41 124.215 411.75 126.875H416.086V121.086H417.938ZM418.523 139.906V141.453H404.555V134.867H406.406V139.906H418.523ZM406.406 124.039C404.32 124.062 402.75 125.492 402.75 127.555C402.75 129.617 404.32 131.094 406.406 131.117C408.445 131.094 410.016 129.617 410.016 127.555C410.016 125.492 408.445 124.062 406.406 124.039ZM439.219 121.062V141.898H437.461V121.062H439.219ZM435 121.578V140.82H433.266V130.086H429.75V128.586H433.266V121.578H435ZM427.523 127.016C427.523 130.625 429.141 134.211 432.023 135.875L430.898 137.234C428.848 136.004 427.395 133.754 426.68 131.094C425.918 133.965 424.406 136.414 422.32 137.727L421.148 136.344C424.055 134.609 425.742 130.812 425.742 127.016V125.047H421.734V123.523H431.344V125.047H427.523V127.016ZM461.648 129.383V130.93H458.273V141.898H456.445V121.062H458.273V129.383H461.648ZM444.844 123.125V135.055C447.891 135.043 450.996 134.809 454.43 134.094L454.664 135.664C451.078 136.391 447.844 136.602 444.68 136.602H443.016V123.125H444.844ZM474.82 121.836C477.938 121.859 480.211 123.734 480.211 126.453C480.211 129.172 477.938 131.047 474.82 131.047C471.656 131.047 469.406 129.172 469.406 126.453C469.406 123.734 471.656 121.859 474.82 121.836ZM474.82 123.383C472.734 123.383 471.188 124.648 471.211 126.453C471.188 128.281 472.734 129.547 474.82 129.547C476.883 129.547 478.43 128.281 478.43 126.453C478.43 124.648 476.883 123.383 474.82 123.383ZM486.117 121.062V131.773H484.289V121.062H486.117ZM486.117 132.781V137.797H474.422V140.141H486.867V141.617H472.617V136.414H484.289V134.258H472.57V132.781H486.117ZM501.211 122.68V123.781C501.188 125.141 501.188 127.227 500.672 129.945L498.82 129.805C499.324 127.309 499.371 125.539 499.406 124.227H490.828V122.68H501.211ZM495.844 127.297V131.773C498.152 131.68 500.543 131.516 502.711 131.211L502.828 132.57C498.469 133.32 493.43 133.414 489.727 133.414L489.539 131.891C490.887 131.879 492.41 131.867 494.016 131.82V127.297H495.844ZM505.992 121.062V127.859H509.039V129.43H505.992V136.742H504.117V121.062H505.992ZM506.672 139.906V141.453H492.75V135.336H494.602V139.906H506.672ZM522.516 127.906V129.406H518.297V132.312C520.242 132.23 522.188 132.09 523.992 131.891L524.133 133.25C519.656 133.859 514.688 134 510.773 134L510.492 132.5C512.32 132.488 514.371 132.465 516.469 132.383V129.406H512.391V122.422H522.352V123.945H514.242V127.906H522.516ZM527.578 121.086V136.672H525.727V121.086H527.578ZM528.258 139.906V141.453H514.055V135.594H515.883V139.906H528.258ZM547.617 123.008C547.617 125.938 551.461 128.492 555.211 129.008L554.461 130.508C551.227 129.969 548.027 128.176 546.68 125.609C545.344 128.188 542.133 129.969 538.898 130.508L538.148 129.008C541.898 128.492 545.719 125.984 545.719 123.008V121.812H547.617V123.008ZM556.148 132.805V134.352H547.523V141.898H545.719V134.352H537.164V132.805H556.148ZM563.648 122.047C566.449 122.023 568.57 123.652 568.969 126.055H573.328V121.062H575.18V132.242H573.328V127.578H568.992C568.617 130.039 566.473 131.68 563.648 131.68C560.484 131.68 558.234 129.711 558.234 126.852C558.234 124.016 560.484 122.023 563.648 122.047ZM563.648 123.617C561.516 123.594 559.992 124.93 559.992 126.852C559.992 128.75 561.516 130.133 563.648 130.133C565.758 130.133 567.258 128.75 567.258 126.852C567.258 124.93 565.758 123.594 563.648 123.617ZM563.602 133.297V135.945H573.328V133.297H575.18V141.617H561.75V133.297H563.602ZM563.602 140.117H573.328V137.422H563.602V140.117ZM602.484 121.062V141.898H600.727V121.062H602.484ZM598.266 121.578V140.82H596.531V130.086H593.016V128.586H596.531V121.578H598.266ZM590.789 127.016C590.789 130.625 592.406 134.211 595.289 135.875L594.164 137.234C592.113 136.004 590.66 133.754 589.945 131.094C589.184 133.965 587.672 136.414 585.586 137.727L584.414 136.344C587.32 134.609 589.008 130.812 589.008 127.016V125.047H585V123.523H594.609V125.047H590.789V127.016ZM614.836 134.234C619.312 134.234 622.148 135.641 622.148 138.055C622.148 140.445 619.312 141.852 614.836 141.852C610.383 141.852 607.547 140.445 607.547 138.055C607.547 135.641 610.383 134.234 614.836 134.234ZM614.836 135.641C611.508 135.664 609.352 136.578 609.375 138.055C609.352 139.508 611.508 140.398 614.836 140.398C618.164 140.398 620.297 139.508 620.32 138.055C620.297 136.578 618.164 135.664 614.836 135.641ZM621.984 122.141V123.898C621.984 125.586 621.984 127.273 621.398 129.43L619.594 129.219C620.156 127.062 620.156 125.539 620.156 123.898V123.641H607.688V122.141H621.984ZM624.398 130.789V132.289H605.438V130.789H613.289V126.758H615.094V130.789H624.398Z" fill="black"/>
<path d="M206 29L206 161" stroke="url(#paint1_linear_469_1761)" stroke-width="2"/>
<path d="M22.6421 143V126.738H25.562V134.218H25.7866L32.1431 126.738H35.7144L29.4253 134.038L35.7817 143H32.2554L27.3813 136.015L25.562 138.148V143H22.6421ZM37.5786 143V126.738H43.688C47.4165 126.738 49.4155 129.007 49.4155 132.129C49.4155 135.251 47.394 137.497 43.6431 137.497H40.4985V143H37.5786ZM40.4985 135.094H43.2388C45.4399 135.094 46.4282 133.858 46.4282 132.129C46.4282 130.377 45.4399 129.187 43.2388 129.187H40.4985V135.094ZM54.6938 126.738V143H51.7739V126.738H54.6938ZM79.311 124.694V144.999H76.7954V124.694H79.311ZM73.2466 126.851C73.2466 132.893 70.9106 138.036 63.7905 141.405L62.4878 139.406C67.7998 136.879 70.2705 133.443 70.7085 128.827H63.521V126.851H73.2466ZM98.2456 124.717V130.579H101.076V132.646H98.2456V139.653H95.7524V124.717H98.2456ZM99.0542 142.573V144.595H85.2407V138.148H87.7339V142.573H99.0542ZM85.3979 126.154V129.254H90.1372V126.154H92.6079V136.352H82.9272V126.154H85.3979ZM85.3979 134.375H90.1372V131.186H85.3979V134.375ZM118.146 126.379C118.146 128.939 120.999 131.522 125.333 132.084L124.345 134.105C120.897 133.589 118.157 131.893 116.843 129.591C115.507 131.893 112.778 133.589 109.364 134.105L108.375 132.084C112.666 131.522 115.518 128.939 115.518 126.379V125.346H118.146V126.379ZM126.075 135.857V137.924H118.011V144.999H115.541V137.924H107.567V135.857H126.075ZM133.083 125.593C135.71 125.57 137.777 127.086 138.293 129.321H141.955V124.694H144.448V135.588H141.955V131.343H138.316C137.811 133.623 135.722 135.161 133.083 135.161C129.96 135.161 127.714 133.162 127.714 130.354C127.714 127.592 129.96 125.57 133.083 125.593ZM133.083 127.682C131.331 127.682 130.095 128.715 130.095 130.354C130.095 131.972 131.331 133.05 133.083 133.05C134.79 133.05 136.002 131.972 136.025 130.354C136.002 128.715 134.79 127.682 133.083 127.682ZM133.532 136.531V138.688H141.955V136.531H144.448V144.752H131.061V136.531H133.532ZM133.532 142.73H141.955V140.619H133.532V142.73ZM164.124 126.199V127.412C164.101 128.805 164.101 130.804 163.629 133.387L161.159 133.162C161.552 131.062 161.63 129.512 161.675 128.266H153.769V126.199H164.124ZM159.002 130.826V134.869C161.103 134.791 163.259 134.633 165.224 134.353L165.359 136.149C161.136 136.913 156.352 136.98 152.781 137.003L152.556 135.004C153.758 134.993 155.105 134.981 156.532 134.959V130.826H159.002ZM168.975 124.694V131.028H171.603V133.117H168.975V139.9H166.415V124.694H168.975ZM169.626 142.573V144.595H155.588V138.553H158.104V142.573H169.626ZM189.572 124.694V145.021H187.101V124.694H189.572ZM183.328 126.469V134.083H176.342V138.171C179.543 138.148 182.306 137.991 185.461 137.452L185.686 139.496C182.227 140.103 179.195 140.215 175.556 140.215H173.782V132.106H180.79V128.49H173.759V126.469H183.328Z" fill="black"/>
<circle cx="106.227" cy="74.227" r="35.227" fill="#CCE0FF"/>
<g filter="url(#filter0_i_469_1761)">
<circle cx="106.227" cy="74.2271" r="33.1446" fill="#CCE0FF"/>
</g>
<rect x="84.8813" y="53.9238" width="42.6889" height="40.6065" fill="#CCE0FF"/>
<g filter="url(#filter1_d_469_1761)">
<rect x="90.0879" y="71.9712" width="7.98247" height="13.1884" rx="2" fill="#69A4FF"/>
</g>
<g filter="url(#filter2_d_469_1761)">
<path d="M101.194 64.6011C101.194 63.4965 102.089 62.6011 103.194 62.6011H107.176C108.281 62.6011 109.176 63.4965 109.176 64.6011V83.1602C109.176 84.2648 108.281 85.1602 107.176 85.1602H103.194C102.089 85.1602 101.194 84.2648 101.194 83.1602V64.6011Z" fill="#69A4FF"/>
</g>
<g filter="url(#filter3_d_469_1761)">
<path d="M112.299 69.1118C112.299 68.0072 113.195 67.1118 114.299 67.1118H118.282C119.386 67.1118 120.282 68.0072 120.282 69.1118V83.1592C120.282 84.2637 119.386 85.1592 118.282 85.1592H114.299C113.195 85.1592 112.299 84.2637 112.299 83.1592V69.1118Z" fill="#69A4FF"/>
</g>
<defs>
<filter id="filter0_i_469_1761" x="73.0825" y="41.0825" width="70.2891" height="69.2891" filterUnits="userSpaceOnUse" color-interpolation-filters="sRGB">
<feFlood flood-opacity="0" result="BackgroundImageFix"/>
<feBlend mode="normal" in="SourceGraphic" in2="BackgroundImageFix" result="shape"/>
<feColorMatrix in="SourceAlpha" type="matrix" values="0 0 0 0 0 0 0 0 0 0 0 0 0 0 0 0 0 0 127 0" result="hardAlpha"/>
<feOffset dx="4" dy="3"/>
<feGaussianBlur stdDeviation="3.5"/>
<feComposite in2="hardAlpha" operator="arithmetic" k2="-1" k3="1"/>
<feColorMatrix type="matrix" values="0 0 0 0 1 0 0 0 0 1 0 0 0 0 1 0 0 0 0.3 0"/>
<feBlend mode="normal" in2="shape" result="effect1_innerShadow_469_1761"/>
</filter>
<filter id="filter1_d_469_1761" x="83.0879" y="65.9712" width="27.9824" height="33.1885" filterUnits="userSpaceOnUse" color-interpolation-filters="sRGB">
<feFlood flood-opacity="0" result="BackgroundImageFix"/>
<feColorMatrix in="SourceAlpha" type="matrix" values="0 0 0 0 0 0 0 0 0 0 0 0 0 0 0 0 0 0 127 0" result="hardAlpha"/>
<feOffset dx="3" dy="4"/>
<feGaussianBlur stdDeviation="5"/>
<feComposite in2="hardAlpha" operator="out"/>
<feColorMatrix type="matrix" values="0 0 0 0 0.592157 0 0 0 0 0.752941 0 0 0 0 1 0 0 0 1 0"/>
<feBlend mode="normal" in2="BackgroundImageFix" result="effect1_dropShadow_469_1761"/>
<feBlend mode="normal" in="SourceGraphic" in2="effect1_dropShadow_469_1761" result="shape"/>
</filter>
<filter id="filter2_d_469_1761" x="94.1938" y="56.6011" width="27.9824" height="42.5591" filterUnits="userSpaceOnUse" color-interpolation-filters="sRGB">
<feFlood flood-opacity="0" result="BackgroundImageFix"/>
<feColorMatrix in="SourceAlpha" type="matrix" values="0 0 0 0 0 0 0 0 0 0 0 0 0 0 0 0 0 0 127 0" result="hardAlpha"/>
<feOffset dx="3" dy="4"/>
<feGaussianBlur stdDeviation="5"/>
<feComposite in2="hardAlpha" operator="out"/>
<feColorMatrix type="matrix" values="0 0 0 0 0.592157 0 0 0 0 0.752941 0 0 0 0 1 0 0 0 1 0"/>
<feBlend mode="normal" in2="BackgroundImageFix" result="effect1_dropShadow_469_1761"/>
<feBlend mode="normal" in="SourceGraphic" in2="effect1_dropShadow_469_1761" result="shape"/>
</filter>
<filter id="filter3_d_469_1761" x="105.299" y="61.1118" width="27.9824" height="38.0474" filterUnits="userSpaceOnUse" color-interpolation-filters="sRGB">
<feFlood flood-opacity="0" result="BackgroundImageFix"/>
<feColorMatrix in="SourceAlpha" type="matrix" values="0 0 0 0 0 0 0 0 0 0 0 0 0 0 0 0 0 0 127 0" result="hardAlpha"/>
<feOffset dx="3" dy="4"/>
<feGaussianBlur stdDeviation="5"/>
<feComposite in2="hardAlpha" operator="out"/>
<feColorMatrix type="matrix" values="0 0 0 0 0.592157 0 0 0 0 0.752941 0 0 0 0 1 0 0 0 1 0"/>
<feBlend mode="normal" in2="BackgroundImageFix" result="effect1_dropShadow_469_1761"/>
<feBlend mode="normal" in="SourceGraphic" in2="effect1_dropShadow_469_1761" result="shape"/>
</filter>
<linearGradient id="paint0_linear_469_1761" x1="-0.691317" y1="94" x2="1064.03" y2="93.9999" gradientUnits="userSpaceOnUse">
<stop stop-color="#3182F6"/>
<stop offset="1" stop-color="#A009FF"/>
</linearGradient>
<linearGradient id="paint1_linear_469_1761" x1="205.999" y1="95" x2="207.391" y2="95" gradientUnits="userSpaceOnUse">
<stop stop-color="#3182F6"/>
<stop offset="1" stop-color="#A009FF"/>
</linearGradient>
</defs>
</svg>
