<svg width="765" height="188" viewBox="0 0 765 188" fill="none" xmlns="http://www.w3.org/2000/svg">
<rect x="2" y="2" width="761" height="184" rx="13" fill="white" stroke="url(#paint0_linear_469_1760)" stroke-width="4"/>
<path d="M234.922 66.3672C233.828 66.3672 232.93 65.4688 232.93 64.3555C232.93 63.2617 233.828 62.3633 234.922 62.3633C236.035 62.3633 236.934 63.2617 236.934 64.3555C236.934 65.4688 236.035 66.3672 234.922 66.3672ZM266.602 68.1836V69.4531H250.703V68.1836H255.137V64.043H252.148V62.7734H254.863V57.1094H252.109V55.8398H265.078V57.1094H262.324V62.7734H265.039V64.043H262.051V68.1836H266.602ZM256.387 62.7734H260.82V57.1094H256.387V62.7734ZM256.68 68.1836H260.527V64.043H256.68V68.1836ZM276.895 56.3867C276.875 58.5156 279.805 60.2539 282.871 60.6836L282.266 61.8945C279.463 61.4941 276.846 60.0879 275.898 58.0469C274.961 60.0879 272.354 61.4941 269.531 61.8945L268.965 60.6836C272.031 60.2539 274.902 58.5156 274.902 56.3867V56.3477H269.434V55.0977H282.402V56.3477H276.895V56.3867ZM283.867 63.1641V64.4336H276.797V67.9883H275.273V64.4336H267.969V63.1641H283.867ZM282.09 69.9219V71.2109H270V66.25H271.543V69.9219H282.09ZM298.75 54.2188V61.6211H301.523V62.9102H298.75V71.582H297.207V54.2188H298.75ZM285.059 66.9531C286.475 66.9531 288.125 66.9531 289.844 66.8945V64.9609C287.822 64.7363 286.504 63.5547 286.523 61.8359C286.504 59.8828 288.164 58.6133 290.625 58.6133C293.047 58.6133 294.727 59.8828 294.746 61.8359C294.727 63.5547 293.389 64.7363 291.387 64.9805V66.8359C293.008 66.7578 294.639 66.6309 296.152 66.4062L296.25 67.5781C292.461 68.2227 288.359 68.2617 285.312 68.2617L285.059 66.9531ZM295.84 56.3477V57.5977H285.371V56.3477H289.844V54.2578H291.387V56.3477H295.84ZM290.625 59.8047C289.023 59.8047 287.949 60.625 287.949 61.8359C287.949 63.0469 289.023 63.8281 290.625 63.8086C292.207 63.8281 293.281 63.0469 293.281 61.8359C293.281 60.625 292.207 59.8047 290.625 59.8047ZM312.656 59.9219V61.1719H309.141V63.5938C310.762 63.5254 312.383 63.4082 313.887 63.2422L314.004 64.375C310.273 64.8828 306.133 65 302.871 65L302.637 63.75C304.16 63.7402 305.869 63.7207 307.617 63.6523V61.1719H304.219V55.3516H312.52V56.6211H305.762V59.9219H312.656ZM316.875 54.2383V67.2266H315.332V54.2383H316.875ZM317.441 69.9219V71.2109H305.605V66.3281H307.129V69.9219H317.441ZM339.199 54.2383V66.9727H337.676V54.2383H339.199ZM339.746 69.9219V71.2109H327.988V65.8008H329.512V69.9219H339.746ZM331.016 56.9531C330.996 59.5898 332.812 61.9727 335.391 62.9102L334.59 64.1406C332.578 63.3691 331.016 61.8066 330.254 59.8047C329.482 61.9336 327.9 63.6426 325.879 64.4531L325.039 63.2617C327.676 62.2461 329.453 59.6875 329.453 56.9531V55.2148H331.016V56.9531ZM355.781 55.3516V56.6797C355.781 58.2422 355.781 60.1758 355.293 62.9297H357.969V64.1992H353.789V71.582H352.266V64.1992H347.812V71.582H346.289V64.1992H342.148V62.9297H353.73C354.297 60.1953 354.297 58.2324 354.297 56.6797V56.6211H344.18V55.3516H355.781ZM378.027 54.2188V58.75H380.645V60.0195H378.027V64.6484H376.504V54.2188H378.027ZM373.301 55.5078C373.301 59.9219 370.176 63.1836 365.117 64.668L364.473 63.418C368.662 62.207 371.338 59.7949 371.66 56.7773H365.234V55.5078H373.301ZM372.539 64.8438C376.035 64.8438 378.223 66.1133 378.223 68.1836C378.223 70.293 376.035 71.543 372.539 71.543C369.082 71.543 366.836 70.293 366.855 68.1836C366.836 66.1133 369.082 64.8438 372.539 64.8438ZM372.539 66.0742C370 66.0547 368.359 66.875 368.379 68.1836C368.359 69.4922 370 70.3125 372.539 70.3125C375.098 70.3125 376.738 69.4922 376.738 68.1836C376.738 66.875 375.098 66.0547 372.539 66.0742ZM387.559 58.8867C387.559 61.9531 389.59 65.0977 392.051 66.3086L391.113 67.5391C389.199 66.5332 387.598 64.4824 386.836 62.0703C386.055 64.6387 384.414 66.8262 382.461 67.8711L381.484 66.6406C384.023 65.3906 386.035 62.0508 386.055 58.8867V55.7227H387.559V58.8867ZM395.176 54.2188V61.2695H398.086V62.5977H395.176V71.582H393.652V54.2188H395.176ZM417.988 55.9766V57.9102C417.988 60.1367 417.988 62.3828 417.363 65.6055L415.859 65.4297C416.484 62.3633 416.484 60.0781 416.484 57.9102V57.2461H405.703V55.9766H417.988ZM419.863 67.8516V69.1211H404.043V67.8516H407.969V62.1289H409.492V67.8516H412.305V62.1289H413.809V67.8516H419.863ZM437.148 62.5977V63.8477H432.93V66.0547H435.195V71.582H433.652V67.2852H423.086V66.0547H425.527V63.8477H421.328V62.5977H437.148ZM429.238 54.6484C433.008 54.6289 435.371 55.8789 435.371 57.9492C435.371 60.0391 433.008 61.2891 429.238 61.2695C425.469 61.2891 423.086 60.0391 423.086 57.9492C423.086 55.8789 425.469 54.6289 429.238 54.6484ZM429.238 55.8789C426.426 55.8594 424.648 56.6602 424.668 57.9492C424.648 59.2773 426.426 60.0781 429.238 60.0781C432.012 60.0781 433.809 59.2773 433.809 57.9492C433.809 56.6602 432.012 55.8594 429.238 55.8789ZM427.07 66.0547H431.426V63.8477H427.07V66.0547ZM459.531 68.0469V69.3555H443.633V68.0469H459.531ZM458.008 55.9766V57.2461H455.254V63.3203H457.969V64.5703H445.078V63.3203H447.793V57.2461H445.039V55.9766H458.008ZM449.316 63.3203H453.75V57.2461H449.316V63.3203ZM476.816 68.1445V69.4336H460.918V68.1445H468.066V64.8633H462.91V59.5117H473.301V56.7773H462.871V55.5078H474.805V60.7617H464.434V63.5938H475.215V64.8633H469.57V68.1445H476.816ZM491.895 56.0742V57.8125C491.895 60 491.895 62.4805 491.25 66.25L489.688 66.0938C490.391 62.5391 490.391 59.9414 490.391 57.8125V57.3438H479.922V56.0742H491.895ZM494.023 67.7539V69.0234H478.203V67.7539H494.023ZM510.234 54.2383V64.5898H508.77V59.9219H506.328V64.3555H504.902V54.5703H506.328V58.6523H508.77V54.2383H510.234ZM510.234 65.4102V71.3477H498.77V65.4102H510.234ZM500.273 66.6602V70.0977H508.73V66.6602H500.273ZM502.832 55.3711V60.0977H497.773V62.5977C500.059 62.5879 501.807 62.4805 503.867 62.0703L504.043 63.3203C501.797 63.75 499.941 63.8086 497.422 63.8086H496.289V58.9062H501.367V56.6211H496.25V55.3711H502.832ZM520.684 54.5312C524.551 54.5312 526.816 55.5859 526.816 57.5195C526.816 59.4922 524.551 60.5469 520.684 60.5664C516.816 60.5469 514.531 59.4922 514.531 57.5195C514.531 55.5859 516.816 54.5312 520.684 54.5312ZM520.684 55.6836C517.793 55.6836 516.113 56.3867 516.133 57.5195C516.113 58.7305 517.793 59.3945 520.684 59.3945C523.555 59.3945 525.254 58.7305 525.254 57.5195C525.254 56.3867 523.555 55.6836 520.684 55.6836ZM528.594 61.7383V62.9883H512.773V61.7383H528.594ZM526.562 64.4922V68.3789H516.25V70.1758H527.09V71.3867H514.727V67.2461H525.059V65.6641H514.688V64.4922H526.562ZM550.898 63.4375V64.6875H535.059V63.4375H542.207V61.7188H537.168V54.7266H548.926V55.9766H538.711V57.5977H548.457V58.7695H538.711V60.4883H549.023V61.7188H543.73V63.4375H550.898ZM542.988 65.9961C546.797 65.9766 548.945 66.9531 548.965 68.7695C548.945 70.5859 546.797 71.543 542.988 71.543C539.141 71.543 536.992 70.5859 536.992 68.7695C536.992 66.9531 539.141 65.9766 542.988 65.9961ZM542.988 67.1484C540.117 67.1484 538.516 67.7344 538.535 68.7695C538.516 69.8242 540.117 70.3711 542.988 70.3516C545.82 70.3711 547.422 69.8242 547.422 68.7695C547.422 67.7344 545.82 67.1484 542.988 67.1484ZM565.938 54.2383V59.9609H568.555V61.25H565.938V67.2461H564.414V54.2383H565.938ZM562.754 56.3672V57.6172H552.402V56.3672H556.816V54.2383H558.34V56.3672H562.754ZM557.578 58.5742C560.059 58.5742 561.738 59.8438 561.758 61.8164C561.738 63.7695 560.059 65.0195 557.578 65.0195C555.078 65.0195 553.379 63.7695 553.398 61.8164C553.379 59.8438 555.078 58.5742 557.578 58.5742ZM557.578 59.7852C555.938 59.7852 554.844 60.5859 554.863 61.8164C554.844 63.0469 555.938 63.8281 557.578 63.8086C559.199 63.8281 560.293 63.0469 560.312 61.8164C560.293 60.5859 559.199 59.7852 557.578 59.7852ZM566.738 69.9219V71.2109H555.078V66.2109H556.582V69.9219H566.738ZM590.566 68.1055V69.3945H574.668V68.1055H581.836V64.1211H583.34V68.1055H590.566ZM589.043 56.9922V58.2617H583.379C583.389 60.9863 586.279 62.9883 589.609 63.5352L589.023 64.7461C586.24 64.248 583.691 62.8516 582.598 60.6836C581.494 62.8516 578.945 64.248 576.152 64.7461L575.547 63.5352C578.896 62.9883 581.807 60.9863 581.816 58.2617H576.152V56.9922H581.836V54.5898H583.34V56.9922H589.043ZM606.309 54.2188V71.582H604.766V54.2188H606.309ZM601.172 56.1133C601.152 61.1133 598.828 65.5273 593.008 68.3203L592.168 67.0703C596.865 64.8438 599.258 61.5137 599.609 57.3633H592.969V56.1133H601.172ZM628.652 65.4102V71.582H627.109V66.6406H616.973V65.4102H628.652ZM628.652 54.2188V64.4531H627.109V61.9531H622.637C621.826 62.9395 620.547 63.5254 619.043 63.5156C616.445 63.5352 614.531 61.8164 614.531 59.3555C614.531 56.9336 616.445 55.2148 619.043 55.2148C620.537 55.2148 621.816 55.8008 622.637 56.7773H627.109V54.2188H628.652ZM619.043 56.5234C617.266 56.5234 615.996 57.7148 615.996 59.3555C615.996 61.0547 617.266 62.2266 619.043 62.2266C620.742 62.2266 622.051 61.0547 622.051 59.3555C622.051 57.7148 620.742 56.5234 619.043 56.5234ZM623.32 60.6836H627.109V58.0469H623.32C623.457 58.457 623.535 58.8867 623.535 59.3555C623.535 59.8242 623.457 60.2734 623.32 60.6836ZM647.754 56.9531V58.2422H645.117V60.6055H647.754V61.9141H645.117V64.7461H643.594V54.2383H645.117V56.9531H647.754ZM640.156 55.3125V60H633.828V62.4219C636.914 62.4219 639.15 62.3145 641.855 61.8555L642.012 63.1445C639.219 63.6133 636.895 63.7109 633.672 63.7109H632.324V58.7891H638.652V56.582H632.285V55.3125H640.156ZM639.551 65.2539C643.086 65.2539 645.273 66.4258 645.273 68.418C645.273 70.4102 643.086 71.543 639.551 71.543C635.957 71.543 633.789 70.4102 633.789 68.418C633.789 66.4258 635.957 65.2539 639.551 65.2539ZM639.551 66.4648C636.895 66.4648 635.273 67.1875 635.293 68.418C635.273 69.6289 636.895 70.3516 639.551 70.3516C642.188 70.3516 643.789 69.6289 643.789 68.418C643.789 67.1875 642.188 66.4648 639.551 66.4648ZM667.422 54.2188V58.75H670.039V60.0195H667.422V64.6484H665.898V54.2188H667.422ZM662.695 55.5078C662.695 59.9219 659.57 63.1836 654.512 64.668L653.867 63.418C658.057 62.207 660.732 59.7949 661.055 56.7773H654.629V55.5078H662.695ZM661.934 64.8438C665.43 64.8438 667.617 66.1133 667.617 68.1836C667.617 70.293 665.43 71.543 661.934 71.543C658.477 71.543 656.23 70.293 656.25 68.1836C656.23 66.1133 658.477 64.8438 661.934 64.8438ZM661.934 66.0742C659.395 66.0547 657.754 66.875 657.773 68.1836C657.754 69.4922 659.395 70.3125 661.934 70.3125C664.492 70.3125 666.133 69.4922 666.133 68.1836C666.133 66.875 664.492 66.0547 661.934 66.0742ZM684.609 54.2188V61.6211H687.383V62.9102H684.609V71.582H683.066V54.2188H684.609ZM670.918 66.9531C672.334 66.9531 673.984 66.9531 675.703 66.8945V64.9609C673.682 64.7363 672.363 63.5547 672.383 61.8359C672.363 59.8828 674.023 58.6133 676.484 58.6133C678.906 58.6133 680.586 59.8828 680.605 61.8359C680.586 63.5547 679.248 64.7363 677.246 64.9805V66.8359C678.867 66.7578 680.498 66.6309 682.012 66.4062L682.109 67.5781C678.32 68.2227 674.219 68.2617 671.172 68.2617L670.918 66.9531ZM681.699 56.3477V57.5977H671.23V56.3477H675.703V54.2578H677.246V56.3477H681.699ZM676.484 59.8047C674.883 59.8047 673.809 60.625 673.809 61.8359C673.809 63.0469 674.883 63.8281 676.484 63.8086C678.066 63.8281 679.141 63.0469 679.141 61.8359C679.141 60.625 678.066 59.8047 676.484 59.8047ZM234.922 98.3672C233.828 98.3672 232.93 97.4688 232.93 96.3555C232.93 95.2617 233.828 94.3633 234.922 94.3633C236.035 94.3633 236.934 95.2617 236.934 96.3555C236.934 97.4688 236.035 98.3672 234.922 98.3672ZM259.531 88.0352C259.512 93.0547 257.734 97.6445 251.602 100.711L250.723 99.5391C253.916 97.9375 255.889 95.9355 256.973 93.582L251.055 94.1484L250.781 92.8203L257.441 92.3711C257.754 91.4043 257.939 90.3789 258.008 89.3047H251.66V88.0352H259.531ZM265.078 86.2188V103.582H263.555V94.4805H259.473V93.2109H263.555V86.2188H265.078ZM282.324 86.2188V103.621H280.801V86.2188H282.324ZM277.051 87.8398V94.0117H270.566V98.1133C273.447 98.1133 276.016 97.9863 279.121 97.4883L279.277 98.7773C276.074 99.2852 273.438 99.4023 270.449 99.4023H269.004V92.7617H275.508V89.1094H268.965V87.8398H277.051ZM299.082 86.9805V88.2891C299.082 89.5879 299.082 91.1406 298.672 93.1523H301.094V94.4023H296.836V96.2773H299.219V100.301H288.711V102.117H299.824V103.348H287.188V99.1484H297.695V97.4688H287.148V96.2773H289.531V94.4023H285.293V93.1523H297.129C297.295 92.3516 297.402 91.6289 297.461 90.9648L287.07 91.4531L286.875 90.1836L297.539 89.8516C297.559 89.3047 297.559 88.7871 297.559 88.2891V88.2109H287.285V86.9805H299.082ZM291.055 96.2773H295.312V94.4023H291.055V96.2773ZM316.953 97.4102V103.348H305.527V97.4102H316.953ZM307.051 98.6016V102.098H315.43V98.6016H307.051ZM316.953 86.2383V96.4336H315.41V91.4141H312.109V90.1445H315.41V86.2383H316.953ZM310.996 87.1172V91.9219H304.824V94.4414C307.686 94.4512 309.834 94.3535 312.441 93.9336L312.578 95.2227C309.844 95.6523 307.617 95.7305 304.609 95.7109H303.301V90.7305H309.512V88.3867H303.262V87.1172H310.996ZM339.18 86.2188V103.621H337.637V86.2188H339.18ZM329.941 87.5664C332.52 87.5859 334.375 89.9297 334.375 93.6211C334.375 97.3125 332.52 99.6562 329.941 99.6562C327.344 99.6562 325.508 97.3125 325.508 93.6211C325.508 89.9297 327.344 87.5859 329.941 87.5664ZM329.941 88.9336C328.203 88.9531 326.992 90.7891 326.992 93.6211C326.992 96.4531 328.203 98.2891 329.941 98.2891C331.68 98.2891 332.891 96.4531 332.891 93.6211C332.891 90.7891 331.68 88.9531 329.941 88.9336ZM350.82 89.2266V90.4766H342.109V89.2266H345.723V86.7461H347.246V89.2266H350.82ZM346.465 91.6484C348.652 91.6484 350.215 93.2891 350.234 95.5938C350.215 97.918 348.652 99.5781 346.465 99.5781C344.297 99.5781 342.734 97.918 342.734 95.5938C342.734 93.2891 344.297 91.6484 346.465 91.6484ZM346.465 92.9375C345.098 92.957 344.102 94.0703 344.102 95.5938C344.102 97.1367 345.098 98.25 346.465 98.2305C347.852 98.25 348.867 97.1367 348.867 95.5938C348.867 94.0703 347.852 92.957 346.465 92.9375ZM356.934 86.2188V103.582H355.469V94.8125H353.164V102.723H351.719V86.6484H353.164V93.543H355.469V86.2188H356.934ZM375.312 96.5312V97.7812H368.066V103.582H366.562V97.7812H359.414V96.5312H375.312ZM362.969 86.9414V89.3438H371.719V86.9414H373.262V94.4219H361.445V86.9414H362.969ZM362.969 93.1719H371.719V90.5938H362.969V93.1719ZM391.113 86.2188V103.621H389.59V94.0508H385.918V92.7812H389.59V86.2188H391.113ZM385.625 87.8203V89.0898H379.062V92.7031H384.863V93.9531H379.062V98.1523C382.256 98.1523 384.287 98.0449 386.68 97.625L386.855 98.8945C384.336 99.3047 382.207 99.4219 378.848 99.4219H377.52V87.8203H385.625ZM407.734 87.8398C407.734 90.2812 410.938 92.4102 414.062 92.8398L413.438 94.0898C410.742 93.6406 408.076 92.1465 406.953 90.0078C405.84 92.1562 403.164 93.6406 400.469 94.0898L399.844 92.8398C402.969 92.4102 406.152 90.3203 406.152 87.8398V86.8438H407.734V87.8398ZM414.844 96.0039V97.293H407.656V103.582H406.152V97.293H399.023V96.0039H414.844ZM421.094 87.0391C423.428 87.0195 425.195 88.377 425.527 90.3789H429.16V86.2188H430.703V95.5352H429.16V91.6484H425.547C425.234 93.6992 423.447 95.0664 421.094 95.0664C418.457 95.0664 416.582 93.4258 416.582 91.043C416.582 88.6797 418.457 87.0195 421.094 87.0391ZM421.094 88.3477C419.316 88.3281 418.047 89.4414 418.047 91.043C418.047 92.625 419.316 93.7773 421.094 93.7773C422.852 93.7773 424.102 92.625 424.102 91.043C424.102 89.4414 422.852 88.3281 421.094 88.3477ZM421.055 96.4141V98.6211H429.16V96.4141H430.703V103.348H419.512V96.4141H421.055ZM421.055 102.098H429.16V99.8516H421.055V102.098ZM453.008 86.2188V95.2031H451.465V90.6914H447.598V89.4219H451.465V86.2188H453.008ZM453.008 96.082V100.223H443.301V102.117H453.652V103.348H441.797V99.0508H451.484V97.3125H441.758V96.082H453.008ZM444.531 88.4258C444.512 90.7109 446.309 92.7812 448.848 93.6211L448.027 94.8125C446.104 94.1289 444.57 92.7617 443.809 91.0039C443.066 92.9863 441.494 94.5 439.434 95.2422L438.594 94.0117C441.211 93.1523 443.008 90.9648 443.027 88.4258V86.7852H444.531V88.4258ZM470.762 86.2188V103.582H469.297V86.2188H470.762ZM467.246 86.6875V102.703H465.781V96.6875H462.559V95.418H465.781V92.332H462.852C462.002 95.2715 460.098 97.8691 456.816 99.832L455.879 98.7188C459.658 96.4824 461.553 93.3477 461.855 89.7148H456.66V88.4453H463.379C463.379 89.334 463.301 90.2129 463.145 91.0625H465.781V86.6875H467.246ZM486.934 86.2188V93.3867H489.57V94.6758H486.934V103.582H485.391V86.2188H486.934ZM478.457 88.1133C478.438 92.2539 477.5 96.3164 474.355 99.6562L473.125 98.7773C475.752 96.0918 476.807 92.8594 477.012 89.4023H473.672V88.1133H478.457ZM483.223 88.1133C483.203 92.2344 482.598 97.0195 479.355 100.809L478.105 99.9492C480.82 96.8828 481.641 93.0254 481.777 89.4023H479.004V88.1133H483.223ZM496.68 91.5508C496.68 94.5 498.828 97.4883 501.387 98.6016L500.527 99.8125C498.496 98.8848 496.738 96.8828 495.938 94.4805C495.117 97.0293 493.369 99.2461 491.387 100.242L490.469 99.0312C492.949 97.8398 495.117 94.5586 495.137 91.5508V89.2852H491.035V88.0156H500.82V89.2852H496.68V91.5508ZM504.785 86.2188V103.582H503.242V86.2188H504.785ZM527.09 86.2188V95.2227H525.586V86.2188H527.09ZM527.109 96.1016V100.262H517.363V102.137H527.734V103.387H515.859V99.0703H525.586V97.332H515.82V96.1016H527.109ZM518.926 88.0547C518.906 90.5156 520.781 92.6836 523.359 93.5234L522.598 94.7148C520.566 94.0215 518.945 92.5664 518.164 90.6914C517.383 92.7129 515.752 94.3047 513.691 95.0469L512.891 93.8359C515.508 92.918 517.363 90.6133 517.363 88.0547V86.7266H518.926V88.0547ZM545.938 96.3164V97.5859H538.691V103.582H537.188V97.5859H530.039V96.3164H545.938ZM543.867 87.1953V93.9531H532.09V87.1953H543.867ZM533.594 88.4453V92.7422H542.344V88.4453H533.594ZM568.184 94.3438V95.6133H561.016V97.4688C564.297 97.6055 566.23 98.6797 566.25 100.516C566.23 102.449 564.004 103.543 560.273 103.543C556.504 103.543 554.277 102.449 554.277 100.516C554.277 98.6797 556.201 97.6055 559.512 97.4688V95.6133H552.363V94.3438H568.184ZM560.273 98.6406C557.48 98.6602 555.82 99.3438 555.84 100.516C555.82 101.668 557.48 102.352 560.273 102.352C563.027 102.352 564.707 101.668 564.707 100.516C564.707 99.3438 563.027 98.6602 560.273 98.6406ZM566.777 87.0391V88.2891H561.27C561.367 90.2422 564.238 91.7559 567.305 92.0781L566.738 93.2891C563.896 92.9473 561.23 91.6777 560.273 89.7344C559.326 91.6777 556.67 92.9473 553.809 93.2891L553.262 92.0781C556.27 91.7559 559.16 90.2422 559.277 88.2891H553.809V87.0391H566.777ZM583.984 86.2383V96.1016H582.461V86.2383H583.984ZM583.984 97.0977V103.348H572.695V97.0977H583.984ZM574.199 98.3477V102.098H582.48V98.3477H574.199ZM575.801 88.6211C575.781 91.082 577.656 93.25 580.215 94.1484L579.434 95.3203C577.422 94.627 575.82 93.1621 575.039 91.2578C574.268 93.2891 572.646 94.8906 570.566 95.6523L569.785 94.4414C572.422 93.5234 574.238 91.1797 574.238 88.6211V86.9219H575.801V88.6211ZM606.016 95.6133V96.8633H594.004V87.7227H605.82V89.0117H595.566V91.5898H605.449V92.8203H595.566V95.6133H606.016ZM607.852 100.047V101.316H591.953V100.047H607.852ZM616.016 88.1523V94.1484H611.309V98.0156C613.311 98.0059 615.205 97.9375 617.52 97.5273L617.637 98.7969C615.156 99.2461 613.184 99.2852 610.977 99.3047H609.824V92.8789H614.551V89.4219H609.785V88.1523H616.016ZM624.082 86.2188V103.582H622.617V86.2188H624.082ZM620.527 86.6484V102.664H619.082V93.7383H616.855V92.4883H619.082V86.6484H620.527ZM640.84 86.2188V103.621H639.297V86.2188H640.84ZM631.602 87.5664C634.18 87.5859 636.035 89.9297 636.035 93.6211C636.035 97.3125 634.18 99.6562 631.602 99.6562C629.004 99.6562 627.168 97.3125 627.168 93.6211C627.168 89.9297 629.004 87.5859 631.602 87.5664ZM631.602 88.9336C629.863 88.9531 628.652 90.7891 628.652 93.6211C628.652 96.4531 629.863 98.2891 631.602 98.2891C633.34 98.2891 634.551 96.4531 634.551 93.6211C634.551 90.7891 633.34 88.9531 631.602 88.9336ZM658.105 86.2188V96.6484H656.582V86.2188H658.105ZM646.445 87.3711V93.7969C649.512 93.7871 651.992 93.6113 654.688 93.0156L654.902 94.3047C652.051 94.9102 649.492 95.1055 646.309 95.0859H644.902V87.3711H646.445ZM652.324 96.7461C655.938 96.7461 658.184 98.0156 658.184 100.164C658.184 102.293 655.938 103.543 652.324 103.543C648.691 103.543 646.445 102.293 646.445 100.164C646.445 98.0156 648.691 96.7461 652.324 96.7461ZM652.324 98.0156C649.629 98.0156 647.988 98.7969 647.988 100.164C647.988 101.492 649.629 102.312 652.324 102.312C655 102.312 656.641 101.492 656.66 100.164C656.641 98.7969 655 98.0156 652.324 98.0156ZM234.922 130.367C233.828 130.367 232.93 129.469 232.93 128.355C232.93 127.262 233.828 126.363 234.922 126.363C236.035 126.363 236.934 127.262 236.934 128.355C236.934 129.469 236.035 130.367 234.922 130.367ZM265.098 118.219V128.57H263.555V124.02H260.059V122.75H263.555V118.219H265.098ZM259.336 129.117C262.949 129.117 265.156 130.289 265.156 132.34C265.156 134.391 262.949 135.562 259.336 135.582C255.723 135.562 253.516 134.391 253.516 132.34C253.516 130.289 255.723 129.117 259.336 129.117ZM259.336 130.309C256.68 130.309 255.02 131.07 255.039 132.34C255.02 133.59 256.68 134.352 259.336 134.352C261.992 134.352 263.633 133.59 263.633 132.34C263.633 131.07 261.992 130.309 259.336 130.309ZM256.738 121.402C256.738 123.668 258.477 125.816 261.016 126.695L260.215 127.926C258.262 127.223 256.748 125.768 256.016 123.961C255.254 126.002 253.643 127.633 251.582 128.414L250.781 127.184C253.359 126.246 255.195 123.902 255.195 121.422V120.777H251.27V119.488H260.625V120.777H256.738V121.402ZM282.344 118.219V135.582H280.801V118.219H282.344ZM277.207 120.113C277.188 125.113 274.863 129.527 269.043 132.32L268.203 131.07C272.9 128.844 275.293 125.514 275.645 121.363H269.004V120.113H277.207ZM304.648 118.219V135.582H303.105V118.219H304.648ZM300.645 120.113V121.383H298.672V129.742C299.648 129.674 300.615 129.586 301.543 129.469L301.641 130.621C297.852 131.207 293.672 131.266 290.449 131.285L290.273 129.977L292.676 129.957V121.383H290.723V120.113H300.645ZM294.18 129.938C295.156 129.918 296.162 129.879 297.168 129.82V121.383H294.18V129.938ZM321.602 126.578V127.848H309.609V119.84H321.426V121.109H311.133V126.578H321.602ZM323.477 131.93V133.219H307.578V131.93H323.477ZM327.109 119.332V122.086H330.977V119.332H332.422V127.418H325.664V119.332H327.109ZM327.109 126.148H330.977V123.316H327.109V126.148ZM339.609 118.238V128.648H338.145V124.02H335.84V128.551H334.395V118.57H335.84V122.75H338.145V118.238H339.609ZM339.609 129.703V135.582H338.105V130.973H327.91V129.703H339.609ZM345 132.691L343.477 138.004H342.031L343.105 132.691H345ZM366.621 118.219V135.621H365.098V118.219H366.621ZM361.348 119.84V126.012H354.863V130.113C357.744 130.113 360.312 129.986 363.418 129.488L363.574 130.777C360.371 131.285 357.734 131.402 354.746 131.402H353.301V124.762H359.805V121.109H353.262V119.84H361.348ZM383.887 118.766V119.977H381.211V123.336H383.828V124.527H371.113V123.336H373.73V119.977H371.055V118.766H383.887ZM385.391 125.992V127.223H369.57V125.992H385.391ZM383.359 128.785V132.555H373.047V134.215H383.887V135.387H371.523V131.441H381.855V129.938H371.484V128.785H383.359ZM375.254 123.336H379.688V119.977H375.254V123.336ZM401.602 129.918V135.582H400.098V131.148H389.902V129.918H401.602ZM393.809 119.547V124.371H389.141V126.988C391.416 126.979 393.115 126.871 395.176 126.441L395.352 127.711C393.125 128.121 391.289 128.238 388.77 128.219H387.656V123.219H392.344V120.797H387.617V119.547H393.809ZM401.602 118.238V129.039H400.137V118.238H401.602ZM398.164 118.57V128.922H396.699V123.961H394.492V122.691H396.699V118.57H398.164ZM410.078 121.441C410.078 123.98 411.816 126.383 414.336 127.379L413.477 128.57C411.562 127.779 410.078 126.197 409.355 124.215C408.604 126.354 407.041 128.053 405.02 128.883L404.18 127.652C406.758 126.656 408.555 124.156 408.574 121.441V119.215H410.078V121.441ZM418.535 118.238V131.207H416.992V125.641H413.418V124.391H416.992V122.086H413.418V120.816H416.992V118.238H418.535ZM418.926 133.922V135.211H407.305V129.859H408.848V133.922H418.926ZM424.277 132.691L422.754 138.004H421.309L422.383 132.691H424.277ZM446.309 118.219V131.227H444.844V118.219H446.309ZM442.988 118.57V130.719H441.523V124.41H439.082V127.828H432.363V119.898H439.082V123.121H441.523V118.57H442.988ZM446.836 133.922V135.211H434.922V129.605H436.445V133.922H446.836ZM433.809 121.129V126.617H437.656V121.129H433.809ZM462.91 127.262V128.512H457.52V132.145H464.746V133.414H448.848V132.145H455.996V128.512H450.898V119.645H462.715V120.914H452.461V123.395H462.344V124.645H452.461V127.262H462.91ZM480.469 118.238V128.922H478.945V118.238H480.469ZM474.941 119.332V124.098H468.535V126.559C471.641 126.559 473.965 126.48 476.777 126.012L476.953 127.281C474.043 127.75 471.66 127.848 468.457 127.848H467.051V122.887H473.418V120.621H467.012V119.332H474.941ZM474.707 129.273C478.359 129.273 480.586 130.426 480.586 132.418C480.586 134.41 478.359 135.543 474.707 135.543C471.055 135.543 468.848 134.41 468.848 132.418C468.848 130.426 471.055 129.273 474.707 129.273ZM474.707 130.504C472.012 130.504 470.352 131.227 470.352 132.418C470.352 133.609 472.012 134.312 474.707 134.312C477.402 134.312 479.043 133.609 479.043 132.418C479.043 131.227 477.402 130.504 474.707 130.504ZM491.328 118.531C495.195 118.531 497.461 119.586 497.461 121.52C497.461 123.492 495.195 124.547 491.328 124.566C487.461 124.547 485.176 123.492 485.176 121.52C485.176 119.586 487.461 118.531 491.328 118.531ZM491.328 119.684C488.438 119.684 486.758 120.387 486.777 121.52C486.758 122.73 488.438 123.395 491.328 123.395C494.199 123.395 495.898 122.73 495.898 121.52C495.898 120.387 494.199 119.684 491.328 119.684ZM499.238 125.738V126.988H483.418V125.738H499.238ZM497.207 128.492V132.379H486.895V134.176H497.734V135.387H485.371V131.246H495.703V129.664H485.332V128.492H497.207ZM521.543 127.438V128.688H505.703V127.438H512.852V125.719H507.812V118.727H519.57V119.977H509.355V121.598H519.102V122.77H509.355V124.488H519.668V125.719H514.375V127.438H521.543ZM513.633 129.996C517.441 129.977 519.59 130.953 519.609 132.77C519.59 134.586 517.441 135.543 513.633 135.543C509.785 135.543 507.637 134.586 507.637 132.77C507.637 130.953 509.785 129.977 513.633 129.996ZM513.633 131.148C510.762 131.148 509.16 131.734 509.18 132.77C509.16 133.824 510.762 134.371 513.633 134.352C516.465 134.371 518.066 133.824 518.066 132.77C518.066 131.734 516.465 131.148 513.633 131.148ZM536.582 118.238V123.961H539.199V125.25H536.582V131.246H535.059V118.238H536.582ZM533.398 120.367V121.617H523.047V120.367H527.461V118.238H528.984V120.367H533.398ZM528.223 122.574C530.703 122.574 532.383 123.844 532.402 125.816C532.383 127.77 530.703 129.02 528.223 129.02C525.723 129.02 524.023 127.77 524.043 125.816C524.023 123.844 525.723 122.574 528.223 122.574ZM528.223 123.785C526.582 123.785 525.488 124.586 525.508 125.816C525.488 127.047 526.582 127.828 528.223 127.809C529.844 127.828 530.938 127.047 530.957 125.816C530.938 124.586 529.844 123.785 528.223 123.785ZM537.383 133.922V135.211H525.723V130.211H527.227V133.922H537.383ZM551.523 123.551C551.523 126.5 553.672 129.488 556.23 130.602L555.371 131.812C553.34 130.885 551.582 128.883 550.781 126.48C549.961 129.029 548.213 131.246 546.23 132.242L545.312 131.031C547.793 129.84 549.961 126.559 549.98 123.551V121.285H545.879V120.016H555.664V121.285H551.523V123.551ZM559.629 118.219V135.582H558.086V118.219H559.629ZM578.477 126.949V128.219H562.598V126.949H569.746V124.273H571.25V126.949H578.477ZM571.27 119.312C571.27 121.617 574.395 123.551 577.461 123.98L576.836 125.211C574.199 124.752 571.592 123.355 570.508 121.344C569.414 123.365 566.797 124.752 564.141 125.211L563.555 123.98C566.621 123.551 569.727 121.617 569.727 119.312V118.492H571.27V119.312ZM576.465 129.918V135.582H574.922V131.148H564.355V129.918H576.465ZM585.918 121.422C585.918 123.688 587.656 125.836 590.195 126.715L589.395 127.926C587.432 127.223 585.918 125.768 585.176 123.98C584.424 125.982 582.822 127.584 580.762 128.336L579.961 127.125C582.52 126.207 584.375 123.883 584.375 121.441V120.68H580.449V119.43H589.805V120.68H585.918V121.422ZM594.277 129.547V135.582H592.734V130.816H582.598V129.547H594.277ZM594.277 118.219V128.629H592.734V124.059H589.258V122.77H592.734V118.219H594.277ZM611.504 118.238V130.934H609.98V118.238H611.504ZM612.051 133.922V135.211H600.293V129.645H601.816V133.922H612.051ZM602.129 119.449C604.727 119.449 606.68 121.207 606.68 123.707C606.68 126.246 604.727 127.984 602.129 127.984C599.531 127.984 597.578 126.246 597.578 123.707C597.578 121.207 599.531 119.449 602.129 119.449ZM602.129 120.797C600.371 120.797 599.062 122.008 599.082 123.707C599.062 125.445 600.371 126.637 602.129 126.637C603.848 126.637 605.176 125.445 605.176 123.707C605.176 122.008 603.848 120.797 602.129 120.797ZM625.449 120.953C625.43 123.434 627.188 125.621 629.746 126.48L628.887 127.672C626.973 126.949 625.469 125.543 624.727 123.707C623.975 125.787 622.383 127.408 620.293 128.199L619.453 126.949C622.129 126.012 623.906 123.707 623.926 121.012V119.215H625.449V120.953ZM633.867 118.219V128.512H632.324V123.219H628.457V121.949H632.324V118.219H633.867ZM628.105 129.02C631.719 129.02 633.926 130.211 633.926 132.301C633.926 134.371 631.719 135.543 628.105 135.543C624.492 135.543 622.285 134.371 622.285 132.301C622.285 130.211 624.492 129.02 628.105 129.02ZM628.105 130.23C625.449 130.23 623.789 131.012 623.809 132.301C623.789 133.551 625.449 134.312 628.105 134.312C630.762 134.312 632.402 133.551 632.402 132.301C632.402 131.012 630.762 130.23 628.105 130.23ZM642.637 121.52C642.637 123.785 644.336 125.816 646.895 126.656L646.172 127.867C644.17 127.213 642.656 125.826 641.914 124.078C641.162 126.07 639.561 127.623 637.48 128.375L636.699 127.145C639.297 126.266 641.113 124.02 641.133 121.52V120.777H637.168V119.508H646.543V120.777H642.637V121.52ZM650.332 118.219V122.652H652.949V123.941H650.332V128.707H648.809V118.219H650.332ZM644.766 129.176C648.34 129.176 650.488 130.348 650.488 132.34C650.488 134.371 648.34 135.543 644.766 135.543C641.191 135.543 639.004 134.371 639.004 132.34C639.004 130.348 641.191 129.176 644.766 129.176ZM644.766 130.406C642.148 130.406 640.527 131.129 640.547 132.34C640.527 133.59 642.148 134.312 644.766 134.312C647.402 134.312 649.004 133.59 649.004 132.34C649.004 131.129 647.402 130.406 644.766 130.406ZM665.273 123.551C665.273 126.5 667.422 129.488 669.98 130.602L669.121 131.812C667.09 130.885 665.332 128.883 664.531 126.48C663.711 129.029 661.963 131.246 659.98 132.242L659.062 131.031C661.543 129.84 663.711 126.559 663.73 123.551V121.285H659.629V120.016H669.414V121.285H665.273V123.551ZM673.379 118.219V135.582H671.836V118.219H673.379ZM690.664 118.238V131.422H689.121V129.625H685.527V128.512H689.121V118.238H690.664ZM691.094 133.922V135.211H678.75V130.133H680.293V133.922H691.094ZM676.25 126.285C679.492 126.266 683.828 126.246 687.559 125.777L687.656 126.891C686.104 127.135 684.482 127.291 682.891 127.379V130.816H681.348V127.457C679.59 127.535 677.92 127.545 676.465 127.535L676.25 126.285ZM681.953 118.941C684.492 118.941 686.23 120.152 686.25 121.969C686.23 123.824 684.492 124.977 681.953 124.977C679.395 124.977 677.656 123.824 677.656 121.969C677.656 120.152 679.395 118.941 681.953 118.941ZM681.953 120.113C680.254 120.094 679.102 120.855 679.121 121.969C679.102 123.102 680.254 123.844 681.953 123.844C683.594 123.844 684.766 123.102 684.785 121.969C684.766 120.855 683.594 120.094 681.953 120.113Z" fill="black"/>
<path d="M196 29L196 161" stroke="url(#paint1_linear_469_1760)" stroke-width="2"/>
<path d="M35.9766 131.927C35.9766 134.661 37.1094 137.415 39.5703 138.743L38.3594 140.345C36.7188 139.476 35.6055 137.923 34.9805 136.067C34.3555 138.069 33.2422 139.778 31.582 140.755L30.3125 139.114C32.8125 137.669 33.9258 134.72 33.9258 131.927V131.38H30.918V129.622H33.9258V127.161H35.9766V129.622H38.9258V131.38H35.9766V131.927ZM45.7812 126.536V144.192H43.7109V126.536H45.7812ZM42.1875 126.868V143.333H40.1367V135.11H37.832V133.313H40.1367V126.868H42.1875ZM63.1055 126.536V144.192H61.0352V126.536H63.1055ZM59.4531 126.966V143.353H57.3828V137.454H54.6289V135.677H57.3828V133.06H54.9414C54.1113 135.989 52.2656 138.509 48.9648 140.462L47.6953 138.919C51.3574 136.761 53.0371 133.997 53.3594 130.442H48.6328V128.685H55.5078C55.5078 129.573 55.4492 130.442 55.332 131.282H57.3828V126.966H59.4531ZM71.6406 129.563C71.6406 131.712 73.0664 133.88 75.8008 134.798L74.707 136.478C72.7344 135.833 71.3379 134.495 70.5664 132.845C69.7949 134.69 68.3203 136.175 66.2305 136.868L65.1172 135.149C67.9297 134.231 69.4336 131.888 69.4336 129.583V129.349H65.7617V127.61H75.293V129.349H71.6406V129.563ZM79.9414 137.903V144.192H77.7734V139.642H67.9102V137.903H79.9414ZM79.9414 126.536V137.063H77.7734V132.688H74.7656V130.911H77.7734V126.536H79.9414ZM97.1484 126.556V139.31H94.9609V126.556H97.1484ZM97.6367 142.083V143.841H85.4688V138.021H87.6562V142.083H97.6367ZM87.5195 127.708C90.1953 127.708 92.2656 129.563 92.2656 132.122C92.2656 134.739 90.1953 136.556 87.5195 136.556C84.8242 136.556 82.7539 134.739 82.7539 132.122C82.7539 129.563 84.8242 127.708 87.5195 127.708ZM87.5195 129.603C86.0156 129.603 84.8633 130.599 84.8828 132.122C84.8633 133.685 86.0156 134.661 87.5195 134.661C88.9844 134.661 90.1367 133.685 90.1367 132.122C90.1367 130.599 88.9844 129.603 87.5195 129.603ZM118.828 135.794V137.513H106.445V127.923H118.672V129.681H108.652V131.81H118.262V133.509H108.652V135.794H118.828ZM120.605 140.267V142.044H104.473V140.267H120.605ZM128.555 128.372V134.856H124.375V138.177C126.201 138.157 127.93 138.079 129.922 137.708L130.098 139.485C127.734 139.915 125.742 139.974 123.516 139.974H122.285V133.138H126.465V130.11H122.266V128.372H128.555ZM136.953 126.536V144.192H134.883V126.536H136.953ZM133.32 126.907V143.294H131.27V134.446H129.336V132.669H131.27V126.907H133.32ZM153.73 126.536V144.212H151.543V126.536H153.73ZM144.219 127.825C146.875 127.825 148.809 130.247 148.828 134.056C148.809 137.903 146.875 140.306 144.219 140.306C141.543 140.306 139.609 137.903 139.609 134.056C139.609 130.247 141.543 127.825 144.219 127.825ZM144.219 129.778C142.715 129.778 141.699 131.36 141.699 134.056C141.699 136.771 142.715 138.353 144.219 138.353C145.703 138.353 146.719 136.771 146.719 134.056C146.719 131.36 145.703 129.778 144.219 129.778ZM170.977 126.536V136.888H168.809V126.536H170.977ZM159.551 127.669V133.899C162.178 133.87 164.619 133.675 167.227 133.138L167.48 134.896C164.57 135.521 161.836 135.716 158.867 135.696H157.363V127.669H159.551ZM165.02 137.083C168.73 137.063 171.055 138.392 171.055 140.638C171.055 142.845 168.73 144.173 165.02 144.173C161.309 144.173 158.965 142.845 158.984 140.638C158.965 138.392 161.309 137.063 165.02 137.083ZM165.02 138.841C162.559 138.841 161.152 139.446 161.152 140.638C161.152 141.79 162.559 142.435 165.02 142.435C167.48 142.435 168.867 141.79 168.887 140.638C168.867 139.446 167.48 138.841 165.02 138.841Z" fill="black"/>
<circle cx="102.227" cy="74.227" r="35.227" fill="#CCE0FF"/>
<g filter="url(#filter0_i_469_1760)">
<circle cx="102.227" cy="74.2267" r="33.1446" fill="#CCE0FF"/>
</g>
<g filter="url(#filter1_d_469_1760)">
<path d="M97.617 58.4883C96.6682 58.5164 95.8342 59.1759 95.6469 60.1069C95.4296 61.1886 96.1637 62.2345 97.2857 62.4439C97.382 62.4617 97.4792 62.4779 97.5772 62.4821C99.0605 62.6107 100.54 62.8192 101.996 63.1289C102.444 63.2242 102.885 63.3459 103.328 63.4634C104.067 64.4829 104.763 65.5322 105.378 66.6249C105.429 66.7151 105.47 66.8096 105.519 66.9007L104.172 67.8529C104.168 67.8564 104.162 67.8581 104.158 67.8615L96.2212 73.4731C95.9075 73.6952 95.6619 73.9701 95.4791 74.2739C95.404 74.388 95.336 74.5079 95.2821 74.6382C95.2706 74.6645 95.2617 74.6926 95.2529 74.7181C94.3191 77.2397 93.2758 79.7196 92.145 82.1663C89.6572 83.2403 87.1297 84.2258 84.5651 85.1202C84.5015 85.1381 84.4388 85.161 84.3778 85.1857C83.209 85.6529 82.6551 86.9439 83.141 88.0698C83.6269 89.1957 84.967 89.7302 86.1367 89.2613C86.1632 89.2502 86.1906 89.2417 86.2162 89.2298C89.1298 88.2111 92.0063 87.0827 94.8262 85.841C95.4508 85.5798 95.8855 85.0751 96.0825 84.493C96.8652 82.8207 97.602 81.1263 98.2999 79.4183L100.279 80.0098C100.294 80.0149 100.309 80.0149 100.324 80.0183C100.966 80.2013 101.606 80.3911 102.244 80.5851V80.6166L102.277 80.5936C103.46 80.9544 104.632 81.3408 105.802 81.7408C104.527 83.1569 103.215 84.5449 101.865 85.8963C101.816 85.9414 101.771 85.9874 101.727 86.0359C100.893 86.9516 100.986 88.3447 101.937 89.1489C102.888 89.9532 104.338 89.8621 105.172 88.9447C105.191 88.9234 105.21 88.9047 105.228 88.8834C107.376 86.7312 109.442 84.4964 111.403 82.1833C111.456 82.1237 111.495 82.0574 111.539 81.9935C111.574 81.9442 111.612 81.8991 111.642 81.8472C112.171 80.9561 111.996 79.7979 111.17 79.0967H111.168C110.922 78.8882 110.638 78.7435 110.343 78.6541C110.326 78.6482 110.31 78.6431 110.293 78.6388C109.132 78.2082 107.961 77.8014 106.786 77.4057L107.254 77.0746L109.804 75.2713L110.606 74.7045C111.414 75.9351 112.292 77.1231 113.241 78.2567C113.489 78.6039 113.833 78.849 114.216 78.9877C114.238 78.9962 114.263 79.0005 114.285 79.0073C114.379 79.0388 114.477 79.0677 114.575 79.0856C114.663 79.1026 114.752 79.1069 114.842 79.112C114.877 79.1137 114.911 79.1205 114.946 79.1205C115.463 79.1247 115.982 78.9443 116.385 78.5767C116.961 78.0848 117.531 77.5818 118.076 77.0525C119.23 75.9317 120.305 74.7369 121.305 73.4859C122.059 72.6799 122.003 71.4409 121.183 70.6971C120.35 69.9422 119.039 69.9797 118.256 70.7822C118.189 70.8511 118.123 70.9209 118.066 70.9983C117.182 72.1081 116.232 73.1735 115.212 74.1718C114.757 73.5633 114.32 72.9412 113.911 72.3038C113.558 71.7532 113.233 71.1864 112.915 70.6137C112.874 70.5303 112.826 70.452 112.774 70.3745C112.769 70.366 112.761 70.3592 112.756 70.3516C112.701 70.2579 112.652 70.1626 112.585 70.0741L110.141 66.8675C110.117 66.8343 110.085 66.8104 110.058 66.779C110.05 66.7611 110.046 66.7432 110.038 66.7253C109.716 66.0513 109.381 65.3807 109.012 64.7254C108.23 63.3374 107.354 62.0013 106.399 60.718C106.39 60.7035 106.377 60.6933 106.368 60.6797C106.329 60.6193 106.281 60.5648 106.236 60.5086C106.203 60.4703 106.176 60.4261 106.141 60.3903C105.877 60.112 105.533 59.901 105.127 59.8023C104.387 59.5963 103.641 59.3989 102.886 59.2389C101.285 58.8993 99.663 58.6628 98.0304 58.5172C97.8909 58.4934 97.7522 58.484 97.617 58.4883ZM115.151 58.5768C114.544 58.6177 113.964 58.867 113.475 59.2185C112.985 59.5699 112.581 60.021 112.224 60.5001C111.731 61.1588 111.342 61.883 111.031 62.6379V62.6396C110.997 62.7111 110.964 62.7826 110.933 62.8557C110.919 62.8906 110.902 62.923 110.888 62.957C110.89 62.957 110.89 62.9579 110.892 62.9587C110.191 64.711 110.595 66.6947 111.932 68.0615C112.193 68.3278 112.483 68.5644 112.798 68.7678L112.8 68.7729C112.999 68.9142 113.196 69.0597 113.374 69.2248C113.443 69.2912 113.549 69.3814 113.624 69.441C114.158 69.9856 115.04 70.0614 115.659 69.6069C115.778 69.5261 115.898 69.4461 116.019 69.3695C116.264 69.2154 116.506 69.0546 116.735 68.881C116.819 68.8172 116.902 68.7508 116.984 68.6818C117.034 68.641 117.103 68.6367 117.156 68.6733C117.209 68.7099 117.265 68.7423 117.32 68.7729C117.402 68.818 117.483 68.8589 117.567 68.8844C117.652 68.9099 117.741 68.9193 117.831 68.9057C117.905 68.8946 117.974 68.8691 118.026 68.8189C118.078 68.7695 118.105 68.7099 118.131 68.6427C118.231 68.3916 118.296 68.1287 118.34 67.8632C118.365 67.7151 118.383 67.5653 118.4 67.4164C118.425 67.253 118.51 67.1015 118.637 66.9875C118.645 66.9807 118.654 66.9764 118.662 66.9696C119.032 66.6726 119.362 66.3313 119.644 65.9577C119.922 65.5892 120.148 65.1884 120.327 64.7663C120.378 64.665 120.453 64.5723 120.537 64.4957C120.611 64.4284 120.698 64.3731 120.789 64.3331C120.841 64.3118 120.89 64.2897 120.944 64.2701C120.968 64.2608 120.998 64.254 121.022 64.2455C121.098 64.225 121.165 64.1859 121.222 64.134C121.419 63.9561 121.427 63.66 121.243 63.471C121.215 63.4412 121.184 63.4106 121.15 63.3893C121.133 63.3774 121.116 63.3681 121.1 63.3544C120.563 62.9009 120.149 62.3298 119.789 61.7392C119.423 61.1392 119.108 60.5086 118.679 59.9538C118.572 59.815 118.455 59.6814 118.33 59.5546H118.328C117.955 59.1742 117.509 58.8679 116.993 58.7283C116.69 58.6466 116.37 58.6279 116.055 58.6687C116.037 58.6713 116.017 58.6696 116 58.6653C115.722 58.5913 115.435 58.5572 115.151 58.5768Z" fill="#69A4FF"/>
</g>
<defs>
<filter id="filter0_i_469_1760" x="69.082" y="41.082" width="70.2891" height="69.2891" filterUnits="userSpaceOnUse" color-interpolation-filters="sRGB">
<feFlood flood-opacity="0" result="BackgroundImageFix"/>
<feBlend mode="normal" in="SourceGraphic" in2="BackgroundImageFix" result="shape"/>
<feColorMatrix in="SourceAlpha" type="matrix" values="0 0 0 0 0 0 0 0 0 0 0 0 0 0 0 0 0 0 127 0" result="hardAlpha"/>
<feOffset dx="4" dy="3"/>
<feGaussianBlur stdDeviation="3.5"/>
<feComposite in2="hardAlpha" operator="arithmetic" k2="-1" k3="1"/>
<feColorMatrix type="matrix" values="0 0 0 0 1 0 0 0 0 1 0 0 0 0 1 0 0 0 0.3 0"/>
<feBlend mode="normal" in2="shape" result="effect1_innerShadow_469_1760"/>
</filter>
<filter id="filter1_d_469_1760" x="75.9648" y="52.4873" width="58.8711" height="51.21" filterUnits="userSpaceOnUse" color-interpolation-filters="sRGB">
<feFlood flood-opacity="0" result="BackgroundImageFix"/>
<feColorMatrix in="SourceAlpha" type="matrix" values="0 0 0 0 0 0 0 0 0 0 0 0 0 0 0 0 0 0 127 0" result="hardAlpha"/>
<feOffset dx="3" dy="4"/>
<feGaussianBlur stdDeviation="5"/>
<feComposite in2="hardAlpha" operator="out"/>
<feColorMatrix type="matrix" values="0 0 0 0 0.588235 0 0 0 0 0.74902 0 0 0 0 1 0 0 0 1 0"/>
<feBlend mode="normal" in2="BackgroundImageFix" result="effect1_dropShadow_469_1760"/>
<feBlend mode="normal" in="SourceGraphic" in2="effect1_dropShadow_469_1760" result="shape"/>
</filter>
<linearGradient id="paint0_linear_469_1760" x1="-0.691317" y1="94" x2="1064.03" y2="93.9999" gradientUnits="userSpaceOnUse">
<stop stop-color="#3182F6"/>
<stop offset="1" stop-color="#A009FF"/>
</linearGradient>
<linearGradient id="paint1_linear_469_1760" x1="195.999" y1="95" x2="197.391" y2="95" gradientUnits="userSpaceOnUse">
<stop stop-color="#3182F6"/>
<stop offset="1" stop-color="#A009FF"/>
</linearGradient>
</defs>
</svg>
