<svg width="765" height="188" viewBox="0 0 765 188" fill="none" xmlns="http://www.w3.org/2000/svg">
<rect x="2" y="2" width="761" height="184" rx="13" fill="white" stroke="url(#paint0_linear_469_1761)" stroke-width="4"/>
<path d="M233.922 66.3672C232.828 66.3672 231.93 65.4688 231.93 64.3555C231.93 63.2617 232.828 62.3633 233.922 62.3633C235.035 62.3633 235.934 63.2617 235.934 64.3555C235.934 65.4688 235.035 66.3672 233.922 66.3672ZM250.562 70V55.8594H259.137V57.4219H252.32V62.1484H258.688V63.6914H252.32V68.4375H259.234V70H250.562ZM262.965 59.3945L265.465 63.7109L267.984 59.3945H269.918L266.5 64.6875L269.918 70H268.004L265.465 65.8984L262.965 70H261.031L264.371 64.6875L261.031 59.3945H262.965ZM275.836 70.2148C272.828 70.2148 270.992 67.9297 270.992 64.7461C270.992 61.5234 272.906 59.2578 275.797 59.2578C278.062 59.2578 279.742 60.5859 280.016 62.5977H278.336C278.102 61.6211 277.242 60.7422 275.836 60.7422C273.941 60.7422 272.672 62.3047 272.672 64.6875C272.672 67.1484 273.902 68.7109 275.836 68.7109C277.086 68.7109 278.043 68.0469 278.336 66.875H280.016C279.742 68.7695 278.199 70.2148 275.836 70.2148ZM286.539 70.2148C283.473 70.2148 281.578 68.0469 281.578 64.7852C281.578 61.5234 283.492 59.2578 286.383 59.2578C288.609 59.2578 290.953 60.625 290.953 64.5508V65.2539H283.258C283.336 67.5 284.645 68.7305 286.539 68.7305C287.809 68.7305 288.609 68.1836 289 67.5195H290.797C290.289 69.1211 288.727 70.2148 286.539 70.2148ZM283.277 63.8281H289.254C289.254 62.0508 288.121 60.7422 286.383 60.7422C284.547 60.7422 283.375 62.1875 283.277 63.8281ZM294.82 55.8594V70H293.141V55.8594H294.82ZM299.176 55.8594V70H297.496V55.8594H299.176ZM306.305 70.2148C303.238 70.2148 301.344 68.0469 301.344 64.7852C301.344 61.5234 303.258 59.2578 306.148 59.2578C308.375 59.2578 310.719 60.625 310.719 64.5508V65.2539H303.023C303.102 67.5 304.41 68.7305 306.305 68.7305C307.574 68.7305 308.375 68.1836 308.766 67.5195H310.562C310.055 69.1211 308.492 70.2148 306.305 70.2148ZM303.043 63.8281H309.02C309.02 62.0508 307.887 60.7422 306.148 60.7422C304.312 60.7422 303.141 62.1875 303.043 63.8281ZM314.586 63.6328V70H312.906V59.3945H314.527V61.0547H314.664C315.172 59.9805 316.148 59.2578 317.77 59.2578C319.918 59.2578 321.344 60.5664 321.344 63.2617V70H319.664V63.3789C319.664 61.7383 318.766 60.7617 317.262 60.7617C315.719 60.7617 314.586 61.7969 314.586 63.6328ZM328.375 70.2148C325.367 70.2148 323.531 67.9297 323.531 64.7461C323.531 61.5234 325.445 59.2578 328.336 59.2578C330.602 59.2578 332.281 60.5859 332.555 62.5977H330.875C330.641 61.6211 329.781 60.7422 328.375 60.7422C326.48 60.7422 325.211 62.3047 325.211 64.6875C325.211 67.1484 326.441 68.7109 328.375 68.7109C329.625 68.7109 330.582 68.0469 330.875 66.875H332.555C332.281 68.7695 330.738 70.2148 328.375 70.2148ZM339.078 70.2148C336.012 70.2148 334.117 68.0469 334.117 64.7852C334.117 61.5234 336.031 59.2578 338.922 59.2578C341.148 59.2578 343.492 60.625 343.492 64.5508V65.2539H335.797C335.875 67.5 337.184 68.7305 339.078 68.7305C340.348 68.7305 341.148 68.1836 341.539 67.5195H343.336C342.828 69.1211 341.266 70.2148 339.078 70.2148ZM335.816 63.8281H341.793C341.793 62.0508 340.66 60.7422 338.922 60.7422C337.086 60.7422 335.914 62.1875 335.816 63.8281ZM356.773 63.1836V64.7266H350.582V63.1836H356.773ZM379.625 68.0664V69.3555H363.727V68.0664H370.875V63.8281H365.602V55.6836H377.652V63.8281H372.379V68.0664H379.625ZM367.105 56.9141V62.5977H376.168V56.9141H367.105ZM396.852 62.9883V64.2383H381.012V62.9883H396.852ZM395.035 59.8047V61.0742H383.023V54.9805H394.879V56.2305H384.547V59.8047H395.035ZM395.172 69.9023V71.1914H383.062V66.1133H384.586V69.9023H395.172ZM412.027 55.8398C412.027 58.2812 415.23 60.4102 418.355 60.8398L417.73 62.0898C415.035 61.6406 412.369 60.1465 411.246 58.0078C410.133 60.1562 407.457 61.6406 404.762 62.0898L404.137 60.8398C407.262 60.4102 410.445 58.3203 410.445 55.8398V54.8438H412.027V55.8398ZM419.137 64.0039V65.293H411.949V71.582H410.445V65.293H403.316V64.0039H419.137ZM425.387 55.0391C427.721 55.0195 429.488 56.377 429.82 58.3789H433.453V54.2188H434.996V63.5352H433.453V59.6484H429.84C429.527 61.6992 427.74 63.0664 425.387 63.0664C422.75 63.0664 420.875 61.4258 420.875 59.043C420.875 56.6797 422.75 55.0195 425.387 55.0391ZM425.387 56.3477C423.609 56.3281 422.34 57.4414 422.34 59.043C422.34 60.625 423.609 61.7773 425.387 61.7773C427.145 61.7773 428.395 60.625 428.395 59.043C428.395 57.4414 427.145 56.3281 425.387 56.3477ZM425.348 64.4141V66.6211H433.453V64.4141H434.996V71.3477H423.805V64.4141H425.348ZM425.348 70.0977H433.453V67.8516H425.348V70.0977ZM452.77 54.2188V71.582H451.285V54.2188H452.77ZM449.273 54.5898V70.7031H447.809V62.2656H445.582C445.416 65.6445 443.98 67.7539 441.832 67.7539C439.566 67.7539 438.102 65.4102 438.102 61.7188C438.102 58.0273 439.566 55.6836 441.832 55.6836C443.941 55.6836 445.367 57.7246 445.562 60.9961H447.809V54.5898H449.273ZM441.832 57.1289C440.426 57.1289 439.527 58.8867 439.547 61.7188C439.527 64.5312 440.426 66.3086 441.832 66.2891C443.238 66.3086 444.137 64.5312 444.137 61.7188C444.137 58.8867 443.238 57.1289 441.832 57.1289ZM461.285 58.8867C461.285 62.0312 463.297 65.1953 465.816 66.3477L464.898 67.5977C462.926 66.582 461.295 64.502 460.523 62.0312C459.752 64.6289 458.121 66.8555 456.148 67.9102L455.152 66.6797C457.691 65.4297 459.723 62.0898 459.723 58.8867V55.7227H461.285V58.8867ZM469.566 54.2188V71.6211H468.043V61.4062H463.922V60.1562H468.043V54.2188H469.566ZM491.539 58.7109V59.9414H486.148V62.1484H493.297V63.418H477.477V62.1484H484.625V59.9414H479.645V54.6094H481.168V58.7109H491.539ZM491.559 65.1562V66.3867H488.863V70.0977H491.695V71.3477H479.098V70.0977H481.93V66.3867H479.254V65.1562H491.559ZM483.453 70.0977H487.359V66.3867H483.453V70.0977ZM510.582 63.3789V64.6289H494.762V63.3789H510.582ZM508.824 69.9219V71.2109H496.812V66.1523H498.355V69.9219H508.824ZM502.672 54.8438C506.402 54.8242 508.805 56.1133 508.805 58.2812C508.805 60.4492 506.402 61.7383 502.672 61.7383C498.902 61.7383 496.52 60.4492 496.52 58.2812C496.52 56.1133 498.902 54.8242 502.672 54.8438ZM502.672 56.0742C499.879 56.0742 498.082 56.9141 498.102 58.2812C498.082 59.6484 499.879 60.4883 502.672 60.4883C505.445 60.4883 507.242 59.6484 507.242 58.2812C507.242 56.9141 505.445 56.0742 502.672 56.0742ZM531.012 55.9766V57.9102C531.012 60.1367 531.012 62.3828 530.387 65.6055L528.883 65.4297C529.508 62.3633 529.508 60.0781 529.508 57.9102V57.2461H518.727V55.9766H531.012ZM532.887 67.8516V69.1211H517.066V67.8516H520.992V62.1289H522.516V67.8516H525.328V62.1289H526.832V67.8516H532.887ZM550.172 62.5977V63.8477H545.953V66.0547H548.219V71.582H546.676V67.2852H536.109V66.0547H538.551V63.8477H534.352V62.5977H550.172ZM542.262 54.6484C546.031 54.6289 548.395 55.8789 548.395 57.9492C548.395 60.0391 546.031 61.2891 542.262 61.2695C538.492 61.2891 536.109 60.0391 536.109 57.9492C536.109 55.8789 538.492 54.6289 542.262 54.6484ZM542.262 55.8789C539.449 55.8594 537.672 56.6602 537.691 57.9492C537.672 59.2773 539.449 60.0781 542.262 60.0781C545.035 60.0781 546.832 59.2773 546.832 57.9492C546.832 56.6602 545.035 55.8594 542.262 55.8789ZM540.094 66.0547H544.449V63.8477H540.094V66.0547ZM571.012 54.2188V71.582H569.469V54.2188H571.012ZM565.875 56.1133C565.855 61.1133 563.531 65.5273 557.711 68.3203L556.871 67.0703C561.568 64.8438 563.961 61.5137 564.312 57.3633H557.672V56.1133H565.875ZM582.848 56.3867C582.828 58.5156 585.758 60.2539 588.824 60.6836L588.219 61.8945C585.416 61.4941 582.799 60.0879 581.852 58.0469C580.914 60.0879 578.307 61.4941 575.484 61.8945L574.918 60.6836C577.984 60.2539 580.855 58.5156 580.855 56.3867V56.3477H575.387V55.0977H588.355V56.3477H582.848V56.3867ZM589.82 63.1641V64.4336H582.75V67.9883H581.227V64.4336H573.922V63.1641H589.82ZM588.043 69.9219V71.2109H575.953V66.25H577.496V69.9219H588.043ZM612.125 64.1211V65.3906H607.926V71.582H606.383V65.3906H601.93V71.582H600.348V65.3906H596.227V64.1211H612.125ZM604.137 54.9219C607.789 54.9219 610.25 56.3867 610.25 58.7109C610.25 61.0156 607.789 62.4805 604.137 62.4609C600.484 62.4805 598.023 61.0156 598.023 58.7109C598.023 56.3867 600.484 54.9219 604.137 54.9219ZM604.137 56.1719C601.422 56.1719 599.586 57.168 599.605 58.7109C599.586 60.2539 601.422 61.2305 604.137 61.2305C606.832 61.2305 608.688 60.2539 608.688 58.7109C608.688 57.168 606.832 56.1719 604.137 56.1719ZM619.742 59.5508C619.742 62.5 621.891 65.4883 624.449 66.6016L623.59 67.8125C621.559 66.8848 619.801 64.8828 619 62.4805C618.18 65.0293 616.432 67.2461 614.449 68.2422L613.531 67.0312C616.012 65.8398 618.18 62.5586 618.199 59.5508V57.2852H614.098V56.0156H623.883V57.2852H619.742V59.5508ZM627.848 54.2188V71.582H626.305V54.2188H627.848ZM233.922 98.3672C232.828 98.3672 231.93 97.4688 231.93 96.3555C231.93 95.2617 232.828 94.3633 233.922 94.3633C235.035 94.3633 235.934 95.2617 235.934 96.3555C235.934 97.4688 235.035 98.3672 233.922 98.3672ZM259.82 87.8594H261.578V97.2148C261.578 100.125 259.41 102.254 256.07 102.254C252.73 102.254 250.562 100.125 250.562 97.2148V87.8594H252.32V97.0781C252.32 99.1289 253.746 100.613 256.07 100.613C258.414 100.613 259.82 99.1289 259.82 97.0781V87.8594ZM266.168 95.6328V102H264.488V91.3945H266.109V93.0547H266.246C266.754 91.9805 267.73 91.2578 269.352 91.2578C271.5 91.2578 272.926 92.5664 272.926 95.2617V102H271.246V95.3789C271.246 93.7383 270.348 92.7617 268.844 92.7617C267.301 92.7617 266.168 93.7969 266.168 95.6328ZM275.621 102V91.3945H277.301V102H275.621ZM276.461 89.6367C275.816 89.6367 275.289 89.1484 275.289 88.5234C275.289 87.8984 275.816 87.4102 276.461 87.4102C277.105 87.4102 277.652 87.8984 277.652 88.5234C277.652 89.1484 277.105 89.6367 276.461 89.6367ZM284.723 91.3945V92.8008H282.379V102H280.68V92.8008H278.98V91.3945H280.68V89.9492C280.68 88.2305 281.832 87.1953 283.707 87.1953C284.117 87.1953 284.605 87.2539 284.957 87.3125V88.8164C284.605 88.7578 284.293 88.7383 284.078 88.7383C282.906 88.7383 282.379 89.2266 282.379 90.3203V91.3945H284.723ZM290.602 102.215C287.711 102.215 285.758 100.047 285.758 96.7461C285.758 93.4453 287.711 91.2578 290.602 91.2578C293.473 91.2578 295.406 93.4453 295.406 96.7461C295.406 100.047 293.473 102.215 290.602 102.215ZM290.602 100.73C292.73 100.73 293.727 98.8555 293.727 96.7461C293.727 94.6367 292.73 92.7422 290.602 92.7422C288.434 92.7422 287.438 94.6367 287.438 96.7461C287.438 98.8555 288.434 100.73 290.602 100.73ZM297.613 102V91.3945H299.234V93.0156H299.352C299.742 91.9414 300.836 91.2188 302.086 91.2188C302.34 91.2188 302.77 91.2383 302.965 91.2578V92.957C302.848 92.918 302.379 92.8398 301.949 92.8398C300.426 92.8398 299.293 93.8945 299.293 95.3203V102H297.613ZM304.605 102V91.3945H306.227V93.0547H306.363C306.812 91.9219 307.828 91.2578 309.215 91.2578C310.602 91.2578 311.539 91.9219 312.047 93.0547H312.164C312.711 91.9609 313.824 91.2578 315.348 91.2578C317.242 91.2578 318.59 92.4102 318.59 94.9102V102H316.91V94.9297C316.91 93.3672 315.914 92.7617 314.762 92.7617C313.277 92.7617 312.438 93.7578 312.438 95.1055V102H310.738V94.7539C310.738 93.5625 309.879 92.7617 308.668 92.7617C307.398 92.7617 306.285 93.8359 306.285 95.3789V102H304.605ZM321.285 102V91.3945H322.965V102H321.285ZM322.125 89.6367C321.48 89.6367 320.953 89.1484 320.953 88.5234C320.953 87.8984 321.48 87.4102 322.125 87.4102C322.77 87.4102 323.316 87.8984 323.316 88.5234C323.316 89.1484 322.77 89.6367 322.125 89.6367ZM330.27 91.3945V92.8008H328.043V98.9531C328.043 100.32 328.707 100.535 329.43 100.535C329.742 100.535 330.172 100.516 330.426 100.496V102.059C330.172 102.098 329.742 102.137 329.254 102.137C327.848 102.137 326.344 101.258 326.344 99.3828V92.8008H324.742V91.3945H326.344V88.8555H328.043V91.3945H330.27ZM333.512 105.984C333.141 105.984 332.789 105.965 332.574 105.945V104.441C332.75 104.461 333.141 104.48 333.395 104.48C334.078 104.48 334.645 104.422 335.211 102.879L335.523 102.078L331.598 91.3945H333.434L336.324 99.8125H336.441L339.332 91.3945H341.168L336.676 103.523C336.051 105.184 335.016 105.984 333.512 105.984ZM354.117 95.1836V96.7266H347.926V95.1836H354.117ZM374.645 86.2188V90.75H377.262V92.0195H374.645V96.6484H373.121V86.2188H374.645ZM369.918 87.5078C369.918 91.9219 366.793 95.1836 361.734 96.668L361.09 95.418C365.279 94.207 367.955 91.7949 368.277 88.7773H361.852V87.5078H369.918ZM369.156 96.8438C372.652 96.8438 374.84 98.1133 374.84 100.184C374.84 102.293 372.652 103.543 369.156 103.543C365.699 103.543 363.453 102.293 363.473 100.184C363.453 98.1133 365.699 96.8438 369.156 96.8438ZM369.156 98.0742C366.617 98.0547 364.977 98.875 364.996 100.184C364.977 101.492 366.617 102.312 369.156 102.312C371.715 102.312 373.355 101.492 373.355 100.184C373.355 98.875 371.715 98.0547 369.156 98.0742ZM384.176 90.8867C384.176 93.9531 386.207 97.0977 388.668 98.3086L387.73 99.5391C385.816 98.5332 384.215 96.4824 383.453 94.0703C382.672 96.6387 381.031 98.8262 379.078 99.8711L378.102 98.6406C380.641 97.3906 382.652 94.0508 382.672 90.8867V87.7227H384.176V90.8867ZM391.793 86.2188V93.2695H394.703V94.5977H391.793V103.582H390.27V86.2188H391.793ZM414.234 86.2188V91.5117H416.852V92.8008H414.234V98.9336H412.691V86.2188H414.234ZM409.547 87.5664C409.547 92.0391 406.344 95.3594 401.344 96.9219L400.68 95.6914C404.84 94.3926 407.555 91.9121 407.887 88.8555H401.402V87.5664H409.547ZM415.035 101.922V103.211H403.355V97.6445H404.879V101.922H415.035ZM431.676 87.8398C431.676 90.2812 434.879 92.4102 438.004 92.8398L437.379 94.0898C434.684 93.6406 432.018 92.1465 430.895 90.0078C429.781 92.1562 427.105 93.6406 424.41 94.0898L423.785 92.8398C426.91 92.4102 430.094 90.3203 430.094 87.8398V86.8438H431.676V87.8398ZM438.785 96.0039V97.293H431.598V103.582H430.094V97.293H422.965V96.0039H438.785ZM445.035 87.0391C447.369 87.0195 449.137 88.377 449.469 90.3789H453.102V86.2188H454.645V95.5352H453.102V91.6484H449.488C449.176 93.6992 447.389 95.0664 445.035 95.0664C442.398 95.0664 440.523 93.4258 440.523 91.043C440.523 88.6797 442.398 87.0195 445.035 87.0391ZM445.035 88.3477C443.258 88.3281 441.988 89.4414 441.988 91.043C441.988 92.625 443.258 93.7773 445.035 93.7773C446.793 93.7773 448.043 92.625 448.043 91.043C448.043 89.4414 446.793 88.3281 445.035 88.3477ZM444.996 96.4141V98.6211H453.102V96.4141H454.645V103.348H443.453V96.4141H444.996ZM444.996 102.098H453.102V99.8516H444.996V102.098ZM478.375 94.6172V95.8867H471.207V97.9375H476.441V103.348H464.488V97.9375H469.703V95.8867H462.555V94.6172H478.375ZM476.871 86.7852V88.0547H474.195V91.707H476.812V92.9766H464.098V91.707H466.715V88.0547H464.039V86.7852H476.871ZM466.012 99.1484V102.098H474.938V99.1484H466.012ZM468.238 91.707H472.672V88.0547H468.238V91.707ZM494.156 86.2188V95.2422H492.652V86.2188H494.156ZM494.176 96.082V100.223H484.43V102.156H494.801V103.387H482.926V99.0703H492.652V97.293H482.887V96.082H494.176ZM486.09 88.6797C486.09 90.9453 487.945 92.918 490.562 93.6992L489.801 94.8906C487.75 94.2461 486.119 92.8691 485.348 91.082C484.596 93.0352 482.936 94.5586 480.816 95.2617L480.094 94.0508C482.691 93.1914 484.547 91.0625 484.547 88.6797V88.4844H480.484V87.2148H490.094V88.4844H486.09V88.6797ZM516.539 86.2188V99.1484H514.996V94.1094H512.027V92.8203H514.996V90.8086H512.027V89.5391H514.996V86.2188H516.539ZM511.891 87.6445V88.8945H510.113V94.9688C510.924 94.9199 511.705 94.8613 512.457 94.7734L512.535 95.9258C509.156 96.4531 505.191 96.5117 502.379 96.5117L502.184 95.2031L504.43 95.1836V88.8945H502.672V87.6445H511.891ZM517.008 101.922V103.211H505.348V98.0742H506.891V101.922H517.008ZM505.914 95.1445C506.803 95.1348 507.721 95.1055 508.629 95.0664V88.8945H505.914V95.1445ZM525.211 91.8828C525.211 94.6562 527.027 97.5078 529.547 98.7188L528.648 99.9102C526.734 98.9727 525.221 97.0781 524.508 94.832C523.746 97.2441 522.135 99.2656 520.152 100.223L519.273 99.0312C521.812 97.8398 523.707 94.8711 523.727 91.8828V90.4961H519.742V89.2461H523.707V86.5508H525.25V89.2461H529.156V90.4961H525.211V91.8828ZM532.867 86.2188V93.3477H535.777V94.6562H532.867V103.582H531.344V86.2188H532.867ZM548.316 95.3789V98.5625C549.986 98.4941 551.695 98.3477 553.297 98.1133L553.414 99.2461C549.449 99.9688 545.172 99.9883 542.047 99.9883L541.832 98.7188C543.287 98.709 545.006 98.6992 546.812 98.6406V95.3789H548.316ZM552.398 88.5039V89.7734H548.316C548.355 92.0195 550.221 93.8457 552.789 94.5781L552.066 95.7891C549.977 95.1641 548.346 93.8262 547.574 92.0586C546.812 93.9238 545.191 95.3105 543.102 95.9453L542.359 94.7734C544.928 94.0215 546.734 92.1172 546.773 89.7734H542.789V88.5039H546.812V86.3555H548.316V88.5039H552.398ZM555.973 86.2188V103.621H554.449V86.2188H555.973ZM574.918 100.047V101.316H559.02V100.047H566.129V95.7891H567.633V100.047H574.918ZM567.672 88.7383C567.672 91.6484 571.109 94.1875 574.137 94.7148L573.453 95.9844C570.807 95.4473 568.014 93.6504 566.891 91.1406C565.748 93.6406 562.975 95.4473 560.328 95.9844L559.645 94.7148C562.672 94.1875 566.07 91.6484 566.07 88.7383V87.4102H567.672V88.7383ZM589.781 86.2188V93.6211H592.555V94.9102H589.781V103.582H588.238V86.2188H589.781ZM576.09 98.9531C577.506 98.9531 579.156 98.9531 580.875 98.8945V96.9609C578.854 96.7363 577.535 95.5547 577.555 93.8359C577.535 91.8828 579.195 90.6133 581.656 90.6133C584.078 90.6133 585.758 91.8828 585.777 93.8359C585.758 95.5547 584.42 96.7363 582.418 96.9805V98.8359C584.039 98.7578 585.67 98.6309 587.184 98.4062L587.281 99.5781C583.492 100.223 579.391 100.262 576.344 100.262L576.09 98.9531ZM586.871 88.3477V89.5977H576.402V88.3477H580.875V86.2578H582.418V88.3477H586.871ZM581.656 91.8047C580.055 91.8047 578.98 92.625 578.98 93.8359C578.98 95.0469 580.055 95.8281 581.656 95.8086C583.238 95.8281 584.312 95.0469 584.312 93.8359C584.312 92.625 583.238 91.8047 581.656 91.8047ZM233.922 130.367C232.828 130.367 231.93 129.469 231.93 128.355C231.93 127.262 232.828 126.363 233.922 126.363C235.035 126.363 235.934 127.262 235.934 128.355C235.934 129.469 235.035 130.367 233.922 130.367ZM260.211 124.312C259.801 122.359 258.121 121.305 256.266 121.305C253.707 121.305 251.715 123.277 251.715 126.93C251.715 130.582 253.707 132.555 256.266 132.555C258.121 132.555 259.781 131.5 260.211 129.566H261.969C261.461 132.457 259.137 134.195 256.266 134.195C252.633 134.195 250.016 131.402 250.016 126.93C250.016 122.457 252.633 119.664 256.266 119.664C259.117 119.664 261.441 121.383 261.969 124.312H260.211ZM268.551 134.215C265.66 134.215 263.707 132.047 263.707 128.746C263.707 125.445 265.66 123.258 268.551 123.258C271.422 123.258 273.355 125.445 273.355 128.746C273.355 132.047 271.422 134.215 268.551 134.215ZM268.551 132.73C270.68 132.73 271.676 130.855 271.676 128.746C271.676 126.637 270.68 124.742 268.551 124.742C266.383 124.742 265.387 126.637 265.387 128.746C265.387 130.855 266.383 132.73 268.551 132.73ZM277.242 127.633V134H275.562V123.395H277.184V125.055H277.32C277.828 123.98 278.805 123.258 280.426 123.258C282.574 123.258 284 124.566 284 127.262V134H282.32V127.379C282.32 125.738 281.422 124.762 279.918 124.762C278.375 124.762 277.242 125.797 277.242 127.633ZM292.594 126.148C292.359 125.27 291.695 124.684 290.445 124.684C289.137 124.684 288.199 125.387 288.199 126.285C288.199 126.988 288.766 127.477 290.016 127.77L291.598 128.16C293.492 128.609 294.43 129.547 294.43 131.031C294.43 132.867 292.926 134.215 290.27 134.215C287.887 134.215 286.461 133.16 286.188 131.227H287.945C288.141 132.262 288.902 132.75 290.23 132.75C291.734 132.75 292.691 132.125 292.691 131.129C292.691 130.387 292.164 129.879 290.953 129.605L289.352 129.234C287.496 128.805 286.52 127.789 286.52 126.383C286.52 124.566 288.102 123.258 290.445 123.258C292.633 123.258 294.02 124.43 294.234 126.148H292.594ZM296.617 134V123.395H298.297V134H296.617ZM297.457 121.637C296.812 121.637 296.285 121.148 296.285 120.523C296.285 119.898 296.812 119.41 297.457 119.41C298.102 119.41 298.648 119.898 298.648 120.523C298.648 121.148 298.102 121.637 297.457 121.637ZM306.871 126.148C306.637 125.27 305.973 124.684 304.723 124.684C303.414 124.684 302.477 125.387 302.477 126.285C302.477 126.988 303.043 127.477 304.293 127.77L305.875 128.16C307.77 128.609 308.707 129.547 308.707 131.031C308.707 132.867 307.203 134.215 304.547 134.215C302.164 134.215 300.738 133.16 300.465 131.227H302.223C302.418 132.262 303.18 132.75 304.508 132.75C306.012 132.75 306.969 132.125 306.969 131.129C306.969 130.387 306.441 129.879 305.23 129.605L303.629 129.234C301.773 128.805 300.797 127.789 300.797 126.383C300.797 124.566 302.379 123.258 304.723 123.258C306.91 123.258 308.297 124.43 308.512 126.148H306.871ZM315.523 123.395V124.801H313.297V130.953C313.297 132.32 313.961 132.535 314.684 132.535C314.996 132.535 315.426 132.516 315.68 132.496V134.059C315.426 134.098 314.996 134.137 314.508 134.137C313.102 134.137 311.598 133.258 311.598 131.383V124.801H309.996V123.395H311.598V120.855H313.297V123.395H315.523ZM322.027 134.215C318.961 134.215 317.066 132.047 317.066 128.785C317.066 125.523 318.98 123.258 321.871 123.258C324.098 123.258 326.441 124.625 326.441 128.551V129.254H318.746C318.824 131.5 320.133 132.73 322.027 132.73C323.297 132.73 324.098 132.184 324.488 131.52H326.285C325.777 133.121 324.215 134.215 322.027 134.215ZM318.766 127.828H324.742C324.742 126.051 323.609 124.742 321.871 124.742C320.035 124.742 318.863 126.188 318.766 127.828ZM330.309 127.633V134H328.629V123.395H330.25V125.055H330.387C330.895 123.98 331.871 123.258 333.492 123.258C335.641 123.258 337.066 124.566 337.066 127.262V134H335.387V127.379C335.387 125.738 334.488 124.762 332.984 124.762C331.441 124.762 330.309 125.797 330.309 127.633ZM344.098 134.215C341.09 134.215 339.254 131.93 339.254 128.746C339.254 125.523 341.168 123.258 344.059 123.258C346.324 123.258 348.004 124.586 348.277 126.598H346.598C346.363 125.621 345.504 124.742 344.098 124.742C342.203 124.742 340.934 126.305 340.934 128.688C340.934 131.148 342.164 132.711 344.098 132.711C345.348 132.711 346.305 132.047 346.598 130.875H348.277C348.004 132.77 346.461 134.215 344.098 134.215ZM351.422 137.984C351.051 137.984 350.699 137.965 350.484 137.945V136.441C350.66 136.461 351.051 136.48 351.305 136.48C351.988 136.48 352.555 136.422 353.121 134.879L353.434 134.078L349.508 123.395H351.344L354.234 131.812H354.352L357.242 123.395H359.078L354.586 135.523C353.961 137.184 352.926 137.984 351.422 137.984ZM372.027 127.184V128.727H365.836V127.184H372.027ZM389.371 120.094V121.344H379.02V120.094H383.434V118.141H384.957V120.094H389.371ZM384.195 122.242C386.695 122.262 388.355 123.473 388.375 125.387C388.355 127.281 386.695 128.512 384.195 128.512C381.695 128.512 379.996 127.281 380.016 125.387C379.996 123.473 381.695 122.262 384.195 122.242ZM384.195 123.434C382.555 123.453 381.461 124.215 381.48 125.387C381.461 126.539 382.555 127.281 384.195 127.281C385.816 127.281 386.91 126.539 386.93 125.387C386.91 124.215 385.816 123.453 384.195 123.434ZM392.555 118.219V123.043H395.172V124.332H392.555V129.078H391.031V118.219H392.555ZM392.555 130.035V135.582H391.031V131.285H381.188V130.035H392.555ZM410.66 118.238V131.09H409.117V125.074H404.117V123.844H409.117V121.754H404.117V120.523H409.117V118.238H410.66ZM411.129 133.922V135.211H399.469V129.996H401.012V133.922H411.129ZM398.844 119.488V127.203C401.236 127.193 403.541 127.066 406.188 126.578L406.344 127.848C403.512 128.375 401.148 128.492 398.609 128.512H397.301V119.488H398.844ZM416.402 132.691L414.879 138.004H413.434L414.508 132.691H416.402ZM430.465 120.152V126.148H425.758V130.016C427.76 130.006 429.654 129.938 431.969 129.527L432.086 130.797C429.605 131.246 427.633 131.285 425.426 131.305H424.273V124.879H429V121.422H424.234V120.152H430.465ZM438.531 118.219V135.582H437.066V118.219H438.531ZM434.977 118.648V134.664H433.531V125.738H431.305V124.488H433.531V118.648H434.977ZM455.719 118.238V127.379H454.254V118.238H455.719ZM452.281 118.59V127.281H450.836V123.453H448.531V126.539H441.773V119.254H443.219V121.559H447.086V119.254H448.531V122.164H450.836V118.59H452.281ZM455.719 128.219V132.281H445.758V134.156H456.422V135.387H444.234V131.109H454.215V129.43H444.195V128.219H455.719ZM443.219 125.328H447.086V122.75H443.219V125.328ZM461.109 132.691L459.586 138.004H458.141L459.215 132.691H461.109ZM474.566 122.887C474.547 126.051 476.715 129.254 479.273 130.406L478.336 131.617C476.363 130.65 474.654 128.609 473.824 126.129C473.014 128.756 471.305 130.943 469.273 131.969L468.297 130.68C470.875 129.488 473.023 126.188 473.043 122.887V119.723H474.566V122.887ZM482.711 118.219V135.621H481.168V118.219H482.711ZM500.035 118.219V135.582H498.492V118.219H500.035ZM494.898 120.113C494.879 125.113 492.555 129.527 486.734 132.32L485.895 131.07C490.592 128.844 492.984 125.514 493.336 121.363H486.695V120.113H494.898ZM517.848 118.219V135.582H516.363V118.219H517.848ZM514.352 118.59V134.703H512.887V126.266H510.66C510.494 129.645 509.059 131.754 506.91 131.754C504.645 131.754 503.18 129.41 503.18 125.719C503.18 122.027 504.645 119.684 506.91 119.684C509.02 119.684 510.445 121.725 510.641 124.996H512.887V118.59H514.352ZM506.91 121.129C505.504 121.129 504.605 122.887 504.625 125.719C504.605 128.531 505.504 130.309 506.91 130.289C508.316 130.309 509.215 128.531 509.215 125.719C509.215 122.887 508.316 121.129 506.91 121.129ZM534.898 119.566V120.484C534.879 121.617 534.879 123.355 534.449 125.621L532.906 125.504C533.326 123.424 533.365 121.949 533.395 120.855H526.246V119.566H534.898ZM530.426 123.414V127.145C532.35 127.066 534.342 126.93 536.148 126.676L536.246 127.809C532.613 128.434 528.414 128.512 525.328 128.512L525.172 127.242C526.295 127.232 527.564 127.223 528.902 127.184V123.414H530.426ZM538.883 118.219V123.883H541.422V125.191H538.883V131.285H537.32V118.219H538.883ZM539.449 133.922V135.211H527.848V130.113H529.391V133.922H539.449ZM557.418 118.219V135.582H555.953V118.219H557.418ZM553.902 118.688V134.703H552.438V128.688H549.215V127.418H552.438V124.332H549.508C548.658 127.271 546.754 129.869 543.473 131.832L542.535 130.719C546.314 128.482 548.209 125.348 548.512 121.715H543.316V120.445H550.035C550.035 121.334 549.957 122.213 549.801 123.062H552.438V118.688H553.902ZM563.297 128.414V130.582H566.461V128.414H567.887V135.348H561.852V128.414H563.297ZM563.297 134.137H566.461V131.754H563.297V134.137ZM572.848 129.781C572.828 131.617 573.922 133.531 576.051 134.312L575.25 135.484C573.648 134.84 572.594 133.619 572.066 132.164C571.51 133.59 570.455 134.82 568.922 135.484L568.121 134.312C570.211 133.453 571.324 131.539 571.324 129.781V128.297H572.848V129.781ZM564.625 119C566.949 119 568.727 120.318 569.059 122.32H572.691V118.219H574.234V127.418H572.691V123.59H569.078C568.766 125.641 566.979 126.988 564.625 126.988C561.988 126.988 560.113 125.367 560.113 122.984C560.113 120.621 561.988 119 564.625 119ZM564.625 120.289C562.848 120.289 561.578 121.402 561.578 122.984C561.578 124.586 562.848 125.719 564.625 125.719C566.383 125.719 567.633 124.586 567.633 122.984C567.633 121.402 566.383 120.289 564.625 120.289ZM591.168 123.492V124.723H579.273V118.863H580.797V123.492H591.168ZM593.004 127.086V128.336H577.105V127.086H593.004ZM591.266 133.883V135.152H579.176V130.113H580.699V133.883H591.266ZM604.352 118.863C606.949 118.883 608.844 120.445 608.844 122.711C608.844 124.977 606.949 126.539 604.352 126.539C601.715 126.539 599.84 124.977 599.84 122.711C599.84 120.445 601.715 118.883 604.352 118.863ZM604.352 120.152C602.613 120.152 601.324 121.207 601.344 122.711C601.324 124.234 602.613 125.289 604.352 125.289C606.07 125.289 607.359 124.234 607.359 122.711C607.359 121.207 606.07 120.152 604.352 120.152ZM613.766 118.219V127.145H612.242V118.219H613.766ZM613.766 127.984V132.164H604.02V134.117H614.391V135.348H602.516V131.012H612.242V129.215H602.477V127.984H613.766ZM626.344 119.566V120.484C626.324 121.617 626.324 123.355 625.895 125.621L624.352 125.504C624.771 123.424 624.811 121.949 624.84 120.855H617.691V119.566H626.344ZM621.871 123.414V127.145C623.795 127.066 625.787 126.93 627.594 126.676L627.691 127.809C624.059 128.434 619.859 128.512 616.773 128.512L616.617 127.242C617.74 127.232 619.01 127.223 620.348 127.184V123.414H621.871ZM630.328 118.219V123.883H632.867V125.191H630.328V131.285H628.766V118.219H630.328ZM630.895 133.922V135.211H619.293V130.113H620.836V133.922H630.895ZM644.098 123.922V125.172H640.582V127.594C642.203 127.525 643.824 127.408 645.328 127.242L645.445 128.375C641.715 128.883 637.574 129 634.312 129L634.078 127.75C635.602 127.74 637.311 127.721 639.059 127.652V125.172H635.66V119.352H643.961V120.621H637.203V123.922H644.098ZM648.316 118.238V131.227H646.773V118.238H648.316ZM648.883 133.922V135.211H637.047V130.328H638.57V133.922H648.883ZM665.016 119.84C665.016 122.281 668.219 124.41 671.344 124.84L670.719 126.09C668.023 125.641 665.357 124.146 664.234 122.008C663.121 124.156 660.445 125.641 657.75 126.09L657.125 124.84C660.25 124.41 663.434 122.32 663.434 119.84V118.844H665.016V119.84ZM672.125 128.004V129.293H664.938V135.582H663.434V129.293H656.305V128.004H672.125ZM678.375 119.039C680.709 119.02 682.477 120.377 682.809 122.379H686.441V118.219H687.984V127.535H686.441V123.648H682.828C682.516 125.699 680.729 127.066 678.375 127.066C675.738 127.066 673.863 125.426 673.863 123.043C673.863 120.68 675.738 119.02 678.375 119.039ZM678.375 120.348C676.598 120.328 675.328 121.441 675.328 123.043C675.328 124.625 676.598 125.777 678.375 125.777C680.133 125.777 681.383 124.625 681.383 123.043C681.383 121.441 680.133 120.328 678.375 120.348ZM678.336 128.414V130.621H686.441V128.414H687.984V135.348H676.793V128.414H678.336ZM678.336 134.098H686.441V131.852H678.336V134.098ZM710.738 118.219V135.582H709.273V118.219H710.738ZM707.223 118.648V134.684H705.777V125.738H702.848V124.488H705.777V118.648H707.223ZM700.992 123.18C700.992 126.188 702.34 129.176 704.742 130.562L703.805 131.695C702.096 130.67 700.885 128.795 700.289 126.578C699.654 128.971 698.395 131.012 696.656 132.105L695.68 130.953C698.102 129.508 699.508 126.344 699.508 123.18V121.539H696.168V120.27H704.176V121.539H700.992V123.18ZM721.031 129.195C724.762 129.195 727.125 130.367 727.125 132.379C727.125 134.371 724.762 135.543 721.031 135.543C717.32 135.543 714.957 134.371 714.957 132.379C714.957 130.367 717.32 129.195 721.031 129.195ZM721.031 130.367C718.258 130.387 716.461 131.148 716.48 132.379C716.461 133.59 718.258 134.332 721.031 134.332C723.805 134.332 725.582 133.59 725.602 132.379C725.582 131.148 723.805 130.387 721.031 130.367ZM726.988 119.117V120.582C726.988 121.988 726.988 123.395 726.5 125.191L724.996 125.016C725.465 123.219 725.465 121.949 725.465 120.582V120.367H715.074V119.117H726.988ZM729 126.324V127.574H713.199V126.324H719.742V122.965H721.246V126.324H729Z" fill="black"/>
<path d="M196 29L196 161" stroke="url(#paint1_linear_469_1761)" stroke-width="2"/>
<path d="M28.5801 150V135.859H31.1191V142.363H31.3145L36.8418 135.859H39.9473L34.4785 142.207L40.0059 150H36.9395L32.7012 143.926L31.1191 145.781V150H28.5801ZM41.5684 150V135.859H46.8809C50.123 135.859 51.8613 137.832 51.8613 140.547C51.8613 143.262 50.1035 145.215 46.8418 145.215H44.1074V150H41.5684ZM44.1074 143.125H46.4902C48.4043 143.125 49.2637 142.051 49.2637 140.547C49.2637 139.023 48.4043 137.988 46.4902 137.988H44.1074V143.125ZM56.4512 135.859V150H53.9121V135.859H56.4512ZM77.8574 134.082V151.738H75.6699V134.082H77.8574ZM72.584 135.957C72.584 141.211 70.5527 145.684 64.3613 148.613L63.2285 146.875C67.8477 144.678 69.9961 141.689 70.377 137.676H64.127V135.957H72.584ZM94.3223 134.102V139.199H96.7832V140.996H94.3223V147.09H92.1543V134.102H94.3223ZM95.0254 149.629V151.387H83.0137V145.781H85.1816V149.629H95.0254ZM83.1504 135.352V138.047H87.2715V135.352H89.4199V144.219H81.002V135.352H83.1504ZM83.1504 142.5H87.2715V139.727H83.1504V142.5ZM111.627 135.547C111.627 137.773 114.107 140.02 117.877 140.508L117.018 142.266C114.02 141.816 111.637 140.342 110.494 138.34C109.332 140.342 106.959 141.816 103.99 142.266L103.131 140.508C106.861 140.02 109.342 137.773 109.342 135.547V134.648H111.627V135.547ZM118.521 143.789V145.586H111.51V151.738H109.361V145.586H102.428V143.789H118.521ZM124.615 134.863C126.9 134.844 128.697 136.162 129.146 138.105H132.33V134.082H134.498V143.555H132.33V139.863H129.166C128.727 141.846 126.91 143.184 124.615 143.184C121.9 143.184 119.947 141.445 119.947 139.004C119.947 136.602 121.9 134.844 124.615 134.863ZM124.615 136.68C123.092 136.68 122.018 137.578 122.018 139.004C122.018 140.41 123.092 141.348 124.615 141.348C126.1 141.348 127.154 140.41 127.174 139.004C127.154 137.578 126.1 136.68 124.615 136.68ZM125.006 144.375V146.25H132.33V144.375H134.498V151.523H122.857V144.375H125.006ZM125.006 149.766H132.33V147.93H125.006V149.766ZM151.607 135.391V136.445C151.588 137.656 151.588 139.395 151.178 141.641L149.029 141.445C149.371 139.619 149.439 138.271 149.479 137.188H142.604V135.391H151.607ZM147.154 139.414V142.93C148.98 142.861 150.855 142.725 152.564 142.48L152.682 144.043C149.01 144.707 144.85 144.766 141.744 144.785L141.549 143.047C142.594 143.037 143.766 143.027 145.006 143.008V139.414H147.154ZM155.826 134.082V139.59H158.111V141.406H155.826V147.305H153.6V134.082H155.826ZM156.393 149.629V151.387H144.186V146.133H146.373V149.629H156.393ZM173.736 134.082V151.758H171.588V134.082H173.736ZM168.307 135.625V142.246H162.232V145.801C165.016 145.781 167.418 145.645 170.162 145.176L170.357 146.953C167.35 147.48 164.713 147.578 161.549 147.578H160.006V140.527H166.1V137.383H159.986V135.625H168.307Z" fill="black"/>
<circle cx="101.227" cy="82.227" r="35.227" fill="#CCE0FF"/>
<g filter="url(#filter0_i_469_1761)">
<circle cx="101.228" cy="82.2271" r="33.1446" fill="#CCE0FF"/>
</g>
<rect x="79.8818" y="61.9238" width="42.6889" height="40.6065" fill="#CCE0FF"/>
<g filter="url(#filter1_d_469_1761)">
<rect x="85.0884" y="79.9712" width="7.98247" height="13.1884" rx="2" fill="#69A4FF"/>
</g>
<g filter="url(#filter2_d_469_1761)">
<path d="M96.1943 72.6011C96.1943 71.4965 97.0898 70.6011 98.1943 70.6011H102.177C103.281 70.6011 104.177 71.4965 104.177 72.6011V91.1602C104.177 92.2648 103.281 93.1602 102.177 93.1602H98.1943C97.0898 93.1602 96.1943 92.2648 96.1943 91.1602V72.6011Z" fill="#69A4FF"/>
</g>
<g filter="url(#filter3_d_469_1761)">
<path d="M107.3 77.1118C107.3 76.0072 108.195 75.1118 109.3 75.1118H113.282C114.387 75.1118 115.282 76.0072 115.282 77.1118V91.1592C115.282 92.2637 114.387 93.1592 113.282 93.1592H109.3C108.195 93.1592 107.3 92.2637 107.3 91.1592V77.1118Z" fill="#69A4FF"/>
</g>
<defs>
<filter id="filter0_i_469_1761" x="68.083" y="49.0825" width="70.2891" height="69.2891" filterUnits="userSpaceOnUse" color-interpolation-filters="sRGB">
<feFlood flood-opacity="0" result="BackgroundImageFix"/>
<feBlend mode="normal" in="SourceGraphic" in2="BackgroundImageFix" result="shape"/>
<feColorMatrix in="SourceAlpha" type="matrix" values="0 0 0 0 0 0 0 0 0 0 0 0 0 0 0 0 0 0 127 0" result="hardAlpha"/>
<feOffset dx="4" dy="3"/>
<feGaussianBlur stdDeviation="3.5"/>
<feComposite in2="hardAlpha" operator="arithmetic" k2="-1" k3="1"/>
<feColorMatrix type="matrix" values="0 0 0 0 1 0 0 0 0 1 0 0 0 0 1 0 0 0 0.3 0"/>
<feBlend mode="normal" in2="shape" result="effect1_innerShadow_469_1761"/>
</filter>
<filter id="filter1_d_469_1761" x="78.0884" y="73.9712" width="27.9824" height="33.1885" filterUnits="userSpaceOnUse" color-interpolation-filters="sRGB">
<feFlood flood-opacity="0" result="BackgroundImageFix"/>
<feColorMatrix in="SourceAlpha" type="matrix" values="0 0 0 0 0 0 0 0 0 0 0 0 0 0 0 0 0 0 127 0" result="hardAlpha"/>
<feOffset dx="3" dy="4"/>
<feGaussianBlur stdDeviation="5"/>
<feComposite in2="hardAlpha" operator="out"/>
<feColorMatrix type="matrix" values="0 0 0 0 0.592157 0 0 0 0 0.752941 0 0 0 0 1 0 0 0 1 0"/>
<feBlend mode="normal" in2="BackgroundImageFix" result="effect1_dropShadow_469_1761"/>
<feBlend mode="normal" in="SourceGraphic" in2="effect1_dropShadow_469_1761" result="shape"/>
</filter>
<filter id="filter2_d_469_1761" x="89.1943" y="64.6011" width="27.9824" height="42.5591" filterUnits="userSpaceOnUse" color-interpolation-filters="sRGB">
<feFlood flood-opacity="0" result="BackgroundImageFix"/>
<feColorMatrix in="SourceAlpha" type="matrix" values="0 0 0 0 0 0 0 0 0 0 0 0 0 0 0 0 0 0 127 0" result="hardAlpha"/>
<feOffset dx="3" dy="4"/>
<feGaussianBlur stdDeviation="5"/>
<feComposite in2="hardAlpha" operator="out"/>
<feColorMatrix type="matrix" values="0 0 0 0 0.592157 0 0 0 0 0.752941 0 0 0 0 1 0 0 0 1 0"/>
<feBlend mode="normal" in2="BackgroundImageFix" result="effect1_dropShadow_469_1761"/>
<feBlend mode="normal" in="SourceGraphic" in2="effect1_dropShadow_469_1761" result="shape"/>
</filter>
<filter id="filter3_d_469_1761" x="100.3" y="69.1118" width="27.9824" height="38.0474" filterUnits="userSpaceOnUse" color-interpolation-filters="sRGB">
<feFlood flood-opacity="0" result="BackgroundImageFix"/>
<feColorMatrix in="SourceAlpha" type="matrix" values="0 0 0 0 0 0 0 0 0 0 0 0 0 0 0 0 0 0 127 0" result="hardAlpha"/>
<feOffset dx="3" dy="4"/>
<feGaussianBlur stdDeviation="5"/>
<feComposite in2="hardAlpha" operator="out"/>
<feColorMatrix type="matrix" values="0 0 0 0 0.592157 0 0 0 0 0.752941 0 0 0 0 1 0 0 0 1 0"/>
<feBlend mode="normal" in2="BackgroundImageFix" result="effect1_dropShadow_469_1761"/>
<feBlend mode="normal" in="SourceGraphic" in2="effect1_dropShadow_469_1761" result="shape"/>
</filter>
<linearGradient id="paint0_linear_469_1761" x1="-0.691317" y1="94" x2="1064.03" y2="93.9999" gradientUnits="userSpaceOnUse">
<stop stop-color="#3182F6"/>
<stop offset="1" stop-color="#A009FF"/>
</linearGradient>
<linearGradient id="paint1_linear_469_1761" x1="195.999" y1="95" x2="197.391" y2="95" gradientUnits="userSpaceOnUse">
<stop stop-color="#3182F6"/>
<stop offset="1" stop-color="#A009FF"/>
</linearGradient>
</defs>
</svg>
