<svg width="765" height="188" viewBox="0 0 765 188" fill="none" xmlns="http://www.w3.org/2000/svg">
<rect x="2" y="2" width="761" height="184" rx="13" fill="white" stroke="url(#paint0_linear_469_1759)" stroke-width="4"/>
<path d="M237.906 61.6406C236.594 61.6406 235.516 60.5625 235.516 59.2266C235.516 57.9141 236.594 56.8359 237.906 56.8359C239.242 56.8359 240.32 57.9141 240.32 59.2266C240.32 60.5625 239.242 61.6406 237.906 61.6406ZM274.023 47.0859V62.9062H272.172V60.75H267.859V59.4141H272.172V47.0859H274.023ZM274.539 65.9062V67.4531H259.727V61.3594H261.578V65.9062H274.539ZM256.727 56.7422C260.617 56.7188 265.82 56.6953 270.297 56.1328L270.414 57.4688C268.551 57.7617 266.605 57.9492 264.695 58.0547V62.1797H262.844V58.1484C260.734 58.2422 258.73 58.2539 256.984 58.2422L256.727 56.7422ZM263.57 47.9297C266.617 47.9297 268.703 49.3828 268.727 51.5625C268.703 53.7891 266.617 55.1719 263.57 55.1719C260.5 55.1719 258.414 53.7891 258.414 51.5625C258.414 49.3828 260.5 47.9297 263.57 47.9297ZM263.57 49.3359C261.531 49.3125 260.148 50.2266 260.172 51.5625C260.148 52.9219 261.531 53.8125 263.57 53.8125C265.539 53.8125 266.945 52.9219 266.969 51.5625C266.945 50.2266 265.539 49.3125 263.57 49.3359ZM283.188 48.6797C286.023 48.7031 288.062 51.1289 288.367 55.0312H293.031V47.0625H294.859V67.9453H293.031V56.5547H288.391C288.168 60.6328 286.094 63.1875 283.188 63.1875C280.117 63.1875 277.961 60.375 277.961 55.9453C277.961 51.5156 280.117 48.7031 283.188 48.6797ZM283.188 50.3203C281.125 50.3438 279.719 52.5469 279.719 55.9453C279.719 59.3438 281.125 61.5469 283.188 61.5469C285.227 61.5469 286.656 59.3438 286.656 55.9453C286.656 52.5469 285.227 50.3438 283.188 50.3203ZM309.203 48.8906V58.5469H299.43V48.8906H309.203ZM301.234 50.4141V57.0703H307.398V50.4141H301.234ZM315.531 47.0859V62.0625H313.703V47.0859H315.531ZM316.188 65.6719V67.1953H302.078V60.6094H303.906V65.6719H316.188ZM335.547 49.0078C335.547 51.9375 339.391 54.4922 343.141 55.0078L342.391 56.5078C339.156 55.9688 335.957 54.1758 334.609 51.6094C333.273 54.1875 330.062 55.9688 326.828 56.5078L326.078 55.0078C329.828 54.4922 333.648 51.9844 333.648 49.0078V47.8125H335.547V49.0078ZM344.078 58.8047V60.3516H335.453V67.8984H333.648V60.3516H325.094V58.8047H344.078ZM356.523 49.6641C356.5 52.2188 360.016 54.3047 363.695 54.8203L362.969 56.2734C359.605 55.793 356.465 54.1055 355.328 51.6562C354.203 54.1055 351.074 55.793 347.688 56.2734L347.008 54.8203C350.688 54.3047 354.133 52.2188 354.133 49.6641V49.6172H347.57V48.1172H363.133V49.6172H356.523V49.6641ZM364.891 57.7969V59.3203H356.406V63.5859H354.578V59.3203H345.812V57.7969H364.891ZM362.758 65.9062V67.4531H348.25V61.5H350.102V65.9062H362.758ZM389.781 47.0625V67.9453H387.93V47.0625H389.781ZM378.695 48.6797C381.789 48.7031 384.016 51.5156 384.016 55.9453C384.016 60.375 381.789 63.1875 378.695 63.1875C375.578 63.1875 373.375 60.375 373.375 55.9453C373.375 51.5156 375.578 48.7031 378.695 48.6797ZM378.695 50.3203C376.609 50.3438 375.156 52.5469 375.156 55.9453C375.156 59.3438 376.609 61.5469 378.695 61.5469C380.781 61.5469 382.234 59.3438 382.234 55.9453C382.234 52.5469 380.781 50.3438 378.695 50.3203ZM412.328 56.8125V58.3359H403.727V60.5625C407.664 60.7266 409.984 62.0156 410.008 64.2188C409.984 66.5391 407.312 67.8516 402.836 67.8516C398.312 67.8516 395.641 66.5391 395.641 64.2188C395.641 62.0156 397.949 60.7266 401.922 60.5625V58.3359H393.344V56.8125H412.328ZM402.836 61.9688C399.484 61.9922 397.492 62.8125 397.516 64.2188C397.492 65.6016 399.484 66.4219 402.836 66.4219C406.141 66.4219 408.156 65.6016 408.156 64.2188C408.156 62.8125 406.141 61.9922 402.836 61.9688ZM410.641 48.0469V49.5469H404.031C404.148 51.8906 407.594 53.707 411.273 54.0938L410.594 55.5469C407.184 55.1367 403.984 53.6133 402.836 51.2812C401.699 53.6133 398.512 55.1367 395.078 55.5469L394.422 54.0938C398.031 53.707 401.5 51.8906 401.641 49.5469H395.078V48.0469H410.641ZM431.359 47.0859V62.4375H429.508V54.3984H425.148C424.738 56.9648 422.582 58.7109 419.828 58.7109C416.711 58.7109 414.414 56.5781 414.414 53.5547C414.414 50.5312 416.711 48.4219 419.828 48.4219C422.641 48.4219 424.832 50.2148 425.172 52.875H429.508V47.0859H431.359ZM431.945 65.9062V67.4531H417.977V60.8672H419.828V65.9062H431.945ZM419.828 50.0391C417.742 50.0625 416.172 51.4922 416.172 53.5547C416.172 55.6172 417.742 57.0938 419.828 57.1172C421.867 57.0938 423.438 55.6172 423.438 53.5547C423.438 51.4922 421.867 50.0625 419.828 50.0391ZM440.43 48.6797C443.266 48.7031 445.305 51.1289 445.609 55.0312H450.273V47.0625H452.102V67.9453H450.273V56.5547H445.633C445.41 60.6328 443.336 63.1875 440.43 63.1875C437.359 63.1875 435.203 60.375 435.203 55.9453C435.203 51.5156 437.359 48.7031 440.43 48.6797ZM440.43 50.3203C438.367 50.3438 436.961 52.5469 436.961 55.9453C436.961 59.3438 438.367 61.5469 440.43 61.5469C442.469 61.5469 443.898 59.3438 443.898 55.9453C443.898 52.5469 442.469 50.3438 440.43 50.3203ZM478.07 48.4219V50.25C478.07 52.2305 478.07 54.375 477.484 57.375H480.578V58.8984H471.977V67.9453H470.125V58.8984H461.594V57.375H475.609C476.242 54.375 476.242 52.1836 476.242 50.25V49.9453H463.984V48.4219H478.07ZM489.32 52.6641C489.32 56.3438 491.758 60.1172 494.711 61.5703L493.586 63.0469C491.289 61.8398 489.367 59.3789 488.453 56.4844C487.516 59.5664 485.547 62.1914 483.203 63.4453L482.031 61.9688C485.078 60.4688 487.492 56.4609 487.516 52.6641V48.8672H489.32V52.6641ZM498.461 47.0625V55.5234H501.953V57.1172H498.461V67.8984H496.633V47.0625H498.461ZM519.977 48.4219V56.9062H510.203V48.4219H519.977ZM512.008 49.9219V55.4531H518.172V49.9219H512.008ZM526.281 47.0625V59.0391H524.477V47.0625H526.281ZM520.633 61.8984C520.633 63.9375 523.961 65.9531 527.547 66.3984L526.914 67.8281C523.773 67.4062 520.914 65.9297 519.695 63.9844C518.43 65.9648 515.5 67.4062 512.359 67.8281L511.703 66.3984C515.289 66 518.734 63.9844 518.734 61.8984H512.57V60.4688H518.758V58.4297H520.586V60.4688H526.82V61.8984H520.633ZM536.898 66V49.0312H547.188V50.9062H539.008V56.5781H546.648V58.4297H539.008V64.125H547.305V66H536.898ZM559.773 53.2969C559.586 51.6328 558.062 50.6719 556.023 50.6719C553.773 50.6719 552.297 51.8438 552.297 53.4609C552.297 55.2422 554.289 55.8984 555.578 56.2266L557.266 56.6953C559.094 57.1641 562.07 58.2188 562.07 61.3828C562.07 64.1484 559.844 66.3047 555.906 66.3047C552.25 66.3047 549.977 64.4062 549.789 61.5938H551.945C552.133 63.4922 553.891 64.3828 555.906 64.3828C558.25 64.3828 560.008 63.1875 560.008 61.3359C560.008 59.6953 558.438 59.0625 556.656 58.5469L554.57 57.9844C551.898 57.2109 550.258 55.8516 550.258 53.5547C550.258 50.6953 552.812 48.7969 556.094 48.7969C559.375 48.7969 561.742 50.7188 561.836 53.2969H559.773ZM565.094 66V49.0312H567.203V64.125H575.078V66H565.094ZM600.156 47.0859V59.6016H598.305V56.7891H592.773V55.2656H598.305V52.4531H592.984C591.613 55.8047 588.391 58.2305 583.938 59.5547L583.164 58.1016C588.203 56.6016 591.332 53.7891 591.719 50.1797H584.219V48.6328H593.711C593.711 49.4531 593.617 50.2383 593.453 50.9766H598.305V47.0859H600.156ZM593.336 59.8125C597.555 59.8125 600.273 61.3125 600.273 63.7969C600.273 66.3047 597.555 67.8047 593.336 67.8047C589.07 67.8047 586.375 66.3047 586.375 63.7969C586.375 61.3125 589.07 59.8125 593.336 59.8125ZM593.336 61.2891C590.195 61.2656 588.18 62.2266 588.18 63.7969C588.18 65.3672 590.195 66.3047 593.336 66.3047C596.43 66.3047 598.422 65.3672 598.445 63.7969C598.422 62.2266 596.43 61.2656 593.336 61.2891ZM620.898 47.0625V59.6953H619.047V54.9375H615.508V53.4141H619.047V47.0625H620.898ZM620.898 60.8203V67.6172H607.281V60.8203H620.898ZM609.109 62.2969V66.1172H619.094V62.2969H609.109ZM615.812 49.2656V50.7656H603.648V49.2656H608.828V46.875H610.633V49.2656H615.812ZM609.719 51.8438C612.555 51.8438 614.547 53.3672 614.57 55.5469C614.547 57.7969 612.555 59.2734 609.719 59.2734C606.883 59.2734 604.891 57.7969 604.891 55.5469C604.891 53.3672 606.883 51.8438 609.719 51.8438ZM609.719 53.2734C607.914 53.2734 606.648 54.2109 606.648 55.5469C606.648 56.9297 607.914 57.8438 609.719 57.8672C611.523 57.8438 612.789 56.9297 612.789 55.5469C612.789 54.2109 611.523 53.2734 609.719 53.2734ZM237.906 99.6406C236.594 99.6406 235.516 98.5625 235.516 97.2266C235.516 95.9141 236.594 94.8359 237.906 94.8359C239.242 94.8359 240.32 95.9141 240.32 97.2266C240.32 98.5625 239.242 99.6406 237.906 99.6406ZM262.422 86.6797C265.492 86.7031 267.672 89.5156 267.695 93.9453C267.672 98.375 265.492 101.188 262.422 101.188C259.328 101.188 257.172 98.375 257.172 93.9453C257.172 89.5156 259.328 86.7031 262.422 86.6797ZM262.422 88.3203C260.359 88.3438 258.906 90.5469 258.906 93.9453C258.906 97.3438 260.359 99.5469 262.422 99.5469C264.508 99.5469 265.914 97.3438 265.914 93.9453C265.914 90.5469 264.508 88.3438 262.422 88.3203ZM272.969 85.0625V93.3828H276.461V94.9766H272.969V105.898H271.141V85.0625H272.969ZM296.594 95.375V96.8516H277.586V95.375H286.188V92.9375H280V86.0469H294.227V87.5234H281.805V91.4375H294.367V92.9375H287.969V95.375H296.594ZM287.078 98.375C291.555 98.375 294.227 99.7344 294.25 102.125C294.227 104.539 291.555 105.875 287.078 105.898C282.578 105.875 279.883 104.539 279.883 102.125C279.883 99.7344 282.578 98.375 287.078 98.375ZM287.078 99.8281C283.727 99.8281 281.734 100.695 281.758 102.125C281.734 103.578 283.727 104.422 287.078 104.422C290.383 104.422 292.398 103.578 292.398 102.125C292.398 100.695 290.383 99.8281 287.078 99.8281ZM311.523 88.3438C311.5 91.3203 313.609 93.9453 316.68 94.9766L315.648 96.4062C313.352 95.5391 311.547 93.8516 310.656 91.6484C309.754 94.1445 307.844 96.0898 305.336 97.0391L304.328 95.5391C307.539 94.4141 309.672 91.6484 309.695 88.4141V86.2578H311.523V88.3438ZM321.625 85.0625V97.4141H319.773V91.0625H315.133V89.5391H319.773V85.0625H321.625ZM314.711 98.0234C319.047 98.0234 321.695 99.4531 321.695 101.961C321.695 104.445 319.047 105.852 314.711 105.852C310.375 105.852 307.727 104.445 307.727 101.961C307.727 99.4531 310.375 98.0234 314.711 98.0234ZM314.711 99.4766C311.523 99.4766 309.531 100.414 309.555 101.961C309.531 103.461 311.523 104.375 314.711 104.375C317.898 104.375 319.867 103.461 319.867 101.961C319.867 100.414 317.898 99.4766 314.711 99.4766ZM332.148 89.0234C332.148 91.7422 334.188 94.1797 337.258 95.1875L336.391 96.6406C333.988 95.8555 332.172 94.1914 331.281 92.0938C330.379 94.4844 328.457 96.3477 325.961 97.25L325.023 95.7734C328.141 94.7188 330.32 92.0234 330.344 89.0234V88.1328H325.586V86.6094H336.836V88.1328H332.148V89.0234ZM341.383 85.0625V90.3828H344.523V91.9297H341.383V97.6484H339.555V85.0625H341.383ZM334.703 98.2109C338.992 98.2109 341.57 99.6172 341.57 102.008C341.57 104.445 338.992 105.852 334.703 105.852C330.414 105.852 327.789 104.445 327.789 102.008C327.789 99.6172 330.414 98.2109 334.703 98.2109ZM334.703 99.6875C331.562 99.6875 329.617 100.555 329.641 102.008C329.617 103.508 331.562 104.375 334.703 104.375C337.867 104.375 339.789 103.508 339.789 102.008C339.789 100.555 337.867 99.6875 334.703 99.6875ZM370.844 94.8125V96.3359H362.242V98.5625C366.18 98.7266 368.5 100.016 368.523 102.219C368.5 104.539 365.828 105.852 361.352 105.852C356.828 105.852 354.156 104.539 354.156 102.219C354.156 100.016 356.465 98.7266 360.438 98.5625V96.3359H351.859V94.8125H370.844ZM361.352 99.9688C358 99.9922 356.008 100.812 356.031 102.219C356.008 103.602 358 104.422 361.352 104.422C364.656 104.422 366.672 103.602 366.672 102.219C366.672 100.812 364.656 99.9922 361.352 99.9688ZM369.156 86.0469V87.5469H362.547C362.664 89.8906 366.109 91.707 369.789 92.0938L369.109 93.5469C365.699 93.1367 362.5 91.6133 361.352 89.2812C360.215 91.6133 357.027 93.1367 353.594 93.5469L352.938 92.0938C356.547 91.707 360.016 89.8906 360.156 87.5469H353.594V86.0469H369.156ZM389.805 85.0859V96.9219H387.977V85.0859H389.805ZM389.805 98.1172V105.617H376.258V98.1172H389.805ZM378.062 99.6172V104.117H388V99.6172H378.062ZM379.984 87.9453C379.961 90.8984 382.211 93.5 385.281 94.5781L384.344 95.9844C381.93 95.1523 380.008 93.3945 379.07 91.1094C378.145 93.5469 376.199 95.4688 373.703 96.3828L372.766 94.9297C375.93 93.8281 378.109 91.0156 378.109 87.9453V85.9062H379.984V87.9453ZM400.164 86.5859C403.445 86.5859 405.766 88.5781 405.766 91.4844C405.766 94.3906 403.445 96.3828 400.164 96.3828C396.883 96.3828 394.516 94.3906 394.539 91.4844C394.516 88.5781 396.883 86.5859 400.164 86.5859ZM400.164 88.2031C397.938 88.2031 396.32 89.5391 396.344 91.4844C396.32 93.4297 397.938 94.7656 400.164 94.7656C402.367 94.7656 403.961 93.4297 403.961 91.4844C403.961 89.5391 402.367 88.2031 400.164 88.2031ZM410.43 85.0625V105.945H408.602V85.0625H410.43ZM393.461 99.7812C397.305 99.7812 402.602 99.7578 407.219 99.0781L407.359 100.438C402.602 101.328 397.469 101.352 393.719 101.352L393.461 99.7812ZM436.844 87.1719V89.4922C436.844 92.1641 436.844 94.8594 436.094 98.7266L434.289 98.5156C435.039 94.8359 435.039 92.0938 435.039 89.4922V88.6953H422.102V87.1719H436.844ZM439.094 101.422V102.945H420.109V101.422H424.82V94.5547H426.648V101.422H430.023V94.5547H431.828V101.422H439.094ZM459.836 95.1172V96.6172H454.773V99.2656H457.492V105.898H455.641V100.742H442.961V99.2656H445.891V96.6172H440.852V95.1172H459.836ZM450.344 85.5781C454.867 85.5547 457.703 87.0547 457.703 89.5391C457.703 92.0469 454.867 93.5469 450.344 93.5234C445.82 93.5469 442.961 92.0469 442.961 89.5391C442.961 87.0547 445.82 85.5547 450.344 85.5781ZM450.344 87.0547C446.969 87.0312 444.836 87.9922 444.859 89.5391C444.836 91.1328 446.969 92.0938 450.344 92.0938C453.672 92.0938 455.828 91.1328 455.828 89.5391C455.828 87.9922 453.672 87.0312 450.344 87.0547ZM447.742 99.2656H452.969V96.6172H447.742V99.2656ZM474.719 89.1641C474.719 91.4609 477.062 93.4531 480.156 94.1797L479.312 95.5859C476.816 94.9766 474.812 93.582 473.875 91.6953C472.938 93.7461 470.934 95.293 468.391 96.0078L467.547 94.5781C470.641 93.7344 472.914 91.625 472.914 89.1641V88.6719H468.203V87.1719H472.914V84.9688H474.766V87.1719H479.43V88.6719H474.719V89.1641ZM484.867 85.0625V96.0078H483.039V91.7656H478.797V90.2656H483.039V85.0625H484.867ZM484.867 97.0156V101.938H473.242V104.188H485.664V105.664H471.414V100.531H483.039V98.4688H471.367V97.0156H484.867ZM500.828 87.3125V88.8125H488.406V87.3125H493.703V84.9688H495.531V87.3125H500.828ZM494.617 89.8906C497.617 89.9141 499.609 91.3672 499.633 93.6641C499.609 95.9375 497.617 97.4141 494.617 97.4141C491.617 97.4141 489.578 95.9375 489.602 93.6641C489.578 91.3672 491.617 89.9141 494.617 89.8906ZM494.617 91.3203C492.648 91.3438 491.336 92.2578 491.359 93.6641C491.336 95.0469 492.648 95.9375 494.617 95.9375C496.562 95.9375 497.875 95.0469 497.898 93.6641C497.875 92.2578 496.562 91.3438 494.617 91.3203ZM504.648 85.0625V90.8516H507.789V92.3984H504.648V98.0938H502.82V85.0625H504.648ZM504.648 99.2422V105.898H502.82V100.742H491.008V99.2422H504.648ZM520.656 87.3828V88.4609C520.633 90.1016 520.633 92.8672 520.047 96.7344L518.195 96.5703C518.758 93.0781 518.805 90.5469 518.805 88.8828H510.062V87.3828H520.656ZM515.195 93.3359V99.6641C517.504 99.582 519.871 99.4297 522.039 99.1719L522.133 100.555C517.75 101.234 512.852 101.328 509.125 101.305L508.891 99.7812C510.262 99.7695 511.785 99.7578 513.391 99.7109V93.3359H515.195ZM525.18 85.0625V93.7812H528.555V95.375H525.18V105.898H523.352V85.0625H525.18ZM542.031 89.5859C542.031 92.0469 543.672 94.4609 546.32 95.4219L545.43 96.8516C543.391 96.043 541.949 94.4844 541.211 92.5859C540.484 94.6484 539.02 96.3477 536.945 97.2266L536.031 95.8438C538.68 94.7422 540.273 92.2344 540.297 89.5859V89.3281H536.453V87.8281H540.297V85.3203H542.031V87.8281H545.805V89.3281H542.031V89.5859ZM553.562 85.0859V97.8359H551.805V92.1875H549.086V97.7422H547.305V85.4609H549.086V90.6641H551.805V85.0859H553.562ZM553.562 98.9609V105.898H551.758V100.461H539.523V98.9609H553.562ZM573.812 85.0859V96.9922H571.984V85.0859H573.812ZM573.812 98.1172V105.617H560.266V98.1172H573.812ZM562.07 99.6172V104.117H572.008V99.6172H562.07ZM562.562 86.1875C565.727 86.1875 568.023 88.1562 568.023 91.0625C568.023 93.9219 565.727 95.9141 562.562 95.9141C559.398 95.9141 557.102 93.9219 557.102 91.0625C557.102 88.1562 559.398 86.1875 562.562 86.1875ZM562.562 87.7578C560.43 87.7344 558.883 89.1172 558.906 91.0625C558.883 92.9844 560.43 94.3438 562.562 94.3438C564.672 94.3438 566.219 92.9844 566.219 91.0625C566.219 89.1172 564.672 87.7344 562.562 87.7578ZM593.641 85.0625V90.1719H596.781V91.6953H593.641V96.8984H591.812V85.0625H593.641ZM587.945 86.4219C587.922 91.6719 584.242 95.4219 578.078 97.1094L577.328 95.6328C582.461 94.25 585.59 91.4727 585.977 87.9453H578.266V86.4219H587.945ZM593.641 97.8594V105.617H580.445V97.8594H593.641ZM582.273 99.3828V104.117H591.812V99.3828H582.273ZM237.906 137.641C236.594 137.641 235.516 136.562 235.516 135.227C235.516 133.914 236.594 132.836 237.906 132.836C239.242 132.836 240.32 133.914 240.32 135.227C240.32 136.562 239.242 137.641 237.906 137.641ZM274.047 123.086V138.367H272.219V123.086H274.047ZM274.703 141.906V143.453H260.594V136.961H262.422V141.906H274.703ZM264.227 126.344C264.203 129.508 266.383 132.367 269.477 133.492L268.516 134.969C266.102 134.043 264.227 132.168 263.312 129.766C262.387 132.32 260.488 134.371 258.062 135.344L257.055 133.914C260.219 132.695 262.352 129.625 262.352 126.344V124.258H264.227V126.344ZM289.727 125.008V130.492H281.078V133.141H290.312V134.617H285.484V138.109C287.512 138.027 289.539 137.887 291.461 137.664L291.602 139.047C286.984 139.75 281.945 139.844 277.961 139.82L277.703 138.25C279.531 138.25 281.559 138.238 283.656 138.18V134.617H279.25V129.109H287.922V126.508H279.203V125.008H289.727ZM294.672 123.062V143.945H292.844V123.062H294.672ZM314.617 122.992V128.055H317.781V129.578H314.617V134.523H312.789V122.992H314.617ZM314.617 135.602V140.219H303.18V142.258H315.391V143.664H301.375V138.859H312.789V136.984H301.328V135.602H314.617ZM310.797 124.961V126.438H298.375V124.961H303.672V122.852H305.5V124.961H310.797ZM304.586 127.375C307.609 127.375 309.578 128.688 309.602 130.797C309.578 132.906 307.609 134.219 304.586 134.219C301.539 134.219 299.547 132.906 299.57 130.797C299.547 128.688 301.539 127.375 304.586 127.375ZM304.586 128.734C302.617 128.734 301.305 129.555 301.328 130.797C301.305 132.062 302.617 132.836 304.586 132.836C306.555 132.836 307.844 132.062 307.867 130.797C307.844 129.555 306.555 128.734 304.586 128.734ZM335.547 125.008C335.547 127.938 339.391 130.492 343.141 131.008L342.391 132.508C339.156 131.969 335.957 130.176 334.609 127.609C333.273 130.188 330.062 131.969 326.828 132.508L326.078 131.008C329.828 130.492 333.648 127.984 333.648 125.008V123.812H335.547V125.008ZM344.078 134.805V136.352H335.453V143.898H333.648V136.352H325.094V134.805H344.078ZM358.914 137.055C358.914 138.895 359.898 140.852 361.891 141.977C363.859 140.746 364.914 138.672 364.914 137.055V135.906H366.719V137.055C366.719 139.188 368.289 141.344 370.961 142.258L370.047 143.617C367.961 142.879 366.496 141.426 365.781 139.68C365.137 141.367 363.859 142.961 361.938 143.781C359.91 143.008 358.621 141.473 358 139.727C357.262 141.414 355.82 142.867 353.828 143.617L352.891 142.258C355.516 141.273 357.109 139.047 357.133 137.055V135.906H358.914V137.055ZM369.062 123.086V134.992H367.234V123.086H369.062ZM357.812 124.305C360.977 124.305 363.273 126.273 363.273 129.18C363.273 132.039 360.977 134.008 357.812 134.008C354.648 134.008 352.352 132.039 352.352 129.18C352.352 126.273 354.648 124.305 357.812 124.305ZM357.812 125.875C355.68 125.852 354.133 127.234 354.156 129.18C354.133 131.102 355.68 132.461 357.812 132.484C359.922 132.461 361.469 131.102 361.469 129.18C361.469 127.234 359.922 125.852 357.812 125.875ZM389.453 129.391V130.867H375.18V123.836H377.008V129.391H389.453ZM391.656 133.703V135.203H372.578V133.703H391.656ZM389.57 141.859V143.383H375.062V137.336H376.891V141.859H389.57ZM416.102 125.172V127.492C416.102 130.164 416.102 132.859 415.352 136.727L413.547 136.516C414.297 132.836 414.297 130.094 414.297 127.492V126.695H401.359V125.172H416.102ZM418.352 139.422V140.945H399.367V139.422H404.078V132.555H405.906V139.422H409.281V132.555H411.086V139.422H418.352ZM439.094 133.117V134.617H434.031V137.266H436.75V143.898H434.898V138.742H422.219V137.266H425.148V134.617H420.109V133.117H439.094ZM429.602 123.578C434.125 123.555 436.961 125.055 436.961 127.539C436.961 130.047 434.125 131.547 429.602 131.523C425.078 131.547 422.219 130.047 422.219 127.539C422.219 125.055 425.078 123.555 429.602 123.578ZM429.602 125.055C426.227 125.031 424.094 125.992 424.117 127.539C424.094 129.133 426.227 130.094 429.602 130.094C432.93 130.094 435.086 129.133 435.086 127.539C435.086 125.992 432.93 125.031 429.602 125.055ZM427 137.266H432.227V134.617H427V137.266ZM449.406 125.055V130.141H453.93V125.055H455.641V138.695H447.648V125.055H449.406ZM449.406 137.172H453.93V131.641H449.406V137.172ZM464.734 123.062V143.898H462.953V132.859H460.047V142.844H458.289V123.508H460.047V131.336H462.953V123.062H464.734ZM484.891 123.086V135.602H483.039V132.789H477.508V131.266H483.039V128.453H477.719C476.348 131.805 473.125 134.23 468.672 135.555L467.898 134.102C472.938 132.602 476.066 129.789 476.453 126.18H468.953V124.633H478.445C478.445 125.453 478.352 126.238 478.188 126.977H483.039V123.086H484.891ZM478.07 135.812C482.289 135.812 485.008 137.312 485.008 139.797C485.008 142.305 482.289 143.805 478.07 143.805C473.805 143.805 471.109 142.305 471.109 139.797C471.109 137.312 473.805 135.812 478.07 135.812ZM478.07 137.289C474.93 137.266 472.914 138.227 472.914 139.797C472.914 141.367 474.93 142.305 478.07 142.305C481.164 142.305 483.156 141.367 483.18 139.797C483.156 138.227 481.164 137.266 478.07 137.289ZM499.914 125.383V126.461C499.891 128.102 499.891 130.867 499.305 134.734L497.453 134.57C498.016 131.078 498.062 128.547 498.062 126.883H489.32V125.383H499.914ZM494.453 131.336V137.664C496.762 137.582 499.129 137.43 501.297 137.172L501.391 138.555C497.008 139.234 492.109 139.328 488.383 139.305L488.148 137.781C489.52 137.77 491.043 137.758 492.648 137.711V131.336H494.453ZM504.438 123.062V131.781H507.812V133.375H504.438V143.898H502.609V123.062H504.438ZM531.859 125.172V127.492C531.859 130.164 531.859 132.859 531.109 136.727L529.305 136.516C530.055 132.836 530.055 130.094 530.055 127.492V126.695H517.117V125.172H531.859ZM534.109 139.422V140.945H515.125V139.422H519.836V132.555H521.664V139.422H525.039V132.555H526.844V139.422H534.109ZM540.109 135.578V138.016H550.516V135.578H552.367V143.617H538.281V135.578H540.109ZM540.109 142.141H550.516V139.469H540.109V142.141ZM554.852 132.578V134.102H535.867V132.578H554.852ZM546.32 124.281C546.32 126.859 550.117 129.156 553.773 129.625L553.094 131.102C549.859 130.621 546.695 128.969 545.383 126.625C544.047 128.98 540.859 130.621 537.648 131.102L536.945 129.625C540.648 129.133 544.422 126.93 544.422 124.281V123.297H546.32V124.281ZM579.906 136.492V143.898H578.055V137.969H565.891V136.492H579.906ZM579.906 123.062V135.344H578.055V132.344H572.688C571.715 133.527 570.18 134.23 568.375 134.219C565.258 134.242 562.961 132.18 562.961 129.227C562.961 126.32 565.258 124.258 568.375 124.258C570.168 124.258 571.703 124.961 572.688 126.133H578.055V123.062H579.906ZM568.375 125.828C566.242 125.828 564.719 127.258 564.719 129.227C564.719 131.266 566.242 132.672 568.375 132.672C570.414 132.672 571.984 131.266 571.984 129.227C571.984 127.258 570.414 125.828 568.375 125.828ZM573.508 130.82H578.055V127.656H573.508C573.672 128.148 573.766 128.664 573.766 129.227C573.766 129.789 573.672 130.328 573.508 130.82ZM602.828 126.344V127.891H599.664V130.727H602.828V132.297H599.664V135.695H597.836V123.086H599.664V126.344H602.828ZM593.711 124.375V130H586.117V132.906C589.82 132.906 592.504 132.777 595.75 132.227L595.938 133.773C592.586 134.336 589.797 134.453 585.93 134.453H584.312V128.547H591.906V125.898H584.266V124.375H593.711ZM592.984 136.305C597.227 136.305 599.852 137.711 599.852 140.102C599.852 142.492 597.227 143.852 592.984 143.852C588.672 143.852 586.07 142.492 586.07 140.102C586.07 137.711 588.672 136.305 592.984 136.305ZM592.984 137.758C589.797 137.758 587.852 138.625 587.875 140.102C587.852 141.555 589.797 142.422 592.984 142.422C596.148 142.422 598.07 141.555 598.07 140.102C598.07 138.625 596.148 137.758 592.984 137.758Z" fill="black"/>
<path d="M206 29L206 161" stroke="url(#paint1_linear_469_1759)" stroke-width="2"/>
<path d="M73.0786 129.288C73.0786 131.983 74.6958 134.611 77.8403 135.689L76.4702 137.644C74.2803 136.812 72.708 135.229 71.8657 133.241C70.9785 135.465 69.3276 137.228 66.9468 138.115L65.6216 136.139C68.8784 135.038 70.5405 132.23 70.563 129.266V126.952H73.0786V129.288ZM82.6919 125.717V140.788H80.1987V132.23H76.1558V130.187H80.1987V125.717H82.6919ZM83.1411 143.573V145.595H69.3052V139.148H71.8433V143.573H83.1411ZM88.7339 126.593V129.176H93.4731V126.593H95.9438V135.442H86.2632V126.593H88.7339ZM88.7339 133.466H93.4731V131.062H88.7339V133.466ZM101.582 125.694V129.805H104.412V131.826H101.582V136.094H99.0884V125.694H101.582ZM101.582 136.902V142.226H90.8003V143.843H102.21V145.819H88.3296V140.406H99.0884V138.856H88.3071V136.902H101.582ZM127.861 125.694V145.999H125.345V125.694H127.861ZM121.796 127.851C121.796 133.893 119.46 139.036 112.34 142.405L111.038 140.406C116.35 137.879 118.82 134.443 119.258 129.827H112.071V127.851H121.796ZM147.626 126.615V128.614H141.742C141.966 130.523 144.448 132.343 148.368 132.814L147.424 134.791C143.786 134.353 141.102 132.747 140.012 130.546C138.923 132.736 136.261 134.353 132.623 134.791L131.702 132.814C135.621 132.343 138.069 130.523 138.305 128.614H132.465V126.615H147.626ZM149.311 135.914V137.936H141.472V141.642H139.001V137.936H130.758V135.914H149.311ZM147.267 143.573V145.595H133.004V139.777H135.498V143.573H147.267Z" fill="black"/>
<circle cx="107.227" cy="72.227" r="35.227" fill="#CCE0FF"/>
<g filter="url(#filter0_i_469_1759)">
<circle cx="107.227" cy="72.2271" r="33.1446" fill="#CCE0FF"/>
</g>
<g filter="url(#filter1_d_469_1759)">
<path d="M116.087 62.3562C117.646 60.7979 120.172 60.7979 121.731 62.3562C123.29 63.9149 123.29 66.4421 121.731 68.0008L107.281 82.4519C105.908 83.825 103.783 83.9882 102.231 82.9422C101.992 82.7894 101.766 82.6097 101.557 82.4012L93.1918 74.0359C91.6333 72.4773 91.6333 69.95 93.1918 68.3914C94.7504 66.8328 97.2777 66.8329 98.8364 68.3914L104.444 73.9988L116.087 62.3562Z" fill="#69A4FF"/>
</g>
<defs>
<filter id="filter0_i_469_1759" x="74.0825" y="39.0825" width="70.2891" height="69.2891" filterUnits="userSpaceOnUse" color-interpolation-filters="sRGB">
<feFlood flood-opacity="0" result="BackgroundImageFix"/>
<feBlend mode="normal" in="SourceGraphic" in2="BackgroundImageFix" result="shape"/>
<feColorMatrix in="SourceAlpha" type="matrix" values="0 0 0 0 0 0 0 0 0 0 0 0 0 0 0 0 0 0 127 0" result="hardAlpha"/>
<feOffset dx="4" dy="3"/>
<feGaussianBlur stdDeviation="3.5"/>
<feComposite in2="hardAlpha" operator="arithmetic" k2="-1" k3="1"/>
<feColorMatrix type="matrix" values="0 0 0 0 1 0 0 0 0 1 0 0 0 0 1 0 0 0 0.3 0"/>
<feBlend mode="normal" in2="shape" result="effect1_innerShadow_469_1759"/>
</filter>
<filter id="filter1_d_469_1759" x="85.0229" y="55.1875" width="50.877" height="42.4331" filterUnits="userSpaceOnUse" color-interpolation-filters="sRGB">
<feFlood flood-opacity="0" result="BackgroundImageFix"/>
<feColorMatrix in="SourceAlpha" type="matrix" values="0 0 0 0 0 0 0 0 0 0 0 0 0 0 0 0 0 0 127 0" result="hardAlpha"/>
<feOffset dx="3" dy="4"/>
<feGaussianBlur stdDeviation="5"/>
<feComposite in2="hardAlpha" operator="out"/>
<feColorMatrix type="matrix" values="0 0 0 0 0.411765 0 0 0 0 0.643137 0 0 0 0 1 0 0 0 0.6 0"/>
<feBlend mode="normal" in2="BackgroundImageFix" result="effect1_dropShadow_469_1759"/>
<feBlend mode="normal" in="SourceGraphic" in2="effect1_dropShadow_469_1759" result="shape"/>
</filter>
<linearGradient id="paint0_linear_469_1759" x1="-0.691317" y1="94" x2="1064.03" y2="93.9999" gradientUnits="userSpaceOnUse">
<stop stop-color="#3182F6"/>
<stop offset="1" stop-color="#A009FF"/>
</linearGradient>
<linearGradient id="paint1_linear_469_1759" x1="205.999" y1="95" x2="207.391" y2="95" gradientUnits="userSpaceOnUse">
<stop stop-color="#3182F6"/>
<stop offset="1" stop-color="#A009FF"/>
</linearGradient>
</defs>
</svg>
