<svg width="1078" height="188" viewBox="0 0 1078 188" fill="none" xmlns="http://www.w3.org/2000/svg">
<rect x="2" y="2" width="1074" height="184" rx="13" fill="white" stroke="url(#paint0_linear_469_1606)" stroke-width="4"/>
<path d="M407.922 66.3672C406.828 66.3672 405.93 65.4688 405.93 64.3555C405.93 63.2617 406.828 62.3633 407.922 62.3633C409.035 62.3633 409.934 63.2617 409.934 64.3555C409.934 65.4688 409.035 66.3672 407.922 66.3672ZM424.562 70V55.8594H433.137V57.4219H426.32V62.1484H432.688V63.6914H426.32V68.4375H433.234V70H424.562ZM436.965 59.3945L439.465 63.7109L441.984 59.3945H443.918L440.5 64.6875L443.918 70H442.004L439.465 65.8984L436.965 70H435.031L438.371 64.6875L435.031 59.3945H436.965ZM449.836 70.2148C446.828 70.2148 444.992 67.9297 444.992 64.7461C444.992 61.5234 446.906 59.2578 449.797 59.2578C452.062 59.2578 453.742 60.5859 454.016 62.5977H452.336C452.102 61.6211 451.242 60.7422 449.836 60.7422C447.941 60.7422 446.672 62.3047 446.672 64.6875C446.672 67.1484 447.902 68.7109 449.836 68.7109C451.086 68.7109 452.043 68.0469 452.336 66.875H454.016C453.742 68.7695 452.199 70.2148 449.836 70.2148ZM460.539 70.2148C457.473 70.2148 455.578 68.0469 455.578 64.7852C455.578 61.5234 457.492 59.2578 460.383 59.2578C462.609 59.2578 464.953 60.625 464.953 64.5508V65.2539H457.258C457.336 67.5 458.645 68.7305 460.539 68.7305C461.809 68.7305 462.609 68.1836 463 67.5195H464.797C464.289 69.1211 462.727 70.2148 460.539 70.2148ZM457.277 63.8281H463.254C463.254 62.0508 462.121 60.7422 460.383 60.7422C458.547 60.7422 457.375 62.1875 457.277 63.8281ZM468.82 55.8594V70H467.141V55.8594H468.82ZM473.176 55.8594V70H471.496V55.8594H473.176ZM480.305 70.2148C477.238 70.2148 475.344 68.0469 475.344 64.7852C475.344 61.5234 477.258 59.2578 480.148 59.2578C482.375 59.2578 484.719 60.625 484.719 64.5508V65.2539H477.023C477.102 67.5 478.41 68.7305 480.305 68.7305C481.574 68.7305 482.375 68.1836 482.766 67.5195H484.562C484.055 69.1211 482.492 70.2148 480.305 70.2148ZM477.043 63.8281H483.02C483.02 62.0508 481.887 60.7422 480.148 60.7422C478.312 60.7422 477.141 62.1875 477.043 63.8281ZM488.586 63.6328V70H486.906V59.3945H488.527V61.0547H488.664C489.172 59.9805 490.148 59.2578 491.77 59.2578C493.918 59.2578 495.344 60.5664 495.344 63.2617V70H493.664V63.3789C493.664 61.7383 492.766 60.7617 491.262 60.7617C489.719 60.7617 488.586 61.7969 488.586 63.6328ZM502.375 70.2148C499.367 70.2148 497.531 67.9297 497.531 64.7461C497.531 61.5234 499.445 59.2578 502.336 59.2578C504.602 59.2578 506.281 60.5859 506.555 62.5977H504.875C504.641 61.6211 503.781 60.7422 502.375 60.7422C500.48 60.7422 499.211 62.3047 499.211 64.6875C499.211 67.1484 500.441 68.7109 502.375 68.7109C503.625 68.7109 504.582 68.0469 504.875 66.875H506.555C506.281 68.7695 504.738 70.2148 502.375 70.2148ZM513.078 70.2148C510.012 70.2148 508.117 68.0469 508.117 64.7852C508.117 61.5234 510.031 59.2578 512.922 59.2578C515.148 59.2578 517.492 60.625 517.492 64.5508V65.2539H509.797C509.875 67.5 511.184 68.7305 513.078 68.7305C514.348 68.7305 515.148 68.1836 515.539 67.5195H517.336C516.828 69.1211 515.266 70.2148 513.078 70.2148ZM509.816 63.8281H515.793C515.793 62.0508 514.66 60.7422 512.922 60.7422C511.086 60.7422 509.914 62.1875 509.816 63.8281ZM530.773 63.1836V64.7266H524.582V63.1836H530.773ZM553.625 68.0664V69.3555H537.727V68.0664H544.875V63.8281H539.602V55.6836H551.652V63.8281H546.379V68.0664H553.625ZM541.105 56.9141V62.5977H550.168V56.9141H541.105ZM570.852 62.9883V64.2383H555.012V62.9883H570.852ZM569.035 59.8047V61.0742H557.023V54.9805H568.879V56.2305H558.547V59.8047H569.035ZM569.172 69.9023V71.1914H557.062V66.1133H558.586V69.9023H569.172ZM586.027 55.8398C586.027 58.2812 589.23 60.4102 592.355 60.8398L591.73 62.0898C589.035 61.6406 586.369 60.1465 585.246 58.0078C584.133 60.1562 581.457 61.6406 578.762 62.0898L578.137 60.8398C581.262 60.4102 584.445 58.3203 584.445 55.8398V54.8438H586.027V55.8398ZM593.137 64.0039V65.293H585.949V71.582H584.445V65.293H577.316V64.0039H593.137ZM599.387 55.0391C601.721 55.0195 603.488 56.377 603.82 58.3789H607.453V54.2188H608.996V63.5352H607.453V59.6484H603.84C603.527 61.6992 601.74 63.0664 599.387 63.0664C596.75 63.0664 594.875 61.4258 594.875 59.043C594.875 56.6797 596.75 55.0195 599.387 55.0391ZM599.387 56.3477C597.609 56.3281 596.34 57.4414 596.34 59.043C596.34 60.625 597.609 61.7773 599.387 61.7773C601.145 61.7773 602.395 60.625 602.395 59.043C602.395 57.4414 601.145 56.3281 599.387 56.3477ZM599.348 64.4141V66.6211H607.453V64.4141H608.996V71.3477H597.805V64.4141H599.348ZM599.348 70.0977H607.453V67.8516H599.348V70.0977ZM626.77 54.2188V71.582H625.285V54.2188H626.77ZM623.273 54.5898V70.7031H621.809V62.2656H619.582C619.416 65.6445 617.98 67.7539 615.832 67.7539C613.566 67.7539 612.102 65.4102 612.102 61.7188C612.102 58.0273 613.566 55.6836 615.832 55.6836C617.941 55.6836 619.367 57.7246 619.562 60.9961H621.809V54.5898H623.273ZM615.832 57.1289C614.426 57.1289 613.527 58.8867 613.547 61.7188C613.527 64.5312 614.426 66.3086 615.832 66.2891C617.238 66.3086 618.137 64.5312 618.137 61.7188C618.137 58.8867 617.238 57.1289 615.832 57.1289ZM635.285 58.8867C635.285 62.0312 637.297 65.1953 639.816 66.3477L638.898 67.5977C636.926 66.582 635.295 64.502 634.523 62.0312C633.752 64.6289 632.121 66.8555 630.148 67.9102L629.152 66.6797C631.691 65.4297 633.723 62.0898 633.723 58.8867V55.7227H635.285V58.8867ZM643.566 54.2188V71.6211H642.043V61.4062H637.922V60.1562H642.043V54.2188H643.566ZM665.539 58.7109V59.9414H660.148V62.1484H667.297V63.418H651.477V62.1484H658.625V59.9414H653.645V54.6094H655.168V58.7109H665.539ZM665.559 65.1562V66.3867H662.863V70.0977H665.695V71.3477H653.098V70.0977H655.93V66.3867H653.254V65.1562H665.559ZM657.453 70.0977H661.359V66.3867H657.453V70.0977ZM684.582 63.3789V64.6289H668.762V63.3789H684.582ZM682.824 69.9219V71.2109H670.812V66.1523H672.355V69.9219H682.824ZM676.672 54.8438C680.402 54.8242 682.805 56.1133 682.805 58.2812C682.805 60.4492 680.402 61.7383 676.672 61.7383C672.902 61.7383 670.52 60.4492 670.52 58.2812C670.52 56.1133 672.902 54.8242 676.672 54.8438ZM676.672 56.0742C673.879 56.0742 672.082 56.9141 672.102 58.2812C672.082 59.6484 673.879 60.4883 676.672 60.4883C679.445 60.4883 681.242 59.6484 681.242 58.2812C681.242 56.9141 679.445 56.0742 676.672 56.0742ZM705.012 55.9766V57.9102C705.012 60.1367 705.012 62.3828 704.387 65.6055L702.883 65.4297C703.508 62.3633 703.508 60.0781 703.508 57.9102V57.2461H692.727V55.9766H705.012ZM706.887 67.8516V69.1211H691.066V67.8516H694.992V62.1289H696.516V67.8516H699.328V62.1289H700.832V67.8516H706.887ZM724.172 62.5977V63.8477H719.953V66.0547H722.219V71.582H720.676V67.2852H710.109V66.0547H712.551V63.8477H708.352V62.5977H724.172ZM716.262 54.6484C720.031 54.6289 722.395 55.8789 722.395 57.9492C722.395 60.0391 720.031 61.2891 716.262 61.2695C712.492 61.2891 710.109 60.0391 710.109 57.9492C710.109 55.8789 712.492 54.6289 716.262 54.6484ZM716.262 55.8789C713.449 55.8594 711.672 56.6602 711.691 57.9492C711.672 59.2773 713.449 60.0781 716.262 60.0781C719.035 60.0781 720.832 59.2773 720.832 57.9492C720.832 56.6602 719.035 55.8594 716.262 55.8789ZM714.094 66.0547H718.449V63.8477H714.094V66.0547ZM745.012 54.2188V71.582H743.469V54.2188H745.012ZM739.875 56.1133C739.855 61.1133 737.531 65.5273 731.711 68.3203L730.871 67.0703C735.568 64.8438 737.961 61.5137 738.312 57.3633H731.672V56.1133H739.875ZM756.848 56.3867C756.828 58.5156 759.758 60.2539 762.824 60.6836L762.219 61.8945C759.416 61.4941 756.799 60.0879 755.852 58.0469C754.914 60.0879 752.307 61.4941 749.484 61.8945L748.918 60.6836C751.984 60.2539 754.855 58.5156 754.855 56.3867V56.3477H749.387V55.0977H762.355V56.3477H756.848V56.3867ZM763.82 63.1641V64.4336H756.75V67.9883H755.227V64.4336H747.922V63.1641H763.82ZM762.043 69.9219V71.2109H749.953V66.25H751.496V69.9219H762.043ZM786.125 64.1211V65.3906H781.926V71.582H780.383V65.3906H775.93V71.582H774.348V65.3906H770.227V64.1211H786.125ZM778.137 54.9219C781.789 54.9219 784.25 56.3867 784.25 58.7109C784.25 61.0156 781.789 62.4805 778.137 62.4609C774.484 62.4805 772.023 61.0156 772.023 58.7109C772.023 56.3867 774.484 54.9219 778.137 54.9219ZM778.137 56.1719C775.422 56.1719 773.586 57.168 773.605 58.7109C773.586 60.2539 775.422 61.2305 778.137 61.2305C780.832 61.2305 782.688 60.2539 782.688 58.7109C782.688 57.168 780.832 56.1719 778.137 56.1719ZM793.742 59.5508C793.742 62.5 795.891 65.4883 798.449 66.6016L797.59 67.8125C795.559 66.8848 793.801 64.8828 793 62.4805C792.18 65.0293 790.432 67.2461 788.449 68.2422L787.531 67.0312C790.012 65.8398 792.18 62.5586 792.199 59.5508V57.2852H788.098V56.0156H797.883V57.2852H793.742V59.5508ZM801.848 54.2188V71.582H800.305V54.2188H801.848ZM407.922 98.3672C406.828 98.3672 405.93 97.4688 405.93 96.3555C405.93 95.2617 406.828 94.3633 407.922 94.3633C409.035 94.3633 409.934 95.2617 409.934 96.3555C409.934 97.4688 409.035 98.3672 407.922 98.3672ZM433.82 87.8594H435.578V97.2148C435.578 100.125 433.41 102.254 430.07 102.254C426.73 102.254 424.562 100.125 424.562 97.2148V87.8594H426.32V97.0781C426.32 99.1289 427.746 100.613 430.07 100.613C432.414 100.613 433.82 99.1289 433.82 97.0781V87.8594ZM440.168 95.6328V102H438.488V91.3945H440.109V93.0547H440.246C440.754 91.9805 441.73 91.2578 443.352 91.2578C445.5 91.2578 446.926 92.5664 446.926 95.2617V102H445.246V95.3789C445.246 93.7383 444.348 92.7617 442.844 92.7617C441.301 92.7617 440.168 93.7969 440.168 95.6328ZM449.621 102V91.3945H451.301V102H449.621ZM450.461 89.6367C449.816 89.6367 449.289 89.1484 449.289 88.5234C449.289 87.8984 449.816 87.4102 450.461 87.4102C451.105 87.4102 451.652 87.8984 451.652 88.5234C451.652 89.1484 451.105 89.6367 450.461 89.6367ZM458.723 91.3945V92.8008H456.379V102H454.68V92.8008H452.98V91.3945H454.68V89.9492C454.68 88.2305 455.832 87.1953 457.707 87.1953C458.117 87.1953 458.605 87.2539 458.957 87.3125V88.8164C458.605 88.7578 458.293 88.7383 458.078 88.7383C456.906 88.7383 456.379 89.2266 456.379 90.3203V91.3945H458.723ZM464.602 102.215C461.711 102.215 459.758 100.047 459.758 96.7461C459.758 93.4453 461.711 91.2578 464.602 91.2578C467.473 91.2578 469.406 93.4453 469.406 96.7461C469.406 100.047 467.473 102.215 464.602 102.215ZM464.602 100.73C466.73 100.73 467.727 98.8555 467.727 96.7461C467.727 94.6367 466.73 92.7422 464.602 92.7422C462.434 92.7422 461.438 94.6367 461.438 96.7461C461.438 98.8555 462.434 100.73 464.602 100.73ZM471.613 102V91.3945H473.234V93.0156H473.352C473.742 91.9414 474.836 91.2188 476.086 91.2188C476.34 91.2188 476.77 91.2383 476.965 91.2578V92.957C476.848 92.918 476.379 92.8398 475.949 92.8398C474.426 92.8398 473.293 93.8945 473.293 95.3203V102H471.613ZM478.605 102V91.3945H480.227V93.0547H480.363C480.812 91.9219 481.828 91.2578 483.215 91.2578C484.602 91.2578 485.539 91.9219 486.047 93.0547H486.164C486.711 91.9609 487.824 91.2578 489.348 91.2578C491.242 91.2578 492.59 92.4102 492.59 94.9102V102H490.91V94.9297C490.91 93.3672 489.914 92.7617 488.762 92.7617C487.277 92.7617 486.438 93.7578 486.438 95.1055V102H484.738V94.7539C484.738 93.5625 483.879 92.7617 482.668 92.7617C481.398 92.7617 480.285 93.8359 480.285 95.3789V102H478.605ZM495.285 102V91.3945H496.965V102H495.285ZM496.125 89.6367C495.48 89.6367 494.953 89.1484 494.953 88.5234C494.953 87.8984 495.48 87.4102 496.125 87.4102C496.77 87.4102 497.316 87.8984 497.316 88.5234C497.316 89.1484 496.77 89.6367 496.125 89.6367ZM504.27 91.3945V92.8008H502.043V98.9531C502.043 100.32 502.707 100.535 503.43 100.535C503.742 100.535 504.172 100.516 504.426 100.496V102.059C504.172 102.098 503.742 102.137 503.254 102.137C501.848 102.137 500.344 101.258 500.344 99.3828V92.8008H498.742V91.3945H500.344V88.8555H502.043V91.3945H504.27ZM507.512 105.984C507.141 105.984 506.789 105.965 506.574 105.945V104.441C506.75 104.461 507.141 104.48 507.395 104.48C508.078 104.48 508.645 104.422 509.211 102.879L509.523 102.078L505.598 91.3945H507.434L510.324 99.8125H510.441L513.332 91.3945H515.168L510.676 103.523C510.051 105.184 509.016 105.984 507.512 105.984ZM528.117 95.1836V96.7266H521.926V95.1836H528.117ZM548.645 86.2188V90.75H551.262V92.0195H548.645V96.6484H547.121V86.2188H548.645ZM543.918 87.5078C543.918 91.9219 540.793 95.1836 535.734 96.668L535.09 95.418C539.279 94.207 541.955 91.7949 542.277 88.7773H535.852V87.5078H543.918ZM543.156 96.8438C546.652 96.8438 548.84 98.1133 548.84 100.184C548.84 102.293 546.652 103.543 543.156 103.543C539.699 103.543 537.453 102.293 537.473 100.184C537.453 98.1133 539.699 96.8438 543.156 96.8438ZM543.156 98.0742C540.617 98.0547 538.977 98.875 538.996 100.184C538.977 101.492 540.617 102.312 543.156 102.312C545.715 102.312 547.355 101.492 547.355 100.184C547.355 98.875 545.715 98.0547 543.156 98.0742ZM558.176 90.8867C558.176 93.9531 560.207 97.0977 562.668 98.3086L561.73 99.5391C559.816 98.5332 558.215 96.4824 557.453 94.0703C556.672 96.6387 555.031 98.8262 553.078 99.8711L552.102 98.6406C554.641 97.3906 556.652 94.0508 556.672 90.8867V87.7227H558.176V90.8867ZM565.793 86.2188V93.2695H568.703V94.5977H565.793V103.582H564.27V86.2188H565.793ZM588.234 86.2188V91.5117H590.852V92.8008H588.234V98.9336H586.691V86.2188H588.234ZM583.547 87.5664C583.547 92.0391 580.344 95.3594 575.344 96.9219L574.68 95.6914C578.84 94.3926 581.555 91.9121 581.887 88.8555H575.402V87.5664H583.547ZM589.035 101.922V103.211H577.355V97.6445H578.879V101.922H589.035ZM605.676 87.8398C605.676 90.2812 608.879 92.4102 612.004 92.8398L611.379 94.0898C608.684 93.6406 606.018 92.1465 604.895 90.0078C603.781 92.1562 601.105 93.6406 598.41 94.0898L597.785 92.8398C600.91 92.4102 604.094 90.3203 604.094 87.8398V86.8438H605.676V87.8398ZM612.785 96.0039V97.293H605.598V103.582H604.094V97.293H596.965V96.0039H612.785ZM619.035 87.0391C621.369 87.0195 623.137 88.377 623.469 90.3789H627.102V86.2188H628.645V95.5352H627.102V91.6484H623.488C623.176 93.6992 621.389 95.0664 619.035 95.0664C616.398 95.0664 614.523 93.4258 614.523 91.043C614.523 88.6797 616.398 87.0195 619.035 87.0391ZM619.035 88.3477C617.258 88.3281 615.988 89.4414 615.988 91.043C615.988 92.625 617.258 93.7773 619.035 93.7773C620.793 93.7773 622.043 92.625 622.043 91.043C622.043 89.4414 620.793 88.3281 619.035 88.3477ZM618.996 96.4141V98.6211H627.102V96.4141H628.645V103.348H617.453V96.4141H618.996ZM618.996 102.098H627.102V99.8516H618.996V102.098ZM652.375 94.6172V95.8867H645.207V97.9375H650.441V103.348H638.488V97.9375H643.703V95.8867H636.555V94.6172H652.375ZM650.871 86.7852V88.0547H648.195V91.707H650.812V92.9766H638.098V91.707H640.715V88.0547H638.039V86.7852H650.871ZM640.012 99.1484V102.098H648.938V99.1484H640.012ZM642.238 91.707H646.672V88.0547H642.238V91.707ZM668.156 86.2188V95.2422H666.652V86.2188H668.156ZM668.176 96.082V100.223H658.43V102.156H668.801V103.387H656.926V99.0703H666.652V97.293H656.887V96.082H668.176ZM660.09 88.6797C660.09 90.9453 661.945 92.918 664.562 93.6992L663.801 94.8906C661.75 94.2461 660.119 92.8691 659.348 91.082C658.596 93.0352 656.936 94.5586 654.816 95.2617L654.094 94.0508C656.691 93.1914 658.547 91.0625 658.547 88.6797V88.4844H654.484V87.2148H664.094V88.4844H660.09V88.6797ZM690.539 86.2188V99.1484H688.996V94.1094H686.027V92.8203H688.996V90.8086H686.027V89.5391H688.996V86.2188H690.539ZM685.891 87.6445V88.8945H684.113V94.9688C684.924 94.9199 685.705 94.8613 686.457 94.7734L686.535 95.9258C683.156 96.4531 679.191 96.5117 676.379 96.5117L676.184 95.2031L678.43 95.1836V88.8945H676.672V87.6445H685.891ZM691.008 101.922V103.211H679.348V98.0742H680.891V101.922H691.008ZM679.914 95.1445C680.803 95.1348 681.721 95.1055 682.629 95.0664V88.8945H679.914V95.1445ZM699.211 91.8828C699.211 94.6562 701.027 97.5078 703.547 98.7188L702.648 99.9102C700.734 98.9727 699.221 97.0781 698.508 94.832C697.746 97.2441 696.135 99.2656 694.152 100.223L693.273 99.0312C695.812 97.8398 697.707 94.8711 697.727 91.8828V90.4961H693.742V89.2461H697.707V86.5508H699.25V89.2461H703.156V90.4961H699.211V91.8828ZM706.867 86.2188V93.3477H709.777V94.6562H706.867V103.582H705.344V86.2188H706.867ZM722.316 95.3789V98.5625C723.986 98.4941 725.695 98.3477 727.297 98.1133L727.414 99.2461C723.449 99.9688 719.172 99.9883 716.047 99.9883L715.832 98.7188C717.287 98.709 719.006 98.6992 720.812 98.6406V95.3789H722.316ZM726.398 88.5039V89.7734H722.316C722.355 92.0195 724.221 93.8457 726.789 94.5781L726.066 95.7891C723.977 95.1641 722.346 93.8262 721.574 92.0586C720.812 93.9238 719.191 95.3105 717.102 95.9453L716.359 94.7734C718.928 94.0215 720.734 92.1172 720.773 89.7734H716.789V88.5039H720.812V86.3555H722.316V88.5039H726.398ZM729.973 86.2188V103.621H728.449V86.2188H729.973ZM748.918 100.047V101.316H733.02V100.047H740.129V95.7891H741.633V100.047H748.918ZM741.672 88.7383C741.672 91.6484 745.109 94.1875 748.137 94.7148L747.453 95.9844C744.807 95.4473 742.014 93.6504 740.891 91.1406C739.748 93.6406 736.975 95.4473 734.328 95.9844L733.645 94.7148C736.672 94.1875 740.07 91.6484 740.07 88.7383V87.4102H741.672V88.7383ZM763.781 86.2188V93.6211H766.555V94.9102H763.781V103.582H762.238V86.2188H763.781ZM750.09 98.9531C751.506 98.9531 753.156 98.9531 754.875 98.8945V96.9609C752.854 96.7363 751.535 95.5547 751.555 93.8359C751.535 91.8828 753.195 90.6133 755.656 90.6133C758.078 90.6133 759.758 91.8828 759.777 93.8359C759.758 95.5547 758.42 96.7363 756.418 96.9805V98.8359C758.039 98.7578 759.67 98.6309 761.184 98.4062L761.281 99.5781C757.492 100.223 753.391 100.262 750.344 100.262L750.09 98.9531ZM760.871 88.3477V89.5977H750.402V88.3477H754.875V86.2578H756.418V88.3477H760.871ZM755.656 91.8047C754.055 91.8047 752.98 92.625 752.98 93.8359C752.98 95.0469 754.055 95.8281 755.656 95.8086C757.238 95.8281 758.312 95.0469 758.312 93.8359C758.312 92.625 757.238 91.8047 755.656 91.8047ZM407.922 130.367C406.828 130.367 405.93 129.469 405.93 128.355C405.93 127.262 406.828 126.363 407.922 126.363C409.035 126.363 409.934 127.262 409.934 128.355C409.934 129.469 409.035 130.367 407.922 130.367ZM434.211 124.312C433.801 122.359 432.121 121.305 430.266 121.305C427.707 121.305 425.715 123.277 425.715 126.93C425.715 130.582 427.707 132.555 430.266 132.555C432.121 132.555 433.781 131.5 434.211 129.566H435.969C435.461 132.457 433.137 134.195 430.266 134.195C426.633 134.195 424.016 131.402 424.016 126.93C424.016 122.457 426.633 119.664 430.266 119.664C433.117 119.664 435.441 121.383 435.969 124.312H434.211ZM442.551 134.215C439.66 134.215 437.707 132.047 437.707 128.746C437.707 125.445 439.66 123.258 442.551 123.258C445.422 123.258 447.355 125.445 447.355 128.746C447.355 132.047 445.422 134.215 442.551 134.215ZM442.551 132.73C444.68 132.73 445.676 130.855 445.676 128.746C445.676 126.637 444.68 124.742 442.551 124.742C440.383 124.742 439.387 126.637 439.387 128.746C439.387 130.855 440.383 132.73 442.551 132.73ZM451.242 127.633V134H449.562V123.395H451.184V125.055H451.32C451.828 123.98 452.805 123.258 454.426 123.258C456.574 123.258 458 124.566 458 127.262V134H456.32V127.379C456.32 125.738 455.422 124.762 453.918 124.762C452.375 124.762 451.242 125.797 451.242 127.633ZM466.594 126.148C466.359 125.27 465.695 124.684 464.445 124.684C463.137 124.684 462.199 125.387 462.199 126.285C462.199 126.988 462.766 127.477 464.016 127.77L465.598 128.16C467.492 128.609 468.43 129.547 468.43 131.031C468.43 132.867 466.926 134.215 464.27 134.215C461.887 134.215 460.461 133.16 460.188 131.227H461.945C462.141 132.262 462.902 132.75 464.23 132.75C465.734 132.75 466.691 132.125 466.691 131.129C466.691 130.387 466.164 129.879 464.953 129.605L463.352 129.234C461.496 128.805 460.52 127.789 460.52 126.383C460.52 124.566 462.102 123.258 464.445 123.258C466.633 123.258 468.02 124.43 468.234 126.148H466.594ZM470.617 134V123.395H472.297V134H470.617ZM471.457 121.637C470.812 121.637 470.285 121.148 470.285 120.523C470.285 119.898 470.812 119.41 471.457 119.41C472.102 119.41 472.648 119.898 472.648 120.523C472.648 121.148 472.102 121.637 471.457 121.637ZM480.871 126.148C480.637 125.27 479.973 124.684 478.723 124.684C477.414 124.684 476.477 125.387 476.477 126.285C476.477 126.988 477.043 127.477 478.293 127.77L479.875 128.16C481.77 128.609 482.707 129.547 482.707 131.031C482.707 132.867 481.203 134.215 478.547 134.215C476.164 134.215 474.738 133.16 474.465 131.227H476.223C476.418 132.262 477.18 132.75 478.508 132.75C480.012 132.75 480.969 132.125 480.969 131.129C480.969 130.387 480.441 129.879 479.23 129.605L477.629 129.234C475.773 128.805 474.797 127.789 474.797 126.383C474.797 124.566 476.379 123.258 478.723 123.258C480.91 123.258 482.297 124.43 482.512 126.148H480.871ZM489.523 123.395V124.801H487.297V130.953C487.297 132.32 487.961 132.535 488.684 132.535C488.996 132.535 489.426 132.516 489.68 132.496V134.059C489.426 134.098 488.996 134.137 488.508 134.137C487.102 134.137 485.598 133.258 485.598 131.383V124.801H483.996V123.395H485.598V120.855H487.297V123.395H489.523ZM496.027 134.215C492.961 134.215 491.066 132.047 491.066 128.785C491.066 125.523 492.98 123.258 495.871 123.258C498.098 123.258 500.441 124.625 500.441 128.551V129.254H492.746C492.824 131.5 494.133 132.73 496.027 132.73C497.297 132.73 498.098 132.184 498.488 131.52H500.285C499.777 133.121 498.215 134.215 496.027 134.215ZM492.766 127.828H498.742C498.742 126.051 497.609 124.742 495.871 124.742C494.035 124.742 492.863 126.188 492.766 127.828ZM504.309 127.633V134H502.629V123.395H504.25V125.055H504.387C504.895 123.98 505.871 123.258 507.492 123.258C509.641 123.258 511.066 124.566 511.066 127.262V134H509.387V127.379C509.387 125.738 508.488 124.762 506.984 124.762C505.441 124.762 504.309 125.797 504.309 127.633ZM518.098 134.215C515.09 134.215 513.254 131.93 513.254 128.746C513.254 125.523 515.168 123.258 518.059 123.258C520.324 123.258 522.004 124.586 522.277 126.598H520.598C520.363 125.621 519.504 124.742 518.098 124.742C516.203 124.742 514.934 126.305 514.934 128.688C514.934 131.148 516.164 132.711 518.098 132.711C519.348 132.711 520.305 132.047 520.598 130.875H522.277C522.004 132.77 520.461 134.215 518.098 134.215ZM525.422 137.984C525.051 137.984 524.699 137.965 524.484 137.945V136.441C524.66 136.461 525.051 136.48 525.305 136.48C525.988 136.48 526.555 136.422 527.121 134.879L527.434 134.078L523.508 123.395H525.344L528.234 131.812H528.352L531.242 123.395H533.078L528.586 135.523C527.961 137.184 526.926 137.984 525.422 137.984ZM546.027 127.184V128.727H539.836V127.184H546.027ZM563.371 120.094V121.344H553.02V120.094H557.434V118.141H558.957V120.094H563.371ZM558.195 122.242C560.695 122.262 562.355 123.473 562.375 125.387C562.355 127.281 560.695 128.512 558.195 128.512C555.695 128.512 553.996 127.281 554.016 125.387C553.996 123.473 555.695 122.262 558.195 122.242ZM558.195 123.434C556.555 123.453 555.461 124.215 555.48 125.387C555.461 126.539 556.555 127.281 558.195 127.281C559.816 127.281 560.91 126.539 560.93 125.387C560.91 124.215 559.816 123.453 558.195 123.434ZM566.555 118.219V123.043H569.172V124.332H566.555V129.078H565.031V118.219H566.555ZM566.555 130.035V135.582H565.031V131.285H555.188V130.035H566.555ZM584.66 118.238V131.09H583.117V125.074H578.117V123.844H583.117V121.754H578.117V120.523H583.117V118.238H584.66ZM585.129 133.922V135.211H573.469V129.996H575.012V133.922H585.129ZM572.844 119.488V127.203C575.236 127.193 577.541 127.066 580.188 126.578L580.344 127.848C577.512 128.375 575.148 128.492 572.609 128.512H571.301V119.488H572.844ZM590.402 132.691L588.879 138.004H587.434L588.508 132.691H590.402ZM604.465 120.152V126.148H599.758V130.016C601.76 130.006 603.654 129.938 605.969 129.527L606.086 130.797C603.605 131.246 601.633 131.285 599.426 131.305H598.273V124.879H603V121.422H598.234V120.152H604.465ZM612.531 118.219V135.582H611.066V118.219H612.531ZM608.977 118.648V134.664H607.531V125.738H605.305V124.488H607.531V118.648H608.977ZM629.719 118.238V127.379H628.254V118.238H629.719ZM626.281 118.59V127.281H624.836V123.453H622.531V126.539H615.773V119.254H617.219V121.559H621.086V119.254H622.531V122.164H624.836V118.59H626.281ZM629.719 128.219V132.281H619.758V134.156H630.422V135.387H618.234V131.109H628.215V129.43H618.195V128.219H629.719ZM617.219 125.328H621.086V122.75H617.219V125.328ZM635.109 132.691L633.586 138.004H632.141L633.215 132.691H635.109ZM648.566 122.887C648.547 126.051 650.715 129.254 653.273 130.406L652.336 131.617C650.363 130.65 648.654 128.609 647.824 126.129C647.014 128.756 645.305 130.943 643.273 131.969L642.297 130.68C644.875 129.488 647.023 126.188 647.043 122.887V119.723H648.566V122.887ZM656.711 118.219V135.621H655.168V118.219H656.711ZM674.035 118.219V135.582H672.492V118.219H674.035ZM668.898 120.113C668.879 125.113 666.555 129.527 660.734 132.32L659.895 131.07C664.592 128.844 666.984 125.514 667.336 121.363H660.695V120.113H668.898ZM691.848 118.219V135.582H690.363V118.219H691.848ZM688.352 118.59V134.703H686.887V126.266H684.66C684.494 129.645 683.059 131.754 680.91 131.754C678.645 131.754 677.18 129.41 677.18 125.719C677.18 122.027 678.645 119.684 680.91 119.684C683.02 119.684 684.445 121.725 684.641 124.996H686.887V118.59H688.352ZM680.91 121.129C679.504 121.129 678.605 122.887 678.625 125.719C678.605 128.531 679.504 130.309 680.91 130.289C682.316 130.309 683.215 128.531 683.215 125.719C683.215 122.887 682.316 121.129 680.91 121.129ZM708.898 119.566V120.484C708.879 121.617 708.879 123.355 708.449 125.621L706.906 125.504C707.326 123.424 707.365 121.949 707.395 120.855H700.246V119.566H708.898ZM704.426 123.414V127.145C706.35 127.066 708.342 126.93 710.148 126.676L710.246 127.809C706.613 128.434 702.414 128.512 699.328 128.512L699.172 127.242C700.295 127.232 701.564 127.223 702.902 127.184V123.414H704.426ZM712.883 118.219V123.883H715.422V125.191H712.883V131.285H711.32V118.219H712.883ZM713.449 133.922V135.211H701.848V130.113H703.391V133.922H713.449ZM731.418 118.219V135.582H729.953V118.219H731.418ZM727.902 118.688V134.703H726.438V128.688H723.215V127.418H726.438V124.332H723.508C722.658 127.271 720.754 129.869 717.473 131.832L716.535 130.719C720.314 128.482 722.209 125.348 722.512 121.715H717.316V120.445H724.035C724.035 121.334 723.957 122.213 723.801 123.062H726.438V118.688H727.902ZM737.297 128.414V130.582H740.461V128.414H741.887V135.348H735.852V128.414H737.297ZM737.297 134.137H740.461V131.754H737.297V134.137ZM746.848 129.781C746.828 131.617 747.922 133.531 750.051 134.312L749.25 135.484C747.648 134.84 746.594 133.619 746.066 132.164C745.51 133.59 744.455 134.82 742.922 135.484L742.121 134.312C744.211 133.453 745.324 131.539 745.324 129.781V128.297H746.848V129.781ZM738.625 119C740.949 119 742.727 120.318 743.059 122.32H746.691V118.219H748.234V127.418H746.691V123.59H743.078C742.766 125.641 740.979 126.988 738.625 126.988C735.988 126.988 734.113 125.367 734.113 122.984C734.113 120.621 735.988 119 738.625 119ZM738.625 120.289C736.848 120.289 735.578 121.402 735.578 122.984C735.578 124.586 736.848 125.719 738.625 125.719C740.383 125.719 741.633 124.586 741.633 122.984C741.633 121.402 740.383 120.289 738.625 120.289ZM765.168 123.492V124.723H753.273V118.863H754.797V123.492H765.168ZM767.004 127.086V128.336H751.105V127.086H767.004ZM765.266 133.883V135.152H753.176V130.113H754.699V133.883H765.266ZM778.352 118.863C780.949 118.883 782.844 120.445 782.844 122.711C782.844 124.977 780.949 126.539 778.352 126.539C775.715 126.539 773.84 124.977 773.84 122.711C773.84 120.445 775.715 118.883 778.352 118.863ZM778.352 120.152C776.613 120.152 775.324 121.207 775.344 122.711C775.324 124.234 776.613 125.289 778.352 125.289C780.07 125.289 781.359 124.234 781.359 122.711C781.359 121.207 780.07 120.152 778.352 120.152ZM787.766 118.219V127.145H786.242V118.219H787.766ZM787.766 127.984V132.164H778.02V134.117H788.391V135.348H776.516V131.012H786.242V129.215H776.477V127.984H787.766ZM800.344 119.566V120.484C800.324 121.617 800.324 123.355 799.895 125.621L798.352 125.504C798.771 123.424 798.811 121.949 798.84 120.855H791.691V119.566H800.344ZM795.871 123.414V127.145C797.795 127.066 799.787 126.93 801.594 126.676L801.691 127.809C798.059 128.434 793.859 128.512 790.773 128.512L790.617 127.242C791.74 127.232 793.01 127.223 794.348 127.184V123.414H795.871ZM804.328 118.219V123.883H806.867V125.191H804.328V131.285H802.766V118.219H804.328ZM804.895 133.922V135.211H793.293V130.113H794.836V133.922H804.895ZM818.098 123.922V125.172H814.582V127.594C816.203 127.525 817.824 127.408 819.328 127.242L819.445 128.375C815.715 128.883 811.574 129 808.312 129L808.078 127.75C809.602 127.74 811.311 127.721 813.059 127.652V125.172H809.66V119.352H817.961V120.621H811.203V123.922H818.098ZM822.316 118.238V131.227H820.773V118.238H822.316ZM822.883 133.922V135.211H811.047V130.328H812.57V133.922H822.883ZM839.016 119.84C839.016 122.281 842.219 124.41 845.344 124.84L844.719 126.09C842.023 125.641 839.357 124.146 838.234 122.008C837.121 124.156 834.445 125.641 831.75 126.09L831.125 124.84C834.25 124.41 837.434 122.32 837.434 119.84V118.844H839.016V119.84ZM846.125 128.004V129.293H838.938V135.582H837.434V129.293H830.305V128.004H846.125ZM852.375 119.039C854.709 119.02 856.477 120.377 856.809 122.379H860.441V118.219H861.984V127.535H860.441V123.648H856.828C856.516 125.699 854.729 127.066 852.375 127.066C849.738 127.066 847.863 125.426 847.863 123.043C847.863 120.68 849.738 119.02 852.375 119.039ZM852.375 120.348C850.598 120.328 849.328 121.441 849.328 123.043C849.328 124.625 850.598 125.777 852.375 125.777C854.133 125.777 855.383 124.625 855.383 123.043C855.383 121.441 854.133 120.328 852.375 120.348ZM852.336 128.414V130.621H860.441V128.414H861.984V135.348H850.793V128.414H852.336ZM852.336 134.098H860.441V131.852H852.336V134.098ZM884.738 118.219V135.582H883.273V118.219H884.738ZM881.223 118.648V134.684H879.777V125.738H876.848V124.488H879.777V118.648H881.223ZM874.992 123.18C874.992 126.188 876.34 129.176 878.742 130.562L877.805 131.695C876.096 130.67 874.885 128.795 874.289 126.578C873.654 128.971 872.395 131.012 870.656 132.105L869.68 130.953C872.102 129.508 873.508 126.344 873.508 123.18V121.539H870.168V120.27H878.176V121.539H874.992V123.18ZM895.031 129.195C898.762 129.195 901.125 130.367 901.125 132.379C901.125 134.371 898.762 135.543 895.031 135.543C891.32 135.543 888.957 134.371 888.957 132.379C888.957 130.367 891.32 129.195 895.031 129.195ZM895.031 130.367C892.258 130.387 890.461 131.148 890.48 132.379C890.461 133.59 892.258 134.332 895.031 134.332C897.805 134.332 899.582 133.59 899.602 132.379C899.582 131.148 897.805 130.387 895.031 130.367ZM900.988 119.117V120.582C900.988 121.988 900.988 123.395 900.5 125.191L898.996 125.016C899.465 123.219 899.465 121.949 899.465 120.582V120.367H889.074V119.117H900.988ZM903 126.324V127.574H887.199V126.324H893.742V122.965H895.246V126.324H903Z" fill="black"/>
<path d="M209.036 84V68.4453H211.829V75.5996H212.044L218.124 68.4453H221.54L215.524 75.4277L221.604 84H218.231L213.569 77.3184L211.829 79.3594V84H209.036ZM223.323 84V68.4453H229.167C232.733 68.4453 234.646 70.6152 234.646 73.6016C234.646 76.5879 232.712 78.7363 229.124 78.7363H226.116V84H223.323ZM226.116 76.4375H228.737C230.843 76.4375 231.788 75.2559 231.788 73.6016C231.788 71.9258 230.843 70.7871 228.737 70.7871H226.116V76.4375ZM239.694 68.4453V84H236.901V68.4453H239.694ZM263.241 66.4902V85.9121H260.835V66.4902H263.241ZM257.44 68.5527C257.44 74.332 255.206 79.252 248.396 82.4746L247.149 80.5625C252.23 78.1455 254.594 74.8584 255.013 70.4434H248.138V68.5527H257.44ZM281.353 66.5117V72.1191H284.06V74.0957H281.353V80.7988H278.968V66.5117H281.353ZM282.126 83.5918V85.5254H268.913V79.3594H271.298V83.5918H282.126ZM269.063 67.8867V70.8516H273.597V67.8867H275.96V77.6406H266.7V67.8867H269.063ZM269.063 75.75H273.597V72.6992H269.063V75.75ZM216.126 103.102C216.126 105.551 218.854 108.021 223.001 108.559L222.056 110.492C218.758 109.998 216.137 108.376 214.88 106.174C213.602 108.376 210.991 109.998 207.726 110.492L206.78 108.559C210.884 108.021 213.612 105.551 213.612 103.102V102.113H216.126V103.102ZM223.71 112.168V114.145H215.997V120.912H213.634V114.145H206.007V112.168H223.71ZM230.413 102.35C232.927 102.328 234.903 103.778 235.397 105.916H238.899V101.49H241.284V111.91H238.899V107.85H235.419C234.936 110.03 232.938 111.502 230.413 111.502C227.427 111.502 225.278 109.59 225.278 106.904C225.278 104.262 227.427 102.328 230.413 102.35ZM230.413 104.348C228.737 104.348 227.556 105.336 227.556 106.904C227.556 108.451 228.737 109.482 230.413 109.482C232.046 109.482 233.206 108.451 233.228 106.904C233.206 105.336 232.046 104.348 230.413 104.348ZM230.843 112.812V114.875H238.899V112.812H241.284V120.676H228.479V112.812H230.843ZM230.843 118.742H238.899V116.723H230.843V118.742ZM260.104 102.93V104.09C260.083 105.422 260.083 107.334 259.632 109.805L257.269 109.59C257.645 107.581 257.72 106.099 257.763 104.906H250.2V102.93H260.104ZM255.206 107.355V111.223C257.215 111.147 259.277 110.997 261.157 110.729L261.286 112.447C257.247 113.178 252.671 113.242 249.255 113.264L249.04 111.352C250.189 111.341 251.479 111.33 252.843 111.309V107.355H255.206ZM264.745 101.49V107.549H267.259V109.547H264.745V116.035H262.296V101.49H264.745ZM265.368 118.592V120.525H251.94V114.746H254.347V118.592H265.368ZM284.446 101.49V120.934H282.083V101.49H284.446ZM278.474 103.188V110.471H271.792V114.381C274.854 114.359 277.496 114.209 280.515 113.693L280.729 115.648C277.421 116.229 274.521 116.336 271.04 116.336H269.343V108.58H276.046V105.121H269.321V103.188H278.474Z" fill="black"/>
<path d="M344 29L344 161" stroke="url(#paint1_linear_469_1606)" stroke-width="2"/>
<circle cx="107" cy="95" r="47" fill="#CCE0FF"/>
<g filter="url(#filter0_i_469_1606)">
<circle cx="107" cy="95" r="44.2217" fill="#CCE0FF"/>
</g>
<rect x="78.5215" y="67.9111" width="56.9557" height="54.1773" fill="#CCE0FF"/>
<g filter="url(#filter1_d_469_1606)">
<rect x="85.4678" y="91.9902" width="10.6502" height="17.5961" rx="2" fill="#69A4FF"/>
</g>
<g filter="url(#filter2_d_469_1606)">
<path d="M100.285 81.4883C100.285 80.3837 101.181 79.4883 102.285 79.4883H108.935C110.04 79.4883 110.935 80.3837 110.935 81.4883L110.935 107.587C110.935 108.691 110.04 109.587 108.935 109.587H102.285C101.181 109.587 100.285 108.691 100.285 107.587V81.4883Z" fill="#69A4FF"/>
</g>
<g filter="url(#filter3_d_469_1606)">
<path d="M115.103 87.5068C115.103 86.4023 115.998 85.5068 117.103 85.5068H123.753C124.857 85.5068 125.753 86.4023 125.753 87.5068L125.753 107.586C125.753 108.69 124.857 109.586 123.753 109.586H117.103C115.998 109.586 115.103 108.69 115.103 107.586V87.5068Z" fill="#69A4FF"/>
</g>
<defs>
<filter id="filter0_i_469_1606" x="62.7783" y="50.7783" width="92.4434" height="91.4434" filterUnits="userSpaceOnUse" color-interpolation-filters="sRGB">
<feFlood flood-opacity="0" result="BackgroundImageFix"/>
<feBlend mode="normal" in="SourceGraphic" in2="BackgroundImageFix" result="shape"/>
<feColorMatrix in="SourceAlpha" type="matrix" values="0 0 0 0 0 0 0 0 0 0 0 0 0 0 0 0 0 0 127 0" result="hardAlpha"/>
<feOffset dx="4" dy="3"/>
<feGaussianBlur stdDeviation="3.5"/>
<feComposite in2="hardAlpha" operator="arithmetic" k2="-1" k3="1"/>
<feColorMatrix type="matrix" values="0 0 0 0 1 0 0 0 0 1 0 0 0 0 1 0 0 0 0.3 0"/>
<feBlend mode="normal" in2="shape" result="effect1_innerShadow_469_1606"/>
</filter>
<filter id="filter1_d_469_1606" x="78.4678" y="85.9902" width="30.6504" height="37.5957" filterUnits="userSpaceOnUse" color-interpolation-filters="sRGB">
<feFlood flood-opacity="0" result="BackgroundImageFix"/>
<feColorMatrix in="SourceAlpha" type="matrix" values="0 0 0 0 0 0 0 0 0 0 0 0 0 0 0 0 0 0 127 0" result="hardAlpha"/>
<feOffset dx="3" dy="4"/>
<feGaussianBlur stdDeviation="5"/>
<feComposite in2="hardAlpha" operator="out"/>
<feColorMatrix type="matrix" values="0 0 0 0 0.592157 0 0 0 0 0.752941 0 0 0 0 1 0 0 0 1 0"/>
<feBlend mode="normal" in2="BackgroundImageFix" result="effect1_dropShadow_469_1606"/>
<feBlend mode="normal" in="SourceGraphic" in2="effect1_dropShadow_469_1606" result="shape"/>
</filter>
<filter id="filter2_d_469_1606" x="93.2852" y="73.4883" width="30.6504" height="50.0986" filterUnits="userSpaceOnUse" color-interpolation-filters="sRGB">
<feFlood flood-opacity="0" result="BackgroundImageFix"/>
<feColorMatrix in="SourceAlpha" type="matrix" values="0 0 0 0 0 0 0 0 0 0 0 0 0 0 0 0 0 0 127 0" result="hardAlpha"/>
<feOffset dx="3" dy="4"/>
<feGaussianBlur stdDeviation="5"/>
<feComposite in2="hardAlpha" operator="out"/>
<feColorMatrix type="matrix" values="0 0 0 0 0.592157 0 0 0 0 0.752941 0 0 0 0 1 0 0 0 1 0"/>
<feBlend mode="normal" in2="BackgroundImageFix" result="effect1_dropShadow_469_1606"/>
<feBlend mode="normal" in="SourceGraphic" in2="effect1_dropShadow_469_1606" result="shape"/>
</filter>
<filter id="filter3_d_469_1606" x="108.103" y="79.5068" width="30.6504" height="44.0791" filterUnits="userSpaceOnUse" color-interpolation-filters="sRGB">
<feFlood flood-opacity="0" result="BackgroundImageFix"/>
<feColorMatrix in="SourceAlpha" type="matrix" values="0 0 0 0 0 0 0 0 0 0 0 0 0 0 0 0 0 0 127 0" result="hardAlpha"/>
<feOffset dx="3" dy="4"/>
<feGaussianBlur stdDeviation="5"/>
<feComposite in2="hardAlpha" operator="out"/>
<feColorMatrix type="matrix" values="0 0 0 0 0.592157 0 0 0 0 0.752941 0 0 0 0 1 0 0 0 1 0"/>
<feBlend mode="normal" in2="BackgroundImageFix" result="effect1_dropShadow_469_1606"/>
<feBlend mode="normal" in="SourceGraphic" in2="effect1_dropShadow_469_1606" result="shape"/>
</filter>
<linearGradient id="paint0_linear_469_1606" x1="-0.97417" y1="94" x2="1499.38" y2="93.9998" gradientUnits="userSpaceOnUse">
<stop stop-color="#3182F6"/>
<stop offset="1" stop-color="#A009FF"/>
</linearGradient>
<linearGradient id="paint1_linear_469_1606" x1="343.999" y1="95" x2="345.391" y2="95" gradientUnits="userSpaceOnUse">
<stop stop-color="#3182F6"/>
<stop offset="1" stop-color="#A009FF"/>
</linearGradient>
</defs>
</svg>
