<svg width="547" height="593" viewBox="0 0 547 593" fill="none" xmlns="http://www.w3.org/2000/svg">
<g filter="url(#filter0_d_462_1166)">
<rect x="70.5" y="60.5" width="406" height="452" rx="20.5" fill="white" stroke="url(#paint0_linear_462_1166)"/>
<rect x="71" y="255" width="405" height="257" rx="20" fill="#EDF6FF"/>
<path d="M354.958 119.295V120.455H340.649V119.295H347.101V115.709H348.454V119.295H354.958ZM353.587 109.293V110.436H348.489C348.498 112.888 351.1 114.689 354.097 115.182L353.569 116.271C351.064 115.823 348.771 114.566 347.786 112.615C346.793 114.566 344.499 115.823 341.985 116.271L341.44 115.182C344.455 114.689 347.074 112.888 347.083 110.436H341.985V109.293H347.101V107.131H348.454V109.293H353.587ZM370.462 114.232V115.393H356.206V114.232H370.462ZM368.792 111.613V112.738H358.017V107.43H368.687V108.59H359.37V111.613H368.792ZM363.325 116.764C366.683 116.764 368.687 117.783 368.704 119.576C368.687 121.387 366.683 122.389 363.325 122.389C359.95 122.389 357.929 121.387 357.929 119.576C357.929 117.783 359.95 116.764 363.325 116.764ZM363.325 117.836C360.812 117.854 359.317 118.486 359.335 119.576C359.317 120.684 360.812 121.299 363.325 121.299C365.804 121.299 367.315 120.684 367.315 119.576C367.315 118.486 365.804 117.854 363.325 117.836ZM381.114 108.484V109.609H371.798V108.484H375.771V106.727H377.142V108.484H381.114ZM376.456 110.418C378.706 110.436 380.2 111.525 380.218 113.248C380.2 114.953 378.706 116.061 376.456 116.061C374.206 116.061 372.677 114.953 372.694 113.248C372.677 111.525 374.206 110.436 376.456 110.418ZM376.456 111.49C374.979 111.508 373.995 112.193 374.013 113.248C373.995 114.285 374.979 114.953 376.456 114.953C377.915 114.953 378.899 114.285 378.917 113.248C378.899 112.193 377.915 111.508 376.456 111.49ZM383.979 106.797V111.139H386.335V112.299H383.979V116.57H382.608V106.797H383.979ZM383.979 117.432V122.424H382.608V118.557H373.749V117.432H383.979ZM399.87 108.379V110.119C399.87 112.123 399.87 114.145 399.308 117.045L397.954 116.887C398.517 114.127 398.517 112.07 398.517 110.119V109.521H388.813V108.379H399.87ZM401.558 119.066V120.209H387.319V119.066H390.853V113.916H392.224V119.066H394.755V113.916H396.108V119.066H401.558ZM412.351 121.176C409.819 121.176 408.009 119.822 407.921 117.801H409.521C409.608 119.014 410.821 119.77 412.333 119.77C414.003 119.77 415.233 118.855 415.233 117.537C415.233 116.148 414.126 115.164 412.14 115.164H411.103V113.775H412.14C413.687 113.775 414.759 112.914 414.759 111.596C414.759 110.33 413.827 109.469 412.386 109.469C411.032 109.469 409.784 110.225 409.714 111.473H408.185C408.272 109.451 410.136 108.098 412.403 108.098C414.829 108.098 416.306 109.68 416.288 111.508C416.306 112.949 415.462 114.021 414.126 114.391V114.479C415.778 114.742 416.798 115.92 416.78 117.537C416.798 119.629 414.882 121.176 412.351 121.176ZM427.854 108.484V109.609H418.538V108.484H422.511V106.727H423.882V108.484H427.854ZM423.196 110.418C425.446 110.436 426.94 111.525 426.958 113.248C426.94 114.953 425.446 116.061 423.196 116.061C420.946 116.061 419.417 114.953 419.435 113.248C419.417 111.525 420.946 110.436 423.196 110.418ZM423.196 111.49C421.72 111.508 420.735 112.193 420.753 113.248C420.735 114.285 421.72 114.953 423.196 114.953C424.655 114.953 425.64 114.285 425.657 113.248C425.64 112.193 424.655 111.508 423.196 111.49ZM430.72 106.797V111.139H433.075V112.299H430.72V116.57H429.349V106.797H430.72ZM430.72 117.432V122.424H429.349V118.557H420.489V117.432H430.72ZM447.015 106.814V118.381H445.626V112.967H441.126V111.859H445.626V109.979H441.126V108.871H445.626V106.814H447.015ZM447.437 120.93V122.09H436.942V117.396H438.331V120.93H447.437ZM436.38 107.939V114.883C438.533 114.874 440.607 114.76 442.989 114.32L443.13 115.463C440.581 115.938 438.454 116.043 436.169 116.061H434.991V107.939H436.38Z" fill="#666666"/>
<path d="M116.922 107.086V109.453H106.609V107.086H110.312V104.414H113.266V107.086H116.922ZM111.812 110.414C114.531 110.414 116.477 112.523 116.5 115.477C116.477 118.453 114.531 120.562 111.812 120.562C109.094 120.562 107.102 118.453 107.102 115.477C107.102 112.523 109.094 110.414 111.812 110.414ZM111.812 112.898C110.57 112.898 109.727 113.859 109.727 115.477C109.727 117.094 110.57 118.031 111.812 118.031C113.008 118.031 113.852 117.094 113.875 115.477C113.852 113.859 113.008 112.898 111.812 112.898ZM125.078 103.828V125.156H122.242V114.891H120.508V124.242H117.719V104.25H120.508V112.5H122.242V103.828H125.078ZM145.352 103.828V114.562H142.375V112.922H137.5V110.648H142.375V108.773H137.734C136.41 111.984 133.363 114.035 128.641 115.055L127.633 112.617C132.52 111.645 134.781 109.629 135.18 107.062H128.828V104.648H138.484C138.484 105.293 138.438 105.914 138.344 106.5H142.375V103.828H145.352ZM145.352 115.336V121.172H134.195V122.578H145.82V124.945H131.195V118.969H142.352V117.68H131.172V115.336H145.352ZM163.586 116.883C168.016 116.883 170.781 118.406 170.781 121.008C170.781 123.656 168.016 125.18 163.586 125.18C159.062 125.18 156.273 123.656 156.273 121.008C156.273 118.406 159.062 116.883 163.586 116.883ZM163.586 119.203C160.773 119.203 159.25 119.789 159.273 121.008C159.25 122.227 160.773 122.859 163.586 122.859C166.352 122.859 167.828 122.227 167.828 121.008C167.828 119.789 166.352 119.203 163.586 119.203ZM170.57 103.828V108.773H173.453V111.281H170.57V116.414H167.57V103.828H170.57ZM157.258 105.164V107.859H161.617V105.164H164.617V115.195H154.281V105.164H157.258ZM157.258 112.828H161.617V110.18H157.258V112.828ZM191.312 103.828V109.945H194.195V112.43H191.312V119.367H188.312V103.828H191.312ZM192.086 122.391V124.781H177.484V117.727H180.461V122.391H192.086ZM180.391 105.211C183.648 105.211 186.203 107.461 186.203 110.625C186.203 113.742 183.648 116.039 180.391 116.039C177.109 116.039 174.531 113.742 174.531 110.625C174.531 107.461 177.109 105.211 180.391 105.211ZM180.391 107.812C178.773 107.789 177.461 108.844 177.484 110.625C177.461 112.359 178.773 113.438 180.391 113.438C182.031 113.438 183.273 112.359 183.297 110.625C183.273 108.844 182.031 107.789 180.391 107.812ZM219.156 103.828V125.156H216.297V103.828H219.156ZM214.797 104.133V124.172H211.984V117.562H209.477C208.68 119.637 207.285 120.82 205.492 120.82C202.68 120.82 200.852 117.867 200.852 113.062C200.852 108.281 202.68 105.352 205.492 105.352C207.273 105.352 208.668 106.512 209.477 108.562H211.984V104.133H214.797ZM205.492 108.164C204.25 108.164 203.547 109.805 203.57 113.062C203.547 116.344 204.25 117.961 205.492 117.938C206.734 117.961 207.484 116.344 207.484 113.062C207.484 109.805 206.711 108.164 205.492 108.164ZM210.062 110.953C210.156 111.609 210.203 112.312 210.203 113.062C210.203 113.801 210.156 114.504 210.062 115.148H211.984V110.953H210.062ZM229.703 108.656C229.703 112.57 231.484 116.508 235.094 118.031L233.336 120.422C230.898 119.32 229.211 117.199 228.25 114.562C227.277 117.434 225.531 119.754 222.93 120.938L221.125 118.453C224.852 116.883 226.656 112.805 226.68 108.656V105.469H229.703V108.656ZM239.266 103.828V125.203H236.242V103.828H239.266ZM255.695 106.031V123H252.156V109.383H252.062L248.172 111.82V108.703L252.367 106.031H255.695Z" fill="black"/>
<path d="M121.508 171.043V184.578H119.027V181.219H116.625V179.246H119.027V177.469H116.625V175.457H119.027V171.043H121.508ZM116.449 172.898V174.871H106.566V172.898H110.395V171.004H112.875V172.898H116.449ZM111.605 175.496C114.047 175.496 115.805 176.941 115.824 178.992C115.805 181.043 114.047 182.469 111.605 182.469C109.184 182.469 107.426 181.043 107.445 178.992C107.426 176.941 109.184 175.496 111.605 175.496ZM111.605 177.43C110.512 177.449 109.75 177.996 109.77 178.992C109.75 180.008 110.512 180.574 111.605 180.574C112.68 180.574 113.461 180.008 113.48 178.992C113.461 177.996 112.68 177.449 111.605 177.43ZM121.879 186.492V188.484H109.672V183.426H112.191V186.492H121.879ZM139.32 171.023V188.797H136.938V179.891H135.434V187.977H133.07V182.879L131.664 184.754C130.014 183.885 128.949 182.41 128.324 180.574C127.729 182.684 126.674 184.393 124.984 185.398L123.441 183.484C126.137 181.961 127.055 178.816 127.055 175.418V174.852H124.047V172.859H132.191V174.852H129.477V175.418C129.477 178.514 130.395 181.463 133.07 182.84V171.277H135.434V177.859H136.938V171.023H139.32ZM152.191 173.816C152.191 175.965 153.441 178.035 156.254 178.914L154.926 180.848C153.041 180.223 151.723 179.012 150.961 177.449C150.189 179.246 148.812 180.652 146.781 181.336L145.434 179.383C148.402 178.387 149.672 176.023 149.691 173.582V171.961H152.191V173.816ZM159.809 171.023V175.184H162.211V177.254H159.809V181.57H157.309V171.023H159.809ZM153.988 181.922C157.66 181.922 159.984 183.191 159.984 185.359C159.984 187.547 157.66 188.797 153.988 188.797C150.238 188.797 147.895 187.547 147.895 185.359C147.895 183.191 150.238 181.922 153.988 181.922ZM153.988 183.875C151.645 183.875 150.375 184.383 150.395 185.359C150.375 186.375 151.645 186.844 153.988 186.844C156.293 186.844 157.523 186.375 157.523 185.359C157.523 184.383 156.293 183.875 153.988 183.875ZM170.844 172.879V174.852H165.98V177.527H170.492V179.441H165.98V182.645C167.982 182.625 169.438 182.557 171.176 182.312L171.352 184.344C169.301 184.676 167.543 184.734 164.848 184.734H163.598V172.879H170.844ZM178.402 171.023V188.797H176.02V179.91H174.477V187.977H172.133V171.277H174.477V177.918H176.02V171.023H178.402Z" fill="url(#paint1_linear_462_1166)"/>
<path d="M110.816 204.01C113.119 204.027 114.754 206.137 114.771 209.459C114.754 212.781 113.119 214.891 110.816 214.891C108.496 214.891 106.879 212.781 106.879 209.459C106.879 206.137 108.496 204.027 110.816 204.01ZM110.816 205.24C109.27 205.258 108.18 206.91 108.18 209.459C108.18 212.008 109.27 213.66 110.816 213.66C112.381 213.66 113.436 212.008 113.436 209.459C113.436 206.91 112.381 205.258 110.816 205.24ZM118.727 202.797V209.037H121.346V210.232H118.727V218.424H117.355V202.797H118.727ZM135.074 202.797V218.459H133.686V202.797H135.074ZM126.76 204.01C129.08 204.027 130.75 206.137 130.75 209.459C130.75 212.781 129.08 214.891 126.76 214.891C124.422 214.891 122.77 212.781 122.77 209.459C122.77 206.137 124.422 204.027 126.76 204.01ZM126.76 205.24C125.195 205.258 124.105 206.91 124.105 209.459C124.105 212.008 125.195 213.66 126.76 213.66C128.324 213.66 129.414 212.008 129.414 209.459C129.414 206.91 128.324 205.258 126.76 205.24ZM149.84 202.797V209.16H152.371V210.32H149.84V218.424H148.469V202.797H149.84ZM145.797 204.484C145.797 208.914 143.723 212.939 138.625 215.453L137.852 214.363C141.895 212.351 144.092 209.345 144.408 205.645H138.572V204.484H145.797ZM162.443 206.189C162.443 208.035 163.674 209.846 165.66 210.566L164.992 211.639C163.463 211.032 162.382 209.863 161.828 208.439C161.283 209.986 160.185 211.261 158.629 211.92L157.943 210.883C159.93 210.057 161.125 208.176 161.143 206.189V205.996H158.26V204.871H161.143V202.99H162.443V204.871H165.273V205.996H162.443V206.189ZM171.092 202.814V212.377H169.773V208.141H167.734V212.307H166.398V203.096H167.734V206.998H169.773V202.814H171.092ZM171.092 213.221V218.424H169.738V214.346H160.562V213.221H171.092ZM180.496 203.078C183.977 203.078 186.016 204.027 186.016 205.768C186.016 207.543 183.977 208.492 180.496 208.51C177.016 208.492 174.959 207.543 174.959 205.768C174.959 204.027 177.016 203.078 180.496 203.078ZM180.496 204.115C177.895 204.115 176.383 204.748 176.4 205.768C176.383 206.857 177.895 207.455 180.496 207.455C183.08 207.455 184.609 206.857 184.609 205.768C184.609 204.748 183.08 204.115 180.496 204.115ZM187.615 209.564V210.689H173.377V209.564H187.615ZM185.787 212.043V215.541H176.506V217.158H186.262V218.248H175.135V214.521H184.434V213.098H175.1V212.043H185.787ZM206.424 202.797V218.459H205.035V209.107H200.166V207.965H205.035V202.797H206.424ZM195.701 204.555V213.502C198.083 213.476 200.21 213.353 202.557 212.869L202.732 214.012C200.236 214.521 198.039 214.662 195.508 214.662H194.312V204.555H195.701ZM223.299 211.885V213.027H216.777V218.424H215.424V213.027H208.99V211.885H223.299ZM221.436 203.676V209.758H210.836V203.676H221.436ZM212.189 204.801V208.668H220.064V204.801H212.189ZM233.283 204.01C235.41 204.027 236.939 205.847 237.168 208.773H240.666V202.797H242.037V218.459H240.666V209.916H237.186C237.019 212.975 235.463 214.891 233.283 214.891C230.98 214.891 229.363 212.781 229.363 209.459C229.363 206.137 230.98 204.027 233.283 204.01ZM233.283 205.24C231.736 205.258 230.682 206.91 230.682 209.459C230.682 212.008 231.736 213.66 233.283 213.66C234.812 213.66 235.885 212.008 235.885 209.459C235.885 206.91 234.812 205.258 233.283 205.24ZM257.576 202.797V218.459H256.205V211.797H252.953V210.637H256.205V207.525H253.076V206.365H256.205V202.797H257.576ZM252.057 204.221V209.775H246.607V213.625C248.954 213.616 250.896 213.528 253.27 213.168L253.393 214.328C250.896 214.715 248.893 214.803 246.396 214.803H245.236V208.65H250.703V205.363H245.184V204.221H252.057ZM273.133 202.814V218.441H271.727V214.557H268.123V213.502H271.727V202.814H273.133ZM260.125 211.041C263.113 211.041 267.068 211.023 270.514 210.531L270.602 211.568C269.055 211.832 267.446 211.99 265.891 212.078V217.949H264.502V212.148C262.999 212.21 261.575 212.219 260.318 212.219L260.125 211.041ZM265.275 203.588C267.596 203.588 269.213 204.836 269.213 206.664C269.213 208.527 267.596 209.723 265.275 209.723C262.938 209.723 261.32 208.527 261.32 206.664C261.32 204.836 262.938 203.588 265.275 203.588ZM265.275 204.66C263.693 204.66 262.604 205.486 262.621 206.664C262.604 207.859 263.693 208.65 265.275 208.65C266.805 208.65 267.912 207.859 267.912 206.664C267.912 205.486 266.805 204.66 265.275 204.66ZM283.557 205.504V206.629H275.717V205.504H278.969V203.271H280.34V205.504H283.557ZM279.637 207.684C281.605 207.684 283.012 209.16 283.029 211.234C283.012 213.326 281.605 214.82 279.637 214.82C277.686 214.82 276.279 213.326 276.279 211.234C276.279 209.16 277.686 207.684 279.637 207.684ZM279.637 208.844C278.406 208.861 277.51 209.863 277.51 211.234C277.51 212.623 278.406 213.625 279.637 213.607C280.885 213.625 281.799 212.623 281.799 211.234C281.799 209.863 280.885 208.861 279.637 208.844ZM289.059 202.797V218.424H287.74V210.531H285.666V217.65H284.365V203.184H285.666V209.389H287.74V202.797H289.059ZM305.617 215.26V216.42H291.309V215.26H294.859V211.041C293.523 210.347 292.715 209.222 292.715 207.807C292.715 205.381 295.088 203.799 298.428 203.781C301.768 203.799 304.141 205.381 304.141 207.807C304.141 209.195 303.358 210.312 302.066 211.006V215.26H305.617ZM298.428 204.924C295.861 204.906 294.051 206.066 294.051 207.807C294.051 209.547 295.861 210.725 298.428 210.725C300.977 210.725 302.805 209.547 302.805 207.807C302.805 206.066 300.977 204.906 298.428 204.924ZM296.213 215.26H300.678V211.533C300.001 211.718 299.245 211.814 298.428 211.814C297.628 211.814 296.881 211.727 296.213 211.551V215.26Z" fill="black"/>
<path d="M115.102 282.738V284.711H106.508V282.738H109.594V280.512H112.055V282.738H115.102ZM110.844 285.512C113.109 285.512 114.73 287.27 114.75 289.73C114.73 292.211 113.109 293.969 110.844 293.969C108.578 293.969 106.918 292.211 106.918 289.73C106.918 287.27 108.578 285.512 110.844 285.512ZM110.844 287.582C109.809 287.582 109.105 288.383 109.105 289.73C109.105 291.078 109.809 291.859 110.844 291.859C111.84 291.859 112.543 291.078 112.562 289.73C112.543 288.383 111.84 287.582 110.844 287.582ZM121.898 280.023V297.797H119.535V289.242H118.09V297.035H115.766V280.375H118.09V287.25H119.535V280.023H121.898ZM138.793 280.023V288.969H136.312V287.602H132.25V285.707H136.312V284.145H132.445C131.342 286.82 128.803 288.529 124.867 289.379L124.027 287.348C128.1 286.537 129.984 284.857 130.316 282.719H125.023V280.707H133.07C133.07 281.244 133.031 281.762 132.953 282.25H136.312V280.023H138.793ZM138.793 289.613V294.477H129.496V295.648H139.184V297.621H126.996V292.641H136.293V291.566H126.977V289.613H138.793ZM149.379 290.902C153.07 290.902 155.375 292.172 155.375 294.34C155.375 296.547 153.07 297.816 149.379 297.816C145.609 297.816 143.285 296.547 143.285 294.34C143.285 292.172 145.609 290.902 149.379 290.902ZM149.379 292.836C147.035 292.836 145.766 293.324 145.785 294.34C145.766 295.355 147.035 295.883 149.379 295.883C151.684 295.883 152.914 295.355 152.914 294.34C152.914 293.324 151.684 292.836 149.379 292.836ZM155.199 280.023V284.145H157.602V286.234H155.199V290.512H152.699V280.023H155.199ZM144.105 281.137V283.383H147.738V281.137H150.238V289.496H141.625V281.137H144.105ZM144.105 287.523H147.738V285.316H144.105V287.523ZM172.484 280.023V285.121H174.887V287.191H172.484V292.973H169.984V280.023H172.484ZM173.129 295.492V297.484H160.961V291.605H163.441V295.492H173.129ZM163.383 281.176C166.098 281.176 168.227 283.051 168.227 285.688C168.227 288.285 166.098 290.199 163.383 290.199C160.648 290.199 158.5 288.285 158.5 285.688C158.5 283.051 160.648 281.176 163.383 281.176ZM163.383 283.344C162.035 283.324 160.941 284.203 160.961 285.688C160.941 287.133 162.035 288.031 163.383 288.031C164.75 288.031 165.785 287.133 165.805 285.688C165.785 284.203 164.75 283.324 163.383 283.344Z" fill="url(#paint2_linear_462_1166)"/>
<path d="M110.816 364.01C113.119 364.027 114.754 366.137 114.771 369.459C114.754 372.781 113.119 374.891 110.816 374.891C108.496 374.891 106.879 372.781 106.879 369.459C106.879 366.137 108.496 364.027 110.816 364.01ZM110.816 365.24C109.27 365.258 108.18 366.91 108.18 369.459C108.18 372.008 109.27 373.66 110.816 373.66C112.381 373.66 113.436 372.008 113.436 369.459C113.436 366.91 112.381 365.258 110.816 365.24ZM118.727 362.797V369.037H121.346V370.232H118.727V378.424H117.355V362.797H118.727ZM135.074 362.797V378.459H133.686V362.797H135.074ZM126.76 364.01C129.08 364.027 130.75 366.137 130.75 369.459C130.75 372.781 129.08 374.891 126.76 374.891C124.422 374.891 122.77 372.781 122.77 369.459C122.77 366.137 124.422 364.027 126.76 364.01ZM126.76 365.24C125.195 365.258 124.105 366.91 124.105 369.459C124.105 372.008 125.195 373.66 126.76 373.66C128.324 373.66 129.414 372.008 129.414 369.459C129.414 366.91 128.324 365.258 126.76 365.24ZM149.84 362.797V369.16H152.371V370.32H149.84V378.424H148.469V362.797H149.84ZM145.797 364.484C145.797 368.914 143.723 372.939 138.625 375.453L137.852 374.363C141.895 372.351 144.092 369.345 144.408 365.645H138.572V364.484H145.797ZM170.775 362.797V372.113H169.387V368.018H166.24V366.875H169.387V362.797H170.775ZM165.59 372.605C168.842 372.605 170.828 373.66 170.828 375.506C170.828 377.352 168.842 378.406 165.59 378.424C162.338 378.406 160.352 377.352 160.352 375.506C160.352 373.66 162.338 372.605 165.59 372.605ZM165.59 373.678C163.199 373.678 161.705 374.363 161.723 375.506C161.705 376.631 163.199 377.316 165.59 377.316C167.98 377.316 169.457 376.631 169.457 375.506C169.457 374.363 167.98 373.678 165.59 373.678ZM163.252 365.662C163.252 367.701 164.816 369.635 167.102 370.426L166.381 371.533C164.623 370.9 163.261 369.591 162.602 367.965C161.916 369.802 160.466 371.27 158.611 371.973L157.891 370.865C160.211 370.021 161.863 367.912 161.863 365.68V365.1H158.33V363.939H166.75V365.1H163.252V365.662ZM185.576 362.814V367.543H187.914V368.703H185.576V373.291H184.188V362.814H185.576ZM173.307 371.691C174.555 371.691 176.014 371.691 177.543 371.639V370.496C175.724 370.338 174.555 369.485 174.555 368.193C174.555 366.77 176.014 365.891 178.211 365.891C180.426 365.891 181.867 366.77 181.885 368.193C181.867 369.477 180.725 370.329 178.914 370.496V371.586C180.373 371.516 181.85 371.401 183.221 371.199L183.344 372.201C179.951 372.799 176.207 372.816 173.465 372.816L173.307 371.691ZM185.576 374.064V378.424H184.188V375.172H175.223V374.064H185.576ZM182.746 364.238V365.293H173.693V364.238H177.543V362.674H178.914V364.238H182.746ZM178.211 366.875C176.77 366.857 175.873 367.367 175.873 368.193C175.873 369.002 176.77 369.564 178.211 369.547C179.652 369.564 180.566 369.002 180.566 368.193C180.566 367.367 179.652 366.857 178.211 366.875ZM201.027 362.797V369.248H203.646V370.391H201.027V378.424H199.656V362.797H201.027ZM198.145 365.311V366.453H188.846V365.311H192.871V362.99H194.242V365.311H198.145ZM193.574 367.754C195.789 367.754 197.389 369.23 197.406 371.34C197.389 373.449 195.789 374.926 193.574 374.926C191.342 374.926 189.725 373.449 189.742 371.34C189.725 369.23 191.342 367.754 193.574 367.754ZM193.574 368.914C192.115 368.914 191.043 369.934 191.061 371.34C191.043 372.764 192.115 373.766 193.574 373.748C195.016 373.766 196.07 372.764 196.088 371.34C196.07 369.934 195.016 368.914 193.574 368.914ZM217.867 362.797V378.424H216.549V362.797H217.867ZM214.58 363.219V377.633H213.262V370.338H209.957C208.999 372.157 207.496 373.766 205.316 375.049L204.508 374.047C207.909 372.034 209.614 369.213 209.869 365.943H205.176V364.801H211.24C211.231 366.339 210.985 367.824 210.467 369.213H213.262V363.219H214.58ZM229.855 367.596C229.838 370.109 231.648 372.869 233.916 373.941L233.125 375.031C231.367 374.179 229.882 372.315 229.188 370.197C228.467 372.5 226.894 374.521 225.145 375.418L224.301 374.328C226.551 373.238 228.484 370.268 228.502 367.596V365.557H224.863V364.414H233.371V365.557H229.855V367.596ZM236.658 362.797V369.125H239.277V370.303H236.658V378.424H235.287V362.797H236.658ZM253.023 362.814V374.275H251.652V362.814H253.023ZM253.516 376.93V378.09H242.934V373.221H244.305V376.93H253.516ZM245.658 365.258C245.641 367.631 247.275 369.775 249.596 370.619L248.875 371.727C247.064 371.032 245.658 369.626 244.973 367.824C244.278 369.74 242.854 371.278 241.035 372.008L240.279 370.936C242.652 370.021 244.252 367.719 244.252 365.258V363.693H245.658V365.258ZM260.793 363.939C263.254 363.939 264.994 365.434 264.994 367.613C264.994 369.793 263.254 371.287 260.793 371.287C258.332 371.287 256.557 369.793 256.574 367.613C256.557 365.434 258.332 363.939 260.793 363.939ZM260.793 365.152C259.123 365.152 257.91 366.154 257.928 367.613C257.91 369.072 259.123 370.074 260.793 370.074C262.445 370.074 263.641 369.072 263.641 367.613C263.641 366.154 262.445 365.152 260.793 365.152ZM268.492 362.797V378.459H267.121V362.797H268.492ZM255.766 373.836C258.648 373.836 262.621 373.818 266.084 373.309L266.189 374.328C262.621 374.996 258.771 375.014 255.959 375.014L255.766 373.836ZM281.852 364.537V369.934H277.615V373.414C279.417 373.405 281.122 373.344 283.205 372.975L283.311 374.117C281.078 374.521 279.303 374.557 277.316 374.574H276.279V368.791H280.533V365.68H276.244V364.537H281.852ZM289.111 362.797V378.424H287.793V362.797H289.111ZM285.912 363.184V377.598H284.611V369.564H282.607V368.439H284.611V363.184H285.912ZM304.58 362.814V371.041H303.262V362.814H304.58ZM301.486 363.131V370.953H300.186V367.508H298.111V370.285H292.029V363.729H293.33V365.803H296.811V363.729H298.111V366.348H300.186V363.131H301.486ZM304.58 371.797V375.453H295.615V377.141H305.213V378.248H294.244V374.398H303.227V372.887H294.209V371.797H304.58ZM293.33 369.195H296.811V366.875H293.33V369.195ZM313.984 363.078C317.465 363.078 319.504 364.027 319.504 365.768C319.504 367.543 317.465 368.492 313.984 368.51C310.504 368.492 308.447 367.543 308.447 365.768C308.447 364.027 310.504 363.078 313.984 363.078ZM313.984 364.115C311.383 364.115 309.871 364.748 309.889 365.768C309.871 366.857 311.383 367.455 313.984 367.455C316.568 367.455 318.098 366.857 318.098 365.768C318.098 364.748 316.568 364.115 313.984 364.115ZM321.104 369.564V370.689H306.865V369.564H321.104ZM319.275 372.043V375.541H309.994V377.158H319.75V378.248H308.623V374.521H317.922V373.098H308.588V372.043H319.275ZM339.156 362.797V366.189H341.512V367.35H339.156V370.76H337.785V362.797H339.156ZM339.156 371.498V375.312H330.578V377.105H339.736V378.213H329.225V374.258H337.785V372.605H329.189V371.498H339.156ZM331.299 363.377C333.654 363.395 335.359 364.801 335.359 366.84C335.359 368.896 333.654 370.32 331.299 370.32C328.961 370.32 327.221 368.896 327.238 366.84C327.221 364.801 328.961 363.395 331.299 363.377ZM331.299 364.537C329.734 364.52 328.574 365.486 328.592 366.84C328.574 368.211 329.734 369.195 331.299 369.195C332.863 369.195 334.006 368.211 334.006 366.84C334.006 365.486 332.863 364.52 331.299 364.537ZM355.029 364.379V365.943C355.012 367.859 355.012 370.004 354.449 373.15L353.043 372.992C353.641 370.004 353.641 367.807 353.641 365.943V365.521H344.008V364.379H355.029ZM356.734 375.066V376.209H342.496V375.066H348.086V369.477H349.439V375.066H356.734ZM370.357 367.455V369.301H376.861V370.443H362.553V369.301H369.004V367.455H370.357ZM375.543 363.289V364.379H370.604C370.718 365.979 373.337 367.147 376.053 367.367L375.596 368.404C372.994 368.158 370.542 367.147 369.707 365.504C368.854 367.147 366.402 368.158 363.783 368.404L363.326 367.367C366.024 367.147 368.644 365.979 368.793 364.379H363.871V363.289H375.543ZM375.508 372.518V373.607H363.906V372.518H369.004V371.041H370.375V372.518H375.508ZM369.689 374.381C372.695 374.381 374.418 375.084 374.418 376.438C374.418 377.809 372.695 378.512 369.689 378.512C366.648 378.512 364.979 377.809 364.979 376.438C364.979 375.084 366.648 374.381 369.689 374.381ZM369.689 375.348C367.58 375.365 366.367 375.717 366.367 376.438C366.367 377.158 367.58 377.562 369.689 377.545C371.816 377.562 372.994 377.158 373.012 376.438C372.994 375.717 371.816 375.365 369.689 375.348ZM382.311 364.01C384.613 364.027 386.248 366.137 386.266 369.459C386.248 372.781 384.613 374.891 382.311 374.891C379.99 374.891 378.373 372.781 378.373 369.459C378.373 366.137 379.99 364.027 382.311 364.01ZM382.311 365.24C380.764 365.258 379.674 366.91 379.674 369.459C379.674 372.008 380.764 373.66 382.311 373.66C383.875 373.66 384.93 372.008 384.93 369.459C384.93 366.91 383.875 365.258 382.311 365.24ZM390.221 362.797V369.037H392.84V370.232H390.221V378.424H388.85V362.797H390.221ZM405.777 362.797V369.248H408.396V370.391H405.777V378.424H404.406V362.797H405.777ZM402.895 365.311V366.453H393.596V365.311H397.621V362.99H398.992V365.311H402.895ZM398.324 367.754C400.539 367.754 402.139 369.23 402.156 371.34C402.139 373.449 400.539 374.926 398.324 374.926C396.092 374.926 394.475 373.449 394.492 371.34C394.475 369.23 396.092 367.754 398.324 367.754ZM398.324 368.914C396.865 368.914 395.793 369.934 395.811 371.34C395.793 372.764 396.865 373.766 398.324 373.748C399.766 373.766 400.82 372.764 400.838 371.34C400.82 369.934 399.766 368.914 398.324 368.914ZM421.879 367.543V368.65H411.174V363.377H412.545V367.543H421.879ZM423.531 370.777V371.902H409.223V370.777H423.531ZM421.967 376.895V378.037H411.086V373.502H412.457V376.895H421.967ZM437.207 365.012C437.189 367.104 439.984 368.879 442.709 369.283L442.199 370.373C439.756 369.96 437.383 368.659 436.434 366.77C435.484 368.659 433.103 369.96 430.703 370.373L430.158 369.283C432.865 368.879 435.66 367.104 435.66 365.012V364.906H430.65V363.781H442.199V364.906H437.207V365.012ZM443.553 371.709V372.852H437.084V378.424H435.73V372.852H429.314V371.709H443.553ZM119.992 391.797V407.424H118.674V391.797H119.992ZM116.828 392.184V406.615H115.527V398.564H112.891V397.439H115.527V392.184H116.828ZM111.221 396.262C111.221 398.969 112.434 401.658 114.596 402.906L113.752 403.926C112.214 403.003 111.124 401.315 110.588 399.32C110.017 401.474 108.883 403.311 107.318 404.295L106.439 403.258C108.619 401.957 109.885 399.109 109.885 396.262V394.785H106.879V393.643H114.086V394.785H111.221V396.262ZM127.305 392.939C129.766 392.939 131.506 394.434 131.506 396.613C131.506 398.793 129.766 400.287 127.305 400.287C124.844 400.287 123.068 398.793 123.086 396.613C123.068 394.434 124.844 392.939 127.305 392.939ZM127.305 394.152C125.635 394.152 124.422 395.154 124.439 396.613C124.422 398.072 125.635 399.074 127.305 399.074C128.957 399.074 130.152 398.072 130.152 396.613C130.152 395.154 128.957 394.152 127.305 394.152ZM135.004 391.797V407.459H133.633V391.797H135.004ZM122.277 402.836C125.16 402.836 129.133 402.818 132.596 402.309L132.701 403.328C129.133 403.996 125.283 404.014 122.471 404.014L122.277 402.836ZM146.887 395.189C146.887 397.035 148.117 398.846 150.104 399.566L149.436 400.639C147.906 400.032 146.825 398.863 146.271 397.439C145.727 398.986 144.628 400.261 143.072 400.92L142.387 399.883C144.373 399.057 145.568 397.176 145.586 395.189V394.996H142.703V393.871H145.586V391.99H146.887V393.871H149.717V394.996H146.887V395.189ZM155.535 391.814V401.377H154.217V397.141H152.178V401.307H150.842V392.096H152.178V395.998H154.217V391.814H155.535ZM155.535 402.221V407.424H154.182V403.346H145.006V402.221H155.535ZM164.939 392.078C168.42 392.078 170.459 393.027 170.459 394.768C170.459 396.543 168.42 397.492 164.939 397.51C161.459 397.492 159.402 396.543 159.402 394.768C159.402 393.027 161.459 392.078 164.939 392.078ZM164.939 393.115C162.338 393.115 160.826 393.748 160.844 394.768C160.826 395.857 162.338 396.455 164.939 396.455C167.523 396.455 169.053 395.857 169.053 394.768C169.053 393.748 167.523 393.115 164.939 393.115ZM172.059 398.564V399.689H157.82V398.564H172.059ZM170.23 401.043V404.541H160.949V406.158H170.705V407.248H159.578V403.521H168.877V402.098H159.543V401.043H170.23ZM190.832 391.797V400.287H189.461V396.754H186.297V395.594H189.461V391.797H190.832ZM182.166 401.043V402.994H189.461V401.043H190.832V407.213H180.777V401.043H182.166ZM182.166 406.088H189.461V404.102H182.166V406.088ZM183.326 394.346C183.326 396.35 184.891 398.318 187.176 399.109L186.455 400.182C184.688 399.54 183.326 398.23 182.658 396.613C181.981 398.424 180.54 399.874 178.686 400.551L177.965 399.461C180.268 398.635 181.938 396.561 181.938 394.346V393.889H178.404V392.746H186.824V393.889H183.326V394.346ZM205.668 391.744V395.541H208.041V396.684H205.668V400.393H204.297V391.744H205.668ZM205.668 401.201V404.664H197.09V406.193H206.248V407.248H195.736V403.645H204.297V402.238H195.701V401.201H205.668ZM202.803 393.221V394.328H193.486V393.221H197.459V391.639H198.83V393.221H202.803ZM198.145 395.031C200.412 395.031 201.889 396.016 201.906 397.598C201.889 399.18 200.412 400.164 198.145 400.164C195.859 400.164 194.365 399.18 194.383 397.598C194.365 396.016 195.859 395.031 198.145 395.031ZM198.145 396.051C196.668 396.051 195.684 396.666 195.701 397.598C195.684 398.547 196.668 399.127 198.145 399.127C199.621 399.127 200.588 398.547 200.605 397.598C200.588 396.666 199.621 396.051 198.145 396.051ZM221.365 393.256C221.365 395.453 224.248 397.369 227.061 397.756L226.498 398.881C224.072 398.477 221.673 397.132 220.662 395.207C219.66 397.141 217.252 398.477 214.826 398.881L214.264 397.756C217.076 397.369 219.941 395.488 219.941 393.256V392.359H221.365V393.256ZM227.764 400.604V401.764H221.295V407.424H219.941V401.764H213.525V400.604H227.764ZM238.891 402.291C238.891 403.671 239.629 405.139 241.123 405.982C242.6 405.06 243.391 403.504 243.391 402.291V401.43H244.744V402.291C244.744 403.891 245.922 405.508 247.926 406.193L247.24 407.213C245.676 406.659 244.577 405.569 244.041 404.26C243.558 405.525 242.6 406.721 241.158 407.336C239.638 406.756 238.671 405.604 238.205 404.295C237.651 405.561 236.57 406.65 235.076 407.213L234.373 406.193C236.342 405.455 237.537 403.785 237.555 402.291V401.43H238.891V402.291ZM246.502 391.814V400.744H245.131V391.814H246.502ZM238.064 392.729C240.438 392.729 242.16 394.205 242.16 396.385C242.16 398.529 240.438 400.006 238.064 400.006C235.691 400.006 233.969 398.529 233.969 396.385C233.969 394.205 235.691 392.729 238.064 392.729ZM238.064 393.906C236.465 393.889 235.305 394.926 235.322 396.385C235.305 397.826 236.465 398.846 238.064 398.863C239.646 398.846 240.807 397.826 240.807 396.385C240.807 394.926 239.646 393.889 238.064 393.906ZM261.777 399.127V400.252H256.943V404.295H263.465V405.455H249.156V404.295H255.59V400.252H250.984V393.08H261.619V394.205H252.373V399.127H261.777ZM279.004 400.41V401.553H264.695V400.41H271.164V398.758H266.559V394.943H275.77V393.326H266.506V392.201H277.158V395.98H267.93V397.65H277.492V398.758H272.518V400.41H279.004ZM277.246 402.748V407.283H275.857V403.873H266.295V402.748H277.246ZM298.146 391.797V407.424H296.828V399.232H294.525V406.615H293.26V392.148H294.525V398.09H296.828V391.797H298.146ZM291.221 393.713V394.855H286.738V402.379C288.892 402.37 290.386 402.291 292.117 401.939L292.24 403.1C290.359 403.486 288.76 403.557 286.369 403.557H285.367V393.713H291.221ZM314.934 394.258V395.418H312.561V397.545H314.934V398.723H312.561V401.271H311.189V391.814H312.561V394.258H314.934ZM308.096 392.781V397H302.4V399.18C305.178 399.18 307.19 399.083 309.625 398.67L309.766 399.83C307.252 400.252 305.16 400.34 302.26 400.34H301.047V395.91H306.742V393.924H301.012V392.781H308.096ZM307.551 401.729C310.732 401.729 312.701 402.783 312.701 404.576C312.701 406.369 310.732 407.389 307.551 407.389C304.316 407.389 302.365 406.369 302.365 404.576C302.365 402.783 304.316 401.729 307.551 401.729ZM307.551 402.818C305.16 402.818 303.701 403.469 303.719 404.576C303.701 405.666 305.16 406.316 307.551 406.316C309.924 406.316 311.365 405.666 311.365 404.576C311.365 403.469 309.924 402.818 307.551 402.818ZM321.016 392.939C323.477 392.939 325.217 394.434 325.217 396.613C325.217 398.793 323.477 400.287 321.016 400.287C318.555 400.287 316.779 398.793 316.797 396.613C316.779 394.434 318.555 392.939 321.016 392.939ZM321.016 394.152C319.346 394.152 318.133 395.154 318.15 396.613C318.133 398.072 319.346 399.074 321.016 399.074C322.668 399.074 323.863 398.072 323.863 396.613C323.863 395.154 322.668 394.152 321.016 394.152ZM328.715 391.797V407.459H327.344V391.797H328.715ZM315.988 402.836C318.871 402.836 322.844 402.818 326.307 402.309L326.412 403.328C322.844 403.996 318.994 404.014 316.182 404.014L315.988 402.836ZM348.596 399.127V400.252H343.762V404.295H350.283V405.455H335.975V404.295H342.408V400.252H337.803V393.08H348.438V394.205H339.191V399.127H348.596ZM357.033 395.998C357.033 398.828 358.844 401.676 361.111 402.713L360.285 403.838C358.51 402.924 357.042 401.052 356.348 398.828C355.653 401.166 354.186 403.17 352.41 404.119L351.514 403.012C353.799 401.887 355.627 398.881 355.627 395.998V393.15H357.033V395.998ZM364.486 391.797V407.459H363.115V398.266H359.406V397.141H363.115V391.797H364.486ZM381.379 399.057V400.146H367.07V399.057H381.379ZM379.586 401.395V404.717H370.199V406.211H380.096V407.213H368.811V403.768H378.215V402.432H368.793V401.395H379.586ZM379.533 392.271V395.506H370.305V396.877H379.814V397.879H368.934V394.557H378.145V393.273H368.881V392.271H379.533ZM400.521 391.797V407.424H399.203V391.797H400.521ZM397.357 392.184V406.615H396.057V398.564H393.42V397.439H396.057V392.184H397.357ZM391.75 396.262C391.75 398.969 392.963 401.658 395.125 402.906L394.281 403.926C392.743 403.003 391.653 401.315 391.117 399.32C390.546 401.474 389.412 403.311 387.848 404.295L386.969 403.258C389.148 401.957 390.414 399.109 390.414 396.262V394.785H387.408V393.643H394.615V394.785H391.75V396.262ZM409.785 401.676C413.143 401.676 415.27 402.73 415.27 404.541C415.27 406.334 413.143 407.389 409.785 407.389C406.445 407.389 404.318 406.334 404.318 404.541C404.318 402.73 406.445 401.676 409.785 401.676ZM409.785 402.73C407.289 402.748 405.672 403.434 405.689 404.541C405.672 405.631 407.289 406.299 409.785 406.299C412.281 406.299 413.881 405.631 413.898 404.541C413.881 403.434 412.281 402.748 409.785 402.73ZM415.146 392.605V393.924C415.146 395.189 415.146 396.455 414.707 398.072L413.354 397.914C413.775 396.297 413.775 395.154 413.775 393.924V393.73H404.424V392.605H415.146ZM416.957 399.092V400.217H402.736V399.092H408.625V396.068H409.979V399.092H416.957ZM430.369 391.797V398.248H432.988V399.391H430.369V407.424H428.998V391.797H430.369ZM427.486 394.311V395.453H418.188V394.311H422.213V391.99H423.584V394.311H427.486ZM422.916 396.754C425.131 396.754 426.73 398.23 426.748 400.34C426.73 402.449 425.131 403.926 422.916 403.926C420.684 403.926 419.066 402.449 419.084 400.34C419.066 398.23 420.684 396.754 422.916 396.754ZM422.916 397.914C421.457 397.914 420.385 398.934 420.402 400.34C420.385 401.764 421.457 402.766 422.916 402.748C424.357 402.766 425.412 401.764 425.43 400.34C425.412 398.934 424.357 397.914 422.916 397.914ZM441.584 393.361V395.559H445.416V391.797H446.787V407.459H445.416V401.008H441.584V403.469H434.465V393.361H441.584ZM435.836 394.451V402.361H440.248V394.451H435.836ZM441.584 399.865H445.416V396.701H441.584V399.865ZM120.924 430.078V431.203H114.402V436.424H113.049V431.203H106.615V430.078H120.924ZM109.814 421.447V423.609H117.689V421.447H119.078V428.18H108.443V421.447H109.814ZM109.814 427.055H117.689V424.734H109.814V427.055ZM134.406 420.797V424.629H136.762V425.789H134.406V429.674H133.035V420.797H134.406ZM129.854 421.869V422.994H124.299V427.6C127.437 427.617 129.221 427.503 131.312 427.09L131.488 428.215C129.291 428.654 127.428 428.742 124.141 428.742H122.928V421.869H129.854ZM134.406 430.482V436.213H124.545V430.482H134.406ZM125.898 431.607V435.088H133.035V431.607H125.898ZM145.375 429.973V431.924H148.223V429.973H149.506V436.213H144.074V429.973H145.375ZM145.375 435.123H148.223V432.979H145.375V435.123ZM153.971 431.203C153.953 432.855 154.938 434.578 156.854 435.281L156.133 436.336C154.691 435.756 153.742 434.657 153.268 433.348C152.767 434.631 151.817 435.738 150.438 436.336L149.717 435.281C151.598 434.508 152.6 432.785 152.6 431.203V429.867H153.971V431.203ZM146.57 421.5C148.662 421.5 150.262 422.687 150.561 424.488H153.83V420.797H155.219V429.076H153.83V425.631H150.578C150.297 427.477 148.688 428.689 146.57 428.689C144.197 428.689 142.51 427.23 142.51 425.086C142.51 422.959 144.197 421.5 146.57 421.5ZM146.57 422.66C144.971 422.66 143.828 423.662 143.828 425.086C143.828 426.527 144.971 427.547 146.57 427.547C148.152 427.547 149.277 426.527 149.277 425.086C149.277 423.662 148.152 422.66 146.57 422.66ZM170.705 420.797V436.459H169.316V420.797H170.705ZM162.391 422.01C164.711 422.027 166.381 424.137 166.381 427.459C166.381 430.781 164.711 432.891 162.391 432.891C160.053 432.891 158.4 430.781 158.4 427.459C158.4 424.137 160.053 422.027 162.391 422.01ZM162.391 423.24C160.826 423.258 159.736 424.91 159.736 427.459C159.736 430.008 160.826 431.66 162.391 431.66C163.955 431.66 165.045 430.008 165.045 427.459C165.045 424.91 163.955 423.258 162.391 423.24ZM189.988 420.797V426.984H192.607V428.145H189.988V436.459H188.617V420.797H189.988ZM185.875 422.326V423.469H179.951V431.379C182.781 431.379 184.785 431.247 187.105 430.816L187.281 432.012C184.838 432.451 182.781 432.539 179.811 432.539H178.58V422.326H185.875ZM207.689 428.602V429.727H193.451V428.602H199.885V426.703H195.262V421.43H205.932V422.572H196.633V425.561H206.072V426.703H201.256V428.602H207.689ZM205.949 431.256V436.547H204.578V432.381H195.033V431.256H205.949ZM214.123 421.939C216.584 421.939 218.324 423.434 218.324 425.613C218.324 427.793 216.584 429.287 214.123 429.287C211.662 429.287 209.887 427.793 209.904 425.613C209.887 423.434 211.662 421.939 214.123 421.939ZM214.123 423.152C212.453 423.152 211.24 424.154 211.258 425.613C211.24 427.072 212.453 428.074 214.123 428.074C215.775 428.074 216.971 427.072 216.971 425.613C216.971 424.154 215.775 423.152 214.123 423.152ZM221.822 420.797V436.459H220.451V420.797H221.822ZM209.096 431.836C211.979 431.836 215.951 431.818 219.414 431.309L219.52 432.328C215.951 432.996 212.102 433.014 209.289 433.014L209.096 431.836ZM243.32 427.459V428.602H229.082V427.459H243.32ZM241.492 430.043V433.576H232.211V435.158H241.967V436.248H230.84V432.539H240.139V431.098H230.805V430.043H241.492ZM242.055 421.412V422.537H237.01C237.15 424.146 239.787 425.376 242.564 425.596L242.107 426.686C239.55 426.422 237.142 425.429 236.219 423.855C235.27 425.429 232.87 426.422 230.312 426.686L229.855 425.596C232.615 425.376 235.243 424.146 235.428 422.537H230.383V421.412H242.055ZM257.576 420.797V436.424H256.205V428.232H252.479V427.09H256.205V420.797H257.576ZM252.514 422.502C252.514 426.932 250.633 430.869 245.412 433.453L244.656 432.346C248.893 430.298 250.853 427.292 251.125 423.627H245.342V422.502H252.514ZM267.314 421.096C270.707 421.096 272.834 422.186 272.834 424.049C272.834 425.877 270.707 426.949 267.314 426.949C263.922 426.949 261.777 425.877 261.777 424.049C261.777 422.186 263.922 421.096 267.314 421.096ZM267.314 422.186C264.783 422.186 263.184 422.871 263.201 424.049C263.184 425.191 264.783 425.859 267.314 425.859C269.811 425.859 271.428 425.191 271.428 424.049C271.428 422.871 269.811 422.186 267.314 422.186ZM272.693 431.08V436.213H261.936V431.08H266.629V429.287H260.195V428.145H274.434V429.287H267.982V431.08H272.693ZM263.307 432.188V435.088H271.34V432.188H263.307ZM282.871 421.078C286.352 421.078 288.391 422.027 288.391 423.768C288.391 425.543 286.352 426.492 282.871 426.51C279.391 426.492 277.334 425.543 277.334 423.768C277.334 422.027 279.391 421.078 282.871 421.078ZM282.871 422.115C280.27 422.115 278.758 422.748 278.775 423.768C278.758 424.857 280.27 425.455 282.871 425.455C285.455 425.455 286.984 424.857 286.984 423.768C286.984 422.748 285.455 422.115 282.871 422.115ZM289.99 427.564V428.689H275.752V427.564H289.99ZM288.162 430.043V433.541H278.881V435.158H288.637V436.248H277.51V432.521H286.809V431.098H277.475V430.043H288.162ZM308.781 420.814V430.201H307.393V428.092H303.244V426.949H307.393V424.84H303.402C302.374 427.354 299.957 429.173 296.617 430.166L296.037 429.076C299.816 427.951 302.163 425.842 302.453 423.135H296.828V421.975H303.947C303.947 422.59 303.877 423.179 303.754 423.732H307.393V420.814H308.781ZM303.666 430.359C306.83 430.359 308.869 431.484 308.869 433.348C308.869 435.229 306.83 436.354 303.666 436.354C300.467 436.354 298.445 435.229 298.445 433.348C298.445 431.484 300.467 430.359 303.666 430.359ZM303.666 431.467C301.311 431.449 299.799 432.17 299.799 433.348C299.799 434.525 301.311 435.229 303.666 435.229C305.986 435.229 307.48 434.525 307.498 433.348C307.48 432.17 305.986 431.449 303.666 431.467ZM324.338 420.797V430.271H322.949V426.703H320.295V425.561H322.949V420.797H324.338ZM324.338 431.115V436.213H314.125V431.115H324.338ZM315.496 432.223V435.088H322.984V432.223H315.496ZM320.523 422.449V423.574H311.4V422.449H315.285V420.656H316.639V422.449H320.523ZM315.953 424.383C318.08 424.383 319.574 425.525 319.592 427.16C319.574 428.848 318.08 429.955 315.953 429.955C313.826 429.955 312.332 428.848 312.332 427.16C312.332 425.525 313.826 424.383 315.953 424.383ZM315.953 425.455C314.6 425.455 313.65 426.158 313.65 427.16C313.65 428.197 314.6 428.883 315.953 428.9C317.307 428.883 318.256 428.197 318.256 427.16C318.256 426.158 317.307 425.455 315.953 425.455ZM339.156 420.744V424.541H341.529V425.684H339.156V429.393H337.785V420.744H339.156ZM339.156 430.201V433.664H330.578V435.193H339.736V436.248H329.225V432.645H337.785V431.238H329.189V430.201H339.156ZM336.291 422.221V423.328H326.975V422.221H330.947V420.639H332.318V422.221H336.291ZM331.633 424.031C333.9 424.031 335.377 425.016 335.395 426.598C335.377 428.18 333.9 429.164 331.633 429.164C329.348 429.164 327.854 428.18 327.871 426.598C327.854 425.016 329.348 424.031 331.633 424.031ZM331.633 425.051C330.156 425.051 329.172 425.666 329.189 426.598C329.172 427.547 330.156 428.127 331.633 428.127C333.109 428.127 334.076 427.547 334.094 426.598C334.076 425.666 333.109 425.051 331.633 425.051ZM354.854 422.256C354.854 424.453 357.736 426.369 360.549 426.756L359.986 427.881C357.561 427.477 355.161 426.132 354.15 424.207C353.148 426.141 350.74 427.477 348.314 427.881L347.752 426.756C350.564 426.369 353.43 424.488 353.43 422.256V421.359H354.854V422.256ZM361.252 429.604V430.764H354.783V436.424H353.43V430.764H347.014V429.604H361.252ZM372.379 431.291C372.379 432.671 373.117 434.139 374.611 434.982C376.088 434.06 376.879 432.504 376.879 431.291V430.43H378.232V431.291C378.232 432.891 379.41 434.508 381.414 435.193L380.729 436.213C379.164 435.659 378.065 434.569 377.529 433.26C377.046 434.525 376.088 435.721 374.646 436.336C373.126 435.756 372.159 434.604 371.693 433.295C371.14 434.561 370.059 435.65 368.564 436.213L367.861 435.193C369.83 434.455 371.025 432.785 371.043 431.291V430.43H372.379V431.291ZM379.99 420.814V429.744H378.619V420.814H379.99ZM371.553 421.729C373.926 421.729 375.648 423.205 375.648 425.385C375.648 427.529 373.926 429.006 371.553 429.006C369.18 429.006 367.457 427.529 367.457 425.385C367.457 423.205 369.18 421.729 371.553 421.729ZM371.553 422.906C369.953 422.889 368.793 423.926 368.811 425.385C368.793 426.826 369.953 427.846 371.553 427.863C373.135 427.846 374.295 426.826 374.295 425.385C374.295 423.926 373.135 422.889 371.553 422.906ZM395.266 428.127V429.252H390.432V433.295H396.953V434.455H382.645V433.295H389.078V429.252H384.473V422.08H395.107V423.205H385.861V428.127H395.266ZM412.492 429.41V430.553H398.184V429.41H404.652V427.758H400.047V423.943H409.258V422.326H399.994V421.201H410.646V424.98H401.418V426.65H410.98V427.758H406.006V429.41H412.492ZM410.734 431.748V436.283H409.346V432.873H399.783V431.748H410.734ZM426.115 422.256C426.115 424.453 428.998 426.369 431.811 426.756L431.248 427.881C428.822 427.477 426.423 426.132 425.412 424.207C424.41 426.141 422.002 427.477 419.576 427.881L419.014 426.756C421.826 426.369 424.691 424.488 424.691 422.256V421.359H426.115V422.256ZM432.514 429.604V430.764H426.045V436.424H424.691V430.764H418.275V429.604H432.514ZM438.139 421.535C440.239 421.518 441.83 422.739 442.129 424.541H445.398V420.797H446.787V429.182H445.398V425.684H442.146C441.865 427.529 440.257 428.76 438.139 428.76C435.766 428.76 434.078 427.283 434.078 425.139C434.078 423.012 435.766 421.518 438.139 421.535ZM438.139 422.713C436.539 422.695 435.396 423.697 435.396 425.139C435.396 426.562 436.539 427.6 438.139 427.6C439.721 427.6 440.846 426.562 440.846 425.139C440.846 423.697 439.721 422.695 438.139 422.713ZM438.104 429.973V431.959H445.398V429.973H446.787V436.213H436.715V429.973H438.104ZM438.104 435.088H445.398V433.066H438.104V435.088ZM113.752 450.078C117.232 450.078 119.271 451.027 119.271 452.768C119.271 454.543 117.232 455.492 113.752 455.51C110.271 455.492 108.215 454.543 108.215 452.768C108.215 451.027 110.271 450.078 113.752 450.078ZM113.752 451.115C111.15 451.115 109.639 451.748 109.656 452.768C109.639 453.857 111.15 454.455 113.752 454.455C116.336 454.455 117.865 453.857 117.865 452.768C117.865 451.748 116.336 451.115 113.752 451.115ZM120.871 456.564V457.689H106.633V456.564H120.871ZM119.043 459.043V462.541H109.762V464.158H119.518V465.248H108.391V461.521H117.689V460.098H108.355V459.043H119.043ZM140.998 457.742V458.885H134.652V462.084H133.264V458.885H126.689V457.742H140.998ZM139.398 463.912V465.09H128.535V460.52H129.924V463.912H139.398ZM133.826 450.201C137.166 450.219 139.328 451.414 139.328 453.348C139.328 455.281 137.166 456.459 133.826 456.459C130.486 456.459 128.307 455.281 128.307 453.348C128.307 451.414 130.486 450.219 133.826 450.201ZM133.826 451.326C131.4 451.326 129.766 452.1 129.783 453.348C129.766 454.561 131.4 455.334 133.826 455.334C136.252 455.334 137.869 454.561 137.869 453.348C137.869 452.1 136.252 451.326 133.826 451.326ZM146.57 450.746C147.889 450.737 149.014 451.229 149.734 452.064H153.83V449.797H155.219V459.061H153.83V456.828H149.752C149.014 457.663 147.889 458.155 146.57 458.146C144.232 458.164 142.51 456.635 142.51 454.455C142.51 452.258 144.232 450.729 146.57 450.746ZM146.57 451.941C144.971 451.924 143.828 452.979 143.828 454.455C143.828 455.914 144.971 456.969 146.57 456.969C148.117 456.969 149.277 455.914 149.277 454.455C149.277 452.979 148.117 451.924 146.57 451.941ZM150.033 459.43C153.268 459.43 155.271 460.52 155.271 462.4C155.271 464.299 153.268 465.389 150.033 465.389C146.781 465.389 144.795 464.299 144.795 462.4C144.795 460.52 146.781 459.43 150.033 459.43ZM150.033 460.502C147.643 460.502 146.148 461.223 146.148 462.4C146.148 463.578 147.643 464.281 150.033 464.281C152.441 464.281 153.918 463.578 153.918 462.4C153.918 461.223 152.441 460.502 150.033 460.502ZM150.402 453.189C150.534 453.576 150.613 453.998 150.613 454.455C150.613 454.895 150.534 455.308 150.402 455.686H153.83V453.189H150.402ZM170.037 449.797V453.805H172.393V454.982H170.037V458.885H168.666V449.797H170.037ZM161.529 459.57V461.24H168.666V459.57H170.037V465.213H160.158V459.57H161.529ZM161.529 464.105H168.666V462.33H161.529V464.105ZM167.172 451.414V452.557H157.855V451.414H161.828V449.656H163.199V451.414H167.172ZM162.514 453.277C164.764 453.277 166.258 454.35 166.275 456.02C166.258 457.689 164.764 458.762 162.514 458.762C160.246 458.762 158.734 457.689 158.752 456.02C158.734 454.35 160.246 453.277 162.514 453.277ZM162.514 454.35C161.037 454.332 160.053 455.018 160.07 456.02C160.053 457.039 161.037 457.707 162.514 457.707C163.973 457.707 164.957 457.039 164.975 456.02C164.957 455.018 163.973 454.332 162.514 454.35ZM186.262 449.797V465.424H184.891V449.797H186.262ZM175.75 451.344V460.203C178.132 460.194 180.602 460.001 183.221 459.447L183.414 460.625C180.637 461.205 178.158 461.398 175.662 461.398H174.396V451.344H175.75ZM201.027 449.797V455.984H203.646V457.145H201.027V465.459H199.656V449.797H201.027ZM196.914 451.326V452.469H190.99V460.379C193.82 460.379 195.824 460.247 198.145 459.816L198.32 461.012C195.877 461.451 193.82 461.539 190.85 461.539H189.619V451.326H196.914Z" fill="black"/>
<path d="M106 144H441" stroke="url(#paint3_linear_462_1166)"/>
<rect x="106" y="309" width="120" height="50" rx="10" fill="white"/>
<path d="M121.984 340H119.453L123.375 328.688H126.391L130.297 340H127.781L126.938 337.391H122.844L121.984 340ZM123.438 335.562H126.344L124.922 331.234H124.844L123.438 335.562ZM136.188 334.031C136.094 333.438 135.562 333.047 134.797 333.047C134.047 333.047 133.469 333.406 133.484 333.922C133.469 334.297 133.781 334.594 134.578 334.766L136.094 335.078C137.734 335.422 138.531 336.156 138.547 337.375C138.531 339.047 137.031 340.172 134.781 340.172C132.484 340.172 131.141 339.141 130.953 337.484H133.281C133.391 338.156 133.938 338.5 134.781 338.5C135.625 338.5 136.188 338.156 136.188 337.609C136.188 337.172 135.828 336.906 135.031 336.734L133.625 336.453C132.016 336.141 131.172 335.297 131.188 334.047C131.172 332.422 132.578 331.406 134.766 331.406C136.906 331.406 138.234 332.422 138.359 334.031H136.188ZM144.812 334.031C144.719 333.438 144.188 333.047 143.422 333.047C142.672 333.047 142.094 333.406 142.109 333.922C142.094 334.297 142.406 334.594 143.203 334.766L144.719 335.078C146.359 335.422 147.156 336.156 147.172 337.375C147.156 339.047 145.656 340.172 143.406 340.172C141.109 340.172 139.766 339.141 139.578 337.484H141.906C142.016 338.156 142.562 338.5 143.406 338.5C144.25 338.5 144.812 338.156 144.812 337.609C144.812 337.172 144.453 336.906 143.656 336.734L142.25 336.453C140.641 336.141 139.797 335.297 139.812 334.047C139.797 332.422 141.203 331.406 143.391 331.406C145.531 331.406 146.859 332.422 146.984 334.031H144.812ZM152.438 340.172C149.844 340.172 148.25 338.484 148.25 335.797C148.25 333.172 149.859 331.406 152.344 331.406C154.578 331.406 156.328 332.812 156.328 335.703V336.359H150.531C150.531 337.641 151.297 338.438 152.484 338.438C153.266 338.438 153.828 338.094 154.062 337.578H156.266C155.938 339.141 154.531 340.172 152.438 340.172ZM150.531 334.906H154.141C154.141 333.875 153.422 333.141 152.391 333.141C151.328 333.141 150.57 333.93 150.531 334.906ZM162.625 334.031C162.531 333.438 162 333.047 161.234 333.047C160.484 333.047 159.906 333.406 159.922 333.922C159.906 334.297 160.219 334.594 161.016 334.766L162.531 335.078C164.172 335.422 164.969 336.156 164.984 337.375C164.969 339.047 163.469 340.172 161.219 340.172C158.922 340.172 157.578 339.141 157.391 337.484H159.719C159.828 338.156 160.375 338.5 161.219 338.5C162.062 338.5 162.625 338.156 162.625 337.609C162.625 337.172 162.266 336.906 161.469 336.734L160.062 336.453C158.453 336.141 157.609 335.297 157.625 334.047C157.609 332.422 159.016 331.406 161.203 331.406C163.344 331.406 164.672 332.422 164.797 334.031H162.625ZM171.25 334.031C171.156 333.438 170.625 333.047 169.859 333.047C169.109 333.047 168.531 333.406 168.547 333.922C168.531 334.297 168.844 334.594 169.641 334.766L171.156 335.078C172.797 335.422 173.594 336.156 173.609 337.375C173.594 339.047 172.094 340.172 169.844 340.172C167.547 340.172 166.203 339.141 166.016 337.484H168.344C168.453 338.156 169 338.5 169.844 338.5C170.688 338.5 171.25 338.156 171.25 337.609C171.25 337.172 170.891 336.906 170.094 336.734L168.688 336.453C167.078 336.141 166.234 335.297 166.25 334.047C166.234 332.422 167.641 331.406 169.828 331.406C171.969 331.406 173.297 332.422 173.422 334.031H171.25ZM175.031 340V331.516H177.234V333H177.328C177.688 332.016 178.547 331.406 179.688 331.406C180.859 331.406 181.719 332.016 182 333H182.078C182.438 332.031 183.391 331.406 184.641 331.406C186.219 331.406 187.312 332.453 187.312 334.297V340H185V334.75C185 333.781 184.438 333.312 183.672 333.312C182.797 333.312 182.297 333.922 182.297 334.812V340H180.047V334.688C180.047 333.844 179.516 333.312 178.734 333.312C177.953 333.312 177.344 333.938 177.344 334.906V340H175.031ZM192.938 340.172C190.344 340.172 188.75 338.484 188.75 335.797C188.75 333.172 190.359 331.406 192.844 331.406C195.078 331.406 196.828 332.812 196.828 335.703V336.359H191.031C191.031 337.641 191.797 338.438 192.984 338.438C193.766 338.438 194.328 338.094 194.562 337.578H196.766C196.438 339.141 195.031 340.172 192.938 340.172ZM191.031 334.906H194.641C194.641 333.875 193.922 333.141 192.891 333.141C191.828 333.141 191.07 333.93 191.031 334.906ZM200.594 335.094V340H198.281V331.516H200.484V333H200.578C200.969 332.016 201.875 331.406 203.125 331.406C204.891 331.406 206.062 332.609 206.047 334.594V340H203.75V335C203.75 333.953 203.172 333.328 202.219 333.328C201.25 333.328 200.594 333.969 200.594 335.094ZM212.312 331.516V333.25H210.719V337.391C210.719 338.062 211.047 338.234 211.516 338.25C211.75 338.25 212.156 338.234 212.438 338.203V340.031C212.188 340.078 211.781 340.109 211.203 340.109C209.531 340.109 208.391 339.359 208.406 337.719V333.25H207.234V331.516H208.406V329.484H210.719V331.516H212.312Z" fill="url(#paint4_linear_462_1166)"/>
<rect x="235" y="309" width="85" height="49" rx="10" fill="white"/>
<path d="M252.562 339.5H250.031L253.953 328.188H256.969L260.875 339.5H258.359L257.516 336.891H253.422L252.562 339.5ZM254.016 335.062H256.922L255.5 330.734H255.422L254.016 335.062ZM265.531 339.672C262.938 339.672 261.375 337.875 261.375 335.281C261.375 332.688 262.953 330.906 265.531 330.906C267.719 330.906 269.203 332.188 269.297 334.125H267.125C266.984 333.281 266.438 332.703 265.562 332.703C264.453 332.703 263.719 333.641 263.719 335.25C263.719 336.891 264.438 337.828 265.562 337.828C266.375 337.828 266.984 337.328 267.125 336.422H269.297C269.188 338.344 267.781 339.672 265.531 339.672ZM274.547 339.672C271.953 339.672 270.391 337.875 270.391 335.281C270.391 332.688 271.969 330.906 274.547 330.906C276.734 330.906 278.219 332.188 278.312 334.125H276.141C276 333.281 275.453 332.703 274.578 332.703C273.469 332.703 272.734 333.641 272.734 335.25C272.734 336.891 273.453 337.828 274.578 337.828C275.391 337.828 276 337.328 276.141 336.422H278.312C278.203 338.344 276.797 339.672 274.547 339.672ZM283.594 339.672C281 339.672 279.406 337.984 279.406 335.297C279.406 332.672 281.016 330.906 283.5 330.906C285.734 330.906 287.484 332.312 287.484 335.203V335.859H281.688C281.688 337.141 282.453 337.938 283.641 337.938C284.422 337.938 284.984 337.594 285.219 337.078H287.422C287.094 338.641 285.688 339.672 283.594 339.672ZM281.688 334.406H285.297C285.297 333.375 284.578 332.641 283.547 332.641C282.484 332.641 281.727 333.43 281.688 334.406ZM293.781 333.531C293.688 332.938 293.156 332.547 292.391 332.547C291.641 332.547 291.062 332.906 291.078 333.422C291.062 333.797 291.375 334.094 292.172 334.266L293.688 334.578C295.328 334.922 296.125 335.656 296.141 336.875C296.125 338.547 294.625 339.672 292.375 339.672C290.078 339.672 288.734 338.641 288.547 336.984H290.875C290.984 337.656 291.531 338 292.375 338C293.219 338 293.781 337.656 293.781 337.109C293.781 336.672 293.422 336.406 292.625 336.234L291.219 335.953C289.609 335.641 288.766 334.797 288.781 333.547C288.766 331.922 290.172 330.906 292.359 330.906C294.5 330.906 295.828 331.922 295.953 333.531H293.781ZM302.406 333.531C302.312 332.938 301.781 332.547 301.016 332.547C300.266 332.547 299.688 332.906 299.703 333.422C299.688 333.797 300 334.094 300.797 334.266L302.312 334.578C303.953 334.922 304.75 335.656 304.766 336.875C304.75 338.547 303.25 339.672 301 339.672C298.703 339.672 297.359 338.641 297.172 336.984H299.5C299.609 337.656 300.156 338 301 338C301.844 338 302.406 337.656 302.406 337.109C302.406 336.672 302.047 336.406 301.25 336.234L299.844 335.953C298.234 335.641 297.391 334.797 297.406 333.547C297.391 331.922 298.797 330.906 300.984 330.906C303.125 330.906 304.453 331.922 304.578 333.531H302.406Z" fill="url(#paint5_linear_462_1166)"/>
<rect x="329" y="309" width="112" height="50" rx="10" fill="white"/>
<path d="M349.414 340H346.883L350.805 328.688H353.82L357.727 340H355.211L354.367 337.391H350.273L349.414 340ZM350.867 335.562H353.773L352.352 331.234H352.273L350.867 335.562ZM362.383 340.172C359.789 340.172 358.227 338.375 358.227 335.781C358.227 333.188 359.805 331.406 362.383 331.406C364.57 331.406 366.055 332.688 366.148 334.625H363.977C363.836 333.781 363.289 333.203 362.414 333.203C361.305 333.203 360.57 334.141 360.57 335.75C360.57 337.391 361.289 338.328 362.414 338.328C363.227 338.328 363.836 337.828 363.977 336.922H366.148C366.039 338.844 364.633 340.172 362.383 340.172ZM372.055 331.516V333.25H370.461V337.391C370.461 338.062 370.789 338.234 371.258 338.25C371.492 338.25 371.898 338.234 372.18 338.203V340.031C371.93 340.078 371.523 340.109 370.945 340.109C369.273 340.109 368.133 339.359 368.148 337.719V333.25H366.977V331.516H368.148V329.484H370.461V331.516H372.055ZM373.508 340V331.516H375.82V340H373.508ZM374.664 330.406C373.961 330.406 373.398 329.875 373.398 329.234C373.398 328.578 373.961 328.047 374.664 328.047C375.352 328.047 375.914 328.578 375.914 329.234C375.914 329.875 375.352 330.406 374.664 330.406ZM385.492 331.516L382.508 340H379.914L376.945 331.516H379.383L381.164 337.609H381.258L383.039 331.516H385.492ZM385.977 337.625C385.977 335.734 387.508 335.109 389.133 335.016C389.742 334.977 390.883 334.922 391.242 334.906V334.219C391.227 333.516 390.742 333.094 389.883 333.094C389.102 333.094 388.602 333.453 388.477 334.031H386.273C386.414 332.562 387.695 331.406 389.945 331.406C391.789 331.406 393.539 332.234 393.539 334.281V340H391.352V338.828H391.289C390.867 339.609 390.07 340.156 388.805 340.156C387.18 340.156 385.977 339.312 385.977 337.625ZM388.195 337.562C388.195 338.219 388.727 338.562 389.461 338.562C390.508 338.562 391.258 337.859 391.242 336.969V336.344C390.891 336.359 389.906 336.414 389.508 336.453C388.711 336.531 388.195 336.906 388.195 337.562ZM399.773 331.516V333.25H398.18V337.391C398.18 338.062 398.508 338.234 398.977 338.25C399.211 338.25 399.617 338.234 399.898 338.203V340.031C399.648 340.078 399.242 340.109 398.664 340.109C396.992 340.109 395.852 339.359 395.867 337.719V333.25H394.695V331.516H395.867V329.484H398.18V331.516H399.773ZM401.227 340V331.516H403.539V340H401.227ZM402.383 330.406C401.68 330.406 401.117 329.875 401.117 329.234C401.117 328.578 401.68 328.047 402.383 328.047C403.07 328.047 403.633 328.578 403.633 329.234C403.633 329.875 403.07 330.406 402.383 330.406ZM409.148 340.172C406.586 340.172 404.992 338.406 404.992 335.781C404.992 333.156 406.586 331.406 409.148 331.406C411.711 331.406 413.32 333.156 413.32 335.781C413.32 338.406 411.711 340.172 409.148 340.172ZM409.164 338.375C410.352 338.375 410.961 337.266 410.961 335.781C410.961 334.281 410.352 333.172 409.164 333.172C407.961 333.172 407.336 334.281 407.336 335.781C407.336 337.266 407.961 338.375 409.164 338.375ZM417.086 335.094V340H414.773V331.516H416.977V333H417.07C417.461 332.016 418.367 331.406 419.617 331.406C421.383 331.406 422.555 332.609 422.539 334.594V340H420.242V335C420.242 333.953 419.664 333.328 418.711 333.328C417.742 333.328 417.086 333.969 417.086 335.094Z" fill="url(#paint6_linear_462_1166)"/>
</g>
<defs>
<filter id="filter0_d_462_1166" x="0" y="0" width="547" height="593" filterUnits="userSpaceOnUse" color-interpolation-filters="sRGB">
<feFlood flood-opacity="0" result="BackgroundImageFix"/>
<feColorMatrix in="SourceAlpha" type="matrix" values="0 0 0 0 0 0 0 0 0 0 0 0 0 0 0 0 0 0 127 0" result="hardAlpha"/>
<feOffset dy="10"/>
<feGaussianBlur stdDeviation="35"/>
<feComposite in2="hardAlpha" operator="out"/>
<feColorMatrix type="matrix" values="0 0 0 0 0.192157 0 0 0 0 0.509804 0 0 0 0 0.964706 0 0 0 0.3 0"/>
<feBlend mode="normal" in2="BackgroundImageFix" result="effect1_dropShadow_462_1166"/>
<feBlend mode="normal" in="SourceGraphic" in2="effect1_dropShadow_462_1166" result="shape"/>
</filter>
<linearGradient id="paint0_linear_462_1166" x1="88.5" y1="87.609" x2="413.475" y2="552.631" gradientUnits="userSpaceOnUse">
<stop stop-color="#3182F6"/>
<stop offset="1" stop-color="#004DBC"/>
</linearGradient>
<linearGradient id="paint1_linear_462_1166" x1="99.7288" y1="196" x2="170.593" y2="196" gradientUnits="userSpaceOnUse">
<stop stop-color="#3182F6"/>
<stop offset="1" stop-color="#A009FF"/>
</linearGradient>
<linearGradient id="paint2_linear_462_1166" x1="101" y1="305" x2="169.125" y2="305" gradientUnits="userSpaceOnUse">
<stop stop-color="#3182F6"/>
<stop offset="1" stop-color="#A009FF"/>
</linearGradient>
<linearGradient id="paint3_linear_462_1166" x1="106" y1="144.5" x2="441" y2="144.5" gradientUnits="userSpaceOnUse">
<stop stop-color="#3182F6"/>
<stop offset="1" stop-color="#A009FF"/>
</linearGradient>
<linearGradient id="paint4_linear_462_1166" x1="111.675" y1="333.5" x2="226.429" y2="333.5" gradientUnits="userSpaceOnUse">
<stop stop-color="#3182F6"/>
<stop offset="1" stop-color="#A009FF"/>
</linearGradient>
<linearGradient id="paint5_linear_462_1166" x1="240.513" y1="333" x2="318.643" y2="333" gradientUnits="userSpaceOnUse">
<stop stop-color="#3182F6"/>
<stop offset="1" stop-color="#A009FF"/>
</linearGradient>
<linearGradient id="paint6_linear_462_1166" x1="340.5" y1="333.5" x2="434.5" y2="333.5" gradientUnits="userSpaceOnUse">
<stop stop-color="#3182F6"/>
<stop offset="1" stop-color="#A009FF"/>
</linearGradient>
</defs>
</svg>
