<svg width="547" height="593" viewBox="0 0 547 593" fill="none" xmlns="http://www.w3.org/2000/svg">
<g filter="url(#filter0_d_462_1168)">
<rect x="70.5" y="60.5" width="406" height="452" rx="20.5" fill="white" stroke="url(#paint0_linear_462_1168)"/>
<rect x="71" y="255" width="405" height="257" rx="20" fill="#EDF6FF"/>
<path d="M360.281 118.484V119.516H347.562V118.484H353.297V115.297H354.5V118.484H360.281ZM359.062 109.594V110.609H354.531C354.539 112.789 356.852 114.391 359.516 114.828L359.047 115.797C356.82 115.398 354.781 114.281 353.906 112.547C353.023 114.281 350.984 115.398 348.75 115.797L348.266 114.828C350.945 114.391 353.273 112.789 353.281 110.609H348.75V109.594H353.297V107.672H354.5V109.594H359.062ZM374.062 113.984V115.016H361.391V113.984H374.062ZM372.578 111.656V112.656H363V107.938H372.484V108.969H364.203V111.656H372.578ZM367.719 116.234C370.703 116.234 372.484 117.141 372.5 118.734C372.484 120.344 370.703 121.234 367.719 121.234C364.719 121.234 362.922 120.344 362.922 118.734C362.922 117.141 364.719 116.234 367.719 116.234ZM367.719 117.188C365.484 117.203 364.156 117.766 364.172 118.734C364.156 119.719 365.484 120.266 367.719 120.266C369.922 120.266 371.266 119.719 371.266 118.734C371.266 117.766 369.922 117.203 367.719 117.188ZM383.531 108.875V109.875H375.25V108.875H378.781V107.312H380V108.875H383.531ZM379.391 110.594C381.391 110.609 382.719 111.578 382.734 113.109C382.719 114.625 381.391 115.609 379.391 115.609C377.391 115.609 376.031 114.625 376.047 113.109C376.031 111.578 377.391 110.609 379.391 110.594ZM379.391 111.547C378.078 111.562 377.203 112.172 377.219 113.109C377.203 114.031 378.078 114.625 379.391 114.625C380.688 114.625 381.562 114.031 381.578 113.109C381.562 112.172 380.688 111.562 379.391 111.547ZM386.078 107.375V111.234H388.172V112.266H386.078V116.062H384.859V107.375H386.078ZM386.078 116.828V121.266H384.859V117.828H376.984V116.828H386.078ZM400.203 108.781V110.328C400.203 112.109 400.203 113.906 399.703 116.484L398.5 116.344C399 113.891 399 112.062 399 110.328V109.797H390.375V108.781H400.203ZM401.703 118.281V119.297H389.047V118.281H392.188V113.703H393.406V118.281H395.656V113.703H396.859V118.281H401.703ZM411.391 108.688V120H409.969V110.156H409.906L407.156 111.984V110.562L409.969 108.688H411.391ZM422.219 108.875V109.875H413.938V108.875H417.469V107.312H418.688V108.875H422.219ZM418.078 110.594C420.078 110.609 421.406 111.578 421.422 113.109C421.406 114.625 420.078 115.609 418.078 115.609C416.078 115.609 414.719 114.625 414.734 113.109C414.719 111.578 416.078 110.609 418.078 110.594ZM418.078 111.547C416.766 111.562 415.891 112.172 415.906 113.109C415.891 114.031 416.766 114.625 418.078 114.625C419.375 114.625 420.25 114.031 420.266 113.109C420.25 112.172 419.375 111.562 418.078 111.547ZM424.766 107.375V111.234H426.859V112.266H424.766V116.062H423.547V107.375H424.766ZM424.766 116.828V121.266H423.547V117.828H415.672V116.828H424.766ZM439.25 107.391V117.672H438.016V112.859H434.016V111.875H438.016V110.203H434.016V109.219H438.016V107.391H439.25ZM439.625 119.938V120.969H430.297V116.797H431.531V119.938H439.625ZM429.797 108.391V114.562C431.711 114.555 433.555 114.453 435.672 114.062L435.797 115.078C433.531 115.5 431.641 115.594 429.609 115.609H428.562V108.391H429.797Z" fill="#666666"/>
<path d="M116.922 107.086V109.453H106.609V107.086H110.312V104.414H113.266V107.086H116.922ZM111.812 110.414C114.531 110.414 116.477 112.523 116.5 115.477C116.477 118.453 114.531 120.562 111.812 120.562C109.094 120.562 107.102 118.453 107.102 115.477C107.102 112.523 109.094 110.414 111.812 110.414ZM111.812 112.898C110.57 112.898 109.727 113.859 109.727 115.477C109.727 117.094 110.57 118.031 111.812 118.031C113.008 118.031 113.852 117.094 113.875 115.477C113.852 113.859 113.008 112.898 111.812 112.898ZM125.078 103.828V125.156H122.242V114.891H120.508V124.242H117.719V104.25H120.508V112.5H122.242V103.828H125.078ZM145.352 103.828V114.562H142.375V112.922H137.5V110.648H142.375V108.773H137.734C136.41 111.984 133.363 114.035 128.641 115.055L127.633 112.617C132.52 111.645 134.781 109.629 135.18 107.062H128.828V104.648H138.484C138.484 105.293 138.438 105.914 138.344 106.5H142.375V103.828H145.352ZM145.352 115.336V121.172H134.195V122.578H145.82V124.945H131.195V118.969H142.352V117.68H131.172V115.336H145.352ZM163.586 116.883C168.016 116.883 170.781 118.406 170.781 121.008C170.781 123.656 168.016 125.18 163.586 125.18C159.062 125.18 156.273 123.656 156.273 121.008C156.273 118.406 159.062 116.883 163.586 116.883ZM163.586 119.203C160.773 119.203 159.25 119.789 159.273 121.008C159.25 122.227 160.773 122.859 163.586 122.859C166.352 122.859 167.828 122.227 167.828 121.008C167.828 119.789 166.352 119.203 163.586 119.203ZM170.57 103.828V108.773H173.453V111.281H170.57V116.414H167.57V103.828H170.57ZM157.258 105.164V107.859H161.617V105.164H164.617V115.195H154.281V105.164H157.258ZM157.258 112.828H161.617V110.18H157.258V112.828ZM191.312 103.828V109.945H194.195V112.43H191.312V119.367H188.312V103.828H191.312ZM192.086 122.391V124.781H177.484V117.727H180.461V122.391H192.086ZM180.391 105.211C183.648 105.211 186.203 107.461 186.203 110.625C186.203 113.742 183.648 116.039 180.391 116.039C177.109 116.039 174.531 113.742 174.531 110.625C174.531 107.461 177.109 105.211 180.391 105.211ZM180.391 107.812C178.773 107.789 177.461 108.844 177.484 110.625C177.461 112.359 178.773 113.438 180.391 113.438C182.031 113.438 183.273 112.359 183.297 110.625C183.273 108.844 182.031 107.789 180.391 107.812ZM219.156 103.828V125.156H216.297V103.828H219.156ZM214.797 104.133V124.172H211.984V117.562H209.477C208.68 119.637 207.285 120.82 205.492 120.82C202.68 120.82 200.852 117.867 200.852 113.062C200.852 108.281 202.68 105.352 205.492 105.352C207.273 105.352 208.668 106.512 209.477 108.562H211.984V104.133H214.797ZM205.492 108.164C204.25 108.164 203.547 109.805 203.57 113.062C203.547 116.344 204.25 117.961 205.492 117.938C206.734 117.961 207.484 116.344 207.484 113.062C207.484 109.805 206.711 108.164 205.492 108.164ZM210.062 110.953C210.156 111.609 210.203 112.312 210.203 113.062C210.203 113.801 210.156 114.504 210.062 115.148H211.984V110.953H210.062ZM229.703 108.656C229.703 112.57 231.484 116.508 235.094 118.031L233.336 120.422C230.898 119.32 229.211 117.199 228.25 114.562C227.277 117.434 225.531 119.754 222.93 120.938L221.125 118.453C224.852 116.883 226.656 112.805 226.68 108.656V105.469H229.703V108.656ZM239.266 103.828V125.203H236.242V103.828H239.266ZM254.664 123.234C250.938 123.234 248.266 121.172 248.195 118.219H251.758C251.828 119.484 253.047 120.328 254.688 120.328C256.375 120.328 257.594 119.367 257.57 118.008C257.594 116.625 256.352 115.641 254.359 115.641H252.789V113.039H254.359C256.023 113.039 257.195 112.125 257.195 110.789C257.195 109.5 256.211 108.609 254.711 108.609C253.211 108.609 251.969 109.453 251.922 110.742H248.547C248.594 107.812 251.242 105.797 254.711 105.797C258.25 105.797 260.617 107.883 260.594 110.578C260.617 112.477 259.281 113.836 257.383 114.164V114.305C259.867 114.609 261.25 116.133 261.227 118.242C261.25 121.148 258.484 123.234 254.664 123.234Z" fill="black"/>
<path d="M118.406 173.234V184.062H116.422V181.375H114.5V179.797H116.422V178.375H114.5V176.766H116.422V173.234H118.406ZM114.359 174.719V176.297H106.453V174.719H109.516V173.203H111.5V174.719H114.359ZM110.484 176.797C112.438 176.797 113.844 177.953 113.859 179.594C113.844 181.234 112.438 182.375 110.484 182.375C108.547 182.375 107.141 181.234 107.156 179.594C107.141 177.953 108.547 176.797 110.484 176.797ZM110.484 178.344C109.609 178.359 109 178.797 109.016 179.594C109 180.406 109.609 180.859 110.484 180.859C111.344 180.859 111.969 180.406 111.984 179.594C111.969 178.797 111.344 178.359 110.484 178.344ZM118.703 185.594V187.188H108.938V183.141H110.953V185.594H118.703ZM132.656 173.219V187.438H130.75V180.312H129.547V186.781H127.656V182.703L126.531 184.203C125.211 183.508 124.359 182.328 123.859 180.859C123.383 182.547 122.539 183.914 121.188 184.719L119.953 183.188C122.109 181.969 122.844 179.453 122.844 176.734V176.281H120.438V174.688H126.953V176.281H124.781V176.734C124.781 179.211 125.516 181.57 127.656 182.672V173.422H129.547V178.688H130.75V173.219H132.656ZM142.953 175.453C142.953 177.172 143.953 178.828 146.203 179.531L145.141 181.078C143.633 180.578 142.578 179.609 141.969 178.359C141.352 179.797 140.25 180.922 138.625 181.469L137.547 179.906C139.922 179.109 140.938 177.219 140.953 175.266V173.969H142.953V175.453ZM149.047 173.219V176.547H150.969V178.203H149.047V181.656H147.047V173.219H149.047ZM144.391 181.938C147.328 181.938 149.188 182.953 149.188 184.688C149.188 186.438 147.328 187.438 144.391 187.438C141.391 187.438 139.516 186.438 139.516 184.688C139.516 182.953 141.391 181.938 144.391 181.938ZM144.391 183.5C142.516 183.5 141.5 183.906 141.516 184.688C141.5 185.5 142.516 185.875 144.391 185.875C146.234 185.875 147.219 185.5 147.219 184.688C147.219 183.906 146.234 183.5 144.391 183.5ZM157.875 174.703V176.281H153.984V178.422H157.594V179.953H153.984V182.516C155.586 182.5 156.75 182.445 158.141 182.25L158.281 183.875C156.641 184.141 155.234 184.188 153.078 184.188H152.078V174.703H157.875ZM163.922 173.219V187.438H162.016V180.328H160.781V186.781H158.906V173.422H160.781V178.734H162.016V173.219H163.922Z" fill="url(#paint1_linear_462_1168)"/>
<path d="M114.875 204.875V205.875H106.594V204.875H110.125V203.312H111.344V204.875H114.875ZM110.734 206.594C112.734 206.609 114.062 207.578 114.078 209.109C114.062 210.625 112.734 211.609 110.734 211.609C108.734 211.609 107.375 210.625 107.391 209.109C107.375 207.578 108.734 206.609 110.734 206.594ZM110.734 207.547C109.422 207.562 108.547 208.172 108.562 209.109C108.547 210.031 109.422 210.625 110.734 210.625C112.031 210.625 112.906 210.031 112.922 209.109C112.906 208.172 112.031 207.562 110.734 207.547ZM117.422 203.375V207.234H119.516V208.266H117.422V212.062H116.203V203.375H117.422ZM117.422 212.828V217.266H116.203V213.828H108.328V212.828H117.422ZM131.844 203.391V213.938H130.609V212.5H127.734V211.609H130.609V203.391H131.844ZM132.188 215.938V216.969H122.312V212.906H123.547V215.938H132.188ZM120.312 209.828C122.906 209.812 126.375 209.797 129.359 209.422L129.438 210.312C128.195 210.508 126.898 210.633 125.625 210.703V213.453H124.391V210.766C122.984 210.828 121.648 210.836 120.484 210.828L120.312 209.828ZM124.875 203.953C126.906 203.953 128.297 204.922 128.312 206.375C128.297 207.859 126.906 208.781 124.875 208.781C122.828 208.781 121.438 207.859 121.438 206.375C121.438 204.922 122.828 203.953 124.875 203.953ZM124.875 204.891C123.516 204.875 122.594 205.484 122.609 206.375C122.594 207.281 123.516 207.875 124.875 207.875C126.188 207.875 127.125 207.281 127.141 206.375C127.125 205.484 126.188 204.875 124.875 204.891ZM148.984 203.375V209.031H151.234V210.062H148.984V217.266H147.766V203.375H148.984ZM145.391 204.875C145.391 208.812 143.547 212.391 139.016 214.625L138.328 213.656C141.922 211.867 143.875 209.195 144.156 205.906H138.969V204.875H145.391ZM163.297 207.594V208.578H153.781V203.891H155V207.594H163.297ZM164.766 210.469V211.469H152.047V210.469H164.766ZM163.375 215.906V216.922H153.703V212.891H154.922V215.906H163.375ZM177.406 203.375V210.516H176.172V207.75H173.094V206.734H176.172V203.375H177.406ZM172.984 204.062C172.984 207.516 170.547 209.797 166.547 210.812L166.109 209.797C169.438 208.992 171.43 207.305 171.688 205.078H166.828V204.062H172.984ZM177.406 211.109V214.5H169.656V216.125H177.875V217.141H168.438V213.562H176.172V212.109H168.406V211.109H177.406ZM195.266 203.375V217.297H194.031V208.984H189.703V207.969H194.031V203.375H195.266ZM185.734 204.938V212.891C187.852 212.867 189.742 212.758 191.828 212.328L191.984 213.344C189.766 213.797 187.812 213.922 185.562 213.922H184.5V204.938H185.734ZM210.266 211.453V212.469H204.469V217.266H203.266V212.469H197.547V211.453H210.266ZM208.609 204.156V209.562H199.188V204.156H208.609ZM200.391 205.156V208.594H207.391V205.156H200.391ZM221.547 211.375V214.562H218.375V216.125C219.93 216.117 220.852 216.078 222 215.859L222.109 216.797C220.812 217.062 219.812 217.078 217.938 217.078H217.203V213.672H220.375V212.312H217.188V211.375H221.547ZM227.859 211.938V212.891H222V211.938H224.297V210.703H225.5V211.938H227.859ZM224.875 213.453C226.25 213.453 227.266 214.188 227.266 215.344C227.266 216.531 226.25 217.234 224.875 217.234C223.5 217.234 222.484 216.531 222.484 215.344C222.484 214.188 223.5 213.453 224.875 213.453ZM224.875 214.328C224.062 214.328 223.547 214.703 223.547 215.344C223.547 215.984 224.062 216.359 224.875 216.359C225.656 216.359 226.203 215.984 226.219 215.344C226.203 214.703 225.656 214.328 224.875 214.328ZM226.859 203.375V210.391H225.656V203.375H226.859ZM220.328 204.875C220.312 206.781 221.844 208.406 223.891 209.062L223.297 210.047C221.664 209.508 220.359 208.367 219.734 206.891C219.109 208.5 217.789 209.758 216.109 210.359L215.5 209.375C217.578 208.656 219.078 206.875 219.078 204.875V203.812H220.328V204.875ZM232.969 204.453C234.859 204.469 236.219 206.086 236.422 208.688H239.531V203.375H240.75V217.297H239.531V209.703H236.438C236.289 212.422 234.906 214.125 232.969 214.125C230.922 214.125 229.484 212.25 229.484 209.297C229.484 206.344 230.922 204.469 232.969 204.453ZM232.969 205.547C231.594 205.562 230.656 207.031 230.656 209.297C230.656 211.562 231.594 213.031 232.969 213.031C234.328 213.031 235.281 211.562 235.281 209.297C235.281 207.031 234.328 205.562 232.969 205.547ZM253.812 203.375V209.109H256.141V210.125H253.812V217.266H252.594V203.375H253.812ZM251.25 205.609V206.625H242.984V205.609H246.562V203.547H247.781V205.609H251.25ZM247.188 207.781C249.156 207.781 250.578 209.094 250.594 210.969C250.578 212.844 249.156 214.156 247.188 214.156C245.203 214.156 243.766 212.844 243.781 210.969C243.766 209.094 245.203 207.781 247.188 207.781ZM247.188 208.812C245.891 208.812 244.938 209.719 244.953 210.969C244.938 212.234 245.891 213.125 247.188 213.109C248.469 213.125 249.406 212.234 249.422 210.969C249.406 209.719 248.469 208.812 247.188 208.812ZM268.125 207.594V208.578H258.609V203.891H259.828V207.594H268.125ZM269.594 210.469V211.469H256.875V210.469H269.594ZM268.203 215.906V216.922H258.531V212.891H259.75V215.906H268.203ZM282.609 203.375V217.266H281.422V203.375H282.609ZM279.766 203.719V216.547H278.594V209.719H275.562V208.688H278.594V203.719H279.766ZM276.5 205.094V206.109H272.453V212.891C274.453 212.883 275.719 212.797 277.219 212.469L277.344 213.516C275.734 213.844 274.375 213.906 272.141 213.922H271.266V205.094H276.5ZM292.297 204.453C294.188 204.469 295.547 206.086 295.75 208.688H298.859V203.375H300.078V217.297H298.859V209.703H295.766C295.617 212.422 294.234 214.125 292.297 214.125C290.25 214.125 288.812 212.25 288.812 209.297C288.812 206.344 290.25 204.469 292.297 204.453ZM292.297 205.547C290.922 205.562 289.984 207.031 289.984 209.297C289.984 211.562 290.922 213.031 292.297 213.031C293.656 213.031 294.609 211.562 294.609 209.297C294.609 207.031 293.656 205.562 292.297 205.547ZM314.031 212.359V217.297H312.828V213.375H304.469V212.359H314.031ZM314.031 203.375V211.688H312.828V207.969H310.219V206.969H312.828V203.375H314.031ZM306.297 204.438V205.453H303.984V209.781C304.672 209.766 305.5 209.695 306.422 209.484L306.562 210.516C305.266 210.797 304.219 210.797 303.375 210.797H302.781V204.438H306.297ZM310.938 204.438V205.453H308.297V209.781C309.484 209.781 310.406 209.719 311.469 209.484L311.594 210.484C310.297 210.766 309.281 210.797 307.766 210.797H307.062V204.438H310.938ZM326.969 203.375V209.109H329.297V210.125H326.969V217.266H325.75V203.375H326.969ZM324.406 205.609V206.625H316.141V205.609H319.719V203.547H320.938V205.609H324.406ZM320.344 207.781C322.312 207.781 323.734 209.094 323.75 210.969C323.734 212.844 322.312 214.156 320.344 214.156C318.359 214.156 316.922 212.844 316.938 210.969C316.922 209.094 318.359 207.781 320.344 207.781ZM320.344 208.812C319.047 208.812 318.094 209.719 318.109 210.969C318.094 212.234 319.047 213.125 320.344 213.109C321.625 213.125 322.562 212.234 322.578 210.969C322.562 209.719 321.625 208.812 320.344 208.812ZM334.766 211.312V214.5H338.031V211.312H339.25V214.5H342.766V215.531H330.047V214.5H333.547V211.312H334.766ZM337.016 205.891C337.016 208.125 339.766 210.016 342.156 210.406L341.656 211.391C339.531 210.969 337.289 209.609 336.406 207.688C335.508 209.625 333.273 211.016 331.188 211.438L330.672 210.453C333.016 210.062 335.75 208.125 335.75 205.891V205.641H331.094V204.625H341.672V205.641H337.016V205.891ZM346.094 212.734C346.109 210.641 346.75 210 347.828 209.344C348.469 208.953 348.969 208.328 348.969 207.453C348.969 206.391 348.141 205.719 347.109 205.719C346.219 205.719 345.328 206.25 345.234 207.531H343.812C343.891 205.641 345.328 204.531 347.109 204.531C349.062 204.531 350.344 205.797 350.344 207.516C350.344 208.734 349.766 209.594 348.797 210.188C347.828 210.781 347.469 211.375 347.438 212.734V212.812H346.094V212.734ZM346.812 216.094C346.266 216.094 345.797 215.641 345.812 215.078C345.797 214.531 346.266 214.078 346.812 214.078C347.359 214.078 347.812 214.531 347.812 215.078C347.812 215.641 347.359 216.094 346.812 216.094Z" fill="black"/>
<path d="M113.281 284.391V285.969H106.406V284.391H108.875V282.609H110.844V284.391H113.281ZM109.875 286.609C111.688 286.609 112.984 288.016 113 289.984C112.984 291.969 111.688 293.375 109.875 293.375C108.062 293.375 106.734 291.969 106.734 289.984C106.734 288.016 108.062 286.609 109.875 286.609ZM109.875 288.266C109.047 288.266 108.484 288.906 108.484 289.984C108.484 291.062 109.047 291.688 109.875 291.688C110.672 291.688 111.234 291.062 111.25 289.984C111.234 288.906 110.672 288.266 109.875 288.266ZM118.719 282.219V296.438H116.828V289.594H115.672V295.828H113.812V282.5H115.672V288H116.828V282.219H118.719ZM132.234 282.219V289.375H130.25V288.281H127V286.766H130.25V285.516H127.156C126.273 287.656 124.242 289.023 121.094 289.703L120.422 288.078C123.68 287.43 125.188 286.086 125.453 284.375H121.219V282.766H127.656C127.656 283.195 127.625 283.609 127.562 284H130.25V282.219H132.234ZM132.234 289.891V293.781H124.797V294.719H132.547V296.297H122.797V292.312H130.234V291.453H122.781V289.891H132.234ZM140.703 290.922C143.656 290.922 145.5 291.938 145.5 293.672C145.5 295.438 143.656 296.453 140.703 296.453C137.688 296.453 135.828 295.438 135.828 293.672C135.828 291.938 137.688 290.922 140.703 290.922ZM140.703 292.469C138.828 292.469 137.812 292.859 137.828 293.672C137.812 294.484 138.828 294.906 140.703 294.906C142.547 294.906 143.531 294.484 143.531 293.672C143.531 292.859 142.547 292.469 140.703 292.469ZM145.359 282.219V285.516H147.281V287.188H145.359V290.609H143.359V282.219H145.359ZM136.484 283.109V284.906H139.391V283.109H141.391V289.797H134.5V283.109H136.484ZM136.484 288.219H139.391V286.453H136.484V288.219ZM159.188 282.219V286.297H161.109V287.953H159.188V292.578H157.188V282.219H159.188ZM159.703 294.594V296.188H149.969V291.484H151.953V294.594H159.703ZM151.906 283.141C154.078 283.141 155.781 284.641 155.781 286.75C155.781 288.828 154.078 290.359 151.906 290.359C149.719 290.359 148 288.828 148 286.75C148 284.641 149.719 283.141 151.906 283.141ZM151.906 284.875C150.828 284.859 149.953 285.562 149.969 286.75C149.953 287.906 150.828 288.625 151.906 288.625C153 288.625 153.828 287.906 153.844 286.75C153.828 285.562 153 284.859 151.906 284.875Z" fill="url(#paint2_linear_462_1168)"/>
<path d="M117.422 381.375V384.906H119.516V385.953H117.422V389.531H116.203V381.375H117.422ZM113.609 382.266C113.609 385.781 111.156 388.281 107.047 389.375L106.547 388.422C109.953 387.5 112.055 385.641 112.312 383.281H107.172V382.266H113.609ZM117.422 390.172V395.266H116.203V391.172H108.328V390.172H117.422ZM135.266 381.391V385.594H137.359V386.625H135.266V391.594H134.047V381.391H135.266ZM135.906 393.938V394.969H126.578V390.594H127.781V393.938H135.906ZM126.203 382.391V384.734H130.25V382.391H131.469V389.25H125V382.391H126.203ZM126.203 388.25H130.25V385.703H126.203V388.25ZM145.219 382.781V391.734H138.812V382.781H145.219ZM140 383.766V390.734H144V383.766H140ZM148.984 381.375V386.922H151.312V387.984H148.984V395.266H147.766V381.375H148.984ZM162.812 381.375V386.875H165.141V387.906H162.812V395.297H161.594V381.375H162.812ZM159.156 382.734V383.75H153.891V390.781C156.406 390.781 158.188 390.664 160.25 390.281L160.406 391.344C158.234 391.734 156.406 391.812 153.766 391.812H152.672V382.734H159.156ZM180.859 382.859V384.25C180.859 386 180.859 387.984 180.344 391L179.094 390.875C179.656 388.031 179.656 385.953 179.656 384.25V383.875H171.281V382.859H180.859ZM182.562 392.203V393.219H169.906V392.203H182.562ZM195.203 381.375V395.297H193.984V381.375H195.203ZM190.984 382.672V387.609H185.797V390.891C188.102 390.891 190.156 390.789 192.641 390.391L192.766 391.422C190.203 391.828 188.094 391.922 185.703 391.922H184.547V386.609H189.75V383.688H184.516V382.672H190.984ZM208.703 382.781V384.172C208.688 385.875 208.688 387.781 208.188 390.578L206.938 390.438C207.469 387.781 207.469 385.828 207.469 384.172V383.797H198.906V382.781H208.703ZM210.219 392.281V393.297H197.562V392.281H202.531V387.312H203.734V392.281H210.219ZM226.922 381.391V391.578H225.688V386.25H222.828V385.234H225.688V381.391H226.922ZM227.312 393.938V394.969H218V390.656H219.234V393.938H227.312ZM220.234 384.25C220.234 386.047 221.625 387.797 223.656 388.484L223.016 389.469C221.445 388.906 220.234 387.734 219.641 386.297C219.039 387.898 217.758 389.18 216.109 389.797L215.469 388.797C217.516 388.078 219 386.25 219 384.25V383.531H215.859V382.516H223.344V383.531H220.234V384.25ZM233.297 385.656C233.297 387.891 234.438 390.172 236.328 391.188L235.625 392.109C234.242 391.359 233.242 389.922 232.734 388.25C232.234 390.031 231.242 391.578 229.859 392.422L229.125 391.484C231.016 390.391 232.125 387.953 232.141 385.656V384.969H229.5V383.953H232.141V381.891H233.312V383.953H235.906V384.969H233.297V385.656ZM241.109 381.375V395.266H239.938V381.375H241.109ZM238.297 381.719V394.547H237.141V387.906H234.953V386.859H237.141V381.719H238.297ZM255.391 382.875V383.875H247.109V382.875H250.641V381.312H251.859V382.875H255.391ZM251.25 384.594C253.25 384.609 254.578 385.578 254.594 387.109C254.578 388.625 253.25 389.609 251.25 389.609C249.25 389.609 247.891 388.625 247.906 387.109C247.891 385.578 249.25 384.609 251.25 384.594ZM251.25 385.547C249.938 385.562 249.062 386.172 249.078 387.109C249.062 388.031 249.938 388.625 251.25 388.625C252.547 388.625 253.422 388.031 253.438 387.109C253.422 386.172 252.547 385.562 251.25 385.547ZM257.938 381.375V385.234H260.031V386.266H257.938V390.062H256.719V381.375H257.938ZM257.938 390.828V395.266H256.719V391.828H248.844V390.828H257.938ZM272.359 381.391V391.938H271.125V390.5H268.25V389.609H271.125V381.391H272.359ZM272.703 393.938V394.969H262.828V390.906H264.062V393.938H272.703ZM260.828 387.828C263.422 387.812 266.891 387.797 269.875 387.422L269.953 388.312C268.711 388.508 267.414 388.633 266.141 388.703V391.453H264.906V388.766C263.5 388.828 262.164 388.836 261 388.828L260.828 387.828ZM265.391 381.953C267.422 381.953 268.812 382.922 268.828 384.375C268.812 385.859 267.422 386.781 265.391 386.781C263.344 386.781 261.953 385.859 261.953 384.375C261.953 382.922 263.344 381.953 265.391 381.953ZM265.391 382.891C264.031 382.875 263.109 383.484 263.125 384.375C263.109 385.281 264.031 385.875 265.391 385.875C266.703 385.875 267.641 385.281 267.656 384.375C267.641 383.484 266.703 382.875 265.391 382.891ZM283.375 385.906C283.375 388.125 284.828 390.406 286.844 391.375L286.125 392.328C284.594 391.578 283.383 390.062 282.812 388.266C282.203 390.195 280.914 391.812 279.328 392.578L278.625 391.625C280.656 390.672 282.172 388.297 282.188 385.906V384.797H279V383.797H282.172V381.641H283.406V383.797H286.531V384.797H283.375V385.906ZM289.5 381.375V387.078H291.828V388.125H289.5V395.266H288.281V381.375H289.5ZM304.031 381.391V391.938H302.797V390.5H299.922V389.609H302.797V381.391H304.031ZM304.375 393.938V394.969H294.5V390.906H295.734V393.938H304.375ZM292.5 387.828C295.094 387.812 298.562 387.797 301.547 387.422L301.625 388.312C300.383 388.508 299.086 388.633 297.812 388.703V391.453H296.578V388.766C295.172 388.828 293.836 388.836 292.672 388.828L292.5 387.828ZM297.062 381.953C299.094 381.953 300.484 382.922 300.5 384.375C300.484 385.859 299.094 386.781 297.062 386.781C295.016 386.781 293.625 385.859 293.625 384.375C293.625 382.922 295.016 381.953 297.062 381.953ZM297.062 382.891C295.703 382.875 294.781 383.484 294.797 384.375C294.781 385.281 295.703 385.875 297.062 385.875C298.375 385.875 299.312 385.281 299.328 384.375C299.312 383.484 298.375 382.875 297.062 382.891ZM310.953 382.391C313.141 382.391 314.688 383.719 314.688 385.656C314.688 387.594 313.141 388.922 310.953 388.922C308.766 388.922 307.188 387.594 307.203 385.656C307.188 383.719 308.766 382.391 310.953 382.391ZM310.953 383.469C309.469 383.469 308.391 384.359 308.406 385.656C308.391 386.953 309.469 387.844 310.953 387.844C312.422 387.844 313.484 386.953 313.484 385.656C313.484 384.359 312.422 383.469 310.953 383.469ZM317.797 381.375V395.297H316.578V381.375H317.797ZM306.484 391.188C309.047 391.188 312.578 391.172 315.656 390.719L315.75 391.625C312.578 392.219 309.156 392.234 306.656 392.234L306.484 391.188ZM335.719 381.375V395.297H334.5V381.375H335.719ZM331.5 382.672V387.609H326.312V390.891C328.617 390.891 330.672 390.789 333.156 390.391L333.281 391.422C330.719 391.828 328.609 391.922 326.219 391.922H325.062V386.609H330.266V383.688H325.031V382.672H331.5ZM345.156 382.703V383.734H340.016V390.812C342.516 390.812 344.172 390.727 346.094 390.359L346.25 391.375C344.203 391.766 342.516 391.859 339.844 391.859H338.781V382.703H345.156ZM349.609 381.375V395.297H348.375V387.453H344.328V386.438H348.375V381.375H349.609ZM364.625 392.469V393.484H351.906V392.469H357.625V389.469H353.406V382.359H354.641V384.875H361.859V382.359H363.062V389.469H358.828V392.469H364.625ZM354.641 388.469H361.859V385.875H354.641V388.469ZM376.953 388.062V389.078H367.359V382.672H376.812V383.688H368.578V388.062H376.953ZM378.453 392.344V393.375H365.734V392.344H378.453ZM383.75 382.281C385.891 382.297 387.438 383.609 387.453 385.547C387.438 387.289 386.188 388.531 384.375 388.75V391.125C385.672 391.062 386.977 390.969 388.188 390.812L388.266 391.734C385.328 392.234 382.031 392.266 379.594 392.25L379.391 391.219C380.508 391.211 381.805 391.203 383.141 391.156V388.75C381.297 388.539 380.031 387.297 380.047 385.547C380.031 383.609 381.578 382.297 383.75 382.281ZM383.75 383.344C382.297 383.344 381.234 384.25 381.25 385.547C381.234 386.844 382.297 387.75 383.75 387.75C385.188 387.75 386.234 386.844 386.25 385.547C386.234 384.25 385.188 383.344 383.75 383.344ZM390.297 381.375V387.109H392.562V388.172H390.297V395.266H389.078V381.375H390.297ZM410.125 392.5V393.547H397.406V392.5H403.109V389.297H398.562V388.312H400.734V383.75H398.531V382.734H408.906V383.75H406.703V388.312H408.875V389.297H404.312V392.5H410.125ZM401.953 388.312H405.5V383.75H401.953V388.312ZM422.703 381.391V391.547H421.484V381.391H422.703ZM423.141 393.938V394.969H413.734V390.516H414.953V393.938H423.141ZM415.203 382.359C417.281 382.359 418.844 383.766 418.844 385.766C418.844 387.797 417.281 389.188 415.203 389.188C413.125 389.188 411.562 387.797 411.562 385.766C411.562 383.766 413.125 382.359 415.203 382.359ZM415.203 383.438C413.797 383.438 412.75 384.406 412.766 385.766C412.75 387.156 413.797 388.109 415.203 388.109C416.578 388.109 417.641 387.156 417.641 385.766C417.641 384.406 416.578 383.438 415.203 383.438ZM436.312 388.891V389.891H426.703V382.578H436.156V383.609H427.953V385.672H435.859V386.656H427.953V388.891H436.312ZM437.781 392.438V393.453H425.062V392.438H437.781ZM118.438 407.375V421.266H117.266V407.375H118.438ZM115.625 407.719V420.547H114.469V413.391H112.125V412.391H114.469V407.719H115.625ZM110.641 411.344C110.641 413.75 111.719 416.141 113.641 417.25L112.891 418.156C111.523 417.336 110.555 415.836 110.078 414.062C109.57 415.977 108.562 417.609 107.172 418.484L106.391 417.562C108.328 416.406 109.453 413.875 109.453 411.344V410.031H106.781V409.016H113.188V410.031H110.641V411.344ZM131.609 413.891V414.891H127.312V418.484H133.109V419.516H120.391V418.484H126.109V414.891H122.016V408.516H131.469V409.516H123.25V413.891H131.609ZM149.719 407.375V421.266H148.484V407.375H149.719ZM145.609 408.891C145.594 412.891 143.734 416.422 139.078 418.656L138.406 417.656C142.164 415.875 144.078 413.211 144.359 409.891H139.047V408.891H145.609ZM162.922 407.391V411.594H165.016V412.625H162.922V417.594H161.703V407.391H162.922ZM163.562 419.938V420.969H154.234V416.594H155.438V419.938H163.562ZM153.859 408.391V410.734H157.906V408.391H159.125V415.25H152.656V408.391H153.859ZM153.859 414.25H157.906V411.703H153.859V414.25ZM170.438 408.391C172.625 408.391 174.172 409.719 174.172 411.656C174.172 413.594 172.625 414.922 170.438 414.922C168.25 414.922 166.672 413.594 166.688 411.656C166.672 409.719 168.25 408.391 170.438 408.391ZM170.438 409.469C168.953 409.469 167.875 410.359 167.891 411.656C167.875 412.953 168.953 413.844 170.438 413.844C171.906 413.844 172.969 412.953 172.969 411.656C172.969 410.359 171.906 409.469 170.438 409.469ZM177.281 407.375V421.297H176.062V407.375H177.281ZM165.969 417.188C168.531 417.188 172.062 417.172 175.141 416.719L175.234 417.625C172.062 418.219 168.641 418.234 166.141 418.234L165.969 417.188ZM195.625 407.375V421.266H194.453V407.375H195.625ZM192.703 407.75V420.562H191.531V414.078H188.594C187.742 415.695 186.406 417.125 184.469 418.266L183.75 417.375C186.773 415.586 188.289 413.078 188.516 410.172H184.344V409.156H189.734C189.727 410.523 189.508 411.844 189.047 413.078H191.531V407.75H192.703ZM209.031 407.391V415.328H207.812V407.391H209.031ZM209.031 416.078V421.078H200V416.078H209.031ZM201.203 417.078V420.078H207.828V417.078H201.203ZM201.531 408.125C203.641 408.125 205.172 409.438 205.172 411.375C205.172 413.281 203.641 414.609 201.531 414.609C199.422 414.609 197.891 413.281 197.891 411.375C197.891 409.438 199.422 408.125 201.531 408.125ZM201.531 409.172C200.109 409.156 199.078 410.078 199.094 411.375C199.078 412.656 200.109 413.562 201.531 413.562C202.938 413.562 203.969 412.656 203.969 411.375C203.969 410.078 202.938 409.156 201.531 409.172ZM228.125 418.453V419.484H215.406V418.453H218.562V414.703C217.375 414.086 216.656 413.086 216.656 411.828C216.656 409.672 218.766 408.266 221.734 408.25C224.703 408.266 226.812 409.672 226.812 411.828C226.812 413.062 226.117 414.055 224.969 414.672V418.453H228.125ZM221.734 409.266C219.453 409.25 217.844 410.281 217.844 411.828C217.844 413.375 219.453 414.422 221.734 414.422C224 414.422 225.625 413.375 225.625 411.828C225.625 410.281 224 409.25 221.734 409.266ZM219.766 418.453H223.734V415.141C223.133 415.305 222.461 415.391 221.734 415.391C221.023 415.391 220.359 415.312 219.766 415.156V418.453ZM241.953 418.438V419.453H229.234V418.438H234.922V415.031H236.125V418.438H241.953ZM236.156 409.391C236.156 411.719 238.906 413.75 241.328 414.172L240.781 415.188C238.664 414.758 236.43 413.32 235.531 411.312C234.617 413.312 232.398 414.758 230.281 415.188L229.734 414.172C232.156 413.75 234.875 411.719 234.875 409.391V408.328H236.156V409.391ZM255.766 413.828V414.797H243.047V413.828H255.766ZM254.172 415.906V418.859H245.828V420.188H254.625V421.078H244.594V418.016H252.953V416.828H244.578V415.906H254.172ZM254.125 407.797V410.672H245.922V411.891H254.375V412.781H244.703V409.828H252.891V408.688H244.656V407.797H254.125ZM273.562 414.75V415.75H260.891V414.75H266.609V413.375H262.578V407.781H271.984V408.781H263.812V410.078H271.609V411.016H263.812V412.391H272.062V413.375H267.828V414.75H273.562ZM267.234 416.797C270.281 416.781 272 417.562 272.016 419.016C272 420.469 270.281 421.234 267.234 421.234C264.156 421.234 262.438 420.469 262.438 419.016C262.438 417.562 264.156 416.781 267.234 416.797ZM267.234 417.719C264.938 417.719 263.656 418.188 263.672 419.016C263.656 419.859 264.938 420.297 267.234 420.281C269.5 420.297 270.781 419.859 270.781 419.016C270.781 418.188 269.5 417.719 267.234 417.719ZM281.672 409.781V410.781H274.703V409.781H277.594V407.797H278.812V409.781H281.672ZM278.188 411.719C279.938 411.719 281.188 413.031 281.203 414.875C281.188 416.734 279.938 418.062 278.188 418.062C276.453 418.062 275.203 416.734 275.203 414.875C275.203 413.031 276.453 411.719 278.188 411.719ZM278.188 412.75C277.094 412.766 276.297 413.656 276.297 414.875C276.297 416.109 277.094 417 278.188 416.984C279.297 417 280.109 416.109 280.109 414.875C280.109 413.656 279.297 412.766 278.188 412.75ZM286.562 407.375V421.266H285.391V414.25H283.547V420.578H282.391V407.719H283.547V413.234H285.391V407.375H286.562ZM300.891 408.875V409.875H292.609V408.875H296.141V407.312H297.359V408.875H300.891ZM296.75 410.594C298.75 410.609 300.078 411.578 300.094 413.109C300.078 414.625 298.75 415.609 296.75 415.609C294.75 415.609 293.391 414.625 293.406 413.109C293.391 411.578 294.75 410.609 296.75 410.594ZM296.75 411.547C295.438 411.562 294.562 412.172 294.578 413.109C294.562 414.031 295.438 414.625 296.75 414.625C298.047 414.625 298.922 414.031 298.938 413.109C298.922 412.172 298.047 411.562 296.75 411.547ZM303.438 407.375V411.234H305.531V412.266H303.438V416.062H302.219V407.375H303.438ZM303.438 416.828V421.266H302.219V417.828H294.344V416.828H303.438ZM309.234 415.719V417.344H316.172V415.719H317.406V421.078H308.016V415.719H309.234ZM309.234 420.094H316.172V418.312H309.234V420.094ZM319.062 413.719V414.734H306.406V413.719H319.062ZM313.375 408.188C313.375 409.906 315.906 411.438 318.344 411.75L317.891 412.734C315.734 412.414 313.625 411.312 312.75 409.75C311.859 411.32 309.734 412.414 307.594 412.734L307.125 411.75C309.594 411.422 312.109 409.953 312.109 408.188V407.531H313.375V408.188ZM324.781 408.391C326.969 408.391 328.516 409.719 328.516 411.656C328.516 413.594 326.969 414.922 324.781 414.922C322.594 414.922 321.016 413.594 321.031 411.656C321.016 409.719 322.594 408.391 324.781 408.391ZM324.781 409.469C323.297 409.469 322.219 410.359 322.234 411.656C322.219 412.953 323.297 413.844 324.781 413.844C326.25 413.844 327.312 412.953 327.312 411.656C327.312 410.359 326.25 409.469 324.781 409.469ZM331.625 407.375V421.297H330.406V407.375H331.625ZM320.312 417.188C322.875 417.188 326.406 417.172 329.484 416.719L329.578 417.625C326.406 418.219 322.984 418.234 320.484 418.234L320.312 417.188ZM350.734 413.297V414.312H338.078V413.297H350.734ZM349.109 415.594V418.734H340.859V420.141H349.531V421.109H339.641V417.812H347.906V416.531H339.609V415.594H349.109ZM349.609 407.922V408.922H345.125C345.25 410.352 347.594 411.445 350.062 411.641L349.656 412.609C347.383 412.375 345.242 411.492 344.422 410.094C343.578 411.492 341.445 412.375 339.172 412.609L338.766 411.641C341.219 411.445 343.555 410.352 343.719 408.922H339.234V407.922H349.609ZM363.406 407.375V421.266H362.188V413.984H358.875V412.969H362.188V407.375H363.406ZM358.906 408.891C358.906 412.828 357.234 416.328 352.594 418.625L351.922 417.641C355.688 415.82 357.43 413.148 357.672 409.891H352.531V408.891H358.906ZM372.062 407.641C375.078 407.641 376.969 408.609 376.969 410.266C376.969 411.891 375.078 412.844 372.062 412.844C369.047 412.844 367.141 411.891 367.141 410.266C367.141 408.609 369.047 407.641 372.062 407.641ZM372.062 408.609C369.812 408.609 368.391 409.219 368.406 410.266C368.391 411.281 369.812 411.875 372.062 411.875C374.281 411.875 375.719 411.281 375.719 410.266C375.719 409.219 374.281 408.609 372.062 408.609ZM376.844 416.516V421.078H367.281V416.516H371.453V414.922H365.734V413.906H378.391V414.922H372.656V416.516H376.844ZM368.5 417.5V420.078H375.641V417.5H368.5ZM385.891 407.625C388.984 407.625 390.797 408.469 390.797 410.016C390.797 411.594 388.984 412.438 385.891 412.453C382.797 412.438 380.969 411.594 380.969 410.016C380.969 408.469 382.797 407.625 385.891 407.625ZM385.891 408.547C383.578 408.547 382.234 409.109 382.25 410.016C382.234 410.984 383.578 411.516 385.891 411.516C388.188 411.516 389.547 410.984 389.547 410.016C389.547 409.109 388.188 408.547 385.891 408.547ZM392.219 413.391V414.391H379.562V413.391H392.219ZM390.594 415.594V418.703H382.344V420.141H391.016V421.109H381.125V417.797H389.391V416.531H381.094V415.594H390.594ZM408.25 407.391V411.594H410.328V412.625H408.25V416.703H407.016V407.391H408.25ZM397.344 415.281C398.453 415.281 399.75 415.281 401.109 415.234V414.219C399.492 414.078 398.453 413.32 398.453 412.172C398.453 410.906 399.75 410.125 401.703 410.125C403.672 410.125 404.953 410.906 404.969 412.172C404.953 413.312 403.938 414.07 402.328 414.219V415.188C403.625 415.125 404.938 415.023 406.156 414.844L406.266 415.734C403.25 416.266 399.922 416.281 397.484 416.281L397.344 415.281ZM408.25 417.391V421.266H407.016V418.375H399.047V417.391H408.25ZM405.734 408.656V409.594H397.688V408.656H401.109V407.266H402.328V408.656H405.734ZM401.703 411C400.422 410.984 399.625 411.438 399.625 412.172C399.625 412.891 400.422 413.391 401.703 413.375C402.984 413.391 403.797 412.891 403.797 412.172C403.797 411.438 402.984 410.984 401.703 411ZM423.953 418.469V419.484H411.234V418.469H416.953V415.469H412.734V408.359H413.969V410.875H421.188V408.359H422.391V415.469H418.156V418.469H423.953ZM413.969 414.469H421.188V411.875H413.969V414.469ZM435.922 407.375V410.938H438.016V411.984H435.922V415.453H434.703V407.375H435.922ZM428.359 416.062V417.547H434.703V416.062H435.922V421.078H427.141V416.062H428.359ZM428.359 420.094H434.703V418.516H428.359V420.094ZM433.375 408.812V409.828H425.094V408.812H428.625V407.25H429.844V408.812H433.375ZM429.234 410.469C431.234 410.469 432.562 411.422 432.578 412.906C432.562 414.391 431.234 415.344 429.234 415.344C427.219 415.344 425.875 414.391 425.891 412.906C425.875 411.422 427.219 410.469 429.234 410.469ZM429.234 411.422C427.922 411.406 427.047 412.016 427.062 412.906C427.047 413.812 427.922 414.406 429.234 414.406C430.531 414.406 431.406 413.812 431.422 412.906C431.406 412.016 430.531 411.406 429.234 411.422ZM118.016 433.375V447.266H116.797V433.375H118.016ZM108.672 434.75V442.625C110.789 442.617 112.984 442.445 115.312 441.953L115.484 443C113.016 443.516 110.812 443.688 108.594 443.688H107.469V434.75H108.672ZM131.141 433.375V438.875H133.469V439.906H131.141V447.297H129.922V433.375H131.141ZM127.484 434.734V435.75H122.219V442.781C124.734 442.781 126.516 442.664 128.578 442.281L128.734 443.344C126.562 443.734 124.734 443.812 122.094 443.812H121V434.734H127.484ZM135.688 446.094C135.141 446.094 134.672 445.641 134.688 445.078C134.672 444.531 135.141 444.078 135.688 444.078C136.234 444.078 136.688 444.531 136.688 445.078C136.688 445.641 136.234 446.094 135.688 446.094Z" fill="black"/>
<path d="M106 144H441" stroke="url(#paint3_linear_462_1168)"/>
<rect x="106" y="309" width="120" height="50" rx="10" fill="white"/>
<path d="M117.289 340V328.688H121.727C124.305 328.688 125.773 330.266 125.773 332.5C125.773 334.766 124.273 336.312 121.664 336.312H119.633V340H117.289ZM119.633 334.422H121.289C122.68 334.422 123.352 333.641 123.352 332.5C123.352 331.375 122.68 330.609 121.289 330.609H119.633V334.422ZM130.883 340.172C128.32 340.172 126.727 338.406 126.727 335.781C126.727 333.156 128.32 331.406 130.883 331.406C133.445 331.406 135.055 333.156 135.055 335.781C135.055 338.406 133.445 340.172 130.883 340.172ZM130.898 338.375C132.086 338.375 132.695 337.266 132.695 335.781C132.695 334.281 132.086 333.172 130.898 333.172C129.695 333.172 129.07 334.281 129.07 335.781C129.07 337.266 129.695 338.375 130.898 338.375ZM136.508 340V331.516H138.82V340H136.508ZM137.664 330.406C136.961 330.406 136.398 329.875 136.398 329.234C136.398 328.578 136.961 328.047 137.664 328.047C138.352 328.047 138.914 328.578 138.914 329.234C138.914 329.875 138.352 330.406 137.664 330.406ZM142.93 335.094V340H140.617V331.516H142.82V333H142.914C143.305 332.016 144.211 331.406 145.461 331.406C147.227 331.406 148.398 332.609 148.383 334.594V340H146.086V335C146.086 333.953 145.508 333.328 144.555 333.328C143.586 333.328 142.93 333.969 142.93 335.094ZM154.648 331.516V333.25H153.055V337.391C153.055 338.062 153.383 338.234 153.852 338.25C154.086 338.25 154.492 338.234 154.773 338.203V340.031C154.523 340.078 154.117 340.109 153.539 340.109C151.867 340.109 150.727 339.359 150.742 337.719V333.25H149.57V331.516H150.742V329.484H153.055V331.516H154.648ZM165.977 331.922C165.883 331.031 165.164 330.5 164.023 330.5C162.836 330.5 162.18 331.047 162.164 331.797C162.148 332.609 163.008 332.984 163.977 333.203L164.992 333.453C166.93 333.891 168.383 334.875 168.383 336.766C168.383 338.844 166.758 340.156 164.008 340.156C161.273 340.156 159.523 338.891 159.461 336.469H161.742C161.82 337.609 162.727 338.188 163.977 338.188C165.211 338.188 166.008 337.609 166.008 336.766C166.008 336 165.305 335.641 164.07 335.328L162.836 335.031C160.93 334.562 159.758 333.609 159.758 331.953C159.758 329.891 161.57 328.531 164.039 328.531C166.539 328.531 168.195 329.922 168.227 331.922H165.977ZM171.227 343.188C170.773 343.188 170.352 343.172 170.055 343.141V341.344C170.352 341.359 170.695 341.375 170.992 341.375C171.445 341.375 171.82 341.328 172.102 340.594L172.242 340.234L169.195 331.516H171.617L173.398 337.766H173.492L175.289 331.516H177.742L174.43 340.938C173.945 342.297 173.023 343.188 171.227 343.188ZM183.711 334.031C183.617 333.438 183.086 333.047 182.32 333.047C181.57 333.047 180.992 333.406 181.008 333.922C180.992 334.297 181.305 334.594 182.102 334.766L183.617 335.078C185.258 335.422 186.055 336.156 186.07 337.375C186.055 339.047 184.555 340.172 182.305 340.172C180.008 340.172 178.664 339.141 178.477 337.484H180.805C180.914 338.156 181.461 338.5 182.305 338.5C183.148 338.5 183.711 338.156 183.711 337.609C183.711 337.172 183.352 336.906 182.555 336.734L181.148 336.453C179.539 336.141 178.695 335.297 178.711 334.047C178.695 332.422 180.102 331.406 182.289 331.406C184.43 331.406 185.758 332.422 185.883 334.031H183.711ZM191.961 331.516V333.25H190.367V337.391C190.367 338.062 190.695 338.234 191.164 338.25C191.398 338.25 191.805 338.234 192.086 338.203V340.031C191.836 340.078 191.43 340.109 190.852 340.109C189.18 340.109 188.039 339.359 188.055 337.719V333.25H186.883V331.516H188.055V329.484H190.367V331.516H191.961ZM197.164 340.172C194.57 340.172 192.977 338.484 192.977 335.797C192.977 333.172 194.586 331.406 197.07 331.406C199.305 331.406 201.055 332.812 201.055 335.703V336.359H195.258C195.258 337.641 196.023 338.438 197.211 338.438C197.992 338.438 198.555 338.094 198.789 337.578H200.992C200.664 339.141 199.258 340.172 197.164 340.172ZM195.258 334.906H198.867C198.867 333.875 198.148 333.141 197.117 333.141C196.055 333.141 195.297 333.93 195.258 334.906ZM202.508 340V331.516H204.711V333H204.805C205.164 332.016 206.023 331.406 207.164 331.406C208.336 331.406 209.195 332.016 209.477 333H209.555C209.914 332.031 210.867 331.406 212.117 331.406C213.695 331.406 214.789 332.453 214.789 334.297V340H212.477V334.75C212.477 333.781 211.914 333.312 211.148 333.312C210.273 333.312 209.773 333.922 209.773 334.812V340H207.523V334.688C207.523 333.844 206.992 333.312 206.211 333.312C205.43 333.312 204.82 333.938 204.82 334.906V340H202.508Z" fill="url(#paint4_linear_462_1168)"/>
<rect x="235" y="309" width="85" height="49" rx="10" fill="white"/>
<path d="M247.992 339.5V328.188H252.43C255.008 328.188 256.477 329.641 256.477 331.875C256.477 333.422 255.766 334.547 254.477 335.094L256.883 339.5H254.289L252.133 335.484H250.336V339.5H247.992ZM250.336 333.578H251.992C253.383 333.578 254.055 333 254.055 331.875C254.055 330.734 253.383 330.109 251.992 330.109H250.336V333.578ZM257.648 337.125C257.648 335.234 259.18 334.609 260.805 334.516C261.414 334.477 262.555 334.422 262.914 334.406V333.719C262.898 333.016 262.414 332.594 261.555 332.594C260.773 332.594 260.273 332.953 260.148 333.531H257.945C258.086 332.062 259.367 330.906 261.617 330.906C263.461 330.906 265.211 331.734 265.211 333.781V339.5H263.023V338.328H262.961C262.539 339.109 261.742 339.656 260.477 339.656C258.852 339.656 257.648 338.812 257.648 337.125ZM259.867 337.062C259.867 337.719 260.398 338.062 261.133 338.062C262.18 338.062 262.93 337.359 262.914 336.469V335.844C262.562 335.859 261.578 335.914 261.18 335.953C260.383 336.031 259.867 336.406 259.867 337.062ZM269.289 334.594V339.5H266.977V331.016H269.18V332.5H269.273C269.664 331.516 270.57 330.906 271.82 330.906C273.586 330.906 274.758 332.109 274.742 334.094V339.5H272.445V334.5C272.445 333.453 271.867 332.828 270.914 332.828C269.945 332.828 269.289 333.469 269.289 334.594ZM276.539 339.5V328.188H278.852V334.266H278.977L281.727 331.016H284.383L281.227 334.688L284.555 339.5H281.836L279.508 336.047L278.852 336.781V339.5H276.539ZM285.461 339.5V331.016H287.773V339.5H285.461ZM286.617 329.906C285.914 329.906 285.352 329.375 285.352 328.734C285.352 328.078 285.914 327.547 286.617 327.547C287.305 327.547 287.867 328.078 287.867 328.734C287.867 329.375 287.305 329.906 286.617 329.906ZM291.883 334.594V339.5H289.57V331.016H291.773V332.5H291.867C292.258 331.516 293.164 330.906 294.414 330.906C296.18 330.906 297.352 332.109 297.336 334.094V339.5H295.039V334.5C295.039 333.453 294.461 332.828 293.508 332.828C292.539 332.828 291.883 333.469 291.883 334.594ZM302.945 342.859C300.602 342.859 299.164 341.812 299.023 340.203H301.305C301.43 340.875 302.07 341.188 302.992 341.188C304.07 341.188 304.789 340.734 304.789 339.547V338H304.68C304.367 338.688 303.617 339.375 302.258 339.375C300.336 339.375 298.805 338.031 298.805 335.203C298.805 332.328 300.383 330.906 302.258 330.906C303.68 330.906 304.367 331.75 304.68 332.438H304.773V331.016H307.07V339.594C307.07 341.75 305.352 342.859 302.945 342.859ZM302.977 337.641C304.133 337.641 304.789 336.734 304.789 335.234C304.789 333.719 304.133 332.75 302.977 332.75C301.805 332.75 301.18 333.766 301.18 335.234C301.18 336.703 301.805 337.641 302.977 337.641Z" fill="url(#paint5_linear_462_1168)"/>
<rect x="329" y="309" width="112" height="50" rx="10" fill="white"/>
<path d="M349.414 340H346.883L350.805 328.688H353.82L357.727 340H355.211L354.367 337.391H350.273L349.414 340ZM350.867 335.562H353.773L352.352 331.234H352.273L350.867 335.562ZM362.383 340.172C359.789 340.172 358.227 338.375 358.227 335.781C358.227 333.188 359.805 331.406 362.383 331.406C364.57 331.406 366.055 332.688 366.148 334.625H363.977C363.836 333.781 363.289 333.203 362.414 333.203C361.305 333.203 360.57 334.141 360.57 335.75C360.57 337.391 361.289 338.328 362.414 338.328C363.227 338.328 363.836 337.828 363.977 336.922H366.148C366.039 338.844 364.633 340.172 362.383 340.172ZM372.055 331.516V333.25H370.461V337.391C370.461 338.062 370.789 338.234 371.258 338.25C371.492 338.25 371.898 338.234 372.18 338.203V340.031C371.93 340.078 371.523 340.109 370.945 340.109C369.273 340.109 368.133 339.359 368.148 337.719V333.25H366.977V331.516H368.148V329.484H370.461V331.516H372.055ZM373.508 340V331.516H375.82V340H373.508ZM374.664 330.406C373.961 330.406 373.398 329.875 373.398 329.234C373.398 328.578 373.961 328.047 374.664 328.047C375.352 328.047 375.914 328.578 375.914 329.234C375.914 329.875 375.352 330.406 374.664 330.406ZM385.492 331.516L382.508 340H379.914L376.945 331.516H379.383L381.164 337.609H381.258L383.039 331.516H385.492ZM385.977 337.625C385.977 335.734 387.508 335.109 389.133 335.016C389.742 334.977 390.883 334.922 391.242 334.906V334.219C391.227 333.516 390.742 333.094 389.883 333.094C389.102 333.094 388.602 333.453 388.477 334.031H386.273C386.414 332.562 387.695 331.406 389.945 331.406C391.789 331.406 393.539 332.234 393.539 334.281V340H391.352V338.828H391.289C390.867 339.609 390.07 340.156 388.805 340.156C387.18 340.156 385.977 339.312 385.977 337.625ZM388.195 337.562C388.195 338.219 388.727 338.562 389.461 338.562C390.508 338.562 391.258 337.859 391.242 336.969V336.344C390.891 336.359 389.906 336.414 389.508 336.453C388.711 336.531 388.195 336.906 388.195 337.562ZM399.773 331.516V333.25H398.18V337.391C398.18 338.062 398.508 338.234 398.977 338.25C399.211 338.25 399.617 338.234 399.898 338.203V340.031C399.648 340.078 399.242 340.109 398.664 340.109C396.992 340.109 395.852 339.359 395.867 337.719V333.25H394.695V331.516H395.867V329.484H398.18V331.516H399.773ZM401.227 340V331.516H403.539V340H401.227ZM402.383 330.406C401.68 330.406 401.117 329.875 401.117 329.234C401.117 328.578 401.68 328.047 402.383 328.047C403.07 328.047 403.633 328.578 403.633 329.234C403.633 329.875 403.07 330.406 402.383 330.406ZM409.148 340.172C406.586 340.172 404.992 338.406 404.992 335.781C404.992 333.156 406.586 331.406 409.148 331.406C411.711 331.406 413.32 333.156 413.32 335.781C413.32 338.406 411.711 340.172 409.148 340.172ZM409.164 338.375C410.352 338.375 410.961 337.266 410.961 335.781C410.961 334.281 410.352 333.172 409.164 333.172C407.961 333.172 407.336 334.281 407.336 335.781C407.336 337.266 407.961 338.375 409.164 338.375ZM417.086 335.094V340H414.773V331.516H416.977V333H417.07C417.461 332.016 418.367 331.406 419.617 331.406C421.383 331.406 422.555 332.609 422.539 334.594V340H420.242V335C420.242 333.953 419.664 333.328 418.711 333.328C417.742 333.328 417.086 333.969 417.086 335.094Z" fill="url(#paint6_linear_462_1168)"/>
</g>
<defs>
<filter id="filter0_d_462_1168" x="0" y="0" width="547" height="593" filterUnits="userSpaceOnUse" color-interpolation-filters="sRGB">
<feFlood flood-opacity="0" result="BackgroundImageFix"/>
<feColorMatrix in="SourceAlpha" type="matrix" values="0 0 0 0 0 0 0 0 0 0 0 0 0 0 0 0 0 0 127 0" result="hardAlpha"/>
<feOffset dy="10"/>
<feGaussianBlur stdDeviation="35"/>
<feComposite in2="hardAlpha" operator="out"/>
<feColorMatrix type="matrix" values="0 0 0 0 0.192157 0 0 0 0 0.509804 0 0 0 0 0.964706 0 0 0 0.3 0"/>
<feBlend mode="normal" in2="BackgroundImageFix" result="effect1_dropShadow_462_1168"/>
<feBlend mode="normal" in="SourceGraphic" in2="effect1_dropShadow_462_1168" result="shape"/>
</filter>
<linearGradient id="paint0_linear_462_1168" x1="88.5" y1="87.609" x2="413.475" y2="552.631" gradientUnits="userSpaceOnUse">
<stop stop-color="#3182F6"/>
<stop offset="1" stop-color="#004DBC"/>
</linearGradient>
<linearGradient id="paint1_linear_462_1168" x1="101" y1="193" x2="157.5" y2="193" gradientUnits="userSpaceOnUse">
<stop stop-color="#3182F6"/>
<stop offset="1" stop-color="#A009FF"/>
</linearGradient>
<linearGradient id="paint2_linear_462_1168" x1="102" y1="302" x2="156.5" y2="302" gradientUnits="userSpaceOnUse">
<stop stop-color="#3182F6"/>
<stop offset="1" stop-color="#A009FF"/>
</linearGradient>
<linearGradient id="paint3_linear_462_1168" x1="106" y1="144.5" x2="441" y2="144.5" gradientUnits="userSpaceOnUse">
<stop stop-color="#3182F6"/>
<stop offset="1" stop-color="#A009FF"/>
</linearGradient>
<linearGradient id="paint4_linear_462_1168" x1="108.208" y1="333.5" x2="230.286" y2="333.5" gradientUnits="userSpaceOnUse">
<stop stop-color="#3182F6"/>
<stop offset="1" stop-color="#A009FF"/>
</linearGradient>
<linearGradient id="paint5_linear_462_1168" x1="240.513" y1="333" x2="318.643" y2="333" gradientUnits="userSpaceOnUse">
<stop stop-color="#3182F6"/>
<stop offset="1" stop-color="#A009FF"/>
</linearGradient>
<linearGradient id="paint6_linear_462_1168" x1="340.5" y1="333.5" x2="434.5" y2="333.5" gradientUnits="userSpaceOnUse">
<stop stop-color="#3182F6"/>
<stop offset="1" stop-color="#A009FF"/>
</linearGradient>
</defs>
</svg>
