<svg width="547" height="593" viewBox="0 0 547 593" fill="none" xmlns="http://www.w3.org/2000/svg">
<g filter="url(#filter0_d_477_944)">
<rect x="70.5" y="60.5" width="406" height="452" rx="20.5" fill="white" stroke="url(#paint0_linear_477_944)"/>
<rect x="71" y="255" width="405" height="257" rx="20" fill="#EDF6FF"/>
<path d="M346.396 119.295V120.455H332.088V119.295H338.539V115.709H339.893V119.295H346.396ZM345.025 109.293V110.436H339.928C339.937 112.888 342.538 114.689 345.535 115.182L345.008 116.271C342.503 115.823 340.209 114.566 339.225 112.615C338.231 114.566 335.938 115.823 333.424 116.271L332.879 115.182C335.894 114.689 338.513 112.888 338.521 110.436H333.424V109.293H338.539V107.131H339.893V109.293H345.025ZM361.9 114.232V115.393H347.645V114.232H361.9ZM360.23 111.613V112.738H349.455V107.43H360.125V108.59H350.809V111.613H360.23ZM354.764 116.764C358.121 116.764 360.125 117.783 360.143 119.576C360.125 121.387 358.121 122.389 354.764 122.389C351.389 122.389 349.367 121.387 349.367 119.576C349.367 117.783 351.389 116.764 354.764 116.764ZM354.764 117.836C352.25 117.854 350.756 118.486 350.773 119.576C350.756 120.684 352.25 121.299 354.764 121.299C357.242 121.299 358.754 120.684 358.754 119.576C358.754 118.486 357.242 117.854 354.764 117.836ZM372.553 108.484V109.609H363.236V108.484H367.209V106.727H368.58V108.484H372.553ZM367.895 110.418C370.145 110.436 371.639 111.525 371.656 113.248C371.639 114.953 370.145 116.061 367.895 116.061C365.645 116.061 364.115 114.953 364.133 113.248C364.115 111.525 365.645 110.436 367.895 110.418ZM367.895 111.49C366.418 111.508 365.434 112.193 365.451 113.248C365.434 114.285 366.418 114.953 367.895 114.953C369.354 114.953 370.338 114.285 370.355 113.248C370.338 112.193 369.354 111.508 367.895 111.49ZM375.418 106.797V111.139H377.773V112.299H375.418V116.57H374.047V106.797H375.418ZM375.418 117.432V122.424H374.047V118.557H365.188V117.432H375.418ZM391.309 108.379V110.119C391.309 112.123 391.309 114.145 390.746 117.045L389.393 116.887C389.955 114.127 389.955 112.07 389.955 110.119V109.521H380.252V108.379H391.309ZM392.996 119.066V120.209H378.758V119.066H382.291V113.916H383.662V119.066H386.193V113.916H387.547V119.066H392.996ZM399.078 118.398V117.098L404.809 108.273H406.76V117.01H408.535V118.398H406.76V121H405.248V118.398H399.078ZM400.783 117.01H405.248V110.277H405.09L400.783 116.904V117.01ZM419.416 108.484V109.609H410.1V108.484H414.072V106.727H415.443V108.484H419.416ZM414.758 110.418C417.008 110.436 418.502 111.525 418.52 113.248C418.502 114.953 417.008 116.061 414.758 116.061C412.508 116.061 410.979 114.953 410.996 113.248C410.979 111.525 412.508 110.436 414.758 110.418ZM414.758 111.49C413.281 111.508 412.297 112.193 412.314 113.248C412.297 114.285 413.281 114.953 414.758 114.953C416.217 114.953 417.201 114.285 417.219 113.248C417.201 112.193 416.217 111.508 414.758 111.49ZM422.281 106.797V111.139H424.637V112.299H422.281V116.57H420.91V106.797H422.281ZM422.281 117.432V122.424H420.91V118.557H412.051V117.432H422.281ZM438.576 106.814V118.381H437.188V112.967H432.688V111.859H437.188V109.979H432.688V108.871H437.188V106.814H438.576ZM438.998 120.93V122.09H428.504V117.396H429.893V120.93H438.998ZM427.941 107.939V114.883C430.095 114.874 432.169 114.76 434.551 114.32L434.691 115.463C432.143 115.938 430.016 116.043 427.73 116.061H426.553V107.939H427.941Z" fill="#666666"/>
<path d="M116.922 107.086V109.453H106.609V107.086H110.312V104.414H113.266V107.086H116.922ZM111.812 110.414C114.531 110.414 116.477 112.523 116.5 115.477C116.477 118.453 114.531 120.562 111.812 120.562C109.094 120.562 107.102 118.453 107.102 115.477C107.102 112.523 109.094 110.414 111.812 110.414ZM111.812 112.898C110.57 112.898 109.727 113.859 109.727 115.477C109.727 117.094 110.57 118.031 111.812 118.031C113.008 118.031 113.852 117.094 113.875 115.477C113.852 113.859 113.008 112.898 111.812 112.898ZM125.078 103.828V125.156H122.242V114.891H120.508V124.242H117.719V104.25H120.508V112.5H122.242V103.828H125.078ZM145.352 103.828V114.562H142.375V112.922H137.5V110.648H142.375V108.773H137.734C136.41 111.984 133.363 114.035 128.641 115.055L127.633 112.617C132.52 111.645 134.781 109.629 135.18 107.062H128.828V104.648H138.484C138.484 105.293 138.438 105.914 138.344 106.5H142.375V103.828H145.352ZM145.352 115.336V121.172H134.195V122.578H145.82V124.945H131.195V118.969H142.352V117.68H131.172V115.336H145.352ZM163.586 116.883C168.016 116.883 170.781 118.406 170.781 121.008C170.781 123.656 168.016 125.18 163.586 125.18C159.062 125.18 156.273 123.656 156.273 121.008C156.273 118.406 159.062 116.883 163.586 116.883ZM163.586 119.203C160.773 119.203 159.25 119.789 159.273 121.008C159.25 122.227 160.773 122.859 163.586 122.859C166.352 122.859 167.828 122.227 167.828 121.008C167.828 119.789 166.352 119.203 163.586 119.203ZM170.57 103.828V108.773H173.453V111.281H170.57V116.414H167.57V103.828H170.57ZM157.258 105.164V107.859H161.617V105.164H164.617V115.195H154.281V105.164H157.258ZM157.258 112.828H161.617V110.18H157.258V112.828ZM191.312 103.828V109.945H194.195V112.43H191.312V119.367H188.312V103.828H191.312ZM192.086 122.391V124.781H177.484V117.727H180.461V122.391H192.086ZM180.391 105.211C183.648 105.211 186.203 107.461 186.203 110.625C186.203 113.742 183.648 116.039 180.391 116.039C177.109 116.039 174.531 113.742 174.531 110.625C174.531 107.461 177.109 105.211 180.391 105.211ZM180.391 107.812C178.773 107.789 177.461 108.844 177.484 110.625C177.461 112.359 178.773 113.438 180.391 113.438C182.031 113.438 183.273 112.359 183.297 110.625C183.273 108.844 182.031 107.789 180.391 107.812ZM219.156 103.828V125.156H216.297V103.828H219.156ZM214.797 104.133V124.172H211.984V117.562H209.477C208.68 119.637 207.285 120.82 205.492 120.82C202.68 120.82 200.852 117.867 200.852 113.062C200.852 108.281 202.68 105.352 205.492 105.352C207.273 105.352 208.668 106.512 209.477 108.562H211.984V104.133H214.797ZM205.492 108.164C204.25 108.164 203.547 109.805 203.57 113.062C203.547 116.344 204.25 117.961 205.492 117.938C206.734 117.961 207.484 116.344 207.484 113.062C207.484 109.805 206.711 108.164 205.492 108.164ZM210.062 110.953C210.156 111.609 210.203 112.312 210.203 113.062C210.203 113.801 210.156 114.504 210.062 115.148H211.984V110.953H210.062ZM229.703 108.656C229.703 112.57 231.484 116.508 235.094 118.031L233.336 120.422C230.898 119.32 229.211 117.199 228.25 114.562C227.277 117.434 225.531 119.754 222.93 120.938L221.125 118.453C224.852 116.883 226.656 112.805 226.68 108.656V105.469H229.703V108.656ZM239.266 103.828V125.203H236.242V103.828H239.266ZM248.383 123L248.359 120.445L254.453 114.844C256.047 113.32 256.891 112.383 256.891 111.047C256.891 109.547 255.742 108.609 254.195 108.609C252.602 108.609 251.57 109.617 251.57 111.234H248.219C248.195 107.906 250.656 105.797 254.242 105.797C257.875 105.797 260.289 107.859 260.289 110.812C260.289 112.734 259.352 114.328 255.859 117.492L253.281 120V120.094H260.523V123H248.383Z" fill="black"/>
<path d="M121.508 171.043V184.578H119.027V181.219H116.625V179.246H119.027V177.469H116.625V175.457H119.027V171.043H121.508ZM116.449 172.898V174.871H106.566V172.898H110.395V171.004H112.875V172.898H116.449ZM111.605 175.496C114.047 175.496 115.805 176.941 115.824 178.992C115.805 181.043 114.047 182.469 111.605 182.469C109.184 182.469 107.426 181.043 107.445 178.992C107.426 176.941 109.184 175.496 111.605 175.496ZM111.605 177.43C110.512 177.449 109.75 177.996 109.77 178.992C109.75 180.008 110.512 180.574 111.605 180.574C112.68 180.574 113.461 180.008 113.48 178.992C113.461 177.996 112.68 177.449 111.605 177.43ZM121.879 186.492V188.484H109.672V183.426H112.191V186.492H121.879ZM139.32 171.023V188.797H136.938V179.891H135.434V187.977H133.07V182.879L131.664 184.754C130.014 183.885 128.949 182.41 128.324 180.574C127.729 182.684 126.674 184.393 124.984 185.398L123.441 183.484C126.137 181.961 127.055 178.816 127.055 175.418V174.852H124.047V172.859H132.191V174.852H129.477V175.418C129.477 178.514 130.395 181.463 133.07 182.84V171.277H135.434V177.859H136.938V171.023H139.32ZM152.191 173.816C152.191 175.965 153.441 178.035 156.254 178.914L154.926 180.848C153.041 180.223 151.723 179.012 150.961 177.449C150.189 179.246 148.812 180.652 146.781 181.336L145.434 179.383C148.402 178.387 149.672 176.023 149.691 173.582V171.961H152.191V173.816ZM159.809 171.023V175.184H162.211V177.254H159.809V181.57H157.309V171.023H159.809ZM153.988 181.922C157.66 181.922 159.984 183.191 159.984 185.359C159.984 187.547 157.66 188.797 153.988 188.797C150.238 188.797 147.895 187.547 147.895 185.359C147.895 183.191 150.238 181.922 153.988 181.922ZM153.988 183.875C151.645 183.875 150.375 184.383 150.395 185.359C150.375 186.375 151.645 186.844 153.988 186.844C156.293 186.844 157.523 186.375 157.523 185.359C157.523 184.383 156.293 183.875 153.988 183.875ZM170.844 172.879V174.852H165.98V177.527H170.492V179.441H165.98V182.645C167.982 182.625 169.438 182.557 171.176 182.312L171.352 184.344C169.301 184.676 167.543 184.734 164.848 184.734H163.598V172.879H170.844ZM178.402 171.023V188.797H176.02V179.91H174.477V187.977H172.133V171.277H174.477V177.918H176.02V171.023H178.402Z" fill="url(#paint1_linear_477_944)"/>
<path d="M110.816 204.01C113.119 204.027 114.754 206.137 114.771 209.459C114.754 212.781 113.119 214.891 110.816 214.891C108.496 214.891 106.879 212.781 106.879 209.459C106.879 206.137 108.496 204.027 110.816 204.01ZM110.816 205.24C109.27 205.258 108.18 206.91 108.18 209.459C108.18 212.008 109.27 213.66 110.816 213.66C112.381 213.66 113.436 212.008 113.436 209.459C113.436 206.91 112.381 205.258 110.816 205.24ZM118.727 202.797V209.037H121.346V210.232H118.727V218.424H117.355V202.797H118.727ZM135.074 202.797V218.459H133.686V202.797H135.074ZM126.76 204.01C129.08 204.027 130.75 206.137 130.75 209.459C130.75 212.781 129.08 214.891 126.76 214.891C124.422 214.891 122.77 212.781 122.77 209.459C122.77 206.137 124.422 204.027 126.76 204.01ZM126.76 205.24C125.195 205.258 124.105 206.91 124.105 209.459C124.105 212.008 125.195 213.66 126.76 213.66C128.324 213.66 129.414 212.008 129.414 209.459C129.414 206.91 128.324 205.258 126.76 205.24ZM149.84 202.797V209.16H152.371V210.32H149.84V218.424H148.469V202.797H149.84ZM145.797 204.484C145.797 208.914 143.723 212.939 138.625 215.453L137.852 214.363C141.895 212.351 144.092 209.345 144.408 205.645H138.572V204.484H145.797ZM162.443 206.189C162.443 208.035 163.674 209.846 165.66 210.566L164.992 211.639C163.463 211.032 162.382 209.863 161.828 208.439C161.283 209.986 160.185 211.261 158.629 211.92L157.943 210.883C159.93 210.057 161.125 208.176 161.143 206.189V205.996H158.26V204.871H161.143V202.99H162.443V204.871H165.273V205.996H162.443V206.189ZM171.092 202.814V212.377H169.773V208.141H167.734V212.307H166.398V203.096H167.734V206.998H169.773V202.814H171.092ZM171.092 213.221V218.424H169.738V214.346H160.562V213.221H171.092ZM187.615 211.041V212.166H173.377V211.041H187.615ZM186.033 216.93V218.09H175.223V213.537H176.611V216.93H186.033ZM180.496 203.359C183.854 203.342 186.016 204.502 186.016 206.453C186.016 208.404 183.854 209.564 180.496 209.564C177.104 209.564 174.959 208.404 174.959 206.453C174.959 204.502 177.104 203.342 180.496 203.359ZM180.496 204.467C177.982 204.467 176.365 205.223 176.383 206.453C176.365 207.684 177.982 208.439 180.496 208.439C182.992 208.439 184.609 207.684 184.609 206.453C184.609 205.223 182.992 204.467 180.496 204.467ZM201.238 207.455V209.301H207.742V210.443H193.434V209.301H199.885V207.455H201.238ZM206.424 203.289V204.379H201.484C201.599 205.979 204.218 207.147 206.934 207.367L206.477 208.404C203.875 208.158 201.423 207.147 200.588 205.504C199.735 207.147 197.283 208.158 194.664 208.404L194.207 207.367C196.905 207.147 199.524 205.979 199.674 204.379H194.752V203.289H206.424ZM206.389 212.518V213.607H194.787V212.518H199.885V211.041H201.256V212.518H206.389ZM200.57 214.381C203.576 214.381 205.299 215.084 205.299 216.438C205.299 217.809 203.576 218.512 200.57 218.512C197.529 218.512 195.859 217.809 195.859 216.438C195.859 215.084 197.529 214.381 200.57 214.381ZM200.57 215.348C198.461 215.365 197.248 215.717 197.248 216.438C197.248 217.158 198.461 217.562 200.57 217.545C202.697 217.562 203.875 217.158 203.893 216.438C203.875 215.717 202.697 215.365 200.57 215.348ZM213.191 204.01C215.494 204.027 217.129 206.137 217.146 209.459C217.129 212.781 215.494 214.891 213.191 214.891C210.871 214.891 209.254 212.781 209.254 209.459C209.254 206.137 210.871 204.027 213.191 204.01ZM213.191 205.24C211.645 205.258 210.555 206.91 210.555 209.459C210.555 212.008 211.645 213.66 213.191 213.66C214.756 213.66 215.811 212.008 215.811 209.459C215.811 206.91 214.756 205.258 213.191 205.24ZM221.102 202.797V209.037H223.721V210.232H221.102V218.424H219.73V202.797H221.102ZM236.658 202.797V209.248H239.277V210.391H236.658V218.424H235.287V202.797H236.658ZM233.775 205.311V206.453H224.477V205.311H228.502V202.99H229.873V205.311H233.775ZM229.205 207.754C231.42 207.754 233.02 209.23 233.037 211.34C233.02 213.449 231.42 214.926 229.205 214.926C226.973 214.926 225.355 213.449 225.373 211.34C225.355 209.23 226.973 207.754 229.205 207.754ZM229.205 208.914C227.746 208.914 226.674 209.934 226.691 211.34C226.674 212.764 227.746 213.766 229.205 213.748C230.646 213.766 231.701 212.764 231.719 211.34C231.701 209.934 230.646 208.914 229.205 208.914ZM252.76 207.543V208.65H242.055V203.377H243.426V207.543H252.76ZM254.412 210.777V211.902H240.104V210.777H254.412ZM252.848 216.895V218.037H241.967V213.502H243.338V216.895H252.848ZM269.055 202.797V218.424H267.719V202.797H269.055ZM265.855 203.184V217.615H264.537V209.934H261.127V208.773H264.537V203.184H265.855ZM262.182 204.73V205.873H257.629V213.502C259.879 213.493 261.303 213.396 262.99 213.027L263.131 214.205C261.32 214.574 259.791 214.645 257.277 214.662H256.293V204.73H262.182ZM290.061 215.365V216.508H275.752V215.365H279.742V211.639H277.053V210.496H279.496V205.398H277.018V204.256H288.689V205.398H286.211V210.496H288.654V211.639H285.965V215.365H290.061ZM280.867 210.496H284.857V205.398H280.867V210.496ZM281.131 215.365H284.594V211.639H281.131V215.365ZM304.264 202.814V214.732H302.875V211.375H300.168V210.25H302.875V208.123H300.168V206.98H302.875V202.814H304.264ZM300.168 204.73V205.855H291.326V204.73H295.123V202.797H296.494V204.73H300.168ZM295.791 206.717C297.883 206.717 299.359 207.912 299.359 209.705C299.359 211.48 297.883 212.693 295.791 212.693C293.699 212.693 292.24 211.48 292.258 209.705C292.24 207.912 293.699 206.717 295.791 206.717ZM295.791 207.807C294.455 207.824 293.541 208.58 293.541 209.705C293.541 210.83 294.455 211.586 295.791 211.586C297.127 211.586 298.041 210.83 298.059 209.705C298.041 208.58 297.127 207.824 295.791 207.807ZM304.615 216.93V218.09H294.156V213.678H295.545V216.93H304.615ZM314.283 203.764V208.141H308.904V210.566C311.84 210.566 313.352 210.522 315.197 210.18L315.338 211.322C313.387 211.639 311.805 211.691 308.641 211.691H307.533V207.086H312.912V204.871H307.498V203.764H314.283ZM319.82 202.814V212.412H318.432V209.512H315.32V208.369H318.432V206.26H315.32V205.135H318.432V202.814H319.82ZM319.82 213.256V218.459H318.432V214.381H309.291V213.256H319.82ZM335.307 202.797V218.459H333.918V202.797H335.307ZM326.992 204.01C329.312 204.027 330.982 206.137 330.982 209.459C330.982 212.781 329.312 214.891 326.992 214.891C324.654 214.891 323.002 212.781 323.002 209.459C323.002 206.137 324.654 204.027 326.992 204.01ZM326.992 205.24C325.428 205.258 324.338 206.91 324.338 209.459C324.338 212.008 325.428 213.66 326.992 213.66C328.557 213.66 329.646 212.008 329.646 209.459C329.646 206.91 328.557 205.258 326.992 205.24ZM356.787 212.078V213.203H350.266V218.424H348.912V213.203H342.479V212.078H356.787ZM345.678 203.447V205.609H353.553V203.447H354.941V210.18H344.307V203.447H345.678ZM345.678 209.055H353.553V206.734H345.678V209.055ZM371.025 203.447V204.572H366.068C366.086 206.348 368.74 207.754 371.5 208.07L370.99 209.16C368.433 208.835 366.033 207.692 365.172 205.943C364.319 207.692 361.929 208.835 359.371 209.16L358.861 208.07C361.604 207.754 364.24 206.348 364.275 204.572H359.354V203.447H371.025ZM372.344 210.654V211.797H358.053V210.654H364.486V208.281H365.84V210.654H372.344ZM370.533 213.344V218.424H369.145V214.469H359.635V213.344H370.533ZM381.414 205.504V206.629H373.574V205.504H376.826V203.271H378.197V205.504H381.414ZM377.494 207.684C379.463 207.684 380.869 209.16 380.887 211.234C380.869 213.326 379.463 214.82 377.494 214.82C375.543 214.82 374.137 213.326 374.137 211.234C374.137 209.16 375.543 207.684 377.494 207.684ZM377.494 208.844C376.264 208.861 375.367 209.863 375.367 211.234C375.367 212.623 376.264 213.625 377.494 213.607C378.742 213.625 379.656 212.623 379.656 211.234C379.656 209.863 378.742 208.861 377.494 208.844ZM386.916 202.797V218.424H385.598V210.531H383.523V217.65H382.223V203.184H383.523V209.389H385.598V202.797H386.916ZM403.475 215.26V216.42H389.166V215.26H392.717V211.041C391.381 210.347 390.572 209.222 390.572 207.807C390.572 205.381 392.945 203.799 396.285 203.781C399.625 203.799 401.998 205.381 401.998 207.807C401.998 209.195 401.216 210.312 399.924 211.006V215.26H403.475ZM396.285 204.924C393.719 204.906 391.908 206.066 391.908 207.807C391.908 209.547 393.719 210.725 396.285 210.725C398.834 210.725 400.662 209.547 400.662 207.807C400.662 206.066 398.834 204.906 396.285 204.924ZM394.07 215.26H398.535V211.533C397.858 211.718 397.103 211.814 396.285 211.814C395.485 211.814 394.738 211.727 394.07 211.551V215.26Z" fill="black"/>
<path d="M115.102 282.738V284.711H106.508V282.738H109.594V280.512H112.055V282.738H115.102ZM110.844 285.512C113.109 285.512 114.73 287.27 114.75 289.73C114.73 292.211 113.109 293.969 110.844 293.969C108.578 293.969 106.918 292.211 106.918 289.73C106.918 287.27 108.578 285.512 110.844 285.512ZM110.844 287.582C109.809 287.582 109.105 288.383 109.105 289.73C109.105 291.078 109.809 291.859 110.844 291.859C111.84 291.859 112.543 291.078 112.562 289.73C112.543 288.383 111.84 287.582 110.844 287.582ZM121.898 280.023V297.797H119.535V289.242H118.09V297.035H115.766V280.375H118.09V287.25H119.535V280.023H121.898ZM138.793 280.023V288.969H136.312V287.602H132.25V285.707H136.312V284.145H132.445C131.342 286.82 128.803 288.529 124.867 289.379L124.027 287.348C128.1 286.537 129.984 284.857 130.316 282.719H125.023V280.707H133.07C133.07 281.244 133.031 281.762 132.953 282.25H136.312V280.023H138.793ZM138.793 289.613V294.477H129.496V295.648H139.184V297.621H126.996V292.641H136.293V291.566H126.977V289.613H138.793ZM149.379 290.902C153.07 290.902 155.375 292.172 155.375 294.34C155.375 296.547 153.07 297.816 149.379 297.816C145.609 297.816 143.285 296.547 143.285 294.34C143.285 292.172 145.609 290.902 149.379 290.902ZM149.379 292.836C147.035 292.836 145.766 293.324 145.785 294.34C145.766 295.355 147.035 295.883 149.379 295.883C151.684 295.883 152.914 295.355 152.914 294.34C152.914 293.324 151.684 292.836 149.379 292.836ZM155.199 280.023V284.145H157.602V286.234H155.199V290.512H152.699V280.023H155.199ZM144.105 281.137V283.383H147.738V281.137H150.238V289.496H141.625V281.137H144.105ZM144.105 287.523H147.738V285.316H144.105V287.523ZM172.484 280.023V285.121H174.887V287.191H172.484V292.973H169.984V280.023H172.484ZM173.129 295.492V297.484H160.961V291.605H163.441V295.492H173.129ZM163.383 281.176C166.098 281.176 168.227 283.051 168.227 285.688C168.227 288.285 166.098 290.199 163.383 290.199C160.648 290.199 158.5 288.285 158.5 285.688C158.5 283.051 160.648 281.176 163.383 281.176ZM163.383 283.344C162.035 283.324 160.941 284.203 160.961 285.688C160.941 287.133 162.035 288.031 163.383 288.031C164.75 288.031 165.785 287.133 165.805 285.688C165.785 284.203 164.75 283.324 163.383 283.344Z" fill="url(#paint2_linear_477_944)"/>
<path d="M110.281 396.453C112.328 396.469 113.781 398.344 113.797 401.297C113.781 404.25 112.328 406.125 110.281 406.125C108.219 406.125 106.781 404.25 106.781 401.297C106.781 398.344 108.219 396.469 110.281 396.453ZM110.281 397.547C108.906 397.562 107.938 399.031 107.938 401.297C107.938 403.562 108.906 405.031 110.281 405.031C111.672 405.031 112.609 403.562 112.609 401.297C112.609 399.031 111.672 397.562 110.281 397.547ZM117.312 395.375V400.922H119.641V401.984H117.312V409.266H116.094V395.375H117.312ZM131.844 395.375V409.297H130.609V395.375H131.844ZM124.453 396.453C126.516 396.469 128 398.344 128 401.297C128 404.25 126.516 406.125 124.453 406.125C122.375 406.125 120.906 404.25 120.906 401.297C120.906 398.344 122.375 396.469 124.453 396.453ZM124.453 397.547C123.062 397.562 122.094 399.031 122.094 401.297C122.094 403.562 123.062 405.031 124.453 405.031C125.844 405.031 126.812 403.562 126.812 401.297C126.812 399.031 125.844 397.562 124.453 397.547ZM144.969 395.375V401.031H147.219V402.062H144.969V409.266H143.75V395.375H144.969ZM141.375 396.875C141.375 400.812 139.531 404.391 135 406.625L134.312 405.656C137.906 403.867 139.859 401.195 140.141 397.906H134.953V396.875H141.375ZM164.781 406.453V407.484H152.062V406.453H157.781V403.062H153.562V396.547H163.203V403.062H158.984V406.453H164.781ZM154.766 397.531V402.078H162.016V397.531H154.766ZM178.609 406.484V407.516H165.891V406.484H178.609ZM177 396.438V400.641H168.703V402.922H177.328V403.906H167.484V399.641H175.797V397.453H167.453V396.438H177ZM190.953 399.594V400.578H181.438V395.891H182.656V399.594H190.953ZM192.422 402.469V403.469H179.703V402.469H192.422ZM191.031 407.906V408.922H181.359V404.891H182.578V407.906H191.031ZM210.281 406.547V407.562H197.562V406.547H201.109V403.234H198.719V402.219H200.891V397.688H198.688V396.672H209.062V397.688H206.859V402.219H209.031V403.234H206.641V406.547H210.281ZM202.109 402.219H205.656V397.688H202.109V402.219ZM202.344 406.547H205.422V403.234H202.344V406.547ZM222.906 395.391V405.984H221.672V403H219.266V402H221.672V400.109H219.266V399.094H221.672V395.391H222.906ZM219.266 397.094V398.094H211.406V397.094H214.781V395.375H216V397.094H219.266ZM215.375 398.859C217.234 398.859 218.547 399.922 218.547 401.516C218.547 403.094 217.234 404.172 215.375 404.172C213.516 404.172 212.219 403.094 212.234 401.516C212.219 399.922 213.516 398.859 215.375 398.859ZM215.375 399.828C214.188 399.844 213.375 400.516 213.375 401.516C213.375 402.516 214.188 403.188 215.375 403.188C216.562 403.188 217.375 402.516 217.391 401.516C217.375 400.516 216.562 399.844 215.375 399.828ZM223.219 407.938V408.969H213.922V405.047H215.156V407.938H223.219ZM231.547 395.625C234.641 395.625 236.453 396.469 236.453 398.016C236.453 399.594 234.641 400.438 231.547 400.453C228.453 400.438 226.625 399.594 226.625 398.016C226.625 396.469 228.453 395.625 231.547 395.625ZM231.547 396.547C229.234 396.547 227.891 397.109 227.906 398.016C227.891 398.984 229.234 399.516 231.547 399.516C233.844 399.516 235.203 398.984 235.203 398.016C235.203 397.109 233.844 396.547 231.547 396.547ZM237.875 401.391V402.391H225.219V401.391H237.875ZM236.25 403.594V406.703H228V408.141H236.672V409.109H226.781V405.797H235.047V404.531H226.75V403.594H236.25ZM244.75 396.703V400.094H247.766V396.703H248.906V405.797H243.578V396.703H244.75ZM244.75 404.781H247.766V401.094H244.75V404.781ZM254.969 395.375V409.266H253.781V401.906H251.844V408.562H250.672V395.672H251.844V400.891H253.781V395.375H254.969ZM269.594 403.344V404.375H263.797V409.266H262.594V404.375H256.875V403.344H269.594ZM263.203 395.938C266.125 395.938 268.094 397.109 268.094 399C268.094 400.844 266.125 402.016 263.203 402.016C260.281 402.016 258.312 400.844 258.312 399C258.312 397.109 260.281 395.938 263.203 395.938ZM263.203 396.938C261.031 396.938 259.562 397.75 259.578 399C259.562 400.234 261.031 401.031 263.203 401.031C265.359 401.031 266.844 400.234 266.844 399C266.844 397.75 265.359 396.938 263.203 396.938ZM281.859 396.781V398.172C281.844 399.875 281.844 401.781 281.344 404.578L280.094 404.438C280.625 401.781 280.625 399.828 280.625 398.172V397.797H272.062V396.781H281.859ZM283.375 406.281V407.297H270.719V406.281H275.688V401.312H276.891V406.281H283.375ZM289.25 399.641C289.234 401.875 290.844 404.328 292.859 405.281L292.156 406.25C290.594 405.492 289.273 403.836 288.656 401.953C288.016 404 286.617 405.797 285.062 406.594L284.312 405.625C286.312 404.656 288.031 402.016 288.047 399.641V397.828H284.812V396.812H292.375V397.828H289.25V399.641ZM295.297 395.375V401H297.625V402.047H295.297V409.266H294.078V395.375H295.297ZM313.141 395.375V401.109H315.469V402.125H313.141V409.266H311.922V395.375H313.141ZM310.578 397.609V398.625H302.312V397.609H305.891V395.547H307.109V397.609H310.578ZM306.516 399.781C308.484 399.781 309.906 401.094 309.922 402.969C309.906 404.844 308.484 406.156 306.516 406.156C304.531 406.156 303.094 404.844 303.109 402.969C303.094 401.094 304.531 399.781 306.516 399.781ZM306.516 400.812C305.219 400.812 304.266 401.719 304.281 402.969C304.266 404.234 305.219 405.125 306.516 405.109C307.797 405.125 308.734 404.234 308.75 402.969C308.734 401.719 307.797 400.812 306.516 400.812ZM327.453 399.594V400.578H317.938V395.891H319.156V399.594H327.453ZM328.922 402.469V403.469H316.203V402.469H328.922ZM327.531 407.906V408.922H317.859V404.891H319.078V407.906H327.531ZM345.578 395.375V403.656H344.344V400.016H341.547V399H344.344V395.375H345.578ZM340.969 404.094C343.859 404.094 345.625 405.031 345.625 406.672C345.625 408.312 343.859 409.25 340.969 409.266C338.078 409.25 336.312 408.312 336.312 406.672C336.312 405.031 338.078 404.094 340.969 404.094ZM340.969 405.047C338.844 405.047 337.516 405.656 337.531 406.672C337.516 407.672 338.844 408.281 340.969 408.281C343.094 408.281 344.406 407.672 344.406 406.672C344.406 405.656 343.094 405.047 340.969 405.047ZM338.891 397.922C338.891 399.734 340.281 401.453 342.312 402.156L341.672 403.141C340.109 402.578 338.898 401.414 338.312 399.969C337.703 401.602 336.414 402.906 334.766 403.531L334.125 402.547C336.188 401.797 337.656 399.922 337.656 397.938V397.422H334.516V396.391H342V397.422H338.891V397.922ZM352.781 399.109C352.781 401.625 354.391 404.156 356.406 405.078L355.672 406.078C354.094 405.266 352.789 403.602 352.172 401.625C351.555 403.703 350.25 405.484 348.672 406.328L347.875 405.344C349.906 404.344 351.531 401.672 351.531 399.109V396.578H352.781V399.109ZM359.406 395.375V409.297H358.188V401.125H354.891V400.125H358.188V395.375H359.406ZM366.547 397.938C366.547 399.75 367.938 401.469 369.969 402.172L369.328 403.141C367.758 402.578 366.547 401.414 365.953 399.984C365.352 401.586 364.07 402.867 362.422 403.469L361.781 402.5C363.828 401.766 365.312 399.906 365.312 397.953V397.344H362.172V396.344H369.656V397.344H366.547V397.938ZM373.234 404.438V409.266H372V405.453H363.891V404.438H373.234ZM373.234 395.375V403.703H372V400.047H369.219V399.016H372V395.375H373.234ZM386.688 397.109C386.672 398.812 389.016 400.203 391.469 400.547L390.984 401.516C388.742 401.195 386.648 400.07 385.891 398.438C385.141 400.07 383.055 401.195 380.797 401.516L380.344 400.547C382.797 400.203 385.094 398.812 385.094 397.109V397.078H380.719V396.078H391.094V397.078H386.688V397.109ZM392.266 402.531V403.547H386.609V406.391H385.391V403.547H379.547V402.531H392.266ZM390.844 407.938V408.969H381.172V405H382.406V407.938H390.844ZM404.844 395.375V409.297H403.609V395.375H404.844ZM395.422 396.562V400.234H399.562V396.562H400.766V405.938H394.203V396.562H395.422ZM395.422 404.906H399.562V401.219H395.422V404.906ZM411.406 396.281C413.547 396.297 415.094 397.609 415.109 399.547C415.094 401.289 413.844 402.531 412.031 402.75V405.125C413.328 405.062 414.633 404.969 415.844 404.812L415.922 405.734C412.984 406.234 409.688 406.266 407.25 406.25L407.047 405.219C408.164 405.211 409.461 405.203 410.797 405.156V402.75C408.953 402.539 407.688 401.297 407.703 399.547C407.688 397.609 409.234 396.297 411.406 396.281ZM411.406 397.344C409.953 397.344 408.891 398.25 408.906 399.547C408.891 400.844 409.953 401.75 411.406 401.75C412.844 401.75 413.891 400.844 413.906 399.547C413.891 398.25 412.844 397.344 411.406 397.344ZM417.953 395.375V401.109H420.219V402.172H417.953V409.266H416.734V395.375H417.953ZM117.547 422.281V423.5C117.547 424.82 117.547 426.25 117.156 428.25H119.219V429.266H113.484V435.297H112.25V429.266H106.562V428.25H115.906C116.328 426.25 116.328 424.789 116.328 423.5V423.297H108.156V422.281H117.547ZM133.109 432.453V433.484H120.391V432.453H126.125V429.078H127.359V432.453H133.109ZM127.359 424.016C127.359 426.234 130.109 428.141 132.5 428.531L132 429.5C129.875 429.086 127.633 427.734 126.75 425.797C125.852 427.742 123.617 429.125 121.531 429.562L121.016 428.578C123.359 428.172 126.094 426.234 126.094 424.016V423.672H121.438V422.641H132.016V423.672H127.359V424.016ZM145 421.375V427.297H147.219V428.328H145V435.266H143.766V421.375H145ZM134.047 431.562C135.18 431.562 136.5 431.562 137.875 431.516V429.969C136.258 429.789 135.203 428.844 135.219 427.469C135.203 425.906 136.531 424.891 138.5 424.891C140.438 424.891 141.781 425.906 141.797 427.469C141.781 428.844 140.711 429.789 139.109 429.984V431.469C140.406 431.406 141.711 431.305 142.922 431.125L143 432.062C139.969 432.578 136.688 432.609 134.25 432.609L134.047 431.562ZM142.672 423.078V424.078H134.297V423.078H137.875V421.406H139.109V423.078H142.672ZM138.5 425.844C137.219 425.844 136.359 426.5 136.359 427.469C136.359 428.438 137.219 429.062 138.5 429.047C139.766 429.062 140.625 428.438 140.625 427.469C140.625 426.5 139.766 425.844 138.5 425.844ZM156.125 425.938V426.938H153.312V428.875C154.609 428.82 155.906 428.727 157.109 428.594L157.203 429.5C154.219 429.906 150.906 430 148.297 430L148.109 429C149.328 428.992 150.695 428.977 152.094 428.922V426.938H149.375V422.281H156.016V423.297H150.609V425.938H156.125ZM159.5 421.391V431.781H158.266V421.391H159.5ZM159.953 433.938V434.969H150.484V431.062H151.703V433.938H159.953ZM178.547 427.562V428.516H172.812V429.812H176.922V432.812H168.672V434.172H177.344V435.109H167.453V431.938H175.719V430.734H167.422V429.812H171.609V428.516H165.906V427.562H178.547ZM172.812 421.297V422.594H177.266V423.562H172.906C173.133 424.945 175.305 425.82 177.859 425.984L177.484 426.922C175.164 426.727 173.07 426.008 172.219 424.688C171.367 426.008 169.273 426.727 166.938 426.922L166.578 425.984C169.117 425.82 171.289 424.945 171.531 423.562H167.203V422.594H171.609V421.297H172.812ZM186.312 422.234V426.125H181.531V428.281C184.141 428.281 185.484 428.242 187.125 427.938L187.25 428.953C185.516 429.234 184.109 429.281 181.297 429.281H180.312V425.188H185.094V423.219H180.281V422.234H186.312ZM191.234 421.391V429.922H190V427.344H187.234V426.328H190V424.453H187.234V423.453H190V421.391H191.234ZM191.234 430.672V435.297H190V431.672H181.875V430.672H191.234ZM205.266 422.922V423.641C205.25 424.734 205.25 426.578 204.859 429.156L203.625 429.047C204 426.719 204.031 425.031 204.031 423.922H198.203V422.922H205.266ZM201.625 426.891V431.109C203.164 431.055 204.742 430.953 206.188 430.781L206.25 431.703C203.328 432.156 200.062 432.219 197.578 432.203L197.422 431.188C198.336 431.18 199.352 431.172 200.422 431.141V426.891H201.625ZM208.281 421.375V427.188H210.531V428.25H208.281V435.266H207.062V421.375H208.281ZM222.906 421.375V429.656H221.672V426.016H218.875V425H221.672V421.375H222.906ZM218.297 430.094C221.188 430.094 222.953 431.031 222.953 432.672C222.953 434.312 221.188 435.25 218.297 435.266C215.406 435.25 213.641 434.312 213.641 432.672C213.641 431.031 215.406 430.094 218.297 430.094ZM218.297 431.047C216.172 431.047 214.844 431.656 214.859 432.672C214.844 433.672 216.172 434.281 218.297 434.281C220.422 434.281 221.734 433.672 221.734 432.672C221.734 431.656 220.422 431.047 218.297 431.047ZM216.219 423.922C216.219 425.734 217.609 427.453 219.641 428.156L219 429.141C217.438 428.578 216.227 427.414 215.641 425.969C215.031 427.602 213.742 428.906 212.094 429.531L211.453 428.547C213.516 427.797 214.984 425.922 214.984 423.938V423.422H211.844V422.391H219.328V423.422H216.219V423.922ZM231.547 421.625C234.641 421.625 236.453 422.469 236.453 424.016C236.453 425.594 234.641 426.438 231.547 426.453C228.453 426.438 226.625 425.594 226.625 424.016C226.625 422.469 228.453 421.625 231.547 421.625ZM231.547 422.547C229.234 422.547 227.891 423.109 227.906 424.016C227.891 424.984 229.234 425.516 231.547 425.516C233.844 425.516 235.203 424.984 235.203 424.016C235.203 423.109 233.844 422.547 231.547 422.547ZM237.875 427.391V428.391H225.219V427.391H237.875ZM236.25 429.594V432.703H228V434.141H236.672V435.109H226.781V431.797H235.047V430.531H226.75V429.594H236.25ZM255.719 428.75V429.75H243.047V428.75H248.766V427.375H244.734V421.781H254.141V422.781H245.969V424.078H253.766V425.016H245.969V426.391H254.219V427.375H249.984V428.75H255.719ZM249.391 430.797C252.438 430.781 254.156 431.562 254.172 433.016C254.156 434.469 252.438 435.234 249.391 435.234C246.312 435.234 244.594 434.469 244.594 433.016C244.594 431.562 246.312 430.781 249.391 430.797ZM249.391 431.719C247.094 431.719 245.812 432.188 245.828 433.016C245.812 433.859 247.094 434.297 249.391 434.281C251.656 434.297 252.938 433.859 252.938 433.016C252.938 432.188 251.656 431.719 249.391 431.719ZM263.828 423.781V424.781H256.859V423.781H259.75V421.797H260.969V423.781H263.828ZM260.344 425.719C262.094 425.719 263.344 427.031 263.359 428.875C263.344 430.734 262.094 432.062 260.344 432.062C258.609 432.062 257.359 430.734 257.359 428.875C257.359 427.031 258.609 425.719 260.344 425.719ZM260.344 426.75C259.25 426.766 258.453 427.656 258.453 428.875C258.453 430.109 259.25 431 260.344 430.984C261.453 431 262.266 430.109 262.266 428.875C262.266 427.656 261.453 426.766 260.344 426.75ZM268.719 421.375V435.266H267.547V428.25H265.703V434.578H264.547V421.719H265.703V427.234H267.547V421.375H268.719ZM277.641 421.938V423.703H284.516V421.938H285.734V427.484H281.672V428.969H287.391V429.984H274.734V428.969H280.453V427.484H276.422V421.938H277.641ZM277.641 426.5H284.516V424.672H277.641V426.5ZM285.984 433.938V434.969H276.375V431.094H277.609V433.938H285.984ZM300.031 421.391V431.547H298.812V421.391H300.031ZM300.469 433.938V434.969H291.062V430.516H292.281V433.938H300.469ZM292.531 422.359C294.609 422.359 296.172 423.766 296.172 425.766C296.172 427.797 294.609 429.188 292.531 429.188C290.453 429.188 288.891 427.797 288.891 425.766C288.891 423.766 290.453 422.359 292.531 422.359ZM292.531 423.438C291.125 423.438 290.078 424.406 290.094 425.766C290.078 427.156 291.125 428.109 292.531 428.109C293.906 428.109 294.969 427.156 294.969 425.766C294.969 424.406 293.906 423.438 292.531 423.438ZM314.297 421.375V435.266H313.109V421.375H314.297ZM311.5 421.672V434.562H310.328V427.812H308.547C308.414 430.516 307.266 432.203 305.547 432.203C303.734 432.203 302.562 430.328 302.562 427.375C302.562 424.422 303.734 422.547 305.547 422.547C307.234 422.547 308.375 424.18 308.531 426.797H310.328V421.672H311.5ZM305.547 423.703C304.422 423.703 303.703 425.109 303.719 427.375C303.703 429.625 304.422 431.047 305.547 431.031C306.672 431.047 307.391 429.625 307.391 427.375C307.391 425.109 306.672 423.703 305.547 423.703ZM328.109 421.375V435.266H326.938V421.375H328.109ZM325.188 421.75V434.562H324.016V428.078H321.078C320.227 429.695 318.891 431.125 316.953 432.266L316.234 431.375C319.258 429.586 320.773 427.078 321 424.172H316.828V423.156H322.219C322.211 424.523 321.992 425.844 321.531 427.078H324.016V421.75H325.188ZM341.078 422.328V428.266H334.656V422.328H341.078ZM335.859 423.328V427.266H339.891V423.328H335.859ZM344.922 421.375V424.719H347.016V425.75H344.922V429.312H343.703V421.375H344.922ZM345.172 430.125V431.125H341.234C341.367 432.609 343.438 433.906 345.703 434.266L345.25 435.219C343.219 434.883 341.375 433.875 340.578 432.484C339.789 433.883 337.961 434.875 335.938 435.203L335.469 434.266C337.766 433.906 339.797 432.633 339.953 431.125H336.016V430.125H345.172ZM359.125 425.594V426.578H349.609V421.891H350.828V425.594H359.125ZM360.594 428.469V429.469H347.875V428.469H360.594ZM359.203 433.906V434.922H349.531V430.891H350.75V433.906H359.203ZM372.141 430.109C375 430.109 376.719 431.047 376.719 432.672C376.719 434.312 375 435.25 372.141 435.266C369.281 435.25 367.531 434.312 367.531 432.672C367.531 431.047 369.281 430.109 372.141 430.109ZM372.141 431.078C370.047 431.094 368.75 431.672 368.766 432.672C368.75 433.672 370.047 434.266 372.141 434.266C374.25 434.266 375.531 433.672 375.531 432.672C375.531 431.672 374.25 431.094 372.141 431.078ZM376.594 421.375V424.875H378.688V425.922H376.594V429.734H375.375V421.375H376.594ZM367.531 422.25V424.375H371.578V422.25H372.797V428.656H366.328V422.25H367.531ZM367.531 427.656H371.578V425.344H367.531V427.656ZM384.484 423.391C384.469 425.422 385.938 427.219 388 427.938L387.375 428.906C385.766 428.32 384.492 427.117 383.875 425.578C383.258 427.227 381.969 428.523 380.344 429.156L379.703 428.188C381.781 427.422 383.234 425.484 383.234 423.391V422.062H384.484V423.391ZM391.031 430.438V435.266H389.812V431.453H381.688V430.438H391.031ZM391.031 421.375V429.75H389.812V421.375H391.031ZM401.094 422.922V423.641C401.078 424.734 401.078 426.578 400.688 429.156L399.453 429.047C399.828 426.719 399.859 425.031 399.859 423.922H394.031V422.922H401.094ZM397.453 426.891V431.109C398.992 431.055 400.57 430.953 402.016 430.781L402.078 431.703C399.156 432.156 395.891 432.219 393.406 432.203L393.25 431.188C394.164 431.18 395.18 431.172 396.25 431.141V426.891H397.453ZM404.109 421.375V427.188H406.359V428.25H404.109V435.266H402.891V421.375H404.109ZM113.578 449.344C113.562 451.203 116.047 452.781 118.469 453.141L118.016 454.109C115.844 453.742 113.734 452.586 112.891 450.906C112.047 452.586 109.93 453.742 107.797 454.109L107.312 453.141C109.719 452.781 112.203 451.203 112.203 449.344V449.25H107.75V448.25H118.016V449.25H113.578V449.344ZM119.219 455.297V456.312H113.469V461.266H112.266V456.312H106.562V455.297H119.219ZM132.266 447.375V461.266H131.094V447.375H132.266ZM129.453 447.719V460.547H128.297V453.391H125.953V452.391H128.297V447.719H129.453ZM124.469 451.344C124.469 453.75 125.547 456.141 127.469 457.25L126.719 458.156C125.352 457.336 124.383 455.836 123.906 454.062C123.398 455.977 122.391 457.609 121 458.484L120.219 457.562C122.156 456.406 123.281 453.875 123.281 451.344V450.031H120.609V449.016H127.016V450.031H124.469V451.344ZM146.938 458.516V459.547H134.219V458.516H139.938V455.891H135.812V451.609H144.125V449.422H135.781V448.406H145.328V452.609H137.031V454.875H145.656V455.891H141.141V458.516H146.938ZM164.781 458.547V459.562H152.062V458.547H155.609V455.234H153.219V454.219H155.391V449.688H153.188V448.672H163.562V449.688H161.359V454.219H163.531V455.234H161.141V458.547H164.781ZM156.609 454.219H160.156V449.688H156.609V454.219ZM156.844 458.547H159.922V455.234H156.844V458.547ZM177.406 447.391V457.984H176.172V455H173.766V454H176.172V452.109H173.766V451.094H176.172V447.391H177.406ZM173.766 449.094V450.094H165.906V449.094H169.281V447.375H170.5V449.094H173.766ZM169.875 450.859C171.734 450.859 173.047 451.922 173.047 453.516C173.047 455.094 171.734 456.172 169.875 456.172C168.016 456.172 166.719 455.094 166.734 453.516C166.719 451.922 168.016 450.859 169.875 450.859ZM169.875 451.828C168.688 451.844 167.875 452.516 167.875 453.516C167.875 454.516 168.688 455.188 169.875 455.188C171.062 455.188 171.875 454.516 171.891 453.516C171.875 452.516 171.062 451.844 169.875 451.828ZM177.719 459.938V460.969H168.422V457.047H169.656V459.938H177.719ZM186.312 448.234V452.125H181.531V454.281C184.141 454.281 185.484 454.242 187.125 453.938L187.25 454.953C185.516 455.234 184.109 455.281 181.297 455.281H180.312V451.188H185.094V449.219H180.281V448.234H186.312ZM191.234 447.391V455.922H190V453.344H187.234V452.328H190V450.453H187.234V449.453H190V447.391H191.234ZM191.234 456.672V461.297H190V457.672H181.875V456.672H191.234ZM199.875 447.625C202.969 447.625 204.781 448.469 204.781 450.016C204.781 451.594 202.969 452.438 199.875 452.453C196.781 452.438 194.953 451.594 194.953 450.016C194.953 448.469 196.781 447.625 199.875 447.625ZM199.875 448.547C197.562 448.547 196.219 449.109 196.234 450.016C196.219 450.984 197.562 451.516 199.875 451.516C202.172 451.516 203.531 450.984 203.531 450.016C203.531 449.109 202.172 448.547 199.875 448.547ZM206.203 453.391V454.391H193.547V453.391H206.203ZM204.578 455.594V458.703H196.328V460.141H205V461.109H195.109V457.797H203.375V456.531H195.078V455.594H204.578ZM218.844 448.828C218.828 452.844 217.375 456.547 212.359 459L211.672 458.016C214.273 456.766 215.883 455.164 216.766 453.281L211.938 453.75L211.734 452.656L217.156 452.297C217.406 451.523 217.555 450.703 217.609 449.844H212.438V448.828H218.844ZM222.875 447.375V461.266H221.641V447.375H222.875ZM236.719 447.391V461.281H235.469V457.828H232.266V456.891H235.469V447.391H236.719ZM225.156 454.703C227.812 454.703 231.328 454.688 234.391 454.25L234.469 455.172C233.094 455.406 231.664 455.547 230.281 455.625V460.844H229.047V455.688C227.711 455.742 226.445 455.75 225.328 455.75L225.156 454.703ZM229.734 448.078C231.797 448.078 233.234 449.188 233.234 450.812C233.234 452.469 231.797 453.531 229.734 453.531C227.656 453.531 226.219 452.469 226.219 450.812C226.219 449.188 227.656 448.078 229.734 448.078ZM229.734 449.031C228.328 449.031 227.359 449.766 227.375 450.812C227.359 451.875 228.328 452.578 229.734 452.578C231.094 452.578 232.078 451.875 232.078 450.812C232.078 449.766 231.094 449.031 229.734 449.031ZM251.766 458.453V459.484H239.047V458.453H242.203V454.703C241.016 454.086 240.297 453.086 240.297 451.828C240.297 449.672 242.406 448.266 245.375 448.25C248.344 448.266 250.453 449.672 250.453 451.828C250.453 453.062 249.758 454.055 248.609 454.672V458.453H251.766ZM245.375 449.266C243.094 449.25 241.484 450.281 241.484 451.828C241.484 453.375 243.094 454.422 245.375 454.422C247.641 454.422 249.266 453.375 249.266 451.828C249.266 450.281 247.641 449.25 245.375 449.266ZM243.406 458.453H247.375V455.141C246.773 455.305 246.102 455.391 245.375 455.391C244.664 455.391 244 455.312 243.406 455.156V458.453ZM254.344 460.094C253.797 460.094 253.328 459.641 253.344 459.078C253.328 458.531 253.797 458.078 254.344 458.078C254.891 458.078 255.344 458.531 255.344 459.078C255.344 459.641 254.891 460.094 254.344 460.094Z" fill="black"/>
<path d="M106 144H441" stroke="url(#paint3_linear_477_944)"/>
<rect x="106.5" y="315" width="118" height="50" rx="10" fill="white"/>
<path d="M161.008 338.625C160.82 337.375 159.852 336.609 158.539 336.609C156.773 336.609 155.617 337.969 155.617 340.344C155.617 342.781 156.789 344.078 158.523 344.078C159.82 344.078 160.773 343.359 161.008 342.141L163.383 342.156C163.117 344.25 161.367 346.156 158.492 346.156C155.461 346.156 153.227 344.031 153.227 340.344C153.227 336.656 155.508 334.531 158.492 334.531C161.102 334.531 163.07 336.031 163.383 338.625H161.008ZM165.023 346V334.688H169.523C172.023 334.688 173.273 335.891 173.273 337.594C173.273 338.922 172.414 339.75 171.242 340.016V340.125C172.523 340.188 173.727 341.203 173.727 342.875C173.727 344.672 172.383 346 169.82 346H165.023ZM169.352 344.062C170.711 344.062 171.289 343.5 171.289 342.656C171.289 341.703 170.57 341.031 169.414 341.031H167.367V344.062H169.352ZM169.18 339.422C170.164 339.422 170.898 338.875 170.898 337.969C170.898 337.156 170.305 336.594 169.227 336.594H167.367V339.422H169.18ZM177.555 334.688V346H175.211V334.688H177.555Z" fill="url(#paint4_linear_477_944)"/>
<rect x="233.5" y="315" width="118" height="49" rx="10" fill="white"/>
<path d="M286.43 338.125C286.242 336.875 285.273 336.109 283.961 336.109C282.195 336.109 281.039 337.469 281.039 339.844C281.039 342.281 282.211 343.578 283.945 343.578C285.242 343.578 286.195 342.859 286.43 341.641L288.805 341.656C288.539 343.75 286.789 345.656 283.914 345.656C280.883 345.656 278.648 343.531 278.648 339.844C278.648 336.156 280.93 334.031 283.914 334.031C286.523 334.031 288.492 335.531 288.805 338.125H286.43ZM290.445 345.5V334.188H292.789V343.562H297.664V345.5H290.445ZM297.32 336.125V334.188H306.586V336.125H303.117V345.5H300.789V336.125H297.32Z" fill="url(#paint5_linear_477_944)"/>
<rect x="360.5" y="315" width="80" height="50" rx="10" fill="white"/>
<path d="M392.547 346H390.016L393.938 334.688H396.953L400.859 346H398.344L397.5 343.391H393.406L392.547 346ZM394 341.562H396.906L395.484 337.234H395.406L394 341.562ZM402.141 346V334.688H406.578C409.156 334.688 410.625 336.141 410.625 338.375C410.625 339.922 409.914 341.047 408.625 341.594L411.031 346H408.438L406.281 341.984H404.484V346H402.141ZM404.484 340.078H406.141C407.531 340.078 408.203 339.5 408.203 338.375C408.203 337.234 407.531 336.609 406.141 336.609H404.484V340.078Z" fill="url(#paint6_linear_477_944)"/>
</g>
<defs>
<filter id="filter0_d_477_944" x="0" y="0" width="547" height="593" filterUnits="userSpaceOnUse" color-interpolation-filters="sRGB">
<feFlood flood-opacity="0" result="BackgroundImageFix"/>
<feColorMatrix in="SourceAlpha" type="matrix" values="0 0 0 0 0 0 0 0 0 0 0 0 0 0 0 0 0 0 127 0" result="hardAlpha"/>
<feOffset dy="10"/>
<feGaussianBlur stdDeviation="35"/>
<feComposite in2="hardAlpha" operator="out"/>
<feColorMatrix type="matrix" values="0 0 0 0 0.192157 0 0 0 0 0.509804 0 0 0 0 0.964706 0 0 0 0.3 0"/>
<feBlend mode="normal" in2="BackgroundImageFix" result="effect1_dropShadow_477_944"/>
<feBlend mode="normal" in="SourceGraphic" in2="effect1_dropShadow_477_944" result="shape"/>
</filter>
<linearGradient id="paint0_linear_477_944" x1="88.5" y1="87.609" x2="413.475" y2="552.631" gradientUnits="userSpaceOnUse">
<stop stop-color="#3182F6"/>
<stop offset="1" stop-color="#004DBC"/>
</linearGradient>
<linearGradient id="paint1_linear_477_944" x1="99.7288" y1="196" x2="170.593" y2="196" gradientUnits="userSpaceOnUse">
<stop stop-color="#3182F6"/>
<stop offset="1" stop-color="#A009FF"/>
</linearGradient>
<linearGradient id="paint2_linear_477_944" x1="101" y1="305" x2="169.125" y2="305" gradientUnits="userSpaceOnUse">
<stop stop-color="#3182F6"/>
<stop offset="1" stop-color="#A009FF"/>
</linearGradient>
<linearGradient id="paint3_linear_477_944" x1="106" y1="144.5" x2="441" y2="144.5" gradientUnits="userSpaceOnUse">
<stop stop-color="#3182F6"/>
<stop offset="1" stop-color="#A009FF"/>
</linearGradient>
<linearGradient id="paint4_linear_477_944" x1="149.896" y1="339.5" x2="182.857" y2="339.5" gradientUnits="userSpaceOnUse">
<stop stop-color="#3182F6"/>
<stop offset="1" stop-color="#A009FF"/>
</linearGradient>
<linearGradient id="paint5_linear_477_944" x1="255.513" y1="339" x2="333.643" y2="339" gradientUnits="userSpaceOnUse">
<stop stop-color="#3182F6"/>
<stop offset="1" stop-color="#A009FF"/>
</linearGradient>
<linearGradient id="paint6_linear_477_944" x1="387.786" y1="339.5" x2="414.643" y2="339.5" gradientUnits="userSpaceOnUse">
<stop stop-color="#3182F6"/>
<stop offset="1" stop-color="#A009FF"/>
</linearGradient>
</defs>
</svg>
