<svg width="407" height="453" viewBox="0 0 407 453" fill="none" xmlns="http://www.w3.org/2000/svg">
<rect x="0.5" y="0.5" width="406" height="452" rx="20.5" fill="white" stroke="url(#paint0_linear_502_930)"/>
<rect x="1" y="195" width="405" height="257" rx="20" fill="#EDF6FF"/>
<path d="M276.396 59.2949V60.4551H262.088V59.2949H268.539V55.709H269.893V59.2949H276.396ZM275.025 49.293V50.4355H269.928C269.937 52.8877 272.538 54.6895 275.535 55.1816L275.008 56.2715C272.503 55.8232 270.209 54.5664 269.225 52.6152C268.231 54.5664 265.938 55.8232 263.424 56.2715L262.879 55.1816C265.894 54.6895 268.513 52.8877 268.521 50.4355H263.424V49.293H268.539V47.1309H269.893V49.293H275.025ZM291.9 54.2324V55.3926H277.645V54.2324H291.9ZM290.23 51.6133V52.7383H279.455V47.4297H290.125V48.5898H280.809V51.6133H290.23ZM284.764 56.7637C288.121 56.7637 290.125 57.7832 290.143 59.5762C290.125 61.3867 288.121 62.3887 284.764 62.3887C281.389 62.3887 279.367 61.3867 279.367 59.5762C279.367 57.7832 281.389 56.7637 284.764 56.7637ZM284.764 57.8359C282.25 57.8535 280.756 58.4863 280.773 59.5762C280.756 60.6836 282.25 61.2988 284.764 61.2988C287.242 61.2988 288.754 60.6836 288.754 59.5762C288.754 58.4863 287.242 57.8535 284.764 57.8359ZM302.553 48.4844V49.6094H293.236V48.4844H297.209V46.7266H298.58V48.4844H302.553ZM297.895 50.418C300.145 50.4355 301.639 51.5254 301.656 53.248C301.639 54.9531 300.145 56.0605 297.895 56.0605C295.645 56.0605 294.115 54.9531 294.133 53.248C294.115 51.5254 295.645 50.4355 297.895 50.418ZM297.895 51.4902C296.418 51.5078 295.434 52.1934 295.451 53.248C295.434 54.2852 296.418 54.9531 297.895 54.9531C299.354 54.9531 300.338 54.2852 300.355 53.248C300.338 52.1934 299.354 51.5078 297.895 51.4902ZM305.418 46.7969V51.1387H307.773V52.2988H305.418V56.5703H304.047V46.7969H305.418ZM305.418 57.4316V62.4238H304.047V58.5566H295.188V57.4316H305.418ZM321.309 48.3789V50.1191C321.309 52.123 321.309 54.1445 320.746 57.0449L319.393 56.8867C319.955 54.127 319.955 52.0703 319.955 50.1191V49.5215H310.252V48.3789H321.309ZM322.996 59.0664V60.209H308.758V59.0664H312.291V53.916H313.662V59.0664H316.193V53.916H317.547V59.0664H322.996ZM329.078 58.3984V57.0977L334.809 48.2734H336.76V57.0098H338.535V58.3984H336.76V61H335.248V58.3984H329.078ZM330.783 57.0098H335.248V50.2773H335.09L330.783 56.9043V57.0098ZM349.416 48.4844V49.6094H340.1V48.4844H344.072V46.7266H345.443V48.4844H349.416ZM344.758 50.418C347.008 50.4355 348.502 51.5254 348.52 53.248C348.502 54.9531 347.008 56.0605 344.758 56.0605C342.508 56.0605 340.979 54.9531 340.996 53.248C340.979 51.5254 342.508 50.4355 344.758 50.418ZM344.758 51.4902C343.281 51.5078 342.297 52.1934 342.314 53.248C342.297 54.2852 343.281 54.9531 344.758 54.9531C346.217 54.9531 347.201 54.2852 347.219 53.248C347.201 52.1934 346.217 51.5078 344.758 51.4902ZM352.281 46.7969V51.1387H354.637V52.2988H352.281V56.5703H350.91V46.7969H352.281ZM352.281 57.4316V62.4238H350.91V58.5566H342.051V57.4316H352.281ZM368.576 46.8145V58.3809H367.188V52.9668H362.688V51.8594H367.188V49.9785H362.688V48.8711H367.188V46.8145H368.576ZM368.998 60.9297V62.0898H358.504V57.3965H359.893V60.9297H368.998ZM357.941 47.9395V54.8828C360.095 54.874 362.169 54.7598 364.551 54.3203L364.691 55.4629C362.143 55.9375 360.016 56.043 357.73 56.0605H356.553V47.9395H357.941Z" fill="#666666"/>
<path d="M46.9219 47.0859V49.4531H36.6094V47.0859H40.3125V44.4141H43.2656V47.0859H46.9219ZM41.8125 50.4141C44.5312 50.4141 46.4766 52.5234 46.5 55.4766C46.4766 58.4531 44.5312 60.5625 41.8125 60.5625C39.0938 60.5625 37.1016 58.4531 37.1016 55.4766C37.1016 52.5234 39.0938 50.4141 41.8125 50.4141ZM41.8125 52.8984C40.5703 52.8984 39.7266 53.8594 39.7266 55.4766C39.7266 57.0938 40.5703 58.0312 41.8125 58.0312C43.0078 58.0312 43.8516 57.0938 43.875 55.4766C43.8516 53.8594 43.0078 52.8984 41.8125 52.8984ZM55.0781 43.8281V65.1562H52.2422V54.8906H50.5078V64.2422H47.7188V44.25H50.5078V52.5H52.2422V43.8281H55.0781ZM75.3516 43.8281V54.5625H72.375V52.9219H67.5V50.6484H72.375V48.7734H67.7344C66.4102 51.9844 63.3633 54.0352 58.6406 55.0547L57.6328 52.6172C62.5195 51.6445 64.7812 49.6289 65.1797 47.0625H58.8281V44.6484H68.4844C68.4844 45.293 68.4375 45.9141 68.3438 46.5H72.375V43.8281H75.3516ZM75.3516 55.3359V61.1719H64.1953V62.5781H75.8203V64.9453H61.1953V58.9688H72.3516V57.6797H61.1719V55.3359H75.3516ZM93.5859 56.8828C98.0156 56.8828 100.781 58.4062 100.781 61.0078C100.781 63.6562 98.0156 65.1797 93.5859 65.1797C89.0625 65.1797 86.2734 63.6562 86.2734 61.0078C86.2734 58.4062 89.0625 56.8828 93.5859 56.8828ZM93.5859 59.2031C90.7734 59.2031 89.25 59.7891 89.2734 61.0078C89.25 62.2266 90.7734 62.8594 93.5859 62.8594C96.3516 62.8594 97.8281 62.2266 97.8281 61.0078C97.8281 59.7891 96.3516 59.2031 93.5859 59.2031ZM100.57 43.8281V48.7734H103.453V51.2812H100.57V56.4141H97.5703V43.8281H100.57ZM87.2578 45.1641V47.8594H91.6172V45.1641H94.6172V55.1953H84.2812V45.1641H87.2578ZM87.2578 52.8281H91.6172V50.1797H87.2578V52.8281ZM121.312 43.8281V49.9453H124.195V52.4297H121.312V59.3672H118.312V43.8281H121.312ZM122.086 62.3906V64.7812H107.484V57.7266H110.461V62.3906H122.086ZM110.391 45.2109C113.648 45.2109 116.203 47.4609 116.203 50.625C116.203 53.7422 113.648 56.0391 110.391 56.0391C107.109 56.0391 104.531 53.7422 104.531 50.625C104.531 47.4609 107.109 45.2109 110.391 45.2109ZM110.391 47.8125C108.773 47.7891 107.461 48.8438 107.484 50.625C107.461 52.3594 108.773 53.4375 110.391 53.4375C112.031 53.4375 113.273 52.3594 113.297 50.625C113.273 48.8438 112.031 47.7891 110.391 47.8125ZM149.156 43.8281V65.1562H146.297V43.8281H149.156ZM144.797 44.1328V64.1719H141.984V57.5625H139.477C138.68 59.6367 137.285 60.8203 135.492 60.8203C132.68 60.8203 130.852 57.8672 130.852 53.0625C130.852 48.2812 132.68 45.3516 135.492 45.3516C137.273 45.3516 138.668 46.5117 139.477 48.5625H141.984V44.1328H144.797ZM135.492 48.1641C134.25 48.1641 133.547 49.8047 133.57 53.0625C133.547 56.3438 134.25 57.9609 135.492 57.9375C136.734 57.9609 137.484 56.3438 137.484 53.0625C137.484 49.8047 136.711 48.1641 135.492 48.1641ZM140.062 50.9531C140.156 51.6094 140.203 52.3125 140.203 53.0625C140.203 53.8008 140.156 54.5039 140.062 55.1484H141.984V50.9531H140.062ZM159.703 48.6562C159.703 52.5703 161.484 56.5078 165.094 58.0312L163.336 60.4219C160.898 59.3203 159.211 57.1992 158.25 54.5625C157.277 57.4336 155.531 59.7539 152.93 60.9375L151.125 58.4531C154.852 56.8828 156.656 52.8047 156.68 48.6562V45.4688H159.703V48.6562ZM169.266 43.8281V65.2031H166.242V43.8281H169.266ZM178.383 63L178.359 60.4453L184.453 54.8438C186.047 53.3203 186.891 52.3828 186.891 51.0469C186.891 49.5469 185.742 48.6094 184.195 48.6094C182.602 48.6094 181.57 49.6172 181.57 51.2344H178.219C178.195 47.9062 180.656 45.7969 184.242 45.7969C187.875 45.7969 190.289 47.8594 190.289 50.8125C190.289 52.7344 189.352 54.3281 185.859 57.4922L183.281 60V60.0938H190.523V63H178.383Z" fill="black"/>
<path d="M51.5078 111.043V124.578H49.0273V121.219H46.625V119.246H49.0273V117.469H46.625V115.457H49.0273V111.043H51.5078ZM46.4492 112.898V114.871H36.5664V112.898H40.3945V111.004H42.875V112.898H46.4492ZM41.6055 115.496C44.0469 115.496 45.8047 116.941 45.8242 118.992C45.8047 121.043 44.0469 122.469 41.6055 122.469C39.1836 122.469 37.4258 121.043 37.4453 118.992C37.4258 116.941 39.1836 115.496 41.6055 115.496ZM41.6055 117.43C40.5117 117.449 39.75 117.996 39.7695 118.992C39.75 120.008 40.5117 120.574 41.6055 120.574C42.6797 120.574 43.4609 120.008 43.4805 118.992C43.4609 117.996 42.6797 117.449 41.6055 117.43ZM51.8789 126.492V128.484H39.6719V123.426H42.1914V126.492H51.8789ZM69.3203 111.023V128.797H66.9375V119.891H65.4336V127.977H63.0703V122.879L61.6641 124.754C60.0137 123.885 58.9492 122.41 58.3242 120.574C57.7285 122.684 56.6738 124.393 54.9844 125.398L53.4414 123.484C56.1367 121.961 57.0547 118.816 57.0547 115.418V114.852H54.0469V112.859H62.1914V114.852H59.4766V115.418C59.4766 118.514 60.3945 121.463 63.0703 122.84V111.277H65.4336V117.859H66.9375V111.023H69.3203ZM82.1914 113.816C82.1914 115.965 83.4414 118.035 86.2539 118.914L84.9258 120.848C83.041 120.223 81.7227 119.012 80.9609 117.449C80.1895 119.246 78.8125 120.652 76.7812 121.336L75.4336 119.383C78.4023 118.387 79.6719 116.023 79.6914 113.582V111.961H82.1914V113.816ZM89.8086 111.023V115.184H92.2109V117.254H89.8086V121.57H87.3086V111.023H89.8086ZM83.9883 121.922C87.6602 121.922 89.9844 123.191 89.9844 125.359C89.9844 127.547 87.6602 128.797 83.9883 128.797C80.2383 128.797 77.8945 127.547 77.8945 125.359C77.8945 123.191 80.2383 121.922 83.9883 121.922ZM83.9883 123.875C81.6445 123.875 80.375 124.383 80.3945 125.359C80.375 126.375 81.6445 126.844 83.9883 126.844C86.293 126.844 87.5234 126.375 87.5234 125.359C87.5234 124.383 86.293 123.875 83.9883 123.875ZM100.844 112.879V114.852H95.9805V117.527H100.492V119.441H95.9805V122.645C97.9824 122.625 99.4375 122.557 101.176 122.312L101.352 124.344C99.3008 124.676 97.543 124.734 94.8477 124.734H93.5977V112.879H100.844ZM108.402 111.023V128.797H106.02V119.91H104.477V127.977H102.133V111.277H104.477V117.918H106.02V111.023H108.402Z" fill="url(#paint1_linear_502_930)"/>
<path d="M40.8164 144.01C43.1191 144.027 44.7539 146.137 44.7715 149.459C44.7539 152.781 43.1191 154.891 40.8164 154.891C38.4961 154.891 36.8789 152.781 36.8789 149.459C36.8789 146.137 38.4961 144.027 40.8164 144.01ZM40.8164 145.24C39.2695 145.258 38.1797 146.91 38.1797 149.459C38.1797 152.008 39.2695 153.66 40.8164 153.66C42.3809 153.66 43.4355 152.008 43.4355 149.459C43.4355 146.91 42.3809 145.258 40.8164 145.24ZM48.7266 142.797V149.037H51.3457V150.232H48.7266V158.424H47.3555V142.797H48.7266ZM65.0742 142.797V158.459H63.6855V142.797H65.0742ZM56.7598 144.01C59.0801 144.027 60.75 146.137 60.75 149.459C60.75 152.781 59.0801 154.891 56.7598 154.891C54.4219 154.891 52.7695 152.781 52.7695 149.459C52.7695 146.137 54.4219 144.027 56.7598 144.01ZM56.7598 145.24C55.1953 145.258 54.1055 146.91 54.1055 149.459C54.1055 152.008 55.1953 153.66 56.7598 153.66C58.3242 153.66 59.4141 152.008 59.4141 149.459C59.4141 146.91 58.3242 145.258 56.7598 145.24ZM79.8398 142.797V149.16H82.3711V150.32H79.8398V158.424H78.4688V142.797H79.8398ZM75.7969 144.484C75.7969 148.914 73.7227 152.939 68.625 155.453L67.8516 154.363C71.8945 152.351 74.0918 149.345 74.4082 145.645H68.5723V144.484H75.7969ZM92.4434 146.189C92.4434 148.035 93.6738 149.846 95.6602 150.566L94.9922 151.639C93.4629 151.032 92.3818 149.863 91.8281 148.439C91.2832 149.986 90.1846 151.261 88.6289 151.92L87.9434 150.883C89.9297 150.057 91.125 148.176 91.1426 146.189V145.996H88.2598V144.871H91.1426V142.99H92.4434V144.871H95.2734V145.996H92.4434V146.189ZM101.092 142.814V152.377H99.7734V148.141H97.7344V152.307H96.3984V143.096H97.7344V146.998H99.7734V142.814H101.092ZM101.092 153.221V158.424H99.7383V154.346H90.5625V153.221H101.092ZM117.615 151.041V152.166H103.377V151.041H117.615ZM116.033 156.93V158.09H105.223V153.537H106.611V156.93H116.033ZM110.496 143.359C113.854 143.342 116.016 144.502 116.016 146.453C116.016 148.404 113.854 149.564 110.496 149.564C107.104 149.564 104.959 148.404 104.959 146.453C104.959 144.502 107.104 143.342 110.496 143.359ZM110.496 144.467C107.982 144.467 106.365 145.223 106.383 146.453C106.365 147.684 107.982 148.439 110.496 148.439C112.992 148.439 114.609 147.684 114.609 146.453C114.609 145.223 112.992 144.467 110.496 144.467ZM131.238 147.455V149.301H137.742V150.443H123.434V149.301H129.885V147.455H131.238ZM136.424 143.289V144.379H131.484C131.599 145.979 134.218 147.147 136.934 147.367L136.477 148.404C133.875 148.158 131.423 147.147 130.588 145.504C129.735 147.147 127.283 148.158 124.664 148.404L124.207 147.367C126.905 147.147 129.524 145.979 129.674 144.379H124.752V143.289H136.424ZM136.389 152.518V153.607H124.787V152.518H129.885V151.041H131.256V152.518H136.389ZM130.57 154.381C133.576 154.381 135.299 155.084 135.299 156.438C135.299 157.809 133.576 158.512 130.57 158.512C127.529 158.512 125.859 157.809 125.859 156.438C125.859 155.084 127.529 154.381 130.57 154.381ZM130.57 155.348C128.461 155.365 127.248 155.717 127.248 156.438C127.248 157.158 128.461 157.562 130.57 157.545C132.697 157.562 133.875 157.158 133.893 156.438C133.875 155.717 132.697 155.365 130.57 155.348ZM143.191 144.01C145.494 144.027 147.129 146.137 147.146 149.459C147.129 152.781 145.494 154.891 143.191 154.891C140.871 154.891 139.254 152.781 139.254 149.459C139.254 146.137 140.871 144.027 143.191 144.01ZM143.191 145.24C141.645 145.258 140.555 146.91 140.555 149.459C140.555 152.008 141.645 153.66 143.191 153.66C144.756 153.66 145.811 152.008 145.811 149.459C145.811 146.91 144.756 145.258 143.191 145.24ZM151.102 142.797V149.037H153.721V150.232H151.102V158.424H149.73V142.797H151.102ZM166.658 142.797V149.248H169.277V150.391H166.658V158.424H165.287V142.797H166.658ZM163.775 145.311V146.453H154.477V145.311H158.502V142.99H159.873V145.311H163.775ZM159.205 147.754C161.42 147.754 163.02 149.23 163.037 151.34C163.02 153.449 161.42 154.926 159.205 154.926C156.973 154.926 155.355 153.449 155.373 151.34C155.355 149.23 156.973 147.754 159.205 147.754ZM159.205 148.914C157.746 148.914 156.674 149.934 156.691 151.34C156.674 152.764 157.746 153.766 159.205 153.748C160.646 153.766 161.701 152.764 161.719 151.34C161.701 149.934 160.646 148.914 159.205 148.914ZM182.76 147.543V148.65H172.055V143.377H173.426V147.543H182.76ZM184.412 150.777V151.902H170.104V150.777H184.412ZM182.848 156.895V158.037H171.967V153.502H173.338V156.895H182.848ZM199.055 142.797V158.424H197.719V142.797H199.055ZM195.855 143.184V157.615H194.537V149.934H191.127V148.773H194.537V143.184H195.855ZM192.182 144.73V145.873H187.629V153.502C189.879 153.493 191.303 153.396 192.99 153.027L193.131 154.205C191.32 154.574 189.791 154.645 187.277 154.662H186.293V144.73H192.182ZM220.061 155.365V156.508H205.752V155.365H209.742V151.639H207.053V150.496H209.496V145.398H207.018V144.256H218.689V145.398H216.211V150.496H218.654V151.639H215.965V155.365H220.061ZM210.867 150.496H214.857V145.398H210.867V150.496ZM211.131 155.365H214.594V151.639H211.131V155.365ZM234.264 142.814V154.732H232.875V151.375H230.168V150.25H232.875V148.123H230.168V146.98H232.875V142.814H234.264ZM230.168 144.73V145.855H221.326V144.73H225.123V142.797H226.494V144.73H230.168ZM225.791 146.717C227.883 146.717 229.359 147.912 229.359 149.705C229.359 151.48 227.883 152.693 225.791 152.693C223.699 152.693 222.24 151.48 222.258 149.705C222.24 147.912 223.699 146.717 225.791 146.717ZM225.791 147.807C224.455 147.824 223.541 148.58 223.541 149.705C223.541 150.83 224.455 151.586 225.791 151.586C227.127 151.586 228.041 150.83 228.059 149.705C228.041 148.58 227.127 147.824 225.791 147.807ZM234.615 156.93V158.09H224.156V153.678H225.545V156.93H234.615ZM244.283 143.764V148.141H238.904V150.566C241.84 150.566 243.352 150.522 245.197 150.18L245.338 151.322C243.387 151.639 241.805 151.691 238.641 151.691H237.533V147.086H242.912V144.871H237.498V143.764H244.283ZM249.82 142.814V152.412H248.432V149.512H245.32V148.369H248.432V146.26H245.32V145.135H248.432V142.814H249.82ZM249.82 153.256V158.459H248.432V154.381H239.291V153.256H249.82ZM265.307 142.797V158.459H263.918V142.797H265.307ZM256.992 144.01C259.312 144.027 260.982 146.137 260.982 149.459C260.982 152.781 259.312 154.891 256.992 154.891C254.654 154.891 253.002 152.781 253.002 149.459C253.002 146.137 254.654 144.027 256.992 144.01ZM256.992 145.24C255.428 145.258 254.338 146.91 254.338 149.459C254.338 152.008 255.428 153.66 256.992 153.66C258.557 153.66 259.646 152.008 259.646 149.459C259.646 146.91 258.557 145.258 256.992 145.24ZM286.787 152.078V153.203H280.266V158.424H278.912V153.203H272.479V152.078H286.787ZM275.678 143.447V145.609H283.553V143.447H284.941V150.18H274.307V143.447H275.678ZM275.678 149.055H283.553V146.734H275.678V149.055ZM301.025 143.447V144.572H296.068C296.086 146.348 298.74 147.754 301.5 148.07L300.99 149.16C298.433 148.835 296.033 147.692 295.172 145.943C294.319 147.692 291.929 148.835 289.371 149.16L288.861 148.07C291.604 147.754 294.24 146.348 294.275 144.572H289.354V143.447H301.025ZM302.344 150.654V151.797H288.053V150.654H294.486V148.281H295.84V150.654H302.344ZM300.533 153.344V158.424H299.145V154.469H289.635V153.344H300.533ZM311.414 145.504V146.629H303.574V145.504H306.826V143.271H308.197V145.504H311.414ZM307.494 147.684C309.463 147.684 310.869 149.16 310.887 151.234C310.869 153.326 309.463 154.82 307.494 154.82C305.543 154.82 304.137 153.326 304.137 151.234C304.137 149.16 305.543 147.684 307.494 147.684ZM307.494 148.844C306.264 148.861 305.367 149.863 305.367 151.234C305.367 152.623 306.264 153.625 307.494 153.607C308.742 153.625 309.656 152.623 309.656 151.234C309.656 149.863 308.742 148.861 307.494 148.844ZM316.916 142.797V158.424H315.598V150.531H313.523V157.65H312.223V143.184H313.523V149.389H315.598V142.797H316.916ZM333.475 155.26V156.42H319.166V155.26H322.717V151.041C321.381 150.347 320.572 149.222 320.572 147.807C320.572 145.381 322.945 143.799 326.285 143.781C329.625 143.799 331.998 145.381 331.998 147.807C331.998 149.195 331.216 150.312 329.924 151.006V155.26H333.475ZM326.285 144.924C323.719 144.906 321.908 146.066 321.908 147.807C321.908 149.547 323.719 150.725 326.285 150.725C328.834 150.725 330.662 149.547 330.662 147.807C330.662 146.066 328.834 144.906 326.285 144.924ZM324.07 155.26H328.535V151.533C327.858 151.718 327.103 151.814 326.285 151.814C325.485 151.814 324.738 151.727 324.07 151.551V155.26Z" fill="black"/>
<path d="M45.1016 222.738V224.711H36.5078V222.738H39.5938V220.512H42.0547V222.738H45.1016ZM40.8438 225.512C43.1094 225.512 44.7305 227.27 44.75 229.73C44.7305 232.211 43.1094 233.969 40.8438 233.969C38.5781 233.969 36.918 232.211 36.918 229.73C36.918 227.27 38.5781 225.512 40.8438 225.512ZM40.8438 227.582C39.8086 227.582 39.1055 228.383 39.1055 229.73C39.1055 231.078 39.8086 231.859 40.8438 231.859C41.8398 231.859 42.543 231.078 42.5625 229.73C42.543 228.383 41.8398 227.582 40.8438 227.582ZM51.8984 220.023V237.797H49.5352V229.242H48.0898V237.035H45.7656V220.375H48.0898V227.25H49.5352V220.023H51.8984ZM68.793 220.023V228.969H66.3125V227.602H62.25V225.707H66.3125V224.145H62.4453C61.3418 226.82 58.8027 228.529 54.8672 229.379L54.0273 227.348C58.0996 226.537 59.9844 224.857 60.3164 222.719H55.0234V220.707H63.0703C63.0703 221.244 63.0312 221.762 62.9531 222.25H66.3125V220.023H68.793ZM68.793 229.613V234.477H59.4961V235.648H69.1836V237.621H56.9961V232.641H66.293V231.566H56.9766V229.613H68.793ZM79.3789 230.902C83.0703 230.902 85.375 232.172 85.375 234.34C85.375 236.547 83.0703 237.816 79.3789 237.816C75.6094 237.816 73.2852 236.547 73.2852 234.34C73.2852 232.172 75.6094 230.902 79.3789 230.902ZM79.3789 232.836C77.0352 232.836 75.7656 233.324 75.7852 234.34C75.7656 235.355 77.0352 235.883 79.3789 235.883C81.6836 235.883 82.9141 235.355 82.9141 234.34C82.9141 233.324 81.6836 232.836 79.3789 232.836ZM85.1992 220.023V224.145H87.6016V226.234H85.1992V230.512H82.6992V220.023H85.1992ZM74.1055 221.137V223.383H77.7383V221.137H80.2383V229.496H71.625V221.137H74.1055ZM74.1055 227.523H77.7383V225.316H74.1055V227.523ZM102.484 220.023V225.121H104.887V227.191H102.484V232.973H99.9844V220.023H102.484ZM103.129 235.492V237.484H90.9609V231.605H93.4414V235.492H103.129ZM93.3828 221.176C96.0977 221.176 98.2266 223.051 98.2266 225.688C98.2266 228.285 96.0977 230.199 93.3828 230.199C90.6484 230.199 88.5 228.285 88.5 225.688C88.5 223.051 90.6484 221.176 93.3828 221.176ZM93.3828 223.344C92.0352 223.324 90.9414 224.203 90.9609 225.688C90.9414 227.133 92.0352 228.031 93.3828 228.031C94.75 228.031 95.7852 227.133 95.8047 225.688C95.7852 224.203 94.75 223.324 93.3828 223.344Z" fill="url(#paint2_linear_502_930)"/>
<path d="M40.2812 336.453C42.3281 336.469 43.7812 338.344 43.7969 341.297C43.7812 344.25 42.3281 346.125 40.2812 346.125C38.2188 346.125 36.7812 344.25 36.7812 341.297C36.7812 338.344 38.2188 336.469 40.2812 336.453ZM40.2812 337.547C38.9062 337.562 37.9375 339.031 37.9375 341.297C37.9375 343.562 38.9062 345.031 40.2812 345.031C41.6719 345.031 42.6094 343.562 42.6094 341.297C42.6094 339.031 41.6719 337.562 40.2812 337.547ZM47.3125 335.375V340.922H49.6406V341.984H47.3125V349.266H46.0938V335.375H47.3125ZM61.8438 335.375V349.297H60.6094V335.375H61.8438ZM54.4531 336.453C56.5156 336.469 58 338.344 58 341.297C58 344.25 56.5156 346.125 54.4531 346.125C52.375 346.125 50.9062 344.25 50.9062 341.297C50.9062 338.344 52.375 336.469 54.4531 336.453ZM54.4531 337.547C53.0625 337.562 52.0938 339.031 52.0938 341.297C52.0938 343.562 53.0625 345.031 54.4531 345.031C55.8438 345.031 56.8125 343.562 56.8125 341.297C56.8125 339.031 55.8438 337.562 54.4531 337.547ZM74.9688 335.375V341.031H77.2188V342.062H74.9688V349.266H73.75V335.375H74.9688ZM71.375 336.875C71.375 340.812 69.5312 344.391 65 346.625L64.3125 345.656C67.9062 343.867 69.8594 341.195 70.1406 337.906H64.9531V336.875H71.375ZM94.7812 346.453V347.484H82.0625V346.453H87.7812V343.062H83.5625V336.547H93.2031V343.062H88.9844V346.453H94.7812ZM84.7656 337.531V342.078H92.0156V337.531H84.7656ZM108.609 346.484V347.516H95.8906V346.484H108.609ZM107 336.438V340.641H98.7031V342.922H107.328V343.906H97.4844V339.641H105.797V337.453H97.4531V336.438H107ZM120.953 339.594V340.578H111.438V335.891H112.656V339.594H120.953ZM122.422 342.469V343.469H109.703V342.469H122.422ZM121.031 347.906V348.922H111.359V344.891H112.578V347.906H121.031ZM140.281 346.547V347.562H127.562V346.547H131.109V343.234H128.719V342.219H130.891V337.688H128.688V336.672H139.062V337.688H136.859V342.219H139.031V343.234H136.641V346.547H140.281ZM132.109 342.219H135.656V337.688H132.109V342.219ZM132.344 346.547H135.422V343.234H132.344V346.547ZM152.906 335.391V345.984H151.672V343H149.266V342H151.672V340.109H149.266V339.094H151.672V335.391H152.906ZM149.266 337.094V338.094H141.406V337.094H144.781V335.375H146V337.094H149.266ZM145.375 338.859C147.234 338.859 148.547 339.922 148.547 341.516C148.547 343.094 147.234 344.172 145.375 344.172C143.516 344.172 142.219 343.094 142.234 341.516C142.219 339.922 143.516 338.859 145.375 338.859ZM145.375 339.828C144.188 339.844 143.375 340.516 143.375 341.516C143.375 342.516 144.188 343.188 145.375 343.188C146.562 343.188 147.375 342.516 147.391 341.516C147.375 340.516 146.562 339.844 145.375 339.828ZM153.219 347.938V348.969H143.922V345.047H145.156V347.938H153.219ZM161.547 335.625C164.641 335.625 166.453 336.469 166.453 338.016C166.453 339.594 164.641 340.438 161.547 340.453C158.453 340.438 156.625 339.594 156.625 338.016C156.625 336.469 158.453 335.625 161.547 335.625ZM161.547 336.547C159.234 336.547 157.891 337.109 157.906 338.016C157.891 338.984 159.234 339.516 161.547 339.516C163.844 339.516 165.203 338.984 165.203 338.016C165.203 337.109 163.844 336.547 161.547 336.547ZM167.875 341.391V342.391H155.219V341.391H167.875ZM166.25 343.594V346.703H158V348.141H166.672V349.109H156.781V345.797H165.047V344.531H156.75V343.594H166.25ZM174.75 336.703V340.094H177.766V336.703H178.906V345.797H173.578V336.703H174.75ZM174.75 344.781H177.766V341.094H174.75V344.781ZM184.969 335.375V349.266H183.781V341.906H181.844V348.562H180.672V335.672H181.844V340.891H183.781V335.375H184.969ZM199.594 343.344V344.375H193.797V349.266H192.594V344.375H186.875V343.344H199.594ZM193.203 335.938C196.125 335.938 198.094 337.109 198.094 339C198.094 340.844 196.125 342.016 193.203 342.016C190.281 342.016 188.312 340.844 188.312 339C188.312 337.109 190.281 335.938 193.203 335.938ZM193.203 336.938C191.031 336.938 189.562 337.75 189.578 339C189.562 340.234 191.031 341.031 193.203 341.031C195.359 341.031 196.844 340.234 196.844 339C196.844 337.75 195.359 336.938 193.203 336.938ZM211.859 336.781V338.172C211.844 339.875 211.844 341.781 211.344 344.578L210.094 344.438C210.625 341.781 210.625 339.828 210.625 338.172V337.797H202.062V336.781H211.859ZM213.375 346.281V347.297H200.719V346.281H205.688V341.312H206.891V346.281H213.375ZM219.25 339.641C219.234 341.875 220.844 344.328 222.859 345.281L222.156 346.25C220.594 345.492 219.273 343.836 218.656 341.953C218.016 344 216.617 345.797 215.062 346.594L214.312 345.625C216.312 344.656 218.031 342.016 218.047 339.641V337.828H214.812V336.812H222.375V337.828H219.25V339.641ZM225.297 335.375V341H227.625V342.047H225.297V349.266H224.078V335.375H225.297ZM243.141 335.375V341.109H245.469V342.125H243.141V349.266H241.922V335.375H243.141ZM240.578 337.609V338.625H232.312V337.609H235.891V335.547H237.109V337.609H240.578ZM236.516 339.781C238.484 339.781 239.906 341.094 239.922 342.969C239.906 344.844 238.484 346.156 236.516 346.156C234.531 346.156 233.094 344.844 233.109 342.969C233.094 341.094 234.531 339.781 236.516 339.781ZM236.516 340.812C235.219 340.812 234.266 341.719 234.281 342.969C234.266 344.234 235.219 345.125 236.516 345.109C237.797 345.125 238.734 344.234 238.75 342.969C238.734 341.719 237.797 340.812 236.516 340.812ZM257.453 339.594V340.578H247.938V335.891H249.156V339.594H257.453ZM258.922 342.469V343.469H246.203V342.469H258.922ZM257.531 347.906V348.922H247.859V344.891H249.078V347.906H257.531ZM275.578 335.375V343.656H274.344V340.016H271.547V339H274.344V335.375H275.578ZM270.969 344.094C273.859 344.094 275.625 345.031 275.625 346.672C275.625 348.312 273.859 349.25 270.969 349.266C268.078 349.25 266.312 348.312 266.312 346.672C266.312 345.031 268.078 344.094 270.969 344.094ZM270.969 345.047C268.844 345.047 267.516 345.656 267.531 346.672C267.516 347.672 268.844 348.281 270.969 348.281C273.094 348.281 274.406 347.672 274.406 346.672C274.406 345.656 273.094 345.047 270.969 345.047ZM268.891 337.922C268.891 339.734 270.281 341.453 272.312 342.156L271.672 343.141C270.109 342.578 268.898 341.414 268.312 339.969C267.703 341.602 266.414 342.906 264.766 343.531L264.125 342.547C266.188 341.797 267.656 339.922 267.656 337.938V337.422H264.516V336.391H272V337.422H268.891V337.922ZM282.781 339.109C282.781 341.625 284.391 344.156 286.406 345.078L285.672 346.078C284.094 345.266 282.789 343.602 282.172 341.625C281.555 343.703 280.25 345.484 278.672 346.328L277.875 345.344C279.906 344.344 281.531 341.672 281.531 339.109V336.578H282.781V339.109ZM289.406 335.375V349.297H288.188V341.125H284.891V340.125H288.188V335.375H289.406ZM296.547 337.938C296.547 339.75 297.938 341.469 299.969 342.172L299.328 343.141C297.758 342.578 296.547 341.414 295.953 339.984C295.352 341.586 294.07 342.867 292.422 343.469L291.781 342.5C293.828 341.766 295.312 339.906 295.312 337.953V337.344H292.172V336.344H299.656V337.344H296.547V337.938ZM303.234 344.438V349.266H302V345.453H293.891V344.438H303.234ZM303.234 335.375V343.703H302V340.047H299.219V339.016H302V335.375H303.234ZM316.688 337.109C316.672 338.812 319.016 340.203 321.469 340.547L320.984 341.516C318.742 341.195 316.648 340.07 315.891 338.438C315.141 340.07 313.055 341.195 310.797 341.516L310.344 340.547C312.797 340.203 315.094 338.812 315.094 337.109V337.078H310.719V336.078H321.094V337.078H316.688V337.109ZM322.266 342.531V343.547H316.609V346.391H315.391V343.547H309.547V342.531H322.266ZM320.844 347.938V348.969H311.172V345H312.406V347.938H320.844ZM334.844 335.375V349.297H333.609V335.375H334.844ZM325.422 336.562V340.234H329.562V336.562H330.766V345.938H324.203V336.562H325.422ZM325.422 344.906H329.562V341.219H325.422V344.906ZM341.406 336.281C343.547 336.297 345.094 337.609 345.109 339.547C345.094 341.289 343.844 342.531 342.031 342.75V345.125C343.328 345.062 344.633 344.969 345.844 344.812L345.922 345.734C342.984 346.234 339.688 346.266 337.25 346.25L337.047 345.219C338.164 345.211 339.461 345.203 340.797 345.156V342.75C338.953 342.539 337.688 341.297 337.703 339.547C337.688 337.609 339.234 336.297 341.406 336.281ZM341.406 337.344C339.953 337.344 338.891 338.25 338.906 339.547C338.891 340.844 339.953 341.75 341.406 341.75C342.844 341.75 343.891 340.844 343.906 339.547C343.891 338.25 342.844 337.344 341.406 337.344ZM347.953 335.375V341.109H350.219V342.172H347.953V349.266H346.734V335.375H347.953ZM47.5469 362.281V363.5C47.5469 364.82 47.5469 366.25 47.1562 368.25H49.2188V369.266H43.4844V375.297H42.25V369.266H36.5625V368.25H45.9062C46.3281 366.25 46.3281 364.789 46.3281 363.5V363.297H38.1562V362.281H47.5469ZM63.1094 372.453V373.484H50.3906V372.453H56.125V369.078H57.3594V372.453H63.1094ZM57.3594 364.016C57.3594 366.234 60.1094 368.141 62.5 368.531L62 369.5C59.875 369.086 57.6328 367.734 56.75 365.797C55.8516 367.742 53.6172 369.125 51.5312 369.562L51.0156 368.578C53.3594 368.172 56.0938 366.234 56.0938 364.016V363.672H51.4375V362.641H62.0156V363.672H57.3594V364.016ZM75 361.375V367.297H77.2188V368.328H75V375.266H73.7656V361.375H75ZM64.0469 371.562C65.1797 371.562 66.5 371.562 67.875 371.516V369.969C66.2578 369.789 65.2031 368.844 65.2188 367.469C65.2031 365.906 66.5312 364.891 68.5 364.891C70.4375 364.891 71.7812 365.906 71.7969 367.469C71.7812 368.844 70.7109 369.789 69.1094 369.984V371.469C70.4062 371.406 71.7109 371.305 72.9219 371.125L73 372.062C69.9688 372.578 66.6875 372.609 64.25 372.609L64.0469 371.562ZM72.6719 363.078V364.078H64.2969V363.078H67.875V361.406H69.1094V363.078H72.6719ZM68.5 365.844C67.2188 365.844 66.3594 366.5 66.3594 367.469C66.3594 368.438 67.2188 369.062 68.5 369.047C69.7656 369.062 70.625 368.438 70.625 367.469C70.625 366.5 69.7656 365.844 68.5 365.844ZM86.125 365.938V366.938H83.3125V368.875C84.6094 368.82 85.9062 368.727 87.1094 368.594L87.2031 369.5C84.2188 369.906 80.9062 370 78.2969 370L78.1094 369C79.3281 368.992 80.6953 368.977 82.0938 368.922V366.938H79.375V362.281H86.0156V363.297H80.6094V365.938H86.125ZM89.5 361.391V371.781H88.2656V361.391H89.5ZM89.9531 373.938V374.969H80.4844V371.062H81.7031V373.938H89.9531ZM108.547 367.562V368.516H102.812V369.812H106.922V372.812H98.6719V374.172H107.344V375.109H97.4531V371.938H105.719V370.734H97.4219V369.812H101.609V368.516H95.9062V367.562H108.547ZM102.812 361.297V362.594H107.266V363.562H102.906C103.133 364.945 105.305 365.82 107.859 365.984L107.484 366.922C105.164 366.727 103.07 366.008 102.219 364.688C101.367 366.008 99.2734 366.727 96.9375 366.922L96.5781 365.984C99.1172 365.82 101.289 364.945 101.531 363.562H97.2031V362.594H101.609V361.297H102.812ZM116.312 362.234V366.125H111.531V368.281C114.141 368.281 115.484 368.242 117.125 367.938L117.25 368.953C115.516 369.234 114.109 369.281 111.297 369.281H110.312V365.188H115.094V363.219H110.281V362.234H116.312ZM121.234 361.391V369.922H120V367.344H117.234V366.328H120V364.453H117.234V363.453H120V361.391H121.234ZM121.234 370.672V375.297H120V371.672H111.875V370.672H121.234ZM135.266 362.922V363.641C135.25 364.734 135.25 366.578 134.859 369.156L133.625 369.047C134 366.719 134.031 365.031 134.031 363.922H128.203V362.922H135.266ZM131.625 366.891V371.109C133.164 371.055 134.742 370.953 136.188 370.781L136.25 371.703C133.328 372.156 130.062 372.219 127.578 372.203L127.422 371.188C128.336 371.18 129.352 371.172 130.422 371.141V366.891H131.625ZM138.281 361.375V367.188H140.531V368.25H138.281V375.266H137.062V361.375H138.281ZM152.906 361.375V369.656H151.672V366.016H148.875V365H151.672V361.375H152.906ZM148.297 370.094C151.188 370.094 152.953 371.031 152.953 372.672C152.953 374.312 151.188 375.25 148.297 375.266C145.406 375.25 143.641 374.312 143.641 372.672C143.641 371.031 145.406 370.094 148.297 370.094ZM148.297 371.047C146.172 371.047 144.844 371.656 144.859 372.672C144.844 373.672 146.172 374.281 148.297 374.281C150.422 374.281 151.734 373.672 151.734 372.672C151.734 371.656 150.422 371.047 148.297 371.047ZM146.219 363.922C146.219 365.734 147.609 367.453 149.641 368.156L149 369.141C147.438 368.578 146.227 367.414 145.641 365.969C145.031 367.602 143.742 368.906 142.094 369.531L141.453 368.547C143.516 367.797 144.984 365.922 144.984 363.938V363.422H141.844V362.391H149.328V363.422H146.219V363.922ZM161.547 361.625C164.641 361.625 166.453 362.469 166.453 364.016C166.453 365.594 164.641 366.438 161.547 366.453C158.453 366.438 156.625 365.594 156.625 364.016C156.625 362.469 158.453 361.625 161.547 361.625ZM161.547 362.547C159.234 362.547 157.891 363.109 157.906 364.016C157.891 364.984 159.234 365.516 161.547 365.516C163.844 365.516 165.203 364.984 165.203 364.016C165.203 363.109 163.844 362.547 161.547 362.547ZM167.875 367.391V368.391H155.219V367.391H167.875ZM166.25 369.594V372.703H158V374.141H166.672V375.109H156.781V371.797H165.047V370.531H156.75V369.594H166.25ZM185.719 368.75V369.75H173.047V368.75H178.766V367.375H174.734V361.781H184.141V362.781H175.969V364.078H183.766V365.016H175.969V366.391H184.219V367.375H179.984V368.75H185.719ZM179.391 370.797C182.438 370.781 184.156 371.562 184.172 373.016C184.156 374.469 182.438 375.234 179.391 375.234C176.312 375.234 174.594 374.469 174.594 373.016C174.594 371.562 176.312 370.781 179.391 370.797ZM179.391 371.719C177.094 371.719 175.812 372.188 175.828 373.016C175.812 373.859 177.094 374.297 179.391 374.281C181.656 374.297 182.938 373.859 182.938 373.016C182.938 372.188 181.656 371.719 179.391 371.719ZM193.828 363.781V364.781H186.859V363.781H189.75V361.797H190.969V363.781H193.828ZM190.344 365.719C192.094 365.719 193.344 367.031 193.359 368.875C193.344 370.734 192.094 372.062 190.344 372.062C188.609 372.062 187.359 370.734 187.359 368.875C187.359 367.031 188.609 365.719 190.344 365.719ZM190.344 366.75C189.25 366.766 188.453 367.656 188.453 368.875C188.453 370.109 189.25 371 190.344 370.984C191.453 371 192.266 370.109 192.266 368.875C192.266 367.656 191.453 366.766 190.344 366.75ZM198.719 361.375V375.266H197.547V368.25H195.703V374.578H194.547V361.719H195.703V367.234H197.547V361.375H198.719ZM207.641 361.938V363.703H214.516V361.938H215.734V367.484H211.672V368.969H217.391V369.984H204.734V368.969H210.453V367.484H206.422V361.938H207.641ZM207.641 366.5H214.516V364.672H207.641V366.5ZM215.984 373.938V374.969H206.375V371.094H207.609V373.938H215.984ZM230.031 361.391V371.547H228.812V361.391H230.031ZM230.469 373.938V374.969H221.062V370.516H222.281V373.938H230.469ZM222.531 362.359C224.609 362.359 226.172 363.766 226.172 365.766C226.172 367.797 224.609 369.188 222.531 369.188C220.453 369.188 218.891 367.797 218.891 365.766C218.891 363.766 220.453 362.359 222.531 362.359ZM222.531 363.438C221.125 363.438 220.078 364.406 220.094 365.766C220.078 367.156 221.125 368.109 222.531 368.109C223.906 368.109 224.969 367.156 224.969 365.766C224.969 364.406 223.906 363.438 222.531 363.438ZM244.297 361.375V375.266H243.109V361.375H244.297ZM241.5 361.672V374.562H240.328V367.812H238.547C238.414 370.516 237.266 372.203 235.547 372.203C233.734 372.203 232.562 370.328 232.562 367.375C232.562 364.422 233.734 362.547 235.547 362.547C237.234 362.547 238.375 364.18 238.531 366.797H240.328V361.672H241.5ZM235.547 363.703C234.422 363.703 233.703 365.109 233.719 367.375C233.703 369.625 234.422 371.047 235.547 371.031C236.672 371.047 237.391 369.625 237.391 367.375C237.391 365.109 236.672 363.703 235.547 363.703ZM258.109 361.375V375.266H256.938V361.375H258.109ZM255.188 361.75V374.562H254.016V368.078H251.078C250.227 369.695 248.891 371.125 246.953 372.266L246.234 371.375C249.258 369.586 250.773 367.078 251 364.172H246.828V363.156H252.219C252.211 364.523 251.992 365.844 251.531 367.078H254.016V361.75H255.188ZM271.078 362.328V368.266H264.656V362.328H271.078ZM265.859 363.328V367.266H269.891V363.328H265.859ZM274.922 361.375V364.719H277.016V365.75H274.922V369.312H273.703V361.375H274.922ZM275.172 370.125V371.125H271.234C271.367 372.609 273.438 373.906 275.703 374.266L275.25 375.219C273.219 374.883 271.375 373.875 270.578 372.484C269.789 373.883 267.961 374.875 265.938 375.203L265.469 374.266C267.766 373.906 269.797 372.633 269.953 371.125H266.016V370.125H275.172ZM289.125 365.594V366.578H279.609V361.891H280.828V365.594H289.125ZM290.594 368.469V369.469H277.875V368.469H290.594ZM289.203 373.906V374.922H279.531V370.891H280.75V373.906H289.203ZM302.141 370.109C305 370.109 306.719 371.047 306.719 372.672C306.719 374.312 305 375.25 302.141 375.266C299.281 375.25 297.531 374.312 297.531 372.672C297.531 371.047 299.281 370.109 302.141 370.109ZM302.141 371.078C300.047 371.094 298.75 371.672 298.766 372.672C298.75 373.672 300.047 374.266 302.141 374.266C304.25 374.266 305.531 373.672 305.531 372.672C305.531 371.672 304.25 371.094 302.141 371.078ZM306.594 361.375V364.875H308.688V365.922H306.594V369.734H305.375V361.375H306.594ZM297.531 362.25V364.375H301.578V362.25H302.797V368.656H296.328V362.25H297.531ZM297.531 367.656H301.578V365.344H297.531V367.656ZM314.484 363.391C314.469 365.422 315.938 367.219 318 367.938L317.375 368.906C315.766 368.32 314.492 367.117 313.875 365.578C313.258 367.227 311.969 368.523 310.344 369.156L309.703 368.188C311.781 367.422 313.234 365.484 313.234 363.391V362.062H314.484V363.391ZM321.031 370.438V375.266H319.812V371.453H311.688V370.438H321.031ZM321.031 361.375V369.75H319.812V361.375H321.031ZM331.094 362.922V363.641C331.078 364.734 331.078 366.578 330.688 369.156L329.453 369.047C329.828 366.719 329.859 365.031 329.859 363.922H324.031V362.922H331.094ZM327.453 366.891V371.109C328.992 371.055 330.57 370.953 332.016 370.781L332.078 371.703C329.156 372.156 325.891 372.219 323.406 372.203L323.25 371.188C324.164 371.18 325.18 371.172 326.25 371.141V366.891H327.453ZM334.109 361.375V367.188H336.359V368.25H334.109V375.266H332.891V361.375H334.109ZM43.5781 389.344C43.5625 391.203 46.0469 392.781 48.4688 393.141L48.0156 394.109C45.8438 393.742 43.7344 392.586 42.8906 390.906C42.0469 392.586 39.9297 393.742 37.7969 394.109L37.3125 393.141C39.7188 392.781 42.2031 391.203 42.2031 389.344V389.25H37.75V388.25H48.0156V389.25H43.5781V389.344ZM49.2188 395.297V396.312H43.4688V401.266H42.2656V396.312H36.5625V395.297H49.2188ZM62.2656 387.375V401.266H61.0938V387.375H62.2656ZM59.4531 387.719V400.547H58.2969V393.391H55.9531V392.391H58.2969V387.719H59.4531ZM54.4688 391.344C54.4688 393.75 55.5469 396.141 57.4688 397.25L56.7188 398.156C55.3516 397.336 54.3828 395.836 53.9062 394.062C53.3984 395.977 52.3906 397.609 51 398.484L50.2188 397.562C52.1562 396.406 53.2812 393.875 53.2812 391.344V390.031H50.6094V389.016H57.0156V390.031H54.4688V391.344ZM76.9375 398.516V399.547H64.2188V398.516H69.9375V395.891H65.8125V391.609H74.125V389.422H65.7812V388.406H75.3281V392.609H67.0312V394.875H75.6562V395.891H71.1406V398.516H76.9375ZM94.7812 398.547V399.562H82.0625V398.547H85.6094V395.234H83.2188V394.219H85.3906V389.688H83.1875V388.672H93.5625V389.688H91.3594V394.219H93.5312V395.234H91.1406V398.547H94.7812ZM86.6094 394.219H90.1562V389.688H86.6094V394.219ZM86.8438 398.547H89.9219V395.234H86.8438V398.547ZM107.406 387.391V397.984H106.172V395H103.766V394H106.172V392.109H103.766V391.094H106.172V387.391H107.406ZM103.766 389.094V390.094H95.9062V389.094H99.2812V387.375H100.5V389.094H103.766ZM99.875 390.859C101.734 390.859 103.047 391.922 103.047 393.516C103.047 395.094 101.734 396.172 99.875 396.172C98.0156 396.172 96.7188 395.094 96.7344 393.516C96.7188 391.922 98.0156 390.859 99.875 390.859ZM99.875 391.828C98.6875 391.844 97.875 392.516 97.875 393.516C97.875 394.516 98.6875 395.188 99.875 395.188C101.062 395.188 101.875 394.516 101.891 393.516C101.875 392.516 101.062 391.844 99.875 391.828ZM107.719 399.938V400.969H98.4219V397.047H99.6562V399.938H107.719ZM116.312 388.234V392.125H111.531V394.281C114.141 394.281 115.484 394.242 117.125 393.938L117.25 394.953C115.516 395.234 114.109 395.281 111.297 395.281H110.312V391.188H115.094V389.219H110.281V388.234H116.312ZM121.234 387.391V395.922H120V393.344H117.234V392.328H120V390.453H117.234V389.453H120V387.391H121.234ZM121.234 396.672V401.297H120V397.672H111.875V396.672H121.234ZM129.875 387.625C132.969 387.625 134.781 388.469 134.781 390.016C134.781 391.594 132.969 392.438 129.875 392.453C126.781 392.438 124.953 391.594 124.953 390.016C124.953 388.469 126.781 387.625 129.875 387.625ZM129.875 388.547C127.562 388.547 126.219 389.109 126.234 390.016C126.219 390.984 127.562 391.516 129.875 391.516C132.172 391.516 133.531 390.984 133.531 390.016C133.531 389.109 132.172 388.547 129.875 388.547ZM136.203 393.391V394.391H123.547V393.391H136.203ZM134.578 395.594V398.703H126.328V400.141H135V401.109H125.109V397.797H133.375V396.531H125.078V395.594H134.578ZM148.844 388.828C148.828 392.844 147.375 396.547 142.359 399L141.672 398.016C144.273 396.766 145.883 395.164 146.766 393.281L141.938 393.75L141.734 392.656L147.156 392.297C147.406 391.523 147.555 390.703 147.609 389.844H142.438V388.828H148.844ZM152.875 387.375V401.266H151.641V387.375H152.875ZM166.719 387.391V401.281H165.469V397.828H162.266V396.891H165.469V387.391H166.719ZM155.156 394.703C157.812 394.703 161.328 394.688 164.391 394.25L164.469 395.172C163.094 395.406 161.664 395.547 160.281 395.625V400.844H159.047V395.688C157.711 395.742 156.445 395.75 155.328 395.75L155.156 394.703ZM159.734 388.078C161.797 388.078 163.234 389.188 163.234 390.812C163.234 392.469 161.797 393.531 159.734 393.531C157.656 393.531 156.219 392.469 156.219 390.812C156.219 389.188 157.656 388.078 159.734 388.078ZM159.734 389.031C158.328 389.031 157.359 389.766 157.375 390.812C157.359 391.875 158.328 392.578 159.734 392.578C161.094 392.578 162.078 391.875 162.078 390.812C162.078 389.766 161.094 389.031 159.734 389.031ZM181.766 398.453V399.484H169.047V398.453H172.203V394.703C171.016 394.086 170.297 393.086 170.297 391.828C170.297 389.672 172.406 388.266 175.375 388.25C178.344 388.266 180.453 389.672 180.453 391.828C180.453 393.062 179.758 394.055 178.609 394.672V398.453H181.766ZM175.375 389.266C173.094 389.25 171.484 390.281 171.484 391.828C171.484 393.375 173.094 394.422 175.375 394.422C177.641 394.422 179.266 393.375 179.266 391.828C179.266 390.281 177.641 389.25 175.375 389.266ZM173.406 398.453H177.375V395.141C176.773 395.305 176.102 395.391 175.375 395.391C174.664 395.391 174 395.312 173.406 395.156V398.453ZM184.344 400.094C183.797 400.094 183.328 399.641 183.344 399.078C183.328 398.531 183.797 398.078 184.344 398.078C184.891 398.078 185.344 398.531 185.344 399.078C185.344 399.641 184.891 400.094 184.344 400.094Z" fill="black"/>
<path d="M36 84H371" stroke="url(#paint3_linear_502_930)"/>
<rect x="36.5" y="255" width="118" height="50" rx="10" fill="white"/>
<path d="M91.0078 278.625C90.8203 277.375 89.8516 276.609 88.5391 276.609C86.7734 276.609 85.6172 277.969 85.6172 280.344C85.6172 282.781 86.7891 284.078 88.5234 284.078C89.8203 284.078 90.7734 283.359 91.0078 282.141L93.3828 282.156C93.1172 284.25 91.3672 286.156 88.4922 286.156C85.4609 286.156 83.2266 284.031 83.2266 280.344C83.2266 276.656 85.5078 274.531 88.4922 274.531C91.1016 274.531 93.0703 276.031 93.3828 278.625H91.0078ZM95.0234 286V274.688H99.5234C102.023 274.688 103.273 275.891 103.273 277.594C103.273 278.922 102.414 279.75 101.242 280.016V280.125C102.523 280.188 103.727 281.203 103.727 282.875C103.727 284.672 102.383 286 99.8203 286H95.0234ZM99.3516 284.062C100.711 284.062 101.289 283.5 101.289 282.656C101.289 281.703 100.57 281.031 99.4141 281.031H97.3672V284.062H99.3516ZM99.1797 279.422C100.164 279.422 100.898 278.875 100.898 277.969C100.898 277.156 100.305 276.594 99.2266 276.594H97.3672V279.422H99.1797ZM107.555 274.688V286H105.211V274.688H107.555Z" fill="url(#paint4_linear_502_930)"/>
<rect x="163.5" y="255" width="118" height="49" rx="10" fill="white"/>
<path d="M216.43 278.125C216.242 276.875 215.273 276.109 213.961 276.109C212.195 276.109 211.039 277.469 211.039 279.844C211.039 282.281 212.211 283.578 213.945 283.578C215.242 283.578 216.195 282.859 216.43 281.641L218.805 281.656C218.539 283.75 216.789 285.656 213.914 285.656C210.883 285.656 208.648 283.531 208.648 279.844C208.648 276.156 210.93 274.031 213.914 274.031C216.523 274.031 218.492 275.531 218.805 278.125H216.43ZM220.445 285.5V274.188H222.789V283.562H227.664V285.5H220.445ZM227.32 276.125V274.188H236.586V276.125H233.117V285.5H230.789V276.125H227.32Z" fill="url(#paint5_linear_502_930)"/>
<rect x="290.5" y="255" width="80" height="50" rx="10" fill="white"/>
<path d="M322.547 286H320.016L323.938 274.688H326.953L330.859 286H328.344L327.5 283.391H323.406L322.547 286ZM324 281.562H326.906L325.484 277.234H325.406L324 281.562ZM332.141 286V274.688H336.578C339.156 274.688 340.625 276.141 340.625 278.375C340.625 279.922 339.914 281.047 338.625 281.594L341.031 286H338.438L336.281 281.984H334.484V286H332.141ZM334.484 280.078H336.141C337.531 280.078 338.203 279.5 338.203 278.375C338.203 277.234 337.531 276.609 336.141 276.609H334.484V280.078Z" fill="url(#paint6_linear_502_930)"/>
<defs>
<linearGradient id="paint0_linear_502_930" x1="18.5" y1="27.609" x2="343.475" y2="492.631" gradientUnits="userSpaceOnUse">
<stop stop-color="#3182F6"/>
<stop offset="1" stop-color="#004DBC"/>
</linearGradient>
<linearGradient id="paint1_linear_502_930" x1="29.7288" y1="136" x2="100.593" y2="136" gradientUnits="userSpaceOnUse">
<stop stop-color="#3182F6"/>
<stop offset="1" stop-color="#A009FF"/>
</linearGradient>
<linearGradient id="paint2_linear_502_930" x1="31" y1="245" x2="99.125" y2="245" gradientUnits="userSpaceOnUse">
<stop stop-color="#3182F6"/>
<stop offset="1" stop-color="#A009FF"/>
</linearGradient>
<linearGradient id="paint3_linear_502_930" x1="36" y1="84.5" x2="371" y2="84.5" gradientUnits="userSpaceOnUse">
<stop stop-color="#3182F6"/>
<stop offset="1" stop-color="#A009FF"/>
</linearGradient>
<linearGradient id="paint4_linear_502_930" x1="79.8961" y1="279.5" x2="112.857" y2="279.5" gradientUnits="userSpaceOnUse">
<stop stop-color="#3182F6"/>
<stop offset="1" stop-color="#A009FF"/>
</linearGradient>
<linearGradient id="paint5_linear_502_930" x1="185.513" y1="279" x2="263.643" y2="279" gradientUnits="userSpaceOnUse">
<stop stop-color="#3182F6"/>
<stop offset="1" stop-color="#A009FF"/>
</linearGradient>
<linearGradient id="paint6_linear_502_930" x1="317.786" y1="279.5" x2="344.643" y2="279.5" gradientUnits="userSpaceOnUse">
<stop stop-color="#3182F6"/>
<stop offset="1" stop-color="#A009FF"/>
</linearGradient>
</defs>
</svg>
