<svg width="547" height="593" viewBox="0 0 547 593" fill="none" xmlns="http://www.w3.org/2000/svg">
<g filter="url(#filter0_d_462_1167)">
<rect x="70.5" y="60.5" width="406" height="452" rx="20.5" fill="white" stroke="url(#paint0_linear_462_1167)"/>
<rect x="71" y="255" width="405" height="257" rx="20" fill="#EDF6FF"/>
<path d="M359.297 118.484V119.516H346.578V118.484H352.312V115.297H353.516V118.484H359.297ZM358.078 109.594V110.609H353.547C353.555 112.789 355.867 114.391 358.531 114.828L358.062 115.797C355.836 115.398 353.797 114.281 352.922 112.547C352.039 114.281 350 115.398 347.766 115.797L347.281 114.828C349.961 114.391 352.289 112.789 352.297 110.609H347.766V109.594H352.312V107.672H353.516V109.594H358.078ZM373.078 113.984V115.016H360.406V113.984H373.078ZM371.594 111.656V112.656H362.016V107.938H371.5V108.969H363.219V111.656H371.594ZM366.734 116.234C369.719 116.234 371.5 117.141 371.516 118.734C371.5 120.344 369.719 121.234 366.734 121.234C363.734 121.234 361.938 120.344 361.938 118.734C361.938 117.141 363.734 116.234 366.734 116.234ZM366.734 117.188C364.5 117.203 363.172 117.766 363.188 118.734C363.172 119.719 364.5 120.266 366.734 120.266C368.938 120.266 370.281 119.719 370.281 118.734C370.281 117.766 368.938 117.203 366.734 117.188ZM382.547 108.875V109.875H374.266V108.875H377.797V107.312H379.016V108.875H382.547ZM378.406 110.594C380.406 110.609 381.734 111.578 381.75 113.109C381.734 114.625 380.406 115.609 378.406 115.609C376.406 115.609 375.047 114.625 375.062 113.109C375.047 111.578 376.406 110.609 378.406 110.594ZM378.406 111.547C377.094 111.562 376.219 112.172 376.234 113.109C376.219 114.031 377.094 114.625 378.406 114.625C379.703 114.625 380.578 114.031 380.594 113.109C380.578 112.172 379.703 111.562 378.406 111.547ZM385.094 107.375V111.234H387.188V112.266H385.094V116.062H383.875V107.375H385.094ZM385.094 116.828V121.266H383.875V117.828H376V116.828H385.094ZM399.219 108.781V110.328C399.219 112.109 399.219 113.906 398.719 116.484L397.516 116.344C398.016 113.891 398.016 112.062 398.016 110.328V109.797H389.391V108.781H399.219ZM400.719 118.281V119.297H388.062V118.281H391.203V113.703H392.422V118.281H394.672V113.703H395.875V118.281H400.719ZM406.125 117.688V116.531L411.219 108.688H412.953V116.453H414.531V117.688H412.953V120H411.609V117.688H406.125ZM407.641 116.453H411.609V110.469H411.469L407.641 116.359V116.453ZM424.203 108.875V109.875H415.922V108.875H419.453V107.312H420.672V108.875H424.203ZM420.062 110.594C422.062 110.609 423.391 111.578 423.406 113.109C423.391 114.625 422.062 115.609 420.062 115.609C418.062 115.609 416.703 114.625 416.719 113.109C416.703 111.578 418.062 110.609 420.062 110.594ZM420.062 111.547C418.75 111.562 417.875 112.172 417.891 113.109C417.875 114.031 418.75 114.625 420.062 114.625C421.359 114.625 422.234 114.031 422.25 113.109C422.234 112.172 421.359 111.562 420.062 111.547ZM426.75 107.375V111.234H428.844V112.266H426.75V116.062H425.531V107.375H426.75ZM426.75 116.828V121.266H425.531V117.828H417.656V116.828H426.75ZM441.234 107.391V117.672H440V112.859H436V111.875H440V110.203H436V109.219H440V107.391H441.234ZM441.609 119.938V120.969H432.281V116.797H433.516V119.938H441.609ZM431.781 108.391V114.562C433.695 114.555 435.539 114.453 437.656 114.062L437.781 115.078C435.516 115.5 433.625 115.594 431.594 115.609H430.547V108.391H431.781Z" fill="#666666"/>
<path d="M116.922 107.086V109.453H106.609V107.086H110.312V104.414H113.266V107.086H116.922ZM111.812 110.414C114.531 110.414 116.477 112.523 116.5 115.477C116.477 118.453 114.531 120.562 111.812 120.562C109.094 120.562 107.102 118.453 107.102 115.477C107.102 112.523 109.094 110.414 111.812 110.414ZM111.812 112.898C110.57 112.898 109.727 113.859 109.727 115.477C109.727 117.094 110.57 118.031 111.812 118.031C113.008 118.031 113.852 117.094 113.875 115.477C113.852 113.859 113.008 112.898 111.812 112.898ZM125.078 103.828V125.156H122.242V114.891H120.508V124.242H117.719V104.25H120.508V112.5H122.242V103.828H125.078ZM145.352 103.828V114.562H142.375V112.922H137.5V110.648H142.375V108.773H137.734C136.41 111.984 133.363 114.035 128.641 115.055L127.633 112.617C132.52 111.645 134.781 109.629 135.18 107.062H128.828V104.648H138.484C138.484 105.293 138.438 105.914 138.344 106.5H142.375V103.828H145.352ZM145.352 115.336V121.172H134.195V122.578H145.82V124.945H131.195V118.969H142.352V117.68H131.172V115.336H145.352ZM163.586 116.883C168.016 116.883 170.781 118.406 170.781 121.008C170.781 123.656 168.016 125.18 163.586 125.18C159.062 125.18 156.273 123.656 156.273 121.008C156.273 118.406 159.062 116.883 163.586 116.883ZM163.586 119.203C160.773 119.203 159.25 119.789 159.273 121.008C159.25 122.227 160.773 122.859 163.586 122.859C166.352 122.859 167.828 122.227 167.828 121.008C167.828 119.789 166.352 119.203 163.586 119.203ZM170.57 103.828V108.773H173.453V111.281H170.57V116.414H167.57V103.828H170.57ZM157.258 105.164V107.859H161.617V105.164H164.617V115.195H154.281V105.164H157.258ZM157.258 112.828H161.617V110.18H157.258V112.828ZM191.312 103.828V109.945H194.195V112.43H191.312V119.367H188.312V103.828H191.312ZM192.086 122.391V124.781H177.484V117.727H180.461V122.391H192.086ZM180.391 105.211C183.648 105.211 186.203 107.461 186.203 110.625C186.203 113.742 183.648 116.039 180.391 116.039C177.109 116.039 174.531 113.742 174.531 110.625C174.531 107.461 177.109 105.211 180.391 105.211ZM180.391 107.812C178.773 107.789 177.461 108.844 177.484 110.625C177.461 112.359 178.773 113.438 180.391 113.438C182.031 113.438 183.273 112.359 183.297 110.625C183.273 108.844 182.031 107.789 180.391 107.812ZM219.156 103.828V125.156H216.297V103.828H219.156ZM214.797 104.133V124.172H211.984V117.562H209.477C208.68 119.637 207.285 120.82 205.492 120.82C202.68 120.82 200.852 117.867 200.852 113.062C200.852 108.281 202.68 105.352 205.492 105.352C207.273 105.352 208.668 106.512 209.477 108.562H211.984V104.133H214.797ZM205.492 108.164C204.25 108.164 203.547 109.805 203.57 113.062C203.547 116.344 204.25 117.961 205.492 117.938C206.734 117.961 207.484 116.344 207.484 113.062C207.484 109.805 206.711 108.164 205.492 108.164ZM210.062 110.953C210.156 111.609 210.203 112.312 210.203 113.062C210.203 113.801 210.156 114.504 210.062 115.148H211.984V110.953H210.062ZM229.703 108.656C229.703 112.57 231.484 116.508 235.094 118.031L233.336 120.422C230.898 119.32 229.211 117.199 228.25 114.562C227.277 117.434 225.531 119.754 222.93 120.938L221.125 118.453C224.852 116.883 226.656 112.805 226.68 108.656V105.469H229.703V108.656ZM239.266 103.828V125.203H236.242V103.828H239.266ZM248.383 123L248.359 120.445L254.453 114.844C256.047 113.32 256.891 112.383 256.891 111.047C256.891 109.547 255.742 108.609 254.195 108.609C252.602 108.609 251.57 109.617 251.57 111.234H248.219C248.195 107.906 250.656 105.797 254.242 105.797C257.875 105.797 260.289 107.859 260.289 110.812C260.289 112.734 259.352 114.328 255.859 117.492L253.281 120V120.094H260.523V123H248.383Z" fill="black"/>
<path d="M118.406 173.234V184.062H116.422V181.375H114.5V179.797H116.422V178.375H114.5V176.766H116.422V173.234H118.406ZM114.359 174.719V176.297H106.453V174.719H109.516V173.203H111.5V174.719H114.359ZM110.484 176.797C112.438 176.797 113.844 177.953 113.859 179.594C113.844 181.234 112.438 182.375 110.484 182.375C108.547 182.375 107.141 181.234 107.156 179.594C107.141 177.953 108.547 176.797 110.484 176.797ZM110.484 178.344C109.609 178.359 109 178.797 109.016 179.594C109 180.406 109.609 180.859 110.484 180.859C111.344 180.859 111.969 180.406 111.984 179.594C111.969 178.797 111.344 178.359 110.484 178.344ZM118.703 185.594V187.188H108.938V183.141H110.953V185.594H118.703ZM132.656 173.219V187.438H130.75V180.312H129.547V186.781H127.656V182.703L126.531 184.203C125.211 183.508 124.359 182.328 123.859 180.859C123.383 182.547 122.539 183.914 121.188 184.719L119.953 183.188C122.109 181.969 122.844 179.453 122.844 176.734V176.281H120.438V174.688H126.953V176.281H124.781V176.734C124.781 179.211 125.516 181.57 127.656 182.672V173.422H129.547V178.688H130.75V173.219H132.656ZM142.953 175.453C142.953 177.172 143.953 178.828 146.203 179.531L145.141 181.078C143.633 180.578 142.578 179.609 141.969 178.359C141.352 179.797 140.25 180.922 138.625 181.469L137.547 179.906C139.922 179.109 140.938 177.219 140.953 175.266V173.969H142.953V175.453ZM149.047 173.219V176.547H150.969V178.203H149.047V181.656H147.047V173.219H149.047ZM144.391 181.938C147.328 181.938 149.188 182.953 149.188 184.688C149.188 186.438 147.328 187.438 144.391 187.438C141.391 187.438 139.516 186.438 139.516 184.688C139.516 182.953 141.391 181.938 144.391 181.938ZM144.391 183.5C142.516 183.5 141.5 183.906 141.516 184.688C141.5 185.5 142.516 185.875 144.391 185.875C146.234 185.875 147.219 185.5 147.219 184.688C147.219 183.906 146.234 183.5 144.391 183.5ZM157.875 174.703V176.281H153.984V178.422H157.594V179.953H153.984V182.516C155.586 182.5 156.75 182.445 158.141 182.25L158.281 183.875C156.641 184.141 155.234 184.188 153.078 184.188H152.078V174.703H157.875ZM163.922 173.219V187.438H162.016V180.328H160.781V186.781H158.906V173.422H160.781V178.734H162.016V173.219H163.922Z" fill="url(#paint1_linear_462_1167)"/>
<path d="M110.281 204.453C112.328 204.469 113.781 206.344 113.797 209.297C113.781 212.25 112.328 214.125 110.281 214.125C108.219 214.125 106.781 212.25 106.781 209.297C106.781 206.344 108.219 204.469 110.281 204.453ZM110.281 205.547C108.906 205.562 107.938 207.031 107.938 209.297C107.938 211.562 108.906 213.031 110.281 213.031C111.672 213.031 112.609 211.562 112.609 209.297C112.609 207.031 111.672 205.562 110.281 205.547ZM117.312 203.375V208.922H119.641V209.984H117.312V217.266H116.094V203.375H117.312ZM131.844 203.375V217.297H130.609V203.375H131.844ZM124.453 204.453C126.516 204.469 128 206.344 128 209.297C128 212.25 126.516 214.125 124.453 214.125C122.375 214.125 120.906 212.25 120.906 209.297C120.906 206.344 122.375 204.469 124.453 204.453ZM124.453 205.547C123.062 205.562 122.094 207.031 122.094 209.297C122.094 211.562 123.062 213.031 124.453 213.031C125.844 213.031 126.812 211.562 126.812 209.297C126.812 207.031 125.844 205.562 124.453 205.547ZM144.969 203.375V209.031H147.219V210.062H144.969V217.266H143.75V203.375H144.969ZM141.375 204.875C141.375 208.812 139.531 212.391 135 214.625L134.312 213.656C137.906 211.867 139.859 209.195 140.141 205.906H134.953V204.875H141.375ZM156.172 206.391C156.172 208.031 157.266 209.641 159.031 210.281L158.438 211.234C157.078 210.695 156.117 209.656 155.625 208.391C155.141 209.766 154.164 210.898 152.781 211.484L152.172 210.562C153.938 209.828 155 208.156 155.016 206.391V206.219H152.453V205.219H155.016V203.547H156.172V205.219H158.688V206.219H156.172V206.391ZM163.859 203.391V211.891H162.688V208.125H160.875V211.828H159.688V203.641H160.875V207.109H162.688V203.391H163.859ZM163.859 212.641V217.266H162.656V213.641H154.5V212.641H163.859ZM178.547 210.703V211.703H165.891V210.703H178.547ZM177.141 215.938V216.969H167.531V212.922H168.766V215.938H177.141ZM172.219 203.875C175.203 203.859 177.125 204.891 177.125 206.625C177.125 208.359 175.203 209.391 172.219 209.391C169.203 209.391 167.297 208.359 167.297 206.625C167.297 204.891 169.203 203.859 172.219 203.875ZM172.219 204.859C169.984 204.859 168.547 205.531 168.562 206.625C168.547 207.719 169.984 208.391 172.219 208.391C174.438 208.391 175.875 207.719 175.875 206.625C175.875 205.531 174.438 204.859 172.219 204.859ZM190.656 207.516V209.156H196.438V210.172H183.719V209.156H189.453V207.516H190.656ZM195.266 203.812V204.781H190.875C190.977 206.203 193.305 207.242 195.719 207.438L195.312 208.359C193 208.141 190.82 207.242 190.078 205.781C189.32 207.242 187.141 208.141 184.812 208.359L184.406 207.438C186.805 207.242 189.133 206.203 189.266 204.781H184.891V203.812H195.266ZM195.234 212.016V212.984H184.922V212.016H189.453V210.703H190.672V212.016H195.234ZM190.062 213.672C192.734 213.672 194.266 214.297 194.266 215.5C194.266 216.719 192.734 217.344 190.062 217.344C187.359 217.344 185.875 216.719 185.875 215.5C185.875 214.297 187.359 213.672 190.062 213.672ZM190.062 214.531C188.188 214.547 187.109 214.859 187.109 215.5C187.109 216.141 188.188 216.5 190.062 216.484C191.953 216.5 193 216.141 193.016 215.5C193 214.859 191.953 214.547 190.062 214.531ZM201.281 204.453C203.328 204.469 204.781 206.344 204.797 209.297C204.781 212.25 203.328 214.125 201.281 214.125C199.219 214.125 197.781 212.25 197.781 209.297C197.781 206.344 199.219 204.469 201.281 204.453ZM201.281 205.547C199.906 205.562 198.938 207.031 198.938 209.297C198.938 211.562 199.906 213.031 201.281 213.031C202.672 213.031 203.609 211.562 203.609 209.297C203.609 207.031 202.672 205.562 201.281 205.547ZM208.312 203.375V208.922H210.641V209.984H208.312V217.266H207.094V203.375H208.312ZM222.141 203.375V209.109H224.469V210.125H222.141V217.266H220.922V203.375H222.141ZM219.578 205.609V206.625H211.312V205.609H214.891V203.547H216.109V205.609H219.578ZM215.516 207.781C217.484 207.781 218.906 209.094 218.922 210.969C218.906 212.844 217.484 214.156 215.516 214.156C213.531 214.156 212.094 212.844 212.109 210.969C212.094 209.094 213.531 207.781 215.516 207.781ZM215.516 208.812C214.219 208.812 213.266 209.719 213.281 210.969C213.266 212.234 214.219 213.125 215.516 213.109C216.797 213.125 217.734 212.234 217.75 210.969C217.734 209.719 216.797 208.812 215.516 208.812ZM236.453 207.594V208.578H226.938V203.891H228.156V207.594H236.453ZM237.922 210.469V211.469H225.203V210.469H237.922ZM236.531 215.906V216.922H226.859V212.891H228.078V215.906H236.531ZM250.938 203.375V217.266H249.75V203.375H250.938ZM248.094 203.719V216.547H246.922V209.719H243.891V208.688H246.922V203.719H248.094ZM244.828 205.094V206.109H240.781V212.891C242.781 212.883 244.047 212.797 245.547 212.469L245.672 213.516C244.062 213.844 242.703 213.906 240.469 213.922H239.594V205.094H244.828ZM269.609 214.547V215.562H256.891V214.547H260.438V211.234H258.047V210.219H260.219V205.688H258.016V204.672H268.391V205.688H266.188V210.219H268.359V211.234H265.969V214.547H269.609ZM261.438 210.219H264.984V205.688H261.438V210.219ZM261.672 214.547H264.75V211.234H261.672V214.547ZM282.234 203.391V213.984H281V211H278.594V210H281V208.109H278.594V207.094H281V203.391H282.234ZM278.594 205.094V206.094H270.734V205.094H274.109V203.375H275.328V205.094H278.594ZM274.703 206.859C276.562 206.859 277.875 207.922 277.875 209.516C277.875 211.094 276.562 212.172 274.703 212.172C272.844 212.172 271.547 211.094 271.562 209.516C271.547 207.922 272.844 206.859 274.703 206.859ZM274.703 207.828C273.516 207.844 272.703 208.516 272.703 209.516C272.703 210.516 273.516 211.188 274.703 211.188C275.891 211.188 276.703 210.516 276.719 209.516C276.703 208.516 275.891 207.844 274.703 207.828ZM282.547 215.938V216.969H273.25V213.047H274.484V215.938H282.547ZM291.141 204.234V208.125H286.359V210.281C288.969 210.281 290.312 210.242 291.953 209.938L292.078 210.953C290.344 211.234 288.938 211.281 286.125 211.281H285.141V207.188H289.922V205.219H285.109V204.234H291.141ZM296.062 203.391V211.922H294.828V209.344H292.062V208.328H294.828V206.453H292.062V205.453H294.828V203.391H296.062ZM296.062 212.672V217.297H294.828V213.672H286.703V212.672H296.062ZM309.828 203.375V217.297H308.594V203.375H309.828ZM302.438 204.453C304.5 204.469 305.984 206.344 305.984 209.297C305.984 212.25 304.5 214.125 302.438 214.125C300.359 214.125 298.891 212.25 298.891 209.297C298.891 206.344 300.359 204.469 302.438 204.453ZM302.438 205.547C301.047 205.562 300.078 207.031 300.078 209.297C300.078 211.562 301.047 213.031 302.438 213.031C303.828 213.031 304.797 211.562 304.797 209.297C304.797 207.031 303.828 205.562 302.438 205.547ZM328.922 211.625V212.625H323.125V217.266H321.922V212.625H316.203V211.625H328.922ZM319.047 203.953V205.875H326.047V203.953H327.281V209.938H317.828V203.953H319.047ZM319.047 208.938H326.047V206.875H319.047V208.938ZM341.578 203.953V204.953H337.172C337.188 206.531 339.547 207.781 342 208.062L341.547 209.031C339.273 208.742 337.141 207.727 336.375 206.172C335.617 207.727 333.492 208.742 331.219 209.031L330.766 208.062C333.203 207.781 335.547 206.531 335.578 204.953H331.203V203.953H341.578ZM342.75 210.359V211.375H330.047V210.359H335.766V208.25H336.969V210.359H342.75ZM341.141 212.75V217.266H339.906V213.75H331.453V212.75H341.141ZM350.812 205.781V206.781H343.844V205.781H346.734V203.797H347.953V205.781H350.812ZM347.328 207.719C349.078 207.719 350.328 209.031 350.344 210.875C350.328 212.734 349.078 214.062 347.328 214.062C345.594 214.062 344.344 212.734 344.344 210.875C344.344 209.031 345.594 207.719 347.328 207.719ZM347.328 208.75C346.234 208.766 345.438 209.656 345.438 210.875C345.438 212.109 346.234 213 347.328 212.984C348.438 213 349.25 212.109 349.25 210.875C349.25 209.656 348.438 208.766 347.328 208.75ZM355.703 203.375V217.266H354.531V210.25H352.688V216.578H351.531V203.719H352.688V209.234H354.531V203.375H355.703ZM370.422 214.453V215.484H357.703V214.453H360.859V210.703C359.672 210.086 358.953 209.086 358.953 207.828C358.953 205.672 361.062 204.266 364.031 204.25C367 204.266 369.109 205.672 369.109 207.828C369.109 209.062 368.414 210.055 367.266 210.672V214.453H370.422ZM364.031 205.266C361.75 205.25 360.141 206.281 360.141 207.828C360.141 209.375 361.75 210.422 364.031 210.422C366.297 210.422 367.922 209.375 367.922 207.828C367.922 206.281 366.297 205.25 364.031 205.266ZM362.062 214.453H366.031V211.141C365.43 211.305 364.758 211.391 364.031 211.391C363.32 211.391 362.656 211.312 362.062 211.156V214.453Z" fill="black"/>
<path d="M113.281 284.391V285.969H106.406V284.391H108.875V282.609H110.844V284.391H113.281ZM109.875 286.609C111.688 286.609 112.984 288.016 113 289.984C112.984 291.969 111.688 293.375 109.875 293.375C108.062 293.375 106.734 291.969 106.734 289.984C106.734 288.016 108.062 286.609 109.875 286.609ZM109.875 288.266C109.047 288.266 108.484 288.906 108.484 289.984C108.484 291.062 109.047 291.688 109.875 291.688C110.672 291.688 111.234 291.062 111.25 289.984C111.234 288.906 110.672 288.266 109.875 288.266ZM118.719 282.219V296.438H116.828V289.594H115.672V295.828H113.812V282.5H115.672V288H116.828V282.219H118.719ZM132.234 282.219V289.375H130.25V288.281H127V286.766H130.25V285.516H127.156C126.273 287.656 124.242 289.023 121.094 289.703L120.422 288.078C123.68 287.43 125.188 286.086 125.453 284.375H121.219V282.766H127.656C127.656 283.195 127.625 283.609 127.562 284H130.25V282.219H132.234ZM132.234 289.891V293.781H124.797V294.719H132.547V296.297H122.797V292.312H130.234V291.453H122.781V289.891H132.234ZM140.703 290.922C143.656 290.922 145.5 291.938 145.5 293.672C145.5 295.438 143.656 296.453 140.703 296.453C137.688 296.453 135.828 295.438 135.828 293.672C135.828 291.938 137.688 290.922 140.703 290.922ZM140.703 292.469C138.828 292.469 137.812 292.859 137.828 293.672C137.812 294.484 138.828 294.906 140.703 294.906C142.547 294.906 143.531 294.484 143.531 293.672C143.531 292.859 142.547 292.469 140.703 292.469ZM145.359 282.219V285.516H147.281V287.188H145.359V290.609H143.359V282.219H145.359ZM136.484 283.109V284.906H139.391V283.109H141.391V289.797H134.5V283.109H136.484ZM136.484 288.219H139.391V286.453H136.484V288.219ZM159.188 282.219V286.297H161.109V287.953H159.188V292.578H157.188V282.219H159.188ZM159.703 294.594V296.188H149.969V291.484H151.953V294.594H159.703ZM151.906 283.141C154.078 283.141 155.781 284.641 155.781 286.75C155.781 288.828 154.078 290.359 151.906 290.359C149.719 290.359 148 288.828 148 286.75C148 284.641 149.719 283.141 151.906 283.141ZM151.906 284.875C150.828 284.859 149.953 285.562 149.969 286.75C149.953 287.906 150.828 288.625 151.906 288.625C153 288.625 153.828 287.906 153.844 286.75C153.828 285.562 153 284.859 151.906 284.875Z" fill="url(#paint2_linear_462_1167)"/>
<path d="M110.281 382.453C112.328 382.469 113.781 384.344 113.797 387.297C113.781 390.25 112.328 392.125 110.281 392.125C108.219 392.125 106.781 390.25 106.781 387.297C106.781 384.344 108.219 382.469 110.281 382.453ZM110.281 383.547C108.906 383.562 107.938 385.031 107.938 387.297C107.938 389.562 108.906 391.031 110.281 391.031C111.672 391.031 112.609 389.562 112.609 387.297C112.609 385.031 111.672 383.562 110.281 383.547ZM117.312 381.375V386.922H119.641V387.984H117.312V395.266H116.094V381.375H117.312ZM131.844 381.375V395.297H130.609V381.375H131.844ZM124.453 382.453C126.516 382.469 128 384.344 128 387.297C128 390.25 126.516 392.125 124.453 392.125C122.375 392.125 120.906 390.25 120.906 387.297C120.906 384.344 122.375 382.469 124.453 382.453ZM124.453 383.547C123.062 383.562 122.094 385.031 122.094 387.297C122.094 389.562 123.062 391.031 124.453 391.031C125.844 391.031 126.812 389.562 126.812 387.297C126.812 385.031 125.844 383.562 124.453 383.547ZM144.969 381.375V387.031H147.219V388.062H144.969V395.266H143.75V381.375H144.969ZM141.375 382.875C141.375 386.812 139.531 390.391 135 392.625L134.312 391.656C137.906 389.867 139.859 387.195 140.141 383.906H134.953V382.875H141.375ZM164.781 392.453V393.484H152.062V392.453H157.781V389.062H153.562V382.547H163.203V389.062H158.984V392.453H164.781ZM154.766 383.531V388.078H162.016V383.531H154.766ZM178.609 392.484V393.516H165.891V392.484H178.609ZM177 382.438V386.641H168.703V388.922H177.328V389.906H167.484V385.641H175.797V383.453H167.453V382.438H177ZM190.953 385.594V386.578H181.438V381.891H182.656V385.594H190.953ZM192.422 388.469V389.469H179.703V388.469H192.422ZM191.031 393.906V394.922H181.359V390.891H182.578V393.906H191.031ZM210.281 392.547V393.562H197.562V392.547H201.109V389.234H198.719V388.219H200.891V383.688H198.688V382.672H209.062V383.688H206.859V388.219H209.031V389.234H206.641V392.547H210.281ZM202.109 388.219H205.656V383.688H202.109V388.219ZM202.344 392.547H205.422V389.234H202.344V392.547ZM222.906 381.391V391.984H221.672V389H219.266V388H221.672V386.109H219.266V385.094H221.672V381.391H222.906ZM219.266 383.094V384.094H211.406V383.094H214.781V381.375H216V383.094H219.266ZM215.375 384.859C217.234 384.859 218.547 385.922 218.547 387.516C218.547 389.094 217.234 390.172 215.375 390.172C213.516 390.172 212.219 389.094 212.234 387.516C212.219 385.922 213.516 384.859 215.375 384.859ZM215.375 385.828C214.188 385.844 213.375 386.516 213.375 387.516C213.375 388.516 214.188 389.188 215.375 389.188C216.562 389.188 217.375 388.516 217.391 387.516C217.375 386.516 216.562 385.844 215.375 385.828ZM223.219 393.938V394.969H213.922V391.047H215.156V393.938H223.219ZM231.547 381.625C234.641 381.625 236.453 382.469 236.453 384.016C236.453 385.594 234.641 386.438 231.547 386.453C228.453 386.438 226.625 385.594 226.625 384.016C226.625 382.469 228.453 381.625 231.547 381.625ZM231.547 382.547C229.234 382.547 227.891 383.109 227.906 384.016C227.891 384.984 229.234 385.516 231.547 385.516C233.844 385.516 235.203 384.984 235.203 384.016C235.203 383.109 233.844 382.547 231.547 382.547ZM237.875 387.391V388.391H225.219V387.391H237.875ZM236.25 389.594V392.703H228V394.141H236.672V395.109H226.781V391.797H235.047V390.531H226.75V389.594H236.25ZM244.75 382.703V386.094H247.766V382.703H248.906V391.797H243.578V382.703H244.75ZM244.75 390.781H247.766V387.094H244.75V390.781ZM254.969 381.375V395.266H253.781V387.906H251.844V394.562H250.672V381.672H251.844V386.891H253.781V381.375H254.969ZM269.594 389.344V390.375H263.797V395.266H262.594V390.375H256.875V389.344H269.594ZM263.203 381.938C266.125 381.938 268.094 383.109 268.094 385C268.094 386.844 266.125 388.016 263.203 388.016C260.281 388.016 258.312 386.844 258.312 385C258.312 383.109 260.281 381.938 263.203 381.938ZM263.203 382.938C261.031 382.938 259.562 383.75 259.578 385C259.562 386.234 261.031 387.031 263.203 387.031C265.359 387.031 266.844 386.234 266.844 385C266.844 383.75 265.359 382.938 263.203 382.938ZM281.859 382.781V384.172C281.844 385.875 281.844 387.781 281.344 390.578L280.094 390.438C280.625 387.781 280.625 385.828 280.625 384.172V383.797H272.062V382.781H281.859ZM283.375 392.281V393.297H270.719V392.281H275.688V387.312H276.891V392.281H283.375ZM289.25 385.641C289.234 387.875 290.844 390.328 292.859 391.281L292.156 392.25C290.594 391.492 289.273 389.836 288.656 387.953C288.016 390 286.617 391.797 285.062 392.594L284.312 391.625C286.312 390.656 288.031 388.016 288.047 385.641V383.828H284.812V382.812H292.375V383.828H289.25V385.641ZM295.297 381.375V387H297.625V388.047H295.297V395.266H294.078V381.375H295.297ZM313.141 381.375V387.109H315.469V388.125H313.141V395.266H311.922V381.375H313.141ZM310.578 383.609V384.625H302.312V383.609H305.891V381.547H307.109V383.609H310.578ZM306.516 385.781C308.484 385.781 309.906 387.094 309.922 388.969C309.906 390.844 308.484 392.156 306.516 392.156C304.531 392.156 303.094 390.844 303.109 388.969C303.094 387.094 304.531 385.781 306.516 385.781ZM306.516 386.812C305.219 386.812 304.266 387.719 304.281 388.969C304.266 390.234 305.219 391.125 306.516 391.109C307.797 391.125 308.734 390.234 308.75 388.969C308.734 387.719 307.797 386.812 306.516 386.812ZM327.453 385.594V386.578H317.938V381.891H319.156V385.594H327.453ZM328.922 388.469V389.469H316.203V388.469H328.922ZM327.531 393.906V394.922H317.859V390.891H319.078V393.906H327.531ZM345.578 381.375V389.656H344.344V386.016H341.547V385H344.344V381.375H345.578ZM340.969 390.094C343.859 390.094 345.625 391.031 345.625 392.672C345.625 394.312 343.859 395.25 340.969 395.266C338.078 395.25 336.312 394.312 336.312 392.672C336.312 391.031 338.078 390.094 340.969 390.094ZM340.969 391.047C338.844 391.047 337.516 391.656 337.531 392.672C337.516 393.672 338.844 394.281 340.969 394.281C343.094 394.281 344.406 393.672 344.406 392.672C344.406 391.656 343.094 391.047 340.969 391.047ZM338.891 383.922C338.891 385.734 340.281 387.453 342.312 388.156L341.672 389.141C340.109 388.578 338.898 387.414 338.312 385.969C337.703 387.602 336.414 388.906 334.766 389.531L334.125 388.547C336.188 387.797 337.656 385.922 337.656 383.938V383.422H334.516V382.391H342V383.422H338.891V383.922ZM352.781 385.109C352.781 387.625 354.391 390.156 356.406 391.078L355.672 392.078C354.094 391.266 352.789 389.602 352.172 387.625C351.555 389.703 350.25 391.484 348.672 392.328L347.875 391.344C349.906 390.344 351.531 387.672 351.531 385.109V382.578H352.781V385.109ZM359.406 381.375V395.297H358.188V387.125H354.891V386.125H358.188V381.375H359.406ZM366.547 383.938C366.547 385.75 367.938 387.469 369.969 388.172L369.328 389.141C367.758 388.578 366.547 387.414 365.953 385.984C365.352 387.586 364.07 388.867 362.422 389.469L361.781 388.5C363.828 387.766 365.312 385.906 365.312 383.953V383.344H362.172V382.344H369.656V383.344H366.547V383.938ZM373.234 390.438V395.266H372V391.453H363.891V390.438H373.234ZM373.234 381.375V389.703H372V386.047H369.219V385.016H372V381.375H373.234ZM386.688 383.109C386.672 384.812 389.016 386.203 391.469 386.547L390.984 387.516C388.742 387.195 386.648 386.07 385.891 384.438C385.141 386.07 383.055 387.195 380.797 387.516L380.344 386.547C382.797 386.203 385.094 384.812 385.094 383.109V383.078H380.719V382.078H391.094V383.078H386.688V383.109ZM392.266 388.531V389.547H386.609V392.391H385.391V389.547H379.547V388.531H392.266ZM390.844 393.938V394.969H381.172V391H382.406V393.938H390.844ZM404.844 381.375V395.297H403.609V381.375H404.844ZM395.422 382.562V386.234H399.562V382.562H400.766V391.938H394.203V382.562H395.422ZM395.422 390.906H399.562V387.219H395.422V390.906ZM411.406 382.281C413.547 382.297 415.094 383.609 415.109 385.547C415.094 387.289 413.844 388.531 412.031 388.75V391.125C413.328 391.062 414.633 390.969 415.844 390.812L415.922 391.734C412.984 392.234 409.688 392.266 407.25 392.25L407.047 391.219C408.164 391.211 409.461 391.203 410.797 391.156V388.75C408.953 388.539 407.688 387.297 407.703 385.547C407.688 383.609 409.234 382.297 411.406 382.281ZM411.406 383.344C409.953 383.344 408.891 384.25 408.906 385.547C408.891 386.844 409.953 387.75 411.406 387.75C412.844 387.75 413.891 386.844 413.906 385.547C413.891 384.25 412.844 383.344 411.406 383.344ZM417.953 381.375V387.109H420.219V388.172H417.953V395.266H416.734V381.375H417.953ZM436.047 382.281V383.5C436.047 384.82 436.047 386.25 435.656 388.25H437.719V389.266H431.984V395.297H430.75V389.266H425.062V388.25H434.406C434.828 386.25 434.828 384.789 434.828 383.5V383.297H426.656V382.281H436.047ZM119.281 418.453V419.484H106.562V418.453H112.297V415.078H113.531V418.453H119.281ZM113.531 410.016C113.531 412.234 116.281 414.141 118.672 414.531L118.172 415.5C116.047 415.086 113.805 413.734 112.922 411.797C112.023 413.742 109.789 415.125 107.703 415.562L107.188 414.578C109.531 414.172 112.266 412.234 112.266 410.016V409.672H107.609V408.641H118.188V409.672H113.531V410.016ZM131.172 407.375V413.297H133.391V414.328H131.172V421.266H129.938V407.375H131.172ZM120.219 417.562C121.352 417.562 122.672 417.562 124.047 417.516V415.969C122.43 415.789 121.375 414.844 121.391 413.469C121.375 411.906 122.703 410.891 124.672 410.891C126.609 410.891 127.953 411.906 127.969 413.469C127.953 414.844 126.883 415.789 125.281 415.984V417.469C126.578 417.406 127.883 417.305 129.094 417.125L129.172 418.062C126.141 418.578 122.859 418.609 120.422 418.609L120.219 417.562ZM128.844 409.078V410.078H120.469V409.078H124.047V407.406H125.281V409.078H128.844ZM124.672 411.844C123.391 411.844 122.531 412.5 122.531 413.469C122.531 414.438 123.391 415.062 124.672 415.047C125.938 415.062 126.797 414.438 126.797 413.469C126.797 412.5 125.938 411.844 124.672 411.844ZM142.297 411.938V412.938H139.484V414.875C140.781 414.82 142.078 414.727 143.281 414.594L143.375 415.5C140.391 415.906 137.078 416 134.469 416L134.281 415C135.5 414.992 136.867 414.977 138.266 414.922V412.938H135.547V408.281H142.188V409.297H136.781V411.938H142.297ZM145.672 407.391V417.781H144.438V407.391H145.672ZM146.125 419.938V420.969H136.656V417.062H137.875V419.938H146.125ZM164.719 413.562V414.516H158.984V415.812H163.094V418.812H154.844V420.172H163.516V421.109H153.625V417.938H161.891V416.734H153.594V415.812H157.781V414.516H152.078V413.562H164.719ZM158.984 407.297V408.594H163.438V409.562H159.078C159.305 410.945 161.477 411.82 164.031 411.984L163.656 412.922C161.336 412.727 159.242 412.008 158.391 410.688C157.539 412.008 155.445 412.727 153.109 412.922L152.75 411.984C155.289 411.82 157.461 410.945 157.703 409.562H153.375V408.594H157.781V407.297H158.984ZM172.484 408.234V412.125H167.703V414.281C170.312 414.281 171.656 414.242 173.297 413.938L173.422 414.953C171.688 415.234 170.281 415.281 167.469 415.281H166.484V411.188H171.266V409.219H166.453V408.234H172.484ZM177.406 407.391V415.922H176.172V413.344H173.406V412.328H176.172V410.453H173.406V409.453H176.172V407.391H177.406ZM177.406 416.672V421.297H176.172V417.672H168.047V416.672H177.406ZM191.438 408.922V409.641C191.422 410.734 191.422 412.578 191.031 415.156L189.797 415.047C190.172 412.719 190.203 411.031 190.203 409.922H184.375V408.922H191.438ZM187.797 412.891V417.109C189.336 417.055 190.914 416.953 192.359 416.781L192.422 417.703C189.5 418.156 186.234 418.219 183.75 418.203L183.594 417.188C184.508 417.18 185.523 417.172 186.594 417.141V412.891H187.797ZM194.453 407.375V413.188H196.703V414.25H194.453V421.266H193.234V407.375H194.453ZM209.078 407.375V415.656H207.844V412.016H205.047V411H207.844V407.375H209.078ZM204.469 416.094C207.359 416.094 209.125 417.031 209.125 418.672C209.125 420.312 207.359 421.25 204.469 421.266C201.578 421.25 199.812 420.312 199.812 418.672C199.812 417.031 201.578 416.094 204.469 416.094ZM204.469 417.047C202.344 417.047 201.016 417.656 201.031 418.672C201.016 419.672 202.344 420.281 204.469 420.281C206.594 420.281 207.906 419.672 207.906 418.672C207.906 417.656 206.594 417.047 204.469 417.047ZM202.391 409.922C202.391 411.734 203.781 413.453 205.812 414.156L205.172 415.141C203.609 414.578 202.398 413.414 201.812 411.969C201.203 413.602 199.914 414.906 198.266 415.531L197.625 414.547C199.688 413.797 201.156 411.922 201.156 409.938V409.422H198.016V408.391H205.5V409.422H202.391V409.922ZM217.719 407.625C220.812 407.625 222.625 408.469 222.625 410.016C222.625 411.594 220.812 412.438 217.719 412.453C214.625 412.438 212.797 411.594 212.797 410.016C212.797 408.469 214.625 407.625 217.719 407.625ZM217.719 408.547C215.406 408.547 214.062 409.109 214.078 410.016C214.062 410.984 215.406 411.516 217.719 411.516C220.016 411.516 221.375 410.984 221.375 410.016C221.375 409.109 220.016 408.547 217.719 408.547ZM224.047 413.391V414.391H211.391V413.391H224.047ZM222.422 415.594V418.703H214.172V420.141H222.844V421.109H212.953V417.797H221.219V416.531H212.922V415.594H222.422ZM241.891 414.75V415.75H229.219V414.75H234.938V413.375H230.906V407.781H240.312V408.781H232.141V410.078H239.938V411.016H232.141V412.391H240.391V413.375H236.156V414.75H241.891ZM235.562 416.797C238.609 416.781 240.328 417.562 240.344 419.016C240.328 420.469 238.609 421.234 235.562 421.234C232.484 421.234 230.766 420.469 230.766 419.016C230.766 417.562 232.484 416.781 235.562 416.797ZM235.562 417.719C233.266 417.719 231.984 418.188 232 419.016C231.984 419.859 233.266 420.297 235.562 420.281C237.828 420.297 239.109 419.859 239.109 419.016C239.109 418.188 237.828 417.719 235.562 417.719ZM250 409.781V410.781H243.031V409.781H245.922V407.797H247.141V409.781H250ZM246.516 411.719C248.266 411.719 249.516 413.031 249.531 414.875C249.516 416.734 248.266 418.062 246.516 418.062C244.781 418.062 243.531 416.734 243.531 414.875C243.531 413.031 244.781 411.719 246.516 411.719ZM246.516 412.75C245.422 412.766 244.625 413.656 244.625 414.875C244.625 416.109 245.422 417 246.516 416.984C247.625 417 248.438 416.109 248.438 414.875C248.438 413.656 247.625 412.766 246.516 412.75ZM254.891 407.375V421.266H253.719V414.25H251.875V420.578H250.719V407.719H251.875V413.234H253.719V407.375H254.891ZM263.812 407.938V409.703H270.688V407.938H271.906V413.484H267.844V414.969H273.562V415.984H260.906V414.969H266.625V413.484H262.594V407.938H263.812ZM263.812 412.5H270.688V410.672H263.812V412.5ZM272.156 419.938V420.969H262.547V417.094H263.781V419.938H272.156ZM286.203 407.391V417.547H284.984V407.391H286.203ZM286.641 419.938V420.969H277.234V416.516H278.453V419.938H286.641ZM278.703 408.359C280.781 408.359 282.344 409.766 282.344 411.766C282.344 413.797 280.781 415.188 278.703 415.188C276.625 415.188 275.062 413.797 275.062 411.766C275.062 409.766 276.625 408.359 278.703 408.359ZM278.703 409.438C277.297 409.438 276.25 410.406 276.266 411.766C276.25 413.156 277.297 414.109 278.703 414.109C280.078 414.109 281.141 413.156 281.141 411.766C281.141 410.406 280.078 409.438 278.703 409.438ZM300.469 407.375V421.266H299.281V407.375H300.469ZM297.672 407.672V420.562H296.5V413.812H294.719C294.586 416.516 293.438 418.203 291.719 418.203C289.906 418.203 288.734 416.328 288.734 413.375C288.734 410.422 289.906 408.547 291.719 408.547C293.406 408.547 294.547 410.18 294.703 412.797H296.5V407.672H297.672ZM291.719 409.703C290.594 409.703 289.875 411.109 289.891 413.375C289.875 415.625 290.594 417.047 291.719 417.031C292.844 417.047 293.562 415.625 293.562 413.375C293.562 411.109 292.844 409.703 291.719 409.703ZM314.281 407.375V421.266H313.109V407.375H314.281ZM311.359 407.75V420.562H310.188V414.078H307.25C306.398 415.695 305.062 417.125 303.125 418.266L302.406 417.375C305.43 415.586 306.945 413.078 307.172 410.172H303V409.156H308.391C308.383 410.523 308.164 411.844 307.703 413.078H310.188V407.75H311.359ZM327.25 408.328V414.266H320.828V408.328H327.25ZM322.031 409.328V413.266H326.062V409.328H322.031ZM331.094 407.375V410.719H333.188V411.75H331.094V415.312H329.875V407.375H331.094ZM331.344 416.125V417.125H327.406C327.539 418.609 329.609 419.906 331.875 420.266L331.422 421.219C329.391 420.883 327.547 419.875 326.75 418.484C325.961 419.883 324.133 420.875 322.109 421.203L321.641 420.266C323.938 419.906 325.969 418.633 326.125 417.125H322.188V416.125H331.344ZM345.297 411.594V412.578H335.781V407.891H337V411.594H345.297ZM346.766 414.469V415.469H334.047V414.469H346.766ZM345.375 419.906V420.922H335.703V416.891H336.922V419.906H345.375ZM358.312 416.109C361.172 416.109 362.891 417.047 362.891 418.672C362.891 420.312 361.172 421.25 358.312 421.266C355.453 421.25 353.703 420.312 353.703 418.672C353.703 417.047 355.453 416.109 358.312 416.109ZM358.312 417.078C356.219 417.094 354.922 417.672 354.938 418.672C354.922 419.672 356.219 420.266 358.312 420.266C360.422 420.266 361.703 419.672 361.703 418.672C361.703 417.672 360.422 417.094 358.312 417.078ZM362.766 407.375V410.875H364.859V411.922H362.766V415.734H361.547V407.375H362.766ZM353.703 408.25V410.375H357.75V408.25H358.969V414.656H352.5V408.25H353.703ZM353.703 413.656H357.75V411.344H353.703V413.656ZM370.656 409.391C370.641 411.422 372.109 413.219 374.172 413.938L373.547 414.906C371.938 414.32 370.664 413.117 370.047 411.578C369.43 413.227 368.141 414.523 366.516 415.156L365.875 414.188C367.953 413.422 369.406 411.484 369.406 409.391V408.062H370.656V409.391ZM377.203 416.438V421.266H375.984V417.453H367.859V416.438H377.203ZM377.203 407.375V415.75H375.984V407.375H377.203ZM387.266 408.922V409.641C387.25 410.734 387.25 412.578 386.859 415.156L385.625 415.047C386 412.719 386.031 411.031 386.031 409.922H380.203V408.922H387.266ZM383.625 412.891V417.109C385.164 417.055 386.742 416.953 388.188 416.781L388.25 417.703C385.328 418.156 382.062 418.219 379.578 418.203L379.422 417.188C380.336 417.18 381.352 417.172 382.422 417.141V412.891H383.625ZM390.281 407.375V413.188H392.531V414.25H390.281V421.266H389.062V407.375H390.281ZM404.422 409.344C404.406 411.203 406.891 412.781 409.312 413.141L408.859 414.109C406.688 413.742 404.578 412.586 403.734 410.906C402.891 412.586 400.773 413.742 398.641 414.109L398.156 413.141C400.562 412.781 403.047 411.203 403.047 409.344V409.25H398.594V408.25H408.859V409.25H404.422V409.344ZM410.062 415.297V416.312H404.312V421.266H403.109V416.312H397.406V415.297H410.062ZM423.109 407.375V421.266H421.938V407.375H423.109ZM420.297 407.719V420.547H419.141V413.391H416.797V412.391H419.141V407.719H420.297ZM415.312 411.344C415.312 413.75 416.391 416.141 418.312 417.25L417.562 418.156C416.195 417.336 415.227 415.836 414.75 414.062C414.242 415.977 413.234 417.609 411.844 418.484L411.062 417.562C413 416.406 414.125 413.875 414.125 411.344V410.031H411.453V409.016H417.859V410.031H415.312V411.344ZM437.781 418.516V419.547H425.062V418.516H430.781V415.891H426.656V411.609H434.969V409.422H426.625V408.406H436.172V412.609H427.875V414.875H436.5V415.891H431.984V418.516H437.781ZM119.281 444.547V445.562H106.562V444.547H110.109V441.234H107.719V440.219H109.891V435.688H107.688V434.672H118.062V435.688H115.859V440.219H118.031V441.234H115.641V444.547H119.281ZM111.109 440.219H114.656V435.688H111.109V440.219ZM111.344 444.547H114.422V441.234H111.344V444.547ZM131.906 433.391V443.984H130.672V441H128.266V440H130.672V438.109H128.266V437.094H130.672V433.391H131.906ZM128.266 435.094V436.094H120.406V435.094H123.781V433.375H125V435.094H128.266ZM124.375 436.859C126.234 436.859 127.547 437.922 127.547 439.516C127.547 441.094 126.234 442.172 124.375 442.172C122.516 442.172 121.219 441.094 121.234 439.516C121.219 437.922 122.516 436.859 124.375 436.859ZM124.375 437.828C123.188 437.844 122.375 438.516 122.375 439.516C122.375 440.516 123.188 441.188 124.375 441.188C125.562 441.188 126.375 440.516 126.391 439.516C126.375 438.516 125.562 437.844 124.375 437.828ZM132.219 445.938V446.969H122.922V443.047H124.156V445.938H132.219ZM140.812 434.234V438.125H136.031V440.281C138.641 440.281 139.984 440.242 141.625 439.938L141.75 440.953C140.016 441.234 138.609 441.281 135.797 441.281H134.812V437.188H139.594V435.219H134.781V434.234H140.812ZM145.734 433.391V441.922H144.5V439.344H141.734V438.328H144.5V436.453H141.734V435.453H144.5V433.391H145.734ZM145.734 442.672V447.297H144.5V443.672H136.375V442.672H145.734ZM154.375 433.625C157.469 433.625 159.281 434.469 159.281 436.016C159.281 437.594 157.469 438.438 154.375 438.453C151.281 438.438 149.453 437.594 149.453 436.016C149.453 434.469 151.281 433.625 154.375 433.625ZM154.375 434.547C152.062 434.547 150.719 435.109 150.734 436.016C150.719 436.984 152.062 437.516 154.375 437.516C156.672 437.516 158.031 436.984 158.031 436.016C158.031 435.109 156.672 434.547 154.375 434.547ZM160.703 439.391V440.391H148.047V439.391H160.703ZM159.078 441.594V444.703H150.828V446.141H159.5V447.109H149.609V443.797H157.875V442.531H149.578V441.594H159.078ZM173.344 434.828C173.328 438.844 171.875 442.547 166.859 445L166.172 444.016C168.773 442.766 170.383 441.164 171.266 439.281L166.438 439.75L166.234 438.656L171.656 438.297C171.906 437.523 172.055 436.703 172.109 435.844H166.938V434.828H173.344ZM177.375 433.375V447.266H176.141V433.375H177.375ZM191.219 433.391V447.281H189.969V443.828H186.766V442.891H189.969V433.391H191.219ZM179.656 440.703C182.312 440.703 185.828 440.688 188.891 440.25L188.969 441.172C187.594 441.406 186.164 441.547 184.781 441.625V446.844H183.547V441.688C182.211 441.742 180.945 441.75 179.828 441.75L179.656 440.703ZM184.234 434.078C186.297 434.078 187.734 435.188 187.734 436.812C187.734 438.469 186.297 439.531 184.234 439.531C182.156 439.531 180.719 438.469 180.719 436.812C180.719 435.188 182.156 434.078 184.234 434.078ZM184.234 435.031C182.828 435.031 181.859 435.766 181.875 436.812C181.859 437.875 182.828 438.578 184.234 438.578C185.594 438.578 186.578 437.875 186.578 436.812C186.578 435.766 185.594 435.031 184.234 435.031ZM206.266 444.453V445.484H193.547V444.453H196.703V440.703C195.516 440.086 194.797 439.086 194.797 437.828C194.797 435.672 196.906 434.266 199.875 434.25C202.844 434.266 204.953 435.672 204.953 437.828C204.953 439.062 204.258 440.055 203.109 440.672V444.453H206.266ZM199.875 435.266C197.594 435.25 195.984 436.281 195.984 437.828C195.984 439.375 197.594 440.422 199.875 440.422C202.141 440.422 203.766 439.375 203.766 437.828C203.766 436.281 202.141 435.25 199.875 435.266ZM197.906 444.453H201.875V441.141C201.273 441.305 200.602 441.391 199.875 441.391C199.164 441.391 198.5 441.312 197.906 441.156V444.453ZM208.844 446.094C208.297 446.094 207.828 445.641 207.844 445.078C207.828 444.531 208.297 444.078 208.844 444.078C209.391 444.078 209.844 444.531 209.844 445.078C209.844 445.641 209.391 446.094 208.844 446.094Z" fill="black"/>
<path d="M106 144H441" stroke="url(#paint3_linear_462_1167)"/>
<rect x="106" y="309" width="120" height="50" rx="10" fill="white"/>
<path d="M161.508 332.625C161.32 331.375 160.352 330.609 159.039 330.609C157.273 330.609 156.117 331.969 156.117 334.344C156.117 336.781 157.289 338.078 159.023 338.078C160.32 338.078 161.273 337.359 161.508 336.141L163.883 336.156C163.617 338.25 161.867 340.156 158.992 340.156C155.961 340.156 153.727 338.031 153.727 334.344C153.727 330.656 156.008 328.531 158.992 328.531C161.602 328.531 163.57 330.031 163.883 332.625H161.508ZM165.523 340V328.688H170.023C172.523 328.688 173.773 329.891 173.773 331.594C173.773 332.922 172.914 333.75 171.742 334.016V334.125C173.023 334.188 174.227 335.203 174.227 336.875C174.227 338.672 172.883 340 170.32 340H165.523ZM169.852 338.062C171.211 338.062 171.789 337.5 171.789 336.656C171.789 335.703 171.07 335.031 169.914 335.031H167.867V338.062H169.852ZM169.68 333.422C170.664 333.422 171.398 332.875 171.398 331.969C171.398 331.156 170.805 330.594 169.727 330.594H167.867V333.422H169.68ZM178.055 328.688V340H175.711V328.688H178.055Z" fill="url(#paint4_linear_462_1167)"/>
<rect x="235" y="309" width="85" height="49" rx="10" fill="white"/>
<path d="M271.43 332.125C271.242 330.875 270.273 330.109 268.961 330.109C267.195 330.109 266.039 331.469 266.039 333.844C266.039 336.281 267.211 337.578 268.945 337.578C270.242 337.578 271.195 336.859 271.43 335.641L273.805 335.656C273.539 337.75 271.789 339.656 268.914 339.656C265.883 339.656 263.648 337.531 263.648 333.844C263.648 330.156 265.93 328.031 268.914 328.031C271.523 328.031 273.492 329.531 273.805 332.125H271.43ZM275.445 339.5V328.188H277.789V337.562H282.664V339.5H275.445ZM282.32 330.125V328.188H291.586V330.125H288.117V339.5H285.789V330.125H282.32Z" fill="url(#paint5_linear_462_1167)"/>
<rect x="329" y="309" width="112" height="50" rx="10" fill="white"/>
<path d="M377.047 340H374.516L378.438 328.688H381.453L385.359 340H382.844L382 337.391H377.906L377.047 340ZM378.5 335.562H381.406L379.984 331.234H379.906L378.5 335.562ZM386.641 340V328.688H391.078C393.656 328.688 395.125 330.141 395.125 332.375C395.125 333.922 394.414 335.047 393.125 335.594L395.531 340H392.938L390.781 335.984H388.984V340H386.641ZM388.984 334.078H390.641C392.031 334.078 392.703 333.5 392.703 332.375C392.703 331.234 392.031 330.609 390.641 330.609H388.984V334.078Z" fill="url(#paint6_linear_462_1167)"/>
</g>
<defs>
<filter id="filter0_d_462_1167" x="0" y="0" width="547" height="593" filterUnits="userSpaceOnUse" color-interpolation-filters="sRGB">
<feFlood flood-opacity="0" result="BackgroundImageFix"/>
<feColorMatrix in="SourceAlpha" type="matrix" values="0 0 0 0 0 0 0 0 0 0 0 0 0 0 0 0 0 0 127 0" result="hardAlpha"/>
<feOffset dy="10"/>
<feGaussianBlur stdDeviation="35"/>
<feComposite in2="hardAlpha" operator="out"/>
<feColorMatrix type="matrix" values="0 0 0 0 0.192157 0 0 0 0 0.509804 0 0 0 0 0.964706 0 0 0 0.3 0"/>
<feBlend mode="normal" in2="BackgroundImageFix" result="effect1_dropShadow_462_1167"/>
<feBlend mode="normal" in="SourceGraphic" in2="effect1_dropShadow_462_1167" result="shape"/>
</filter>
<linearGradient id="paint0_linear_462_1167" x1="88.5" y1="87.609" x2="413.475" y2="552.631" gradientUnits="userSpaceOnUse">
<stop stop-color="#3182F6"/>
<stop offset="1" stop-color="#004DBC"/>
</linearGradient>
<linearGradient id="paint1_linear_462_1167" x1="101" y1="193" x2="157.5" y2="193" gradientUnits="userSpaceOnUse">
<stop stop-color="#3182F6"/>
<stop offset="1" stop-color="#A009FF"/>
</linearGradient>
<linearGradient id="paint2_linear_462_1167" x1="102" y1="302" x2="156.5" y2="302" gradientUnits="userSpaceOnUse">
<stop stop-color="#3182F6"/>
<stop offset="1" stop-color="#A009FF"/>
</linearGradient>
<linearGradient id="paint3_linear_462_1167" x1="106" y1="144.5" x2="441" y2="144.5" gradientUnits="userSpaceOnUse">
<stop stop-color="#3182F6"/>
<stop offset="1" stop-color="#A009FF"/>
</linearGradient>
<linearGradient id="paint4_linear_462_1167" x1="150.396" y1="333.5" x2="183.357" y2="333.5" gradientUnits="userSpaceOnUse">
<stop stop-color="#3182F6"/>
<stop offset="1" stop-color="#A009FF"/>
</linearGradient>
<linearGradient id="paint5_linear_462_1167" x1="240.513" y1="333" x2="318.643" y2="333" gradientUnits="userSpaceOnUse">
<stop stop-color="#3182F6"/>
<stop offset="1" stop-color="#A009FF"/>
</linearGradient>
<linearGradient id="paint6_linear_462_1167" x1="372.286" y1="333.5" x2="399.143" y2="333.5" gradientUnits="userSpaceOnUse">
<stop stop-color="#3182F6"/>
<stop offset="1" stop-color="#A009FF"/>
</linearGradient>
</defs>
</svg>
