<svg width="547" height="593" viewBox="0 0 547 593" fill="none" xmlns="http://www.w3.org/2000/svg">
<g filter="url(#filter0_d_463_1291)">
<rect x="70.5" y="60.5" width="406" height="452" rx="20.5" fill="white" stroke="url(#paint0_linear_463_1291)"/>
<rect x="71" y="255" width="405" height="257" rx="20" fill="#EDF6FF"/>
<path d="M346.958 119.295V120.455H332.649V119.295H339.101V115.709H340.454V119.295H346.958ZM345.587 109.293V110.436H340.489C340.498 112.888 343.1 114.689 346.097 115.182L345.569 116.271C343.064 115.823 340.771 114.566 339.786 112.615C338.793 114.566 336.499 115.823 333.985 116.271L333.44 115.182C336.455 114.689 339.074 112.888 339.083 110.436H333.985V109.293H339.101V107.131H340.454V109.293H345.587ZM362.462 114.232V115.393H348.206V114.232H362.462ZM360.792 111.613V112.738H350.017V107.43H360.687V108.59H351.37V111.613H360.792ZM355.325 116.764C358.683 116.764 360.687 117.783 360.704 119.576C360.687 121.387 358.683 122.389 355.325 122.389C351.95 122.389 349.929 121.387 349.929 119.576C349.929 117.783 351.95 116.764 355.325 116.764ZM355.325 117.836C352.812 117.854 351.317 118.486 351.335 119.576C351.317 120.684 352.812 121.299 355.325 121.299C357.804 121.299 359.315 120.684 359.315 119.576C359.315 118.486 357.804 117.854 355.325 117.836ZM373.114 108.484V109.609H363.798V108.484H367.771V106.727H369.142V108.484H373.114ZM368.456 110.418C370.706 110.436 372.2 111.525 372.218 113.248C372.2 114.953 370.706 116.061 368.456 116.061C366.206 116.061 364.677 114.953 364.694 113.248C364.677 111.525 366.206 110.436 368.456 110.418ZM368.456 111.49C366.979 111.508 365.995 112.193 366.013 113.248C365.995 114.285 366.979 114.953 368.456 114.953C369.915 114.953 370.899 114.285 370.917 113.248C370.899 112.193 369.915 111.508 368.456 111.49ZM375.979 106.797V111.139H378.335V112.299H375.979V116.57H374.608V106.797H375.979ZM375.979 117.432V122.424H374.608V118.557H365.749V117.432H375.979ZM391.87 108.379V110.119C391.87 112.123 391.87 114.145 391.308 117.045L389.954 116.887C390.517 114.127 390.517 112.07 390.517 110.119V109.521H380.813V108.379H391.87ZM393.558 119.066V120.209H379.319V119.066H382.853V113.916H384.224V119.066H386.755V113.916H388.108V119.066H393.558ZM404.351 121.176C401.819 121.176 400.009 119.822 399.921 117.801H401.521C401.608 119.014 402.821 119.77 404.333 119.77C406.003 119.77 407.233 118.855 407.233 117.537C407.233 116.148 406.126 115.164 404.14 115.164H403.103V113.775H404.14C405.687 113.775 406.759 112.914 406.759 111.596C406.759 110.33 405.827 109.469 404.386 109.469C403.032 109.469 401.784 110.225 401.714 111.473H400.185C400.272 109.451 402.136 108.098 404.403 108.098C406.829 108.098 408.306 109.68 408.288 111.508C408.306 112.949 407.462 114.021 406.126 114.391V114.479C407.778 114.742 408.798 115.92 408.78 117.537C408.798 119.629 406.882 121.176 404.351 121.176ZM419.854 108.484V109.609H410.538V108.484H414.511V106.727H415.882V108.484H419.854ZM415.196 110.418C417.446 110.436 418.94 111.525 418.958 113.248C418.94 114.953 417.446 116.061 415.196 116.061C412.946 116.061 411.417 114.953 411.435 113.248C411.417 111.525 412.946 110.436 415.196 110.418ZM415.196 111.49C413.72 111.508 412.735 112.193 412.753 113.248C412.735 114.285 413.72 114.953 415.196 114.953C416.655 114.953 417.64 114.285 417.657 113.248C417.64 112.193 416.655 111.508 415.196 111.49ZM422.72 106.797V111.139H425.075V112.299H422.72V116.57H421.349V106.797H422.72ZM422.72 117.432V122.424H421.349V118.557H412.489V117.432H422.72ZM439.015 106.814V118.381H437.626V112.967H433.126V111.859H437.626V109.979H433.126V108.871H437.626V106.814H439.015ZM439.437 120.93V122.09H428.942V117.396H430.331V120.93H439.437ZM428.38 107.939V114.883C430.533 114.874 432.607 114.76 434.989 114.32L435.13 115.463C432.581 115.938 430.454 116.043 428.169 116.061H426.991V107.939H428.38Z" fill="#666666"/>
<path d="M116.922 107.086V109.453H106.609V107.086H110.312V104.414H113.266V107.086H116.922ZM111.812 110.414C114.531 110.414 116.477 112.523 116.5 115.477C116.477 118.453 114.531 120.562 111.812 120.562C109.094 120.562 107.102 118.453 107.102 115.477C107.102 112.523 109.094 110.414 111.812 110.414ZM111.812 112.898C110.57 112.898 109.727 113.859 109.727 115.477C109.727 117.094 110.57 118.031 111.812 118.031C113.008 118.031 113.852 117.094 113.875 115.477C113.852 113.859 113.008 112.898 111.812 112.898ZM125.078 103.828V125.156H122.242V114.891H120.508V124.242H117.719V104.25H120.508V112.5H122.242V103.828H125.078ZM145.352 103.828V114.562H142.375V112.922H137.5V110.648H142.375V108.773H137.734C136.41 111.984 133.363 114.035 128.641 115.055L127.633 112.617C132.52 111.645 134.781 109.629 135.18 107.062H128.828V104.648H138.484C138.484 105.293 138.438 105.914 138.344 106.5H142.375V103.828H145.352ZM145.352 115.336V121.172H134.195V122.578H145.82V124.945H131.195V118.969H142.352V117.68H131.172V115.336H145.352ZM163.586 116.883C168.016 116.883 170.781 118.406 170.781 121.008C170.781 123.656 168.016 125.18 163.586 125.18C159.062 125.18 156.273 123.656 156.273 121.008C156.273 118.406 159.062 116.883 163.586 116.883ZM163.586 119.203C160.773 119.203 159.25 119.789 159.273 121.008C159.25 122.227 160.773 122.859 163.586 122.859C166.352 122.859 167.828 122.227 167.828 121.008C167.828 119.789 166.352 119.203 163.586 119.203ZM170.57 103.828V108.773H173.453V111.281H170.57V116.414H167.57V103.828H170.57ZM157.258 105.164V107.859H161.617V105.164H164.617V115.195H154.281V105.164H157.258ZM157.258 112.828H161.617V110.18H157.258V112.828ZM191.312 103.828V109.945H194.195V112.43H191.312V119.367H188.312V103.828H191.312ZM192.086 122.391V124.781H177.484V117.727H180.461V122.391H192.086ZM180.391 105.211C183.648 105.211 186.203 107.461 186.203 110.625C186.203 113.742 183.648 116.039 180.391 116.039C177.109 116.039 174.531 113.742 174.531 110.625C174.531 107.461 177.109 105.211 180.391 105.211ZM180.391 107.812C178.773 107.789 177.461 108.844 177.484 110.625C177.461 112.359 178.773 113.438 180.391 113.438C182.031 113.438 183.273 112.359 183.297 110.625C183.273 108.844 182.031 107.789 180.391 107.812ZM219.156 103.828V125.156H216.297V103.828H219.156ZM214.797 104.133V124.172H211.984V117.562H209.477C208.68 119.637 207.285 120.82 205.492 120.82C202.68 120.82 200.852 117.867 200.852 113.062C200.852 108.281 202.68 105.352 205.492 105.352C207.273 105.352 208.668 106.512 209.477 108.562H211.984V104.133H214.797ZM205.492 108.164C204.25 108.164 203.547 109.805 203.57 113.062C203.547 116.344 204.25 117.961 205.492 117.938C206.734 117.961 207.484 116.344 207.484 113.062C207.484 109.805 206.711 108.164 205.492 108.164ZM210.062 110.953C210.156 111.609 210.203 112.312 210.203 113.062C210.203 113.801 210.156 114.504 210.062 115.148H211.984V110.953H210.062ZM229.703 108.656C229.703 112.57 231.484 116.508 235.094 118.031L233.336 120.422C230.898 119.32 229.211 117.199 228.25 114.562C227.277 117.434 225.531 119.754 222.93 120.938L221.125 118.453C224.852 116.883 226.656 112.805 226.68 108.656V105.469H229.703V108.656ZM239.266 103.828V125.203H236.242V103.828H239.266ZM255.695 106.031V123H252.156V109.383H252.062L248.172 111.82V108.703L252.367 106.031H255.695Z" fill="black"/>
<path d="M121.508 171.043V184.578H119.027V181.219H116.625V179.246H119.027V177.469H116.625V175.457H119.027V171.043H121.508ZM116.449 172.898V174.871H106.566V172.898H110.395V171.004H112.875V172.898H116.449ZM111.605 175.496C114.047 175.496 115.805 176.941 115.824 178.992C115.805 181.043 114.047 182.469 111.605 182.469C109.184 182.469 107.426 181.043 107.445 178.992C107.426 176.941 109.184 175.496 111.605 175.496ZM111.605 177.43C110.512 177.449 109.75 177.996 109.77 178.992C109.75 180.008 110.512 180.574 111.605 180.574C112.68 180.574 113.461 180.008 113.48 178.992C113.461 177.996 112.68 177.449 111.605 177.43ZM121.879 186.492V188.484H109.672V183.426H112.191V186.492H121.879ZM139.32 171.023V188.797H136.938V179.891H135.434V187.977H133.07V182.879L131.664 184.754C130.014 183.885 128.949 182.41 128.324 180.574C127.729 182.684 126.674 184.393 124.984 185.398L123.441 183.484C126.137 181.961 127.055 178.816 127.055 175.418V174.852H124.047V172.859H132.191V174.852H129.477V175.418C129.477 178.514 130.395 181.463 133.07 182.84V171.277H135.434V177.859H136.938V171.023H139.32ZM152.191 173.816C152.191 175.965 153.441 178.035 156.254 178.914L154.926 180.848C153.041 180.223 151.723 179.012 150.961 177.449C150.189 179.246 148.812 180.652 146.781 181.336L145.434 179.383C148.402 178.387 149.672 176.023 149.691 173.582V171.961H152.191V173.816ZM159.809 171.023V175.184H162.211V177.254H159.809V181.57H157.309V171.023H159.809ZM153.988 181.922C157.66 181.922 159.984 183.191 159.984 185.359C159.984 187.547 157.66 188.797 153.988 188.797C150.238 188.797 147.895 187.547 147.895 185.359C147.895 183.191 150.238 181.922 153.988 181.922ZM153.988 183.875C151.645 183.875 150.375 184.383 150.395 185.359C150.375 186.375 151.645 186.844 153.988 186.844C156.293 186.844 157.523 186.375 157.523 185.359C157.523 184.383 156.293 183.875 153.988 183.875ZM170.844 172.879V174.852H165.98V177.527H170.492V179.441H165.98V182.645C167.982 182.625 169.438 182.557 171.176 182.312L171.352 184.344C169.301 184.676 167.543 184.734 164.848 184.734H163.598V172.879H170.844ZM178.402 171.023V188.797H176.02V179.91H174.477V187.977H172.133V171.277H174.477V177.918H176.02V171.023H178.402Z" fill="url(#paint1_linear_463_1291)"/>
<path d="M110.816 204.01C113.119 204.027 114.754 206.137 114.771 209.459C114.754 212.781 113.119 214.891 110.816 214.891C108.496 214.891 106.879 212.781 106.879 209.459C106.879 206.137 108.496 204.027 110.816 204.01ZM110.816 205.24C109.27 205.258 108.18 206.91 108.18 209.459C108.18 212.008 109.27 213.66 110.816 213.66C112.381 213.66 113.436 212.008 113.436 209.459C113.436 206.91 112.381 205.258 110.816 205.24ZM118.727 202.797V209.037H121.346V210.232H118.727V218.424H117.355V202.797H118.727ZM135.074 202.797V218.459H133.686V202.797H135.074ZM126.76 204.01C129.08 204.027 130.75 206.137 130.75 209.459C130.75 212.781 129.08 214.891 126.76 214.891C124.422 214.891 122.77 212.781 122.77 209.459C122.77 206.137 124.422 204.027 126.76 204.01ZM126.76 205.24C125.195 205.258 124.105 206.91 124.105 209.459C124.105 212.008 125.195 213.66 126.76 213.66C128.324 213.66 129.414 212.008 129.414 209.459C129.414 206.91 128.324 205.258 126.76 205.24ZM149.84 202.797V209.16H152.371V210.32H149.84V218.424H148.469V202.797H149.84ZM145.797 204.484C145.797 208.914 143.723 212.939 138.625 215.453L137.852 214.363C141.895 212.351 144.092 209.345 144.408 205.645H138.572V204.484H145.797ZM162.443 206.189C162.443 208.035 163.674 209.846 165.66 210.566L164.992 211.639C163.463 211.032 162.382 209.863 161.828 208.439C161.283 209.986 160.185 211.261 158.629 211.92L157.943 210.883C159.93 210.057 161.125 208.176 161.143 206.189V205.996H158.26V204.871H161.143V202.99H162.443V204.871H165.273V205.996H162.443V206.189ZM171.092 202.814V212.377H169.773V208.141H167.734V212.307H166.398V203.096H167.734V206.998H169.773V202.814H171.092ZM171.092 213.221V218.424H169.738V214.346H160.562V213.221H171.092ZM180.496 203.078C183.977 203.078 186.016 204.027 186.016 205.768C186.016 207.543 183.977 208.492 180.496 208.51C177.016 208.492 174.959 207.543 174.959 205.768C174.959 204.027 177.016 203.078 180.496 203.078ZM180.496 204.115C177.895 204.115 176.383 204.748 176.4 205.768C176.383 206.857 177.895 207.455 180.496 207.455C183.08 207.455 184.609 206.857 184.609 205.768C184.609 204.748 183.08 204.115 180.496 204.115ZM187.615 209.564V210.689H173.377V209.564H187.615ZM185.787 212.043V215.541H176.506V217.158H186.262V218.248H175.135V214.521H184.434V213.098H175.1V212.043H185.787ZM206.424 202.797V218.459H205.035V209.107H200.166V207.965H205.035V202.797H206.424ZM195.701 204.555V213.502C198.083 213.476 200.21 213.353 202.557 212.869L202.732 214.012C200.236 214.521 198.039 214.662 195.508 214.662H194.312V204.555H195.701ZM223.299 211.885V213.027H216.777V218.424H215.424V213.027H208.99V211.885H223.299ZM221.436 203.676V209.758H210.836V203.676H221.436ZM212.189 204.801V208.668H220.064V204.801H212.189ZM233.283 204.01C235.41 204.027 236.939 205.847 237.168 208.773H240.666V202.797H242.037V218.459H240.666V209.916H237.186C237.019 212.975 235.463 214.891 233.283 214.891C230.98 214.891 229.363 212.781 229.363 209.459C229.363 206.137 230.98 204.027 233.283 204.01ZM233.283 205.24C231.736 205.258 230.682 206.91 230.682 209.459C230.682 212.008 231.736 213.66 233.283 213.66C234.812 213.66 235.885 212.008 235.885 209.459C235.885 206.91 234.812 205.258 233.283 205.24ZM257.576 202.797V218.459H256.205V211.797H252.953V210.637H256.205V207.525H253.076V206.365H256.205V202.797H257.576ZM252.057 204.221V209.775H246.607V213.625C248.954 213.616 250.896 213.528 253.27 213.168L253.393 214.328C250.896 214.715 248.893 214.803 246.396 214.803H245.236V208.65H250.703V205.363H245.184V204.221H252.057ZM273.133 202.814V218.441H271.727V214.557H268.123V213.502H271.727V202.814H273.133ZM260.125 211.041C263.113 211.041 267.068 211.023 270.514 210.531L270.602 211.568C269.055 211.832 267.446 211.99 265.891 212.078V217.949H264.502V212.148C262.999 212.21 261.575 212.219 260.318 212.219L260.125 211.041ZM265.275 203.588C267.596 203.588 269.213 204.836 269.213 206.664C269.213 208.527 267.596 209.723 265.275 209.723C262.938 209.723 261.32 208.527 261.32 206.664C261.32 204.836 262.938 203.588 265.275 203.588ZM265.275 204.66C263.693 204.66 262.604 205.486 262.621 206.664C262.604 207.859 263.693 208.65 265.275 208.65C266.805 208.65 267.912 207.859 267.912 206.664C267.912 205.486 266.805 204.66 265.275 204.66ZM283.557 205.504V206.629H275.717V205.504H278.969V203.271H280.34V205.504H283.557ZM279.637 207.684C281.605 207.684 283.012 209.16 283.029 211.234C283.012 213.326 281.605 214.82 279.637 214.82C277.686 214.82 276.279 213.326 276.279 211.234C276.279 209.16 277.686 207.684 279.637 207.684ZM279.637 208.844C278.406 208.861 277.51 209.863 277.51 211.234C277.51 212.623 278.406 213.625 279.637 213.607C280.885 213.625 281.799 212.623 281.799 211.234C281.799 209.863 280.885 208.861 279.637 208.844ZM289.059 202.797V218.424H287.74V210.531H285.666V217.65H284.365V203.184H285.666V209.389H287.74V202.797H289.059ZM305.617 215.26V216.42H291.309V215.26H294.859V211.041C293.523 210.347 292.715 209.222 292.715 207.807C292.715 205.381 295.088 203.799 298.428 203.781C301.768 203.799 304.141 205.381 304.141 207.807C304.141 209.195 303.358 210.312 302.066 211.006V215.26H305.617ZM298.428 204.924C295.861 204.906 294.051 206.066 294.051 207.807C294.051 209.547 295.861 210.725 298.428 210.725C300.977 210.725 302.805 209.547 302.805 207.807C302.805 206.066 300.977 204.906 298.428 204.924ZM296.213 215.26H300.678V211.533C300.001 211.718 299.245 211.814 298.428 211.814C297.628 211.814 296.881 211.727 296.213 211.551V215.26Z" fill="black"/>
<path d="M115.102 282.738V284.711H106.508V282.738H109.594V280.512H112.055V282.738H115.102ZM110.844 285.512C113.109 285.512 114.73 287.27 114.75 289.73C114.73 292.211 113.109 293.969 110.844 293.969C108.578 293.969 106.918 292.211 106.918 289.73C106.918 287.27 108.578 285.512 110.844 285.512ZM110.844 287.582C109.809 287.582 109.105 288.383 109.105 289.73C109.105 291.078 109.809 291.859 110.844 291.859C111.84 291.859 112.543 291.078 112.562 289.73C112.543 288.383 111.84 287.582 110.844 287.582ZM121.898 280.023V297.797H119.535V289.242H118.09V297.035H115.766V280.375H118.09V287.25H119.535V280.023H121.898ZM138.793 280.023V288.969H136.312V287.602H132.25V285.707H136.312V284.145H132.445C131.342 286.82 128.803 288.529 124.867 289.379L124.027 287.348C128.1 286.537 129.984 284.857 130.316 282.719H125.023V280.707H133.07C133.07 281.244 133.031 281.762 132.953 282.25H136.312V280.023H138.793ZM138.793 289.613V294.477H129.496V295.648H139.184V297.621H126.996V292.641H136.293V291.566H126.977V289.613H138.793ZM149.379 290.902C153.07 290.902 155.375 292.172 155.375 294.34C155.375 296.547 153.07 297.816 149.379 297.816C145.609 297.816 143.285 296.547 143.285 294.34C143.285 292.172 145.609 290.902 149.379 290.902ZM149.379 292.836C147.035 292.836 145.766 293.324 145.785 294.34C145.766 295.355 147.035 295.883 149.379 295.883C151.684 295.883 152.914 295.355 152.914 294.34C152.914 293.324 151.684 292.836 149.379 292.836ZM155.199 280.023V284.145H157.602V286.234H155.199V290.512H152.699V280.023H155.199ZM144.105 281.137V283.383H147.738V281.137H150.238V289.496H141.625V281.137H144.105ZM144.105 287.523H147.738V285.316H144.105V287.523ZM172.484 280.023V285.121H174.887V287.191H172.484V292.973H169.984V280.023H172.484ZM173.129 295.492V297.484H160.961V291.605H163.441V295.492H173.129ZM163.383 281.176C166.098 281.176 168.227 283.051 168.227 285.688C168.227 288.285 166.098 290.199 163.383 290.199C160.648 290.199 158.5 288.285 158.5 285.688C158.5 283.051 160.648 281.176 163.383 281.176ZM163.383 283.344C162.035 283.324 160.941 284.203 160.961 285.688C160.941 287.133 162.035 288.031 163.383 288.031C164.75 288.031 165.785 287.133 165.805 285.688C165.785 284.203 164.75 283.324 163.383 283.344Z" fill="url(#paint2_linear_463_1291)"/>
<path d="M110.281 383.453C112.328 383.469 113.781 385.344 113.797 388.297C113.781 391.25 112.328 393.125 110.281 393.125C108.219 393.125 106.781 391.25 106.781 388.297C106.781 385.344 108.219 383.469 110.281 383.453ZM110.281 384.547C108.906 384.562 107.938 386.031 107.938 388.297C107.938 390.562 108.906 392.031 110.281 392.031C111.672 392.031 112.609 390.562 112.609 388.297C112.609 386.031 111.672 384.562 110.281 384.547ZM117.312 382.375V387.922H119.641V388.984H117.312V396.266H116.094V382.375H117.312ZM131.844 382.375V396.297H130.609V382.375H131.844ZM124.453 383.453C126.516 383.469 128 385.344 128 388.297C128 391.25 126.516 393.125 124.453 393.125C122.375 393.125 120.906 391.25 120.906 388.297C120.906 385.344 122.375 383.469 124.453 383.453ZM124.453 384.547C123.062 384.562 122.094 386.031 122.094 388.297C122.094 390.562 123.062 392.031 124.453 392.031C125.844 392.031 126.812 390.562 126.812 388.297C126.812 386.031 125.844 384.562 124.453 384.547ZM144.969 382.375V388.031H147.219V389.062H144.969V396.266H143.75V382.375H144.969ZM141.375 383.875C141.375 387.812 139.531 391.391 135 393.625L134.312 392.656C137.906 390.867 139.859 388.195 140.141 384.906H134.953V383.875H141.375ZM163.578 382.375V390.656H162.344V387.016H159.547V386H162.344V382.375H163.578ZM158.969 391.094C161.859 391.094 163.625 392.031 163.625 393.672C163.625 395.312 161.859 396.25 158.969 396.266C156.078 396.25 154.312 395.312 154.312 393.672C154.312 392.031 156.078 391.094 158.969 391.094ZM158.969 392.047C156.844 392.047 155.516 392.656 155.531 393.672C155.516 394.672 156.844 395.281 158.969 395.281C161.094 395.281 162.406 394.672 162.406 393.672C162.406 392.656 161.094 392.047 158.969 392.047ZM156.891 384.922C156.891 386.734 158.281 388.453 160.312 389.156L159.672 390.141C158.109 389.578 156.898 388.414 156.312 386.969C155.703 388.602 154.414 389.906 152.766 390.531L152.125 389.547C154.188 388.797 155.656 386.922 155.656 384.938V384.422H152.516V383.391H160V384.422H156.891V384.922ZM176.734 382.391V386.594H178.812V387.625H176.734V391.703H175.5V382.391H176.734ZM165.828 390.281C166.938 390.281 168.234 390.281 169.594 390.234V389.219C167.977 389.078 166.938 388.32 166.938 387.172C166.938 385.906 168.234 385.125 170.188 385.125C172.156 385.125 173.438 385.906 173.453 387.172C173.438 388.312 172.422 389.07 170.812 389.219V390.188C172.109 390.125 173.422 390.023 174.641 389.844L174.75 390.734C171.734 391.266 168.406 391.281 165.969 391.281L165.828 390.281ZM176.734 392.391V396.266H175.5V393.375H167.531V392.391H176.734ZM174.219 383.656V384.594H166.172V383.656H169.594V382.266H170.812V383.656H174.219ZM170.188 386C168.906 385.984 168.109 386.438 168.109 387.172C168.109 387.891 168.906 388.391 170.188 388.375C171.469 388.391 172.281 387.891 172.281 387.172C172.281 386.438 171.469 385.984 170.188 386ZM190.469 382.375V388.109H192.797V389.125H190.469V396.266H189.25V382.375H190.469ZM187.906 384.609V385.625H179.641V384.609H183.219V382.547H184.438V384.609H187.906ZM183.844 386.781C185.812 386.781 187.234 388.094 187.25 389.969C187.234 391.844 185.812 393.156 183.844 393.156C181.859 393.156 180.422 391.844 180.438 389.969C180.422 388.094 181.859 386.781 183.844 386.781ZM183.844 387.812C182.547 387.812 181.594 388.719 181.609 389.969C181.594 391.234 182.547 392.125 183.844 392.109C185.125 392.125 186.062 391.234 186.078 389.969C186.062 388.719 185.125 387.812 183.844 387.812ZM205.438 382.375V396.266H204.266V382.375H205.438ZM202.516 382.75V395.562H201.344V389.078H198.406C197.555 390.695 196.219 392.125 194.281 393.266L193.562 392.375C196.586 390.586 198.102 388.078 198.328 385.172H194.156V384.156H199.547C199.539 385.523 199.32 386.844 198.859 388.078H201.344V382.75H202.516ZM216.094 386.641C216.078 388.875 217.688 391.328 219.703 392.281L219 393.25C217.438 392.492 216.117 390.836 215.5 388.953C214.859 391 213.461 392.797 211.906 393.594L211.156 392.625C213.156 391.656 214.875 389.016 214.891 386.641V384.828H211.656V383.812H219.219V384.828H216.094V386.641ZM222.141 382.375V388H224.469V389.047H222.141V396.266H220.922V382.375H222.141ZM236.688 382.391V392.578H235.469V382.391H236.688ZM237.125 394.938V395.969H227.719V391.641H228.938V394.938H237.125ZM230.141 384.562C230.125 386.672 231.578 388.578 233.641 389.328L233 390.312C231.391 389.695 230.141 388.445 229.531 386.844C228.914 388.547 227.648 389.914 226.031 390.562L225.359 389.609C227.469 388.797 228.891 386.75 228.891 384.562V383.172H230.141V384.562ZM243.594 383.391C245.781 383.391 247.328 384.719 247.328 386.656C247.328 388.594 245.781 389.922 243.594 389.922C241.406 389.922 239.828 388.594 239.844 386.656C239.828 384.719 241.406 383.391 243.594 383.391ZM243.594 384.469C242.109 384.469 241.031 385.359 241.047 386.656C241.031 387.953 242.109 388.844 243.594 388.844C245.062 388.844 246.125 387.953 246.125 386.656C246.125 385.359 245.062 384.469 243.594 384.469ZM250.438 382.375V396.297H249.219V382.375H250.438ZM239.125 392.188C241.688 392.188 245.219 392.172 248.297 391.719L248.391 392.625C245.219 393.219 241.797 393.234 239.297 393.234L239.125 392.188ZM262.312 383.922V388.719H258.547V391.812C260.148 391.805 261.664 391.75 263.516 391.422L263.609 392.438C261.625 392.797 260.047 392.828 258.281 392.844H257.359V387.703H261.141V384.938H257.328V383.922H262.312ZM268.766 382.375V396.266H267.594V382.375H268.766ZM265.922 382.719V395.531H264.766V388.391H262.984V387.391H264.766V382.719H265.922ZM282.516 382.391V389.703H281.344V382.391H282.516ZM279.766 382.672V389.625H278.609V386.562H276.766V389.031H271.359V383.203H272.516V385.047H275.609V383.203H276.766V385.531H278.609V382.672H279.766ZM282.516 390.375V393.625H274.547V395.125H283.078V396.109H273.328V392.688H281.312V391.344H273.297V390.375H282.516ZM272.516 388.062H275.609V386H272.516V388.062ZM290.875 382.625C293.969 382.625 295.781 383.469 295.781 385.016C295.781 386.594 293.969 387.438 290.875 387.453C287.781 387.438 285.953 386.594 285.953 385.016C285.953 383.469 287.781 382.625 290.875 382.625ZM290.875 383.547C288.562 383.547 287.219 384.109 287.234 385.016C287.219 385.984 288.562 386.516 290.875 386.516C293.172 386.516 294.531 385.984 294.531 385.016C294.531 384.109 293.172 383.547 290.875 383.547ZM297.203 388.391V389.391H284.547V388.391H297.203ZM295.578 390.594V393.703H287.328V395.141H296V396.109H286.109V392.797H294.375V391.531H286.078V390.594H295.578ZM313.25 382.375V385.391H315.344V386.422H313.25V389.453H312.031V382.375H313.25ZM313.25 390.109V393.5H305.625V395.094H313.766V396.078H304.422V392.562H312.031V391.094H304.391V390.109H313.25ZM306.266 382.891C308.359 382.906 309.875 384.156 309.875 385.969C309.875 387.797 308.359 389.062 306.266 389.062C304.188 389.062 302.641 387.797 302.656 385.969C302.641 384.156 304.188 382.906 306.266 382.891ZM306.266 383.922C304.875 383.906 303.844 384.766 303.859 385.969C303.844 387.188 304.875 388.062 306.266 388.062C307.656 388.062 308.672 387.188 308.672 385.969C308.672 384.766 307.656 383.906 306.266 383.922ZM327.359 383.781V385.172C327.344 386.875 327.344 388.781 326.844 391.578L325.594 391.438C326.125 388.781 326.125 386.828 326.125 385.172V384.797H317.562V383.781H327.359ZM328.875 393.281V394.297H316.219V393.281H321.188V388.312H322.391V393.281H328.875ZM340.984 386.516V388.156H346.766V389.172H334.047V388.156H339.781V386.516H340.984ZM345.594 382.812V383.781H341.203C341.305 385.203 343.633 386.242 346.047 386.438L345.641 387.359C343.328 387.141 341.148 386.242 340.406 384.781C339.648 386.242 337.469 387.141 335.141 387.359L334.734 386.438C337.133 386.242 339.461 385.203 339.594 383.781H335.219V382.812H345.594ZM345.562 391.016V391.984H335.25V391.016H339.781V389.703H341V391.016H345.562ZM340.391 392.672C343.062 392.672 344.594 393.297 344.594 394.5C344.594 395.719 343.062 396.344 340.391 396.344C337.688 396.344 336.203 395.719 336.203 394.5C336.203 393.297 337.688 392.672 340.391 392.672ZM340.391 393.531C338.516 393.547 337.438 393.859 337.438 394.5C337.438 395.141 338.516 395.5 340.391 395.484C342.281 395.5 343.328 395.141 343.344 394.5C343.328 393.859 342.281 393.547 340.391 393.531ZM351.609 383.453C353.656 383.469 355.109 385.344 355.125 388.297C355.109 391.25 353.656 393.125 351.609 393.125C349.547 393.125 348.109 391.25 348.109 388.297C348.109 385.344 349.547 383.469 351.609 383.453ZM351.609 384.547C350.234 384.562 349.266 386.031 349.266 388.297C349.266 390.562 350.234 392.031 351.609 392.031C353 392.031 353.938 390.562 353.938 388.297C353.938 386.031 353 384.562 351.609 384.547ZM358.641 382.375V387.922H360.969V388.984H358.641V396.266H357.422V382.375H358.641ZM372.469 382.375V388.109H374.797V389.125H372.469V396.266H371.25V382.375H372.469ZM369.906 384.609V385.625H361.641V384.609H365.219V382.547H366.438V384.609H369.906ZM365.844 386.781C367.812 386.781 369.234 388.094 369.25 389.969C369.234 391.844 367.812 393.156 365.844 393.156C363.859 393.156 362.422 391.844 362.438 389.969C362.422 388.094 363.859 386.781 365.844 386.781ZM365.844 387.812C364.547 387.812 363.594 388.719 363.609 389.969C363.594 391.234 364.547 392.125 365.844 392.109C367.125 392.125 368.062 391.234 368.078 389.969C368.062 388.719 367.125 387.812 365.844 387.812ZM386.781 386.594V387.578H377.266V382.891H378.484V386.594H386.781ZM388.25 389.469V390.469H375.531V389.469H388.25ZM386.859 394.906V395.922H377.188V391.891H378.406V394.906H386.859ZM400.406 384.344C400.391 386.203 402.875 387.781 405.297 388.141L404.844 389.109C402.672 388.742 400.562 387.586 399.719 385.906C398.875 387.586 396.758 388.742 394.625 389.109L394.141 388.141C396.547 387.781 399.031 386.203 399.031 384.344V384.25H394.578V383.25H404.844V384.25H400.406V384.344ZM406.047 390.297V391.312H400.297V396.266H399.094V391.312H393.391V390.297H406.047ZM419.094 382.375V396.266H417.922V382.375H419.094ZM416.281 382.719V395.547H415.125V388.391H412.781V387.391H415.125V382.719H416.281ZM411.297 386.344C411.297 388.75 412.375 391.141 414.297 392.25L413.547 393.156C412.18 392.336 411.211 390.836 410.734 389.062C410.227 390.977 409.219 392.609 407.828 393.484L407.047 392.562C408.984 391.406 410.109 388.875 410.109 386.344V385.031H407.438V384.016H413.844V385.031H411.297V386.344ZM425.594 383.391C427.781 383.391 429.328 384.719 429.328 386.656C429.328 388.594 427.781 389.922 425.594 389.922C423.406 389.922 421.828 388.594 421.844 386.656C421.828 384.719 423.406 383.391 425.594 383.391ZM425.594 384.469C424.109 384.469 423.031 385.359 423.047 386.656C423.031 387.953 424.109 388.844 425.594 388.844C427.062 388.844 428.125 387.953 428.125 386.656C428.125 385.359 427.062 384.469 425.594 384.469ZM432.438 382.375V396.297H431.219V382.375H432.438ZM421.125 392.188C423.688 392.188 427.219 392.172 430.297 391.719L430.391 392.625C427.219 393.219 423.797 393.234 421.297 393.234L421.125 392.188ZM110.672 411.391C110.672 413.031 111.766 414.641 113.531 415.281L112.938 416.234C111.578 415.695 110.617 414.656 110.125 413.391C109.641 414.766 108.664 415.898 107.281 416.484L106.672 415.562C108.438 414.828 109.5 413.156 109.516 411.391V411.219H106.953V410.219H109.516V408.547H110.672V410.219H113.188V411.219H110.672V411.391ZM118.359 408.391V416.891H117.188V413.125H115.375V416.828H114.188V408.641H115.375V412.109H117.188V408.391H118.359ZM118.359 417.641V422.266H117.156V418.641H109V417.641H118.359ZM126.719 408.625C129.812 408.625 131.625 409.469 131.625 411.016C131.625 412.594 129.812 413.438 126.719 413.453C123.625 413.438 121.797 412.594 121.797 411.016C121.797 409.469 123.625 408.625 126.719 408.625ZM126.719 409.547C124.406 409.547 123.062 410.109 123.078 411.016C123.062 411.984 124.406 412.516 126.719 412.516C129.016 412.516 130.375 411.984 130.375 411.016C130.375 410.109 129.016 409.547 126.719 409.547ZM133.047 414.391V415.391H120.391V414.391H133.047ZM131.422 416.594V419.703H123.172V421.141H131.844V422.109H121.953V418.797H130.219V417.531H121.922V416.594H131.422ZM149.734 408.375V415.922H148.516V412.781H145.703V411.75H148.516V408.375H149.734ZM142.031 416.594V418.328H148.516V416.594H149.734V422.078H140.797V416.594H142.031ZM142.031 421.078H148.516V419.312H142.031V421.078ZM143.062 410.641C143.062 412.422 144.453 414.172 146.484 414.875L145.844 415.828C144.273 415.258 143.062 414.094 142.469 412.656C141.867 414.266 140.586 415.555 138.938 416.156L138.297 415.188C140.344 414.453 141.828 412.609 141.828 410.641V410.234H138.688V409.219H146.172V410.234H143.062V410.641ZM162.922 408.328V411.703H165.031V412.719H162.922V416.016H161.703V408.328H162.922ZM162.922 416.734V419.812H155.297V421.172H163.438V422.109H154.094V418.906H161.703V417.656H154.062V416.734H162.922ZM160.375 409.641V410.625H152.094V409.641H155.625V408.234H156.844V409.641H160.375ZM156.234 411.25C158.25 411.25 159.562 412.125 159.578 413.531C159.562 414.938 158.25 415.812 156.234 415.812C154.203 415.812 152.875 414.938 152.891 413.531C152.875 412.125 154.203 411.25 156.234 411.25ZM156.234 412.156C154.922 412.156 154.047 412.703 154.062 413.531C154.047 414.375 154.922 414.891 156.234 414.891C157.547 414.891 158.406 414.375 158.422 413.531C158.406 412.703 157.547 412.156 156.234 412.156ZM176.875 409.672C176.875 411.625 179.438 413.328 181.938 413.672L181.438 414.672C179.281 414.312 177.148 413.117 176.25 411.406C175.359 413.125 173.219 414.312 171.062 414.672L170.562 413.672C173.062 413.328 175.609 411.656 175.609 409.672V408.875H176.875V409.672ZM182.562 416.203V417.234H176.812V422.266H175.609V417.234H169.906V416.203H182.562ZM192.453 417.703C192.453 418.93 193.109 420.234 194.438 420.984C195.75 420.164 196.453 418.781 196.453 417.703V416.938H197.656V417.703C197.656 419.125 198.703 420.562 200.484 421.172L199.875 422.078C198.484 421.586 197.508 420.617 197.031 419.453C196.602 420.578 195.75 421.641 194.469 422.188C193.117 421.672 192.258 420.648 191.844 419.484C191.352 420.609 190.391 421.578 189.062 422.078L188.438 421.172C190.188 420.516 191.25 419.031 191.266 417.703V416.938H192.453V417.703ZM199.219 408.391V416.328H198V408.391H199.219ZM191.719 409.203C193.828 409.203 195.359 410.516 195.359 412.453C195.359 414.359 193.828 415.672 191.719 415.672C189.609 415.672 188.078 414.359 188.078 412.453C188.078 410.516 189.609 409.203 191.719 409.203ZM191.719 410.25C190.297 410.234 189.266 411.156 189.281 412.453C189.266 413.734 190.297 414.641 191.719 414.656C193.125 414.641 194.156 413.734 194.156 412.453C194.156 411.156 193.125 410.234 191.719 410.25ZM212.797 414.891V415.891H208.5V419.484H214.297V420.516H201.578V419.484H207.297V415.891H203.203V409.516H212.656V410.516H204.438V414.891H212.797ZM228.109 416.031V417.047H215.391V416.031H221.141V414.562H217.047V411.172H225.234V409.734H217V408.734H226.469V412.094H218.266V413.578H226.766V414.562H222.344V416.031H228.109ZM226.547 418.109V422.141H225.312V419.109H216.812V418.109H226.547ZM245.125 408.375V422.266H243.953V414.984H241.906V421.547H240.781V408.688H241.906V413.969H243.953V408.375H245.125ZM238.969 410.078V411.094H234.984V417.781C236.898 417.773 238.227 417.703 239.766 417.391L239.875 418.422C238.203 418.766 236.781 418.828 234.656 418.828H233.766V410.078H238.969ZM260.047 410.562V411.594H257.938V413.484H260.047V414.531H257.938V416.797H256.719V408.391H257.938V410.562H260.047ZM253.969 409.25V413H248.906V414.938C251.375 414.938 253.164 414.852 255.328 414.484L255.453 415.516C253.219 415.891 251.359 415.969 248.781 415.969H247.703V412.031H252.766V410.266H247.672V409.25H253.969ZM253.484 417.203C256.312 417.203 258.062 418.141 258.062 419.734C258.062 421.328 256.312 422.234 253.484 422.234C250.609 422.234 248.875 421.328 248.875 419.734C248.875 418.141 250.609 417.203 253.484 417.203ZM253.484 418.172C251.359 418.172 250.062 418.75 250.078 419.734C250.062 420.703 251.359 421.281 253.484 421.281C255.594 421.281 256.875 420.703 256.875 419.734C256.875 418.75 255.594 418.172 253.484 418.172ZM265.453 409.391C267.641 409.391 269.188 410.719 269.188 412.656C269.188 414.594 267.641 415.922 265.453 415.922C263.266 415.922 261.688 414.594 261.703 412.656C261.688 410.719 263.266 409.391 265.453 409.391ZM265.453 410.469C263.969 410.469 262.891 411.359 262.906 412.656C262.891 413.953 263.969 414.844 265.453 414.844C266.922 414.844 267.984 413.953 267.984 412.656C267.984 411.359 266.922 410.469 265.453 410.469ZM272.297 408.375V422.297H271.078V408.375H272.297ZM260.984 418.188C263.547 418.188 267.078 418.172 270.156 417.719L270.25 418.625C267.078 419.219 263.656 419.234 261.156 419.234L260.984 418.188ZM289.969 414.891V415.891H285.672V419.484H291.469V420.516H278.75V419.484H284.469V415.891H280.375V409.516H289.828V410.516H281.609V414.891H289.969ZM297.469 412.109C297.469 414.625 299.078 417.156 301.094 418.078L300.359 419.078C298.781 418.266 297.477 416.602 296.859 414.625C296.242 416.703 294.938 418.484 293.359 419.328L292.562 418.344C294.594 417.344 296.219 414.672 296.219 412.109V409.578H297.469V412.109ZM304.094 408.375V422.297H302.875V414.125H299.578V413.125H302.875V408.375H304.094ZM319.109 414.828V415.797H306.391V414.828H319.109ZM317.516 416.906V419.859H309.172V421.188H317.969V422.078H307.938V419.016H316.297V417.828H307.922V416.906H317.516ZM317.469 408.797V411.672H309.266V412.891H317.719V413.781H308.047V410.828H316.234V409.688H308V408.797H317.469ZM336.125 408.375V422.266H334.953V408.375H336.125ZM333.312 408.719V421.547H332.156V414.391H329.812V413.391H332.156V408.719H333.312ZM328.328 412.344C328.328 414.75 329.406 417.141 331.328 418.25L330.578 419.156C329.211 418.336 328.242 416.836 327.766 415.062C327.258 416.977 326.25 418.609 324.859 419.484L324.078 418.562C326.016 417.406 327.141 414.875 327.141 412.344V411.031H324.469V410.016H330.875V411.031H328.328V412.344ZM344.359 417.156C347.344 417.156 349.234 418.094 349.234 419.703C349.234 421.297 347.344 422.234 344.359 422.234C341.391 422.234 339.5 421.297 339.5 419.703C339.5 418.094 341.391 417.156 344.359 417.156ZM344.359 418.094C342.141 418.109 340.703 418.719 340.719 419.703C340.703 420.672 342.141 421.266 344.359 421.266C346.578 421.266 348 420.672 348.016 419.703C348 418.719 346.578 418.109 344.359 418.094ZM349.125 409.094V410.266C349.125 411.391 349.125 412.516 348.734 413.953L347.531 413.812C347.906 412.375 347.906 411.359 347.906 410.266V410.094H339.594V409.094H349.125ZM350.734 414.859V415.859H338.094V414.859H343.328V412.172H344.531V414.859H350.734ZM362.656 408.375V414.109H364.984V415.125H362.656V422.266H361.438V408.375H362.656ZM360.094 410.609V411.625H351.828V410.609H355.406V408.547H356.625V410.609H360.094ZM356.031 412.781C358 412.781 359.422 414.094 359.438 415.969C359.422 417.844 358 419.156 356.031 419.156C354.047 419.156 352.609 417.844 352.625 415.969C352.609 414.094 354.047 412.781 356.031 412.781ZM356.031 413.812C354.734 413.812 353.781 414.719 353.797 415.969C353.781 417.234 354.734 418.125 356.031 418.109C357.312 418.125 358.25 417.234 358.266 415.969C358.25 414.719 357.312 413.812 356.031 413.812ZM372.625 409.766V411.719H376.031V408.375H377.25V422.297H376.031V416.562H372.625V418.75H366.297V409.766H372.625ZM367.516 410.734V417.766H371.438V410.734H367.516ZM372.625 415.547H376.031V412.734H372.625V415.547ZM396.281 416.625V417.625H390.484V422.266H389.281V417.625H383.562V416.625H396.281ZM386.406 408.953V410.875H393.406V408.953H394.641V414.938H385.188V408.953H386.406ZM386.406 413.938H393.406V411.875H386.406V413.938ZM408.266 408.375V411.781H410.359V412.812H408.266V416.266H407.047V408.375H408.266ZM404.219 409.328V410.328H399.281V414.422C402.07 414.438 403.656 414.336 405.516 413.969L405.672 414.969C403.719 415.359 402.062 415.438 399.141 415.438H398.062V409.328H404.219ZM408.266 416.984V422.078H399.5V416.984H408.266ZM400.703 417.984V421.078H407.047V417.984H400.703ZM109.328 442.531V444.266H111.859V442.531H113V448.078H108.172V442.531H109.328ZM109.328 447.109H111.859V445.203H109.328V447.109ZM116.969 443.625C116.953 445.094 117.828 446.625 119.531 447.25L118.891 448.188C117.609 447.672 116.766 446.695 116.344 445.531C115.898 446.672 115.055 447.656 113.828 448.188L113.188 447.25C114.859 446.562 115.75 445.031 115.75 443.625V442.438H116.969V443.625ZM110.391 435C112.25 435 113.672 436.055 113.938 437.656H116.844V434.375H118.078V441.734H116.844V438.672H113.953C113.703 440.312 112.273 441.391 110.391 441.391C108.281 441.391 106.781 440.094 106.781 438.188C106.781 436.297 108.281 435 110.391 435ZM110.391 436.031C108.969 436.031 107.953 436.922 107.953 438.188C107.953 439.469 108.969 440.375 110.391 440.375C111.797 440.375 112.797 439.469 112.797 438.188C112.797 436.922 111.797 436.031 110.391 436.031ZM131.844 434.375V448.297H130.609V434.375H131.844ZM124.453 435.453C126.516 435.469 128 437.344 128 440.297C128 443.25 126.516 445.125 124.453 445.125C122.375 445.125 120.906 443.25 120.906 440.297C120.906 437.344 122.375 435.469 124.453 435.453ZM124.453 436.547C123.062 436.562 122.094 438.031 122.094 440.297C122.094 442.562 123.062 444.031 124.453 444.031C125.844 444.031 126.812 442.562 126.812 440.297C126.812 438.031 125.844 436.562 124.453 436.547ZM148.984 434.375V439.875H151.312V440.906H148.984V448.297H147.766V434.375H148.984ZM145.328 435.734V436.75H140.062V443.781C142.578 443.781 144.359 443.664 146.422 443.281L146.578 444.344C144.406 444.734 142.578 444.812 139.938 444.812H138.844V435.734H145.328ZM164.719 441.312V442.312H152.062V441.312H157.781V439.625H153.672V434.938H163.156V435.953H154.891V438.609H163.281V439.625H159V441.312H164.719ZM163.172 443.672V448.375H161.953V444.672H153.469V443.672H163.172ZM170.438 435.391C172.625 435.391 174.172 436.719 174.172 438.656C174.172 440.594 172.625 441.922 170.438 441.922C168.25 441.922 166.672 440.594 166.688 438.656C166.672 436.719 168.25 435.391 170.438 435.391ZM170.438 436.469C168.953 436.469 167.875 437.359 167.891 438.656C167.875 439.953 168.953 440.844 170.438 440.844C171.906 440.844 172.969 439.953 172.969 438.656C172.969 437.359 171.906 436.469 170.438 436.469ZM177.281 434.375V448.297H176.062V434.375H177.281ZM165.969 444.188C168.531 444.188 172.062 444.172 175.141 443.719L175.234 444.625C172.062 445.219 168.641 445.234 166.141 445.234L165.969 444.188ZM196.391 440.297V441.312H183.734V440.297H196.391ZM194.766 442.594V445.734H186.516V447.141H195.188V448.109H185.297V444.812H193.562V443.531H185.266V442.594H194.766ZM195.266 434.922V435.922H190.781C190.906 437.352 193.25 438.445 195.719 438.641L195.312 439.609C193.039 439.375 190.898 438.492 190.078 437.094C189.234 438.492 187.102 439.375 184.828 439.609L184.422 438.641C186.875 438.445 189.211 437.352 189.375 435.922H184.891V434.922H195.266ZM209.062 434.375V448.266H207.844V440.984H204.531V439.969H207.844V434.375H209.062ZM204.562 435.891C204.562 439.828 202.891 443.328 198.25 445.625L197.578 444.641C201.344 442.82 203.086 440.148 203.328 436.891H198.188V435.891H204.562ZM217.719 434.641C220.734 434.641 222.625 435.609 222.625 437.266C222.625 438.891 220.734 439.844 217.719 439.844C214.703 439.844 212.797 438.891 212.797 437.266C212.797 435.609 214.703 434.641 217.719 434.641ZM217.719 435.609C215.469 435.609 214.047 436.219 214.062 437.266C214.047 438.281 215.469 438.875 217.719 438.875C219.938 438.875 221.375 438.281 221.375 437.266C221.375 436.219 219.938 435.609 217.719 435.609ZM222.5 443.516V448.078H212.938V443.516H217.109V441.922H211.391V440.906H224.047V441.922H218.312V443.516H222.5ZM214.156 444.5V447.078H221.297V444.5H214.156ZM231.547 434.625C234.641 434.625 236.453 435.469 236.453 437.016C236.453 438.594 234.641 439.438 231.547 439.453C228.453 439.438 226.625 438.594 226.625 437.016C226.625 435.469 228.453 434.625 231.547 434.625ZM231.547 435.547C229.234 435.547 227.891 436.109 227.906 437.016C227.891 437.984 229.234 438.516 231.547 438.516C233.844 438.516 235.203 437.984 235.203 437.016C235.203 436.109 233.844 435.547 231.547 435.547ZM237.875 440.391V441.391H225.219V440.391H237.875ZM236.25 442.594V445.703H228V447.141H236.672V448.109H226.781V444.797H235.047V443.531H226.75V442.594H236.25ZM254.578 434.391V442.734H253.344V440.859H249.656V439.844H253.344V437.969H249.797C248.883 440.203 246.734 441.82 243.766 442.703L243.25 441.734C246.609 440.734 248.695 438.859 248.953 436.453H243.953V435.422H250.281C250.281 435.969 250.219 436.492 250.109 436.984H253.344V434.391H254.578ZM250.031 442.875C252.844 442.875 254.656 443.875 254.656 445.531C254.656 447.203 252.844 448.203 250.031 448.203C247.188 448.203 245.391 447.203 245.391 445.531C245.391 443.875 247.188 442.875 250.031 442.875ZM250.031 443.859C247.938 443.844 246.594 444.484 246.594 445.531C246.594 446.578 247.938 447.203 250.031 447.203C252.094 447.203 253.422 446.578 253.438 445.531C253.422 444.484 252.094 443.844 250.031 443.859ZM268.406 434.375V442.797H267.172V439.625H264.812V438.609H267.172V434.375H268.406ZM268.406 443.547V448.078H259.328V443.547H268.406ZM260.547 444.531V447.078H267.203V444.531H260.547ZM265.016 435.844V436.844H256.906V435.844H260.359V434.25H261.562V435.844H265.016ZM260.953 437.562C262.844 437.562 264.172 438.578 264.188 440.031C264.172 441.531 262.844 442.516 260.953 442.516C259.062 442.516 257.734 441.531 257.734 440.031C257.734 438.578 259.062 437.562 260.953 437.562ZM260.953 438.516C259.75 438.516 258.906 439.141 258.906 440.031C258.906 440.953 259.75 441.562 260.953 441.578C262.156 441.562 263 440.953 263 440.031C263 439.141 262.156 438.516 260.953 438.516ZM281.578 434.328V437.703H283.688V438.719H281.578V442.016H280.359V434.328H281.578ZM281.578 442.734V445.812H273.953V447.172H282.094V448.109H272.75V444.906H280.359V443.656H272.719V442.734H281.578ZM279.031 435.641V436.625H270.75V435.641H274.281V434.234H275.5V435.641H279.031ZM274.891 437.25C276.906 437.25 278.219 438.125 278.234 439.531C278.219 440.938 276.906 441.812 274.891 441.812C272.859 441.812 271.531 440.938 271.547 439.531C271.531 438.125 272.859 437.25 274.891 437.25ZM274.891 438.156C273.578 438.156 272.703 438.703 272.719 439.531C272.703 440.375 273.578 440.891 274.891 440.891C276.203 440.891 277.062 440.375 277.078 439.531C277.062 438.703 276.203 438.156 274.891 438.156ZM295.531 435.672C295.531 437.625 298.094 439.328 300.594 439.672L300.094 440.672C297.938 440.312 295.805 439.117 294.906 437.406C294.016 439.125 291.875 440.312 289.719 440.672L289.219 439.672C291.719 439.328 294.266 437.656 294.266 435.672V434.875H295.531V435.672ZM301.219 442.203V443.234H295.469V448.266H294.266V443.234H288.562V442.203H301.219ZM311.109 443.703C311.109 444.93 311.766 446.234 313.094 446.984C314.406 446.164 315.109 444.781 315.109 443.703V442.938H316.312V443.703C316.312 445.125 317.359 446.562 319.141 447.172L318.531 448.078C317.141 447.586 316.164 446.617 315.688 445.453C315.258 446.578 314.406 447.641 313.125 448.188C311.773 447.672 310.914 446.648 310.5 445.484C310.008 446.609 309.047 447.578 307.719 448.078L307.094 447.172C308.844 446.516 309.906 445.031 309.922 443.703V442.938H311.109V443.703ZM317.875 434.391V442.328H316.656V434.391H317.875ZM310.375 435.203C312.484 435.203 314.016 436.516 314.016 438.453C314.016 440.359 312.484 441.672 310.375 441.672C308.266 441.672 306.734 440.359 306.734 438.453C306.734 436.516 308.266 435.203 310.375 435.203ZM310.375 436.25C308.953 436.234 307.922 437.156 307.938 438.453C307.922 439.734 308.953 440.641 310.375 440.656C311.781 440.641 312.812 439.734 312.812 438.453C312.812 437.156 311.781 436.234 310.375 436.25ZM331.453 440.891V441.891H327.156V445.484H332.953V446.516H320.234V445.484H325.953V441.891H321.859V435.516H331.312V436.516H323.094V440.891H331.453ZM346.766 442.031V443.047H334.047V442.031H339.797V440.562H335.703V437.172H343.891V435.734H335.656V434.734H345.125V438.094H336.922V439.578H345.422V440.562H341V442.031H346.766ZM345.203 444.109V448.141H343.969V445.109H335.469V444.109H345.203ZM358.875 435.672C358.875 437.625 361.438 439.328 363.938 439.672L363.438 440.672C361.281 440.312 359.148 439.117 358.25 437.406C357.359 439.125 355.219 440.312 353.062 440.672L352.562 439.672C355.062 439.328 357.609 437.656 357.609 435.672V434.875H358.875V435.672ZM364.562 442.203V443.234H358.812V448.266H357.609V443.234H351.906V442.203H364.562ZM369.562 435.031C371.43 435.016 372.844 436.102 373.109 437.703H376.016V434.375H377.25V441.828H376.016V438.719H373.125C372.875 440.359 371.445 441.453 369.562 441.453C367.453 441.453 365.953 440.141 365.953 438.234C365.953 436.344 367.453 435.016 369.562 435.031ZM369.562 436.078C368.141 436.062 367.125 436.953 367.125 438.234C367.125 439.5 368.141 440.422 369.562 440.422C370.969 440.422 371.969 439.5 371.969 438.234C371.969 436.953 370.969 436.062 369.562 436.078ZM369.531 442.531V444.297H376.016V442.531H377.25V448.078H368.297V442.531H369.531ZM369.531 447.078H376.016V445.281H369.531V447.078ZM385.891 434.625C388.984 434.625 390.797 435.469 390.797 437.016C390.797 438.594 388.984 439.438 385.891 439.453C382.797 439.438 380.969 438.594 380.969 437.016C380.969 435.469 382.797 434.625 385.891 434.625ZM385.891 435.547C383.578 435.547 382.234 436.109 382.25 437.016C382.234 437.984 383.578 438.516 385.891 438.516C388.188 438.516 389.547 437.984 389.547 437.016C389.547 436.109 388.188 435.547 385.891 435.547ZM392.219 440.391V441.391H379.562V440.391H392.219ZM390.594 442.594V445.703H382.344V447.141H391.016V448.109H381.125V444.797H389.391V443.531H381.094V442.594H390.594ZM119.266 467.438V468.453H113.625V471.297H112.391V468.453H106.547V467.438H119.266ZM117.844 472.922V473.969H108.188V469.906H109.422V472.922H117.844ZM112.891 460.734C115.859 460.75 117.781 461.812 117.781 463.531C117.781 465.25 115.859 466.297 112.891 466.297C109.922 466.297 107.984 465.25 107.984 463.531C107.984 461.812 109.922 460.75 112.891 460.734ZM112.891 461.734C110.734 461.734 109.281 462.422 109.297 463.531C109.281 464.609 110.734 465.297 112.891 465.297C115.047 465.297 116.484 464.609 116.484 463.531C116.484 462.422 115.047 461.734 112.891 461.734ZM124.219 461.219C125.391 461.211 126.391 461.648 127.031 462.391H130.672V460.375H131.906V468.609H130.672V466.625H127.047C126.391 467.367 125.391 467.805 124.219 467.797C122.141 467.812 120.609 466.453 120.609 464.516C120.609 462.562 122.141 461.203 124.219 461.219ZM124.219 462.281C122.797 462.266 121.781 463.203 121.781 464.516C121.781 465.812 122.797 466.75 124.219 466.75C125.594 466.75 126.625 465.812 126.625 464.516C126.625 463.203 125.594 462.266 124.219 462.281ZM127.297 468.938C130.172 468.938 131.953 469.906 131.953 471.578C131.953 473.266 130.172 474.234 127.297 474.234C124.406 474.234 122.641 473.266 122.641 471.578C122.641 469.906 124.406 468.938 127.297 468.938ZM127.297 469.891C125.172 469.891 123.844 470.531 123.844 471.578C123.844 472.625 125.172 473.25 127.297 473.25C129.438 473.25 130.75 472.625 130.75 471.578C130.75 470.531 129.438 469.891 127.297 469.891ZM127.625 463.391C127.742 463.734 127.812 464.109 127.812 464.516C127.812 464.906 127.742 465.273 127.625 465.609H130.672V463.391H127.625ZM145.078 460.375V463.938H147.172V464.984H145.078V468.453H143.859V460.375H145.078ZM137.516 469.062V470.547H143.859V469.062H145.078V474.078H136.297V469.062H137.516ZM137.516 473.094H143.859V471.516H137.516V473.094ZM142.531 461.812V462.828H134.25V461.812H137.781V460.25H139V461.812H142.531ZM138.391 463.469C140.391 463.469 141.719 464.422 141.734 465.906C141.719 467.391 140.391 468.344 138.391 468.344C136.375 468.344 135.031 467.391 135.047 465.906C135.031 464.422 136.375 463.469 138.391 463.469ZM138.391 464.422C137.078 464.406 136.203 465.016 136.219 465.906C136.203 466.812 137.078 467.406 138.391 467.406C139.688 467.406 140.562 466.812 140.578 465.906C140.562 465.016 139.688 464.406 138.391 464.422ZM159.5 460.375V474.266H158.281V460.375H159.5ZM150.156 461.75V469.625C152.273 469.617 154.469 469.445 156.797 468.953L156.969 470C154.5 470.516 152.297 470.688 150.078 470.688H148.953V461.75H150.156ZM172.625 460.375V465.875H174.953V466.906H172.625V474.297H171.406V460.375H172.625ZM168.969 461.734V462.75H163.703V469.781C166.219 469.781 168 469.664 170.062 469.281L170.219 470.344C168.047 470.734 166.219 470.812 163.578 470.812H162.484V461.734H168.969Z" fill="black"/>
<path d="M106 144H441" stroke="url(#paint3_linear_463_1291)"/>
<rect x="106" y="315" width="120" height="50" rx="10" fill="white"/>
<path d="M121.984 346H119.453L123.375 334.688H126.391L130.297 346H127.781L126.938 343.391H122.844L121.984 346ZM123.438 341.562H126.344L124.922 337.234H124.844L123.438 341.562ZM136.188 340.031C136.094 339.438 135.562 339.047 134.797 339.047C134.047 339.047 133.469 339.406 133.484 339.922C133.469 340.297 133.781 340.594 134.578 340.766L136.094 341.078C137.734 341.422 138.531 342.156 138.547 343.375C138.531 345.047 137.031 346.172 134.781 346.172C132.484 346.172 131.141 345.141 130.953 343.484H133.281C133.391 344.156 133.938 344.5 134.781 344.5C135.625 344.5 136.188 344.156 136.188 343.609C136.188 343.172 135.828 342.906 135.031 342.734L133.625 342.453C132.016 342.141 131.172 341.297 131.188 340.047C131.172 338.422 132.578 337.406 134.766 337.406C136.906 337.406 138.234 338.422 138.359 340.031H136.188ZM144.812 340.031C144.719 339.438 144.188 339.047 143.422 339.047C142.672 339.047 142.094 339.406 142.109 339.922C142.094 340.297 142.406 340.594 143.203 340.766L144.719 341.078C146.359 341.422 147.156 342.156 147.172 343.375C147.156 345.047 145.656 346.172 143.406 346.172C141.109 346.172 139.766 345.141 139.578 343.484H141.906C142.016 344.156 142.562 344.5 143.406 344.5C144.25 344.5 144.812 344.156 144.812 343.609C144.812 343.172 144.453 342.906 143.656 342.734L142.25 342.453C140.641 342.141 139.797 341.297 139.812 340.047C139.797 338.422 141.203 337.406 143.391 337.406C145.531 337.406 146.859 338.422 146.984 340.031H144.812ZM152.438 346.172C149.844 346.172 148.25 344.484 148.25 341.797C148.25 339.172 149.859 337.406 152.344 337.406C154.578 337.406 156.328 338.812 156.328 341.703V342.359H150.531C150.531 343.641 151.297 344.438 152.484 344.438C153.266 344.438 153.828 344.094 154.062 343.578H156.266C155.938 345.141 154.531 346.172 152.438 346.172ZM150.531 340.906H154.141C154.141 339.875 153.422 339.141 152.391 339.141C151.328 339.141 150.57 339.93 150.531 340.906ZM162.625 340.031C162.531 339.438 162 339.047 161.234 339.047C160.484 339.047 159.906 339.406 159.922 339.922C159.906 340.297 160.219 340.594 161.016 340.766L162.531 341.078C164.172 341.422 164.969 342.156 164.984 343.375C164.969 345.047 163.469 346.172 161.219 346.172C158.922 346.172 157.578 345.141 157.391 343.484H159.719C159.828 344.156 160.375 344.5 161.219 344.5C162.062 344.5 162.625 344.156 162.625 343.609C162.625 343.172 162.266 342.906 161.469 342.734L160.062 342.453C158.453 342.141 157.609 341.297 157.625 340.047C157.609 338.422 159.016 337.406 161.203 337.406C163.344 337.406 164.672 338.422 164.797 340.031H162.625ZM171.25 340.031C171.156 339.438 170.625 339.047 169.859 339.047C169.109 339.047 168.531 339.406 168.547 339.922C168.531 340.297 168.844 340.594 169.641 340.766L171.156 341.078C172.797 341.422 173.594 342.156 173.609 343.375C173.594 345.047 172.094 346.172 169.844 346.172C167.547 346.172 166.203 345.141 166.016 343.484H168.344C168.453 344.156 169 344.5 169.844 344.5C170.688 344.5 171.25 344.156 171.25 343.609C171.25 343.172 170.891 342.906 170.094 342.734L168.688 342.453C167.078 342.141 166.234 341.297 166.25 340.047C166.234 338.422 167.641 337.406 169.828 337.406C171.969 337.406 173.297 338.422 173.422 340.031H171.25ZM175.031 346V337.516H177.234V339H177.328C177.688 338.016 178.547 337.406 179.688 337.406C180.859 337.406 181.719 338.016 182 339H182.078C182.438 338.031 183.391 337.406 184.641 337.406C186.219 337.406 187.312 338.453 187.312 340.297V346H185V340.75C185 339.781 184.438 339.312 183.672 339.312C182.797 339.312 182.297 339.922 182.297 340.812V346H180.047V340.688C180.047 339.844 179.516 339.312 178.734 339.312C177.953 339.312 177.344 339.938 177.344 340.906V346H175.031ZM192.938 346.172C190.344 346.172 188.75 344.484 188.75 341.797C188.75 339.172 190.359 337.406 192.844 337.406C195.078 337.406 196.828 338.812 196.828 341.703V342.359H191.031C191.031 343.641 191.797 344.438 192.984 344.438C193.766 344.438 194.328 344.094 194.562 343.578H196.766C196.438 345.141 195.031 346.172 192.938 346.172ZM191.031 340.906H194.641C194.641 339.875 193.922 339.141 192.891 339.141C191.828 339.141 191.07 339.93 191.031 340.906ZM200.594 341.094V346H198.281V337.516H200.484V339H200.578C200.969 338.016 201.875 337.406 203.125 337.406C204.891 337.406 206.062 338.609 206.047 340.594V346H203.75V341C203.75 339.953 203.172 339.328 202.219 339.328C201.25 339.328 200.594 339.969 200.594 341.094ZM212.312 337.516V339.25H210.719V343.391C210.719 344.062 211.047 344.234 211.516 344.25C211.75 344.25 212.156 344.234 212.438 344.203V346.031C212.188 346.078 211.781 346.109 211.203 346.109C209.531 346.109 208.391 345.359 208.406 343.719V339.25H207.234V337.516H208.406V335.484H210.719V337.516H212.312Z" fill="url(#paint4_linear_463_1291)"/>
<rect x="235" y="315" width="85" height="49" rx="10" fill="white"/>
<path d="M252.562 345.5H250.031L253.953 334.188H256.969L260.875 345.5H258.359L257.516 342.891H253.422L252.562 345.5ZM254.016 341.062H256.922L255.5 336.734H255.422L254.016 341.062ZM265.531 345.672C262.938 345.672 261.375 343.875 261.375 341.281C261.375 338.688 262.953 336.906 265.531 336.906C267.719 336.906 269.203 338.188 269.297 340.125H267.125C266.984 339.281 266.438 338.703 265.562 338.703C264.453 338.703 263.719 339.641 263.719 341.25C263.719 342.891 264.438 343.828 265.562 343.828C266.375 343.828 266.984 343.328 267.125 342.422H269.297C269.188 344.344 267.781 345.672 265.531 345.672ZM274.547 345.672C271.953 345.672 270.391 343.875 270.391 341.281C270.391 338.688 271.969 336.906 274.547 336.906C276.734 336.906 278.219 338.188 278.312 340.125H276.141C276 339.281 275.453 338.703 274.578 338.703C273.469 338.703 272.734 339.641 272.734 341.25C272.734 342.891 273.453 343.828 274.578 343.828C275.391 343.828 276 343.328 276.141 342.422H278.312C278.203 344.344 276.797 345.672 274.547 345.672ZM283.594 345.672C281 345.672 279.406 343.984 279.406 341.297C279.406 338.672 281.016 336.906 283.5 336.906C285.734 336.906 287.484 338.312 287.484 341.203V341.859H281.688C281.688 343.141 282.453 343.938 283.641 343.938C284.422 343.938 284.984 343.594 285.219 343.078H287.422C287.094 344.641 285.688 345.672 283.594 345.672ZM281.688 340.406H285.297C285.297 339.375 284.578 338.641 283.547 338.641C282.484 338.641 281.727 339.43 281.688 340.406ZM293.781 339.531C293.688 338.938 293.156 338.547 292.391 338.547C291.641 338.547 291.062 338.906 291.078 339.422C291.062 339.797 291.375 340.094 292.172 340.266L293.688 340.578C295.328 340.922 296.125 341.656 296.141 342.875C296.125 344.547 294.625 345.672 292.375 345.672C290.078 345.672 288.734 344.641 288.547 342.984H290.875C290.984 343.656 291.531 344 292.375 344C293.219 344 293.781 343.656 293.781 343.109C293.781 342.672 293.422 342.406 292.625 342.234L291.219 341.953C289.609 341.641 288.766 340.797 288.781 339.547C288.766 337.922 290.172 336.906 292.359 336.906C294.5 336.906 295.828 337.922 295.953 339.531H293.781ZM302.406 339.531C302.312 338.938 301.781 338.547 301.016 338.547C300.266 338.547 299.688 338.906 299.703 339.422C299.688 339.797 300 340.094 300.797 340.266L302.312 340.578C303.953 340.922 304.75 341.656 304.766 342.875C304.75 344.547 303.25 345.672 301 345.672C298.703 345.672 297.359 344.641 297.172 342.984H299.5C299.609 343.656 300.156 344 301 344C301.844 344 302.406 343.656 302.406 343.109C302.406 342.672 302.047 342.406 301.25 342.234L299.844 341.953C298.234 341.641 297.391 340.797 297.406 339.547C297.391 337.922 298.797 336.906 300.984 336.906C303.125 336.906 304.453 337.922 304.578 339.531H302.406Z" fill="url(#paint5_linear_463_1291)"/>
<rect x="329" y="315" width="112" height="50" rx="10" fill="white"/>
<path d="M349.414 346H346.883L350.805 334.688H353.82L357.727 346H355.211L354.367 343.391H350.273L349.414 346ZM350.867 341.562H353.773L352.352 337.234H352.273L350.867 341.562ZM362.383 346.172C359.789 346.172 358.227 344.375 358.227 341.781C358.227 339.188 359.805 337.406 362.383 337.406C364.57 337.406 366.055 338.688 366.148 340.625H363.977C363.836 339.781 363.289 339.203 362.414 339.203C361.305 339.203 360.57 340.141 360.57 341.75C360.57 343.391 361.289 344.328 362.414 344.328C363.227 344.328 363.836 343.828 363.977 342.922H366.148C366.039 344.844 364.633 346.172 362.383 346.172ZM372.055 337.516V339.25H370.461V343.391C370.461 344.062 370.789 344.234 371.258 344.25C371.492 344.25 371.898 344.234 372.18 344.203V346.031C371.93 346.078 371.523 346.109 370.945 346.109C369.273 346.109 368.133 345.359 368.148 343.719V339.25H366.977V337.516H368.148V335.484H370.461V337.516H372.055ZM373.508 346V337.516H375.82V346H373.508ZM374.664 336.406C373.961 336.406 373.398 335.875 373.398 335.234C373.398 334.578 373.961 334.047 374.664 334.047C375.352 334.047 375.914 334.578 375.914 335.234C375.914 335.875 375.352 336.406 374.664 336.406ZM385.492 337.516L382.508 346H379.914L376.945 337.516H379.383L381.164 343.609H381.258L383.039 337.516H385.492ZM385.977 343.625C385.977 341.734 387.508 341.109 389.133 341.016C389.742 340.977 390.883 340.922 391.242 340.906V340.219C391.227 339.516 390.742 339.094 389.883 339.094C389.102 339.094 388.602 339.453 388.477 340.031H386.273C386.414 338.562 387.695 337.406 389.945 337.406C391.789 337.406 393.539 338.234 393.539 340.281V346H391.352V344.828H391.289C390.867 345.609 390.07 346.156 388.805 346.156C387.18 346.156 385.977 345.312 385.977 343.625ZM388.195 343.562C388.195 344.219 388.727 344.562 389.461 344.562C390.508 344.562 391.258 343.859 391.242 342.969V342.344C390.891 342.359 389.906 342.414 389.508 342.453C388.711 342.531 388.195 342.906 388.195 343.562ZM399.773 337.516V339.25H398.18V343.391C398.18 344.062 398.508 344.234 398.977 344.25C399.211 344.25 399.617 344.234 399.898 344.203V346.031C399.648 346.078 399.242 346.109 398.664 346.109C396.992 346.109 395.852 345.359 395.867 343.719V339.25H394.695V337.516H395.867V335.484H398.18V337.516H399.773ZM401.227 346V337.516H403.539V346H401.227ZM402.383 336.406C401.68 336.406 401.117 335.875 401.117 335.234C401.117 334.578 401.68 334.047 402.383 334.047C403.07 334.047 403.633 334.578 403.633 335.234C403.633 335.875 403.07 336.406 402.383 336.406ZM409.148 346.172C406.586 346.172 404.992 344.406 404.992 341.781C404.992 339.156 406.586 337.406 409.148 337.406C411.711 337.406 413.32 339.156 413.32 341.781C413.32 344.406 411.711 346.172 409.148 346.172ZM409.164 344.375C410.352 344.375 410.961 343.266 410.961 341.781C410.961 340.281 410.352 339.172 409.164 339.172C407.961 339.172 407.336 340.281 407.336 341.781C407.336 343.266 407.961 344.375 409.164 344.375ZM417.086 341.094V346H414.773V337.516H416.977V339H417.07C417.461 338.016 418.367 337.406 419.617 337.406C421.383 337.406 422.555 338.609 422.539 340.594V346H420.242V341C420.242 339.953 419.664 339.328 418.711 339.328C417.742 339.328 417.086 339.969 417.086 341.094Z" fill="url(#paint6_linear_463_1291)"/>
</g>
<defs>
<filter id="filter0_d_463_1291" x="0" y="0" width="547" height="593" filterUnits="userSpaceOnUse" color-interpolation-filters="sRGB">
<feFlood flood-opacity="0" result="BackgroundImageFix"/>
<feColorMatrix in="SourceAlpha" type="matrix" values="0 0 0 0 0 0 0 0 0 0 0 0 0 0 0 0 0 0 127 0" result="hardAlpha"/>
<feOffset dy="10"/>
<feGaussianBlur stdDeviation="35"/>
<feComposite in2="hardAlpha" operator="out"/>
<feColorMatrix type="matrix" values="0 0 0 0 0.192157 0 0 0 0 0.509804 0 0 0 0 0.964706 0 0 0 0.3 0"/>
<feBlend mode="normal" in2="BackgroundImageFix" result="effect1_dropShadow_463_1291"/>
<feBlend mode="normal" in="SourceGraphic" in2="effect1_dropShadow_463_1291" result="shape"/>
</filter>
<linearGradient id="paint0_linear_463_1291" x1="88.5" y1="87.609" x2="413.475" y2="552.631" gradientUnits="userSpaceOnUse">
<stop stop-color="#3182F6"/>
<stop offset="1" stop-color="#004DBC"/>
</linearGradient>
<linearGradient id="paint1_linear_463_1291" x1="99.7288" y1="196" x2="170.593" y2="196" gradientUnits="userSpaceOnUse">
<stop stop-color="#3182F6"/>
<stop offset="1" stop-color="#A009FF"/>
</linearGradient>
<linearGradient id="paint2_linear_463_1291" x1="101" y1="305" x2="169.125" y2="305" gradientUnits="userSpaceOnUse">
<stop stop-color="#3182F6"/>
<stop offset="1" stop-color="#A009FF"/>
</linearGradient>
<linearGradient id="paint3_linear_463_1291" x1="106" y1="144.5" x2="441" y2="144.5" gradientUnits="userSpaceOnUse">
<stop stop-color="#3182F6"/>
<stop offset="1" stop-color="#A009FF"/>
</linearGradient>
<linearGradient id="paint4_linear_463_1291" x1="111.675" y1="339.5" x2="226.429" y2="339.5" gradientUnits="userSpaceOnUse">
<stop stop-color="#3182F6"/>
<stop offset="1" stop-color="#A009FF"/>
</linearGradient>
<linearGradient id="paint5_linear_463_1291" x1="240.513" y1="339" x2="318.643" y2="339" gradientUnits="userSpaceOnUse">
<stop stop-color="#3182F6"/>
<stop offset="1" stop-color="#A009FF"/>
</linearGradient>
<linearGradient id="paint6_linear_463_1291" x1="340.5" y1="339.5" x2="434.5" y2="339.5" gradientUnits="userSpaceOnUse">
<stop stop-color="#3182F6"/>
<stop offset="1" stop-color="#A009FF"/>
</linearGradient>
</defs>
</svg>
