<svg width="874" height="164" viewBox="0 0 874 164" fill="none" xmlns="http://www.w3.org/2000/svg">
<rect width="874" height="164" rx="82" fill="white"/>
<path d="M100.145 68.7344C100.145 73.9297 104.754 79.5156 112.801 80.8828L110.613 85.0234C104.422 83.793 99.8125 80.3164 97.5273 75.7266C95.1641 80.2773 90.5547 83.7734 84.4023 85.0234L82.2539 80.8828C90.1445 79.4766 94.793 73.8906 94.832 68.7344V66.1562H100.145V68.7344ZM113.973 91.1172V95.2188H81.4336V91.1172H113.973ZM134.715 68.7344C134.715 73.9297 139.324 79.5156 147.371 80.8828L145.184 85.0234C138.992 83.793 134.383 80.3164 132.098 75.7266C129.734 80.2773 125.125 83.7734 118.973 85.0234L116.824 80.8828C124.715 79.4766 129.363 73.8906 129.402 68.7344V66.1562H134.715V68.7344ZM148.543 91.1172V95.2188H116.004V91.1172H148.543ZM183.113 91.5469V95.6484H150.574V91.5469H164.285V86.1953H154.324V74.2422H174.441V70.3359H154.285V66.3516H179.363V78.1484H159.324V82.1328H180.184V86.1953H169.246V91.5469H183.113ZM222.41 64.0469V77.9531H227.645V82.0547H222.41V99.5938H217.488V64.0469H222.41ZM215.066 69.3594V73.3438H194.168V69.3594H202.215V64.5938H207.215V69.3594H215.066ZM204.715 75.3359C209.91 75.3359 213.777 78.8516 213.777 83.8125C213.777 88.7734 209.91 92.2891 204.715 92.2891C199.48 92.2891 195.613 88.7734 195.613 83.8125C195.613 78.8516 199.48 75.3359 204.715 75.3359ZM204.715 79.3594C202.215 79.3984 200.379 81.0781 200.379 83.8125C200.379 86.5859 202.215 88.2266 204.715 88.1875C207.215 88.2266 209.012 86.5859 209.012 83.8125C209.012 81.0781 207.215 79.3984 204.715 79.3594ZM258.23 67.1328V70.4922C258.23 74.9453 258.23 79.9453 256.785 87.4844L251.785 86.9766C253.133 80.2578 253.191 75.2578 253.23 71.0781H232.293V67.1328H258.23ZM261.355 91.1953V95.2578H228.934V91.1953H240.535V78.9688H245.496V91.1953H261.355ZM302.488 64.0859V83.7734H297.488V64.0859H302.488ZM286.355 68.7344C286.316 72.9531 288.895 77.1328 294.715 78.7344L292.332 82.6797C288.23 81.4688 285.398 79.0078 283.777 75.8438C282.156 79.2812 279.246 81.9961 274.988 83.2656L272.605 79.3594C278.543 77.5625 281.16 73.1484 281.16 68.7344V65.2969H286.355V68.7344ZM302.684 85.375V89.3203H298.426V95.2188H302.996V99.2031H277.957V95.2188H282.566V89.3203H278.27V85.375H302.684ZM287.488 95.2188H293.504V89.3203H287.488V95.2188ZM317.098 66.5469C321.902 66.5469 325.477 70.5117 326.199 76.8984H332.371V64.0469H337.293V99.6719H332.371V80.8828H326.238C325.711 87.7188 322.059 91.8984 317.098 91.8984C311.707 91.8984 307.84 87.0156 307.879 79.2031C307.84 71.4688 311.707 66.5469 317.098 66.5469ZM317.098 71.0391C314.441 71.0391 312.605 73.9297 312.645 79.2031C312.605 84.5156 314.441 87.3672 317.098 87.3672C319.793 87.3672 321.551 84.5156 321.551 79.2031C321.551 73.9297 319.793 71.0391 317.098 71.0391ZM369.91 64.0469V77.9531H375.145V82.0547H369.91V99.5938H364.988V64.0469H369.91ZM362.566 69.3594V73.3438H341.668V69.3594H349.715V64.5938H354.715V69.3594H362.566ZM352.215 75.3359C357.41 75.3359 361.277 78.8516 361.277 83.8125C361.277 88.7734 357.41 92.2891 352.215 92.2891C346.98 92.2891 343.113 88.7734 343.113 83.8125C343.113 78.8516 346.98 75.3359 352.215 75.3359ZM352.215 79.3594C349.715 79.3984 347.879 81.0781 347.879 83.8125C347.879 86.5859 349.715 88.2266 352.215 88.1875C354.715 88.2266 356.512 86.5859 356.512 83.8125C356.512 81.0781 354.715 79.3984 352.215 79.3594ZM405.301 73.7344V77.6406H380.457V65.2969H385.418V73.7344H405.301ZM408.934 81.4688V85.375H376.395V81.4688H408.934ZM405.535 94.8281V98.8125H380.145V88.2656H385.145V94.8281H405.535ZM430.145 65.9609C432.977 65.9609 435.457 66.9961 437.176 68.7344H445.223V64.0469H450.184V84.8672H445.223V80.6094H437.137C435.418 82.3281 432.957 83.3633 430.145 83.3438C424.754 83.3828 420.652 79.6719 420.691 74.6719C420.652 69.5938 424.754 65.9609 430.145 65.9609ZM430.145 70.2188C427.371 70.2188 425.379 71.8594 425.418 74.6719C425.379 77.4062 427.371 79.1641 430.145 79.125C432.84 79.1641 434.793 77.4062 434.793 74.6719C434.793 71.8594 432.84 70.2188 430.145 70.2188ZM438.035 85.6094C445.574 85.6094 450.262 88.1875 450.301 92.6016C450.262 97.0156 445.574 99.5938 438.035 99.5938C430.535 99.5938 425.809 97.0156 425.809 92.6016C425.809 88.1875 430.535 85.6094 438.035 85.6094ZM438.035 89.3984C433.309 89.3984 430.691 90.4531 430.691 92.6016C430.691 94.6719 433.309 95.7266 438.035 95.7266C442.84 95.7266 445.418 94.6719 445.418 92.6016C445.418 90.4531 442.84 89.3984 438.035 89.3984ZM439.324 72.6797C439.441 73.3047 439.52 73.9883 439.52 74.6719C439.52 75.3555 439.441 76 439.324 76.625H445.223V72.6797H439.324ZM464.598 66.5469C469.402 66.5469 472.977 70.5117 473.699 76.8984H479.871V64.0469H484.793V99.6719H479.871V80.8828H473.738C473.211 87.7188 469.559 91.8984 464.598 91.8984C459.207 91.8984 455.34 87.0156 455.379 79.2031C455.34 71.4688 459.207 66.5469 464.598 66.5469ZM464.598 71.0391C461.941 71.0391 460.105 73.9297 460.145 79.2031C460.105 84.5156 461.941 87.3672 464.598 87.3672C467.293 87.3672 469.051 84.5156 469.051 79.2031C469.051 73.9297 467.293 71.0391 464.598 71.0391ZM519.676 67.2109V71.1562H498.582V67.2109H506.668V63.8516H511.629V67.2109H519.676ZM509.129 72.2891C514.285 72.2891 517.879 74.9453 517.879 78.8516C517.879 82.7578 514.285 85.4141 509.129 85.4141C503.973 85.4141 500.301 82.7578 500.301 78.8516C500.301 74.9453 503.973 72.2891 509.129 72.2891ZM509.129 76.0391C506.746 76.0391 505.145 77.0156 505.184 78.8516C505.145 80.6484 506.746 81.5859 509.129 81.5859C511.512 81.5859 513.152 80.6484 513.152 78.8516C513.152 77.0156 511.512 76.0391 509.129 76.0391ZM526.785 64.0469V73.2656H531.59V77.3281H526.785V86.3516H521.785V64.0469H526.785ZM526.785 87.8359V99.5938H521.785V91.8203H502.84V87.8359H526.785ZM541.863 85.375V88.3828H556.512V85.375H561.473V99.2031H536.941V85.375H541.863ZM541.863 95.2969H556.512V92.1719H541.863V95.2969ZM565.574 79.5547V83.5781H533.152V79.5547H565.574ZM551.941 65.6094C551.941 69.1641 556.043 73.1875 563.973 74.0859L562.215 77.9922C556.082 77.2109 551.648 74.6719 549.363 71.2344C547.078 74.6719 542.625 77.2109 536.551 77.9922L534.754 74.0859C542.684 73.1484 546.785 69.2422 546.824 65.6094V64.3984H551.941V65.6094Z" fill="url(#paint0_linear_568_850)"/>
<path d="M583.895 64.9062C591.785 64.9062 596.395 67.0156 596.395 70.9219C596.395 74.8281 591.785 76.9766 583.895 76.9766C576.004 76.9766 571.395 74.8281 571.395 70.9219C571.395 67.0156 576.004 64.9062 583.895 64.9062ZM583.895 67.6406C578.309 67.6406 575.223 68.8516 575.262 70.9219C575.223 73.0703 578.309 74.2031 583.895 74.2031C589.48 74.2031 592.566 73.0703 592.566 70.9219C592.566 68.8516 589.48 67.6406 583.895 67.6406ZM599.871 79.125V82.0938H567.957V79.125H599.871ZM595.848 84.7891V92.9922H575.457V96.1172H596.824V98.9688H571.824V90.2969H592.176V87.5625H571.785V84.7891H595.848ZM624.559 71.5469C624.559 75.5312 627.723 79.2812 633.074 80.7656L631.395 83.6172C627.312 82.4844 624.324 80.0234 622.762 76.8594C621.219 80.3164 618.152 83.0117 614.012 84.2812L612.215 81.3516C617.566 79.8281 620.887 75.9219 620.887 71.5469V71.1562H613.27V68.1875H620.887V64.1641H624.598V68.1875H632.176V71.1562H624.559V71.5469ZM639.793 64.3203V72.7188H644.871V75.8047H639.793V84.5156H636.082V64.3203H639.793ZM640.34 86.2734V89.2422H630.77C631.434 92.5039 635.926 95.4922 641.785 96.3516L640.418 99.2031C635.105 98.3828 630.73 95.9414 628.699 92.6016C626.688 95.9219 622.352 98.3242 617.059 99.1641L615.691 96.3125C621.57 95.4922 626.004 92.6016 626.707 89.2422H617.098V86.2734H640.34ZM675.184 67.6797V71.1172C675.184 75.4531 675.184 80.2969 673.855 87.4453L670.105 87.0547C671.473 80.2969 671.473 75.3359 671.473 71.1172V70.6875H650.223V67.6797H675.184ZM678.777 91.5078V94.5938H646.863V91.5078H659.012V79.1641H662.684V91.5078H678.777ZM703.348 87.4453C703.348 90.4531 704.832 93.6367 707.996 95.5312C711.219 93.4805 712.801 90.1211 712.801 87.4453V85.7656H716.434V87.4453C716.434 91.0781 718.816 94.5938 723.387 96.0781L721.551 98.8125C718.094 97.6211 715.75 95.2969 714.52 92.4062C713.406 95.2383 711.316 97.7969 708.113 99.125C704.754 97.8555 702.625 95.375 701.551 92.5234C700.281 95.2773 697.977 97.6016 694.676 98.8125L692.801 96.0781C697.293 94.4766 699.715 90.8438 699.754 87.4453V85.7656H703.348V87.4453ZM720.223 64.3594V84.2812H716.512V64.3594H720.223ZM701.238 66.2734C706.59 66.2734 710.535 69.6719 710.535 74.5547C710.535 79.3984 706.59 82.7578 701.238 82.7578C695.887 82.7578 691.902 79.3984 691.902 74.5547C691.902 69.6719 695.887 66.2734 701.238 66.2734ZM701.238 69.4375C697.918 69.3984 695.535 71.4688 695.535 74.5547C695.535 77.6016 697.918 79.6719 701.238 79.6719C704.52 79.6719 706.902 77.6016 706.902 74.5547C706.902 71.4688 704.52 69.3984 701.238 69.4375ZM735.262 66.9375C740.008 66.9375 743.484 70.9609 744.051 77.4453H751.277V64.3203H754.949V99.3984H751.277V80.4531H744.09C743.68 87.2695 740.125 91.5078 735.262 91.5078C730.027 91.5078 726.355 86.7422 726.395 79.2031C726.355 71.7031 730.027 66.9375 735.262 66.9375ZM735.262 70.2578C732.098 70.2578 729.91 73.6953 729.91 79.2031C729.91 84.75 732.098 88.1875 735.262 88.1875C738.426 88.1875 740.613 84.75 740.613 79.2031C740.613 73.6953 738.426 70.2578 735.262 70.2578ZM792.371 91.8594V94.9453H760.34V91.8594H767.996V82.7188C765.125 81.1367 763.387 78.6172 763.387 75.4922C763.387 69.9844 768.777 66.3516 776.277 66.3516C783.816 66.3516 789.207 69.9844 789.207 75.4922C789.207 78.5781 787.527 81.0586 784.715 82.6406V91.8594H792.371ZM776.277 69.3203C770.77 69.3203 766.98 71.7031 766.98 75.4922C766.98 79.2422 770.77 81.7031 776.277 81.7031C781.746 81.7031 785.613 79.2422 785.613 75.4922C785.613 71.7031 781.746 69.3203 776.277 69.3203ZM771.668 91.8594H780.965V84.0469C779.539 84.418 777.957 84.5938 776.277 84.5938C774.637 84.5938 773.074 84.418 771.668 84.0859V91.8594Z" fill="black"/>
<defs>
<linearGradient id="paint0_linear_568_850" x1="79.3548" y1="82" x2="1073.09" y2="81.9997" gradientUnits="userSpaceOnUse">
<stop stop-color="#3182F6"/>
<stop offset="1" stop-color="#A009FF"/>
</linearGradient>
</defs>
</svg>
