<svg width="908" height="198" viewBox="0 0 908 198" fill="none" xmlns="http://www.w3.org/2000/svg">
<g filter="url(#filter0_d_462_1136)">
<rect x="50" y="40" width="808" height="98" rx="49" fill="white" shape-rendering="crispEdges"/>
<path d="M116.244 86.7676L117.92 80.9238H119.51L118.328 86.7676H116.244ZM120.326 86.7676L122.002 80.9238H123.592L122.41 86.7676H120.326ZM141.682 91.4941V98.2832H139.984V92.8477H128.834V91.4941H141.682ZM141.682 79.1406V90.3984H139.984V85.5H136.01C135.645 87.8203 133.668 89.3887 131.111 89.3672C128.254 89.3887 126.148 87.498 126.148 84.791C126.148 82.127 128.254 80.2363 131.111 80.2363C133.668 80.2363 135.645 81.7939 136.01 84.082H139.984V79.1406H141.682ZM131.111 81.6758C129.199 81.6758 127.76 82.9863 127.76 84.791C127.76 86.6602 129.199 87.9492 131.111 87.9492C132.98 87.9492 134.42 86.6602 134.42 84.791C134.42 82.9863 132.98 81.6758 131.111 81.6758ZM151.693 85.0059C151.693 88.25 154.057 91.5371 156.871 92.7617L155.926 94.0938C153.691 93.0732 151.758 90.8711 150.877 88.2285C149.975 91.0322 148.052 93.4707 145.871 94.5664L144.861 93.2344C147.59 91.9238 149.975 88.3145 149.996 85.0059V82.5137H145.484V81.1172H156.248V82.5137H151.693V85.0059ZM160.609 79.1406V98.2402H158.912V79.1406H160.609ZM181.363 94.459V95.877H163.875V94.459H171.738V90.8496H166.066V84.9629H177.496V81.9551H166.023V80.5586H179.15V86.3379H167.742V89.4531H179.602V90.8496H173.393V94.459H181.363ZM195.199 84.2754C195.178 87.7559 197.562 91.2793 200.377 92.5469L199.346 93.8789C197.176 92.8154 195.296 90.5703 194.383 87.8418C193.491 90.7314 191.611 93.1377 189.377 94.2656L188.303 92.8477C191.139 91.5371 193.502 87.9062 193.523 84.2754V80.7949H195.199V84.2754ZM204.158 79.1406V98.2832H202.461V79.1406H204.158ZM217.672 81.1387C217.65 86.6602 215.652 91.752 208.756 95.125L207.811 93.7715C211.388 92.0527 213.601 89.8506 214.814 87.2617L208.176 87.9062L207.896 86.4023L215.352 85.9082C215.695 84.8447 215.899 83.7168 215.975 82.5352H208.863V81.1387H217.672ZM223.215 79.1406V98.2402H221.518V79.1406H223.215ZM241.885 84.9414V86.2949H228.801V79.8496H230.477V84.9414H241.885ZM243.904 88.8945V90.2695H226.416V88.8945H243.904ZM241.992 96.3711V97.7676H228.693V92.2246H230.369V96.3711H241.992ZM267.322 79.1406V98.2402H265.711V79.1406H267.322ZM263.305 79.6562V97.2734H261.693V88.3574H257.654C256.483 90.5811 254.646 92.5469 251.982 94.1152L250.994 92.8906C255.151 90.4307 257.235 86.9824 257.547 82.9863H251.811V81.5898H259.223C259.212 83.4697 258.911 85.2852 258.277 86.9824H261.693V79.6562H263.305ZM280.621 80.623C283.436 80.6445 285.434 83.2227 285.455 87.2832C285.434 91.3438 283.436 93.9219 280.621 93.9219C277.785 93.9219 275.809 91.3438 275.809 87.2832C275.809 83.2227 277.785 80.6445 280.621 80.623ZM280.621 82.127C278.73 82.1484 277.398 84.168 277.398 87.2832C277.398 90.3984 278.73 92.418 280.621 92.418C282.533 92.418 283.822 90.3984 283.822 87.2832C283.822 84.168 282.533 82.1484 280.621 82.127ZM290.289 79.1406V86.7676H293.49V88.2285H290.289V98.2402H288.613V79.1406H290.289ZM310.291 79.1621V93.041H308.615V79.1621H310.291ZM310.893 96.4141V97.832H297.766V91.6445H299.463V96.4141H310.893ZM297.422 80.5801V87.9062C300.795 87.9277 303.523 87.7451 306.488 87.0898L306.725 88.5078C303.588 89.1523 300.773 89.3672 297.271 89.3672H295.725V80.5801H297.422ZM316.672 95.0605L314.996 100.904H313.406L314.588 95.0605H316.672ZM662.957 79.4844C667.211 79.4844 669.703 80.6445 669.703 82.7715C669.703 84.9414 667.211 86.1016 662.957 86.123C658.703 86.1016 656.189 84.9414 656.189 82.7715C656.189 80.6445 658.703 79.4844 662.957 79.4844ZM662.957 80.752C659.777 80.752 657.93 81.5254 657.951 82.7715C657.93 84.1035 659.777 84.834 662.957 84.834C666.115 84.834 667.984 84.1035 667.984 82.7715C667.984 81.5254 666.115 80.752 662.957 80.752ZM671.658 87.4121V88.7871H654.256V87.4121H671.658ZM669.424 90.4414V94.7168H658.08V96.6934H670.004V98.0254H656.404V93.4707H667.77V91.7305H656.361V90.4414H669.424ZM685.301 83.1367C685.301 85.4141 687.234 87.5195 690.049 88.3574L689.254 89.6465C687.052 88.9912 685.333 87.5732 684.506 85.7363C683.668 87.7559 681.896 89.292 679.629 90.0332L678.791 88.7012C681.627 87.8418 683.646 85.6504 683.646 83.1367V82.7715H679.328V81.375H683.646V79.0547H685.344V81.375H689.619V82.7715H685.301V83.1367ZM693.723 79.1406V83.8672H696.602V85.2852H693.723V90.248H692.047V79.1406H693.723ZM694.066 91.2793V92.6543H688.652C688.932 94.6523 691.735 96.3711 694.797 96.8652L694.174 98.1758C691.37 97.7139 688.835 96.3281 687.75 94.416C686.654 96.3174 684.141 97.6709 681.369 98.1543L680.725 96.8652C683.808 96.3711 686.579 94.6846 686.869 92.6543H681.477V91.2793H694.066ZM713.123 81.0742V82.9863C713.102 85.3281 713.102 87.9492 712.414 91.7949L710.695 91.6016C711.426 87.9492 711.426 85.2637 711.426 82.9863V82.4707H699.652V81.0742H713.123ZM715.207 94.1367V95.5332H697.805V94.1367H704.637V87.3047H706.291V94.1367H715.207ZM728.807 91.9668C728.807 93.6533 729.709 95.4473 731.535 96.4785C733.34 95.3506 734.307 93.4492 734.307 91.9668V90.9141H735.961V91.9668C735.961 93.9219 737.4 95.8984 739.85 96.7363L739.012 97.9824C737.1 97.3057 735.757 95.9736 735.102 94.373C734.511 95.9199 733.34 97.3809 731.578 98.1328C729.72 97.4238 728.538 96.0166 727.969 94.416C727.292 95.9629 725.971 97.2949 724.145 97.9824L723.285 96.7363C725.691 95.834 727.152 93.793 727.174 91.9668V90.9141H728.807V91.9668ZM738.109 79.1621V90.0762H736.434V79.1621H738.109ZM727.797 80.2793C730.697 80.2793 732.803 82.084 732.803 84.748C732.803 87.3691 730.697 89.1738 727.797 89.1738C724.896 89.1738 722.791 87.3691 722.791 84.748C722.791 82.084 724.896 80.2793 727.797 80.2793ZM727.797 81.7188C725.842 81.6973 724.424 82.9648 724.445 84.748C724.424 86.5098 725.842 87.7559 727.797 87.7773C729.73 87.7559 731.148 86.5098 731.148 84.748C731.148 82.9648 729.73 81.6973 727.797 81.7188ZM746.488 80.623C749.088 80.6445 750.957 82.8682 751.236 86.4453H755.512V79.1406H757.188V98.2832H755.512V87.8418H751.258C751.054 91.5801 749.152 93.9219 746.488 93.9219C743.674 93.9219 741.697 91.3438 741.697 87.2832C741.697 83.2227 743.674 80.6445 746.488 80.623ZM746.488 82.127C744.598 82.1484 743.309 84.168 743.309 87.2832C743.309 90.3984 744.598 92.418 746.488 92.418C748.357 92.418 749.668 90.3984 749.668 87.2832C749.668 84.168 748.357 82.1484 746.488 82.127ZM777.855 94.373V95.791H760.367V94.373H764.707V89.2168C763.074 88.3682 762.086 86.9932 762.086 85.2637C762.086 82.2988 764.986 80.3652 769.068 80.3438C773.15 80.3652 776.051 82.2988 776.051 85.2637C776.051 86.9609 775.095 88.3252 773.516 89.1738V94.373H777.855ZM769.068 81.7402C765.932 81.7188 763.719 83.1367 763.719 85.2637C763.719 87.3906 765.932 88.8301 769.068 88.8301C772.184 88.8301 774.418 87.3906 774.418 85.2637C774.418 83.1367 772.184 81.7188 769.068 81.7402ZM766.361 94.373H771.818V89.8184C770.991 90.0439 770.067 90.1621 769.068 90.1621C768.091 90.1621 767.178 90.0547 766.361 89.8398V94.373ZM781.4 96.6289C780.648 96.6289 780.004 96.0059 780.025 95.2324C780.004 94.4805 780.648 93.8574 781.4 93.8574C782.152 93.8574 782.775 94.4805 782.775 95.2324C782.775 96.0059 782.152 96.6289 781.4 96.6289ZM791.734 80.9668L790.059 86.8105H788.469L789.65 80.9668H791.734ZM787.652 80.9668L785.977 86.8105H784.387L785.568 80.9668H787.652Z" fill="black"/>
<path d="M329.756 80.3008C332.742 80.3008 334.891 83.0078 334.912 87.2617C334.891 91.5586 332.742 94.2441 329.756 94.2441C326.77 94.2441 324.578 91.5586 324.6 87.2617C324.578 83.0078 326.77 80.3008 329.756 80.3008ZM329.756 82.7715C328.252 82.7715 327.242 84.3613 327.242 87.2617C327.242 90.1836 328.252 91.752 329.756 91.752C331.281 91.752 332.27 90.1836 332.291 87.2617C332.27 84.3613 331.281 82.7715 329.756 82.7715ZM339.918 78.9258V86.2949H342.797V88.5723H339.918V98.4766H337.168V78.9258H339.918ZM359.877 78.9258V98.5195H357.105V78.9258H359.877ZM349.264 80.3008C352.207 80.3008 354.398 83.0078 354.398 87.2617C354.398 91.5586 352.207 94.2441 349.264 94.2441C346.256 94.2441 344.064 91.5586 344.086 87.2617C344.064 83.0078 346.256 80.3008 349.264 80.3008ZM349.264 82.7715C347.738 82.7715 346.729 84.3613 346.729 87.2617C346.729 90.1836 347.738 91.752 349.264 91.752C350.746 91.752 351.756 90.1836 351.756 87.2617C351.756 84.3613 350.746 82.7715 349.264 82.7715ZM377.945 78.9258V86.4238H380.717V88.6797H377.945V98.4336H375.195V78.9258H377.945ZM372.725 80.9238C372.703 86.7676 370.426 91.8379 363.852 95.0605L362.305 92.9551C366.935 90.6348 369.416 87.5195 369.932 83.1582H363.422V80.9238H372.725ZM396.895 81.5039C396.895 84.3613 399.43 87.4336 403.855 88.1855L402.652 90.4629C399.247 89.7861 396.712 87.874 395.455 85.3496C394.155 87.8525 391.62 89.7754 388.236 90.4629L387.055 88.1855C391.395 87.4121 393.951 84.3398 393.973 81.5039V80.0859H396.895V81.5039ZM404.5 93.8145V96.0703H386.604V93.8145H404.5ZM415.908 81.5039C415.908 84.3613 418.443 87.4336 422.869 88.1855L421.666 90.4629C418.261 89.7861 415.726 87.874 414.469 85.3496C413.169 87.8525 410.634 89.7754 407.25 90.4629L406.068 88.1855C410.408 87.4121 412.965 84.3398 412.986 81.5039V80.0859H415.908V81.5039ZM423.514 93.8145V96.0703H405.617V93.8145H423.514ZM442.527 94.0508V96.3066H424.631V94.0508H432.172V91.1074H426.693V84.5332H437.758V82.3848H426.672V80.1934H440.465V86.6816H429.443V88.873H440.916V91.1074H434.9V94.0508H442.527ZM464.141 78.9258V86.5742H467.02V88.8301H464.141V98.4766H461.434V78.9258H464.141ZM460.102 81.8477V84.0391H448.607V81.8477H453.033V79.2266H455.783V81.8477H460.102ZM454.408 85.1348C457.266 85.1348 459.393 87.0684 459.393 89.7969C459.393 92.5254 457.266 94.459 454.408 94.459C451.529 94.459 449.402 92.5254 449.402 89.7969C449.402 87.0684 451.529 85.1348 454.408 85.1348ZM454.408 87.3477C453.033 87.3691 452.023 88.293 452.023 89.7969C452.023 91.3223 453.033 92.2246 454.408 92.2031C455.783 92.2246 456.771 91.3223 456.771 89.7969C456.771 88.293 455.783 87.3691 454.408 87.3477ZM483.842 80.623V82.4707C483.842 84.9199 483.842 87.6699 483.047 91.8164L480.297 91.5371C481.038 87.8418 481.07 85.0918 481.092 82.793H469.576V80.623H483.842ZM485.561 93.8574V96.0918H467.729V93.8574H474.109V87.1328H476.838V93.8574H485.561ZM508.184 78.9473V89.7754H505.434V78.9473H508.184ZM499.311 81.5039C499.289 83.8242 500.707 86.123 503.908 87.0039L502.598 89.1738C500.342 88.5078 498.784 87.1543 497.893 85.4141C497.001 87.3047 495.4 88.7979 493.059 89.4961L491.748 87.3477C495.014 86.3594 496.453 83.9316 496.453 81.5039V79.6133H499.311V81.5039ZM508.291 90.6562V92.8262H505.949V96.0703H508.463V98.2617H494.691V96.0703H497.227V92.8262H494.863V90.6562H508.291ZM499.934 96.0703H503.242V92.8262H499.934V96.0703ZM516.219 80.3008C518.861 80.3008 520.827 82.4814 521.225 85.9941H524.619V78.9258H527.326V98.5195H524.619V88.1855H521.246C520.956 91.9453 518.947 94.2441 516.219 94.2441C513.254 94.2441 511.127 91.5586 511.148 87.2617C511.127 83.0078 513.254 80.3008 516.219 80.3008ZM516.219 82.7715C514.758 82.7715 513.748 84.3613 513.77 87.2617C513.748 90.1836 514.758 91.752 516.219 91.752C517.701 91.752 518.668 90.1836 518.668 87.2617C518.668 84.3613 517.701 82.7715 516.219 82.7715ZM545.266 78.9258V86.5742H548.145V88.8301H545.266V98.4766H542.559V78.9258H545.266ZM541.227 81.8477V84.0391H529.732V81.8477H534.158V79.2266H536.908V81.8477H541.227ZM535.533 85.1348C538.391 85.1348 540.518 87.0684 540.518 89.7969C540.518 92.5254 538.391 94.459 535.533 94.459C532.654 94.459 530.527 92.5254 530.527 89.7969C530.527 87.0684 532.654 85.1348 535.533 85.1348ZM535.533 87.3477C534.158 87.3691 533.148 88.293 533.148 89.7969C533.148 91.3223 534.158 92.2246 535.533 92.2031C536.908 92.2246 537.896 91.3223 537.896 89.7969C537.896 88.293 536.908 87.3691 535.533 87.3477ZM564.73 84.2539V86.4023H551.066V79.6133H553.795V84.2539H564.73ZM566.729 88.5078V90.6562H548.832V88.5078H566.729ZM564.859 95.8555V98.0469H550.895V92.2461H553.645V95.8555H564.859ZM578.395 79.9785C579.952 79.9785 581.316 80.5479 582.262 81.5039H586.688V78.9258H589.416V90.377H586.688V88.0352H582.24C581.295 88.9805 579.941 89.5498 578.395 89.5391C575.43 89.5605 573.174 87.5195 573.195 84.7695C573.174 81.9766 575.43 79.9785 578.395 79.9785ZM578.395 82.3203C576.869 82.3203 575.773 83.2227 575.795 84.7695C575.773 86.2734 576.869 87.2402 578.395 87.2188C579.877 87.2402 580.951 86.2734 580.951 84.7695C580.951 83.2227 579.877 82.3203 578.395 82.3203ZM582.734 90.7852C586.881 90.7852 589.459 92.2031 589.48 94.6309C589.459 97.0586 586.881 98.4766 582.734 98.4766C578.609 98.4766 576.01 97.0586 576.01 94.6309C576.01 92.2031 578.609 90.7852 582.734 90.7852ZM582.734 92.8691C580.135 92.8691 578.695 93.4492 578.695 94.6309C578.695 95.7695 580.135 96.3496 582.734 96.3496C585.377 96.3496 586.795 95.7695 586.795 94.6309C586.795 93.4492 585.377 92.8691 582.734 92.8691ZM583.443 83.6738C583.508 84.0176 583.551 84.3936 583.551 84.7695C583.551 85.1455 583.508 85.5 583.443 85.8438H586.688V83.6738H583.443ZM597.344 80.3008C599.986 80.3008 601.952 82.4814 602.35 85.9941H605.744V78.9258H608.451V98.5195H605.744V88.1855H602.371C602.081 91.9453 600.072 94.2441 597.344 94.2441C594.379 94.2441 592.252 91.5586 592.273 87.2617C592.252 83.0078 594.379 80.3008 597.344 80.3008ZM597.344 82.7715C595.883 82.7715 594.873 84.3613 594.895 87.2617C594.873 90.1836 595.883 91.752 597.344 91.752C598.826 91.752 599.793 90.1836 599.793 87.2617C599.793 84.3613 598.826 82.7715 597.344 82.7715ZM626.412 80.4512C626.412 82.75 628.754 85.3066 633.244 85.8652L632.17 88.0781C628.754 87.584 626.251 86.0049 624.973 83.8887C623.684 86.0049 621.202 87.584 617.818 88.0781L616.723 85.8652C621.17 85.3066 623.533 82.75 623.533 80.4512V79.5059H626.412V80.4512ZM633.867 89.5605V91.7949H626.262V98.4766H623.555V91.7949H616.035V89.5605H633.867ZM640.506 79.7637C643.009 79.7422 644.996 81.1709 645.533 83.2656H648.799V78.9258H651.527V89.4316H648.799V85.457H645.555C645.039 87.6055 643.03 89.0664 640.506 89.0664C637.498 89.0664 635.285 87.1113 635.307 84.3828C635.285 81.6973 637.498 79.7422 640.506 79.7637ZM640.506 82.041C638.98 82.0195 637.885 82.9219 637.906 84.3828C637.885 85.8438 638.98 86.7676 640.506 86.7676C641.988 86.7676 643.062 85.8438 643.062 84.3828C643.062 82.9219 641.988 82.0195 640.506 82.041ZM641.193 90.291V92.1816H648.799V90.291H651.527V98.2617H638.486V90.291H641.193ZM641.193 96.0488H648.799V94.2871H641.193V96.0488Z" fill="url(#paint0_linear_462_1136)"/>
</g>
<defs>
<filter id="filter0_d_462_1136" x="0" y="0" width="908" height="198" filterUnits="userSpaceOnUse" color-interpolation-filters="sRGB">
<feFlood flood-opacity="0" result="BackgroundImageFix"/>
<feColorMatrix in="SourceAlpha" type="matrix" values="0 0 0 0 0 0 0 0 0 0 0 0 0 0 0 0 0 0 127 0" result="hardAlpha"/>
<feOffset dy="10"/>
<feGaussianBlur stdDeviation="25"/>
<feComposite in2="hardAlpha" operator="out"/>
<feColorMatrix type="matrix" values="0 0 0 0 0.192157 0 0 0 0 0.509804 0 0 0 0 0.964706 0 0 0 0.25 0"/>
<feBlend mode="normal" in2="BackgroundImageFix" result="effect1_dropShadow_462_1136"/>
<feBlend mode="normal" in="SourceGraphic" in2="effect1_dropShadow_462_1136" result="shape"/>
</filter>
<linearGradient id="paint0_linear_462_1136" x1="300.367" y1="89" x2="703.842" y2="89" gradientUnits="userSpaceOnUse">
<stop stop-color="#3182F6"/>
<stop offset="1" stop-color="#A009FF"/>
</linearGradient>
</defs>
</svg>
