<svg width="874" height="164" viewBox="0 0 874 164" fill="none" xmlns="http://www.w3.org/2000/svg">
<rect width="874" height="164" rx="82" fill="white"/>
<path d="M170.535 83.9297V87.9141H156.629V99.5547H151.707V87.9141H137.996V83.9297H170.535ZM166.629 65.7656V80.1016H141.824V65.7656H166.629ZM146.746 69.7109V76.1953H161.668V69.7109H146.746ZM205.027 81.9766V85.9609H172.605V81.9766H205.027ZM201.355 94.9844V98.9688H176.512V88.5391H181.512V94.9844H201.355ZM191.395 66.1953C191.395 70.2969 195.535 74.75 203.387 75.9219L201.395 79.8672C195.457 78.9102 191.062 76.0781 188.816 72.3281C186.531 76.0781 182.117 78.9297 176.199 79.8672L174.285 75.9219C182.059 74.75 186.238 70.2969 186.277 66.1953V64.9844H191.395V66.1953ZM227.605 72.1719C227.605 75.6875 229.637 79.2031 234.129 80.6875L231.902 84.4375C228.758 83.3242 226.609 81.2734 225.34 78.7344C224.09 81.5273 221.922 83.7734 218.66 84.9844L216.395 81.3125C220.848 79.6328 222.879 75.9609 222.879 72.1719V71.9766H217.371V68.0703H222.879V64.3984H227.605V68.0703H233.074V71.9766H227.605V72.1719ZM246.941 64.0859V85.8047H242.215V77.0156H239.363V85.7266H234.676V64.6328H239.363V72.9922H242.215V64.0859H246.941ZM246.941 87.3281V99.5938H241.98V91.3516H222.371V87.3281H246.941ZM267.176 64.5547C275.34 64.5547 280.066 66.7031 280.105 70.6094C280.066 74.5547 275.34 76.7031 267.176 76.7031C258.973 76.7031 254.207 74.5547 254.207 70.6094C254.207 66.7031 258.973 64.5547 267.176 64.5547ZM267.176 68.1875C261.941 68.1875 259.402 69.0469 259.441 70.6094C259.402 72.3672 261.941 73.0312 267.176 73.0312C272.449 73.0312 274.949 72.3672 274.949 70.6094C274.949 69.0469 272.449 68.1875 267.176 68.1875ZM283.387 78.3828V82.3281H250.965V78.3828H283.387ZM279.441 84.3984V93.4609H259.637V95.6094H280.379V99.3594H254.754V89.9844H274.52V88.0312H254.715V84.3984H279.441ZM304.559 66.5469C309.363 66.5469 312.938 70.5117 313.66 76.8984H319.832V64.0469H324.754V99.6719H319.832V80.8828H313.699C313.172 87.7188 309.52 91.8984 304.559 91.8984C299.168 91.8984 295.301 87.0156 295.34 79.2031C295.301 71.4688 299.168 66.5469 304.559 66.5469ZM304.559 71.0391C301.902 71.0391 300.066 73.9297 300.105 79.2031C300.066 84.5156 301.902 87.3672 304.559 87.3672C307.254 87.3672 309.012 84.5156 309.012 79.2031C309.012 73.9297 307.254 71.0391 304.559 71.0391ZM360.145 84.75V88.5391H333.855V84.75H344.52V81.9766H349.52V84.75H360.145ZM346.941 89.5938C353.465 89.5938 357.41 91.4297 357.41 94.5938C357.41 97.875 353.465 99.6328 346.941 99.6328C340.379 99.6328 336.434 97.875 336.473 94.5938C336.434 91.4297 340.379 89.5938 346.941 89.5938ZM346.941 93.0312C343.582 93.0703 341.785 93.5 341.785 94.5938C341.785 95.7656 343.582 96.2344 346.941 96.2344C350.223 96.2344 352.02 95.7656 352.02 94.5938C352.02 93.5 350.223 93.0703 346.941 93.0312ZM339.246 65.4922V69.3594H334.754V76.8203C336.336 76.7617 337.859 76.5859 339.598 76.2344L339.91 80.1406C336.902 80.7266 334.676 80.7656 331.629 80.7656H329.91V65.4922H339.246ZM350.848 65.4922V69.3594H345.809V76.8594C348.328 76.8008 349.91 76.6445 351.746 76.2344L352.098 80.1406C349.637 80.7266 347.488 80.7656 342.801 80.7656H340.887V65.4922H350.848ZM359.598 64.0469V82.9922H354.715V74.7109H349.871V70.9219H354.715V64.0469H359.598ZM394.715 64.0469V99.5938H390.027V64.0469H394.715ZM387.137 64.8281V98.0312H382.488V81.7031H376.668C374.637 85.7656 371.336 89.2812 366.277 92.2109L363.465 88.6953C370.633 84.4375 373.797 79.2617 374.48 72.2891H365.418V68.2656H379.441C379.422 71.6445 379.07 74.8281 378.23 77.7578H382.488V64.8281H387.137ZM437.41 64.0469V82.4844H432.449V64.0469H437.41ZM424.168 83.8906V93.1094H416.668V95.5312C420.73 95.4922 423.27 95.3359 426.199 94.75L426.668 98.4219C423.035 99.125 419.949 99.2031 414.207 99.2031H411.863V89.6719H419.246V87.6016H411.863V83.8906H424.168ZM437.41 83.8906V99.4766H432.527V87.875H425.496V83.8906H437.41ZM417.801 65.4922C423.191 65.4531 427.293 68.8906 427.293 73.6562C427.293 78.4219 423.191 81.8203 417.801 81.8203C412.293 81.8203 408.23 78.4219 408.23 73.6562C408.23 68.8906 412.293 65.4531 417.801 65.4922ZM417.801 69.5938C415.066 69.5547 413.035 71.0781 413.074 73.6562C413.035 76.1562 415.066 77.7969 417.801 77.7969C420.496 77.7969 422.488 76.1562 422.488 73.6562C422.488 71.0781 420.496 69.5547 417.801 69.5938ZM462.957 69.3594V73.3438H442.332V69.3594H450.145V64.5547H455.223V69.3594H462.957ZM452.684 75.3359C457.527 75.3359 461.238 78.8516 461.277 83.8125C461.238 88.7344 457.527 92.2891 452.684 92.2891C447.723 92.2891 444.09 88.7344 444.09 83.8125C444.09 78.8516 447.723 75.3359 452.684 75.3359ZM452.684 79.5156C450.262 79.5547 448.582 81.1172 448.582 83.8125C448.582 86.5078 450.262 88.0703 452.684 88.0312C455.066 88.0703 456.746 86.5078 456.785 83.8125C456.746 81.1562 455.066 79.5547 452.684 79.5156ZM472.254 64.0469V99.5938H467.332V88.5781H462.41V84.5938H467.332V79.7891H462.371V75.7656H467.332V64.0469H472.254ZM486.395 66.5469C491.824 66.5469 495.73 71.4688 495.77 79.2031C495.73 87.0156 491.824 91.8984 486.395 91.8984C480.965 91.8984 476.98 87.0156 477.02 79.2031C476.98 71.4688 480.965 66.5469 486.395 66.5469ZM486.395 71.0391C483.66 71.0391 481.824 73.9297 481.824 79.2031C481.824 84.5156 483.66 87.3672 486.395 87.3672C489.168 87.3672 490.965 84.5156 491.004 79.2031C490.965 73.9297 489.168 71.0391 486.395 71.0391ZM509.91 72.2891V76.4688H504.871V82.7969H509.91V86.8594H504.871V99.5938H499.871V64.0469H504.871V72.2891H509.91ZM548.816 63.9688V71.7031H553.621V75.6875H548.816V83.2266H543.816V63.9688H548.816ZM548.816 84.6719V93.6562H530.184V95.6875H549.832V99.3594H525.301V90.2578H543.855V88.2656H525.223V84.6719H548.816ZM541.707 66.7031V70.4922H520.613V66.7031H528.699V63.8125H533.66V66.7031H541.707ZM531.16 71.3516C536.473 71.3516 539.91 73.6172 539.91 77.1719C539.91 80.8047 536.473 82.9922 531.16 82.9922C525.848 82.9922 522.332 80.8047 522.332 77.1719C522.332 73.6172 525.848 71.3516 531.16 71.3516ZM531.16 74.8672C528.699 74.8672 527.176 75.6875 527.215 77.1719C527.176 78.6953 528.699 79.4375 531.16 79.4375C533.621 79.4375 535.184 78.6953 535.184 77.1719C535.184 75.6875 533.621 74.8672 531.16 74.8672ZM568.973 73.7344C568.973 79.4766 571.902 85.6094 577.879 88.1094L575.184 92.0156C570.984 90.2383 568.094 86.7031 566.512 82.3672C564.891 87.0742 561.941 90.9805 557.762 92.9141L554.91 88.9688C560.809 86.3516 563.855 79.75 563.855 73.7344V71.5469H556.316V67.4844H576.395V71.5469H568.973V73.7344ZM584.949 64.0469V99.5938H579.91V64.0469H584.949Z" fill="url(#paint0_linear_568_848)"/>
<path d="M617.762 66.8984V82.6406H601.395V66.8984H617.762ZM605.027 69.8281V79.6719H614.129V69.8281H605.027ZM627.527 64.3203V73.1875H632.605V76.2734H627.527V85.0625H623.816V64.3203H627.527ZM627.527 86.8203V99.3594H623.816V89.7891H604.402V86.8203H627.527ZM652.332 66.8984V82.6406H635.965V66.8984H652.332ZM639.598 69.8281V79.6719H648.699V69.8281H639.598ZM662.098 64.3203V73.1875H667.176V76.2734H662.098V85.0625H658.387V64.3203H662.098ZM662.098 86.8203V99.3594H658.387V89.7891H638.973V86.8203H662.098ZM686.473 70.1016V73.1094H669.09V70.1016H675.965V65.3359H679.637V70.1016H686.473ZM677.801 75.2188C682.254 75.2188 685.379 78.5391 685.418 83.2656C685.379 88.0312 682.254 91.3906 677.801 91.3906C673.426 91.3906 670.184 88.0312 670.223 83.2656C670.184 78.5391 673.426 75.2188 677.801 75.2188ZM677.801 78.3047C675.262 78.3047 673.504 80.375 673.504 83.2656C673.504 86.2344 675.262 88.2266 677.801 88.2266C680.301 88.2266 682.137 86.2344 682.137 83.2656C682.137 80.375 680.301 78.3047 677.801 78.3047ZM699.129 64.3203V99.3203H695.613V81.9375H691.59V97.6797H688.074V65.1016H691.59V78.8906H695.613V64.3203H699.129ZM735.77 91.8594V94.9453H703.738V91.8594H711.395V82.7188C708.523 81.1367 706.785 78.6172 706.785 75.4922C706.785 69.9844 712.176 66.3516 719.676 66.3516C727.215 66.3516 732.605 69.9844 732.605 75.4922C732.605 78.5781 730.926 81.0586 728.113 82.6406V91.8594H735.77ZM719.676 69.3203C714.168 69.3203 710.379 71.7031 710.379 75.4922C710.379 79.2422 714.168 81.7031 719.676 81.7031C725.145 81.7031 729.012 79.2422 729.012 75.4922C729.012 71.7031 725.145 69.3203 719.676 69.3203ZM715.066 91.8594H724.363V84.0469C722.938 84.418 721.355 84.5938 719.676 84.5938C718.035 84.5938 716.473 84.418 715.066 84.0859V91.8594Z" fill="black"/>
<defs>
<linearGradient id="paint0_linear_568_848" x1="135.957" y1="82" x2="972.423" y2="81.9998" gradientUnits="userSpaceOnUse">
<stop stop-color="#3182F6"/>
<stop offset="1" stop-color="#A009FF"/>
</linearGradient>
</defs>
</svg>
