<svg width="770" height="198" viewBox="0 0 770 198" fill="none" xmlns="http://www.w3.org/2000/svg">
<g filter="url(#filter0_d_462_1163)">
<rect x="50" y="40" width="670" height="98" rx="49" fill="white" shape-rendering="crispEdges"/>
<path d="M147.082 88.6797V90.0547H129.68V88.6797H137.543V86.3594H131.893V79.9141H144.934V81.3105H133.568V84.9629H145.105V86.3594H139.219V88.6797H147.082ZM144.955 91.9238V98.3906H143.279V93.2988H131.613V91.9238H144.955ZM155.418 84.2754C155.418 87.7344 157.631 91.2148 160.402 92.4824L159.393 93.8574C157.223 92.7402 155.429 90.4521 154.58 87.7344C153.731 90.5918 151.938 93.041 149.768 94.2012L148.672 92.8477C151.465 91.4727 153.699 87.7988 153.699 84.2754V80.7949H155.418V84.2754ZM164.527 79.1406V98.2832H162.852V87.0469H158.318V85.6719H162.852V79.1406H164.527ZM182.488 79.1406V86.918H185.582V88.3359H182.488V98.2402H180.812V79.1406H182.488ZM177.547 81.2031C177.547 86.6172 175.012 91.5371 168.781 94.6094L167.836 93.2773C172.777 90.8174 175.463 87.1436 175.85 82.6211H168.717V81.2031H177.547ZM209.645 88.0781V89.4746H201.76V91.5156C205.369 91.666 207.496 92.8477 207.518 94.8672C207.496 96.9941 205.047 98.1973 200.943 98.1973C196.797 98.1973 194.348 96.9941 194.348 94.8672C194.348 92.8477 196.464 91.666 200.105 91.5156V89.4746H192.242V88.0781H209.645ZM200.943 92.8047C197.871 92.8262 196.045 93.5781 196.066 94.8672C196.045 96.1348 197.871 96.8867 200.943 96.8867C203.973 96.8867 205.82 96.1348 205.82 94.8672C205.82 93.5781 203.973 92.8262 200.943 92.8047ZM208.098 80.043V81.418H202.039C202.146 83.5664 205.305 85.2314 208.678 85.5859L208.055 86.918C204.929 86.542 201.996 85.1455 200.943 83.0078C199.901 85.1455 196.979 86.542 193.832 86.918L193.23 85.5859C196.539 85.2314 199.719 83.5664 199.848 81.418H193.832V80.043H208.098ZM228.744 94.373V95.791H211.256V94.373H215.596V89.2168C213.963 88.3682 212.975 86.9932 212.975 85.2637C212.975 82.2988 215.875 80.3652 219.957 80.3438C224.039 80.3652 226.939 82.2988 226.939 85.2637C226.939 86.9609 225.983 88.3252 224.404 89.1738V94.373H228.744ZM219.957 81.7402C216.82 81.7188 214.607 83.1367 214.607 85.2637C214.607 87.3906 216.82 88.8301 219.957 88.8301C223.072 88.8301 225.307 87.3906 225.307 85.2637C225.307 83.1367 223.072 81.7188 219.957 81.7402ZM217.25 94.373H222.707V89.8184C221.88 90.0439 220.956 90.1621 219.957 90.1621C218.979 90.1621 218.066 90.0547 217.25 89.8398V94.373ZM245.051 79.1406V87.0254H248.252V88.4219H245.051V98.2402H243.375V79.1406H245.051ZM241.527 82.2129V83.6094H230.162V82.2129H235.082V79.377H236.758V82.2129H241.527ZM235.941 85.1992C238.648 85.1992 240.604 87.0039 240.625 89.582C240.604 92.1602 238.648 93.9648 235.941 93.9648C233.213 93.9648 231.236 92.1602 231.258 89.582C231.236 87.0039 233.213 85.1992 235.941 85.1992ZM235.941 86.6172C234.158 86.6172 232.848 87.8633 232.869 89.582C232.848 91.3223 234.158 92.5469 235.941 92.5254C237.703 92.5469 238.992 91.3223 239.014 89.582C238.992 87.8633 237.703 86.6172 235.941 86.6172ZM264.064 79.1406V86.7031H267.266V88.1211H264.064V98.2832H262.389V79.1406H264.064ZM259.037 81.0098V82.4062H251.797V92.0742C255.256 92.0742 257.705 91.9131 260.541 91.3867L260.756 92.8477C257.77 93.3848 255.256 93.4922 251.625 93.4922H250.121V81.0098H259.037ZM283.744 84.9414V86.2949H270.66V79.8496H272.336V84.9414H283.744ZM285.764 88.8945V90.2695H268.275V88.8945H285.764ZM283.852 96.3711V97.7676H270.553V92.2246H272.229V96.3711H283.852ZM303.66 79.1406V98.2402H302.027V79.1406H303.66ZM299.75 79.6133V97.252H298.139V87.8633H293.971V86.4453H298.139V79.6133H299.75ZM295.26 81.5039V82.9004H289.695V92.2246C292.445 92.2139 294.186 92.0957 296.248 91.6445L296.42 93.084C294.207 93.5352 292.338 93.6211 289.266 93.6426H288.062V81.5039H295.26ZM575.459 80.5801V89.0234H566.629V80.5801H575.459ZM568.283 81.9336V87.6484H573.826V81.9336H568.283ZM580.744 79.1406V84.125H583.623V85.543H580.744V90.4629H579.068V79.1406H580.744ZM580.744 91.4941V98.2832H579.068V92.8477H568.24V91.4941H580.744ZM594.473 80.5801V89.0234H585.643V80.5801H594.473ZM587.297 81.9336V87.6484H592.84V81.9336H587.297ZM599.758 79.1406V84.125H602.637V85.543H599.758V90.4629H598.082V79.1406H599.758ZM599.758 91.4941V98.2832H598.082V92.8477H587.254V91.4941H599.758ZM613.379 82.4492V83.8242H603.797V82.4492H607.771V79.7207H609.447V82.4492H613.379ZM608.588 85.1133C610.994 85.1133 612.713 86.918 612.734 89.4531C612.713 92.0098 610.994 93.8359 608.588 93.8359C606.203 93.8359 604.484 92.0098 604.484 89.4531C604.484 86.918 606.203 85.1133 608.588 85.1133ZM608.588 86.5312C607.084 86.5527 605.988 87.7773 605.988 89.4531C605.988 91.1504 607.084 92.375 608.588 92.3535C610.113 92.375 611.23 91.1504 611.23 89.4531C611.23 87.7773 610.113 86.5527 608.588 86.5312ZM620.104 79.1406V98.2402H618.492V88.5938H615.957V97.2949H614.367V79.6133H615.957V87.1973H618.492V79.1406H620.104ZM640.342 94.373V95.791H622.854V94.373H627.193V89.2168C625.561 88.3682 624.572 86.9932 624.572 85.2637C624.572 82.2988 627.473 80.3652 631.555 80.3438C635.637 80.3652 638.537 82.2988 638.537 85.2637C638.537 86.9609 637.581 88.3252 636.002 89.1738V94.373H640.342ZM631.555 81.7402C628.418 81.7188 626.205 83.1367 626.205 85.2637C626.205 87.3906 628.418 88.8301 631.555 88.8301C634.67 88.8301 636.904 87.3906 636.904 85.2637C636.904 83.1367 634.67 81.7188 631.555 81.7402ZM628.848 94.373H634.305V89.8184C633.478 90.0439 632.554 90.1621 631.555 90.1621C630.577 90.1621 629.664 90.0547 628.848 89.8398V94.373Z" fill="black"/>
<path d="M317.045 80.3008C319.688 80.3008 321.653 82.4814 322.051 85.9941H325.445V78.9258H328.152V98.5195H325.445V88.1855H322.072C321.782 91.9453 319.773 94.2441 317.045 94.2441C314.08 94.2441 311.953 91.5586 311.975 87.2617C311.953 83.0078 314.08 80.3008 317.045 80.3008ZM317.045 82.7715C315.584 82.7715 314.574 84.3613 314.596 87.2617C314.574 90.1836 315.584 91.752 317.045 91.752C318.527 91.752 319.494 90.1836 319.494 87.2617C319.494 84.3613 318.527 82.7715 317.045 82.7715ZM347.832 95.9414V98.1328H333.717V91.8809H336.467V95.9414H347.832ZM347.316 78.9473V93.084H344.631V86.2949H341.924V84.1035H344.631V78.9473H347.316ZM336.102 80.3867V82.5996H333.652V88.1211C334.522 88.0674 335.328 87.9814 336.23 87.7773L336.445 89.9902C334.898 90.334 333.674 90.3125 331.934 90.3125H330.988V80.3867H336.102ZM342.547 80.3867V82.5996H339.775V88.1211C341.161 88.0889 342.021 87.9922 342.998 87.7559L343.234 89.9688C341.838 90.291 340.678 90.3125 338.121 90.3125H337.047V80.3867H342.547ZM360.916 83.3945C360.916 85.3281 362.033 87.2617 364.504 88.0781L363.279 90.1406C361.55 89.5283 360.368 88.4004 359.67 87.0039C358.982 88.54 357.79 89.7754 355.996 90.4414L354.75 88.4219C357.199 87.498 358.316 85.4785 358.316 83.3945V83.2871H355.287V81.1387H358.316V79.1191H360.916V81.1387H363.924V83.2871H360.916V83.3945ZM371.551 78.9473V90.8926H368.951V86.0586H367.383V90.8496H364.805V79.248H367.383V83.8457H368.951V78.9473H371.551ZM371.551 91.7305V98.4766H368.822V93.9434H358.037V91.7305H371.551ZM382.68 79.2051C387.17 79.2051 389.77 80.3867 389.791 82.5352C389.77 84.7051 387.17 85.8867 382.68 85.8867C378.168 85.8867 375.547 84.7051 375.547 82.5352C375.547 80.3867 378.168 79.2051 382.68 79.2051ZM382.68 81.2031C379.801 81.2031 378.404 81.6758 378.426 82.5352C378.404 83.502 379.801 83.8672 382.68 83.8672C385.58 83.8672 386.955 83.502 386.955 82.5352C386.955 81.6758 385.58 81.2031 382.68 81.2031ZM391.596 86.8105V88.9805H373.764V86.8105H391.596ZM389.426 90.1191V95.1035H378.533V96.2852H389.941V98.3477H375.848V93.1914H386.719V92.1172H375.826V90.1191H389.426ZM403.24 80.3008C405.883 80.3008 407.849 82.4814 408.246 85.9941H411.641V78.9258H414.348V98.5195H411.641V88.1855H408.268C407.978 91.9453 405.969 94.2441 403.24 94.2441C400.275 94.2441 398.148 91.5586 398.17 87.2617C398.148 83.0078 400.275 80.3008 403.24 80.3008ZM403.24 82.7715C401.779 82.7715 400.77 84.3613 400.791 87.2617C400.77 90.1836 401.779 91.752 403.24 91.752C404.723 91.752 405.689 90.1836 405.689 87.2617C405.689 84.3613 404.723 82.7715 403.24 82.7715ZM433.812 90.3125V92.3965H419.354V90.3125H425.219V88.7871H427.969V90.3125H433.812ZM426.551 92.9766C430.139 92.9766 432.309 93.9863 432.309 95.7266C432.309 97.5312 430.139 98.498 426.551 98.498C422.941 98.498 420.771 97.5312 420.793 95.7266C420.771 93.9863 422.941 92.9766 426.551 92.9766ZM426.551 94.8672C424.703 94.8887 423.715 95.125 423.715 95.7266C423.715 96.3711 424.703 96.6289 426.551 96.6289C428.355 96.6289 429.344 96.3711 429.344 95.7266C429.344 95.125 428.355 94.8887 426.551 94.8672ZM422.318 79.7207V81.8477H419.848V85.9512C420.718 85.9189 421.556 85.8223 422.512 85.6289L422.684 87.7773C421.029 88.0996 419.805 88.1211 418.129 88.1211H417.184V79.7207H422.318ZM428.699 79.7207V81.8477H425.928V85.9727C427.313 85.9404 428.184 85.8545 429.193 85.6289L429.387 87.7773C428.033 88.0996 426.852 88.1211 424.273 88.1211H423.221V79.7207H428.699ZM433.512 78.9258V89.3457H430.826V84.791H428.162V82.707H430.826V78.9258H433.512ZM452.826 78.9258V98.4766H450.248V78.9258H452.826ZM448.658 79.3555V97.6172H446.102V88.6367H442.9C441.783 90.8711 439.968 92.8047 437.186 94.416L435.639 92.4824C439.581 90.1406 441.321 87.2939 441.697 83.459H436.713V81.2461H444.426C444.415 83.1045 444.222 84.8555 443.76 86.4668H446.102V79.3555H448.658ZM476.309 78.9258V89.0664H473.58V78.9258H476.309ZM469.025 89.8398V94.9102H464.9V96.2422C467.135 96.2207 468.531 96.1348 470.143 95.8125L470.4 97.832C468.402 98.2188 466.705 98.2617 463.547 98.2617H462.258V93.0195H466.318V91.8809H462.258V89.8398H469.025ZM476.309 89.8398V98.4121H473.623V92.0312H469.756V89.8398H476.309ZM465.523 79.7207C468.488 79.6992 470.744 81.5898 470.744 84.2109C470.744 86.832 468.488 88.7012 465.523 88.7012C462.494 88.7012 460.26 86.832 460.26 84.2109C460.26 81.5898 462.494 79.6992 465.523 79.7207ZM465.523 81.9766C464.02 81.9551 462.902 82.793 462.924 84.2109C462.902 85.5859 464.02 86.4883 465.523 86.4883C467.006 86.4883 468.102 85.5859 468.102 84.2109C468.102 82.793 467.006 81.9551 465.523 81.9766ZM490.359 81.8477V84.0391H479.016V81.8477H483.312V79.2051H486.105V81.8477H490.359ZM484.709 85.1348C487.373 85.1348 489.414 87.0684 489.436 89.7969C489.414 92.5039 487.373 94.459 484.709 94.459C481.98 94.459 479.982 92.5039 479.982 89.7969C479.982 87.0684 481.98 85.1348 484.709 85.1348ZM484.709 87.4336C483.377 87.4551 482.453 88.3145 482.453 89.7969C482.453 91.2793 483.377 92.1387 484.709 92.1172C486.02 92.1387 486.943 91.2793 486.965 89.7969C486.943 88.3359 486.02 87.4551 484.709 87.4336ZM495.473 78.9258V98.4766H492.766V92.418H490.059V90.2266H492.766V87.584H490.037V85.3711H492.766V78.9258H495.473ZM503.25 80.3008C506.236 80.3008 508.385 83.0078 508.406 87.2617C508.385 91.5586 506.236 94.2441 503.25 94.2441C500.264 94.2441 498.072 91.5586 498.094 87.2617C498.072 83.0078 500.264 80.3008 503.25 80.3008ZM503.25 82.7715C501.746 82.7715 500.736 84.3613 500.736 87.2617C500.736 90.1836 501.746 91.752 503.25 91.752C504.775 91.752 505.764 90.1836 505.785 87.2617C505.764 84.3613 504.775 82.7715 503.25 82.7715ZM516.184 83.459V85.7578H513.412V89.2383H516.184V91.4727H513.412V98.4766H510.662V78.9258H513.412V83.459H516.184ZM537.582 78.8828V83.1367H540.225V85.3281H537.582V89.4746H534.832V78.8828H537.582ZM537.582 90.2695V95.2109H527.334V96.3281H538.141V98.3477H524.648V93.3418H534.854V92.2461H524.605V90.2695H537.582ZM533.672 80.3867V82.4707H522.07V80.3867H526.518V78.7969H529.246V80.3867H533.672ZM527.871 82.9434C530.793 82.9434 532.684 84.1895 532.684 86.1445C532.684 88.1426 530.793 89.3457 527.871 89.3457C524.949 89.3457 523.016 88.1426 523.016 86.1445C523.016 84.1895 524.949 82.9434 527.871 82.9434ZM527.871 84.877C526.518 84.877 525.68 85.3281 525.701 86.1445C525.68 86.9824 526.518 87.3906 527.871 87.3906C529.225 87.3906 530.084 86.9824 530.084 86.1445C530.084 85.3281 529.225 84.877 527.871 84.877ZM548.668 84.2539C548.668 87.4121 550.279 90.7852 553.566 92.1602L552.084 94.3086C549.774 93.3311 548.185 91.3867 547.314 89.002C546.423 91.5908 544.801 93.7393 542.502 94.8027L540.934 92.6328C544.178 91.1934 545.854 87.5625 545.854 84.2539V83.0508H541.707V80.8164H552.75V83.0508H548.668V84.2539ZM557.455 78.9258V98.4766H554.684V78.9258H557.455Z" fill="url(#paint0_linear_462_1163)"/>
</g>
<defs>
<filter id="filter0_d_462_1163" x="0" y="0" width="770" height="198" filterUnits="userSpaceOnUse" color-interpolation-filters="sRGB">
<feFlood flood-opacity="0" result="BackgroundImageFix"/>
<feColorMatrix in="SourceAlpha" type="matrix" values="0 0 0 0 0 0 0 0 0 0 0 0 0 0 0 0 0 0 127 0" result="hardAlpha"/>
<feOffset dy="10"/>
<feGaussianBlur stdDeviation="25"/>
<feComposite in2="hardAlpha" operator="out"/>
<feColorMatrix type="matrix" values="0 0 0 0 0.192157 0 0 0 0 0.509804 0 0 0 0 0.964706 0 0 0 0.25 0"/>
<feBlend mode="normal" in2="BackgroundImageFix" result="effect1_dropShadow_462_1163"/>
<feBlend mode="normal" in="SourceGraphic" in2="effect1_dropShadow_462_1163" result="shape"/>
</filter>
<linearGradient id="paint0_linear_462_1163" x1="128.5" y1="89" x2="641.5" y2="89" gradientUnits="userSpaceOnUse">
<stop stop-color="#3182F6"/>
<stop offset="1" stop-color="#A009FF"/>
</linearGradient>
</defs>
</svg>
