<svg width="874" height="164" viewBox="0 0 874 164" fill="none" xmlns="http://www.w3.org/2000/svg">
<rect width="874" height="164" rx="82" fill="white"/>
<path d="M148.25 84.3594V86.9375H133.758V99.1641H130.75V86.9375H116.453V84.3594H148.25ZM132.273 65.8438C139.578 65.8438 144.5 68.7734 144.5 73.5C144.5 78.1094 139.578 81.0391 132.273 81.0391C124.969 81.0391 120.047 78.1094 120.047 73.5C120.047 68.7734 124.969 65.8438 132.273 65.8438ZM132.273 68.3438C126.844 68.3438 123.172 70.375 123.211 73.5C123.172 76.5859 126.844 78.5781 132.273 78.5781C137.664 78.5781 141.375 76.5859 141.375 73.5C141.375 70.375 137.664 68.3438 132.273 68.3438ZM179.734 64.4375V99.2422H176.688V64.4375H179.734ZM169.188 67.6797V80.0234H156.219V88.2266C161.98 88.2266 167.117 87.9727 173.328 86.9766L173.641 89.5547C167.234 90.5703 161.961 90.8047 155.984 90.8047H153.094V77.5234H166.102V70.2188H153.016V67.6797H169.188ZM204.969 67.1328C210.086 67.1719 213.719 71.8594 213.758 79.2422C213.719 86.625 210.086 91.3125 204.969 91.3125C199.812 91.3125 196.219 86.625 196.219 79.2422C196.219 71.8594 199.812 67.1719 204.969 67.1328ZM204.969 69.8672C201.531 69.9062 199.109 73.5781 199.109 79.2422C199.109 84.9062 201.531 88.5781 204.969 88.5781C208.445 88.5781 210.789 84.9062 210.789 79.2422C210.789 73.5781 208.445 69.9062 204.969 69.8672ZM222.547 64.4375V78.3047H228.367V80.9609H222.547V99.1641H219.5V64.4375H222.547ZM258.875 64.4375V99.2422H255.789V64.4375H258.875ZM240.398 67.1328C245.555 67.1719 249.266 71.8594 249.266 79.2422C249.266 86.625 245.555 91.3125 240.398 91.3125C235.203 91.3125 231.531 86.625 231.531 79.2422C231.531 71.8594 235.203 67.1719 240.398 67.1328ZM240.398 69.8672C236.922 69.9062 234.5 73.5781 234.5 79.2422C234.5 84.9062 236.922 88.5781 240.398 88.5781C243.875 88.5781 246.297 84.9062 246.297 79.2422C246.297 73.5781 243.875 69.9062 240.398 69.8672Z" fill="black"/>
<path d="M303.406 64.0469V82.0547H298.445V64.0469H303.406ZM303.445 83.5781V93.2266H284.539V95.4141H304.422V99.3594H279.656V89.5156H298.484V87.4453H279.578V83.5781H303.445ZM287.312 67.5625C287.273 71.8594 289.852 76 295.672 77.6797L293.25 81.5078C289.168 80.3164 286.355 77.8555 284.773 74.7109C283.133 78.1484 280.223 80.8828 275.984 82.1328L273.523 78.2266C279.461 76.4688 282.117 71.9766 282.117 67.5625V64.8281H287.312V67.5625ZM325.32 66.1172V77.2109H314.578V81C319.871 81 322.996 80.8242 326.609 80.1406L327.078 84.125C322.938 84.8672 319.188 84.9844 312.312 84.9844H309.656V73.5H320.32V70.0234H309.578V66.1172H325.32ZM338.211 64.0859V85.9609H333.25V80.4922H327.352V76.5469H333.25V72.9531H327.352V69.0078H333.25V64.0859H338.211ZM338.211 87.5625V99.5938H333.25V91.5469H313.719V87.5625H338.211ZM372.586 64.0469V99.6719H367.547V64.0469H372.586ZM353.289 66.5469C358.641 66.5469 362.625 71.4688 362.625 79.2031C362.625 87.0156 358.641 91.8984 353.289 91.8984C347.82 91.8984 343.836 87.0156 343.875 79.2031C343.836 71.4688 347.82 66.5469 353.289 66.5469ZM353.289 71.0391C350.516 71.0391 348.68 73.9297 348.68 79.2031C348.68 84.5156 350.516 87.3672 353.289 87.3672C355.984 87.3672 357.82 84.5156 357.82 79.2031C357.82 73.9297 355.984 71.0391 353.289 71.0391ZM396.414 66.5469C401.219 66.5469 404.793 70.5117 405.516 76.8984H411.688V64.0469H416.609V99.6719H411.688V80.8828H405.555C405.027 87.7188 401.375 91.8984 396.414 91.8984C391.023 91.8984 387.156 87.0156 387.195 79.2031C387.156 71.4688 391.023 66.5469 396.414 66.5469ZM396.414 71.0391C393.758 71.0391 391.922 73.9297 391.961 79.2031C391.922 84.5156 393.758 87.3672 396.414 87.3672C399.109 87.3672 400.867 84.5156 400.867 79.2031C400.867 73.9297 399.109 71.0391 396.414 71.0391ZM450.945 64.0469V99.6719H445.906V64.0469H450.945ZM440.633 67.1719V71.2344H428.328V86.9766C434.695 86.957 438.602 86.8203 443.094 86L443.562 90.1016C438.641 91.0391 434.109 91.1953 426.414 91.1953H423.328V67.1719H440.633ZM467.547 69.3203C467.547 71.2734 469.051 73.5586 471.961 74.8672C474.812 73.5781 476.258 71.332 476.258 69.3203V69.2812H472.664V65.2578H485.945V69.2812H481.336V69.3203C481.297 71.7422 483.289 74.2031 487.586 75.2188L485.398 78.8125C482.059 77.9727 479.871 76.2148 478.68 73.9688C477.527 76.2539 475.359 78.207 471.961 79.0859C468.504 78.207 466.316 76.2344 465.125 73.9297C463.914 76.1367 461.746 77.9531 458.406 78.8125L456.375 75.2188C460.594 74.1641 462.625 71.625 462.625 69.3203V69.2812H457.898V65.2578H471.219V69.2812H467.547V69.3203ZM488.172 80.5312V84.5156H455.75V80.5312H488.172ZM484.305 86.9375V99.2031H459.5V86.9375H484.305ZM464.422 90.8828V95.2188H479.422V90.8828H464.422ZM520.086 64.0859V89.6328H515.086V64.0859H520.086ZM521.023 94.9844V98.9688H496.258V87.0547H501.297V94.9844H521.023ZM500.594 66.3516C506.062 66.3516 510.32 70.1016 510.32 75.2969C510.32 80.6094 506.062 84.3203 500.594 84.3203C495.125 84.3203 490.867 80.6094 490.867 75.2969C490.867 70.1016 495.125 66.3516 500.594 66.3516ZM500.594 70.6875C497.82 70.6484 495.711 72.4062 495.75 75.2969C495.711 78.2656 497.82 79.9844 500.594 79.9844C503.289 79.9844 505.398 78.2656 505.398 75.2969C505.398 72.4062 503.289 70.6484 500.594 70.6875ZM538.68 73.7344C538.68 79.4766 541.609 85.6094 547.586 88.1094L544.891 92.0156C540.691 90.2383 537.801 86.7031 536.219 82.3672C534.598 87.0742 531.648 90.9805 527.469 92.9141L524.617 88.9688C530.516 86.3516 533.562 79.75 533.562 73.7344V71.5469H526.023V67.4844H546.102V71.5469H538.68V73.7344ZM554.656 64.0469V99.5938H549.617V64.0469H554.656ZM596.883 64.0469V71.8203H601.688V75.9219H596.883V83.9297H591.883V64.0469H596.883ZM586.922 66.1172C586.883 75.5312 580.945 81.8984 570.281 84.7109L568.289 80.7656C576.258 78.793 580.652 74.8477 581.492 70.1016H570.047V66.1172H586.922ZM596.883 85.2578V99.1641H573.641V85.2578H596.883ZM578.602 89.2812V95.2578H591.961V89.2812H578.602ZM633.016 64.0469V99.6719H627.977V64.0469H633.016ZM613.719 66.5469C619.07 66.5469 623.055 71.4688 623.055 79.2031C623.055 87.0156 619.07 91.8984 613.719 91.8984C608.25 91.8984 604.266 87.0156 604.305 79.2031C604.266 71.4688 608.25 66.5469 613.719 66.5469ZM613.719 71.0391C610.945 71.0391 609.109 73.9297 609.109 79.2031C609.109 84.5156 610.945 87.3672 613.719 87.3672C616.414 87.3672 618.25 84.5156 618.25 79.2031C618.25 73.9297 616.414 71.0391 613.719 71.0391ZM675.242 64.0469V74.2422H680.047V78.3828H675.242V89.9453H670.242V64.0469H675.242ZM676.531 94.9844V98.9688H652.195V87.2109H657.156V94.9844H676.531ZM657.039 66.3516C662.469 66.3516 666.727 70.1016 666.727 75.375C666.727 80.5703 662.469 84.3984 657.039 84.3984C651.57 84.3984 647.273 80.5703 647.273 75.375C647.273 70.1016 651.57 66.3516 657.039 66.3516ZM657.039 70.6875C654.344 70.6484 652.156 72.4062 652.195 75.375C652.156 78.2656 654.344 80.0625 657.039 80.0625C659.773 80.0625 661.844 78.2656 661.883 75.375C661.844 72.4062 659.773 70.6484 657.039 70.6875ZM701.414 66.1562C706.883 66.1562 711.141 69.75 711.18 74.8672C711.141 79.1641 708.152 82.3867 703.953 83.3047V88.1484C706.766 88.0312 709.559 87.7969 712.195 87.4453L712.547 91.1172C705.125 92.5234 697.117 92.5234 691.062 92.4453L690.398 88.4219C692.957 88.4023 695.906 88.4023 698.992 88.3438V83.3438C694.637 82.4648 691.648 79.2227 691.648 74.8672C691.648 69.75 695.789 66.1562 701.414 66.1562ZM701.414 70.375C698.602 70.375 696.492 72.0156 696.531 74.8672C696.492 77.6797 698.602 79.3594 701.414 79.3594C704.148 79.3594 706.258 77.6797 706.258 74.8672C706.258 72.0156 704.148 70.375 701.414 70.375ZM719.07 64.0469V77.9922H723.914V82.1719H719.07V99.5938H714.07V64.0469H719.07ZM757.938 91.3516V95.4531H725.398V91.3516H732.664V82.6406C729.91 81 728.25 78.4805 728.25 75.3359C728.25 69.5938 733.875 65.7656 741.609 65.7656C749.305 65.7656 754.969 69.5938 755.008 75.3359C754.988 78.4023 753.367 80.9023 750.711 82.5625V91.3516H757.938ZM741.609 69.7109C736.531 69.7109 733.172 71.7422 733.172 75.3359C733.172 78.8125 736.531 80.9609 741.609 80.9609C746.648 80.9609 750.047 78.8125 750.086 75.3359C750.047 71.7422 746.648 69.7109 741.609 69.7109ZM737.586 91.3516H745.672V84.4375C744.402 84.6914 743.035 84.8281 741.609 84.8281C740.184 84.8281 738.836 84.7109 737.586 84.4375V91.3516Z" fill="url(#paint0_linear_568_838)"/>
<defs>
<linearGradient id="paint0_linear_568_838" x1="114.418" y1="82" x2="1010.73" y2="81.9998" gradientUnits="userSpaceOnUse">
<stop stop-color="#3182F6"/>
<stop offset="1" stop-color="#A009FF"/>
</linearGradient>
</defs>
</svg>
