<svg width="840" height="98" viewBox="0 0 840 98" fill="none" xmlns="http://www.w3.org/2000/svg">
<rect width="840" height="98" rx="49" fill="white"/>
<path d="M128.706 46.498L130.687 39.5918H132.565L131.169 46.498H128.706ZM133.53 46.498L135.511 39.5918H137.39L135.993 46.498H133.53ZM160.698 49.4434V51.0684H151.507V55.4863H149.526V51.0684H140.03V49.4434H160.698ZM158.388 57.8984V59.5742H142.671V53.4043H144.651V57.8984H158.388ZM144.778 38.2207V41.1152H155.95V38.2207H157.931V47.2344H142.798V38.2207H144.778ZM144.778 45.6094H155.95V42.6387H144.778V45.6094ZM181.239 37.4844V50.8652H179.233V47.3105H173.952V49.2402H163.593V39.2109H173.952V41.166H179.233V37.4844H181.239ZM165.573 40.8359V47.6152H171.997V40.8359H165.573ZM173.749 51.5254C178.446 51.5254 181.315 53.0742 181.315 55.791C181.315 58.4824 178.446 60.0059 173.749 60.0059C169.052 60.0059 166.183 58.4824 166.183 55.791C166.183 53.0742 169.052 51.5254 173.749 51.5254ZM173.749 53.0742C170.296 53.0996 168.138 54.0898 168.163 55.791C168.138 57.416 170.296 58.4316 173.749 58.4316C177.202 58.4316 179.335 57.416 179.335 55.791C179.335 54.0898 177.202 53.0996 173.749 53.0742ZM173.952 45.6348H179.233V42.8164H173.952V45.6348ZM204.497 39.9473V41.5977H201.983V52.4648C203.202 52.376 204.408 52.2744 205.563 52.1348L205.665 53.6074C200.892 54.3691 195.483 54.4453 191.497 54.4707L191.243 52.7695L194.29 52.7441V41.5977H191.802V39.9473H204.497ZM208.991 37.4844V46.5488H212.774V48.2246H208.991V60.0566H207.011V37.4844H208.991ZM196.22 52.7188C197.477 52.6934 198.784 52.6426 200.079 52.5664V41.5977H196.22V52.7188ZM232.63 51.7031V60.1074H230.649V53.3789H217.446V51.7031H232.63ZM232.63 37.5098V50.5605H230.649V37.5098H232.63ZM217.421 38.7793V47.0566C220.823 47.0439 224.34 46.79 228.085 46.0156L228.39 47.6914C224.403 48.4531 220.823 48.7324 217.243 48.7324H215.415V38.7793H217.421ZM247.712 40.8105C247.712 44.6699 252.13 48.123 256.065 48.8594L255.151 50.5352C251.749 49.748 248.156 47.3232 246.696 43.9844C245.236 47.3105 241.656 49.7354 238.241 50.5352L237.327 48.8594C241.237 48.0977 245.63 44.6953 245.63 40.8105V39.084H247.712V40.8105ZM257.132 55.334V56.9844H236.464V55.334H257.132ZM279.577 47.9707V49.5449H258.909V47.9707H279.577ZM276.987 51.3477V56.1465H263.429V58.3047H277.724V59.752H261.423V54.7754H275.007V52.8457H261.397V51.3477H276.987ZM276.911 38.1699V42.8418H263.581V44.8223H277.317V46.2695H261.601V41.4707H274.905V39.6172H261.524V38.1699H276.911ZM308.573 46.2188V47.8438H287.931V46.2188H294.329C295.027 43.4639 295.192 41.3945 295.243 40.0234H289.86V38.3984H297.224V38.9824C297.198 40.1631 297.198 42.7021 296.335 46.2188H303.241C303.901 43.4385 304.016 41.4199 304.054 40.0234H298.747V38.3984H305.983V39.3125C305.983 40.6836 305.983 43.0322 305.247 46.2188H308.573ZM306.034 50.2559V51.8047H292.501V54.1914H305.45V55.6895H292.501V58.1777H306.187V59.752H290.495V50.2559H306.034ZM329.571 37.5098V50.4844H327.667V44.7969H324.417V50.2559H322.563V37.916H324.417V43.1465H327.667V37.5098H329.571ZM313.524 39.2617V47.2598C315.886 47.2471 318.184 47.1201 320.913 46.5996L321.142 48.2246C318.095 48.834 315.657 48.9609 312.966 48.9609H311.544V39.2617H313.524ZM318.374 52.6934C318.349 54.6865 319.402 56.8447 321.548 58.0762C323.706 56.7305 324.798 54.4453 324.823 52.6934V51.1699H326.778V52.6934C326.753 55.0547 328.479 57.3906 331.374 58.3301L330.358 59.8535C328.124 59.0537 326.55 57.4668 325.788 55.5371C325.077 57.3779 323.719 59.1426 321.599 60.0566C319.402 59.1934 318.031 57.5176 317.358 55.6133C316.559 57.4541 315.01 59.041 312.864 59.8535L311.849 58.3301C314.667 57.3398 316.444 54.9023 316.444 52.6934V51.1699H318.374V52.6934ZM351.128 44.3398V45.9395H335.665V38.3223H337.646V44.3398H351.128ZM353.515 49.0117V50.6367H332.847V49.0117H353.515ZM351.255 57.8477V59.498H335.538V52.9473H337.519V57.8477H351.255ZM374.665 37.4844V60.0566H372.735V37.4844H374.665ZM370.044 38.043V58.8887H368.14V47.793H363.214V46.1172H368.14V38.043H370.044ZM364.737 40.2773V41.9277H358.161V52.9473C361.411 52.9346 363.468 52.7949 365.905 52.2617L366.108 53.9629C363.493 54.4961 361.284 54.5977 357.653 54.623H356.231V40.2773H364.737ZM396.044 48.0723V49.6973H389.062V55.5371H398.481V57.2129H377.813V55.5371H387.106V49.6973H380.454V39.3379H395.815V40.9629H382.46V48.0723H396.044ZM711.269 39.6426L709.288 46.5488H707.409L708.806 39.6426H711.269ZM706.444 39.6426L704.464 46.5488H702.585L703.981 39.6426H706.444Z" fill="black"/>
<path d="M412.954 38.8555C415.023 38.8555 416.75 39.998 417.804 41.9785H422.882V37.2305H426.081V60.3867H422.882V51.7285H418.058C417.017 54.0137 415.188 55.334 412.954 55.334C409.45 55.334 406.937 52.1602 406.962 47.082C406.937 42.0547 409.45 38.8555 412.954 38.8555ZM412.954 41.7754C411.228 41.7754 410.034 43.6543 410.06 47.082C410.034 50.5352 411.228 52.3887 412.954 52.3887C414.706 52.3887 415.849 50.5352 415.849 47.082C415.849 43.6543 414.706 41.7754 412.954 41.7754ZM418.718 44.5938C418.857 45.3555 418.946 46.1934 418.946 47.082C418.946 47.8057 418.883 48.4912 418.794 49.1387H422.882V44.5938H418.718ZM448.526 37.2559V54.1152H445.302V45.8379H441.519V43.2227H445.302V37.2559H448.526ZM449.085 57.3398V59.9297H433.19V52.6426H436.44V57.3398H449.085ZM437.786 41.7754C437.786 44.4414 439.411 47.3105 443.093 48.5039L441.493 51.0684C438.929 50.2432 437.177 48.5547 436.161 46.4473C435.146 48.7832 433.305 50.6367 430.575 51.5508L428.925 48.9102C432.733 47.7168 434.46 44.6953 434.485 41.75V41.3945H429.839V38.8047H442.382V41.3945H437.786V41.7754ZM470.87 37.2305V60.3359H467.595V37.2305H470.87ZM465.817 40.709V43.2988H452.005V40.709H457.261V37.5352H460.562V40.709H465.817ZM458.962 44.5684C462.364 44.5684 464.903 46.8535 464.903 50.0781C464.903 53.3027 462.364 55.5879 458.962 55.5879C455.534 55.5879 452.995 53.3027 452.995 50.0781C452.995 46.8535 455.534 44.5684 458.962 44.5684ZM458.962 47.1836C457.261 47.209 456.093 48.3008 456.093 50.0781C456.093 51.8809 457.261 52.9473 458.962 52.9219C460.638 52.9473 461.806 51.8809 461.806 50.0781C461.806 48.3008 460.638 47.209 458.962 47.1836ZM487.272 42.5117C487.272 44.7969 488.593 47.082 491.513 48.0469L490.065 50.4844C488.021 49.7607 486.625 48.4277 485.8 46.7773C484.987 48.5928 483.578 50.0527 481.458 50.8398L479.985 48.4531C482.88 47.3613 484.2 44.9746 484.2 42.5117V42.3848H480.62V39.8457H484.2V37.459H487.272V39.8457H490.827V42.3848H487.272V42.5117ZM499.841 37.2559V51.373H496.769V45.6602H494.915V51.3223H491.868V37.6113H494.915V43.0449H496.769V37.2559H499.841ZM499.841 52.3633V60.3359H496.616V54.9785H483.87V52.3633H499.841ZM527.771 37.2305V49.2148H524.546V37.2305H527.771ZM519.163 50.1289V56.1211H514.288V57.6953C516.929 57.6699 518.579 57.5684 520.483 57.1875L520.788 59.5742C518.427 60.0312 516.421 60.082 512.688 60.082H511.165V53.8867H515.964V52.541H511.165V50.1289H519.163ZM527.771 50.1289V60.2598H524.597V52.7188H520.026V50.1289H527.771ZM515.024 38.1699C518.528 38.1445 521.194 40.3789 521.194 43.4766C521.194 46.5742 518.528 48.7832 515.024 48.7832C511.444 48.7832 508.804 46.5742 508.804 43.4766C508.804 40.3789 511.444 38.1445 515.024 38.1699ZM515.024 40.8359C513.247 40.8105 511.927 41.8008 511.952 43.4766C511.927 45.1016 513.247 46.168 515.024 46.168C516.776 46.168 518.071 45.1016 518.071 43.4766C518.071 41.8008 516.776 40.8105 515.024 40.8359ZM550.343 37.2305V60.3359H547.067V37.2305H550.343ZM543.411 39.6426C543.411 46.6504 540.948 52.4648 532.696 56.375L530.995 53.7852C536.962 50.9668 539.59 47.3105 540.11 42.1816H532.239V39.6426H543.411ZM574.515 47.5898V50.002H553.364V47.5898H574.515ZM571.976 51.1445V56.6035H559.026V57.9238H572.661V60.1328H555.802V54.5469H568.776V53.3789H555.776V51.1445H571.976ZM571.95 37.6367V43.0703H559.229V44.3145H572.356V46.498H556.005V41.0137H568.7V39.8457H555.954V37.6367H571.95ZM588.226 38.8555C591.349 38.8555 593.672 41.4326 594.142 45.584H598.153V37.2305H601.353V60.3867H598.153V48.1738H594.167C593.824 52.6172 591.45 55.334 588.226 55.334C584.722 55.334 582.208 52.1602 582.233 47.082C582.208 42.0547 584.722 38.8555 588.226 38.8555ZM588.226 41.7754C586.499 41.7754 585.306 43.6543 585.331 47.082C585.306 50.5352 586.499 52.3887 588.226 52.3887C589.978 52.3887 591.12 50.5352 591.12 47.082C591.12 43.6543 589.978 41.7754 588.226 41.7754ZM623.798 37.2305V60.3867H620.573V51.0684H616.612V48.4023H620.573V44.7715H616.688V42.1309H620.573V37.2305H623.798ZM615.47 39.1602V48.0469H608.36V52.541C611.217 52.5283 613.756 52.3887 616.663 51.957L616.917 54.5977C613.464 55.1562 610.519 55.207 606.964 55.207H605.136V45.5332H612.296V41.7246H605.085V39.1602H615.47ZM646.522 37.2559V60.3359H643.222V55.2324H638.524V52.7949H643.222V37.2559H646.522ZM626.692 48.9609C631.009 48.9609 636.772 48.9355 641.749 48.2754L641.927 50.6367C639.896 51.0049 637.801 51.2334 635.757 51.373V59.6504H632.481V51.5254C630.564 51.5889 628.749 51.6016 627.099 51.6016L626.692 48.9609ZM634.259 38.1699C637.661 38.1699 640.175 40.1504 640.2 42.918C640.175 45.7617 637.661 47.6406 634.259 47.6406C630.806 47.6406 628.317 45.7617 628.317 42.918C628.317 40.1504 630.806 38.1699 634.259 38.1699ZM634.259 40.6328C632.532 40.6328 631.364 41.5215 631.364 42.918C631.364 44.3652 632.532 45.1777 634.259 45.1777C635.935 45.1777 637.103 44.3652 637.128 42.918C637.103 41.5215 635.935 40.6328 634.259 40.6328ZM660.411 40.7598V43.3242H649.239V40.7598H653.251V37.8652H656.45V40.7598H660.411ZM654.876 44.3652C657.821 44.3652 659.929 46.6504 659.954 49.8496C659.929 53.0742 657.821 55.3594 654.876 55.3594C651.931 55.3594 649.772 53.0742 649.772 49.8496C649.772 46.6504 651.931 44.3652 654.876 44.3652ZM654.876 47.0566C653.53 47.0566 652.616 48.0977 652.616 49.8496C652.616 51.6016 653.53 52.6172 654.876 52.6172C656.171 52.6172 657.085 51.6016 657.11 49.8496C657.085 48.0977 656.171 47.0566 654.876 47.0566ZM669.247 37.2305V60.3359H666.175V49.2148H664.296V59.3457H661.274V37.6875H664.296V46.625H666.175V37.2305H669.247ZM692.886 54.9785V57.6445H671.735V54.9785H676.458V49.3164C674.668 48.25 673.589 46.6123 673.589 44.5684C673.589 40.8359 677.245 38.3477 682.272 38.3477C687.274 38.3477 690.956 40.8359 690.981 44.5684C690.969 46.5615 689.915 48.1865 688.188 49.2656V54.9785H692.886ZM682.272 40.9121C678.972 40.9121 676.788 42.2324 676.788 44.5684C676.788 46.8281 678.972 48.2246 682.272 48.2246C685.548 48.2246 687.757 46.8281 687.782 44.5684C687.757 42.2324 685.548 40.9121 682.272 40.9121ZM679.657 54.9785H684.913V50.4844C684.088 50.6494 683.199 50.7383 682.272 50.7383C681.346 50.7383 680.47 50.6621 679.657 50.4844V54.9785ZM697.202 58.2285C696.009 58.2285 695.044 57.2637 695.069 56.0957C695.044 54.9277 696.009 53.9883 697.202 53.9883C698.319 53.9883 699.31 54.9277 699.31 56.0957C699.31 57.2637 698.319 58.2285 697.202 58.2285Z" fill="url(#paint0_linear_501_837)"/>
<defs>
<linearGradient id="paint0_linear_501_837" x1="127.5" y1="49" x2="712.5" y2="49" gradientUnits="userSpaceOnUse">
<stop stop-color="#3182F6"/>
<stop offset="1" stop-color="#A009FF"/>
</linearGradient>
</defs>
</svg>
