<svg width="874" height="164" viewBox="0 0 874 164" fill="none" xmlns="http://www.w3.org/2000/svg">
<rect width="874" height="164" rx="82" fill="white"/>
<path d="M99.8711 68.7344C99.8711 73.9297 104.48 79.5156 112.527 80.8828L110.34 85.0234C104.148 83.793 99.5391 80.3164 97.2539 75.7266C94.8906 80.2773 90.2812 83.7734 84.1289 85.0234L81.9805 80.8828C89.8711 79.4766 94.5195 73.8906 94.5586 68.7344V66.1562H99.8711V68.7344ZM113.699 91.1172V95.2188H81.1602V91.1172H113.699ZM134.441 68.7344C134.441 73.9297 139.051 79.5156 147.098 80.8828L144.91 85.0234C138.719 83.793 134.109 80.3164 131.824 75.7266C129.461 80.2773 124.852 83.7734 118.699 85.0234L116.551 80.8828C124.441 79.4766 129.09 73.8906 129.129 68.7344V66.1562H134.441V68.7344ZM148.27 91.1172V95.2188H115.73V91.1172H148.27ZM182.84 91.5469V95.6484H150.301V91.5469H164.012V86.1953H154.051V74.2422H174.168V70.3359H154.012V66.3516H179.09V78.1484H159.051V82.1328H179.91V86.1953H168.973V91.5469H182.84ZM222.137 64.0469V77.9531H227.371V82.0547H222.137V99.5938H217.215V64.0469H222.137ZM214.793 69.3594V73.3438H193.895V69.3594H201.941V64.5938H206.941V69.3594H214.793ZM204.441 75.3359C209.637 75.3359 213.504 78.8516 213.504 83.8125C213.504 88.7734 209.637 92.2891 204.441 92.2891C199.207 92.2891 195.34 88.7734 195.34 83.8125C195.34 78.8516 199.207 75.3359 204.441 75.3359ZM204.441 79.3594C201.941 79.3984 200.105 81.0781 200.105 83.8125C200.105 86.5859 201.941 88.2266 204.441 88.1875C206.941 88.2266 208.738 86.5859 208.738 83.8125C208.738 81.0781 206.941 79.3984 204.441 79.3594ZM257.957 67.1328V70.4922C257.957 74.9453 257.957 79.9453 256.512 87.4844L251.512 86.9766C252.859 80.2578 252.918 75.2578 252.957 71.0781H232.02V67.1328H257.957ZM261.082 91.1953V95.2578H228.66V91.1953H240.262V78.9688H245.223V91.1953H261.082ZM302.215 64.0859V83.7734H297.215V64.0859H302.215ZM286.082 68.7344C286.043 72.9531 288.621 77.1328 294.441 78.7344L292.059 82.6797C287.957 81.4688 285.125 79.0078 283.504 75.8438C281.883 79.2812 278.973 81.9961 274.715 83.2656L272.332 79.3594C278.27 77.5625 280.887 73.1484 280.887 68.7344V65.2969H286.082V68.7344ZM302.41 85.375V89.3203H298.152V95.2188H302.723V99.2031H277.684V95.2188H282.293V89.3203H277.996V85.375H302.41ZM287.215 95.2188H293.23V89.3203H287.215V95.2188ZM316.824 66.5469C321.629 66.5469 325.203 70.5117 325.926 76.8984H332.098V64.0469H337.02V99.6719H332.098V80.8828H325.965C325.438 87.7188 321.785 91.8984 316.824 91.8984C311.434 91.8984 307.566 87.0156 307.605 79.2031C307.566 71.4688 311.434 66.5469 316.824 66.5469ZM316.824 71.0391C314.168 71.0391 312.332 73.9297 312.371 79.2031C312.332 84.5156 314.168 87.3672 316.824 87.3672C319.52 87.3672 321.277 84.5156 321.277 79.2031C321.277 73.9297 319.52 71.0391 316.824 71.0391ZM369.637 64.0469V77.9531H374.871V82.0547H369.637V99.5938H364.715V64.0469H369.637ZM362.293 69.3594V73.3438H341.395V69.3594H349.441V64.5938H354.441V69.3594H362.293ZM351.941 75.3359C357.137 75.3359 361.004 78.8516 361.004 83.8125C361.004 88.7734 357.137 92.2891 351.941 92.2891C346.707 92.2891 342.84 88.7734 342.84 83.8125C342.84 78.8516 346.707 75.3359 351.941 75.3359ZM351.941 79.3594C349.441 79.3984 347.605 81.0781 347.605 83.8125C347.605 86.5859 349.441 88.2266 351.941 88.1875C354.441 88.2266 356.238 86.5859 356.238 83.8125C356.238 81.0781 354.441 79.3984 351.941 79.3594ZM405.027 73.7344V77.6406H380.184V65.2969H385.145V73.7344H405.027ZM408.66 81.4688V85.375H376.121V81.4688H408.66ZM405.262 94.8281V98.8125H379.871V88.2656H384.871V94.8281H405.262ZM429.871 65.9609C432.703 65.9609 435.184 66.9961 436.902 68.7344H444.949V64.0469H449.91V84.8672H444.949V80.6094H436.863C435.145 82.3281 432.684 83.3633 429.871 83.3438C424.48 83.3828 420.379 79.6719 420.418 74.6719C420.379 69.5938 424.48 65.9609 429.871 65.9609ZM429.871 70.2188C427.098 70.2188 425.105 71.8594 425.145 74.6719C425.105 77.4062 427.098 79.1641 429.871 79.125C432.566 79.1641 434.52 77.4062 434.52 74.6719C434.52 71.8594 432.566 70.2188 429.871 70.2188ZM437.762 85.6094C445.301 85.6094 449.988 88.1875 450.027 92.6016C449.988 97.0156 445.301 99.5938 437.762 99.5938C430.262 99.5938 425.535 97.0156 425.535 92.6016C425.535 88.1875 430.262 85.6094 437.762 85.6094ZM437.762 89.3984C433.035 89.3984 430.418 90.4531 430.418 92.6016C430.418 94.6719 433.035 95.7266 437.762 95.7266C442.566 95.7266 445.145 94.6719 445.145 92.6016C445.145 90.4531 442.566 89.3984 437.762 89.3984ZM439.051 72.6797C439.168 73.3047 439.246 73.9883 439.246 74.6719C439.246 75.3555 439.168 76 439.051 76.625H444.949V72.6797H439.051ZM464.324 66.5469C469.129 66.5469 472.703 70.5117 473.426 76.8984H479.598V64.0469H484.52V99.6719H479.598V80.8828H473.465C472.938 87.7188 469.285 91.8984 464.324 91.8984C458.934 91.8984 455.066 87.0156 455.105 79.2031C455.066 71.4688 458.934 66.5469 464.324 66.5469ZM464.324 71.0391C461.668 71.0391 459.832 73.9297 459.871 79.2031C459.832 84.5156 461.668 87.3672 464.324 87.3672C467.02 87.3672 468.777 84.5156 468.777 79.2031C468.777 73.9297 467.02 71.0391 464.324 71.0391ZM519.402 67.2109V71.1562H498.309V67.2109H506.395V63.8516H511.355V67.2109H519.402ZM508.855 72.2891C514.012 72.2891 517.605 74.9453 517.605 78.8516C517.605 82.7578 514.012 85.4141 508.855 85.4141C503.699 85.4141 500.027 82.7578 500.027 78.8516C500.027 74.9453 503.699 72.2891 508.855 72.2891ZM508.855 76.0391C506.473 76.0391 504.871 77.0156 504.91 78.8516C504.871 80.6484 506.473 81.5859 508.855 81.5859C511.238 81.5859 512.879 80.6484 512.879 78.8516C512.879 77.0156 511.238 76.0391 508.855 76.0391ZM526.512 64.0469V73.2656H531.316V77.3281H526.512V86.3516H521.512V64.0469H526.512ZM526.512 87.8359V99.5938H521.512V91.8203H502.566V87.8359H526.512ZM541.59 85.375V88.3828H556.238V85.375H561.199V99.2031H536.668V85.375H541.59ZM541.59 95.2969H556.238V92.1719H541.59V95.2969ZM565.301 79.5547V83.5781H532.879V79.5547H565.301ZM551.668 65.6094C551.668 69.1641 555.77 73.1875 563.699 74.0859L561.941 77.9922C555.809 77.2109 551.375 74.6719 549.09 71.2344C546.805 74.6719 542.352 77.2109 536.277 77.9922L534.48 74.0859C542.41 73.1484 546.512 69.2422 546.551 65.6094V64.3984H551.668V65.6094Z" fill="url(#paint0_linear_568_850)"/>
<path d="M583.621 65.0625C591.355 65.0625 595.887 67.1719 595.887 71.0391C595.887 74.9844 591.355 77.0938 583.621 77.1328C575.887 77.0938 571.316 74.9844 571.316 71.0391C571.316 67.1719 575.887 65.0625 583.621 65.0625ZM583.621 67.3672C577.84 67.3672 574.48 68.7734 574.52 71.0391C574.48 73.4609 577.84 74.7891 583.621 74.7891C589.363 74.7891 592.762 73.4609 592.762 71.0391C592.762 68.7734 589.363 67.3672 583.621 67.3672ZM599.441 79.4766V81.9766H567.801V79.4766H599.441ZM595.379 84.9844V92.7578H574.754V96.3516H596.434V98.7734H571.707V90.4922H592.371V87.3281H571.629V84.9844H595.379ZM624.246 71.7031C624.246 75.8438 627.762 79.6719 632.879 81.1953L631.434 83.5391C627.43 82.3477 624.305 79.7695 622.801 76.4297C621.277 80.1016 618.055 82.8945 613.934 84.2422L612.41 81.8203C617.566 80.2578 621.238 76.2734 621.238 71.7031V71.0391H613.387V68.5H621.238V64.2812H624.324V68.5H632.098V71.0391H624.246V71.7031ZM639.559 64.4375V73.0312H644.793V75.6094H639.559V84.6328H636.512V64.4375H639.559ZM640.184 86.5078V89.0078H630.34C630.848 92.6406 635.945 95.7656 641.512 96.6641L640.379 99.0469C635.281 98.207 630.672 95.6875 628.699 92.2109C626.707 95.668 622.137 98.1289 617.098 99.0078L615.926 96.6641C621.531 95.7656 626.57 92.6992 627.098 89.0078H617.293V86.5078H640.184ZM674.832 67.9531V71.4297C674.793 75.6875 674.793 80.4531 673.543 87.4453L670.418 87.0938C671.746 80.4531 671.746 75.5703 671.746 71.4297V70.4922H650.34V67.9531H674.832ZM678.621 91.7031V94.2422H646.98V91.7031H659.402V79.2812H662.41V91.7031H678.621ZM703.348 87.7578C703.348 90.8242 704.988 94.0859 708.309 95.9609C711.59 93.9102 713.348 90.4531 713.348 87.7578V85.8438H716.355V87.7578C716.355 91.3125 718.973 94.9062 723.426 96.4297L721.902 98.6953C718.426 97.4648 715.984 95.043 714.793 92.1328C713.719 94.9453 711.59 97.6016 708.387 98.9688C705.008 97.6797 702.859 95.1211 701.824 92.2109C700.594 95.0234 698.191 97.4453 694.871 98.6953L693.309 96.4297C697.684 94.7891 700.34 91.0781 700.379 87.7578V85.8438H703.348V87.7578ZM720.262 64.4766V84.3203H717.215V64.4766H720.262ZM701.512 66.5078C706.785 66.5078 710.613 69.7891 710.613 74.6328C710.613 79.3984 706.785 82.6797 701.512 82.6797C696.238 82.6797 692.41 79.3984 692.41 74.6328C692.41 69.7891 696.238 66.5078 701.512 66.5078ZM701.512 69.125C697.957 69.0859 695.379 71.3906 695.418 74.6328C695.379 77.8359 697.957 80.1016 701.512 80.1406C705.027 80.1016 707.605 77.8359 707.605 74.6328C707.605 71.3906 705.027 69.0859 701.512 69.125ZM735.496 67.1328C740.223 67.1719 743.621 71.2148 744.129 77.7188H751.902V64.4375H754.949V99.2422H751.902V80.2578H744.168C743.797 87.0547 740.34 91.3125 735.496 91.3125C730.379 91.3125 726.785 86.625 726.785 79.2422C726.785 71.8594 730.379 67.1719 735.496 67.1328ZM735.496 69.8672C732.059 69.9062 729.715 73.5781 729.715 79.2422C729.715 84.9062 732.059 88.5781 735.496 88.5781C738.895 88.5781 741.277 84.9062 741.277 79.2422C741.277 73.5781 738.895 69.9062 735.496 69.8672ZM792.527 92.1328V94.7109H760.73V92.1328H768.621V82.7578C765.652 81.2148 763.855 78.7148 763.855 75.5703C763.855 70.1797 769.129 66.6641 776.551 66.625C783.973 66.6641 789.246 70.1797 789.246 75.5703C789.246 78.6562 787.508 81.1367 784.637 82.6797V92.1328H792.527ZM776.551 69.1641C770.848 69.125 766.824 71.7031 766.824 75.5703C766.824 79.4375 770.848 82.0547 776.551 82.0547C782.215 82.0547 786.277 79.4375 786.277 75.5703C786.277 71.7031 782.215 69.125 776.551 69.1641ZM771.629 92.1328H781.551V83.8516C780.047 84.2617 778.367 84.4766 776.551 84.4766C774.773 84.4766 773.113 84.2812 771.629 83.8906V92.1328Z" fill="black"/>
<defs>
<linearGradient id="paint0_linear_568_850" x1="79.3548" y1="82" x2="1073.09" y2="81.9997" gradientUnits="userSpaceOnUse">
<stop stop-color="#3182F6"/>
<stop offset="1" stop-color="#A009FF"/>
</linearGradient>
</defs>
</svg>
