<svg width="840" height="98" viewBox="0 0 840 98" fill="none" xmlns="http://www.w3.org/2000/svg">
<rect width="840" height="98" rx="49" fill="white"/>
<path d="M20.834 46.498L22.8145 39.5918H24.6934L23.2969 46.498H20.834ZM25.6582 46.498L27.6387 39.5918H29.5176L28.1211 46.498H25.6582ZM50.8965 52.084V60.1074H48.8906V53.6836H35.7129V52.084H50.8965ZM50.8965 37.4844V50.7891H48.8906V45H44.1934C43.7617 47.7422 41.4258 49.5957 38.4043 49.5703C35.0273 49.5957 32.5391 47.3613 32.5391 44.1621C32.5391 41.0137 35.0273 38.7793 38.4043 38.7793C41.4258 38.7793 43.7617 40.6201 44.1934 43.3242H48.8906V37.4844H50.8965ZM38.4043 40.4805C36.1445 40.4805 34.4434 42.0293 34.4434 44.1621C34.4434 46.3711 36.1445 47.8945 38.4043 47.8945C40.6133 47.8945 42.3145 46.3711 42.3145 44.1621C42.3145 42.0293 40.6133 40.4805 38.4043 40.4805ZM62.7285 44.416C62.7285 48.25 65.5215 52.1348 68.8477 53.582L67.7305 55.1562C65.0898 53.9502 62.8047 51.3477 61.7637 48.2246C60.6973 51.5381 58.4248 54.4199 55.8477 55.7148L54.6543 54.1406C57.8789 52.5918 60.6973 48.3262 60.7227 44.416V41.4707H55.3906V39.8203H68.1113V41.4707H62.7285V44.416ZM73.2656 37.4844V60.0566H71.2598V37.4844H73.2656ZM97.793 55.5879V57.2637H77.125V55.5879H86.418V51.3223H79.7148V44.3652H93.2227V40.8105H79.6641V39.1602H95.1777V45.9902H81.6953V49.6719H95.7109V51.3223H88.373V55.5879H97.793ZM114.145 43.5527C114.119 47.666 116.938 51.8301 120.264 53.3281L119.045 54.9023C116.48 53.6455 114.259 50.9922 113.18 47.7676C112.126 51.1826 109.904 54.0264 107.264 55.3594L105.994 53.6836C109.346 52.1348 112.139 47.8438 112.164 43.5527V39.4395H114.145V43.5527ZM124.732 37.4844V60.1074H122.727V37.4844H124.732ZM140.703 39.8457C140.678 46.3711 138.316 52.3887 130.166 56.375L129.049 54.7754C133.276 52.7441 135.892 50.1416 137.326 47.082L129.48 47.8438L129.15 46.0664L137.961 45.4824C138.367 44.2256 138.608 42.8926 138.697 41.4961H130.293V39.8457H140.703ZM147.254 37.4844V60.0566H145.248V37.4844H147.254ZM169.318 44.3398V45.9395H153.855V38.3223H155.836V44.3398H169.318ZM171.705 49.0117V50.6367H151.037V49.0117H171.705ZM169.445 57.8477V59.498H153.729V52.9473H155.709V57.8477H169.445ZM199.381 37.4844V60.0566H197.477V37.4844H199.381ZM194.633 38.0938V58.9141H192.729V48.377H187.955C186.571 51.0049 184.4 53.3281 181.252 55.1816L180.084 53.7344C184.997 50.8271 187.46 46.752 187.828 42.0293H181.049V40.3789H189.809C189.796 42.6006 189.44 44.7461 188.691 46.752H192.729V38.0938H194.633ZM215.098 39.2363C218.424 39.2617 220.785 42.3086 220.811 47.1074C220.785 51.9062 218.424 54.9531 215.098 54.9531C211.746 54.9531 209.41 51.9062 209.41 47.1074C209.41 42.3086 211.746 39.2617 215.098 39.2363ZM215.098 41.0137C212.863 41.0391 211.289 43.4258 211.289 47.1074C211.289 50.7891 212.863 53.1758 215.098 53.1758C217.357 53.1758 218.881 50.7891 218.881 47.1074C218.881 43.4258 217.357 41.0391 215.098 41.0137ZM226.523 37.4844V46.498H230.307V48.2246H226.523V60.0566H224.543V37.4844H226.523ZM250.162 37.5098V53.9121H248.182V37.5098H250.162ZM250.873 57.8984V59.5742H235.359V52.2617H237.365V57.8984H250.873ZM234.953 39.1855V47.8438C238.939 47.8691 242.164 47.6533 245.668 46.8789L245.947 48.5547C242.24 49.3164 238.914 49.5703 234.775 49.5703H232.947V39.1855H234.953ZM257.703 56.2988L255.723 63.2051H253.844L255.24 56.2988H257.703ZM666.949 37.8906C671.977 37.8906 674.922 39.2617 674.922 41.7754C674.922 44.3398 671.977 45.7109 666.949 45.7363C661.922 45.7109 658.951 44.3398 658.951 41.7754C658.951 39.2617 661.922 37.8906 666.949 37.8906ZM666.949 39.3887C663.191 39.3887 661.008 40.3027 661.033 41.7754C661.008 43.3496 663.191 44.2129 666.949 44.2129C670.682 44.2129 672.891 43.3496 672.891 41.7754C672.891 40.3027 670.682 39.3887 666.949 39.3887ZM677.232 47.2598V48.8848H656.666V47.2598H677.232ZM674.592 50.8398V55.8926H661.186V58.2285H675.277V59.8027H659.205V54.4199H672.637V52.3633H659.154V50.8398H674.592ZM693.355 42.207C693.355 44.8984 695.641 47.3867 698.967 48.377L698.027 49.9004C695.425 49.126 693.394 47.4502 692.416 45.2793C691.426 47.666 689.331 49.4814 686.652 50.3574L685.662 48.7832C689.014 47.7676 691.4 45.1777 691.4 42.207V41.7754H686.297V40.125H691.4V37.3828H693.406V40.125H698.459V41.7754H693.355V42.207ZM703.309 37.4844V43.0703H706.711V44.7461H703.309V50.6113H701.328V37.4844H703.309ZM703.715 51.8301V53.4551H697.316C697.646 55.8164 700.96 57.8477 704.578 58.4316L703.842 59.9805C700.528 59.4346 697.532 57.7969 696.25 55.5371C694.955 57.7842 691.984 59.3838 688.709 59.9551L687.947 58.4316C691.591 57.8477 694.866 55.8545 695.209 53.4551H688.836V51.8301H703.715ZM726.236 39.7695V42.0293C726.211 44.7969 726.211 47.8945 725.398 52.4395L723.367 52.2109C724.23 47.8945 724.23 44.7207 724.23 42.0293V41.4199H710.316V39.7695H726.236ZM728.699 55.207V56.8574H708.133V55.207H716.207V47.1328H718.162V55.207H728.699ZM744.771 52.6426C744.771 54.6357 745.838 56.7559 747.996 57.9746C750.129 56.6416 751.271 54.3945 751.271 52.6426V51.3984H753.227V52.6426C753.227 54.9531 754.928 57.2891 757.822 58.2793L756.832 59.752C754.572 58.9521 752.985 57.3779 752.211 55.4863C751.513 57.3145 750.129 59.041 748.047 59.9297C745.851 59.0918 744.454 57.4287 743.781 55.5371C742.981 57.3652 741.42 58.9395 739.262 59.752L738.246 58.2793C741.09 57.2129 742.816 54.8008 742.842 52.6426V51.3984H744.771V52.6426ZM755.766 37.5098V50.4082H753.785V37.5098H755.766ZM743.578 38.8301C747.006 38.8301 749.494 40.9629 749.494 44.1113C749.494 47.209 747.006 49.3418 743.578 49.3418C740.15 49.3418 737.662 47.209 737.662 44.1113C737.662 40.9629 740.15 38.8301 743.578 38.8301ZM743.578 40.5312C741.268 40.5059 739.592 42.0039 739.617 44.1113C739.592 46.1934 741.268 47.666 743.578 47.6914C745.863 47.666 747.539 46.1934 747.539 44.1113C747.539 42.0039 745.863 40.5059 743.578 40.5312ZM765.668 39.2363C768.74 39.2617 770.949 41.8896 771.279 46.1172H776.332V37.4844H778.312V60.1074H776.332V47.7676H771.305C771.063 52.1855 768.816 54.9531 765.668 54.9531C762.342 54.9531 760.006 51.9062 760.006 47.1074C760.006 42.3086 762.342 39.2617 765.668 39.2363ZM765.668 41.0137C763.434 41.0391 761.91 43.4258 761.91 47.1074C761.91 50.7891 763.434 53.1758 765.668 53.1758C767.877 53.1758 769.426 50.7891 769.426 47.1074C769.426 43.4258 767.877 41.0391 765.668 41.0137ZM802.738 55.4863V57.1621H782.07V55.4863H787.199V49.3926C785.27 48.3896 784.102 46.7646 784.102 44.7207C784.102 41.2168 787.529 38.9316 792.354 38.9062C797.178 38.9316 800.605 41.2168 800.605 44.7207C800.605 46.7266 799.476 48.3389 797.609 49.3418V55.4863H802.738ZM792.354 40.5566C788.646 40.5312 786.031 42.207 786.031 44.7207C786.031 47.2344 788.646 48.9355 792.354 48.9355C796.035 48.9355 798.676 47.2344 798.676 44.7207C798.676 42.207 796.035 40.5312 792.354 40.5566ZM789.154 55.4863H795.604V50.1035C794.626 50.3701 793.534 50.5098 792.354 50.5098C791.198 50.5098 790.119 50.3828 789.154 50.1289V55.4863ZM806.928 58.1523C806.039 58.1523 805.277 57.416 805.303 56.502C805.277 55.6133 806.039 54.877 806.928 54.877C807.816 54.877 808.553 55.6133 808.553 56.502C808.553 57.416 807.816 58.1523 806.928 58.1523ZM819.141 39.6426L817.16 46.5488H815.281L816.678 39.6426H819.141ZM814.316 39.6426L812.336 46.5488H810.457L811.854 39.6426H814.316Z" fill="black"/>
<path d="M273.166 38.8555C276.695 38.8555 279.234 42.0547 279.26 47.082C279.234 52.1602 276.695 55.334 273.166 55.334C269.637 55.334 267.047 52.1602 267.072 47.082C267.047 42.0547 269.637 38.8555 273.166 38.8555ZM273.166 41.7754C271.389 41.7754 270.195 43.6543 270.195 47.082C270.195 50.5352 271.389 52.3887 273.166 52.3887C274.969 52.3887 276.137 50.5352 276.162 47.082C276.137 43.6543 274.969 41.7754 273.166 41.7754ZM285.176 37.2305V45.9395H288.578V48.6309H285.176V60.3359H281.926V37.2305H285.176ZM308.764 37.2305V60.3867H305.488V37.2305H308.764ZM296.221 38.8555C299.699 38.8555 302.289 42.0547 302.289 47.082C302.289 52.1602 299.699 55.334 296.221 55.334C292.666 55.334 290.076 52.1602 290.102 47.082C290.076 42.0547 292.666 38.8555 296.221 38.8555ZM296.221 41.7754C294.418 41.7754 293.225 43.6543 293.225 47.082C293.225 50.5352 294.418 52.3887 296.221 52.3887C297.973 52.3887 299.166 50.5352 299.166 47.082C299.166 43.6543 297.973 41.7754 296.221 41.7754ZM330.117 37.2305V46.0918H333.393V48.7578H330.117V60.2852H326.867V37.2305H330.117ZM323.947 39.5918C323.922 46.498 321.23 52.4902 313.461 56.2988L311.633 53.8105C317.104 51.0684 320.037 47.3867 320.646 42.2324H312.953V39.5918H323.947ZM352.512 40.2773C352.512 43.6543 355.508 47.2852 360.738 48.1738L359.316 50.8652C355.292 50.0654 352.296 47.8057 350.811 44.8223C349.274 47.7803 346.278 50.0527 342.279 50.8652L340.883 48.1738C346.012 47.2598 349.033 43.6289 349.059 40.2773V38.6016H352.512V40.2773ZM361.5 54.8262V57.4922H340.35V54.8262H361.5ZM374.982 40.2773C374.982 43.6543 377.979 47.2852 383.209 48.1738L381.787 50.8652C377.763 50.0654 374.767 47.8057 373.281 44.8223C371.745 47.7803 368.749 50.0527 364.75 50.8652L363.354 48.1738C368.482 47.2598 371.504 43.6289 371.529 40.2773V38.6016H374.982V40.2773ZM383.971 54.8262V57.4922H362.82V54.8262H383.971ZM406.441 55.1055V57.7715H385.291V55.1055H394.203V51.627H387.729V43.8574H400.805V41.3184H387.703V38.7285H404.004V46.3965H390.979V48.9863H404.537V51.627H397.428V55.1055H406.441ZM431.984 37.2305V46.2695H435.387V48.9355H431.984V60.3359H428.785V37.2305H431.984ZM427.211 40.6836V43.2734H413.627V40.6836H418.857V37.5859H422.107V40.6836H427.211ZM420.482 44.5684C423.859 44.5684 426.373 46.8535 426.373 50.0781C426.373 53.3027 423.859 55.5879 420.482 55.5879C417.08 55.5879 414.566 53.3027 414.566 50.0781C414.566 46.8535 417.08 44.5684 420.482 44.5684ZM420.482 47.1836C418.857 47.209 417.664 48.3008 417.664 50.0781C417.664 51.8809 418.857 52.9473 420.482 52.9219C422.107 52.9473 423.275 51.8809 423.275 50.0781C423.275 48.3008 422.107 47.209 420.482 47.1836ZM455.268 39.2363V41.4199C455.268 44.3145 455.268 47.5645 454.328 52.4648L451.078 52.1348C451.954 47.7676 451.992 44.5176 452.018 41.8008H438.408V39.2363H455.268ZM457.299 54.877V57.5176H436.225V54.877H443.766V46.9297H446.99V54.877H457.299ZM484.035 37.2559V50.0527H480.785V37.2559H484.035ZM473.549 40.2773C473.523 43.0195 475.199 45.7363 478.982 46.7773L477.434 49.3418C474.768 48.5547 472.927 46.9551 471.873 44.8984C470.819 47.1328 468.928 48.8975 466.16 49.7227L464.611 47.1836C468.471 46.0156 470.172 43.1465 470.172 40.2773V38.043H473.549V40.2773ZM484.162 51.0938V53.6582H481.395V57.4922H484.365V60.082H468.09V57.4922H471.086V53.6582H468.293V51.0938H484.162ZM474.285 57.4922H478.195V53.6582H474.285V57.4922ZM493.531 38.8555C496.654 38.8555 498.978 41.4326 499.447 45.584H503.459V37.2305H506.658V60.3867H503.459V48.1738H499.473C499.13 52.6172 496.756 55.334 493.531 55.334C490.027 55.334 487.514 52.1602 487.539 47.082C487.514 42.0547 490.027 38.8555 493.531 38.8555ZM493.531 41.7754C491.805 41.7754 490.611 43.6543 490.637 47.082C490.611 50.5352 491.805 52.3887 493.531 52.3887C495.283 52.3887 496.426 50.5352 496.426 47.082C496.426 43.6543 495.283 41.7754 493.531 41.7754ZM527.859 37.2305V46.2695H531.262V48.9355H527.859V60.3359H524.66V37.2305H527.859ZM523.086 40.6836V43.2734H509.502V40.6836H514.732V37.5859H517.982V40.6836H523.086ZM516.357 44.5684C519.734 44.5684 522.248 46.8535 522.248 50.0781C522.248 53.3027 519.734 55.5879 516.357 55.5879C512.955 55.5879 510.441 53.3027 510.441 50.0781C510.441 46.8535 512.955 44.5684 516.357 44.5684ZM516.357 47.1836C514.732 47.209 513.539 48.3008 513.539 50.0781C513.539 51.8809 514.732 52.9473 516.357 52.9219C517.982 52.9473 519.15 51.8809 519.15 50.0781C519.15 48.3008 517.982 47.209 516.357 47.1836ZM550.863 43.5273V46.0664H534.715V38.043H537.939V43.5273H550.863ZM553.225 48.5547V51.0938H532.074V48.5547H553.225ZM551.016 57.2383V59.8281H534.512V52.9727H537.762V57.2383H551.016ZM567.012 38.4746C568.853 38.4746 570.465 39.1475 571.582 40.2773H576.812V37.2305H580.037V50.7637H576.812V47.9961H571.557C570.439 49.1133 568.84 49.7861 567.012 49.7734C563.508 49.7988 560.842 47.3867 560.867 44.1367C560.842 40.8359 563.508 38.4746 567.012 38.4746ZM567.012 41.2422C565.209 41.2422 563.914 42.3086 563.939 44.1367C563.914 45.9141 565.209 47.0566 567.012 47.0312C568.764 47.0566 570.033 45.9141 570.033 44.1367C570.033 42.3086 568.764 41.2422 567.012 41.2422ZM572.141 51.2461C577.041 51.2461 580.088 52.9219 580.113 55.791C580.088 58.6602 577.041 60.3359 572.141 60.3359C567.266 60.3359 564.193 58.6602 564.193 55.791C564.193 52.9219 567.266 51.2461 572.141 51.2461ZM572.141 53.709C569.068 53.709 567.367 54.3945 567.367 55.791C567.367 57.1367 569.068 57.8223 572.141 57.8223C575.264 57.8223 576.939 57.1367 576.939 55.791C576.939 54.3945 575.264 53.709 572.141 53.709ZM572.979 42.8418C573.055 43.248 573.105 43.6924 573.105 44.1367C573.105 44.5811 573.055 45 572.979 45.4062H576.812V42.8418H572.979ZM589.406 38.8555C592.529 38.8555 594.853 41.4326 595.322 45.584H599.334V37.2305H602.533V60.3867H599.334V48.1738H595.348C595.005 52.6172 592.631 55.334 589.406 55.334C585.902 55.334 583.389 52.1602 583.414 47.082C583.389 42.0547 585.902 38.8555 589.406 38.8555ZM589.406 41.7754C587.68 41.7754 586.486 43.6543 586.512 47.082C586.486 50.5352 587.68 52.3887 589.406 52.3887C591.158 52.3887 592.301 50.5352 592.301 47.082C592.301 43.6543 591.158 41.7754 589.406 41.7754ZM623.76 39.0332C623.76 41.75 626.527 44.7715 631.834 45.4316L630.564 48.0469C626.527 47.4629 623.569 45.5967 622.059 43.0957C620.535 45.5967 617.603 47.4629 613.604 48.0469L612.309 45.4316C617.564 44.7715 620.357 41.75 620.357 39.0332V37.916H623.76V39.0332ZM632.57 49.7988V52.4395H623.582V60.3359H620.383V52.4395H611.496V49.7988H632.57ZM640.416 38.2207C643.374 38.1953 645.723 39.8838 646.357 42.3594H650.217V37.2305H653.441V49.6465H650.217V44.9492H646.383C645.773 47.4883 643.399 49.2148 640.416 49.2148C636.861 49.2148 634.246 46.9043 634.271 43.6797C634.246 40.5059 636.861 38.1953 640.416 38.2207ZM640.416 40.9121C638.613 40.8867 637.318 41.9531 637.344 43.6797C637.318 45.4062 638.613 46.498 640.416 46.498C642.168 46.498 643.438 45.4062 643.438 43.6797C643.438 41.9531 642.168 40.8867 640.416 40.9121ZM641.229 50.6621V52.8965H650.217V50.6621H653.441V60.082H638.029V50.6621H641.229ZM641.229 57.4668H650.217V55.3848H641.229V57.4668Z" fill="url(#paint0_linear_497_824)"/>
<defs>
<linearGradient id="paint0_linear_497_824" x1="238.496" y1="49" x2="715.168" y2="49" gradientUnits="userSpaceOnUse">
<stop stop-color="#3182F6"/>
<stop offset="1" stop-color="#A009FF"/>
</linearGradient>
</defs>
</svg>
