<svg width="840" height="98" viewBox="0 0 840 98" fill="none" xmlns="http://www.w3.org/2000/svg">
<rect width="840" height="98" rx="49" fill="white"/>
<path d="M104.356 46.498L106.337 39.5918H108.216L106.819 46.498H104.356ZM109.181 46.498L111.161 39.5918H113.04L111.644 46.498H109.181ZM136.272 48.7578V50.3828H115.706V48.7578H124.999V46.0156H118.321V38.3984H133.733V40.0488H120.302V44.3652H133.937V46.0156H126.979V48.7578H136.272ZM133.759 52.5918V60.2344H131.778V54.2168H117.991V52.5918H133.759ZM146.124 43.5527C146.124 47.6406 148.739 51.7539 152.015 53.252L150.821 54.877C148.257 53.5566 146.137 50.8525 145.134 47.6406C144.131 51.0176 142.011 53.9121 139.446 55.2832L138.151 53.6836C141.452 52.0586 144.093 47.7168 144.093 43.5527V39.4395H146.124V43.5527ZM156.89 37.4844V60.1074H154.909V46.8281H149.552V45.2031H154.909V37.4844H156.89ZM178.116 37.4844V46.6758H181.772V48.3516H178.116V60.0566H176.136V37.4844H178.116ZM172.276 39.9219C172.276 46.3203 169.28 52.1348 161.917 55.7656L160.8 54.1914C166.64 51.2842 169.813 46.9424 170.271 41.5977H161.841V39.9219H172.276ZM210.21 48.0469V49.6973H200.892V52.1094C205.157 52.2871 207.671 53.6836 207.696 56.0703C207.671 58.584 204.776 60.0059 199.927 60.0059C195.026 60.0059 192.132 58.584 192.132 56.0703C192.132 53.6836 194.633 52.2871 198.937 52.1094V49.6973H189.644V48.0469H210.21ZM199.927 53.6328C196.296 53.6582 194.138 54.5469 194.163 56.0703C194.138 57.5684 196.296 58.457 199.927 58.457C203.507 58.457 205.69 57.5684 205.69 56.0703C205.69 54.5469 203.507 53.6582 199.927 53.6328ZM208.382 38.5508V40.1758H201.222C201.349 42.7148 205.081 44.6826 209.067 45.1016L208.331 46.6758C204.637 46.2314 201.171 44.5811 199.927 42.0547C198.695 44.5811 195.242 46.2314 191.522 46.6758L190.812 45.1016C194.722 44.6826 198.479 42.7148 198.632 40.1758H191.522V38.5508H208.382ZM232.782 55.4863V57.1621H212.114V55.4863H217.243V49.3926C215.313 48.3896 214.146 46.7646 214.146 44.7207C214.146 41.2168 217.573 38.9316 222.397 38.9062C227.222 38.9316 230.649 41.2168 230.649 44.7207C230.649 46.7266 229.52 48.3389 227.653 49.3418V55.4863H232.782ZM222.397 40.5566C218.69 40.5312 216.075 42.207 216.075 44.7207C216.075 47.2344 218.69 48.9355 222.397 48.9355C226.079 48.9355 228.72 47.2344 228.72 44.7207C228.72 42.207 226.079 40.5312 222.397 40.5566ZM219.198 55.4863H225.647V50.1035C224.67 50.3701 223.578 50.5098 222.397 50.5098C221.242 50.5098 220.163 50.3828 219.198 50.1289V55.4863ZM252.054 37.4844V46.8027H255.837V48.4531H252.054V60.0566H250.073V37.4844H252.054ZM247.89 41.1152V42.7656H234.458V41.1152H240.272V37.7637H242.253V41.1152H247.89ZM241.288 44.6445C244.487 44.6445 246.798 46.7773 246.823 49.8242C246.798 52.8711 244.487 55.0039 241.288 55.0039C238.063 55.0039 235.728 52.8711 235.753 49.8242C235.728 46.7773 238.063 44.6445 241.288 44.6445ZM241.288 46.3203C239.181 46.3203 237.632 47.793 237.657 49.8242C237.632 51.8809 239.181 53.3281 241.288 53.3027C243.37 53.3281 244.894 51.8809 244.919 49.8242C244.894 47.793 243.37 46.3203 241.288 46.3203ZM274.524 37.4844V46.4219H278.308V48.0977H274.524V60.1074H272.544V37.4844H274.524ZM268.583 39.6934V41.3438H260.026V52.7695C264.114 52.7695 267.009 52.5791 270.36 51.957L270.614 53.6836C267.085 54.3184 264.114 54.4453 259.823 54.4453H258.046V39.6934H268.583ZM297.782 44.3398V45.9395H282.319V38.3223H284.3V44.3398H297.782ZM300.169 49.0117V50.6367H279.501V49.0117H300.169ZM297.909 57.8477V59.498H282.192V52.9473H284.173V57.8477H297.909ZM321.319 37.4844V60.0566H319.39V37.4844H321.319ZM316.698 38.043V58.8887H314.794V47.793H309.868V46.1172H314.794V38.043H316.698ZM311.392 40.2773V41.9277H304.815V52.9473C308.065 52.9346 310.122 52.7949 312.56 52.2617L312.763 53.9629C310.147 54.4961 307.938 54.5977 304.308 54.623H302.886V40.2773H311.392ZM642.536 39.1855V49.1641H632.101V39.1855H642.536ZM634.056 40.7852V47.5391H640.606V40.7852H634.056ZM648.782 37.4844V43.375H652.185V45.0508H648.782V50.8652H646.802V37.4844H648.782ZM648.782 52.084V60.1074H646.802V53.6836H634.005V52.084H648.782ZM665.007 39.1855V49.1641H654.571V39.1855H665.007ZM656.526 40.7852V47.5391H663.077V40.7852H656.526ZM671.253 37.4844V43.375H674.655V45.0508H671.253V50.8652H669.272V37.4844H671.253ZM671.253 52.084V60.1074H669.272V53.6836H656.476V52.084H671.253ZM687.351 41.3945V43.0195H676.026V41.3945H680.724V38.1699H682.704V41.3945H687.351ZM681.688 44.543C684.532 44.543 686.563 46.6758 686.589 49.6719C686.563 52.6934 684.532 54.8516 681.688 54.8516C678.87 54.8516 676.839 52.6934 676.839 49.6719C676.839 46.6758 678.87 44.543 681.688 44.543ZM681.688 46.2188C679.911 46.2441 678.616 47.6914 678.616 49.6719C678.616 51.6777 679.911 53.125 681.688 53.0996C683.491 53.125 684.812 51.6777 684.812 49.6719C684.812 47.6914 683.491 46.2441 681.688 46.2188ZM695.298 37.4844V60.0566H693.394V48.6562H690.397V58.9395H688.519V38.043H690.397V47.0059H693.394V37.4844H695.298ZM719.216 55.4863V57.1621H698.548V55.4863H703.677V49.3926C701.747 48.3896 700.579 46.7646 700.579 44.7207C700.579 41.2168 704.007 38.9316 708.831 38.9062C713.655 38.9316 717.083 41.2168 717.083 44.7207C717.083 46.7266 715.953 48.3389 714.087 49.3418V55.4863H719.216ZM708.831 40.5566C705.124 40.5312 702.509 42.207 702.509 44.7207C702.509 47.2344 705.124 48.9355 708.831 48.9355C712.513 48.9355 715.153 47.2344 715.153 44.7207C715.153 42.207 712.513 40.5312 708.831 40.5566ZM705.632 55.4863H712.081V50.1035C711.104 50.3701 710.012 50.5098 708.831 50.5098C707.676 50.5098 706.597 50.3828 705.632 50.1289V55.4863ZM723.405 58.1523C722.517 58.1523 721.755 57.416 721.78 56.502C721.755 55.6133 722.517 54.877 723.405 54.877C724.294 54.877 725.03 55.6133 725.03 56.502C725.03 57.416 724.294 58.1523 723.405 58.1523ZM735.618 39.6426L733.638 46.5488H731.759L733.155 39.6426H735.618ZM730.794 39.6426L728.813 46.5488H726.935L728.331 39.6426H730.794Z" fill="black"/>
<path d="M337.138 38.8555C340.261 38.8555 342.584 41.4326 343.054 45.584H347.065V37.2305H350.265V60.3867H347.065V48.1738H343.079C342.736 52.6172 340.362 55.334 337.138 55.334C333.634 55.334 331.12 52.1602 331.146 47.082C331.12 42.0547 333.634 38.8555 337.138 38.8555ZM337.138 41.7754C335.411 41.7754 334.218 43.6543 334.243 47.082C334.218 50.5352 335.411 52.3887 337.138 52.3887C338.89 52.3887 340.032 50.5352 340.032 47.082C340.032 43.6543 338.89 41.7754 337.138 41.7754ZM373.522 57.3398V59.9297H356.841V52.541H360.091V57.3398H373.522ZM372.913 37.2559V53.9629H369.739V45.9395H366.54V43.3496H369.739V37.2559H372.913ZM359.659 38.957V41.5723H356.765V48.0977C357.793 48.0342 358.745 47.9326 359.812 47.6914L360.065 50.3066C358.237 50.7129 356.79 50.6875 354.733 50.6875H353.616V38.957H359.659ZM367.276 38.957V41.5723H364.001V48.0977C365.639 48.0596 366.654 47.9453 367.81 47.666L368.089 50.2812C366.438 50.6621 365.067 50.6875 362.046 50.6875H360.776V38.957H367.276ZM388.985 42.5117C388.985 44.7969 390.306 47.082 393.226 48.0469L391.778 50.4844C389.734 49.7607 388.338 48.4277 387.513 46.7773C386.7 48.5928 385.291 50.0527 383.171 50.8398L381.698 48.4531C384.593 47.3613 385.913 44.9746 385.913 42.5117V42.3848H382.333V39.8457H385.913V37.459H388.985V39.8457H392.54V42.3848H388.985V42.5117ZM401.554 37.2559V51.373H398.481V45.6602H396.628V51.3223H393.581V37.6113H396.628V43.0449H398.481V37.2559H401.554ZM401.554 52.3633V60.3359H398.329V54.9785H385.583V52.3633H401.554ZM414.706 37.5605C420.013 37.5605 423.085 38.957 423.11 41.4961C423.085 44.0605 420.013 45.457 414.706 45.457C409.374 45.457 406.276 44.0605 406.276 41.4961C406.276 38.957 409.374 37.5605 414.706 37.5605ZM414.706 39.9219C411.304 39.9219 409.653 40.4805 409.679 41.4961C409.653 42.6387 411.304 43.0703 414.706 43.0703C418.134 43.0703 419.759 42.6387 419.759 41.4961C419.759 40.4805 418.134 39.9219 414.706 39.9219ZM425.243 46.5488V49.1133H404.169V46.5488H425.243ZM422.679 50.459V56.3496H409.806V57.7461H423.288V60.1836H406.632V54.0898H419.479V52.8203H406.606V50.459H422.679ZM439.005 38.8555C442.128 38.8555 444.451 41.4326 444.921 45.584H448.933V37.2305H452.132V60.3867H448.933V48.1738H444.946C444.604 52.6172 442.229 55.334 439.005 55.334C435.501 55.334 432.987 52.1602 433.013 47.082C432.987 42.0547 435.501 38.8555 439.005 38.8555ZM439.005 41.7754C437.278 41.7754 436.085 43.6543 436.11 47.082C436.085 50.5352 437.278 52.3887 439.005 52.3887C440.757 52.3887 441.899 50.5352 441.899 47.082C441.899 43.6543 440.757 41.7754 439.005 41.7754ZM475.136 50.6875V53.1504H458.048V50.6875H464.979V48.8848H468.229V50.6875H475.136ZM466.554 53.8359C470.794 53.8359 473.358 55.0293 473.358 57.0859C473.358 59.2188 470.794 60.3613 466.554 60.3613C462.288 60.3613 459.724 59.2188 459.749 57.0859C459.724 55.0293 462.288 53.8359 466.554 53.8359ZM466.554 56.0703C464.37 56.0957 463.202 56.375 463.202 57.0859C463.202 57.8477 464.37 58.1523 466.554 58.1523C468.687 58.1523 469.854 57.8477 469.854 57.0859C469.854 56.375 468.687 56.0957 466.554 56.0703ZM461.552 38.1699V40.6836H458.632V45.5332C459.66 45.4951 460.65 45.3809 461.78 45.1523L461.983 47.6914C460.028 48.0723 458.581 48.0977 456.601 48.0977H455.483V38.1699H461.552ZM469.093 38.1699V40.6836H465.817V45.5586C467.455 45.5205 468.483 45.4189 469.677 45.1523L469.905 47.6914C468.306 48.0723 466.909 48.0977 463.862 48.0977H462.618V38.1699H469.093ZM474.78 37.2305V49.5449H471.606V44.1621H468.458V41.6992H471.606V37.2305H474.78ZM497.606 37.2305V60.3359H494.56V37.2305H497.606ZM492.681 37.7383V59.3203H489.659V48.707H485.876C484.556 51.3477 482.41 53.6328 479.122 55.5371L477.294 53.252C481.953 50.4844 484.01 47.1201 484.454 42.5879H478.563V39.9727H487.679C487.666 42.1689 487.438 44.2383 486.892 46.1426H489.659V37.7383H492.681ZM525.358 37.2305V49.2148H522.134V37.2305H525.358ZM516.751 50.1289V56.1211H511.876V57.6953C514.517 57.6699 516.167 57.5684 518.071 57.1875L518.376 59.5742C516.015 60.0312 514.009 60.082 510.276 60.082H508.753V53.8867H513.552V52.541H508.753V50.1289H516.751ZM525.358 50.1289V60.2598H522.185V52.7188H517.614V50.1289H525.358ZM512.612 38.1699C516.116 38.1445 518.782 40.3789 518.782 43.4766C518.782 46.5742 516.116 48.7832 512.612 48.7832C509.032 48.7832 506.392 46.5742 506.392 43.4766C506.392 40.3789 509.032 38.1445 512.612 38.1699ZM512.612 40.8359C510.835 40.8105 509.515 41.8008 509.54 43.4766C509.515 45.1016 510.835 46.168 512.612 46.168C514.364 46.168 515.659 45.1016 515.659 43.4766C515.659 41.8008 514.364 40.8105 512.612 40.8359ZM541.964 40.6836V43.2734H528.558V40.6836H533.636V37.5605H536.937V40.6836H541.964ZM535.286 44.5684C538.435 44.5684 540.847 46.8535 540.872 50.0781C540.847 53.2773 538.435 55.5879 535.286 55.5879C532.062 55.5879 529.7 53.2773 529.7 50.0781C529.7 46.8535 532.062 44.5684 535.286 44.5684ZM535.286 47.2852C533.712 47.3105 532.62 48.3262 532.62 50.0781C532.62 51.8301 533.712 52.8457 535.286 52.8203C536.835 52.8457 537.927 51.8301 537.952 50.0781C537.927 48.3516 536.835 47.3105 535.286 47.2852ZM548.007 37.2305V60.3359H544.808V53.1758H541.608V50.5859H544.808V47.4629H541.583V44.8477H544.808V37.2305H548.007ZM557.198 38.8555C560.728 38.8555 563.267 42.0547 563.292 47.082C563.267 52.1602 560.728 55.334 557.198 55.334C553.669 55.334 551.079 52.1602 551.104 47.082C551.079 42.0547 553.669 38.8555 557.198 38.8555ZM557.198 41.7754C555.421 41.7754 554.228 43.6543 554.228 47.082C554.228 50.5352 555.421 52.3887 557.198 52.3887C559.001 52.3887 560.169 50.5352 560.194 47.082C560.169 43.6543 559.001 41.7754 557.198 41.7754ZM572.483 42.5879V45.3047H569.208V49.418H572.483V52.0586H569.208V60.3359H565.958V37.2305H569.208V42.5879H572.483ZM597.772 37.1797V42.207H600.896V44.7969H597.772V49.6973H594.522V37.1797H597.772ZM597.772 50.6367V56.4766H585.661V57.7969H598.433V60.1836H582.487V54.2676H594.548V52.9727H582.437V50.6367H597.772ZM593.151 38.957V41.4199H579.44V38.957H584.696V37.0781H587.921V38.957H593.151ZM586.296 41.9785C589.749 41.9785 591.983 43.4512 591.983 45.7617C591.983 48.123 589.749 49.5449 586.296 49.5449C582.843 49.5449 580.558 48.123 580.558 45.7617C580.558 43.4512 582.843 41.9785 586.296 41.9785ZM586.296 44.2637C584.696 44.2637 583.706 44.7969 583.731 45.7617C583.706 46.752 584.696 47.2344 586.296 47.2344C587.896 47.2344 588.911 46.752 588.911 45.7617C588.911 44.7969 587.896 44.2637 586.296 44.2637ZM610.874 43.5273C610.874 47.2598 612.778 51.2461 616.663 52.8711L614.911 55.4102C612.182 54.2549 610.303 51.957 609.274 49.1387C608.221 52.1982 606.304 54.7373 603.587 55.9941L601.733 53.4297C605.567 51.7285 607.548 47.4375 607.548 43.5273V42.1055H602.647V39.4648H615.698V42.1055H610.874V43.5273ZM621.259 37.2305V60.3359H617.983V37.2305H621.259Z" fill="url(#paint0_linear_501_838)"/>
<defs>
<linearGradient id="paint0_linear_501_838" x1="103" y1="49" x2="737" y2="49" gradientUnits="userSpaceOnUse">
<stop stop-color="#3182F6"/>
<stop offset="1" stop-color="#A009FF"/>
</linearGradient>
</defs>
</svg>
