<svg width="874" height="164" viewBox="0 0 874 164" fill="none" xmlns="http://www.w3.org/2000/svg">
<rect width="874" height="164" rx="82" fill="white"/>
<path d="M106.082 68.2266V70.7656H102.215V87.4844C104.09 87.3477 105.945 87.1914 107.723 86.9766L107.879 89.2422C100.535 90.4141 92.2148 90.5312 86.082 90.5703L85.6914 87.9531L90.3789 87.9141V70.7656H86.5508V68.2266H106.082ZM112.996 64.4375V78.3828H118.816V80.9609H112.996V99.1641H109.949V64.4375H112.996ZM93.3477 87.875C95.2812 87.8359 97.293 87.7578 99.2852 87.6406V70.7656H93.3477V87.875ZM149.363 86.3125V99.2422H146.316V88.8906H126.004V86.3125H149.363ZM149.363 64.4766V84.5547H146.316V64.4766H149.363ZM125.965 66.4297V79.1641C131.199 79.1445 136.609 78.7539 142.371 77.5625L142.84 80.1406C136.707 81.3125 131.199 81.7422 125.691 81.7422H122.879V66.4297H125.965ZM172.566 69.5547C172.566 75.4922 179.363 80.8047 185.418 81.9375L184.012 84.5156C178.777 83.3047 173.25 79.5742 171.004 74.4375C168.758 79.5547 163.25 83.2852 157.996 84.5156L156.59 81.9375C162.605 80.7656 169.363 75.5312 169.363 69.5547V66.8984H172.566V69.5547ZM187.059 91.8984V94.4375H155.262V91.8984H187.059ZM221.59 80.5703V82.9922H189.793V80.5703H221.59ZM217.605 85.7656V93.1484H196.746V96.4688H218.738V98.6953H193.66V91.0391H214.559V88.0703H193.621V85.7656H217.605ZM217.488 65.4922V72.6797H196.98V75.7266H218.113V77.9531H193.934V70.5703H214.402V67.7188H193.816V65.4922H217.488ZM263.934 64.4766V86H261.004V76.5859H256.473V85.4531H253.543V65.0234H256.473V74.0469H261.004V64.4766H263.934ZM252.059 68.4219V70.9609H234.246V68.4219H241.668V64.5938H244.715V68.4219H252.059ZM243.191 72.7188C247.605 72.7188 250.613 75.0234 250.652 78.6562C250.613 82.2109 247.605 84.5938 243.191 84.5938C238.816 84.5938 235.73 82.2109 235.77 78.6562C235.73 75.0234 238.816 72.7188 243.191 72.7188ZM243.191 75.0234C240.418 75.0234 238.504 76.4297 238.504 78.6562C238.504 80.8438 240.418 82.2891 243.191 82.2891C245.965 82.2891 247.879 80.8438 247.879 78.6562C247.879 76.4297 245.965 75.0234 243.191 75.0234ZM246.746 88.2266C246.707 91.1953 248.328 94.2812 251.629 96.0391C254.91 94.125 256.59 90.7656 256.629 88.2266V86.9766H259.637V88.2266C259.598 91.625 262.254 95.0625 266.707 96.4297L265.262 98.7734C261.766 97.5625 259.305 95.1992 258.113 92.3672C257.039 95.1211 254.93 97.7578 251.668 99.0469C248.309 97.7969 246.199 95.3359 245.184 92.5234C243.895 95.2188 241.473 97.5625 238.152 98.7734L236.668 96.4297C241.004 94.9453 243.738 91.3906 243.738 88.2266V86.9766H246.746V88.2266ZM297.098 74.9844V77.4453H273.309V65.7266H276.355V74.9844H297.098ZM300.77 82.1719V84.6719H268.973V82.1719H300.77ZM297.293 95.7656V98.3047H273.113V88.2266H276.16V95.7656H297.293ZM333.309 64.4375V99.1641H330.34V64.4375H333.309ZM326.199 65.2969V97.3672H323.27V80.2969H315.691V77.7188H323.27V65.2969H326.199ZM318.035 68.7344V71.2734H307.918V88.2266C312.918 88.207 316.082 87.9922 319.832 87.1719L320.145 89.7891C316.121 90.6094 312.723 90.7656 307.137 90.8047H304.949V68.7344H318.035ZM366.199 80.7266V83.2266H355.457V92.2109H369.949V94.7891H338.152V92.2109H352.449V83.2266H342.215V67.2891H365.848V69.7891H345.301V80.7266H366.199Z" fill="black"/>
<path d="M393.621 72.1719C393.621 75.6875 395.652 79.2031 400.145 80.6875L397.918 84.4375C394.773 83.3242 392.625 81.2734 391.355 78.7344C390.105 81.5273 387.938 83.7734 384.676 84.9844L382.41 81.3125C386.863 79.6328 388.895 75.9609 388.895 72.1719V71.9766H383.387V68.0703H388.895V64.3984H393.621V68.0703H399.09V71.9766H393.621V72.1719ZM412.957 64.0859V85.8047H408.23V77.0156H405.379V85.7266H400.691V64.6328H405.379V72.9922H408.23V64.0859H412.957ZM412.957 87.3281V99.5938H407.996V91.3516H388.387V87.3281H412.957ZM455.926 64.0469V82.4844H450.965V64.0469H455.926ZM442.684 83.8906V93.1094H435.184V95.5312C439.246 95.4922 441.785 95.3359 444.715 94.75L445.184 98.4219C441.551 99.125 438.465 99.2031 432.723 99.2031H430.379V89.6719H437.762V87.6016H430.379V83.8906H442.684ZM455.926 83.8906V99.4766H451.043V87.875H444.012V83.8906H455.926ZM436.316 65.4922C441.707 65.4531 445.809 68.8906 445.809 73.6562C445.809 78.4219 441.707 81.8203 436.316 81.8203C430.809 81.8203 426.746 78.4219 426.746 73.6562C426.746 68.8906 430.809 65.4531 436.316 65.4922ZM436.316 69.5938C433.582 69.5547 431.551 71.0781 431.59 73.6562C431.551 76.1562 433.582 77.7969 436.316 77.7969C439.012 77.7969 441.004 76.1562 441.004 73.6562C441.004 71.0781 439.012 69.5547 436.316 69.5938ZM490.652 64.0469V99.5938H485.613V64.0469H490.652ZM479.988 67.7578C479.988 78.5391 476.199 87.4844 463.504 93.5L460.887 89.5156C470.066 85.1797 474.109 79.5547 474.91 71.6641H462.801V67.7578H479.988ZM524.207 73.7344V77.6406H499.363V65.2969H504.324V73.7344H524.207ZM527.84 81.4688V85.375H495.301V81.4688H527.84ZM524.441 94.8281V98.8125H499.051V88.2656H504.051V94.8281H524.441ZM548.934 66.5469C552.117 66.5469 554.773 68.3047 556.395 71.3516H564.207V64.0469H569.129V99.6719H564.207V86.3516H556.785C555.184 89.8672 552.371 91.8984 548.934 91.8984C543.543 91.8984 539.676 87.0156 539.715 79.2031C539.676 71.4688 543.543 66.5469 548.934 66.5469ZM548.934 71.0391C546.277 71.0391 544.441 73.9297 544.48 79.2031C544.441 84.5156 546.277 87.3672 548.934 87.3672C551.629 87.3672 553.387 84.5156 553.387 79.2031C553.387 73.9297 551.629 71.0391 548.934 71.0391ZM557.801 75.375C558.016 76.5469 558.152 77.8359 558.152 79.2031C558.152 80.3164 558.055 81.3711 557.918 82.3672H564.207V75.375H557.801ZM603.66 64.0859V90.0234H598.699V77.2891H592.879V73.2656H598.699V64.0859H603.66ZM604.52 94.9844V98.9688H580.066V87.7578H585.066V94.9844H604.52ZM587.137 71.0391C587.137 75.1406 589.637 79.5547 595.301 81.3906L592.84 85.3359C588.895 84.0664 586.199 81.4688 584.637 78.2266C583.074 81.8203 580.242 84.6719 576.043 86.0781L573.504 82.0156C579.363 80.1797 582.02 75.5312 582.059 71V70.4531H574.91V66.4688H594.207V70.4531H587.137V71.0391ZM638.035 64.0469V99.5938H632.996V64.0469H638.035ZM630.262 69.3984V73.3828H609.012V69.3984H617.098V64.5156H622.176V69.3984H630.262ZM619.715 75.3359C624.949 75.3359 628.855 78.8516 628.855 83.8125C628.855 88.7734 624.949 92.2891 619.715 92.2891C614.441 92.2891 610.535 88.7734 610.535 83.8125C610.535 78.8516 614.441 75.3359 619.715 75.3359ZM619.715 79.3594C617.098 79.3984 615.301 81.0781 615.301 83.8125C615.301 86.5859 617.098 88.2266 619.715 88.1875C622.293 88.2266 624.09 86.5859 624.09 83.8125C624.09 81.0781 622.293 79.3984 619.715 79.3594ZM681.824 64.0469V85.5312H676.824V64.0469H681.824ZM681.824 87.0547V99.2031H657.996V87.0547H681.824ZM662.918 90.9609V95.2188H676.941V90.9609H662.918ZM674.051 67.2109V71.1953H652.449V67.2109H660.77V63.7734H665.809V67.2109H674.051ZM663.309 72.2891C668.66 72.2891 672.254 74.8281 672.254 78.6562C672.254 82.6016 668.66 85.1016 663.309 85.1016C657.957 85.1016 654.324 82.6016 654.363 78.6562C654.324 74.8281 657.957 72.2891 663.309 72.2891ZM663.309 75.9609C660.73 75.9609 659.129 76.8984 659.129 78.6562C659.129 80.4531 660.73 81.4297 663.309 81.4297C665.848 81.4297 667.449 80.4531 667.488 78.6562C667.449 76.8984 665.848 75.9609 663.309 75.9609ZM719.129 77.9141V81.8203H686.629V77.9141H719.129ZM715.262 72.0547V75.9609H690.691V64.75H714.988V68.7344H695.652V72.0547H715.262ZM715.105 83.9297V93.2266H695.301V95.4141H716.043V99.2812H690.418V89.6719H710.184V87.6797H690.379V83.9297H715.105ZM731.004 66.5469C735.809 66.5469 739.383 70.5117 740.105 76.8984H746.277V64.0469H751.199V99.6719H746.277V80.8828H740.145C739.617 87.7188 735.965 91.8984 731.004 91.8984C725.613 91.8984 721.746 87.0156 721.785 79.2031C721.746 71.4688 725.613 66.5469 731.004 66.5469ZM731.004 71.0391C728.348 71.0391 726.512 73.9297 726.551 79.2031C726.512 84.5156 728.348 87.3672 731.004 87.3672C733.699 87.3672 735.457 84.5156 735.457 79.2031C735.457 73.9297 733.699 71.0391 731.004 71.0391ZM788.309 91.3516V95.4531H755.77V91.3516H763.035V82.6406C760.281 81 758.621 78.4805 758.621 75.3359C758.621 69.5938 764.246 65.7656 771.98 65.7656C779.676 65.7656 785.34 69.5938 785.379 75.3359C785.359 78.4023 783.738 80.9023 781.082 82.5625V91.3516H788.309ZM771.98 69.7109C766.902 69.7109 763.543 71.7422 763.543 75.3359C763.543 78.8125 766.902 80.9609 771.98 80.9609C777.02 80.9609 780.418 78.8125 780.457 75.3359C780.418 71.7422 777.02 69.7109 771.98 69.7109ZM767.957 91.3516H776.043V84.4375C774.773 84.6914 773.406 84.8281 771.98 84.8281C770.555 84.8281 769.207 84.7109 767.957 84.4375V91.3516Z" fill="url(#paint0_linear_568_849)"/>
<defs>
<linearGradient id="paint0_linear_568_849" x1="83.8629" y1="82" x2="1065.08" y2="81.9997" gradientUnits="userSpaceOnUse">
<stop stop-color="#3182F6"/>
<stop offset="1" stop-color="#A009FF"/>
</linearGradient>
</defs>
</svg>
