<svg width="770" height="198" viewBox="0 0 770 198" fill="none" xmlns="http://www.w3.org/2000/svg">
<g filter="url(#filter0_d_462_1132)">
<rect x="50" y="40" width="670" height="98" rx="49" fill="white" shape-rendering="crispEdges"/>
<path d="M117.917 86.7676L119.593 80.9238H121.183L120.001 86.7676H117.917ZM121.999 86.7676L123.675 80.9238H125.265L124.083 86.7676H121.999ZM144.923 88.6797V90.0547H127.521V88.6797H135.384V86.3594H129.733V79.9141H142.774V81.3105H131.409V84.9629H142.946V86.3594H137.06V88.6797H144.923ZM142.796 91.9238V98.3906H141.12V93.2988H129.454V91.9238H142.796ZM153.259 84.2754C153.259 87.7344 155.472 91.2148 158.243 92.4824L157.233 93.8574C155.063 92.7402 153.27 90.4521 152.421 87.7344C151.572 90.5918 149.778 93.041 147.608 94.2012L146.513 92.8477C149.306 91.4727 151.54 87.7988 151.54 84.2754V80.7949H153.259V84.2754ZM162.368 79.1406V98.2832H160.692V87.0469H156.159V85.6719H160.692V79.1406H162.368ZM180.329 79.1406V86.918H183.423V88.3359H180.329V98.2402H178.653V79.1406H180.329ZM175.388 81.2031C175.388 86.6172 172.853 91.5371 166.622 94.6094L165.677 93.2773C170.618 90.8174 173.304 87.1436 173.69 82.6211H166.558V81.2031H175.388ZM207.485 88.0781V89.4746H199.601V91.5156C203.21 91.666 205.337 92.8477 205.358 94.8672C205.337 96.9941 202.888 98.1973 198.784 98.1973C194.638 98.1973 192.188 96.9941 192.188 94.8672C192.188 92.8477 194.305 91.666 197.946 91.5156V89.4746H190.083V88.0781H207.485ZM198.784 92.8047C195.712 92.8262 193.886 93.5781 193.907 94.8672C193.886 96.1348 195.712 96.8867 198.784 96.8867C201.813 96.8867 203.661 96.1348 203.661 94.8672C203.661 93.5781 201.813 92.8262 198.784 92.8047ZM205.938 80.043V81.418H199.88C199.987 83.5664 203.146 85.2314 206.519 85.5859L205.896 86.918C202.77 86.542 199.837 85.1455 198.784 83.0078C197.742 85.1455 194.82 86.542 191.673 86.918L191.071 85.5859C194.38 85.2314 197.56 83.5664 197.688 81.418H191.673V80.043H205.938ZM226.585 94.373V95.791H209.097V94.373H213.437V89.2168C211.804 88.3682 210.815 86.9932 210.815 85.2637C210.815 82.2988 213.716 80.3652 217.798 80.3438C221.88 80.3652 224.78 82.2988 224.78 85.2637C224.78 86.9609 223.824 88.3252 222.245 89.1738V94.373H226.585ZM217.798 81.7402C214.661 81.7188 212.448 83.1367 212.448 85.2637C212.448 87.3906 214.661 88.8301 217.798 88.8301C220.913 88.8301 223.147 87.3906 223.147 85.2637C223.147 83.1367 220.913 81.7188 217.798 81.7402ZM215.091 94.373H220.548V89.8184C219.721 90.0439 218.797 90.1621 217.798 90.1621C216.82 90.1621 215.907 90.0547 215.091 89.8398V94.373ZM242.892 79.1406V87.0254H246.093V88.4219H242.892V98.2402H241.216V79.1406H242.892ZM239.368 82.2129V83.6094H228.003V82.2129H232.923V79.377H234.599V82.2129H239.368ZM233.782 85.1992C236.489 85.1992 238.444 87.0039 238.466 89.582C238.444 92.1602 236.489 93.9648 233.782 93.9648C231.054 93.9648 229.077 92.1602 229.099 89.582C229.077 87.0039 231.054 85.1992 233.782 85.1992ZM233.782 86.6172C231.999 86.6172 230.688 87.8633 230.71 89.582C230.688 91.3223 231.999 92.5469 233.782 92.5254C235.544 92.5469 236.833 91.3223 236.854 89.582C236.833 87.8633 235.544 86.6172 233.782 86.6172ZM261.905 79.1406V86.7031H265.106V88.1211H261.905V98.2832H260.229V79.1406H261.905ZM256.878 81.0098V82.4062H249.638V92.0742C253.097 92.0742 255.546 91.9131 258.382 91.3867L258.597 92.8477C255.61 93.3848 253.097 93.4922 249.466 93.4922H247.962V81.0098H256.878ZM281.585 84.9414V86.2949H268.501V79.8496H270.177V84.9414H281.585ZM283.604 88.8945V90.2695H266.116V88.8945H283.604ZM281.692 96.3711V97.7676H268.394V92.2246H270.069V96.3711H281.692ZM301.501 79.1406V98.2402H299.868V79.1406H301.501ZM297.591 79.6133V97.252H295.979V87.8633H291.812V86.4453H295.979V79.6133H297.591ZM293.101 81.5039V82.9004H287.536V92.2246C290.286 92.2139 292.026 92.0957 294.089 91.6445L294.261 93.084C292.048 93.5352 290.179 93.6211 287.106 93.6426H285.903V81.5039H293.101ZM573.3 80.5801V89.0234H564.47V80.5801H573.3ZM566.124 81.9336V87.6484H571.667V81.9336H566.124ZM578.585 79.1406V84.125H581.464V85.543H578.585V90.4629H576.909V79.1406H578.585ZM578.585 91.4941V98.2832H576.909V92.8477H566.081V91.4941H578.585ZM592.313 80.5801V89.0234H583.483V80.5801H592.313ZM585.138 81.9336V87.6484H590.681V81.9336H585.138ZM597.599 79.1406V84.125H600.478V85.543H597.599V90.4629H595.923V79.1406H597.599ZM597.599 91.4941V98.2832H595.923V92.8477H585.095V91.4941H597.599ZM611.22 82.4492V83.8242H601.638V82.4492H605.612V79.7207H607.288V82.4492H611.22ZM606.429 85.1133C608.835 85.1133 610.554 86.918 610.575 89.4531C610.554 92.0098 608.835 93.8359 606.429 93.8359C604.044 93.8359 602.325 92.0098 602.325 89.4531C602.325 86.918 604.044 85.1133 606.429 85.1133ZM606.429 86.5312C604.925 86.5527 603.829 87.7773 603.829 89.4531C603.829 91.1504 604.925 92.375 606.429 92.3535C607.954 92.375 609.071 91.1504 609.071 89.4531C609.071 87.7773 607.954 86.5527 606.429 86.5312ZM617.944 79.1406V98.2402H616.333V88.5938H613.798V97.2949H612.208V79.6133H613.798V87.1973H616.333V79.1406H617.944ZM638.183 94.373V95.791H620.694V94.373H625.034V89.2168C623.401 88.3682 622.413 86.9932 622.413 85.2637C622.413 82.2988 625.313 80.3652 629.396 80.3438C633.478 80.3652 636.378 82.2988 636.378 85.2637C636.378 86.9609 635.422 88.3252 633.843 89.1738V94.373H638.183ZM629.396 81.7402C626.259 81.7188 624.046 83.1367 624.046 85.2637C624.046 87.3906 626.259 88.8301 629.396 88.8301C632.511 88.8301 634.745 87.3906 634.745 85.2637C634.745 83.1367 632.511 81.7188 629.396 81.7402ZM626.688 94.373H632.146V89.8184C631.318 90.0439 630.395 90.1621 629.396 90.1621C628.418 90.1621 627.505 90.0547 626.688 89.8398V94.373ZM641.728 96.6289C640.976 96.6289 640.331 96.0059 640.353 95.2324C640.331 94.4805 640.976 93.8574 641.728 93.8574C642.479 93.8574 643.103 94.4805 643.103 95.2324C643.103 96.0059 642.479 96.6289 641.728 96.6289ZM652.062 80.9668L650.386 86.8105H648.796L649.978 80.9668H652.062ZM647.979 80.9668L646.304 86.8105H644.714L645.896 80.9668H647.979Z" fill="black"/>
<path d="M314.886 80.3008C317.528 80.3008 319.494 82.4814 319.892 85.9941H323.286V78.9258H325.993V98.5195H323.286V88.1855H319.913C319.623 91.9453 317.614 94.2441 314.886 94.2441C311.921 94.2441 309.794 91.5586 309.815 87.2617C309.794 83.0078 311.921 80.3008 314.886 80.3008ZM314.886 82.7715C313.425 82.7715 312.415 84.3613 312.437 87.2617C312.415 90.1836 313.425 91.752 314.886 91.752C316.368 91.752 317.335 90.1836 317.335 87.2617C317.335 84.3613 316.368 82.7715 314.886 82.7715ZM345.673 95.9414V98.1328H331.558V91.8809H334.308V95.9414H345.673ZM345.157 78.9473V93.084H342.472V86.2949H339.765V84.1035H342.472V78.9473H345.157ZM333.942 80.3867V82.5996H331.493V88.1211C332.363 88.0674 333.169 87.9814 334.071 87.7773L334.286 89.9902C332.739 90.334 331.515 90.3125 329.774 90.3125H328.829V80.3867H333.942ZM340.388 80.3867V82.5996H337.616V88.1211C339.002 88.0889 339.861 87.9922 340.839 87.7559L341.075 89.9688C339.679 90.291 338.519 90.3125 335.962 90.3125H334.888V80.3867H340.388ZM358.757 83.3945C358.757 85.3281 359.874 87.2617 362.345 88.0781L361.12 90.1406C359.391 89.5283 358.209 88.4004 357.511 87.0039C356.823 88.54 355.631 89.7754 353.837 90.4414L352.591 88.4219C355.04 87.498 356.157 85.4785 356.157 83.3945V83.2871H353.128V81.1387H356.157V79.1191H358.757V81.1387H361.765V83.2871H358.757V83.3945ZM369.392 78.9473V90.8926H366.792V86.0586H365.224V90.8496H362.646V79.248H365.224V83.8457H366.792V78.9473H369.392ZM369.392 91.7305V98.4766H366.663V93.9434H355.878V91.7305H369.392ZM380.521 79.2051C385.011 79.2051 387.61 80.3867 387.632 82.5352C387.61 84.7051 385.011 85.8867 380.521 85.8867C376.009 85.8867 373.388 84.7051 373.388 82.5352C373.388 80.3867 376.009 79.2051 380.521 79.2051ZM380.521 81.2031C377.642 81.2031 376.245 81.6758 376.267 82.5352C376.245 83.502 377.642 83.8672 380.521 83.8672C383.421 83.8672 384.796 83.502 384.796 82.5352C384.796 81.6758 383.421 81.2031 380.521 81.2031ZM389.437 86.8105V88.9805H371.604V86.8105H389.437ZM387.267 90.1191V95.1035H376.374V96.2852H387.782V98.3477H373.688V93.1914H384.56V92.1172H373.667V90.1191H387.267ZM401.081 80.3008C403.724 80.3008 405.689 82.4814 406.087 85.9941H409.481V78.9258H412.188V98.5195H409.481V88.1855H406.108C405.818 91.9453 403.81 94.2441 401.081 94.2441C398.116 94.2441 395.989 91.5586 396.011 87.2617C395.989 83.0078 398.116 80.3008 401.081 80.3008ZM401.081 82.7715C399.62 82.7715 398.61 84.3613 398.632 87.2617C398.61 90.1836 399.62 91.752 401.081 91.752C402.563 91.752 403.53 90.1836 403.53 87.2617C403.53 84.3613 402.563 82.7715 401.081 82.7715ZM431.653 90.3125V92.3965H417.194V90.3125H423.06V88.7871H425.81V90.3125H431.653ZM424.392 92.9766C427.979 92.9766 430.149 93.9863 430.149 95.7266C430.149 97.5312 427.979 98.498 424.392 98.498C420.782 98.498 418.612 97.5312 418.634 95.7266C418.612 93.9863 420.782 92.9766 424.392 92.9766ZM424.392 94.8672C422.544 94.8887 421.556 95.125 421.556 95.7266C421.556 96.3711 422.544 96.6289 424.392 96.6289C426.196 96.6289 427.185 96.3711 427.185 95.7266C427.185 95.125 426.196 94.8887 424.392 94.8672ZM420.159 79.7207V81.8477H417.688V85.9512C418.559 85.9189 419.396 85.8223 420.353 85.6289L420.524 87.7773C418.87 88.0996 417.646 88.1211 415.97 88.1211H415.024V79.7207H420.159ZM426.54 79.7207V81.8477H423.769V85.9727C425.154 85.9404 426.024 85.8545 427.034 85.6289L427.228 87.7773C425.874 88.0996 424.692 88.1211 422.114 88.1211H421.062V79.7207H426.54ZM431.353 78.9258V89.3457H428.667V84.791H426.003V82.707H428.667V78.9258H431.353ZM450.667 78.9258V98.4766H448.089V78.9258H450.667ZM446.499 79.3555V97.6172H443.942V88.6367H440.741C439.624 90.8711 437.809 92.8047 435.026 94.416L433.479 92.4824C437.422 90.1406 439.162 87.2939 439.538 83.459H434.554V81.2461H442.267C442.256 83.1045 442.062 84.8555 441.601 86.4668H443.942V79.3555H446.499ZM474.149 78.9258V89.0664H471.421V78.9258H474.149ZM466.866 89.8398V94.9102H462.741V96.2422C464.976 96.2207 466.372 96.1348 467.983 95.8125L468.241 97.832C466.243 98.2188 464.546 98.2617 461.388 98.2617H460.099V93.0195H464.159V91.8809H460.099V89.8398H466.866ZM474.149 89.8398V98.4121H471.464V92.0312H467.597V89.8398H474.149ZM463.364 79.7207C466.329 79.6992 468.585 81.5898 468.585 84.2109C468.585 86.832 466.329 88.7012 463.364 88.7012C460.335 88.7012 458.101 86.832 458.101 84.2109C458.101 81.5898 460.335 79.6992 463.364 79.7207ZM463.364 81.9766C461.86 81.9551 460.743 82.793 460.765 84.2109C460.743 85.5859 461.86 86.4883 463.364 86.4883C464.847 86.4883 465.942 85.5859 465.942 84.2109C465.942 82.793 464.847 81.9551 463.364 81.9766ZM488.2 81.8477V84.0391H476.856V81.8477H481.153V79.2051H483.946V81.8477H488.2ZM482.55 85.1348C485.214 85.1348 487.255 87.0684 487.276 89.7969C487.255 92.5039 485.214 94.459 482.55 94.459C479.821 94.459 477.823 92.5039 477.823 89.7969C477.823 87.0684 479.821 85.1348 482.55 85.1348ZM482.55 87.4336C481.218 87.4551 480.294 88.3145 480.294 89.7969C480.294 91.2793 481.218 92.1387 482.55 92.1172C483.86 92.1387 484.784 91.2793 484.806 89.7969C484.784 88.3359 483.86 87.4551 482.55 87.4336ZM493.313 78.9258V98.4766H490.606V92.418H487.899V90.2266H490.606V87.584H487.878V85.3711H490.606V78.9258H493.313ZM501.091 80.3008C504.077 80.3008 506.226 83.0078 506.247 87.2617C506.226 91.5586 504.077 94.2441 501.091 94.2441C498.104 94.2441 495.913 91.5586 495.935 87.2617C495.913 83.0078 498.104 80.3008 501.091 80.3008ZM501.091 82.7715C499.587 82.7715 498.577 84.3613 498.577 87.2617C498.577 90.1836 499.587 91.752 501.091 91.752C502.616 91.752 503.604 90.1836 503.626 87.2617C503.604 84.3613 502.616 82.7715 501.091 82.7715ZM514.024 83.459V85.7578H511.253V89.2383H514.024V91.4727H511.253V98.4766H508.503V78.9258H511.253V83.459H514.024ZM535.423 78.8828V83.1367H538.065V85.3281H535.423V89.4746H532.673V78.8828H535.423ZM535.423 90.2695V95.2109H525.175V96.3281H535.981V98.3477H522.489V93.3418H532.694V92.2461H522.446V90.2695H535.423ZM531.513 80.3867V82.4707H519.911V80.3867H524.358V78.7969H527.087V80.3867H531.513ZM525.712 82.9434C528.634 82.9434 530.524 84.1895 530.524 86.1445C530.524 88.1426 528.634 89.3457 525.712 89.3457C522.79 89.3457 520.856 88.1426 520.856 86.1445C520.856 84.1895 522.79 82.9434 525.712 82.9434ZM525.712 84.877C524.358 84.877 523.521 85.3281 523.542 86.1445C523.521 86.9824 524.358 87.3906 525.712 87.3906C527.065 87.3906 527.925 86.9824 527.925 86.1445C527.925 85.3281 527.065 84.877 525.712 84.877ZM546.509 84.2539C546.509 87.4121 548.12 90.7852 551.407 92.1602L549.925 94.3086C547.615 93.3311 546.025 91.3867 545.155 89.002C544.264 91.5908 542.642 93.7393 540.343 94.8027L538.774 92.6328C542.019 91.1934 543.694 87.5625 543.694 84.2539V83.0508H539.548V80.8164H550.591V83.0508H546.509V84.2539ZM555.296 78.9258V98.4766H552.524V78.9258H555.296Z" fill="url(#paint0_linear_462_1132)"/>
</g>
<defs>
<filter id="filter0_d_462_1132" x="0" y="0" width="770" height="198" filterUnits="userSpaceOnUse" color-interpolation-filters="sRGB">
<feFlood flood-opacity="0" result="BackgroundImageFix"/>
<feColorMatrix in="SourceAlpha" type="matrix" values="0 0 0 0 0 0 0 0 0 0 0 0 0 0 0 0 0 0 127 0" result="hardAlpha"/>
<feOffset dy="10"/>
<feGaussianBlur stdDeviation="25"/>
<feComposite in2="hardAlpha" operator="out"/>
<feColorMatrix type="matrix" values="0 0 0 0 0.192157 0 0 0 0 0.509804 0 0 0 0 0.964706 0 0 0 0.25 0"/>
<feBlend mode="normal" in2="BackgroundImageFix" result="effect1_dropShadow_462_1132"/>
<feBlend mode="normal" in="SourceGraphic" in2="effect1_dropShadow_462_1132" result="shape"/>
</filter>
<linearGradient id="paint0_linear_462_1132" x1="117" y1="89" x2="653" y2="89" gradientUnits="userSpaceOnUse">
<stop stop-color="#3182F6"/>
<stop offset="1" stop-color="#A009FF"/>
</linearGradient>
</defs>
</svg>
