<svg width="840" height="98" viewBox="0 0 840 98" fill="none" xmlns="http://www.w3.org/2000/svg">
<rect width="840" height="98" rx="49" fill="white"/>
<path d="M76.1094 46.498L78.0898 39.5918H79.9688L78.5723 46.498H76.1094ZM80.9336 46.498L82.9141 39.5918H84.793L83.3965 46.498H80.9336ZM93.502 39.2363C96.8281 39.2617 99.1895 42.3086 99.2148 47.1074C99.1895 51.9062 96.8281 54.9531 93.502 54.9531C90.1504 54.9531 87.8145 51.9062 87.8145 47.1074C87.8145 42.3086 90.1504 39.2617 93.502 39.2363ZM93.502 41.0137C91.2676 41.0391 89.6934 43.4258 89.6934 47.1074C89.6934 50.7891 91.2676 53.1758 93.502 53.1758C95.7617 53.1758 97.2852 50.7891 97.2852 47.1074C97.2852 43.4258 95.7617 41.0391 93.502 41.0137ZM104.928 37.4844V46.498H108.711V48.2246H104.928V60.0566H102.947V37.4844H104.928ZM128.541 37.4844V60.1074H126.535V37.4844H128.541ZM116.531 39.2363C119.883 39.2617 122.295 42.3086 122.295 47.1074C122.295 51.9062 119.883 54.9531 116.531 54.9531C113.154 54.9531 110.768 51.9062 110.768 47.1074C110.768 42.3086 113.154 39.2617 116.531 39.2363ZM116.531 41.0137C114.271 41.0391 112.697 43.4258 112.697 47.1074C112.697 50.7891 114.271 53.1758 116.531 53.1758C118.791 53.1758 120.365 50.7891 120.365 47.1074C120.365 43.4258 118.791 41.0391 116.531 41.0137ZM715.598 41.3945V43.0195H704.273V41.3945H708.971V38.1699H710.951V41.3945H715.598ZM709.936 44.543C712.779 44.543 714.811 46.6758 714.836 49.6719C714.811 52.6934 712.779 54.8516 709.936 54.8516C707.117 54.8516 705.086 52.6934 705.086 49.6719C705.086 46.6758 707.117 44.543 709.936 44.543ZM709.936 46.2188C708.158 46.2441 706.863 47.6914 706.863 49.6719C706.863 51.6777 708.158 53.125 709.936 53.0996C711.738 53.125 713.059 51.6777 713.059 49.6719C713.059 47.6914 711.738 46.2441 709.936 46.2188ZM723.545 37.4844V60.0566H721.641V48.6562H718.645V58.9395H716.766V38.043H718.645V47.0059H721.641V37.4844H723.545ZM747.463 55.4863V57.1621H726.795V55.4863H731.924V49.3926C729.994 48.3896 728.826 46.7646 728.826 44.7207C728.826 41.2168 732.254 38.9316 737.078 38.9062C741.902 38.9316 745.33 41.2168 745.33 44.7207C745.33 46.7266 744.2 48.3389 742.334 49.3418V55.4863H747.463ZM737.078 40.5566C733.371 40.5312 730.756 42.207 730.756 44.7207C730.756 47.2344 733.371 48.9355 737.078 48.9355C740.76 48.9355 743.4 47.2344 743.4 44.7207C743.4 42.207 740.76 40.5312 737.078 40.5566ZM733.879 55.4863H740.328V50.1035C739.351 50.3701 738.259 50.5098 737.078 50.5098C735.923 50.5098 734.844 50.3828 733.879 50.1289V55.4863ZM751.652 58.1523C750.764 58.1523 750.002 57.416 750.027 56.502C750.002 55.6133 750.764 54.877 751.652 54.877C752.541 54.877 753.277 55.6133 753.277 56.502C753.277 57.416 752.541 58.1523 751.652 58.1523ZM763.865 39.6426L761.885 46.5488H760.006L761.402 39.6426H763.865ZM759.041 39.6426L757.061 46.5488H755.182L756.578 39.6426H759.041Z" fill="black"/>
<path d="M158.02 37.2305V48.9355H154.795V37.2305H158.02ZM158.045 49.9258V56.1973H145.756V57.6191H158.68V60.1836H142.582V53.7852H154.82V52.4395H142.531V49.9258H158.045ZM147.559 39.5156C147.533 42.3086 149.209 45 152.992 46.0918L151.418 48.5801C148.765 47.8057 146.937 46.2061 145.908 44.1621C144.842 46.3965 142.95 48.1738 140.195 48.9863L138.596 46.4473C142.455 45.3047 144.182 42.3848 144.182 39.5156V37.7383H147.559V39.5156ZM172.264 38.5762V45.7871H165.281V48.25C168.722 48.25 170.753 48.1357 173.102 47.6914L173.406 50.2812C170.715 50.7637 168.277 50.8398 163.809 50.8398H162.082V43.375H169.014V41.1152H162.031V38.5762H172.264ZM180.643 37.2559V51.4746H177.418V47.9199H173.584V45.3555H177.418V43.0195H173.584V40.4551H177.418V37.2559H180.643ZM180.643 52.5156V60.3359H177.418V55.1055H164.723V52.5156H180.643ZM202.986 37.2305V60.3867H199.711V37.2305H202.986ZM190.443 38.8555C193.922 38.8555 196.512 42.0547 196.512 47.082C196.512 52.1602 193.922 55.334 190.443 55.334C186.889 55.334 184.299 52.1602 184.324 47.082C184.299 42.0547 186.889 38.8555 190.443 38.8555ZM190.443 41.7754C188.641 41.7754 187.447 43.6543 187.447 47.082C187.447 50.5352 188.641 52.3887 190.443 52.3887C192.195 52.3887 193.389 50.5352 193.389 47.082C193.389 43.6543 192.195 41.7754 190.443 41.7754ZM218.475 38.8555C221.598 38.8555 223.921 41.4326 224.391 45.584H228.402V37.2305H231.602V60.3867H228.402V48.1738H224.416C224.073 52.6172 221.699 55.334 218.475 55.334C214.971 55.334 212.457 52.1602 212.482 47.082C212.457 42.0547 214.971 38.8555 218.475 38.8555ZM218.475 41.7754C216.748 41.7754 215.555 43.6543 215.58 47.082C215.555 50.5352 216.748 52.3887 218.475 52.3887C220.227 52.3887 221.369 50.5352 221.369 47.082C221.369 43.6543 220.227 41.7754 218.475 41.7754ZM253.412 47.4375V50.0781H236.934V39.2363H240.184V47.4375H253.412ZM255.723 54.9023V57.5938H234.572V54.9023H255.723ZM282.51 37.2305V50.9414H279.285V45.4824H275.68V42.8672H279.285V37.2305H282.51ZM274.613 51.4492C279.539 51.4746 282.561 53.0996 282.586 55.918C282.561 58.7109 279.539 60.3613 274.613 60.3613C269.688 60.3613 266.666 58.7109 266.666 55.918C266.666 53.0996 269.688 51.4746 274.613 51.4492ZM274.613 53.9375C271.541 53.9375 269.891 54.5723 269.891 55.918C269.891 57.2383 271.541 57.8984 274.613 57.8984C277.686 57.8984 279.361 57.2383 279.361 55.918C279.361 54.5723 277.686 53.9375 274.613 53.9375ZM276.365 38.627V41.2168H271.77C271.846 43.9082 273.471 46.625 277.076 47.8184L275.477 50.3574C272.925 49.5322 271.173 47.8564 270.17 45.7617C269.142 48.123 267.301 50.0273 264.559 50.9668L262.883 48.4023C266.679 47.1328 268.38 44.1113 268.469 41.2168H263.822V38.627H276.365ZM304.346 47.5645V50.1289H297.643V55.0547H306.656V57.6953H285.506V55.0547H294.418V50.1289H287.994V38.8555H304.168V41.4453H291.244V47.5645H304.346ZM327.324 37.2559V53.8613H324.074V37.2559H327.324ZM327.934 57.3398V59.9297H311.836V52.1855H315.111V57.3398H327.934ZM314.654 38.7285C318.209 38.7285 320.977 41.166 320.977 44.543C320.977 47.9961 318.209 50.4082 314.654 50.4082C311.1 50.4082 308.332 47.9961 308.332 44.543C308.332 41.166 311.1 38.7285 314.654 38.7285ZM314.654 41.5469C312.852 41.5215 311.48 42.6641 311.506 44.543C311.48 46.4727 312.852 47.5898 314.654 47.5898C316.406 47.5898 317.777 46.4727 317.777 44.543C317.777 42.6641 316.406 41.5215 314.654 41.5469ZM339.41 43.5273C339.41 47.2598 341.314 51.2461 345.199 52.8711L343.447 55.4102C340.718 54.2549 338.839 51.957 337.811 49.1387C336.757 52.1982 334.84 54.7373 332.123 55.9941L330.27 53.4297C334.104 51.7285 336.084 47.4375 336.084 43.5273V42.1055H331.184V39.4648H344.234V42.1055H339.41V43.5273ZM349.795 37.2305V60.3359H346.52V37.2305H349.795ZM378.385 37.2305V50.9414H375.16V45.4824H371.555V42.8672H375.16V37.2305H378.385ZM370.488 51.4492C375.414 51.4746 378.436 53.0996 378.461 55.918C378.436 58.7109 375.414 60.3613 370.488 60.3613C365.562 60.3613 362.541 58.7109 362.541 55.918C362.541 53.0996 365.562 51.4746 370.488 51.4492ZM370.488 53.9375C367.416 53.9375 365.766 54.5723 365.766 55.918C365.766 57.2383 367.416 57.8984 370.488 57.8984C373.561 57.8984 375.236 57.2383 375.236 55.918C375.236 54.5723 373.561 53.9375 370.488 53.9375ZM372.24 38.627V41.2168H367.645C367.721 43.9082 369.346 46.625 372.951 47.8184L371.352 50.3574C368.8 49.5322 367.048 47.8564 366.045 45.7617C365.017 48.123 363.176 50.0273 360.434 50.9668L358.758 48.4023C362.554 47.1328 364.255 44.1113 364.344 41.2168H359.697V38.627H372.24ZM399.865 37.2559V43.8574H402.811V46.5234H399.865V52.9473H396.615V37.2559H399.865ZM381.127 49.9766C382.815 49.9766 384.745 49.9766 386.738 49.9258V48.6309C384.225 48.2754 382.65 47.0566 382.676 45.2793C382.65 43.1465 384.91 41.8262 388.338 41.8262C391.74 41.8262 393.975 43.1465 394 45.2793C393.975 47.0566 392.438 48.2627 389.963 48.6055V49.7988C391.867 49.7227 393.759 49.5703 395.549 49.3418L395.777 51.5762C390.902 52.4395 385.545 52.4902 381.457 52.4902L381.127 49.9766ZM399.865 53.8867V60.3359H396.615V56.375H384.072V53.8867H399.865ZM394.965 38.9316V41.293H381.736V38.9316H386.738V37.0527H389.963V38.9316H394.965ZM388.338 43.9844C386.688 43.9844 385.748 44.3906 385.773 45.2793C385.748 46.1172 386.688 46.5996 388.338 46.5996C389.963 46.5996 390.877 46.1172 390.902 45.2793C390.877 44.3906 389.963 43.9844 388.338 43.9844ZM423.199 37.2305V60.3359H419.924V37.2305H423.199ZM418.146 40.709V43.2988H404.334V40.709H409.59V37.5352H412.891V40.709H418.146ZM411.291 44.5684C414.693 44.5684 417.232 46.8535 417.232 50.0781C417.232 53.3027 414.693 55.5879 411.291 55.5879C407.863 55.5879 405.324 53.3027 405.324 50.0781C405.324 46.8535 407.863 44.5684 411.291 44.5684ZM411.291 47.1836C409.59 47.209 408.422 48.3008 408.422 50.0781C408.422 51.8809 409.59 52.9473 411.291 52.9219C412.967 52.9473 414.135 51.8809 414.135 50.0781C414.135 48.3008 412.967 47.209 411.291 47.1836ZM453.465 54.9785V57.6445H432.314V54.9785H441.227V50.2559H434.549V38.9316H451.104V50.2559H444.451V54.9785H453.465ZM437.748 41.5215V47.7168H447.904V41.5215H437.748ZM475.936 55.0547V57.6953H454.785V55.0547H475.936ZM473.498 38.7793V46.4727H460.473V49.1133H474.031V51.6523H457.223V43.8828H470.299V41.3691H457.197V38.7793H473.498ZM487.488 38.8301C487.488 40.4551 487.285 41.9277 486.854 43.2734H489.266V37.6875H492.312V50.0781H489.266V45.8379H485.66C484.251 48.0215 482.017 49.7354 478.855 51.043L477.281 48.6562C481.534 46.9932 483.642 44.6191 484.111 41.4199H478.449V38.8301H487.488ZM497.111 37.2559V50.3828H494.039V37.2559H497.111ZM485.787 52.1855C485.787 54.0391 486.574 55.9561 488.453 57.2129C490.345 55.8545 491.17 53.8486 491.17 52.1855V51.0938H494.369V52.1855C494.344 54.5469 495.664 56.8574 498.736 57.7969L497.162 60.1582C494.94 59.3965 493.493 57.9619 492.693 56.1719C491.932 57.9492 490.599 59.5107 488.504 60.3359C486.358 59.5615 485.013 58.0381 484.264 56.248C483.451 57.9746 482.029 59.3838 479.922 60.1582L478.297 57.7969C481.344 56.7559 482.689 54.4199 482.715 52.1855V51.0938H485.787V52.1855ZM518.77 39.2363V41.4199C518.77 44.3145 518.77 47.5645 517.83 52.4648L514.58 52.1348C515.456 47.7676 515.494 44.5176 515.52 41.8008H501.91V39.2363H518.77ZM520.801 54.877V57.5176H499.727V54.877H507.268V46.9297H510.492V54.877H520.801ZM527.072 56.1211L524.889 63.3574H522.197L523.467 56.1211H527.072ZM548.527 39.2871V41.8516H534.816V39.2871H540.072V37.1035H543.297V39.2871H548.527ZM541.672 42.5879C545.023 42.5879 547.359 44.3145 547.359 46.8535C547.359 49.3926 545.023 51.1191 541.672 51.1191C538.32 51.1191 535.934 49.3926 535.934 46.8535C535.934 44.3145 538.32 42.5879 541.672 42.5879ZM541.672 45.0254C540.123 45.0254 539.082 45.6602 539.107 46.8535C539.082 48.0215 540.123 48.6309 541.672 48.6309C543.221 48.6309 544.287 48.0215 544.287 46.8535C544.287 45.6602 543.221 45.0254 541.672 45.0254ZM553.148 37.2305V43.2227H556.271V45.8633H553.148V51.7285H549.898V37.2305H553.148ZM553.148 52.6934V60.3359H549.898V55.2832H537.584V52.6934H553.148ZM562.949 51.0938V53.0488H572.471V51.0938H575.695V60.082H559.75V51.0938H562.949ZM562.949 57.543H572.471V55.5117H562.949V57.543ZM578.361 47.3105V49.9258H557.287V47.3105H578.361ZM569.5 38.2461C569.5 40.5566 572.166 43.1719 577.32 43.7559L576.178 46.2949C572.191 45.7871 569.31 44.1367 567.824 41.9023C566.339 44.1367 563.444 45.7871 559.496 46.2949L558.328 43.7559C563.482 43.1465 566.148 40.6074 566.174 38.2461V37.459H569.5V38.2461ZM596.516 51.373C601.314 51.373 604.311 53.0234 604.311 55.8418C604.311 58.7109 601.314 60.3613 596.516 60.3613C591.615 60.3613 588.594 58.7109 588.594 55.8418C588.594 53.0234 591.615 51.373 596.516 51.373ZM596.516 53.8867C593.469 53.8867 591.818 54.5215 591.844 55.8418C591.818 57.1621 593.469 57.8477 596.516 57.8477C599.512 57.8477 601.111 57.1621 601.111 55.8418C601.111 54.5215 599.512 53.8867 596.516 53.8867ZM604.082 37.2305V42.5879H607.205V45.3047H604.082V50.8652H600.832V37.2305H604.082ZM589.66 38.6777V41.5977H594.383V38.6777H597.633V49.5449H586.436V38.6777H589.66ZM589.66 46.9805H594.383V44.1113H589.66V46.9805ZM629.549 40.6074V43.2227H626.553V45.584H629.549V48.2246H626.553V51.9062H623.303V37.2305H626.553V40.6074H629.549ZM619.012 52.1094C623.76 52.1094 626.807 53.6582 626.807 56.248C626.807 58.7871 623.76 60.3359 619.012 60.3359C614.162 60.3359 611.166 58.7871 611.191 56.248C611.166 53.6582 614.162 52.1094 619.012 52.1094ZM619.012 54.5723C615.99 54.5723 614.365 55.1055 614.391 56.248C614.365 57.3398 615.99 57.9238 619.012 57.9238C621.957 57.9238 623.557 57.3398 623.557 56.248C623.557 55.1055 621.957 54.5723 619.012 54.5723ZM621.932 39.4395V41.9531H608.221V39.4395H613.477V37.1035H616.701V39.4395H621.932ZM615.076 42.7402C618.428 42.7402 620.764 44.4414 620.764 46.9043C620.764 49.3926 618.428 51.043 615.076 51.043C611.674 51.043 609.338 49.3926 609.338 46.9043C609.338 44.4414 611.674 42.7402 615.076 42.7402ZM615.076 45.1016C613.527 45.1016 612.486 45.7363 612.512 46.9043C612.486 48.0469 613.527 48.6562 615.076 48.6309C616.625 48.6562 617.691 48.0469 617.691 46.9043C617.691 45.7363 616.625 45.1016 615.076 45.1016ZM649.531 47.5645V50.1289H642.828V55.0547H651.842V57.6953H630.691V55.0547H639.604V50.1289H633.18V38.8555H649.354V41.4453H636.43V47.5645H649.531ZM665.045 37.5859V39.1855H674.312V37.5859H677.537V45.3301H661.846V37.5859H665.045ZM665.045 42.918H674.312V41.5215H665.045V42.918ZM680.229 46.5234V49.1387H671.291V50.5859H677.664V56.4258H664.791V57.7461H678.273V60.1836H661.617V54.1914H674.465V52.9473H661.592V50.5859H668.041V49.1387H659.154V46.5234H680.229ZM699.957 37.2305V43.8574H703.08V46.5488H699.957V54.0645H696.707V37.2305H699.957ZM700.795 57.3398V59.9297H684.977V52.2871H688.201V57.3398H700.795ZM688.125 38.7285C691.654 38.7285 694.422 41.166 694.422 44.5938C694.422 47.9707 691.654 50.459 688.125 50.459C684.57 50.459 681.777 47.9707 681.777 44.5938C681.777 41.166 684.57 38.7285 688.125 38.7285ZM688.125 41.5469C686.373 41.5215 684.951 42.6641 684.977 44.5938C684.951 46.4727 686.373 47.6406 688.125 47.6406C689.902 47.6406 691.248 46.4727 691.273 44.5938C691.248 42.6641 689.902 41.5215 688.125 41.5469Z" fill="url(#paint0_linear_501_839)"/>
<defs>
<linearGradient id="paint0_linear_501_839" x1="75" y1="49" x2="765" y2="49" gradientUnits="userSpaceOnUse">
<stop stop-color="#3182F6"/>
<stop offset="1" stop-color="#A009FF"/>
</linearGradient>
</defs>
</svg>
