<svg width="704" height="197" viewBox="0 0 704 197" fill="none" xmlns="http://www.w3.org/2000/svg">
<g filter="url(#filter0_d_462_1134)">
<rect x="50" y="40" width="604" height="97" rx="48.5" fill="white" shape-rendering="crispEdges"/>
<path d="M105.521 86.2676L107.196 80.4238H108.786L107.604 86.2676H105.521ZM109.603 86.2676L111.278 80.4238H112.868L111.687 86.2676H109.603ZM132.591 88.7598V90.1348H124.813V93.873H123.138V90.1348H115.103V88.7598H132.591ZM130.636 95.9141V97.332H117.337V92.1113H119.013V95.9141H130.636ZM119.12 79.2637V81.7129H128.573V79.2637H130.249V86.8906H117.444V79.2637H119.12ZM119.12 85.5156H128.573V83.002H119.12V85.5156ZM149.972 78.6406V89.9629H148.274V86.9551H143.806V88.5879H135.04V80.1016H143.806V81.7559H148.274V78.6406H149.972ZM136.716 81.4766V87.2129H142.151V81.4766H136.716ZM143.634 90.5215C147.608 90.5215 150.036 91.832 150.036 94.1309C150.036 96.4082 147.608 97.6973 143.634 97.6973C139.659 97.6973 137.231 96.4082 137.231 94.1309C137.231 91.832 139.659 90.5215 143.634 90.5215ZM143.634 91.832C140.712 91.8535 138.886 92.6914 138.907 94.1309C138.886 95.5059 140.712 96.3652 143.634 96.3652C146.556 96.3652 148.36 95.5059 148.36 94.1309C148.36 92.6914 146.556 91.8535 143.634 91.832ZM143.806 85.5371H148.274V83.1523H143.806V85.5371ZM169.651 80.7246V82.1211H167.524V91.3164C168.556 91.2412 169.576 91.1553 170.554 91.0371L170.64 92.2832C166.601 92.9277 162.024 92.9922 158.651 93.0137L158.437 91.5742L161.015 91.5527V82.1211H158.909V80.7246H169.651ZM173.454 78.6406V86.3105H176.655V87.7285H173.454V97.7402H171.778V78.6406H173.454ZM162.647 91.5312C163.711 91.5098 164.817 91.4668 165.913 91.4023V82.1211H162.647V91.5312ZM193.456 90.6719V97.7832H191.78V92.0898H180.608V90.6719H193.456ZM193.456 78.6621V89.7051H191.78V78.6621H193.456ZM180.587 79.7363V86.7402C183.466 86.7295 186.441 86.5146 189.61 85.8594L189.868 87.2773C186.495 87.9219 183.466 88.1582 180.437 88.1582H178.89V79.7363H180.587ZM206.218 81.4551C206.218 84.7207 209.956 87.6426 213.286 88.2656L212.513 89.6836C209.634 89.0176 206.594 86.9658 205.358 84.1406C204.123 86.9551 201.094 89.0068 198.204 89.6836L197.431 88.2656C200.739 87.6211 204.456 84.7422 204.456 81.4551V79.9941H206.218V81.4551ZM214.188 93.7441V95.1406H196.7V93.7441H214.188ZM233.181 87.5137V88.8457H215.692V87.5137H233.181ZM230.989 90.3711V94.4316H219.517V96.2578H231.612V97.4824H217.819V93.2715H229.313V91.6387H217.798V90.3711H230.989ZM230.925 79.2207V83.1738H219.646V84.8496H231.269V86.0742H217.97V82.0137H229.228V80.4453H217.905V79.2207H230.925ZM257.716 86.0312V87.4062H240.249V86.0312H245.663C246.254 83.7002 246.394 81.9492 246.437 80.7891H241.882V79.4141H248.112V79.9082C248.091 80.9072 248.091 83.0557 247.36 86.0312H253.204C253.763 83.6787 253.859 81.9707 253.892 80.7891H249.401V79.4141H255.524V80.1875C255.524 81.3477 255.524 83.335 254.901 86.0312H257.716ZM255.567 89.4473V90.7578H244.116V92.7773H255.073V94.0449H244.116V96.1504H255.696V97.4824H242.419V89.4473H255.567ZM275.483 78.6621V89.6406H273.872V84.8281H271.122V89.4473H269.554V79.0059H271.122V83.4316H273.872V78.6621H275.483ZM261.905 80.1445V86.9121C263.903 86.9014 265.848 86.7939 268.157 86.3535L268.351 87.7285C265.772 88.2441 263.71 88.3516 261.433 88.3516H260.229V80.1445H261.905ZM266.009 91.5098C265.987 93.1963 266.879 95.0225 268.694 96.0645C270.521 94.9258 271.444 92.9922 271.466 91.5098V90.2207H273.12V91.5098C273.099 93.5078 274.56 95.4844 277.009 96.2793L276.149 97.5684C274.259 96.8916 272.927 95.5488 272.282 93.916C271.681 95.4736 270.531 96.9668 268.737 97.7402C266.879 97.0098 265.719 95.5918 265.149 93.9805C264.473 95.5381 263.162 96.8809 261.347 97.5684L260.487 96.2793C262.872 95.4414 264.376 93.3789 264.376 91.5098V90.2207H266.009V91.5098ZM293.724 84.4414V85.7949H280.64V79.3496H282.315V84.4414H293.724ZM295.743 88.3945V89.7695H278.255V88.3945H295.743ZM293.831 95.8711V97.2676H280.532V91.7246H282.208V95.8711H293.831ZM313.64 78.6406V97.7402H312.007V78.6406H313.64ZM309.729 79.1133V96.752H308.118V87.3633H303.95V85.9453H308.118V79.1133H309.729ZM305.239 81.0039V82.4004H299.675V91.7246C302.425 91.7139 304.165 91.5957 306.228 91.1445L306.399 92.584C304.187 93.0352 302.317 93.1211 299.245 93.1426H298.042V81.0039H305.239ZM331.729 87.5996V88.9746H325.821V93.916H333.792V95.334H316.304V93.916H324.167V88.9746H318.538V80.209H331.536V81.584H320.235V87.5996H331.729ZM598.458 80.4668L596.782 86.3105H595.192L596.374 80.4668H598.458ZM594.376 80.4668L592.7 86.3105H591.11L592.292 80.4668H594.376Z" fill="black"/>
<path d="M346.038 79.8008C347.789 79.8008 349.25 80.7676 350.142 82.4434H354.438V78.4258H357.146V98.0195H354.438V90.6934H350.356C349.476 92.627 347.929 93.7441 346.038 93.7441C343.073 93.7441 340.946 91.0586 340.968 86.7617C340.946 82.5078 343.073 79.8008 346.038 79.8008ZM346.038 82.2715C344.577 82.2715 343.567 83.8613 343.589 86.7617C343.567 89.6836 344.577 91.252 346.038 91.252C347.521 91.252 348.487 89.6836 348.487 86.7617C348.487 83.8613 347.521 82.2715 346.038 82.2715ZM350.915 84.6562C351.033 85.3008 351.108 86.0098 351.108 86.7617C351.108 87.374 351.055 87.9541 350.979 88.502H354.438V84.6562H350.915ZM376.138 78.4473V92.7129H373.409V85.709H370.208V83.4961H373.409V78.4473H376.138ZM376.61 95.4414V97.6328H363.161V91.4668H365.911V95.4414H376.61ZM367.05 82.2715C367.05 84.5273 368.425 86.9551 371.54 87.9648L370.187 90.1348C368.017 89.4365 366.534 88.0078 365.675 86.2246C364.815 88.2012 363.258 89.7695 360.948 90.543L359.552 88.3086C362.774 87.2988 364.235 84.7422 364.257 82.25V81.9492H360.325V79.7578H370.938V81.9492H367.05V82.2715ZM395.044 78.4258V97.9766H392.272V78.4258H395.044ZM390.769 81.3691V83.5605H379.081V81.3691H383.528V78.6836H386.321V81.3691H390.769ZM384.968 84.6348C387.847 84.6348 389.995 86.5684 389.995 89.2969C389.995 92.0254 387.847 93.959 384.968 93.959C382.067 93.959 379.919 92.0254 379.919 89.2969C379.919 86.5684 382.067 84.6348 384.968 84.6348ZM384.968 86.8477C383.528 86.8691 382.54 87.793 382.54 89.2969C382.54 90.8223 383.528 91.7246 384.968 91.7031C386.386 91.7246 387.374 90.8223 387.374 89.2969C387.374 87.793 386.386 86.8691 384.968 86.8477ZM408.923 82.8945C408.923 84.8281 410.04 86.7617 412.511 87.5781L411.286 89.6406C409.557 89.0283 408.375 87.9004 407.677 86.5039C406.989 88.04 405.797 89.2754 404.003 89.9414L402.757 87.9219C405.206 86.998 406.323 84.9785 406.323 82.8945V82.7871H403.294V80.6387H406.323V78.6191H408.923V80.6387H411.931V82.7871H408.923V82.8945ZM419.558 78.4473V90.3926H416.958V85.5586H415.39V90.3496H412.812V78.748H415.39V83.3457H416.958V78.4473H419.558ZM419.558 91.2305V97.9766H416.829V93.4434H406.044V91.2305H419.558ZM443.19 78.4258V88.5664H440.462V78.4258H443.19ZM435.907 89.3398V94.4102H431.782V95.7422C434.017 95.7207 435.413 95.6348 437.024 95.3125L437.282 97.332C435.284 97.7188 433.587 97.7617 430.429 97.7617H429.14V92.5195H433.2V91.3809H429.14V89.3398H435.907ZM443.19 89.3398V97.9121H440.505V91.5312H436.638V89.3398H443.19ZM432.405 79.2207C435.37 79.1992 437.626 81.0898 437.626 83.7109C437.626 86.332 435.37 88.2012 432.405 88.2012C429.376 88.2012 427.142 86.332 427.142 83.7109C427.142 81.0898 429.376 79.1992 432.405 79.2207ZM432.405 81.4766C430.901 81.4551 429.784 82.293 429.806 83.7109C429.784 85.0859 430.901 85.9883 432.405 85.9883C433.888 85.9883 434.983 85.0859 434.983 83.7109C434.983 82.293 433.888 81.4551 432.405 81.4766ZM462.29 78.4258V97.9766H459.519V78.4258H462.29ZM456.425 80.4668C456.425 86.3965 454.341 91.3164 447.358 94.625L445.919 92.4336C450.968 90.0488 453.191 86.9551 453.632 82.6152H446.972V80.4668H456.425ZM482.743 87.1914V89.2324H464.847V87.1914H482.743ZM480.595 90.1992V94.8184H469.638V95.9355H481.175V97.8047H466.909V93.0781H477.888V92.0898H466.888V90.1992H480.595ZM480.573 78.7695V83.3672H469.81V84.4199H480.917V86.2676H467.081V81.627H477.823V80.6387H467.038V78.7695H480.573ZM494.345 79.8008C496.987 79.8008 498.953 81.9814 499.351 85.4941H502.745V78.4258H505.452V98.0195H502.745V87.6855H499.372C499.082 91.4453 497.073 93.7441 494.345 93.7441C491.38 93.7441 489.253 91.0586 489.274 86.7617C489.253 82.5078 491.38 79.8008 494.345 79.8008ZM494.345 82.2715C492.884 82.2715 491.874 83.8613 491.896 86.7617C491.874 89.6836 492.884 91.252 494.345 91.252C495.827 91.252 496.794 89.6836 496.794 86.7617C496.794 83.8613 495.827 82.2715 494.345 82.2715ZM524.444 78.4258V98.0195H521.716V90.1348H518.364V87.8789H521.716V84.8066H518.429V82.5723H521.716V78.4258H524.444ZM517.397 80.0586V87.5781H511.382V91.3809C513.799 91.3701 515.947 91.252 518.407 90.8867L518.622 93.1211C515.7 93.5938 513.208 93.6367 510.2 93.6367H508.653V85.4512H514.712V82.2285H508.61V80.0586H517.397ZM543.673 78.4473V97.9766H540.88V93.6582H536.905V91.5957H540.88V78.4473H543.673ZM526.894 88.3516C530.546 88.3516 535.423 88.3301 539.634 87.7715L539.784 89.7695C538.065 90.0811 536.293 90.2744 534.563 90.3926V97.3965H531.792V90.5215C530.17 90.5752 528.634 90.5859 527.237 90.5859L526.894 88.3516ZM533.296 79.2207C536.175 79.2207 538.302 80.8965 538.323 83.2383C538.302 85.6445 536.175 87.2344 533.296 87.2344C530.374 87.2344 528.269 85.6445 528.269 83.2383C528.269 80.8965 530.374 79.2207 533.296 79.2207ZM533.296 81.3047C531.835 81.3047 530.847 82.0566 530.847 83.2383C530.847 84.4629 531.835 85.1504 533.296 85.1504C534.714 85.1504 535.702 84.4629 535.724 83.2383C535.702 82.0566 534.714 81.3047 533.296 81.3047ZM555.425 81.4121V83.582H545.972V81.4121H549.366V78.9629H552.073V81.4121H555.425ZM550.741 84.4629C553.233 84.4629 555.017 86.3965 555.038 89.1035C555.017 91.832 553.233 93.7656 550.741 93.7656C548.249 93.7656 546.423 91.832 546.423 89.1035C546.423 86.3965 548.249 84.4629 550.741 84.4629ZM550.741 86.7402C549.603 86.7402 548.829 87.6211 548.829 89.1035C548.829 90.5859 549.603 91.4453 550.741 91.4453C551.837 91.4453 552.61 90.5859 552.632 89.1035C552.61 87.6211 551.837 86.7402 550.741 86.7402ZM562.901 78.4258V97.9766H560.302V88.5664H558.712V97.1387H556.155V78.8125H558.712V86.375H560.302V78.4258H562.901ZM582.903 93.4434V95.6992H565.007V93.4434H569.003V88.6523C567.488 87.75 566.575 86.3643 566.575 84.6348C566.575 81.4766 569.669 79.3711 573.923 79.3711C578.155 79.3711 581.271 81.4766 581.292 84.6348C581.281 86.3213 580.39 87.6963 578.929 88.6094V93.4434H582.903ZM573.923 81.541C571.13 81.541 569.282 82.6582 569.282 84.6348C569.282 86.5469 571.13 87.7285 573.923 87.7285C576.694 87.7285 578.563 86.5469 578.585 84.6348C578.563 82.6582 576.694 81.541 573.923 81.541ZM571.71 93.4434H576.157V89.6406C575.459 89.7803 574.707 89.8555 573.923 89.8555C573.139 89.8555 572.397 89.791 571.71 89.6406V93.4434ZM586.556 96.1934C585.546 96.1934 584.729 95.377 584.751 94.3887C584.729 93.4004 585.546 92.6055 586.556 92.6055C587.501 92.6055 588.339 93.4004 588.339 94.3887C588.339 95.377 587.501 96.1934 586.556 96.1934Z" fill="url(#paint0_linear_462_1134)"/>
</g>
<defs>
<filter id="filter0_d_462_1134" x="0" y="0" width="704" height="197" filterUnits="userSpaceOnUse" color-interpolation-filters="sRGB">
<feFlood flood-opacity="0" result="BackgroundImageFix"/>
<feColorMatrix in="SourceAlpha" type="matrix" values="0 0 0 0 0 0 0 0 0 0 0 0 0 0 0 0 0 0 127 0" result="hardAlpha"/>
<feOffset dy="10"/>
<feGaussianBlur stdDeviation="25"/>
<feComposite in2="hardAlpha" operator="out"/>
<feColorMatrix type="matrix" values="0 0 0 0 0.192157 0 0 0 0 0.509804 0 0 0 0 0.964706 0 0 0 0.25 0"/>
<feBlend mode="normal" in2="BackgroundImageFix" result="effect1_dropShadow_462_1134"/>
<feBlend mode="normal" in="SourceGraphic" in2="effect1_dropShadow_462_1134" result="shape"/>
</filter>
<linearGradient id="paint0_linear_462_1134" x1="104.5" y1="88.5" x2="599.5" y2="88.5" gradientUnits="userSpaceOnUse">
<stop stop-color="#3182F6"/>
<stop offset="1" stop-color="#A009FF"/>
</linearGradient>
</defs>
</svg>
