<svg width="800" height="197" viewBox="0 0 800 197" fill="none" xmlns="http://www.w3.org/2000/svg">
<g filter="url(#filter0_d_462_1130)">
<rect x="50" y="40" width="700" height="97" rx="48.5" fill="white" shape-rendering="crispEdges"/>
<path d="M109.016 86.2676L110.691 80.4238H112.281L111.1 86.2676H109.016ZM113.098 86.2676L114.773 80.4238H116.363L115.182 86.2676H113.098ZM123.732 80.123C126.547 80.1445 128.545 82.7227 128.566 86.7832C128.545 90.8438 126.547 93.4219 123.732 93.4219C120.896 93.4219 118.92 90.8438 118.92 86.7832C118.92 82.7227 120.896 80.1445 123.732 80.123ZM123.732 81.627C121.842 81.6484 120.51 83.668 120.51 86.7832C120.51 89.8984 121.842 91.918 123.732 91.918C125.645 91.918 126.934 89.8984 126.934 86.7832C126.934 83.668 125.645 81.6484 123.732 81.627ZM133.4 78.6406V86.2676H136.602V87.7285H133.4V97.7402H131.725V78.6406H133.4ZM153.381 78.6406V97.7832H151.684V78.6406H153.381ZM143.219 80.123C146.055 80.1445 148.096 82.7227 148.096 86.7832C148.096 90.8438 146.055 93.4219 143.219 93.4219C140.361 93.4219 138.342 90.8438 138.342 86.7832C138.342 82.7227 140.361 80.1445 143.219 80.123ZM143.219 81.627C141.307 81.6484 139.975 83.668 139.975 86.7832C139.975 89.8984 141.307 91.918 143.219 91.918C145.131 91.918 146.463 89.8984 146.463 86.7832C146.463 83.668 145.131 81.6484 143.219 81.627ZM650.121 81.9492V83.3242H640.539V81.9492H644.514V79.2207H646.189V81.9492H650.121ZM645.33 84.6133C647.736 84.6133 649.455 86.418 649.477 88.9531C649.455 91.5098 647.736 93.3359 645.33 93.3359C642.945 93.3359 641.227 91.5098 641.227 88.9531C641.227 86.418 642.945 84.6133 645.33 84.6133ZM645.33 86.0312C643.826 86.0527 642.73 87.2773 642.73 88.9531C642.73 90.6504 643.826 91.875 645.33 91.8535C646.855 91.875 647.973 90.6504 647.973 88.9531C647.973 87.2773 646.855 86.0527 645.33 86.0312ZM656.846 78.6406V97.7402H655.234V88.0938H652.699V96.7949H651.109V79.1133H652.699V86.6973H655.234V78.6406H656.846ZM677.084 93.873V95.291H659.596V93.873H663.936V88.7168C662.303 87.8682 661.314 86.4932 661.314 84.7637C661.314 81.7988 664.215 79.8652 668.297 79.8438C672.379 79.8652 675.279 81.7988 675.279 84.7637C675.279 86.4609 674.323 87.8252 672.744 88.6738V93.873H677.084ZM668.297 81.2402C665.16 81.2188 662.947 82.6367 662.947 84.7637C662.947 86.8906 665.16 88.3301 668.297 88.3301C671.412 88.3301 673.646 86.8906 673.646 84.7637C673.646 82.6367 671.412 81.2188 668.297 81.2402ZM665.59 93.873H671.047V89.3184C670.22 89.5439 669.296 89.6621 668.297 89.6621C667.319 89.6621 666.406 89.5547 665.59 89.3398V93.873ZM680.629 96.1289C679.877 96.1289 679.232 95.5059 679.254 94.7324C679.232 93.9805 679.877 93.3574 680.629 93.3574C681.381 93.3574 682.004 93.9805 682.004 94.7324C682.004 95.5059 681.381 96.1289 680.629 96.1289ZM690.963 80.4668L689.287 86.3105H687.697L688.879 80.4668H690.963ZM686.881 80.4668L685.205 86.3105H683.615L684.797 80.4668H686.881Z" fill="black"/>
<path d="M178.324 78.4258V88.3301H175.596V78.4258H178.324ZM178.346 89.168V94.4746H167.947V95.6777H178.883V97.8477H165.262V92.4336H175.617V91.2949H165.219V89.168H178.346ZM169.473 80.3594C169.451 82.7227 170.869 85 174.07 85.9238L172.738 88.0293C170.493 87.374 168.946 86.0205 168.076 84.291C167.174 86.1816 165.573 87.6855 163.242 88.373L161.889 86.2246C165.154 85.2578 166.615 82.7871 166.615 80.3594V78.8555H169.473V80.3594ZM190.377 79.5645V85.666H184.469V87.75C187.38 87.75 189.099 87.6533 191.086 87.2773L191.344 89.4688C189.066 89.877 187.004 89.9414 183.223 89.9414H181.762V83.625H187.627V81.7129H181.719V79.5645H190.377ZM197.467 78.4473V90.4785H194.738V87.4707H191.494V85.3008H194.738V83.3242H191.494V81.1543H194.738V78.4473H197.467ZM197.467 91.3594V97.9766H194.738V93.5508H183.996V91.3594H197.467ZM216.373 78.4258V98.0195H213.602V78.4258H216.373ZM205.76 79.8008C208.703 79.8008 210.895 82.5078 210.895 86.7617C210.895 91.0586 208.703 93.7441 205.76 93.7441C202.752 93.7441 200.561 91.0586 200.582 86.7617C200.561 82.5078 202.752 79.8008 205.76 79.8008ZM205.76 82.2715C204.234 82.2715 203.225 83.8613 203.225 86.7617C203.225 89.6836 204.234 91.252 205.76 91.252C207.242 91.252 208.252 89.6836 208.252 86.7617C208.252 83.8613 207.242 82.2715 205.76 82.2715ZM229.479 79.8008C232.121 79.8008 234.087 81.9814 234.484 85.4941H237.879V78.4258H240.586V98.0195H237.879V87.6855H234.506C234.216 91.4453 232.207 93.7441 229.479 93.7441C226.514 93.7441 224.387 91.0586 224.408 86.7617C224.387 82.5078 226.514 79.8008 229.479 79.8008ZM229.479 82.2715C228.018 82.2715 227.008 83.8613 227.029 86.7617C227.008 89.6836 228.018 91.252 229.479 91.252C230.961 91.252 231.928 89.6836 231.928 86.7617C231.928 83.8613 230.961 82.2715 229.479 82.2715ZM259.041 87.0625V89.2969H245.098V80.123H247.848V87.0625H259.041ZM260.996 93.3789V95.6562H243.1V93.3789H260.996ZM283.662 78.4258V90.0273H280.934V85.4082H277.883V83.1953H280.934V78.4258H283.662ZM276.98 90.457C281.148 90.4785 283.705 91.8535 283.727 94.2383C283.705 96.6016 281.148 97.998 276.98 97.998C272.812 97.998 270.256 96.6016 270.256 94.2383C270.256 91.8535 272.812 90.4785 276.98 90.457ZM276.98 92.5625C274.381 92.5625 272.984 93.0996 272.984 94.2383C272.984 95.3555 274.381 95.9141 276.98 95.9141C279.58 95.9141 280.998 95.3555 280.998 94.2383C280.998 93.0996 279.58 92.5625 276.98 92.5625ZM278.463 79.6074V81.7988H274.574C274.639 84.0762 276.014 86.375 279.064 87.3848L277.711 89.5332C275.552 88.835 274.069 87.417 273.221 85.6445C272.351 87.6426 270.793 89.2539 268.473 90.0488L267.055 87.8789C270.267 86.8047 271.706 84.248 271.781 81.7988H267.85V79.6074H278.463ZM302.139 87.1699V89.3398H296.467V93.5078H304.094V95.7422H286.197V93.5078H293.738V89.3398H288.303V79.8008H301.988V81.9922H291.053V87.1699H302.139ZM321.582 78.4473V92.498H318.832V78.4473H321.582ZM322.098 95.4414V97.6328H308.477V91.0801H311.248V95.4414H322.098ZM310.861 79.6934C313.869 79.6934 316.211 81.7559 316.211 84.6133C316.211 87.5352 313.869 89.5762 310.861 89.5762C307.854 89.5762 305.512 87.5352 305.512 84.6133C305.512 81.7559 307.854 79.6934 310.861 79.6934ZM310.861 82.0781C309.336 82.0566 308.176 83.0234 308.197 84.6133C308.176 86.2461 309.336 87.1914 310.861 87.1914C312.344 87.1914 313.504 86.2461 313.504 84.6133C313.504 83.0234 312.344 82.0566 310.861 82.0781ZM331.809 83.7539C331.809 86.9121 333.42 90.2852 336.707 91.6602L335.225 93.8086C332.915 92.8311 331.325 90.8867 330.455 88.502C329.563 91.0908 327.941 93.2393 325.643 94.3027L324.074 92.1328C327.318 90.6934 328.994 87.0625 328.994 83.7539V82.5508H324.848V80.3164H335.891V82.5508H331.809V83.7539ZM340.596 78.4258V97.9766H337.824V78.4258H340.596ZM364.787 78.4258V90.0273H362.059V85.4082H359.008V83.1953H362.059V78.4258H364.787ZM358.105 90.457C362.273 90.4785 364.83 91.8535 364.852 94.2383C364.83 96.6016 362.273 97.998 358.105 97.998C353.938 97.998 351.381 96.6016 351.381 94.2383C351.381 91.8535 353.938 90.4785 358.105 90.457ZM358.105 92.5625C355.506 92.5625 354.109 93.0996 354.109 94.2383C354.109 95.3555 355.506 95.9141 358.105 95.9141C360.705 95.9141 362.123 95.3555 362.123 94.2383C362.123 93.0996 360.705 92.5625 358.105 92.5625ZM359.588 79.6074V81.7988H355.699C355.764 84.0762 357.139 86.375 360.189 87.3848L358.836 89.5332C356.677 88.835 355.194 87.417 354.346 85.6445C353.476 87.6426 351.918 89.2539 349.598 90.0488L348.18 87.8789C351.392 86.8047 352.831 84.248 352.906 81.7988H348.975V79.6074H359.588ZM382.963 78.4473V84.0332H385.455V86.2891H382.963V91.7246H380.213V78.4473H382.963ZM367.107 89.2109C368.536 89.2109 370.169 89.2109 371.855 89.168V88.0723C369.729 87.7715 368.396 86.7402 368.418 85.2363C368.396 83.4316 370.309 82.3145 373.209 82.3145C376.088 82.3145 377.979 83.4316 378 85.2363C377.979 86.7402 376.679 87.7607 374.584 88.0508V89.0605C376.195 88.9961 377.796 88.8672 379.311 88.6738L379.504 90.5645C375.379 91.2949 370.846 91.3379 367.387 91.3379L367.107 89.2109ZM382.963 92.5195V97.9766H380.213V94.625H369.6V92.5195H382.963ZM378.816 79.8652V81.8633H367.623V79.8652H371.855V78.2754H374.584V79.8652H378.816ZM373.209 84.1406C371.812 84.1406 371.018 84.4844 371.039 85.2363C371.018 85.9453 371.812 86.3535 373.209 86.3535C374.584 86.3535 375.357 85.9453 375.379 85.2363C375.357 84.4844 374.584 84.1406 373.209 84.1406ZM402.707 78.4258V97.9766H399.936V78.4258H402.707ZM398.432 81.3691V83.5605H386.744V81.3691H391.191V78.6836H393.984V81.3691H398.432ZM392.631 84.6348C395.51 84.6348 397.658 86.5684 397.658 89.2969C397.658 92.0254 395.51 93.959 392.631 93.959C389.73 93.959 387.582 92.0254 387.582 89.2969C387.582 86.5684 389.73 84.6348 392.631 84.6348ZM392.631 86.8477C391.191 86.8691 390.203 87.793 390.203 89.2969C390.203 90.8223 391.191 91.7246 392.631 91.7031C394.049 91.7246 395.037 90.8223 395.037 89.2969C395.037 87.793 394.049 86.8691 392.631 86.8477ZM428.316 93.4434V95.6992H410.42V93.4434H417.961V89.4473H412.311V79.8652H426.318V89.4473H420.689V93.4434H428.316ZM415.018 82.0566V87.2988H423.611V82.0566H415.018ZM447.33 93.5078V95.7422H429.434V93.5078H447.33ZM445.268 79.7363V86.2461H434.246V88.4805H445.719V90.6289H431.496V84.0547H442.561V81.9277H431.475V79.7363H445.268ZM457.105 79.7793C457.105 81.1543 456.934 82.4004 456.568 83.5391H458.609V78.8125H461.188V89.2969H458.609V85.709H455.559C454.366 87.5566 452.476 89.0068 449.801 90.1133L448.469 88.0938C452.067 86.6865 453.851 84.6777 454.248 81.9707H449.457V79.7793H457.105ZM465.248 78.4473V89.5547H462.648V78.4473H465.248ZM455.666 91.0801C455.666 92.6484 456.332 94.2705 457.922 95.334C459.522 94.1846 460.221 92.4873 460.221 91.0801V90.1562H462.928V91.0801C462.906 93.0781 464.023 95.0332 466.623 95.8281L465.291 97.8262C463.411 97.1816 462.187 95.9678 461.51 94.4531C460.865 95.957 459.737 97.2783 457.965 97.9766C456.149 97.3213 455.011 96.0322 454.377 94.5176C453.689 95.9785 452.486 97.1709 450.703 97.8262L449.328 95.8281C451.906 94.9473 453.045 92.9707 453.066 91.0801V90.1562H455.666V91.0801ZM483.574 80.123V81.9707C483.574 84.4199 483.574 87.1699 482.779 91.3164L480.029 91.0371C480.771 87.3418 480.803 84.5918 480.824 82.293H469.309V80.123H483.574ZM485.293 93.3574V95.5918H467.461V93.3574H473.842V86.6328H476.57V93.3574H485.293ZM490.6 94.4102L488.752 100.533H486.475L487.549 94.4102H490.6ZM508.754 80.166V82.3359H497.152V80.166H501.6V78.3184H504.328V80.166H508.754ZM502.953 82.959C505.789 82.959 507.766 84.4199 507.766 86.5684C507.766 88.7168 505.789 90.1777 502.953 90.1777C500.117 90.1777 498.098 88.7168 498.098 86.5684C498.098 84.4199 500.117 82.959 502.953 82.959ZM502.953 85.0215C501.643 85.0215 500.762 85.5586 500.783 86.5684C500.762 87.5566 501.643 88.0723 502.953 88.0723C504.264 88.0723 505.166 87.5566 505.166 86.5684C505.166 85.5586 504.264 85.0215 502.953 85.0215ZM512.664 78.4258V83.4961H515.307V85.7305H512.664V90.6934H509.914V78.4258H512.664ZM512.664 91.5098V97.9766H509.914V93.7012H499.494V91.5098H512.664ZM520.957 90.1562V91.8105H529.014V90.1562H531.742V97.7617H518.25V90.1562H520.957ZM520.957 95.6133H529.014V93.8945H520.957V95.6133ZM533.998 86.9551V89.168H516.166V86.9551H533.998ZM526.5 79.2852C526.5 81.2402 528.756 83.4531 533.117 83.9473L532.15 86.0957C528.777 85.666 526.339 84.2695 525.082 82.3789C523.825 84.2695 521.376 85.666 518.035 86.0957L517.047 83.9473C521.408 83.4316 523.664 81.2832 523.686 79.2852V78.6191H526.5V79.2852ZM549.359 90.3926C553.42 90.3926 555.955 91.7891 555.955 94.1738C555.955 96.6016 553.42 97.998 549.359 97.998C545.213 97.998 542.656 96.6016 542.656 94.1738C542.656 91.7891 545.213 90.3926 549.359 90.3926ZM549.359 92.5195C546.781 92.5195 545.385 93.0566 545.406 94.1738C545.385 95.291 546.781 95.8711 549.359 95.8711C551.895 95.8711 553.248 95.291 553.248 94.1738C553.248 93.0566 551.895 92.5195 549.359 92.5195ZM555.762 78.4258V82.959H558.404V85.2578H555.762V89.9629H553.012V78.4258H555.762ZM543.559 79.6504V82.1211H547.555V79.6504H550.305V88.8457H540.83V79.6504H543.559ZM543.559 86.6758H547.555V84.248H543.559V86.6758ZM577.311 81.2832V83.4961H574.775V85.4941H577.311V87.7285H574.775V90.8438H572.025V78.4258H574.775V81.2832H577.311ZM568.395 91.0156C572.412 91.0156 574.99 92.3262 574.99 94.5176C574.99 96.666 572.412 97.9766 568.395 97.9766C564.291 97.9766 561.756 96.666 561.777 94.5176C561.756 92.3262 564.291 91.0156 568.395 91.0156ZM568.395 93.0996C565.838 93.0996 564.463 93.5508 564.484 94.5176C564.463 95.4414 565.838 95.9355 568.395 95.9355C570.887 95.9355 572.24 95.4414 572.24 94.5176C572.24 93.5508 570.887 93.0996 568.395 93.0996ZM570.865 80.2949V82.4219H559.264V80.2949H563.711V78.3184H566.439V80.2949H570.865ZM565.064 83.0879C567.9 83.0879 569.877 84.5273 569.877 86.6113C569.877 88.7168 567.9 90.1133 565.064 90.1133C562.186 90.1133 560.209 88.7168 560.209 86.6113C560.209 84.5273 562.186 83.0879 565.064 83.0879ZM565.064 85.0859C563.754 85.0859 562.873 85.623 562.895 86.6113C562.873 87.5781 563.754 88.0938 565.064 88.0723C566.375 88.0938 567.277 87.5781 567.277 86.6113C567.277 85.623 566.375 85.0859 565.064 85.0859ZM594.219 87.1699V89.3398H588.547V93.5078H596.174V95.7422H578.277V93.5078H585.818V89.3398H580.383V79.8008H594.068V81.9922H583.133V87.1699H594.219ZM607.346 78.7266V80.0801H615.188V78.7266H617.916V85.2793H604.639V78.7266H607.346ZM607.346 83.2383H615.188V82.0566H607.346V83.2383ZM620.193 86.2891V88.502H612.631V89.7266H618.023V94.668H607.131V95.7852H618.539V97.8477H604.445V92.7773H615.316V91.7246H604.424V89.7266H609.881V88.502H602.361V86.2891H620.193ZM636.887 78.4258V84.0332H639.529V86.3105H636.887V92.6699H634.137V78.4258H636.887ZM637.596 95.4414V97.6328H624.211V91.166H626.939V95.4414H637.596ZM626.875 79.6934C629.861 79.6934 632.203 81.7559 632.203 84.6562C632.203 87.5137 629.861 89.6191 626.875 89.6191C623.867 89.6191 621.504 87.5137 621.504 84.6562C621.504 81.7559 623.867 79.6934 626.875 79.6934ZM626.875 82.0781C625.393 82.0566 624.189 83.0234 624.211 84.6562C624.189 86.2461 625.393 87.2344 626.875 87.2344C628.379 87.2344 629.518 86.2461 629.539 84.6562C629.518 83.0234 628.379 82.0566 626.875 82.0781Z" fill="url(#paint0_linear_462_1130)"/>
</g>
<defs>
<filter id="filter0_d_462_1130" x="0" y="0" width="800" height="197" filterUnits="userSpaceOnUse" color-interpolation-filters="sRGB">
<feFlood flood-opacity="0" result="BackgroundImageFix"/>
<feColorMatrix in="SourceAlpha" type="matrix" values="0 0 0 0 0 0 0 0 0 0 0 0 0 0 0 0 0 0 127 0" result="hardAlpha"/>
<feOffset dy="10"/>
<feGaussianBlur stdDeviation="25"/>
<feComposite in2="hardAlpha" operator="out"/>
<feColorMatrix type="matrix" values="0 0 0 0 0.192157 0 0 0 0 0.509804 0 0 0 0 0.964706 0 0 0 0.3 0"/>
<feBlend mode="normal" in2="BackgroundImageFix" result="effect1_dropShadow_462_1130"/>
<feBlend mode="normal" in="SourceGraphic" in2="effect1_dropShadow_462_1130" result="shape"/>
</filter>
<linearGradient id="paint0_linear_462_1130" x1="108" y1="88.5" x2="692" y2="88.5" gradientUnits="userSpaceOnUse">
<stop stop-color="#3182F6"/>
<stop offset="1" stop-color="#A009FF"/>
</linearGradient>
</defs>
</svg>
