<svg width="180" height="180" viewBox="0 0 180 180" fill="none" xmlns="http://www.w3.org/2000/svg">
<circle cx="90" cy="90" r="90" fill="#CCE0FF"/>
<g filter="url(#filter0_i_8_646)">
<circle cx="90.0001" cy="90.0001" r="84.6798" fill="#CCE0FF"/>
</g>
<g filter="url(#filter1_d_8_646)">
<rect x="56.4541" y="49" width="67.0909" height="82" rx="5" fill="#69A4FF"/>
</g>
<rect width="52.1818" height="4.65909" rx="2.32955" transform="matrix(1 0 0 -1 63.9082 90)" fill="white"/>
<rect width="52.1818" height="4.65909" rx="2.32955" transform="matrix(1 0 0 -1 63.9082 105.841)" fill="white"/>
<rect width="52.1818" height="4.65909" rx="2.32955" transform="matrix(1 0 0 -1 63.9082 121.682)" fill="white"/>
<path d="M105.603 62.1768C105.05 62.1768 104.603 61.7291 104.603 61.1768V60.4687C104.603 59.9165 105.05 59.4688 105.603 59.4688H116.553C117.106 59.4688 117.553 59.9165 117.553 60.4687V61.1768C117.553 61.7291 117.106 62.1768 116.553 62.1768H113.705C113.153 62.1768 112.705 62.6246 112.705 63.1768V74.2805C112.705 74.8328 112.257 75.2805 111.705 75.2805H110.451C109.899 75.2805 109.451 74.8328 109.451 74.2805V63.1768C109.451 62.6246 109.003 62.1768 108.451 62.1768H105.603Z" fill="white"/>
<path d="M100.611 63.9892C100.099 63.9892 99.6985 63.5798 99.4432 63.1363C99.0268 62.4129 98.167 62.0018 96.9806 62.0018C95.3208 62.0018 94.4036 62.7662 94.3817 63.8145C94.3599 64.9501 95.5611 65.4743 96.9151 65.78L98.3347 66.1294C101.043 66.7409 103.074 68.1168 103.074 70.7594C103.074 73.6641 100.803 75.4986 96.9588 75.4986C93.5415 75.4986 91.2241 74.0843 90.7094 71.3649C90.6048 70.8123 91.0673 70.3445 91.6297 70.3445H92.8582C93.384 70.3445 93.7936 70.7684 94.0092 71.248C94.4569 72.2436 95.5364 72.7468 96.9151 72.7468C98.6404 72.7468 99.7543 71.9387 99.7543 70.7594C99.7543 69.6893 98.7715 69.187 97.0462 68.7502L95.3208 68.3352C92.6564 67.68 91.0185 66.3478 91.0185 64.0328C91.0185 61.15 93.5518 59.25 97.0025 59.25C100.06 59.25 102.214 60.7379 102.735 62.9824C102.861 63.5264 102.398 63.9892 101.84 63.9892H100.611Z" fill="white"/>
<path d="M78.958 75.2805C78.4057 75.2805 77.958 74.8328 77.958 74.2805V60.4687C77.958 59.9165 78.4057 59.4688 78.958 59.4688H87.572C88.1243 59.4688 88.572 59.9165 88.572 60.4687V61.1768C88.572 61.7291 88.1243 62.1768 87.572 62.1768H82.2339C81.6816 62.1768 81.2339 62.6246 81.2339 63.1768V65.0206C81.2339 65.5729 81.6816 66.0206 82.2339 66.0206H87.026C87.5783 66.0206 88.026 66.4683 88.026 67.0206V67.7287C88.026 68.281 87.5783 68.7287 87.026 68.7287H82.2339C81.6816 68.7287 81.2339 69.1764 81.2339 69.7287V71.5724C81.2339 72.1247 81.6816 72.5724 82.2339 72.5724H87.5938C88.1461 72.5724 88.5938 73.0202 88.5938 73.5724V74.2805C88.5938 74.8328 88.1461 75.2805 87.5938 75.2805H78.958Z" fill="white"/>
<path d="M63.9766 62.1768C63.4243 62.1768 62.9766 61.7291 62.9766 61.1768V60.4687C62.9766 59.9165 63.4243 59.4688 63.9766 59.4688H74.9274C75.4797 59.4688 75.9274 59.9165 75.9274 60.4687V61.1768C75.9274 61.7291 75.4797 62.1768 74.9274 62.1768H72.079C71.5267 62.1768 71.079 62.6246 71.079 63.1768V74.2805C71.079 74.8328 70.6313 75.2805 70.079 75.2805H68.8249C68.2726 75.2805 67.8249 74.8328 67.8249 74.2805V63.1768C67.8249 62.6246 67.3772 62.1768 66.8249 62.1768H63.9766Z" fill="white"/>
<defs>
<filter id="filter0_i_8_646" x="5.32031" y="5.32031" width="173.359" height="172.359" filterUnits="userSpaceOnUse" color-interpolation-filters="sRGB">
<feFlood flood-opacity="0" result="BackgroundImageFix"/>
<feBlend mode="normal" in="SourceGraphic" in2="BackgroundImageFix" result="shape"/>
<feColorMatrix in="SourceAlpha" type="matrix" values="0 0 0 0 0 0 0 0 0 0 0 0 0 0 0 0 0 0 127 0" result="hardAlpha"/>
<feOffset dx="4" dy="3"/>
<feGaussianBlur stdDeviation="3.5"/>
<feComposite in2="hardAlpha" operator="arithmetic" k2="-1" k3="1"/>
<feColorMatrix type="matrix" values="0 0 0 0 1 0 0 0 0 1 0 0 0 0 1 0 0 0 0.3 0"/>
<feBlend mode="normal" in2="shape" result="effect1_innerShadow_8_646"/>
</filter>
<filter id="filter1_d_8_646" x="49.4541" y="43" width="87.0908" height="102" filterUnits="userSpaceOnUse" color-interpolation-filters="sRGB">
<feFlood flood-opacity="0" result="BackgroundImageFix"/>
<feColorMatrix in="SourceAlpha" type="matrix" values="0 0 0 0 0 0 0 0 0 0 0 0 0 0 0 0 0 0 127 0" result="hardAlpha"/>
<feOffset dx="3" dy="4"/>
<feGaussianBlur stdDeviation="5"/>
<feComposite in2="hardAlpha" operator="out"/>
<feColorMatrix type="matrix" values="0 0 0 0 0.592157 0 0 0 0 0.752941 0 0 0 0 1 0 0 0 1 0"/>
<feBlend mode="normal" in2="BackgroundImageFix" result="effect1_dropShadow_8_646"/>
<feBlend mode="normal" in="SourceGraphic" in2="effect1_dropShadow_8_646" result="shape"/>
</filter>
</defs>
</svg>
