<svg width="180" height="180" viewBox="0 0 180 180" fill="none" xmlns="http://www.w3.org/2000/svg">
<circle cx="90" cy="90" r="90" fill="#CCE0FF"/>
<g filter="url(#filter0_i_8_669)">
<circle cx="90.0001" cy="90.0001" r="84.6798" fill="#CCE0FF"/>
</g>
<g filter="url(#filter1_d_8_669)">
<path d="M90 58C104.912 58 117 70.0883 117 85C117 87.7837 116.579 90.469 115.796 92.9956C115.796 92.9978 115.797 93 115.8 93C115.802 93 115.804 93.0025 115.803 93.0047L115.768 93.084C115.066 95.3226 114.079 97.4344 112.853 99.3799C112.27 100.42 111.634 101.43 110.944 102.404L94.0814 126.233C92.0888 129.048 87.9112 129.048 85.9186 126.233L69.0557 102.404C68.366 101.43 67.7292 100.42 67.1465 99.3799C65.9198 97.4344 64.933 95.3225 64.2314 93.084L64.1974 93.0047C64.1964 93.0025 64.198 93 64.2005 93C64.2028 93 64.2044 92.9978 64.2037 92.9956C63.4215 90.469 63 87.7837 63 85C63 70.0883 75.0883 58 90 58Z" fill="#69A4FF"/>
<circle cx="90.1342" cy="85.1342" r="14.1342" fill="#CCE0FF"/>
</g>
<defs>
<filter id="filter0_i_8_669" x="5.32031" y="5.32031" width="173.359" height="172.359" filterUnits="userSpaceOnUse" color-interpolation-filters="sRGB">
<feFlood flood-opacity="0" result="BackgroundImageFix"/>
<feBlend mode="normal" in="SourceGraphic" in2="BackgroundImageFix" result="shape"/>
<feColorMatrix in="SourceAlpha" type="matrix" values="0 0 0 0 0 0 0 0 0 0 0 0 0 0 0 0 0 0 127 0" result="hardAlpha"/>
<feOffset dx="4" dy="3"/>
<feGaussianBlur stdDeviation="3.5"/>
<feComposite in2="hardAlpha" operator="arithmetic" k2="-1" k3="1"/>
<feColorMatrix type="matrix" values="0 0 0 0 1 0 0 0 0 1 0 0 0 0 1 0 0 0 0.3 0"/>
<feBlend mode="normal" in2="shape" result="effect1_innerShadow_8_669"/>
</filter>
<filter id="filter1_d_8_669" x="56" y="52" width="74" height="90.3447" filterUnits="userSpaceOnUse" color-interpolation-filters="sRGB">
<feFlood flood-opacity="0" result="BackgroundImageFix"/>
<feColorMatrix in="SourceAlpha" type="matrix" values="0 0 0 0 0 0 0 0 0 0 0 0 0 0 0 0 0 0 127 0" result="hardAlpha"/>
<feOffset dx="3" dy="4"/>
<feGaussianBlur stdDeviation="5"/>
<feComposite in2="hardAlpha" operator="out"/>
<feColorMatrix type="matrix" values="0 0 0 0 0.192157 0 0 0 0 0.509804 0 0 0 0 0.964706 0 0 0 0.25 0"/>
<feBlend mode="normal" in2="BackgroundImageFix" result="effect1_dropShadow_8_669"/>
<feBlend mode="normal" in="SourceGraphic" in2="effect1_dropShadow_8_669" result="shape"/>
</filter>
</defs>
</svg>
