<svg width="180" height="180" viewBox="0 0 180 180" fill="none" xmlns="http://www.w3.org/2000/svg">
<circle cx="90" cy="90" r="90" fill="#CCE0FF"/>
<g filter="url(#filter0_i_8_634)">
<circle cx="90.0001" cy="90.0001" r="84.6798" fill="#CCE0FF"/>
</g>
<g filter="url(#filter1_d_8_634)">
<path d="M96.8522 56.4189C111.293 56.4189 123.001 68.1261 123.001 82.5674C123 97.0086 111.293 108.716 96.8522 108.716C92.5788 108.716 88.545 107.69 84.983 105.872L68.8834 121.973C66.9308 123.925 63.7647 123.925 61.8121 121.973L58.692 118.853C56.7394 116.9 56.7394 113.734 58.692 111.781L74.4361 96.0361C72.0673 92.1022 70.7038 87.4941 70.7037 82.5674C70.7037 68.1262 82.411 56.419 96.8522 56.4189Z" fill="#69A4FF"/>
</g>
<circle cx="96.852" cy="82.5687" r="14.1342" fill="#CCE0FF"/>
<defs>
<filter id="filter0_i_8_634" x="5.32031" y="5.32031" width="173.359" height="172.359" filterUnits="userSpaceOnUse" color-interpolation-filters="sRGB">
<feFlood flood-opacity="0" result="BackgroundImageFix"/>
<feBlend mode="normal" in="SourceGraphic" in2="BackgroundImageFix" result="shape"/>
<feColorMatrix in="SourceAlpha" type="matrix" values="0 0 0 0 0 0 0 0 0 0 0 0 0 0 0 0 0 0 127 0" result="hardAlpha"/>
<feOffset dx="4" dy="3"/>
<feGaussianBlur stdDeviation="3.5"/>
<feComposite in2="hardAlpha" operator="arithmetic" k2="-1" k3="1"/>
<feColorMatrix type="matrix" values="0 0 0 0 1 0 0 0 0 1 0 0 0 0 1 0 0 0 0.3 0"/>
<feBlend mode="normal" in2="shape" result="effect1_innerShadow_8_634"/>
</filter>
<filter id="filter1_d_8_634" x="50.2275" y="50.4189" width="85.7734" height="87.0186" filterUnits="userSpaceOnUse" color-interpolation-filters="sRGB">
<feFlood flood-opacity="0" result="BackgroundImageFix"/>
<feColorMatrix in="SourceAlpha" type="matrix" values="0 0 0 0 0 0 0 0 0 0 0 0 0 0 0 0 0 0 127 0" result="hardAlpha"/>
<feOffset dx="3" dy="4"/>
<feGaussianBlur stdDeviation="5"/>
<feComposite in2="hardAlpha" operator="out"/>
<feColorMatrix type="matrix" values="0 0 0 0 0.411765 0 0 0 0 0.643137 0 0 0 0 1 0 0 0 0.6 0"/>
<feBlend mode="normal" in2="BackgroundImageFix" result="effect1_dropShadow_8_634"/>
<feBlend mode="normal" in="SourceGraphic" in2="effect1_dropShadow_8_634" result="shape"/>
</filter>
</defs>
</svg>
