<svg width="180" height="183" viewBox="0 0 180 183" fill="none" xmlns="http://www.w3.org/2000/svg">
<circle cx="90" cy="90" r="90" fill="#CCE0FF"/>
<g filter="url(#filter0_i_8_665)">
<circle cx="90.0001" cy="90.0001" r="84.6798" fill="#CCE0FF"/>
</g>
<circle cx="90" cy="93" r="90" fill="#CCE0FF"/>
<g filter="url(#filter1_i_8_665)">
<circle cx="90.0001" cy="93.0001" r="84.6798" fill="#CCE0FF"/>
</g>
<g filter="url(#filter2_d_8_665)">
<path d="M44.4592 81.1273L21.4844 82.3314L19.0346 102.309L22.7423 106.332L63.2558 104.209L70.5103 107.222L70.3329 103.838L151.565 99.5805C156.181 99.3386 158.373 97.9896 159.156 93.3204C159.156 93.3204 160.362 82.9724 160.628 80.1816L155.949 75.2844L147.846 75.7091L147.608 77.0586C146.453 76.6049 144.769 75.8703 141.589 76.037C138.615 76.1928 136.212 77.4501 135.71 77.6821L135.64 76.3487L121.999 77.0636L120.19 79.8325L119.127 77.2141L99.9475 78.2193L98.959 80.9451C97.9553 79.4551 96.8705 78.3806 94.1012 78.5257L84.7677 79.0149C84.7478 79.2902 84.5406 80.5695 84.5406 80.5695C83.785 79.8891 82.2035 79.1492 80.7676 79.2245L69.9982 79.7889L69.587 83.7186C68.6948 82.3941 66.1784 79.9068 61.998 80.2082C60.0493 80.3103 58.9157 80.2669 56.1029 81.5456L56.2543 80.5092L47.9465 80.9446C47.923 81.1515 47.8005 82.0836 47.8005 82.0836C47.1636 81.7056 46.2029 81.036 44.4592 81.1273Z" fill="#69A4FF"/>
<path d="M138.168 89.8052C138.221 90.8148 138.972 91.2817 140.42 91.2058C141.883 91.1291 142.591 90.6371 142.544 89.7299C142.519 89.247 142.249 88.865 141.735 88.5838C141.222 88.3026 140.601 88.0783 139.873 87.911C139.16 87.743 138.438 87.5461 137.708 87.3202C136.991 87.079 136.368 86.6861 135.841 86.1415C135.313 85.5823 135.026 84.871 134.981 84.0077C134.788 80.3348 137.055 78.3746 141.782 78.1269C143.508 78.0364 144.828 78.2974 145.74 78.9098C146.667 79.5069 147.16 80.3834 147.221 81.5394C147.243 81.9638 147.206 82.3765 147.11 82.7778C147.027 83.1636 146.932 83.44 146.823 83.6071L146.661 83.8797L142.776 84.0833C143.08 83.7299 143.219 83.2971 143.192 82.785C143.142 81.8338 142.496 81.3909 141.252 81.4561C139.686 81.5381 138.929 82.0767 138.981 83.0717C139.008 83.5692 139.277 83.9512 139.79 84.2178C140.303 84.4844 140.915 84.6871 141.627 84.8259C142.352 84.9493 143.08 85.1165 143.81 85.3277C144.54 85.5389 145.169 85.9241 145.697 86.4833C146.225 87.0279 146.512 87.7612 146.561 88.683C146.658 90.5414 146.175 91.9533 145.11 92.9189C144.045 93.8697 142.356 94.4058 140.044 94.5269C137.732 94.6481 136.13 94.3212 135.239 93.5462C134.577 92.9646 134.218 92.1324 134.161 91.0496C134.14 90.6399 134.16 90.1913 134.223 89.7038L134.27 89.3492L138.221 89.1421L138.191 89.4078C138.169 89.5557 138.162 89.6881 138.168 89.8052Z" fill="white"/>
<path d="M133.663 78.7064L131.726 94.6547L127.753 94.8629L129.712 78.9135L133.663 78.7064Z" fill="white"/>
<path d="M127.99 79.0046L122.218 87.2965L126.031 94.954L121.531 95.1898L119.115 90.2543L115.758 95.4924L111.259 95.7282L116.665 87.5875L113.218 79.7787L117.718 79.5429L119.809 84.5835L123.49 79.2404L127.99 79.0046Z" fill="white"/>
<path d="M106.394 95.9827L106.346 92.5298L102.68 92.7219L101.785 96.2243L97.5929 96.444L102.406 80.345L109.649 79.9654L110.565 95.7642L106.394 95.9827ZM104.868 84.0676L103.426 89.7336L106.301 89.5829L106.25 83.9951L104.868 84.0676Z" fill="white"/>
<path d="M92.5004 80.8641C94.1686 80.7766 95.373 81.0804 96.1137 81.7752C96.6696 82.3036 96.9698 82.9922 97.0143 83.8409C97.0297 84.1335 97.0165 84.4424 96.9748 84.7674L96.7573 86.4955C96.6315 87.4558 96.3645 88.2401 95.9562 88.8485C95.5625 89.456 95.1088 89.898 94.5951 90.1743L96.9283 96.4788L92.4946 96.7112L90.3414 90.9035L88.9806 90.9748L88.3901 96.9263L84.1759 97.1471L86.1352 81.1977L92.5004 80.8641ZM91.2971 84.3606L89.6509 84.4469L89.2804 88.2959L90.8168 88.2154C91.5924 88.1748 92.1388 87.9627 92.4562 87.5793C92.7728 87.1812 92.915 86.6748 92.8828 86.0603C92.8207 84.875 92.2921 84.3085 91.2971 84.3606Z" fill="white"/>
<path d="M77.9619 92.6517L75.35 92.7885L74.7459 97.6403L70.795 97.8473L72.7543 81.8979L79.4488 81.547C81.1023 81.4604 82.3002 81.7791 83.0424 82.5032C83.5853 83.0616 83.8805 83.7945 83.928 84.7017C83.9441 85.009 83.9317 85.3325 83.8908 85.6721L83.5818 88.1753C83.426 89.4014 82.8347 90.4374 81.8079 91.2836C80.7803 92.1151 79.4983 92.5711 77.9619 92.6517ZM78.2455 85.0435L76.2701 85.1471L75.7631 89.3334L77.7166 89.231C78.9165 89.1682 79.5836 88.5976 79.7178 87.5195L79.8243 86.6115C79.8467 86.4783 79.8521 86.3019 79.8406 86.0824C79.8291 85.8629 79.7067 85.6273 79.4734 85.3754C79.2401 85.1235 78.8308 85.0129 78.2455 85.0435Z" fill="white"/>
<path d="M59.0119 98.7741C56.9194 98.8837 55.447 98.506 54.5946 97.641C54.0048 97.0263 53.6796 96.141 53.6191 94.985C53.593 94.4875 53.6162 93.9507 53.6887 93.3746L54.3241 88.2792C54.7885 84.5426 57.0693 82.5669 61.1665 82.3522C62.8639 82.2632 64.1708 82.5616 65.0871 83.2472C66.0026 83.9182 66.4934 84.8829 66.5593 86.1413C66.59 86.7266 66.5329 87.3165 66.388 87.911C66.2569 88.4901 66.1182 88.9229 65.9718 89.2094L65.7534 89.661L61.8684 89.8646C62.3221 89.2833 62.5221 88.4805 62.4684 87.4562C62.4401 86.9148 62.2788 86.4977 61.9847 86.205C61.6898 85.8976 61.2716 85.7581 60.7302 85.7865C59.2523 85.864 58.4173 86.7294 58.2252 88.3828L57.6893 92.8568C57.6361 93.2411 57.6191 93.6162 57.6382 93.982C57.6889 94.9478 58.2922 95.4003 59.4481 95.3398C60.8383 95.2669 61.6313 94.4403 61.8273 92.8601L65.7781 92.653L65.7017 93.2953C65.2951 96.7354 63.0651 98.5617 59.0119 98.7741Z" fill="white"/>
<path d="M53.4293 82.9105L51.4919 98.8588L47.5191 99.067L49.4785 83.1176L53.4293 82.9105Z" fill="white"/>
<path d="M41.4951 94.5628L38.8832 94.6997L38.2791 99.5514L34.3282 99.7584L36.2875 83.809L42.982 83.4581C44.6355 83.3715 45.8334 83.6902 46.5757 84.4143C47.1185 84.9728 47.4137 85.7056 47.4612 86.6129C47.4773 86.9201 47.4649 87.2436 47.424 87.5832L47.115 90.0865C46.9592 91.3125 46.3679 92.3486 45.3411 93.1947C44.3135 94.0262 43.0315 94.4823 41.4951 94.5628ZM41.7787 86.9547L39.8033 87.0582L39.2963 91.2446L41.2498 91.1422C42.4497 91.0793 43.1168 90.5088 43.251 89.4306L43.3575 88.5226C43.3799 88.3894 43.3853 88.2131 43.3738 87.9936C43.3623 87.7741 43.2399 87.5384 43.0066 87.2865C42.7733 87.0346 42.364 86.924 41.7787 86.9547Z" fill="white"/>
<path d="M32.6284 99.848L21.61 100.425L23.5693 84.476L34.5877 83.8985L34.1526 87.3548L27.085 87.7252L26.7355 90.7148L32.5739 90.4088L32.1388 93.8651L26.3003 94.1711L25.9959 96.7621L33.0635 96.3917L32.6284 99.848Z" fill="white"/>
<path d="M151.941 88.3001L149.06 88.4511L150.069 77.8549L153.752 77.6618L151.941 88.3001ZM147.951 92.5751C147.907 91.727 148.077 91.1003 148.461 90.6948C148.844 90.2761 149.477 90.0436 150.358 89.9975C151.571 89.9339 152.203 90.3924 152.254 91.3729C152.298 92.2077 152.121 92.8282 151.722 93.2345C151.338 93.6399 150.705 93.8658 149.824 93.9119C148.625 93.9747 148.001 93.5291 147.951 92.5751Z" fill="white"/>
</g>
<defs>
<filter id="filter0_i_8_665" x="5.32031" y="5.32031" width="173.359" height="172.359" filterUnits="userSpaceOnUse" color-interpolation-filters="sRGB">
<feFlood flood-opacity="0" result="BackgroundImageFix"/>
<feBlend mode="normal" in="SourceGraphic" in2="BackgroundImageFix" result="shape"/>
<feColorMatrix in="SourceAlpha" type="matrix" values="0 0 0 0 0 0 0 0 0 0 0 0 0 0 0 0 0 0 127 0" result="hardAlpha"/>
<feOffset dx="4" dy="3"/>
<feGaussianBlur stdDeviation="3.5"/>
<feComposite in2="hardAlpha" operator="arithmetic" k2="-1" k3="1"/>
<feColorMatrix type="matrix" values="0 0 0 0 1 0 0 0 0 1 0 0 0 0 1 0 0 0 0.3 0"/>
<feBlend mode="normal" in2="shape" result="effect1_innerShadow_8_665"/>
</filter>
<filter id="filter1_i_8_665" x="5.32031" y="8.32031" width="173.359" height="172.359" filterUnits="userSpaceOnUse" color-interpolation-filters="sRGB">
<feFlood flood-opacity="0" result="BackgroundImageFix"/>
<feBlend mode="normal" in="SourceGraphic" in2="BackgroundImageFix" result="shape"/>
<feColorMatrix in="SourceAlpha" type="matrix" values="0 0 0 0 0 0 0 0 0 0 0 0 0 0 0 0 0 0 127 0" result="hardAlpha"/>
<feOffset dx="4" dy="3"/>
<feGaussianBlur stdDeviation="3.5"/>
<feComposite in2="hardAlpha" operator="arithmetic" k2="-1" k3="1"/>
<feColorMatrix type="matrix" values="0 0 0 0 1 0 0 0 0 1 0 0 0 0 1 0 0 0 0.3 0"/>
<feBlend mode="normal" in2="shape" result="effect1_innerShadow_8_665"/>
</filter>
<filter id="filter2_d_8_665" x="12.0347" y="69.2842" width="161.593" height="51.9385" filterUnits="userSpaceOnUse" color-interpolation-filters="sRGB">
<feFlood flood-opacity="0" result="BackgroundImageFix"/>
<feColorMatrix in="SourceAlpha" type="matrix" values="0 0 0 0 0 0 0 0 0 0 0 0 0 0 0 0 0 0 127 0" result="hardAlpha"/>
<feOffset dx="3" dy="4"/>
<feGaussianBlur stdDeviation="5"/>
<feComposite in2="hardAlpha" operator="out"/>
<feColorMatrix type="matrix" values="0 0 0 0 0.411765 0 0 0 0 0.643137 0 0 0 0 1 0 0 0 0.6 0"/>
<feBlend mode="normal" in2="BackgroundImageFix" result="effect1_dropShadow_8_665"/>
<feBlend mode="normal" in="SourceGraphic" in2="effect1_dropShadow_8_665" result="shape"/>
</filter>
</defs>
</svg>
