<svg width="765" height="197" viewBox="0 0 765 197" fill="none" xmlns="http://www.w3.org/2000/svg">
<rect x="0.5" y="0.5" width="764" height="196" rx="14.5" fill="white" stroke="url(#paint0_linear_543_1093)"/>
<path d="M304.002 33L304.002 165" stroke="#F2F2F7" stroke-width="2"/>
<path d="M41.0156 123.641V125.727H21.7031V123.641H41.0156ZM38.6016 127.156V132.359H26.5547V133.906H39.1875V135.898H24V130.508H36.0469V129.078H23.9766V127.156H38.6016ZM39.2812 115.625V117.688H32.9766C33.5039 119.258 36.1172 120.629 40.1016 120.898L39.2812 122.914C35.4844 122.609 32.6133 121.332 31.3359 119.445C30.0586 121.32 27.2227 122.609 23.4609 122.914L22.6406 120.898C26.5898 120.629 29.168 119.258 29.7188 117.688H23.4609V115.625H39.2812ZM60.1875 114.898V136.086H57.5859V125.305H53.1094V123.172H57.5859V114.898H60.1875ZM53.2031 117.148C53.1797 123.406 50.9531 128.656 43.6641 132.266L42.3047 130.227C47.7891 127.543 50.1445 123.957 50.5781 119.211H43.2891V117.148H53.2031ZM82.5234 125.375V127.461H74.3438V131.352H71.6953V127.461H63.1641V125.375H82.5234ZM80.3906 133.531V135.664H65.5312V129.383H68.1562V133.531H80.3906ZM72.8203 115.367C77.3906 115.367 80.4141 117.031 80.4141 119.703C80.4141 122.375 77.3906 124.016 72.8203 124.016C68.25 124.016 65.2266 122.375 65.2266 119.703C65.2266 117.031 68.25 115.367 72.8203 115.367ZM72.8203 117.43C69.9141 117.43 68.0156 118.25 68.0391 119.703C68.0156 121.109 69.9141 121.93 72.8203 121.93C75.75 121.93 77.625 121.109 77.625 119.703C77.625 118.25 75.75 117.43 72.8203 117.43ZM108.938 123.758V125.867H89.625V123.758H97.9453V122.164H92.0625V115.555H106.453V122.164H100.523V123.758H108.938ZM94.6172 117.594V120.125H103.852V117.594H94.6172ZM106.523 127.156V132.359H94.4766V133.906H107.109V135.898H91.9219V130.484H103.969V129.125H91.8984V127.156H106.523ZM128.016 114.898V126.266H125.391V114.898H128.016ZM116.578 127.25V129.43H125.414V127.25H128.016V135.828H114V127.25H116.578ZM116.578 133.719H125.414V131.469H116.578V133.719ZM116.461 115.836C119.719 115.812 122.156 117.852 122.156 120.805C122.156 123.688 119.719 125.727 116.461 125.727C113.18 125.727 110.742 123.688 110.742 120.805C110.742 117.852 113.18 115.812 116.461 115.836ZM116.461 118.016C114.609 118.016 113.273 119.094 113.297 120.805C113.273 122.492 114.609 123.57 116.461 123.594C118.289 123.57 119.602 122.492 119.602 120.805C119.602 119.094 118.289 118.016 116.461 118.016ZM142.992 117.008V119.07H131.156V117.008H135.891V114.711H138.492V117.008H142.992ZM137.156 119.914C140.039 119.914 142.102 121.508 142.125 123.875C142.102 126.219 140.039 127.789 137.156 127.789C134.273 127.789 132.234 126.219 132.258 123.875C132.234 121.508 134.273 119.914 137.156 119.914ZM137.156 121.859C135.656 121.859 134.672 122.609 134.695 123.875C134.672 125.117 135.656 125.844 137.156 125.844C138.656 125.844 139.688 125.117 139.688 123.875C139.688 122.609 138.656 121.859 137.156 121.859ZM148.852 114.898V128.469H146.25V125.984H143.109V123.898H146.25V121.812H143.133V119.703H146.25V114.898H148.852ZM141.727 128.703C146.203 128.703 148.969 130.062 148.969 132.383C148.969 134.68 146.203 136.062 141.727 136.062C137.25 136.062 134.484 134.68 134.484 132.383C134.484 130.062 137.25 128.703 141.727 128.703ZM141.727 130.695C138.867 130.695 137.227 131.258 137.227 132.383C137.227 133.484 138.867 134.07 141.727 134.07C144.562 134.07 146.18 133.484 146.18 132.383C146.18 131.258 144.562 130.695 141.727 130.695ZM176.859 125.258V127.344H157.547V125.258H165.891V123.148H159.914V115.766H174.539V117.828H162.516V121.039H174.727V123.148H168.492V125.258H176.859ZM174.539 129.008V136.156H171.961V131.094H159.68V129.008H174.539ZM186.117 119.984C186.117 123.922 187.992 127.789 191.367 129.266L189.797 131.352C187.395 130.18 185.707 127.93 184.805 125.164C183.879 128.082 182.156 130.508 179.719 131.75L178.078 129.641C181.523 128.023 183.445 123.945 183.469 119.984V116.609H186.117V119.984ZM196.055 114.898V136.109H193.477V123.852H189.023V121.742H193.477V114.898H196.055ZM221.508 114.898V122H224.367V124.156H221.508V131.445H218.906V114.898H221.508ZM222.258 133.555V135.664H207.586V130.344H210.188V133.555H222.258ZM204.539 127.203C206.121 127.203 207.961 127.191 209.883 127.109V125.773C207.527 125.492 206.039 124.332 206.039 122.633C206.039 120.547 208.078 119.328 211.148 119.352C214.242 119.328 216.258 120.547 216.258 122.633C216.258 124.32 214.805 125.469 212.484 125.773V126.992C214.289 126.898 216.105 126.734 217.805 126.477L218.016 128.305C213.539 129.148 208.477 129.195 204.82 129.242L204.539 127.203ZM217.242 116.75V118.648H205.078V116.75H209.883V114.828H212.484V116.75H217.242ZM211.148 121.109C209.508 121.109 208.523 121.648 208.547 122.633C208.523 123.547 209.508 124.086 211.148 124.086C212.789 124.086 213.773 123.547 213.773 122.633C213.773 121.648 212.789 121.109 211.148 121.109ZM243.211 114.922V127.297H240.609V124.953H235.57V122.844H240.609V120.57H235.781C234.434 123.945 231.352 126.301 226.734 127.578L225.68 125.516C230.637 124.168 233.273 121.66 233.695 118.508H226.805V116.398H236.531C236.531 117.137 236.473 117.84 236.344 118.508H240.609V114.922H243.211ZM236.203 127.531C240.492 127.531 243.352 129.148 243.352 131.75C243.352 134.352 240.492 135.969 236.203 135.969C231.867 135.969 229.008 134.352 229.008 131.75C229.008 129.148 231.867 127.531 236.203 127.531ZM236.203 129.57C233.344 129.57 231.609 130.344 231.609 131.75C231.609 133.133 233.344 133.906 236.203 133.906C238.992 133.906 240.75 133.133 240.75 131.75C240.75 130.344 238.992 129.57 236.203 129.57Z" fill="url(#paint1_linear_543_1093)"/>
<path d="M46.9443 77.5869V80.6445H21.8174V77.5869H32.4434V75.1348H24.875V65.3262H43.9775V68.3838H28.7197V72.0166H44.25V75.1348H36.3184V77.5869H46.9443ZM43.9473 82.5518V91.876H40.1631V85.6094H24.6025V82.5518H43.9473ZM59.0234 70.4727C59.0234 75.6494 61.1123 80.6748 65.7139 82.6729L63.3525 85.7607C60.2949 84.2622 58.2515 81.5225 57.1162 78.1318C55.9053 81.7344 53.7861 84.686 50.6377 86.2451L48.2158 83.0967C52.9385 80.9775 55.0879 75.6494 55.1182 70.4727V66.3555H59.0234V70.4727ZM71.8594 64.2363V91.8457H68.0449V76.0127H62.626V72.8945H68.0449V64.2363H71.8594ZM97.1377 64.2363V74.8018H101.043V77.9805H97.1377V91.7246H93.2627V64.2363H97.1377ZM89.7812 67.0518C89.751 75.2861 86.542 82.4307 77.2783 86.9717L75.0986 84.0049C81.6226 80.7354 85.1191 76.3457 85.8457 70.2002H76.6729V67.0518H89.7812ZM131.619 69.6855V72.7432H123.869V74.9834H134.525V78.041H109.308V74.9834H119.994V72.7432H112.456V64.5693H116.301V69.6855H131.619ZM131.498 79.5547V86.7598H116.119V88.5156H132.346V91.4824H112.244V84.0654H127.653V82.5215H112.184V79.5547H131.498ZM159.198 64.2363V91.8457H155.293V64.2363H159.198ZM144.243 66.1738C148.391 66.1738 151.479 69.9883 151.479 75.9824C151.479 82.0371 148.391 85.8213 144.243 85.8213C140.005 85.8213 136.917 82.0371 136.947 75.9824C136.917 69.9883 140.005 66.1738 144.243 66.1738ZM144.243 69.6553C142.094 69.6553 140.671 71.8955 140.671 75.9824C140.671 80.0996 142.094 82.3096 144.243 82.3096C146.332 82.3096 147.755 80.0996 147.755 75.9824C147.755 71.8955 146.332 69.6553 144.243 69.6553ZM184.658 64.2363V74.8018H188.563V77.9805H184.658V91.7246H180.783V64.2363H184.658ZM177.302 67.0518C177.271 75.2861 174.062 82.4307 164.799 86.9717L162.619 84.0049C169.143 80.7354 172.64 76.3457 173.366 70.2002H164.193V67.0518H177.302ZM220.048 64.2666V80.1904H216.112V64.2666H220.048ZM196.889 76.8604C199.038 76.8604 201.521 76.8452 204.094 76.7695V74.6201H199.25V65.4775H212.601V68.5654H203.125V71.5928H212.752V74.6201H207.938V76.6182C210.148 76.5273 212.343 76.3608 214.417 76.1035L214.629 78.7373C208.756 79.7666 202.277 79.8271 197.403 79.8877L196.889 76.8604ZM205.093 81.3105V83.4297H216.233V81.3105H220.048V91.4824H201.248V81.3105H205.093ZM205.093 88.3945H216.233V86.3057H205.093V88.3945ZM246.81 64.2363V91.7852H242.965V64.2363H246.81ZM228.948 66.8701V81.6738C232.672 81.6284 236.668 81.2803 240.725 80.4932L241.209 83.6719C236.365 84.6709 231.824 85.0039 227.556 84.9736H225.134V66.8701H228.948ZM272.179 64.2363V74.4688H276.235V77.6172H272.179V91.8457H268.304V64.2363H272.179ZM264.459 66.7793V69.8975H255.377V81.9766C259.373 81.9312 262.673 81.7495 266.336 81.0986L266.76 84.3379C262.491 85.0645 258.737 85.1855 253.863 85.1553H251.532V66.7793H264.459Z" fill="black"/>
<path d="M340.939 64.6406C339.626 64.6406 338.548 63.5625 338.548 62.2266C338.548 60.9141 339.626 59.8359 340.939 59.8359C342.275 59.8359 343.353 60.9141 343.353 62.2266C343.353 63.5625 342.275 64.6406 340.939 64.6406ZM361.658 69H359.455L365.666 52.0312H367.892L374.103 69H371.876L370.189 64.2188H363.369L361.658 69ZM364.001 62.3672H369.533L366.837 54.7734H366.697L364.001 62.3672ZM376.4 69V52.0312H382.166C386.15 52.0312 387.955 54.2344 387.955 57.2578C387.955 59.4961 386.947 61.2656 384.791 62.0156L388.611 69H386.15L382.611 62.3906L382.189 62.4141H378.509V69H376.4ZM378.509 60.4922H382.095C384.791 60.4922 385.869 59.2734 385.869 57.2578C385.869 55.2188 384.791 53.9062 382.072 53.9062H378.509V60.4922ZM407.923 51.6094V52.5234C407.9 54.0117 407.9 56.5898 407.244 60.2812C408.158 60.2227 409.083 60.1406 409.986 60.0469L410.126 61.4531C407.994 61.7227 405.779 61.8984 403.611 61.9922V69.6562H401.759V62.0625C399.779 62.1445 397.857 62.1562 396.111 62.1562L395.853 60.6328C398.736 60.5977 402.064 60.5742 405.369 60.3984C405.626 59.1328 405.791 57.9961 405.908 56.9766L397.587 57.7031L397.283 56.1328L406.025 55.6406C406.095 54.6445 406.119 53.8125 406.119 53.1328H397.728V51.6094H407.923ZM413.337 50.0625V70.8984H411.509V50.0625H413.337ZM435.814 66.5859V68.1328H416.736V66.5859H435.814ZM427.189 54.6562C427.189 57.9844 431.314 60.8203 434.9 61.4062L434.15 62.8594C430.962 62.2383 427.599 60.1992 426.275 57.3281C424.927 60.2227 421.576 62.3203 418.447 62.9531L417.673 61.4766C421.189 60.8672 425.291 57.9844 425.291 54.6562V53.6953H418.306V52.1719H434.173V53.6953H427.189V54.6562ZM443.759 51.4219C446.97 51.4453 449.291 53.4141 449.314 56.3203C449.291 58.9336 447.416 60.7969 444.697 61.125V64.6875C446.642 64.5938 448.599 64.4531 450.416 64.2188L450.533 65.6016C446.126 66.3516 441.181 66.3984 437.525 66.375L437.22 64.8281C438.896 64.8164 440.841 64.8047 442.845 64.7344V61.125C440.08 60.8086 438.181 58.9453 438.205 56.3203C438.181 53.4141 440.501 51.4453 443.759 51.4219ZM443.759 53.0156C441.58 53.0156 439.986 54.375 440.009 56.3203C439.986 58.2656 441.58 59.625 443.759 59.625C445.916 59.625 447.486 58.2656 447.509 56.3203C447.486 54.375 445.916 53.0156 443.759 53.0156ZM453.58 50.0625V58.6641H456.978V60.2578H453.58V70.8984H451.751V50.0625H453.58ZM483.322 66.75V68.3203H464.244V66.75H472.798V61.9453H465.978V60.4688H469.236V53.625H465.931V52.1016H481.494V53.625H478.189V60.4688H481.447V61.9453H474.603V66.75H483.322ZM471.064 60.4688H476.384V53.625H471.064V60.4688ZM502.189 50.0859V65.3203H500.361V50.0859H502.189ZM502.845 68.9062V70.4531H488.736V63.7734H490.564V68.9062H502.845ZM490.939 51.5391C494.056 51.5391 496.4 53.6484 496.4 56.6484C496.4 59.6953 494.056 61.7812 490.939 61.7812C487.822 61.7812 485.478 59.6953 485.478 56.6484C485.478 53.6484 487.822 51.5391 490.939 51.5391ZM490.939 53.1562C488.83 53.1562 487.259 54.6094 487.283 56.6484C487.259 58.7344 488.83 60.1641 490.939 60.1641C493.001 60.1641 494.595 58.7344 494.595 56.6484C494.595 54.6094 493.001 53.1562 490.939 53.1562ZM522.603 61.3359V62.8359H508.189V51.8672H522.369V53.4141H510.064V56.5078H521.923V57.9844H510.064V61.3359H522.603ZM524.806 66.6562V68.1797H505.728V66.6562H524.806ZM545.548 66.7734V68.3203H526.47V66.7734H535.048V62.8359H528.861V56.4141H541.33V53.1328H528.814V51.6094H543.134V57.9141H530.689V61.3125H543.626V62.8359H536.853V66.7734H545.548ZM560.291 56.4609C560.267 59.8125 562.681 63.4922 565.705 64.9219L564.65 66.375C562.306 65.2383 560.326 62.7539 559.4 59.9297C558.439 63 556.341 65.6953 554.009 66.8906L552.884 65.4375C555.884 63.9844 558.462 60.0234 558.486 56.4609V53.7422H553.634V52.2188H564.978V53.7422H560.291V56.4609ZM569.361 50.0625V58.5H572.853V60.0703H569.361V70.8984H567.533V50.0625H569.361ZM576.673 50.9531V53.9531H582.744V50.9531H584.572V60.0234H574.869V50.9531H576.673ZM576.673 58.5234H582.744V55.3828H576.673V58.5234ZM590.267 50.0625V54.5859H593.408V56.1328H590.267V60.8438H588.439V50.0625H590.267ZM590.267 61.8281V66.8672H578.83V69.1641H591.041V70.6641H577.025V65.4609H588.439V63.3047H576.978V61.8281H590.267ZM601.962 53.9062C601.962 56.625 604.048 59.2031 607.095 60.2578L606.134 61.7109C603.779 60.8672 601.962 59.1211 601.072 56.9766C600.169 59.3789 598.248 61.3008 595.775 62.2031L594.814 60.75C597.884 59.6484 600.111 56.8594 600.111 53.9297V53.0156H595.4V51.5156H606.626V53.0156H601.962V53.9062ZM611.994 63.6562V70.8984H610.142V65.1797H597.978V63.6562H611.994ZM611.994 50.0625V62.5547H610.142V57.0703H605.97V55.5234H610.142V50.0625H611.994ZM632.666 50.0859V65.3203H630.837V50.0859H632.666ZM633.322 68.9062V70.4531H619.212V63.7734H621.041V68.9062H633.322ZM621.416 51.5391C624.533 51.5391 626.876 53.6484 626.876 56.6484C626.876 59.6953 624.533 61.7812 621.416 61.7812C618.298 61.7812 615.955 59.6953 615.955 56.6484C615.955 53.6484 618.298 51.5391 621.416 51.5391ZM621.416 53.1562C619.306 53.1562 617.736 54.6094 617.759 56.6484C617.736 58.7344 619.306 60.1641 621.416 60.1641C623.478 60.1641 625.072 58.7344 625.072 56.6484C625.072 54.6094 623.478 53.1562 621.416 53.1562ZM661.212 60.4688V61.9688H642.228V60.4688H650.806V57.9375H644.642V50.9062H658.869V52.4297H646.47V56.4141H659.056V57.9375H652.634V60.4688H661.212ZM658.892 64.0078V71.0625H657.064V65.5078H644.337V64.0078H658.892ZM670.306 55.6641C670.306 59.4375 672.72 63.2344 675.744 64.6172L674.642 66.1172C672.275 64.8984 670.318 62.4023 669.392 59.4375C668.466 62.5547 666.509 65.2266 664.142 66.4922L662.947 65.0156C665.994 63.5156 668.431 59.5078 668.431 55.6641V51.8672H670.306V55.6641ZM680.244 50.0625V70.9453H678.416V58.6875H673.47V57.1875H678.416V50.0625H680.244ZM340.939 102.641C339.626 102.641 338.548 101.562 338.548 100.227C338.548 98.9141 339.626 97.8359 340.939 97.8359C342.275 97.8359 343.353 98.9141 343.353 100.227C343.353 101.562 342.275 102.641 340.939 102.641ZM377.056 88.0625V108.945H375.205V88.0625H377.056ZM371.15 90.0547V91.6016H363.087V102.172C367.142 102.172 369.814 102.043 372.931 101.492L373.119 103.039C369.884 103.625 367.142 103.742 362.923 103.766H361.236V90.0547H371.15ZM388.072 94.4609C388.072 98 390.65 101.586 393.72 102.922L392.689 104.375C390.251 103.262 388.142 100.859 387.181 97.9766C386.197 101.035 384.099 103.695 381.72 104.891L380.619 103.438C383.595 102.008 386.197 98.0703 386.22 94.4609V91.7422H381.298V90.2188H393.041V91.7422H388.072V94.4609ZM397.798 88.0625V108.898H395.947V88.0625H397.798ZM411.884 89.3516V90.875H404.267V93.1016H411.322V94.5312H404.267V97.0156C408.111 97.0156 410.314 96.9336 413.009 96.4766L413.173 97.9766C410.337 98.4453 408.041 98.4922 403.962 98.4922H402.439V89.3516H411.884ZM418.611 88.0625V99.3359H416.783V94.3672H412.775V92.8672H416.783V88.0625H418.611ZM418.611 100.273V105.102H406.986V107.188H419.408V108.664H405.158V103.695H416.783V101.75H405.111V100.273H418.611ZM444.955 97.8359V99.3359H438.509V104.727H447.205V106.273H428.126V104.727H436.705V99.3359H430.564V89.7734H444.744V91.2734H432.416V97.8359H444.955ZM456.205 93.6641C456.205 97.4375 458.619 101.234 461.642 102.617L460.541 104.117C458.173 102.898 456.216 100.402 455.291 97.4375C454.365 100.555 452.408 103.227 450.041 104.492L448.845 103.016C451.892 101.516 454.33 97.5078 454.33 93.6641V89.8672H456.205V93.6641ZM466.142 88.0625V108.945H464.314V96.6875H459.369V95.1875H464.314V88.0625H466.142ZM481.166 89.6797V90.7812C481.142 92.1406 481.142 94.2266 480.626 96.9453L478.775 96.8047C479.279 94.3086 479.326 92.5391 479.361 91.2266H470.783V89.6797H481.166ZM475.798 94.2969V98.7734C478.107 98.6797 480.498 98.5156 482.666 98.2109L482.783 99.5703C478.423 100.32 473.384 100.414 469.681 100.414L469.494 98.8906C470.841 98.8789 472.365 98.8672 473.97 98.8203V94.2969H475.798ZM485.947 88.0625V94.8594H488.994V96.4297H485.947V103.742H484.072V88.0625H485.947ZM486.626 106.906V108.453H472.705V102.336H474.556V106.906H486.626ZM499.845 88.4375C504.486 88.4375 507.205 89.7031 507.205 92.0234C507.205 94.3906 504.486 95.6562 499.845 95.6797C495.205 95.6562 492.462 94.3906 492.462 92.0234C492.462 89.7031 495.205 88.4375 499.845 88.4375ZM499.845 89.8203C496.376 89.8203 494.361 90.6641 494.384 92.0234C494.361 93.4766 496.376 94.2734 499.845 94.2734C503.291 94.2734 505.33 93.4766 505.33 92.0234C505.33 90.6641 503.291 89.8203 499.845 89.8203ZM509.337 97.0859V98.5859H490.353V97.0859H509.337ZM506.9 100.391V105.055H494.525V107.211H507.533V108.664H492.697V103.695H505.095V101.797H492.65V100.391H506.9ZM536.103 99.125V100.625H517.095V99.125H525.673V97.0625H519.626V88.6719H533.736V90.1719H521.478V92.1172H533.173V93.5234H521.478V95.5859H533.853V97.0625H527.501V99.125H536.103ZM526.611 102.195C531.181 102.172 533.759 103.344 533.783 105.523C533.759 107.703 531.181 108.852 526.611 108.852C521.994 108.852 519.416 107.703 519.416 105.523C519.416 103.344 521.994 102.172 526.611 102.195ZM526.611 103.578C523.166 103.578 521.244 104.281 521.267 105.523C521.244 106.789 523.166 107.445 526.611 107.422C530.009 107.445 531.931 106.789 531.931 105.523C531.931 104.281 530.009 103.578 526.611 103.578ZM548.267 91.6719V93.1719H537.814V91.6719H542.15V88.6953H543.978V91.6719H548.267ZM543.041 94.5781C545.666 94.5781 547.541 96.5469 547.564 99.3125C547.541 102.102 545.666 104.094 543.041 104.094C540.439 104.094 538.564 102.102 538.564 99.3125C538.564 96.5469 540.439 94.5781 543.041 94.5781ZM543.041 96.125C541.4 96.1484 540.205 97.4844 540.205 99.3125C540.205 101.164 541.4 102.5 543.041 102.477C544.705 102.5 545.923 101.164 545.923 99.3125C545.923 97.4844 544.705 96.1484 543.041 96.125ZM555.603 88.0625V108.898H553.845V98.375H551.08V107.867H549.345V88.5781H551.08V96.8516H553.845V88.0625H555.603ZM580.751 88.0625V96.3125H584.244V97.8594H580.751V108.945H578.923V88.0625H580.751ZM575.267 90.1016V91.625H567.369V102.172C571.142 102.172 573.814 101.996 576.908 101.422L577.142 103.016C573.884 103.602 571.142 103.719 567.181 103.719H565.541V90.1016H575.267ZM604.751 91.2266V92.75H601.658V95.6562H604.751V97.2031H601.658V100.438H599.83V88.0625H601.658V91.2266H604.751ZM591.228 89.3281C594.392 89.3047 596.689 91.3203 596.712 94.2266C596.689 97.1328 594.392 99.1016 591.228 99.125C588.064 99.1016 585.744 97.1328 585.767 94.2266C585.744 91.3203 588.064 89.3047 591.228 89.3281ZM591.228 90.8984C589.119 90.875 587.548 92.2578 587.572 94.2266C587.548 96.1953 589.119 97.5547 591.228 97.5781C593.361 97.5547 594.908 96.1953 594.908 94.2266C594.908 92.2578 593.361 90.875 591.228 90.8984ZM594.978 101.07C599.22 101.094 601.845 102.5 601.845 104.984C601.845 107.422 599.22 108.852 594.978 108.852C590.712 108.852 588.064 107.422 588.064 104.984C588.064 102.5 590.712 101.094 594.978 101.07ZM594.978 102.57C591.837 102.57 589.892 103.461 589.916 104.984C589.892 106.484 591.837 107.375 594.978 107.375C598.142 107.375 600.064 106.484 600.064 104.984C600.064 103.461 598.142 102.57 594.978 102.57ZM622.4 88.0859V94.9531H625.541V96.5H622.4V103.695H620.572V88.0859H622.4ZM618.58 90.6406V92.1406H606.158V90.6406H611.455V88.0859H613.283V90.6406H618.58ZM612.369 93.2891C615.345 93.2891 617.361 94.8125 617.384 97.1797C617.361 99.5234 615.345 101.023 612.369 101.023C609.369 101.023 607.33 99.5234 607.353 97.1797C607.33 94.8125 609.369 93.2891 612.369 93.2891ZM612.369 94.7422C610.4 94.7422 609.087 95.7031 609.111 97.1797C609.087 98.6562 610.4 99.5938 612.369 99.5703C614.314 99.5938 615.626 98.6562 615.65 97.1797C615.626 95.7031 614.314 94.7422 612.369 94.7422ZM623.361 106.906V108.453H609.369V102.453H611.173V106.906H623.361ZM640.001 92C640.001 94.9062 642.111 97.6484 645.158 98.75L644.126 100.18C641.841 99.2656 640.025 97.4492 639.134 95.1875C638.244 97.707 636.345 99.7109 633.884 100.695L632.9 99.1953C636.017 98.0469 638.173 95.1406 638.197 91.9297V89.3516H640.001V92ZM650.15 88.0859V103.695H648.298V94.5312H643.658V92.9844H648.298V88.0859H650.15ZM650.619 106.906V108.453H636.673V101.914H638.525V106.906H650.619ZM662.642 89.5859V91.1328H656.314V93.7344H662.408V95.1875H656.314V98.0703C659.349 98.0586 661.248 97.9531 663.486 97.5078L663.673 99.0312C661.236 99.5 659.267 99.6172 655.869 99.6172H654.556V89.5859H662.642ZM671.314 88.0859V100.719H669.556V95.0234H666.626V100.578H664.916V88.4844H666.626V93.5234H669.556V88.0859H671.314ZM671.314 101.797V108.898H669.509V103.297H657.275V101.797H671.314ZM681.814 94.4609C681.814 98 684.392 101.586 687.462 102.922L686.431 104.375C683.994 103.262 681.884 100.859 680.923 97.9766C679.939 101.035 677.841 103.695 675.462 104.891L674.361 103.438C677.337 102.008 679.939 98.0703 679.962 94.4609V91.7422H675.041V90.2188H686.783V91.7422H681.814V94.4609ZM691.541 88.0625V108.898H689.689V88.0625H691.541ZM718.939 88.0625V108.898H717.181V88.0625H718.939ZM714.72 88.5781V107.82H712.986V97.0859H709.47V95.5859H712.986V88.5781H714.72ZM707.244 94.0156C707.244 97.625 708.861 101.211 711.744 102.875L710.619 104.234C708.568 103.004 707.115 100.754 706.4 98.0938C705.638 100.965 704.126 103.414 702.041 104.727L700.869 103.344C703.775 101.609 705.462 97.8125 705.462 94.0156V92.0469H701.455V90.5234H711.064V92.0469H707.244V94.0156ZM731.291 101.234C735.767 101.234 738.603 102.641 738.603 105.055C738.603 107.445 735.767 108.852 731.291 108.852C726.837 108.852 724.001 107.445 724.001 105.055C724.001 102.641 726.837 101.234 731.291 101.234ZM731.291 102.641C727.962 102.664 725.806 103.578 725.83 105.055C725.806 106.508 727.962 107.398 731.291 107.398C734.619 107.398 736.751 106.508 736.775 105.055C736.751 103.578 734.619 102.664 731.291 102.641ZM738.439 89.1406V90.8984C738.439 92.5859 738.439 94.2734 737.853 96.4297L736.048 96.2188C736.611 94.0625 736.611 92.5391 736.611 90.8984V90.6406H724.142V89.1406H738.439ZM740.853 97.7891V99.2891H721.892V97.7891H729.744V93.7578H731.548V97.7891H740.853ZM340.939 140.641C339.626 140.641 338.548 139.562 338.548 138.227C338.548 136.914 339.626 135.836 340.939 135.836C342.275 135.836 343.353 136.914 343.353 138.227C343.353 139.562 342.275 140.641 340.939 140.641ZM366.931 132.461C366.908 135.812 369.322 139.492 372.345 140.922L371.291 142.375C368.947 141.238 366.966 138.754 366.041 135.93C365.08 139 362.982 141.695 360.65 142.891L359.525 141.438C362.525 139.984 365.103 136.023 365.126 132.461V129.742H360.275V128.219H371.619V129.742H366.931V132.461ZM376.001 126.062V134.5H379.494V136.07H376.001V146.898H374.173V126.062H376.001ZM397.845 126.062V146.898H395.994V126.062H397.845ZM391.681 128.336C391.658 134.336 388.869 139.633 381.884 142.984L380.876 141.484C386.513 138.812 389.384 134.816 389.806 129.836H381.837V128.336H391.681ZM411.884 129.016C411.861 131.805 415.587 134.172 419.22 134.711L418.541 136.164C415.283 135.613 412.119 133.879 410.853 131.359C409.587 133.879 406.412 135.613 403.212 136.164L402.486 134.711C406.095 134.172 409.822 131.805 409.822 129.016V128.875H403.142V127.375H418.541V128.875H411.884V129.016ZM420.345 137.945V139.469H411.72V146.898H409.916V139.469H401.361V137.945H420.345ZM438.931 135.836V137.336H432.486V142.727H441.181V144.273H422.103V142.727H430.681V137.336H424.541V127.773H438.72V129.273H426.392V135.836H438.931ZM467.853 136.469V137.969H448.869V136.469H457.447V133.938H451.283V126.906H465.509V128.43H453.111V132.414H465.697V133.938H459.275V136.469H467.853ZM465.533 140.008V147.062H463.705V141.508H450.978V140.008H465.533ZM476.947 131.664C476.947 135.438 479.361 139.234 482.384 140.617L481.283 142.117C478.916 140.898 476.958 138.402 476.033 135.438C475.107 138.555 473.15 141.227 470.783 142.492L469.587 141.016C472.634 139.516 475.072 135.508 475.072 131.664V127.867H476.947V131.664ZM486.884 126.062V146.945H485.056V134.688H480.111V133.188H485.056V126.062H486.884ZM500.619 138.578V141.016H511.025V138.578H512.876V146.617H498.791V138.578H500.619ZM500.619 145.141H511.025V142.469H500.619V145.141ZM515.361 135.578V137.102H496.376V135.578H515.361ZM506.83 127.281C506.83 129.859 510.626 132.156 514.283 132.625L513.603 134.102C510.369 133.621 507.205 131.969 505.892 129.625C504.556 131.98 501.369 133.621 498.158 134.102L497.455 132.625C501.158 132.133 504.931 129.93 504.931 127.281V126.297H506.83V127.281ZM528.673 127.68V128.781C528.65 130.141 528.65 132.227 528.134 134.945L526.283 134.805C526.787 132.309 526.833 130.539 526.869 129.227H518.291V127.68H528.673ZM523.306 132.297V136.773C525.615 136.68 528.005 136.516 530.173 136.211L530.291 137.57C525.931 138.32 520.892 138.414 517.189 138.414L517.001 136.891C518.349 136.879 519.873 136.867 521.478 136.82V132.297H523.306ZM533.455 126.062V132.859H536.501V134.43H533.455V141.742H531.58V126.062H533.455ZM534.134 144.906V146.453H520.212V140.336H522.064V144.906H534.134ZM550.939 132.461C550.916 135.812 553.33 139.492 556.353 140.922L555.298 142.375C552.955 141.238 550.974 138.754 550.048 135.93C549.087 139 546.99 141.695 544.658 142.891L543.533 141.438C546.533 139.984 549.111 136.023 549.134 132.461V129.742H544.283V128.219H555.626V129.742H550.939V132.461ZM560.009 126.062V134.5H563.501V136.07H560.009V146.898H558.181V126.062H560.009ZM581.9 126.086V141.484H580.048V135.859H574.658C573.697 137.09 572.15 137.828 570.369 137.828C567.251 137.828 564.955 135.672 564.955 132.625C564.955 129.578 567.251 127.422 570.369 127.398C572.138 127.41 573.65 128.137 574.634 129.344H580.048V126.086H581.9ZM582.486 144.906V146.453H568.517V139.867H570.369V144.906H582.486ZM570.369 129.039C568.236 129.062 566.712 130.539 566.712 132.625C566.712 134.711 568.236 136.188 570.369 136.188C572.408 136.188 573.978 134.711 573.978 132.625C573.978 130.539 572.408 129.062 570.369 129.039ZM575.478 130.867C575.654 131.406 575.759 131.992 575.759 132.625C575.759 133.234 575.654 133.809 575.478 134.336H580.048V130.867H575.478ZM595.751 129.133C595.751 132.695 599.83 135.883 603.462 136.562L602.619 138.109C599.478 137.383 596.162 135.145 594.814 132.062C593.466 135.133 590.162 137.371 587.009 138.109L586.166 136.562C589.775 135.859 593.83 132.719 593.83 129.133V127.539H595.751V129.133ZM604.447 142.539V144.062H585.369V142.539H604.447ZM623.384 126.086V137.523H621.533V131.945H617.572V130.422H621.533V126.086H623.384ZM611.572 138.508V141.062H621.556V138.508H623.384V146.617H609.744V138.508H611.572ZM611.572 145.117H621.556V142.539H611.572V145.117ZM616.236 126.953V132.578H608.83V135.461C612.263 135.449 614.841 135.332 617.97 134.828L618.134 136.375C614.853 136.867 612.181 136.984 608.572 136.984H607.001V131.148H614.455V128.453H606.955V126.953H616.236ZM644.689 126.062V146.898H642.931V126.062H644.689ZM640.306 126.625V145.844H638.548V136.117H634.142C632.865 138.543 630.861 140.688 627.955 142.398L626.876 141.062C631.412 138.379 633.685 134.617 634.025 130.258H627.767V128.734H635.853C635.841 130.785 635.513 132.766 634.822 134.617H638.548V126.625H640.306ZM665.431 128.406V129.906H653.642V128.406H658.705V125.898H660.533V128.406H665.431ZM659.595 130.984C662.384 130.984 664.353 132.508 664.353 134.828C664.353 137.172 662.384 138.695 659.595 138.695C656.783 138.695 654.861 137.172 654.884 134.828C654.861 132.508 656.783 130.984 659.595 130.984ZM659.595 132.367C657.791 132.391 656.595 133.375 656.595 134.828C656.595 136.305 657.791 137.266 659.595 137.266C661.4 137.266 662.619 136.305 662.642 134.828C662.619 133.375 661.4 132.391 659.595 132.367ZM670.892 126.062V139.539H669.041V136.656H665.408V135.133H669.041V132.602H665.431V131.078H669.041V126.062H670.892ZM664.025 139.75C668.361 139.75 671.009 141.039 671.009 143.312C671.009 145.539 668.361 146.852 664.025 146.852C659.642 146.852 657.017 145.539 657.017 143.312C657.017 141.039 659.642 139.75 664.025 139.75ZM664.025 141.18C660.861 141.18 658.916 141.953 658.916 143.312C658.916 144.625 660.861 145.422 664.025 145.422C667.142 145.422 669.064 144.625 669.064 143.312C669.064 141.953 667.142 141.18 664.025 141.18ZM681.533 129.344C681.509 132.32 683.619 134.945 686.689 135.977L685.658 137.406C683.361 136.539 681.556 134.852 680.666 132.648C679.763 135.145 677.853 137.09 675.345 138.039L674.337 136.539C677.548 135.414 679.681 132.648 679.705 129.414V127.258H681.533V129.344ZM691.634 126.062V138.414H689.783V132.062H685.142V130.539H689.783V126.062H691.634ZM684.72 139.023C689.056 139.023 691.705 140.453 691.705 142.961C691.705 145.445 689.056 146.852 684.72 146.852C680.384 146.852 677.736 145.445 677.736 142.961C677.736 140.453 680.384 139.023 684.72 139.023ZM684.72 140.477C681.533 140.477 679.541 141.414 679.564 142.961C679.541 144.461 681.533 145.375 684.72 145.375C687.908 145.375 689.876 144.461 689.876 142.961C689.876 141.414 687.908 140.477 684.72 140.477Z" fill="black"/>
<defs>
<linearGradient id="paint0_linear_543_1093" x1="-0.691317" y1="98.5" x2="1064.03" y2="98.4999" gradientUnits="userSpaceOnUse">
<stop stop-color="#3182F6"/>
<stop offset="1" stop-color="#A009FF"/>
</linearGradient>
<linearGradient id="paint1_linear_543_1093" x1="20.747" y1="125" x2="410.448" y2="125" gradientUnits="userSpaceOnUse">
<stop stop-color="#3182F6"/>
<stop offset="1" stop-color="#A009FF"/>
</linearGradient>
</defs>
</svg>
