<svg width="1072" height="197" viewBox="0 0 1072 197" fill="none" xmlns="http://www.w3.org/2000/svg">
<rect x="0.5" y="0.5" width="1071" height="196" rx="14.5" fill="white" stroke="url(#paint0_linear_469_1791)"/>
<path d="M426 33L426 165" stroke="#F2F2F7" stroke-width="2"/>
<path d="M84.0156 123.641V125.727H64.7031V123.641H84.0156ZM81.6016 127.156V132.359H69.5547V133.906H82.1875V135.898H67V130.508H79.0469V129.078H66.9766V127.156H81.6016ZM82.2812 115.625V117.688H75.9766C76.5039 119.258 79.1172 120.629 83.1016 120.898L82.2812 122.914C78.4844 122.609 75.6133 121.332 74.3359 119.445C73.0586 121.32 70.2227 122.609 66.4609 122.914L65.6406 120.898C69.5898 120.629 72.168 119.258 72.7188 117.688H66.4609V115.625H82.2812ZM103.188 114.898V136.086H100.586V125.305H96.1094V123.172H100.586V114.898H103.188ZM96.2031 117.148C96.1797 123.406 93.9531 128.656 86.6641 132.266L85.3047 130.227C90.7891 127.543 93.1445 123.957 93.5781 119.211H86.2891V117.148H96.2031ZM125.523 125.375V127.461H117.344V131.352H114.695V127.461H106.164V125.375H125.523ZM123.391 133.531V135.664H108.531V129.383H111.156V133.531H123.391ZM115.82 115.367C120.391 115.367 123.414 117.031 123.414 119.703C123.414 122.375 120.391 124.016 115.82 124.016C111.25 124.016 108.227 122.375 108.227 119.703C108.227 117.031 111.25 115.367 115.82 115.367ZM115.82 117.43C112.914 117.43 111.016 118.25 111.039 119.703C111.016 121.109 112.914 121.93 115.82 121.93C118.75 121.93 120.625 121.109 120.625 119.703C120.625 118.25 118.75 117.43 115.82 117.43ZM151.938 123.758V125.867H132.625V123.758H140.945V122.164H135.062V115.555H149.453V122.164H143.523V123.758H151.938ZM137.617 117.594V120.125H146.852V117.594H137.617ZM149.523 127.156V132.359H137.477V133.906H150.109V135.898H134.922V130.484H146.969V129.125H134.898V127.156H149.523ZM171.016 114.898V126.266H168.391V114.898H171.016ZM159.578 127.25V129.43H168.414V127.25H171.016V135.828H157V127.25H159.578ZM159.578 133.719H168.414V131.469H159.578V133.719ZM159.461 115.836C162.719 115.812 165.156 117.852 165.156 120.805C165.156 123.688 162.719 125.727 159.461 125.727C156.18 125.727 153.742 123.688 153.742 120.805C153.742 117.852 156.18 115.812 159.461 115.836ZM159.461 118.016C157.609 118.016 156.273 119.094 156.297 120.805C156.273 122.492 157.609 123.57 159.461 123.594C161.289 123.57 162.602 122.492 162.602 120.805C162.602 119.094 161.289 118.016 159.461 118.016ZM185.992 117.008V119.07H174.156V117.008H178.891V114.711H181.492V117.008H185.992ZM180.156 119.914C183.039 119.914 185.102 121.508 185.125 123.875C185.102 126.219 183.039 127.789 180.156 127.789C177.273 127.789 175.234 126.219 175.258 123.875C175.234 121.508 177.273 119.914 180.156 119.914ZM180.156 121.859C178.656 121.859 177.672 122.609 177.695 123.875C177.672 125.117 178.656 125.844 180.156 125.844C181.656 125.844 182.688 125.117 182.688 123.875C182.688 122.609 181.656 121.859 180.156 121.859ZM191.852 114.898V128.469H189.25V125.984H186.109V123.898H189.25V121.812H186.133V119.703H189.25V114.898H191.852ZM184.727 128.703C189.203 128.703 191.969 130.062 191.969 132.383C191.969 134.68 189.203 136.062 184.727 136.062C180.25 136.062 177.484 134.68 177.484 132.383C177.484 130.062 180.25 128.703 184.727 128.703ZM184.727 130.695C181.867 130.695 180.227 131.258 180.227 132.383C180.227 133.484 181.867 134.07 184.727 134.07C187.562 134.07 189.18 133.484 189.18 132.383C189.18 131.258 187.562 130.695 184.727 130.695ZM219.859 125.258V127.344H200.547V125.258H208.891V123.148H202.914V115.766H217.539V117.828H205.516V121.039H217.727V123.148H211.492V125.258H219.859ZM217.539 129.008V136.156H214.961V131.094H202.68V129.008H217.539ZM229.117 119.984C229.117 123.922 230.992 127.789 234.367 129.266L232.797 131.352C230.395 130.18 228.707 127.93 227.805 125.164C226.879 128.082 225.156 130.508 222.719 131.75L221.078 129.641C224.523 128.023 226.445 123.945 226.469 119.984V116.609H229.117V119.984ZM239.055 114.898V136.109H236.477V123.852H232.023V121.742H236.477V114.898H239.055ZM264.508 114.898V122H267.367V124.156H264.508V131.445H261.906V114.898H264.508ZM265.258 133.555V135.664H250.586V130.344H253.188V133.555H265.258ZM247.539 127.203C249.121 127.203 250.961 127.191 252.883 127.109V125.773C250.527 125.492 249.039 124.332 249.039 122.633C249.039 120.547 251.078 119.328 254.148 119.352C257.242 119.328 259.258 120.547 259.258 122.633C259.258 124.32 257.805 125.469 255.484 125.773V126.992C257.289 126.898 259.105 126.734 260.805 126.477L261.016 128.305C256.539 129.148 251.477 129.195 247.82 129.242L247.539 127.203ZM260.242 116.75V118.648H248.078V116.75H252.883V114.828H255.484V116.75H260.242ZM254.148 121.109C252.508 121.109 251.523 121.648 251.547 122.633C251.523 123.547 252.508 124.086 254.148 124.086C255.789 124.086 256.773 123.547 256.773 122.633C256.773 121.648 255.789 121.109 254.148 121.109ZM286.211 114.922V127.297H283.609V124.953H278.57V122.844H283.609V120.57H278.781C277.434 123.945 274.352 126.301 269.734 127.578L268.68 125.516C273.637 124.168 276.273 121.66 276.695 118.508H269.805V116.398H279.531C279.531 117.137 279.473 117.84 279.344 118.508H283.609V114.922H286.211ZM279.203 127.531C283.492 127.531 286.352 129.148 286.352 131.75C286.352 134.352 283.492 135.969 279.203 135.969C274.867 135.969 272.008 134.352 272.008 131.75C272.008 129.148 274.867 127.531 279.203 127.531ZM279.203 129.57C276.344 129.57 274.609 130.344 274.609 131.75C274.609 133.133 276.344 133.906 279.203 133.906C281.992 133.906 283.75 133.133 283.75 131.75C283.75 130.344 281.992 129.57 279.203 129.57Z" fill="url(#paint1_linear_469_1791)"/>
<path d="M93.1289 81.7461V85.2969H63.9492V81.7461H76.2891V78.8984H67.5V67.5078H89.6836V71.0586H71.9648V75.2773H90V78.8984H80.7891V81.7461H93.1289ZM89.6484 87.5117V98.3398H85.2539V91.0625H67.1836V87.5117H89.6484ZM107.156 73.4844C107.156 79.4961 109.582 85.332 114.926 87.6523L112.184 91.2383C108.633 89.498 106.26 86.3164 104.941 82.3789C103.535 86.5625 101.074 89.9902 97.418 91.8008L94.6055 88.1445C100.09 85.6836 102.586 79.4961 102.621 73.4844V68.7031H107.156V73.4844ZM122.062 66.2422V98.3047H117.633V79.918H111.34V76.2969H117.633V66.2422H122.062ZM151.418 66.2422V78.5117H155.953V82.2031H151.418V98.1641H146.918V66.2422H151.418ZM142.875 69.5117C142.84 79.0742 139.113 87.3711 128.355 92.6445L125.824 89.1992C133.4 85.4023 137.461 80.3047 138.305 73.168H127.652V69.5117H142.875ZM191.461 72.5703V76.1211H182.461V78.7227H194.836V82.2734H165.551V78.7227H177.961V76.1211H169.207V66.6289H173.672V72.5703H191.461ZM191.32 84.0312V92.3984H173.461V94.4375H192.305V97.8828H168.961V89.2695H186.855V87.4766H168.891V84.0312H191.32ZM223.488 66.2422V98.3047H218.953V66.2422H223.488ZM206.121 68.4922C210.938 68.4922 214.523 72.9219 214.523 79.8828C214.523 86.9141 210.938 91.3086 206.121 91.3086C201.199 91.3086 197.613 86.9141 197.648 79.8828C197.613 72.9219 201.199 68.4922 206.121 68.4922ZM206.121 72.5352C203.625 72.5352 201.973 75.1367 201.973 79.8828C201.973 84.6641 203.625 87.2305 206.121 87.2305C208.547 87.2305 210.199 84.6641 210.199 79.8828C210.199 75.1367 208.547 72.5352 206.121 72.5352ZM253.055 66.2422V78.5117H257.59V82.2031H253.055V98.1641H248.555V66.2422H253.055ZM244.512 69.5117C244.477 79.0742 240.75 87.3711 229.992 92.6445L227.461 89.1992C235.037 85.4023 239.098 80.3047 239.941 73.168H229.289V69.5117H244.512ZM294.152 66.2773V84.7695H289.582V66.2773H294.152ZM267.258 80.9023C269.754 80.9023 272.637 80.8848 275.625 80.7969V78.3008H270V67.6836H285.504V71.2695H274.5V74.7852H285.68V78.3008H280.09V80.6211C282.656 80.5156 285.205 80.3223 287.613 80.0234L287.859 83.082C281.039 84.2773 273.516 84.3477 267.855 84.418L267.258 80.9023ZM276.785 86.0703V88.5312H289.723V86.0703H294.152V97.8828H272.32V86.0703H276.785ZM276.785 94.2969H289.723V91.8711H276.785V94.2969ZM325.23 66.2422V98.2344H320.766V66.2422H325.23ZM304.488 69.3008V86.4922C308.812 86.4395 313.453 86.0352 318.164 85.1211L318.727 88.8125C313.102 89.9727 307.828 90.3594 302.871 90.3242H300.059V69.3008H304.488ZM354.691 66.2422V78.125H359.402V81.7812H354.691V98.3047H350.191V66.2422H354.691ZM345.727 69.1953V72.8164H335.18V86.8438C339.82 86.791 343.652 86.5801 347.906 85.8242L348.398 89.5859C343.441 90.4297 339.082 90.5703 333.422 90.5352H330.715V69.1953H345.727Z" fill="black"/>
<path d="M548.922 54.3672C547.828 54.3672 546.93 53.4688 546.93 52.3555C546.93 51.2617 547.828 50.3633 548.922 50.3633C550.035 50.3633 550.934 51.2617 550.934 52.3555C550.934 53.4688 550.035 54.3672 548.922 54.3672ZM566.188 58H564.352L569.527 43.8594H571.383L576.559 58H574.703L573.297 54.0156H567.613L566.188 58ZM568.141 52.4727H572.75L570.504 46.1445H570.387L568.141 52.4727ZM578.473 58V43.8594H583.277C586.598 43.8594 588.102 45.6953 588.102 48.2148C588.102 50.0801 587.262 51.5547 585.465 52.1797L588.648 58H586.598L583.648 52.4922L583.297 52.5117H580.23V58H578.473ZM580.23 50.9102H583.219C585.465 50.9102 586.363 49.8945 586.363 48.2148C586.363 46.5156 585.465 45.4219 583.199 45.4219H580.23V50.9102ZM604.742 43.5078V44.2695C604.723 45.5098 604.723 47.6582 604.176 50.7344C604.938 50.6855 605.709 50.6172 606.461 50.5391L606.578 51.7109C604.801 51.9355 602.955 52.082 601.148 52.1602V58.5469H599.605V52.2188C597.955 52.2871 596.354 52.2969 594.898 52.2969L594.684 51.0273C597.086 50.998 599.859 50.9785 602.613 50.832C602.828 49.7773 602.965 48.8301 603.062 47.9805L596.129 48.5859L595.875 47.2773L603.16 46.8672C603.219 46.0371 603.238 45.3438 603.238 44.7773H596.246V43.5078H604.742ZM609.254 42.2188V59.582H607.73V42.2188H609.254ZM627.984 55.9883V57.2773H612.086V55.9883H627.984ZM620.797 46.0469C620.797 48.8203 624.234 51.1836 627.223 51.6719L626.598 52.8828C623.941 52.3652 621.139 50.666 620.035 48.2734C618.912 50.6855 616.119 52.4336 613.512 52.9609L612.867 51.7305C615.797 51.2227 619.215 48.8203 619.215 46.0469V45.2461H613.395V43.9766H626.617V45.2461H620.797V46.0469ZM634.605 43.3516C637.281 43.3711 639.215 45.0117 639.234 47.4336C639.215 49.6113 637.652 51.1641 635.387 51.4375V54.4062C637.008 54.3281 638.639 54.2109 640.152 54.0156L640.25 55.168C636.578 55.793 632.457 55.832 629.41 55.8125L629.156 54.5234C630.553 54.5137 632.174 54.5039 633.844 54.4453V51.4375C631.539 51.1738 629.957 49.6211 629.977 47.4336C629.957 45.0117 631.891 43.3711 634.605 43.3516ZM634.605 44.6797C632.789 44.6797 631.461 45.8125 631.48 47.4336C631.461 49.0547 632.789 50.1875 634.605 50.1875C636.402 50.1875 637.711 49.0547 637.73 47.4336C637.711 45.8125 636.402 44.6797 634.605 44.6797ZM642.789 42.2188V49.3867H645.621V50.7148H642.789V59.582H641.266V42.2188H642.789ZM667.574 56.125V57.4336H651.676V56.125H658.805V52.1211H653.121V50.8906H655.836V45.1875H653.082V43.918H666.051V45.1875H663.297V50.8906H666.012V52.1211H660.309V56.125H667.574ZM657.359 50.8906H661.793V45.1875H657.359V50.8906ZM683.297 42.2383V54.9336H681.773V42.2383H683.297ZM683.844 57.9219V59.2109H672.086V53.6445H673.609V57.9219H683.844ZM673.922 43.4492C676.52 43.4492 678.473 45.207 678.473 47.707C678.473 50.2461 676.52 51.9844 673.922 51.9844C671.324 51.9844 669.371 50.2461 669.371 47.707C669.371 45.207 671.324 43.4492 673.922 43.4492ZM673.922 44.7969C672.164 44.7969 670.855 46.0078 670.875 47.707C670.855 49.4453 672.164 50.6367 673.922 50.6367C675.641 50.6367 676.969 49.4453 676.969 47.707C676.969 46.0078 675.641 44.7969 673.922 44.7969ZM700.309 51.6133V52.8633H688.297V43.7227H700.113V45.0117H689.859V47.5898H699.742V48.8203H689.859V51.6133H700.309ZM702.145 56.0469V57.3164H686.246V56.0469H702.145ZM714.723 46.8867C714.703 50.0508 716.871 53.2539 719.43 54.4062L718.492 55.6172C716.52 54.6504 714.811 52.6094 713.98 50.1289C713.17 52.7559 711.461 54.9434 709.43 55.9688L708.453 54.6797C711.031 53.4883 713.18 50.1875 713.199 46.8867V43.7227H714.723V46.8867ZM722.867 42.2188V59.6211H721.324V42.2188H722.867ZM734.488 44.7773C734.488 47.7461 737.887 50.4023 740.914 50.9688L740.211 52.2578C737.594 51.6523 734.83 49.7871 733.707 47.2188C732.584 49.7773 729.83 51.6426 727.203 52.2578L726.5 50.9688C729.508 50.3828 732.887 47.7656 732.887 44.7773V43.4492H734.488V44.7773ZM741.734 55.9492V57.2188H725.836V55.9492H741.734ZM750.562 43.3516V44.6406H745.406V46.7891H749.84V48H745.406V50.3633C747.916 50.3535 749.479 50.2656 751.344 49.9141L751.5 51.1445C749.488 51.5156 747.848 51.6133 745.035 51.6133H743.941V43.3516H750.562ZM757.867 42.2188V52.6875H756.402V42.2188H757.867ZM754.488 42.5312V52.5312H753.004V47.8633H750.66V46.5938H753.004V42.5312H754.488ZM757.867 53.4883V59.3477H746.402V53.4883H757.867ZM747.906 54.7383V58.0977H756.363V54.7383H747.906ZM768.316 43.3516C771.949 43.3516 774.664 45.2461 774.664 48.1172C774.664 51.0078 771.949 52.9023 768.316 52.8828C764.684 52.9023 761.969 51.0078 761.969 48.1172C761.969 45.2461 764.684 43.3516 768.316 43.3516ZM768.316 44.6016C765.523 44.582 763.414 46.0469 763.434 48.1172C763.414 50.2266 765.523 51.6328 768.316 51.6328C771.09 51.6328 773.18 50.2266 773.18 48.1172C773.18 46.0469 771.09 44.582 768.316 44.6016ZM776.305 55.9883V57.2773H760.406V55.9883H776.305ZM793.59 56.1445V57.4336H777.691V56.1445H784.84V52.8633H779.684V47.5117H790.074V44.7773H779.645V43.5078H791.578V48.7617H781.207V51.5938H791.988V52.8633H786.344V56.1445H793.59ZM814.859 42.2188V59.582H813.395V42.2188H814.859ZM811.207 42.6875V58.7031H809.742V50.5977H806.07C805.006 52.6191 803.336 54.4062 800.914 55.832L800.016 54.7188C803.795 52.4824 805.689 49.3477 805.973 45.7148H800.758V44.4453H807.496C807.486 46.1543 807.213 47.8047 806.637 49.3477H809.742V42.6875H811.207ZM831.617 42.2383V52.1602H830.094V42.2383H831.617ZM831.617 53.0977V59.3477H820.328V53.0977H831.617ZM821.832 54.3477V58.0977H830.113V54.3477H821.832ZM822.242 43.1562C824.879 43.1562 826.793 44.7969 826.793 47.2188C826.793 49.6016 824.879 51.2617 822.242 51.2617C819.605 51.2617 817.691 49.6016 817.691 47.2188C817.691 44.7969 819.605 43.1562 822.242 43.1562ZM822.242 44.4648C820.465 44.4453 819.176 45.5977 819.195 47.2188C819.176 48.8203 820.465 49.9531 822.242 49.9531C824 49.9531 825.289 48.8203 825.289 47.2188C825.289 45.5977 824 44.4453 822.242 44.4648ZM848.961 42.2188V59.6211H847.418V50.4805H843.609V49.2109H847.418V42.2188H848.961ZM840.562 47.8828C840.562 50.7539 842.516 53.5664 845.094 54.7188L844.215 55.9102C842.242 55.002 840.602 53.1074 839.84 50.8125C839.078 53.2344 837.457 55.2656 835.484 56.2227L834.605 55.0312C837.145 53.8398 839.059 50.8711 839.059 47.8828V46.4961H835.074V45.2461H839.059V42.5508H840.582V45.2461H844.508V46.4961H840.562V47.8828ZM866.246 53.4102V59.3477H854.82V53.4102H866.246ZM856.344 54.6016V58.0977H864.723V54.6016H856.344ZM866.246 42.2383V52.4336H864.703V47.4141H861.402V46.1445H864.703V42.2383H866.246ZM860.289 43.1172V47.9219H854.117V50.4414C856.979 50.4512 859.127 50.3535 861.734 49.9336L861.871 51.2227C859.137 51.6523 856.91 51.7305 853.902 51.7109H852.594V46.7305H858.805V44.3867H852.555V43.1172H860.289ZM889.977 50.8906V52.1406H874.156V50.8906H881.305V48.7812H876.168V42.9219H888.023V44.1914H877.691V47.5117H888.18V48.7812H882.828V50.8906H889.977ZM888.043 53.8398V59.7188H886.52V55.0898H875.914V53.8398H888.043ZM897.555 46.8867C897.555 50.0312 899.566 53.1953 902.086 54.3477L901.168 55.5977C899.195 54.582 897.564 52.502 896.793 50.0312C896.021 52.6289 894.391 54.8555 892.418 55.9102L891.422 54.6797C893.961 53.4297 895.992 50.0898 895.992 46.8867V43.7227H897.555V46.8867ZM905.836 42.2188V59.6211H904.312V49.4062H900.191V48.1562H904.312V42.2188H905.836ZM548.922 86.3672C547.828 86.3672 546.93 85.4688 546.93 84.3555C546.93 83.2617 547.828 82.3633 548.922 82.3633C550.035 82.3633 550.934 83.2617 550.934 84.3555C550.934 85.4688 550.035 86.3672 548.922 86.3672ZM579.02 74.2188V91.6211H577.477V74.2188H579.02ZM574.098 75.8789V77.168H567.379V85.9766C570.758 85.9766 572.984 85.8691 575.582 85.4102L575.738 86.6992C573.043 87.1875 570.758 87.2852 567.242 87.3047H565.836V75.8789H574.098ZM588.199 79.5508C588.199 82.5 590.348 85.4883 592.906 86.6016L592.047 87.8125C590.016 86.8848 588.258 84.8828 587.457 82.4805C586.637 85.0293 584.889 87.2461 582.906 88.2422L581.988 87.0312C584.469 85.8398 586.637 82.5586 586.656 79.5508V77.2852H582.555V76.0156H592.34V77.2852H588.199V79.5508ZM596.305 74.2188V91.582H594.762V74.2188H596.305ZM608.043 75.293V76.5625H601.695V78.418H607.574V79.6094H601.695V81.6797C604.898 81.6797 606.734 81.6113 608.98 81.2305L609.117 82.4805C606.754 82.8711 604.84 82.9102 601.441 82.9102H600.172V75.293H608.043ZM613.648 74.2188V83.6133H612.125V79.4727H608.785V78.2227H612.125V74.2188H613.648ZM613.648 84.3945V88.418H603.961V90.1562H614.312V91.3867H602.438V87.2461H612.125V85.625H602.398V84.3945H613.648ZM635.602 82.3633V83.6133H630.23V88.1055H637.477V89.3945H621.578V88.1055H628.727V83.6133H623.609V75.6445H635.426V76.8945H625.152V82.3633H635.602ZM644.977 78.8867C644.977 82.0312 646.988 85.1953 649.508 86.3477L648.59 87.5977C646.617 86.582 644.986 84.502 644.215 82.0312C643.443 84.6289 641.812 86.8555 639.84 87.9102L638.844 86.6797C641.383 85.4297 643.414 82.0898 643.414 78.8867V75.7227H644.977V78.8867ZM653.258 74.2188V91.6211H651.734V81.4062H647.613V80.1562H651.734V74.2188H653.258ZM665.777 75.5664V76.4844C665.758 77.6172 665.758 79.3555 665.328 81.6211L663.785 81.5039C664.205 79.4238 664.244 77.9492 664.273 76.8555H657.125V75.5664H665.777ZM661.305 79.4141V83.1445C663.229 83.0664 665.221 82.9297 667.027 82.6758L667.125 83.8086C663.492 84.4336 659.293 84.5117 656.207 84.5117L656.051 83.2422C657.174 83.2324 658.443 83.2227 659.781 83.1836V79.4141H661.305ZM669.762 74.2188V79.8828H672.301V81.1914H669.762V87.2852H668.199V74.2188H669.762ZM670.328 89.9219V91.2109H658.727V86.1133H660.27V89.9219H670.328ZM681.344 75.3516C684.977 75.3516 687.691 77.2461 687.691 80.1172C687.691 83.0078 684.977 84.9023 681.344 84.8828C677.711 84.9023 674.996 83.0078 674.996 80.1172C674.996 77.2461 677.711 75.3516 681.344 75.3516ZM681.344 76.6016C678.551 76.582 676.441 78.0469 676.461 80.1172C676.441 82.2266 678.551 83.6328 681.344 83.6328C684.117 83.6328 686.207 82.2266 686.207 80.1172C686.207 78.0469 684.117 76.582 681.344 76.6016ZM689.332 87.9883V89.2773H673.434V87.9883H689.332ZM706.617 88.1445V89.4336H690.719V88.1445H697.867V84.8633H692.711V79.5117H703.102V76.7773H692.672V75.5078H704.605V80.7617H694.234V83.5938H705.016V84.8633H699.371V88.1445H706.617ZM727.418 74.2383V87.0312H725.875V80.332H722.242C721.9 82.4707 720.104 83.9258 717.809 83.9258C715.211 83.9258 713.297 82.1484 713.297 79.6289C713.297 77.1094 715.211 75.3516 717.809 75.3516C720.152 75.3516 721.979 76.8457 722.262 79.0625H725.875V74.2383H727.418ZM727.906 89.9219V91.2109H716.266V85.7227H717.809V89.9219H727.906ZM717.809 76.6992C716.07 76.7188 714.762 77.9102 714.762 79.6289C714.762 81.3477 716.07 82.5781 717.809 82.5977C719.508 82.5781 720.816 81.3477 720.816 79.6289C720.816 77.9102 719.508 76.7188 717.809 76.6992ZM745.152 74.2188V91.582H743.688V74.2188H745.152ZM741.637 74.6484V90.6836H740.191V81.7383H737.262V80.4883H740.191V74.6484H741.637ZM735.406 79.1797C735.406 82.1875 736.754 85.1758 739.156 86.5625L738.219 87.6953C736.51 86.6699 735.299 84.7949 734.703 82.5781C734.068 84.9707 732.809 87.0117 731.07 88.1055L730.094 86.9531C732.516 85.5078 733.922 82.3438 733.922 79.1797V77.5391H730.582V76.2695H738.59V77.5391H735.406V79.1797ZM757.281 75.5664C759.645 75.5859 761.344 77.6074 761.598 80.8594H765.484V74.2188H767.008V91.6211H765.484V82.1289H761.617C761.432 85.5273 759.703 87.6562 757.281 87.6562C754.723 87.6562 752.926 85.3125 752.926 81.6211C752.926 77.9297 754.723 75.5859 757.281 75.5664ZM757.281 76.9336C755.562 76.9531 754.391 78.7891 754.391 81.6211C754.391 84.4531 755.562 86.2891 757.281 86.2891C758.98 86.2891 760.172 84.4531 760.172 81.6211C760.172 78.7891 758.98 76.9531 757.281 76.9336ZM784.215 74.2188V91.6211H782.672V74.2188H784.215ZM779.293 75.8789V77.168H772.574V85.9766C775.953 85.9766 778.18 85.8691 780.777 85.4102L780.934 86.6992C778.238 87.1875 775.953 87.2852 772.438 87.3047H771.031V75.8789H779.293ZM793.297 78.8867C793.297 82.0312 795.309 85.1953 797.828 86.3477L796.91 87.5977C794.938 86.582 793.307 84.502 792.535 82.0312C791.764 84.6289 790.133 86.8555 788.16 87.9102L787.164 86.6797C789.703 85.4297 791.734 82.0898 791.734 78.8867V75.7227H793.297V78.8867ZM801.578 74.2188V91.6211H800.055V81.4062H795.934V80.1562H800.055V74.2188H801.578ZM820.719 81.1523V82.4414H817.906V91.582H816.383V74.2188H817.906V81.1523H820.719ZM806.715 75.9375V85.8789C809.254 85.8691 811.842 85.6738 814.703 85.0781L814.898 86.3867C811.91 86.9922 809.215 87.168 806.578 87.168H805.191V75.9375H806.715ZM841.148 74.2188V83.6523H839.625V79.7266H836.109V78.4375H839.625V74.2188H841.148ZM831.52 84.4922V86.6602H839.625V84.4922H841.148V91.3477H829.977V84.4922H831.52ZM831.52 90.0977H839.625V87.8906H831.52V90.0977ZM832.809 77.0508C832.809 79.2773 834.547 81.4648 837.086 82.3438L836.285 83.5352C834.322 82.8223 832.809 81.3672 832.066 79.5703C831.314 81.582 829.713 83.1934 827.652 83.9453L826.852 82.7344C829.41 81.8164 831.266 79.5117 831.266 77.0508V76.543H827.34V75.2734H836.695V76.543H832.809V77.0508ZM857.867 75.2734V76.6211C857.867 78.0762 857.867 79.8438 857.418 82.207H859.957V83.4961H844.059V82.207H855.875C856.344 79.8047 856.344 78.1055 856.344 76.6211V76.5234H846.07V75.2734H857.867ZM858.395 89.9023V91.1914H846.168V85.4492H847.691V89.9023H858.395ZM879.801 74.2188V81.2891H882.613V82.5781H879.801V91.582H878.277V74.2188H879.801ZM875.309 76.0938C875.309 81.0156 873.004 85.4883 867.34 88.2812L866.48 87.0703C870.973 84.834 873.414 81.4941 873.766 77.3828H867.281V76.0938H875.309ZM897.672 79.082V80.3516H885.816V74.5703H887.34V79.082H897.672ZM899.488 82.3828V83.6523H883.648V82.3828H899.488ZM891.559 85.2148C895.289 85.2148 897.516 86.3477 897.535 88.3594C897.516 90.3711 895.289 91.5039 891.559 91.5039C887.809 91.5039 885.562 90.3711 885.562 88.3594C885.562 86.3477 887.809 85.2148 891.559 85.2148ZM891.559 86.4258C888.766 86.4453 887.105 87.1289 887.125 88.3594C887.105 89.5703 888.766 90.3125 891.559 90.3125C894.312 90.3125 895.992 89.5703 895.992 88.3594C895.992 87.1289 894.312 86.4453 891.559 86.4258ZM548.922 118.367C547.828 118.367 546.93 117.469 546.93 116.355C546.93 115.262 547.828 114.363 548.922 114.363C550.035 114.363 550.934 115.262 550.934 116.355C550.934 117.469 550.035 118.367 548.922 118.367ZM572.613 118.211C576.422 118.211 578.57 119.129 578.59 120.887C578.57 122.645 576.422 123.562 572.613 123.582C568.766 123.562 566.617 122.645 566.617 120.887C566.617 119.129 568.766 118.211 572.613 118.211ZM572.613 119.344C569.781 119.344 568.18 119.91 568.18 120.887C568.18 121.883 569.781 122.41 572.613 122.41C575.426 122.41 577.027 121.883 577.027 120.887C577.027 119.91 575.426 119.344 572.613 119.344ZM579.605 107.723V108.914H565.523V107.723H571.852V105.965H573.375V107.723H579.605ZM572.613 109.637C576.207 109.637 578.238 110.516 578.238 112.156C578.238 113.797 576.207 114.656 572.613 114.656C569.02 114.656 566.969 113.797 566.969 112.156C566.969 110.516 569.02 109.637 572.613 109.637ZM572.613 110.711C570.055 110.711 568.59 111.238 568.609 112.156C568.59 113.055 570.055 113.562 572.613 113.562C575.152 113.562 576.617 113.055 576.617 112.156C576.617 111.238 575.152 110.711 572.613 110.711ZM580.523 115.809V117.02H564.703V115.809H580.523ZM591.031 107.938V119.227H583.004V107.938H591.031ZM584.508 109.168V117.977H589.527V109.168H584.508ZM596.305 106.219V123.621H594.762V106.219H596.305ZM618.648 106.219V123.582H617.105V106.219H618.648ZM613.512 108.113C613.492 113.113 611.168 117.527 605.348 120.32L604.508 119.07C609.205 116.844 611.598 113.514 611.949 109.363H605.309V108.113H613.512ZM635.152 106.238V111.492H637.77V112.781H635.152V118.992H633.629V106.238H635.152ZM635.953 121.922V123.211H624.293V117.742H625.797V121.922H635.953ZM623.824 107.488V110.418H628.883V107.488H630.406V116.062H622.32V107.488H623.824ZM623.824 114.812H628.883V111.629H623.824V114.812ZM657.906 114.363V115.613H652.535V120.105H659.781V121.395H643.883V120.105H651.031V115.613H645.914V107.645H657.73V108.895H647.457V114.363H657.906ZM667.281 110.887C667.281 114.031 669.293 117.195 671.812 118.348L670.895 119.598C668.922 118.582 667.291 116.502 666.52 114.031C665.748 116.629 664.117 118.855 662.145 119.91L661.148 118.68C663.688 117.43 665.719 114.09 665.719 110.887V107.723H667.281V110.887ZM675.562 106.219V123.621H674.039V113.406H669.918V112.156H674.039V106.219H675.562ZM689.41 109.5C689.41 111.922 691.168 114.207 693.707 115.125L692.848 116.316C690.943 115.555 689.43 114.041 688.688 112.156C687.945 114.256 686.363 115.926 684.312 116.746L683.492 115.496C686.09 114.539 687.887 112.117 687.906 109.441V107.293H689.41V109.5ZM697.867 106.238V119.246H696.324V111.609H692.457V110.32H696.324V106.238H697.867ZM698.258 121.922V123.211H686.637V117.762H688.18V121.922H698.258ZM708.277 107.488V108.777H703.004V110.945H708.082V112.156H703.004V114.559C705.533 114.549 707.115 114.461 708.98 114.09L709.137 115.359C707.105 115.75 705.465 115.848 702.633 115.848H701.539V107.488H708.277ZM715.504 106.238V116.766H714.039V112.02H711.598V116.648H710.172V106.57H711.598V110.77H714.039V106.238H715.504ZM715.504 117.664V123.582H714V118.914H703.805V117.664H715.504ZM725.953 107.352C729.586 107.352 732.301 109.246 732.301 112.117C732.301 115.008 729.586 116.902 725.953 116.883C722.32 116.902 719.605 115.008 719.605 112.117C719.605 109.246 722.32 107.352 725.953 107.352ZM725.953 108.602C723.16 108.582 721.051 110.047 721.07 112.117C721.051 114.227 723.16 115.633 725.953 115.633C728.727 115.633 730.816 114.227 730.816 112.117C730.816 110.047 728.727 108.582 725.953 108.602ZM733.941 119.988V121.277H718.043V119.988H733.941ZM751.227 120.145V121.434H735.328V120.145H742.477V116.863H737.32V111.512H747.711V108.777H737.281V107.508H749.215V112.762H738.844V115.594H749.625V116.863H743.98V120.145H751.227ZM763.512 111.551C763.492 114.344 765.504 117.41 768.023 118.602L767.145 119.812C765.191 118.865 763.541 116.795 762.77 114.441C761.969 117 760.221 119.246 758.277 120.242L757.34 119.031C759.84 117.82 761.988 114.52 762.008 111.551V109.285H757.965V108.016H767.418V109.285H763.512V111.551ZM771.07 106.219V113.25H773.98V114.559H771.07V123.582H769.547V106.219H771.07ZM789.273 106.219V123.582H787.73V106.219H789.273ZM784.137 108.113C784.117 113.113 781.793 117.527 775.973 120.32L775.133 119.07C779.83 116.844 782.223 113.514 782.574 109.363H775.934V108.113H784.137ZM800.973 108.68C800.953 111.004 804.059 112.977 807.086 113.426L806.52 114.637C803.805 114.178 801.168 112.732 800.113 110.633C799.059 112.732 796.412 114.178 793.746 114.637L793.141 113.426C796.148 112.977 799.254 111.004 799.254 108.68V108.562H793.688V107.312H806.52V108.562H800.973V108.68ZM808.023 116.121V117.391H800.836V123.582H799.332V117.391H792.203V116.121H808.023ZM823.512 114.363V115.613H818.141V120.105H825.387V121.395H809.488V120.105H816.637V115.613H811.52V107.645H823.336V108.895H813.062V114.363H823.512ZM847.613 114.891V116.141H831.793V114.891H838.941V112.781H833.805V106.922H845.66V108.191H835.328V111.512H845.816V112.781H840.465V114.891H847.613ZM845.68 117.84V123.719H844.156V119.09H833.551V117.84H845.68ZM855.191 110.887C855.191 114.031 857.203 117.195 859.723 118.348L858.805 119.598C856.832 118.582 855.201 116.502 854.43 114.031C853.658 116.629 852.027 118.855 850.055 119.91L849.059 118.68C851.598 117.43 853.629 114.09 853.629 110.887V107.723H855.191V110.887ZM863.473 106.219V123.621H861.949V113.406H857.828V112.156H861.949V106.219H863.473ZM887.262 116.121V117.391H883.062V123.582H881.52V117.391H877.066V123.582H875.484V117.391H871.363V116.121H887.262ZM879.273 106.922C882.926 106.922 885.387 108.387 885.387 110.711C885.387 113.016 882.926 114.48 879.273 114.461C875.621 114.48 873.16 113.016 873.16 110.711C873.16 108.387 875.621 106.922 879.273 106.922ZM879.273 108.172C876.559 108.172 874.723 109.168 874.742 110.711C874.723 112.254 876.559 113.23 879.273 113.23C881.969 113.23 883.824 112.254 883.824 110.711C883.824 109.168 881.969 108.172 879.273 108.172ZM902.691 114.363V115.613H897.32V120.105H904.566V121.395H888.668V120.105H895.816V115.613H890.699V107.645H902.516V108.895H892.242V114.363H902.691ZM548.922 150.367C547.828 150.367 546.93 149.469 546.93 148.355C546.93 147.262 547.828 146.363 548.922 146.363C550.035 146.363 550.934 147.262 550.934 148.355C550.934 149.469 550.035 150.367 548.922 150.367ZM574.449 139.547V140.816H572.672V146.363C573.482 146.314 574.264 146.246 575.016 146.148L575.094 147.32C571.715 147.848 567.75 147.887 564.938 147.887L564.742 146.598L566.988 146.578V140.816H565.23V139.547H574.449ZM579.098 138.219V148.941H577.555V145.719H574.625V144.449H577.555V142.613H574.625V141.344H577.555V138.219H579.098ZM573.336 149.312C576.969 149.312 579.156 150.445 579.156 152.418C579.156 154.41 576.969 155.543 573.336 155.543C569.703 155.543 567.516 154.41 567.516 152.418C567.516 150.445 569.703 149.312 573.336 149.312ZM573.336 150.504C570.66 150.504 569.02 151.227 569.039 152.418C569.02 153.629 570.66 154.332 573.336 154.332C576.012 154.332 577.633 153.629 577.633 152.418C577.633 151.227 576.012 150.504 573.336 150.504ZM568.473 146.559C569.361 146.539 570.279 146.51 571.188 146.461V140.816H568.473V146.559ZM587.164 141.676C587.164 143.59 588.512 145.543 590.738 146.383L589.938 147.555C588.268 146.91 587.066 145.67 586.441 144.176C585.797 145.836 584.557 147.311 582.848 148.043L582.008 146.852C584.293 145.855 585.699 143.609 585.699 141.676V139.312H587.164V141.676ZM596.734 138.238V148.961H595.27V144.176H592.965V148.414H591.52V138.57H592.965V142.906H595.27V138.238H596.734ZM590.992 149.352C594.586 149.352 596.832 150.484 596.832 152.457C596.832 154.41 594.586 155.543 590.992 155.543C587.379 155.543 585.152 154.41 585.172 152.457C585.152 150.484 587.379 149.352 590.992 149.352ZM590.992 150.523C588.336 150.523 586.676 151.246 586.695 152.457C586.676 153.648 588.336 154.352 590.992 154.352C593.629 154.352 595.289 153.648 595.309 152.457C595.289 151.246 593.629 150.523 590.992 150.523ZM610.504 143.551C610.504 146.5 612.652 149.488 615.211 150.602L614.352 151.812C612.32 150.885 610.562 148.883 609.762 146.48C608.941 149.029 607.193 151.246 605.211 152.242L604.293 151.031C606.773 149.84 608.941 146.559 608.961 143.551V141.285H604.859V140.016H614.645V141.285H610.504V143.551ZM618.609 138.219V155.582H617.066V138.219H618.609ZM637.457 146.949V148.219H621.578V146.949H628.727V144.273H630.23V146.949H637.457ZM630.25 139.312C630.25 141.617 633.375 143.551 636.441 143.98L635.816 145.211C633.18 144.752 630.572 143.355 629.488 141.344C628.395 143.365 625.777 144.752 623.121 145.211L622.535 143.98C625.602 143.551 628.707 141.617 628.707 139.312V138.492H630.25V139.312ZM635.445 149.918V155.582H633.902V151.148H623.336V149.918H635.445ZM649.215 145.719V146.988H645.406V150.406C647.105 150.338 648.814 150.221 650.426 150.035L650.543 151.188C646.695 151.754 642.496 151.812 639.176 151.812L638.961 150.523C640.475 150.523 642.154 150.514 643.883 150.465V146.988H640.289V139.879H649.137V141.129H641.793V145.719H649.215ZM653.102 138.219V155.621H651.578V138.219H653.102ZM670.191 143.492V144.723H658.297V138.863H659.82V143.492H670.191ZM672.027 147.086V148.336H656.129V147.086H672.027ZM670.289 153.883V155.152H658.199V150.113H659.723V153.883H670.289ZM694.273 146.891V148.141H678.453V146.891H685.602V144.781H680.465V138.922H692.32V140.191H681.988V143.512H692.477V144.781H687.125V146.891H694.273ZM692.34 149.84V155.719H690.816V151.09H680.211V149.84H692.34ZM701.852 142.887C701.852 146.031 703.863 149.195 706.383 150.348L705.465 151.598C703.492 150.582 701.861 148.502 701.09 146.031C700.318 148.629 698.688 150.855 696.715 151.91L695.719 150.68C698.258 149.43 700.289 146.09 700.289 142.887V139.723H701.852V142.887ZM710.133 138.219V155.621H708.609V145.406H704.488V144.156H708.609V138.219H710.133ZM725.621 140.23V141.48H720.211V144.82H725.367V146.051H720.211V149.977C722.789 149.967 724.381 149.898 726.285 149.547L726.422 150.816C724.391 151.207 722.711 151.285 719.859 151.285H718.746V140.23H725.621ZM732.926 138.219V155.582H731.441V146.48H729.059V154.703H727.574V138.59H729.059V145.211H731.441V138.219H732.926ZM749.352 146.363V147.613H743.98V152.105H751.227V153.395H735.328V152.105H742.477V147.613H737.359V139.645H749.176V140.895H738.902V146.363H749.352ZM763.512 143.551C763.492 146.344 765.504 149.41 768.023 150.602L767.145 151.812C765.191 150.865 763.541 148.795 762.77 146.441C761.969 149 760.221 151.246 758.277 152.242L757.34 151.031C759.84 149.82 761.988 146.52 762.008 143.551V141.285H757.965V140.016H767.418V141.285H763.512V143.551ZM771.07 138.219V145.25H773.98V146.559H771.07V155.582H769.547V138.219H771.07ZM789.312 138.238V151.07H787.77V146.383H783.277C782.477 147.408 781.188 148.023 779.703 148.023C777.105 148.023 775.191 146.227 775.191 143.688C775.191 141.148 777.105 139.352 779.703 139.332C781.178 139.342 782.438 139.947 783.258 140.953H787.77V138.238H789.312ZM789.801 153.922V155.211H778.16V149.723H779.703V153.922H789.801ZM779.703 140.699C777.926 140.719 776.656 141.949 776.656 143.688C776.656 145.426 777.926 146.656 779.703 146.656C781.402 146.656 782.711 145.426 782.711 143.688C782.711 141.949 781.402 140.719 779.703 140.699ZM783.961 142.223C784.107 142.672 784.195 143.16 784.195 143.688C784.195 144.195 784.107 144.674 783.961 145.113H787.77V142.223H783.961ZM800.855 140.777C800.855 143.746 804.254 146.402 807.281 146.969L806.578 148.258C803.961 147.652 801.197 145.787 800.074 143.219C798.951 145.777 796.197 147.643 793.57 148.258L792.867 146.969C795.875 146.383 799.254 143.766 799.254 140.777V139.449H800.855V140.777ZM808.102 151.949V153.219H792.203V151.949H808.102ZM823.883 138.238V147.77H822.34V143.121H819.039V141.852H822.34V138.238H823.883ZM814.039 148.59V150.719H822.359V148.59H823.883V155.348H812.516V148.59H814.039ZM814.039 154.098H822.359V151.949H814.039V154.098ZM817.926 138.961V143.648H811.754V146.051C814.615 146.041 816.764 145.943 819.371 145.523L819.508 146.812C816.773 147.223 814.547 147.32 811.539 147.32H810.23V142.457H816.441V140.211H810.191V138.961H817.926ZM841.637 138.219V155.582H840.172V138.219H841.637ZM837.984 138.688V154.703H836.52V146.598H832.848C831.783 148.619 830.113 150.406 827.691 151.832L826.793 150.719C830.572 148.482 832.467 145.348 832.75 141.715H827.535V140.445H834.273C834.264 142.154 833.99 143.805 833.414 145.348H836.52V138.688H837.984ZM858.922 140.172V141.422H849.098V140.172H853.316V138.082H854.84V140.172H858.922ZM854.059 142.32C856.383 142.32 858.023 143.59 858.023 145.523C858.023 147.477 856.383 148.746 854.059 148.746C851.715 148.746 850.113 147.477 850.133 145.523C850.113 143.59 851.715 142.32 854.059 142.32ZM854.059 143.473C852.555 143.492 851.559 144.312 851.559 145.523C851.559 146.754 852.555 147.555 854.059 147.555C855.562 147.555 856.578 146.754 856.598 145.523C856.578 144.312 855.562 143.492 854.059 143.473ZM863.473 138.219V149.449H861.93V147.047H858.902V145.777H861.93V143.668H858.922V142.398H861.93V138.219H863.473ZM857.75 149.625C861.363 149.625 863.57 150.699 863.57 152.594C863.57 154.449 861.363 155.543 857.75 155.543C854.098 155.543 851.91 154.449 851.91 152.594C851.91 150.699 854.098 149.625 857.75 149.625ZM857.75 150.816C855.113 150.816 853.492 151.461 853.492 152.594C853.492 153.688 855.113 154.352 857.75 154.352C860.348 154.352 861.949 153.688 861.949 152.594C861.949 151.461 860.348 150.816 857.75 150.816ZM872.34 140.953C872.32 143.434 874.078 145.621 876.637 146.48L875.777 147.672C873.863 146.949 872.359 145.543 871.617 143.707C870.865 145.787 869.273 147.408 867.184 148.199L866.344 146.949C869.02 146.012 870.797 143.707 870.816 141.012V139.215H872.34V140.953ZM880.758 138.219V148.512H879.215V143.219H875.348V141.949H879.215V138.219H880.758ZM874.996 149.02C878.609 149.02 880.816 150.211 880.816 152.301C880.816 154.371 878.609 155.543 874.996 155.543C871.383 155.543 869.176 154.371 869.176 152.301C869.176 150.211 871.383 149.02 874.996 149.02ZM874.996 150.23C872.34 150.23 870.68 151.012 870.699 152.301C870.68 153.551 872.34 154.312 874.996 154.312C877.652 154.312 879.293 153.551 879.293 152.301C879.293 151.012 877.652 150.23 874.996 150.23Z" fill="black"/>
<defs>
<linearGradient id="paint0_linear_469_1791" x1="-0.968748" y1="98.5" x2="1491.03" y2="98.4998" gradientUnits="userSpaceOnUse">
<stop stop-color="#3182F6"/>
<stop offset="1" stop-color="#A009FF"/>
</linearGradient>
<linearGradient id="paint1_linear_469_1791" x1="63.6729" y1="125" x2="567.501" y2="125" gradientUnits="userSpaceOnUse">
<stop stop-color="#3182F6"/>
<stop offset="1" stop-color="#A009FF"/>
</linearGradient>
</defs>
</svg>
