<svg width="1072" height="197" viewBox="0 0 1072 197" fill="none" xmlns="http://www.w3.org/2000/svg">
<rect x="0.5" y="0.5" width="1071" height="196" rx="14.5" fill="white" stroke="url(#paint0_linear_543_1092)"/>
<path d="M426 33L426 165" stroke="#F2F2F7" stroke-width="2"/>
<path d="M68.5215 112.327V139.694H65.252V112.327H68.5215ZM62.7695 112.872V138.362H59.6211V125.224H54.3535V122.469H59.6211V112.872H62.7695ZM56.2305 115.536V118.23H49.1162V130.612C52.3555 130.582 54.6714 130.446 57.3506 129.886L57.623 132.641C54.5352 133.276 51.8105 133.397 47.6631 133.428H45.8164V115.536H56.2305ZM94.4658 112.327V139.725H91.0752V112.327H94.4658ZM79.7227 114.325C83.8398 114.325 86.8369 118.079 86.8672 123.982C86.8369 129.946 83.8398 133.67 79.7227 133.67C75.5752 133.67 72.5781 129.946 72.5781 123.982C72.5781 118.079 75.5752 114.325 79.7227 114.325ZM79.7227 117.353C77.3916 117.353 75.8174 119.805 75.8174 123.982C75.8174 128.19 77.3916 130.643 79.7227 130.643C82.0234 130.643 83.5977 128.19 83.5977 123.982C83.5977 119.805 82.0234 117.353 79.7227 117.353ZM121.439 112.327V139.725H118.109V124.951H112.963V122.227H118.109V112.327H121.439ZM112.539 114.688V117.443H103.124V122.348H111.449V125.012H103.124V130.643C107.287 130.627 110.405 130.491 113.932 129.916L114.265 132.641C110.269 133.246 106.787 133.397 101.883 133.428H99.7334V114.688H112.539ZM155.497 112.327V139.694H152.106V112.327H155.497ZM147.323 115.233C147.323 123.377 144.175 130.31 134.578 134.851L132.822 132.156C139.982 128.75 143.312 124.119 143.902 117.897H134.215V115.233H147.323ZM181.018 112.357V120.259H184.832V123.044H181.018V132.489H177.657V112.357H181.018ZM182.107 136.425V139.149H163.489V130.461H166.85V136.425H182.107ZM163.701 114.295V118.473H170.089V114.295H173.419V128.039H160.371V114.295H163.701ZM163.701 125.375H170.089V121.076H163.701V125.375ZM207.477 114.144V126.041H194.52V114.144H207.477ZM197.819 116.838V123.347H204.177V116.838H197.819ZM215.166 112.327V118.473H218.98V121.258H215.166V127.767H211.806V112.327H215.166ZM215.56 129.159V131.823H208.294C208.824 134.154 211.927 136.349 216.71 137.03L215.499 139.604C211.23 138.998 207.976 137.167 206.417 134.699C204.828 137.167 201.634 138.983 197.365 139.543L196.124 137C200.953 136.349 203.98 134.215 204.54 131.823H197.244V129.159H215.56ZM245.318 125.617V128.281H234.48V130.673H242.291V139.361H223.31V130.673H231.15V128.281H220.373V125.617H245.318ZM234.48 112.297V114.749H242.866V117.413H234.723C235.116 119.653 238.34 121.5 244.077 121.894L243.108 124.376C238.159 123.998 234.526 122.544 232.815 120.229C231.09 122.544 227.457 123.998 222.553 124.376L221.554 121.894C227.321 121.5 230.5 119.653 230.908 117.413H222.825V114.749H231.15V112.297H234.48ZM226.64 133.367V136.637H239.021V133.367H226.64ZM270.778 114.961V117.625H254.552V114.961H261V112.206H264.36V114.961H270.778ZM262.665 118.685C266.631 118.685 269.325 120.683 269.355 123.68C269.325 126.677 266.631 128.675 262.665 128.675C258.699 128.675 255.944 126.677 255.944 123.68C255.944 120.683 258.699 118.685 262.665 118.685ZM262.665 121.228C260.576 121.228 259.214 122.136 259.214 123.68C259.214 125.224 260.576 126.102 262.665 126.071C264.754 126.102 266.146 125.224 266.146 123.68C266.146 122.136 264.754 121.228 262.665 121.228ZM276.106 112.327V119.593H279.921V122.348H276.106V129.462H272.746V112.327H276.106ZM276.106 130.733V139.694H272.746V133.428H257.882V130.733H276.106ZM287.641 128.735V131.339H299.689V128.735H303.05V139.361H284.311V128.735H287.641ZM287.641 136.697H299.689V133.912H287.641V136.697ZM306.259 124.437V127.191H281.313V124.437H306.259ZM295.512 113.659C295.512 116.596 299.266 119.684 304.927 120.35L303.746 123.014C299.16 122.393 295.542 120.365 293.786 117.595C292.015 120.38 288.382 122.393 283.826 123.014L282.585 120.35C288.307 119.653 292.03 116.687 292.061 113.659V112.63H295.512V113.659Z" fill="url(#paint1_linear_543_1092)"/>
<path d="M56.4297 67.5703C56.4297 71.4023 58.7852 75.3047 64.0586 76.8867L61.7734 80.4023C58.1875 79.2773 55.6562 76.9746 54.2148 74.0742C52.7559 77.2207 50.1543 79.752 46.4102 81L44.0898 77.4844C49.3984 75.7617 51.8594 71.6133 51.8594 67.5703V67.1133H45.2852V63.5273H62.8633V67.1133H56.4297V67.5703ZM70.7383 61.2773V84.4102H66.2383V61.2773H70.7383ZM71.582 89.0859V92.6719H49.293V82.3008H53.8281V89.0859H71.582ZM100.445 61.2422V69.9609H104.77V73.6523H100.445V84.375H95.9453V61.2422H100.445ZM90.7422 63.8086V67.3945H80.793V75.4805C86.5762 75.4453 89.7578 75.2695 93.3438 74.4961L93.8008 78.082C89.793 78.9258 86.1016 79.1016 79 79.1016H76.293V63.8086H90.7422ZM101.605 89.0859V92.6719H79.7031V81.9141H84.168V89.0859H101.605ZM135.426 79.6992V83.2148H122.91V93.2344H118.48V83.2148H106.141V79.6992H135.426ZM114.016 62.4727V66.1641H127.445V62.4727H131.945V76.6055H109.586V62.4727H114.016ZM114.016 73.0195H127.445V69.6797H114.016V73.0195ZM164.289 61.2422V93.3047H159.859V76.1484H154.234V72.5273H159.859V61.2422H164.289ZM153.707 63.9141V67.5352H143.23V72.8438H152.547V76.3594H143.23V82.4062C147.66 82.3711 151.211 82.2129 155.184 81.5977L155.641 85.1836C150.965 85.8867 146.781 86.0625 141.297 86.0625H138.766V63.9141H153.707ZM201.941 61.2422V73.125H206.652V76.7812H201.941V93.3047H197.441V61.2422H201.941ZM192.977 64.1953V67.8164H182.43V81.8438C187.07 81.791 190.902 81.5801 195.156 80.8242L195.648 84.5859C190.691 85.4297 186.332 85.5703 180.672 85.5352H177.965V64.1953H192.977ZM237.062 76.8516V80.4023H207.777V76.8516H237.062ZM215.934 81.7383V83.8828H229.188V81.7383H233.617V92.8125H211.469V81.7383H215.934ZM215.934 89.3672H229.188V87.2227H215.934V89.3672ZM233.512 61.8047V70.0664H215.898V71.8594H234.109V75.2695H211.434V66.8672H229.012V65.1445H211.363V61.8047H233.512ZM265.82 61.2422V93.2344H261.355V61.2422H265.82ZM245.078 64.3008V81.4922C249.402 81.4395 254.043 81.0352 258.754 80.1211L259.316 83.8125C253.691 84.9727 248.418 85.3594 243.461 85.3242H240.648V64.3008H245.078ZM295.281 61.2422V73.125H299.992V76.7812H295.281V93.3047H290.781V61.2422H295.281ZM286.316 64.1953V67.8164H275.77V81.8438C280.41 81.791 284.242 81.5801 288.496 80.8242L288.988 84.5859C284.031 85.4297 279.672 85.5703 274.012 85.5352H271.305V64.1953H286.316Z" fill="black"/>
<path d="M514.891 58.9141C513.359 58.9141 512.102 57.6562 512.102 56.0977C512.102 54.5664 513.359 53.3086 514.891 53.3086C516.449 53.3086 517.707 54.5664 517.707 56.0977C517.707 57.6562 516.449 58.9141 514.891 58.9141ZM538.188 64V44.2031H544.914C549.562 44.2031 551.668 46.7734 551.668 50.3008C551.668 52.9121 550.492 54.9766 547.977 55.8516L552.434 64H549.562L545.434 56.2891L544.941 56.3164H540.648V64H538.188ZM540.648 54.0742H544.832C547.977 54.0742 549.234 52.6523 549.234 50.3008C549.234 47.9219 547.977 46.3906 544.805 46.3906H540.648V54.0742ZM560.992 64.3008C556.699 64.3008 554.047 61.2656 554.047 56.6992C554.047 52.1328 556.727 48.9609 560.773 48.9609C563.891 48.9609 567.172 50.875 567.172 56.3711V57.3555H556.398C556.508 60.5 558.34 62.2227 560.992 62.2227C562.77 62.2227 563.891 61.457 564.438 60.5273H566.953C566.242 62.7695 564.055 64.3008 560.992 64.3008ZM556.426 55.3594H564.793C564.793 52.8711 563.207 51.0391 560.773 51.0391C558.203 51.0391 556.562 53.0625 556.426 55.3594ZM572.586 55.0859V64H570.234V49.1523H572.504V51.4766H572.695C573.406 49.9727 574.773 48.9609 577.043 48.9609C580.051 48.9609 582.047 50.793 582.047 54.5664V64H579.695V54.7305C579.695 52.4336 578.438 51.0664 576.332 51.0664C574.172 51.0664 572.586 52.5156 572.586 55.0859ZM585.109 59.7891C585.109 56.3711 588.117 55.6055 590.688 55.4141C591.631 55.3457 594.037 55.2227 594.707 55.1953V53.9922C594.707 52.1055 593.586 51.0117 591.344 51.0117C589.457 51.0117 588.336 51.8867 588.008 53.0078H585.547C585.848 50.6289 588.172 48.9609 591.453 48.9609C593.395 48.9609 597.031 49.5352 597.031 54.2109V64H594.707V61.9766H594.598C594.105 62.9883 592.738 64.3555 590.168 64.3555C587.352 64.3555 585.109 62.6875 585.109 59.7891ZM587.461 59.8984C587.461 61.457 588.773 62.25 590.578 62.25C593.23 62.25 594.707 60.4727 594.707 58.6133V57.1094L590.961 57.3828C588.828 57.5195 587.461 58.2852 587.461 59.8984ZM600.805 64V49.1523H603.156V64H600.805ZM601.98 46.6914C601.078 46.6914 600.34 46.0078 600.34 45.1328C600.34 44.2578 601.078 43.5742 601.98 43.5742C602.883 43.5742 603.648 44.2578 603.648 45.1328C603.648 46.0078 602.883 46.6914 601.98 46.6914ZM615.16 53.0078C614.832 51.7773 613.902 50.957 612.152 50.957C610.32 50.957 609.008 51.9414 609.008 53.1992C609.008 54.1836 609.801 54.8672 611.551 55.2773L613.766 55.8242C616.418 56.4531 617.73 57.7656 617.73 59.8438C617.73 62.4141 615.625 64.3008 611.906 64.3008C608.57 64.3008 606.574 62.8242 606.191 60.1172H608.652C608.926 61.5664 609.992 62.25 611.852 62.25C613.957 62.25 615.297 61.375 615.297 59.9805C615.297 58.9414 614.559 58.2305 612.863 57.8477L610.621 57.3281C608.023 56.7266 606.656 55.3047 606.656 53.3359C606.656 50.793 608.871 48.9609 612.152 48.9609C615.215 48.9609 617.156 50.6016 617.457 53.0078H615.16ZM629.051 53.0078C628.723 51.7773 627.793 50.957 626.043 50.957C624.211 50.957 622.898 51.9414 622.898 53.1992C622.898 54.1836 623.691 54.8672 625.441 55.2773L627.656 55.8242C630.309 56.4531 631.621 57.7656 631.621 59.8438C631.621 62.4141 629.516 64.3008 625.797 64.3008C622.461 64.3008 620.465 62.8242 620.082 60.1172H622.543C622.816 61.5664 623.883 62.25 625.742 62.25C627.848 62.25 629.188 61.375 629.188 59.9805C629.188 58.9414 628.449 58.2305 626.754 57.8477L624.512 57.3281C621.914 56.7266 620.547 55.3047 620.547 53.3359C620.547 50.793 622.762 48.9609 626.043 48.9609C629.105 48.9609 631.047 50.6016 631.348 53.0078H629.051ZM633.973 59.7891C633.973 56.3711 636.98 55.6055 639.551 55.4141C640.494 55.3457 642.9 55.2227 643.57 55.1953V53.9922C643.57 52.1055 642.449 51.0117 640.207 51.0117C638.32 51.0117 637.199 51.8867 636.871 53.0078H634.41C634.711 50.6289 637.035 48.9609 640.316 48.9609C642.258 48.9609 645.895 49.5352 645.895 54.2109V64H643.57V61.9766H643.461C642.969 62.9883 641.602 64.3555 639.031 64.3555C636.215 64.3555 633.973 62.6875 633.973 59.7891ZM636.324 59.8984C636.324 61.457 637.637 62.25 639.441 62.25C642.094 62.25 643.57 60.4727 643.57 58.6133V57.1094L639.824 57.3828C637.691 57.5195 636.324 58.2852 636.324 59.8984ZM652.02 55.0859V64H649.668V49.1523H651.938V51.4766H652.129C652.84 49.9727 654.207 48.9609 656.477 48.9609C659.484 48.9609 661.48 50.793 661.48 54.5664V64H659.129V54.7305C659.129 52.4336 657.871 51.0664 655.766 51.0664C653.605 51.0664 652.02 52.5156 652.02 55.0859ZM671.324 64.3008C667.113 64.3008 664.543 61.1016 664.543 56.6445C664.543 52.1328 667.223 48.9609 671.27 48.9609C674.441 48.9609 676.793 50.8203 677.176 53.6367H674.824C674.496 52.2695 673.293 51.0391 671.324 51.0391C668.672 51.0391 666.895 53.2266 666.895 56.5625C666.895 60.0078 668.617 62.1953 671.324 62.1953C673.074 62.1953 674.414 61.2656 674.824 59.625H677.176C676.793 62.2773 674.633 64.3008 671.324 64.3008ZM686.309 64.3008C682.016 64.3008 679.363 61.2656 679.363 56.6992C679.363 52.1328 682.043 48.9609 686.09 48.9609C689.207 48.9609 692.488 50.875 692.488 56.3711V57.3555H681.715C681.824 60.5 683.656 62.2227 686.309 62.2227C688.086 62.2227 689.207 61.457 689.754 60.5273H692.27C691.559 62.7695 689.371 64.3008 686.309 64.3008ZM681.742 55.3594H690.109C690.109 52.8711 688.523 51.0391 686.09 51.0391C683.52 51.0391 681.879 53.0625 681.742 55.3594ZM716.879 53.1992V54.8945H694.621V53.1992H716.879ZM714.09 56.8359V62.0039H699.488V64.3281H714.883V65.8867H697.328V60.5273H711.957V58.4492H697.301V56.8359H714.09ZM714.008 42.6445V47.6758H699.652V49.8086H714.445V51.3672H697.52V46.1992H711.848V44.2031H697.438V42.6445H714.008ZM748.023 54.8125V56.5625H725.848V54.8125H735.855V52.4062H728.801V42.6172H745.262V44.3672H730.961V46.6367H744.605V48.2773H730.961V50.6836H745.398V52.4062H737.988V54.8125H748.023ZM736.949 58.3945C742.281 58.3672 745.289 59.7344 745.316 62.2773C745.289 64.8203 742.281 66.1602 736.949 66.1602C731.562 66.1602 728.555 64.8203 728.555 62.2773C728.555 59.7344 731.562 58.3672 736.949 58.3945ZM736.949 60.0078C732.93 60.0078 730.688 60.8281 730.715 62.2773C730.688 63.7539 732.93 64.5195 736.949 64.4922C740.914 64.5195 743.156 63.7539 743.156 62.2773C743.156 60.8281 740.914 60.0078 736.949 60.0078ZM769.078 41.9336V49.9453H772.742V51.75H769.078V60.1445H766.945V41.9336H769.078ZM764.621 44.9141V46.6641H750.129V44.9141H756.309V41.9336H758.441V44.9141H764.621ZM757.375 48.0039C760.848 48.0039 763.199 49.7812 763.227 52.543C763.199 55.2773 760.848 57.0273 757.375 57.0273C753.875 57.0273 751.496 55.2773 751.523 52.543C751.496 49.7812 753.875 48.0039 757.375 48.0039ZM757.375 49.6992C755.078 49.6992 753.547 50.8203 753.574 52.543C753.547 54.2656 755.078 55.3594 757.375 55.332C759.645 55.3594 761.176 54.2656 761.203 52.543C761.176 50.8203 759.645 49.6992 757.375 49.6992ZM770.199 63.8906V65.6953H753.875V58.6953H755.98V63.8906H770.199ZM781.848 64V62.2227L792.484 46.3906H781.738V44.2031H795.438V45.9805L784.801 61.8125H795.547V64H781.848ZM799.156 64V44.2031H805.883C810.531 44.2031 812.637 46.9648 812.637 50.4922C812.637 53.9922 810.531 56.8086 805.91 56.8086H801.617V64H799.156ZM801.617 54.6211H805.801C808.945 54.6211 810.203 52.8438 810.203 50.4922C810.203 48.1133 808.945 46.3906 805.773 46.3906H801.617V54.6211ZM822.234 64H816.082V44.2031H822.48C828.25 44.2031 831.668 47.9219 831.668 54.0742C831.668 60.2539 828.25 64 822.234 64ZM818.543 61.8125H822.07C826.938 61.8125 829.262 58.8867 829.262 54.0742C829.262 49.2891 826.938 46.3906 822.316 46.3906H818.543V61.8125ZM849.852 47.1289C849.852 50.4102 852.449 53.3633 856.086 54.5117L854.992 56.2344C852.162 55.2773 849.906 53.2812 848.812 50.7109C847.746 53.4863 845.463 55.6738 842.578 56.7266L841.457 55.0039C845.094 53.7188 847.691 50.5742 847.691 47.1289V45.707H842.004V43.957H855.457V45.707H849.852V47.1289ZM861.172 41.9336V59.7617H859.039V41.9336H861.172ZM861.938 63.8906V65.6953H845.477V58.0664H847.609V63.8906H861.938ZM884.305 41.9062V49.1523H887.996V50.957H884.305V59.5156H882.172V41.9062H884.305ZM877.277 44.0117V45.8164H868.582V53.3906C873.463 53.3906 876.238 53.2676 879.492 52.5977L879.766 54.375C876.348 55.0312 873.449 55.1953 868.336 55.1953H866.449V44.0117H877.277ZM885.426 63.8906V65.6953H869.102V57.7383H871.207V63.8906H885.426ZM909.215 43.4922V53.3906H897.812V43.4922H909.215ZM899.918 45.2422V51.6953H907.109V45.2422H899.918ZM916.57 41.9062V55.8789H914.465V41.9062H916.57ZM909.98 59.2148C909.98 61.5938 913.863 63.9453 918.047 64.4648L917.309 66.1328C913.645 65.6406 910.309 63.918 908.887 61.6484C907.41 63.959 903.992 65.6406 900.328 66.1328L899.562 64.4648C903.746 64 907.766 61.6484 907.766 59.2148H900.574V57.5469H907.793V55.168H909.926V57.5469H917.199V59.2148H909.98ZM949.984 54.7852V56.5352H940.086V61.293H937.953V56.5352H927.727V54.7852H949.984ZM947.496 63.8906V65.6953H930.57V59.0508H932.703V63.8906H947.496ZM932.84 42.6992V45.8164H944.871V42.6992H947.004V52.4062H930.707V42.6992H932.84ZM932.84 50.6562H944.871V47.457H932.84V50.6562ZM960.238 45.8164C960.238 49.1797 962.727 52.2695 966.254 53.4727L965.078 55.1953C962.371 54.1973 960.266 52.1191 959.227 49.5352C958.201 52.4062 956.014 54.6484 953.156 55.7695L951.98 53.9922C955.672 52.6797 958.105 49.4805 958.133 45.7344V43.1641H960.238V45.8164ZM972.105 57.6289V66.2148H969.945V59.3516H955.754V57.6289H972.105ZM972.105 41.9062V56.2891H969.945V48.8242H964.531V47.0195H969.945V41.9062H972.105ZM514.891 103.914C513.359 103.914 512.102 102.656 512.102 101.098C512.102 99.5664 513.359 98.3086 514.891 98.3086C516.449 98.3086 517.707 99.5664 517.707 101.098C517.707 102.656 516.449 103.914 514.891 103.914ZM548.988 94.1797C548.77 92.2383 546.992 91.1172 544.613 91.1172C541.988 91.1172 540.266 92.4844 540.266 94.3711C540.266 96.4492 542.59 97.2148 544.094 97.5977L546.062 98.1445C548.195 98.6914 551.668 99.9219 551.668 103.613C551.668 106.84 549.07 109.355 544.477 109.355C540.211 109.355 537.559 107.141 537.34 103.859H539.855C540.074 106.074 542.125 107.113 544.477 107.113C547.211 107.113 549.262 105.719 549.262 103.559C549.262 101.645 547.43 100.906 545.352 100.305L542.918 99.6484C539.801 98.7461 537.887 97.1602 537.887 94.4805C537.887 91.1445 540.867 88.9297 544.695 88.9297C548.523 88.9297 551.285 91.1719 551.395 94.1797H548.988ZM555.195 109V89.2031H561.922C566.57 89.2031 568.676 91.7734 568.676 95.3008C568.676 97.9121 567.5 99.9766 564.984 100.852L569.441 109H566.57L562.441 101.289L561.949 101.316H557.656V109H555.195ZM557.656 99.0742H561.84C564.984 99.0742 566.242 97.6523 566.242 95.3008C566.242 92.9219 564.984 91.3906 561.812 91.3906H557.656V99.0742ZM598.863 86.9062V111.215H596.785V86.9062H598.863ZM593.887 87.5078V109.957H591.836V98.0078H586.531V96.2031H591.836V87.5078H593.887ZM588.172 89.9141V91.6914H581.09V103.559C584.59 103.545 586.805 103.395 589.43 102.82L589.648 104.652C586.832 105.227 584.453 105.336 580.543 105.363H579.012V89.9141H588.172ZM622.297 86.9062V111.27H620.137V86.9062H622.297ZM609.363 88.793C612.973 88.8203 615.57 92.1016 615.57 97.2695C615.57 102.438 612.973 105.719 609.363 105.719C605.727 105.719 603.156 102.438 603.156 97.2695C603.156 92.1016 605.727 88.8203 609.363 88.793ZM609.363 90.707C606.93 90.7344 605.234 93.3047 605.234 97.2695C605.234 101.234 606.93 103.805 609.363 103.805C611.797 103.805 613.492 101.234 613.492 97.2695C613.492 93.3047 611.797 90.7344 609.363 90.707ZM646.605 86.9062V111.27H644.473V97.8711H639.332V96.0938H644.473V86.9062H646.605ZM638.922 89.1484V90.9258H629.734V95.9844H637.855V97.7344H629.734V103.613C634.205 103.613 637.049 103.463 640.398 102.875L640.645 104.652C637.117 105.227 634.137 105.391 629.434 105.391H627.574V89.1484H638.922ZM672.91 106.402V108.207H650.652V106.402H660.66V101.809H653.441V94.3164H667.988V90.4883H653.387V88.7109H670.094V96.0664H655.574V100.031H670.668V101.809H662.766V106.402H672.91ZM702.031 86.9336V105.473H699.871V100.25H695.66V98.5H699.871V95.1914H695.66V93.4141H699.871V86.9336H702.031ZM695.66 89.9141V91.6641H681.906V89.9141H687.812V86.9062H689.945V89.9141H695.66ZM688.852 93.0039C692.105 93.0039 694.402 94.8633 694.402 97.6523C694.402 100.414 692.105 102.301 688.852 102.301C685.598 102.301 683.328 100.414 683.355 97.6523C683.328 94.8633 685.598 93.0039 688.852 93.0039ZM688.852 94.6992C686.773 94.7266 685.352 95.9023 685.352 97.6523C685.352 99.4023 686.773 100.578 688.852 100.578C690.93 100.578 692.352 99.4023 692.379 97.6523C692.352 95.9023 690.93 94.7266 688.852 94.6992ZM702.578 108.891V110.695H686.309V103.832H688.469V108.891H702.578ZM726.969 86.9062V111.215H724.891V98.582H721.582V109.984H719.531V87.4258H721.582V96.75H724.891V86.9062H726.969ZM713.27 93.5508C713.27 98.0078 715.102 101.918 718.574 103.695L717.289 105.363C714.828 104.023 713.146 101.617 712.285 98.6367C711.451 102.027 709.742 104.68 707.172 106.184L705.832 104.543C709.332 102.629 711.191 98.4727 711.191 93.5508V91.6094H706.406V89.8047H717.781V91.6094H713.27V93.5508ZM745.316 88.1094C748.953 88.082 751.551 90.0781 751.551 93.0586C751.551 96.0117 748.953 98.0625 745.316 98.0352C741.68 98.0625 739.082 96.0117 739.082 93.0586C739.082 90.0781 741.68 88.082 745.316 88.1094ZM745.316 89.8594C742.883 89.832 741.16 91.1719 741.188 93.0586C741.16 94.9727 742.883 96.2852 745.316 96.2578C747.777 96.2852 749.5 94.9727 749.5 93.0586C749.5 91.1719 747.777 89.832 745.316 89.8594ZM757.348 86.9336V111.242H755.242V86.9336H757.348ZM737.25 100.113C741.816 100.113 748.051 100.031 753.465 99.2383L753.602 100.852C751.277 101.275 748.857 101.535 746.52 101.672V110.477H744.387V101.809C741.912 101.918 739.574 101.932 737.551 101.945L737.25 100.113ZM781.547 86.9062V111.215H779.387V86.9062H781.547ZM770.473 94.8359C770.473 98.9102 773.316 102.848 776.98 104.406L775.777 106.074C772.975 104.83 770.596 102.191 769.461 98.9648C768.367 102.383 766.002 105.186 763.199 106.512L761.996 104.844C765.605 103.203 768.367 99.1016 768.367 94.8359V92.8945H762.652V91.1445H768.34V87.3711H770.473V91.1445H776.133V92.8945H770.473V94.8359ZM793.031 88.4922C796.777 88.5195 799.484 90.8164 799.512 94.207C799.484 97.2559 797.297 99.4297 794.125 99.8125V103.969C796.395 103.859 798.678 103.695 800.797 103.422L800.934 105.035C795.793 105.91 790.023 105.965 785.758 105.938L785.402 104.133C787.357 104.119 789.627 104.105 791.965 104.023V99.8125C788.738 99.4434 786.523 97.2695 786.551 94.207C786.523 90.8164 789.23 88.5195 793.031 88.4922ZM793.031 90.3516C790.488 90.3516 788.629 91.9375 788.656 94.207C788.629 96.4766 790.488 98.0625 793.031 98.0625C795.547 98.0625 797.379 96.4766 797.406 94.207C797.379 91.9375 795.547 90.3516 793.031 90.3516ZM804.488 86.9062V96.9414H808.453V98.8008H804.488V111.215H802.355V86.9062H804.488ZM835.742 86.9062V96.5312H839.816V98.3359H835.742V111.27H833.609V86.9062H835.742ZM829.344 89.2852V91.0625H820.129V103.367C824.531 103.367 827.648 103.162 831.258 102.492L831.531 104.352C827.73 105.035 824.531 105.172 819.91 105.172H817.996V89.2852H829.344ZM852.203 87.4531C857.48 87.4531 860.789 89.1484 860.789 92.0742C860.789 94.9453 857.48 96.6133 852.203 96.6133C846.926 96.6133 843.59 94.9453 843.59 92.0742C843.59 89.1484 846.926 87.4531 852.203 87.4531ZM852.203 89.1758C848.266 89.1758 845.777 90.2695 845.805 92.0742C845.777 93.8516 848.266 94.8906 852.203 94.918C856.086 94.8906 858.602 93.8516 858.602 92.0742C858.602 90.2695 856.086 89.1758 852.203 89.1758ZM860.57 102.902V110.887H843.836V102.902H860.57ZM845.969 104.625V109.137H858.465V104.625H845.969ZM863.277 98.7188V100.496H841.129V98.7188H863.277ZM891.688 87.9453V96.1484H884.496V99.2656H894.504V101.016H872.355V99.2656H882.363V96.1484H875.227V87.9453H891.688ZM877.332 89.668V94.4258H889.555V89.668H877.332ZM891.77 103.559V111.215H889.609V105.281H874.816V103.559H891.77ZM918.812 106.457V108.234H896.555V106.457H902.762V100.66H898.578V98.8828H902.379V90.9531H898.523V89.1758H916.68V90.9531H912.824V98.8828H916.625V100.66H912.441V106.457H918.812ZM904.512 98.8828H910.719V90.9531H904.512V98.8828ZM904.922 106.457H910.309V100.66H904.922V106.457ZM948.562 86.9062V111.215H946.512V86.9062H948.562ZM943.641 87.5078V109.957H941.617V97.4336H937.516V95.6836H941.617V87.5078H943.641ZM934.918 93.8516C934.918 98.0625 936.805 102.246 940.168 104.188L938.855 105.773C936.463 104.338 934.768 101.713 933.934 98.6094C933.045 101.959 931.281 104.816 928.848 106.348L927.48 104.734C930.871 102.711 932.84 98.2812 932.84 93.8516V91.5547H928.164V89.7773H939.375V91.5547H934.918V93.8516ZM960.621 93.4414C960.594 97.8711 963.629 102.355 967.211 103.969L965.898 105.664C963.137 104.311 960.744 101.453 959.582 97.9805C958.447 101.658 956.055 104.721 953.211 106.156L951.844 104.352C955.453 102.684 958.461 98.0625 958.488 93.4414V89.0117H960.621V93.4414ZM972.023 86.9062V111.27H969.863V86.9062H972.023ZM514.891 148.914C513.359 148.914 512.102 147.656 512.102 146.098C512.102 144.566 513.359 143.309 514.891 143.309C516.449 143.309 517.707 144.566 517.707 146.098C517.707 147.656 516.449 148.914 514.891 148.914ZM557.137 131.906V144.348H554.977V141.805H548.496V140.109H554.977V137.184H548.852C547.32 141.025 543.547 143.609 538.16 144.895L537.395 143.117C543.355 141.736 546.828 138.824 547.238 134.914H538.625V133.137H549.59C549.59 133.943 549.508 134.723 549.371 135.461H554.977V131.906H557.137ZM557.137 145.441V151.375H543.574V154.219H557.957V155.996H541.441V149.734H554.977V147.191H541.387V145.441H557.137ZM574.664 134.613V135.871C574.637 137.785 574.637 141.012 573.953 145.523L571.793 145.332C572.449 141.258 572.504 138.305 572.504 136.363H562.305V134.613H574.664ZM568.293 141.559V148.941C570.986 148.846 573.748 148.668 576.277 148.367L576.387 149.98C571.273 150.773 565.559 150.883 561.211 150.855L560.938 149.078C562.537 149.064 564.314 149.051 566.188 148.996V141.559H568.293ZM579.941 131.906V142.078H583.879V143.938H579.941V156.215H577.809V131.906H579.941ZM605.043 139.289V141.012H588.391V132.809H590.523V139.289H605.043ZM607.613 144.32V146.07H585.355V144.32H607.613ZM605.18 153.836V155.613H588.254V148.559H590.387V153.836H605.18ZM631.156 134.531V136.281H616.664V134.531H622.844V131.797H624.977V134.531H631.156ZM623.91 137.539C627.41 137.566 629.734 139.262 629.762 141.941C629.734 144.594 627.41 146.316 623.91 146.316C620.41 146.316 618.031 144.594 618.059 141.941C618.031 139.262 620.41 137.566 623.91 137.539ZM623.91 139.207C621.613 139.234 620.082 140.301 620.109 141.941C620.082 143.555 621.613 144.594 623.91 144.594C626.18 144.594 627.711 143.555 627.738 141.941C627.711 140.301 626.18 139.234 623.91 139.207ZM635.613 131.906V138.66H639.277V140.465H635.613V147.109H633.48V131.906H635.613ZM635.613 148.449V156.215H633.48V150.199H619.699V148.449H635.613ZM663.039 146.344V148.094H652.895V156.215H650.789V148.094H640.781V146.344H663.039ZM645.758 132.918V136.281H658.008V132.918H660.168V143.391H643.625V132.918H645.758ZM645.758 141.641H658.008V138.031H645.758V141.641ZM687.266 151.293V153.098H665.008V151.293H675.016V145.359H667.633V133.957H684.504V145.359H677.121V151.293H687.266ZM669.738 135.68V143.637H682.426V135.68H669.738ZM696.535 133.492C700.281 133.52 702.988 135.816 703.016 139.207C702.988 142.256 700.801 144.43 697.629 144.812V148.969C699.898 148.859 702.182 148.695 704.301 148.422L704.438 150.035C699.297 150.91 693.527 150.965 689.262 150.938L688.906 149.133C690.861 149.119 693.131 149.105 695.469 149.023V144.812C692.242 144.443 690.027 142.27 690.055 139.207C690.027 135.816 692.734 133.52 696.535 133.492ZM696.535 135.352C693.992 135.352 692.133 136.938 692.16 139.207C692.133 141.477 693.992 143.062 696.535 143.062C699.051 143.062 700.883 141.477 700.91 139.207C700.883 136.938 699.051 135.352 696.535 135.352ZM707.992 131.906V141.941H711.957V143.801H707.992V156.215H705.859V131.906H707.992ZM742.664 146.645V148.422H732.547V156.215H730.441V148.422H720.406V146.645H742.664ZM740.148 142.379V144.129H723.387V133.055H739.875V134.805H725.52V137.648H739.301V139.371H725.52V142.379H740.148ZM764.785 131.906V146.316H762.625V142.488H756.938V144.566H745.781V133.766H756.938V135.871H762.625V131.906H764.785ZM747.914 135.516V142.816H754.832V135.516H747.914ZM756.719 147.027C761.777 147.027 764.867 148.695 764.867 151.621C764.867 154.52 761.777 156.16 756.719 156.16C751.66 156.16 748.57 154.52 748.57 151.621C748.57 148.695 751.66 147.027 756.719 147.027ZM756.719 148.695C753 148.723 750.676 149.789 750.703 151.621C750.676 153.371 753 154.465 756.719 154.465C760.438 154.465 762.734 153.371 762.734 151.621C762.734 149.789 760.438 148.723 756.719 148.695ZM756.938 140.684H762.625V137.648H756.938V140.684ZM787.645 131.906V141.941H791.719V143.719H787.645V156.215H785.512V131.906H787.645ZM783.16 135.816V137.594H768.695V135.816H774.957V132.207H777.09V135.816H783.16ZM776.051 139.617C779.496 139.617 781.984 141.914 782.012 145.195C781.984 148.477 779.496 150.773 776.051 150.773C772.578 150.773 770.062 148.477 770.09 145.195C770.062 141.914 772.578 139.617 776.051 139.617ZM776.051 141.422C773.781 141.422 772.113 143.008 772.141 145.195C772.113 147.41 773.781 148.969 776.051 148.941C778.293 148.969 779.934 147.41 779.961 145.195C779.934 143.008 778.293 141.422 776.051 141.422ZM813.84 131.906V156.215H811.789V131.906H813.84ZM808.727 132.562V154.984H806.676V143.637H801.535C800.045 146.467 797.707 148.969 794.316 150.965L793.059 149.406C798.35 146.275 801.002 141.887 801.398 136.801H794.098V135.023H803.531C803.518 137.416 803.135 139.727 802.328 141.887H806.676V132.562H808.727ZM835.25 147.273C840.473 147.273 843.781 148.914 843.781 151.73C843.781 154.52 840.473 156.16 835.25 156.16C830.055 156.16 826.746 154.52 826.746 151.73C826.746 148.914 830.055 147.273 835.25 147.273ZM835.25 148.914C831.367 148.941 828.852 150.008 828.879 151.73C828.852 153.426 831.367 154.465 835.25 154.465C839.133 154.465 841.621 153.426 841.648 151.73C841.621 150.008 839.133 148.941 835.25 148.914ZM843.59 133.164V135.215C843.59 137.184 843.59 139.152 842.906 141.668L840.801 141.422C841.457 138.906 841.457 137.129 841.457 135.215V134.914H826.91V133.164H843.59ZM846.406 143.254V145.004H824.285V143.254H833.445V138.551H835.551V143.254H846.406ZM870.688 145.77V147.547H864.809V156.215H862.648V147.547H856.414V156.215H854.199V147.547H848.43V145.77H870.688ZM859.504 132.891C864.617 132.891 868.062 134.941 868.062 138.195C868.062 141.422 864.617 143.473 859.504 143.445C854.391 143.473 850.945 141.422 850.945 138.195C850.945 134.941 854.391 132.891 859.504 132.891ZM859.504 134.641C855.703 134.641 853.133 136.035 853.16 138.195C853.133 140.355 855.703 141.723 859.504 141.723C863.277 141.723 865.875 140.355 865.875 138.195C865.875 136.035 863.277 134.641 859.504 134.641Z" fill="black"/>
<defs>
<linearGradient id="paint0_linear_543_1092" x1="-0.968748" y1="98.5" x2="1491.03" y2="98.4998" gradientUnits="userSpaceOnUse">
<stop stop-color="#3182F6"/>
<stop offset="1" stop-color="#A009FF"/>
</linearGradient>
<linearGradient id="paint1_linear_543_1092" x1="43.6656" y1="126" x2="558.628" y2="126" gradientUnits="userSpaceOnUse">
<stop stop-color="#3182F6"/>
<stop offset="1" stop-color="#A009FF"/>
</linearGradient>
</defs>
</svg>
