<svg width="1072" height="197" viewBox="0 0 1072 197" fill="none" xmlns="http://www.w3.org/2000/svg">
<rect x="0.5" y="0.5" width="1071" height="196" rx="14.5" fill="white" stroke="url(#paint0_linear_469_1790)"/>
<path d="M426 33L426 165" stroke="#F2F2F7" stroke-width="2"/>
<path d="M82.9844 114.898V136.086H80.4531V114.898H82.9844ZM78.5312 115.32V135.055H76.0938V124.883H72.0156V122.75H76.0938V115.32H78.5312ZM73.4688 117.383V119.469H67.9609V129.055C70.4688 129.031 72.2617 128.926 74.3359 128.492L74.5469 130.625C72.1562 131.117 70.0469 131.211 66.8359 131.234H65.4062V117.383H73.4688ZM103.07 114.898V136.109H100.445V114.898H103.07ZM91.6562 116.445C94.8438 116.445 97.1641 119.352 97.1875 123.922C97.1641 128.539 94.8438 131.422 91.6562 131.422C88.4453 131.422 86.125 128.539 86.125 123.922C86.125 119.352 88.4453 116.445 91.6562 116.445ZM91.6562 118.789C89.8516 118.789 88.6328 120.688 88.6328 123.922C88.6328 127.18 89.8516 129.078 91.6562 129.078C93.4375 129.078 94.6562 127.18 94.6562 123.922C94.6562 120.688 93.4375 118.789 91.6562 118.789ZM123.953 114.898V136.109H121.375V124.672H117.391V122.562H121.375V114.898H123.953ZM117.062 116.727V118.859H109.773V122.656H116.219V124.719H109.773V129.078C112.996 129.066 115.41 128.961 118.141 128.516L118.398 130.625C115.305 131.094 112.609 131.211 108.812 131.234H107.148V116.727H117.062ZM150.32 114.898V136.086H147.695V114.898H150.32ZM143.992 117.148C143.992 123.453 141.555 128.82 134.125 132.336L132.766 130.25C138.309 127.613 140.887 124.027 141.344 119.211H133.844V117.148H143.992ZM170.078 114.922V121.039H173.031V123.195H170.078V130.508H167.477V114.922H170.078ZM170.922 133.555V135.664H156.508V128.938H159.109V133.555H170.922ZM156.672 116.422V119.656H161.617V116.422H164.195V127.062H154.094V116.422H156.672ZM156.672 125H161.617V121.672H156.672V125ZM190.562 116.305V125.516H180.531V116.305H190.562ZM183.086 118.391V123.43H188.008V118.391H183.086ZM196.516 114.898V119.656H199.469V121.812H196.516V126.852H193.914V114.898H196.516ZM196.82 127.93V129.992H191.195C191.605 131.797 194.008 133.496 197.711 134.023L196.773 136.016C193.469 135.547 190.949 134.129 189.742 132.219C188.512 134.129 186.039 135.535 182.734 135.969L181.773 134C185.512 133.496 187.855 131.844 188.289 129.992H182.641V127.93H196.82ZM219.859 125.188V127.25H211.469V129.102H217.516V135.828H202.82V129.102H208.891V127.25H200.547V125.188H219.859ZM211.469 114.875V116.773H217.961V118.836H211.656C211.961 120.57 214.457 122 218.898 122.305L218.148 124.227C214.316 123.934 211.504 122.809 210.18 121.016C208.844 122.809 206.031 123.934 202.234 124.227L201.461 122.305C205.926 122 208.387 120.57 208.703 118.836H202.445V116.773H208.891V114.875H211.469ZM205.398 131.188V133.719H214.984V131.188H205.398ZM239.57 116.938V119H227.008V116.938H232V114.805H234.602V116.938H239.57ZM233.289 119.82C236.359 119.82 238.445 121.367 238.469 123.688C238.445 126.008 236.359 127.555 233.289 127.555C230.219 127.555 228.086 126.008 228.086 123.688C228.086 121.367 230.219 119.82 233.289 119.82ZM233.289 121.789C231.672 121.789 230.617 122.492 230.617 123.688C230.617 124.883 231.672 125.562 233.289 125.539C234.906 125.562 235.984 124.883 235.984 123.688C235.984 122.492 234.906 121.789 233.289 121.789ZM243.695 114.898V120.523H246.648V122.656H243.695V128.164H241.094V114.898H243.695ZM243.695 129.148V136.086H241.094V131.234H229.586V129.148H243.695ZM252.625 127.602V129.617H261.953V127.602H264.555V135.828H250.047V127.602H252.625ZM252.625 133.766H261.953V131.609H252.625V133.766ZM267.039 124.273V126.406H247.727V124.273H267.039ZM258.719 115.93C258.719 118.203 261.625 120.594 266.008 121.109L265.094 123.172C261.543 122.691 258.742 121.121 257.383 118.977C256.012 121.133 253.199 122.691 249.672 123.172L248.711 121.109C253.141 120.57 256.023 118.273 256.047 115.93V115.133H258.719V115.93Z" fill="url(#paint1_linear_469_1790)"/>
<path d="M76.4297 72.5703C76.4297 76.4023 78.7852 80.3047 84.0586 81.8867L81.7734 85.4023C78.1875 84.2773 75.6562 81.9746 74.2148 79.0742C72.7559 82.2207 70.1543 84.752 66.4102 86L64.0898 82.4844C69.3984 80.7617 71.8594 76.6133 71.8594 72.5703V72.1133H65.2852V68.5273H82.8633V72.1133H76.4297V72.5703ZM90.7383 66.2773V89.4102H86.2383V66.2773H90.7383ZM91.582 94.0859V97.6719H69.293V87.3008H73.8281V94.0859H91.582ZM120.445 66.2422V74.9609H124.77V78.6523H120.445V89.375H115.945V66.2422H120.445ZM110.742 68.8086V72.3945H100.793V80.4805C106.576 80.4453 109.758 80.2695 113.344 79.4961L113.801 83.082C109.793 83.9258 106.102 84.1016 99 84.1016H96.293V68.8086H110.742ZM121.605 94.0859V97.6719H99.7031V86.9141H104.168V94.0859H121.605ZM155.426 84.6992V88.2148H142.91V98.2344H138.48V88.2148H126.141V84.6992H155.426ZM134.016 67.4727V71.1641H147.445V67.4727H151.945V81.6055H129.586V67.4727H134.016ZM134.016 78.0195H147.445V74.6797H134.016V78.0195ZM184.289 66.2422V98.3047H179.859V81.1484H174.234V77.5273H179.859V66.2422H184.289ZM173.707 68.9141V72.5352H163.23V77.8438H172.547V81.3594H163.23V87.4062C167.66 87.3711 171.211 87.2129 175.184 86.5977L175.641 90.1836C170.965 90.8867 166.781 91.0625 161.297 91.0625H158.766V68.9141H173.707ZM221.941 66.2422V78.125H226.652V81.7812H221.941V98.3047H217.441V66.2422H221.941ZM212.977 69.1953V72.8164H202.43V86.8438C207.07 86.791 210.902 86.5801 215.156 85.8242L215.648 89.5859C210.691 90.4297 206.332 90.5703 200.672 90.5352H197.965V69.1953H212.977ZM257.062 81.8516V85.4023H227.777V81.8516H257.062ZM235.934 86.7383V88.8828H249.188V86.7383H253.617V97.8125H231.469V86.7383H235.934ZM235.934 94.3672H249.188V92.2227H235.934V94.3672ZM253.512 66.8047V75.0664H235.898V76.8594H254.109V80.2695H231.434V71.8672H249.012V70.1445H231.363V66.8047H253.512ZM285.82 66.2422V98.2344H281.355V66.2422H285.82ZM265.078 69.3008V86.4922C269.402 86.4395 274.043 86.0352 278.754 85.1211L279.316 88.8125C273.691 89.9727 268.418 90.3594 263.461 90.3242H260.648V69.3008H265.078ZM315.281 66.2422V78.125H319.992V81.7812H315.281V98.3047H310.781V66.2422H315.281ZM306.316 69.1953V72.8164H295.77V86.8438C300.41 86.791 304.242 86.5801 308.496 85.8242L308.988 89.5859C304.031 90.4297 299.672 90.5703 294.012 90.5352H291.305V69.1953H306.316Z" fill="black"/>
<path d="M548.922 54.3672C547.828 54.3672 546.93 53.4688 546.93 52.3555C546.93 51.2617 547.828 50.3633 548.922 50.3633C550.035 50.3633 550.934 51.2617 550.934 52.3555C550.934 53.4688 550.035 54.3672 548.922 54.3672ZM565.562 58V43.8594H570.367C573.688 43.8594 575.191 45.6953 575.191 48.2148C575.191 50.0801 574.352 51.5547 572.555 52.1797L575.738 58H573.688L570.738 52.4922L570.387 52.5117H567.32V58H565.562ZM567.32 50.9102H570.309C572.555 50.9102 573.453 49.8945 573.453 48.2148C573.453 46.5156 572.555 45.4219 570.289 45.4219H567.32V50.9102ZM581.852 58.2148C578.785 58.2148 576.891 56.0469 576.891 52.7852C576.891 49.5234 578.805 47.2578 581.695 47.2578C583.922 47.2578 586.266 48.625 586.266 52.5508V53.2539H578.57C578.648 55.5 579.957 56.7305 581.852 56.7305C583.121 56.7305 583.922 56.1836 584.312 55.5195H586.109C585.602 57.1211 584.039 58.2148 581.852 58.2148ZM578.59 51.8281H584.566C584.566 50.0508 583.434 48.7422 581.695 48.7422C579.859 48.7422 578.688 50.1875 578.59 51.8281ZM590.133 51.6328V58H588.453V47.3945H590.074V49.0547H590.211C590.719 47.9805 591.695 47.2578 593.316 47.2578C595.465 47.2578 596.891 48.5664 596.891 51.2617V58H595.211V51.3789C595.211 49.7383 594.312 48.7617 592.809 48.7617C591.266 48.7617 590.133 49.7969 590.133 51.6328ZM599.078 54.9922C599.078 52.5508 601.227 52.0039 603.062 51.8672C603.736 51.8184 605.455 51.7305 605.934 51.7109V50.8516C605.934 49.5039 605.133 48.7227 603.531 48.7227C602.184 48.7227 601.383 49.3477 601.148 50.1484H599.391C599.605 48.4492 601.266 47.2578 603.609 47.2578C604.996 47.2578 607.594 47.668 607.594 51.0078V58H605.934V56.5547H605.855C605.504 57.2773 604.527 58.2539 602.691 58.2539C600.68 58.2539 599.078 57.0625 599.078 54.9922ZM600.758 55.0703C600.758 56.1836 601.695 56.75 602.984 56.75C604.879 56.75 605.934 55.4805 605.934 54.1523V53.0781L603.258 53.2734C601.734 53.3711 600.758 53.918 600.758 55.0703ZM610.289 58V47.3945H611.969V58H610.289ZM611.129 45.6367C610.484 45.6367 609.957 45.1484 609.957 44.5234C609.957 43.8984 610.484 43.4102 611.129 43.4102C611.773 43.4102 612.32 43.8984 612.32 44.5234C612.32 45.1484 611.773 45.6367 611.129 45.6367ZM620.543 50.1484C620.309 49.2695 619.645 48.6836 618.395 48.6836C617.086 48.6836 616.148 49.3867 616.148 50.2852C616.148 50.9883 616.715 51.4766 617.965 51.7695L619.547 52.1602C621.441 52.6094 622.379 53.5469 622.379 55.0312C622.379 56.8672 620.875 58.2148 618.219 58.2148C615.836 58.2148 614.41 57.1602 614.137 55.2266H615.895C616.09 56.2617 616.852 56.75 618.18 56.75C619.684 56.75 620.641 56.125 620.641 55.1289C620.641 54.3867 620.113 53.8789 618.902 53.6055L617.301 53.2344C615.445 52.8047 614.469 51.7891 614.469 50.3828C614.469 48.5664 616.051 47.2578 618.395 47.2578C620.582 47.2578 621.969 48.4297 622.184 50.1484H620.543ZM630.465 50.1484C630.23 49.2695 629.566 48.6836 628.316 48.6836C627.008 48.6836 626.07 49.3867 626.07 50.2852C626.07 50.9883 626.637 51.4766 627.887 51.7695L629.469 52.1602C631.363 52.6094 632.301 53.5469 632.301 55.0312C632.301 56.8672 630.797 58.2148 628.141 58.2148C625.758 58.2148 624.332 57.1602 624.059 55.2266H625.816C626.012 56.2617 626.773 56.75 628.102 56.75C629.605 56.75 630.562 56.125 630.562 55.1289C630.562 54.3867 630.035 53.8789 628.824 53.6055L627.223 53.2344C625.367 52.8047 624.391 51.7891 624.391 50.3828C624.391 48.5664 625.973 47.2578 628.316 47.2578C630.504 47.2578 631.891 48.4297 632.105 50.1484H630.465ZM633.98 54.9922C633.98 52.5508 636.129 52.0039 637.965 51.8672C638.639 51.8184 640.357 51.7305 640.836 51.7109V50.8516C640.836 49.5039 640.035 48.7227 638.434 48.7227C637.086 48.7227 636.285 49.3477 636.051 50.1484H634.293C634.508 48.4492 636.168 47.2578 638.512 47.2578C639.898 47.2578 642.496 47.668 642.496 51.0078V58H640.836V56.5547H640.758C640.406 57.2773 639.43 58.2539 637.594 58.2539C635.582 58.2539 633.98 57.0625 633.98 54.9922ZM635.66 55.0703C635.66 56.1836 636.598 56.75 637.887 56.75C639.781 56.75 640.836 55.4805 640.836 54.1523V53.0781L638.16 53.2734C636.637 53.3711 635.66 53.918 635.66 55.0703ZM646.871 51.6328V58H645.191V47.3945H646.812V49.0547H646.949C647.457 47.9805 648.434 47.2578 650.055 47.2578C652.203 47.2578 653.629 48.5664 653.629 51.2617V58H651.949V51.3789C651.949 49.7383 651.051 48.7617 649.547 48.7617C648.004 48.7617 646.871 49.7969 646.871 51.6328ZM660.66 58.2148C657.652 58.2148 655.816 55.9297 655.816 52.7461C655.816 49.5234 657.73 47.2578 660.621 47.2578C662.887 47.2578 664.566 48.5859 664.84 50.5977H663.16C662.926 49.6211 662.066 48.7422 660.66 48.7422C658.766 48.7422 657.496 50.3047 657.496 52.6875C657.496 55.1484 658.727 56.7109 660.66 56.7109C661.91 56.7109 662.867 56.0469 663.16 54.875H664.84C664.566 56.7695 663.023 58.2148 660.66 58.2148ZM671.363 58.2148C668.297 58.2148 666.402 56.0469 666.402 52.7852C666.402 49.5234 668.316 47.2578 671.207 47.2578C673.434 47.2578 675.777 48.625 675.777 52.5508V53.2539H668.082C668.16 55.5 669.469 56.7305 671.363 56.7305C672.633 56.7305 673.434 56.1836 673.824 55.5195H675.621C675.113 57.1211 673.551 58.2148 671.363 58.2148ZM668.102 51.8281H674.078C674.078 50.0508 672.945 48.7422 671.207 48.7422C669.371 48.7422 668.199 50.1875 668.102 51.8281ZM688.59 45.9492C688.59 48.293 690.445 50.4023 693.043 51.2227L692.262 52.4531C690.24 51.7695 688.629 50.3438 687.848 48.5078C687.086 50.4902 685.455 52.0527 683.395 52.8047L682.594 51.5742C685.191 50.6562 687.047 48.4102 687.047 45.9492V44.9336H682.984V43.6836H692.594V44.9336H688.59V45.9492ZM696.676 42.2383V54.9727H695.152V42.2383H696.676ZM697.223 57.9219V59.2109H685.465V53.7617H686.988V57.9219H697.223ZM713.199 42.2188V47.3945H715.836V48.6836H713.199V54.7969H711.676V42.2188H713.199ZM708.18 43.7227V45.0117H701.969V50.4219C705.455 50.4219 707.438 50.334 709.762 49.8555L709.957 51.125C707.516 51.5938 705.445 51.7109 701.793 51.7109H700.445V43.7227H708.18ZM714 57.9219V59.2109H702.34V53.5273H703.844V57.9219H714ZM724.82 43.3516C728.453 43.3516 731.168 45.2461 731.168 48.1172C731.168 51.0078 728.453 52.9023 724.82 52.8828C721.188 52.9023 718.473 51.0078 718.473 48.1172C718.473 45.2461 721.188 43.3516 724.82 43.3516ZM724.82 44.6016C722.027 44.582 719.918 46.0469 719.938 48.1172C719.918 50.2266 722.027 51.6328 724.82 51.6328C727.594 51.6328 729.684 50.2266 729.684 48.1172C729.684 46.0469 727.594 44.582 724.82 44.6016ZM732.809 55.9883V57.2773H716.91V55.9883H732.809ZM750.094 56.1445V57.4336H734.195V56.1445H741.344V52.8633H736.188V47.5117H746.578V44.7773H736.148V43.5078H748.082V48.7617H737.711V51.5938H748.492V52.8633H742.848V56.1445H750.094ZM756.891 58V56.7305L764.488 45.4219H756.812V43.8594H766.598V45.1289L759 56.4375H766.676V58H756.891ZM769.254 58V43.8594H774.059C777.379 43.8594 778.883 45.832 778.883 48.3516C778.883 50.8516 777.379 52.8633 774.078 52.8633H771.012V58H769.254ZM771.012 51.3008H774C776.246 51.3008 777.145 50.0312 777.145 48.3516C777.145 46.6523 776.246 45.4219 773.98 45.4219H771.012V51.3008ZM785.738 58H781.344V43.8594H785.914C790.035 43.8594 792.477 46.5156 792.477 50.9102C792.477 55.3242 790.035 58 785.738 58ZM783.102 56.4375H785.621C789.098 56.4375 790.758 54.3477 790.758 50.9102C790.758 47.4922 789.098 45.4219 785.797 45.4219H783.102V56.4375ZM813.609 42.2188V52.5703H812.066V48.0195H808.57V46.75H812.066V42.2188H813.609ZM807.848 53.1172C811.461 53.1172 813.668 54.2891 813.668 56.3398C813.668 58.3906 811.461 59.5625 807.848 59.582C804.234 59.5625 802.027 58.3906 802.027 56.3398C802.027 54.2891 804.234 53.1172 807.848 53.1172ZM807.848 54.3086C805.191 54.3086 803.531 55.0703 803.551 56.3398C803.531 57.5898 805.191 58.3516 807.848 58.3516C810.504 58.3516 812.145 57.5898 812.145 56.3398C812.145 55.0703 810.504 54.3086 807.848 54.3086ZM805.25 45.4023C805.25 47.668 806.988 49.8164 809.527 50.6953L808.727 51.9258C806.773 51.2227 805.26 49.7676 804.527 47.9609C803.766 50.002 802.154 51.6328 800.094 52.4141L799.293 51.1836C801.871 50.2461 803.707 47.9023 803.707 45.4219V44.7773H799.781V43.4883H809.137V44.7773H805.25V45.4023ZM825.562 43.1953V50.2656H817.418V43.1953H825.562ZM818.922 44.4453V49.0547H824.059V44.4453H818.922ZM830.816 42.2188V51.1836H829.312V42.2188H830.816ZM830.816 52.043V56.1836H821.09V58.1367H831.441V59.3867H819.566V55.0508H829.312V53.2734H819.547V52.043H830.816ZM854.684 51.418V52.668H847.613V56.0664H846.09V52.668H838.785V51.418H854.684ZM852.906 57.9219V59.2109H840.816V54.4648H842.34V57.9219H852.906ZM842.438 42.7852V45.0117H851.031V42.7852H852.555V49.7188H840.914V42.7852H842.438ZM842.438 48.4688H851.031V46.1836H842.438V48.4688ZM862.008 45.0117C862.008 47.4141 863.785 49.6211 866.305 50.4805L865.465 51.7109C863.531 50.998 862.027 49.5137 861.285 47.668C860.553 49.7188 858.99 51.3203 856.949 52.1211L856.109 50.8516C858.746 49.9141 860.484 47.6289 860.504 44.9531V43.1172H862.008V45.0117ZM870.484 53.4492V59.582H868.941V54.6797H858.805V53.4492H870.484ZM870.484 42.2188V52.4922H868.941V47.1602H865.074V45.8711H868.941V42.2188H870.484ZM548.922 86.3672C547.828 86.3672 546.93 85.4688 546.93 84.3555C546.93 83.2617 547.828 82.3633 548.922 82.3633C550.035 82.3633 550.934 83.2617 550.934 84.3555C550.934 85.4688 550.035 86.3672 548.922 86.3672ZM579.566 74.2188V91.582H578.082V74.2188H579.566ZM576.012 74.6484V90.6836H574.547V82.1484H570.758V80.8594H574.547V74.6484H576.012ZM571.93 76.3672V77.6367H566.871V86.1133C569.371 86.1035 570.953 85.9961 572.828 85.5859L572.984 86.8945C570.973 87.3047 569.273 87.3828 566.48 87.4023H565.387V76.3672H571.93ZM596.305 74.2188V91.6211H594.762V74.2188H596.305ZM587.066 75.5664C589.645 75.5859 591.5 77.9297 591.5 81.6211C591.5 85.3125 589.645 87.6562 587.066 87.6562C584.469 87.6562 582.633 85.3125 582.633 81.6211C582.633 77.9297 584.469 75.5859 587.066 75.5664ZM587.066 76.9336C585.328 76.9531 584.117 78.7891 584.117 81.6211C584.117 84.4531 585.328 86.2891 587.066 86.2891C588.805 86.2891 590.016 84.4531 590.016 81.6211C590.016 78.7891 588.805 76.9531 587.066 76.9336ZM613.668 74.2188V91.6211H612.145V82.0508H608.473V80.7812H612.145V74.2188H613.668ZM608.18 75.8203V77.0898H601.617V80.7031H607.418V81.9531H601.617V86.1523C604.811 86.1523 606.842 86.0449 609.234 85.625L609.41 86.8945C606.891 87.3047 604.762 87.4219 601.402 87.4219H600.074V75.8203H608.18ZM632.457 88.1445V89.4336H616.559V88.1445H623.707V84.8633H618.551V79.5117H628.941V76.7773H618.512V75.5078H630.445V80.7617H620.074V83.5938H630.855V84.8633H625.211V88.1445H632.457ZM643.512 75.5664C646.07 75.5859 647.887 77.9297 647.906 81.6211C647.887 85.3125 646.07 87.6562 643.512 87.6562C640.934 87.6562 639.137 85.3125 639.137 81.6211C639.137 77.9297 640.934 75.5859 643.512 75.5664ZM643.512 76.9336C641.793 76.9531 640.582 78.7891 640.582 81.6211C640.582 84.4531 641.793 86.2891 643.512 86.2891C645.25 86.2891 646.422 84.4531 646.422 81.6211C646.422 78.7891 645.25 76.9531 643.512 76.9336ZM652.301 74.2188V81.1523H655.211V82.4805H652.301V91.582H650.777V74.2188H652.301ZM670.465 74.2188V91.6211H668.922V74.2188H670.465ZM661.227 75.5664C663.805 75.5859 665.66 77.9297 665.66 81.6211C665.66 85.3125 663.805 87.6562 661.227 87.6562C658.629 87.6562 656.793 85.3125 656.793 81.6211C656.793 77.9297 658.629 75.5859 661.227 75.5664ZM661.227 76.9336C659.488 76.9531 658.277 78.7891 658.277 81.6211C658.277 84.4531 659.488 86.2891 661.227 86.2891C662.965 86.2891 664.176 84.4531 664.176 81.6211C664.176 78.7891 662.965 76.9531 661.227 76.9336ZM679.117 75.4883C681.852 75.4883 683.785 77.1484 683.785 79.5703C683.785 81.9922 681.852 83.6523 679.117 83.6523C676.383 83.6523 674.41 81.9922 674.43 79.5703C674.41 77.1484 676.383 75.4883 679.117 75.4883ZM679.117 76.8359C677.262 76.8359 675.914 77.9492 675.934 79.5703C675.914 81.1914 677.262 82.3047 679.117 82.3047C680.953 82.3047 682.281 81.1914 682.281 79.5703C682.281 77.9492 680.953 76.8359 679.117 76.8359ZM687.672 74.2188V91.6211H686.148V74.2188H687.672ZM673.531 86.4844C676.734 86.4844 681.148 86.4648 684.996 85.8984L685.113 87.0312C681.148 87.7734 676.871 87.793 673.746 87.793L673.531 86.4844ZM710.133 74.2383V87.4805H708.59V83.75H705.582V82.5H708.59V80.1367H705.582V78.8672H708.59V74.2383H710.133ZM705.582 76.3672V77.6172H695.758V76.3672H699.977V74.2188H701.5V76.3672H705.582ZM700.719 78.5742C703.043 78.5742 704.684 79.9023 704.684 81.8945C704.684 83.8672 703.043 85.2148 700.719 85.2148C698.395 85.2148 696.773 83.8672 696.793 81.8945C696.773 79.9023 698.395 78.5742 700.719 78.5742ZM700.719 79.7852C699.234 79.8047 698.219 80.6445 698.219 81.8945C698.219 83.1445 699.234 83.9844 700.719 83.9844C702.203 83.9844 703.219 83.1445 703.238 81.8945C703.219 80.6445 702.203 79.8047 700.719 79.7852ZM710.523 89.9219V91.2109H698.902V86.3086H700.445V89.9219H710.523ZM727.945 74.2188V91.582H726.461V82.5586H724.098V90.7031H722.633V74.5898H724.098V81.25H726.461V74.2188H727.945ZM718.16 78.9648C718.16 82.1484 719.469 84.9414 721.949 86.2109L721.031 87.4023C719.273 86.4453 718.072 84.7266 717.457 82.5977C716.861 85.0195 715.641 86.9141 713.805 87.9883L712.848 86.8164C715.348 85.4492 716.676 82.4805 716.676 78.9648V77.5781H713.258V76.2891H721.383V77.5781H718.16V78.9648ZM741.051 75.0781C743.648 75.0586 745.504 76.4844 745.504 78.6133C745.504 80.7227 743.648 82.1875 741.051 82.168C738.453 82.1875 736.598 80.7227 736.598 78.6133C736.598 76.4844 738.453 75.0586 741.051 75.0781ZM741.051 76.3281C739.312 76.3086 738.082 77.2656 738.102 78.6133C738.082 79.9805 739.312 80.918 741.051 80.8984C742.809 80.918 744.039 79.9805 744.039 78.6133C744.039 77.2656 742.809 76.3086 741.051 76.3281ZM749.645 74.2383V91.6016H748.141V74.2383H749.645ZM735.289 83.6523C738.551 83.6523 743.004 83.5938 746.871 83.0273L746.969 84.1797C745.309 84.4824 743.58 84.668 741.91 84.7656V91.0547H740.387V84.8633C738.619 84.9414 736.949 84.9512 735.504 84.9609L735.289 83.6523ZM766.93 74.2188V91.582H765.387V74.2188H766.93ZM759.02 79.8828C759.02 82.793 761.051 85.6055 763.668 86.7188L762.809 87.9102C760.807 87.0215 759.107 85.1367 758.297 82.832C757.516 85.2734 755.826 87.2754 753.824 88.2227L752.965 87.0312C755.543 85.8594 757.516 82.9297 757.516 79.8828V78.4961H753.434V77.2461H757.496V74.5508H759.02V77.2461H763.062V78.4961H759.02V79.8828ZM775.133 75.3516C777.809 75.3711 779.742 77.0117 779.762 79.4336C779.742 81.6113 778.18 83.1641 775.914 83.4375V86.4062C777.535 86.3281 779.166 86.2109 780.68 86.0156L780.777 87.168C777.105 87.793 772.984 87.832 769.938 87.8125L769.684 86.5234C771.08 86.5137 772.701 86.5039 774.371 86.4453V83.4375C772.066 83.1738 770.484 81.6211 770.504 79.4336C770.484 77.0117 772.418 75.3711 775.133 75.3516ZM775.133 76.6797C773.316 76.6797 771.988 77.8125 772.008 79.4336C771.988 81.0547 773.316 82.1875 775.133 82.1875C776.93 82.1875 778.238 81.0547 778.258 79.4336C778.238 77.8125 776.93 76.6797 775.133 76.6797ZM783.316 74.2188V81.3867H786.148V82.7148H783.316V91.582H781.793V74.2188H783.316ZM805.641 74.2188V81.0938H808.551V82.3828H805.641V91.6211H804.117V74.2188H805.641ZM801.07 75.918V77.1875H794.488V85.9766C797.633 85.9766 799.859 85.8301 802.438 85.3516L802.633 86.6797C799.918 87.168 797.633 87.2656 794.332 87.2656H792.965V75.918H801.07ZM817.398 74.6094C821.168 74.6094 823.531 75.8203 823.531 77.9102C823.531 79.9609 821.168 81.1523 817.398 81.1523C813.629 81.1523 811.246 79.9609 811.246 77.9102C811.246 75.8203 813.629 74.6094 817.398 74.6094ZM817.398 75.8398C814.586 75.8398 812.809 76.6211 812.828 77.9102C812.809 79.1797 814.586 79.9219 817.398 79.9414C820.172 79.9219 821.969 79.1797 821.969 77.9102C821.969 76.6211 820.172 75.8398 817.398 75.8398ZM823.375 85.6445V91.3477H811.422V85.6445H823.375ZM812.945 86.875V90.0977H821.871V86.875H812.945ZM825.309 82.6562V83.9258H809.488V82.6562H825.309ZM845.602 74.9609V80.8203H840.465V83.0469H847.613V84.2969H831.793V83.0469H838.941V80.8203H833.844V74.9609H845.602ZM835.348 76.1914V79.5898H844.078V76.1914H835.348ZM845.66 86.1133V91.582H844.117V87.3438H833.551V86.1133H845.66ZM864.977 88.1836V89.4531H849.078V88.1836H853.512V84.043H850.523V82.7734H853.238V77.1094H850.484V75.8398H863.453V77.1094H860.699V82.7734H863.414V84.043H860.426V88.1836H864.977ZM854.762 82.7734H859.195V77.1094H854.762V82.7734ZM855.055 88.1836H858.902V84.043H855.055V88.1836ZM886.227 74.2188V91.582H884.762V74.2188H886.227ZM882.711 74.6484V90.6836H881.266V81.7383H878.336V80.4883H881.266V74.6484H882.711ZM876.48 79.1797C876.48 82.1875 877.828 85.1758 880.23 86.5625L879.293 87.6953C877.584 86.6699 876.373 84.7949 875.777 82.5781C875.143 84.9707 873.883 87.0117 872.145 88.1055L871.168 86.9531C873.59 85.5078 874.996 82.3438 874.996 79.1797V77.5391H871.656V76.2695H879.664V77.5391H876.48V79.1797ZM894.84 78.8867C894.82 82.0508 896.988 85.2539 899.547 86.4062L898.609 87.6172C896.637 86.6504 894.928 84.6094 894.098 82.1289C893.287 84.7559 891.578 86.9434 889.547 87.9688L888.57 86.6797C891.148 85.4883 893.297 82.1875 893.316 78.8867V75.7227H894.84V78.8867ZM902.984 74.2188V91.6211H901.441V74.2188H902.984ZM548.922 118.367C547.828 118.367 546.93 117.469 546.93 116.355C546.93 115.262 547.828 114.363 548.922 114.363C550.035 114.363 550.934 115.262 550.934 116.355C550.934 117.469 550.035 118.367 548.922 118.367ZM573.277 111.414C573.121 110.027 571.852 109.227 570.152 109.227C568.277 109.227 567.047 110.203 567.047 111.551C567.047 113.035 568.707 113.582 569.781 113.855L571.188 114.246C572.711 114.637 575.191 115.516 575.191 118.152C575.191 120.457 573.336 122.254 570.055 122.254C567.008 122.254 565.113 120.672 564.957 118.328H566.754C566.91 119.91 568.375 120.652 570.055 120.652C572.008 120.652 573.473 119.656 573.473 118.113C573.473 116.746 572.164 116.219 570.68 115.789L568.941 115.32C566.715 114.676 565.348 113.543 565.348 111.629C565.348 109.246 567.477 107.664 570.211 107.664C572.945 107.664 574.918 109.266 574.996 111.414H573.277ZM577.711 122V107.859H582.516C585.836 107.859 587.34 109.695 587.34 112.215C587.34 114.08 586.5 115.555 584.703 116.18L587.887 122H585.836L582.887 116.492L582.535 116.512H579.469V122H577.711ZM579.469 114.91H582.457C584.703 114.91 585.602 113.895 585.602 112.215C585.602 110.516 584.703 109.422 582.438 109.422H579.469V114.91ZM608.902 106.219V123.582H607.418V106.219H608.902ZM605.348 106.648V122.684H603.883V114.148H600.094V112.859H603.883V106.648H605.348ZM601.266 108.367V109.637H596.207V118.113C598.707 118.104 600.289 117.996 602.164 117.586L602.32 118.895C600.309 119.305 598.609 119.383 595.816 119.402H594.723V108.367H601.266ZM625.641 106.219V123.621H624.098V106.219H625.641ZM616.402 107.566C618.98 107.586 620.836 109.93 620.836 113.621C620.836 117.312 618.98 119.656 616.402 119.656C613.805 119.656 611.969 117.312 611.969 113.621C611.969 109.93 613.805 107.586 616.402 107.566ZM616.402 108.934C614.664 108.953 613.453 110.789 613.453 113.621C613.453 116.453 614.664 118.289 616.402 118.289C618.141 118.289 619.352 116.453 619.352 113.621C619.352 110.789 618.141 108.953 616.402 108.934ZM643.004 106.219V123.621H641.48V114.051H637.809V112.781H641.48V106.219H643.004ZM637.516 107.82V109.09H630.953V112.703H636.754V113.953H630.953V118.152C634.146 118.152 636.178 118.045 638.57 117.625L638.746 118.895C636.227 119.305 634.098 119.422 630.738 119.422H629.41V107.82H637.516ZM661.793 120.145V121.434H645.895V120.145H653.043V116.863H647.887V111.512H658.277V108.777H647.848V107.508H659.781V112.762H649.41V115.594H660.191V116.863H654.547V120.145H661.793ZM674.176 108.953C674.156 111.434 675.914 113.621 678.473 114.48L677.613 115.672C675.699 114.949 674.195 113.543 673.453 111.707C672.701 113.787 671.109 115.408 669.02 116.199L668.18 114.949C670.855 114.012 672.633 111.707 672.652 109.012V107.215H674.176V108.953ZM682.594 106.219V116.512H681.051V111.219H677.184V109.949H681.051V106.219H682.594ZM676.832 117.02C680.445 117.02 682.652 118.211 682.652 120.301C682.652 122.371 680.445 123.543 676.832 123.543C673.219 123.543 671.012 122.371 671.012 120.301C671.012 118.211 673.219 117.02 676.832 117.02ZM676.832 118.23C674.176 118.23 672.516 119.012 672.535 120.301C672.516 121.551 674.176 122.312 676.832 122.312C679.488 122.312 681.129 121.551 681.129 120.301C681.129 119.012 679.488 118.23 676.832 118.23ZM695.113 108.152V109.051C695.094 110.418 695.094 112.723 694.605 115.945L693.062 115.809C693.531 112.898 693.57 110.789 693.57 109.402H686.285V108.152H695.113ZM690.562 113.113V118.387C692.486 118.318 694.459 118.191 696.266 117.977L696.344 119.129C692.691 119.695 688.609 119.773 685.504 119.754L685.309 118.484C686.451 118.475 687.721 118.465 689.059 118.426V113.113H690.562ZM698.883 106.219V113.484H701.695V114.812H698.883V123.582H697.359V106.219H698.883ZM708.004 107.352C710.68 107.371 712.613 109.012 712.633 111.434C712.613 113.611 711.051 115.164 708.785 115.438V118.406C710.406 118.328 712.037 118.211 713.551 118.016L713.648 119.168C709.977 119.793 705.855 119.832 702.809 119.812L702.555 118.523C703.951 118.514 705.572 118.504 707.242 118.445V115.438C704.938 115.174 703.355 113.621 703.375 111.434C703.355 109.012 705.289 107.371 708.004 107.352ZM708.004 108.68C706.188 108.68 704.859 109.812 704.879 111.434C704.859 113.055 706.188 114.188 708.004 114.188C709.801 114.188 711.109 113.055 711.129 111.434C711.109 109.812 709.801 108.68 708.004 108.68ZM716.188 106.219V113.387H719.02V114.715H716.188V123.582H714.664V106.219H716.188ZM731.051 108.953C731.031 111.434 732.789 113.621 735.348 114.48L734.488 115.672C732.574 114.949 731.07 113.543 730.328 111.707C729.576 113.787 727.984 115.408 725.895 116.199L725.055 114.949C727.73 114.012 729.508 111.707 729.527 109.012V107.215H731.051V108.953ZM739.469 106.219V116.512H737.926V111.219H734.059V109.949H737.926V106.219H739.469ZM733.707 117.02C737.32 117.02 739.527 118.211 739.527 120.301C739.527 122.371 737.32 123.543 733.707 123.543C730.094 123.543 727.887 122.371 727.887 120.301C727.887 118.211 730.094 117.02 733.707 117.02ZM733.707 118.23C731.051 118.23 729.391 119.012 729.41 120.301C729.391 121.551 731.051 122.312 733.707 122.312C736.363 122.312 738.004 121.551 738.004 120.301C738.004 119.012 736.363 118.23 733.707 118.23ZM748.238 109.52C748.238 111.785 749.938 113.816 752.496 114.656L751.773 115.867C749.771 115.213 748.258 113.826 747.516 112.078C746.764 114.07 745.162 115.623 743.082 116.375L742.301 115.145C744.898 114.266 746.715 112.02 746.734 109.52V108.777H742.77V107.508H752.145V108.777H748.238V109.52ZM755.934 106.219V110.652H758.551V111.941H755.934V116.707H754.41V106.219H755.934ZM750.367 117.176C753.941 117.176 756.09 118.348 756.09 120.34C756.09 122.371 753.941 123.543 750.367 123.543C746.793 123.543 744.605 122.371 744.605 120.34C744.605 118.348 746.793 117.176 750.367 117.176ZM750.367 118.406C747.75 118.406 746.129 119.129 746.148 120.34C746.129 121.59 747.75 122.312 750.367 122.312C753.004 122.312 754.605 121.59 754.605 120.34C754.605 119.129 753.004 118.406 750.367 118.406ZM780.484 116.727V118.016H773.316V123.621H771.812V118.016H764.664V116.727H780.484ZM773.336 109.656C773.336 111.824 776.363 113.719 779.469 114.148L778.902 115.379C776.217 114.969 773.688 113.621 772.594 111.727C771.48 113.641 768.912 114.969 766.227 115.379L765.66 114.148C768.746 113.719 771.812 111.844 771.812 109.656V109.637H766.207V108.387H771.812V106.219H773.316V108.387H778.961V109.637H773.336V109.656ZM796.266 106.219V123.621H794.723V106.219H796.266ZM787.027 107.566C789.605 107.586 791.461 109.93 791.461 113.621C791.461 117.312 789.605 119.656 787.027 119.656C784.43 119.656 782.594 117.312 782.594 113.621C782.594 109.93 784.43 107.586 787.027 107.566ZM787.027 108.934C785.289 108.953 784.078 110.789 784.078 113.621C784.078 116.453 785.289 118.289 787.027 118.289C788.766 118.289 789.977 116.453 789.977 113.621C789.977 110.789 788.766 108.953 787.027 108.934ZM820.074 116.727V118.016H812.906V123.621H811.402V118.016H804.254V116.727H820.074ZM812.926 109.656C812.926 111.824 815.953 113.719 819.059 114.148L818.492 115.379C815.807 114.969 813.277 113.621 812.184 111.727C811.07 113.641 808.502 114.969 805.816 115.379L805.25 114.148C808.336 113.719 811.402 111.844 811.402 109.656V109.637H805.797V108.387H811.402V106.219H812.906V108.387H818.551V109.637H812.926V109.656ZM827.574 109.422C827.574 111.688 829.312 113.836 831.852 114.715L831.051 115.926C829.088 115.223 827.574 113.768 826.832 111.98C826.08 113.982 824.479 115.584 822.418 116.336L821.617 115.125C824.176 114.207 826.031 111.883 826.031 109.441V108.68H822.105V107.43H831.461V108.68H827.574V109.422ZM835.934 117.547V123.582H834.391V118.816H824.254V117.547H835.934ZM835.934 106.219V116.629H834.391V112.059H830.914V110.77H834.391V106.219H835.934ZM548.922 150.367C547.828 150.367 546.93 149.469 546.93 148.355C546.93 147.262 547.828 146.363 548.922 146.363C550.035 146.363 550.934 147.262 550.934 148.355C550.934 149.469 550.035 150.367 548.922 150.367ZM579.098 138.219V147.105H577.555V145.289H572.926V144.078H577.555V141.988H573.18C572.086 144.732 569.391 146.578 565.543 147.496L564.996 146.227C569.254 145.24 571.734 143.16 572.027 140.367H565.875V139.098H573.707C573.707 139.674 573.648 140.23 573.551 140.758H577.555V138.219H579.098ZM579.098 147.887V152.125H569.41V154.156H579.684V155.426H567.887V150.953H577.555V149.137H567.848V147.887H579.098ZM591.617 140.152V141.051C591.598 142.418 591.598 144.723 591.109 147.945L589.566 147.809C590.035 144.898 590.074 142.789 590.074 141.402H582.789V140.152H591.617ZM587.066 145.113V150.387C588.99 150.318 590.963 150.191 592.77 149.977L592.848 151.129C589.195 151.695 585.113 151.773 582.008 151.754L581.812 150.484C582.955 150.475 584.225 150.465 585.562 150.426V145.113H587.066ZM595.387 138.219V145.484H598.199V146.812H595.387V155.582H593.863V138.219H595.387ZM613.316 143.492V144.723H601.422V138.863H602.945V143.492H613.316ZM615.152 147.086V148.336H599.254V147.086H615.152ZM613.414 153.883V155.152H601.324V150.113H602.848V153.883H613.414ZM631.969 140.094V141.344H621.617V140.094H626.031V138.141H627.555V140.094H631.969ZM626.793 142.242C629.293 142.262 630.953 143.473 630.973 145.387C630.953 147.281 629.293 148.512 626.793 148.512C624.293 148.512 622.594 147.281 622.613 145.387C622.594 143.473 624.293 142.262 626.793 142.242ZM626.793 143.434C625.152 143.453 624.059 144.215 624.078 145.387C624.059 146.539 625.152 147.281 626.793 147.281C628.414 147.281 629.508 146.539 629.527 145.387C629.508 144.215 628.414 143.453 626.793 143.434ZM635.152 138.219V143.043H637.77V144.332H635.152V149.078H633.629V138.219H635.152ZM635.152 150.035V155.582H633.629V151.285H623.785V150.035H635.152ZM654.742 148.531V149.781H647.496V155.582H645.992V149.781H638.844V148.531H654.742ZM642.398 138.941V141.344H651.148V138.941H652.691V146.422H640.875V138.941H642.398ZM642.398 145.172H651.148V142.594H642.398V145.172ZM672.047 152.066V153.355H656.148V152.066H663.297V147.828H658.023V139.684H670.074V147.828H664.801V152.066H672.047ZM659.527 140.914V146.598H668.59V140.914H659.527ZM678.668 139.352C681.344 139.371 683.277 141.012 683.297 143.434C683.277 145.611 681.715 147.164 679.449 147.438V150.406C681.07 150.328 682.701 150.211 684.215 150.016L684.312 151.168C680.641 151.793 676.52 151.832 673.473 151.812L673.219 150.523C674.615 150.514 676.236 150.504 677.906 150.445V147.438C675.602 147.174 674.02 145.621 674.039 143.434C674.02 141.012 675.953 139.371 678.668 139.352ZM678.668 140.68C676.852 140.68 675.523 141.812 675.543 143.434C675.523 145.055 676.852 146.188 678.668 146.188C680.465 146.188 681.773 145.055 681.793 143.434C681.773 141.812 680.465 140.68 678.668 140.68ZM686.852 138.219V145.387H689.684V146.715H686.852V155.582H685.328V138.219H686.852ZM711.617 148.746V150.016H704.391V155.582H702.887V150.016H695.719V148.746H711.617ZM709.82 145.699V146.949H697.848V139.039H709.625V140.289H699.371V142.32H709.215V143.551H699.371V145.699H709.82ZM727.418 138.219V148.512H725.875V145.777H721.812V147.262H713.844V139.547H721.812V141.051H725.875V138.219H727.418ZM715.367 140.797V146.012H720.309V140.797H715.367ZM721.656 149.02C725.27 149.02 727.477 150.211 727.477 152.301C727.477 154.371 725.27 155.543 721.656 155.543C718.043 155.543 715.836 154.371 715.836 152.301C715.836 150.211 718.043 149.02 721.656 149.02ZM721.656 150.211C719 150.23 717.34 150.992 717.359 152.301C717.34 153.551 719 154.332 721.656 154.332C724.312 154.332 725.953 153.551 725.953 152.301C725.953 150.992 724.312 150.23 721.656 150.211ZM721.812 144.488H725.875V142.32H721.812V144.488ZM743.746 138.219V145.387H746.656V146.656H743.746V155.582H742.223V138.219H743.746ZM740.543 141.012V142.281H730.211V141.012H734.684V138.434H736.207V141.012H740.543ZM735.465 143.727C737.926 143.727 739.703 145.367 739.723 147.711C739.703 150.055 737.926 151.695 735.465 151.695C732.984 151.695 731.188 150.055 731.207 147.711C731.188 145.367 732.984 143.727 735.465 143.727ZM735.465 145.016C733.844 145.016 732.652 146.148 732.672 147.711C732.652 149.293 733.844 150.406 735.465 150.387C737.066 150.406 738.238 149.293 738.258 147.711C738.238 146.148 737.066 145.016 735.465 145.016ZM762.457 138.219V155.582H760.992V138.219H762.457ZM758.805 138.688V154.703H757.34V146.598H753.668C752.604 148.619 750.934 150.406 748.512 151.832L747.613 150.719C751.393 148.482 753.287 145.348 753.57 141.715H748.355V140.445H755.094C755.084 142.154 754.811 143.805 754.234 145.348H757.34V138.688H758.805ZM777.75 149.195C781.48 149.195 783.844 150.367 783.844 152.379C783.844 154.371 781.48 155.543 777.75 155.543C774.039 155.543 771.676 154.371 771.676 152.379C771.676 150.367 774.039 149.195 777.75 149.195ZM777.75 150.367C774.977 150.387 773.18 151.148 773.199 152.379C773.18 153.59 774.977 154.332 777.75 154.332C780.523 154.332 782.301 153.59 782.32 152.379C782.301 151.148 780.523 150.387 777.75 150.367ZM783.707 139.117V140.582C783.707 141.988 783.707 143.395 783.219 145.191L781.715 145.016C782.184 143.219 782.184 141.949 782.184 140.582V140.367H771.793V139.117H783.707ZM785.719 146.324V147.574H769.918V146.324H776.461V142.965H777.965V146.324H785.719ZM803.062 148.121V149.391H798.863V155.582H797.32V149.391H792.867V155.582H791.285V149.391H787.164V148.121H803.062ZM795.074 138.922C798.727 138.922 801.188 140.387 801.188 142.711C801.188 145.016 798.727 146.48 795.074 146.461C791.422 146.48 788.961 145.016 788.961 142.711C788.961 140.387 791.422 138.922 795.074 138.922ZM795.074 140.172C792.359 140.172 790.523 141.168 790.543 142.711C790.523 144.254 792.359 145.23 795.074 145.23C797.77 145.23 799.625 144.254 799.625 142.711C799.625 141.168 797.77 140.172 795.074 140.172ZM807.32 152.691L805.797 158.004H804.352L805.426 152.691H807.32ZM828.941 138.238V150.973H827.418V138.238H828.941ZM829.488 153.922V155.211H817.73V149.801H819.254V153.922H829.488ZM820.758 140.953C820.738 143.59 822.555 145.973 825.133 146.91L824.332 148.141C822.32 147.369 820.758 145.807 819.996 143.805C819.225 145.934 817.643 147.643 815.621 148.453L814.781 147.262C817.418 146.246 819.195 143.688 819.195 140.953V139.215H820.758V140.953ZM842.008 139.84V144.41H834.801V146.617H842.496V147.848H838.473V150.758C840.162 150.689 841.852 150.572 843.453 150.387L843.57 151.539C839.723 152.125 835.523 152.203 832.203 152.184L831.988 150.875C833.512 150.875 835.201 150.865 836.949 150.816V147.848H833.277V143.258H840.504V141.09H833.238V139.84H842.008ZM846.129 138.219V155.621H844.605V138.219H846.129ZM864.039 140.172V141.422H854.215V140.172H858.434V138.082H859.957V140.172H864.039ZM859.176 142.32C861.5 142.32 863.141 143.59 863.141 145.523C863.141 147.477 861.5 148.746 859.176 148.746C856.832 148.746 855.23 147.477 855.25 145.523C855.23 143.59 856.832 142.32 859.176 142.32ZM859.176 143.473C857.672 143.492 856.676 144.312 856.676 145.523C856.676 146.754 857.672 147.555 859.176 147.555C860.68 147.555 861.695 146.754 861.715 145.523C861.695 144.312 860.68 143.492 859.176 143.473ZM868.59 138.219V149.449H867.047V147.047H864.02V145.777H867.047V143.668H864.039V142.398H867.047V138.219H868.59ZM862.867 149.625C866.48 149.625 868.688 150.699 868.688 152.594C868.688 154.449 866.48 155.543 862.867 155.543C859.215 155.543 857.027 154.449 857.027 152.594C857.027 150.699 859.215 149.625 862.867 149.625ZM862.867 150.816C860.23 150.816 858.609 151.461 858.609 152.594C858.609 153.688 860.23 154.352 862.867 154.352C865.465 154.352 867.066 153.688 867.066 152.594C867.066 151.461 865.465 150.816 862.867 150.816ZM877.457 140.953C877.438 143.434 879.195 145.621 881.754 146.48L880.895 147.672C878.98 146.949 877.477 145.543 876.734 143.707C875.982 145.787 874.391 147.408 872.301 148.199L871.461 146.949C874.137 146.012 875.914 143.707 875.934 141.012V139.215H877.457V140.953ZM885.875 138.219V148.512H884.332V143.219H880.465V141.949H884.332V138.219H885.875ZM880.113 149.02C883.727 149.02 885.934 150.211 885.934 152.301C885.934 154.371 883.727 155.543 880.113 155.543C876.5 155.543 874.293 154.371 874.293 152.301C874.293 150.211 876.5 149.02 880.113 149.02ZM880.113 150.23C877.457 150.23 875.797 151.012 875.816 152.301C875.797 153.551 877.457 154.312 880.113 154.312C882.77 154.312 884.41 153.551 884.41 152.301C884.41 151.012 882.77 150.23 880.113 150.23Z" fill="black"/>
<defs>
<linearGradient id="paint0_linear_469_1790" x1="-0.968748" y1="98.5" x2="1491.03" y2="98.4998" gradientUnits="userSpaceOnUse">
<stop stop-color="#3182F6"/>
<stop offset="1" stop-color="#A009FF"/>
</linearGradient>
<linearGradient id="paint1_linear_469_1790" x1="63.7632" y1="125" x2="428.412" y2="125" gradientUnits="userSpaceOnUse">
<stop stop-color="#3182F6"/>
<stop offset="1" stop-color="#A009FF"/>
</linearGradient>
</defs>
</svg>
