<svg width="765" height="197" viewBox="0 0 765 197" fill="none" xmlns="http://www.w3.org/2000/svg">
<rect x="0.5" y="0.5" width="764" height="196" rx="14.5" fill="white" stroke="url(#paint0_linear_543_1095)"/>
<path d="M304.002 33L304.002 165" stroke="#F2F2F7" stroke-width="2"/>
<path d="M39.3516 114.922V130.391H36.7266V114.922H39.3516ZM39.9375 133.555V135.664H25.3359V128.914H27.9609V133.555H39.9375ZM29.6016 118.156C29.6016 121.109 31.3359 123.898 34.6875 125.023L33.3516 127.086C30.9375 126.242 29.2148 124.555 28.2891 122.398C27.3281 124.707 25.582 126.559 23.0859 127.461L21.7266 125.398C25.1719 124.18 26.9062 121.203 26.9062 118.156V116.094H29.6016V118.156ZM61.7578 125.305V127.414H42.4453V125.305H50.7891V122.352H53.3672V125.305H61.7578ZM53.3906 116.047C53.3906 118.625 56.2266 120.969 60.6562 121.531L59.6484 123.57C56.168 123.031 53.4023 121.461 52.0547 119.234C50.6953 121.461 47.9297 123.031 44.4375 123.57L43.5 121.531C47.8594 120.969 50.7422 118.578 50.7422 116.047V115.25H53.3906V116.047ZM59.3906 129.102V136.086H56.7891V131.141H44.5781V129.102H59.3906ZM79.8984 114.922V121.578H82.8516V123.734H79.8984V130.742H77.2969V114.922H79.8984ZM75.7734 117.266V119.352H63.2109V117.266H68.2031V114.898H70.8047V117.266H75.7734ZM69.4922 120.219C72.5391 120.219 74.6484 121.836 74.6719 124.273C74.6484 126.688 72.5391 128.281 69.4922 128.281C66.4219 128.281 64.2891 126.688 64.2891 124.273C64.2891 121.836 66.4219 120.219 69.4922 120.219ZM69.4922 122.234C67.875 122.234 66.8203 122.984 66.8203 124.273C66.8203 125.539 67.875 126.289 69.4922 126.266C71.1094 126.289 72.1875 125.539 72.1875 124.273C72.1875 122.984 71.1094 122.234 69.4922 122.234ZM80.7422 133.555V135.664H66.3281V129.5H68.9297V133.555H80.7422ZM107.32 114.898V136.086H104.695V114.898H107.32ZM102.164 116.961V119.094H100.125V128.586C101.145 128.516 102.141 128.422 103.102 128.305L103.242 130.25C98.6953 130.977 93.7266 131.07 89.8359 131.07L89.5781 128.938L92.2031 128.914V119.094H90.1406V116.961H102.164ZM94.7109 128.844C95.6484 128.832 96.6094 128.797 97.5703 128.75V119.094H94.7109V128.844ZM127.57 124.836V126.922H112.711V116.75H127.406V118.859H115.289V124.836H127.57ZM129.727 131.234V133.391H110.367V131.234H129.727ZM134.391 116.258V119.375H137.883V116.258H140.297V126.359H131.93V116.258H134.391ZM134.391 124.297H137.883V121.391H134.391V124.297ZM149.227 114.922V127.648H146.742V122.328H144.633V127.531H142.195V115.32H144.633V120.195H146.742V114.922H149.227ZM149.227 128.727V136.086H146.625V130.836H134.719V128.727H149.227ZM174.633 115.625V121.648H162.469V123.758H175.102V125.844H159.844V119.68H171.961V117.734H159.797V115.625H174.633ZM176.883 127.648V129.734H168.469V136.109H165.867V129.734H157.523V127.648H176.883ZM197.648 131.352V133.531H178.289V131.352H197.648ZM195.961 116.867V118.953H192.867V125.703H195.891V127.766H179.953V125.703H182.93V118.953H179.883V116.867H195.961ZM185.531 125.703H190.289V118.953H185.531V125.703ZM222.422 114.898V136.086H219.797V114.898H222.422ZM216.094 117.148C216.094 123.453 213.656 128.82 206.227 132.336L204.867 130.25C210.41 127.613 212.988 124.027 213.445 119.211H205.945V117.148H216.094ZM242.18 114.922V121.039H245.133V123.195H242.18V130.508H239.578V114.922H242.18ZM243.023 133.555V135.664H228.609V128.938H231.211V133.555H243.023ZM228.773 116.422V119.656H233.719V116.422H236.297V127.062H226.195V116.422H228.773ZM228.773 125H233.719V121.672H228.773V125ZM271.242 125.375V127.461H263.062V131.352H260.414V127.461H251.883V125.375H271.242ZM269.109 133.531V135.664H254.25V129.383H256.875V133.531H269.109ZM261.539 115.367C266.109 115.367 269.133 117.031 269.133 119.703C269.133 122.375 266.109 124.016 261.539 124.016C256.969 124.016 253.945 122.375 253.945 119.703C253.945 117.031 256.969 115.367 261.539 115.367ZM261.539 117.43C258.633 117.43 256.734 118.25 256.758 119.703C256.734 121.109 258.633 121.93 261.539 121.93C264.469 121.93 266.344 121.109 266.344 119.703C266.344 118.25 264.469 117.43 261.539 117.43ZM278.531 116.094C280.242 116.094 281.719 116.727 282.727 117.781H287.789V114.898H290.391V127.367H287.789V124.672H282.727C281.719 125.727 280.23 126.348 278.531 126.336C275.344 126.359 272.93 124.203 272.93 121.227C272.93 118.227 275.344 116.094 278.531 116.094ZM278.531 118.32C276.703 118.32 275.414 119.445 275.414 121.227C275.414 122.961 276.703 124.133 278.531 124.133C280.289 124.133 281.578 122.961 281.602 121.227C281.578 119.445 280.289 118.32 278.531 118.32ZM283.219 127.812C287.672 127.812 290.461 129.336 290.461 131.938C290.461 134.539 287.672 136.062 283.219 136.062C278.789 136.062 276 134.539 276.023 131.938C276 129.336 278.789 127.812 283.219 127.812ZM283.219 129.805C280.266 129.805 278.555 130.555 278.578 131.938C278.555 133.273 280.266 134.023 283.219 134.023C286.219 134.023 287.906 133.273 287.906 131.938C287.906 130.555 286.219 129.805 283.219 129.805ZM283.898 119.867C284.016 120.301 284.086 120.746 284.086 121.227C284.086 121.695 284.016 122.141 283.922 122.562H287.789V119.867H283.898Z" fill="url(#paint1_linear_543_1095)"/>
<path d="M32.5645 69.6855C32.5645 72.9854 34.5928 76.3457 39.1338 77.708L37.166 80.7354C34.0781 79.7666 31.8984 77.7837 30.6572 75.2861C29.4009 77.9956 27.1606 80.1753 23.9365 81.25L21.9385 78.2227C26.5098 76.7393 28.6289 73.167 28.6289 69.6855V69.292H22.9678V66.2041H38.1045V69.292H32.5645V69.6855ZM44.8857 64.2666V84.1865H41.0107V64.2666H44.8857ZM45.6123 88.2129V91.3008H26.4189V82.3701H30.3242V88.2129H45.6123ZM70.6484 64.2363V75.4375H74.251V78.6465H70.6484V91.7852H66.7432V64.2363H70.6484ZM48.2764 84.0049C50.2896 84.0049 52.6357 84.0049 55.0879 83.9443V81.583C52.1514 81.0078 50.2441 79.146 50.2744 76.5879C50.2441 73.5 53.0293 71.4111 57.0557 71.4111C60.9912 71.4111 63.8066 73.5 63.8369 76.5879C63.8066 79.146 61.8691 81.0229 58.9629 81.583V83.793C61.1426 83.687 63.3374 83.5054 65.3809 83.2178L65.623 86.0332C59.75 87.123 53.4531 87.1533 48.791 87.1533L48.2764 84.0049ZM65.1689 67.2939V70.3213H48.8213V67.2939H55.0879V64.3877H58.9629V67.2939H65.1689ZM57.0557 74.3477C55.1787 74.3477 53.9072 75.165 53.9375 76.5879C53.9072 78.041 55.1787 78.8281 57.0557 78.8281C58.8721 78.8281 60.1133 78.041 60.1133 76.5879C60.1133 75.165 58.8721 74.3477 57.0557 74.3477ZM97.1377 64.2363V75.0137H101.194V78.1924H97.1377V91.7852H93.3232V64.2363H97.1377ZM91.4463 68.3535V71.4414H75.25V68.3535H81.4863V64.6602H85.3613V68.3535H91.4463ZM83.4238 72.9854C87.4502 72.9854 90.4473 75.71 90.4473 79.5547C90.4473 83.3994 87.4502 86.124 83.4238 86.124C79.3672 86.124 76.3701 83.3994 76.3701 79.5547C76.3701 75.71 79.3672 72.9854 83.4238 72.9854ZM83.4238 76.1035C81.4863 76.1338 80.0635 77.4355 80.0635 79.5547C80.0635 81.7041 81.4863 82.9756 83.4238 82.9453C85.3613 82.9756 86.7539 81.7041 86.7539 79.5547C86.7539 77.4355 85.3613 76.1338 83.4238 76.1035ZM124.565 71.7441V74.7715H105.312V65.2051H109.156V71.7441H124.565ZM127.381 77.7383V80.7656H102.163V77.7383H127.381ZM124.747 88.0918V91.1797H105.069V83.0059H108.944V88.0918H124.747ZM150.268 66.8701C150.237 75.3467 147.967 82.4609 138.037 87.6074L135.918 84.7012C140.277 82.4004 142.987 79.8423 144.576 76.7998L136.584 77.5264L136.069 74.2568L145.787 73.6816C146.105 72.5161 146.302 71.2749 146.423 69.958H137.553V66.8701H150.268ZM159.35 64.2363V91.7852H155.505V77.9805H150.207V74.832H155.505V64.2363H159.35ZM186.021 64.2363V91.8457H182.176V64.2363H186.021ZM177.483 66.5371V77.1631H168.401V82.2188C172.594 82.2036 176.167 81.9614 180.208 81.3105L180.541 84.4287C176 85.2158 171.913 85.3975 166.888 85.3975H164.405V74.1055H173.548V69.6553H164.375V66.5371H177.483ZM211.935 65.0537V67.4756C211.935 69.5947 211.935 71.835 211.42 74.5898H214.78V77.6172H208.604V79.5547H212.056V86.8506H196.374V88.5156H213.024V91.4824H192.529V84.0957H208.211V82.4912H192.499V79.5547H195.829V77.6172H189.774V74.5898H207.545C207.681 73.7876 207.802 73.0308 207.878 72.3193L192.469 72.9854L192.045 69.958L208.09 69.625V68.0811H192.802V65.0537H211.935ZM199.704 79.5547H204.76V77.6172H199.704V79.5547ZM239.726 81.6436V91.4824H221.107V81.6436H239.726ZM224.952 84.6104V88.3945H235.911V84.6104H224.952ZM239.726 64.2666V80.4326H235.881V73.0762H231.431V69.958H235.881V64.2666H239.726ZM230.038 65.5078V73.9541H221.41V76.5576C225.588 76.5273 228.585 76.3911 232.036 75.8311L232.309 78.9492C228.373 79.6152 224.922 79.7061 219.836 79.6758H217.596V71.0479H226.254V68.626H217.535V65.5078H230.038Z" fill="black"/>
<path d="M337.779 65.6406C336.467 65.6406 335.389 64.5625 335.389 63.2266C335.389 61.9141 336.467 60.8359 337.779 60.8359C339.115 60.8359 340.193 61.9141 340.193 63.2266C340.193 64.5625 339.115 65.6406 337.779 65.6406ZM373.006 51.0625V56.5H376.146V58.0234H373.006V63.5781H371.178V51.0625H373.006ZM367.334 52.6094C367.334 57.9062 363.584 61.8203 357.514 63.6016L356.74 62.1016C361.768 60.6484 364.979 57.7539 365.365 54.1328H357.654V52.6094H367.334ZM366.42 63.8125C370.615 63.8125 373.24 65.3359 373.24 67.8203C373.24 70.3516 370.615 71.8516 366.42 71.8516C362.271 71.8516 359.576 70.3516 359.6 67.8203C359.576 65.3359 362.271 63.8125 366.42 63.8125ZM366.42 65.2891C363.373 65.2656 361.404 66.25 361.428 67.8203C361.404 69.3906 363.373 70.375 366.42 70.375C369.49 70.375 371.459 69.3906 371.459 67.8203C371.459 66.25 369.49 65.2656 366.42 65.2891ZM384.443 56.6641C384.443 60.3438 386.881 64.1172 389.834 65.5703L388.709 67.0469C386.412 65.8398 384.49 63.3789 383.576 60.4844C382.639 63.5664 380.67 66.1914 378.326 67.4453L377.154 65.9688C380.201 64.4688 382.615 60.4609 382.639 56.6641V52.8672H384.443V56.6641ZM393.584 51.0625V59.5234H397.076V61.1172H393.584V71.8984H391.756V51.0625H393.584ZM408.842 60.6016V62.4531H397.17V60.6016H408.842ZM426.678 51.0625V71.9453H424.826V51.0625H426.678ZM420.771 53.0547V54.6016H412.709V65.1719C416.764 65.1719 419.436 65.043 422.553 64.4922L422.74 66.0391C419.506 66.625 416.764 66.7422 412.545 66.7656H410.857V53.0547H420.771ZM447.936 65.1016V71.8984H446.131V66.5781H433.896V65.1016H447.936ZM438.584 52.6562V58.4453H432.982V61.5859C435.713 61.5742 437.752 61.4453 440.225 60.9297L440.436 62.4531C437.764 62.9453 435.561 63.0859 432.537 63.0625H431.201V57.0625H436.826V54.1562H431.154V52.6562H438.584ZM447.936 51.0859V64.0469H446.178V51.0859H447.936ZM443.811 51.4844V63.9062H442.053V57.9531H439.404V56.4297H442.053V51.4844H443.811ZM468.256 51.0625V71.9453H466.428V60.4609H462.021V58.9375H466.428V51.0625H468.256ZM461.67 52.9844V54.5078H453.795V58.8438H460.756V60.3438H453.795V65.3828C457.627 65.3828 460.064 65.2539 462.936 64.75L463.146 66.2734C460.123 66.7656 457.568 66.9062 453.537 66.9062H451.943V52.9844H461.67ZM482.365 60.6016V62.4531H470.693V60.6016H482.365ZM487.381 51.9062V54.5547H497.693V51.9062H499.521V60.2266H493.428V62.4531H502.006V63.9766H483.021V62.4531H491.6V60.2266H485.553V51.9062H487.381ZM487.381 58.75H497.693V56.0078H487.381V58.75ZM499.896 69.9062V71.4531H485.482V65.6406H487.334V69.9062H499.896ZM510.748 56.6641C510.748 60.3438 513.186 64.1172 516.139 65.5703L515.014 67.0469C512.717 65.8398 510.795 63.3789 509.881 60.4844C508.943 63.5664 506.975 66.1914 504.631 67.4453L503.459 65.9688C506.506 64.4688 508.92 60.4609 508.943 56.6641V52.8672H510.748V56.6641ZM519.889 51.0625V59.5234H523.381V61.1172H519.889V71.8984H518.061V51.0625H519.889ZM546.818 51.0625V57.4141H549.959V58.9609H546.818V66.3203H544.967V51.0625H546.818ZM541.193 52.6797C541.193 58.0469 537.35 62.0312 531.35 63.9062L530.553 62.4297C535.545 60.8711 538.803 57.8945 539.201 54.2266H531.42V52.6797H541.193ZM547.779 69.9062V71.4531H533.764V64.7734H535.592V69.9062H547.779ZM576.35 62.9453V64.4688H571.311V71.8984H569.459V64.4688H564.115V71.8984H562.217V64.4688H557.271V62.9453H576.35ZM566.764 51.9062C571.146 51.9062 574.1 53.6641 574.1 56.4531C574.1 59.2188 571.146 60.9766 566.764 60.9531C562.381 60.9766 559.428 59.2188 559.428 56.4531C559.428 53.6641 562.381 51.9062 566.764 51.9062ZM566.764 53.4062C563.506 53.4062 561.303 54.6016 561.326 56.4531C561.303 58.3047 563.506 59.4766 566.764 59.4766C569.998 59.4766 572.225 58.3047 572.225 56.4531C572.225 54.6016 569.998 53.4062 566.764 53.4062ZM595.264 51.0625V71.8984H593.412V51.0625H595.264ZM589.1 53.3359C589.076 59.3359 586.287 64.6328 579.303 67.9844L578.295 66.4844C583.932 63.8125 586.803 59.8164 587.225 54.8359H579.256V53.3359H589.1ZM606.021 54.9062C606.021 57.625 608.107 60.2031 611.154 61.2578L610.193 62.7109C607.838 61.8672 606.021 60.1211 605.131 57.9766C604.229 60.3789 602.307 62.3008 599.834 63.2031L598.873 61.75C601.943 60.6484 604.17 57.8594 604.17 54.9297V54.0156H599.459V52.5156H610.686V54.0156H606.021V54.9062ZM616.053 64.6562V71.8984H614.201V66.1797H602.037V64.6562H616.053ZM616.053 51.0625V63.5547H614.201V58.0703H610.029V56.5234H614.201V51.0625H616.053ZM642.771 51.0625V71.8984H640.92V51.0625H642.771ZM637.967 53.3359V54.8594H635.6V64.8906C636.771 64.8086 637.932 64.7031 639.045 64.5625L639.162 65.9453C634.615 66.6484 629.6 66.7188 625.732 66.7422L625.521 65.1719L628.404 65.1484V54.8594H626.061V53.3359H637.967ZM630.209 65.125C631.381 65.1016 632.588 65.0547 633.795 64.9844V54.8594H630.209V65.125ZM663.115 61.0938V62.6172H648.725V53.0078H662.904V54.5312H650.553V61.0938H663.115ZM665.365 67.5156V69.0625H646.287V67.5156H665.365ZM669.725 52.3984V55.7031H674.365V52.3984H676.1V62.1016H667.99V52.3984H669.725ZM669.725 60.5781H674.365V57.1797H669.725V60.5781ZM684.725 51.0859V63.5781H682.967V58.0234H680.201V63.4609H678.467V51.4844H680.201V56.5H682.967V51.0859H684.725ZM684.725 64.8438V71.8984H682.92V66.3672H670.686V64.8438H684.725ZM337.779 103.641C336.467 103.641 335.389 102.562 335.389 101.227C335.389 99.9141 336.467 98.8359 337.779 98.8359C339.115 98.8359 340.193 99.9141 340.193 101.227C340.193 102.562 339.115 103.641 337.779 103.641ZM367.006 95.2969C366.818 93.6328 365.295 92.6719 363.256 92.6719C361.006 92.6719 359.529 93.8438 359.529 95.4609C359.529 97.2422 361.521 97.8984 362.811 98.2266L364.498 98.6953C366.326 99.1641 369.303 100.219 369.303 103.383C369.303 106.148 367.076 108.305 363.139 108.305C359.482 108.305 357.209 106.406 357.021 103.594H359.178C359.365 105.492 361.123 106.383 363.139 106.383C365.482 106.383 367.24 105.188 367.24 103.336C367.24 101.695 365.67 101.062 363.889 100.547L361.803 99.9844C359.131 99.2109 357.49 97.8516 357.49 95.5547C357.49 92.6953 360.045 90.7969 363.326 90.7969C366.607 90.7969 368.975 92.7188 369.068 95.2969H367.006ZM372.326 108V91.0312H378.092C382.076 91.0312 383.881 93.2344 383.881 96.2578C383.881 98.4961 382.873 100.266 380.717 101.016L384.537 108H382.076L378.537 101.391L378.115 101.414H374.436V108H372.326ZM374.436 99.4922H378.021C380.717 99.4922 381.795 98.2734 381.795 96.2578C381.795 94.2188 380.717 92.9062 377.998 92.9062H374.436V99.4922ZM392.717 90.2344L387.232 110.555H385.404L390.865 90.2344H392.717ZM395.693 108H393.49L399.701 91.0312H401.928L408.139 108H405.912L404.225 103.219H397.404L395.693 108ZM398.037 101.367H403.568L400.873 93.7734H400.732L398.037 101.367ZM410.436 108V91.0312H416.201C420.186 91.0312 421.99 93.2344 421.99 96.2578C421.99 98.4961 420.982 100.266 418.826 101.016L422.646 108H420.186L416.646 101.391L416.225 101.414H412.545V108H410.436ZM412.545 99.4922H416.131C418.826 99.4922 419.904 98.2734 419.904 96.2578C419.904 94.2188 418.826 92.9062 416.107 92.9062H412.545V99.4922ZM447.256 89.0625V109.898H445.404V89.0625H447.256ZM441.092 91.3359C441.068 97.3359 438.279 102.633 431.295 105.984L430.287 104.484C435.924 101.812 438.795 97.8164 439.217 92.8359H431.248V91.3359H441.092ZM467.061 89.0859V95.3906H470.201V96.9375H467.061V104.391H465.232V89.0859H467.061ZM468.021 107.906V109.453H454.029V102.891H455.834V107.906H468.021ZM453.467 90.5859V94.1016H459.537V90.5859H461.365V100.875H451.662V90.5859H453.467ZM453.467 99.375H459.537V95.5547H453.467V99.375ZM494.717 89.0625V99.8672H492.912V89.0625H494.717ZM494.74 100.922V105.914H483.045V108.164H495.49V109.664H481.24V104.484H492.912V102.398H481.193V100.922H494.74ZM484.92 91.2656C484.896 94.2188 487.146 96.8203 490.24 97.8281L489.326 99.2578C486.889 98.4258 484.943 96.6797 484.006 94.4297C483.068 96.8555 481.111 98.7656 478.639 99.6562L477.678 98.2031C480.818 97.1016 483.045 94.3359 483.045 91.2656V89.6719H484.92V91.2656ZM505.686 94.6641C505.662 98.4609 508.264 102.305 511.334 103.688L510.209 105.141C507.842 103.98 505.791 101.531 504.795 98.5547C503.822 101.707 501.771 104.332 499.334 105.562L498.162 104.016C501.256 102.586 503.834 98.625 503.857 94.6641V90.8672H505.686V94.6641ZM515.459 89.0625V109.945H513.607V89.0625H515.459ZM535.311 89.0625V95.4141H538.451V96.9609H535.311V104.32H533.459V89.0625H535.311ZM529.686 90.6797C529.686 96.0469 525.842 100.031 519.842 101.906L519.045 100.43C524.037 98.8711 527.295 95.8945 527.693 92.2266H519.912V90.6797H529.686ZM536.271 107.906V109.453H522.256V102.773H524.084V107.906H536.271ZM558.256 91.3125V92.8125H545.834V91.3125H551.131V88.9688H552.959V91.3125H558.256ZM552.045 93.8906C555.045 93.9141 557.037 95.3672 557.061 97.6641C557.037 99.9375 555.045 101.414 552.045 101.414C549.045 101.414 547.006 99.9375 547.029 97.6641C547.006 95.3672 549.045 93.9141 552.045 93.8906ZM552.045 95.3203C550.076 95.3438 548.764 96.2578 548.787 97.6641C548.764 99.0469 550.076 99.9375 552.045 99.9375C553.99 99.9375 555.303 99.0469 555.326 97.6641C555.303 96.2578 553.99 95.3438 552.045 95.3203ZM562.076 89.0625V94.8516H565.217V96.3984H562.076V102.094H560.248V89.0625H562.076ZM562.076 103.242V109.898H560.248V104.742H548.436V103.242H562.076ZM570.771 101.578V104.016H581.178V101.578H583.029V109.617H568.943V101.578H570.771ZM570.771 108.141H581.178V105.469H570.771V108.141ZM585.514 98.5781V100.102H566.529V98.5781H585.514ZM576.982 90.2812C576.982 92.8594 580.779 95.1562 584.436 95.625L583.756 97.1016C580.521 96.6211 577.357 94.9688 576.045 92.625C574.709 94.9805 571.521 96.6211 568.311 97.1016L567.607 95.625C571.311 95.1328 575.084 92.9297 575.084 90.2812V89.2969H576.982V90.2812ZM612.35 100.102V101.602H603.865V105.68H602.037V101.602H593.271V100.102H612.35ZM610.217 107.906V109.453H595.709V103.758H597.537V107.906H610.217ZM597.654 89.7422V92.4141H607.967V89.7422H609.795V98.0625H595.826V89.7422H597.654ZM597.654 96.5625H607.967V93.8203H597.654V96.5625ZM621.139 92.4141C621.139 95.2969 623.271 97.9453 626.295 98.9766L625.287 100.453C622.967 99.5977 621.162 97.8164 620.271 95.6016C619.393 98.0625 617.518 99.9844 615.068 100.945L614.061 99.4219C617.225 98.2969 619.311 95.5547 619.334 92.3438V90.1406H621.139V92.4141ZM631.311 102.539V109.898H629.459V104.016H617.295V102.539H631.311ZM631.311 89.0625V101.391H629.459V94.9922H624.818V93.4453H629.459V89.0625H631.311ZM636.982 102.094C636.162 102.094 635.459 101.414 635.482 100.57C635.459 99.75 636.162 99.0703 636.982 99.0703C637.803 99.0703 638.482 99.75 638.482 100.57C638.482 101.414 637.803 102.094 636.982 102.094ZM659.951 105.68V107.227H640.873V105.68H649.475V100.617H651.326V105.68H659.951ZM651.326 93.0234C651.326 96.3516 655.451 99.2109 659.037 99.7969L658.287 101.25C655.1 100.629 651.736 98.6016 650.412 95.6953C649.064 98.6133 645.713 100.688 642.584 101.344L641.811 99.8672C645.326 99.2578 649.428 96.3516 649.428 93.0234V92.5078H642.443V90.9609H658.311V92.5078H651.326V93.0234ZM678.889 89.0625V101.484H677.037V96.0234H672.842V94.5H677.037V89.0625H678.889ZM671.975 102.141C676.311 102.141 678.959 103.547 678.959 106.008C678.959 108.469 676.311 109.875 671.975 109.898C667.639 109.875 664.99 108.469 664.99 106.008C664.99 103.547 667.639 102.141 671.975 102.141ZM671.975 103.57C668.787 103.57 666.795 104.484 666.818 106.008C666.795 107.508 668.787 108.422 671.975 108.422C675.162 108.422 677.131 107.508 677.131 106.008C677.131 104.484 675.162 103.57 671.975 103.57ZM668.857 92.8828C668.857 95.6016 670.943 98.1797 673.99 99.2344L673.029 100.711C670.686 99.8672 668.869 98.1211 667.99 95.9531C667.076 98.4023 665.143 100.359 662.67 101.297L661.709 99.8203C664.803 98.6953 667.006 95.8828 667.006 92.9062V92.1328H662.295V90.5859H673.521V92.1328H668.857V92.8828ZM337.779 141.641C336.467 141.641 335.389 140.562 335.389 139.227C335.389 137.914 336.467 136.836 337.779 136.836C339.115 136.836 340.193 137.914 340.193 139.227C340.193 140.562 339.115 141.641 337.779 141.641ZM373.006 127.062V132.5H376.146V134.023H373.006V139.578H371.178V127.062H373.006ZM367.334 128.609C367.334 133.906 363.584 137.82 357.514 139.602L356.74 138.102C361.768 136.648 364.979 133.754 365.365 130.133H357.654V128.609H367.334ZM366.42 139.812C370.615 139.812 373.24 141.336 373.24 143.82C373.24 146.352 370.615 147.852 366.42 147.852C362.271 147.852 359.576 146.352 359.6 143.82C359.576 141.336 362.271 139.812 366.42 139.812ZM366.42 141.289C363.373 141.266 361.404 142.25 361.428 143.82C361.404 145.391 363.373 146.375 366.42 146.375C369.49 146.375 371.459 145.391 371.459 143.82C371.459 142.25 369.49 141.266 366.42 141.289ZM384.443 132.664C384.443 136.344 386.881 140.117 389.834 141.57L388.709 143.047C386.412 141.84 384.49 139.379 383.576 136.484C382.639 139.566 380.67 142.191 378.326 143.445L377.154 141.969C380.201 140.469 382.615 136.461 382.639 132.664V128.867H384.443V132.664ZM393.584 127.062V135.523H397.076V137.117H393.584V147.898H391.756V127.062H393.584ZM405.701 131.539C405.701 134.352 407.928 136.883 411.045 137.867L410.107 139.344C407.682 138.523 405.748 136.812 404.811 134.609C403.896 136.988 401.939 138.863 399.467 139.766L398.506 138.289C401.623 137.188 403.85 134.492 403.85 131.539V130.32H398.975V128.82H410.506V130.32H405.701V131.539ZM415.404 127.086V142.367H413.576V127.086H415.404ZM416.061 145.906V147.453H401.951V140.914H403.779V145.906H416.061ZM425.764 128.586C429.045 128.586 431.365 130.578 431.365 133.484C431.365 136.391 429.045 138.383 425.764 138.383C422.482 138.383 420.115 136.391 420.139 133.484C420.115 130.578 422.482 128.586 425.764 128.586ZM425.764 130.203C423.537 130.203 421.92 131.539 421.943 133.484C421.92 135.43 423.537 136.766 425.764 136.766C427.967 136.766 429.561 135.43 429.561 133.484C429.561 131.539 427.967 130.203 425.764 130.203ZM436.029 127.062V147.945H434.201V127.062H436.029ZM419.061 141.781C422.904 141.781 428.201 141.758 432.818 141.078L432.959 142.438C428.201 143.328 423.068 143.352 419.318 143.352L419.061 141.781ZM453.162 133.461C453.162 137 455.74 140.586 458.811 141.922L457.779 143.375C455.342 142.262 453.232 139.859 452.271 136.977C451.287 140.035 449.189 142.695 446.811 143.891L445.709 142.438C448.686 141.008 451.287 137.07 451.311 133.461V130.742H446.389V129.219H458.131V130.742H453.162V133.461ZM462.889 127.062V147.898H461.037V127.062H462.889ZM485.506 137.539V139.062H466.451V137.539H475.029V134.328H476.834V137.539H485.506ZM476.857 128.375C476.857 131.141 480.607 133.461 484.287 133.977L483.537 135.453C480.373 134.902 477.244 133.227 475.943 130.812C474.631 133.238 471.49 134.902 468.303 135.453L467.6 133.977C471.279 133.461 475.006 131.141 475.006 128.375V127.391H476.857V128.375ZM483.092 141.102V147.898H481.24V142.578H468.561V141.102H483.092ZM494.436 130.906C494.436 133.625 496.521 136.203 499.568 137.258L498.607 138.711C496.252 137.867 494.436 136.121 493.545 133.977C492.643 136.379 490.721 138.301 488.248 139.203L487.287 137.75C490.357 136.648 492.584 133.859 492.584 130.93V130.016H487.873V128.516H499.1V130.016H494.436V130.906ZM504.467 140.656V147.898H502.615V142.18H490.451V140.656H504.467ZM504.467 127.062V139.555H502.615V134.07H498.443V132.523H502.615V127.062H504.467ZM525.139 127.086V142.32H523.311V127.086H525.139ZM525.795 145.906V147.453H511.686V140.773H513.514V145.906H525.795ZM513.889 128.539C517.006 128.539 519.35 130.648 519.35 133.648C519.35 136.695 517.006 138.781 513.889 138.781C510.771 138.781 508.428 136.695 508.428 133.648C508.428 130.648 510.771 128.539 513.889 128.539ZM513.889 130.156C511.779 130.156 510.209 131.609 510.232 133.648C510.209 135.734 511.779 137.164 513.889 137.164C515.951 137.164 517.545 135.734 517.545 133.648C517.545 131.609 515.951 130.156 513.889 130.156ZM551.975 127.086V142.367H550.123V134.375H545.834V132.852H550.123V127.086H551.975ZM552.561 145.906V147.453H538.592V140.984H540.443V145.906H552.561ZM541.943 131.375C541.943 134.07 544.029 136.695 547.076 137.727L546.115 139.203C543.76 138.359 541.943 136.602 541.053 134.445C540.15 136.848 538.229 138.77 535.756 139.695L534.795 138.195C537.865 137.117 540.092 134.375 540.092 131.375V130.297H535.381V128.773H546.607V130.297H541.943V131.375ZM574.498 137.727V139.25H566.014V143.516H564.186V139.25H555.42V137.727H574.498ZM572.014 128.094V135.336H557.904V128.094H572.014ZM559.709 129.547V133.859H570.186V129.547H559.709ZM572.365 145.906V147.453H557.857V141.453H559.709V145.906H572.365ZM583.357 130.344C583.334 133.32 585.443 135.945 588.514 136.977L587.482 138.406C585.186 137.539 583.381 135.852 582.49 133.648C581.588 136.145 579.678 138.09 577.17 139.039L576.162 137.539C579.373 136.414 581.506 133.648 581.529 130.414V128.258H583.357V130.344ZM593.459 127.062V139.414H591.607V133.062H586.967V131.539H591.607V127.062H593.459ZM586.545 140.023C590.881 140.023 593.529 141.453 593.529 143.961C593.529 146.445 590.881 147.852 586.545 147.852C582.209 147.852 579.561 146.445 579.561 143.961C579.561 141.453 582.209 140.023 586.545 140.023ZM586.545 141.477C583.357 141.477 581.365 142.414 581.389 143.961C581.365 145.461 583.357 146.375 586.545 146.375C589.732 146.375 591.701 145.461 591.701 143.961C591.701 142.414 589.732 141.477 586.545 141.477ZM619.24 127.062V132.5H622.381V134.023H619.24V139.578H617.412V127.062H619.24ZM613.568 128.609C613.568 133.906 609.818 137.82 603.748 139.602L602.975 138.102C608.002 136.648 611.213 133.754 611.6 130.133H603.889V128.609H613.568ZM612.654 139.812C616.85 139.812 619.475 141.336 619.475 143.82C619.475 146.352 616.85 147.852 612.654 147.852C608.506 147.852 605.811 146.352 605.834 143.82C605.811 141.336 608.506 139.812 612.654 139.812ZM612.654 141.289C609.607 141.266 607.639 142.25 607.662 143.82C607.639 145.391 609.607 146.375 612.654 146.375C615.725 146.375 617.693 145.391 617.693 143.82C617.693 142.25 615.725 141.266 612.654 141.289ZM639.865 127.062V135.945H643.193V137.492H639.865V147.898H638.014V127.062H639.865ZM623.436 142.344C625.135 142.344 627.115 142.344 629.178 142.273V139.953C626.752 139.684 625.17 138.266 625.193 136.203C625.17 133.859 627.162 132.336 630.115 132.336C633.021 132.336 635.037 133.859 635.061 136.203C635.037 138.266 633.432 139.684 631.029 139.977V142.203C632.975 142.109 634.932 141.957 636.748 141.688L636.865 143.094C632.318 143.867 627.396 143.914 623.74 143.914L623.436 142.344ZM636.373 129.617V131.117H623.811V129.617H629.178V127.109H631.029V129.617H636.373ZM630.115 133.766C628.193 133.766 626.904 134.75 626.904 136.203C626.904 137.656 628.193 138.594 630.115 138.57C632.014 138.594 633.303 137.656 633.303 136.203C633.303 134.75 632.014 133.766 630.115 133.766ZM668.271 127.062V147.898H666.514V127.062H668.271ZM664.053 127.578V146.82H662.318V136.086H658.803V134.586H662.318V127.578H664.053ZM656.576 133.016C656.576 136.625 658.193 140.211 661.076 141.875L659.951 143.234C657.9 142.004 656.447 139.754 655.732 137.094C654.971 139.965 653.459 142.414 651.373 143.727L650.201 142.344C653.107 140.609 654.795 136.812 654.795 133.016V131.047H650.787V129.523H660.396V131.047H656.576V133.016ZM680.623 140.234C685.1 140.234 687.936 141.641 687.936 144.055C687.936 146.445 685.1 147.852 680.623 147.852C676.17 147.852 673.334 146.445 673.334 144.055C673.334 141.641 676.17 140.234 680.623 140.234ZM680.623 141.641C677.295 141.664 675.139 142.578 675.162 144.055C675.139 145.508 677.295 146.398 680.623 146.398C683.951 146.398 686.084 145.508 686.107 144.055C686.084 142.578 683.951 141.664 680.623 141.641ZM687.771 128.141V129.898C687.771 131.586 687.771 133.273 687.186 135.43L685.381 135.219C685.943 133.062 685.943 131.539 685.943 129.898V129.641H673.475V128.141H687.771ZM690.186 136.789V138.289H671.225V136.789H679.076V132.758H680.881V136.789H690.186Z" fill="black"/>
<defs>
<linearGradient id="paint0_linear_543_1095" x1="-0.691317" y1="98.5" x2="1064.03" y2="98.4999" gradientUnits="userSpaceOnUse">
<stop stop-color="#3182F6"/>
<stop offset="1" stop-color="#A009FF"/>
</linearGradient>
<linearGradient id="paint1_linear_543_1095" x1="20.747" y1="125" x2="410.448" y2="125" gradientUnits="userSpaceOnUse">
<stop stop-color="#3182F6"/>
<stop offset="1" stop-color="#A009FF"/>
</linearGradient>
</defs>
</svg>
