<svg width="1072" height="197" viewBox="0 0 1072 197" fill="none" xmlns="http://www.w3.org/2000/svg">
<rect x="0.5" y="0.5" width="1071" height="196" rx="14.5" fill="white" stroke="url(#paint0_linear_543_1093)"/>
<path d="M426 33L426 165" stroke="#F2F2F7" stroke-width="2"/>
<path d="M69.8535 123.619V126.313H44.9082V123.619H69.8535ZM66.7354 128.16V134.881H51.1748V136.879H67.4922V139.452H47.875V132.489H63.4355V130.643H47.8447V128.16H66.7354ZM67.6133 113.266V115.93H59.4697C60.1509 117.958 63.5264 119.729 68.6729 120.077L67.6133 122.681C62.709 122.287 59.0005 120.637 57.3506 118.2C55.7007 120.622 52.0376 122.287 47.1787 122.681L46.1191 120.077C51.2202 119.729 54.5503 117.958 55.2617 115.93H47.1787V113.266H67.6133ZM94.6172 112.327V139.694H91.2568V125.769H85.4746V123.014H91.2568V112.327H94.6172ZM85.5957 115.233C85.5654 123.316 82.6895 130.098 73.2744 134.76L71.5186 132.126C78.6025 128.66 81.645 124.028 82.2051 117.897H72.79V115.233H85.5957ZM123.468 125.859V128.554H112.902V133.579H109.481V128.554H98.4619V125.859H123.468ZM120.713 136.395V139.149H101.52V131.036H104.91V136.395H120.713ZM110.935 112.933C116.838 112.933 120.743 115.082 120.743 118.533C120.743 121.984 116.838 124.104 110.935 124.104C105.031 124.104 101.126 121.984 101.126 118.533C101.126 115.082 105.031 112.933 110.935 112.933ZM110.935 115.597C107.181 115.597 104.729 116.656 104.759 118.533C104.729 120.35 107.181 121.409 110.935 121.409C114.719 121.409 117.141 120.35 117.141 118.533C117.141 116.656 114.719 115.597 110.935 115.597ZM157.586 123.771V126.495H132.641V123.771H143.388V121.712H135.789V113.175H154.377V121.712H146.718V123.771H157.586ZM139.089 115.809V119.078H151.017V115.809H139.089ZM154.468 128.16V134.881H138.907V136.879H155.225V139.452H135.607V132.459H151.168V130.703H135.577V128.16H154.468ZM182.229 112.327V127.01H178.838V112.327H182.229ZM167.455 128.281V131.097H178.868V128.281H182.229V139.361H164.125V128.281H167.455ZM167.455 136.637H178.868V133.73H167.455V136.637ZM167.304 113.538C171.512 113.508 174.66 116.142 174.66 119.956C174.66 123.68 171.512 126.313 167.304 126.313C163.065 126.313 159.917 123.68 159.917 119.956C159.917 116.142 163.065 113.508 167.304 113.538ZM167.304 116.354C164.912 116.354 163.187 117.746 163.217 119.956C163.187 122.136 164.912 123.528 167.304 123.559C169.665 123.528 171.36 122.136 171.36 119.956C171.36 117.746 169.665 116.354 167.304 116.354ZM201.573 115.052V117.716H186.285V115.052H192.4V112.085H195.761V115.052H201.573ZM194.035 118.806C197.759 118.806 200.423 120.864 200.453 123.922C200.423 126.949 197.759 128.978 194.035 128.978C190.312 128.978 187.678 126.949 187.708 123.922C187.678 120.864 190.312 118.806 194.035 118.806ZM194.035 121.318C192.098 121.318 190.826 122.287 190.856 123.922C190.826 125.526 192.098 126.465 194.035 126.465C195.973 126.465 197.305 125.526 197.305 123.922C197.305 122.287 195.973 121.318 194.035 121.318ZM209.142 112.327V129.855H205.781V126.646H201.725V123.952H205.781V121.258H201.755V118.533H205.781V112.327H209.142ZM199.938 130.158C205.721 130.158 209.293 131.914 209.293 134.911C209.293 137.878 205.721 139.664 199.938 139.664C194.156 139.664 190.584 137.878 190.584 134.911C190.584 131.914 194.156 130.158 199.938 130.158ZM199.938 132.731C196.245 132.731 194.126 133.458 194.126 134.911C194.126 136.334 196.245 137.091 199.938 137.091C203.602 137.091 205.69 136.334 205.69 134.911C205.69 133.458 203.602 132.731 199.938 132.731ZM245.318 125.708V128.402H220.373V125.708H231.15V122.983H223.431V113.447H242.321V116.111H226.791V120.259H242.563V122.983H234.511V125.708H245.318ZM242.321 130.552V139.785H238.991V133.246H223.128V130.552H242.321ZM257.276 118.896C257.276 123.982 259.698 128.978 264.058 130.885L262.029 133.579C258.926 132.065 256.747 129.159 255.581 125.587C254.385 129.356 252.16 132.489 249.012 134.094L246.893 131.369C251.343 129.28 253.825 124.013 253.855 118.896V114.537H257.276V118.896ZM270.112 112.327V139.725H266.782V123.892H261.03V121.167H266.782V112.327H270.112ZM302.989 112.327V121.5H306.683V124.285H302.989V133.7H299.629V112.327H302.989ZM303.958 136.425V139.149H285.007V132.277H288.367V136.425H303.958ZM281.071 128.221C283.115 128.221 285.491 128.206 287.974 128.1V126.374C284.931 126.011 283.009 124.512 283.009 122.317C283.009 119.623 285.643 118.049 289.608 118.079C293.604 118.049 296.208 119.623 296.208 122.317C296.208 124.497 294.331 125.98 291.334 126.374V127.948C293.665 127.827 296.011 127.615 298.206 127.282L298.479 129.644C292.696 130.733 286.157 130.794 281.435 130.854L281.071 128.221ZM297.479 114.719V117.171H281.768V114.719H287.974V112.236H291.334V114.719H297.479ZM289.608 120.35C287.489 120.35 286.218 121.046 286.248 122.317C286.218 123.498 287.489 124.194 289.608 124.194C291.728 124.194 292.999 123.498 292.999 122.317C292.999 121.046 291.728 120.35 289.608 120.35ZM331.022 112.357V128.342H327.662V125.314H321.153V122.59H327.662V119.653H321.426C319.685 124.013 315.704 127.055 309.74 128.705L308.378 126.041C314.781 124.3 318.187 121.061 318.731 116.989H309.831V114.265H322.395C322.395 115.218 322.319 116.126 322.152 116.989H327.662V112.357H331.022ZM321.971 128.645C327.511 128.645 331.204 130.733 331.204 134.094C331.204 137.454 327.511 139.543 321.971 139.543C316.37 139.543 312.677 137.454 312.677 134.094C312.677 130.733 316.37 128.645 321.971 128.645ZM321.971 131.278C318.277 131.278 316.037 132.277 316.037 134.094C316.037 135.88 318.277 136.879 321.971 136.879C325.573 136.879 327.844 135.88 327.844 134.094C327.844 132.277 325.573 131.278 321.971 131.278Z" fill="url(#paint1_linear_543_1093)"/>
<path d="M73.1289 76.7461V80.2969H43.9492V76.7461H56.2891V73.8984H47.5V62.5078H69.6836V66.0586H51.9648V70.2773H70V73.8984H60.7891V76.7461H73.1289ZM69.6484 82.5117V93.3398H65.2539V86.0625H47.1836V82.5117H69.6484ZM87.1562 68.4844C87.1562 74.4961 89.582 80.332 94.9258 82.6523L92.1836 86.2383C88.6328 84.498 86.2598 81.3164 84.9414 77.3789C83.5352 81.5625 81.0742 84.9902 77.418 86.8008L74.6055 83.1445C80.0898 80.6836 82.5859 74.4961 82.6211 68.4844V63.7031H87.1562V68.4844ZM102.062 61.2422V93.3047H97.6328V74.918H91.3398V71.2969H97.6328V61.2422H102.062ZM131.418 61.2422V73.5117H135.953V77.2031H131.418V93.1641H126.918V61.2422H131.418ZM122.875 64.5117C122.84 74.0742 119.113 82.3711 108.355 87.6445L105.824 84.1992C113.4 80.4023 117.461 75.3047 118.305 68.168H107.652V64.5117H122.875ZM171.461 67.5703V71.1211H162.461V73.7227H174.836V77.2734H145.551V73.7227H157.961V71.1211H149.207V61.6289H153.672V67.5703H171.461ZM171.32 79.0312V87.3984H153.461V89.4375H172.305V92.8828H148.961V84.2695H166.855V82.4766H148.891V79.0312H171.32ZM203.488 61.2422V93.3047H198.953V61.2422H203.488ZM186.121 63.4922C190.938 63.4922 194.523 67.9219 194.523 74.8828C194.523 81.9141 190.938 86.3086 186.121 86.3086C181.199 86.3086 177.613 81.9141 177.648 74.8828C177.613 67.9219 181.199 63.4922 186.121 63.4922ZM186.121 67.5352C183.625 67.5352 181.973 70.1367 181.973 74.8828C181.973 79.6641 183.625 82.2305 186.121 82.2305C188.547 82.2305 190.199 79.6641 190.199 74.8828C190.199 70.1367 188.547 67.5352 186.121 67.5352ZM233.055 61.2422V73.5117H237.59V77.2031H233.055V93.1641H228.555V61.2422H233.055ZM224.512 64.5117C224.477 74.0742 220.75 82.3711 209.992 87.6445L207.461 84.1992C215.037 80.4023 219.098 75.3047 219.941 68.168H209.289V64.5117H224.512ZM274.152 61.2773V79.7695H269.582V61.2773H274.152ZM247.258 75.9023C249.754 75.9023 252.637 75.8848 255.625 75.7969V73.3008H250V62.6836H265.504V66.2695H254.5V69.7852H265.68V73.3008H260.09V75.6211C262.656 75.5156 265.205 75.3223 267.613 75.0234L267.859 78.082C261.039 79.2773 253.516 79.3477 247.855 79.418L247.258 75.9023ZM256.785 81.0703V83.5312H269.723V81.0703H274.152V92.8828H252.32V81.0703H256.785ZM256.785 89.2969H269.723V86.8711H256.785V89.2969ZM305.23 61.2422V93.2344H300.766V61.2422H305.23ZM284.488 64.3008V81.4922C288.812 81.4395 293.453 81.0352 298.164 80.1211L298.727 83.8125C293.102 84.9727 287.828 85.3594 282.871 85.3242H280.059V64.3008H284.488ZM334.691 61.2422V73.125H339.402V76.7812H334.691V93.3047H330.191V61.2422H334.691ZM325.727 64.1953V67.8164H315.18V81.8438C319.82 81.791 323.652 81.5801 327.906 80.8242L328.398 84.5859C323.441 85.4297 319.082 85.5703 313.422 85.5352H310.715V64.1953H325.727Z" fill="black"/>
<path d="M514.891 58.9141C513.359 58.9141 512.102 57.6562 512.102 56.0977C512.102 54.5664 513.359 53.3086 514.891 53.3086C516.449 53.3086 517.707 54.5664 517.707 56.0977C517.707 57.6562 516.449 58.9141 514.891 58.9141ZM539.062 64H536.492L543.738 44.2031H546.336L553.582 64H550.984L549.016 58.4219H541.059L539.062 64ZM541.797 56.2617H548.25L545.105 47.4023H544.941L541.797 56.2617ZM556.262 64V44.2031H562.988C567.637 44.2031 569.742 46.7734 569.742 50.3008C569.742 52.9121 568.566 54.9766 566.051 55.8516L570.508 64H567.637L563.508 56.2891L563.016 56.3164H558.723V64H556.262ZM558.723 54.0742H562.906C566.051 54.0742 567.309 52.6523 567.309 50.3008C567.309 47.9219 566.051 46.3906 562.879 46.3906H558.723V54.0742ZM593.039 43.7109V44.7773C593.012 46.5137 593.012 49.5215 592.246 53.8281C593.312 53.7598 594.393 53.6641 595.445 53.5547L595.609 55.1953C593.121 55.5098 590.537 55.7148 588.008 55.8242V64.7656H585.848V55.9062C583.537 56.002 581.295 56.0156 579.258 56.0156L578.957 54.2383C582.32 54.1973 586.203 54.1699 590.059 53.9648C590.359 52.4883 590.551 51.1621 590.688 49.9727L580.98 50.8203L580.625 48.9883L590.824 48.4141C590.906 47.252 590.934 46.2812 590.934 45.4883H581.145V43.7109H593.039ZM599.355 41.9062V66.2148H597.223V41.9062H599.355ZM625.578 61.1836V62.9883H603.32V61.1836H625.578ZM615.516 47.2656C615.516 51.1484 620.328 54.457 624.512 55.1406L623.637 56.8359C619.918 56.1113 615.994 53.7324 614.449 50.3828C612.877 53.7598 608.967 56.207 605.316 56.9453L604.414 55.2227C608.516 54.5117 613.301 51.1484 613.301 47.2656V46.1445H605.152V44.3672H623.664V46.1445H615.516V47.2656ZM634.848 43.4922C638.594 43.5195 641.301 45.8164 641.328 49.207C641.301 52.2559 639.113 54.4297 635.941 54.8125V58.9688C638.211 58.8594 640.494 58.6953 642.613 58.4219L642.75 60.0352C637.609 60.9102 631.84 60.9648 627.574 60.9375L627.219 59.1328C629.174 59.1191 631.443 59.1055 633.781 59.0234V54.8125C630.555 54.4434 628.34 52.2695 628.367 49.207C628.34 45.8164 631.047 43.5195 634.848 43.4922ZM634.848 45.3516C632.305 45.3516 630.445 46.9375 630.473 49.207C630.445 51.4766 632.305 53.0625 634.848 53.0625C637.363 53.0625 639.195 51.4766 639.223 49.207C639.195 46.9375 637.363 45.3516 634.848 45.3516ZM646.305 41.9062V51.9414H650.27V53.8008H646.305V66.2148H644.172V41.9062H646.305ZM681.004 61.375V63.207H658.746V61.375H668.727V55.7695H660.77V54.0469H664.57V46.0625H660.715V44.2852H678.871V46.0625H675.016V54.0469H678.816V55.7695H670.832V61.375H681.004ZM666.703 54.0469H672.91V46.0625H666.703V54.0469ZM703.016 41.9336V59.707H700.883V41.9336H703.016ZM703.781 63.8906V65.6953H687.32V57.9023H689.453V63.8906H703.781ZM689.891 43.6289C693.527 43.6289 696.262 46.0898 696.262 49.5898C696.262 53.1445 693.527 55.5781 689.891 55.5781C686.254 55.5781 683.52 53.1445 683.52 49.5898C683.52 46.0898 686.254 43.6289 689.891 43.6289ZM689.891 45.5156C687.43 45.5156 685.598 47.2109 685.625 49.5898C685.598 52.0234 687.43 53.6914 689.891 53.6914C692.297 53.6914 694.156 52.0234 694.156 49.5898C694.156 47.2109 692.297 45.5156 689.891 45.5156ZM726.832 55.0586V56.8086H710.016V44.0117H726.559V45.8164H712.203V49.4258H726.039V51.1484H712.203V55.0586H726.832ZM729.402 61.2656V63.043H707.145V61.2656H729.402ZM753.602 61.4023V63.207H731.344V61.4023H741.352V56.8086H734.133V49.3164H748.68V45.4883H734.078V43.7109H750.785V51.0664H736.266V55.0312H751.359V56.8086H743.457V61.4023H753.602ZM770.801 49.3711C770.773 53.2812 773.59 57.5742 777.117 59.2422L775.887 60.9375C773.152 59.6113 770.842 56.7129 769.762 53.418C768.641 57 766.193 60.1445 763.473 61.5391L762.16 59.8438C765.66 58.1484 768.668 53.5273 768.695 49.3711V46.1992H763.035V44.4219H776.27V46.1992H770.801V49.3711ZM781.383 41.9062V51.75H785.457V53.582H781.383V66.2148H779.25V41.9062H781.383ZM789.914 42.9453V46.4453H796.996V42.9453H799.129V53.5273H787.809V42.9453H789.914ZM789.914 51.7773H796.996V48.1133H789.914V51.7773ZM805.773 41.9062V47.1836H809.438V48.9883H805.773V54.4844H803.641V41.9062H805.773ZM805.773 55.6328V61.5117H792.43V64.1914H806.676V65.9414H790.324V59.8711H803.641V57.3555H790.27V55.6328H805.773ZM819.418 46.3906C819.418 49.5625 821.852 52.5703 825.406 53.8008L824.285 55.4961C821.537 54.5117 819.418 52.4746 818.379 49.9727C817.326 52.7754 815.084 55.0176 812.199 56.0703L811.078 54.375C814.66 53.0898 817.258 49.8359 817.258 46.418V45.3516H811.762V43.6016H824.859V45.3516H819.418V46.3906ZM831.121 57.7656V66.2148H828.961V59.543H814.77V57.7656H831.121ZM831.121 41.9062V56.4805H828.961V50.082H824.094V48.2773H828.961V41.9062H831.121ZM855.238 41.9336V59.707H853.105V41.9336H855.238ZM856.004 63.8906V65.6953H839.543V57.9023H841.676V63.8906H856.004ZM842.113 43.6289C845.75 43.6289 848.484 46.0898 848.484 49.5898C848.484 53.1445 845.75 55.5781 842.113 55.5781C838.477 55.5781 835.742 53.1445 835.742 49.5898C835.742 46.0898 838.477 43.6289 842.113 43.6289ZM842.113 45.5156C839.652 45.5156 837.82 47.2109 837.848 49.5898C837.82 52.0234 839.652 53.6914 842.113 53.6914C844.52 53.6914 846.379 52.0234 846.379 49.5898C846.379 47.2109 844.52 45.5156 842.113 45.5156ZM888.543 54.0469V55.7969H866.395V54.0469H876.402V51.0938H869.211V42.8906H885.809V44.668H871.344V49.3164H886.027V51.0938H878.535V54.0469H888.543ZM885.836 58.1758V66.4062H883.703V59.9258H868.855V58.1758H885.836ZM899.152 48.4414C899.152 52.8438 901.969 57.2734 905.496 58.8867L904.211 60.6367C901.449 59.2148 899.166 56.3027 898.086 52.8438C897.006 56.4805 894.723 59.5977 891.961 61.0742L890.566 59.3516C894.121 57.6016 896.965 52.9258 896.965 48.4414V44.0117H899.152V48.4414ZM910.746 41.9062V66.2695H908.613V51.9688H902.844V50.2188H908.613V41.9062H910.746ZM514.891 103.914C513.359 103.914 512.102 102.656 512.102 101.098C512.102 99.5664 513.359 98.3086 514.891 98.3086C516.449 98.3086 517.707 99.5664 517.707 101.098C517.707 102.656 516.449 103.914 514.891 103.914ZM557.027 86.9062V111.27H554.867V86.9062H557.027ZM550.137 89.2305V91.0352H540.73V103.367C545.461 103.367 548.578 103.217 552.215 102.574L552.434 104.379C548.66 105.062 545.461 105.199 540.539 105.227H538.57V89.2305H550.137ZM569.879 94.3711C569.879 98.5 572.887 102.684 576.469 104.242L575.266 105.938C572.422 104.639 569.961 101.836 568.84 98.4727C567.691 102.041 565.244 105.145 562.469 106.539L561.184 104.844C564.656 103.176 567.691 98.582 567.719 94.3711V91.1992H561.977V89.4219H575.676V91.1992H569.879V94.3711ZM581.227 86.9062V111.215H579.066V86.9062H581.227ZM597.66 88.4102V90.1875H588.773V92.7852H597.004V94.4531H588.773V97.3516C593.258 97.3516 595.828 97.2559 598.973 96.7227L599.164 98.4727C595.855 99.0195 593.176 99.0742 588.418 99.0742H586.641V88.4102H597.66ZM605.508 86.9062V100.059H603.375V94.2617H598.699V92.5117H603.375V86.9062H605.508ZM605.508 101.152V106.785H591.945V109.219H606.438V110.941H589.812V105.145H603.375V102.875H589.758V101.152H605.508ZM636.242 98.3086V100.059H628.723V106.348H638.867V108.152H616.609V106.348H626.617V100.059H619.453V88.9023H635.996V90.6523H621.613V98.3086H636.242ZM649.367 93.4414C649.367 97.8438 652.184 102.273 655.711 103.887L654.426 105.637C651.664 104.215 649.381 101.303 648.301 97.8438C647.221 101.48 644.938 104.598 642.176 106.074L640.781 104.352C644.336 102.602 647.18 97.9258 647.18 93.4414V89.0117H649.367V93.4414ZM660.961 86.9062V111.27H658.828V96.9688H653.059V95.2188H658.828V86.9062H660.961ZM678.488 88.793V90.0781C678.461 91.6641 678.461 94.0977 677.859 97.2695L675.699 97.1055C676.287 94.1934 676.342 92.1289 676.383 90.5977H666.375V88.793H678.488ZM672.227 94.1797V99.4023C674.92 99.293 677.709 99.1016 680.238 98.7461L680.375 100.332C675.289 101.207 669.41 101.316 665.09 101.316L664.871 99.5391C666.443 99.5254 668.221 99.5117 670.094 99.457V94.1797H672.227ZM684.066 86.9062V94.8359H687.621V96.668H684.066V105.199H681.879V86.9062H684.066ZM684.859 108.891V110.695H668.617V103.559H670.777V108.891H684.859ZM700.281 87.3438C705.695 87.3438 708.867 88.8203 708.867 91.5273C708.867 94.2891 705.695 95.7656 700.281 95.793C694.867 95.7656 691.668 94.2891 691.668 91.5273C691.668 88.8203 694.867 87.3438 700.281 87.3438ZM700.281 88.957C696.234 88.957 693.883 89.9414 693.91 91.5273C693.883 93.2227 696.234 94.1523 700.281 94.1523C704.301 94.1523 706.68 93.2227 706.68 91.5273C706.68 89.9414 704.301 88.957 700.281 88.957ZM711.355 97.4336V99.1836H689.207V97.4336H711.355ZM708.512 101.289V106.73H694.074V109.246H709.25V110.941H691.941V105.145H706.406V102.93H691.887V101.289H708.512ZM742.582 99.8125V101.562H720.406V99.8125H730.414V97.4062H723.359V87.6172H739.82V89.3672H725.52V91.6367H739.164V93.2773H725.52V95.6836H739.957V97.4062H732.547V99.8125H742.582ZM731.508 103.395C736.84 103.367 739.848 104.734 739.875 107.277C739.848 109.82 736.84 111.16 731.508 111.16C726.121 111.16 723.113 109.82 723.113 107.277C723.113 104.734 726.121 103.367 731.508 103.395ZM731.508 105.008C727.488 105.008 725.246 105.828 725.273 107.277C725.246 108.754 727.488 109.52 731.508 109.492C735.473 109.52 737.715 108.754 737.715 107.277C737.715 105.828 735.473 105.008 731.508 105.008ZM756.773 91.1172V92.8672H744.578V91.1172H749.637V87.6445H751.77V91.1172H756.773ZM750.676 94.5078C753.738 94.5078 755.926 96.8047 755.953 100.031C755.926 103.285 753.738 105.609 750.676 105.609C747.641 105.609 745.453 103.285 745.453 100.031C745.453 96.8047 747.641 94.5078 750.676 94.5078ZM750.676 96.3125C748.762 96.3398 747.367 97.8984 747.367 100.031C747.367 102.191 748.762 103.75 750.676 103.723C752.617 103.75 754.039 102.191 754.039 100.031C754.039 97.8984 752.617 96.3398 750.676 96.3125ZM765.332 86.9062V111.215H763.281V98.9375H760.055V110.012H758.031V87.5078H760.055V97.1602H763.281V86.9062H765.332ZM794.672 86.9062V96.5312H798.746V98.3359H794.672V111.27H792.539V86.9062H794.672ZM788.273 89.2852V91.0625H779.059V103.367C783.461 103.367 786.578 103.162 790.188 102.492L790.461 104.352C786.66 105.035 783.461 105.172 778.84 105.172H776.926V89.2852H788.273ZM822.672 90.5977V92.375H819.062V95.7656H822.672V97.5703H819.062V101.344H816.93V86.9062H819.062V90.5977H822.672ZM806.895 88.3828C810.586 88.3555 813.266 90.707 813.293 94.0977C813.266 97.4883 810.586 99.7852 806.895 99.8125C803.203 99.7852 800.496 97.4883 800.523 94.0977C800.496 90.707 803.203 88.3555 806.895 88.3828ZM806.895 90.2148C804.434 90.1875 802.602 91.8008 802.629 94.0977C802.602 96.3945 804.434 97.9805 806.895 98.0078C809.383 97.9805 811.188 96.3945 811.188 94.0977C811.188 91.8008 809.383 90.1875 806.895 90.2148ZM811.27 102.082C816.219 102.109 819.281 103.75 819.281 106.648C819.281 109.492 816.219 111.16 811.27 111.16C806.293 111.16 803.203 109.492 803.203 106.648C803.203 103.75 806.293 102.109 811.27 102.082ZM811.27 103.832C807.605 103.832 805.336 104.871 805.363 106.648C805.336 108.398 807.605 109.438 811.27 109.438C814.961 109.438 817.203 108.398 817.203 106.648C817.203 104.871 814.961 103.832 811.27 103.832ZM843.262 86.9336V94.9453H846.926V96.75H843.262V105.145H841.129V86.9336H843.262ZM838.805 89.9141V91.6641H824.312V89.9141H830.492V86.9336H832.625V89.9141H838.805ZM831.559 93.0039C835.031 93.0039 837.383 94.7812 837.41 97.543C837.383 100.277 835.031 102.027 831.559 102.027C828.059 102.027 825.68 100.277 825.707 97.543C825.68 94.7812 828.059 93.0039 831.559 93.0039ZM831.559 94.6992C829.262 94.6992 827.73 95.8203 827.758 97.543C827.73 99.2656 829.262 100.359 831.559 100.332C833.828 100.359 835.359 99.2656 835.387 97.543C835.359 95.8203 833.828 94.6992 831.559 94.6992ZM844.383 108.891V110.695H828.059V103.695H830.164V108.891H844.383ZM863.797 91.5C863.797 94.8906 866.258 98.0898 869.812 99.375L868.609 101.043C865.943 99.9766 863.824 97.8574 862.785 95.2188C861.746 98.1582 859.531 100.496 856.66 101.645L855.512 99.8945C859.148 98.5547 861.664 95.1641 861.691 91.418V88.4102H863.797V91.5ZM875.637 86.9336V105.145H873.477V94.4531H868.062V92.6484H873.477V86.9336H875.637ZM876.184 108.891V110.695H859.914V103.066H862.074V108.891H876.184ZM890.211 88.6836V90.4883H882.828V93.5234H889.938V95.2188H882.828V98.582C886.369 98.5684 888.584 98.4453 891.195 97.9258L891.414 99.7031C888.57 100.25 886.273 100.387 882.309 100.387H880.777V88.6836H890.211ZM900.328 86.9336V101.672H898.277V95.0273H894.859V101.508H892.863V87.3984H894.859V93.2773H898.277V86.9336H900.328ZM900.328 102.93V111.215H898.223V104.68H883.949V102.93H900.328ZM912.578 94.3711C912.578 98.5 915.586 102.684 919.168 104.242L917.965 105.938C915.121 104.639 912.66 101.836 911.539 98.4727C910.391 102.041 907.943 105.145 905.168 106.539L903.883 104.844C907.355 103.176 910.391 98.582 910.418 94.3711V91.1992H904.676V89.4219H918.375V91.1992H912.578V94.3711ZM923.926 86.9062V111.215H921.766V86.9062H923.926ZM955.891 86.9062V111.215H953.84V86.9062H955.891ZM950.969 87.5078V109.957H948.945V97.4336H944.844V95.6836H948.945V87.5078H950.969ZM942.246 93.8516C942.246 98.0625 944.133 102.246 947.496 104.188L946.184 105.773C943.791 104.338 942.096 101.713 941.262 98.6094C940.373 101.959 938.609 104.816 936.176 106.348L934.809 104.734C938.199 102.711 940.168 98.2812 940.168 93.8516V91.5547H935.492V89.7773H946.703V91.5547H942.246V93.8516ZM970.301 102.273C975.523 102.273 978.832 103.914 978.832 106.73C978.832 109.52 975.523 111.16 970.301 111.16C965.105 111.16 961.797 109.52 961.797 106.73C961.797 103.914 965.105 102.273 970.301 102.273ZM970.301 103.914C966.418 103.941 963.902 105.008 963.93 106.73C963.902 108.426 966.418 109.465 970.301 109.465C974.184 109.465 976.672 108.426 976.699 106.73C976.672 105.008 974.184 103.941 970.301 103.914ZM978.641 88.1641V90.2148C978.641 92.1836 978.641 94.1523 977.957 96.668L975.852 96.4219C976.508 93.9062 976.508 92.1289 976.508 90.2148V89.9141H961.961V88.1641H978.641ZM981.457 98.2539V100.004H959.336V98.2539H968.496V93.5508H970.602V98.2539H981.457ZM514.891 148.914C513.359 148.914 512.102 147.656 512.102 146.098C512.102 144.566 513.359 143.309 514.891 143.309C516.449 143.309 517.707 144.566 517.707 146.098C517.707 147.656 516.449 148.914 514.891 148.914ZM545.215 139.371C545.188 143.281 548.004 147.574 551.531 149.242L550.301 150.938C547.566 149.611 545.256 146.713 544.176 143.418C543.055 147 540.607 150.145 537.887 151.539L536.574 149.844C540.074 148.148 543.082 143.527 543.109 139.371V136.199H537.449V134.422H550.684V136.199H545.215V139.371ZM555.797 131.906V141.75H559.871V143.582H555.797V156.215H553.664V131.906H555.797ZM581.281 131.906V156.215H579.121V131.906H581.281ZM574.09 134.559C574.062 141.559 570.809 147.738 562.66 151.648L561.484 149.898C568.061 146.781 571.41 142.119 571.902 136.309H562.605V134.559H574.09ZM597.66 135.352C597.633 138.605 601.98 141.367 606.219 141.996L605.426 143.691C601.625 143.049 597.934 141.025 596.457 138.086C594.98 141.025 591.275 143.049 587.543 143.691L586.695 141.996C590.906 141.367 595.254 138.605 595.254 135.352V135.188H587.461V133.438H605.426V135.188H597.66V135.352ZM607.531 145.77V147.547H597.469V156.215H595.363V147.547H585.383V145.77H607.531ZM629.215 143.309V145.059H621.695V151.348H631.84V153.152H609.582V151.348H619.59V145.059H612.426V133.902H628.969V135.652H614.586V143.309H629.215ZM662.957 144.047V145.797H640.809V144.047H650.816V141.094H643.625V132.891H660.223V134.668H645.758V139.316H660.441V141.094H652.949V144.047H662.957ZM660.25 148.176V156.406H658.117V149.926H643.27V148.176H660.25ZM673.566 138.441C673.566 142.844 676.383 147.273 679.91 148.887L678.625 150.637C675.863 149.215 673.58 146.303 672.5 142.844C671.42 146.48 669.137 149.598 666.375 151.074L664.98 149.352C668.535 147.602 671.379 142.926 671.379 138.441V134.012H673.566V138.441ZM685.16 131.906V156.27H683.027V141.969H677.258V140.219H683.027V131.906H685.16ZM701.184 146.508V149.352H713.324V146.508H715.484V155.887H699.051V146.508H701.184ZM701.184 154.164H713.324V151.047H701.184V154.164ZM718.383 143.008V144.785H696.234V143.008H718.383ZM708.43 133.328C708.43 136.336 712.859 139.016 717.125 139.562L716.332 141.285C712.559 140.725 708.867 138.797 707.336 136.062C705.777 138.811 702.059 140.725 698.312 141.285L697.492 139.562C701.812 138.988 706.215 136.418 706.215 133.328V132.18H708.43V133.328ZM733.914 133.793V135.078C733.887 136.664 733.887 139.098 733.285 142.27L731.125 142.105C731.713 139.193 731.768 137.129 731.809 135.598H721.801V133.793H733.914ZM727.652 139.18V144.402C730.346 144.293 733.135 144.102 735.664 143.746L735.801 145.332C730.715 146.207 724.836 146.316 720.516 146.316L720.297 144.539C721.869 144.525 723.646 144.512 725.52 144.457V139.18H727.652ZM739.492 131.906V139.836H743.047V141.668H739.492V150.199H737.305V131.906H739.492ZM740.285 153.891V155.695H724.043V148.559H726.203V153.891H740.285ZM759.891 139.371C759.863 143.281 762.68 147.574 766.207 149.242L764.977 150.938C762.242 149.611 759.932 146.713 758.852 143.418C757.73 147 755.283 150.145 752.562 151.539L751.25 149.844C754.75 148.148 757.758 143.527 757.785 139.371V136.199H752.125V134.422H765.359V136.199H759.891V139.371ZM770.473 131.906V141.75H774.547V143.582H770.473V156.215H768.34V131.906H770.473ZM796.012 131.934V149.898H793.852V143.336H787.562C786.441 144.771 784.637 145.633 782.559 145.633C778.922 145.633 776.242 143.117 776.242 139.562C776.242 136.008 778.922 133.492 782.559 133.465C784.623 133.479 786.387 134.326 787.535 135.734H793.852V131.934H796.012ZM796.695 153.891V155.695H780.398V148.012H782.559V153.891H796.695ZM782.559 135.379C780.07 135.406 778.293 137.129 778.293 139.562C778.293 141.996 780.07 143.719 782.559 143.719C784.938 143.719 786.77 141.996 786.77 139.562C786.77 137.129 784.938 135.406 782.559 135.379ZM788.52 137.512C788.725 138.141 788.848 138.824 788.848 139.562C788.848 140.273 788.725 140.943 788.52 141.559H793.852V137.512H788.52ZM812.172 135.488C812.172 139.645 816.93 143.363 821.168 144.156L820.184 145.961C816.52 145.113 812.65 142.502 811.078 138.906C809.506 142.488 805.65 145.1 801.973 145.961L800.988 144.156C805.199 143.336 809.93 139.672 809.93 135.488V133.629H812.172V135.488ZM822.316 151.129V152.906H800.059V151.129H822.316ZM844.41 131.934V145.277H842.25V138.77H837.629V136.992H842.25V131.934H844.41ZM830.629 146.426V149.406H842.277V146.426H844.41V155.887H828.496V146.426H830.629ZM830.629 154.137H842.277V151.129H830.629V154.137ZM836.07 132.945V139.508H827.43V142.871C831.436 142.857 834.443 142.721 838.094 142.133L838.285 143.938C834.457 144.512 831.34 144.648 827.129 144.648H825.297V137.84H833.992V134.695H825.242V132.945H836.07ZM869.266 131.906V156.215H867.215V131.906H869.266ZM864.152 132.562V154.984H862.102V143.637H856.961C855.471 146.467 853.133 148.969 849.742 150.965L848.484 149.406C853.775 146.275 856.428 141.887 856.824 136.801H849.523V135.023H858.957C858.943 137.416 858.561 139.727 857.754 141.887H862.102V132.562H864.152ZM893.465 134.641V136.391H879.711V134.641H885.617V131.715H887.75V134.641H893.465ZM886.656 137.648C889.91 137.648 892.207 139.426 892.207 142.133C892.207 144.867 889.91 146.645 886.656 146.645C883.375 146.645 881.133 144.867 881.16 142.133C881.133 139.426 883.375 137.648 886.656 137.648ZM886.656 139.262C884.551 139.289 883.156 140.438 883.156 142.133C883.156 143.855 884.551 144.977 886.656 144.977C888.762 144.977 890.184 143.855 890.211 142.133C890.184 140.438 888.762 139.289 886.656 139.262ZM899.836 131.906V147.629H897.676V144.266H893.438V142.488H897.676V139.535H893.465V137.758H897.676V131.906H899.836ZM891.824 147.875C896.883 147.875 899.973 149.379 899.973 152.031C899.973 154.629 896.883 156.16 891.824 156.16C886.711 156.16 883.648 154.629 883.648 152.031C883.648 149.379 886.711 147.875 891.824 147.875ZM891.824 149.543C888.133 149.543 885.863 150.445 885.863 152.031C885.863 153.562 888.133 154.492 891.824 154.492C895.461 154.492 897.703 153.562 897.703 152.031C897.703 150.445 895.461 149.543 891.824 149.543ZM912.25 135.734C912.223 139.207 914.684 142.27 918.266 143.473L917.062 145.141C914.383 144.129 912.277 142.16 911.238 139.59C910.186 142.502 907.957 144.771 905.031 145.879L903.855 144.129C907.602 142.816 910.09 139.59 910.117 135.816V133.301H912.25V135.734ZM924.035 131.906V146.316H921.875V138.906H916.461V137.129H921.875V131.906H924.035ZM915.969 147.027C921.027 147.027 924.117 148.695 924.117 151.621C924.117 154.52 921.027 156.16 915.969 156.16C910.91 156.16 907.82 154.52 907.82 151.621C907.82 148.695 910.91 147.027 915.969 147.027ZM915.969 148.723C912.25 148.723 909.926 149.816 909.953 151.621C909.926 153.371 912.25 154.438 915.969 154.438C919.688 154.438 921.984 153.371 921.984 151.621C921.984 149.816 919.688 148.723 915.969 148.723Z" fill="black"/>
<defs>
<linearGradient id="paint0_linear_543_1093" x1="-0.968748" y1="98.5" x2="1491.03" y2="98.4998" gradientUnits="userSpaceOnUse">
<stop stop-color="#3182F6"/>
<stop offset="1" stop-color="#A009FF"/>
</linearGradient>
<linearGradient id="paint1_linear_543_1093" x1="43.6656" y1="126" x2="558.628" y2="126" gradientUnits="userSpaceOnUse">
<stop stop-color="#3182F6"/>
<stop offset="1" stop-color="#A009FF"/>
</linearGradient>
</defs>
</svg>
