<svg width="765" height="197" viewBox="0 0 765 197" fill="none" xmlns="http://www.w3.org/2000/svg">
<rect x="0.5" y="0.5" width="764" height="196" rx="14.5" fill="white" stroke="url(#paint0_linear_543_1094)"/>
<path d="M304.002 33L304.002 165" stroke="#F2F2F7" stroke-width="2"/>
<path d="M33.5391 117.102V118.602C33.5391 120.5 33.5391 123.148 32.9531 126.805L30.375 126.594C30.8789 123.383 30.9375 121.016 30.9609 119.188H22.6406V117.102H33.5391ZM28.1953 123.148V129.406C30.3516 129.324 32.5664 129.172 34.5938 128.914L34.7344 130.859C30.3516 131.562 25.5 131.656 21.7734 131.633L21.5156 129.547C22.7695 129.535 24.1641 129.523 25.6172 129.477V123.148H28.1953ZM38.3203 114.898V123.523H41.3906V125.727H38.3203V136.086H35.6953V114.898H38.3203ZM49.3125 116.211C52.6641 116.211 55.125 118.32 55.1484 121.32C55.125 123.934 53.2852 125.844 50.625 126.312V129.406C52.5117 129.312 54.4219 129.148 56.2266 128.891L56.4375 130.766C51.6797 131.656 46.5938 131.703 42.8672 131.703L42.5391 129.57C44.1562 129.57 46.043 129.57 48.0234 129.5V126.312C45.3633 125.855 43.5 123.934 43.5 121.32C43.5 118.32 45.9844 116.211 49.3125 116.211ZM49.3125 118.461C47.4609 118.461 46.0781 119.539 46.0781 121.32C46.0781 123.078 47.4609 124.203 49.3125 124.203C51.1875 124.203 52.5938 123.078 52.5938 121.32C52.5938 119.539 51.1875 118.461 49.3125 118.461ZM60.0938 114.898V136.109H57.4922V114.898H60.0938ZM68.1328 126.969V129.406H77.5312V126.969H80.1094V135.828H65.5781V126.969H68.1328ZM68.1328 133.719H77.5312V131.422H68.1328V133.719ZM80.1797 115.812V117.453C80.1797 119.059 80.1797 120.828 79.6641 123.312H82.5469V125.398H63.1875V123.312H77.0859C77.5312 121.074 77.5781 119.387 77.5781 117.898H65.5781V115.812H80.1797ZM100.922 116V124.836H90.7031V116H100.922ZM93.2812 118.086V122.797H98.3438V118.086H93.2812ZM107.227 114.898V125.68H104.648V114.898H107.227ZM107.227 126.641V132.125H95.8125V133.836H107.859V135.898H93.2344V130.25H104.695V128.68H93.2109V126.641H107.227ZM117.984 119.492C117.984 121.812 119.695 124.133 123.047 125.047L121.828 127.133C119.402 126.43 117.668 124.953 116.719 123.102C115.781 125.141 114.023 126.734 111.539 127.484L110.273 125.445C113.602 124.484 115.383 122.023 115.383 119.492V119.328H110.953V117.266H115.383V114.828H118.008V117.266H122.414V119.328H117.984V119.492ZM127.078 114.898V120.266H130.031V122.469H127.078V127.859H124.477V114.898H127.078ZM127.078 128.82V136.109H124.477V130.906H112.969V128.82H127.078ZM142.945 117.102V118.602C142.945 120.5 142.945 123.148 142.359 126.805L139.781 126.594C140.285 123.383 140.344 121.016 140.367 119.188H132.047V117.102H142.945ZM137.602 123.148V129.406C139.758 129.324 141.973 129.172 144 128.914L144.141 130.859C139.758 131.562 134.906 131.656 131.18 131.633L130.922 129.547C132.176 129.535 133.57 129.523 135.023 129.477V123.148H137.602ZM147.727 114.898V123.523H150.797V125.727H147.727V136.086H145.102V114.898H147.727ZM170.133 116.938V119H157.57V116.938H162.562V114.805H165.164V116.938H170.133ZM163.852 119.82C166.922 119.82 169.008 121.367 169.031 123.688C169.008 126.008 166.922 127.555 163.852 127.555C160.781 127.555 158.648 126.008 158.648 123.688C158.648 121.367 160.781 119.82 163.852 119.82ZM163.852 121.789C162.234 121.789 161.18 122.492 161.18 123.688C161.18 124.883 162.234 125.562 163.852 125.539C165.469 125.562 166.547 124.883 166.547 123.688C166.547 122.492 165.469 121.789 163.852 121.789ZM174.258 114.898V120.523H177.211V122.656H174.258V128.164H171.656V114.898H174.258ZM174.258 129.148V136.086H171.656V131.234H160.148V129.148H174.258ZM196.055 114.922V130.953H193.43V129.102H189.281V127.273H193.43V114.922H196.055ZM196.547 133.555V135.664H181.008V129.406H183.609V133.555H196.547ZM178.195 124.438C182.109 124.414 187.359 124.367 191.859 123.805L192 125.68C190.254 125.973 188.449 126.172 186.656 126.289V130.367H184.055V126.43C182.074 126.512 180.188 126.523 178.523 126.523L178.195 124.438ZM185.109 115.695C188.203 115.695 190.359 117.219 190.383 119.445C190.359 121.719 188.203 123.172 185.109 123.172C181.969 123.172 179.812 121.719 179.812 119.445C179.812 117.219 181.969 115.695 185.109 115.695ZM185.109 117.617C183.422 117.617 182.273 118.297 182.273 119.445C182.273 120.594 183.422 121.273 185.109 121.273C186.727 121.273 187.875 120.594 187.898 119.445C187.875 118.297 186.727 117.617 185.109 117.617ZM205.898 116.375C209.25 116.352 211.711 118.484 211.734 121.484C211.711 124.508 209.25 126.617 205.898 126.617C202.57 126.617 200.086 124.508 200.086 121.484C200.086 118.484 202.57 116.352 205.898 116.375ZM205.898 118.625C204.047 118.625 202.664 119.727 202.664 121.484C202.664 123.266 204.047 124.344 205.898 124.344C207.773 124.344 209.18 123.266 209.18 121.484C209.18 119.727 207.773 118.625 205.898 118.625ZM216.68 114.898V136.109H214.078V114.898H216.68ZM199.125 129.547C202.945 129.547 208.242 129.5 212.812 128.844L213.023 130.742C208.266 131.656 203.18 131.68 199.453 131.68L199.125 129.547ZM231.938 121.367C231.938 124.648 233.297 127.953 236.25 129.547L234.797 131.469C232.828 130.426 231.492 128.562 230.742 126.336C229.992 128.738 228.656 130.789 226.664 131.961L225.141 129.992C228.141 128.258 229.477 124.719 229.477 121.367V120.711H225.867V118.602H229.477V115.648H231.938V118.602H235.477V120.711H231.938V121.367ZM243.703 114.898V136.086H241.219V114.898H243.703ZM239.391 115.297V135.055H236.93V125.188H234.164V123.031H236.93V115.297H239.391ZM264.492 114.898V136.086H262.008V114.898H264.492ZM260.109 115.414V135.078H257.625V128H254.32V125.867H257.625V122.727H254.695C253.699 126.242 251.484 129.266 247.523 131.609L246 129.758C250.395 127.168 252.41 123.852 252.797 119.586H247.125V117.477H255.375C255.375 118.543 255.305 119.586 255.164 120.594H257.625V115.414H260.109Z" fill="url(#paint1_linear_543_1094)"/>
<path d="M32.5645 69.6855C32.5645 72.9854 34.5928 76.3457 39.1338 77.708L37.166 80.7354C34.0781 79.7666 31.8984 77.7837 30.6572 75.2861C29.4009 77.9956 27.1606 80.1753 23.9365 81.25L21.9385 78.2227C26.5098 76.7393 28.6289 73.167 28.6289 69.6855V69.292H22.9678V66.2041H38.1045V69.292H32.5645V69.6855ZM44.8857 64.2666V84.1865H41.0107V64.2666H44.8857ZM45.6123 88.2129V91.3008H26.4189V82.3701H30.3242V88.2129H45.6123ZM71.2539 64.2363V74.6201H74.3418V77.8291H71.2539V91.7852H67.3789V83.2178L65.0176 85.9424C63.2466 84.5498 62.1719 82.4609 61.5361 80.0391C60.8096 82.5366 59.6289 84.7314 57.6611 86.1543C55.7388 84.7466 54.5732 82.5669 53.877 80.0693C53.2109 82.4912 52.1362 84.5649 50.3652 85.9424L47.9434 83.127C51.4248 80.5537 51.9395 75.6797 51.9697 71.1387V69.7158H49.0332V66.6279H57.207V69.7158H55.6025V71.1387C55.6025 74.3779 55.875 78.1772 57.6914 81.0381C59.4624 78.1924 59.7803 74.4233 59.7803 71.1387V69.7158H58.1758V66.6279H65.9258V69.7158H63.4736V71.1387C63.4434 75.6948 63.9731 80.4932 67.3789 83.0664V64.2363H71.2539ZM107.764 85.3975V88.4854H82.5459V85.3975H93.0811V79.1611H96.9258V85.3975H107.764ZM97.0469 67.7783C97.0469 71.7139 100.589 75.8613 106.886 76.8301L105.251 80.0391C100.407 79.1611 96.8047 76.5728 94.9883 73.1367C93.1719 76.5576 89.5996 79.1763 84.7861 80.0391L83.1514 76.8301C89.3877 75.8613 92.8994 71.6836 92.9297 67.7783V65.8105H97.0469V67.7783ZM123.96 66.3857C123.96 69.625 127.26 73.2275 133.587 74.0146L132.073 77.1328C127.26 76.4365 123.733 74.2114 121.932 71.2295C120.115 74.2114 116.619 76.4365 111.851 77.1328L110.307 74.0146C116.573 73.2275 119.903 69.625 119.903 66.3857V65.0537H123.96V66.3857ZM134.465 79.2217V82.3701H123.748V91.7852H119.934V82.3701H109.338V79.2217H134.465ZM159.35 64.2363V80.584H155.505V74.0752H151.206V70.957H155.505V64.2363H159.35ZM149.935 81.1895C155.808 81.2197 159.41 83.1572 159.44 86.5176C159.41 89.8477 155.808 91.8154 149.935 91.8154C144.062 91.8154 140.459 89.8477 140.459 86.5176C140.459 83.1572 144.062 81.2197 149.935 81.1895ZM149.935 84.1562C146.271 84.1562 144.304 84.9131 144.304 86.5176C144.304 88.0918 146.271 88.8789 149.935 88.8789C153.598 88.8789 155.596 88.0918 155.596 86.5176C155.596 84.9131 153.598 84.1562 149.935 84.1562ZM152.023 65.9014V68.9893H146.544C146.635 72.1982 148.572 75.4375 152.871 76.8604L150.964 79.8877C147.921 78.9038 145.833 76.9058 144.637 74.4082C143.411 77.2236 141.216 79.4941 137.946 80.6143L135.948 77.5566C140.474 76.043 142.502 72.4404 142.608 68.9893H137.068V65.9014H152.023ZM186.808 64.2363V91.7852H183.114V64.2363H186.808ZM181.177 64.6299V90.5137H177.544V81.9766H174.305C173.275 84.6558 171.474 86.1846 169.158 86.1846C165.525 86.1846 163.164 82.3701 163.164 76.1641C163.164 69.9883 165.525 66.2041 169.158 66.2041C171.459 66.2041 173.26 67.7026 174.305 70.3516H177.544V64.6299H181.177ZM169.158 69.8369C167.554 69.8369 166.646 71.9561 166.676 76.1641C166.646 80.4023 167.554 82.4912 169.158 82.4609C170.763 82.4912 171.731 80.4023 171.731 76.1641C171.731 71.9561 170.732 69.8369 169.158 69.8369ZM175.062 73.4395C175.183 74.2871 175.243 75.1953 175.243 76.1641C175.243 77.1177 175.183 78.0259 175.062 78.8584H177.544V73.4395H175.062Z" fill="black"/>
<path d="M340.939 65.6406C339.626 65.6406 338.548 64.5625 338.548 63.2266C338.548 61.9141 339.626 60.8359 340.939 60.8359C342.275 60.8359 343.353 61.9141 343.353 63.2266C343.353 64.5625 342.275 65.6406 340.939 65.6406ZM366.533 70.2344C363.58 70.1875 360.345 68.4531 360.345 62.1719C360.345 56.1719 362.806 52.7969 366.791 52.7969C369.767 52.7969 371.853 54.625 372.298 57.2969H370.212C369.814 55.7969 368.689 54.6719 366.791 54.6719C364.001 54.6719 362.337 57.0625 362.337 61.1406H362.548C363.533 59.7344 365.08 58.8906 366.908 58.8906C369.931 58.8906 372.439 61.2344 372.439 64.5156C372.439 67.7031 370.095 70.2578 366.533 70.2344ZM366.533 68.3828C368.736 68.3828 370.376 66.6484 370.4 64.5391C370.376 62.4531 368.806 60.7422 366.58 60.7422C364.353 60.7422 362.642 62.5469 362.619 64.5625C362.619 66.5547 364.259 68.3828 366.533 68.3828ZM376.025 61.2578C376.775 60.3906 377.712 59.9219 378.744 59.9219C380.525 59.9219 382.142 61.2812 383.853 61.2812C384.908 61.2812 385.822 60.7656 386.525 59.8047V61.75C385.751 62.6406 384.837 63.0859 383.806 63.0859C382.025 63.0859 380.408 61.7266 378.673 61.7266C377.642 61.7266 376.728 62.2422 376.025 63.2031V61.2578ZM396.064 70.2344C392.501 70.2344 390.017 68.2656 390.041 65.5C390.017 63.2969 391.541 61.4922 393.486 61.1875V61.0938C391.798 60.6953 390.697 59.1484 390.697 57.2969C390.697 54.6953 392.97 52.7969 396.064 52.7969C399.158 52.7969 401.431 54.6953 401.455 57.2969C401.431 59.1484 400.306 60.6953 398.642 61.0938V61.1875C400.564 61.4922 402.087 63.2969 402.111 65.5C402.087 68.2656 399.603 70.2344 396.064 70.2344ZM396.064 68.3828C398.501 68.3828 400.001 67.1641 400.001 65.3828C400.001 63.5078 398.337 62.125 396.064 62.125C393.791 62.125 392.103 63.5078 392.15 65.3828C392.103 67.1641 393.626 68.3828 396.064 68.3828ZM396.064 60.3438C397.986 60.3438 399.392 59.1719 399.392 57.4609C399.392 55.7734 398.056 54.625 396.064 54.625C394.048 54.625 392.736 55.7734 392.736 57.4609C392.736 59.1719 394.119 60.3438 396.064 60.3438ZM421.47 51.0625V63.4141H419.619V60.1328H414.744V61.9141H405.181V52.6562H414.744V54.4609H419.619V51.0625H421.47ZM407.009 54.1562V60.4141H412.939V54.1562H407.009ZM414.556 64.0234C418.892 64.0234 421.541 65.4531 421.541 67.9609C421.541 70.4453 418.892 71.8516 414.556 71.8516C410.22 71.8516 407.572 70.4453 407.572 67.9609C407.572 65.4531 410.22 64.0234 414.556 64.0234ZM414.556 65.4531C411.369 65.4766 409.376 66.3906 409.4 67.9609C409.376 69.4609 411.369 70.3984 414.556 70.3984C417.744 70.3984 419.712 69.4609 419.712 67.9609C419.712 66.3906 417.744 65.4766 414.556 65.4531ZM414.744 58.5859H419.619V55.9844H414.744V58.5859ZM441.416 53.0078C441.416 55.9375 445.259 58.4922 449.009 59.0078L448.259 60.5078C445.025 59.9688 441.826 58.1758 440.478 55.6094C439.142 58.1875 435.931 59.9688 432.697 60.5078L431.947 59.0078C435.697 58.4922 439.517 55.9844 439.517 53.0078V51.8125H441.416V53.0078ZM449.947 62.8047V64.3516H441.322V71.8984H439.517V64.3516H430.962V62.8047H449.947ZM457.447 52.0469C460.248 52.0234 462.369 53.6523 462.767 56.0547H467.126V51.0625H468.978V62.2422H467.126V57.5781H462.791C462.416 60.0391 460.271 61.6797 457.447 61.6797C454.283 61.6797 452.033 59.7109 452.033 56.8516C452.033 54.0156 454.283 52.0234 457.447 52.0469ZM457.447 53.6172C455.314 53.5938 453.791 54.9297 453.791 56.8516C453.791 58.75 455.314 60.1328 457.447 60.1328C459.556 60.1328 461.056 58.75 461.056 56.8516C461.056 54.9297 459.556 53.5938 457.447 53.6172ZM457.4 63.2969V65.9453H467.126V63.2969H468.978V71.6172H455.548V63.2969H457.4ZM457.4 70.1172H467.126V67.4219H457.4V70.1172ZM481.939 52.4219C486.298 52.4219 489.556 54.6953 489.556 58.1406C489.556 61.6094 486.298 63.8828 481.939 63.8594C477.58 63.8828 474.322 61.6094 474.322 58.1406C474.322 54.6953 477.58 52.4219 481.939 52.4219ZM481.939 53.9219C478.587 53.8984 476.056 55.6562 476.08 58.1406C476.056 60.6719 478.587 62.3594 481.939 62.3594C485.267 62.3594 487.775 60.6719 487.775 58.1406C487.775 55.6562 485.267 53.8984 481.939 53.9219ZM491.525 67.5859V69.1328H472.447V67.5859H491.525ZM512.267 67.7734V69.3203H493.189V67.7734H501.767V63.8359H495.58V57.4141H508.048V54.1328H495.533V52.6094H509.853V58.9141H497.408V62.3125H510.345V63.8359H503.572V67.7734H512.267ZM526.705 53.0312V70H524.572V55.2344H524.478L520.353 57.9766V55.8438L524.572 53.0312H526.705ZM532.681 67.75C531.861 67.75 531.158 67.0703 531.181 66.2266C531.158 65.4062 531.861 64.7266 532.681 64.7266C533.501 64.7266 534.181 65.4062 534.181 66.2266C534.181 67.0703 533.501 67.75 532.681 67.75ZM532.681 58.3281C531.861 58.3281 531.158 57.6484 531.181 56.8047C531.158 55.9844 531.861 55.3047 532.681 55.3047C533.501 55.3047 534.181 55.9844 534.181 56.8047C534.181 57.6484 533.501 58.3281 532.681 58.3281ZM543.322 53.0312V70H541.189V55.2344H541.095L536.97 57.9766V55.8438L541.189 53.0312H543.322ZM563.572 53.0078C563.572 55.9375 567.416 58.4922 571.166 59.0078L570.416 60.5078C567.181 59.9688 563.982 58.1758 562.634 55.6094C561.298 58.1875 558.087 59.9688 554.853 60.5078L554.103 59.0078C557.853 58.4922 561.673 55.9844 561.673 53.0078V51.8125H563.572V53.0078ZM572.103 62.8047V64.3516H563.478V71.8984H561.673V64.3516H553.119V62.8047H572.103ZM584.548 53.6641C584.525 56.2188 588.041 58.3047 591.72 58.8203L590.994 60.2734C587.63 59.793 584.49 58.1055 583.353 55.6562C582.228 58.1055 579.099 59.793 575.712 60.2734L575.033 58.8203C578.712 58.3047 582.158 56.2188 582.158 53.6641V53.6172H575.595V52.1172H591.158V53.6172H584.548V53.6641ZM592.916 61.7969V63.3203H584.431V67.5859H582.603V63.3203H573.837V61.7969H592.916ZM590.783 69.9062V71.4531H576.275V65.5H578.126V69.9062H590.783ZM601.423 52.5859C604.705 52.5859 607.025 54.5781 607.025 57.4844C607.025 60.3906 604.705 62.3828 601.423 62.3828C598.142 62.3828 595.775 60.3906 595.798 57.4844C595.775 54.5781 598.142 52.5859 601.423 52.5859ZM601.423 54.2031C599.197 54.2031 597.58 55.5391 597.603 57.4844C597.58 59.4297 599.197 60.7656 601.423 60.7656C603.626 60.7656 605.22 59.4297 605.22 57.4844C605.22 55.5391 603.626 54.2031 601.423 54.2031ZM611.689 51.0625V71.9453H609.861V51.0625H611.689ZM594.72 65.7812C598.564 65.7812 603.861 65.7578 608.478 65.0781L608.619 66.4375C603.861 67.3281 598.728 67.3516 594.978 67.3516L594.72 65.7812ZM638.595 51.0625V71.8984H636.744V51.0625H638.595ZM633.791 53.3359V54.8594H631.423V64.8906C632.595 64.8086 633.755 64.7031 634.869 64.5625L634.986 65.9453C630.439 66.6484 625.423 66.7188 621.556 66.7422L621.345 65.1719L624.228 65.1484V54.8594H621.884V53.3359H633.791ZM626.033 65.125C627.205 65.1016 628.412 65.0547 629.619 64.9844V54.8594H626.033V65.125ZM658.939 61.0938V62.6172H644.548V53.0078H658.728V54.5312H646.376V61.0938H658.939ZM661.189 67.5156V69.0625H642.111V67.5156H661.189ZM665.548 52.3984V55.7031H670.189V52.3984H671.923V62.1016H663.814V52.3984H665.548ZM665.548 60.5781H670.189V57.1797H665.548V60.5781ZM680.548 51.0859V63.5781H678.791V58.0234H676.025V63.4609H674.291V51.4844H676.025V56.5H678.791V51.0859H680.548ZM680.548 64.8438V71.8984H678.744V66.3672H666.509V64.8438H680.548ZM340.939 103.641C339.626 103.641 338.548 102.562 338.548 101.227C338.548 99.9141 339.626 98.8359 340.939 98.8359C342.275 98.8359 343.353 99.9141 343.353 101.227C343.353 102.562 342.275 103.641 340.939 103.641ZM372.345 91.3125V92.8125H359.923V91.3125H365.22V88.9688H367.048V91.3125H372.345ZM366.134 93.8906C369.134 93.9141 371.126 95.3672 371.15 97.6641C371.126 99.9375 369.134 101.414 366.134 101.414C363.134 101.414 361.095 99.9375 361.119 97.6641C361.095 95.3672 363.134 93.9141 366.134 93.8906ZM366.134 95.3203C364.166 95.3438 362.853 96.2578 362.876 97.6641C362.853 99.0469 364.166 99.9375 366.134 99.9375C368.08 99.9375 369.392 99.0469 369.416 97.6641C369.392 96.2578 368.08 95.3438 366.134 95.3203ZM376.166 89.0625V94.8516H379.306V96.3984H376.166V102.094H374.337V89.0625H376.166ZM376.166 103.242V109.898H374.337V104.742H362.525V103.242H376.166ZM386.83 93.2109C386.83 95.5078 388.447 97.8516 391.119 98.8594L390.158 100.266C388.154 99.4922 386.712 98.0039 385.962 96.2109C385.189 98.2031 383.701 99.9727 381.65 100.852L380.642 99.4219C383.384 98.2266 385.072 95.5312 385.072 93.2109V90.375H386.83V93.2109ZM398.314 89.0859V101.953H396.556V96.2109H393.791V101.297H392.056V89.4844H393.791V94.6875H396.556V89.0859H398.314ZM391.423 102.422C395.736 102.422 398.431 103.781 398.431 106.148C398.431 108.492 395.736 109.852 391.423 109.852C387.087 109.852 384.416 108.492 384.439 106.148C384.416 103.781 387.087 102.422 391.423 102.422ZM391.423 103.828C388.236 103.828 386.244 104.695 386.267 106.148C386.244 107.578 388.236 108.422 391.423 108.422C394.587 108.422 396.58 107.578 396.603 106.148C396.58 104.695 394.587 103.828 391.423 103.828ZM423.673 89.0625V95.4141H426.814V96.9609H423.673V104.32H421.822V89.0625H423.673ZM418.048 90.6797C418.048 96.0469 414.205 100.031 408.205 101.906L407.408 100.43C412.4 98.8711 415.658 95.8945 416.056 92.2266H408.275V90.6797H418.048ZM424.634 107.906V109.453H410.619V102.773H412.447V107.906H424.634ZM445.962 91.1719V92.6953H434.173V91.1719H439.236V88.875H441.064V91.1719H445.962ZM440.126 93.7031C442.916 93.7031 444.884 95.2031 444.884 97.4766C444.884 99.7266 442.916 101.203 440.126 101.203C437.314 101.203 435.392 99.7266 435.416 97.4766C435.392 95.2031 437.314 93.7031 440.126 93.7031ZM440.126 95.1328C438.322 95.1328 437.126 96.0703 437.126 97.4766C437.126 98.8594 438.322 99.8203 440.126 99.8203C441.931 99.8203 443.15 98.8594 443.173 97.4766C443.15 96.0703 441.931 95.1328 440.126 95.1328ZM451.423 89.0625V101.391H449.572V99.5391H445.939V98.0156H449.572V95.4609H445.962V93.9375H449.572V89.0625H451.423ZM439.681 102.258V104.461H449.595V102.258H451.423V109.617H437.853V102.258H439.681ZM439.681 108.141H449.595V105.891H439.681V108.141ZM464.783 90.3516V96.1875H457.611V99.4219C461.525 99.4219 463.541 99.3633 466.001 98.9062L466.189 100.43C463.587 100.852 461.478 100.922 457.259 100.922H455.783V94.7812H462.955V91.8281H455.736V90.3516H464.783ZM472.166 89.0859V101.883H470.314V98.0156H466.166V96.4922H470.314V93.6797H466.166V92.1797H470.314V89.0859H472.166ZM472.166 103.008V109.945H470.314V104.508H458.126V103.008H472.166ZM487.189 91.3828V92.4609C487.166 94.1016 487.166 96.8672 486.58 100.734L484.728 100.57C485.291 97.0781 485.337 94.5469 485.337 92.8828H476.595V91.3828H487.189ZM481.728 97.3359V103.664C484.037 103.582 486.404 103.43 488.572 103.172L488.666 104.555C484.283 105.234 479.384 105.328 475.658 105.305L475.423 103.781C476.794 103.77 478.318 103.758 479.923 103.711V97.3359H481.728ZM491.712 89.0625V97.7812H495.087V99.375H491.712V109.898H489.884V89.0625H491.712ZM518.689 89.0625V94.5H521.83V96.0234H518.689V101.578H516.861V89.0625H518.689ZM513.017 90.6094C513.017 95.9062 509.267 99.8203 503.197 101.602L502.423 100.102C507.451 98.6484 510.662 95.7539 511.048 92.1328H503.337V90.6094H513.017ZM512.103 101.812C516.298 101.812 518.923 103.336 518.923 105.82C518.923 108.352 516.298 109.852 512.103 109.852C507.955 109.852 505.259 108.352 505.283 105.82C505.259 103.336 507.955 101.812 512.103 101.812ZM512.103 103.289C509.056 103.266 507.087 104.25 507.111 105.82C507.087 107.391 509.056 108.375 512.103 108.375C515.173 108.375 517.142 107.391 517.142 105.82C517.142 104.25 515.173 103.266 512.103 103.289ZM530.126 94.6641C530.126 98.3438 532.564 102.117 535.517 103.57L534.392 105.047C532.095 103.84 530.173 101.379 529.259 98.4844C528.322 101.566 526.353 104.191 524.009 105.445L522.837 103.969C525.884 102.469 528.298 98.4609 528.322 94.6641V90.8672H530.126V94.6641ZM539.267 89.0625V97.5234H542.759V99.1172H539.267V109.898H537.439V89.0625H539.267ZM550.705 90.5859C553.986 90.5859 556.306 92.5781 556.306 95.4844C556.306 98.3906 553.986 100.383 550.705 100.383C547.423 100.383 545.056 98.3906 545.08 95.4844C545.056 92.5781 547.423 90.5859 550.705 90.5859ZM550.705 92.2031C548.478 92.2031 546.861 93.5391 546.884 95.4844C546.861 97.4297 548.478 98.7656 550.705 98.7656C552.908 98.7656 554.501 97.4297 554.501 95.4844C554.501 93.5391 552.908 92.2031 550.705 92.2031ZM560.97 89.0625V109.945H559.142V89.0625H560.97ZM544.001 103.781C547.845 103.781 553.142 103.758 557.759 103.078L557.9 104.438C553.142 105.328 548.009 105.352 544.259 105.352L544.001 103.781ZM588.439 89.0625V109.898H586.634V99H583.751V108.867H581.994V89.625H583.751V97.4766H586.634V89.0625H588.439ZM579.626 91.7812C579.603 97.0781 577.751 102.094 571.751 105.422L570.673 104.133C575.513 101.438 577.517 97.6172 577.822 93.3047H571.47V91.7812H579.626ZM608.642 89.0625V99.9609H606.814V97.2891H601.892V99.1172H592.447V90.0469H594.275V93.0469H600.087V90.0469H601.892V92.0625H606.814V89.0625H608.642ZM608.642 100.969V105.867H597.017V108.141H609.439V109.617H595.189V104.461H606.814V102.445H595.142V100.969H608.642ZM594.275 97.6172H600.087V94.5H594.275V97.6172ZM601.892 95.8359H606.814V93.4922H601.892V95.8359ZM627.345 91.5469C627.333 93.5156 627.111 95.4609 626.525 97.3125H629.853V89.625H631.611V108.844H629.853V98.8359H625.916C624.744 101.402 622.705 103.723 619.353 105.562L618.298 104.25C621.509 102.504 623.419 100.312 624.486 97.8516L618.533 98.4609L618.251 96.8203L625.001 96.3984C625.294 95.3203 625.47 94.207 625.541 93.0703H619.259V91.5469H627.345ZM635.994 89.0625V109.898H634.236V89.0625H635.994ZM644.501 90.6797C647.337 90.7031 649.376 93.1289 649.681 97.0312H654.345V89.0625H656.173V109.945H654.345V98.5547H649.705C649.482 102.633 647.408 105.188 644.501 105.188C641.431 105.188 639.275 102.375 639.275 97.9453C639.275 93.5156 641.431 90.7031 644.501 90.6797ZM644.501 92.3203C642.439 92.3438 641.033 94.5469 641.033 97.9453C641.033 101.344 642.439 103.547 644.501 103.547C646.541 103.547 647.97 101.344 647.97 97.9453C647.97 94.5469 646.541 92.3438 644.501 92.3203ZM681.791 89.0625V97.5469H685.166V99.0938H681.791V109.898H679.962V89.0625H681.791ZM676.4 91.3125C676.4 97.2188 673.634 102.586 666.837 105.938L665.806 104.484C671.197 101.801 674.126 97.793 674.548 92.8594H666.767V91.3125H676.4ZM703.236 94.8984V96.4219H689.009V89.4844H690.837V94.8984H703.236ZM705.416 98.8594V100.383H686.408V98.8594H705.416ZM695.9 102.258C700.376 102.258 703.048 103.617 703.072 106.031C703.048 108.445 700.376 109.805 695.9 109.805C691.4 109.805 688.705 108.445 688.705 106.031C688.705 103.617 691.4 102.258 695.9 102.258ZM695.9 103.711C692.548 103.734 690.556 104.555 690.58 106.031C690.556 107.484 692.548 108.375 695.9 108.375C699.205 108.375 701.22 107.484 701.22 106.031C701.22 104.555 699.205 103.734 695.9 103.711ZM340.939 141.641C339.626 141.641 338.548 140.562 338.548 139.227C338.548 137.914 339.626 136.836 340.939 136.836C342.275 136.836 343.353 137.914 343.353 139.227C343.353 140.562 342.275 141.641 340.939 141.641ZM378.861 136.18V137.703H359.876V136.18H368.431V134.117H362.337V127.766H376.4V134.117H370.236V136.18H378.861ZM364.166 129.242V132.641H374.572V129.242H364.166ZM376.423 139.438V144.102H364.048V146.211H377.056V147.664H362.22V142.719H374.619V140.867H362.173V139.438H376.423ZM397.822 127.062V138.242H395.994V127.062H397.822ZM386.15 139.297V141.828H395.994V139.297H397.822V147.617H384.322V139.297H386.15ZM386.15 146.117H395.994V143.305H386.15V146.117ZM386.572 128.094C389.736 128.07 392.033 130.016 392.033 132.875C392.033 135.711 389.736 137.656 386.572 137.656C383.408 137.656 381.111 135.711 381.111 132.875C381.111 130.016 383.408 128.07 386.572 128.094ZM386.572 129.641C384.439 129.617 382.892 130.977 382.916 132.875C382.892 134.773 384.439 136.133 386.572 136.133C388.681 136.133 390.228 134.773 390.228 132.875C390.228 130.977 388.681 129.617 386.572 129.641ZM412.916 129.383V130.461C412.892 132.102 412.892 134.867 412.306 138.734L410.455 138.57C411.017 135.078 411.064 132.547 411.064 130.883H402.322V129.383H412.916ZM407.455 135.336V141.664C409.763 141.582 412.13 141.43 414.298 141.172L414.392 142.555C410.009 143.234 405.111 143.328 401.384 143.305L401.15 141.781C402.521 141.77 404.044 141.758 405.65 141.711V135.336H407.455ZM417.439 127.062V135.781H420.814V137.375H417.439V147.898H415.611V127.062H417.439ZM446.126 130.297V131.82H429.064V130.297H436.705V127.461H438.509V130.297H446.126ZM447.205 143.82V145.344H428.126V143.82H447.205ZM437.619 133.203C441.814 133.18 444.462 134.727 444.462 137.305C444.462 139.859 441.814 141.406 437.619 141.406C433.376 141.406 430.751 139.859 430.775 137.305C430.751 134.727 433.376 133.18 437.619 133.203ZM437.619 134.703C434.525 134.68 432.58 135.688 432.603 137.305C432.58 138.922 434.525 139.906 437.619 139.906C440.666 139.906 442.587 138.922 442.587 137.305C442.587 135.688 440.666 134.68 437.619 134.703ZM467.923 137.82V139.344H448.845V137.82H467.923ZM465.462 127.578V132.5H453.158V134.586H465.908V136.016H451.33V131.117H463.611V129.055H451.259V127.578H465.462ZM465.462 141.242V147.617H451.447V141.242H465.462ZM453.251 142.742V146.117H463.658V142.742H453.251ZM487.47 127.062V147.898H485.689V127.062H487.47ZM483.275 127.508V146.844H481.517V136.719H478.845C478.646 140.773 476.923 143.305 474.345 143.305C471.626 143.305 469.869 140.492 469.869 136.062C469.869 131.633 471.626 128.82 474.345 128.82C476.876 128.82 478.587 131.27 478.822 135.195H481.517V127.508H483.275ZM474.345 130.555C472.658 130.555 471.58 132.664 471.603 136.062C471.58 139.438 472.658 141.57 474.345 141.547C476.033 141.57 477.111 139.438 477.111 136.062C477.111 132.664 476.033 130.555 474.345 130.555ZM504.275 138.055V141.875C506.279 141.793 508.33 141.617 510.251 141.336L510.392 142.695C505.634 143.562 500.501 143.586 496.751 143.586L496.494 142.062C498.24 142.051 500.302 142.039 502.47 141.969V138.055H504.275ZM509.173 129.805V131.328H504.275C504.322 134.023 506.56 136.215 509.642 137.094L508.775 138.547C506.267 137.797 504.31 136.191 503.384 134.07C502.47 136.309 500.525 137.973 498.017 138.734L497.126 137.328C500.208 136.426 502.376 134.141 502.423 131.328H497.642V129.805H502.47V127.227H504.275V129.805H509.173ZM513.462 127.062V147.945H511.634V127.062H513.462ZM524.361 130.906C524.361 133.625 526.447 136.203 529.494 137.258L528.533 138.711C526.177 137.867 524.361 136.121 523.47 133.977C522.568 136.379 520.646 138.301 518.173 139.203L517.212 137.75C520.283 136.648 522.509 133.859 522.509 130.93V130.016H517.798V128.516H529.025V130.016H524.361V130.906ZM534.392 140.656V147.898H532.541V142.18H520.376V140.656H534.392ZM534.392 127.062V139.555H532.541V134.07H528.369V132.523H532.541V127.062H534.392ZM554.033 127.062V135.945H557.361V137.492H554.033V147.898H552.181V127.062H554.033ZM537.603 142.344C539.302 142.344 541.283 142.344 543.345 142.273V139.953C540.919 139.684 539.337 138.266 539.361 136.203C539.337 133.859 541.33 132.336 544.283 132.336C547.189 132.336 549.205 133.859 549.228 136.203C549.205 138.266 547.599 139.684 545.197 139.977V142.203C547.142 142.109 549.099 141.957 550.916 141.688L551.033 143.094C546.486 143.867 541.564 143.914 537.908 143.914L537.603 142.344ZM550.541 129.617V131.117H537.978V129.617H543.345V127.109H545.197V129.617H550.541ZM544.283 133.766C542.361 133.766 541.072 134.75 541.072 136.203C541.072 137.656 542.361 138.594 544.283 138.57C546.181 138.594 547.47 137.656 547.47 136.203C547.47 134.75 546.181 133.766 544.283 133.766ZM570.72 133.906V135.406H566.501V138.312C568.447 138.23 570.392 138.09 572.197 137.891L572.337 139.25C567.861 139.859 562.892 140 558.978 140L558.697 138.5C560.525 138.488 562.576 138.465 564.673 138.383V135.406H560.595V128.422H570.556V129.945H562.447V133.906H570.72ZM575.783 127.086V142.672H573.931V127.086H575.783ZM576.462 145.906V147.453H562.259V141.594H564.087V145.906H576.462ZM597.837 129.312V130.812H585.416V129.312H590.712V126.969H592.541V129.312H597.837ZM591.626 131.891C594.626 131.914 596.619 133.367 596.642 135.664C596.619 137.938 594.626 139.414 591.626 139.414C588.626 139.414 586.587 137.938 586.611 135.664C586.587 133.367 588.626 131.914 591.626 131.891ZM591.626 133.32C589.658 133.344 588.345 134.258 588.369 135.664C588.345 137.047 589.658 137.938 591.626 137.938C593.572 137.938 594.884 137.047 594.908 135.664C594.884 134.258 593.572 133.344 591.626 133.32ZM601.658 127.062V132.852H604.798V134.398H601.658V140.094H599.83V127.062H601.658ZM601.658 141.242V147.898H599.83V142.742H588.017V141.242H601.658ZM610.353 139.578V142.016H620.759V139.578H622.611V147.617H608.525V139.578H610.353ZM610.353 146.141H620.759V143.469H610.353V146.141ZM625.095 136.578V138.102H606.111V136.578H625.095ZM616.564 128.281C616.564 130.859 620.361 133.156 624.017 133.625L623.337 135.102C620.103 134.621 616.939 132.969 615.626 130.625C614.291 132.98 611.103 134.621 607.892 135.102L607.189 133.625C610.892 133.133 614.666 130.93 614.666 128.281V127.297H616.564V128.281ZM649.142 127.062V134.375H652.259V135.922H649.142V143.375H647.291V127.062H649.142ZM649.892 145.906V147.453H635.9V142.273H637.751V145.906H649.892ZM632.783 139.461C634.435 139.461 636.392 139.449 638.431 139.367V137.773C636.005 137.551 634.447 136.391 634.447 134.633C634.447 132.617 636.392 131.422 639.322 131.422C642.275 131.422 644.197 132.617 644.22 134.633C644.197 136.379 642.673 137.539 640.259 137.773V139.273C642.216 139.18 644.185 138.992 646.001 138.711L646.166 140.023C641.689 140.867 636.65 140.938 632.994 140.961L632.783 139.461ZM645.369 129.125V130.508H633.298V129.125H638.431V127.016H640.259V129.125H645.369ZM639.322 132.734C637.4 132.734 636.205 133.461 636.205 134.633C636.205 135.781 637.4 136.508 639.322 136.508C641.244 136.508 642.462 135.781 642.462 134.633C642.462 133.461 641.244 132.734 639.322 132.734ZM670.892 127.086V139.602H669.041V136.789H663.509V135.266H669.041V132.453H663.72C662.349 135.805 659.126 138.23 654.673 139.555L653.9 138.102C658.939 136.602 662.068 133.789 662.455 130.18H654.955V128.633H664.447C664.447 129.453 664.353 130.238 664.189 130.977H669.041V127.086H670.892ZM664.072 139.812C668.291 139.812 671.009 141.312 671.009 143.797C671.009 146.305 668.291 147.805 664.072 147.805C659.806 147.805 657.111 146.305 657.111 143.797C657.111 141.312 659.806 139.812 664.072 139.812ZM664.072 141.289C660.931 141.266 658.916 142.227 658.916 143.797C658.916 145.367 660.931 146.305 664.072 146.305C667.166 146.305 669.158 145.367 669.181 143.797C669.158 142.227 667.166 141.266 664.072 141.289Z" fill="black"/>
<defs>
<linearGradient id="paint0_linear_543_1094" x1="-0.691317" y1="98.5" x2="1064.03" y2="98.4999" gradientUnits="userSpaceOnUse">
<stop stop-color="#3182F6"/>
<stop offset="1" stop-color="#A009FF"/>
</linearGradient>
<linearGradient id="paint1_linear_543_1094" x1="20.747" y1="125" x2="410.448" y2="125" gradientUnits="userSpaceOnUse">
<stop stop-color="#3182F6"/>
<stop offset="1" stop-color="#A009FF"/>
</linearGradient>
</defs>
</svg>
