<svg width="800" height="260" viewBox="0 0 800 260" fill="none" xmlns="http://www.w3.org/2000/svg">
<rect x="0.5" y="0.5" width="799" height="259" rx="14.5" fill="white" stroke="url(#paint0_linear_590_879)"/>
<path d="M63.6836 150.777V153.037H42.7617V150.777H63.6836ZM61.0684 154.586V160.223H48.0176V161.898H61.7031V164.057H45.25V158.217H58.3008V156.668H45.2246V154.586H61.0684ZM61.8047 142.094V144.328H54.9746C55.5459 146.029 58.377 147.515 62.6934 147.807L61.8047 149.99C57.6914 149.66 54.5811 148.276 53.1973 146.232C51.8135 148.264 48.7412 149.66 44.666 149.99L43.7773 147.807C48.0557 147.515 50.8486 146.029 51.4453 144.328H44.666V142.094H61.8047ZM84.4531 141.307V164.26H81.6348V152.58H76.7852V150.27H81.6348V141.307H84.4531ZM76.8867 143.744C76.8613 150.523 74.4492 156.211 66.5527 160.121L65.0801 157.912C71.0215 155.005 73.5732 151.12 74.043 145.979H66.1465V143.744H76.8867ZM108.65 152.656V154.916H99.7891V159.131H96.9199V154.916H87.6777V152.656H108.65ZM106.34 161.492V163.803H90.2422V156.998H93.0859V161.492H106.34ZM98.1387 141.814C103.09 141.814 106.365 143.617 106.365 146.512C106.365 149.406 103.09 151.184 98.1387 151.184C93.1875 151.184 89.9121 149.406 89.9121 146.512C89.9121 143.617 93.1875 141.814 98.1387 141.814ZM98.1387 144.049C94.9902 144.049 92.9336 144.938 92.959 146.512C92.9336 148.035 94.9902 148.924 98.1387 148.924C101.312 148.924 103.344 148.035 103.344 146.512C103.344 144.938 101.312 144.049 98.1387 144.049ZM137.266 150.904V153.189H116.344V150.904H125.357V149.178H118.984V142.018H134.574V149.178H128.15V150.904H137.266ZM121.752 144.227V146.969H131.756V144.227H121.752ZM134.65 154.586V160.223H121.6V161.898H135.285V164.057H118.832V158.191H131.883V156.719H118.807V154.586H134.65ZM157.934 141.307V153.621H155.09V141.307H157.934ZM145.543 154.688V157.049H155.115V154.688H157.934V163.98H142.75V154.688H145.543ZM145.543 161.695H155.115V159.258H145.543V161.695ZM145.416 142.322C148.945 142.297 151.586 144.506 151.586 147.705C151.586 150.828 148.945 153.037 145.416 153.037C141.861 153.037 139.221 150.828 139.221 147.705C139.221 144.506 141.861 142.297 145.416 142.322ZM145.416 144.684C143.41 144.684 141.963 145.852 141.988 147.705C141.963 149.533 143.41 150.701 145.416 150.727C147.396 150.701 148.818 149.533 148.818 147.705C148.818 145.852 147.396 144.684 145.416 144.684ZM185.635 141.307V149H188.732V151.336H185.635V159.232H182.816V141.307H185.635ZM186.447 161.518V163.803H170.553V158.039H173.371V161.518H186.447ZM167.252 154.637C168.966 154.637 170.959 154.624 173.041 154.535V153.088C170.489 152.783 168.877 151.526 168.877 149.686C168.877 147.426 171.086 146.105 174.412 146.131C177.764 146.105 179.947 147.426 179.947 149.686C179.947 151.514 178.373 152.758 175.859 153.088V154.408C177.814 154.307 179.782 154.129 181.623 153.85L181.852 155.83C177.002 156.744 171.518 156.795 167.557 156.846L167.252 154.637ZM181.014 143.312V145.369H167.836V143.312H173.041V141.23H175.859V143.312H181.014ZM174.412 148.035C172.635 148.035 171.568 148.619 171.594 149.686C171.568 150.676 172.635 151.26 174.412 151.26C176.189 151.26 177.256 150.676 177.256 149.686C177.256 148.619 176.189 148.035 174.412 148.035ZM209.146 141.332V154.738H206.328V152.199H200.869V149.914H206.328V147.451H201.098C199.638 151.107 196.299 153.659 191.297 155.043L190.154 152.809C195.524 151.349 198.381 148.632 198.838 145.217H191.373V142.932H201.91C201.91 143.731 201.847 144.493 201.707 145.217H206.328V141.332H209.146ZM201.555 154.992C206.201 154.992 209.299 156.744 209.299 159.562C209.299 162.381 206.201 164.133 201.555 164.133C196.857 164.133 193.76 162.381 193.76 159.562C193.76 156.744 196.857 154.992 201.555 154.992ZM201.555 157.201C198.457 157.201 196.578 158.039 196.578 159.562C196.578 161.061 198.457 161.898 201.555 161.898C204.576 161.898 206.48 161.061 206.48 159.562C206.48 158.039 204.576 157.201 201.555 157.201Z" fill="url(#paint1_linear_590_879)"/>
<path d="M67.9443 112.587V115.645H42.8174V112.587H53.4434V110.135H45.875V100.326H64.9775V103.384H49.7197V107.017H65.25V110.135H57.3184V112.587H67.9443ZM64.9473 117.552V126.876H61.1631V120.609H45.6025V117.552H64.9473ZM80.0234 105.473C80.0234 110.649 82.1123 115.675 86.7139 117.673L84.3525 120.761C81.2949 119.262 79.2515 116.522 78.1162 113.132C76.9053 116.734 74.7861 119.686 71.6377 121.245L69.2158 118.097C73.9385 115.978 76.0879 110.649 76.1182 105.473V101.355H80.0234V105.473ZM92.8594 99.2363V126.846H89.0449V111.013H83.626V107.895H89.0449V99.2363H92.8594ZM118.138 99.2363V109.802H122.043V112.98H118.138V126.725H114.263V99.2363H118.138ZM110.781 102.052C110.751 110.286 107.542 117.431 98.2783 121.972L96.0986 119.005C102.623 115.735 106.119 111.346 106.846 105.2H97.6729V102.052H110.781ZM155.465 110.438V113.495H130.338V110.438H155.465ZM152.407 115.009V122.032H137.059V123.697H153.134V126.604H133.274V119.338H148.593V117.824H133.244V115.009H152.407ZM153.194 100.114V103.142H145.444C146.292 104.822 149.198 106.411 154.375 106.714L153.164 109.681C148.063 109.302 144.536 107.698 142.871 105.382C141.221 107.683 137.725 109.302 132.669 109.681L131.458 106.714C136.589 106.411 139.465 104.822 140.328 103.142H132.639V100.114H153.194ZM180.35 99.2363V126.785H176.505V112.98H171.025V109.832H176.505V99.2363H180.35ZM171.177 102.112C171.177 110.438 168.482 117.219 158.855 122.002L156.857 118.975C163.82 115.539 166.696 111.164 167.302 105.14H158.159V102.112H171.177ZM207.444 99.2666V126.785H203.509V120.7H197.908V117.794H203.509V99.2666H207.444ZM183.801 113.223C188.947 113.223 195.819 113.192 201.753 112.405L201.965 115.221C199.543 115.66 197.045 115.932 194.608 116.099V125.968H190.703V116.28C188.417 116.356 186.253 116.371 184.285 116.371L183.801 113.223ZM192.822 100.356C196.879 100.356 199.876 102.718 199.906 106.018C199.876 109.408 196.879 111.648 192.822 111.648C188.705 111.648 185.738 109.408 185.738 106.018C185.738 102.718 188.705 100.356 192.822 100.356ZM192.822 103.293C190.764 103.293 189.371 104.353 189.371 106.018C189.371 107.743 190.764 108.712 192.822 108.712C194.82 108.712 196.213 107.743 196.243 106.018C196.213 104.353 194.82 103.293 192.822 103.293ZM235.932 120.397V123.576H210.714V120.397H216.345V113.646C214.21 112.375 212.924 110.422 212.924 107.985C212.924 103.535 217.283 100.568 223.277 100.568C229.241 100.568 233.631 103.535 233.661 107.985C233.646 110.362 232.39 112.299 230.331 113.586V120.397H235.932ZM223.277 103.626C219.342 103.626 216.738 105.2 216.738 107.985C216.738 110.68 219.342 112.345 223.277 112.345C227.183 112.345 229.816 110.68 229.847 107.985C229.816 105.2 227.183 103.626 223.277 103.626ZM220.159 120.397H226.426V115.039C225.442 115.236 224.382 115.342 223.277 115.342C222.172 115.342 221.128 115.251 220.159 115.039V120.397Z" fill="black"/>
<path d="M325.145 81.0957C323.668 81.0957 322.455 79.8828 322.455 78.3799C322.455 76.9033 323.668 75.6904 325.145 75.6904C326.647 75.6904 327.86 76.9033 327.86 78.3799C327.86 79.8828 326.647 81.0957 325.145 81.0957ZM348.453 86H345.975L352.962 66.9102H355.467L362.454 86H359.949L358.051 80.6211H350.378L348.453 86ZM351.09 78.5381H357.312L354.28 69.9951H354.122L351.09 78.5381ZM365.038 86V66.9102H371.524C376.007 66.9102 378.037 69.3887 378.037 72.79C378.037 75.3081 376.903 77.2988 374.478 78.1426L378.775 86H376.007L372.025 78.5645L371.551 78.5908H367.411V86H365.038ZM367.411 76.4287H371.445C374.478 76.4287 375.69 75.0576 375.69 72.79C375.69 70.4961 374.478 69.0195 371.419 69.0195H367.411V76.4287ZM400.502 66.4355V67.4639C400.476 69.1382 400.476 72.0386 399.737 76.1914C400.766 76.1255 401.807 76.0332 402.822 75.9277L402.98 77.5098C400.581 77.813 398.089 78.0107 395.65 78.1162V86.7383H393.567V78.1953C391.339 78.2876 389.177 78.3008 387.213 78.3008L386.923 76.5869C390.166 76.5474 393.91 76.521 397.628 76.3232C397.918 74.8994 398.103 73.6206 398.234 72.4736L388.874 73.291L388.531 71.5244L398.366 70.9707C398.445 69.8501 398.472 68.9141 398.472 68.1494H389.032V66.4355H400.502ZM406.593 64.6953V88.1357H404.536V64.6953H406.593ZM431.879 83.2842V85.0244H410.416V83.2842H431.879ZM422.176 69.8633C422.176 73.6074 426.816 76.7979 430.851 77.457L430.007 79.0918C426.421 78.3931 422.637 76.0991 421.147 72.8691C419.631 76.1255 415.861 78.4854 412.341 79.1973L411.471 77.5361C415.426 76.8506 420.04 73.6074 420.04 69.8633V68.7822H412.183V67.0684H430.033V68.7822H422.176V69.8633ZM440.817 66.2246C444.43 66.251 447.04 68.4658 447.066 71.7354C447.04 74.6753 444.931 76.7715 441.872 77.1406V81.1484C444.061 81.043 446.262 80.8848 448.306 80.6211L448.438 82.1768C443.48 83.0205 437.917 83.0732 433.804 83.0469L433.461 81.3066C435.346 81.2935 437.535 81.2803 439.789 81.2012V77.1406C436.678 76.7847 434.542 74.6885 434.568 71.7354C434.542 68.4658 437.152 66.251 440.817 66.2246ZM440.817 68.0176C438.365 68.0176 436.572 69.5469 436.599 71.7354C436.572 73.9238 438.365 75.4531 440.817 75.4531C443.243 75.4531 445.01 73.9238 445.036 71.7354C445.01 69.5469 443.243 68.0176 440.817 68.0176ZM451.865 64.6953V74.3721H455.688V76.165H451.865V88.1357H449.809V64.6953H451.865ZM485.325 83.4688V85.2354H463.862V83.4688H473.486V78.0635H465.813V76.4023H469.479V68.7031H465.761V66.9893H483.269V68.7031H479.551V76.4023H483.216V78.0635H475.517V83.4688H485.325ZM471.535 76.4023H477.521V68.7031H471.535V76.4023ZM506.551 64.7217V81.8604H504.494V64.7217H506.551ZM507.289 85.8945V87.6348H491.416V80.1201H493.473V85.8945H507.289ZM493.895 66.3564C497.401 66.3564 500.038 68.7295 500.038 72.1045C500.038 75.5322 497.401 77.8789 493.895 77.8789C490.388 77.8789 487.751 75.5322 487.751 72.1045C487.751 68.7295 490.388 66.3564 493.895 66.3564ZM493.895 68.1758C491.521 68.1758 489.755 69.8105 489.781 72.1045C489.755 74.4512 491.521 76.0596 493.895 76.0596C496.215 76.0596 498.008 74.4512 498.008 72.1045C498.008 69.8105 496.215 68.1758 493.895 68.1758ZM529.517 77.3779V79.0654H513.301V66.7256H529.253V68.4658H515.41V71.9463H528.752V73.6074H515.41V77.3779H529.517ZM531.995 83.3633V85.0771H510.532V83.3633H531.995ZM555.33 83.4951V85.2354H533.867V83.4951H543.518V79.0654H536.557V71.8408H550.584V68.1494H536.504V66.4355H552.614V73.5283H538.613V77.3516H553.168V79.0654H545.548V83.4951H555.33ZM571.915 71.8936C571.889 75.6641 574.604 79.8037 578.006 81.4121L576.819 83.0469C574.183 81.7681 571.955 78.9731 570.913 75.7959C569.832 79.25 567.472 82.2822 564.849 83.627L563.583 81.9922C566.958 80.3574 569.858 75.9014 569.885 71.8936V68.835H564.427V67.1211H577.188V68.835H571.915V71.8936ZM582.119 64.6953V74.1875H586.048V75.9541H582.119V88.1357H580.062V64.6953H582.119ZM590.346 65.6973V69.0723H597.175V65.6973H599.231V75.9014H588.315V65.6973H590.346ZM590.346 74.2139H597.175V70.6807H590.346V74.2139ZM605.639 64.6953V69.7842H609.172V71.5244H605.639V76.8242H603.582V64.6953H605.639ZM605.639 77.9316V83.6006H592.771V86.1846H606.509V87.8721H590.741V82.0186H603.582V79.5928H590.688V77.9316H605.639ZM618.796 69.0195C618.796 72.0781 621.143 74.9785 624.57 76.165L623.489 77.7998C620.839 76.8506 618.796 74.8862 617.794 72.4736C616.779 75.1763 614.617 77.3384 611.835 78.3535L610.754 76.7188C614.208 75.4795 616.713 72.3418 616.713 69.0459V68.0176H611.413V66.3301H624.043V68.0176H618.796V69.0195ZM630.081 79.9883V88.1357H627.998V81.7021H614.313V79.9883H630.081ZM630.081 64.6953V78.749H627.998V72.5791H623.305V70.8389H627.998V64.6953H630.081ZM653.337 64.7217V81.8604H651.28V64.7217H653.337ZM654.075 85.8945V87.6348H638.202V80.1201H640.259V85.8945H654.075ZM640.681 66.3564C644.188 66.3564 646.824 68.7295 646.824 72.1045C646.824 75.5322 644.188 77.8789 640.681 77.8789C637.174 77.8789 634.537 75.5322 634.537 72.1045C634.537 68.7295 637.174 66.3564 640.681 66.3564ZM640.681 68.1758C638.308 68.1758 636.541 69.8105 636.567 72.1045C636.541 74.4512 638.308 76.0596 640.681 76.0596C643.001 76.0596 644.794 74.4512 644.794 72.1045C644.794 69.8105 643.001 68.1758 640.681 68.1758ZM685.452 76.4023V78.0898H664.095V76.4023H673.745V73.5547H666.811V65.6445H682.815V67.3584H668.867V71.8408H683.026V73.5547H675.802V76.4023H685.452ZM682.842 80.3838V88.3203H680.785V82.0713H666.468V80.3838H682.842ZM695.683 70.9971C695.683 75.2422 698.398 79.5137 701.8 81.0693L700.561 82.7568C697.897 81.3857 695.696 78.5776 694.654 75.2422C693.613 78.749 691.411 81.7549 688.748 83.1787L687.403 81.5176C690.831 79.8301 693.573 75.3213 693.573 70.9971V66.7256H695.683V70.9971ZM706.862 64.6953V88.1885H704.806V74.3984H699.242V72.7109H704.806V64.6953H706.862ZM325.145 135.096C323.668 135.096 322.455 133.883 322.455 132.38C322.455 130.903 323.668 129.69 325.145 129.69C326.647 129.69 327.86 130.903 327.86 132.38C327.86 133.883 326.647 135.096 325.145 135.096ZM365.776 118.695V142.188H363.693V118.695H365.776ZM359.132 120.937V122.677H350.062V134.568C354.623 134.568 357.629 134.423 361.136 133.804L361.347 135.544C357.708 136.203 354.623 136.335 349.877 136.361H347.979V120.937H359.132ZM378.169 125.894C378.169 129.875 381.069 133.909 384.523 135.412L383.363 137.047C380.621 135.794 378.248 133.092 377.167 129.849C376.06 133.29 373.7 136.282 371.023 137.627L369.784 135.992C373.133 134.384 376.06 129.954 376.086 125.894V122.835H370.549V121.121H383.759V122.835H378.169V125.894ZM389.111 118.695V142.136H387.028V118.695H389.111ZM404.958 120.146V121.859H396.389V124.364H404.325V125.973H396.389V128.768C400.713 128.768 403.191 128.675 406.224 128.161L406.408 129.849C403.218 130.376 400.634 130.429 396.046 130.429H394.332V120.146H404.958ZM412.525 118.695V131.378H410.469V125.788H405.96V124.101H410.469V118.695H412.525ZM412.525 132.433V137.864H399.447V140.211H413.422V141.872H397.391V136.282H410.469V134.094H397.338V132.433H412.525ZM442.162 129.69V131.378H434.911V137.442H444.693V139.183H423.23V137.442H432.881V131.378H425.973V120.62H441.925V122.308H428.056V129.69H442.162ZM454.818 124.997C454.818 129.242 457.534 133.514 460.936 135.069L459.696 136.757C457.033 135.386 454.832 132.578 453.79 129.242C452.749 132.749 450.547 135.755 447.884 137.179L446.539 135.518C449.967 133.83 452.709 129.321 452.709 124.997V120.726H454.818V124.997ZM465.998 118.695V142.188H463.941V128.398H458.378V126.711H463.941V118.695H465.998ZM482.899 120.515V121.754C482.873 123.283 482.873 125.63 482.293 128.688L480.21 128.53C480.777 125.722 480.83 123.731 480.869 122.255H471.219V120.515H482.899ZM476.861 125.709V130.745C479.458 130.64 482.148 130.455 484.587 130.112L484.719 131.642C479.814 132.485 474.146 132.591 469.979 132.591L469.769 130.877C471.285 130.864 472.999 130.851 474.805 130.798V125.709H476.861ZM488.278 118.695V126.342H491.706V128.108H488.278V136.335H486.169V118.695H488.278ZM489.043 139.895V141.635H473.381V134.753H475.464V139.895H489.043ZM503.914 119.117C509.135 119.117 512.193 120.541 512.193 123.151C512.193 125.814 509.135 127.238 503.914 127.265C498.693 127.238 495.608 125.814 495.608 123.151C495.608 120.541 498.693 119.117 503.914 119.117ZM503.914 120.673C500.012 120.673 497.744 121.622 497.771 123.151C497.744 124.786 500.012 125.683 503.914 125.683C507.79 125.683 510.084 124.786 510.084 123.151C510.084 121.622 507.79 120.673 503.914 120.673ZM514.593 128.847V130.534H493.235V128.847H514.593ZM511.851 132.564V137.812H497.929V140.237H512.562V141.872H495.872V136.282H509.82V134.146H495.819V132.564H511.851ZM544.704 131.141V132.828H523.32V131.141H532.971V128.82H526.168V119.381H542.041V121.068H528.251V123.257H541.408V124.839H528.251V127.159H542.173V128.82H535.027V131.141H544.704ZM534.025 134.595C539.167 134.568 542.067 135.887 542.094 138.339C542.067 140.791 539.167 142.083 534.025 142.083C528.831 142.083 525.931 140.791 525.931 138.339C525.931 135.887 528.831 134.568 534.025 134.595ZM534.025 136.15C530.149 136.15 527.987 136.941 528.014 138.339C527.987 139.763 530.149 140.501 534.025 140.475C537.849 140.501 540.011 139.763 540.011 138.339C540.011 136.941 537.849 136.15 534.025 136.15ZM558.389 122.756V124.443H546.629V122.756H551.507V119.407H553.563V122.756H558.389ZM552.509 126.025C555.462 126.025 557.571 128.24 557.598 131.352C557.571 134.489 555.462 136.73 552.509 136.73C549.582 136.73 547.473 134.489 547.473 131.352C547.473 128.24 549.582 126.025 552.509 126.025ZM552.509 127.766C550.663 127.792 549.318 129.295 549.318 131.352C549.318 133.435 550.663 134.938 552.509 134.911C554.381 134.938 555.752 133.435 555.752 131.352C555.752 129.295 554.381 127.792 552.509 127.766ZM566.642 118.695V142.136H564.664V130.297H561.553V140.976H559.602V119.275H561.553V128.583H564.664V118.695H566.642ZM594.934 118.695V127.977H598.862V129.717H594.934V142.188H592.877V118.695H594.934ZM588.764 120.989V122.703H579.878V134.568C584.123 134.568 587.129 134.371 590.609 133.725L590.873 135.518C587.208 136.177 584.123 136.309 579.667 136.309H577.821V120.989H588.764ZM621.934 122.255V123.969H618.453V127.238H621.934V128.979H618.453V132.617H616.396V118.695H618.453V122.255H621.934ZM606.72 120.119C610.279 120.093 612.863 122.36 612.89 125.63C612.863 128.899 610.279 131.114 606.72 131.141C603.16 131.114 600.55 128.899 600.576 125.63C600.55 122.36 603.16 120.093 606.72 120.119ZM606.72 121.886C604.347 121.859 602.58 123.415 602.606 125.63C602.58 127.845 604.347 129.374 606.72 129.4C609.119 129.374 610.859 127.845 610.859 125.63C610.859 123.415 609.119 121.859 606.72 121.886ZM610.938 133.329C615.711 133.355 618.664 134.938 618.664 137.732C618.664 140.475 615.711 142.083 610.938 142.083C606.14 142.083 603.16 140.475 603.16 137.732C603.16 134.938 606.14 133.355 610.938 133.329ZM610.938 135.017C607.405 135.017 605.217 136.019 605.243 137.732C605.217 139.42 607.405 140.422 610.938 140.422C614.498 140.422 616.66 139.42 616.66 137.732C616.66 136.019 614.498 135.017 610.938 135.017ZM641.788 118.722V126.447H645.321V128.188H641.788V136.282H639.731V118.722H641.788ZM637.49 121.596V123.283H623.516V121.596H629.475V118.722H631.531V121.596H637.49ZM630.503 124.575C633.852 124.575 636.119 126.289 636.146 128.952C636.119 131.589 633.852 133.276 630.503 133.276C627.128 133.276 624.834 131.589 624.86 128.952C624.834 126.289 627.128 124.575 630.503 124.575ZM630.503 126.21C628.288 126.21 626.812 127.291 626.838 128.952C626.812 130.613 628.288 131.668 630.503 131.642C632.691 131.668 634.168 130.613 634.194 128.952C634.168 127.291 632.691 126.21 630.503 126.21ZM642.869 139.895V141.635H627.128V134.885H629.158V139.895H642.869ZM661.59 123.125C661.59 126.395 663.963 129.479 667.391 130.719L666.23 132.327C663.66 131.299 661.616 129.255 660.614 126.711C659.612 129.545 657.477 131.8 654.708 132.907L653.601 131.22C657.107 129.928 659.533 126.658 659.56 123.046V120.146H661.59V123.125ZM673.007 118.722V136.282H670.924V125.973H665.703V124.232H670.924V118.722H673.007ZM673.534 139.895V141.635H657.846V134.278H659.929V139.895H673.534ZM687.061 120.409V122.149H679.941V125.076H686.797V126.711H679.941V129.954C683.356 129.941 685.492 129.822 688.01 129.321L688.221 131.035C685.479 131.562 683.264 131.694 679.44 131.694H677.964V120.409H687.061ZM696.816 118.722V132.934H694.839V126.526H691.543V132.775H689.618V119.17H691.543V124.839H694.839V118.722H696.816ZM696.816 134.146V142.136H694.786V135.834H681.022V134.146H696.816ZM708.629 125.894C708.629 129.875 711.529 133.909 714.983 135.412L713.823 137.047C711.081 135.794 708.708 133.092 707.627 129.849C706.52 133.29 704.16 136.282 701.483 137.627L700.244 135.992C703.593 134.384 706.52 129.954 706.546 125.894V122.835H701.009V121.121H714.219V122.835H708.629V125.894ZM719.571 118.695V142.136H717.488V118.695H719.571ZM325.145 189.096C323.668 189.096 322.455 187.883 322.455 186.38C322.455 184.903 323.668 183.69 325.145 183.69C326.647 183.69 327.86 184.903 327.86 186.38C327.86 187.883 326.647 189.096 325.145 189.096ZM354.386 179.894C354.359 183.664 357.075 187.804 360.477 189.412L359.29 191.047C356.653 189.768 354.425 186.973 353.384 183.796C352.303 187.25 349.943 190.282 347.319 191.627L346.054 189.992C349.429 188.357 352.329 183.901 352.355 179.894V176.835H346.897V175.121H359.659V176.835H354.386V179.894ZM364.59 172.695V182.188H368.519V183.954H364.59V196.136H362.533V172.695H364.59ZM389.164 172.695V196.136H387.081V172.695H389.164ZM382.229 175.253C382.203 182.003 379.065 187.962 371.208 191.732L370.074 190.045C376.416 187.039 379.646 182.543 380.12 176.94H371.155V175.253H382.229ZM404.958 176.018C404.932 179.155 409.124 181.818 413.211 182.425L412.446 184.06C408.781 183.44 405.222 181.489 403.798 178.654C402.374 181.489 398.801 183.44 395.202 184.06L394.385 182.425C398.445 181.818 402.638 179.155 402.638 176.018V175.859H395.123V174.172H412.446V175.859H404.958V176.018ZM414.477 186.063V187.777H404.773V196.136H402.743V187.777H393.119V186.063H414.477ZM435.386 183.69V185.378H428.135V191.442H437.917V193.183H416.454V191.442H426.104V185.378H419.196V174.62H435.148V176.308H421.279V183.69H435.386ZM467.923 184.402V186.09H446.565V184.402H456.216V181.555H449.281V173.645H465.286V175.358H451.338V179.841H465.497V181.555H458.272V184.402H467.923ZM465.312 188.384V196.32H463.256V190.071H448.938V188.384H465.312ZM478.153 178.997C478.153 183.242 480.869 187.514 484.271 189.069L483.031 190.757C480.368 189.386 478.167 186.578 477.125 183.242C476.083 186.749 473.882 189.755 471.219 191.179L469.874 189.518C473.302 187.83 476.044 183.321 476.044 178.997V174.726H478.153V178.997ZM489.333 172.695V196.188H487.276V182.398H481.713V180.711H487.276V172.695H489.333ZM504.784 186.775V189.518H516.491V186.775H518.574V195.819H502.728V186.775H504.784ZM504.784 194.158H516.491V191.152H504.784V194.158ZM521.369 183.4V185.114H500.012V183.4H521.369ZM511.771 174.066C511.771 176.967 516.043 179.551 520.156 180.078L519.392 181.739C515.753 181.199 512.193 179.34 510.717 176.703C509.214 179.353 505.628 181.199 502.016 181.739L501.225 180.078C505.391 179.524 509.636 177.046 509.636 174.066V172.959H511.771V174.066ZM536.346 174.515V175.754C536.319 177.283 536.319 179.63 535.739 182.688L533.656 182.53C534.223 179.722 534.276 177.731 534.315 176.255H524.665V174.515H536.346ZM530.308 179.709V184.745C532.905 184.64 535.594 184.455 538.033 184.112L538.165 185.642C533.261 186.485 527.592 186.591 523.426 186.591L523.215 184.877C524.731 184.864 526.445 184.851 528.251 184.798V179.709H530.308ZM541.725 172.695V180.342H545.152V182.108H541.725V190.335H539.615V172.695H541.725ZM542.489 193.895V195.635H526.827V188.753H528.91V193.895H542.489ZM561.395 179.894C561.368 183.664 564.084 187.804 567.485 189.412L566.299 191.047C563.662 189.768 561.434 186.973 560.393 183.796C559.312 187.25 556.952 190.282 554.328 191.627L553.062 189.992C556.438 188.357 559.338 183.901 559.364 179.894V176.835H553.906V175.121H566.668V176.835H561.395V179.894ZM571.599 172.695V182.188H575.527V183.954H571.599V196.136H569.542V172.695H571.599ZM596.226 172.722V190.045H594.143V183.717H588.078C586.997 185.101 585.257 185.932 583.253 185.932C579.746 185.932 577.162 183.506 577.162 180.078C577.162 176.65 579.746 174.225 583.253 174.198C585.244 174.211 586.944 175.029 588.052 176.387H594.143V172.722H596.226ZM596.885 193.895V195.635H581.17V188.226H583.253V193.895H596.885ZM583.253 176.044C580.854 176.07 579.14 177.731 579.14 180.078C579.14 182.425 580.854 184.086 583.253 184.086C585.547 184.086 587.313 182.425 587.313 180.078C587.313 177.731 585.547 176.07 583.253 176.044ZM589.001 178.101C589.199 178.707 589.317 179.366 589.317 180.078C589.317 180.764 589.199 181.41 589.001 182.003H594.143V178.101H589.001ZM611.809 176.149C611.809 180.157 616.396 183.743 620.483 184.508L619.534 186.248C616.001 185.431 612.27 182.913 610.754 179.445C609.238 182.899 605.52 185.417 601.974 186.248L601.024 184.508C605.085 183.717 609.646 180.184 609.646 176.149V174.356H611.809V176.149ZM621.591 191.231V192.945H600.128V191.231H621.591ZM642.896 172.722V185.589H640.812V179.313H636.356V177.6H640.812V172.722H642.896ZM629.606 186.696V189.57H640.839V186.696H642.896V195.819H627.55V186.696H629.606ZM629.606 194.132H640.839V191.231H629.606V194.132ZM634.854 173.697V180.025H626.521V183.269C630.384 183.255 633.285 183.124 636.805 182.557L636.989 184.297C633.298 184.851 630.292 184.982 626.231 184.982H624.465V178.417H632.85V175.385H624.412V173.697H634.854ZM666.863 172.695V196.136H664.886V172.695H666.863ZM661.933 173.328V194.949H659.955V184.007H654.998C653.561 186.736 651.307 189.148 648.037 191.073L646.824 189.57C651.926 186.551 654.484 182.319 654.866 177.415H647.826V175.701H656.923C656.91 178.008 656.541 180.236 655.763 182.319H659.955V173.328H661.933ZM690.198 175.332V177.02H676.936V175.332H682.631V172.511H684.688V175.332H690.198ZM683.633 178.232C686.771 178.232 688.985 179.946 688.985 182.557C688.985 185.193 686.771 186.907 683.633 186.907C680.469 186.907 678.307 185.193 678.333 182.557C678.307 179.946 680.469 178.232 683.633 178.232ZM683.633 179.788C681.603 179.814 680.258 180.922 680.258 182.557C680.258 184.218 681.603 185.299 683.633 185.299C685.663 185.299 687.034 184.218 687.061 182.557C687.034 180.922 685.663 179.814 683.633 179.788ZM696.342 172.695V187.856H694.259V184.613H690.172V182.899H694.259V180.052H690.198V178.338H694.259V172.695H696.342ZM688.616 188.094C693.494 188.094 696.474 189.544 696.474 192.102C696.474 194.606 693.494 196.083 688.616 196.083C683.686 196.083 680.732 194.606 680.732 192.102C680.732 189.544 683.686 188.094 688.616 188.094ZM688.616 189.702C685.057 189.702 682.868 190.572 682.868 192.102C682.868 193.578 685.057 194.475 688.616 194.475C692.123 194.475 694.285 193.578 694.285 192.102C694.285 190.572 692.123 189.702 688.616 189.702ZM708.312 176.387C708.286 179.735 710.659 182.688 714.113 183.849L712.953 185.457C710.369 184.481 708.339 182.583 707.337 180.104C706.322 182.913 704.173 185.101 701.352 186.169L700.218 184.481C703.83 183.216 706.229 180.104 706.256 176.466V174.04H708.312V176.387ZM719.677 172.695V186.591H717.594V179.445H712.373V177.731H717.594V172.695H719.677ZM711.898 187.276C716.776 187.276 719.756 188.885 719.756 191.706C719.756 194.501 716.776 196.083 711.898 196.083C707.021 196.083 704.041 194.501 704.041 191.706C704.041 188.885 707.021 187.276 711.898 187.276ZM711.898 188.911C708.312 188.911 706.071 189.966 706.098 191.706C706.071 193.394 708.312 194.422 711.898 194.422C715.484 194.422 717.699 193.394 717.699 191.706C717.699 189.966 715.484 188.911 711.898 188.911Z" fill="black"/>
<path d="M292 64L292 196" stroke="#F2F2F7" stroke-width="2"/>
<defs>
<linearGradient id="paint0_linear_590_879" x1="-0.722946" y1="130" x2="1112.71" y2="130" gradientUnits="userSpaceOnUse">
<stop stop-color="#3182F6"/>
<stop offset="1" stop-color="#A009FF"/>
</linearGradient>
<linearGradient id="paint1_linear_590_879" x1="41.7922" y1="153" x2="361.904" y2="153" gradientUnits="userSpaceOnUse">
<stop stop-color="#3182F6"/>
<stop offset="1" stop-color="#A009FF"/>
</linearGradient>
</defs>
</svg>
