<svg width="1072" height="197" viewBox="0 0 1072 197" fill="none" xmlns="http://www.w3.org/2000/svg">
<rect x="0.5" y="0.5" width="1071" height="196" rx="14.5" fill="white" stroke="url(#paint0_linear_469_1792)"/>
<path d="M426 33L426 165" stroke="#F2F2F7" stroke-width="2"/>
<path d="M76.5391 117.102V118.602C76.5391 120.5 76.5391 123.148 75.9531 126.805L73.375 126.594C73.8789 123.383 73.9375 121.016 73.9609 119.188H65.6406V117.102H76.5391ZM71.1953 123.148V129.406C73.3516 129.324 75.5664 129.172 77.5938 128.914L77.7344 130.859C73.3516 131.562 68.5 131.656 64.7734 131.633L64.5156 129.547C65.7695 129.535 67.1641 129.523 68.6172 129.477V123.148H71.1953ZM81.3203 114.898V123.523H84.3906V125.727H81.3203V136.086H78.6953V114.898H81.3203ZM92.3125 116.211C95.6641 116.211 98.125 118.32 98.1484 121.32C98.125 123.934 96.2852 125.844 93.625 126.312V129.406C95.5117 129.312 97.4219 129.148 99.2266 128.891L99.4375 130.766C94.6797 131.656 89.5938 131.703 85.8672 131.703L85.5391 129.57C87.1562 129.57 89.043 129.57 91.0234 129.5V126.312C88.3633 125.855 86.5 123.934 86.5 121.32C86.5 118.32 88.9844 116.211 92.3125 116.211ZM92.3125 118.461C90.4609 118.461 89.0781 119.539 89.0781 121.32C89.0781 123.078 90.4609 124.203 92.3125 124.203C94.1875 124.203 95.5938 123.078 95.5938 121.32C95.5938 119.539 94.1875 118.461 92.3125 118.461ZM103.094 114.898V136.109H100.492V114.898H103.094ZM111.133 126.969V129.406H120.531V126.969H123.109V135.828H108.578V126.969H111.133ZM111.133 133.719H120.531V131.422H111.133V133.719ZM123.18 115.812V117.453C123.18 119.059 123.18 120.828 122.664 123.312H125.547V125.398H106.188V123.312H120.086C120.531 121.074 120.578 119.387 120.578 117.898H108.578V115.812H123.18ZM143.922 116V124.836H133.703V116H143.922ZM136.281 118.086V122.797H141.344V118.086H136.281ZM150.227 114.898V125.68H147.648V114.898H150.227ZM150.227 126.641V132.125H138.812V133.836H150.859V135.898H136.234V130.25H147.695V128.68H136.211V126.641H150.227ZM160.984 119.492C160.984 121.812 162.695 124.133 166.047 125.047L164.828 127.133C162.402 126.43 160.668 124.953 159.719 123.102C158.781 125.141 157.023 126.734 154.539 127.484L153.273 125.445C156.602 124.484 158.383 122.023 158.383 119.492V119.328H153.953V117.266H158.383V114.828H161.008V117.266H165.414V119.328H160.984V119.492ZM170.078 114.898V120.266H173.031V122.469H170.078V127.859H167.477V114.898H170.078ZM170.078 128.82V136.109H167.477V130.906H155.969V128.82H170.078ZM185.945 117.102V118.602C185.945 120.5 185.945 123.148 185.359 126.805L182.781 126.594C183.285 123.383 183.344 121.016 183.367 119.188H175.047V117.102H185.945ZM180.602 123.148V129.406C182.758 129.324 184.973 129.172 187 128.914L187.141 130.859C182.758 131.562 177.906 131.656 174.18 131.633L173.922 129.547C175.176 129.535 176.57 129.523 178.023 129.477V123.148H180.602ZM190.727 114.898V123.523H193.797V125.727H190.727V136.086H188.102V114.898H190.727ZM213.133 116.938V119H200.57V116.938H205.562V114.805H208.164V116.938H213.133ZM206.852 119.82C209.922 119.82 212.008 121.367 212.031 123.688C212.008 126.008 209.922 127.555 206.852 127.555C203.781 127.555 201.648 126.008 201.648 123.688C201.648 121.367 203.781 119.82 206.852 119.82ZM206.852 121.789C205.234 121.789 204.18 122.492 204.18 123.688C204.18 124.883 205.234 125.562 206.852 125.539C208.469 125.562 209.547 124.883 209.547 123.688C209.547 122.492 208.469 121.789 206.852 121.789ZM217.258 114.898V120.523H220.211V122.656H217.258V128.164H214.656V114.898H217.258ZM217.258 129.148V136.086H214.656V131.234H203.148V129.148H217.258ZM239.055 114.922V130.953H236.43V129.102H232.281V127.273H236.43V114.922H239.055ZM239.547 133.555V135.664H224.008V129.406H226.609V133.555H239.547ZM221.195 124.438C225.109 124.414 230.359 124.367 234.859 123.805L235 125.68C233.254 125.973 231.449 126.172 229.656 126.289V130.367H227.055V126.43C225.074 126.512 223.188 126.523 221.523 126.523L221.195 124.438ZM228.109 115.695C231.203 115.695 233.359 117.219 233.383 119.445C233.359 121.719 231.203 123.172 228.109 123.172C224.969 123.172 222.812 121.719 222.812 119.445C222.812 117.219 224.969 115.695 228.109 115.695ZM228.109 117.617C226.422 117.617 225.273 118.297 225.273 119.445C225.273 120.594 226.422 121.273 228.109 121.273C229.727 121.273 230.875 120.594 230.898 119.445C230.875 118.297 229.727 117.617 228.109 117.617ZM248.898 116.375C252.25 116.352 254.711 118.484 254.734 121.484C254.711 124.508 252.25 126.617 248.898 126.617C245.57 126.617 243.086 124.508 243.086 121.484C243.086 118.484 245.57 116.352 248.898 116.375ZM248.898 118.625C247.047 118.625 245.664 119.727 245.664 121.484C245.664 123.266 247.047 124.344 248.898 124.344C250.773 124.344 252.18 123.266 252.18 121.484C252.18 119.727 250.773 118.625 248.898 118.625ZM259.68 114.898V136.109H257.078V114.898H259.68ZM242.125 129.547C245.945 129.547 251.242 129.5 255.812 128.844L256.023 130.742C251.266 131.656 246.18 131.68 242.453 131.68L242.125 129.547ZM274.938 121.367C274.938 124.648 276.297 127.953 279.25 129.547L277.797 131.469C275.828 130.426 274.492 128.562 273.742 126.336C272.992 128.738 271.656 130.789 269.664 131.961L268.141 129.992C271.141 128.258 272.477 124.719 272.477 121.367V120.711H268.867V118.602H272.477V115.648H274.938V118.602H278.477V120.711H274.938V121.367ZM286.703 114.898V136.086H284.219V114.898H286.703ZM282.391 115.297V135.055H279.93V125.188H277.164V123.031H279.93V115.297H282.391ZM307.492 114.898V136.086H305.008V114.898H307.492ZM303.109 115.414V135.078H300.625V128H297.32V125.867H300.625V122.727H297.695C296.699 126.242 294.484 129.266 290.523 131.609L289 129.758C293.395 127.168 295.41 123.852 295.797 119.586H290.125V117.477H298.375C298.375 118.543 298.305 119.586 298.164 120.594H300.625V115.414H303.109Z" fill="url(#paint1_linear_469_1792)"/>
<path d="M76.4297 72.5703C76.4297 76.4023 78.7852 80.3047 84.0586 81.8867L81.7734 85.4023C78.1875 84.2773 75.6562 81.9746 74.2148 79.0742C72.7559 82.2207 70.1543 84.752 66.4102 86L64.0898 82.4844C69.3984 80.7617 71.8594 76.6133 71.8594 72.5703V72.1133H65.2852V68.5273H82.8633V72.1133H76.4297V72.5703ZM90.7383 66.2773V89.4102H86.2383V66.2773H90.7383ZM91.582 94.0859V97.6719H69.293V87.3008H73.8281V94.0859H91.582ZM121.359 66.2422V78.3008H124.945V82.0273H121.359V98.2344H116.859V88.2852L114.117 91.4492C112.061 89.832 110.812 87.4062 110.074 84.5938C109.23 87.4941 107.859 90.043 105.574 91.6953C103.342 90.0605 101.988 87.5293 101.18 84.6289C100.406 87.4414 99.1582 89.8496 97.1016 91.4492L94.2891 88.1797C98.332 85.1914 98.9297 79.5312 98.9648 74.2578V72.6055H95.5547V69.0195H105.047V72.6055H103.184V74.2578C103.184 78.0195 103.5 82.4316 105.609 85.7539C107.666 82.4492 108.035 78.0723 108.035 74.2578V72.6055H106.172V69.0195H115.172V72.6055H112.324V74.2578C112.289 79.5488 112.904 85.1211 116.859 88.1094V66.2422H121.359ZM163.758 90.8164V94.4023H134.473V90.8164H146.707V83.5742H151.172V90.8164H163.758ZM151.312 70.3555C151.312 74.9258 155.426 79.7422 162.738 80.8672L160.84 84.5938C155.215 83.5742 151.031 80.5684 148.922 76.5781C146.812 80.5508 142.664 83.5918 137.074 84.5938L135.176 80.8672C142.418 79.7422 146.496 74.8906 146.531 70.3555V68.0703H151.312V70.3555ZM182.566 68.7383C182.566 72.5 186.398 76.6836 193.746 77.5977L191.988 81.2188C186.398 80.4102 182.303 77.8262 180.211 74.3633C178.102 77.8262 174.041 80.4102 168.504 81.2188L166.711 77.5977C173.988 76.6836 177.855 72.5 177.855 68.7383V67.1914H182.566V68.7383ZM194.766 83.6445V87.3008H182.32V98.2344H177.891V87.3008H165.586V83.6445H194.766ZM223.664 66.2422V85.2266H219.199V77.668H214.207V74.0469H219.199V66.2422H223.664ZM212.73 85.9297C219.551 85.9648 223.734 88.2148 223.77 92.1172C223.734 95.9844 219.551 98.2695 212.73 98.2695C205.91 98.2695 201.727 95.9844 201.727 92.1172C201.727 88.2148 205.91 85.9648 212.73 85.9297ZM212.73 89.375C208.477 89.375 206.191 90.2539 206.191 92.1172C206.191 93.9453 208.477 94.8594 212.73 94.8594C216.984 94.8594 219.305 93.9453 219.305 92.1172C219.305 90.2539 216.984 89.375 212.73 89.375ZM215.156 68.1758V71.7617H208.793C208.898 75.4883 211.148 79.25 216.141 80.9023L213.926 84.418C210.393 83.2754 207.967 80.9551 206.578 78.0547C205.154 81.3242 202.605 83.9609 198.809 85.2617L196.488 81.7109C201.744 79.9531 204.1 75.7695 204.223 71.7617H197.789V68.1758H215.156ZM255.551 66.2422V98.2344H251.262V66.2422H255.551ZM249.012 66.6992V96.7578H244.793V86.8438H241.031C239.836 89.9551 237.744 91.7305 235.055 91.7305C230.836 91.7305 228.094 87.3008 228.094 80.0938C228.094 72.9219 230.836 68.5273 235.055 68.5273C237.727 68.5273 239.818 70.2676 241.031 73.3438H244.793V66.6992H249.012ZM235.055 72.7461C233.191 72.7461 232.137 75.207 232.172 80.0938C232.137 85.0156 233.191 87.4414 235.055 87.4062C236.918 87.4414 238.043 85.0156 238.043 80.0938C238.043 75.207 236.883 72.7461 235.055 72.7461ZM241.91 76.9297C242.051 77.9141 242.121 78.9688 242.121 80.0938C242.121 81.2012 242.051 82.2559 241.91 83.2227H244.793V76.9297H241.91Z" fill="black"/>
<path d="M548.922 54.3672C547.828 54.3672 546.93 53.4688 546.93 52.3555C546.93 51.2617 547.828 50.3633 548.922 50.3633C550.035 50.3633 550.934 51.2617 550.934 52.3555C550.934 53.4688 550.035 54.3672 548.922 54.3672ZM570.25 58.1953C567.789 58.1562 565.094 56.7109 565.094 51.4766C565.094 46.4766 567.145 43.6641 570.465 43.6641C572.945 43.6641 574.684 45.1875 575.055 47.4141H573.316C572.984 46.1641 572.047 45.2266 570.465 45.2266C568.141 45.2266 566.754 47.2188 566.754 50.6172H566.93C567.75 49.4453 569.039 48.7422 570.562 48.7422C573.082 48.7422 575.172 50.6953 575.172 53.4297C575.172 56.0859 573.219 58.2148 570.25 58.1953ZM570.25 56.6523C572.086 56.6523 573.453 55.207 573.473 53.4492C573.453 51.7109 572.145 50.2852 570.289 50.2852C568.434 50.2852 567.008 51.7891 566.988 53.4688C566.988 55.1289 568.355 56.6523 570.25 56.6523ZM578.16 50.7148C578.785 49.9922 579.566 49.6016 580.426 49.6016C581.91 49.6016 583.258 50.7344 584.684 50.7344C585.562 50.7344 586.324 50.3047 586.91 49.5039V51.125C586.266 51.8672 585.504 52.2383 584.645 52.2383C583.16 52.2383 581.812 51.1055 580.367 51.1055C579.508 51.1055 578.746 51.5352 578.16 52.3359V50.7148ZM594.859 58.1953C591.891 58.1953 589.82 56.5547 589.84 54.25C589.82 52.4141 591.09 50.9102 592.711 50.6562V50.5781C591.305 50.2461 590.387 48.957 590.387 47.4141C590.387 45.2461 592.281 43.6641 594.859 43.6641C597.438 43.6641 599.332 45.2461 599.352 47.4141C599.332 48.957 598.395 50.2461 597.008 50.5781V50.6562C598.609 50.9102 599.879 52.4141 599.898 54.25C599.879 56.5547 597.809 58.1953 594.859 58.1953ZM594.859 56.6523C596.891 56.6523 598.141 55.6367 598.141 54.1523C598.141 52.5898 596.754 51.4375 594.859 51.4375C592.965 51.4375 591.559 52.5898 591.598 54.1523C591.559 55.6367 592.828 56.6523 594.859 56.6523ZM594.859 49.9531C596.461 49.9531 597.633 48.9766 597.633 47.5508C597.633 46.1445 596.52 45.1875 594.859 45.1875C593.18 45.1875 592.086 46.1445 592.086 47.5508C592.086 48.9766 593.238 49.9531 594.859 49.9531ZM616.031 42.2188V52.5117H614.488V49.7773H610.426V51.2617H602.457V43.5469H610.426V45.0508H614.488V42.2188H616.031ZM603.98 44.7969V50.0117H608.922V44.7969H603.98ZM610.27 53.0195C613.883 53.0195 616.09 54.2109 616.09 56.3008C616.09 58.3711 613.883 59.543 610.27 59.543C606.656 59.543 604.449 58.3711 604.449 56.3008C604.449 54.2109 606.656 53.0195 610.27 53.0195ZM610.27 54.2109C607.613 54.2305 605.953 54.9922 605.973 56.3008C605.953 57.5508 607.613 58.332 610.27 58.332C612.926 58.332 614.566 57.5508 614.566 56.3008C614.566 54.9922 612.926 54.2305 610.27 54.2109ZM610.426 48.4883H614.488V46.3203H610.426V48.4883ZM632.652 43.8398C632.652 46.2812 635.855 48.4102 638.98 48.8398L638.355 50.0898C635.66 49.6406 632.994 48.1465 631.871 46.0078C630.758 48.1562 628.082 49.6406 625.387 50.0898L624.762 48.8398C627.887 48.4102 631.07 46.3203 631.07 43.8398V42.8438H632.652V43.8398ZM639.762 52.0039V53.293H632.574V59.582H631.07V53.293H623.941V52.0039H639.762ZM646.012 43.0391C648.346 43.0195 650.113 44.377 650.445 46.3789H654.078V42.2188H655.621V51.5352H654.078V47.6484H650.465C650.152 49.6992 648.365 51.0664 646.012 51.0664C643.375 51.0664 641.5 49.4258 641.5 47.043C641.5 44.6797 643.375 43.0195 646.012 43.0391ZM646.012 44.3477C644.234 44.3281 642.965 45.4414 642.965 47.043C642.965 48.625 644.234 49.7773 646.012 49.7773C647.77 49.7773 649.02 48.625 649.02 47.043C649.02 45.4414 647.77 44.3281 646.012 44.3477ZM645.973 52.4141V54.6211H654.078V52.4141H655.621V59.3477H644.43V52.4141H645.973ZM645.973 58.0977H654.078V55.8516H645.973V58.0977ZM666.422 43.3516C670.055 43.3516 672.77 45.2461 672.77 48.1172C672.77 51.0078 670.055 52.9023 666.422 52.8828C662.789 52.9023 660.074 51.0078 660.074 48.1172C660.074 45.2461 662.789 43.3516 666.422 43.3516ZM666.422 44.6016C663.629 44.582 661.52 46.0469 661.539 48.1172C661.52 50.2266 663.629 51.6328 666.422 51.6328C669.195 51.6328 671.285 50.2266 671.285 48.1172C671.285 46.0469 669.195 44.582 666.422 44.6016ZM674.41 55.9883V57.2773H658.512V55.9883H674.41ZM691.695 56.1445V57.4336H675.797V56.1445H682.945V52.8633H677.789V47.5117H688.18V44.7773H677.75V43.5078H689.684V48.7617H679.312V51.5938H690.094V52.8633H684.449V56.1445H691.695ZM703.727 43.8594V58H701.949V45.6953H701.871L698.434 47.9805V46.2031L701.949 43.8594H703.727ZM708.707 56.125C708.023 56.125 707.438 55.5586 707.457 54.8555C707.438 54.1719 708.023 53.6055 708.707 53.6055C709.391 53.6055 709.957 54.1719 709.957 54.8555C709.957 55.5586 709.391 56.125 708.707 56.125ZM708.707 48.2734C708.023 48.2734 707.438 47.707 707.457 47.0039C707.438 46.3203 708.023 45.7539 708.707 45.7539C709.391 45.7539 709.957 46.3203 709.957 47.0039C709.957 47.707 709.391 48.2734 708.707 48.2734ZM717.574 43.8594V58H715.797V45.6953H715.719L712.281 47.9805V46.2031L715.797 43.8594H717.574ZM734.449 43.8398C734.449 46.2812 737.652 48.4102 740.777 48.8398L740.152 50.0898C737.457 49.6406 734.791 48.1465 733.668 46.0078C732.555 48.1562 729.879 49.6406 727.184 50.0898L726.559 48.8398C729.684 48.4102 732.867 46.3203 732.867 43.8398V42.8438H734.449V43.8398ZM741.559 52.0039V53.293H734.371V59.582H732.867V53.293H725.738V52.0039H741.559ZM751.93 44.3867C751.91 46.5156 754.84 48.2539 757.906 48.6836L757.301 49.8945C754.498 49.4941 751.881 48.0879 750.934 46.0469C749.996 48.0879 747.389 49.4941 744.566 49.8945L744 48.6836C747.066 48.2539 749.938 46.5156 749.938 44.3867V44.3477H744.469V43.0977H757.438V44.3477H751.93V44.3867ZM758.902 51.1641V52.4336H751.832V55.9883H750.309V52.4336H743.004V51.1641H758.902ZM757.125 57.9219V59.2109H745.035V54.25H746.578V57.9219H757.125ZM765.992 43.4883C768.727 43.4883 770.66 45.1484 770.66 47.5703C770.66 49.9922 768.727 51.6523 765.992 51.6523C763.258 51.6523 761.285 49.9922 761.305 47.5703C761.285 45.1484 763.258 43.4883 765.992 43.4883ZM765.992 44.8359C764.137 44.8359 762.789 45.9492 762.809 47.5703C762.789 49.1914 764.137 50.3047 765.992 50.3047C767.828 50.3047 769.156 49.1914 769.156 47.5703C769.156 45.9492 767.828 44.8359 765.992 44.8359ZM774.547 42.2188V59.6211H773.023V42.2188H774.547ZM760.406 54.4844C763.609 54.4844 768.023 54.4648 771.871 53.8984L771.988 55.0312C768.023 55.7734 763.746 55.793 760.621 55.793L760.406 54.4844ZM784.859 42.9609V45.4609H789.918V42.9609H791.441V50.5195H783.355V42.9609H784.859ZM784.859 49.2695H789.918V46.6523H784.859V49.2695ZM796.188 42.2188V45.9883H798.805V47.2773H796.188V51.2031H794.664V42.2188H796.188ZM796.188 52.0234V56.2227H786.656V58.1367H796.832V59.3867H785.152V55.0508H794.664V53.2539H785.113V52.0234H796.188ZM813.375 42.2188V49.6211H816.148V50.9102H813.375V59.582H811.832V42.2188H813.375ZM799.684 54.9531C801.1 54.9531 802.75 54.9531 804.469 54.8945V52.9609C802.447 52.7363 801.129 51.5547 801.148 49.8359C801.129 47.8828 802.789 46.6133 805.25 46.6133C807.672 46.6133 809.352 47.8828 809.371 49.8359C809.352 51.5547 808.014 52.7363 806.012 52.9805V54.8359C807.633 54.7578 809.264 54.6309 810.777 54.4062L810.875 55.5781C807.086 56.2227 802.984 56.2617 799.938 56.2617L799.684 54.9531ZM810.465 44.3477V45.5977H799.996V44.3477H804.469V42.2578H806.012V44.3477H810.465ZM805.25 47.8047C803.648 47.8047 802.574 48.625 802.574 49.8359C802.574 51.0469 803.648 51.8281 805.25 51.8086C806.832 51.8281 807.906 51.0469 807.906 49.8359C807.906 48.625 806.832 47.8047 805.25 47.8047ZM822.418 43.3516C825.094 43.3711 827.027 45.0117 827.047 47.4336C827.027 49.6113 825.465 51.1641 823.199 51.4375V54.4062C824.82 54.3281 826.451 54.2109 827.965 54.0156L828.062 55.168C824.391 55.793 820.27 55.832 817.223 55.8125L816.969 54.5234C818.365 54.5137 819.986 54.5039 821.656 54.4453V51.4375C819.352 51.1738 817.77 49.6211 817.789 47.4336C817.77 45.0117 819.703 43.3711 822.418 43.3516ZM822.418 44.6797C820.602 44.6797 819.273 45.8125 819.293 47.4336C819.273 49.0547 820.602 50.1875 822.418 50.1875C824.215 50.1875 825.523 49.0547 825.543 47.4336C825.523 45.8125 824.215 44.6797 822.418 44.6797ZM830.602 42.2188V49.3867H833.434V50.7148H830.602V59.582H829.078V42.2188H830.602ZM853.844 42.2188V59.582H852.301V42.2188H853.844ZM849.84 44.1133V45.3828H847.867V53.7422C848.844 53.6738 849.811 53.5859 850.738 53.4688L850.836 54.6211C847.047 55.207 842.867 55.2656 839.645 55.2852L839.469 53.9766L841.871 53.957V45.3828H839.918V44.1133H849.84ZM843.375 53.9375C844.352 53.918 845.357 53.8789 846.363 53.8203V45.3828H843.375V53.9375ZM870.797 50.5781V51.8477H858.805V43.8398H870.621V45.1094H860.328V50.5781H870.797ZM872.672 55.9297V57.2188H856.773V55.9297H872.672ZM876.305 43.332V46.0859H880.172V43.332H881.617V51.418H874.859V43.332H876.305ZM876.305 50.1484H880.172V47.3164H876.305V50.1484ZM888.805 42.2383V52.6484H887.34V48.0195H885.035V52.5508H883.59V42.5703H885.035V46.75H887.34V42.2383H888.805ZM888.805 53.7031V59.582H887.301V54.9727H877.105V53.7031H888.805ZM548.922 86.3672C547.828 86.3672 546.93 85.4688 546.93 84.3555C546.93 83.2617 547.828 82.3633 548.922 82.3633C550.035 82.3633 550.934 83.2617 550.934 84.3555C550.934 85.4688 550.035 86.3672 548.922 86.3672ZM579.332 82.2852V83.5352H573.043V75.8789H579.117V77.1289H574.586V82.2852H579.332ZM580.602 88.0859V89.3555H564.703V88.0859H571.832V84.4141H573.336V88.0859H580.602ZM571.988 75.8789V77.1484H567.613V82.2656C569.078 82.2559 570.533 82.1387 572.145 81.7773L572.281 83.0664C570.387 83.4961 568.785 83.5547 567.047 83.5352H566.09V75.8789H571.988ZM589.078 76.1133V82.1875H584.059V86.1328C586.051 86.123 587.936 86.0352 590.191 85.6641L590.328 86.9141C587.867 87.3438 585.895 87.4219 583.707 87.4219H582.574V80.918H587.594V77.4023H582.535V76.1133H589.078ZM596.832 74.2188V91.582H595.367V82.3633H592.809V90.6836H591.402V74.6094H592.809V81.0938H595.367V74.2188H596.832ZM604.508 75.3516C607.184 75.3711 609.117 77.0117 609.137 79.4336C609.117 81.6113 607.555 83.1641 605.289 83.4375V86.4062C606.91 86.3281 608.541 86.2109 610.055 86.0156L610.152 87.168C606.48 87.793 602.359 87.832 599.312 87.8125L599.059 86.5234C600.455 86.5137 602.076 86.5039 603.746 86.4453V83.4375C601.441 83.1738 599.859 81.6211 599.879 79.4336C599.859 77.0117 601.793 75.3711 604.508 75.3516ZM604.508 76.6797C602.691 76.6797 601.363 77.8125 601.383 79.4336C601.363 81.0547 602.691 82.1875 604.508 82.1875C606.305 82.1875 607.613 81.0547 607.633 79.4336C607.613 77.8125 606.305 76.6797 604.508 76.6797ZM612.691 74.2188V81.3867H615.523V82.7148H612.691V91.582H611.168V74.2188H612.691ZM622.242 75.4883C624.977 75.4883 626.91 77.1484 626.91 79.5703C626.91 81.9922 624.977 83.6523 622.242 83.6523C619.508 83.6523 617.535 81.9922 617.555 79.5703C617.535 77.1484 619.508 75.4883 622.242 75.4883ZM622.242 76.8359C620.387 76.8359 619.039 77.9492 619.059 79.5703C619.039 81.1914 620.387 82.3047 622.242 82.3047C624.078 82.3047 625.406 81.1914 625.406 79.5703C625.406 77.9492 624.078 76.8359 622.242 76.8359ZM630.797 74.2188V91.6211H629.273V74.2188H630.797ZM616.656 86.4844C619.859 86.4844 624.273 86.4648 628.121 85.8984L628.238 87.0312C624.273 87.7734 619.996 87.793 616.871 87.793L616.656 86.4844ZM648.707 75.9766V77.2461H638.883V75.9766H643.102V74.0625H644.625V75.9766H648.707ZM643.844 78.0859C646.168 78.0859 647.809 79.3359 647.809 81.2305C647.809 83.1055 646.168 84.3359 643.844 84.3359C641.5 84.3359 639.898 83.1055 639.918 81.2305C639.898 79.3359 641.5 78.0859 643.844 78.0859ZM643.844 79.2773C642.34 79.2773 641.344 80.0586 641.344 81.2305C641.344 82.3828 642.34 83.1836 643.844 83.1836C645.348 83.1836 646.363 82.3828 646.383 81.2305C646.363 80.0586 645.348 79.2773 643.844 79.2773ZM653.258 74.2188V84.4922H651.715V82.9492H648.688V81.6797H651.715V79.5508H648.707V78.2812H651.715V74.2188H653.258ZM643.473 85.2148V87.0508H651.734V85.2148H653.258V91.3477H641.949V85.2148H643.473ZM643.473 90.1172H651.734V88.2422H643.473V90.1172ZM664.391 75.293V80.1562H658.414V82.8516C661.676 82.8516 663.355 82.8027 665.406 82.4219L665.562 83.6914C663.395 84.043 661.637 84.1016 658.121 84.1016H656.891V78.9844H662.867V76.5234H656.852V75.293H664.391ZM670.543 74.2383V84.9023H669V81.6797H665.543V80.4102H669V78.0664H665.543V76.8164H669V74.2383H670.543ZM670.543 85.8398V91.6211H669V87.0898H658.844V85.8398H670.543ZM688.844 76.0938V77.3438H678.492V76.0938H682.906V74.1406H684.43V76.0938H688.844ZM683.668 78.2422C686.168 78.2617 687.828 79.4727 687.848 81.3867C687.828 83.2812 686.168 84.5117 683.668 84.5117C681.168 84.5117 679.469 83.2812 679.488 81.3867C679.469 79.4727 681.168 78.2617 683.668 78.2422ZM683.668 79.4336C682.027 79.4531 680.934 80.2148 680.953 81.3867C680.934 82.5391 682.027 83.2812 683.668 83.2812C685.289 83.2812 686.383 82.5391 686.402 81.3867C686.383 80.2148 685.289 79.4531 683.668 79.4336ZM692.027 74.2188V79.043H694.645V80.332H692.027V85.0781H690.504V74.2188H692.027ZM692.027 86.0352V91.582H690.504V87.2852H680.66V86.0352H692.027ZM699.273 84.6484V86.6797H707.945V84.6484H709.488V91.3477H697.75V84.6484H699.273ZM699.273 90.1172H707.945V87.8906H699.273V90.1172ZM711.559 82.1484V83.418H695.738V82.1484H711.559ZM704.449 75.2344C704.449 77.3828 707.613 79.2969 710.66 79.6875L710.094 80.918C707.398 80.5176 704.762 79.1406 703.668 77.1875C702.555 79.1504 699.898 80.5176 697.223 80.918L696.637 79.6875C699.723 79.2773 702.867 77.4414 702.867 75.2344V74.4141H704.449V75.2344ZM720.934 75.3516C724.566 75.3516 727.281 77.2461 727.281 80.1172C727.281 83.0078 724.566 84.9023 720.934 84.8828C717.301 84.9023 714.586 83.0078 714.586 80.1172C714.586 77.2461 717.301 75.3516 720.934 75.3516ZM720.934 76.6016C718.141 76.582 716.031 78.0469 716.051 80.1172C716.031 82.2266 718.141 83.6328 720.934 83.6328C723.707 83.6328 725.797 82.2266 725.797 80.1172C725.797 78.0469 723.707 76.582 720.934 76.6016ZM728.922 87.9883V89.2773H713.023V87.9883H728.922ZM746.207 88.1445V89.4336H730.309V88.1445H737.457V84.8633H732.301V79.5117H742.691V76.7773H732.262V75.5078H744.195V80.7617H733.824V83.5938H744.605V84.8633H738.961V88.1445H746.207ZM766.93 74.2188V83.2227H765.426V74.2188H766.93ZM766.949 84.1016V88.2617H757.203V90.1367H767.574V91.3867H755.699V87.0703H765.426V85.332H755.66V84.1016H766.949ZM758.766 76.0547C758.746 78.5156 760.621 80.6836 763.199 81.5234L762.438 82.7148C760.406 82.0215 758.785 80.5664 758.004 78.6914C757.223 80.7129 755.592 82.3047 753.531 83.0469L752.73 81.8359C755.348 80.918 757.203 78.6133 757.203 76.0547V74.7266H758.766V76.0547ZM784.293 74.2383V86.9727H782.75V80.3125H779.176V79.043H782.75V74.2383H784.293ZM784.781 89.9219V91.2109H773.141V85.8203H774.684V89.9219H784.781ZM775.934 77.8125C775.934 80.0586 777.672 82.2461 780.211 83.1055L779.41 84.3359C777.447 83.6328 775.934 82.168 775.191 80.3711C774.439 82.373 772.838 83.9746 770.777 84.7461L769.977 83.4961C772.535 82.5977 774.391 80.3125 774.391 77.8125V76.9141H770.465V75.6445H779.82V76.9141H775.934V77.8125ZM806.598 74.2383V87.0312H805.055V80.332H801.422C801.08 82.4707 799.283 83.9258 796.988 83.9258C794.391 83.9258 792.477 82.1484 792.477 79.6289C792.477 77.1094 794.391 75.3516 796.988 75.3516C799.332 75.3516 801.158 76.8457 801.441 79.0625H805.055V74.2383H806.598ZM807.086 89.9219V91.2109H795.445V85.7227H796.988V89.9219H807.086ZM796.988 76.6992C795.25 76.7188 793.941 77.9102 793.941 79.6289C793.941 81.3477 795.25 82.5781 796.988 82.5977C798.688 82.5781 799.996 81.3477 799.996 79.6289C799.996 77.9102 798.688 76.7188 796.988 76.6992ZM814.156 75.5664C816.52 75.5859 818.219 77.6074 818.473 80.8594H822.359V74.2188H823.883V91.6211H822.359V82.1289H818.492C818.307 85.5273 816.578 87.6562 814.156 87.6562C811.598 87.6562 809.801 85.3125 809.801 81.6211C809.801 77.9297 811.598 75.5859 814.156 75.5664ZM814.156 76.9336C812.438 76.9531 811.266 78.7891 811.266 81.6211C811.266 84.4531 812.438 86.2891 814.156 86.2891C815.855 86.2891 817.047 84.4531 817.047 81.6211C817.047 78.7891 815.855 76.9531 814.156 76.9336ZM837.613 78.8867C837.613 81.9531 839.645 85.0977 842.105 86.3086L841.168 87.5391C839.254 86.5332 837.652 84.4824 836.891 82.0703C836.109 84.6387 834.469 86.8262 832.516 87.8711L831.539 86.6406C834.078 85.3906 836.09 82.0508 836.109 78.8867V75.7227H837.613V78.8867ZM845.23 74.2188V81.2695H848.141V82.5977H845.23V91.582H843.707V74.2188H845.23ZM864.898 82.8125V84.082H849.078V82.8125H853.004V80.3711C851.617 79.834 850.836 78.9453 850.836 77.7734C850.836 75.7227 853.18 74.5508 856.988 74.5508C860.758 74.5508 863.121 75.7227 863.121 77.7734C863.121 78.9355 862.35 79.8242 860.973 80.3516V82.8125H864.898ZM856.988 85.4102C860.719 85.4102 862.945 86.4844 862.965 88.4766C862.945 90.4492 860.719 91.543 856.988 91.543C853.219 91.543 850.992 90.4492 850.992 88.4766C850.992 86.4844 853.219 85.4102 856.988 85.4102ZM856.988 86.582C854.195 86.6016 852.535 87.2852 852.555 88.4766C852.535 89.6484 854.195 90.3516 856.988 90.3516C859.742 90.3516 861.422 89.6484 861.422 88.4766C861.422 87.2852 859.742 86.6016 856.988 86.582ZM856.988 75.7617C854.156 75.7617 852.398 76.5234 852.418 77.7734C852.398 79.043 854.156 79.7852 856.988 79.7852C859.801 79.7852 861.559 79.043 861.559 77.7734C861.559 76.5234 859.801 75.7617 856.988 75.7617ZM854.527 82.8125H859.449V80.7812C858.717 80.9082 857.896 80.9766 856.988 80.9766C856.08 80.9766 855.26 80.9082 854.527 80.7812V82.8125ZM548.922 118.367C547.828 118.367 546.93 117.469 546.93 116.355C546.93 115.262 547.828 114.363 548.922 114.363C550.035 114.363 550.934 115.262 550.934 116.355C550.934 117.469 550.035 118.367 548.922 118.367ZM570.953 109.09C570.953 111.355 572.848 113.367 575.426 114.148L574.645 115.359C572.613 114.715 570.982 113.318 570.191 111.531C569.43 113.445 567.789 114.939 565.719 115.652L564.918 114.441C567.535 113.621 569.41 111.473 569.41 109.09V108.641H565.348V107.391H574.957V108.641H570.953V109.09ZM579.039 106.219V115.613H577.516V106.219H579.039ZM569.312 116.473V118.582H577.516V116.473H579.039V123.348H567.789V116.473H569.312ZM569.312 122.098H577.516V119.812H569.312V122.098ZM597.809 114.344V115.613H590.641V117.469C593.922 117.605 595.855 118.68 595.875 120.516C595.855 122.449 593.629 123.543 589.898 123.543C586.129 123.543 583.902 122.449 583.902 120.516C583.902 118.68 585.826 117.605 589.137 117.469V115.613H581.988V114.344H597.809ZM589.898 118.641C587.105 118.66 585.445 119.344 585.465 120.516C585.445 121.668 587.105 122.352 589.898 122.352C592.652 122.352 594.332 121.668 594.332 120.516C594.332 119.344 592.652 118.66 589.898 118.641ZM596.402 107.039V108.289H590.895C590.992 110.242 593.863 111.756 596.93 112.078L596.363 113.289C593.521 112.947 590.855 111.678 589.898 109.734C588.951 111.678 586.295 112.947 583.434 113.289L582.887 112.078C585.895 111.756 588.785 110.242 588.902 108.289H583.434V107.039H596.402ZM619.293 108.914V110.184H605.074V108.914H611.441V106.551H612.945V108.914H619.293ZM620.191 120.184V121.453H604.293V120.184H620.191ZM612.203 111.336C615.699 111.316 617.906 112.605 617.906 114.754C617.906 116.883 615.699 118.172 612.203 118.172C608.668 118.172 606.48 116.883 606.5 114.754C606.48 112.605 608.668 111.316 612.203 111.336ZM612.203 112.586C609.625 112.566 608.004 113.406 608.023 114.754C608.004 116.102 609.625 116.922 612.203 116.922C614.742 116.922 616.344 116.102 616.344 114.754C616.344 113.406 614.742 112.566 612.203 112.586ZM637.457 115.184V116.453H621.559V115.184H637.457ZM635.406 106.648V110.75H625.152V112.488H635.777V113.68H623.629V109.598H633.863V107.879H623.57V106.648H635.406ZM635.406 118.035V123.348H623.727V118.035H635.406ZM625.23 119.285V122.098H633.902V119.285H625.23ZM646.773 106.531C650.641 106.531 652.906 107.586 652.906 109.52C652.906 111.492 650.641 112.547 646.773 112.566C642.906 112.547 640.621 111.492 640.621 109.52C640.621 107.586 642.906 106.531 646.773 106.531ZM646.773 107.684C643.883 107.684 642.203 108.387 642.223 109.52C642.203 110.73 643.883 111.395 646.773 111.395C649.645 111.395 651.344 110.73 651.344 109.52C651.344 108.387 649.645 107.684 646.773 107.684ZM654.684 113.738V114.988H638.863V113.738H654.684ZM652.652 116.492V120.379H642.34V122.176H653.18V123.387H640.816V119.246H651.148V117.664H640.777V116.492H652.652ZM677.047 116.121V117.391H672.848V123.582H671.305V117.391H666.852V123.582H665.27V117.391H661.148V116.121H677.047ZM669.059 106.922C672.711 106.922 675.172 108.387 675.172 110.711C675.172 113.016 672.711 114.48 669.059 114.461C665.406 114.48 662.945 113.016 662.945 110.711C662.945 108.387 665.406 106.922 669.059 106.922ZM669.059 108.172C666.344 108.172 664.508 109.168 664.527 110.711C664.508 112.254 666.344 113.23 669.059 113.23C671.754 113.23 673.609 112.254 673.609 110.711C673.609 109.168 671.754 108.172 669.059 108.172ZM684.664 111.551C684.664 114.5 686.812 117.488 689.371 118.602L688.512 119.812C686.48 118.885 684.723 116.883 683.922 114.48C683.102 117.029 681.354 119.246 679.371 120.242L678.453 119.031C680.934 117.84 683.102 114.559 683.121 111.551V109.285H679.02V108.016H688.805V109.285H684.664V111.551ZM692.77 106.219V123.582H691.227V106.219H692.77ZM709.176 106.219V113.387H712.086V114.656H709.176V123.582H707.652V106.219H709.176ZM705.973 109.012V110.281H695.641V109.012H700.113V106.434H701.637V109.012H705.973ZM700.895 111.727C703.355 111.727 705.133 113.367 705.152 115.711C705.133 118.055 703.355 119.695 700.895 119.695C698.414 119.695 696.617 118.055 696.637 115.711C696.617 113.367 698.414 111.727 700.895 111.727ZM700.895 113.016C699.273 113.016 698.082 114.148 698.102 115.711C698.082 117.293 699.273 118.406 700.895 118.387C702.496 118.406 703.668 117.293 703.688 115.711C703.668 114.148 702.496 113.016 700.895 113.016ZM727.066 111.492V112.723H715.172V106.863H716.695V111.492H727.066ZM728.902 115.086V116.336H713.004V115.086H728.902ZM727.164 121.883V123.152H715.074V118.113H716.598V121.883H727.164ZM751.148 113.816V115.086H735.328V113.816H742.457V112.098H737.379V106.805H749.098V112.098H743.961V113.816H751.148ZM738.902 108.035V110.867H747.574V108.035H738.902ZM749.117 116.531V120.418H738.805V122.176H749.645V123.387H737.281V119.266H747.613V117.723H737.242V116.531H749.117ZM766.949 106.219V115.535H765.426V106.219H766.949ZM757.223 116.414V118.523H765.426V116.414H766.949V123.348H755.699V116.414H757.223ZM757.223 122.098H765.426V119.754H757.223V122.098ZM757.574 107.078C760.211 107.059 762.125 108.68 762.125 111.062C762.125 113.426 760.211 115.047 757.574 115.047C754.938 115.047 753.023 113.426 753.023 111.062C753.023 108.68 754.938 107.059 757.574 107.078ZM757.574 108.367C755.797 108.348 754.508 109.48 754.527 111.062C754.508 112.645 755.797 113.777 757.574 113.777C759.332 113.777 760.621 112.645 760.621 111.062C760.621 109.48 759.332 108.348 757.574 108.367ZM788.473 106.219V112.312H791.07V113.602H788.473V119.812H786.93V106.219H788.473ZM789.098 121.922V123.211H777.438V118.895H778.98V121.922H789.098ZM774.84 116.551C776.217 116.551 777.848 116.541 779.547 116.473V115.145C777.525 114.959 776.227 113.992 776.227 112.527C776.227 110.848 777.848 109.852 780.289 109.852C782.75 109.852 784.352 110.848 784.371 112.527C784.352 113.982 783.082 114.949 781.07 115.145V116.395C782.701 116.316 784.342 116.16 785.855 115.926L785.992 117.02C782.262 117.723 778.062 117.781 775.016 117.801L774.84 116.551ZM785.328 107.938V109.09H775.27V107.938H779.547V106.18H781.07V107.938H785.328ZM780.289 110.945C778.688 110.945 777.691 111.551 777.691 112.527C777.691 113.484 778.688 114.09 780.289 114.09C781.891 114.09 782.906 113.484 782.906 112.527C782.906 111.551 781.891 110.945 780.289 110.945ZM806.598 106.238V116.668H805.055V114.324H800.445V113.055H805.055V110.711H800.621C799.479 113.504 796.793 115.525 793.082 116.629L792.438 115.418C796.637 114.168 799.244 111.824 799.566 108.816H793.316V107.527H801.227C801.227 108.211 801.148 108.865 801.012 109.48H805.055V106.238H806.598ZM800.914 116.844C804.43 116.844 806.695 118.094 806.695 120.164C806.695 122.254 804.43 123.504 800.914 123.504C797.359 123.504 795.113 122.254 795.113 120.164C795.113 118.094 797.359 116.844 800.914 116.844ZM800.914 118.074C798.297 118.055 796.617 118.855 796.617 120.164C796.617 121.473 798.297 122.254 800.914 122.254C803.492 122.254 805.152 121.473 805.172 120.164C805.152 118.855 803.492 118.055 800.914 118.074ZM548.922 150.367C547.828 150.367 546.93 149.469 546.93 148.355C546.93 147.262 547.828 146.363 548.922 146.363C550.035 146.363 550.934 147.262 550.934 148.355C550.934 149.469 550.035 150.367 548.922 150.367ZM578.277 138.219V142.75H580.895V144.02H578.277V148.648H576.754V138.219H578.277ZM573.551 139.508C573.551 143.922 570.426 147.184 565.367 148.668L564.723 147.418C568.912 146.207 571.588 143.795 571.91 140.777H565.484V139.508H573.551ZM572.789 148.844C576.285 148.844 578.473 150.113 578.473 152.184C578.473 154.293 576.285 155.543 572.789 155.543C569.332 155.543 567.086 154.293 567.105 152.184C567.086 150.113 569.332 148.844 572.789 148.844ZM572.789 150.074C570.25 150.055 568.609 150.875 568.629 152.184C568.609 153.492 570.25 154.312 572.789 154.312C575.348 154.312 576.988 153.492 576.988 152.184C576.988 150.875 575.348 150.055 572.789 150.074ZM587.809 142.887C587.809 145.953 589.84 149.098 592.301 150.309L591.363 151.539C589.449 150.533 587.848 148.482 587.086 146.07C586.305 148.639 584.664 150.826 582.711 151.871L581.734 150.641C584.273 149.391 586.285 146.051 586.305 142.887V139.723H587.809V142.887ZM595.426 138.219V145.27H598.336V146.598H595.426V155.582H593.902V138.219H595.426ZM604.957 139.488C607.691 139.488 609.625 141.148 609.625 143.57C609.625 145.992 607.691 147.652 604.957 147.652C602.223 147.652 600.25 145.992 600.27 143.57C600.25 141.148 602.223 139.488 604.957 139.488ZM604.957 140.836C603.102 140.836 601.754 141.949 601.773 143.57C601.754 145.191 603.102 146.305 604.957 146.305C606.793 146.305 608.121 145.191 608.121 143.57C608.121 141.949 606.793 140.836 604.957 140.836ZM613.512 138.219V155.621H611.988V138.219H613.512ZM599.371 150.484C602.574 150.484 606.988 150.465 610.836 149.898L610.953 151.031C606.988 151.773 602.711 151.793 599.586 151.793L599.371 150.484ZM636.402 138.219V155.582H634.898V146.5H632.496V154.723H631.031V138.688H632.496V145.23H634.898V138.219H636.402ZM629.059 140.484C629.039 144.898 627.496 149.078 622.496 151.852L621.598 150.777C625.631 148.531 627.301 145.348 627.555 141.754H622.262V140.484H629.059ZM653.238 138.219V147.301H651.715V145.074H647.613V146.598H639.742V139.039H641.266V141.539H646.109V139.039H647.613V140.719H651.715V138.219H653.238ZM653.238 148.141V152.223H643.551V154.117H653.902V155.348H642.027V151.051H651.715V149.371H641.988V148.141H653.238ZM641.266 145.348H646.109V142.75H641.266V145.348ZM647.613 143.863H651.715V141.91H647.613V143.863ZM668.824 140.289C668.814 141.93 668.629 143.551 668.141 145.094H670.914V138.688H672.379V154.703H670.914V146.363H667.633C666.656 148.502 664.957 150.436 662.164 151.969L661.285 150.875C663.961 149.42 665.553 147.594 666.441 145.543L661.48 146.051L661.246 144.684L666.871 144.332C667.115 143.434 667.262 142.506 667.32 141.559H662.086V140.289H668.824ZM676.031 138.219V155.582H674.566V138.219H676.031ZM683.121 139.566C685.484 139.586 687.184 141.607 687.438 144.859H691.324V138.219H692.848V155.621H691.324V146.129H687.457C687.271 149.527 685.543 151.656 683.121 151.656C680.562 151.656 678.766 149.312 678.766 145.621C678.766 141.93 680.562 139.586 683.121 139.566ZM683.121 140.934C681.402 140.953 680.23 142.789 680.23 145.621C680.23 148.453 681.402 150.289 683.121 150.289C684.82 150.289 686.012 148.453 686.012 145.621C686.012 142.789 684.82 140.953 683.121 140.934ZM709.176 138.219V145.289H711.988V146.578H709.176V155.582H707.652V138.219H709.176ZM704.684 140.094C704.684 145.016 702.379 149.488 696.715 152.281L695.855 151.07C700.348 148.834 702.789 145.494 703.141 141.383H696.656V140.094H704.684ZM723.922 143.551C723.902 146.344 725.914 149.41 728.434 150.602L727.555 151.812C725.602 150.865 723.951 148.795 723.18 146.441C722.379 149 720.631 151.246 718.688 152.242L717.75 151.031C720.25 149.82 722.398 146.52 722.418 143.551V141.285H718.375V140.016H727.828V141.285H723.922V143.551ZM731.48 138.219V145.25H734.391V146.559H731.48V155.582H729.957V138.219H731.48ZM749.723 138.238V151.07H748.18V146.383H743.688C742.887 147.408 741.598 148.023 740.113 148.023C737.516 148.023 735.602 146.227 735.602 143.688C735.602 141.148 737.516 139.352 740.113 139.332C741.588 139.342 742.848 139.947 743.668 140.953H748.18V138.238H749.723ZM750.211 153.922V155.211H738.57V149.723H740.113V153.922H750.211ZM740.113 140.699C738.336 140.719 737.066 141.949 737.066 143.688C737.066 145.426 738.336 146.656 740.113 146.656C741.812 146.656 743.121 145.426 743.121 143.688C743.121 141.949 741.812 140.719 740.113 140.699ZM744.371 142.223C744.518 142.672 744.605 143.16 744.605 143.688C744.605 144.195 744.518 144.674 744.371 145.113H748.18V142.223H744.371ZM761.266 140.777C761.266 143.746 764.664 146.402 767.691 146.969L766.988 148.258C764.371 147.652 761.607 145.787 760.484 143.219C759.361 145.777 756.607 147.643 753.98 148.258L753.277 146.969C756.285 146.383 759.664 143.766 759.664 140.777V139.449H761.266V140.777ZM768.512 151.949V153.219H752.613V151.949H768.512ZM784.293 138.238V147.77H782.75V143.121H779.449V141.852H782.75V138.238H784.293ZM774.449 148.59V150.719H782.77V148.59H784.293V155.348H772.926V148.59H774.449ZM774.449 154.098H782.77V151.949H774.449V154.098ZM778.336 138.961V143.648H772.164V146.051C775.025 146.041 777.174 145.943 779.781 145.523L779.918 146.812C777.184 147.223 774.957 147.32 771.949 147.32H770.641V142.457H776.852V140.211H770.602V138.961H778.336ZM802.047 138.219V155.582H800.582V138.219H802.047ZM798.395 138.688V154.703H796.93V146.598H793.258C792.193 148.619 790.523 150.406 788.102 151.832L787.203 150.719C790.982 148.482 792.877 145.348 793.16 141.715H787.945V140.445H794.684C794.674 142.154 794.4 143.805 793.824 145.348H796.93V138.688H798.395ZM823.062 138.238V143.492H825.68V144.781H823.062V150.992H821.539V138.238H823.062ZM823.863 153.922V155.211H812.203V149.742H813.707V153.922H823.863ZM811.734 139.488V142.418H816.793V139.488H818.316V148.062H810.23V139.488H811.734ZM811.734 146.812H816.793V143.629H811.734V146.812ZM831.559 139.273C833.023 139.264 834.273 139.811 835.074 140.738H839.625V138.219H841.168V148.512H839.625V146.031H835.094C834.273 146.959 833.023 147.506 831.559 147.496C828.961 147.516 827.047 145.816 827.047 143.395C827.047 140.953 828.961 139.254 831.559 139.273ZM831.559 140.602C829.781 140.582 828.512 141.754 828.512 143.395C828.512 145.016 829.781 146.188 831.559 146.188C833.277 146.188 834.566 145.016 834.566 143.395C834.566 141.754 833.277 140.582 831.559 140.602ZM835.406 148.922C839 148.922 841.227 150.133 841.227 152.223C841.227 154.332 839 155.543 835.406 155.543C831.793 155.543 829.586 154.332 829.586 152.223C829.586 150.133 831.793 148.922 835.406 148.922ZM835.406 150.113C832.75 150.113 831.09 150.914 831.09 152.223C831.09 153.531 832.75 154.312 835.406 154.312C838.082 154.312 839.723 153.531 839.723 152.223C839.723 150.914 838.082 150.113 835.406 150.113ZM835.816 141.988C835.963 142.418 836.051 142.887 836.051 143.395C836.051 143.883 835.963 144.342 835.816 144.762H839.625V141.988H835.816ZM854.156 143.922V145.172H850.641V147.594C852.262 147.525 853.883 147.408 855.387 147.242L855.504 148.375C851.773 148.883 847.633 149 844.371 149L844.137 147.75C845.66 147.74 847.369 147.721 849.117 147.652V145.172H845.719V139.352H854.02V140.621H847.262V143.922H854.156ZM858.375 138.238V151.227H856.832V138.238H858.375ZM858.941 153.922V155.211H847.105V150.328H848.629V153.922H858.941ZM875.074 139.84C875.074 142.281 878.277 144.41 881.402 144.84L880.777 146.09C878.082 145.641 875.416 144.146 874.293 142.008C873.18 144.156 870.504 145.641 867.809 146.09L867.184 144.84C870.309 144.41 873.492 142.32 873.492 139.84V138.844H875.074V139.84ZM882.184 148.004V149.293H874.996V155.582H873.492V149.293H866.363V148.004H882.184ZM888.434 139.039C890.768 139.02 892.535 140.377 892.867 142.379H896.5V138.219H898.043V147.535H896.5V143.648H892.887C892.574 145.699 890.787 147.066 888.434 147.066C885.797 147.066 883.922 145.426 883.922 143.043C883.922 140.68 885.797 139.02 888.434 139.039ZM888.434 140.348C886.656 140.328 885.387 141.441 885.387 143.043C885.387 144.625 886.656 145.777 888.434 145.777C890.191 145.777 891.441 144.625 891.441 143.043C891.441 141.441 890.191 140.328 888.434 140.348ZM888.395 148.414V150.621H896.5V148.414H898.043V155.348H886.852V148.414H888.395ZM888.395 154.098H896.5V151.852H888.395V154.098Z" fill="black"/>
<defs>
<linearGradient id="paint0_linear_469_1792" x1="-0.968748" y1="98.5" x2="1491.03" y2="98.4998" gradientUnits="userSpaceOnUse">
<stop stop-color="#3182F6"/>
<stop offset="1" stop-color="#A009FF"/>
</linearGradient>
<linearGradient id="paint1_linear_469_1792" x1="63.7632" y1="125" x2="428.412" y2="125" gradientUnits="userSpaceOnUse">
<stop stop-color="#3182F6"/>
<stop offset="1" stop-color="#A009FF"/>
</linearGradient>
</defs>
</svg>
