<svg width="1072" height="197" viewBox="0 0 1072 197" fill="none" xmlns="http://www.w3.org/2000/svg">
<rect x="0.5" y="0.5" width="1071" height="196" rx="14.5" fill="white" stroke="url(#paint0_linear_543_1094)"/>
<path d="M426 33L426 165" stroke="#F2F2F7" stroke-width="2"/>
<path d="M60.1963 115.173V117.11C60.1963 119.562 60.1963 122.983 59.4395 127.706L56.1094 127.434C56.7603 123.286 56.8359 120.229 56.8662 117.867H46.1191V115.173H60.1963ZM53.2939 122.983V131.066C56.0791 130.96 58.9399 130.764 61.5586 130.431L61.7402 132.943C56.0791 133.852 49.8125 133.973 44.999 133.942L44.666 131.248C46.2856 131.233 48.0869 131.218 49.9639 131.157V122.983H53.2939ZM66.3721 112.327V123.468H70.3379V126.313H66.3721V139.694H62.9814V112.327H66.3721ZM80.5703 114.022C84.8994 114.022 88.0781 116.747 88.1084 120.622C88.0781 123.998 85.7017 126.465 82.2656 127.07V131.066C84.7026 130.945 87.1699 130.733 89.501 130.4L89.7734 132.822C83.6279 133.973 77.0586 134.033 72.2451 134.033L71.8213 131.278C73.9102 131.278 76.3472 131.278 78.9053 131.188V127.07C75.4692 126.48 73.0625 123.998 73.0625 120.622C73.0625 116.747 76.2715 114.022 80.5703 114.022ZM80.5703 116.929C78.1787 116.929 76.3926 118.321 76.3926 120.622C76.3926 122.893 78.1787 124.346 80.5703 124.346C82.9922 124.346 84.8086 122.893 84.8086 120.622C84.8086 118.321 82.9922 116.929 80.5703 116.929ZM94.4961 112.327V139.725H91.1357V112.327H94.4961ZM104.88 127.918V131.066H117.02V127.918H120.35V139.361H101.58V127.918H104.88ZM104.88 136.637H117.02V133.67H104.88V136.637ZM120.44 113.508V115.627C120.44 117.701 120.44 119.986 119.774 123.195H123.498V125.89H98.4922V123.195H116.444C117.02 120.304 117.08 118.125 117.08 116.202H101.58V113.508H120.44ZM147.232 113.75V125.163H134.033V113.75H147.232ZM137.363 116.444V122.529H143.902V116.444H137.363ZM155.376 112.327V126.253H152.046V112.327H155.376ZM155.376 127.494V134.578H140.633V136.788H156.193V139.452H137.303V132.156H152.106V130.128H137.272V127.494H155.376ZM169.271 118.261C169.271 121.258 171.481 124.255 175.811 125.436L174.236 128.13C171.103 127.222 168.863 125.314 167.637 122.923C166.426 125.557 164.155 127.615 160.946 128.584L159.312 125.95C163.61 124.709 165.911 121.53 165.911 118.261V118.049H160.189V115.385H165.911V112.236H169.302V115.385H174.993V118.049H169.271V118.261ZM181.018 112.327V119.26H184.832V122.105H181.018V129.068H177.657V112.327H181.018ZM181.018 130.31V139.725H177.657V133.004H162.793V130.31H181.018ZM201.513 115.173V117.11C201.513 119.562 201.513 122.983 200.756 127.706L197.426 127.434C198.077 123.286 198.152 120.229 198.183 117.867H187.436V115.173H201.513ZM194.61 122.983V131.066C197.396 130.96 200.256 130.764 202.875 130.431L203.057 132.943C197.396 133.852 191.129 133.973 186.315 133.942L185.982 131.248C187.602 131.233 189.403 131.218 191.28 131.157V122.983H194.61ZM207.688 112.327V123.468H211.654V126.313H207.688V139.694H204.298V112.327H207.688ZM236.63 114.961V117.625H220.403V114.961H226.852V112.206H230.212V114.961H236.63ZM228.517 118.685C232.482 118.685 235.177 120.683 235.207 123.68C235.177 126.677 232.482 128.675 228.517 128.675C224.551 128.675 221.796 126.677 221.796 123.68C221.796 120.683 224.551 118.685 228.517 118.685ZM228.517 121.228C226.428 121.228 225.065 122.136 225.065 123.68C225.065 125.224 226.428 126.102 228.517 126.071C230.605 126.102 231.998 125.224 231.998 123.68C231.998 122.136 230.605 121.228 228.517 121.228ZM241.958 112.327V119.593H245.772V122.348H241.958V129.462H238.598V112.327H241.958ZM241.958 130.733V139.694H238.598V133.428H223.733V130.733H241.958ZM270.112 112.357V133.064H266.722V130.673H261.363V128.312H266.722V112.357H270.112ZM270.748 136.425V139.149H250.677V131.066H254.037V136.425H270.748ZM247.044 124.648C252.1 124.618 258.881 124.558 264.693 123.831L264.875 126.253C262.62 126.631 260.289 126.889 257.973 127.04V132.308H254.612V127.222C252.054 127.328 249.617 127.343 247.468 127.343L247.044 124.648ZM255.975 113.356C259.971 113.356 262.756 115.324 262.786 118.2C262.756 121.137 259.971 123.014 255.975 123.014C251.918 123.014 249.133 121.137 249.133 118.2C249.133 115.324 251.918 113.356 255.975 113.356ZM255.975 115.839C253.795 115.839 252.312 116.717 252.312 118.2C252.312 119.684 253.795 120.562 255.975 120.562C258.063 120.562 259.547 119.684 259.577 118.2C259.547 116.717 258.063 115.839 255.975 115.839ZM282.827 114.234C287.156 114.204 290.335 116.959 290.365 120.834C290.335 124.739 287.156 127.464 282.827 127.464C278.528 127.464 275.319 124.739 275.319 120.834C275.319 116.959 278.528 114.204 282.827 114.234ZM282.827 117.141C280.436 117.141 278.649 118.563 278.649 120.834C278.649 123.135 280.436 124.527 282.827 124.527C285.249 124.527 287.065 123.135 287.065 120.834C287.065 118.563 285.249 117.141 282.827 117.141ZM296.753 112.327V139.725H293.393V112.327H296.753ZM274.078 131.248C279.013 131.248 285.854 131.188 291.758 130.34L292.03 132.792C285.885 133.973 279.315 134.003 274.502 134.003L274.078 131.248ZM316.461 120.683C316.461 124.921 318.217 129.189 322.031 131.248L320.154 133.73C317.611 132.383 315.886 129.977 314.917 127.101C313.948 130.204 312.223 132.853 309.649 134.366L307.682 131.823C311.557 129.583 313.282 125.012 313.282 120.683V119.835H308.62V117.11H313.282V113.296H316.461V117.11H321.032V119.835H316.461V120.683ZM331.658 112.327V139.694H328.449V112.327H331.658ZM326.088 112.842V138.362H322.909V125.617H319.337V122.832H322.909V112.842H326.088ZM358.511 112.327V139.694H355.302V112.327H358.511ZM352.85 112.993V138.393H349.641V129.25H345.372V126.495H349.641V122.438H345.856C344.57 126.979 341.709 130.885 336.593 133.912L334.625 131.521C340.301 128.175 342.905 123.892 343.404 118.382H336.078V115.657H346.734C346.734 117.035 346.644 118.382 346.462 119.684H349.641V112.993H352.85Z" fill="url(#paint1_linear_543_1094)"/>
<path d="M56.4297 67.5703C56.4297 71.4023 58.7852 75.3047 64.0586 76.8867L61.7734 80.4023C58.1875 79.2773 55.6562 76.9746 54.2148 74.0742C52.7559 77.2207 50.1543 79.752 46.4102 81L44.0898 77.4844C49.3984 75.7617 51.8594 71.6133 51.8594 67.5703V67.1133H45.2852V63.5273H62.8633V67.1133H56.4297V67.5703ZM70.7383 61.2773V84.4102H66.2383V61.2773H70.7383ZM71.582 89.0859V92.6719H49.293V82.3008H53.8281V89.0859H71.582ZM101.359 61.2422V73.3008H104.945V77.0273H101.359V93.2344H96.8594V83.2852L94.1172 86.4492C92.0605 84.832 90.8125 82.4062 90.0742 79.5938C89.2305 82.4941 87.8594 85.043 85.5742 86.6953C83.3418 85.0605 81.9883 82.5293 81.1797 79.6289C80.4062 82.4414 79.1582 84.8496 77.1016 86.4492L74.2891 83.1797C78.332 80.1914 78.9297 74.5312 78.9648 69.2578V67.6055H75.5547V64.0195H85.0469V67.6055H83.1836V69.2578C83.1836 73.0195 83.5 77.4316 85.6094 80.7539C87.666 77.4492 88.0352 73.0723 88.0352 69.2578V67.6055H86.1719V64.0195H95.1719V67.6055H92.3242V69.2578C92.2891 74.5488 92.9043 80.1211 96.8594 83.1094V61.2422H101.359ZM143.758 85.8164V89.4023H114.473V85.8164H126.707V78.5742H131.172V85.8164H143.758ZM131.312 65.3555C131.312 69.9258 135.426 74.7422 142.738 75.8672L140.84 79.5938C135.215 78.5742 131.031 75.5684 128.922 71.5781C126.812 75.5508 122.664 78.5918 117.074 79.5938L115.176 75.8672C122.418 74.7422 126.496 69.8906 126.531 65.3555V63.0703H131.312V65.3555ZM162.566 63.7383C162.566 67.5 166.398 71.6836 173.746 72.5977L171.988 76.2188C166.398 75.4102 162.303 72.8262 160.211 69.3633C158.102 72.8262 154.041 75.4102 148.504 76.2188L146.711 72.5977C153.988 71.6836 157.855 67.5 157.855 63.7383V62.1914H162.566V63.7383ZM174.766 78.6445V82.3008H162.32V93.2344H157.891V82.3008H145.586V78.6445H174.766ZM203.664 61.2422V80.2266H199.199V72.668H194.207V69.0469H199.199V61.2422H203.664ZM192.73 80.9297C199.551 80.9648 203.734 83.2148 203.77 87.1172C203.734 90.9844 199.551 93.2695 192.73 93.2695C185.91 93.2695 181.727 90.9844 181.727 87.1172C181.727 83.2148 185.91 80.9648 192.73 80.9297ZM192.73 84.375C188.477 84.375 186.191 85.2539 186.191 87.1172C186.191 88.9453 188.477 89.8594 192.73 89.8594C196.984 89.8594 199.305 88.9453 199.305 87.1172C199.305 85.2539 196.984 84.375 192.73 84.375ZM195.156 63.1758V66.7617H188.793C188.898 70.4883 191.148 74.25 196.141 75.9023L193.926 79.418C190.393 78.2754 187.967 75.9551 186.578 73.0547C185.154 76.3242 182.605 78.9609 178.809 80.2617L176.488 76.7109C181.744 74.9531 184.1 70.7695 184.223 66.7617H177.789V63.1758H195.156ZM235.551 61.2422V93.2344H231.262V61.2422H235.551ZM229.012 61.6992V91.7578H224.793V81.8438H221.031C219.836 84.9551 217.744 86.7305 215.055 86.7305C210.836 86.7305 208.094 82.3008 208.094 75.0938C208.094 67.9219 210.836 63.5273 215.055 63.5273C217.727 63.5273 219.818 65.2676 221.031 68.3438H224.793V61.6992H229.012ZM215.055 67.7461C213.191 67.7461 212.137 70.207 212.172 75.0938C212.137 80.0156 213.191 82.4414 215.055 82.4062C216.918 82.4414 218.043 80.0156 218.043 75.0938C218.043 70.207 216.883 67.7461 215.055 67.7461ZM221.91 71.9297C222.051 72.9141 222.121 73.9688 222.121 75.0938C222.121 76.2012 222.051 77.2559 221.91 78.2227H224.793V71.9297H221.91Z" fill="black"/>
<path d="M514.891 58.9141C513.359 58.9141 512.102 57.6562 512.102 56.0977C512.102 54.5664 513.359 53.3086 514.891 53.3086C516.449 53.3086 517.707 54.5664 517.707 56.0977C517.707 57.6562 516.449 58.9141 514.891 58.9141ZM544.75 64.2734C541.305 64.2188 537.531 62.1953 537.531 54.8672C537.531 47.8672 540.402 43.9297 545.051 43.9297C548.523 43.9297 550.957 46.0625 551.477 49.1797H549.043C548.578 47.4297 547.266 46.1172 545.051 46.1172C541.797 46.1172 539.855 48.9062 539.855 53.6641H540.102C541.25 52.0234 543.055 51.0391 545.188 51.0391C548.715 51.0391 551.641 53.7734 551.641 57.6016C551.641 61.3203 548.906 64.3008 544.75 64.2734ZM544.75 62.1133C547.32 62.1133 549.234 60.0898 549.262 57.6289C549.234 55.1953 547.402 53.1992 544.805 53.1992C542.207 53.1992 540.211 55.3047 540.184 57.6562C540.184 59.9805 542.098 62.1133 544.75 62.1133ZM555.824 53.8008C556.699 52.7891 557.793 52.2422 558.996 52.2422C561.074 52.2422 562.961 53.8281 564.957 53.8281C566.188 53.8281 567.254 53.2266 568.074 52.1055V54.375C567.172 55.4141 566.105 55.9336 564.902 55.9336C562.824 55.9336 560.938 54.3477 558.914 54.3477C557.711 54.3477 556.645 54.9492 555.824 56.0703V53.8008ZM579.203 64.2734C575.047 64.2734 572.148 61.9766 572.176 58.75C572.148 56.1797 573.926 54.0742 576.195 53.7188V53.6094C574.227 53.1445 572.941 51.3398 572.941 49.1797C572.941 46.1445 575.594 43.9297 579.203 43.9297C582.812 43.9297 585.465 46.1445 585.492 49.1797C585.465 51.3398 584.152 53.1445 582.211 53.6094V53.7188C584.453 54.0742 586.23 56.1797 586.258 58.75C586.23 61.9766 583.332 64.2734 579.203 64.2734ZM579.203 62.1133C582.047 62.1133 583.797 60.6914 583.797 58.6133C583.797 56.4258 581.855 54.8125 579.203 54.8125C576.551 54.8125 574.582 56.4258 574.637 58.6133C574.582 60.6914 576.359 62.1133 579.203 62.1133ZM579.203 52.7344C581.445 52.7344 583.086 51.3672 583.086 49.3711C583.086 47.4023 581.527 46.0625 579.203 46.0625C576.852 46.0625 575.32 47.4023 575.32 49.3711C575.32 51.3672 576.934 52.7344 579.203 52.7344ZM608.844 41.9062V56.3164H606.684V52.4883H600.996V54.5664H589.84V43.7656H600.996V45.8711H606.684V41.9062H608.844ZM591.973 45.5156V52.8164H598.891V45.5156H591.973ZM600.777 57.0273C605.836 57.0273 608.926 58.6953 608.926 61.6211C608.926 64.5195 605.836 66.1602 600.777 66.1602C595.719 66.1602 592.629 64.5195 592.629 61.6211C592.629 58.6953 595.719 57.0273 600.777 57.0273ZM600.777 58.6953C597.059 58.7227 594.734 59.7891 594.762 61.6211C594.734 63.3711 597.059 64.4648 600.777 64.4648C604.496 64.4648 606.793 63.3711 606.793 61.6211C606.793 59.7891 604.496 58.7227 600.777 58.6953ZM600.996 50.6836H606.684V47.6484H600.996V50.6836ZM632.113 44.1758C632.113 47.5938 636.598 50.5742 640.973 51.1758L640.098 52.9258C636.324 52.2969 632.592 50.2051 631.02 47.2109C629.461 50.2188 625.715 52.2969 621.941 52.9258L621.066 51.1758C625.441 50.5742 629.898 47.6484 629.898 44.1758V42.7812H632.113V44.1758ZM642.066 55.6055V57.4102H632.004V66.2148H629.898V57.4102H619.918V55.6055H642.066ZM650.816 43.0547C654.084 43.0273 656.559 44.9277 657.023 47.7305H662.109V41.9062H664.27V54.9492H662.109V49.5078H657.051C656.613 52.3789 654.111 54.293 650.816 54.293C647.125 54.293 644.5 51.9961 644.5 48.6602C644.5 45.3516 647.125 43.0273 650.816 43.0547ZM650.816 44.8867C648.328 44.8594 646.551 46.418 646.551 48.6602C646.551 50.875 648.328 52.4883 650.816 52.4883C653.277 52.4883 655.027 50.875 655.027 48.6602C655.027 46.418 653.277 44.8594 650.816 44.8867ZM650.762 56.1797V59.2695H662.109V56.1797H664.27V65.8867H648.602V56.1797H650.762ZM650.762 64.1367H662.109V60.9922H650.762V64.1367ZM679.391 43.4922C684.477 43.4922 688.277 46.1445 688.277 50.1641C688.277 54.2109 684.477 56.8633 679.391 56.8359C674.305 56.8633 670.504 54.2109 670.504 50.1641C670.504 46.1445 674.305 43.4922 679.391 43.4922ZM679.391 45.2422C675.48 45.2148 672.527 47.2656 672.555 50.1641C672.527 53.1172 675.48 55.0859 679.391 55.0859C683.273 55.0859 686.199 53.1172 686.199 50.1641C686.199 47.2656 683.273 45.2148 679.391 45.2422ZM690.574 61.1836V62.9883H668.316V61.1836H690.574ZM714.773 61.4023V63.207H692.516V61.4023H702.523V56.8086H695.305V49.3164H709.852V45.4883H695.25V43.7109H711.957V51.0664H697.438V55.0312H712.531V56.8086H704.629V61.4023H714.773ZM731.617 44.2031V64H729.129V46.7734H729.02L724.207 49.9727V47.4844L729.129 44.2031H731.617ZM738.59 61.375C737.633 61.375 736.812 60.582 736.84 59.5977C736.812 58.6406 737.633 57.8477 738.59 57.8477C739.547 57.8477 740.34 58.6406 740.34 59.5977C740.34 60.582 739.547 61.375 738.59 61.375ZM738.59 50.3828C737.633 50.3828 736.812 49.5898 736.84 48.6055C736.812 47.6484 737.633 46.8555 738.59 46.8555C739.547 46.8555 740.34 47.6484 740.34 48.6055C740.34 49.5898 739.547 50.3828 738.59 50.3828ZM751.004 44.2031V64H748.516V46.7734H748.406L743.594 49.9727V47.4844L748.516 44.2031H751.004ZM774.629 44.1758C774.629 47.5938 779.113 50.5742 783.488 51.1758L782.613 52.9258C778.84 52.2969 775.107 50.2051 773.535 47.2109C771.977 50.2188 768.23 52.2969 764.457 52.9258L763.582 51.1758C767.957 50.5742 772.414 47.6484 772.414 44.1758V42.7812H774.629V44.1758ZM784.582 55.6055V57.4102H774.52V66.2148H772.414V57.4102H762.434V55.6055H784.582ZM799.102 44.9414C799.074 47.9219 803.176 50.3555 807.469 50.957L806.621 52.6523C802.697 52.0918 799.033 50.123 797.707 47.2656C796.395 50.123 792.744 52.0918 788.793 52.6523L788 50.957C792.293 50.3555 796.312 47.9219 796.312 44.9414V44.8867H788.656V43.1367H806.812V44.8867H799.102V44.9414ZM808.863 54.4297V56.207H798.965V61.1836H796.832V56.207H786.605V54.4297H808.863ZM806.375 63.8906V65.6953H789.449V58.75H791.609V63.8906H806.375ZM818.789 43.6836C822.617 43.6836 825.324 46.0078 825.324 49.3984C825.324 52.7891 822.617 55.1133 818.789 55.1133C814.961 55.1133 812.199 52.7891 812.227 49.3984C812.199 46.0078 814.961 43.6836 818.789 43.6836ZM818.789 45.5703C816.191 45.5703 814.305 47.1289 814.332 49.3984C814.305 51.668 816.191 53.2266 818.789 53.2266C821.359 53.2266 823.219 51.668 823.219 49.3984C823.219 47.1289 821.359 45.5703 818.789 45.5703ZM830.766 41.9062V66.2695H828.633V41.9062H830.766ZM810.969 59.0781C815.453 59.0781 821.633 59.0508 827.02 58.2578L827.184 59.8438C821.633 60.8828 815.645 60.9102 811.27 60.9102L810.969 59.0781ZM862.156 41.9062V66.2148H859.996V41.9062H862.156ZM856.551 44.5586V46.3359H853.789V58.0391C855.156 57.9434 856.51 57.8203 857.809 57.6562L857.945 59.2695C852.641 60.0898 846.789 60.1719 842.277 60.1992L842.031 58.3672L845.395 58.3398V46.3359H842.66V44.5586H856.551ZM847.5 58.3125C848.867 58.2852 850.275 58.2305 851.684 58.1484V46.3359H847.5V58.3125ZM885.891 53.6094V55.3867H869.102V44.1758H885.645V45.9531H871.234V53.6094H885.891ZM888.516 61.1016V62.9062H866.258V61.1016H888.516ZM893.602 43.4648V47.3203H899.016V43.4648H901.039V54.7852H891.578V43.4648H893.602ZM893.602 53.0078H899.016V49.043H893.602V53.0078ZM911.102 41.9336V56.5078H909.051V50.0273H905.824V56.3711H903.801V42.3984H905.824V48.25H909.051V41.9336H911.102ZM911.102 57.9844V66.2148H908.996V59.7617H894.723V57.9844H911.102ZM514.891 103.914C513.359 103.914 512.102 102.656 512.102 101.098C512.102 99.5664 513.359 98.3086 514.891 98.3086C516.449 98.3086 517.707 99.5664 517.707 101.098C517.707 102.656 516.449 103.914 514.891 103.914ZM551.531 89.5312V91.2812H537.039V89.5312H543.219V86.7969H545.352V89.5312H551.531ZM544.285 92.5391C547.785 92.5664 550.109 94.2617 550.137 96.9414C550.109 99.5938 547.785 101.316 544.285 101.316C540.785 101.316 538.406 99.5938 538.434 96.9414C538.406 94.2617 540.785 92.5664 544.285 92.5391ZM544.285 94.207C541.988 94.2344 540.457 95.3008 540.484 96.9414C540.457 98.5547 541.988 99.5938 544.285 99.5938C546.555 99.5938 548.086 98.5547 548.113 96.9414C548.086 95.3008 546.555 94.2344 544.285 94.207ZM555.988 86.9062V93.6602H559.652V95.4648H555.988V102.109H553.855V86.9062H555.988ZM555.988 103.449V111.215H553.855V105.199H540.074V103.449H555.988ZM568.43 91.7461C568.43 94.4258 570.316 97.1602 573.434 98.3359L572.312 99.9766C569.975 99.0742 568.293 97.3379 567.418 95.2461C566.516 97.5703 564.779 99.6348 562.387 100.66L561.211 98.9922C564.41 97.5977 566.379 94.4531 566.379 91.7461V88.4375H568.43V91.7461ZM581.828 86.9336V101.945H579.777V95.2461H576.551V101.18H574.527V87.3984H576.551V93.4688H579.777V86.9336H581.828ZM573.789 102.492C578.82 102.492 581.965 104.078 581.965 106.84C581.965 109.574 578.82 111.16 573.789 111.16C568.73 111.16 565.613 109.574 565.641 106.84C565.613 104.078 568.73 102.492 573.789 102.492ZM573.789 104.133C570.07 104.133 567.746 105.145 567.773 106.84C567.746 108.508 570.07 109.492 573.789 109.492C577.48 109.492 579.805 108.508 579.832 106.84C579.805 105.145 577.48 104.133 573.789 104.133ZM611.414 86.9062V94.3164H615.078V96.1211H611.414V104.707H609.254V86.9062H611.414ZM604.852 88.793C604.852 95.0547 600.367 99.7031 593.367 101.891L592.438 100.168C598.262 98.3496 602.062 94.877 602.527 90.5977H593.449V88.793H604.852ZM612.535 108.891V110.695H596.184V102.902H598.316V108.891H612.535ZM637.418 89.3672V91.1445H623.664V89.3672H629.57V86.6875H631.703V89.3672H637.418ZM630.609 92.3203C633.863 92.3203 636.16 94.0703 636.16 96.7227C636.16 99.3477 633.863 101.07 630.609 101.07C627.328 101.07 625.086 99.3477 625.113 96.7227C625.086 94.0703 627.328 92.3203 630.609 92.3203ZM630.609 93.9883C628.504 93.9883 627.109 95.082 627.109 96.7227C627.109 98.3359 628.504 99.457 630.609 99.457C632.715 99.457 634.137 98.3359 634.164 96.7227C634.137 95.082 632.715 93.9883 630.609 93.9883ZM643.789 86.9062V101.289H641.629V99.1289H637.391V97.3516H641.629V94.3711H637.418V92.5938H641.629V86.9062H643.789ZM630.09 102.301V104.871H641.656V102.301H643.789V110.887H627.957V102.301H630.09ZM630.09 109.164H641.656V106.539H630.09V109.164ZM659.375 88.4102V95.2188H651.008V98.9922C655.574 98.9922 657.926 98.9238 660.797 98.3906L661.016 100.168C657.98 100.66 655.52 100.742 650.598 100.742H648.875V93.5781H657.242V90.1328H648.82V88.4102H659.375ZM667.988 86.9336V101.863H665.828V97.3516H660.988V95.5742H665.828V92.293H660.988V90.543H665.828V86.9336H667.988ZM667.988 103.176V111.27H665.828V104.926H651.609V103.176H667.988ZM685.516 89.6133V90.8711C685.488 92.7852 685.488 96.0117 684.805 100.523L682.645 100.332C683.301 96.2578 683.355 93.3047 683.355 91.3633H673.156V89.6133H685.516ZM679.145 96.5586V103.941C681.838 103.846 684.6 103.668 687.129 103.367L687.238 104.98C682.125 105.773 676.41 105.883 672.062 105.855L671.789 104.078C673.389 104.064 675.166 104.051 677.039 103.996V96.5586H679.145ZM690.793 86.9062V97.0781H694.73V98.9375H690.793V111.215H688.66V86.9062H690.793ZM722.266 86.9062V93.25H725.93V95.0273H722.266V101.508H720.133V86.9062H722.266ZM715.648 88.7109C715.648 94.8906 711.273 99.457 704.191 101.535L703.289 99.7852C709.154 98.0898 712.9 94.7129 713.352 90.4883H704.355V88.7109H715.648ZM714.582 101.781C719.477 101.781 722.539 103.559 722.539 106.457C722.539 109.41 719.477 111.16 714.582 111.16C709.742 111.16 706.598 109.41 706.625 106.457C706.598 103.559 709.742 101.781 714.582 101.781ZM714.582 103.504C711.027 103.477 708.73 104.625 708.758 106.457C708.73 108.289 711.027 109.438 714.582 109.438C718.164 109.438 720.461 108.289 720.461 106.457C720.461 104.625 718.164 103.477 714.582 103.504ZM735.609 93.4414C735.609 97.7344 738.453 102.137 741.898 103.832L740.586 105.555C737.906 104.146 735.664 101.275 734.598 97.8984C733.504 101.494 731.207 104.557 728.473 106.02L727.105 104.297C730.66 102.547 733.477 97.8711 733.504 93.4414V89.0117H735.609V93.4414ZM746.273 86.9062V96.7773H750.348V98.6367H746.273V111.215H744.141V86.9062H746.273ZM759.617 88.6836C763.445 88.6836 766.152 91.0078 766.152 94.3984C766.152 97.7891 763.445 100.113 759.617 100.113C755.789 100.113 753.027 97.7891 753.055 94.3984C753.027 91.0078 755.789 88.6836 759.617 88.6836ZM759.617 90.5703C757.02 90.5703 755.133 92.1289 755.16 94.3984C755.133 96.668 757.02 98.2266 759.617 98.2266C762.188 98.2266 764.047 96.668 764.047 94.3984C764.047 92.1289 762.188 90.5703 759.617 90.5703ZM771.594 86.9062V111.27H769.461V86.9062H771.594ZM751.797 104.078C756.281 104.078 762.461 104.051 767.848 103.258L768.012 104.844C762.461 105.883 756.473 105.91 752.098 105.91L751.797 104.078ZM803.641 86.9062V111.215H801.535V98.5H798.172V110.012H796.121V87.5625H798.172V96.7227H801.535V86.9062H803.641ZM793.359 90.0781C793.332 96.2578 791.172 102.109 784.172 105.992L782.914 104.488C788.561 101.344 790.898 96.8867 791.254 91.8555H783.844V90.0781H793.359ZM827.211 86.9062V99.6211H825.078V96.5039H819.336V98.6367H808.316V88.0547H810.449V91.5547H817.23V88.0547H819.336V90.4062H825.078V86.9062H827.211ZM827.211 100.797V106.512H813.648V109.164H828.141V110.887H811.516V104.871H825.078V102.52H811.461V100.797H827.211ZM810.449 96.8867H817.23V93.25H810.449V96.8867ZM819.336 94.8086H825.078V92.0742H819.336V94.8086ZM849.031 89.8047C849.018 92.1016 848.758 94.3711 848.074 96.5312H851.957V87.5625H854.008V109.984H851.957V98.3086H847.363C845.996 101.303 843.617 104.01 839.707 106.156L838.477 104.625C842.223 102.588 844.451 100.031 845.695 97.1602L838.75 97.8711L838.422 95.957L846.297 95.4648C846.639 94.207 846.844 92.9082 846.926 91.582H839.598V89.8047H849.031ZM859.121 86.9062V111.215H857.07V86.9062H859.121ZM869.047 88.793C872.355 88.8203 874.734 91.6504 875.09 96.2031H880.531V86.9062H882.664V111.27H880.531V97.9805H875.117C874.857 102.738 872.438 105.719 869.047 105.719C865.465 105.719 862.949 102.438 862.949 97.2695C862.949 92.1016 865.465 88.8203 869.047 88.793ZM869.047 90.707C866.641 90.7344 865 93.3047 865 97.2695C865 101.234 866.641 103.805 869.047 103.805C871.426 103.805 873.094 101.234 873.094 97.2695C873.094 93.3047 871.426 90.7344 869.047 90.707ZM912.551 86.9062V96.8047H916.488V98.6094H912.551V111.215H910.418V86.9062H912.551ZM906.262 89.5312C906.262 96.4219 903.035 102.684 895.105 106.594L893.902 104.898C900.191 101.768 903.609 97.0918 904.102 91.3359H895.023V89.5312H906.262ZM937.57 93.7148V95.4922H920.973V87.3984H923.105V93.7148H937.57ZM940.113 98.3359V100.113H917.938V98.3359H940.113ZM929.012 102.301C934.234 102.301 937.352 103.887 937.379 106.703C937.352 109.52 934.234 111.105 929.012 111.105C923.762 111.105 920.617 109.52 920.617 106.703C920.617 103.887 923.762 102.301 929.012 102.301ZM929.012 103.996C925.102 104.023 922.777 104.98 922.805 106.703C922.777 108.398 925.102 109.438 929.012 109.438C932.867 109.438 935.219 108.398 935.219 106.703C935.219 104.98 932.867 104.023 929.012 103.996ZM514.891 148.914C513.359 148.914 512.102 147.656 512.102 146.098C512.102 144.566 513.359 143.309 514.891 143.309C516.449 143.309 517.707 144.566 517.707 146.098C517.707 147.656 516.449 148.914 514.891 148.914ZM559.133 142.543V144.32H536.984V142.543H546.965V140.137H539.855V132.727H556.262V140.137H549.07V142.543H559.133ZM541.988 134.449V138.414H554.129V134.449H541.988ZM556.289 146.344V151.785H541.852V154.246H557.027V155.941H539.719V150.172H554.184V148.012H539.664V146.344H556.289ZM581.254 131.906V144.949H579.121V131.906H581.254ZM567.637 146.18V149.133H579.121V146.18H581.254V155.887H565.504V146.18H567.637ZM567.637 154.137H579.121V150.855H567.637V154.137ZM568.129 133.109C571.82 133.082 574.5 135.352 574.5 138.688C574.5 141.996 571.82 144.266 568.129 144.266C564.438 144.266 561.758 141.996 561.758 138.688C561.758 135.352 564.438 133.082 568.129 133.109ZM568.129 134.914C565.641 134.887 563.836 136.473 563.863 138.688C563.836 140.902 565.641 142.488 568.129 142.488C570.59 142.488 572.395 140.902 572.395 138.688C572.395 136.473 570.59 134.887 568.129 134.914ZM598.863 134.613V135.871C598.836 137.785 598.836 141.012 598.152 145.523L595.992 145.332C596.648 141.258 596.703 138.305 596.703 136.363H586.504V134.613H598.863ZM592.492 141.559V148.941C595.186 148.846 597.947 148.668 600.477 148.367L600.586 149.98C595.473 150.773 589.758 150.883 585.41 150.855L585.137 149.078C586.736 149.064 588.514 149.051 590.387 148.996V141.559H592.492ZM604.141 131.906V142.078H608.078V143.938H604.141V156.215H602.008V131.906H604.141ZM637.609 135.68V137.457H617.703V135.68H626.617V132.371H628.723V135.68H637.609ZM638.867 151.457V153.234H616.609V151.457H638.867ZM627.684 139.07C632.578 139.043 635.668 140.848 635.668 143.855C635.668 146.836 632.578 148.641 627.684 148.641C622.734 148.641 619.672 146.836 619.699 143.855C619.672 140.848 622.734 139.043 627.684 139.07ZM627.684 140.82C624.074 140.793 621.805 141.969 621.832 143.855C621.805 145.742 624.074 146.891 627.684 146.891C631.238 146.891 633.48 145.742 633.48 143.855C633.48 141.969 631.238 140.793 627.684 140.82ZM663.039 144.457V146.234H640.781V144.457H663.039ZM660.168 132.508V138.25H645.812V140.684H660.688V142.352H643.68V136.637H658.008V134.23H643.598V132.508H660.168ZM660.168 148.449V155.887H643.816V148.449H660.168ZM645.922 150.199V154.137H658.062V150.199H645.922ZM685.844 131.906V156.215H683.766V131.906H685.844ZM680.949 132.426V154.984H678.898V143.172H675.781C675.549 147.902 673.539 150.855 670.531 150.855C667.359 150.855 665.309 147.574 665.309 142.406C665.309 137.238 667.359 133.957 670.531 133.957C673.484 133.957 675.48 136.814 675.754 141.395H678.898V132.426H680.949ZM670.531 135.98C668.562 135.98 667.305 138.441 667.332 142.406C667.305 146.344 668.562 148.832 670.531 148.805C672.5 148.832 673.758 146.344 673.758 142.406C673.758 138.441 672.5 135.98 670.531 135.98ZM705.449 144.73V149.188C707.787 149.092 710.18 148.887 712.422 148.559L712.586 150.145C707.035 151.156 701.047 151.184 696.672 151.184L696.371 149.406C698.408 149.393 700.814 149.379 703.344 149.297V144.73H705.449ZM711.164 135.105V136.883H705.449C705.504 140.027 708.115 142.584 711.711 143.609L710.699 145.305C707.773 144.43 705.49 142.557 704.41 140.082C703.344 142.693 701.074 144.635 698.148 145.523L697.109 143.883C700.705 142.83 703.234 140.164 703.289 136.883H697.711V135.105H703.344V132.098H705.449V135.105H711.164ZM716.168 131.906V156.27H714.035V131.906H716.168ZM728.883 136.391C728.883 139.562 731.316 142.57 734.871 143.801L733.75 145.496C731.002 144.512 728.883 142.475 727.844 139.973C726.791 142.775 724.549 145.018 721.664 146.07L720.543 144.375C724.125 143.09 726.723 139.836 726.723 136.418V135.352H721.227V133.602H734.324V135.352H728.883V136.391ZM740.586 147.766V156.215H738.426V149.543H724.234V147.766H740.586ZM740.586 131.906V146.48H738.426V140.082H733.559V138.277H738.426V131.906H740.586ZM763.5 131.906V142.27H767.383V144.074H763.5V156.215H761.34V131.906H763.5ZM744.332 149.734C746.314 149.734 748.625 149.734 751.031 149.652V146.945C748.201 146.631 746.355 144.977 746.383 142.57C746.355 139.836 748.68 138.059 752.125 138.059C755.516 138.059 757.867 139.836 757.895 142.57C757.867 144.977 755.994 146.631 753.191 146.973V149.57C755.461 149.461 757.744 149.283 759.863 148.969L760 150.609C754.695 151.512 748.953 151.566 744.688 151.566L744.332 149.734ZM759.426 134.887V136.637H744.77V134.887H751.031V131.961H753.191V134.887H759.426ZM752.125 139.727C749.883 139.727 748.379 140.875 748.379 142.57C748.379 144.266 749.883 145.359 752.125 145.332C754.34 145.359 755.844 144.266 755.844 142.57C755.844 140.875 754.34 139.727 752.125 139.727ZM782.969 139.891V141.641H778.047V145.031C780.316 144.936 782.586 144.771 784.691 144.539L784.855 146.125C779.633 146.836 773.836 147 769.27 147L768.941 145.25C771.074 145.236 773.467 145.209 775.914 145.113V141.641H771.156V133.492H782.777V135.27H773.316V139.891H782.969ZM788.875 131.934V150.117H786.715V131.934H788.875ZM789.668 153.891V155.695H773.098V148.859H775.23V153.891H789.668ZM814.605 134.531V136.281H800.113V134.531H806.293V131.797H808.426V134.531H814.605ZM807.359 137.539C810.859 137.566 813.184 139.262 813.211 141.941C813.184 144.594 810.859 146.316 807.359 146.316C803.859 146.316 801.48 144.594 801.508 141.941C801.48 139.262 803.859 137.566 807.359 137.539ZM807.359 139.207C805.062 139.234 803.531 140.301 803.559 141.941C803.531 143.555 805.062 144.594 807.359 144.594C809.629 144.594 811.16 143.555 811.188 141.941C811.16 140.301 809.629 139.234 807.359 139.207ZM819.062 131.906V138.66H822.727V140.465H819.062V147.109H816.93V131.906H819.062ZM819.062 148.449V156.215H816.93V150.199H803.148V148.449H819.062ZM829.207 146.508V149.352H841.348V146.508H843.508V155.887H827.074V146.508H829.207ZM829.207 154.164H841.348V151.047H829.207V154.164ZM846.406 143.008V144.785H824.258V143.008H846.406ZM836.453 133.328C836.453 136.336 840.883 139.016 845.148 139.562L844.355 141.285C840.582 140.725 836.891 138.797 835.359 136.062C833.801 138.811 830.082 140.725 826.336 141.285L825.516 139.562C829.836 138.988 834.238 136.418 834.238 133.328V132.18H836.453V133.328ZM874.461 131.906V140.438H878.098V142.242H874.461V150.938H872.301V131.906H874.461ZM875.336 153.891V155.695H859.012V149.652H861.172V153.891H875.336ZM855.375 146.371C857.303 146.371 859.586 146.357 861.965 146.262V144.402C859.135 144.143 857.316 142.789 857.316 140.738C857.316 138.387 859.586 136.992 863.004 136.992C866.449 136.992 868.691 138.387 868.719 140.738C868.691 142.775 866.914 144.129 864.098 144.402V146.152C866.381 146.043 868.678 145.824 870.797 145.496L870.988 147.027C865.766 148.012 859.887 148.094 855.621 148.121L855.375 146.371ZM870.059 134.312V135.926H855.977V134.312H861.965V131.852H864.098V134.312H870.059ZM863.004 138.523C860.762 138.523 859.367 139.371 859.367 140.738C859.367 142.078 860.762 142.926 863.004 142.926C865.246 142.926 866.668 142.078 866.668 140.738C866.668 139.371 865.246 138.523 863.004 138.523ZM899.836 131.934V146.535H897.676V143.254H891.223V141.477H897.676V138.195H891.469C889.869 142.105 886.109 144.936 880.914 146.48L880.012 144.785C885.891 143.035 889.541 139.754 889.992 135.543H881.242V133.738H892.316C892.316 134.695 892.207 135.611 892.016 136.473H897.676V131.934H899.836ZM891.879 146.781C896.801 146.781 899.973 148.531 899.973 151.43C899.973 154.355 896.801 156.105 891.879 156.105C886.902 156.105 883.758 154.355 883.758 151.43C883.758 148.531 886.902 146.781 891.879 146.781ZM891.879 148.504C888.215 148.477 885.863 149.598 885.863 151.43C885.863 153.262 888.215 154.355 891.879 154.355C895.488 154.355 897.812 153.262 897.84 151.43C897.812 149.598 895.488 148.477 891.879 148.504Z" fill="black"/>
<defs>
<linearGradient id="paint0_linear_543_1094" x1="-0.968748" y1="98.5" x2="1491.03" y2="98.4998" gradientUnits="userSpaceOnUse">
<stop stop-color="#3182F6"/>
<stop offset="1" stop-color="#A009FF"/>
</linearGradient>
<linearGradient id="paint1_linear_543_1094" x1="43.6656" y1="126" x2="558.628" y2="126" gradientUnits="userSpaceOnUse">
<stop stop-color="#3182F6"/>
<stop offset="1" stop-color="#A009FF"/>
</linearGradient>
</defs>
</svg>
