<svg width="1072" height="197" viewBox="0 0 1072 197" fill="none" xmlns="http://www.w3.org/2000/svg">
<rect x="0.5" y="0.5" width="1071" height="196" rx="14.5" fill="white" stroke="url(#paint0_linear_543_1095)"/>
<path d="M426 33L426 165" stroke="#F2F2F7" stroke-width="2"/>
<path d="M67.7041 112.357V132.338H64.3135V112.357H67.7041ZM68.4609 136.425V139.149H49.6006V130.431H52.9912V136.425H68.4609ZM55.1104 116.535C55.1104 120.35 57.3506 123.952 61.6797 125.405L59.9541 128.069C56.8359 126.979 54.6108 124.8 53.415 122.015C52.1738 124.997 49.9185 127.388 46.6943 128.554L44.9385 125.89C49.3887 124.315 51.6289 120.471 51.6289 116.535V113.871H55.1104V116.535ZM96.6455 125.769V128.493H71.7002V125.769H82.4775V121.954H85.8076V125.769H96.6455ZM85.8379 113.811C85.8379 117.141 89.501 120.168 95.2227 120.895L93.9209 123.528C89.4253 122.832 85.853 120.804 84.1123 117.928C82.3564 120.804 78.7842 122.832 74.2734 123.528L73.0625 120.895C78.6934 120.168 82.417 117.08 82.417 113.811V112.781H85.8379V113.811ZM93.5879 130.673V139.694H90.2275V133.307H74.4551V130.673H93.5879ZM120.077 112.357V120.955H123.892V123.74H120.077V132.792H116.717V112.357H120.077ZM114.749 115.385V118.079H98.5225V115.385H104.971V112.327H108.331V115.385H114.749ZM106.636 119.199C110.571 119.199 113.296 121.288 113.326 124.437C113.296 127.555 110.571 129.613 106.636 129.613C102.67 129.613 99.915 127.555 99.915 124.437C99.915 121.288 102.67 119.199 106.636 119.199ZM106.636 121.803C104.547 121.803 103.185 122.771 103.185 124.437C103.185 126.071 104.547 127.04 106.636 127.01C108.725 127.04 110.117 126.071 110.117 124.437C110.117 122.771 108.725 121.803 106.636 121.803ZM121.167 136.425V139.149H102.549V131.188H105.909V136.425H121.167ZM155.497 112.327V139.694H152.106V112.327H155.497ZM148.837 114.991V117.746H146.203V130.007C147.52 129.916 148.807 129.795 150.048 129.644L150.229 132.156C144.356 133.095 137.938 133.216 132.913 133.216L132.58 130.461L135.971 130.431V117.746H133.307V114.991H148.837ZM139.21 130.34C140.421 130.325 141.662 130.279 142.903 130.219V117.746H139.21V130.34ZM181.653 125.163V127.857H162.46V114.719H181.441V117.443H165.79V125.163H181.653ZM184.438 133.428V136.213H159.433V133.428H184.438ZM190.463 114.083V118.109H194.974V114.083H198.092V127.131H187.284V114.083H190.463ZM190.463 124.467H194.974V120.713H190.463V124.467ZM209.626 112.357V128.796H206.417V121.924H203.692V128.645H200.544V112.872H203.692V119.169H206.417V112.357H209.626ZM209.626 130.188V139.694H206.266V132.913H190.887V130.188H209.626ZM242.442 113.266V121.046H226.73V123.771H243.048V126.465H223.34V118.503H238.991V115.99H223.279V113.266H242.442ZM245.349 128.796V131.49H234.48V139.725H231.12V131.49H220.343V128.796H245.349ZM272.171 133.579V136.395H247.165V133.579H272.171ZM269.991 114.87V117.564H265.995V126.283H269.9V128.947H249.314V126.283H253.159V117.564H249.224V114.87H269.991ZM256.52 126.283H262.665V117.564H256.52V126.283ZM304.17 112.327V139.694H300.779V112.327H304.17ZM295.996 115.233C295.996 123.377 292.848 130.31 283.251 134.851L281.495 132.156C288.655 128.75 291.985 124.119 292.575 117.897H282.888V115.233H295.996ZM329.69 112.357V120.259H333.505V123.044H329.69V132.489H326.33V112.357H329.69ZM330.78 136.425V139.149H312.162V130.461H315.522V136.425H330.78ZM312.374 114.295V118.473H318.762V114.295H322.092V128.039H309.044V114.295H312.374ZM312.374 125.375H318.762V121.076H312.374V125.375ZM367.229 125.859V128.554H356.664V133.579H353.243V128.554H342.224V125.859H367.229ZM364.475 136.395V139.149H345.281V131.036H348.672V136.395H364.475ZM354.696 112.933C360.6 112.933 364.505 115.082 364.505 118.533C364.505 121.984 360.6 124.104 354.696 124.104C348.793 124.104 344.888 121.984 344.888 118.533C344.888 115.082 348.793 112.933 354.696 112.933ZM354.696 115.597C350.942 115.597 348.49 116.656 348.521 118.533C348.49 120.35 350.942 121.409 354.696 121.409C358.48 121.409 360.902 120.35 360.902 118.533C360.902 116.656 358.48 115.597 354.696 115.597ZM376.645 113.871C378.854 113.871 380.762 114.688 382.063 116.051H388.603V112.327H391.963V128.433H388.603V124.951H382.063C380.762 126.313 378.839 127.116 376.645 127.101C372.527 127.131 369.409 124.346 369.409 120.501C369.409 116.626 372.527 113.871 376.645 113.871ZM376.645 116.747C374.283 116.747 372.618 118.2 372.618 120.501C372.618 122.741 374.283 124.255 376.645 124.255C378.915 124.255 380.58 122.741 380.61 120.501C380.58 118.2 378.915 116.747 376.645 116.747ZM382.699 129.008C388.451 129.008 392.054 130.976 392.054 134.336C392.054 137.696 388.451 139.664 382.699 139.664C376.978 139.664 373.375 137.696 373.405 134.336C373.375 130.976 376.978 129.008 382.699 129.008ZM382.699 131.581C378.885 131.581 376.675 132.55 376.705 134.336C376.675 136.062 378.885 137.03 382.699 137.03C386.574 137.03 388.754 136.062 388.754 134.336C388.754 132.55 386.574 131.581 382.699 131.581ZM383.577 118.745C383.729 119.305 383.819 119.88 383.819 120.501C383.819 121.106 383.729 121.682 383.607 122.227H388.603V118.745H383.577Z" fill="url(#paint1_linear_543_1095)"/>
<path d="M56.4297 67.5703C56.4297 71.4023 58.7852 75.3047 64.0586 76.8867L61.7734 80.4023C58.1875 79.2773 55.6562 76.9746 54.2148 74.0742C52.7559 77.2207 50.1543 79.752 46.4102 81L44.0898 77.4844C49.3984 75.7617 51.8594 71.6133 51.8594 67.5703V67.1133H45.2852V63.5273H62.8633V67.1133H56.4297V67.5703ZM70.7383 61.2773V84.4102H66.2383V61.2773H70.7383ZM71.582 89.0859V92.6719H49.293V82.3008H53.8281V89.0859H71.582ZM100.656 61.2422V74.25H104.84V77.9766H100.656V93.2344H96.1211V61.2422H100.656ZM74.6758 84.1992C77.0137 84.1992 79.7383 84.1992 82.5859 84.1289V81.3867C79.1758 80.7188 76.9609 78.5566 76.9961 75.5859C76.9609 72 80.1953 69.5742 84.8711 69.5742C89.4414 69.5742 92.7109 72 92.7461 75.5859C92.7109 78.5566 90.4609 80.7363 87.0859 81.3867V83.9531C89.6172 83.8301 92.166 83.6191 94.5391 83.2852L94.8203 86.5547C88 87.8203 80.6875 87.8555 75.2734 87.8555L74.6758 84.1992ZM94.293 64.793V68.3086H75.3086V64.793H82.5859V61.418H87.0859V64.793H94.293ZM84.8711 72.9844C82.6914 72.9844 81.2148 73.9336 81.25 75.5859C81.2148 77.2734 82.6914 78.1875 84.8711 78.1875C86.9805 78.1875 88.4219 77.2734 88.4219 75.5859C88.4219 73.9336 86.9805 72.9844 84.8711 72.9844ZM131.418 61.2422V73.7578H136.129V77.4492H131.418V93.2344H126.988V61.2422H131.418ZM124.809 66.0234V69.6094H106V66.0234H113.242V61.7344H117.742V66.0234H124.809ZM115.492 71.4023C120.168 71.4023 123.648 74.5664 123.648 79.0312C123.648 83.4961 120.168 86.6602 115.492 86.6602C110.781 86.6602 107.301 83.4961 107.301 79.0312C107.301 74.5664 110.781 71.4023 115.492 71.4023ZM115.492 75.0234C113.242 75.0586 111.59 76.5703 111.59 79.0312C111.59 81.5273 113.242 83.0039 115.492 82.9688C117.742 83.0039 119.359 81.5273 119.359 79.0312C119.359 76.5703 117.742 75.0586 115.492 75.0234ZM163.27 69.9609V73.4766H140.91V62.3672H145.375V69.9609H163.27ZM166.539 76.9219V80.4375H137.254V76.9219H166.539ZM163.48 88.9453V92.5312H140.629V83.0391H145.129V88.9453H163.48ZM193.117 64.3008C193.082 74.1445 190.445 82.4062 178.914 88.3828L176.453 85.0078C181.516 82.3359 184.662 79.3652 186.508 75.832L177.227 76.6758L176.629 72.8789L187.914 72.2109C188.283 70.8574 188.512 69.416 188.652 67.8867H178.352V64.3008H193.117ZM203.664 61.2422V93.2344H199.199V77.2031H193.047V73.5469H199.199V61.2422H203.664ZM234.637 61.2422V93.3047H230.172V61.2422H234.637ZM224.723 63.9141V76.2539H214.176V82.125C219.045 82.1074 223.193 81.8262 227.887 81.0703L228.273 84.6914C223 85.6055 218.254 85.8164 212.418 85.8164H209.535V72.7031H220.152V67.5352H209.5V63.9141H224.723ZM264.73 62.1914V65.0039C264.73 67.4648 264.73 70.0664 264.133 73.2656H268.035V76.7812H260.863V79.0312H264.871V87.5039H246.66V89.4375H265.996V92.8828H242.195V84.3047H260.406V82.4414H242.16V79.0312H246.027V76.7812H238.996V73.2656H259.633C259.791 72.334 259.932 71.4551 260.02 70.6289L242.125 71.4023L241.633 67.8867L260.266 67.5V65.707H242.512V62.1914H264.73ZM250.527 79.0312H256.398V76.7812H250.527V79.0312ZM297.004 81.457V92.8828H275.383V81.457H297.004ZM279.848 84.9023V89.2969H292.574V84.9023H279.848ZM297.004 61.2773V80.0508H292.539V71.5078H287.371V67.8867H292.539V61.2773H297.004ZM285.754 62.7188V72.5273H275.734V75.5508C280.586 75.5156 284.066 75.3574 288.074 74.707L288.391 78.3281C283.82 79.1016 279.812 79.207 273.906 79.1719H271.305V69.1523H281.359V66.3398H271.234V62.7188H285.754Z" fill="black"/>
<path d="M512.891 58.9141C511.359 58.9141 510.102 57.6562 510.102 56.0977C510.102 54.5664 511.359 53.3086 512.891 53.3086C514.449 53.3086 515.707 54.5664 515.707 56.0977C515.707 57.6562 514.449 58.9141 512.891 58.9141ZM553.988 41.9062V48.25H557.652V50.0273H553.988V56.5078H551.855V41.9062H553.988ZM547.371 43.7109C547.371 49.8906 542.996 54.457 535.914 56.5352L535.012 54.7852C540.877 53.0898 544.623 49.7129 545.074 45.4883H536.078V43.7109H547.371ZM546.305 56.7812C551.199 56.7812 554.262 58.5586 554.262 61.457C554.262 64.4102 551.199 66.1602 546.305 66.1602C541.465 66.1602 538.32 64.4102 538.348 61.457C538.32 58.5586 541.465 56.7812 546.305 56.7812ZM546.305 58.5039C542.75 58.4766 540.453 59.625 540.48 61.457C540.453 63.2891 542.75 64.4375 546.305 64.4375C549.887 64.4375 552.184 63.2891 552.184 61.457C552.184 59.625 549.887 58.4766 546.305 58.5039ZM567.332 48.4414C567.332 52.7344 570.176 57.1367 573.621 58.832L572.309 60.5547C569.629 59.1465 567.387 56.2754 566.32 52.8984C565.227 56.4941 562.93 59.5566 560.195 61.0195L558.828 59.2969C562.383 57.5469 565.199 52.8711 565.227 48.4414V44.0117H567.332V48.4414ZM577.996 41.9062V51.7773H582.07V53.6367H577.996V66.2148H575.863V41.9062H577.996ZM595.797 53.0352V55.1953H582.18V53.0352H595.797ZM616.605 41.9062V66.2695H614.445V41.9062H616.605ZM609.715 44.2305V46.0352H600.309V58.3672C605.039 58.3672 608.156 58.2168 611.793 57.5742L612.012 59.3789C608.238 60.0625 605.039 60.1992 600.117 60.2266H598.148V44.2305H609.715ZM641.406 58.2852V66.2148H639.301V60.0078H625.027V58.2852H641.406ZM630.496 43.7656V50.5195H623.961V54.1836C627.146 54.1699 629.525 54.0195 632.41 53.418L632.656 55.1953C629.539 55.7695 626.969 55.9336 623.441 55.9062H621.883V48.9062H628.445V45.5156H621.828V43.7656H630.496ZM641.406 41.9336V57.0547H639.355V41.9336H641.406ZM636.594 42.3984V56.8906H634.543V49.9453H631.453V48.168H634.543V42.3984H636.594ZM665.113 41.9062V66.2695H662.98V52.8711H657.84V51.0938H662.98V41.9062H665.113ZM657.43 44.1484V45.9258H648.242V50.9844H656.363V52.7344H648.242V58.6133C652.713 58.6133 655.557 58.4629 658.906 57.875L659.152 59.6523C655.625 60.2266 652.645 60.3906 647.941 60.3906H646.082V44.1484H657.43ZM681.574 53.0352V55.1953H667.957V53.0352H681.574ZM687.426 42.8906V45.9805H699.457V42.8906H701.59V52.5977H694.48V55.1953H704.488V56.9727H682.34V55.1953H692.348V52.5977H685.293V42.8906H687.426ZM687.426 50.875H699.457V47.6758H687.426V50.875ZM702.027 63.8906V65.6953H685.211V58.9141H687.371V63.8906H702.027ZM714.688 48.4414C714.688 52.7344 717.531 57.1367 720.977 58.832L719.664 60.5547C716.984 59.1465 714.742 56.2754 713.676 52.8984C712.582 56.4941 710.285 59.5566 707.551 61.0195L706.184 59.2969C709.738 57.5469 712.555 52.8711 712.582 48.4414V44.0117H714.688V48.4414ZM725.352 41.9062V51.7773H729.426V53.6367H725.352V66.2148H723.219V41.9062H725.352ZM756.77 41.9062V49.3164H760.434V51.1211H756.77V59.707H754.609V41.9062H756.77ZM750.207 43.793C750.207 50.0547 745.723 54.7031 738.723 56.8906L737.793 55.168C743.617 53.3496 747.418 49.877 747.883 45.5977H738.805V43.793H750.207ZM757.891 63.8906V65.6953H741.539V57.9023H743.672V63.8906H757.891ZM791.223 55.7695V57.5469H785.344V66.2148H783.184V57.5469H776.949V66.2148H774.734V57.5469H768.965V55.7695H791.223ZM780.039 42.8906C785.152 42.8906 788.598 44.9414 788.598 48.1953C788.598 51.4219 785.152 53.4727 780.039 53.4453C774.926 53.4727 771.48 51.4219 771.48 48.1953C771.48 44.9414 774.926 42.8906 780.039 42.8906ZM780.039 44.6406C776.238 44.6406 773.668 46.0352 773.695 48.1953C773.668 50.3555 776.238 51.7227 780.039 51.7227C783.812 51.7227 786.41 50.3555 786.41 48.1953C786.41 46.0352 783.812 44.6406 780.039 44.6406ZM813.289 41.9062V66.2148H811.129V41.9062H813.289ZM806.098 44.5586C806.07 51.5586 802.816 57.7383 794.668 61.6484L793.492 59.8984C800.068 56.7812 803.418 52.1191 803.91 46.3086H794.613V44.5586H806.098ZM825.84 46.3906C825.84 49.5625 828.273 52.5703 831.828 53.8008L830.707 55.4961C827.959 54.5117 825.84 52.4746 824.801 49.9727C823.748 52.7754 821.506 55.0176 818.621 56.0703L817.5 54.375C821.082 53.0898 823.68 49.8359 823.68 46.418V45.3516H818.184V43.6016H831.281V45.3516H825.84V46.3906ZM837.543 57.7656V66.2148H835.383V59.543H821.191V57.7656H837.543ZM837.543 41.9062V56.4805H835.383V50.082H830.516V48.2773H835.383V41.9062H837.543ZM868.715 41.9062V66.2148H866.555V41.9062H868.715ZM863.109 44.5586V46.3359H860.348V58.0391C861.715 57.9434 863.068 57.8203 864.367 57.6562L864.504 59.2695C859.199 60.0898 853.348 60.1719 848.836 60.1992L848.59 58.3672L851.953 58.3398V46.3359H849.219V44.5586H863.109ZM854.059 58.3125C855.426 58.2852 856.834 58.2305 858.242 58.1484V46.3359H854.059V58.3125ZM892.449 53.6094V55.3867H875.66V44.1758H892.203V45.9531H877.793V53.6094H892.449ZM895.074 61.1016V62.9062H872.816V61.1016H895.074ZM900.16 43.4648V47.3203H905.574V43.4648H907.598V54.7852H898.137V43.4648H900.16ZM900.16 53.0078H905.574V49.043H900.16V53.0078ZM917.66 41.9336V56.5078H915.609V50.0273H912.383V56.3711H910.359V42.3984H912.383V48.25H915.609V41.9336H917.66ZM917.66 57.9844V66.2148H915.555V59.7617H901.281V57.9844H917.66ZM512.891 103.914C511.359 103.914 510.102 102.656 510.102 101.098C510.102 99.5664 511.359 98.3086 512.891 98.3086C514.449 98.3086 515.707 99.5664 515.707 101.098C515.707 102.656 514.449 103.914 512.891 103.914ZM546.988 94.1797C546.77 92.2383 544.992 91.1172 542.613 91.1172C539.988 91.1172 538.266 92.4844 538.266 94.3711C538.266 96.4492 540.59 97.2148 542.094 97.5977L544.062 98.1445C546.195 98.6914 549.668 99.9219 549.668 103.613C549.668 106.84 547.07 109.355 542.477 109.355C538.211 109.355 535.559 107.141 535.34 103.859H537.855C538.074 106.074 540.125 107.113 542.477 107.113C545.211 107.113 547.262 105.719 547.262 103.559C547.262 101.645 545.43 100.906 543.352 100.305L540.918 99.6484C537.801 98.7461 535.887 97.1602 535.887 94.4805C535.887 91.1445 538.867 88.9297 542.695 88.9297C546.523 88.9297 549.285 91.1719 549.395 94.1797H546.988ZM553.195 109V89.2031H559.922C564.57 89.2031 566.676 91.7734 566.676 95.3008C566.676 97.9121 565.5 99.9766 562.984 100.852L567.441 109H564.57L560.441 101.289L559.949 101.316H555.656V109H553.195ZM555.656 99.0742H559.84C562.984 99.0742 564.242 97.6523 564.242 95.3008C564.242 92.9219 562.984 91.3906 559.812 91.3906H555.656V99.0742ZM576.984 88.2734L570.586 111.98H568.453L574.824 88.2734H576.984ZM580.457 109H577.887L585.133 89.2031H587.73L594.977 109H592.379L590.41 103.422H582.453L580.457 109ZM583.191 101.262H589.645L586.5 92.4023H586.336L583.191 101.262ZM597.656 109V89.2031H604.383C609.031 89.2031 611.137 91.7734 611.137 95.3008C611.137 97.9121 609.961 99.9766 607.445 100.852L611.902 109H609.031L604.902 101.289L604.41 101.316H600.117V109H597.656ZM600.117 99.0742H604.301C607.445 99.0742 608.703 97.6523 608.703 95.3008C608.703 92.9219 607.445 91.3906 604.273 91.3906H600.117V99.0742ZM640.613 86.9062V111.215H638.453V86.9062H640.613ZM633.422 89.5586C633.395 96.5586 630.141 102.738 621.992 106.648L620.816 104.898C627.393 101.781 630.742 97.1191 631.234 91.3086H621.938V89.5586H633.422ZM663.719 86.9336V94.2891H667.383V96.0938H663.719V104.789H661.586V86.9336H663.719ZM664.84 108.891V110.695H648.516V103.039H650.621V108.891H664.84ZM647.859 88.6836V92.7852H654.941V88.6836H657.074V100.688H645.754V88.6836H647.859ZM647.859 98.9375H654.941V94.4805H647.859V98.9375ZM695.984 86.9062V99.5117H693.879V86.9062H695.984ZM696.012 100.742V106.566H682.367V109.191H696.887V110.941H680.262V104.898H693.879V102.465H680.207V100.742H696.012ZM684.555 89.4766C684.527 92.9219 687.152 95.957 690.762 97.1328L689.695 98.8008C686.852 97.8301 684.582 95.793 683.488 93.168C682.395 95.998 680.111 98.2266 677.227 99.2656L676.105 97.5703C679.77 96.2852 682.367 93.0586 682.367 89.4766V87.6172H684.555V89.4766ZM708.781 93.4414C708.754 97.8711 711.789 102.355 715.371 103.969L714.059 105.664C711.297 104.311 708.904 101.453 707.742 97.9805C706.607 101.658 704.215 104.721 701.371 106.156L700.004 104.352C703.613 102.684 706.621 98.0625 706.648 93.4414V89.0117H708.781V93.4414ZM720.184 86.9062V111.27H718.023V86.9062H720.184ZM743.344 86.9062V94.3164H747.008V96.1211H743.344V104.707H741.184V86.9062H743.344ZM736.781 88.793C736.781 95.0547 732.297 99.7031 725.297 101.891L724.367 100.168C730.191 98.3496 733.992 94.877 734.457 90.5977H725.379V88.793H736.781ZM744.465 108.891V110.695H728.113V102.902H730.246V108.891H744.465ZM770.113 89.5312V91.2812H755.621V89.5312H761.801V86.7969H763.934V89.5312H770.113ZM762.867 92.5391C766.367 92.5664 768.691 94.2617 768.719 96.9414C768.691 99.5938 766.367 101.316 762.867 101.316C759.367 101.316 756.988 99.5938 757.016 96.9414C756.988 94.2617 759.367 92.5664 762.867 92.5391ZM762.867 94.207C760.57 94.2344 759.039 95.3008 759.066 96.9414C759.039 98.5547 760.57 99.5938 762.867 99.5938C765.137 99.5938 766.668 98.5547 766.695 96.9414C766.668 95.3008 765.137 94.2344 762.867 94.207ZM774.57 86.9062V93.6602H778.234V95.4648H774.57V102.109H772.438V86.9062H774.57ZM774.57 103.449V111.215H772.438V105.199H758.656V103.449H774.57ZM784.715 101.508V104.352H796.855V101.508H799.016V110.887H782.582V101.508H784.715ZM784.715 109.164H796.855V106.047H784.715V109.164ZM801.914 98.0078V99.7852H779.766V98.0078H801.914ZM791.961 88.3281C791.961 91.3359 796.391 94.0156 800.656 94.5625L799.863 96.2852C796.09 95.7246 792.398 93.7969 790.867 91.0625C789.309 93.8105 785.59 95.7246 781.844 96.2852L781.023 94.5625C785.344 93.9883 789.746 91.418 789.746 88.3281V87.1797H791.961V88.3281ZM833.223 99.7852V101.535H823.324V106.293H821.191V101.535H810.965V99.7852H833.223ZM830.734 108.891V110.695H813.809V104.051H815.941V108.891H830.734ZM816.078 87.6992V90.8164H828.109V87.6992H830.242V97.4062H813.945V87.6992H816.078ZM816.078 95.6562H828.109V92.457H816.078V95.6562ZM843.477 90.8164C843.477 94.1797 845.965 97.2695 849.492 98.4727L848.316 100.195C845.609 99.1973 843.504 97.1191 842.465 94.5352C841.439 97.4062 839.252 99.6484 836.395 100.77L835.219 98.9922C838.91 97.6797 841.344 94.4805 841.371 90.7344V88.1641H843.477V90.8164ZM855.344 102.629V111.215H853.184V104.352H838.992V102.629H855.344ZM855.344 86.9062V101.289H853.184V93.8242H847.77V92.0195H853.184V86.9062H855.344ZM861.961 102.109C861.004 102.109 860.184 101.316 860.211 100.332C860.184 99.375 861.004 98.582 861.961 98.582C862.918 98.582 863.711 99.375 863.711 100.332C863.711 101.316 862.918 102.109 861.961 102.109ZM888.758 106.293V108.098H866.5V106.293H876.535V100.387H878.695V106.293H888.758ZM878.695 91.5273C878.695 95.4102 883.508 98.7461 887.691 99.4297L886.816 101.125C883.098 100.4 879.174 98.0352 877.629 94.6445C876.057 98.0488 872.146 100.469 868.496 101.234L867.594 99.5117C871.695 98.8008 876.48 95.4102 876.48 91.5273V90.9258H868.332V89.1211H886.844V90.9258H878.695V91.5273ZM910.852 86.9062V101.398H908.691V95.0273H903.797V93.25H908.691V86.9062H910.852ZM902.785 102.164C907.844 102.164 910.934 103.805 910.934 106.676C910.934 109.547 907.844 111.188 902.785 111.215C897.727 111.188 894.637 109.547 894.637 106.676C894.637 103.805 897.727 102.164 902.785 102.164ZM902.785 103.832C899.066 103.832 896.742 104.898 896.77 106.676C896.742 108.426 899.066 109.492 902.785 109.492C906.504 109.492 908.801 108.426 908.801 106.676C908.801 104.898 906.504 103.832 902.785 103.832ZM899.148 91.3633C899.148 94.5352 901.582 97.543 905.137 98.7734L904.016 100.496C901.281 99.5117 899.162 97.4746 898.137 94.9453C897.07 97.8027 894.814 100.086 891.93 101.18L890.809 99.457C894.418 98.1445 896.988 94.8633 896.988 91.3906V90.4883H891.492V88.6836H904.59V90.4883H899.148V91.3633ZM512.891 148.914C511.359 148.914 510.102 147.656 510.102 146.098C510.102 144.566 511.359 143.309 512.891 143.309C514.449 143.309 515.707 144.566 515.707 146.098C515.707 147.656 514.449 148.914 512.891 148.914ZM553.988 131.906V138.25H557.652V140.027H553.988V146.508H551.855V131.906H553.988ZM547.371 133.711C547.371 139.891 542.996 144.457 535.914 146.535L535.012 144.785C540.877 143.09 544.623 139.713 545.074 135.488H536.078V133.711H547.371ZM546.305 146.781C551.199 146.781 554.262 148.559 554.262 151.457C554.262 154.41 551.199 156.16 546.305 156.16C541.465 156.16 538.32 154.41 538.348 151.457C538.32 148.559 541.465 146.781 546.305 146.781ZM546.305 148.504C542.75 148.477 540.453 149.625 540.48 151.457C540.453 153.289 542.75 154.438 546.305 154.438C549.887 154.438 552.184 153.289 552.184 151.457C552.184 149.625 549.887 148.477 546.305 148.504ZM567.332 138.441C567.332 142.734 570.176 147.137 573.621 148.832L572.309 150.555C569.629 149.146 567.387 146.275 566.32 142.898C565.227 146.494 562.93 149.557 560.195 151.02L558.828 149.297C562.383 147.547 565.199 142.871 565.227 138.441V134.012H567.332V138.441ZM577.996 131.906V141.777H582.07V143.637H577.996V156.215H575.863V131.906H577.996ZM592.133 137.129C592.133 140.41 594.73 143.363 598.367 144.512L597.273 146.234C594.443 145.277 592.188 143.281 591.094 140.711C590.027 143.486 587.744 145.674 584.859 146.727L583.738 145.004C587.375 143.719 589.973 140.574 589.973 137.129V135.707H584.285V133.957H597.738V135.707H592.133V137.129ZM603.453 131.934V149.762H601.32V131.934H603.453ZM604.219 153.891V155.695H587.758V148.066H589.891V153.891H604.219ZM615.539 133.684C619.367 133.684 622.074 136.008 622.074 139.398C622.074 142.789 619.367 145.113 615.539 145.113C611.711 145.113 608.949 142.789 608.977 139.398C608.949 136.008 611.711 133.684 615.539 133.684ZM615.539 135.57C612.941 135.57 611.055 137.129 611.082 139.398C611.055 141.668 612.941 143.227 615.539 143.227C618.109 143.227 619.969 141.668 619.969 139.398C619.969 137.129 618.109 135.57 615.539 135.57ZM627.516 131.906V156.27H625.383V131.906H627.516ZM607.719 149.078C612.203 149.078 618.383 149.051 623.77 148.258L623.934 149.844C618.383 150.883 612.395 150.91 608.02 150.91L607.719 149.078ZM647.504 139.371C647.504 143.5 650.512 147.684 654.094 149.242L652.891 150.938C650.047 149.639 647.586 146.836 646.465 143.473C645.316 147.041 642.869 150.145 640.094 151.539L638.809 149.844C642.281 148.176 645.316 143.582 645.344 139.371V136.199H639.602V134.422H653.301V136.199H647.504V139.371ZM658.852 131.906V156.215H656.691V131.906H658.852ZM685.238 144.129V145.906H663.008V144.129H673.016V140.383H675.121V144.129H685.238ZM675.148 133.438C675.148 136.664 679.523 139.371 683.816 139.973L682.941 141.695C679.25 141.053 675.6 139.098 674.082 136.281C672.551 139.111 668.887 141.053 665.168 141.695L664.348 139.973C668.641 139.371 672.988 136.664 672.988 133.438V132.289H675.148V133.438ZM682.422 148.285V156.215H680.262V150.008H665.469V148.285H682.422ZM695.656 136.391C695.656 139.562 698.09 142.57 701.645 143.801L700.523 145.496C697.775 144.512 695.656 142.475 694.617 139.973C693.564 142.775 691.322 145.018 688.438 146.07L687.316 144.375C690.898 143.09 693.496 139.836 693.496 136.418V135.352H688V133.602H701.098V135.352H695.656V136.391ZM707.359 147.766V156.215H705.199V149.543H691.008V147.766H707.359ZM707.359 131.906V146.48H705.199V140.082H700.332V138.277H705.199V131.906H707.359ZM731.477 131.934V149.707H729.344V131.934H731.477ZM732.242 153.891V155.695H715.781V147.902H717.914V153.891H732.242ZM718.352 133.629C721.988 133.629 724.723 136.09 724.723 139.59C724.723 143.145 721.988 145.578 718.352 145.578C714.715 145.578 711.98 143.145 711.98 139.59C711.98 136.09 714.715 133.629 718.352 133.629ZM718.352 135.516C715.891 135.516 714.059 137.211 714.086 139.59C714.059 142.023 715.891 143.691 718.352 143.691C720.758 143.691 722.617 142.023 722.617 139.59C722.617 137.211 720.758 135.516 718.352 135.516ZM762.785 131.934V149.762H760.625V140.438H755.621V138.66H760.625V131.934H762.785ZM763.469 153.891V155.695H747.172V148.148H749.332V153.891H763.469ZM751.082 136.938C751.082 140.082 753.516 143.145 757.07 144.348L755.949 146.07C753.201 145.086 751.082 143.035 750.043 140.52C748.99 143.322 746.748 145.564 743.863 146.645L742.742 144.895C746.324 143.637 748.922 140.438 748.922 136.938V135.68H743.426V133.902H756.523V135.68H751.082V136.938ZM789.062 144.348V146.125H779.164V151.102H777.031V146.125H766.805V144.348H789.062ZM786.164 133.109V141.559H769.703V133.109H786.164ZM771.809 134.805V139.836H784.031V134.805H771.809ZM786.574 153.891V155.695H769.648V148.695H771.809V153.891H786.574ZM799.398 135.734C799.371 139.207 801.832 142.27 805.414 143.473L804.211 145.141C801.531 144.129 799.426 142.16 798.387 139.59C797.334 142.502 795.105 144.771 792.18 145.879L791.004 144.129C794.75 142.816 797.238 139.59 797.266 135.816V133.301H799.398V135.734ZM811.184 131.906V146.316H809.023V138.906H803.609V137.129H809.023V131.906H811.184ZM803.117 147.027C808.176 147.027 811.266 148.695 811.266 151.621C811.266 154.52 808.176 156.16 803.117 156.16C798.059 156.16 794.969 154.52 794.969 151.621C794.969 148.695 798.059 147.027 803.117 147.027ZM803.117 148.723C799.398 148.723 797.074 149.816 797.102 151.621C797.074 153.371 799.398 154.438 803.117 154.438C806.836 154.438 809.133 153.371 809.133 151.621C809.133 149.816 806.836 148.723 803.117 148.723ZM841.262 131.906V138.25H844.926V140.027H841.262V146.508H839.129V131.906H841.262ZM834.645 133.711C834.645 139.891 830.27 144.457 823.188 146.535L822.285 144.785C828.15 143.09 831.896 139.713 832.348 135.488H823.352V133.711H834.645ZM833.578 146.781C838.473 146.781 841.535 148.559 841.535 151.457C841.535 154.41 838.473 156.16 833.578 156.16C828.738 156.16 825.594 154.41 825.621 151.457C825.594 148.559 828.738 146.781 833.578 146.781ZM833.578 148.504C830.023 148.477 827.727 149.625 827.754 151.457C827.727 153.289 830.023 154.438 833.578 154.438C837.16 154.438 839.457 153.289 839.457 151.457C839.457 149.625 837.16 148.477 833.578 148.504ZM865.324 131.906V142.27H869.207V144.074H865.324V156.215H863.164V131.906H865.324ZM846.156 149.734C848.139 149.734 850.449 149.734 852.855 149.652V146.945C850.025 146.631 848.18 144.977 848.207 142.57C848.18 139.836 850.504 138.059 853.949 138.059C857.34 138.059 859.691 139.836 859.719 142.57C859.691 144.977 857.818 146.631 855.016 146.973V149.57C857.285 149.461 859.568 149.283 861.688 148.969L861.824 150.609C856.52 151.512 850.777 151.566 846.512 151.566L846.156 149.734ZM861.25 134.887V136.637H846.594V134.887H852.855V131.961H855.016V134.887H861.25ZM853.949 139.727C851.707 139.727 850.203 140.875 850.203 142.57C850.203 144.266 851.707 145.359 853.949 145.332C856.164 145.359 857.668 144.266 857.668 142.57C857.668 140.875 856.164 139.727 853.949 139.727ZM898.465 131.906V156.215H896.414V131.906H898.465ZM893.543 132.508V154.957H891.52V142.434H887.418V140.684H891.52V132.508H893.543ZM884.82 138.852C884.82 143.062 886.707 147.246 890.07 149.188L888.758 150.773C886.365 149.338 884.67 146.713 883.836 143.609C882.947 146.959 881.184 149.816 878.75 151.348L877.383 149.734C880.773 147.711 882.742 143.281 882.742 138.852V136.555H878.066V134.777H889.277V136.555H884.82V138.852ZM912.875 147.273C918.098 147.273 921.406 148.914 921.406 151.73C921.406 154.52 918.098 156.16 912.875 156.16C907.68 156.16 904.371 154.52 904.371 151.73C904.371 148.914 907.68 147.273 912.875 147.273ZM912.875 148.914C908.992 148.941 906.477 150.008 906.504 151.73C906.477 153.426 908.992 154.465 912.875 154.465C916.758 154.465 919.246 153.426 919.273 151.73C919.246 150.008 916.758 148.941 912.875 148.914ZM921.215 133.164V135.215C921.215 137.184 921.215 139.152 920.531 141.668L918.426 141.422C919.082 138.906 919.082 137.129 919.082 135.215V134.914H904.535V133.164H921.215ZM924.031 143.254V145.004H901.91V143.254H911.07V138.551H913.176V143.254H924.031Z" fill="black"/>
<defs>
<linearGradient id="paint0_linear_543_1095" x1="-0.968748" y1="98.5" x2="1491.03" y2="98.4998" gradientUnits="userSpaceOnUse">
<stop stop-color="#3182F6"/>
<stop offset="1" stop-color="#A009FF"/>
</linearGradient>
<linearGradient id="paint1_linear_543_1095" x1="43.6656" y1="126" x2="558.628" y2="126" gradientUnits="userSpaceOnUse">
<stop stop-color="#3182F6"/>
<stop offset="1" stop-color="#A009FF"/>
</linearGradient>
</defs>
</svg>
