<svg width="800" height="260" viewBox="0 0 800 260" fill="none" xmlns="http://www.w3.org/2000/svg">
<rect x="0.5" y="0.5" width="799" height="259" rx="14.5" fill="white" stroke="url(#paint0_linear_590_880)"/>
<path d="M55.584 143.693V145.318C55.584 147.375 55.584 150.244 54.9492 154.205L52.1562 153.977C52.7021 150.498 52.7656 147.934 52.791 145.953H43.7773V143.693H55.584ZM49.7949 150.244V157.023C52.1309 156.935 54.5303 156.77 56.7266 156.49L56.8789 158.598C52.1309 159.359 46.875 159.461 42.8379 159.436L42.5586 157.176C43.917 157.163 45.4277 157.15 47.002 157.1V150.244H49.7949ZM60.7637 141.307V150.65H64.0898V153.037H60.7637V164.26H57.9199V141.307H60.7637ZM72.6719 142.729C76.3027 142.729 78.9688 145.014 78.9941 148.264C78.9688 151.095 76.9756 153.164 74.0938 153.672V157.023C76.1377 156.922 78.207 156.744 80.1621 156.465L80.3906 158.496C75.2363 159.461 69.7266 159.512 65.6895 159.512L65.334 157.201C67.0859 157.201 69.1299 157.201 71.2754 157.125V153.672C68.3936 153.177 66.375 151.095 66.375 148.264C66.375 145.014 69.0664 142.729 72.6719 142.729ZM72.6719 145.166C70.666 145.166 69.168 146.334 69.168 148.264C69.168 150.168 70.666 151.387 72.6719 151.387C74.7031 151.387 76.2266 150.168 76.2266 148.264C76.2266 146.334 74.7031 145.166 72.6719 145.166ZM84.3516 141.307V164.285H81.5332V141.307H84.3516ZM93.0605 154.383V157.023H103.242V154.383H106.035V163.98H90.293V154.383H93.0605ZM93.0605 161.695H103.242V159.207H93.0605V161.695ZM106.111 142.297V144.074C106.111 145.813 106.111 147.73 105.553 150.422H108.676V152.682H87.7031V150.422H102.76C103.242 147.997 103.293 146.169 103.293 144.557H90.293V142.297H106.111ZM128.582 142.5V152.072H117.512V142.5H128.582ZM120.305 144.76V149.863H125.789V144.76H120.305ZM135.412 141.307V152.986H132.619V141.307H135.412ZM135.412 154.027V159.969H123.047V161.822H136.098V164.057H120.254V157.938H132.67V156.236H120.229V154.027H135.412ZM147.066 146.283C147.066 148.797 148.92 151.311 152.551 152.301L151.23 154.561C148.603 153.799 146.724 152.199 145.695 150.193C144.68 152.402 142.775 154.129 140.084 154.941L138.713 152.732C142.318 151.691 144.248 149.025 144.248 146.283V146.105H139.449V143.871H144.248V141.23H147.092V143.871H151.865V146.105H147.066V146.283ZM156.918 141.307V147.121H160.117V149.508H156.918V155.348H154.1V141.307H156.918ZM156.918 156.389V164.285H154.1V158.648H141.633V156.389H156.918ZM174.463 148.314C174.463 151.869 175.936 155.449 179.135 157.176L177.561 159.258C175.428 158.128 173.98 156.109 173.168 153.697C172.355 156.3 170.908 158.521 168.75 159.791L167.1 157.658C170.35 155.779 171.797 151.945 171.797 148.314V147.604H167.887V145.318H171.797V142.119H174.463V145.318H178.297V147.604H174.463V148.314ZM187.209 141.307V164.26H184.518V141.307H187.209ZM182.537 141.738V163.143H179.871V152.453H176.875V150.117H179.871V141.738H182.537ZM209.73 141.307V164.26H207.039V141.307H209.73ZM204.982 141.865V163.168H202.291V155.5H198.711V153.189H202.291V149.787H199.117C198.038 153.596 195.639 156.871 191.348 159.41L189.697 157.404C194.458 154.599 196.642 151.006 197.061 146.385H190.916V144.1H199.854C199.854 145.255 199.777 146.385 199.625 147.477H202.291V141.865H204.982Z" fill="url(#paint1_linear_590_880)"/>
<path d="M53.5645 104.686C53.5645 107.985 55.5928 111.346 60.1338 112.708L58.166 115.735C55.0781 114.767 52.8984 112.784 51.6572 110.286C50.4009 112.996 48.1606 115.175 44.9365 116.25L42.9385 113.223C47.5098 111.739 49.6289 108.167 49.6289 104.686V104.292H43.9678V101.204H59.1045V104.292H53.5645V104.686ZM65.8857 99.2666V119.187H62.0107V99.2666H65.8857ZM66.6123 123.213V126.301H47.4189V117.37H51.3242V123.213H66.6123ZM92.2539 99.2363V109.62H95.3418V112.829H92.2539V126.785H88.3789V118.218L86.0176 120.942C84.2466 119.55 83.1719 117.461 82.5361 115.039C81.8096 117.537 80.6289 119.731 78.6611 121.154C76.7388 119.747 75.5732 117.567 74.877 115.069C74.2109 117.491 73.1362 119.565 71.3652 120.942L68.9434 118.127C72.4248 115.554 72.9395 110.68 72.9697 106.139V104.716H70.0332V101.628H78.207V104.716H76.6025V106.139C76.6025 109.378 76.875 113.177 78.6914 116.038C80.4624 113.192 80.7803 109.423 80.7803 106.139V104.716H79.1758V101.628H86.9258V104.716H84.4736V106.139C84.4434 110.695 84.9731 115.493 88.3789 118.066V99.2363H92.2539ZM128.764 120.397V123.485H103.546V120.397H114.081V114.161H117.926V120.397H128.764ZM118.047 102.778C118.047 106.714 121.589 110.861 127.886 111.83L126.251 115.039C121.407 114.161 117.805 111.573 115.988 108.137C114.172 111.558 110.6 114.176 105.786 115.039L104.151 111.83C110.388 110.861 113.899 106.684 113.93 102.778V100.811H118.047V102.778ZM144.96 101.386C144.96 104.625 148.26 108.228 154.587 109.015L153.073 112.133C148.26 111.437 144.733 109.211 142.932 106.229C141.115 109.211 137.619 111.437 132.851 112.133L131.307 109.015C137.573 108.228 140.903 104.625 140.903 101.386V100.054H144.96V101.386ZM155.465 114.222V117.37H144.748V126.785H140.934V117.37H130.338V114.222H155.465ZM180.35 99.2363V115.584H176.505V109.075H172.206V105.957H176.505V99.2363H180.35ZM170.935 116.189C176.808 116.22 180.41 118.157 180.44 121.518C180.41 124.848 176.808 126.815 170.935 126.815C165.062 126.815 161.459 124.848 161.459 121.518C161.459 118.157 165.062 116.22 170.935 116.189ZM170.935 119.156C167.271 119.156 165.304 119.913 165.304 121.518C165.304 123.092 167.271 123.879 170.935 123.879C174.598 123.879 176.596 123.092 176.596 121.518C176.596 119.913 174.598 119.156 170.935 119.156ZM173.023 100.901V103.989H167.544C167.635 107.198 169.572 110.438 173.871 111.86L171.964 114.888C168.921 113.904 166.833 111.906 165.637 109.408C164.411 112.224 162.216 114.494 158.946 115.614L156.948 112.557C161.474 111.043 163.502 107.44 163.608 103.989H158.068V100.901H173.023ZM207.808 99.2363V126.785H204.114V99.2363H207.808ZM202.177 99.6299V125.514H198.544V116.977H195.305C194.275 119.656 192.474 121.185 190.158 121.185C186.525 121.185 184.164 117.37 184.164 111.164C184.164 104.988 186.525 101.204 190.158 101.204C192.459 101.204 194.26 102.703 195.305 105.352H198.544V99.6299H202.177ZM190.158 104.837C188.554 104.837 187.646 106.956 187.676 111.164C187.646 115.402 188.554 117.491 190.158 117.461C191.763 117.491 192.731 115.402 192.731 111.164C192.731 106.956 191.732 104.837 190.158 104.837ZM196.062 108.439C196.183 109.287 196.243 110.195 196.243 111.164C196.243 112.118 196.183 113.026 196.062 113.858H198.544V108.439H196.062Z" fill="black"/>
<path d="M325.145 81.0957C323.668 81.0957 322.455 79.8828 322.455 78.3799C322.455 76.9033 323.668 75.6904 325.145 75.6904C326.647 75.6904 327.86 76.9033 327.86 78.3799C327.86 79.8828 326.647 81.0957 325.145 81.0957ZM353.938 86.2637C350.615 86.2109 346.977 84.2598 346.977 77.1934C346.977 70.4434 349.745 66.6465 354.228 66.6465C357.576 66.6465 359.923 68.7031 360.424 71.709H358.077C357.629 70.0215 356.363 68.7559 354.228 68.7559C351.09 68.7559 349.218 71.4453 349.218 76.0332H349.455C350.562 74.4512 352.303 73.502 354.359 73.502C357.761 73.502 360.582 76.1387 360.582 79.8301C360.582 83.416 357.945 86.29 353.938 86.2637ZM353.938 84.1807C356.416 84.1807 358.262 82.2295 358.288 79.8564C358.262 77.5098 356.495 75.585 353.99 75.585C351.485 75.585 349.561 77.6152 349.534 79.8828C349.534 82.124 351.38 84.1807 353.938 84.1807ZM364.616 76.165C365.46 75.1895 366.515 74.6621 367.675 74.6621C369.679 74.6621 371.498 76.1914 373.423 76.1914C374.609 76.1914 375.638 75.6113 376.429 74.5303V76.7188C375.559 77.7207 374.53 78.2217 373.37 78.2217C371.366 78.2217 369.547 76.6924 367.596 76.6924C366.436 76.6924 365.407 77.2725 364.616 78.3535V76.165ZM387.16 86.2637C383.152 86.2637 380.357 84.0488 380.384 80.9375C380.357 78.459 382.071 76.4287 384.26 76.0859V75.9805C382.361 75.5322 381.122 73.792 381.122 71.709C381.122 68.7822 383.68 66.6465 387.16 66.6465C390.641 66.6465 393.198 68.7822 393.225 71.709C393.198 73.792 391.933 75.5322 390.061 75.9805V76.0859C392.223 76.4287 393.937 78.459 393.963 80.9375C393.937 84.0488 391.142 86.2637 387.16 86.2637ZM387.16 84.1807C389.902 84.1807 391.59 82.8096 391.59 80.8057C391.59 78.6963 389.718 77.1406 387.16 77.1406C384.603 77.1406 382.704 78.6963 382.757 80.8057C382.704 82.8096 384.418 84.1807 387.16 84.1807ZM387.16 75.1367C389.322 75.1367 390.904 73.8184 390.904 71.8936C390.904 69.9951 389.401 68.7031 387.16 68.7031C384.893 68.7031 383.416 69.9951 383.416 71.8936C383.416 73.8184 384.972 75.1367 387.16 75.1367ZM415.742 64.6953V78.5908H413.659V74.8994H408.175V76.9033H397.417V66.4883H408.175V68.5186H413.659V64.6953H415.742ZM399.474 68.1758V75.2158H406.145V68.1758H399.474ZM407.964 79.2764C412.842 79.2764 415.821 80.8848 415.821 83.7061C415.821 86.501 412.842 88.083 407.964 88.083C403.086 88.083 400.106 86.501 400.106 83.7061C400.106 80.8848 403.086 79.2764 407.964 79.2764ZM407.964 80.8848C404.378 80.9111 402.137 81.9395 402.163 83.7061C402.137 85.3936 404.378 86.4482 407.964 86.4482C411.55 86.4482 413.765 85.3936 413.765 83.7061C413.765 81.9395 411.55 80.9111 407.964 80.8848ZM408.175 73.1592H413.659V70.2324H408.175V73.1592ZM438.181 66.8838C438.181 70.1797 442.505 73.0537 446.724 73.6338L445.88 75.3213C442.241 74.7148 438.642 72.6978 437.126 69.8105C435.623 72.7109 432.011 74.7148 428.372 75.3213L427.528 73.6338C431.747 73.0537 436.045 70.2324 436.045 66.8838V65.5391H438.181V66.8838ZM447.778 77.9053V79.6455H438.075V88.1357H436.045V79.6455H426.421V77.9053H447.778ZM456.216 65.8027C459.367 65.7764 461.753 67.6089 462.201 70.3115H467.105V64.6953H469.188V77.2725H467.105V72.0254H462.228C461.806 74.7939 459.393 76.6396 456.216 76.6396C452.656 76.6396 450.125 74.4248 450.125 71.208C450.125 68.0176 452.656 65.7764 456.216 65.8027ZM456.216 67.5693C453.816 67.543 452.103 69.0459 452.103 71.208C452.103 73.3438 453.816 74.8994 456.216 74.8994C458.589 74.8994 460.276 73.3438 460.276 71.208C460.276 69.0459 458.589 67.543 456.216 67.5693ZM456.163 78.459V81.4385H467.105V78.459H469.188V87.8193H454.08V78.459H456.163ZM456.163 86.1318H467.105V83.0996H456.163V86.1318ZM483.77 66.2246C488.674 66.2246 492.339 68.7822 492.339 72.6582C492.339 76.5605 488.674 79.1182 483.77 79.0918C478.865 79.1182 475.2 76.5605 475.2 72.6582C475.2 68.7822 478.865 66.2246 483.77 66.2246ZM483.77 67.9121C479.999 67.8857 477.151 69.8633 477.178 72.6582C477.151 75.5059 479.999 77.4043 483.77 77.4043C487.514 77.4043 490.335 75.5059 490.335 72.6582C490.335 69.8633 487.514 67.8857 483.77 67.9121ZM494.554 83.2842V85.0244H473.091V83.2842H494.554ZM517.889 83.4951V85.2354H496.426V83.4951H506.076V79.0654H499.115V71.8408H513.143V68.1494H499.062V66.4355H515.173V73.5283H501.172V77.3516H515.727V79.0654H508.106V83.4951H517.889ZM534.131 66.9102V86H531.731V69.3887H531.626L526.985 72.4736V70.0742L531.731 66.9102H534.131ZM540.854 83.4688C539.932 83.4688 539.141 82.7041 539.167 81.7549C539.141 80.832 539.932 80.0674 540.854 80.0674C541.777 80.0674 542.542 80.832 542.542 81.7549C542.542 82.7041 541.777 83.4688 540.854 83.4688ZM540.854 72.8691C539.932 72.8691 539.141 72.1045 539.167 71.1553C539.141 70.2324 539.932 69.4678 540.854 69.4678C541.777 69.4678 542.542 70.2324 542.542 71.1553C542.542 72.1045 541.777 72.8691 540.854 72.8691ZM552.825 66.9102V86H550.426V69.3887H550.32L545.68 72.4736V70.0742L550.426 66.9102H552.825ZM575.606 66.8838C575.606 70.1797 579.931 73.0537 584.149 73.6338L583.306 75.3213C579.667 74.7148 576.068 72.6978 574.552 69.8105C573.049 72.7109 569.437 74.7148 565.798 75.3213L564.954 73.6338C569.173 73.0537 573.471 70.2324 573.471 66.8838V65.5391H575.606V66.8838ZM585.204 77.9053V79.6455H575.501V88.1357H573.471V79.6455H563.847V77.9053H585.204ZM599.205 67.6221C599.179 70.4961 603.134 72.8428 607.273 73.4229L606.456 75.0576C602.672 74.5171 599.139 72.6187 597.86 69.8633C596.595 72.6187 593.075 74.5171 589.265 75.0576L588.5 73.4229C592.64 72.8428 596.516 70.4961 596.516 67.6221V67.5693H589.133V65.8818H606.641V67.5693H599.205V67.6221ZM608.618 76.7715V78.4854H599.073V83.2842H597.017V78.4854H587.155V76.7715H608.618ZM606.219 85.8945V87.6348H589.897V80.9375H591.98V85.8945H606.219ZM618.189 66.4092C621.881 66.4092 624.491 68.6504 624.491 71.9199C624.491 75.1895 621.881 77.4307 618.189 77.4307C614.498 77.4307 611.835 75.1895 611.861 71.9199C611.835 68.6504 614.498 66.4092 618.189 66.4092ZM618.189 68.2285C615.685 68.2285 613.865 69.7314 613.892 71.9199C613.865 74.1084 615.685 75.6113 618.189 75.6113C620.668 75.6113 622.461 74.1084 622.461 71.9199C622.461 69.7314 620.668 68.2285 618.189 68.2285ZM629.738 64.6953V88.1885H627.682V64.6953H629.738ZM610.648 81.2539C614.973 81.2539 620.932 81.2275 626.126 80.4629L626.284 81.9922C620.932 82.9941 615.157 83.0205 610.938 83.0205L610.648 81.2539ZM660.008 64.6953V88.1357H657.925V64.6953H660.008ZM654.603 67.2529V68.9668H651.939V80.252C653.258 80.1597 654.563 80.041 655.815 79.8828L655.947 81.4385C650.832 82.2295 645.189 82.3086 640.839 82.335L640.602 80.5684L643.845 80.542V68.9668H641.208V67.2529H654.603ZM645.875 80.5156C647.193 80.4893 648.551 80.4365 649.909 80.3574V68.9668H645.875V80.5156ZM682.895 75.9805V77.6943H666.705V66.8838H682.657V68.5977H668.762V75.9805H682.895ZM685.426 83.2051V84.9453H663.963V83.2051H685.426ZM690.33 66.1982V69.916H695.551V66.1982H697.502V77.1143H688.379V66.1982H690.33ZM690.33 75.4004H695.551V71.5771H690.33V75.4004ZM707.205 64.7217V78.7754H705.228V72.5264H702.116V78.6436H700.165V65.1699H702.116V70.8125H705.228V64.7217H707.205ZM707.205 80.1992V88.1357H705.175V81.9131H691.411V80.1992H707.205ZM325.145 135.096C323.668 135.096 322.455 133.883 322.455 132.38C322.455 130.903 323.668 129.69 325.145 129.69C326.647 129.69 327.86 130.903 327.86 132.38C327.86 133.883 326.647 135.096 325.145 135.096ZM360.477 121.227V122.914H346.502V121.227H352.461V118.59H354.518V121.227H360.477ZM353.489 124.127C356.864 124.153 359.105 125.788 359.132 128.372C359.105 130.93 356.864 132.591 353.489 132.591C350.114 132.591 347.82 130.93 347.847 128.372C347.82 125.788 350.114 124.153 353.489 124.127ZM353.489 125.735C351.274 125.762 349.798 126.79 349.824 128.372C349.798 129.928 351.274 130.93 353.489 130.93C355.678 130.93 357.154 129.928 357.181 128.372C357.154 126.79 355.678 125.762 353.489 125.735ZM364.774 118.695V125.208H368.308V126.948H364.774V133.355H362.718V118.695H364.774ZM364.774 134.647V142.136H362.718V136.335H349.429V134.647H364.774ZM376.771 123.362C376.771 125.946 378.591 128.583 381.597 129.717L380.516 131.299C378.261 130.429 376.64 128.754 375.796 126.737C374.926 128.979 373.251 130.969 370.944 131.958L369.811 130.35C372.896 129.005 374.794 125.973 374.794 123.362V120.172H376.771V123.362ZM389.691 118.722V133.197H387.714V126.737H384.603V132.459H382.651V119.17H384.603V125.023H387.714V118.722H389.691ZM381.939 133.725C386.791 133.725 389.823 135.254 389.823 137.917C389.823 140.554 386.791 142.083 381.939 142.083C377.062 142.083 374.056 140.554 374.082 137.917C374.056 135.254 377.062 133.725 381.939 133.725ZM381.939 135.307C378.354 135.307 376.112 136.282 376.139 137.917C376.112 139.525 378.354 140.475 381.939 140.475C385.499 140.475 387.74 139.525 387.767 137.917C387.74 136.282 385.499 135.307 381.939 135.307ZM418.221 118.695V125.841H421.754V127.581H418.221V135.86H416.138V118.695H418.221ZM411.893 120.515C411.893 126.553 407.568 131.035 400.818 133.145L399.922 131.483C405.538 129.73 409.203 126.381 409.651 122.255H400.897V120.515H411.893ZM419.302 139.895V141.635H403.534V134.12H405.591V139.895H419.302ZM443.296 121.068V122.782H430.033V121.068H435.729V118.484H437.785V121.068H443.296ZM436.73 123.916C439.868 123.916 442.083 125.604 442.083 128.161C442.083 130.692 439.868 132.354 436.73 132.354C433.566 132.354 431.404 130.692 431.431 128.161C431.404 125.604 433.566 123.916 436.73 123.916ZM436.73 125.524C434.7 125.524 433.355 126.579 433.355 128.161C433.355 129.717 434.7 130.798 436.73 130.798C438.761 130.798 440.132 129.717 440.158 128.161C440.132 126.579 438.761 125.524 436.73 125.524ZM449.439 118.695V132.564H447.356V130.481H443.27V128.768H447.356V125.894H443.296V124.18H447.356V118.695H449.439ZM436.229 133.54V136.019H447.383V133.54H449.439V141.819H434.173V133.54H436.229ZM436.229 140.158H447.383V137.627H436.229V140.158ZM464.469 120.146V126.711H456.4V130.35C460.804 130.35 463.071 130.284 465.84 129.77L466.051 131.483C463.124 131.958 460.751 132.037 456.005 132.037H454.344V125.129H462.412V121.807H454.291V120.146H464.469ZM472.774 118.722V133.118H470.691V128.768H466.024V127.054H470.691V123.89H466.024V122.202H470.691V118.722H472.774ZM472.774 134.384V142.188H470.691V136.071H456.98V134.384H472.774ZM489.676 121.306V122.519C489.649 124.364 489.649 127.476 488.99 131.826L486.907 131.642C487.54 127.713 487.593 124.865 487.593 122.993H477.758V121.306H489.676ZM483.532 128.003V135.122C486.129 135.03 488.792 134.858 491.231 134.568L491.337 136.124C486.406 136.889 480.896 136.994 476.703 136.968L476.439 135.254C477.982 135.241 479.696 135.228 481.502 135.175V128.003H483.532ZM494.765 118.695V128.504H498.562V130.297H494.765V142.136H492.708V118.695H494.765ZM525.113 118.695V124.812H528.646V126.526H525.113V132.775H523.057V118.695H525.113ZM518.732 120.436C518.732 126.395 514.514 130.798 507.685 132.802L506.814 131.114C512.47 129.479 516.083 126.223 516.518 122.149H507.843V120.436H518.732ZM517.704 133.039C522.424 133.039 525.377 134.753 525.377 137.548C525.377 140.396 522.424 142.083 517.704 142.083C513.037 142.083 510.005 140.396 510.031 137.548C510.005 134.753 513.037 133.039 517.704 133.039ZM517.704 134.7C514.276 134.674 512.062 135.781 512.088 137.548C512.062 139.314 514.276 140.422 517.704 140.422C521.158 140.422 523.373 139.314 523.373 137.548C523.373 135.781 521.158 134.674 517.704 134.7ZM537.98 124.997C537.98 129.137 540.723 133.382 544.045 135.017L542.779 136.678C540.195 135.32 538.033 132.551 537.005 129.295C535.95 132.762 533.735 135.715 531.099 137.126L529.78 135.465C533.208 133.777 535.924 129.269 535.95 124.997V120.726H537.98V124.997ZM548.264 118.695V128.214H552.192V130.007H548.264V142.136H546.207V118.695H548.264ZM561.131 120.409C564.822 120.409 567.433 122.65 567.433 125.92C567.433 129.189 564.822 131.431 561.131 131.431C557.439 131.431 554.776 129.189 554.803 125.92C554.776 122.65 557.439 120.409 561.131 120.409ZM561.131 122.229C558.626 122.229 556.807 123.731 556.833 125.92C556.807 128.108 558.626 129.611 561.131 129.611C563.609 129.611 565.402 128.108 565.402 125.92C565.402 123.731 563.609 122.229 561.131 122.229ZM572.68 118.695V142.188H570.623V118.695H572.68ZM553.59 135.254C557.914 135.254 563.873 135.228 569.067 134.463L569.226 135.992C563.873 136.994 558.099 137.021 553.88 137.021L553.59 135.254ZM603.582 118.695V142.136H601.552V129.875H598.309V140.976H596.331V119.328H598.309V128.161H601.552V118.695H603.582ZM593.668 121.754C593.642 127.713 591.559 133.355 584.809 137.1L583.596 135.649C589.041 132.617 591.295 128.319 591.638 123.468H584.492V121.754H593.668ZM626.311 118.695V130.956H624.254V127.95H618.717V130.007H608.091V119.803H610.147V123.178H616.687V119.803H618.717V122.07H624.254V118.695H626.311ZM626.311 132.09V137.601H613.232V140.158H627.207V141.819H611.176V136.019H624.254V133.751H611.123V132.09H626.311ZM610.147 128.319H616.687V124.812H610.147V128.319ZM618.717 126.315H624.254V123.679H618.717V126.315ZM647.352 121.49C647.338 123.705 647.088 125.894 646.429 127.977H650.173V119.328H652.15V140.949H650.173V129.69H645.743C644.425 132.578 642.131 135.188 638.36 137.258L637.174 135.781C640.786 133.817 642.935 131.352 644.135 128.583L637.438 129.269L637.121 127.423L644.715 126.948C645.044 125.735 645.242 124.483 645.321 123.204H638.255V121.49H647.352ZM657.081 118.695V142.136H655.104V118.695H657.081ZM666.652 120.515C669.843 120.541 672.137 123.27 672.479 127.66H677.727V118.695H679.783V142.188H677.727V129.374H672.506C672.255 133.962 669.922 136.836 666.652 136.836C663.198 136.836 660.772 133.672 660.772 128.688C660.772 123.705 663.198 120.541 666.652 120.515ZM666.652 122.36C664.332 122.387 662.75 124.865 662.75 128.688C662.75 132.512 664.332 134.99 666.652 134.99C668.946 134.99 670.555 132.512 670.555 128.688C670.555 124.865 668.946 122.387 666.652 122.36ZM708.603 118.695V128.24H712.399V129.98H708.603V142.136H706.546V118.695H708.603ZM702.538 121.227C702.538 127.871 699.427 133.909 691.78 137.68L690.62 136.045C696.685 133.026 699.98 128.517 700.455 122.967H691.701V121.227H702.538ZM732.729 125.261V126.975H716.724V119.17H718.78V125.261H732.729ZM735.181 129.717V131.431H713.797V129.717H735.181ZM724.476 133.54C729.512 133.54 732.518 135.069 732.544 137.785C732.518 140.501 729.512 142.03 724.476 142.03C719.413 142.03 716.381 140.501 716.381 137.785C716.381 135.069 719.413 133.54 724.476 133.54ZM724.476 135.175C720.705 135.201 718.464 136.124 718.49 137.785C718.464 139.42 720.705 140.422 724.476 140.422C728.193 140.422 730.461 139.42 730.461 137.785C730.461 136.124 728.193 135.201 724.476 135.175ZM325.145 189.096C323.668 189.096 322.455 187.883 322.455 186.38C322.455 184.903 323.668 183.69 325.145 183.69C326.647 183.69 327.86 184.903 327.86 186.38C327.86 187.883 326.647 189.096 325.145 189.096ZM367.807 182.952V184.666H346.449V182.952H356.073V180.632H349.218V173.486H365.038V180.632H358.104V182.952H367.807ZM351.274 175.147V178.971H362.981V175.147H351.274ZM365.064 186.617V191.864H351.143V194.237H365.776V195.872H349.086V190.309H363.034V188.226H349.033V186.617H365.064ZM389.138 172.695V185.272H387.081V172.695H389.138ZM376.007 186.459V189.307H387.081V186.459H389.138V195.819H373.95V186.459H376.007ZM376.007 194.132H387.081V190.968H376.007V194.132ZM376.481 173.855C380.041 173.829 382.625 176.018 382.625 179.234C382.625 182.425 380.041 184.613 376.481 184.613C372.922 184.613 370.338 182.425 370.338 179.234C370.338 176.018 372.922 173.829 376.481 173.855ZM376.481 175.596C374.082 175.569 372.342 177.099 372.368 179.234C372.342 181.37 374.082 182.899 376.481 182.899C378.854 182.899 380.595 181.37 380.595 179.234C380.595 177.099 378.854 175.569 376.481 175.596ZM406.118 175.306V176.519C406.092 178.364 406.092 181.476 405.433 185.826L403.35 185.642C403.982 181.713 404.035 178.865 404.035 176.993H394.2V175.306H406.118ZM399.975 182.003V189.122C402.572 189.03 405.235 188.858 407.674 188.568L407.779 190.124C402.849 190.889 397.338 190.994 393.146 190.968L392.882 189.254C394.424 189.241 396.138 189.228 397.944 189.175V182.003H399.975ZM411.207 172.695V182.504H415.004V184.297H411.207V196.136H409.15V172.695H411.207ZM443.48 176.334V178.048H424.285V176.334H432.881V173.144H434.911V176.334H443.48ZM444.693 191.548V193.262H423.23V191.548H444.693ZM433.909 179.604C438.629 179.577 441.608 181.317 441.608 184.218C441.608 187.092 438.629 188.832 433.909 188.832C429.137 188.832 426.184 187.092 426.21 184.218C426.184 181.317 429.137 179.577 433.909 179.604ZM433.909 181.291C430.429 181.265 428.24 182.398 428.267 184.218C428.24 186.037 430.429 187.145 433.909 187.145C437.337 187.145 439.499 186.037 439.499 184.218C439.499 182.398 437.337 181.265 433.909 181.291ZM468.002 184.798V186.512H446.539V184.798H468.002ZM465.233 173.275V178.812H451.391V181.159H465.734V182.768H449.334V177.257H463.15V174.937H449.255V173.275H465.233ZM465.233 188.647V195.819H449.466V188.647H465.233ZM451.496 190.335V194.132H463.203V190.335H451.496ZM489.992 172.695V196.136H487.988V172.695H489.992ZM485.272 173.196V194.949H483.295V183.559H480.289C480.065 188.12 478.127 190.968 475.227 190.968C472.168 190.968 470.19 187.804 470.19 182.82C470.19 177.837 472.168 174.673 475.227 174.673C478.074 174.673 479.999 177.428 480.263 181.845H483.295V173.196H485.272ZM475.227 176.624C473.328 176.624 472.115 178.997 472.142 182.82C472.115 186.617 473.328 189.017 475.227 188.99C477.125 189.017 478.338 186.617 478.338 182.82C478.338 178.997 477.125 176.624 475.227 176.624ZM508.897 185.062V189.359C511.152 189.267 513.459 189.069 515.621 188.753L515.779 190.282C510.427 191.258 504.652 191.284 500.434 191.284L500.144 189.57C502.108 189.557 504.428 189.544 506.867 189.465V185.062H508.897ZM514.408 175.78V177.494H508.897C508.95 180.526 511.468 182.992 514.936 183.98L513.96 185.615C511.139 184.771 508.937 182.965 507.896 180.579C506.867 183.097 504.679 184.969 501.857 185.826L500.855 184.244C504.323 183.229 506.762 180.658 506.814 177.494H501.436V175.78H506.867V172.88H508.897V175.78H514.408ZM519.233 172.695V196.188H517.177V172.695H519.233ZM531.494 177.02C531.494 180.078 533.841 182.979 537.269 184.165L536.188 185.8C533.538 184.851 531.494 182.886 530.492 180.474C529.477 183.176 527.315 185.338 524.533 186.354L523.452 184.719C526.906 183.479 529.411 180.342 529.411 177.046V176.018H524.111V174.33H536.741V176.018H531.494V177.02ZM542.779 187.988V196.136H540.696V189.702H527.012V187.988H542.779ZM542.779 172.695V186.749H540.696V180.579H536.003V178.839H540.696V172.695H542.779ZM564.875 172.695V182.688H568.619V184.429H564.875V196.136H562.792V172.695H564.875ZM546.392 189.887C548.303 189.887 550.531 189.887 552.852 189.808V187.197C550.123 186.894 548.343 185.299 548.369 182.979C548.343 180.342 550.584 178.628 553.906 178.628C557.176 178.628 559.443 180.342 559.47 182.979C559.443 185.299 557.637 186.894 554.935 187.224V189.729C557.123 189.623 559.325 189.452 561.368 189.148L561.5 190.73C556.385 191.601 550.848 191.653 546.734 191.653L546.392 189.887ZM560.946 175.569V177.257H546.813V175.569H552.852V172.748H554.935V175.569H560.946ZM553.906 180.236C551.744 180.236 550.294 181.344 550.294 182.979C550.294 184.613 551.744 185.668 553.906 185.642C556.042 185.668 557.492 184.613 557.492 182.979C557.492 181.344 556.042 180.236 553.906 180.236ZM583.648 180.395V182.082H578.902V185.352C581.091 185.259 583.279 185.101 585.31 184.877L585.468 186.406C580.432 187.092 574.842 187.25 570.438 187.25L570.122 185.562C572.179 185.549 574.486 185.523 576.846 185.431V182.082H572.258V174.225H583.464V175.938H574.341V180.395H583.648ZM589.344 172.722V190.256H587.261V172.722H589.344ZM590.108 193.895V195.635H574.13V189.043H576.187V193.895H590.108ZM614.155 175.227V176.914H600.181V175.227H606.14V172.59H608.196V175.227H614.155ZM607.168 178.127C610.543 178.153 612.784 179.788 612.811 182.372C612.784 184.93 610.543 186.591 607.168 186.591C603.793 186.591 601.499 184.93 601.525 182.372C601.499 179.788 603.793 178.153 607.168 178.127ZM607.168 179.735C604.953 179.762 603.477 180.79 603.503 182.372C603.477 183.928 604.953 184.93 607.168 184.93C609.356 184.93 610.833 183.928 610.859 182.372C610.833 180.79 609.356 179.762 607.168 179.735ZM618.453 172.695V179.208H621.986V180.948H618.453V187.355H616.396V172.695H618.453ZM618.453 188.647V196.136H616.396V190.335H603.107V188.647H618.453ZM628.235 186.775V189.518H639.942V186.775H642.025V195.819H626.179V186.775H628.235ZM628.235 194.158H639.942V191.152H628.235V194.158ZM644.82 183.4V185.114H623.463V183.4H644.82ZM635.223 174.066C635.223 176.967 639.494 179.551 643.607 180.078L642.843 181.739C639.204 181.199 635.645 179.34 634.168 176.703C632.665 179.353 629.079 181.199 625.467 181.739L624.676 180.078C628.842 179.524 633.087 177.046 633.087 174.066V172.959H635.223V174.066ZM671.873 172.695V180.922H675.38V182.662H671.873V191.047H669.79V172.695H671.873ZM672.717 193.895V195.635H656.976V189.808H659.059V193.895H672.717ZM653.469 186.644C655.328 186.644 657.529 186.63 659.823 186.538V184.745C657.094 184.495 655.341 183.189 655.341 181.212C655.341 178.944 657.529 177.6 660.825 177.6C664.147 177.6 666.31 178.944 666.336 181.212C666.31 183.176 664.596 184.481 661.88 184.745V186.433C664.082 186.327 666.296 186.116 668.34 185.8L668.524 187.276C663.488 188.226 657.819 188.305 653.706 188.331L653.469 186.644ZM667.628 175.016V176.571H654.049V175.016H659.823V172.643H661.88V175.016H667.628ZM660.825 179.076C658.663 179.076 657.318 179.894 657.318 181.212C657.318 182.504 658.663 183.321 660.825 183.321C662.987 183.321 664.358 182.504 664.358 181.212C664.358 179.894 662.987 179.076 660.825 179.076ZM696.342 172.722V186.802H694.259V183.638H688.036V181.924H694.259V178.76H688.273C686.731 182.53 683.105 185.259 678.096 186.749L677.226 185.114C682.895 183.427 686.415 180.263 686.85 176.202H678.412V174.462H689.091C689.091 175.385 688.985 176.268 688.801 177.099H694.259V172.722H696.342ZM688.669 187.039C693.415 187.039 696.474 188.727 696.474 191.521C696.474 194.343 693.415 196.03 688.669 196.03C683.87 196.03 680.838 194.343 680.838 191.521C680.838 188.727 683.87 187.039 688.669 187.039ZM688.669 188.7C685.136 188.674 682.868 189.755 682.868 191.521C682.868 193.288 685.136 194.343 688.669 194.343C692.149 194.343 694.391 193.288 694.417 191.521C694.391 189.755 692.149 188.674 688.669 188.7Z" fill="black"/>
<path d="M292 64L292 196" stroke="#F2F2F7" stroke-width="2"/>
<defs>
<linearGradient id="paint0_linear_590_880" x1="-0.722946" y1="130" x2="1112.71" y2="130" gradientUnits="userSpaceOnUse">
<stop stop-color="#3182F6"/>
<stop offset="1" stop-color="#A009FF"/>
</linearGradient>
<linearGradient id="paint1_linear_590_880" x1="41.7922" y1="153" x2="361.904" y2="153" gradientUnits="userSpaceOnUse">
<stop stop-color="#3182F6"/>
<stop offset="1" stop-color="#A009FF"/>
</linearGradient>
</defs>
</svg>
