<svg width="765" height="197" viewBox="0 0 765 197" fill="none" xmlns="http://www.w3.org/2000/svg">
<rect x="0.5" y="0.5" width="764" height="196" rx="14.5" fill="white" stroke="url(#paint0_linear_543_1092)"/>
<path d="M304.002 33L304.002 165" stroke="#F2F2F7" stroke-width="2"/>
<path d="M39.9844 114.898V136.086H37.4531V114.898H39.9844ZM35.5312 115.32V135.055H33.0938V124.883H29.0156V122.75H33.0938V115.32H35.5312ZM30.4688 117.383V119.469H24.9609V129.055C27.4688 129.031 29.2617 128.926 31.3359 128.492L31.5469 130.625C29.1562 131.117 27.0469 131.211 23.8359 131.234H22.4062V117.383H30.4688ZM60.0703 114.898V136.109H57.4453V114.898H60.0703ZM48.6562 116.445C51.8438 116.445 54.1641 119.352 54.1875 123.922C54.1641 128.539 51.8438 131.422 48.6562 131.422C45.4453 131.422 43.125 128.539 43.125 123.922C43.125 119.352 45.4453 116.445 48.6562 116.445ZM48.6562 118.789C46.8516 118.789 45.6328 120.688 45.6328 123.922C45.6328 127.18 46.8516 129.078 48.6562 129.078C50.4375 129.078 51.6562 127.18 51.6562 123.922C51.6562 120.688 50.4375 118.789 48.6562 118.789ZM80.9531 114.898V136.109H78.375V124.672H74.3906V122.562H78.375V114.898H80.9531ZM74.0625 116.727V118.859H66.7734V122.656H73.2188V124.719H66.7734V129.078C69.9961 129.066 72.4102 128.961 75.1406 128.516L75.3984 130.625C72.3047 131.094 69.6094 131.211 65.8125 131.234H64.1484V116.727H74.0625ZM107.32 114.898V136.086H104.695V114.898H107.32ZM100.992 117.148C100.992 123.453 98.5547 128.82 91.125 132.336L89.7656 130.25C95.3086 127.613 97.8867 124.027 98.3438 119.211H90.8438V117.148H100.992ZM127.078 114.922V121.039H130.031V123.195H127.078V130.508H124.477V114.922H127.078ZM127.922 133.555V135.664H113.508V128.938H116.109V133.555H127.922ZM113.672 116.422V119.656H118.617V116.422H121.195V127.062H111.094V116.422H113.672ZM113.672 125H118.617V121.672H113.672V125ZM147.562 116.305V125.516H137.531V116.305H147.562ZM140.086 118.391V123.43H145.008V118.391H140.086ZM153.516 114.898V119.656H156.469V121.812H153.516V126.852H150.914V114.898H153.516ZM153.82 127.93V129.992H148.195C148.605 131.797 151.008 133.496 154.711 134.023L153.773 136.016C150.469 135.547 147.949 134.129 146.742 132.219C145.512 134.129 143.039 135.535 139.734 135.969L138.773 134C142.512 133.496 144.855 131.844 145.289 129.992H139.641V127.93H153.82ZM176.859 125.188V127.25H168.469V129.102H174.516V135.828H159.82V129.102H165.891V127.25H157.547V125.188H176.859ZM168.469 114.875V116.773H174.961V118.836H168.656C168.961 120.57 171.457 122 175.898 122.305L175.148 124.227C171.316 123.934 168.504 122.809 167.18 121.016C165.844 122.809 163.031 123.934 159.234 124.227L158.461 122.305C162.926 122 165.387 120.57 165.703 118.836H159.445V116.773H165.891V114.875H168.469ZM162.398 131.188V133.719H171.984V131.188H162.398ZM196.57 116.938V119H184.008V116.938H189V114.805H191.602V116.938H196.57ZM190.289 119.82C193.359 119.82 195.445 121.367 195.469 123.688C195.445 126.008 193.359 127.555 190.289 127.555C187.219 127.555 185.086 126.008 185.086 123.688C185.086 121.367 187.219 119.82 190.289 119.82ZM190.289 121.789C188.672 121.789 187.617 122.492 187.617 123.688C187.617 124.883 188.672 125.562 190.289 125.539C191.906 125.562 192.984 124.883 192.984 123.688C192.984 122.492 191.906 121.789 190.289 121.789ZM200.695 114.898V120.523H203.648V122.656H200.695V128.164H198.094V114.898H200.695ZM200.695 129.148V136.086H198.094V131.234H186.586V129.148H200.695ZM209.625 127.602V129.617H218.953V127.602H221.555V135.828H207.047V127.602H209.625ZM209.625 133.766H218.953V131.609H209.625V133.766ZM224.039 124.273V126.406H204.727V124.273H224.039ZM215.719 115.93C215.719 118.203 218.625 120.594 223.008 121.109L222.094 123.172C218.543 122.691 215.742 121.121 214.383 118.977C213.012 121.133 210.199 122.691 206.672 123.172L205.711 121.109C210.141 120.57 213.023 118.273 213.047 115.93V115.133H215.719V115.93Z" fill="url(#paint1_linear_543_1092)"/>
<path d="M32.5645 69.6855C32.5645 72.9854 34.5928 76.3457 39.1338 77.708L37.166 80.7354C34.0781 79.7666 31.8984 77.7837 30.6572 75.2861C29.4009 77.9956 27.1606 80.1753 23.9365 81.25L21.9385 78.2227C26.5098 76.7393 28.6289 73.167 28.6289 69.6855V69.292H22.9678V66.2041H38.1045V69.292H32.5645V69.6855ZM44.8857 64.2666V84.1865H41.0107V64.2666H44.8857ZM45.6123 88.2129V91.3008H26.4189V82.3701H30.3242V88.2129H45.6123ZM70.4668 64.2363V71.7441H74.1904V74.9229H70.4668V84.1562H66.5918V64.2363H70.4668ZM62.1113 66.4463V69.5342H53.5439V76.4971C58.5239 76.4668 61.2637 76.3154 64.3516 75.6494L64.7451 78.7373C61.2939 79.4639 58.1152 79.6152 52 79.6152H49.6689V66.4463H62.1113ZM71.4658 88.2129V91.3008H52.6055V82.0371H56.4502V88.2129H71.4658ZM100.589 80.1299V83.1572H89.8115V91.7852H85.9971V83.1572H75.3711V80.1299H100.589ZM82.1523 65.2959V68.4746H93.7168V65.2959H97.5918V77.4658H78.3379V65.2959H82.1523ZM82.1523 74.3779H93.7168V71.502H82.1523V74.3779ZM125.443 64.2363V91.8457H121.629V77.0723H116.785V73.9541H121.629V64.2363H125.443ZM116.331 66.5371V69.6553H107.31V74.2266H115.332V77.2539H107.31V82.4609C111.124 82.4307 114.182 82.2944 117.603 81.7646L117.996 84.8525C113.97 85.458 110.367 85.6094 105.645 85.6094H103.465V66.5371H116.331ZM157.866 64.2363V74.4688H161.923V77.6172H157.866V91.8457H153.991V64.2363H157.866ZM150.146 66.7793V69.8975H141.064V81.9766C145.061 81.9312 148.36 81.7495 152.023 81.0986L152.447 84.3379C148.179 85.0645 144.425 85.1855 139.551 85.1553H137.22V66.7793H150.146ZM188.109 77.6777V80.7354H162.892V77.6777H188.109ZM169.915 81.8857V83.7324H181.328V81.8857H185.143V91.4219H166.07V81.8857H169.915ZM169.915 88.4551H181.328V86.6084H169.915V88.4551ZM185.052 64.7207V71.835H169.885V73.3789H185.566V76.3154H166.04V69.0801H181.177V67.5967H165.979V64.7207H185.052ZM212.873 64.2363V91.7852H209.028V64.2363H212.873ZM195.012 66.8701V81.6738C198.735 81.6284 202.731 81.2803 206.788 80.4932L207.272 83.6719C202.429 84.6709 197.888 85.0039 193.619 84.9736H191.197V66.8701H195.012ZM238.242 64.2363V74.4688H242.299V77.6172H238.242V91.8457H234.367V64.2363H238.242ZM230.522 66.7793V69.8975H221.44V81.9766C225.437 81.9312 228.736 81.7495 232.399 81.0986L232.823 84.3379C228.555 85.0645 224.801 85.1855 219.927 85.1553H217.596V66.7793H230.522Z" fill="black"/>
<path d="M340.939 65.6406C339.626 65.6406 338.548 64.5625 338.548 63.2266C338.548 61.9141 339.626 60.8359 340.939 60.8359C342.275 60.8359 343.353 61.9141 343.353 63.2266C343.353 64.5625 342.275 65.6406 340.939 65.6406ZM360.908 70V53.0312H366.673C370.658 53.0312 372.462 55.2344 372.462 58.2578C372.462 60.4961 371.455 62.2656 369.298 63.0156L373.119 70H370.658L367.119 63.3906L366.697 63.4141H363.017V70H360.908ZM363.017 61.4922H366.603C369.298 61.4922 370.376 60.2734 370.376 58.2578C370.376 56.2188 369.298 54.9062 366.58 54.9062H363.017V61.4922ZM380.455 70.2578C376.775 70.2578 374.501 67.6562 374.501 63.7422C374.501 59.8281 376.798 57.1094 380.267 57.1094C382.939 57.1094 385.751 58.75 385.751 63.4609V64.3047H376.517C376.611 67 378.181 68.4766 380.455 68.4766C381.978 68.4766 382.939 67.8203 383.408 67.0234H385.564C384.955 68.9453 383.08 70.2578 380.455 70.2578ZM376.541 62.5938H383.712C383.712 60.4609 382.353 58.8906 380.267 58.8906C378.064 58.8906 376.658 60.625 376.541 62.5938ZM390.392 62.3594V70H388.376V57.2734H390.322V59.2656H390.486C391.095 57.9766 392.267 57.1094 394.212 57.1094C396.791 57.1094 398.501 58.6797 398.501 61.9141V70H396.486V62.0547C396.486 60.0859 395.408 58.9141 393.603 58.9141C391.751 58.9141 390.392 60.1562 390.392 62.3594ZM401.126 66.3906C401.126 63.4609 403.705 62.8047 405.908 62.6406C406.716 62.582 408.779 62.4766 409.353 62.4531V61.4219C409.353 59.8047 408.392 58.8672 406.47 58.8672C404.853 58.8672 403.892 59.6172 403.611 60.5781H401.501C401.759 58.5391 403.751 57.1094 406.564 57.1094C408.228 57.1094 411.345 57.6016 411.345 61.6094V70H409.353V68.2656H409.259C408.837 69.1328 407.666 70.3047 405.462 70.3047C403.048 70.3047 401.126 68.875 401.126 66.3906ZM403.142 66.4844C403.142 67.8203 404.267 68.5 405.814 68.5C408.087 68.5 409.353 66.9766 409.353 65.3828V64.0938L406.142 64.3281C404.314 64.4453 403.142 65.1016 403.142 66.4844ZM414.58 70V57.2734H416.595V70H414.58ZM415.587 55.1641C414.814 55.1641 414.181 54.5781 414.181 53.8281C414.181 53.0781 414.814 52.4922 415.587 52.4922C416.361 52.4922 417.017 53.0781 417.017 53.8281C417.017 54.5781 416.361 55.1641 415.587 55.1641ZM426.884 60.5781C426.603 59.5234 425.806 58.8203 424.306 58.8203C422.736 58.8203 421.611 59.6641 421.611 60.7422C421.611 61.5859 422.291 62.1719 423.791 62.5234L425.689 62.9922C427.962 63.5312 429.087 64.6562 429.087 66.4375C429.087 68.6406 427.283 70.2578 424.095 70.2578C421.236 70.2578 419.525 68.9922 419.197 66.6719H421.306C421.541 67.9141 422.455 68.5 424.048 68.5C425.853 68.5 427.001 67.75 427.001 66.5547C427.001 65.6641 426.369 65.0547 424.916 64.7266L422.994 64.2812C420.767 63.7656 419.595 62.5469 419.595 60.8594C419.595 58.6797 421.494 57.1094 424.306 57.1094C426.931 57.1094 428.595 58.5156 428.853 60.5781H426.884ZM438.791 60.5781C438.509 59.5234 437.712 58.8203 436.212 58.8203C434.642 58.8203 433.517 59.6641 433.517 60.7422C433.517 61.5859 434.197 62.1719 435.697 62.5234L437.595 62.9922C439.869 63.5312 440.994 64.6562 440.994 66.4375C440.994 68.6406 439.189 70.2578 436.001 70.2578C433.142 70.2578 431.431 68.9922 431.103 66.6719H433.212C433.447 67.9141 434.361 68.5 435.955 68.5C437.759 68.5 438.908 67.75 438.908 66.5547C438.908 65.6641 438.275 65.0547 436.822 64.7266L434.9 64.2812C432.673 63.7656 431.501 62.5469 431.501 60.8594C431.501 58.6797 433.4 57.1094 436.212 57.1094C438.837 57.1094 440.501 58.5156 440.759 60.5781H438.791ZM443.009 66.3906C443.009 63.4609 445.587 62.8047 447.791 62.6406C448.599 62.582 450.662 62.4766 451.236 62.4531V61.4219C451.236 59.8047 450.275 58.8672 448.353 58.8672C446.736 58.8672 445.775 59.6172 445.494 60.5781H443.384C443.642 58.5391 445.634 57.1094 448.447 57.1094C450.111 57.1094 453.228 57.6016 453.228 61.6094V70H451.236V68.2656H451.142C450.72 69.1328 449.548 70.3047 447.345 70.3047C444.931 70.3047 443.009 68.875 443.009 66.3906ZM445.025 66.4844C445.025 67.8203 446.15 68.5 447.697 68.5C449.97 68.5 451.236 66.9766 451.236 65.3828V64.0938L448.025 64.3281C446.197 64.4453 445.025 65.1016 445.025 66.4844ZM458.478 62.3594V70H456.462V57.2734H458.408V59.2656H458.572C459.181 57.9766 460.353 57.1094 462.298 57.1094C464.876 57.1094 466.587 58.6797 466.587 61.9141V70H464.572V62.0547C464.572 60.0859 463.494 58.9141 461.689 58.9141C459.837 58.9141 458.478 60.1562 458.478 62.3594ZM475.025 70.2578C471.416 70.2578 469.212 67.5156 469.212 63.6953C469.212 59.8281 471.509 57.1094 474.978 57.1094C477.697 57.1094 479.712 58.7031 480.041 61.1172H478.025C477.744 59.9453 476.712 58.8906 475.025 58.8906C472.751 58.8906 471.228 60.7656 471.228 63.625C471.228 66.5781 472.705 68.4531 475.025 68.4531C476.525 68.4531 477.673 67.6562 478.025 66.25H480.041C479.712 68.5234 477.861 70.2578 475.025 70.2578ZM487.869 70.2578C484.189 70.2578 481.916 67.6562 481.916 63.7422C481.916 59.8281 484.212 57.1094 487.681 57.1094C490.353 57.1094 493.166 58.75 493.166 63.4609V64.3047H483.931C484.025 67 485.595 68.4766 487.869 68.4766C489.392 68.4766 490.353 67.8203 490.822 67.0234H492.978C492.369 68.9453 490.494 70.2578 487.869 70.2578ZM483.955 62.5938H491.126C491.126 60.4609 489.767 58.8906 487.681 58.8906C485.478 58.8906 484.072 60.625 483.955 62.5938ZM514.072 60.7422V62.1953H494.994V60.7422H514.072ZM511.681 63.8594V68.2891H499.166V70.2812H512.361V71.6172H497.314V67.0234H509.853V65.2422H497.291V63.8594H511.681ZM511.611 51.6953V56.0078H499.306V57.8359H511.986V59.1719H497.478V54.7422H509.759V53.0312H497.408V51.6953H511.611ZM540.767 62.125V63.625H521.759V62.125H530.337V60.0625H524.291V51.6719H538.4V53.1719H526.142V55.1172H537.837V56.5234H526.142V58.5859H538.517V60.0625H532.166V62.125H540.767ZM531.275 65.1953C535.845 65.1719 538.423 66.3438 538.447 68.5234C538.423 70.7031 535.845 71.8516 531.275 71.8516C526.658 71.8516 524.08 70.7031 524.08 68.5234C524.08 66.3438 526.658 65.1719 531.275 65.1953ZM531.275 66.5781C527.83 66.5781 525.908 67.2812 525.931 68.5234C525.908 69.7891 527.83 70.4453 531.275 70.4219C534.673 70.4453 536.595 69.7891 536.595 68.5234C536.595 67.2812 534.673 66.5781 531.275 66.5781ZM558.814 51.0859V57.9531H561.955V59.5H558.814V66.6953H556.986V51.0859H558.814ZM554.994 53.6406V55.1406H542.572V53.6406H547.869V51.0859H549.697V53.6406H554.994ZM548.783 56.2891C551.759 56.2891 553.775 57.8125 553.798 60.1797C553.775 62.5234 551.759 64.0234 548.783 64.0234C545.783 64.0234 543.744 62.5234 543.767 60.1797C543.744 57.8125 545.783 56.2891 548.783 56.2891ZM548.783 57.7422C546.814 57.7422 545.501 58.7031 545.525 60.1797C545.501 61.6562 546.814 62.5938 548.783 62.5703C550.728 62.5938 552.041 61.6562 552.064 60.1797C552.041 58.7031 550.728 57.7422 548.783 57.7422ZM559.775 69.9062V71.4531H545.783V65.4531H547.587V69.9062H559.775ZM569.759 70V68.4766L578.876 54.9062H569.666V53.0312H581.408V54.5547L572.291 68.125H581.501V70H569.759ZM584.595 70V53.0312H590.361C594.345 53.0312 596.15 55.3984 596.15 58.4219C596.15 61.4219 594.345 63.8359 590.384 63.8359H586.705V70H584.595ZM586.705 61.9609H590.291C592.986 61.9609 594.064 60.4375 594.064 58.4219C594.064 56.3828 592.986 54.9062 590.267 54.9062H586.705V61.9609ZM604.376 70H599.103V53.0312H604.587C609.533 53.0312 612.462 56.2188 612.462 61.4922C612.462 66.7891 609.533 70 604.376 70ZM601.212 68.125H604.236C608.408 68.125 610.4 65.6172 610.4 61.4922C610.4 57.3906 608.408 54.9062 604.447 54.9062H601.212V68.125ZM628.048 55.5391C628.048 58.3516 630.275 60.8828 633.392 61.8672L632.455 63.3438C630.029 62.5234 628.095 60.8125 627.158 58.6094C626.244 60.9883 624.287 62.8633 621.814 63.7656L620.853 62.2891C623.97 61.1875 626.197 58.4922 626.197 55.5391V54.3203H621.322V52.8203H632.853V54.3203H628.048V55.5391ZM637.751 51.0859V66.3672H635.923V51.0859H637.751ZM638.408 69.9062V71.4531H624.298V64.9141H626.126V69.9062H638.408ZM657.58 51.0625V57.2734H660.744V58.8203H657.58V66.1562H655.751V51.0625H657.58ZM651.556 52.8672V54.4141H644.103V60.9062C648.287 60.9062 650.666 60.8008 653.455 60.2266L653.689 61.75C650.759 62.3125 648.275 62.4531 643.892 62.4531H642.275V52.8672H651.556ZM658.541 69.9062V71.4531H644.548V64.6328H646.353V69.9062H658.541ZM678.931 52.4219V60.9062H669.158V52.4219H678.931ZM670.962 53.9219V59.4531H677.126V53.9219H670.962ZM685.236 51.0625V63.0391H683.431V51.0625H685.236ZM679.587 65.8984C679.587 67.9375 682.916 69.9531 686.501 70.3984L685.869 71.8281C682.728 71.4062 679.869 69.9297 678.65 67.9844C677.384 69.9648 674.455 71.4062 671.314 71.8281L670.658 70.3984C674.244 70 677.689 67.9844 677.689 65.8984H671.525V64.4688H677.712V62.4297H679.541V64.4688H685.775V65.8984H679.587ZM713.876 62.1016V63.6016H705.392V67.6797H703.564V63.6016H694.798V62.1016H713.876ZM711.744 69.9062V71.4531H697.236V65.7578H699.064V69.9062H711.744ZM699.181 51.7422V54.4141H709.494V51.7422H711.322V60.0625H697.353V51.7422H699.181ZM699.181 58.5625H709.494V55.8203H699.181V58.5625ZM722.666 54.4141C722.666 57.2969 724.798 59.9453 727.822 60.9766L726.814 62.4531C724.494 61.5977 722.689 59.8164 721.798 57.6016C720.919 60.0625 719.044 61.9844 716.595 62.9453L715.587 61.4219C718.751 60.2969 720.837 57.5547 720.861 54.3438V52.1406H722.666V54.4141ZM732.837 64.5391V71.8984H730.986V66.0156H718.822V64.5391H732.837ZM732.837 51.0625V63.3906H730.986V56.9922H726.345V55.4453H730.986V51.0625H732.837ZM340.939 103.641C339.626 103.641 338.548 102.562 338.548 101.227C338.548 99.9141 339.626 98.8359 340.939 98.8359C342.275 98.8359 343.353 99.9141 343.353 101.227C343.353 102.562 342.275 103.641 340.939 103.641ZM370.166 95.2969C369.978 93.6328 368.455 92.6719 366.416 92.6719C364.166 92.6719 362.689 93.8438 362.689 95.4609C362.689 97.2422 364.681 97.8984 365.97 98.2266L367.658 98.6953C369.486 99.1641 372.462 100.219 372.462 103.383C372.462 106.148 370.236 108.305 366.298 108.305C362.642 108.305 360.369 106.406 360.181 103.594H362.337C362.525 105.492 364.283 106.383 366.298 106.383C368.642 106.383 370.4 105.188 370.4 103.336C370.4 101.695 368.83 101.062 367.048 100.547L364.962 99.9844C362.291 99.2109 360.65 97.8516 360.65 95.5547C360.65 92.6953 363.205 90.7969 366.486 90.7969C369.767 90.7969 372.134 92.7188 372.228 95.2969H370.166ZM375.486 108V91.0312H381.251C385.236 91.0312 387.041 93.2344 387.041 96.2578C387.041 98.4961 386.033 100.266 383.876 101.016L387.697 108H385.236L381.697 101.391L381.275 101.414H377.595V108H375.486ZM377.595 99.4922H381.181C383.876 99.4922 384.955 98.2734 384.955 96.2578C384.955 94.2188 383.876 92.9062 381.158 92.9062H377.595V99.4922ZM412.916 89.0625V109.898H411.134V89.0625H412.916ZM408.65 89.5781V108.82H406.892V98.5781H402.345V97.0312H406.892V89.5781H408.65ZM403.751 91.6406V93.1641H397.681V103.336C400.681 103.324 402.58 103.195 404.83 102.703L405.017 104.273C402.603 104.766 400.564 104.859 397.212 104.883H395.9V91.6406H403.751ZM433.001 89.0625V109.945H431.15V89.0625H433.001ZM421.916 90.6797C425.009 90.7031 427.236 93.5156 427.236 97.9453C427.236 102.375 425.009 105.188 421.916 105.188C418.798 105.188 416.595 102.375 416.595 97.9453C416.595 93.5156 418.798 90.7031 421.916 90.6797ZM421.916 92.3203C419.83 92.3438 418.376 94.5469 418.376 97.9453C418.376 101.344 419.83 103.547 421.916 103.547C424.001 103.547 425.455 101.344 425.455 97.9453C425.455 94.5469 424.001 92.3438 421.916 92.3203ZM453.837 89.0625V109.945H452.009V98.4609H447.603V96.9375H452.009V89.0625H453.837ZM447.251 90.9844V92.5078H439.376V96.8438H446.337V98.3438H439.376V103.383C443.208 103.383 445.646 103.254 448.517 102.75L448.728 104.273C445.705 104.766 443.15 104.906 439.119 104.906H437.525V90.9844H447.251ZM476.384 105.773V107.32H457.306V105.773H465.884V101.836H459.697V95.4141H472.166V92.1328H459.65V90.6094H473.97V96.9141H461.525V100.312H474.462V101.836H467.689V105.773H476.384ZM501.345 89.0859V104.977H499.494V100.5H495.884V99H499.494V96.1641H495.884V94.6406H499.494V89.0859H501.345ZM495.884 91.6406V93.1406H484.095V91.6406H489.158V89.0625H490.986V91.6406H495.884ZM490.048 94.2891C492.837 94.2891 494.806 95.8828 494.806 98.2734C494.806 100.641 492.837 102.258 490.048 102.258C487.259 102.258 485.314 100.641 485.337 98.2734C485.314 95.8828 487.259 94.2891 490.048 94.2891ZM490.048 95.7422C488.267 95.7656 487.048 96.7734 487.048 98.2734C487.048 99.7734 488.267 100.781 490.048 100.781C491.83 100.781 493.048 99.7734 493.072 98.2734C493.048 96.7734 491.83 95.7656 490.048 95.7422ZM501.814 107.906V109.453H487.869V103.57H489.72V107.906H501.814ZM522.72 89.0625V109.898H520.939V99.0703H518.103V108.844H516.345V89.5078H518.103V97.5H520.939V89.0625H522.72ZM510.978 94.7578C510.978 98.5781 512.548 101.93 515.525 103.453L514.423 104.883C512.314 103.734 510.873 101.672 510.134 99.1172C509.419 102.023 507.955 104.297 505.751 105.586L504.603 104.18C507.603 102.539 509.197 98.9766 509.197 94.7578V93.0938H505.095V91.5469H514.845V93.0938H510.978V94.7578ZM538.447 90.0938C541.564 90.0703 543.791 91.7812 543.791 94.3359C543.791 96.8672 541.564 98.625 538.447 98.6016C535.33 98.625 533.103 96.8672 533.103 94.3359C533.103 91.7812 535.33 90.0703 538.447 90.0938ZM538.447 91.5938C536.361 91.5703 534.884 92.7188 534.908 94.3359C534.884 95.9766 536.361 97.1016 538.447 97.0781C540.556 97.1016 542.033 95.9766 542.033 94.3359C542.033 92.7188 540.556 91.5703 538.447 91.5938ZM548.759 89.0859V109.922H546.955V89.0859H548.759ZM531.533 100.383C535.447 100.383 540.791 100.312 545.431 99.6328L545.548 101.016C543.556 101.379 541.482 101.602 539.478 101.719V109.266H537.65V101.836C535.529 101.93 533.525 101.941 531.791 101.953L531.533 100.383ZM569.501 89.0625V109.898H567.65V89.0625H569.501ZM560.009 95.8594C560.009 99.3516 562.447 102.727 565.587 104.062L564.556 105.492C562.154 104.426 560.115 102.164 559.142 99.3984C558.205 102.328 556.177 104.73 553.775 105.867L552.744 104.438C555.837 103.031 558.205 99.5156 558.205 95.8594V94.1953H553.306V92.6953H558.181V89.4609H560.009V92.6953H564.861V94.1953H560.009V95.8594ZM579.345 90.4219C582.556 90.4453 584.876 92.4141 584.9 95.3203C584.876 97.9336 583.001 99.7969 580.283 100.125V103.688C582.228 103.594 584.185 103.453 586.001 103.219L586.119 104.602C581.712 105.352 576.767 105.398 573.111 105.375L572.806 103.828C574.482 103.816 576.427 103.805 578.431 103.734V100.125C575.666 99.8086 573.767 97.9453 573.791 95.3203C573.767 92.4141 576.087 90.4453 579.345 90.4219ZM579.345 92.0156C577.166 92.0156 575.572 93.375 575.595 95.3203C575.572 97.2656 577.166 98.625 579.345 98.625C581.501 98.625 583.072 97.2656 583.095 95.3203C583.072 93.375 581.501 92.0156 579.345 92.0156ZM589.166 89.0625V97.6641H592.564V99.2578H589.166V109.898H587.337V89.0625H589.166ZM615.955 89.0625V97.3125H619.447V98.8594H615.955V109.945H614.126V89.0625H615.955ZM610.47 91.1016V92.625H602.572V103.172C606.345 103.172 609.017 102.996 612.111 102.422L612.345 104.016C609.087 104.602 606.345 104.719 602.384 104.719H600.744V91.1016H610.47ZM630.064 89.5312C634.587 89.5312 637.423 90.9844 637.423 93.4922C637.423 95.9531 634.587 97.3828 630.064 97.3828C625.541 97.3828 622.681 95.9531 622.681 93.4922C622.681 90.9844 625.541 89.5312 630.064 89.5312ZM630.064 91.0078C626.689 91.0078 624.556 91.9453 624.58 93.4922C624.556 95.0156 626.689 95.9062 630.064 95.9297C633.392 95.9062 635.548 95.0156 635.548 93.4922C635.548 91.9453 633.392 91.0078 630.064 91.0078ZM637.236 102.773V109.617H622.892V102.773H637.236ZM624.72 104.25V108.117H635.431V104.25H624.72ZM639.556 99.1875V100.711H620.572V99.1875H639.556ZM663.908 89.9531V96.9844H657.744V99.6562H666.322V101.156H647.337V99.6562H655.916V96.9844H649.798V89.9531H663.908ZM651.603 91.4297V95.5078H662.08V91.4297H651.603ZM663.978 103.336V109.898H662.126V104.812H649.447V103.336H663.978ZM687.158 105.82V107.344H668.08V105.82H673.4V100.852H669.814V99.3281H673.072V92.5312H669.767V91.0078H685.33V92.5312H682.025V99.3281H685.283V100.852H681.697V105.82H687.158ZM674.9 99.3281H680.22V92.5312H674.9V99.3281ZM675.251 105.82H679.869V100.852H675.251V105.82ZM712.658 89.0625V109.898H710.9V89.0625H712.658ZM708.439 89.5781V108.82H706.705V98.0859H703.189V96.5859H706.705V89.5781H708.439ZM700.962 95.0156C700.962 98.625 702.58 102.211 705.462 103.875L704.337 105.234C702.287 104.004 700.833 101.754 700.119 99.0938C699.357 101.965 697.845 104.414 695.759 105.727L694.587 104.344C697.494 102.609 699.181 98.8125 699.181 95.0156V93.0469H695.173V91.5234H704.783V93.0469H700.962V95.0156ZM722.994 94.6641C722.97 98.4609 725.572 102.305 728.642 103.688L727.517 105.141C725.15 103.98 723.099 101.531 722.103 98.5547C721.13 101.707 719.08 104.332 716.642 105.562L715.47 104.016C718.564 102.586 721.142 98.625 721.166 94.6641V90.8672H722.994V94.6641ZM732.767 89.0625V109.945H730.916V89.0625H732.767ZM340.939 141.641C339.626 141.641 338.548 140.562 338.548 139.227C338.548 137.914 339.626 136.836 340.939 136.836C342.275 136.836 343.353 137.914 343.353 139.227C343.353 140.562 342.275 141.641 340.939 141.641ZM377.15 127.062V137.727H375.298V135.547H369.744V134.094H375.298V131.586H370.048C368.736 134.879 365.501 137.094 360.884 138.195L360.228 136.672C365.337 135.488 368.314 132.992 368.666 129.641H361.283V128.117H370.681C370.681 128.809 370.611 129.477 370.494 130.109H375.298V127.062H377.15ZM377.15 138.664V143.75H365.525V146.188H377.853V147.711H363.697V142.344H375.298V140.164H363.65V138.664H377.15ZM392.173 129.383V130.461C392.15 132.102 392.15 134.867 391.564 138.734L389.712 138.57C390.275 135.078 390.322 132.547 390.322 130.883H381.58V129.383H392.173ZM386.712 135.336V141.664C389.021 141.582 391.388 141.43 393.556 141.172L393.65 142.555C389.267 143.234 384.369 143.328 380.642 143.305L380.408 141.781C381.779 141.77 383.302 141.758 384.908 141.711V135.336H386.712ZM396.697 127.062V135.781H400.072V137.375H396.697V147.898H394.869V127.062H396.697ZM418.212 133.391V134.867H403.939V127.836H405.767V133.391H418.212ZM420.416 137.703V139.203H401.337V137.703H420.416ZM418.33 145.859V147.383H403.822V141.336H405.65V145.859H418.33ZM440.595 129.312V130.812H428.173V129.312H433.47V126.969H435.298V129.312H440.595ZM434.384 131.891C437.384 131.914 439.376 133.367 439.4 135.664C439.376 137.938 437.384 139.414 434.384 139.414C431.384 139.414 429.345 137.938 429.369 135.664C429.345 133.367 431.384 131.914 434.384 131.891ZM434.384 133.32C432.416 133.344 431.103 134.258 431.126 135.664C431.103 137.047 432.416 137.938 434.384 137.938C436.33 137.938 437.642 137.047 437.666 135.664C437.642 134.258 436.33 133.344 434.384 133.32ZM444.416 127.062V132.852H447.556V134.398H444.416V140.094H442.587V127.062H444.416ZM444.416 141.242V147.898H442.587V142.742H430.775V141.242H444.416ZM467.923 139.438V140.938H459.228V147.898H457.423V140.938H448.845V139.438H467.923ZM453.111 127.93V130.812H463.611V127.93H465.462V136.906H451.283V127.93H453.111ZM453.111 135.406H463.611V132.312H453.111V135.406ZM488.689 143.68V145.227H469.611V143.68H478.189V138.594H471.861V128.82H486.322V138.594H479.994V143.68H488.689ZM473.666 130.297V137.117H484.541V130.297H473.666ZM496.634 128.422C499.845 128.445 502.166 130.414 502.189 133.32C502.166 135.934 500.291 137.797 497.572 138.125V141.688C499.517 141.594 501.474 141.453 503.291 141.219L503.408 142.602C499.001 143.352 494.056 143.398 490.4 143.375L490.095 141.828C491.771 141.816 493.716 141.805 495.72 141.734V138.125C492.955 137.809 491.056 135.945 491.08 133.32C491.056 130.414 493.376 128.445 496.634 128.422ZM496.634 130.016C494.455 130.016 492.861 131.375 492.884 133.32C492.861 135.266 494.455 136.625 496.634 136.625C498.791 136.625 500.361 135.266 500.384 133.32C500.361 131.375 498.791 130.016 496.634 130.016ZM506.455 127.062V135.664H509.853V137.258H506.455V147.898H504.626V127.062H506.455ZM536.173 139.695V141.219H527.501V147.898H525.697V141.219H517.095V139.695H536.173ZM534.017 136.039V137.539H519.65V128.047H533.783V129.547H521.478V131.984H533.291V133.461H521.478V136.039H534.017ZM555.134 127.062V139.414H553.283V136.133H548.408V137.914H538.845V128.656H548.408V130.461H553.283V127.062H555.134ZM540.673 130.156V136.414H546.603V130.156H540.673ZM548.22 140.023C552.556 140.023 555.205 141.453 555.205 143.961C555.205 146.445 552.556 147.852 548.22 147.852C543.884 147.852 541.236 146.445 541.236 143.961C541.236 141.453 543.884 140.023 548.22 140.023ZM548.22 141.453C545.033 141.477 543.041 142.391 543.064 143.961C543.041 145.461 545.033 146.398 548.22 146.398C551.408 146.398 553.376 145.461 553.376 143.961C553.376 142.391 551.408 141.477 548.22 141.453ZM548.408 134.586H553.283V131.984H548.408V134.586ZM574.728 127.062V135.664H578.22V137.188H574.728V147.898H572.9V127.062H574.728ZM570.884 130.414V131.938H558.486V130.414H563.853V127.32H565.681V130.414H570.884ZM564.791 133.672C567.744 133.672 569.876 135.641 569.9 138.453C569.876 141.266 567.744 143.234 564.791 143.234C561.814 143.234 559.658 141.266 559.681 138.453C559.658 135.641 561.814 133.672 564.791 133.672ZM564.791 135.219C562.845 135.219 561.416 136.578 561.439 138.453C561.416 140.352 562.845 141.688 564.791 141.664C566.712 141.688 568.119 140.352 568.142 138.453C568.119 136.578 566.712 135.219 564.791 135.219ZM597.181 127.062V147.898H595.423V127.062H597.181ZM592.798 127.625V146.844H591.041V137.117H586.634C585.357 139.543 583.353 141.688 580.447 143.398L579.369 142.062C583.904 139.379 586.177 135.617 586.517 131.258H580.259V129.734H588.345C588.333 131.785 588.005 133.766 587.314 135.617H591.041V127.625H592.798ZM615.533 140.234C620.009 140.234 622.845 141.641 622.845 144.055C622.845 146.445 620.009 147.852 615.533 147.852C611.08 147.852 608.244 146.445 608.244 144.055C608.244 141.641 611.08 140.234 615.533 140.234ZM615.533 141.641C612.205 141.664 610.048 142.578 610.072 144.055C610.048 145.508 612.205 146.398 615.533 146.398C618.861 146.398 620.994 145.508 621.017 144.055C620.994 142.578 618.861 141.664 615.533 141.641ZM622.681 128.141V129.898C622.681 131.586 622.681 133.273 622.095 135.43L620.291 135.219C620.853 133.062 620.853 131.539 620.853 129.898V129.641H608.384V128.141H622.681ZM625.095 136.789V138.289H606.134V136.789H613.986V132.758H615.791V136.789H625.095ZM645.908 138.945V140.469H640.869V147.898H639.017V140.469H633.673V147.898H631.775V140.469H626.83V138.945H645.908ZM636.322 127.906C640.705 127.906 643.658 129.664 643.658 132.453C643.658 135.219 640.705 136.977 636.322 136.953C631.939 136.977 628.986 135.219 628.986 132.453C628.986 129.664 631.939 127.906 636.322 127.906ZM636.322 129.406C633.064 129.406 630.861 130.602 630.884 132.453C630.861 134.305 633.064 135.477 636.322 135.477C639.556 135.477 641.783 134.305 641.783 132.453C641.783 130.602 639.556 129.406 636.322 129.406Z" fill="black"/>
<defs>
<linearGradient id="paint0_linear_543_1092" x1="-0.691317" y1="98.5" x2="1064.03" y2="98.4999" gradientUnits="userSpaceOnUse">
<stop stop-color="#3182F6"/>
<stop offset="1" stop-color="#A009FF"/>
</linearGradient>
<linearGradient id="paint1_linear_543_1092" x1="20.747" y1="125" x2="410.448" y2="125" gradientUnits="userSpaceOnUse">
<stop stop-color="#3182F6"/>
<stop offset="1" stop-color="#A009FF"/>
</linearGradient>
</defs>
</svg>
