<svg width="579" height="260" viewBox="0 0 579 260" fill="none" xmlns="http://www.w3.org/2000/svg">
<g filter="url(#filter0_d_725_1246)">
<path d="M390.968 82.4139C390.254 83.1954 388.403 83.1954 387.688 82.4139L370.567 63.6916C369.872 62.9325 370.777 62 372.207 62L406.449 62C407.88 62 408.784 62.9325 408.09 63.6916L390.968 82.4139Z" fill="white"/>
<path d="M196.469 15.3165C196.469 10.1711 200.659 6 205.828 6H555.644C560.813 6 565.003 10.1711 565.003 15.3165V57.2408C565.003 62.3862 560.813 66.5573 555.644 66.5573H205.828C200.659 66.5573 196.469 62.3862 196.469 57.2408V15.3165Z" fill="white"/>
<path d="M287.169 34.0289H290.693V36.8698H287.169V48.7311H283.802V24.7965H287.169V34.0289ZM331.937 39.9205C337.118 39.9206 340.248 41.4982 340.274 44.3121C340.248 47.1527 337.118 48.7311 331.937 48.7311C326.702 48.7311 323.546 47.1527 323.546 44.3121C323.546 41.4981 326.703 39.9205 331.937 39.9205ZM503.932 33.818H507.456V36.6061H503.932V48.7311H500.564V24.7965H503.932V33.818ZM363.68 48.6256H360.286V44.3121H346.741V41.6823H363.68V48.6256ZM411.375 44.9967H397.909V46.233H411.928V48.5739H394.621V42.8395H408.035V41.6559H394.516V39.3942H411.375V44.9967ZM475.619 44.2867H462.89V45.8385H476.276V48.4684H459.602V41.8405H472.279V40.3678H459.549V37.7897H475.619V44.2867ZM527.319 48.442H511.67V39.0787H527.319V48.442ZM299.217 45.6276H312.314V48.3102H295.85V40.7623H299.217V45.6276ZM382.105 27.0065C385.946 27.0065 388.55 29.4264 388.944 32.5563H385.052C384.736 31.2149 383.631 30.399 382.105 30.399C379.528 30.3992 378.16 32.7405 378.134 36.4752H378.318C379.186 34.7919 381.08 33.7916 383.185 33.7916C386.604 33.7919 389.154 36.37 389.154 39.9469C389.154 43.813 386.235 46.601 381.948 46.5748C378.003 46.5485 374.268 44.2075 374.268 37.2379C374.268 30.8204 377.345 27.0066 382.105 27.0065ZM428.48 27.0065C432.452 27.0065 435.108 29.347 435.082 32.3717C435.108 34.5021 433.609 36.0279 431.479 36.3961V36.5533C434.266 36.8953 435.818 38.6052 435.792 40.9723C435.818 44.2337 432.715 46.5748 428.428 46.5748C424.246 46.5748 421.248 44.2599 421.169 40.9459H425.166C425.245 42.3662 426.613 43.3131 428.454 43.3131C430.348 43.3131 431.716 42.2349 431.689 40.7096C431.716 39.1578 430.322 38.0533 428.086 38.0533H426.324V35.1334H428.086C429.953 35.1334 431.269 34.1072 431.269 32.608C431.268 31.1616 430.164 30.1627 428.48 30.1627C426.797 30.1627 425.403 31.1097 425.351 32.5563H421.563C421.616 29.2686 424.588 27.0065 428.48 27.0065ZM445.979 27.0065C450.739 27.0067 453.632 30.5836 453.632 36.7906C453.632 43.0501 450.739 46.5746 445.979 46.5748C441.218 46.5748 438.324 43.024 438.324 36.7906C438.324 30.5572 441.218 27.0065 445.979 27.0065ZM331.937 42.4713C328.623 42.4713 326.94 43.1025 326.966 44.3121C326.94 45.5746 328.623 46.1803 331.937 46.1803C335.172 46.1803 336.881 45.5746 336.907 44.3121C336.881 43.1026 335.171 42.4713 331.937 42.4713ZM515.01 45.8121H524.005V41.7877H515.01V45.8121ZM277.095 30.2155C277.069 34.5025 278.91 38.8422 282.75 40.6832L280.725 43.3658C278.16 42.1034 276.438 39.7363 275.438 36.8434C274.4 39.9469 272.545 42.4849 269.836 43.8131L267.758 41.1041C271.808 39.2368 273.728 34.6603 273.729 30.2155V26.6383H277.095V30.2155ZM381.975 36.6588C380.028 36.6588 378.555 38.1841 378.528 40.0514C378.555 41.9188 379.976 43.4449 381.922 43.4449C383.868 43.4448 385.314 41.9713 385.314 40.0514C385.314 38.158 383.921 36.659 381.975 36.6588ZM445.979 30.2408C443.769 30.2408 442.375 32.4509 442.375 36.7906C442.349 41.1828 443.769 43.3131 445.979 43.3131C448.188 43.3128 449.607 41.1826 449.581 36.7906C449.581 32.4511 448.188 30.2411 445.979 30.2408ZM497.304 42.8922H485.81V27.0592H497.304V42.8922ZM311.736 42.2877H308.396V33.7135H304.477V31.0035H308.396V24.8229H311.736V42.2877ZM363.548 31.7408H350.37V33.319H363.995V35.8961H356.92V37.6324H366.204V40.3151H344.295V37.6324H353.579V35.8961H347.03V29.3209H360.181V27.8473H346.978V25.2438H363.548V31.7408ZM489.124 40.236H493.963V29.6891H489.124V40.236ZM305.371 29.11H300.61V29.5045C300.61 32.2661 302.294 35.238 306.107 36.4742L304.45 39.1315C301.794 38.2766 299.979 36.5273 298.927 34.3444C297.875 36.764 295.968 38.6837 293.141 39.6305L291.432 36.8951C295.377 35.6589 297.165 32.529 297.191 29.4781V29.11H292.378V26.4274H305.371V29.11ZM406.746 34.818C404.629 35.1073 402.459 35.2909 400.328 35.3961V38.7369H397.015V35.528C395.055 35.5806 393.174 35.5806 391.438 35.5543L391.097 33.2399C395.726 33.2662 401.459 33.2133 406.588 32.7399L406.746 34.818ZM520.612 26.191C520.586 32.5295 516.588 36.8168 509.408 38.7106L508.066 36.0543C513.432 34.7261 516.391 32.0693 516.956 28.8737H509.25V26.191H520.612ZM411.375 38.6842H408.009V37.9215H403.669V35.8961H408.009V24.8229H411.375V38.6842ZM342.931 38.4733H321.048V35.7379H342.931V38.4733ZM527.319 30.0309H530.555V32.7926H527.319V38.1842H523.952V24.7965H527.319V30.0309ZM475.619 36.7906H472.253V24.7965H475.619V36.7906ZM462.39 25.5074C466.019 25.5075 468.781 27.7694 468.781 30.9781C468.781 34.1341 466.019 36.4224 462.39 36.4225C458.681 36.4225 455.946 34.1341 455.945 30.9781C455.945 27.7693 458.681 25.5074 462.39 25.5074ZM340.301 28.1373H327.044V31.3981H340.432V34.0553H323.704V25.4283H340.301V28.1373ZM462.39 28.2428C460.549 28.2428 459.181 29.2422 459.207 30.9781C459.181 32.6875 460.549 33.7135 462.39 33.7135C464.204 33.7134 465.546 32.6875 465.546 30.9781C465.546 29.2423 464.204 28.2429 462.39 28.2428ZM398.803 25.1383C402.353 25.1383 404.8 26.5852 404.826 28.7418C404.8 30.9775 402.353 32.319 398.803 32.319C395.147 32.3189 392.728 30.9774 392.728 28.7418C392.728 26.5853 395.147 25.1384 398.803 25.1383ZM398.803 27.3483C396.988 27.322 395.884 27.874 395.91 28.7418C395.884 29.636 396.988 30.1363 398.803 30.1364C400.565 30.1364 401.696 29.6361 401.696 28.7418C401.696 27.874 400.565 27.322 398.803 27.3483Z" fill="url(#paint0_linear_725_1246)"/>
<path d="M258.75 36.2787C258.75 43.4455 252.94 49.2553 245.773 49.2553C238.607 49.2553 232.797 43.4455 232.797 36.2787C232.797 29.1119 238.607 23.3021 245.773 23.3021C252.94 23.3021 258.75 29.1119 258.75 36.2787Z" fill="url(#paint1_linear_725_1246)"/>
<path d="M241.665 43.4686L238.773 31.3571H241.064L242.768 39.8218H242.852L244.71 31.3571H246.679L248.537 39.8385H248.62L250.324 31.3571H252.615L249.724 43.4686H247.671L245.743 35.4723H245.659L243.718 43.4686H241.665Z" fill="white"/>
<path d="M254.789 35.1607V37.6964H237.039V35.1607H254.789Z" fill="white"/>
</g>
<rect y="100" width="565" height="160" rx="30" fill="url(#paint2_linear_725_1246)"/>
<path d="M533.236 175.88V207.324H528.779V175.88H533.236ZM523.803 179.162C523.803 188.699 520.451 196.612 509.221 201.934L506.906 198.409C515.026 194.574 518.603 189.598 519.311 182.618H508.599V179.162H523.803Z" fill="white"/>
<path d="M501.163 175.88V183.032H505.414V186.661H501.163V194.228H496.741V175.88H501.163ZM481.537 177.711V181.719H487.964V177.711H492.387V192.673H477.148V177.711H481.537ZM481.537 189.218H487.964V185.14H481.537V189.218ZM501.336 195.645V199.135H484.992V203.454H501.924V206.909H480.604V195.645H501.336Z" fill="white"/>
<path d="M471.971 175.914V198.513H467.548V175.914H471.971ZM472.801 203.247V206.771H450.893V196.232H455.351V203.247H472.801ZM454.729 177.918C459.567 177.918 463.333 181.236 463.333 185.831C463.333 190.531 459.567 193.813 454.729 193.813C449.891 193.813 446.125 190.531 446.125 185.831C446.125 181.236 449.891 177.918 454.729 177.918ZM454.729 181.754C452.276 181.719 450.41 183.274 450.444 185.831C450.41 188.457 452.276 189.978 454.729 189.978C457.113 189.978 458.979 188.457 458.979 185.831C458.979 183.274 457.113 181.719 454.729 181.754Z" fill="white"/>
<path d="M439.995 175.811V182.652H444.245V186.177H439.995V192.846H435.572V175.811H439.995ZM439.995 194.124V202.072H423.513V203.869H440.893V207.117H419.193V199.066H435.607V197.303H419.124V194.124H439.995ZM433.706 178.23V181.581H415.047V178.23H422.2V175.673H426.588V178.23H433.706ZM424.376 182.341C429.076 182.341 432.117 184.346 432.117 187.49C432.117 190.704 429.076 192.639 424.376 192.639C419.677 192.639 416.567 190.704 416.567 187.49C416.567 184.346 419.677 182.341 424.376 182.341ZM424.376 185.451C422.2 185.451 420.852 186.177 420.887 187.49C420.852 188.838 422.2 189.494 424.376 189.494C426.553 189.494 427.936 188.838 427.936 187.49C427.936 186.177 426.553 185.451 424.376 185.451Z" fill="white"/>
<path d="M402.971 175.914V199.653H398.548V197.165H392.536V194.159H398.548V175.914H402.971ZM403.662 203.247V206.771H380.235V197.372H384.623V193.191C381.807 193.312 379.129 193.33 376.745 193.33L376.227 189.84C381.997 189.805 389.772 189.736 396.406 188.907L396.648 192.051C394.16 192.466 391.586 192.759 389.046 192.949V198.927H384.623V203.247H403.662ZM386.455 176.986C391.016 176.951 394.298 179.266 394.298 182.618C394.298 185.97 391.016 188.146 386.455 188.146C381.79 188.146 378.542 185.97 378.542 182.618C378.542 179.266 381.755 176.951 386.455 176.986ZM386.455 180.199C384.209 180.199 382.688 181.063 382.723 182.618C382.688 184.138 384.209 184.968 386.455 184.968C388.562 184.968 390.083 184.138 390.117 182.618C390.083 181.063 388.562 180.199 386.455 180.199Z" fill="white"/>
<path d="M361.78 178.471V193.571H346.68V178.471H361.78ZM351.033 181.996V190.116H357.426V181.996H351.033ZM370.695 175.88V184.933H374.945V188.561H370.695V198.824H366.272V175.88H370.695ZM371.835 203.247V206.771H350.308V196.578H354.696V203.247H371.835Z" fill="white"/>
<path d="M333.126 204.491C326.871 204.491 323.07 199.826 323.07 191.636C323.07 183.447 326.871 178.782 333.126 178.782C339.38 178.782 343.181 183.482 343.181 191.636C343.181 199.86 339.38 204.491 333.126 204.491ZM333.126 200.206C336.028 200.206 337.894 197.407 337.859 191.636C337.859 185.935 336.028 183.032 333.126 183.032C330.223 183.032 328.392 185.935 328.392 191.636C328.357 197.407 330.223 200.206 333.126 200.206Z" fill="white"/>
<path d="M317.615 179.128V204.145H312.398V184.069H312.259L306.523 187.663V183.067L312.709 179.128H317.615Z" fill="white"/>
<path d="M294.264 175.88V207.324H290.083V191.533H287.043V205.804H283V176.398H287.043V188.008H290.083V175.88H294.264ZM279.683 179.508V183.067H272.392V196.474C275.432 196.457 278.128 196.301 281.168 195.748L281.479 199.342C277.644 200.068 274.292 200.171 270.146 200.206H267.969V179.508H279.683Z" fill="white"/>
<path d="M249.099 192.88V197.614C251.673 197.459 254.282 197.217 256.735 196.854L257.081 200.068C250.101 201.415 242.637 201.484 237.143 201.484L236.625 197.925C238.992 197.908 241.774 197.891 244.711 197.787V192.88H249.099ZM255.595 179.577V183.136H249.168C249.462 186.177 251.829 189.028 256.563 190.185L254.559 193.606C250.879 192.673 248.339 190.634 246.922 188.008C245.523 190.755 243.017 192.898 239.32 193.848L237.247 190.531C241.998 189.269 244.296 186.315 244.607 183.136H238.249V179.577H244.711V176.156H249.099V179.577H255.595ZM262.921 175.88V207.393H258.532V175.88H262.921Z" fill="white"/>
<path d="M223.665 178.609V181.581C223.665 185.52 223.665 189.943 222.387 196.612L217.964 196.163C219.156 190.22 219.208 185.797 219.243 182.099H200.722V178.609H223.665ZM226.43 199.895V203.488H197.75V199.895H208.013V189.079H212.401V199.895H226.43Z" fill="white"/>
<path d="M191.983 175.88V188.181H196.613V191.809H191.983V207.324H187.629V175.88H191.983ZM185.486 180.579V184.104H167V180.579H174.118V176.364H178.541V180.579H185.486ZM176.33 185.866C180.925 185.866 184.346 188.976 184.346 193.364C184.346 197.753 180.925 200.862 176.33 200.862C171.699 200.862 168.278 197.753 168.278 193.364C168.278 188.976 171.699 185.866 176.33 185.866ZM176.33 189.425C174.118 189.46 172.494 190.945 172.494 193.364C172.494 195.817 174.118 197.269 176.33 197.234C178.541 197.269 180.131 195.817 180.131 193.364C180.131 190.945 178.541 189.46 176.33 189.425Z" fill="white"/>
<path d="M165.33 192.742V196.267H136.547V192.742H148.744V190.462H140.14V181.823H157.417V179.888H140.071V176.467H161.84V185.002H144.529V187.075H162.428V190.462H153.133V192.742H165.33ZM162.013 198.063V207.186H157.556V201.519H139.76V198.063H162.013Z" fill="white"/>
<path d="M134.757 190.254V193.848H106.008V190.254H134.757ZM131.474 184.553V188.043H109.498V176.709H131.301V180.268H113.886V184.553H131.474ZM120.313 195.748C127.12 195.748 131.232 197.822 131.267 201.519C131.232 205.251 127.12 207.324 120.313 207.324C113.437 207.324 109.29 205.251 109.29 201.519C109.29 197.822 113.437 195.748 120.313 195.748ZM120.313 199.1C115.959 199.1 113.748 199.929 113.782 201.519C113.748 203.177 115.959 203.972 120.313 203.972C124.563 203.972 126.809 203.177 126.844 201.519C126.809 199.929 124.563 199.1 120.313 199.1Z" fill="white"/>
<path d="M93.7851 175.914V198.858H89.3967V187.594H84.2482V184.035H89.3967V175.914H93.7851ZM94.5453 203.247V206.771H72.9144V196.854H77.3374V203.247H94.5453ZM79.1687 182.065C79.1687 185.693 81.3802 189.598 86.3905 191.222L84.2136 194.712C80.7237 193.589 78.3394 191.291 76.9573 188.423C75.5751 191.602 73.0699 194.124 69.3554 195.368L67.1094 191.775C72.2925 190.151 74.6421 186.039 74.6767 182.03V181.547H68.3533V178.022H85.423V181.547H79.1687V182.065Z" fill="white"/>
<path d="M48.2667 182.998C48.2321 188.63 50.6509 194.332 55.6958 196.75L53.0351 200.275C49.6661 198.616 47.4028 195.506 46.0898 191.706C44.7249 195.783 42.2888 199.117 38.7298 200.862L36 197.303C41.3213 194.85 43.8438 188.838 43.8438 182.998V178.299H48.2667V182.998ZM61.5009 175.88V188.008H66.1311V191.74H61.5009V207.324H57.0779V175.88H61.5009Z" fill="white"/>
<path d="M193.208 152V167.306H191.093V159.116H188.408V157.387H191.093V152H193.208ZM188.156 153.276V155.004H183.155V157.539H187.603V159.217H183.155V162.104C185.27 162.087 186.965 162.011 188.861 161.718L189.079 163.429C186.847 163.765 184.85 163.849 182.232 163.849H181.023V153.276H188.156Z" fill="white"/>
<path d="M173.492 154.014C173.492 156.246 175.473 158.646 178.93 159.234L177.99 161.013C175.33 160.484 173.35 158.99 172.368 157.018C171.352 158.973 169.372 160.476 166.729 161.013L165.806 159.234C169.196 158.629 171.193 156.229 171.21 154.014V152.906H173.492V154.014ZM179.434 163.631V165.393H165.453V163.631H179.434Z" fill="white"/>
<path d="M164.582 160.811V162.49H158.607V167.273H156.493V162.49H150.602V160.811H164.582ZM154.361 152.587V154.35H160.772V152.587H162.921V159.334H152.246V152.587H154.361ZM154.361 157.622H160.772V156.028H154.361V157.622Z" fill="white"/>
<path d="M139.693 153.359V157.287H142.579V152H144.694V167.306H142.579V159.015H139.693V163.547H132.375V153.359H139.693ZM134.506 155.021V161.885H137.595V155.021H134.506Z" fill="white"/>
<path d="M130.083 152V160.727H127.935V156.716H126.172V155.004H127.935V152H130.083ZM130.083 161.415V167.071H119.442V161.415H130.083ZM121.54 163.077V165.393H127.968V163.077H121.54ZM120.902 153.762C120.902 155.088 121.087 156.649 121.977 157.857C122.816 156.666 122.984 155.105 122.984 153.762V152.856H124.998V153.762C124.998 155.642 125.484 157.639 127.263 158.713L126.089 160.224C125.056 159.611 124.402 158.646 124.024 157.505C123.638 158.697 123.009 159.746 121.96 160.392C120.894 159.729 120.256 158.663 119.895 157.455C119.501 158.613 118.855 159.603 117.814 160.224L116.656 158.713C118.419 157.639 118.888 155.558 118.888 153.762V152.856H120.902V153.762Z" fill="white"/>
<path d="M107.093 153.091V154.836H105.835V158.797C106.464 158.764 107.085 158.713 107.681 158.646L107.832 160.207C104.727 160.694 101.286 160.761 98.6178 160.761L98.3828 158.999L100.028 158.982V154.836H98.7856V153.091H107.093ZM110.92 161.953V167.273H108.772V163.664H100.414V161.953H110.92ZM110.92 152V161.348H108.772V152H110.92ZM102.075 158.965L103.77 158.915V154.836H102.075V158.965Z" fill="white"/>
<path d="M96.5219 152V167.273H94.4743V152H96.5219ZM93.333 152.218V166.568H91.319V159.351H90.0938C89.8924 162.355 88.6169 164.168 86.7372 164.168C84.7232 164.168 83.4141 162.053 83.4141 158.613C83.4141 155.189 84.7232 153.091 86.7372 153.091C88.5749 153.091 89.8337 154.803 90.0771 157.656H91.319V152.218H93.333ZM86.7372 155.105C85.8812 155.105 85.3777 156.28 85.3945 158.613C85.3777 160.962 85.8812 162.12 86.7372 162.104C87.6099 162.12 88.1302 160.962 88.1302 158.613C88.1302 156.28 87.6099 155.105 86.7372 155.105Z" fill="white"/>
<path d="M73.5011 165.897C70.9668 165.897 69.1207 164.403 69.0703 162.305H71.5207C71.571 163.262 72.4438 163.899 73.5011 163.899C74.7599 163.899 75.6494 163.01 75.6494 161.751C75.6494 160.459 74.7431 159.569 73.4676 159.553C72.5613 159.553 71.9235 159.888 71.5543 160.576H69.2717L69.9263 153.578H77.4116V155.642H72.0074L71.6717 158.713H71.7724C72.2256 158.109 73.1319 157.69 74.206 157.69C76.4382 157.69 78.0998 159.351 78.0998 161.684C78.0998 164.134 76.2368 165.897 73.5011 165.897Z" fill="white"/>
<path d="M58.5473 165.729L58.5305 163.899L62.8942 159.888C64.0355 158.797 64.6397 158.126 64.6397 157.169C64.6397 156.095 63.8173 155.424 62.7096 155.424C61.5683 155.424 60.8298 156.145 60.8298 157.303H58.4298C58.413 154.92 60.1753 153.41 62.7431 153.41C65.3446 153.41 67.0732 154.887 67.0732 157.001C67.0732 158.378 66.4019 159.519 63.9012 161.785L62.055 163.58V163.648H67.2411V165.729H58.5473Z" fill="white"/>
<path d="M51.9152 165.897C48.8774 165.897 47.0312 163.631 47.0312 159.653C47.0312 155.675 48.8774 153.41 51.9152 153.41C54.953 153.41 56.7992 155.692 56.7992 159.653C56.7992 163.648 54.953 165.897 51.9152 165.897ZM51.9152 163.815C53.325 163.815 54.2313 162.456 54.2145 159.653C54.2145 156.884 53.325 155.474 51.9152 155.474C50.5054 155.474 49.6159 156.884 49.6159 159.653C49.5991 162.456 50.5054 163.815 51.9152 163.815Z" fill="white"/>
<path d="M36.7192 165.729L36.7024 163.899L41.0661 159.888C42.2073 158.797 42.8115 158.126 42.8115 157.169C42.8115 156.095 41.9891 155.424 40.8814 155.424C39.7402 155.424 39.0017 156.145 39.0017 157.303H36.6017C36.5849 154.92 38.3472 153.41 40.915 153.41C43.5164 153.41 45.2451 154.887 45.2451 157.001C45.2451 158.378 44.5738 159.519 42.0731 161.785L40.2269 163.58V163.648H45.413V165.729H36.7192Z" fill="white"/>
<defs>
<filter id="filter0_d_725_1246" x="190.469" y="0" width="388.531" height="97" filterUnits="userSpaceOnUse" color-interpolation-filters="sRGB">
<feFlood flood-opacity="0" result="BackgroundImageFix"/>
<feColorMatrix in="SourceAlpha" type="matrix" values="0 0 0 0 0 0 0 0 0 0 0 0 0 0 0 0 0 0 127 0" result="hardAlpha"/>
<feOffset dx="4" dy="4"/>
<feGaussianBlur stdDeviation="5"/>
<feComposite in2="hardAlpha" operator="out"/>
<feColorMatrix type="matrix" values="0 0 0 0 0.197581 0 0 0 0 0.197581 0 0 0 0 0.878711 0 0 0 0.4 0"/>
<feBlend mode="normal" in2="BackgroundImageFix" result="effect1_dropShadow_725_1246"/>
<feBlend mode="normal" in="SourceGraphic" in2="effect1_dropShadow_725_1246" result="shape"/>
</filter>
<linearGradient id="paint0_linear_725_1246" x1="267.52" y1="36.7638" x2="633.279" y2="36.7637" gradientUnits="userSpaceOnUse">
<stop stop-color="#3182F6"/>
<stop offset="1" stop-color="#A009FF"/>
</linearGradient>
<linearGradient id="paint1_linear_725_1246" x1="232.773" y1="36.2787" x2="268.895" y2="36.2787" gradientUnits="userSpaceOnUse">
<stop stop-color="#3182F6"/>
<stop offset="1" stop-color="#A009FF"/>
</linearGradient>
<linearGradient id="paint2_linear_725_1246" x1="-0.510581" y1="180" x2="785.851" y2="180" gradientUnits="userSpaceOnUse">
<stop stop-color="#3182F6"/>
<stop offset="1" stop-color="#A009FF"/>
</linearGradient>
</defs>
</svg>
