<svg width="347" height="347" viewBox="0 0 347 347" fill="none" xmlns="http://www.w3.org/2000/svg">
<rect x="0.5" y="0.5" width="346" height="346" rx="20.5" fill="white" stroke="url(#paint0_linear_469_1567)"/>
<path d="M28.1445 77V51.5469H38.1289C43.9297 51.5469 47.2344 55.0977 47.2344 60.125C47.2344 65.2227 43.8594 68.7031 37.9883 68.7031H33.418V77H28.1445ZM33.418 64.4492H37.1445C40.2734 64.4492 41.7852 62.6914 41.7852 60.125C41.7852 57.5938 40.2734 55.8711 37.1445 55.8711H33.418V64.4492ZM51.875 77H46.1797L55.0039 51.5469H61.7891L70.5781 77H64.918L63.0195 71.1289H53.8086L51.875 77ZM55.1445 67.0156H61.6836L58.4844 57.2773H58.3086L55.1445 67.0156ZM89.2812 60.4062C88.8594 57.5938 86.6797 55.8711 83.7266 55.8711C79.7539 55.8711 77.1523 58.9297 77.1523 64.2734C77.1523 69.7578 79.7891 72.6758 83.6914 72.6758C86.6094 72.6758 88.7539 71.0586 89.2812 68.3164L94.625 68.3516C94.0273 73.0625 90.0898 77.3516 83.6211 77.3516C76.8008 77.3516 71.7734 72.5703 71.7734 64.2734C71.7734 55.9766 76.9062 51.1953 83.6211 51.1953C89.4922 51.1953 93.9219 54.5703 94.625 60.4062H89.2812ZM98.3164 77V51.5469H115.402V55.9062H103.59V62.0938H114.523V66.4531H103.59V72.6406H115.438V77H98.3164ZM127.812 51.5469H134.352L141.418 68.8086H141.699L148.766 51.5469H155.305V77H150.172V60.3359H149.961L143.316 76.8945H139.801L133.156 60.2656H132.945V77H127.812V51.5469ZM182.902 64.2734C182.902 72.5703 177.734 77.3516 171.02 77.3516C164.234 77.3516 159.102 72.5352 159.102 64.2734C159.102 55.9766 164.234 51.1953 171.02 51.1953C177.734 51.1953 182.902 55.9766 182.902 64.2734ZM177.523 64.2734C177.523 58.8242 174.957 55.8711 171.02 55.8711C167.082 55.8711 164.48 58.8242 164.48 64.2734C164.48 69.7227 167.082 72.6758 171.02 72.6758C174.957 72.6758 177.523 69.7227 177.523 64.2734ZM195.664 77H186.699V51.5469H195.77C203.434 51.5469 208.109 56.3281 208.109 64.2383C208.109 72.2188 203.434 77 195.664 77ZM191.973 72.4648H195.453C200.305 72.4648 202.836 69.9336 202.836 64.2383C202.836 58.5781 200.305 56.082 195.488 56.082H191.973V72.4648ZM227.691 51.5469H233V68.0703C233 73.6602 228.781 77.3516 222.453 77.3516C216.125 77.3516 211.941 73.6602 211.941 68.0703V51.5469H217.215V67.6484C217.215 70.5664 219.289 72.7109 222.453 72.7109C225.652 72.7109 227.691 70.5664 227.691 67.6484V51.5469ZM237.289 77V51.5469H242.562V72.6406H253.531V77H237.289ZM256.941 77V51.5469H274.027V55.9062H262.215V62.0938H273.148V66.4531H262.215V72.6406H274.062V77H256.941Z" fill="black"/>
<path d="M25.0454 124.168L324.045 124.168" stroke="url(#paint1_linear_469_1567)"/>
<path d="M33.9126 232.162C33.7954 231.049 32.897 230.385 31.4712 230.385C29.9868 230.385 29.1665 231.068 29.147 232.006C29.1274 233.021 30.2017 233.49 31.4126 233.764L32.6821 234.076C35.104 234.623 36.9204 235.854 36.9204 238.217C36.9204 240.814 34.8892 242.455 31.4517 242.455C28.0337 242.455 25.8462 240.873 25.7681 237.846H28.6196C28.7173 239.271 29.8501 239.994 31.4126 239.994C32.9556 239.994 33.9517 239.271 33.9517 238.217C33.9517 237.26 33.0728 236.811 31.5298 236.42L29.9868 236.049C27.604 235.463 26.1392 234.271 26.1392 232.201C26.1392 229.623 28.4048 227.924 31.4907 227.924C34.6157 227.924 36.686 229.662 36.7251 232.162H33.9126ZM43.5415 242.475C40.2993 242.475 38.3462 240.229 38.3462 236.986C38.3462 233.744 40.3188 231.518 43.5415 231.518C46.2759 231.518 48.1313 233.119 48.2485 235.541H45.5337C45.3579 234.486 44.6743 233.764 43.5806 233.764C42.1938 233.764 41.2759 234.936 41.2759 236.947C41.2759 238.998 42.1743 240.17 43.5806 240.17C44.5962 240.17 45.3579 239.545 45.5337 238.412H48.2485C48.1118 240.814 46.354 242.475 43.5415 242.475ZM54.811 242.475C51.6079 242.475 49.6157 240.268 49.6157 236.986C49.6157 233.705 51.6079 231.518 54.811 231.518C58.0142 231.518 60.0259 233.705 60.0259 236.986C60.0259 240.268 58.0142 242.475 54.811 242.475ZM54.8306 240.229C56.3149 240.229 57.0767 238.842 57.0767 236.986C57.0767 235.111 56.3149 233.725 54.8306 233.725C53.3267 233.725 52.5454 235.111 52.5454 236.986C52.5454 238.842 53.3267 240.229 54.8306 240.229ZM61.8423 246.244V231.654H64.6938V233.432H64.811C65.2017 232.572 66.061 231.518 67.8384 231.518C70.1821 231.518 72.1353 233.334 72.1353 236.967C72.1353 240.502 70.2603 242.436 67.8384 242.436C66.1001 242.436 65.2212 241.439 64.811 240.561H64.7329V246.244H61.8423ZM64.6743 236.947C64.6743 238.861 65.4946 240.131 66.9204 240.131C68.4048 240.131 69.186 238.822 69.186 236.947C69.186 235.092 68.4048 233.822 66.9204 233.822C65.4751 233.822 64.6743 235.033 64.6743 236.947ZM78.8149 242.475C75.5728 242.475 73.5806 240.365 73.5806 237.006C73.5806 233.725 75.5923 231.518 78.6978 231.518C81.4907 231.518 83.6782 233.275 83.6782 236.889V237.709H76.4321C76.4321 239.311 77.3892 240.307 78.8735 240.307C79.8501 240.307 80.5532 239.877 80.8462 239.232H83.6001C83.1899 241.186 81.4321 242.475 78.8149 242.475ZM76.4321 235.893H80.9438C80.9438 234.604 80.0454 233.686 78.7563 233.686C77.4282 233.686 76.481 234.672 76.4321 235.893Z" fill="url(#paint2_linear_469_1567)"/>
<path d="M36.9829 264.671C36.1079 264.671 35.3892 263.953 35.3892 263.062C35.3892 262.187 36.1079 261.468 36.9829 261.468C37.8735 261.468 38.5923 262.187 38.5923 263.062C38.5923 263.953 37.8735 264.671 36.9829 264.671ZM56.6235 256.921C56.6079 258.781 59.0923 260.359 61.5142 260.718L61.061 261.687C58.8892 261.32 56.7798 260.164 55.936 258.484C55.0923 260.164 52.9751 261.32 50.8423 261.687L50.3579 260.718C52.7642 260.359 55.2485 258.781 55.2485 256.921V256.828H50.7954V255.828H61.061V256.828H56.6235V256.921ZM62.2642 262.875V263.89H56.5142V268.843H55.311V263.89H49.6079V262.875H62.2642ZM76.1548 266.031V267.062H63.436V266.031H66.5923V262.281C65.4048 261.664 64.686 260.664 64.686 259.406C64.686 257.25 66.7954 255.843 69.7642 255.828C72.7329 255.843 74.8423 257.25 74.8423 259.406C74.8423 260.64 74.147 261.632 72.9985 262.25V266.031H76.1548ZM69.7642 256.843C67.4829 256.828 65.8735 257.859 65.8735 259.406C65.8735 260.953 67.4829 262 69.7642 262C72.0298 262 73.6548 260.953 73.6548 259.406C73.6548 257.859 72.0298 256.828 69.7642 256.843ZM67.7954 266.031H71.7642V262.718C71.1626 262.882 70.4907 262.968 69.7642 262.968C69.0532 262.968 68.3892 262.89 67.7954 262.734V266.031ZM93.1392 254.953V268.843H91.936V261.578H90.0142V268.156H88.8423V255.328H90.0142V260.562H91.936V254.953H93.1392ZM87.2642 256.765C87.2485 260.296 86.0142 263.64 82.0142 265.859L81.2954 265C84.522 263.203 85.8579 260.656 86.061 257.781H81.8267V256.765H87.2642ZM97.186 255.656V261.468C99.3501 261.46 101.045 261.367 102.936 261L103.092 262.015C101.061 262.39 99.3267 262.5 96.9829 262.5H95.936V255.656H97.186ZM106.624 254.953V263.14H105.389V259.953H101.405V259H105.389V257.5H101.405V256.546H105.389V254.953H106.624ZM106.624 263.75V268.656H97.6392V263.75H106.624ZM98.8423 264.734V267.656H105.405V264.734H98.8423ZM125.608 262.14V263.156H112.952V262.14H118.67V260.468H114.639V255.281H115.858V256.89H122.733V255.281H123.952V260.468H119.889V262.14H125.608ZM124.045 264.531V268.843H122.811V265.515H114.358V264.531H124.045ZM115.858 259.484H122.733V257.828H115.858V259.484ZM129.608 263.296V264.921H136.545V263.296H137.78V268.656H128.389V263.296H129.608ZM129.608 267.671H136.545V265.89H129.608V267.671ZM139.436 261.296V262.312H126.78V261.296H139.436ZM133.749 255.765C133.749 257.484 136.28 259.015 138.717 259.328L138.264 260.312C136.108 259.992 133.999 258.89 133.124 257.328C132.233 258.898 130.108 259.992 127.967 260.312L127.499 259.328C129.967 259 132.483 257.531 132.483 255.765V255.109H133.749V255.765ZM148.608 267.75C146.295 267.75 144.733 266.015 144.733 263.375C144.733 260.734 146.295 258.984 148.608 258.984C150.905 258.984 152.452 260.734 152.452 263.375C152.452 266.015 150.905 267.75 148.608 267.75ZM148.608 266.562C150.311 266.562 151.108 265.062 151.108 263.375C151.108 261.687 150.311 260.171 148.608 260.171C146.874 260.171 146.077 261.687 146.077 263.375C146.077 265.062 146.874 266.562 148.608 266.562ZM154.217 267.578V259.093H155.514V260.39H155.608C155.92 259.531 156.795 258.953 157.795 258.953C157.999 258.953 158.342 258.968 158.499 258.984V260.343C158.405 260.312 158.03 260.25 157.686 260.25C156.467 260.25 155.561 261.093 155.561 262.234V267.578H154.217ZM168.061 257.578C168.061 259.515 169.467 261.343 171.499 262.078L170.811 263.031C169.288 262.421 168.077 261.21 167.483 259.703C166.889 261.382 165.624 262.718 163.983 263.375L163.327 262.375C165.405 261.609 166.842 259.671 166.858 257.531V255.812H168.061V257.578ZM174.827 254.968V265.375H173.592V259.265H170.499V258.234H173.592V254.968H174.827ZM175.139 267.515V268.546H165.842V264.187H167.077V267.515H175.139ZM188.936 254.953V263.75H187.764V259.765H185.905V263.25H184.749V255.234H185.905V258.75H187.764V254.953H188.936ZM184.186 256.625V257.609H177.061V256.625H180.03V255.062H181.249V256.625H184.186ZM180.639 258.359C182.405 258.359 183.608 259.281 183.624 260.734C183.608 262.156 182.405 263.093 180.639 263.093C178.889 263.093 177.655 262.156 177.67 260.734C177.655 259.281 178.889 258.359 180.639 258.359ZM180.639 259.265C179.53 259.265 178.764 259.859 178.764 260.734C178.764 261.593 179.53 262.171 180.639 262.171C181.749 262.171 182.514 261.593 182.514 260.734C182.514 259.859 181.749 259.265 180.639 259.265ZM184.342 263.984C187.264 263.984 189.014 264.859 189.014 266.421C189.014 267.937 187.264 268.812 184.342 268.812C181.42 268.812 179.67 267.937 179.686 266.421C179.67 264.859 181.42 263.984 184.342 263.984ZM184.342 264.953C182.186 264.937 180.889 265.468 180.905 266.421C180.889 267.328 182.186 267.859 184.342 267.859C186.499 267.859 187.78 267.328 187.795 266.421C187.78 265.468 186.499 264.937 184.342 264.953ZM203.295 256.453V257.453H195.014V256.453H198.545V254.89H199.764V256.453H203.295ZM199.155 258.171C201.155 258.187 202.483 259.156 202.499 260.687C202.483 262.203 201.155 263.187 199.155 263.187C197.155 263.187 195.795 262.203 195.811 260.687C195.795 259.156 197.155 258.187 199.155 258.171ZM199.155 259.125C197.842 259.14 196.967 259.75 196.983 260.687C196.967 261.609 197.842 262.203 199.155 262.203C200.452 262.203 201.327 261.609 201.342 260.687C201.327 259.75 200.452 259.14 199.155 259.125ZM205.842 254.953V258.812H207.936V259.843H205.842V263.64H204.624V254.953H205.842ZM205.842 264.406V268.843H204.624V265.406H196.749V264.406H205.842ZM211.639 263.296V264.921H218.577V263.296H219.811V268.656H210.42V263.296H211.639ZM211.639 267.671H218.577V265.89H211.639V267.671ZM221.467 261.296V262.312H208.811V261.296H221.467ZM215.78 255.765C215.78 257.484 218.311 259.015 220.749 259.328L220.295 260.312C218.139 259.992 216.03 258.89 215.155 257.328C214.264 258.898 212.139 259.992 209.999 260.312L209.53 259.328C211.999 259 214.514 257.531 214.514 255.765V255.109H215.78V255.765ZM227.186 255.968C229.374 255.968 230.92 257.296 230.92 259.234C230.92 261.171 229.374 262.5 227.186 262.5C224.999 262.5 223.42 261.171 223.436 259.234C223.42 257.296 224.999 255.968 227.186 255.968ZM227.186 257.046C225.702 257.046 224.624 257.937 224.639 259.234C224.624 260.531 225.702 261.421 227.186 261.421C228.655 261.421 229.717 260.531 229.717 259.234C229.717 257.937 228.655 257.046 227.186 257.046ZM234.03 254.953V268.875H232.811V254.953H234.03ZM222.717 264.765C225.28 264.765 228.811 264.75 231.889 264.296L231.983 265.203C228.811 265.796 225.389 265.812 222.889 265.812L222.717 264.765ZM251.608 254.953V260.39H253.499V261.437H251.608V268.843H250.389V254.953H251.608ZM241.827 256.25V259.843H243.577V256.25H244.624V265.484H240.764V256.25H241.827ZM241.827 264.453H243.577V260.828H241.827V264.453ZM246.42 256.25V259.843H248.124V256.25H249.17V265.484H245.374V256.25H246.42ZM246.42 264.453H248.124V260.828H246.42V264.453ZM267.014 262.656V263.671H254.295V262.656H267.014ZM265.67 267.515V268.546H255.983V264.765H257.217V267.515H265.67ZM265.374 255.437V258.859H257.17V260.406H265.67V261.375H255.952V257.937H264.139V256.421H255.905V255.437H265.374ZM277.155 257.937C277.155 259.812 278.639 261.5 280.717 262.156L280.092 263.14C278.475 262.593 277.186 261.453 276.561 259.984C275.952 261.57 274.647 262.82 272.999 263.421L272.358 262.437C274.436 261.703 275.92 259.906 275.92 257.937V257.125H272.67V256.125H280.358V257.125H277.155V257.937ZM283.624 254.968V265.156H282.405V254.968H283.624ZM284.061 267.515V268.546H274.655V264.187H275.874V267.515H284.061ZM297.78 254.953V263.75H296.608V259.765H294.749V263.25H293.592V255.234H294.749V258.75H296.608V254.953H297.78ZM293.03 256.625V257.609H285.905V256.625H288.874V255.062H290.092V256.625H293.03ZM289.483 258.359C291.249 258.359 292.452 259.281 292.467 260.734C292.452 262.156 291.249 263.093 289.483 263.093C287.733 263.093 286.499 262.156 286.514 260.734C286.499 259.281 287.733 258.359 289.483 258.359ZM289.483 259.265C288.374 259.265 287.608 259.859 287.608 260.734C287.608 261.593 288.374 262.171 289.483 262.171C290.592 262.171 291.358 261.593 291.358 260.734C291.358 259.859 290.592 259.265 289.483 259.265ZM293.186 263.984C296.108 263.984 297.858 264.859 297.858 266.421C297.858 267.937 296.108 268.812 293.186 268.812C290.264 268.812 288.514 267.937 288.53 266.421C288.514 264.859 290.264 263.984 293.186 263.984ZM293.186 264.953C291.03 264.937 289.733 265.468 289.749 266.421C289.733 267.328 291.03 267.859 293.186 267.859C295.342 267.859 296.624 267.328 296.639 266.421C296.624 265.468 295.342 264.937 293.186 264.953ZM36.9829 290.671C36.1079 290.671 35.3892 289.953 35.3892 289.062C35.3892 288.187 36.1079 287.468 36.9829 287.468C37.8735 287.468 38.5923 288.187 38.5923 289.062C38.5923 289.953 37.8735 290.671 36.9829 290.671ZM60.4673 280.953V285.093H62.5767V286.125H60.4673V291.015H59.2485V280.953H60.4673ZM56.4517 282.156V283.187H51.4829V287.515C54.272 287.515 55.8579 287.445 57.7173 287.062L57.8735 288.078C55.9204 288.453 54.2642 288.546 51.3423 288.546H50.2642V282.156H56.4517ZM61.1079 293.515V294.546H51.7798V290H52.9829V293.515H61.1079ZM75.3267 280.953V294.843H74.1548V280.953H75.3267ZM72.5142 281.328V294.14H71.3423V289.328H68.7642V288.312H71.3423V285.843H68.9985C68.3188 288.195 66.7954 290.273 64.1704 291.843L63.4204 290.953C66.4438 289.164 67.9595 286.656 68.2017 283.75H64.0454V282.734H69.4204C69.4204 283.445 69.3579 284.148 69.2329 284.828H71.3423V281.328H72.5142ZM92.7329 280.953V294.875H91.4985V280.953H92.7329ZM85.3423 282.031C87.4048 282.046 88.8892 283.921 88.8892 286.875C88.8892 289.828 87.4048 291.703 85.3423 291.703C83.2642 291.703 81.7954 289.828 81.7954 286.875C81.7954 283.921 83.2642 282.046 85.3423 282.031ZM85.3423 283.125C83.9517 283.14 82.9829 284.609 82.9829 286.875C82.9829 289.14 83.9517 290.609 85.3423 290.609C86.7329 290.609 87.7017 289.14 87.7017 286.875C87.7017 284.609 86.7329 283.14 85.3423 283.125ZM107.78 287.828V288.812H95.1079V287.828H100.842V286.203H96.7173V281.609H106.202V282.593H97.9204V285.203H106.295V286.203H102.03V287.828H107.78ZM101.436 289.828C104.42 289.828 106.202 290.734 106.217 292.328C106.202 293.937 104.42 294.828 101.436 294.843C98.436 294.828 96.6392 293.937 96.6392 292.328C96.6392 290.734 98.436 289.828 101.436 289.828ZM101.436 290.796C99.2017 290.796 97.8735 291.375 97.8892 292.328C97.8735 293.296 99.2017 293.859 101.436 293.859C103.639 293.859 104.983 293.296 104.983 292.328C104.983 291.375 103.639 290.796 101.436 290.796ZM115.264 281.203C118.358 281.203 120.17 282.046 120.17 283.593C120.17 285.171 118.358 286.015 115.264 286.031C112.17 286.015 110.342 285.171 110.342 283.593C110.342 282.046 112.17 281.203 115.264 281.203ZM115.264 282.125C112.952 282.125 111.608 282.687 111.624 283.593C111.608 284.562 112.952 285.093 115.264 285.093C117.561 285.093 118.92 284.562 118.92 283.593C118.92 282.687 117.561 282.125 115.264 282.125ZM121.592 286.968V287.968H108.936V286.968H121.592ZM119.967 289.171V292.281H111.717V293.718H120.389V294.687H110.499V291.375H118.764V290.109H110.467V289.171H119.967ZM137.827 281.546V286.234H133.717V288.015H139.436V289.015H126.78V288.015H132.499V286.234H128.42V281.546H137.827ZM129.624 282.531V285.25H136.608V282.531H129.624ZM137.874 290.468V294.843H136.639V291.453H128.186V290.468H137.874ZM153.327 292.125V293.14H140.608V292.125H144.155V288.812H141.764V287.796H143.936V283.265H141.733V282.25H152.108V283.265H149.905V287.796H152.077V288.812H149.686V292.125H153.327ZM145.155 287.796H148.702V283.265H145.155V287.796ZM145.389 292.125H148.467V288.812H145.389V292.125ZM167.155 292.093V293.125H154.436V292.093H160.155V289.468H156.03V285.187H164.342V283H155.999V281.984H165.545V286.187H157.249V288.453H165.874V289.468H161.358V292.093H167.155ZM183.139 280.968V285.546H185.233V286.578H183.139V291.375H181.92V280.968H183.139ZM180.592 282.671V283.671H172.311V282.671H175.842V280.968H177.061V282.671H180.592ZM176.452 284.437C178.436 284.437 179.78 285.453 179.795 287.031C179.78 288.593 178.436 289.593 176.452 289.593C174.452 289.593 173.092 288.593 173.108 287.031C173.092 285.453 174.452 284.437 176.452 284.437ZM176.452 285.406C175.139 285.406 174.264 286.046 174.28 287.031C174.264 288.015 175.139 288.64 176.452 288.625C177.749 288.64 178.624 288.015 178.639 287.031C178.624 286.046 177.749 285.406 176.452 285.406ZM183.78 293.515V294.546H174.452V290.546H175.655V293.515H183.78ZM197.139 281.906V287.843H190.717V281.906H197.139ZM191.92 282.906V286.843H195.952V282.906H191.92ZM200.983 280.953V284.296H203.077V285.328H200.983V288.89H199.764V280.953H200.983ZM201.233 289.703V290.703H197.295C197.428 292.187 199.499 293.484 201.764 293.843L201.311 294.796C199.28 294.46 197.436 293.453 196.639 292.062C195.85 293.46 194.022 294.453 191.999 294.781L191.53 293.843C193.827 293.484 195.858 292.21 196.014 290.703H192.077V289.703H201.233ZM216.608 287.828V288.828H210.874V290.359H215.061V294.656H205.499V290.359H209.67V288.828H203.952V287.828H216.608ZM210.874 280.875V282.265H215.327V283.25H210.952C211.038 284.796 213.249 285.835 215.858 286.078L215.499 287C213.186 286.757 211.124 285.96 210.28 284.578C209.428 285.96 207.366 286.757 205.061 287L204.686 286.078C207.311 285.835 209.506 284.796 209.608 283.25H205.264V282.265H209.67V280.875H210.874ZM206.717 291.343V293.656H213.858V291.343H206.717ZM225.655 282.515V283.515H217.795V282.515H221.17V280.843H222.389V282.515H225.655ZM221.764 284.234C223.624 284.234 224.936 285.25 224.936 286.796C224.936 288.359 223.624 289.375 221.764 289.375C219.889 289.375 218.608 288.359 218.624 286.796C218.608 285.25 219.889 284.234 221.764 284.234ZM221.764 285.156C220.561 285.171 219.764 285.828 219.764 286.796C219.764 287.781 220.561 288.421 221.764 288.421C222.967 288.421 223.78 287.781 223.795 286.796C223.78 285.828 222.967 285.171 221.764 285.156ZM229.295 280.953V289.937H228.061V288.015H225.639V287H228.061V285.312H225.655V284.296H228.061V280.953H229.295ZM224.717 290.078C227.608 290.078 229.374 290.937 229.374 292.453C229.374 293.937 227.608 294.812 224.717 294.812C221.795 294.812 220.045 293.937 220.045 292.453C220.045 290.937 221.795 290.078 224.717 290.078ZM224.717 291.031C222.608 291.031 221.311 291.546 221.311 292.453C221.311 293.328 222.608 293.859 224.717 293.859C226.795 293.859 228.077 293.328 228.077 292.453C228.077 291.546 226.795 291.031 224.717 291.031ZM247.092 280.953V294.875H245.874V280.953H247.092ZM242.874 282.25V287.187H237.686V290.468C239.991 290.468 242.045 290.367 244.53 289.968L244.655 291C242.092 291.406 239.983 291.5 237.592 291.5H236.436V286.187H241.639V283.265H236.405V282.25H242.874ZM256.436 282.359V291.312H250.03V282.359H256.436ZM251.217 283.343V290.312H255.217V283.343H251.217ZM260.202 280.953V286.5H262.53V287.562H260.202V294.843H258.983V280.953H260.202ZM270.202 283C270.202 285.375 272.92 287.5 275.342 287.953L274.78 288.984C272.686 288.5 270.475 287.007 269.577 284.953C268.678 287 266.475 288.492 264.374 288.984L263.811 287.953C266.217 287.484 268.92 285.39 268.92 283V281.937H270.202V283ZM275.999 291.937V292.953H263.28V291.937H275.999ZM288.624 280.953V294.875H287.405V287.218H284.467V286.203H287.405V280.953H288.624ZM284.233 282.234V283.25H278.983V286.14H283.624V287.14H278.983V290.5C281.538 290.5 283.163 290.414 285.077 290.078L285.217 291.093C283.202 291.421 281.499 291.515 278.811 291.515H277.749V282.234H284.233ZM302.405 280.968V289.515H301.186V280.968H302.405ZM297.983 281.843V285.656H292.858V287.625C295.342 287.625 297.202 287.562 299.452 287.187L299.592 288.203C297.264 288.578 295.358 288.656 292.795 288.656H291.67V284.687H296.764V282.875H291.639V281.843H297.983ZM297.795 289.796C300.717 289.796 302.499 290.718 302.499 292.312C302.499 293.906 300.717 294.812 297.795 294.812C294.874 294.812 293.108 293.906 293.108 292.312C293.108 290.718 294.874 289.796 297.795 289.796ZM297.795 290.781C295.639 290.781 294.311 291.359 294.311 292.312C294.311 293.265 295.639 293.828 297.795 293.828C299.952 293.828 301.264 293.265 301.264 292.312C301.264 291.359 299.952 290.781 297.795 290.781Z" fill="black"/>
<path d="M31.6533 95.8916C31.6533 97.7666 33.1377 99.4541 35.2158 100.11L34.5908 101.095C32.9736 100.548 31.6846 99.4072 31.0596 97.9385C30.4502 99.5244 29.1455 100.774 27.4971 101.376L26.8564 100.392C28.9346 99.6572 30.4189 97.8604 30.4189 95.8916V95.0791H27.1689V94.0791H34.8564V95.0791H31.6533V95.8916ZM38.1221 92.9229V103.11H36.9033V92.9229H38.1221ZM38.5596 105.47V106.501H29.1533V102.142H30.3721V105.47H38.5596ZM51.7002 99.4229V100.423H47.4033V104.017H53.2002V105.048H40.4814V104.017H46.2002V100.423H42.1064V94.0479H51.5596V95.0479H43.3408V99.4229H51.7002ZM71.0439 104.001V105.017H58.3252V104.001H64.0439V101.001H59.8252V93.8916H61.0596V96.4072H68.2783V93.8916H69.4814V101.001H65.2471V104.001H71.0439ZM61.0596 100.001H68.2783V97.4072H61.0596V100.001ZM76.3877 93.5635C78.4189 93.5635 79.8408 94.6572 79.8408 96.3135C79.8408 97.7432 78.7158 98.7822 77.0439 98.9854V100.345C78.3408 100.29 79.6611 100.173 80.8721 99.9854L80.9658 100.907C78.0283 101.438 74.7002 101.47 72.2939 101.47L72.1377 100.454C73.2158 100.462 74.4814 100.454 75.8096 100.407V99.001C74.0908 98.8135 72.9346 97.7666 72.9502 96.3135C72.9346 94.6572 74.3564 93.5635 76.3877 93.5635ZM76.3877 94.5166C75.0439 94.5166 74.0908 95.2354 74.1064 96.3135C74.0908 97.3604 75.0439 98.0791 76.3877 98.0947C77.7471 98.0791 78.6689 97.3604 78.6846 96.3135C78.6689 95.2354 77.7471 94.5166 76.3877 94.5166ZM82.9971 92.9229V97.626H85.0752V98.6729H82.9971V103.548H81.7627V92.9229H82.9971ZM83.4971 105.454V106.485H74.1689V102.626H75.4033V105.454H83.4971ZM97.2471 93.8135V99.4697H90.7314V93.8135H97.2471ZM91.9346 94.8135V98.501H96.0439V94.8135H91.9346ZM101.45 92.9072V100.892H100.247V92.9072H101.45ZM97.6846 102.798C97.6846 104.157 99.9033 105.501 102.294 105.798L101.872 106.751C99.7783 106.47 97.8721 105.485 97.0596 104.188C96.2158 105.509 94.2627 106.47 92.1689 106.751L91.7314 105.798C94.1221 105.532 96.4189 104.188 96.4189 102.798H92.3096V101.845H96.4346V100.485H97.6533V101.845H101.81V102.798H97.6846ZM119.294 92.9229V101.11H118.06V100.345H115.247V99.5322H118.06V92.9229H119.294ZM107.794 98.1572C110.481 98.1729 113.919 98.1416 116.919 97.8135L116.997 98.6104C115.638 98.8057 114.224 98.9229 112.841 98.9854V101.157H111.638V99.0322C110.325 99.0791 109.067 99.0869 107.935 99.0791L107.794 98.1572ZM119.294 101.61V104.485H111.185V105.735H119.747V106.642H109.981V103.626H118.075V102.501H109.919V101.61H119.294ZM112.325 93.1885C114.388 93.1885 115.763 94.001 115.778 95.2822C115.763 96.5791 114.388 97.3604 112.325 97.3604C110.231 97.3604 108.872 96.5791 108.872 95.2822C108.872 94.001 110.231 93.1885 112.325 93.1885ZM112.325 94.0479C110.919 94.0479 110.013 94.5322 110.028 95.2822C110.013 96.0166 110.919 96.5166 112.325 96.5166C113.716 96.5166 114.622 96.0166 114.622 95.2822C114.622 94.5322 113.716 94.0479 112.325 94.0479ZM132.528 92.9229V97.126H134.622V98.1572H132.528V103.126H131.31V92.9229H132.528ZM133.169 105.47V106.501H123.841V102.126H125.044V105.47H133.169ZM123.466 93.9229V96.2666H127.513V93.9229H128.731V100.782H122.263V93.9229H123.466ZM123.466 99.7822H127.513V97.2354H123.466V99.7822ZM146.638 94.6416C146.622 96.3447 148.966 97.7354 151.419 98.0791L150.935 99.0479C148.692 98.7275 146.599 97.6025 145.841 95.9697C145.091 97.6025 143.005 98.7275 140.747 99.0479L140.294 98.0791C142.747 97.7354 145.044 96.3447 145.044 94.6416V94.6104H140.669V93.6104H151.044V94.6104H146.638V94.6416ZM152.216 100.063V101.079H146.56V103.923H145.341V101.079H139.497V100.063H152.216ZM150.794 105.47V106.501H141.122V102.532H142.356V105.47H150.794ZM164.794 92.9072V106.829H163.56V92.9072H164.794ZM155.372 94.0947V97.7666H159.513V94.0947H160.716V103.47H154.153V94.0947H155.372ZM155.372 102.438H159.513V98.751H155.372V102.438ZM179.872 99.3604V100.329H167.153V99.3604H179.872ZM178.278 101.438V104.392H169.935V105.72H178.731V106.61H168.7V103.548H177.06V102.36H168.685V101.438H178.278ZM178.231 93.3291V96.2041H170.028V97.4229H178.481V98.3135H168.81V95.3604H176.997V94.2197H168.763V93.3291H178.231ZM189.591 93.5947C191.669 93.5791 193.153 94.7197 193.153 96.4229C193.153 98.1104 191.669 99.2822 189.591 99.2666C187.513 99.2822 186.028 98.1104 186.028 96.4229C186.028 94.7197 187.513 93.5791 189.591 93.5947ZM189.591 94.5947C188.2 94.5791 187.216 95.3447 187.231 96.4229C187.216 97.5166 188.2 98.2666 189.591 98.251C190.997 98.2666 191.981 97.5166 191.981 96.4229C191.981 95.3447 190.997 94.5791 189.591 94.5947ZM196.466 92.9229V106.813H195.263V92.9229H196.466ZM184.981 100.454C187.591 100.454 191.153 100.407 194.247 99.9541L194.325 100.876C192.997 101.118 191.614 101.267 190.278 101.345V106.376H189.06V101.423C187.646 101.485 186.31 101.493 185.153 101.501L184.981 100.454ZM209.7 92.9229V97.501H211.794V98.5322H209.7V103.329H208.481V92.9229H209.7ZM207.153 94.626V95.626H198.872V94.626H202.403V92.9229H203.622V94.626H207.153ZM203.013 96.3916C204.997 96.3916 206.341 97.4072 206.356 98.9854C206.341 100.548 204.997 101.548 203.013 101.548C201.013 101.548 199.653 100.548 199.669 98.9854C199.653 97.4072 201.013 96.3916 203.013 96.3916ZM203.013 97.3604C201.7 97.3604 200.825 98.001 200.841 98.9854C200.825 99.9697 201.7 100.595 203.013 100.579C204.31 100.595 205.185 99.9697 205.2 98.9854C205.185 98.001 204.31 97.3604 203.013 97.3604ZM210.341 105.47V106.501H201.013V102.501H202.216V105.47H210.341ZM221.685 95.2041C221.685 97.0166 223.2 98.626 225.263 99.251L224.638 100.22C223.013 99.7041 221.708 98.5869 221.075 97.1572C220.466 98.6885 219.153 99.8838 217.497 100.454L216.856 99.4854C218.95 98.8291 220.45 97.1104 220.45 95.2041V94.8447H217.2V93.8447H224.888V94.8447H221.685V95.2041ZM228.153 92.9072V100.423H226.935V92.9072H228.153ZM220.372 101.11V102.798H226.935V101.11H228.153V106.61H219.153V101.11H220.372ZM220.372 105.61H226.935V103.782H220.372V105.61ZM243.169 99.4072V100.423H237.435V101.907C240.06 102.017 241.606 102.876 241.622 104.345C241.606 105.892 239.825 106.767 236.841 106.767C233.825 106.767 232.044 105.892 232.044 104.345C232.044 102.876 233.583 102.017 236.231 101.907V100.423H230.513V99.4072H243.169ZM236.841 102.845C234.606 102.86 233.278 103.407 233.294 104.345C233.278 105.267 234.606 105.813 236.841 105.813C239.044 105.813 240.388 105.267 240.388 104.345C240.388 103.407 239.044 102.86 236.841 102.845ZM242.044 93.5635V94.5635H237.638C237.716 96.126 240.013 97.3369 242.466 97.5947L242.013 98.5635C239.739 98.29 237.606 97.2744 236.841 95.7197C236.083 97.2744 233.958 98.29 231.669 98.5635L231.231 97.5947C233.638 97.3369 235.95 96.126 236.044 94.5635H231.669V93.5635H242.044ZM261.06 99.8916V100.907H248.356V99.8916H254.075V97.751H255.278V99.8916H261.06ZM255.294 93.7822C255.294 95.626 257.794 97.1729 260.247 97.5166L259.747 98.501C257.638 98.1338 255.552 97.0166 254.685 95.4072C253.81 97.0244 251.716 98.1338 249.591 98.501L249.122 97.5166C251.575 97.1729 254.06 95.626 254.06 93.7822V93.126H255.294V93.7822ZM259.45 102.267V106.798H258.216V103.251H249.763V102.267H259.45ZM266.966 95.0947C266.95 97.0791 268.356 98.8291 270.403 99.5166L269.716 100.47C268.185 99.8916 266.981 98.7666 266.388 97.2979C265.786 98.9619 264.513 100.259 262.841 100.892L262.169 99.8916C264.31 99.1416 265.731 97.2979 265.747 95.1416V93.7041H266.966V95.0947ZM273.7 92.9072V101.142H272.466V96.9072H269.372V95.8916H272.466V92.9072H273.7ZM269.091 101.548C271.981 101.548 273.747 102.501 273.747 104.173C273.747 105.829 271.981 106.767 269.091 106.767C266.2 106.767 264.435 105.829 264.435 104.173C264.435 102.501 266.2 101.548 269.091 101.548ZM269.091 102.517C266.966 102.517 265.638 103.142 265.653 104.173C265.638 105.173 266.966 105.782 269.091 105.782C271.216 105.782 272.528 105.173 272.528 104.173C272.528 103.142 271.216 102.517 269.091 102.517ZM286.872 92.9229V97.126H288.966V98.1572H286.872V103.126H285.653V92.9229H286.872ZM287.513 105.47V106.501H278.185V102.126H279.388V105.47H287.513ZM277.81 93.9229V96.2666H281.856V93.9229H283.075V100.782H276.606V93.9229H277.81ZM277.81 99.7822H281.856V97.2354H277.81V99.7822Z" fill="black"/>
<path d="M37.1235 150.407V158.688H35.8892V155.048H33.0923V154.032H35.8892V150.407H37.1235ZM32.5142 159.126C35.4048 159.126 37.1704 160.063 37.1704 161.704C37.1704 163.345 35.4048 164.282 32.5142 164.298C29.6235 164.282 27.8579 163.345 27.8579 161.704C27.8579 160.063 29.6235 159.126 32.5142 159.126ZM32.5142 160.079C30.3892 160.079 29.061 160.688 29.0767 161.704C29.061 162.704 30.3892 163.313 32.5142 163.313C34.6392 163.313 35.9517 162.704 35.9517 161.704C35.9517 160.688 34.6392 160.079 32.5142 160.079ZM30.436 152.954C30.436 154.767 31.8267 156.485 33.8579 157.188L33.2173 158.173C31.6548 157.61 30.4438 156.446 29.8579 155.001C29.2485 156.634 27.9595 157.938 26.311 158.563L25.6704 157.579C27.7329 156.829 29.2017 154.954 29.2017 152.97V152.454H26.061V151.423H33.5454V152.454H30.436V152.954ZM50.3423 151.313V152.376C50.3423 153.626 50.3423 155.173 49.9517 157.376H52.0923V158.392H48.7485V164.298H47.5298V158.392H43.9673V164.298H42.7485V158.392H39.436V157.376H48.7017C49.1548 155.188 49.1548 153.618 49.1548 152.376V152.329H41.061V151.313H50.3423ZM64.9829 151.954V152.673C64.9673 153.767 64.9673 155.61 64.5767 158.188L63.3423 158.079C63.7173 155.751 63.7485 154.063 63.7485 152.954H57.9204V151.954H64.9829ZM61.3423 155.923V160.142C62.8813 160.087 64.4595 159.985 65.9048 159.813L65.9673 160.735C63.0454 161.188 59.7798 161.251 57.2954 161.235L57.1392 160.22C58.0532 160.212 59.0688 160.204 60.1392 160.173V155.923H61.3423ZM67.9985 150.407V156.22H70.2485V157.282H67.9985V164.298H66.7798V150.407H67.9985ZM82.6235 150.407V158.688H81.3892V155.048H78.5923V154.032H81.3892V150.407H82.6235ZM78.0142 159.126C80.9048 159.126 82.6704 160.063 82.6704 161.704C82.6704 163.345 80.9048 164.282 78.0142 164.298C75.1235 164.282 73.3579 163.345 73.3579 161.704C73.3579 160.063 75.1235 159.126 78.0142 159.126ZM78.0142 160.079C75.8892 160.079 74.561 160.688 74.5767 161.704C74.561 162.704 75.8892 163.313 78.0142 163.313C80.1392 163.313 81.4517 162.704 81.4517 161.704C81.4517 160.688 80.1392 160.079 78.0142 160.079ZM75.936 152.954C75.936 154.767 77.3267 156.485 79.3579 157.188L78.7173 158.173C77.1548 157.61 75.9438 156.446 75.3579 155.001C74.7485 156.634 73.4595 157.938 71.811 158.563L71.1704 157.579C73.2329 156.829 74.7017 154.954 74.7017 152.97V152.454H71.561V151.423H79.0454V152.454H75.936V152.954ZM93.9517 153.392C93.9517 155.267 95.436 156.954 97.5142 157.61L96.8892 158.595C95.272 158.048 93.9829 156.907 93.3579 155.438C92.7485 157.024 91.4438 158.274 89.7954 158.876L89.1548 157.892C91.2329 157.157 92.7173 155.36 92.7173 153.392V152.579H89.4673V151.579H97.1548V152.579H93.9517V153.392ZM100.42 150.423V160.61H99.2017V150.423H100.42ZM100.858 162.97V164.001H91.4517V159.642H92.6704V162.97H100.858ZM113.999 156.923V157.923H109.702V161.517H115.499V162.548H102.78V161.517H108.499V157.923H104.405V151.548H113.858V152.548H105.639V156.923H113.999ZM129.311 156.86V157.829H116.592V156.86H129.311ZM127.717 158.938V161.892H119.374V163.22H128.17V164.11H118.139V161.048H126.499V159.86H118.124V158.938H127.717ZM127.67 150.829V153.704H119.467V154.923H127.92V155.813H118.249V152.86H126.436V151.72H118.202V150.829H127.67ZM145.436 150.392V155.876H147.467V156.923H145.436V164.298H144.217V150.392H145.436ZM138.405 151.876V152.892H136.092V159.61C136.78 159.595 137.624 159.532 138.545 159.329L138.67 160.36C137.358 160.642 136.311 160.657 135.483 160.657H134.874V151.876H138.405ZM142.905 151.876V152.892H140.42V159.626C141.506 159.61 142.374 159.54 143.358 159.298L143.483 160.329C142.264 160.626 141.28 160.657 139.874 160.657H139.202V151.876H142.905ZM159.03 150.407V155.938H161.358V156.97H159.03V164.329H157.811V150.407H159.03ZM155.139 151.704V156.673H150.077V159.923C152.655 159.923 154.452 159.837 156.561 159.438L156.686 160.454C154.499 160.86 152.639 160.954 149.967 160.97H148.858V155.657H153.92V152.72H148.827V151.704H155.139ZM166.811 152.845C166.795 154.642 168.17 156.267 170.233 156.923L169.639 157.876C168.038 157.36 166.811 156.267 166.217 154.876C165.608 156.415 164.327 157.603 162.655 158.173L162.014 157.204C164.108 156.501 165.561 154.813 165.577 152.86V152.36H162.42V151.345H169.905V152.36H166.811V152.845ZM172.967 150.407V153.626H175.061V154.657H172.967V158.017H171.749V150.407H172.967ZM165.389 158.688V160.392H171.749V158.688H172.967V164.11H164.17V158.688H165.389ZM165.389 163.11H171.749V161.36H165.389V163.11ZM187.436 150.407V164.298H186.217V157.017H182.905V156.001H186.217V150.407H187.436ZM182.936 151.923C182.936 155.86 181.264 159.36 176.624 161.657L175.952 160.673C179.717 158.853 181.459 156.181 181.702 152.923H176.561V151.923H182.936ZM202.764 155.954V156.985H200.514V164.298H199.295V150.407H200.514V155.954H202.764ZM191.561 151.782V159.735C193.592 159.728 195.663 159.571 197.952 159.095L198.108 160.142C195.717 160.626 193.561 160.767 191.452 160.767H190.342V151.782H191.561ZM218.358 150.407V155.907H220.686V156.938H218.358V164.329H217.139V150.407H218.358ZM214.702 151.767V152.782H209.436V159.813C211.952 159.813 213.733 159.696 215.795 159.313L215.952 160.376C213.78 160.767 211.952 160.845 209.311 160.845H208.217V151.767H214.702ZM227.764 150.72C230.78 150.72 232.67 151.688 232.67 153.36C232.67 155.001 230.78 155.954 227.764 155.954C224.749 155.954 222.842 155.001 222.842 153.36C222.842 151.688 224.749 150.72 227.764 150.72ZM227.764 151.704C225.514 151.704 224.092 152.329 224.108 153.36C224.092 154.376 225.514 154.97 227.764 154.985C229.983 154.97 231.42 154.376 231.42 153.36C231.42 152.329 229.983 151.704 227.764 151.704ZM232.545 159.548V164.11H222.983V159.548H232.545ZM224.202 160.532V163.11H231.342V160.532H224.202ZM234.092 157.157V158.173H221.436V157.157H234.092ZM250.139 150.407V154.548H252.249V155.579H250.139V160.47H248.92V150.407H250.139ZM246.124 151.61V152.642H241.155V156.97C243.944 156.97 245.53 156.899 247.389 156.517L247.545 157.532C245.592 157.907 243.936 158.001 241.014 158.001H239.936V151.61H246.124ZM250.78 162.97V164.001H241.452V159.454H242.655V162.97H250.78ZM264.999 150.407V164.298H263.827V150.407H264.999ZM262.186 150.782V163.595H261.014V158.782H258.436V157.767H261.014V155.298H258.67C257.991 157.649 256.467 159.728 253.842 161.298L253.092 160.407C256.116 158.618 257.631 156.11 257.874 153.204H253.717V152.188H259.092C259.092 152.899 259.03 153.603 258.905 154.282H261.014V150.782H262.186ZM279.655 161.548V162.579H266.936V161.548H272.655V158.923H268.53V154.642H276.842V152.454H268.499V151.438H278.045V155.642H269.749V157.907H278.374V158.923H273.858V161.548H279.655ZM285.311 151.423C287.499 151.423 289.045 152.751 289.045 154.688C289.045 156.626 287.499 157.954 285.311 157.954C283.124 157.954 281.545 156.626 281.561 154.688C281.545 152.751 283.124 151.423 285.311 151.423ZM285.311 152.501C283.827 152.501 282.749 153.392 282.764 154.688C282.749 155.985 283.827 156.876 285.311 156.876C286.78 156.876 287.842 155.985 287.842 154.688C287.842 153.392 286.78 152.501 285.311 152.501ZM292.155 150.407V164.329H290.936V150.407H292.155ZM280.842 160.22C283.405 160.22 286.936 160.204 290.014 159.751L290.108 160.657C286.936 161.251 283.514 161.267 281.014 161.267L280.842 160.22ZM36.8267 182.923V183.923H32.5298V187.517H38.3267V188.548H25.6079V187.517H31.3267V183.923H27.2329V177.548H36.686V178.548H28.4673V182.923H36.8267ZM52.3579 178.563V179.563H50.2954V181.517H52.3579V182.563H50.2954V184.673H49.0767V176.407H50.2954V178.563H52.3579ZM50.2954 185.313V190.298H49.0767V186.329H41.2017V185.313H50.2954ZM43.3423 177.251C45.4517 177.235 46.9829 178.595 46.9985 180.517C46.9829 182.47 45.4517 183.813 43.3423 183.813C41.2329 183.813 39.686 182.47 39.7017 180.517C39.686 178.595 41.2329 177.235 43.3423 177.251ZM43.3423 178.298C41.936 178.298 40.8892 179.204 40.9048 180.517C40.8892 181.845 41.936 182.767 43.3423 182.751C44.7642 182.767 45.7954 181.845 45.7954 180.517C45.7954 179.204 44.7642 178.298 43.3423 178.298ZM59.5923 176.657C62.686 176.657 64.4985 177.501 64.4985 179.048C64.4985 180.626 62.686 181.47 59.5923 181.485C56.4985 181.47 54.6704 180.626 54.6704 179.048C54.6704 177.501 56.4985 176.657 59.5923 176.657ZM59.5923 177.579C57.2798 177.579 55.936 178.142 55.9517 179.048C55.936 180.017 57.2798 180.548 59.5923 180.548C61.8892 180.548 63.2485 180.017 63.2485 179.048C63.2485 178.142 61.8892 177.579 59.5923 177.579ZM65.9204 182.423V183.423H53.2642V182.423H65.9204ZM64.2954 184.626V187.735H56.0454V189.173H64.7173V190.142H54.8267V186.829H63.0923V185.563H54.7954V184.626H64.2954ZM82.561 176.423V186.97H81.3267V185.532H78.4517V184.642H81.3267V176.423H82.561ZM82.9048 188.97V190.001H73.0298V185.938H74.2642V188.97H82.9048ZM71.0298 182.86C73.6235 182.845 77.0923 182.829 80.0767 182.454L80.1548 183.345C78.9126 183.54 77.6157 183.665 76.3423 183.735V186.485H75.1079V183.798C73.7017 183.86 72.3657 183.868 71.2017 183.86L71.0298 182.86ZM75.5923 176.985C77.6235 176.985 79.0142 177.954 79.0298 179.407C79.0142 180.892 77.6235 181.813 75.5923 181.813C73.5454 181.813 72.1548 180.892 72.1548 179.407C72.1548 177.954 73.5454 176.985 75.5923 176.985ZM75.5923 177.923C74.2329 177.907 73.311 178.517 73.3267 179.407C73.311 180.313 74.2329 180.907 75.5923 180.907C76.9048 180.907 77.8423 180.313 77.8579 179.407C77.8423 178.517 76.9048 177.907 75.5923 177.923ZM95.686 176.407V182.142H98.0142V183.157H95.686V190.298H94.4673V176.407H95.686ZM93.1235 178.642V179.657H84.8579V178.642H88.436V176.579H89.6548V178.642H93.1235ZM89.061 180.813C91.0298 180.813 92.4517 182.126 92.4673 184.001C92.4517 185.876 91.0298 187.188 89.061 187.188C87.0767 187.188 85.6392 185.876 85.6548 184.001C85.6392 182.126 87.0767 180.813 89.061 180.813ZM89.061 181.845C87.7642 181.845 86.811 182.751 86.8267 184.001C86.811 185.267 87.7642 186.157 89.061 186.142C90.3423 186.157 91.2798 185.267 91.2954 184.001C91.2798 182.751 90.3423 181.845 89.061 181.845ZM109.999 180.626V181.61H100.483V176.923H101.702V180.626H109.999ZM111.467 183.501V184.501H98.7485V183.501H111.467ZM110.077 188.938V189.954H100.405V185.923H101.624V188.938H110.077ZM124.92 177.907V178.907H116.639V177.907H120.17V176.345H121.389V177.907H124.92ZM120.78 179.626C122.78 179.642 124.108 180.61 124.124 182.142C124.108 183.657 122.78 184.642 120.78 184.642C118.78 184.642 117.42 183.657 117.436 182.142C117.42 180.61 118.78 179.642 120.78 179.626ZM120.78 180.579C119.467 180.595 118.592 181.204 118.608 182.142C118.592 183.063 119.467 183.657 120.78 183.657C122.077 183.657 122.952 183.063 122.967 182.142C122.952 181.204 122.077 180.595 120.78 180.579ZM127.467 176.407V180.267H129.561V181.298H127.467V185.095H126.249V176.407H127.467ZM127.467 185.86V190.298H126.249V186.86H118.374V185.86H127.467ZM133.264 184.751V186.376H140.202V184.751H141.436V190.11H132.045V184.751H133.264ZM133.264 189.126H140.202V187.345H133.264V189.126ZM143.092 182.751V183.767H130.436V182.751H143.092ZM137.405 177.22C137.405 178.938 139.936 180.47 142.374 180.782L141.92 181.767C139.764 181.446 137.655 180.345 136.78 178.782C135.889 180.353 133.764 181.446 131.624 181.767L131.155 180.782C133.624 180.454 136.139 178.985 136.139 177.22V176.563H137.405V177.22ZM148.967 180.673C148.952 182.907 150.561 185.36 152.577 186.313L151.874 187.282C150.311 186.524 148.991 184.868 148.374 182.985C147.733 185.032 146.334 186.829 144.78 187.626L144.03 186.657C146.03 185.688 147.749 183.048 147.764 180.673V178.86H144.53V177.845H152.092V178.86H148.967V180.673ZM155.014 176.407V182.032H157.342V183.079H155.014V190.298H153.795V176.407H155.014ZM170.795 182.86V183.829H158.077V182.86H170.795ZM169.202 184.938V187.892H160.858V189.22H169.655V190.11H159.624V187.048H167.983V185.86H159.608V184.938H169.202ZM169.155 176.829V179.704H160.952V180.923H169.405V181.813H159.733V178.86H167.92V177.72H159.686V176.829H169.155ZM180.514 177.095C182.592 177.079 184.077 178.22 184.077 179.923C184.077 181.61 182.592 182.782 180.514 182.767C178.436 182.782 176.952 181.61 176.952 179.923C176.952 178.22 178.436 177.079 180.514 177.095ZM180.514 178.095C179.124 178.079 178.139 178.845 178.155 179.923C178.139 181.017 179.124 181.767 180.514 181.751C181.92 181.767 182.905 181.017 182.905 179.923C182.905 178.845 181.92 178.079 180.514 178.095ZM187.389 176.423V190.313H186.186V176.423H187.389ZM175.905 183.954C178.514 183.954 182.077 183.907 185.17 183.454L185.249 184.376C183.92 184.618 182.538 184.767 181.202 184.845V189.876H179.983V184.923C178.569 184.985 177.233 184.993 176.077 185.001L175.905 183.954ZM200.624 176.423V181.001H202.717V182.032H200.624V186.829H199.405V176.423H200.624ZM198.077 178.126V179.126H189.795V178.126H193.327V176.423H194.545V178.126H198.077ZM193.936 179.892C195.92 179.892 197.264 180.907 197.28 182.485C197.264 184.048 195.92 185.048 193.936 185.048C191.936 185.048 190.577 184.048 190.592 182.485C190.577 180.907 191.936 179.892 193.936 179.892ZM193.936 180.86C192.624 180.86 191.749 181.501 191.764 182.485C191.749 183.47 192.624 184.095 193.936 184.079C195.233 184.095 196.108 183.47 196.124 182.485C196.108 181.501 195.233 180.86 193.936 180.86ZM201.264 188.97V190.001H191.936V186.001H193.139V188.97H201.264ZM220.327 187.47V188.517H207.608V187.47H220.327ZM219.108 177.813V178.829H216.905V183.688H219.077V184.688H208.764V183.688H210.936V178.829H208.733V177.813H219.108ZM212.155 183.688H215.702V178.829H212.155V183.688ZM234.155 187.548V188.579H221.436V187.548H227.155V184.923H223.03V180.642H231.342V178.454H222.999V177.438H232.545V181.642H224.249V183.907H232.874V184.923H228.358V187.548H234.155ZM246.217 177.892V179.282C246.217 181.032 246.217 183.017 245.702 186.032L244.452 185.907C245.014 183.063 245.014 180.985 245.014 179.282V178.907H236.639V177.892H246.217ZM247.92 187.235V188.251H235.264V187.235H247.92ZM260.889 176.423V184.704H259.717V180.97H257.764V184.517H256.624V176.688H257.764V179.954H259.717V176.423H260.889ZM260.889 185.36V190.11H251.717V185.36H260.889ZM252.92 186.36V189.11H259.686V186.36H252.92ZM254.967 177.329V181.11H250.92V183.11C252.749 183.103 254.147 183.017 255.795 182.688L255.936 183.688C254.139 184.032 252.655 184.079 250.639 184.079H249.733V180.157H253.795V178.329H249.702V177.329H254.967ZM274.389 176.407V183.86H273.17V176.407H274.389ZM266.608 184.563V186.251H273.17V184.563H274.389V190.11H265.389V184.563H266.608ZM266.608 189.11H273.17V187.235H266.608V189.11ZM266.889 177.095C268.999 177.079 270.53 178.376 270.53 180.282C270.53 182.173 268.999 183.47 266.889 183.47C264.78 183.47 263.249 182.173 263.249 180.282C263.249 178.376 264.78 177.079 266.889 177.095ZM266.889 178.126C265.467 178.11 264.436 179.017 264.452 180.282C264.436 181.548 265.467 182.454 266.889 182.454C268.295 182.454 269.327 181.548 269.327 180.282C269.327 179.017 268.295 178.11 266.889 178.126ZM288.202 176.407V190.298H286.983V176.407H288.202ZM278.858 177.782V185.657C280.975 185.649 283.17 185.478 285.499 184.985L285.67 186.032C283.202 186.548 280.999 186.72 278.78 186.72H277.655V177.782H278.858ZM301.327 176.407V181.907H303.655V182.938H301.327V190.329H300.108V176.407H301.327ZM297.67 177.767V178.782H292.405V185.813C294.92 185.813 296.702 185.696 298.764 185.313L298.92 186.376C296.749 186.767 294.92 186.845 292.28 186.845H291.186V177.767H297.67ZM305.874 189.126C305.327 189.126 304.858 188.673 304.874 188.11C304.858 187.563 305.327 187.11 305.874 187.11C306.42 187.11 306.874 187.563 306.874 188.11C306.874 188.673 306.42 189.126 305.874 189.126Z" fill="black"/>
<defs>
<linearGradient id="paint0_linear_469_1567" x1="0.68823" y1="173.5" x2="480.856" y2="173.5" gradientUnits="userSpaceOnUse">
<stop stop-color="#3182F6"/>
<stop offset="1" stop-color="#A009FF"/>
</linearGradient>
<linearGradient id="paint1_linear_469_1567" x1="25.0454" y1="124.668" x2="324.045" y2="124.668" gradientUnits="userSpaceOnUse">
<stop stop-color="#3182F6"/>
<stop offset="1" stop-color="#A009FF"/>
</linearGradient>
<linearGradient id="paint2_linear_469_1567" x1="20.5649" y1="251.714" x2="81.612" y2="251.714" gradientUnits="userSpaceOnUse">
<stop stop-color="#3182F6"/>
<stop offset="1" stop-color="#A009FF"/>
</linearGradient>
</defs>
</svg>
