<svg width="450" height="434" viewBox="0 0 450 434" fill="none" xmlns="http://www.w3.org/2000/svg">
<g filter="url(#filter0_i_983_1178)">
<rect width="450" height="434" rx="15" fill="white"/>
</g>
<rect x="0.5" y="0.5" width="449" height="433" rx="14.5" stroke="url(#paint0_linear_983_1178)"/>
<path d="M69.0703 58.0469V93.5938H64.3047V75.7812H61.2969V91.9531H56.5703V81.7578L53.7578 85.5078C50.457 83.7695 48.3281 80.8203 47.0781 77.1484C45.8867 81.3672 43.7773 84.7852 40.3984 86.7969L37.3125 82.9688C42.7031 79.9219 44.5391 73.6328 44.5391 66.8359V65.7031H38.5234V61.7188H54.8125V65.7031H49.3828V66.8359C49.3828 73.0273 51.2188 78.9258 56.5703 81.6797V58.5547H61.2969V71.7188H64.3047V58.0469H69.0703ZM102.742 58.0859V84.9219H97.7422V82.1094H90.9453V78.7109H97.7422V58.0859H102.742ZM103.523 88.9844V92.9688H77.0391V82.3438H82V77.6172C78.8164 77.7539 75.7891 77.7734 73.0938 77.7734L72.5078 73.8281C79.0312 73.7891 87.8203 73.7109 95.3203 72.7734L95.5938 76.3281C92.7812 76.7969 89.8711 77.1289 87 77.3438V84.1016H82V88.9844H103.523ZM84.0703 59.2969C89.2266 59.2578 92.9375 61.875 92.9375 65.6641C92.9375 69.4531 89.2266 71.9141 84.0703 71.9141C78.7969 71.9141 75.125 69.4531 75.125 65.6641C75.125 61.875 78.7578 59.2578 84.0703 59.2969ZM84.0703 62.9297C81.5312 62.9297 79.8125 63.9062 79.8516 65.6641C79.8125 67.3828 81.5312 68.3203 84.0703 68.3203C86.4531 68.3203 88.1719 67.3828 88.2109 65.6641C88.1719 63.9062 86.4531 62.9297 84.0703 62.9297ZM118.562 64.375C118.562 68.2031 120.555 72.0312 125.281 73.8281L122.625 77.6172C119.598 76.4648 117.508 74.3555 116.219 71.7188C114.93 74.8047 112.703 77.3828 109.383 78.75L106.688 74.9219C111.688 72.7344 113.719 68.3594 113.719 64.375V60.1953H118.562V64.375ZM137.742 58.0859V79.8047H133.016V70.7812H130.047V78.7109H125.398V58.7109H130.047V66.7578H133.016V58.0859H137.742ZM125.594 80.3125C133.094 80.3125 137.898 82.8125 137.938 86.9531C137.898 91.0938 133.094 93.5938 125.594 93.5938C118.055 93.5938 113.289 91.0938 113.289 86.9531C113.289 82.8125 118.055 80.3125 125.594 80.3125ZM125.594 84.0234C120.945 84.0234 118.25 85.0391 118.289 86.9531C118.25 88.8672 120.945 89.8438 125.594 89.8438C130.203 89.8438 132.898 88.8672 132.898 86.9531C132.898 85.0391 130.203 84.0234 125.594 84.0234ZM172.586 58.0469V93.5938H167.82V58.0469H172.586ZM165.164 58.5547V91.9531H160.477V75.1562H157.625C157.156 82.1484 154.188 86.3672 149.812 86.3672C145.125 86.3672 142.078 81.4453 142.078 73.4375C142.078 65.4688 145.125 60.5859 149.812 60.5859C154.09 60.5859 157.02 64.5703 157.586 71.2109H160.477V58.5547H165.164ZM149.812 65.2734C147.82 65.2734 146.648 68.0078 146.688 73.4375C146.648 78.9062 147.82 81.6016 149.812 81.5625C151.844 81.6016 153.055 78.9062 153.055 73.4375C153.055 68.0078 151.844 65.2734 149.812 65.2734ZM207.156 58.0469V93.5938H202.469V58.0469H207.156ZM199.578 58.8281V92.0312H194.93V75.7031H189.109C187.078 79.7656 183.777 83.2812 178.719 86.2109L175.906 82.6953C183.074 78.4375 186.238 73.2617 186.922 66.2891H177.859V62.2656H191.883C191.863 65.6445 191.512 68.8281 190.672 71.7578H194.93V58.8281H199.578ZM238.758 68.6328V71.9141H252.625V75.8984H220.086V71.9141H233.836V68.6328H238.758ZM249.617 58.9062V62.6953H240.047C241.062 64.7461 244.637 66.6016 251.141 66.9531L249.578 70.6641C242.723 70.1953 238.152 68.0078 236.336 64.8047C234.5 67.9883 229.93 70.1953 223.094 70.6641L221.492 66.9531C227.879 66.6016 231.531 64.7266 232.586 62.6953H223.094V58.9062H249.617ZM249.539 79.5312V83.2422H223.055V79.5312H233.797V76.875H238.797V79.5312H249.539ZM236.258 84.2969C243.133 84.2969 247.234 85.9375 247.234 88.9844C247.234 92.0703 243.133 93.7109 236.258 93.7109C229.305 93.7109 225.359 92.0703 225.359 88.9844C225.359 85.9375 229.305 84.2969 236.258 84.2969ZM236.258 87.5781C232.43 87.6172 230.477 87.9688 230.477 88.9844C230.477 89.9609 232.43 90.4297 236.258 90.4297C240.125 90.4297 242 89.9609 242.039 88.9844C242 87.9688 240.125 87.6172 236.258 87.5781ZM287.117 76.2109V80.1953H254.695V76.2109H287.117ZM283.445 88.9844V92.9688H258.602V82.5781H263.602V88.9844H283.445ZM270.906 59.1406C278.68 59.1016 283.797 61.875 283.836 66.4062C283.797 70.9375 278.68 73.75 270.906 73.75C263.055 73.75 257.938 70.9375 257.938 66.4062C257.938 61.875 263.055 59.1016 270.906 59.1406ZM270.906 63.0469C265.984 63.0859 263.094 64.2578 263.133 66.4062C263.094 68.6328 265.984 69.7266 270.906 69.7266C275.828 69.7266 278.68 68.6328 278.68 66.4062C278.68 64.2578 275.828 63.0859 270.906 63.0469ZM328.25 58.0469V93.6719H323.211V58.0469H328.25ZM308.953 60.5469C314.305 60.5469 318.289 65.4688 318.289 73.2031C318.289 81.0156 314.305 85.8984 308.953 85.8984C303.484 85.8984 299.5 81.0156 299.539 73.2031C299.5 65.4688 303.484 60.5469 308.953 60.5469ZM308.953 65.0391C306.18 65.0391 304.344 67.9297 304.344 73.2031C304.344 78.5156 306.18 81.3672 308.953 81.3672C311.648 81.3672 313.484 78.5156 313.484 73.2031C313.484 67.9297 311.648 65.0391 308.953 65.0391ZM365.555 77.8125V81.8359H357.938V93.5938H352.859V81.8359H345.594V93.5938H340.477V81.8359H333.016V77.8125H365.555ZM349.188 59.2188C356.805 59.2188 362.156 62.3828 362.156 67.2656C362.156 72.0703 356.805 75.0781 349.188 75.0781C341.57 75.0781 336.258 72.0703 336.297 67.2656C336.258 62.3828 341.57 59.2188 349.188 59.2188ZM349.188 63.2031C344.422 63.2031 341.375 64.6484 341.414 67.2656C341.375 69.7656 344.422 71.1719 349.188 71.1719C353.992 71.1719 357 69.7656 357 67.2656C357 64.6484 353.992 63.2031 349.188 63.2031Z" fill="url(#paint1_linear_983_1178)"/>
<path d="M81.0977 223.219V233.57H79.5547V229.02H76.0586V227.75H79.5547V223.219H81.0977ZM75.3359 234.117C78.9492 234.117 81.1562 235.289 81.1562 237.34C81.1562 239.391 78.9492 240.562 75.3359 240.582C71.7227 240.562 69.5156 239.391 69.5156 237.34C69.5156 235.289 71.7227 234.117 75.3359 234.117ZM75.3359 235.309C72.6797 235.309 71.0195 236.07 71.0391 237.34C71.0195 238.59 72.6797 239.352 75.3359 239.352C77.9922 239.352 79.6328 238.59 79.6328 237.34C79.6328 236.07 77.9922 235.309 75.3359 235.309ZM72.7383 226.402C72.7383 228.668 74.4766 230.816 77.0156 231.695L76.2148 232.926C74.2617 232.223 72.748 230.768 72.0156 228.961C71.2539 231.002 69.6426 232.633 67.582 233.414L66.7812 232.184C69.3594 231.246 71.1953 228.902 71.1953 226.422V225.777H67.2695V224.488H76.625V225.777H72.7383V226.402ZM97.6211 224.352V225.68C97.6211 227.242 97.6211 229.176 97.1328 231.93H99.8086V233.199H95.6289V240.582H94.1055V233.199H89.6523V240.582H88.1289V233.199H83.9883V231.93H95.5703C96.1367 229.195 96.1367 227.232 96.1367 225.68V225.621H86.0195V224.352H97.6211ZM115.004 224.84C115.004 227.281 118.207 229.41 121.332 229.84L120.707 231.09C118.012 230.641 115.346 229.146 114.223 227.008C113.109 229.156 110.434 230.641 107.738 231.09L107.113 229.84C110.238 229.41 113.422 227.32 113.422 224.84V223.844H115.004V224.84ZM122.113 233.004V234.293H114.926V240.582H113.422V234.293H106.293V233.004H122.113ZM128.363 224.039C130.697 224.02 132.465 225.377 132.797 227.379H136.43V223.219H137.973V232.535H136.43V228.648H132.816C132.504 230.699 130.717 232.066 128.363 232.066C125.727 232.066 123.852 230.426 123.852 228.043C123.852 225.68 125.727 224.02 128.363 224.039ZM128.363 225.348C126.586 225.328 125.316 226.441 125.316 228.043C125.316 229.625 126.586 230.777 128.363 230.777C130.121 230.777 131.371 229.625 131.371 228.043C131.371 226.441 130.121 225.328 128.363 225.348ZM128.324 233.414V235.621H136.43V233.414H137.973V240.348H126.781V233.414H128.324ZM128.324 239.098H136.43V236.852H128.324V239.098ZM150.492 225.152V226.051C150.473 227.418 150.473 229.723 149.984 232.945L148.441 232.809C148.91 229.898 148.949 227.789 148.949 226.402H141.664V225.152H150.492ZM145.941 230.113V235.387C147.865 235.318 149.838 235.191 151.645 234.977L151.723 236.129C148.07 236.695 143.988 236.773 140.883 236.754L140.688 235.484C141.83 235.475 143.1 235.465 144.438 235.426V230.113H145.941ZM154.262 223.219V230.484H157.074V231.812H154.262V240.582H152.738V223.219H154.262ZM172.191 224.293C172.191 224.879 172.133 225.436 172.035 225.973H176.02V223.219H177.543V232.555H176.02V230.797H171.43V229.488H176.02V227.223H171.664C170.561 229.996 167.875 231.939 163.988 232.945L163.402 231.715C167.709 230.631 170.229 228.453 170.531 225.582H164.281V224.293H172.191ZM167.797 233.434V235.621H176.02V233.434H177.543V240.348H166.254V233.434H167.797ZM167.797 239.117H176.02V236.852H167.797V239.117ZM194.77 223.219V240.582H193.227V223.219H194.77ZM186.859 228.883C186.859 231.793 188.891 234.605 191.508 235.719L190.648 236.91C188.646 236.021 186.947 234.137 186.137 231.832C185.355 234.273 183.666 236.275 181.664 237.223L180.805 236.031C183.383 234.859 185.355 231.93 185.355 228.883V227.496H181.273V226.246H185.336V223.551H186.859V226.246H190.902V227.496H186.859V228.883ZM203.949 228.551C203.949 231.5 206.098 234.488 208.656 235.602L207.797 236.812C205.766 235.885 204.008 233.883 203.207 231.48C202.387 234.029 200.639 236.246 198.656 237.242L197.738 236.031C200.219 234.84 202.387 231.559 202.406 228.551V226.285H198.305V225.016H208.09V226.285H203.949V228.551ZM212.055 223.219V240.582H210.512V223.219H212.055ZM224.887 224.215C227.484 224.215 229.398 225.875 229.398 228.219C229.398 230.582 227.484 232.223 224.887 232.242C222.289 232.223 220.355 230.582 220.375 228.219C220.355 225.875 222.289 224.215 224.887 224.215ZM224.887 225.504C223.188 225.504 221.859 226.656 221.879 228.219C221.859 229.82 223.188 230.973 224.887 230.973C226.605 230.973 227.895 229.82 227.895 228.219C227.895 226.656 226.605 225.504 224.887 225.504ZM233.617 223.219V227.145H236.234V228.414H233.617V231.91H232.094V223.219H233.617ZM223.383 233.785V238.844C224.389 238.814 225.727 238.668 226.957 238.258L227.191 239.488C225.492 240.055 223.852 240.113 222.719 240.113H221.898V233.785H223.383ZM235.355 233.863V235.055H226.586V233.863H230.238V232.32H231.742V233.863H235.355ZM230.961 235.641C232.855 235.641 234.203 236.598 234.223 238.102C234.203 239.605 232.855 240.543 230.961 240.543C229.047 240.543 227.719 239.605 227.738 238.102C227.719 236.598 229.047 235.641 230.961 235.641ZM230.961 236.754C229.887 236.754 229.105 237.301 229.105 238.102C229.105 238.922 229.887 239.449 230.961 239.449C232.055 239.449 232.816 238.922 232.816 238.102C232.816 237.301 232.055 236.754 230.961 236.754ZM252.191 223.219V240.582H250.727V223.219H252.191ZM248.539 223.688V239.703H247.074V231.598H243.402C242.338 233.619 240.668 235.406 238.246 236.832L237.348 235.719C241.127 233.482 243.021 230.348 243.305 226.715H238.09V225.445H244.828C244.818 227.154 244.545 228.805 243.969 230.348H247.074V223.688H248.539ZM275.512 232.047V233.316H268.461V236.871H266.918V233.316H259.613V232.047H275.512ZM273.734 238.902V240.211H261.664V235.133H263.207V238.902H273.734ZM267.543 223.668C271.254 223.688 273.656 225.016 273.656 227.164C273.656 229.312 271.254 230.621 267.543 230.621C263.832 230.621 261.41 229.312 261.41 227.164C261.41 225.016 263.832 223.688 267.543 223.668ZM267.543 224.918C264.848 224.918 263.031 225.777 263.051 227.164C263.031 228.512 264.848 229.371 267.543 229.371C270.238 229.371 272.035 228.512 272.035 227.164C272.035 225.777 270.238 224.918 267.543 224.918ZM281.703 224.273C283.168 224.264 284.418 224.811 285.219 225.738H289.77V223.219H291.312V233.512H289.77V231.031H285.238C284.418 231.959 283.168 232.506 281.703 232.496C279.105 232.516 277.191 230.816 277.191 228.395C277.191 225.953 279.105 224.254 281.703 224.273ZM281.703 225.602C279.926 225.582 278.656 226.754 278.656 228.395C278.656 230.016 279.926 231.188 281.703 231.188C283.422 231.188 284.711 230.016 284.711 228.395C284.711 226.754 283.422 225.582 281.703 225.602ZM285.551 233.922C289.145 233.922 291.371 235.133 291.371 237.223C291.371 239.332 289.145 240.543 285.551 240.543C281.938 240.543 279.73 239.332 279.73 237.223C279.73 235.133 281.938 233.922 285.551 233.922ZM285.551 235.113C282.895 235.113 281.234 235.914 281.234 237.223C281.234 238.531 282.895 239.312 285.551 239.312C288.227 239.312 289.867 238.531 289.867 237.223C289.867 235.914 288.227 235.113 285.551 235.113ZM285.961 226.988C286.107 227.418 286.195 227.887 286.195 228.395C286.195 228.883 286.107 229.342 285.961 229.762H289.77V226.988H285.961ZM82.582 273.531V274.781H75.3359V280.582H73.832V274.781H66.6836V273.531H82.582ZM70.2383 263.941V266.344H78.9883V263.941H80.5312V271.422H68.7148V263.941H70.2383ZM70.2383 270.172H78.9883V267.594H70.2383V270.172ZM98.4023 263.941V265.191H92.8945C92.9141 267.164 95.8633 268.727 98.9297 269.078L98.3633 270.289C95.5215 269.928 92.8555 268.658 91.8984 266.715C90.9512 268.658 88.2949 269.928 85.4531 270.289L84.8867 269.078C87.9336 268.727 90.8633 267.164 90.9023 265.191H85.4336V263.941H98.4023ZM99.8672 271.949V273.219H83.9883V271.949H91.1367V269.312H92.6406V271.949H99.8672ZM97.8555 274.938V280.582H96.3125V276.188H85.7461V274.938H97.8555ZM114.848 263.238V268.961H117.465V270.25H114.848V276.246H113.324V263.238H114.848ZM111.664 265.367V266.617H101.312V265.367H105.727V263.238H107.25V265.367H111.664ZM106.488 267.574C108.969 267.574 110.648 268.844 110.668 270.816C110.648 272.77 108.969 274.02 106.488 274.02C103.988 274.02 102.289 272.77 102.309 270.816C102.289 268.844 103.988 267.574 106.488 267.574ZM106.488 268.785C104.848 268.785 103.754 269.586 103.773 270.816C103.754 272.047 104.848 272.828 106.488 272.809C108.109 272.828 109.203 272.047 109.223 270.816C109.203 269.586 108.109 268.785 106.488 268.785ZM115.648 278.922V280.211H103.988V275.211H105.492V278.922H115.648ZM128.363 264.273C129.828 264.264 131.078 264.811 131.879 265.738H136.43V263.219H137.973V273.512H136.43V271.031H131.898C131.078 271.959 129.828 272.506 128.363 272.496C125.766 272.516 123.852 270.816 123.852 268.395C123.852 265.953 125.766 264.254 128.363 264.273ZM128.363 265.602C126.586 265.582 125.316 266.754 125.316 268.395C125.316 270.016 126.586 271.188 128.363 271.188C130.082 271.188 131.371 270.016 131.371 268.395C131.371 266.754 130.082 265.582 128.363 265.602ZM132.211 273.922C135.805 273.922 138.031 275.133 138.031 277.223C138.031 279.332 135.805 280.543 132.211 280.543C128.598 280.543 126.391 279.332 126.391 277.223C126.391 275.133 128.598 273.922 132.211 273.922ZM132.211 275.113C129.555 275.113 127.895 275.914 127.895 277.223C127.895 278.531 129.555 279.312 132.211 279.312C134.887 279.312 136.527 278.531 136.527 277.223C136.527 275.914 134.887 275.113 132.211 275.113ZM132.621 266.988C132.768 267.418 132.855 267.887 132.855 268.395C132.855 268.883 132.768 269.342 132.621 269.762H136.43V266.988H132.621ZM155.258 274.41V280.582H153.715V275.641H143.578V274.41H155.258ZM155.258 263.219V273.453H153.715V270.953H149.242C148.432 271.939 147.152 272.525 145.648 272.516C143.051 272.535 141.137 270.816 141.137 268.355C141.137 265.934 143.051 264.215 145.648 264.215C147.143 264.215 148.422 264.801 149.242 265.777H153.715V263.219H155.258ZM145.648 265.523C143.871 265.523 142.602 266.715 142.602 268.355C142.602 270.055 143.871 271.227 145.648 271.227C147.348 271.227 148.656 270.055 148.656 268.355C148.656 266.715 147.348 265.523 145.648 265.523ZM149.926 269.684H153.715V267.047H149.926C150.062 267.457 150.141 267.887 150.141 268.355C150.141 268.824 150.062 269.273 149.926 269.684ZM173.969 272.379V273.629H158.148V272.379H173.969ZM172.211 278.922V280.211H160.199V275.152H161.742V278.922H172.211ZM166.059 263.844C169.789 263.824 172.191 265.113 172.191 267.281C172.191 269.449 169.789 270.738 166.059 270.738C162.289 270.738 159.906 269.449 159.906 267.281C159.906 265.113 162.289 263.824 166.059 263.844ZM166.059 265.074C163.266 265.074 161.469 265.914 161.488 267.281C161.469 268.648 163.266 269.488 166.059 269.488C168.832 269.488 170.629 268.648 170.629 267.281C170.629 265.914 168.832 265.074 166.059 265.074ZM196.352 277.086V278.355H180.453V277.086H187.602V273.336H182.328V264.449H183.871V267.594H192.895V264.449H194.398V273.336H189.105V277.086H196.352ZM183.871 272.086H192.895V268.844H183.871V272.086ZM203.031 264.039C205.57 264.039 207.348 265.406 207.348 267.477C207.348 269.264 205.941 270.562 203.852 270.816V272.516C205.473 272.447 207.123 272.301 208.637 272.066L208.754 273.219C205.082 273.883 200.922 273.922 197.914 273.922L197.719 272.652C199.066 272.662 200.648 272.652 202.309 272.594V270.836C200.16 270.602 198.715 269.293 198.734 267.477C198.715 265.406 200.492 264.039 203.031 264.039ZM203.031 265.23C201.352 265.23 200.16 266.129 200.18 267.477C200.16 268.785 201.352 269.684 203.031 269.703C204.73 269.684 205.883 268.785 205.902 267.477C205.883 266.129 204.73 265.23 203.031 265.23ZM211.293 263.238V269.117H213.891V270.426H211.293V276.52H209.75V263.238H211.293ZM211.918 278.902V280.191H200.258V275.367H201.801V278.902H211.918ZM217.875 277.691L216.352 283.004H214.906L215.98 277.691H217.875ZM233.07 275.211C236.879 275.211 239.027 276.129 239.047 277.887C239.027 279.645 236.879 280.562 233.07 280.582C229.223 280.562 227.074 279.645 227.074 277.887C227.074 276.129 229.223 275.211 233.07 275.211ZM233.07 276.344C230.238 276.344 228.637 276.91 228.637 277.887C228.637 278.883 230.238 279.41 233.07 279.41C235.883 279.41 237.484 278.883 237.484 277.887C237.484 276.91 235.883 276.344 233.07 276.344ZM240.062 264.723V265.914H225.98V264.723H232.309V262.965H233.832V264.723H240.062ZM233.07 266.637C236.664 266.637 238.695 267.516 238.695 269.156C238.695 270.797 236.664 271.656 233.07 271.656C229.477 271.656 227.426 270.797 227.426 269.156C227.426 267.516 229.477 266.637 233.07 266.637ZM233.07 267.711C230.512 267.711 229.047 268.238 229.066 269.156C229.047 270.055 230.512 270.562 233.07 270.562C235.609 270.562 237.074 270.055 237.074 269.156C237.074 268.238 235.609 267.711 233.07 267.711ZM240.98 272.809V274.02H225.16V272.809H240.98ZM251.488 264.938V276.227H243.461V264.938H251.488ZM244.965 266.168V274.977H249.984V266.168H244.965ZM256.762 263.219V280.621H255.219V263.219H256.762ZM269.535 264.273C271 264.264 272.25 264.811 273.051 265.738H277.602V263.219H279.145V273.512H277.602V271.031H273.07C272.25 271.959 271 272.506 269.535 272.496C266.938 272.516 265.023 270.816 265.023 268.395C265.023 265.953 266.938 264.254 269.535 264.273ZM269.535 265.602C267.758 265.582 266.488 266.754 266.488 268.395C266.488 270.016 267.758 271.188 269.535 271.188C271.254 271.188 272.543 270.016 272.543 268.395C272.543 266.754 271.254 265.582 269.535 265.602ZM273.383 273.922C276.977 273.922 279.203 275.133 279.203 277.223C279.203 279.332 276.977 280.543 273.383 280.543C269.77 280.543 267.562 279.332 267.562 277.223C267.562 275.133 269.77 273.922 273.383 273.922ZM273.383 275.113C270.727 275.113 269.066 275.914 269.066 277.223C269.066 278.531 270.727 279.312 273.383 279.312C276.059 279.312 277.699 278.531 277.699 277.223C277.699 275.914 276.059 275.113 273.383 275.113ZM273.793 266.988C273.939 267.418 274.027 267.887 274.027 268.395C274.027 268.883 273.939 269.342 273.793 269.762H277.602V266.988H273.793ZM296.43 274.41V280.582H294.887V275.641H284.75V274.41H296.43ZM296.43 263.219V273.453H294.887V270.953H290.414C289.604 271.939 288.324 272.525 286.82 272.516C284.223 272.535 282.309 270.816 282.309 268.355C282.309 265.934 284.223 264.215 286.82 264.215C288.314 264.215 289.594 264.801 290.414 265.777H294.887V263.219H296.43ZM286.82 265.523C285.043 265.523 283.773 266.715 283.773 268.355C283.773 270.055 285.043 271.227 286.82 271.227C288.52 271.227 289.828 270.055 289.828 268.355C289.828 266.715 288.52 265.523 286.82 265.523ZM291.098 269.684H294.887V267.047H291.098C291.234 267.457 291.312 267.887 291.312 268.355C291.312 268.824 291.234 269.273 291.098 269.684ZM315.141 272.379V273.629H299.32V272.379H315.141ZM313.383 278.922V280.211H301.371V275.152H302.914V278.922H313.383ZM307.23 263.844C310.961 263.824 313.363 265.113 313.363 267.281C313.363 269.449 310.961 270.738 307.23 270.738C303.461 270.738 301.078 269.449 301.078 267.281C301.078 265.113 303.461 263.824 307.23 263.844ZM307.23 265.074C304.438 265.074 302.641 265.914 302.66 267.281C302.641 268.648 304.438 269.488 307.23 269.488C310.004 269.488 311.801 268.648 311.801 267.281C311.801 265.914 310.004 265.074 307.23 265.074ZM335.18 263.238V268.492H337.777V269.781H335.18V274.879H333.637V263.238H335.18ZM321.547 273.102C322.934 273.102 324.555 273.102 326.254 273.043V271.773C324.232 271.598 322.934 270.65 322.934 269.215C322.934 267.633 324.555 266.656 326.996 266.656C329.457 266.656 331.059 267.633 331.078 269.215C331.059 270.641 329.789 271.588 327.777 271.773V272.984C329.398 272.906 331.039 272.779 332.562 272.555L332.699 273.668C328.93 274.332 324.77 274.352 321.723 274.352L321.547 273.102ZM335.18 275.738V280.582H333.637V276.969H323.676V275.738H335.18ZM332.035 264.82V265.992H321.977V264.82H326.254V263.082H327.777V264.82H332.035ZM326.996 267.75C325.395 267.73 324.398 268.297 324.398 269.215C324.398 270.113 325.395 270.738 326.996 270.719C328.598 270.738 329.613 270.113 329.613 269.215C329.613 268.297 328.598 267.73 326.996 267.75ZM344.789 266.52C344.789 268.785 346.488 270.816 349.047 271.656L348.324 272.867C346.322 272.213 344.809 270.826 344.066 269.078C343.314 271.07 341.713 272.623 339.633 273.375L338.852 272.145C341.449 271.266 343.266 269.02 343.285 266.52V265.777H339.32V264.508H348.695V265.777H344.789V266.52ZM352.484 263.219V267.652H355.102V268.941H352.484V273.707H350.961V263.219H352.484ZM346.918 274.176C350.492 274.176 352.641 275.348 352.641 277.34C352.641 279.371 350.492 280.543 346.918 280.543C343.344 280.543 341.156 279.371 341.156 277.34C341.156 275.348 343.344 274.176 346.918 274.176ZM346.918 275.406C344.301 275.406 342.68 276.129 342.699 277.34C342.68 278.59 344.301 279.312 346.918 279.312C349.555 279.312 351.156 278.59 351.156 277.34C351.156 276.129 349.555 275.406 346.918 275.406ZM71.3711 304.566C72.9629 304.576 74.252 305.504 75.0039 307.105H79.5742V303.219H81.0977V320.621H79.5742V313.883H75.1211C74.3887 315.641 73.0508 316.656 71.3711 316.656C68.8125 316.656 67.0156 314.312 67.0156 310.621C67.0156 306.93 68.8125 304.586 71.3711 304.566ZM71.3711 305.934C69.6523 305.953 68.4805 307.789 68.4805 310.621C68.4805 313.453 69.6523 315.289 71.3711 315.289C73.0703 315.289 74.2617 313.453 74.2617 310.621C74.2617 307.789 73.0703 305.953 71.3711 305.934ZM75.4531 308.395C75.6094 309.068 75.707 309.811 75.707 310.621C75.707 311.334 75.6289 312.008 75.5117 312.613H79.5742V308.395H75.4531ZM98.7344 303.219V314.215H97.2695V309.234H94.9453V313.59H93.5V303.57H94.9453V307.965H97.2695V303.219H98.7344ZM92.7969 305.309V306.539H83.8906V305.309H87.6016V303.355H89.125V305.309H92.7969ZM88.3633 307.477C90.5703 307.477 92.0742 308.629 92.0938 310.445C92.0742 312.223 90.5703 313.395 88.3633 313.395C86.1758 313.395 84.6328 312.223 84.6523 310.445C84.6328 308.629 86.1758 307.477 88.3633 307.477ZM88.3633 308.609C86.9766 308.609 86.0195 309.352 86.0195 310.445C86.0195 311.52 86.9766 312.242 88.3633 312.242C89.75 312.242 90.707 311.52 90.707 310.445C90.707 309.352 89.75 308.609 88.3633 308.609ZM92.9922 314.508C96.6445 314.508 98.832 315.602 98.832 317.555C98.832 319.449 96.6445 320.543 92.9922 320.543C89.3398 320.543 87.1523 319.449 87.1719 317.555C87.1523 315.602 89.3398 314.508 92.9922 314.508ZM92.9922 315.719C90.2969 315.699 88.6758 316.363 88.6953 317.555C88.6758 318.688 90.2969 319.352 92.9922 319.352C95.6875 319.352 97.2891 318.688 97.3086 317.555C97.2891 316.363 95.6875 315.699 92.9922 315.719ZM106.957 304.195L102.387 321.129H100.863L105.414 304.195H106.957ZM122.348 303.219V312.105H120.805V310.289H116.176V309.078H120.805V306.988H116.43C115.336 309.732 112.641 311.578 108.793 312.496L108.246 311.227C112.504 310.24 114.984 308.16 115.277 305.367H109.125V304.098H116.957C116.957 304.674 116.898 305.23 116.801 305.758H120.805V303.219H122.348ZM122.348 312.887V317.125H112.66V319.156H122.934V320.426H111.137V315.953H120.805V314.137H111.098V312.887H122.348ZM131.156 306.012C131.156 308.414 132.934 310.621 135.453 311.48L134.613 312.711C132.68 311.998 131.176 310.514 130.434 308.668C129.701 310.719 128.139 312.32 126.098 313.121L125.258 311.852C127.895 310.914 129.633 308.629 129.652 305.953V304.117H131.156V306.012ZM139.633 314.449V320.582H138.09V315.68H127.953V314.449H139.633ZM139.633 303.219V313.492H138.09V308.16H134.223V306.871H138.09V303.219H139.633ZM153.715 307.887C153.695 311.051 155.863 314.254 158.422 315.406L157.484 316.617C155.512 315.65 153.803 313.609 152.973 311.129C152.162 313.756 150.453 315.943 148.422 316.969L147.445 315.68C150.023 314.488 152.172 311.188 152.191 307.887V304.723H153.715V307.887ZM161.859 303.219V320.621H160.316V303.219H161.859ZM178.617 305.68C178.598 308.004 181.703 309.977 184.73 310.426L184.164 311.637C181.449 311.178 178.812 309.732 177.758 307.633C176.703 309.732 174.057 311.178 171.391 311.637L170.785 310.426C173.793 309.977 176.898 308.004 176.898 305.68V305.562H171.332V304.312H184.164V305.562H178.617V305.68ZM185.668 313.121V314.391H178.48V320.582H176.977V314.391H169.848V313.121H185.668ZM200.707 303.219V306.988H203.324V308.277H200.707V312.066H199.184V303.219H200.707ZM195.902 304.215V311.148H187.875V304.215H195.902ZM189.379 305.465V309.918H194.418V305.465H189.379ZM200.707 312.887V317.125H191.176V319.117H201.352V320.348H189.672V315.953H199.184V314.117H189.633V312.887H200.707ZM225.336 317.086V318.355H209.438V317.086H216.586V313.336H211.312V304.449H212.855V307.594H221.879V304.449H223.383V313.336H218.09V317.086H225.336ZM212.855 312.086H221.879V308.844H212.855V312.086ZM242.543 311.812V313.043H235.375V314.801C238.686 314.938 240.59 315.943 240.609 317.672C240.59 319.547 238.402 320.543 234.633 320.543C230.863 320.543 228.637 319.547 228.637 317.672C228.637 315.943 230.561 314.947 233.871 314.801V313.043H226.723V311.812H242.543ZM235.375 303.18V304.918H240.941V306.168H235.492C235.639 308.092 238.373 309.381 241.605 309.684L241.137 310.875C238.256 310.572 235.688 309.547 234.633 307.789C233.568 309.547 230.99 310.572 228.129 310.875L227.641 309.684C230.873 309.381 233.607 308.092 233.793 306.168H228.363V304.918H233.871V303.18H235.375ZM234.633 315.953C231.82 315.953 230.18 316.578 230.199 317.672C230.18 318.766 231.82 319.371 234.633 319.352C237.406 319.371 239.066 318.766 239.066 317.672C239.066 316.578 237.406 315.953 234.633 315.953ZM263.871 303.219V320.582H262.406V303.219H263.871ZM260.355 303.648V319.684H258.91V310.738H255.98V309.488H258.91V303.648H260.355ZM254.125 308.18C254.125 311.188 255.473 314.176 257.875 315.562L256.938 316.695C255.229 315.67 254.018 313.795 253.422 311.578C252.787 313.971 251.527 316.012 249.789 317.105L248.812 315.953C251.234 314.508 252.641 311.344 252.641 308.18V306.539H249.301V305.27H257.309V306.539H254.125V308.18ZM274.164 314.195C277.895 314.195 280.258 315.367 280.258 317.379C280.258 319.371 277.895 320.543 274.164 320.543C270.453 320.543 268.09 319.371 268.09 317.379C268.09 315.367 270.453 314.195 274.164 314.195ZM274.164 315.367C271.391 315.387 269.594 316.148 269.613 317.379C269.594 318.59 271.391 319.332 274.164 319.332C276.938 319.332 278.715 318.59 278.734 317.379C278.715 316.148 276.938 315.387 274.164 315.367ZM280.121 304.117V305.582C280.121 306.988 280.121 308.395 279.633 310.191L278.129 310.016C278.598 308.219 278.598 306.949 278.598 305.582V305.367H268.207V304.117H280.121ZM282.133 311.324V312.574H266.332V311.324H272.875V307.965H274.379V311.324H282.133ZM71.4883 344.273C72.9531 344.264 74.2031 344.811 75.0039 345.738H79.5547V343.219H81.0977V353.512H79.5547V351.031H75.0234C74.2031 351.959 72.9531 352.506 71.4883 352.496C68.8906 352.516 66.9766 350.816 66.9766 348.395C66.9766 345.953 68.8906 344.254 71.4883 344.273ZM71.4883 345.602C69.7109 345.582 68.4414 346.754 68.4414 348.395C68.4414 350.016 69.7109 351.188 71.4883 351.188C73.207 351.188 74.4961 350.016 74.4961 348.395C74.4961 346.754 73.207 345.582 71.4883 345.602ZM75.3359 353.922C78.9297 353.922 81.1562 355.133 81.1562 357.223C81.1562 359.332 78.9297 360.543 75.3359 360.543C71.7227 360.543 69.5156 359.332 69.5156 357.223C69.5156 355.133 71.7227 353.922 75.3359 353.922ZM75.3359 355.113C72.6797 355.113 71.0195 355.914 71.0195 357.223C71.0195 358.531 72.6797 359.312 75.3359 359.312C78.0117 359.312 79.6523 358.531 79.6523 357.223C79.6523 355.914 78.0117 355.113 75.3359 355.113ZM75.7461 346.988C75.8926 347.418 75.9805 347.887 75.9805 348.395C75.9805 348.883 75.8926 349.342 75.7461 349.762H79.5547V346.988H75.7461ZM88.6562 344.566C91.0195 344.586 92.7188 346.607 92.9727 349.859H96.8594V343.219H98.3828V360.621H96.8594V351.129H92.9922C92.8066 354.527 91.0781 356.656 88.6562 356.656C86.0977 356.656 84.3008 354.312 84.3008 350.621C84.3008 346.93 86.0977 344.586 88.6562 344.566ZM88.6562 345.934C86.9375 345.953 85.7656 347.789 85.7656 350.621C85.7656 353.453 86.9375 355.289 88.6562 355.289C90.3555 355.289 91.5469 353.453 91.5469 350.621C91.5469 347.789 90.3555 345.953 88.6562 345.934ZM109.828 353.648V355.68H118.5V353.648H120.043V360.348H108.305V353.648H109.828ZM109.828 359.117H118.5V356.891H109.828V359.117ZM122.113 351.148V352.418H106.293V351.148H122.113ZM115.004 344.234C115.004 346.383 118.168 348.297 121.215 348.688L120.648 349.918C117.953 349.518 115.316 348.141 114.223 346.188C113.109 348.15 110.453 349.518 107.777 349.918L107.191 348.688C110.277 348.277 113.422 346.441 113.422 344.234V343.414H115.004V344.234ZM139.418 351.676V352.945H123.578V351.676H139.418ZM137.465 355.035V360.68H135.941V356.285H125.336V355.035H137.465ZM137.602 348.492V349.742H125.59V343.902H137.445V345.152H127.113V348.492H137.602ZM151.605 344.078C154.203 344.059 156.059 345.484 156.059 347.613C156.059 349.723 154.203 351.188 151.605 351.168C149.008 351.188 147.152 349.723 147.152 347.613C147.152 345.484 149.008 344.059 151.605 344.078ZM151.605 345.328C149.867 345.309 148.637 346.266 148.656 347.613C148.637 348.98 149.867 349.918 151.605 349.898C153.363 349.918 154.594 348.98 154.594 347.613C154.594 346.266 153.363 345.309 151.605 345.328ZM160.199 343.238V360.602H158.695V343.238H160.199ZM145.844 352.652C149.105 352.652 153.559 352.594 157.426 352.027L157.523 353.18C155.863 353.482 154.135 353.668 152.465 353.766V360.055H150.941V353.863C149.174 353.941 147.504 353.951 146.059 353.961L145.844 352.652ZM176.742 343.238V348.961H179.359V350.25H176.742V356.246H175.219V343.238H176.742ZM173.559 345.367V346.617H163.207V345.367H167.621V343.238H169.145V345.367H173.559ZM168.383 347.574C170.863 347.574 172.543 348.844 172.562 350.816C172.543 352.77 170.863 354.02 168.383 354.02C165.883 354.02 164.184 352.77 164.203 350.816C164.184 348.844 165.883 347.574 168.383 347.574ZM168.383 348.785C166.742 348.785 165.648 349.586 165.668 350.816C165.648 352.047 166.742 352.828 168.383 352.809C170.004 352.828 171.098 352.047 171.117 350.816C171.098 349.586 170.004 348.785 168.383 348.785ZM177.543 358.922V360.211H165.883V355.211H167.387V358.922H177.543ZM199.027 343.219V349.312H201.625V350.602H199.027V356.812H197.484V343.219H199.027ZM199.652 358.922V360.211H187.992V355.895H189.535V358.922H199.652ZM185.395 353.551C186.771 353.551 188.402 353.541 190.102 353.473V352.145C188.08 351.959 186.781 350.992 186.781 349.527C186.781 347.848 188.402 346.852 190.844 346.852C193.305 346.852 194.906 347.848 194.926 349.527C194.906 350.982 193.637 351.949 191.625 352.145V353.395C193.256 353.316 194.896 353.16 196.41 352.926L196.547 354.02C192.816 354.723 188.617 354.781 185.57 354.801L185.395 353.551ZM195.883 344.938V346.09H185.824V344.938H190.102V343.18H191.625V344.938H195.883ZM190.844 347.945C189.242 347.945 188.246 348.551 188.246 349.527C188.246 350.484 189.242 351.09 190.844 351.09C192.445 351.09 193.461 350.484 193.461 349.527C193.461 348.551 192.445 347.945 190.844 347.945ZM217.152 343.238V353.668H215.609V351.324H211V350.055H215.609V347.711H211.176C210.033 350.504 207.348 352.525 203.637 353.629L202.992 352.418C207.191 351.168 209.799 348.824 210.121 345.816H203.871V344.527H211.781C211.781 345.211 211.703 345.865 211.566 346.48H215.609V343.238H217.152ZM211.469 353.844C214.984 353.844 217.25 355.094 217.25 357.164C217.25 359.254 214.984 360.504 211.469 360.504C207.914 360.504 205.668 359.254 205.668 357.164C205.668 355.094 207.914 353.844 211.469 353.844ZM211.469 355.074C208.852 355.055 207.172 355.855 207.172 357.164C207.172 358.473 208.852 359.254 211.469 359.254C214.047 359.254 215.707 358.473 215.727 357.164C215.707 355.855 214.047 355.055 211.469 355.074ZM229.672 345.152V346.051C229.652 347.418 229.652 349.723 229.164 352.945L227.621 352.809C228.09 349.898 228.129 347.789 228.129 346.402H220.844V345.152H229.672ZM225.121 350.113V355.387C227.045 355.318 229.018 355.191 230.824 354.977L230.902 356.129C227.25 356.695 223.168 356.773 220.062 356.754L219.867 355.484C221.01 355.475 222.279 355.465 223.617 355.426V350.113H225.121ZM233.441 343.219V350.484H236.254V351.812H233.441V360.582H231.918V343.219H233.441ZM256.703 343.219V360.582H255.16V343.219H256.703ZM251.566 345.113C251.547 350.113 249.223 354.527 243.402 357.32L242.562 356.07C247.26 353.844 249.652 350.514 250.004 346.363H243.363V345.113H251.566ZM273.871 343.219V360.582H272.348V343.219H273.871ZM259.73 355.953C261.215 355.943 262.914 355.934 264.672 355.875V353.98C262.592 353.756 261.234 352.574 261.254 350.836C261.234 348.883 262.914 347.613 265.414 347.613C267.914 347.613 269.613 348.883 269.613 350.836C269.613 352.555 268.266 353.736 266.215 353.961V355.816C267.895 355.748 269.594 355.621 271.195 355.406L271.312 356.578C267.445 357.203 263.188 357.262 259.965 357.262L259.73 355.953ZM270.746 345.367V346.617H260.102V345.367H264.672V343.238H266.215V345.367H270.746ZM265.414 348.805C263.812 348.805 262.68 349.625 262.68 350.836C262.68 352.047 263.812 352.828 265.414 352.809C267.035 352.828 268.148 352.047 268.148 350.836C268.148 349.625 267.035 348.805 265.414 348.805ZM295.492 343.238V348.492H298.09V349.781H295.492V354.879H293.949V343.238H295.492ZM281.859 353.102C283.246 353.102 284.867 353.102 286.566 353.043V351.773C284.545 351.598 283.246 350.65 283.246 349.215C283.246 347.633 284.867 346.656 287.309 346.656C289.77 346.656 291.371 347.633 291.391 349.215C291.371 350.641 290.102 351.588 288.09 351.773V352.984C289.711 352.906 291.352 352.779 292.875 352.555L293.012 353.668C289.242 354.332 285.082 354.352 282.035 354.352L281.859 353.102ZM295.492 355.738V360.582H293.949V356.969H283.988V355.738H295.492ZM292.348 344.82V345.992H282.289V344.82H286.566V343.082H288.09V344.82H292.348ZM287.309 347.75C285.707 347.73 284.711 348.297 284.711 349.215C284.711 350.113 285.707 350.738 287.309 350.719C288.91 350.738 289.926 350.113 289.926 349.215C289.926 348.297 288.91 347.73 287.309 347.75ZM314.066 343.219V360.582H312.602V351.48H310.043V359.684H308.637V343.609H310.043V350.211H312.602V343.219H314.066ZM306.371 345.348V346.617H301.391V354.977C303.783 354.967 305.443 354.879 307.367 354.488L307.504 355.777C305.414 356.207 303.637 356.285 300.98 356.285H299.867V345.348H306.371Z" fill="black"/>
<path d="M37 192H417" stroke="url(#paint2_linear_983_1178)"/>
<rect x="37.5" y="118.5" width="113" height="46" rx="9.5" fill="white"/>
<rect x="37.5" y="118.5" width="113" height="46" rx="9.5" stroke="url(#paint3_linear_983_1178)"/>
<path d="M64.4609 136.039C64.4609 138.168 65.7695 140.336 68.6992 141.215L67.4297 143.168C65.4375 142.543 64.0312 141.264 63.2305 139.652C62.4199 141.4 60.9746 142.807 58.8945 143.5L57.6055 141.547C60.5547 140.59 61.9219 138.285 61.9219 136.039V135.785H58.2695V133.793H68.0352V135.785H64.4609V136.039ZM72.4102 132.543V145.395H69.9102V132.543H72.4102ZM72.8789 147.992V149.984H60.4961V144.223H63.0156V147.992H72.8789ZM89.3047 140.473V142.445H84.1484V146.234H91.082V148.266H74.8125V146.234H81.668V142.445H76.7266V133.773H89.168V135.766H79.2266V140.473H89.3047ZM112.977 146.195V148.227H96.707V146.195H103.562V142.914H98.4258V133.656H100.926V136.41H108.68V133.656H111.16V142.914H106.043V146.195H112.977ZM100.926 140.922H108.68V138.402H100.926V140.922ZM119.344 133.246C121.941 133.246 123.816 134.711 123.816 136.859C123.816 138.598 122.537 139.926 120.633 140.336V141.625C122.02 141.547 123.416 141.42 124.715 141.234L124.91 143.051C121.258 143.695 117.176 143.773 114.207 143.773L113.953 141.801C115.184 141.801 116.619 141.791 118.133 141.742V140.355C116.17 139.965 114.852 138.627 114.871 136.859C114.852 134.711 116.727 133.246 119.344 133.246ZM119.344 135.121C118.074 135.141 117.176 135.746 117.195 136.859C117.176 137.934 118.074 138.578 119.344 138.578C120.613 138.578 121.473 137.934 121.473 136.859C121.473 135.746 120.613 135.141 119.344 135.121ZM128.211 132.543V138.129H130.477V140.199H128.211V146.098H125.711V132.543H128.211ZM128.816 147.973V149.965H116.297V144.906H118.797V147.973H128.816Z" fill="url(#paint4_linear_983_1178)"/>
<rect x="162.5" y="118.5" width="131" height="46" rx="9.5" fill="white"/>
<rect x="162.5" y="118.5" width="131" height="46" rx="9.5" stroke="url(#paint5_linear_983_1178)"/>
<path d="M197.02 140.473V142.445H191.863V146.234H198.797V148.266H182.527V146.234H189.383V142.445H184.441V133.773H196.883V135.766H186.941V140.473H197.02ZM207.391 134.359V138.988H209.168V132.777H211.512V149.477H209.168V140.98H207.391V145.824H200.32V134.359H207.391ZM202.645 136.332V143.871H205.066V136.332H202.645ZM215.223 132.523V150.297H212.84V132.523H215.223ZM231.98 132.543V145.316H229.48V132.543H231.98ZM232.449 147.992V149.984H220.066V144.027H222.586V147.992H232.449ZM222.234 133.676C224.969 133.676 227.098 135.551 227.098 138.148C227.098 140.805 224.969 142.66 222.234 142.66C219.5 142.66 217.371 140.805 217.371 138.148C217.371 135.551 219.5 133.676 222.234 133.676ZM222.234 135.844C220.848 135.824 219.793 136.703 219.812 138.148C219.793 139.633 220.848 140.492 222.234 140.492C223.582 140.492 224.637 139.633 224.637 138.148C224.637 136.703 223.582 135.824 222.234 135.844ZM253.211 132.543V137.621H255.477V139.672H253.211V144.613H250.711V132.543H253.211ZM238.797 142.328C240.096 142.328 241.58 142.328 243.113 142.289V141.293C241.18 141.02 239.969 140.082 239.988 138.715C239.969 137.074 241.707 136.059 244.344 136.059C246.961 136.059 248.68 137.074 248.699 138.715C248.68 140.082 247.498 141.01 245.594 141.273V142.191C247.059 142.133 248.514 142.016 249.891 141.84L250.066 143.559C246.316 144.223 242.195 144.262 239.051 144.262L238.797 142.328ZM253.211 145.336V150.297H250.711V147.25H241.062V145.336H253.211ZM249.441 133.832V135.648H239.266V133.832H243.113V132.387H245.594V133.832H249.441ZM244.344 137.719C243.074 137.719 242.352 138.031 242.371 138.715C242.352 139.359 243.074 139.73 244.344 139.73C245.594 139.73 246.297 139.359 246.316 138.715C246.297 138.031 245.594 137.719 244.344 137.719ZM266.375 133.715V135.707H262.84C262.859 137.777 264.1 139.779 266.941 140.609L265.75 142.562C263.787 141.967 262.43 140.775 261.648 139.242C260.857 141.039 259.412 142.465 257.273 143.168L256.004 141.195C258.953 140.268 260.281 137.963 260.32 135.707H256.688V133.715H266.375ZM270.379 132.523V136.645H272.781V138.676H270.379V143.07H267.879V132.523H270.379ZM264.559 143.422C268.25 143.402 270.555 144.672 270.555 146.84C270.555 149.008 268.25 150.297 264.559 150.297C260.789 150.297 258.465 149.008 258.465 146.84C258.465 144.672 260.789 143.402 264.559 143.422ZM264.559 145.355C262.215 145.355 260.945 145.844 260.965 146.84C260.945 147.855 262.215 148.363 264.559 148.363C266.863 148.363 268.094 147.855 268.094 146.84C268.094 145.844 266.863 145.355 264.559 145.355Z" fill="url(#paint6_linear_983_1178)"/>
<rect x="304.5" y="118.5" width="113" height="46" rx="9.5" fill="white"/>
<rect x="304.5" y="118.5" width="113" height="46" rx="9.5" stroke="url(#paint7_linear_983_1178)"/>
<path d="M338.902 133.07V138.363H328.961V139.848H339.312V141.84H326.441V136.488H336.344V135.082H326.383V133.07H338.902ZM340.777 143.168V145.16H333.863V150.336H331.363V145.16H324.508V143.168H340.777ZM356.695 132.543V145.688H354.195V132.543H356.695ZM357.164 147.992V149.984H344.781V144.516H347.301V147.992H357.164ZM351.402 133.871V135.863H345.289V137.543H350.875V139.457H345.289V141.156C348.414 141.156 350.396 141.117 352.652 140.746L352.906 142.66C350.367 143.109 348.121 143.148 344.312 143.148H342.789V133.871H351.402ZM379.957 142.406V144.418H376.148V150.297H373.609V144.418H369.977V150.297H367.418V144.418H363.688V142.406H379.957ZM371.773 133.109C375.582 133.109 378.258 134.691 378.258 137.133C378.258 139.535 375.582 141.039 371.773 141.039C367.965 141.039 365.309 139.535 365.328 137.133C365.309 134.691 367.965 133.109 371.773 133.109ZM371.773 135.102C369.391 135.102 367.867 135.824 367.887 137.133C367.867 138.383 369.391 139.086 371.773 139.086C374.176 139.086 375.68 138.383 375.68 137.133C375.68 135.824 374.176 135.102 371.773 135.102ZM387.887 137.367C387.887 140.238 389.352 143.305 392.34 144.555L390.992 146.508C388.893 145.619 387.447 143.852 386.656 141.684C385.846 144.037 384.371 145.99 382.281 146.957L380.855 144.984C383.805 143.676 385.328 140.375 385.328 137.367V136.273H381.559V134.242H391.598V136.273H387.887V137.367ZM395.875 132.523V150.297H393.355V132.523H395.875Z" fill="url(#paint8_linear_983_1178)"/>
<path d="M52.464 219C53.0163 218.044 54.2398 217.715 55.1964 218.268C56.153 218.82 56.4801 220.044 55.9279 221L45.7321 238.66C44.9623 239.994 43.0378 239.994 42.268 238.66L37.2677 230L37.1749 229.817C36.7595 228.893 37.1034 227.785 38.0001 227.268C38.8969 226.75 40.0283 227.006 40.6212 227.828L40.7325 228L44.0001 233.659L52.464 219Z" fill="url(#paint9_linear_983_1178)"/>
<path d="M52.464 263C53.0163 262.044 54.2398 261.715 55.1964 262.268C56.153 262.82 56.4801 264.044 55.9279 265L45.7321 282.66C44.9623 283.994 43.0378 283.994 42.268 282.66L37.2677 274L37.1749 273.817C36.7595 272.893 37.1034 271.785 38.0001 271.268C38.8969 270.75 40.0283 271.006 40.6212 271.828L40.7325 272L44.0001 277.659L52.464 263Z" fill="url(#paint10_linear_983_1178)"/>
<path d="M52.464 307C53.0163 306.044 54.2398 305.715 55.1964 306.268C56.153 306.82 56.4801 308.044 55.9279 309L45.7321 326.66C44.9623 327.994 43.0378 327.994 42.268 326.66L37.2677 318L37.1749 317.817C36.7595 316.893 37.1034 315.785 38.0001 315.268C38.8969 314.75 40.0283 315.006 40.6212 315.828L40.7325 316L44.0001 321.659L52.464 307Z" fill="url(#paint11_linear_983_1178)"/>
<path d="M52.464 351C53.0163 350.044 54.2398 349.715 55.1964 350.268C56.153 350.82 56.4801 352.044 55.9279 353L45.7321 370.66C44.9623 371.994 43.0378 371.994 42.268 370.66L37.2677 362L37.1749 361.817C36.7595 360.893 37.1034 359.785 38.0001 359.268C38.8969 358.75 40.0283 359.006 40.6212 359.828L40.7325 360L44.0001 365.659L52.464 351Z" fill="url(#paint12_linear_983_1178)"/>
<defs>
<filter id="filter0_i_983_1178" x="0" y="0" width="452" height="436" filterUnits="userSpaceOnUse" color-interpolation-filters="sRGB">
<feFlood flood-opacity="0" result="BackgroundImageFix"/>
<feBlend mode="normal" in="SourceGraphic" in2="BackgroundImageFix" result="shape"/>
<feColorMatrix in="SourceAlpha" type="matrix" values="0 0 0 0 0 0 0 0 0 0 0 0 0 0 0 0 0 0 127 0" result="hardAlpha"/>
<feOffset dx="4" dy="4"/>
<feGaussianBlur stdDeviation="1"/>
<feComposite in2="hardAlpha" operator="arithmetic" k2="-1" k3="1"/>
<feColorMatrix type="matrix" values="0 0 0 0 1 0 0 0 0 1 0 0 0 0 1 0 0 0 0.25 0"/>
<feBlend mode="normal" in2="shape" result="effect1_innerShadow_983_1178"/>
</filter>
<linearGradient id="paint0_linear_983_1178" x1="-20.777" y1="-7.95288" x2="294.466" y2="535.571" gradientUnits="userSpaceOnUse">
<stop stop-color="#3182F6"/>
<stop offset="1" stop-color="#A009FF"/>
</linearGradient>
<linearGradient id="paint1_linear_983_1178" x1="482.935" y1="72.6622" x2="-243.346" y2="72.6621" gradientUnits="userSpaceOnUse">
<stop stop-color="#FF85B8"/>
<stop offset="0.509615" stop-color="#AB35CF"/>
<stop offset="1" stop-color="#B583F2"/>
</linearGradient>
<linearGradient id="paint2_linear_983_1178" x1="482.935" y1="192.504" x2="-243.346" y2="192.503" gradientUnits="userSpaceOnUse">
<stop stop-color="#FF85B8"/>
<stop offset="0.509615" stop-color="#AB35CF"/>
<stop offset="1" stop-color="#B583F2"/>
</linearGradient>
<linearGradient id="paint3_linear_983_1178" x1="170.78" y1="141.686" x2="-47.1039" y2="141.686" gradientUnits="userSpaceOnUse">
<stop stop-color="#FF85B8"/>
<stop offset="0.509615" stop-color="#AB35CF"/>
<stop offset="1" stop-color="#B583F2"/>
</linearGradient>
<linearGradient id="paint4_linear_983_1178" x1="143.84" y1="141.627" x2="2.40624" y2="141.627" gradientUnits="userSpaceOnUse">
<stop stop-color="#FF85B8"/>
<stop offset="0.509615" stop-color="#AB35CF"/>
<stop offset="1" stop-color="#B583F2"/>
</linearGradient>
<linearGradient id="paint5_linear_983_1178" x1="316.904" y1="141.686" x2="64.6165" y2="141.686" gradientUnits="userSpaceOnUse">
<stop stop-color="#FF85B8"/>
<stop offset="0.509615" stop-color="#AB35CF"/>
<stop offset="1" stop-color="#B583F2"/>
</linearGradient>
<linearGradient id="paint6_linear_983_1178" x1="289.963" y1="141.627" x2="114.127" y2="141.627" gradientUnits="userSpaceOnUse">
<stop stop-color="#FF85B8"/>
<stop offset="0.509615" stop-color="#AB35CF"/>
<stop offset="1" stop-color="#B583F2"/>
</linearGradient>
<linearGradient id="paint7_linear_983_1178" x1="437.78" y1="141.686" x2="219.896" y2="141.686" gradientUnits="userSpaceOnUse">
<stop stop-color="#FF85B8"/>
<stop offset="0.509615" stop-color="#AB35CF"/>
<stop offset="1" stop-color="#B583F2"/>
</linearGradient>
<linearGradient id="paint8_linear_983_1178" x1="410.84" y1="141.627" x2="269.406" y2="141.627" gradientUnits="userSpaceOnUse">
<stop stop-color="#FF85B8"/>
<stop offset="0.509615" stop-color="#AB35CF"/>
<stop offset="1" stop-color="#B583F2"/>
</linearGradient>
<linearGradient id="paint9_linear_983_1178" x1="36.4957" y1="219.629" x2="64.1825" y2="224.421" gradientUnits="userSpaceOnUse">
<stop/>
<stop offset="1" stop-color="#00096F"/>
</linearGradient>
<linearGradient id="paint10_linear_983_1178" x1="36.4957" y1="263.629" x2="64.1825" y2="268.421" gradientUnits="userSpaceOnUse">
<stop/>
<stop offset="1" stop-color="#00096F"/>
</linearGradient>
<linearGradient id="paint11_linear_983_1178" x1="36.4957" y1="307.629" x2="64.1825" y2="312.421" gradientUnits="userSpaceOnUse">
<stop/>
<stop offset="1" stop-color="#00096F"/>
</linearGradient>
<linearGradient id="paint12_linear_983_1178" x1="36.4957" y1="351.629" x2="64.1825" y2="356.421" gradientUnits="userSpaceOnUse">
<stop/>
<stop offset="1" stop-color="#00096F"/>
</linearGradient>
</defs>
</svg>
