<svg width="450" height="434" viewBox="0 0 450 434" fill="none" xmlns="http://www.w3.org/2000/svg">
<g filter="url(#filter0_i_983_1178)">
<rect width="450" height="434" rx="15" fill="white"/>
</g>
<rect x="0.5" y="0.5" width="449" height="433" rx="14.5" stroke="url(#paint0_linear_983_1178)"/>
<path d="M69.0703 58.0469V93.5938H64.3047V75.7812H61.2969V91.9531H56.5703V81.7578L53.7578 85.5078C50.457 83.7695 48.3281 80.8203 47.0781 77.1484C45.8867 81.3672 43.7773 84.7852 40.3984 86.7969L37.3125 82.9688C42.7031 79.9219 44.5391 73.6328 44.5391 66.8359V65.7031H38.5234V61.7188H54.8125V65.7031H49.3828V66.8359C49.3828 73.0273 51.2188 78.9258 56.5703 81.6797V58.5547H61.2969V71.7188H64.3047V58.0469H69.0703ZM102.742 58.0859V84.9219H97.7422V82.1094H90.9453V78.7109H97.7422V58.0859H102.742ZM103.523 88.9844V92.9688H77.0391V82.3438H82V77.6172C78.8164 77.7539 75.7891 77.7734 73.0938 77.7734L72.5078 73.8281C79.0312 73.7891 87.8203 73.7109 95.3203 72.7734L95.5938 76.3281C92.7812 76.7969 89.8711 77.1289 87 77.3438V84.1016H82V88.9844H103.523ZM84.0703 59.2969C89.2266 59.2578 92.9375 61.875 92.9375 65.6641C92.9375 69.4531 89.2266 71.9141 84.0703 71.9141C78.7969 71.9141 75.125 69.4531 75.125 65.6641C75.125 61.875 78.7578 59.2578 84.0703 59.2969ZM84.0703 62.9297C81.5312 62.9297 79.8125 63.9062 79.8516 65.6641C79.8125 67.3828 81.5312 68.3203 84.0703 68.3203C86.4531 68.3203 88.1719 67.3828 88.2109 65.6641C88.1719 63.9062 86.4531 62.9297 84.0703 62.9297ZM118.562 64.375C118.562 68.2031 120.555 72.0312 125.281 73.8281L122.625 77.6172C119.598 76.4648 117.508 74.3555 116.219 71.7188C114.93 74.8047 112.703 77.3828 109.383 78.75L106.688 74.9219C111.688 72.7344 113.719 68.3594 113.719 64.375V60.1953H118.562V64.375ZM137.742 58.0859V79.8047H133.016V70.7812H130.047V78.7109H125.398V58.7109H130.047V66.7578H133.016V58.0859H137.742ZM125.594 80.3125C133.094 80.3125 137.898 82.8125 137.938 86.9531C137.898 91.0938 133.094 93.5938 125.594 93.5938C118.055 93.5938 113.289 91.0938 113.289 86.9531C113.289 82.8125 118.055 80.3125 125.594 80.3125ZM125.594 84.0234C120.945 84.0234 118.25 85.0391 118.289 86.9531C118.25 88.8672 120.945 89.8438 125.594 89.8438C130.203 89.8438 132.898 88.8672 132.898 86.9531C132.898 85.0391 130.203 84.0234 125.594 84.0234ZM172.586 58.0469V93.5938H167.82V58.0469H172.586ZM165.164 58.5547V91.9531H160.477V75.1562H157.625C157.156 82.1484 154.188 86.3672 149.812 86.3672C145.125 86.3672 142.078 81.4453 142.078 73.4375C142.078 65.4688 145.125 60.5859 149.812 60.5859C154.09 60.5859 157.02 64.5703 157.586 71.2109H160.477V58.5547H165.164ZM149.812 65.2734C147.82 65.2734 146.648 68.0078 146.688 73.4375C146.648 78.9062 147.82 81.6016 149.812 81.5625C151.844 81.6016 153.055 78.9062 153.055 73.4375C153.055 68.0078 151.844 65.2734 149.812 65.2734ZM207.156 58.0469V93.5938H202.469V58.0469H207.156ZM199.578 58.8281V92.0312H194.93V75.7031H189.109C187.078 79.7656 183.777 83.2812 178.719 86.2109L175.906 82.6953C183.074 78.4375 186.238 73.2617 186.922 66.2891H177.859V62.2656H191.883C191.863 65.6445 191.512 68.8281 190.672 71.7578H194.93V58.8281H199.578ZM238.758 68.6328V71.9141H252.625V75.8984H220.086V71.9141H233.836V68.6328H238.758ZM249.617 58.9062V62.6953H240.047C241.062 64.7461 244.637 66.6016 251.141 66.9531L249.578 70.6641C242.723 70.1953 238.152 68.0078 236.336 64.8047C234.5 67.9883 229.93 70.1953 223.094 70.6641L221.492 66.9531C227.879 66.6016 231.531 64.7266 232.586 62.6953H223.094V58.9062H249.617ZM249.539 79.5312V83.2422H223.055V79.5312H233.797V76.875H238.797V79.5312H249.539ZM236.258 84.2969C243.133 84.2969 247.234 85.9375 247.234 88.9844C247.234 92.0703 243.133 93.7109 236.258 93.7109C229.305 93.7109 225.359 92.0703 225.359 88.9844C225.359 85.9375 229.305 84.2969 236.258 84.2969ZM236.258 87.5781C232.43 87.6172 230.477 87.9688 230.477 88.9844C230.477 89.9609 232.43 90.4297 236.258 90.4297C240.125 90.4297 242 89.9609 242.039 88.9844C242 87.9688 240.125 87.6172 236.258 87.5781ZM287.117 76.2109V80.1953H254.695V76.2109H287.117ZM283.445 88.9844V92.9688H258.602V82.5781H263.602V88.9844H283.445ZM270.906 59.1406C278.68 59.1016 283.797 61.875 283.836 66.4062C283.797 70.9375 278.68 73.75 270.906 73.75C263.055 73.75 257.938 70.9375 257.938 66.4062C257.938 61.875 263.055 59.1016 270.906 59.1406ZM270.906 63.0469C265.984 63.0859 263.094 64.2578 263.133 66.4062C263.094 68.6328 265.984 69.7266 270.906 69.7266C275.828 69.7266 278.68 68.6328 278.68 66.4062C278.68 64.2578 275.828 63.0859 270.906 63.0469ZM328.25 58.0469V93.6719H323.211V58.0469H328.25ZM308.953 60.5469C314.305 60.5469 318.289 65.4688 318.289 73.2031C318.289 81.0156 314.305 85.8984 308.953 85.8984C303.484 85.8984 299.5 81.0156 299.539 73.2031C299.5 65.4688 303.484 60.5469 308.953 60.5469ZM308.953 65.0391C306.18 65.0391 304.344 67.9297 304.344 73.2031C304.344 78.5156 306.18 81.3672 308.953 81.3672C311.648 81.3672 313.484 78.5156 313.484 73.2031C313.484 67.9297 311.648 65.0391 308.953 65.0391ZM365.555 77.8125V81.8359H357.938V93.5938H352.859V81.8359H345.594V93.5938H340.477V81.8359H333.016V77.8125H365.555ZM349.188 59.2188C356.805 59.2188 362.156 62.3828 362.156 67.2656C362.156 72.0703 356.805 75.0781 349.188 75.0781C341.57 75.0781 336.258 72.0703 336.297 67.2656C336.258 62.3828 341.57 59.2188 349.188 59.2188ZM349.188 63.2031C344.422 63.2031 341.375 64.6484 341.414 67.2656C341.375 69.7656 344.422 71.1719 349.188 71.1719C353.992 71.1719 357 69.7656 357 67.2656C357 64.6484 353.992 63.2031 349.188 63.2031Z" fill="url(#paint1_linear_983_1178)"/>
<path d="M82.6074 224.641V236.027H80.9102V231.021H77.0645V229.625H80.9102V224.641H82.6074ZM76.2695 236.629C80.2441 236.629 82.6719 237.918 82.6719 240.174C82.6719 242.43 80.2441 243.719 76.2695 243.74C72.2949 243.719 69.8672 242.43 69.8672 240.174C69.8672 237.918 72.2949 236.629 76.2695 236.629ZM76.2695 237.939C73.3477 237.939 71.5215 238.777 71.543 240.174C71.5215 241.549 73.3477 242.387 76.2695 242.387C79.1914 242.387 80.9961 241.549 80.9961 240.174C80.9961 238.777 79.1914 237.939 76.2695 237.939ZM73.4121 228.143C73.4121 230.635 75.3242 232.998 78.1172 233.965L77.2363 235.318C75.0879 234.545 73.4229 232.944 72.6172 230.957C71.7793 233.202 70.0068 234.996 67.7402 235.855L66.8594 234.502C69.6953 233.471 71.7148 230.893 71.7148 228.164V227.455H67.3965V226.037H77.6875V227.455H73.4121V228.143ZM100.783 225.887V227.348C100.783 229.066 100.783 231.193 100.246 234.223H103.189V235.619H98.5918V243.74H96.916V235.619H92.0176V243.74H90.3418V235.619H85.7871V234.223H98.5273C99.1504 231.215 99.1504 229.056 99.1504 227.348V227.283H88.0215V225.887H100.783ZM119.904 226.424C119.904 229.109 123.428 231.451 126.865 231.924L126.178 233.299C123.213 232.805 120.28 231.161 119.045 228.809C117.82 231.172 114.877 232.805 111.912 233.299L111.225 231.924C114.662 231.451 118.164 229.152 118.164 226.424V225.328H119.904V226.424ZM127.725 235.404V236.822H119.818V243.74H118.164V236.822H110.322V235.404H127.725ZM134.6 225.543C137.167 225.521 139.111 227.015 139.477 229.217H143.473V224.641H145.17V234.889H143.473V230.613H139.498C139.154 232.869 137.188 234.373 134.6 234.373C131.699 234.373 129.637 232.568 129.637 229.947C129.637 227.348 131.699 225.521 134.6 225.543ZM134.6 226.982C132.645 226.961 131.248 228.186 131.248 229.947C131.248 231.688 132.645 232.955 134.6 232.955C136.533 232.955 137.908 231.688 137.908 229.947C137.908 228.186 136.533 226.961 134.6 226.982ZM134.557 235.855V238.283H143.473V235.855H145.17V243.482H132.859V235.855H134.557ZM134.557 242.107H143.473V239.637H134.557V242.107ZM158.941 226.768V227.756C158.92 229.26 158.92 231.795 158.383 235.34L156.686 235.189C157.201 231.988 157.244 229.668 157.244 228.143H149.23V226.768H158.941ZM153.936 232.225V238.025C156.052 237.95 158.222 237.811 160.209 237.574L160.295 238.842C156.277 239.465 151.787 239.551 148.371 239.529L148.156 238.133C149.413 238.122 150.81 238.111 152.281 238.068V232.225H153.936ZM163.088 224.641V232.633H166.182V234.094H163.088V243.74H161.412V224.641H163.088ZM182.811 225.822C182.811 226.467 182.746 227.079 182.639 227.67H187.021V224.641H188.697V234.91H187.021V232.977H181.973V231.537H187.021V229.045H182.23C181.017 232.096 178.062 234.233 173.787 235.34L173.143 233.986C177.88 232.794 180.651 230.398 180.984 227.24H174.109V225.822H182.811ZM177.977 235.877V238.283H187.021V235.877H188.697V243.482H176.279V235.877H177.977ZM177.977 242.129H187.021V239.637H177.977V242.129ZM207.646 224.641V243.74H205.949V224.641H207.646ZM198.945 230.871C198.945 234.072 201.18 237.166 204.059 238.391L203.113 239.701C200.911 238.724 199.042 236.65 198.15 234.115C197.291 236.801 195.433 239.003 193.23 240.045L192.285 238.734C195.121 237.445 197.291 234.223 197.291 230.871V229.346H192.801V227.971H197.27V225.006H198.945V227.971H203.393V229.346H198.945V230.871ZM217.744 230.506C217.744 233.75 220.107 237.037 222.922 238.262L221.977 239.594C219.742 238.573 217.809 236.371 216.928 233.729C216.025 236.532 214.103 238.971 211.922 240.066L210.912 238.734C213.641 237.424 216.025 233.814 216.047 230.506V228.014H211.535V226.617H222.299V228.014H217.744V230.506ZM226.66 224.641V243.74H224.963V224.641H226.66ZM240.775 225.736C243.633 225.736 245.738 227.562 245.738 230.141C245.738 232.74 243.633 234.545 240.775 234.566C237.918 234.545 235.791 232.74 235.812 230.141C235.791 227.562 237.918 225.736 240.775 225.736ZM240.775 227.154C238.906 227.154 237.445 228.422 237.467 230.141C237.445 231.902 238.906 233.17 240.775 233.17C242.666 233.17 244.084 231.902 244.084 230.141C244.084 228.422 242.666 227.154 240.775 227.154ZM250.379 224.641V228.959H253.258V230.355H250.379V234.201H248.703V224.641H250.379ZM239.121 236.264V241.828C240.228 241.796 241.699 241.635 243.053 241.184L243.311 242.537C241.441 243.16 239.637 243.225 238.391 243.225H237.488V236.264H239.121ZM252.291 236.35V237.66H242.645V236.35H246.662V234.652H248.316V236.35H252.291ZM247.457 238.305C249.541 238.305 251.023 239.357 251.045 241.012C251.023 242.666 249.541 243.697 247.457 243.697C245.352 243.697 243.891 242.666 243.912 241.012C243.891 239.357 245.352 238.305 247.457 238.305ZM247.457 239.529C246.275 239.529 245.416 240.131 245.416 241.012C245.416 241.914 246.275 242.494 247.457 242.494C248.66 242.494 249.498 241.914 249.498 241.012C249.498 240.131 248.66 239.529 247.457 239.529ZM270.811 224.641V243.74H269.199V224.641H270.811ZM266.793 225.156V242.773H265.182V233.857H261.143C259.972 236.081 258.135 238.047 255.471 239.615L254.482 238.391C258.64 235.931 260.724 232.482 261.035 228.486H255.299V227.09H262.711C262.7 228.97 262.399 230.785 261.766 232.482H265.182V225.156H266.793ZM296.463 234.352V235.748H288.707V239.658H287.01V235.748H278.975V234.352H296.463ZM294.508 241.893V243.332H281.23V237.746H282.928V241.893H294.508ZM287.697 225.135C291.779 225.156 294.422 226.617 294.422 228.98C294.422 231.344 291.779 232.783 287.697 232.783C283.615 232.783 280.951 231.344 280.951 228.98C280.951 226.617 283.615 225.156 287.697 225.135ZM287.697 226.51C284.732 226.51 282.734 227.455 282.756 228.98C282.734 230.463 284.732 231.408 287.697 231.408C290.662 231.408 292.639 230.463 292.639 228.98C292.639 227.455 290.662 226.51 287.697 226.51ZM303.273 225.801C304.885 225.79 306.26 226.392 307.141 227.412H312.146V224.641H313.844V235.963H312.146V233.234H307.162C306.26 234.255 304.885 234.856 303.273 234.846C300.416 234.867 298.311 232.998 298.311 230.334C298.311 227.648 300.416 225.779 303.273 225.801ZM303.273 227.262C301.318 227.24 299.922 228.529 299.922 230.334C299.922 232.117 301.318 233.406 303.273 233.406C305.164 233.406 306.582 232.117 306.582 230.334C306.582 228.529 305.164 227.24 303.273 227.262ZM307.506 236.414C311.459 236.414 313.908 237.746 313.908 240.045C313.908 242.365 311.459 243.697 307.506 243.697C303.531 243.697 301.104 242.365 301.104 240.045C301.104 237.746 303.531 236.414 307.506 236.414ZM307.506 237.725C304.584 237.725 302.758 238.605 302.758 240.045C302.758 241.484 304.584 242.344 307.506 242.344C310.449 242.344 312.254 241.484 312.254 240.045C312.254 238.605 310.449 237.725 307.506 237.725ZM307.957 228.787C308.118 229.26 308.215 229.775 308.215 230.334C308.215 230.871 308.118 231.376 307.957 231.838H312.146V228.787H307.957ZM84.2402 279.984V281.359H76.2695V287.74H74.6152V281.359H66.752V279.984H84.2402ZM70.6621 269.436V272.078H80.2871V269.436H81.9844V277.664H68.9863V269.436H70.6621ZM70.6621 276.289H80.2871V273.453H70.6621V276.289ZM101.643 269.436V270.811H95.584C95.6055 272.98 98.8496 274.699 102.223 275.086L101.6 276.418C98.4736 276.021 95.541 274.624 94.4883 272.486C93.4463 274.624 90.5244 276.021 87.3984 276.418L86.7754 275.086C90.127 274.699 93.3496 272.98 93.3926 270.811H87.377V269.436H101.643ZM103.254 278.244V279.641H85.7871V278.244H93.6504V275.344H95.3047V278.244H103.254ZM101.041 281.531V287.74H99.3438V282.906H87.7207V281.531H101.041ZM119.732 268.662V274.957H122.611V276.375H119.732V282.971H118.057V268.662H119.732ZM116.23 271.004V272.379H104.844V271.004H109.699V268.662H111.375V271.004H116.23ZM110.537 273.432C113.266 273.432 115.113 274.828 115.135 276.998C115.113 279.146 113.266 280.521 110.537 280.521C107.787 280.521 105.918 279.146 105.939 276.998C105.918 274.828 107.787 273.432 110.537 273.432ZM110.537 274.764C108.732 274.764 107.529 275.645 107.551 276.998C107.529 278.352 108.732 279.211 110.537 279.189C112.32 279.211 113.523 278.352 113.545 276.998C113.523 275.645 112.32 274.764 110.537 274.764ZM120.613 285.914V287.332H107.787V281.832H109.441V285.914H120.613ZM134.6 269.801C136.211 269.79 137.586 270.392 138.467 271.412H143.473V268.641H145.17V279.963H143.473V277.234H138.488C137.586 278.255 136.211 278.856 134.6 278.846C131.742 278.867 129.637 276.998 129.637 274.334C129.637 271.648 131.742 269.779 134.6 269.801ZM134.6 271.262C132.645 271.24 131.248 272.529 131.248 274.334C131.248 276.117 132.645 277.406 134.6 277.406C136.49 277.406 137.908 276.117 137.908 274.334C137.908 272.529 136.49 271.24 134.6 271.262ZM138.832 280.414C142.785 280.414 145.234 281.746 145.234 284.045C145.234 286.365 142.785 287.697 138.832 287.697C134.857 287.697 132.43 286.365 132.43 284.045C132.43 281.746 134.857 280.414 138.832 280.414ZM138.832 281.725C135.91 281.725 134.084 282.605 134.084 284.045C134.084 285.484 135.91 286.344 138.832 286.344C141.775 286.344 143.58 285.484 143.58 284.045C143.58 282.605 141.775 281.725 138.832 281.725ZM139.283 272.787C139.444 273.26 139.541 273.775 139.541 274.334C139.541 274.871 139.444 275.376 139.283 275.838H143.473V272.787H139.283ZM164.184 280.951V287.74H162.486V282.305H151.336V280.951H164.184ZM164.184 268.641V279.898H162.486V277.148H157.566C156.675 278.233 155.268 278.878 153.613 278.867C150.756 278.889 148.65 276.998 148.65 274.291C148.65 271.627 150.756 269.736 153.613 269.736C155.257 269.736 156.664 270.381 157.566 271.455H162.486V268.641H164.184ZM153.613 271.176C151.658 271.176 150.262 272.486 150.262 274.291C150.262 276.16 151.658 277.449 153.613 277.449C155.482 277.449 156.922 276.16 156.922 274.291C156.922 272.486 155.482 271.176 153.613 271.176ZM158.318 275.752H162.486V272.852H158.318C158.469 273.303 158.555 273.775 158.555 274.291C158.555 274.807 158.469 275.301 158.318 275.752ZM184.766 278.717V280.092H167.363V278.717H184.766ZM182.832 285.914V287.332H169.619V281.768H171.316V285.914H182.832ZM176.064 269.328C180.168 269.307 182.811 270.725 182.811 273.109C182.811 275.494 180.168 276.912 176.064 276.912C171.918 276.912 169.297 275.494 169.297 273.109C169.297 270.725 171.918 269.307 176.064 269.328ZM176.064 270.682C172.992 270.682 171.016 271.605 171.037 273.109C171.016 274.613 172.992 275.537 176.064 275.537C179.115 275.537 181.092 274.613 181.092 273.109C181.092 271.605 179.115 270.682 176.064 270.682ZM209.387 283.895V285.291H191.898V283.895H199.762V279.77H193.961V269.994H195.658V273.453H205.584V269.994H207.238V279.77H201.416V283.895H209.387ZM195.658 278.395H205.584V274.828H195.658V278.395ZM216.734 269.543C219.527 269.543 221.482 271.047 221.482 273.324C221.482 275.29 219.936 276.719 217.637 276.998V278.867C219.42 278.792 221.235 278.631 222.9 278.373L223.029 279.641C218.99 280.371 214.414 280.414 211.105 280.414L210.891 279.018C212.373 279.028 214.113 279.018 215.939 278.953V277.02C213.576 276.762 211.986 275.322 212.008 273.324C211.986 271.047 213.941 269.543 216.734 269.543ZM216.734 270.854C214.887 270.854 213.576 271.842 213.598 273.324C213.576 274.764 214.887 275.752 216.734 275.773C218.604 275.752 219.871 274.764 219.893 273.324C219.871 271.842 218.604 270.854 216.734 270.854ZM225.822 268.662V275.129H228.68V276.568H225.822V283.271H224.125V268.662H225.822ZM226.51 285.893V287.311H213.684V282.004H215.381V285.893H226.51ZM233.062 284.561L231.387 290.404H229.797L230.979 284.561H233.062ZM249.777 281.832C253.967 281.832 256.33 282.842 256.352 284.775C256.33 286.709 253.967 287.719 249.777 287.74C245.545 287.719 243.182 286.709 243.182 284.775C243.182 282.842 245.545 281.832 249.777 281.832ZM249.777 283.078C246.662 283.078 244.9 283.701 244.9 284.775C244.9 285.871 246.662 286.451 249.777 286.451C252.871 286.451 254.633 285.871 254.633 284.775C254.633 283.701 252.871 283.078 249.777 283.078ZM257.469 270.295V271.605H241.979V270.295H248.939V268.361H250.615V270.295H257.469ZM249.777 272.4C253.73 272.4 255.965 273.367 255.965 275.172C255.965 276.977 253.73 277.922 249.777 277.922C245.824 277.922 243.568 276.977 243.568 275.172C243.568 273.367 245.824 272.4 249.777 272.4ZM249.777 273.582C246.963 273.582 245.352 274.162 245.373 275.172C245.352 276.16 246.963 276.719 249.777 276.719C252.57 276.719 254.182 276.16 254.182 275.172C254.182 274.162 252.57 273.582 249.777 273.582ZM258.479 279.189V280.521H241.076V279.189H258.479ZM270.037 270.531V282.949H261.207V270.531H270.037ZM262.861 271.885V281.574H268.383V271.885H262.861ZM275.838 268.641V287.783H274.141V268.641H275.838ZM289.889 269.801C291.5 269.79 292.875 270.392 293.756 271.412H298.762V268.641H300.459V279.963H298.762V277.234H293.777C292.875 278.255 291.5 278.856 289.889 278.846C287.031 278.867 284.926 276.998 284.926 274.334C284.926 271.648 287.031 269.779 289.889 269.801ZM289.889 271.262C287.934 271.24 286.537 272.529 286.537 274.334C286.537 276.117 287.934 277.406 289.889 277.406C291.779 277.406 293.197 276.117 293.197 274.334C293.197 272.529 291.779 271.24 289.889 271.262ZM294.121 280.414C298.074 280.414 300.523 281.746 300.523 284.045C300.523 286.365 298.074 287.697 294.121 287.697C290.146 287.697 287.719 286.365 287.719 284.045C287.719 281.746 290.146 280.414 294.121 280.414ZM294.121 281.725C291.199 281.725 289.373 282.605 289.373 284.045C289.373 285.484 291.199 286.344 294.121 286.344C297.064 286.344 298.869 285.484 298.869 284.045C298.869 282.605 297.064 281.725 294.121 281.725ZM294.572 272.787C294.733 273.26 294.83 273.775 294.83 274.334C294.83 274.871 294.733 275.376 294.572 275.838H298.762V272.787H294.572ZM319.473 280.951V287.74H317.775V282.305H306.625V280.951H319.473ZM319.473 268.641V279.898H317.775V277.148H312.855C311.964 278.233 310.557 278.878 308.902 278.867C306.045 278.889 303.939 276.998 303.939 274.291C303.939 271.627 306.045 269.736 308.902 269.736C310.546 269.736 311.953 270.381 312.855 271.455H317.775V268.641H319.473ZM308.902 271.176C306.947 271.176 305.551 272.486 305.551 274.291C305.551 276.16 306.947 277.449 308.902 277.449C310.771 277.449 312.211 276.16 312.211 274.291C312.211 272.486 310.771 271.176 308.902 271.176ZM313.607 275.752H317.775V272.852H313.607C313.758 273.303 313.844 273.775 313.844 274.291C313.844 274.807 313.758 275.301 313.607 275.752ZM340.055 278.717V280.092H322.652V278.717H340.055ZM338.121 285.914V287.332H324.908V281.768H326.605V285.914H338.121ZM331.354 269.328C335.457 269.307 338.1 270.725 338.1 273.109C338.1 275.494 335.457 276.912 331.354 276.912C327.207 276.912 324.586 275.494 324.586 273.109C324.586 270.725 327.207 269.307 331.354 269.328ZM331.354 270.682C328.281 270.682 326.305 271.605 326.326 273.109C326.305 274.613 328.281 275.537 331.354 275.537C334.404 275.537 336.381 274.613 336.381 273.109C336.381 271.605 334.404 270.682 331.354 270.682ZM362.098 268.662V274.441H364.955V275.859H362.098V281.467H360.4V268.662H362.098ZM347.102 279.512C348.627 279.512 350.41 279.512 352.279 279.447V278.051C350.056 277.857 348.627 276.815 348.627 275.236C348.627 273.496 350.41 272.422 353.096 272.422C355.803 272.422 357.564 273.496 357.586 275.236C357.564 276.805 356.168 277.847 353.955 278.051V279.383C355.738 279.297 357.543 279.157 359.219 278.91L359.369 280.135C355.223 280.865 350.646 280.887 347.295 280.887L347.102 279.512ZM362.098 282.412V287.74H360.4V283.766H349.443V282.412H362.098ZM358.639 270.402V271.691H347.574V270.402H352.279V268.49H353.955V270.402H358.639ZM353.096 273.625C351.334 273.604 350.238 274.227 350.238 275.236C350.238 276.225 351.334 276.912 353.096 276.891C354.857 276.912 355.975 276.225 355.975 275.236C355.975 274.227 354.857 273.604 353.096 273.625ZM372.668 272.271C372.668 274.764 374.537 276.998 377.352 277.922L376.557 279.254C374.354 278.534 372.689 277.009 371.873 275.086C371.046 277.277 369.284 278.985 366.996 279.812L366.137 278.459C368.994 277.492 370.992 275.021 371.014 272.271V271.455H366.652V270.059H376.965V271.455H372.668V272.271ZM381.133 268.641V273.518H384.012V274.936H381.133V280.178H379.457V268.641H381.133ZM375.01 280.693C378.941 280.693 381.305 281.982 381.305 284.174C381.305 286.408 378.941 287.697 375.01 287.697C371.078 287.697 368.672 286.408 368.672 284.174C368.672 281.982 371.078 280.693 375.01 280.693ZM375.01 282.047C372.131 282.047 370.348 282.842 370.369 284.174C370.348 285.549 372.131 286.344 375.01 286.344C377.91 286.344 379.672 285.549 379.672 284.174C379.672 282.842 377.91 282.047 375.01 282.047ZM71.9082 314.123C73.6592 314.134 75.0771 315.154 75.9043 316.916H80.9316V312.641H82.6074V331.783H80.9316V324.371H76.0332C75.2275 326.305 73.7559 327.422 71.9082 327.422C69.0938 327.422 67.1172 324.844 67.1172 320.783C67.1172 316.723 69.0938 314.145 71.9082 314.123ZM71.9082 315.627C70.0176 315.648 68.7285 317.668 68.7285 320.783C68.7285 323.898 70.0176 325.918 71.9082 325.918C73.7773 325.918 75.0879 323.898 75.0879 320.783C75.0879 317.668 73.7773 315.648 71.9082 315.627ZM76.3984 318.334C76.5703 319.075 76.6777 319.892 76.6777 320.783C76.6777 321.567 76.5918 322.309 76.4629 322.975H80.9316V318.334H76.3984ZM102.008 312.641V324.736H100.396V319.258H97.8398V324.049H96.25V313.027H97.8398V317.861H100.396V312.641H102.008ZM95.4766 314.939V316.293H85.6797V314.939H89.7617V312.791H91.4375V314.939H95.4766ZM90.5996 317.324C93.0273 317.324 94.6816 318.592 94.7031 320.59C94.6816 322.545 93.0273 323.834 90.5996 323.834C88.1934 323.834 86.4961 322.545 86.5176 320.59C86.4961 318.592 88.1934 317.324 90.5996 317.324ZM90.5996 318.57C89.0742 318.57 88.0215 319.387 88.0215 320.59C88.0215 321.771 89.0742 322.566 90.5996 322.566C92.125 322.566 93.1777 321.771 93.1777 320.59C93.1777 319.387 92.125 318.57 90.5996 318.57ZM95.6914 325.059C99.709 325.059 102.115 326.262 102.115 328.41C102.115 330.494 99.709 331.697 95.6914 331.697C91.6738 331.697 89.2676 330.494 89.2891 328.41C89.2676 326.262 91.6738 325.059 95.6914 325.059ZM95.6914 326.391C92.7266 326.369 90.9434 327.1 90.9648 328.41C90.9434 329.656 92.7266 330.387 95.6914 330.387C98.6562 330.387 100.418 329.656 100.439 328.41C100.418 327.1 98.6562 326.369 95.6914 326.391ZM111.053 313.715L106.025 332.342H104.35L109.355 313.715H111.053ZM127.982 312.641V322.416H126.285V320.418H121.193V319.086H126.285V316.787H121.473C120.27 319.806 117.305 321.836 113.072 322.846L112.471 321.449C117.154 320.364 119.883 318.076 120.205 315.004H113.438V313.607H122.053C122.053 314.241 121.988 314.854 121.881 315.434H126.285V312.641H127.982ZM127.982 323.275V327.938H117.326V330.172H128.627V331.568H115.65V326.648H126.285V324.65H115.607V323.275H127.982ZM137.672 315.713C137.672 318.355 139.627 320.783 142.398 321.729L141.475 323.082C139.348 322.298 137.693 320.665 136.877 318.635C136.071 320.891 134.353 322.652 132.107 323.533L131.184 322.137C134.084 321.105 135.996 318.592 136.018 315.648V313.629H137.672V315.713ZM146.996 324.994V331.74H145.299V326.348H134.148V324.994H146.996ZM146.996 312.641V323.941H145.299V318.076H141.045V316.658H145.299V312.641H146.996ZM162.486 317.775C162.465 321.256 164.85 324.779 167.664 326.047L166.633 327.379C164.463 326.315 162.583 324.07 161.67 321.342C160.778 324.231 158.898 326.638 156.664 327.766L155.59 326.348C158.426 325.037 160.789 321.406 160.811 317.775V314.295H162.486V317.775ZM171.445 312.641V331.783H169.748V312.641H171.445ZM189.879 315.348C189.857 317.904 193.273 320.074 196.604 320.568L195.98 321.9C192.994 321.396 190.094 319.806 188.934 317.496C187.773 319.806 184.862 321.396 181.93 321.9L181.264 320.568C184.572 320.074 187.988 317.904 187.988 315.348V315.219H181.865V313.844H195.98V315.219H189.879V315.348ZM197.635 323.533V324.93H189.729V331.74H188.074V324.93H180.232V323.533H197.635ZM214.178 312.641V316.787H217.057V318.205H214.178V322.373H212.502V312.641H214.178ZM208.893 313.736V321.363H200.062V313.736H208.893ZM201.717 315.111V320.01H207.26V315.111H201.717ZM214.178 323.275V327.938H203.693V330.129H214.887V331.482H202.039V326.648H212.502V324.629H201.996V323.275H214.178ZM241.27 327.895V329.291H223.781V327.895H231.645V323.77H225.844V313.994H227.541V317.453H237.467V313.994H239.121V323.77H233.299V327.895H241.27ZM227.541 322.395H237.467V318.828H227.541V322.395ZM260.197 322.094V323.447H252.312V325.381C255.954 325.531 258.049 326.638 258.07 328.539C258.049 330.602 255.643 331.697 251.496 331.697C247.35 331.697 244.9 330.602 244.9 328.539C244.9 326.638 247.017 325.542 250.658 325.381V323.447H242.795V322.094H260.197ZM252.312 312.598V314.51H258.436V315.885H252.441C252.603 318.001 255.61 319.419 259.166 319.752L258.65 321.062C255.481 320.729 252.656 319.602 251.496 317.668C250.325 319.602 247.489 320.729 244.342 321.062L243.805 319.752C247.36 319.419 250.368 318.001 250.572 315.885H244.6V314.51H250.658V312.598H252.312ZM251.496 326.648C248.402 326.648 246.598 327.336 246.619 328.539C246.598 329.742 248.402 330.408 251.496 330.387C254.547 330.408 256.373 329.742 256.373 328.539C256.373 327.336 254.547 326.648 251.496 326.648ZM283.658 312.641V331.74H282.047V312.641H283.658ZM279.791 313.113V330.752H278.201V320.912H274.979V319.537H278.201V313.113H279.791ZM272.938 318.098C272.938 321.406 274.42 324.693 277.062 326.219L276.031 327.465C274.151 326.337 272.819 324.274 272.164 321.836C271.466 324.468 270.08 326.713 268.168 327.916L267.094 326.648C269.758 325.059 271.305 321.578 271.305 318.098V316.293H267.631V314.896H276.439V316.293H272.938V318.098ZM294.98 324.715C299.084 324.715 301.684 326.004 301.684 328.217C301.684 330.408 299.084 331.697 294.98 331.697C290.898 331.697 288.299 330.408 288.299 328.217C288.299 326.004 290.898 324.715 294.98 324.715ZM294.98 326.004C291.93 326.025 289.953 326.863 289.975 328.217C289.953 329.549 291.93 330.365 294.98 330.365C298.031 330.365 299.986 329.549 300.008 328.217C299.986 326.863 298.031 326.025 294.98 326.004ZM301.533 313.629V315.24C301.533 316.787 301.533 318.334 300.996 320.311L299.342 320.117C299.857 318.141 299.857 316.744 299.857 315.24V315.004H288.428V313.629H301.533ZM303.746 321.557V322.932H286.365V321.557H293.562V317.861H295.217V321.557H303.746ZM72.0371 357.801C73.6484 357.79 75.0234 358.392 75.9043 359.412H80.9102V356.641H82.6074V367.963H80.9102V365.234H75.9258C75.0234 366.255 73.6484 366.856 72.0371 366.846C69.1797 366.867 67.0742 364.998 67.0742 362.334C67.0742 359.648 69.1797 357.779 72.0371 357.801ZM72.0371 359.262C70.082 359.24 68.6855 360.529 68.6855 362.334C68.6855 364.117 70.082 365.406 72.0371 365.406C73.9277 365.406 75.3457 364.117 75.3457 362.334C75.3457 360.529 73.9277 359.24 72.0371 359.262ZM76.2695 368.414C80.2227 368.414 82.6719 369.746 82.6719 372.045C82.6719 374.365 80.2227 375.697 76.2695 375.697C72.2949 375.697 69.8672 374.365 69.8672 372.045C69.8672 369.746 72.2949 368.414 76.2695 368.414ZM76.2695 369.725C73.3477 369.725 71.5215 370.605 71.5215 372.045C71.5215 373.484 73.3477 374.344 76.2695 374.344C79.2129 374.344 81.0176 373.484 81.0176 372.045C81.0176 370.605 79.2129 369.725 76.2695 369.725ZM76.7207 360.787C76.8818 361.26 76.9785 361.775 76.9785 362.334C76.9785 362.871 76.8818 363.376 76.7207 363.838H80.9102V360.787H76.7207ZM90.9219 358.123C93.5215 358.145 95.3906 360.368 95.6699 363.945H99.9453V356.641H101.621V375.783H99.9453V365.342H95.6914C95.4873 369.08 93.5859 371.422 90.9219 371.422C88.1074 371.422 86.1309 368.844 86.1309 364.783C86.1309 360.723 88.1074 358.145 90.9219 358.123ZM90.9219 359.627C89.0312 359.648 87.7422 361.668 87.7422 364.783C87.7422 367.898 89.0312 369.918 90.9219 369.918C92.791 369.918 94.1016 367.898 94.1016 364.783C94.1016 361.668 92.791 359.648 90.9219 359.627ZM114.211 368.113V370.348H123.75V368.113H125.447V375.482H112.535V368.113H114.211ZM114.211 374.129H123.75V371.68H114.211V374.129ZM127.725 365.363V366.76H110.322V365.363H127.725ZM119.904 357.758C119.904 360.121 123.385 362.227 126.736 362.656L126.113 364.01C123.148 363.569 120.248 362.055 119.045 359.906C117.82 362.065 114.898 363.569 111.955 364.01L111.311 362.656C114.705 362.205 118.164 360.186 118.164 357.758V356.855H119.904V357.758ZM146.76 365.943V367.34H129.336V365.943H146.76ZM144.611 369.639V375.848H142.936V371.014H131.27V369.639H144.611ZM144.762 362.441V363.816H131.549V357.393H144.59V358.768H133.225V362.441H144.762ZM160.166 357.586C163.023 357.564 165.064 359.133 165.064 361.475C165.064 363.795 163.023 365.406 160.166 365.385C157.309 365.406 155.268 363.795 155.268 361.475C155.268 359.133 157.309 357.564 160.166 357.586ZM160.166 358.961C158.254 358.939 156.9 359.992 156.922 361.475C156.9 362.979 158.254 364.01 160.166 363.988C162.1 364.01 163.453 362.979 163.453 361.475C163.453 359.992 162.1 358.939 160.166 358.961ZM169.619 356.662V375.762H167.965V356.662H169.619ZM153.828 367.018C157.416 367.018 162.314 366.953 166.568 366.33L166.676 367.598C164.85 367.931 162.948 368.135 161.111 368.242V375.16H159.436V368.35C157.491 368.436 155.654 368.446 154.064 368.457L153.828 367.018ZM187.816 356.662V362.957H190.695V364.375H187.816V370.971H186.141V356.662H187.816ZM184.314 359.004V360.379H172.928V359.004H177.783V356.662H179.459V359.004H184.314ZM178.621 361.432C181.35 361.432 183.197 362.828 183.219 364.998C183.197 367.146 181.35 368.521 178.621 368.521C175.871 368.521 174.002 367.146 174.023 364.998C174.002 362.828 175.871 361.432 178.621 361.432ZM178.621 362.764C176.816 362.764 175.613 363.645 175.635 364.998C175.613 366.352 176.816 367.211 178.621 367.189C180.404 367.211 181.607 366.352 181.629 364.998C181.607 363.645 180.404 362.764 178.621 362.764ZM188.697 373.914V375.332H175.871V369.832H177.525V373.914H188.697ZM212.33 356.641V363.344H215.188V364.762H212.33V371.594H210.633V356.641H212.33ZM213.018 373.914V375.332H200.191V370.584H201.889V373.914H213.018ZM197.334 368.006C198.849 368.006 200.643 367.995 202.512 367.92V366.459C200.288 366.255 198.859 365.191 198.859 363.58C198.859 361.732 200.643 360.637 203.328 360.637C206.035 360.637 207.797 361.732 207.818 363.58C207.797 365.181 206.4 366.244 204.188 366.459V367.834C205.981 367.748 207.786 367.576 209.451 367.318L209.602 368.521C205.498 369.295 200.879 369.359 197.527 369.381L197.334 368.006ZM208.871 358.531V359.799H197.807V358.531H202.512V356.598H204.188V358.531H208.871ZM203.328 361.84C201.566 361.84 200.471 362.506 200.471 363.58C200.471 364.633 201.566 365.299 203.328 365.299C205.09 365.299 206.207 364.633 206.207 363.58C206.207 362.506 205.09 361.84 203.328 361.84ZM232.268 356.662V368.135H230.57V365.557H225.5V364.16H230.57V361.582H225.693C224.437 364.654 221.482 366.878 217.4 368.092L216.691 366.76C221.311 365.385 224.179 362.807 224.533 359.498H217.658V358.08H226.359C226.359 358.832 226.273 359.552 226.123 360.229H230.57V356.662H232.268ZM226.016 368.328C229.883 368.328 232.375 369.703 232.375 371.98C232.375 374.279 229.883 375.654 226.016 375.654C222.105 375.654 219.635 374.279 219.635 371.98C219.635 369.703 222.105 368.328 226.016 368.328ZM226.016 369.682C223.137 369.66 221.289 370.541 221.289 371.98C221.289 373.42 223.137 374.279 226.016 374.279C228.852 374.279 230.678 373.42 230.699 371.98C230.678 370.541 228.852 369.66 226.016 369.682ZM246.039 358.768V359.756C246.018 361.26 246.018 363.795 245.48 367.34L243.783 367.189C244.299 363.988 244.342 361.668 244.342 360.143H236.328V358.768H246.039ZM241.033 364.225V370.025C243.149 369.95 245.319 369.811 247.307 369.574L247.393 370.842C243.375 371.465 238.885 371.551 235.469 371.529L235.254 370.133C236.511 370.122 237.907 370.111 239.379 370.068V364.225H241.033ZM250.186 356.641V364.633H253.279V366.094H250.186V375.74H248.51V356.641H250.186ZM275.773 356.641V375.74H274.076V356.641H275.773ZM270.123 358.725C270.102 364.225 267.545 369.08 261.143 372.152L260.219 370.777C265.386 368.328 268.018 364.665 268.404 360.1H261.1V358.725H270.123ZM294.658 356.641V375.74H292.982V356.641H294.658ZM279.104 370.648C280.736 370.638 282.605 370.627 284.539 370.562V368.479C282.251 368.231 280.758 366.932 280.779 365.02C280.758 362.871 282.605 361.475 285.355 361.475C288.105 361.475 289.975 362.871 289.975 365.02C289.975 366.91 288.492 368.21 286.236 368.457V370.498C288.084 370.423 289.953 370.283 291.715 370.047L291.844 371.336C287.59 372.023 282.906 372.088 279.361 372.088L279.104 370.648ZM291.221 359.004V360.379H279.512V359.004H284.539V356.662H286.236V359.004H291.221ZM285.355 362.785C283.594 362.785 282.348 363.688 282.348 365.02C282.348 366.352 283.594 367.211 285.355 367.189C287.139 367.211 288.363 366.352 288.363 365.02C288.363 363.688 287.139 362.785 285.355 362.785ZM318.441 356.662V362.441H321.299V363.859H318.441V369.467H316.744V356.662H318.441ZM303.445 367.512C304.971 367.512 306.754 367.512 308.623 367.447V366.051C306.399 365.857 304.971 364.815 304.971 363.236C304.971 361.496 306.754 360.422 309.439 360.422C312.146 360.422 313.908 361.496 313.93 363.236C313.908 364.805 312.512 365.847 310.299 366.051V367.383C312.082 367.297 313.887 367.157 315.562 366.91L315.713 368.135C311.566 368.865 306.99 368.887 303.639 368.887L303.445 367.512ZM318.441 370.412V375.74H316.744V371.766H305.787V370.412H318.441ZM314.982 358.402V359.691H303.918V358.402H308.623V356.49H310.299V358.402H314.982ZM309.439 361.625C307.678 361.604 306.582 362.227 306.582 363.236C306.582 364.225 307.678 364.912 309.439 364.891C311.201 364.912 312.318 364.225 312.318 363.236C312.318 362.227 311.201 361.604 309.439 361.625ZM338.873 356.641V375.74H337.262V365.729H334.447V374.752H332.9V357.07H334.447V364.332H337.262V356.641H338.873ZM330.408 358.982V360.379H324.93V369.574C327.562 369.563 329.388 369.467 331.504 369.037L331.654 370.455C329.355 370.928 327.4 371.014 324.479 371.014H323.254V358.982H330.408Z" fill="#666666"/>
<path d="M37 192H417" stroke="url(#paint2_linear_983_1178)"/>
<rect x="37.5" y="118.5" width="113" height="46" rx="9.5" fill="white"/>
<rect x="37.5" y="118.5" width="113" height="46" rx="9.5" stroke="url(#paint3_linear_983_1178)"/>
<path d="M64.4609 136.039C64.4609 138.168 65.7695 140.336 68.6992 141.215L67.4297 143.168C65.4375 142.543 64.0312 141.264 63.2305 139.652C62.4199 141.4 60.9746 142.807 58.8945 143.5L57.6055 141.547C60.5547 140.59 61.9219 138.285 61.9219 136.039V135.785H58.2695V133.793H68.0352V135.785H64.4609V136.039ZM72.4102 132.543V145.395H69.9102V132.543H72.4102ZM72.8789 147.992V149.984H60.4961V144.223H63.0156V147.992H72.8789ZM89.3047 140.473V142.445H84.1484V146.234H91.082V148.266H74.8125V146.234H81.668V142.445H76.7266V133.773H89.168V135.766H79.2266V140.473H89.3047ZM112.977 146.195V148.227H96.707V146.195H103.562V142.914H98.4258V133.656H100.926V136.41H108.68V133.656H111.16V142.914H106.043V146.195H112.977ZM100.926 140.922H108.68V138.402H100.926V140.922ZM119.344 133.246C121.941 133.246 123.816 134.711 123.816 136.859C123.816 138.598 122.537 139.926 120.633 140.336V141.625C122.02 141.547 123.416 141.42 124.715 141.234L124.91 143.051C121.258 143.695 117.176 143.773 114.207 143.773L113.953 141.801C115.184 141.801 116.619 141.791 118.133 141.742V140.355C116.17 139.965 114.852 138.627 114.871 136.859C114.852 134.711 116.727 133.246 119.344 133.246ZM119.344 135.121C118.074 135.141 117.176 135.746 117.195 136.859C117.176 137.934 118.074 138.578 119.344 138.578C120.613 138.578 121.473 137.934 121.473 136.859C121.473 135.746 120.613 135.141 119.344 135.121ZM128.211 132.543V138.129H130.477V140.199H128.211V146.098H125.711V132.543H128.211ZM128.816 147.973V149.965H116.297V144.906H118.797V147.973H128.816Z" fill="url(#paint4_linear_983_1178)"/>
<rect x="162.5" y="118.5" width="131" height="46" rx="9.5" fill="white"/>
<rect x="162.5" y="118.5" width="131" height="46" rx="9.5" stroke="url(#paint5_linear_983_1178)"/>
<path d="M197.02 140.473V142.445H191.863V146.234H198.797V148.266H182.527V146.234H189.383V142.445H184.441V133.773H196.883V135.766H186.941V140.473H197.02ZM207.391 134.359V138.988H209.168V132.777H211.512V149.477H209.168V140.98H207.391V145.824H200.32V134.359H207.391ZM202.645 136.332V143.871H205.066V136.332H202.645ZM215.223 132.523V150.297H212.84V132.523H215.223ZM231.98 132.543V145.316H229.48V132.543H231.98ZM232.449 147.992V149.984H220.066V144.027H222.586V147.992H232.449ZM222.234 133.676C224.969 133.676 227.098 135.551 227.098 138.148C227.098 140.805 224.969 142.66 222.234 142.66C219.5 142.66 217.371 140.805 217.371 138.148C217.371 135.551 219.5 133.676 222.234 133.676ZM222.234 135.844C220.848 135.824 219.793 136.703 219.812 138.148C219.793 139.633 220.848 140.492 222.234 140.492C223.582 140.492 224.637 139.633 224.637 138.148C224.637 136.703 223.582 135.824 222.234 135.844ZM253.211 132.543V137.621H255.477V139.672H253.211V144.613H250.711V132.543H253.211ZM238.797 142.328C240.096 142.328 241.58 142.328 243.113 142.289V141.293C241.18 141.02 239.969 140.082 239.988 138.715C239.969 137.074 241.707 136.059 244.344 136.059C246.961 136.059 248.68 137.074 248.699 138.715C248.68 140.082 247.498 141.01 245.594 141.273V142.191C247.059 142.133 248.514 142.016 249.891 141.84L250.066 143.559C246.316 144.223 242.195 144.262 239.051 144.262L238.797 142.328ZM253.211 145.336V150.297H250.711V147.25H241.062V145.336H253.211ZM249.441 133.832V135.648H239.266V133.832H243.113V132.387H245.594V133.832H249.441ZM244.344 137.719C243.074 137.719 242.352 138.031 242.371 138.715C242.352 139.359 243.074 139.73 244.344 139.73C245.594 139.73 246.297 139.359 246.316 138.715C246.297 138.031 245.594 137.719 244.344 137.719ZM266.375 133.715V135.707H262.84C262.859 137.777 264.1 139.779 266.941 140.609L265.75 142.562C263.787 141.967 262.43 140.775 261.648 139.242C260.857 141.039 259.412 142.465 257.273 143.168L256.004 141.195C258.953 140.268 260.281 137.963 260.32 135.707H256.688V133.715H266.375ZM270.379 132.523V136.645H272.781V138.676H270.379V143.07H267.879V132.523H270.379ZM264.559 143.422C268.25 143.402 270.555 144.672 270.555 146.84C270.555 149.008 268.25 150.297 264.559 150.297C260.789 150.297 258.465 149.008 258.465 146.84C258.465 144.672 260.789 143.402 264.559 143.422ZM264.559 145.355C262.215 145.355 260.945 145.844 260.965 146.84C260.945 147.855 262.215 148.363 264.559 148.363C266.863 148.363 268.094 147.855 268.094 146.84C268.094 145.844 266.863 145.355 264.559 145.355Z" fill="url(#paint6_linear_983_1178)"/>
<rect x="304.5" y="118.5" width="113" height="46" rx="9.5" fill="white"/>
<rect x="304.5" y="118.5" width="113" height="46" rx="9.5" stroke="url(#paint7_linear_983_1178)"/>
<path d="M338.902 133.07V138.363H328.961V139.848H339.312V141.84H326.441V136.488H336.344V135.082H326.383V133.07H338.902ZM340.777 143.168V145.16H333.863V150.336H331.363V145.16H324.508V143.168H340.777ZM356.695 132.543V145.688H354.195V132.543H356.695ZM357.164 147.992V149.984H344.781V144.516H347.301V147.992H357.164ZM351.402 133.871V135.863H345.289V137.543H350.875V139.457H345.289V141.156C348.414 141.156 350.396 141.117 352.652 140.746L352.906 142.66C350.367 143.109 348.121 143.148 344.312 143.148H342.789V133.871H351.402ZM379.957 142.406V144.418H376.148V150.297H373.609V144.418H369.977V150.297H367.418V144.418H363.688V142.406H379.957ZM371.773 133.109C375.582 133.109 378.258 134.691 378.258 137.133C378.258 139.535 375.582 141.039 371.773 141.039C367.965 141.039 365.309 139.535 365.328 137.133C365.309 134.691 367.965 133.109 371.773 133.109ZM371.773 135.102C369.391 135.102 367.867 135.824 367.887 137.133C367.867 138.383 369.391 139.086 371.773 139.086C374.176 139.086 375.68 138.383 375.68 137.133C375.68 135.824 374.176 135.102 371.773 135.102ZM387.887 137.367C387.887 140.238 389.352 143.305 392.34 144.555L390.992 146.508C388.893 145.619 387.447 143.852 386.656 141.684C385.846 144.037 384.371 145.99 382.281 146.957L380.855 144.984C383.805 143.676 385.328 140.375 385.328 137.367V136.273H381.559V134.242H391.598V136.273H387.887V137.367ZM395.875 132.523V150.297H393.355V132.523H395.875Z" fill="url(#paint8_linear_983_1178)"/>
<path d="M52.464 219C53.0163 218.044 54.2398 217.715 55.1964 218.268C56.153 218.82 56.4801 220.044 55.9279 221L45.7321 238.66C44.9623 239.994 43.0378 239.994 42.268 238.66L37.2677 230L37.1749 229.817C36.7595 228.893 37.1034 227.785 38.0001 227.268C38.8969 226.75 40.0283 227.006 40.6212 227.828L40.7325 228L44.0001 233.659L52.464 219Z" fill="url(#paint9_linear_983_1178)"/>
<path d="M52.464 263C53.0163 262.044 54.2398 261.715 55.1964 262.268C56.153 262.82 56.4801 264.044 55.9279 265L45.7321 282.66C44.9623 283.994 43.0378 283.994 42.268 282.66L37.2677 274L37.1749 273.817C36.7595 272.893 37.1034 271.785 38.0001 271.268C38.8969 270.75 40.0283 271.006 40.6212 271.828L40.7325 272L44.0001 277.659L52.464 263Z" fill="url(#paint10_linear_983_1178)"/>
<path d="M52.464 307C53.0163 306.044 54.2398 305.715 55.1964 306.268C56.153 306.82 56.4801 308.044 55.9279 309L45.7321 326.66C44.9623 327.994 43.0378 327.994 42.268 326.66L37.2677 318L37.1749 317.817C36.7595 316.893 37.1034 315.785 38.0001 315.268C38.8969 314.75 40.0283 315.006 40.6212 315.828L40.7325 316L44.0001 321.659L52.464 307Z" fill="url(#paint11_linear_983_1178)"/>
<path d="M52.464 351C53.0163 350.044 54.2398 349.715 55.1964 350.268C56.153 350.82 56.4801 352.044 55.9279 353L45.7321 370.66C44.9623 371.994 43.0378 371.994 42.268 370.66L37.2677 362L37.1749 361.817C36.7595 360.893 37.1034 359.785 38.0001 359.268C38.8969 358.75 40.0283 359.006 40.6212 359.828L40.7325 360L44.0001 365.659L52.464 351Z" fill="url(#paint12_linear_983_1178)"/>
<defs>
<filter id="filter0_i_983_1178" x="0" y="0" width="452" height="436" filterUnits="userSpaceOnUse" color-interpolation-filters="sRGB">
<feFlood flood-opacity="0" result="BackgroundImageFix"/>
<feBlend mode="normal" in="SourceGraphic" in2="BackgroundImageFix" result="shape"/>
<feColorMatrix in="SourceAlpha" type="matrix" values="0 0 0 0 0 0 0 0 0 0 0 0 0 0 0 0 0 0 127 0" result="hardAlpha"/>
<feOffset dx="4" dy="4"/>
<feGaussianBlur stdDeviation="1"/>
<feComposite in2="hardAlpha" operator="arithmetic" k2="-1" k3="1"/>
<feColorMatrix type="matrix" values="0 0 0 0 1 0 0 0 0 1 0 0 0 0 1 0 0 0 0.25 0"/>
<feBlend mode="normal" in2="shape" result="effect1_innerShadow_983_1178"/>
</filter>
<linearGradient id="paint0_linear_983_1178" x1="-20.777" y1="-7.95288" x2="294.466" y2="535.571" gradientUnits="userSpaceOnUse">
<stop stop-color="#3182F6"/>
<stop offset="1" stop-color="#A009FF"/>
</linearGradient>
<linearGradient id="paint1_linear_983_1178" x1="482.935" y1="72.6622" x2="-243.346" y2="72.6621" gradientUnits="userSpaceOnUse">
<stop stop-color="#FF8587"/>
<stop offset="0.601054" stop-color="#AB35CF"/>
<stop offset="1" stop-color="#7300FF"/>
</linearGradient>
<linearGradient id="paint2_linear_983_1178" x1="482.935" y1="192.504" x2="-243.346" y2="192.503" gradientUnits="userSpaceOnUse">
<stop stop-color="#FF8587"/>
<stop offset="0.601054" stop-color="#AB35CF"/>
<stop offset="1" stop-color="#7300FF"/>
</linearGradient>
<linearGradient id="paint3_linear_983_1178" x1="170.78" y1="141.686" x2="-47.1039" y2="141.686" gradientUnits="userSpaceOnUse">
<stop stop-color="#FF8587"/>
<stop offset="0.601054" stop-color="#AB35CF"/>
<stop offset="1" stop-color="#7300FF"/>
</linearGradient>
<linearGradient id="paint4_linear_983_1178" x1="143.84" y1="141.627" x2="2.40624" y2="141.627" gradientUnits="userSpaceOnUse">
<stop stop-color="#FF8587"/>
<stop offset="0.601054" stop-color="#AB35CF"/>
<stop offset="1" stop-color="#7300FF"/>
</linearGradient>
<linearGradient id="paint5_linear_983_1178" x1="316.904" y1="141.686" x2="64.6165" y2="141.686" gradientUnits="userSpaceOnUse">
<stop stop-color="#FF8587"/>
<stop offset="0.601054" stop-color="#AB35CF"/>
<stop offset="1" stop-color="#7300FF"/>
</linearGradient>
<linearGradient id="paint6_linear_983_1178" x1="289.963" y1="141.627" x2="114.127" y2="141.627" gradientUnits="userSpaceOnUse">
<stop stop-color="#FF8587"/>
<stop offset="0.601054" stop-color="#AB35CF"/>
<stop offset="1" stop-color="#7300FF"/>
</linearGradient>
<linearGradient id="paint7_linear_983_1178" x1="437.78" y1="141.686" x2="219.896" y2="141.686" gradientUnits="userSpaceOnUse">
<stop stop-color="#FF8587"/>
<stop offset="0.601054" stop-color="#AB35CF"/>
<stop offset="1" stop-color="#7300FF"/>
</linearGradient>
<linearGradient id="paint8_linear_983_1178" x1="410.84" y1="141.627" x2="269.406" y2="141.627" gradientUnits="userSpaceOnUse">
<stop stop-color="#FF8587"/>
<stop offset="0.601054" stop-color="#AB35CF"/>
<stop offset="1" stop-color="#7300FF"/>
</linearGradient>
<linearGradient id="paint9_linear_983_1178" x1="36.4957" y1="219.629" x2="64.1825" y2="224.421" gradientUnits="userSpaceOnUse">
<stop/>
<stop offset="1" stop-color="#00096F"/>
</linearGradient>
<linearGradient id="paint10_linear_983_1178" x1="36.4957" y1="263.629" x2="64.1825" y2="268.421" gradientUnits="userSpaceOnUse">
<stop/>
<stop offset="1" stop-color="#00096F"/>
</linearGradient>
<linearGradient id="paint11_linear_983_1178" x1="36.4957" y1="307.629" x2="64.1825" y2="312.421" gradientUnits="userSpaceOnUse">
<stop/>
<stop offset="1" stop-color="#00096F"/>
</linearGradient>
<linearGradient id="paint12_linear_983_1178" x1="36.4957" y1="351.629" x2="64.1825" y2="356.421" gradientUnits="userSpaceOnUse">
<stop/>
<stop offset="1" stop-color="#00096F"/>
</linearGradient>
</defs>
</svg>
