<svg width="450" height="434" viewBox="0 0 450 434" fill="none" xmlns="http://www.w3.org/2000/svg">
<g filter="url(#filter0_i_983_1177)">
<rect width="450" height="434" rx="15" fill="white"/>
</g>
<rect x="0.5" y="0.5" width="449" height="433" rx="14.5" stroke="url(#paint0_linear_983_1177)"/>
<path d="M85.0977 219.219V229.57H83.5547V225.02H80.0586V223.75H83.5547V219.219H85.0977ZM79.3359 230.117C82.9492 230.117 85.1562 231.289 85.1562 233.34C85.1562 235.391 82.9492 236.562 79.3359 236.582C75.7227 236.562 73.5156 235.391 73.5156 233.34C73.5156 231.289 75.7227 230.117 79.3359 230.117ZM79.3359 231.309C76.6797 231.309 75.0195 232.07 75.0391 233.34C75.0195 234.59 76.6797 235.352 79.3359 235.352C81.9922 235.352 83.6328 234.59 83.6328 233.34C83.6328 232.07 81.9922 231.309 79.3359 231.309ZM76.7383 222.402C76.7383 224.668 78.4766 226.816 81.0156 227.695L80.2148 228.926C78.2617 228.223 76.748 226.768 76.0156 224.961C75.2539 227.002 73.6426 228.633 71.582 229.414L70.7812 228.184C73.3594 227.246 75.1953 224.902 75.1953 222.422V221.777H71.2695V220.488H80.625V221.777H76.7383V222.402ZM101.621 220.352V221.68C101.621 223.242 101.621 225.176 101.133 227.93H103.809V229.199H99.6289V236.582H98.1055V229.199H93.6523V236.582H92.1289V229.199H87.9883V227.93H99.5703C100.137 225.195 100.137 223.232 100.137 221.68V221.621H90.0195V220.352H101.621ZM119.004 220.84C119.004 223.281 122.207 225.41 125.332 225.84L124.707 227.09C122.012 226.641 119.346 225.146 118.223 223.008C117.109 225.156 114.434 226.641 111.738 227.09L111.113 225.84C114.238 225.41 117.422 223.32 117.422 220.84V219.844H119.004V220.84ZM126.113 229.004V230.293H118.926V236.582H117.422V230.293H110.293V229.004H126.113ZM132.363 220.039C134.697 220.02 136.465 221.377 136.797 223.379H140.43V219.219H141.973V228.535H140.43V224.648H136.816C136.504 226.699 134.717 228.066 132.363 228.066C129.727 228.066 127.852 226.426 127.852 224.043C127.852 221.68 129.727 220.02 132.363 220.039ZM132.363 221.348C130.586 221.328 129.316 222.441 129.316 224.043C129.316 225.625 130.586 226.777 132.363 226.777C134.121 226.777 135.371 225.625 135.371 224.043C135.371 222.441 134.121 221.328 132.363 221.348ZM132.324 229.414V231.621H140.43V229.414H141.973V236.348H130.781V229.414H132.324ZM132.324 235.098H140.43V232.852H132.324V235.098ZM164.277 219.238V231.973H162.734V225.312H159.16V224.043H162.734V219.238H164.277ZM164.766 234.922V236.211H153.125V230.82H154.668V234.922H164.766ZM155.918 222.812C155.918 225.059 157.656 227.246 160.195 228.105L159.395 229.336C157.432 228.633 155.918 227.168 155.176 225.371C154.424 227.373 152.822 228.975 150.762 229.746L149.961 228.496C152.52 227.598 154.375 225.312 154.375 222.812V221.914H150.449V220.645H159.805V221.914H155.918V222.812ZM170.02 233.691L168.496 239.004H167.051L168.125 233.691H170.02ZM193.184 229.531V230.781H185.937V236.582H184.434V230.781H177.285V229.531H193.184ZM180.84 219.941V222.344H189.59V219.941H191.133V227.422H179.316V219.941H180.84ZM180.84 226.172H189.59V223.594H180.84V226.172ZM208.164 219.219V223.477H210.781V224.766H208.164V229.082H206.641V219.219H208.164ZM203.105 220.41V221.66H196.934V226.777C200.42 226.797 202.402 226.67 204.727 226.211L204.922 227.461C202.48 227.949 200.41 228.047 196.758 228.047H195.41V220.41H203.105ZM208.164 229.98V236.348H197.207V229.98H208.164ZM198.711 231.23V235.098H206.641V231.23H198.711ZM220.352 229.414V231.582H223.516V229.414H224.941V236.348H218.906V229.414H220.352ZM220.352 235.137H223.516V232.754H220.352V235.137ZM229.902 230.781C229.883 232.617 230.977 234.531 233.105 235.312L232.305 236.484C230.703 235.84 229.648 234.619 229.121 233.164C228.564 234.59 227.51 235.82 225.977 236.484L225.176 235.312C227.266 234.453 228.379 232.539 228.379 230.781V229.297H229.902V230.781ZM221.68 220C224.004 220 225.781 221.318 226.113 223.32H229.746V219.219H231.289V228.418H229.746V224.59H226.133C225.82 226.641 224.033 227.988 221.68 227.988C219.043 227.988 217.168 226.367 217.168 223.984C217.168 221.621 219.043 220 221.68 220ZM221.68 221.289C219.902 221.289 218.633 222.402 218.633 223.984C218.633 225.586 219.902 226.719 221.68 226.719C223.437 226.719 224.687 225.586 224.687 223.984C224.687 222.402 223.437 221.289 221.68 221.289ZM248.223 224.492V225.723H236.328V219.863H237.852V224.492H248.223ZM250.059 228.086V229.336H234.16V228.086H250.059ZM248.32 234.883V236.152H236.23V231.113H237.754V234.883H248.32ZM262.402 222.949C262.402 225.098 264.16 227.09 266.699 227.891L265.977 229.082C263.994 228.447 262.451 227.119 261.68 225.41C260.937 227.324 259.365 228.828 257.305 229.551L256.562 228.32C259.102 227.48 260.898 225.332 260.898 222.949V222.539H256.973V221.289H260.898V219.16H262.441V221.289H266.328V222.539H262.402V222.949ZM270.879 219.219V231.27H269.336V225.449H265.801V224.16H269.336V219.219H270.879ZM266.055 230.449C266.035 232.91 268.867 234.785 271.973 235.293L271.328 236.504C268.711 236.035 266.289 234.678 265.254 232.637C264.209 234.658 261.787 236.035 259.16 236.504L258.594 235.293C261.621 234.766 264.473 232.852 264.492 230.449V230.078H266.055V230.449ZM293.184 219.238V229.668H291.641V227.324H287.031V226.055H291.641V223.711H287.207C286.064 226.504 283.379 228.525 279.668 229.629L279.023 228.418C283.223 227.168 285.83 224.824 286.152 221.816H279.902V220.527H287.812C287.812 221.211 287.734 221.865 287.598 222.48H291.641V219.238H293.184ZM287.5 229.844C291.016 229.844 293.281 231.094 293.281 233.164C293.281 235.254 291.016 236.504 287.5 236.504C283.945 236.504 281.699 235.254 281.699 233.164C281.699 231.094 283.945 229.844 287.5 229.844ZM287.5 231.074C284.883 231.055 283.203 231.855 283.203 233.164C283.203 234.473 284.883 235.254 287.5 235.254C290.078 235.254 291.738 234.473 291.758 233.164C291.738 231.855 290.078 231.055 287.5 231.074ZM310.469 219.219V229.746H308.926V225.781H305.977V224.512H308.926V219.219H310.469ZM310.469 230.684V236.348H299.121V230.684H310.469ZM300.645 231.914V235.098H308.965V231.914H300.645ZM306.23 221.055V222.305H296.094V221.055H300.41V219.062H301.914V221.055H306.23ZM301.152 223.203C303.516 223.203 305.176 224.473 305.195 226.289C305.176 228.164 303.516 229.395 301.152 229.395C298.789 229.395 297.129 228.164 297.129 226.289C297.129 224.473 298.789 223.203 301.152 223.203ZM301.152 224.395C299.648 224.395 298.594 225.176 298.594 226.289C298.594 227.441 299.648 228.203 301.152 228.223C302.656 228.203 303.711 227.441 303.711 226.289C303.711 225.176 302.656 224.395 301.152 224.395ZM84.2773 259.219V264.512H86.8945V265.801H84.2773V271.934H82.7344V259.219H84.2773ZM79.5898 260.566C79.5898 265.039 76.3867 268.359 71.3867 269.922L70.7227 268.691C74.8828 267.393 77.5977 264.912 77.9297 261.855H71.4453V260.566H79.5898ZM85.0781 274.922V276.211H73.3984V270.645H74.9219V274.922H85.0781ZM101.562 259.219V264.395H104.199V265.684H101.562V271.797H100.039V259.219H101.562ZM96.543 260.723V262.012H90.332V267.422C93.8184 267.422 95.8008 267.334 98.125 266.855L98.3203 268.125C95.8789 268.594 93.8086 268.711 90.1562 268.711H88.8086V260.723H96.543ZM102.363 274.922V276.211H90.7031V270.527H92.207V274.922H102.363ZM118.848 259.238V264.961H121.465V266.25H118.848V272.246H117.324V259.238H118.848ZM115.664 261.367V262.617H105.312V261.367H109.727V259.238H111.25V261.367H115.664ZM110.488 263.574C112.969 263.574 114.648 264.844 114.668 266.816C114.648 268.77 112.969 270.02 110.488 270.02C107.988 270.02 106.289 268.77 106.309 266.816C106.289 264.844 107.988 263.574 110.488 263.574ZM110.488 264.785C108.848 264.785 107.754 265.586 107.773 266.816C107.754 268.047 108.848 268.828 110.488 268.809C112.109 268.828 113.203 268.047 113.223 266.816C113.203 265.586 112.109 264.785 110.488 264.785ZM119.648 274.922V276.211H107.988V271.211H109.492V274.922H119.648ZM134.727 261.348V262.578H129.727V266.016H133.926V267.246H129.727V271.152C132.217 271.123 133.74 271.035 135.625 270.684L135.762 271.934C133.75 272.344 132.109 272.383 129.355 272.402H128.262V261.348H134.727ZM142.441 259.219V276.582H140.957V259.219H142.441ZM138.887 259.648V275.684H137.422V267.09H134.863V265.82H137.422V259.648H138.887ZM153.516 261.777C153.516 264.746 156.914 267.402 159.941 267.969L159.238 269.258C156.621 268.652 153.857 266.787 152.734 264.219C151.611 266.777 148.857 268.643 146.23 269.258L145.527 267.969C148.535 267.383 151.914 264.766 151.914 261.777V260.449H153.516V261.777ZM160.762 272.949V274.219H144.863V272.949H160.762ZM176.211 268.613V269.863H164.199V260.723H176.016V262.012H165.762V264.59H175.645V265.82H165.762V268.613H176.211ZM178.047 273.047V274.316H162.148V273.047H178.047ZM195.332 273.145V274.434H179.434V273.145H186.582V269.863H181.426V264.512H191.816V261.777H181.387V260.508H193.32V265.762H182.949V268.594H193.73V269.863H188.086V273.145H195.332ZM210.508 260.41V267.832H202.48V260.41H210.508ZM203.984 261.66V266.582H209.023V261.66H203.984ZM215.312 259.219V263.398H217.93V264.687H215.312V269.141H213.789V259.219H215.312ZM215.625 270.156V271.406H210.703C210.869 273.262 213.457 274.883 216.289 275.332L215.723 276.523C213.184 276.104 210.879 274.844 209.883 273.105C208.896 274.854 206.611 276.094 204.082 276.504L203.496 275.332C206.367 274.883 208.906 273.291 209.102 271.406H204.18V270.156H215.625ZM234.844 267.812V269.062H227.676V270.977H232.91V276.348H220.957V270.977H226.172V269.062H219.023V267.812H234.844ZM227.676 259.121V260.859H233.242V262.09H227.773C227.881 264.023 230.645 265.322 233.906 265.625L233.457 266.777C230.566 266.475 227.988 265.479 226.934 263.75C225.869 265.479 223.291 266.475 220.41 266.777L219.941 265.625C223.223 265.322 225.967 264.023 226.094 262.09H220.664V260.859H226.172V259.121H227.676ZM222.48 272.207V275.098H231.406V272.207H222.48ZM254.902 259.238V264.492H257.52V265.781H254.902V271.992H253.379V259.238H254.902ZM255.703 274.922V276.211H244.043V270.742H245.547V274.922H255.703ZM243.574 260.488V263.418H248.633V260.488H250.156V269.062H242.07V260.488H243.574ZM243.574 267.812H248.633V264.629H243.574V267.812ZM265.742 260.879V265.117H269.512V260.879H270.937V272.246H264.277V260.879H265.742ZM265.742 270.977H269.512V266.367H265.742V270.977ZM278.516 259.219V276.582H277.031V267.383H274.609V275.703H273.145V259.59H274.609V266.113H277.031V259.219H278.516ZM295.312 259.219V269.57H293.77V265.02H290.273V263.75H293.77V259.219H295.312ZM289.551 270.117C293.164 270.117 295.371 271.289 295.371 273.34C295.371 275.391 293.164 276.562 289.551 276.582C285.937 276.562 283.73 275.391 283.73 273.34C283.73 271.289 285.937 270.117 289.551 270.117ZM289.551 271.309C286.895 271.309 285.234 272.07 285.254 273.34C285.234 274.59 286.895 275.352 289.551 275.352C292.207 275.352 293.848 274.59 293.848 273.34C293.848 272.07 292.207 271.309 289.551 271.309ZM286.953 262.402C286.953 264.668 288.691 266.816 291.23 267.695L290.43 268.926C288.477 268.223 286.963 266.768 286.23 264.961C285.469 267.002 283.857 268.633 281.797 269.414L280.996 268.184C283.574 267.246 285.41 264.902 285.41 262.422V261.777H281.484V260.488H290.84V261.777H286.953V262.402ZM75.3516 300.566C77.9102 300.586 79.7266 302.93 79.7461 306.621C79.7266 310.312 77.9102 312.656 75.3516 312.656C72.7734 312.656 70.9766 310.312 70.9766 306.621C70.9766 302.93 72.7734 300.586 75.3516 300.566ZM75.3516 301.934C73.6328 301.953 72.4219 303.789 72.4219 306.621C72.4219 309.453 73.6328 311.289 75.3516 311.289C77.0898 311.289 78.2617 309.453 78.2617 306.621C78.2617 303.789 77.0898 301.953 75.3516 301.934ZM84.1406 299.219V306.152H87.0508V307.48H84.1406V316.582H82.6172V299.219H84.1406ZM102.305 299.219V316.621H100.762V299.219H102.305ZM93.0664 300.566C95.6445 300.586 97.5 302.93 97.5 306.621C97.5 310.312 95.6445 312.656 93.0664 312.656C90.4687 312.656 88.6328 310.312 88.6328 306.621C88.6328 302.93 90.4687 300.586 93.0664 300.566ZM93.0664 301.934C91.3281 301.953 90.1172 303.789 90.1172 306.621C90.1172 309.453 91.3281 311.289 93.0664 311.289C94.8047 311.289 96.0156 309.453 96.0156 306.621C96.0156 303.789 94.8047 301.953 93.0664 301.934ZM116.27 301.953C116.25 304.434 118.008 306.621 120.566 307.48L119.707 308.672C117.793 307.949 116.289 306.543 115.547 304.707C114.795 306.787 113.203 308.408 111.113 309.199L110.273 307.949C112.949 307.012 114.727 304.707 114.746 302.012V300.215H116.27V301.953ZM124.687 299.219V309.512H123.145V304.219H119.277V302.949H123.145V299.219H124.687ZM118.926 310.02C122.539 310.02 124.746 311.211 124.746 313.301C124.746 315.371 122.539 316.543 118.926 316.543C115.312 316.543 113.105 315.371 113.105 313.301C113.105 311.211 115.312 310.02 118.926 310.02ZM118.926 311.23C116.27 311.23 114.609 312.012 114.629 313.301C114.609 314.551 116.27 315.312 118.926 315.312C121.582 315.312 123.223 314.551 123.223 313.301C123.223 312.012 121.582 311.23 118.926 311.23ZM143.73 302.266V303.535H141.152V305.937H143.73V307.227H141.152V310.43H139.629V299.219H141.152V302.266H143.73ZM135.664 310.547C139.199 310.547 141.348 311.66 141.348 313.555C141.348 315.449 139.199 316.543 135.664 316.543C132.129 316.543 129.961 315.449 129.98 313.555C129.961 311.66 132.129 310.547 135.664 310.547ZM135.664 311.758C133.066 311.758 131.484 312.402 131.504 313.555C131.484 314.687 133.066 315.352 135.664 315.352C138.262 315.352 139.824 314.687 139.824 313.555C139.824 312.402 138.262 311.758 135.664 311.758ZM137.969 301.211V302.422H127.617V301.211H132.031V299.082H133.555V301.211H137.969ZM132.793 303.32C135.293 303.32 136.953 304.531 136.973 306.387C136.953 308.262 135.293 309.453 132.793 309.453C130.273 309.453 128.594 308.262 128.613 306.387C128.594 304.531 130.273 303.32 132.793 303.32ZM132.793 304.473C131.152 304.492 130.059 305.254 130.078 306.387C130.059 307.52 131.152 308.262 132.793 308.262C134.414 308.262 135.508 307.52 135.527 306.387C135.508 305.254 134.414 304.492 132.793 304.473ZM159.746 299.219V316.582H158.262V299.219H159.746ZM156.25 299.59V315.703H154.785V307.266H152.559C152.393 310.645 150.957 312.754 148.809 312.754C146.543 312.754 145.078 310.41 145.078 306.719C145.078 303.027 146.543 300.684 148.809 300.684C150.918 300.684 152.344 302.725 152.539 305.996H154.785V299.59H156.25ZM148.809 302.129C147.402 302.129 146.504 303.887 146.523 306.719C146.504 309.531 147.402 311.309 148.809 311.289C150.215 311.309 151.113 309.531 151.113 306.719C151.113 303.887 150.215 302.129 148.809 302.129ZM175.937 300.41V307.832H167.91V300.41H175.937ZM169.414 301.66V306.582H174.453V301.66H169.414ZM180.742 299.219V303.398H183.359V304.687H180.742V309.141H179.219V299.219H180.742ZM181.055 310.156V311.406H176.133C176.299 313.262 178.887 314.883 181.719 315.332L181.152 316.523C178.613 316.104 176.309 314.844 175.312 313.105C174.326 314.854 172.041 316.094 169.512 316.504L168.926 315.332C171.797 314.883 174.336 313.291 174.531 311.406H169.609V310.156H181.055ZM198.496 304.492V305.723H186.602V299.863H188.125V304.492H198.496ZM200.332 308.086V309.336H184.434V308.086H200.332ZM198.594 314.883V316.152H186.504V311.113H188.027V314.883H198.594ZM215.469 300.84C215.469 303.281 218.672 305.41 221.797 305.84L221.172 307.09C218.477 306.641 215.811 305.146 214.687 303.008C213.574 305.156 210.898 306.641 208.203 307.09L207.578 305.84C210.703 305.41 213.887 303.32 213.887 300.84V299.844H215.469V300.84ZM222.578 309.004V310.293H215.391V316.582H213.887V310.293H206.758V309.004H222.578ZM228.828 300.039C231.162 300.02 232.93 301.377 233.262 303.379H236.895V299.219H238.437V308.535H236.895V304.648H233.281C232.969 306.699 231.182 308.066 228.828 308.066C226.191 308.066 224.316 306.426 224.316 304.043C224.316 301.68 226.191 300.02 228.828 300.039ZM228.828 301.348C227.051 301.328 225.781 302.441 225.781 304.043C225.781 305.625 227.051 306.777 228.828 306.777C230.586 306.777 231.836 305.625 231.836 304.043C231.836 302.441 230.586 301.328 228.828 301.348ZM228.789 309.414V311.621H236.895V309.414H238.437V316.348H227.246V309.414H228.789ZM228.789 315.098H236.895V312.852H228.789V315.098ZM250.098 300.801V308.789H242.07V300.801H250.098ZM243.574 302.051V307.559H248.613V302.051H243.574ZM254.902 299.219V304.512H257.52V305.801H254.902V311.953H253.379V299.219H254.902ZM255.703 314.922V316.211H244.043V310.742H245.547V314.922H255.703ZM269.57 302.5C269.57 304.922 271.328 307.207 273.867 308.125L273.008 309.316C271.104 308.555 269.59 307.041 268.848 305.156C268.105 307.256 266.523 308.926 264.473 309.746L263.652 308.496C266.25 307.539 268.047 305.117 268.066 302.441V300.293H269.57V302.5ZM278.027 299.238V312.246H276.484V304.609H272.617V303.32H276.484V299.238H278.027ZM278.418 314.922V316.211H266.797V310.762H268.34V314.922H278.418ZM288.437 300.488V301.777H283.164V303.945H288.242V305.156H283.164V307.559C285.693 307.549 287.275 307.461 289.141 307.09L289.297 308.359C287.266 308.75 285.625 308.848 282.793 308.848H281.699V300.488H288.437ZM295.664 299.238V309.766H294.199V305.02H291.758V309.648H290.332V299.57H291.758V303.77H294.199V299.238H295.664ZM295.664 310.664V316.582H294.16V311.914H283.965V310.664H295.664ZM316.66 299.219V306.289H319.473V307.578H316.66V316.582H315.137V299.219H316.66ZM312.168 301.094C312.168 306.016 309.863 310.488 304.199 313.281L303.34 312.07C307.832 309.834 310.273 306.494 310.625 302.383H304.141V301.094H312.168ZM334.531 304.082V305.352H322.676V299.57H324.199V304.082H334.531ZM336.348 307.383V308.652H320.508V307.383H336.348ZM328.418 310.215C332.148 310.215 334.375 311.348 334.395 313.359C334.375 315.371 332.148 316.504 328.418 316.504C324.668 316.504 322.422 315.371 322.422 313.359C322.422 311.348 324.668 310.215 328.418 310.215ZM328.418 311.426C325.625 311.445 323.965 312.129 323.984 313.359C323.965 314.57 325.625 315.312 328.418 315.312C331.172 315.312 332.852 314.57 332.852 313.359C332.852 312.129 331.172 311.445 328.418 311.426ZM85.0195 339.219V356.621H83.4766V339.219H85.0195ZM75.7812 340.566C78.3594 340.586 80.2148 342.93 80.2148 346.621C80.2148 350.312 78.3594 352.656 75.7812 352.656C73.1836 352.656 71.3477 350.312 71.3477 346.621C71.3477 342.93 73.1836 340.586 75.7812 340.566ZM75.7812 341.934C74.043 341.953 72.832 343.789 72.832 346.621C72.832 349.453 74.043 351.289 75.7812 351.289C77.5195 351.289 78.7305 349.453 78.7305 346.621C78.7305 343.789 77.5195 341.953 75.7812 341.934ZM102.891 341.211V342.48H88.8086V341.211H95.1367V339.121H96.6406V341.211H102.891ZM103.887 350.469V351.738H96.6406V356.621H95.1367V351.738H87.9883V350.469H103.887ZM95.8984 343.477C99.4336 343.477 101.562 344.512 101.562 346.387C101.562 348.223 99.4336 349.258 95.8984 349.277C92.3437 349.258 90.2148 348.223 90.2344 346.387C90.2148 344.512 92.3437 343.477 95.8984 343.477ZM95.8984 344.648C93.3008 344.648 91.7969 345.293 91.8164 346.387C91.7969 347.461 93.3008 348.086 95.8984 348.086C98.457 348.086 99.9609 347.461 99.9805 346.387C99.9609 345.293 98.457 344.648 95.8984 344.648ZM124.687 339.219V349.57H123.145V345.02H119.648V343.75H123.145V339.219H124.687ZM118.926 350.117C122.539 350.117 124.746 351.289 124.746 353.34C124.746 355.391 122.539 356.562 118.926 356.582C115.312 356.562 113.105 355.391 113.105 353.34C113.105 351.289 115.312 350.117 118.926 350.117ZM118.926 351.309C116.27 351.309 114.609 352.07 114.629 353.34C114.609 354.59 116.27 355.352 118.926 355.352C121.582 355.352 123.223 354.59 123.223 353.34C123.223 352.07 121.582 351.309 118.926 351.309ZM116.328 342.402C116.328 344.668 118.066 346.816 120.605 347.695L119.805 348.926C117.852 348.223 116.338 346.768 115.605 344.961C114.844 347.002 113.232 348.633 111.172 349.414L110.371 348.184C112.949 347.246 114.785 344.902 114.785 342.422V341.777H110.859V340.488H120.215V341.777H116.328V342.402ZM141.211 340.352V341.68C141.211 343.242 141.211 345.176 140.723 347.93H143.398V349.199H139.219V356.582H137.695V349.199H133.242V356.582H131.719V349.199H127.578V347.93H139.16C139.727 345.195 139.727 343.232 139.727 341.68V341.621H129.609V340.352H141.211ZM158.594 340.84C158.594 343.281 161.797 345.41 164.922 345.84L164.297 347.09C161.602 346.641 158.936 345.146 157.812 343.008C156.699 345.156 154.023 346.641 151.328 347.09L150.703 345.84C153.828 345.41 157.012 343.32 157.012 340.84V339.844H158.594V340.84ZM165.703 349.004V350.293H158.516V356.582H157.012V350.293H149.883V349.004H165.703ZM171.953 340.039C174.287 340.02 176.055 341.377 176.387 343.379H180.02V339.219H181.562V348.535H180.02V344.648H176.406C176.094 346.699 174.307 348.066 171.953 348.066C169.316 348.066 167.441 346.426 167.441 344.043C167.441 341.68 169.316 340.02 171.953 340.039ZM171.953 341.348C170.176 341.328 168.906 342.441 168.906 344.043C168.906 345.625 170.176 346.777 171.953 346.777C173.711 346.777 174.961 345.625 174.961 344.043C174.961 342.441 173.711 341.328 171.953 341.348ZM171.914 349.414V351.621H180.02V349.414H181.562V356.348H170.371V349.414H171.914ZM171.914 355.098H180.02V352.852H171.914V355.098ZM203.867 339.238V352.07H202.324V347.383H197.832C197.031 348.408 195.742 349.023 194.258 349.023C191.66 349.023 189.746 347.227 189.746 344.687C189.746 342.148 191.66 340.352 194.258 340.332C195.732 340.342 196.992 340.947 197.812 341.953H202.324V339.238H203.867ZM204.355 354.922V356.211H192.715V350.723H194.258V354.922H204.355ZM194.258 341.699C192.48 341.719 191.211 342.949 191.211 344.687C191.211 346.426 192.48 347.656 194.258 347.656C195.957 347.656 197.266 346.426 197.266 344.687C197.266 342.949 195.957 341.719 194.258 341.699ZM198.516 343.223C198.662 343.672 198.75 344.16 198.75 344.687C198.75 345.195 198.662 345.674 198.516 346.113H202.324V343.223H198.516ZM221.621 339.219V356.582H220.156V339.219H221.621ZM218.105 339.687V355.703H216.641V349.687H213.418V348.418H216.641V345.332H213.711C212.861 348.271 210.957 350.869 207.676 352.832L206.738 351.719C210.518 349.482 212.412 346.348 212.715 342.715H207.52V341.445H214.238C214.238 342.334 214.16 343.213 214.004 344.062H216.641V339.687H218.105ZM242.5 339.219V346.289H245.312V347.578H242.5V356.582H240.977V339.219H242.5ZM238.008 341.094C238.008 346.016 235.703 350.488 230.039 353.281L229.18 352.07C233.672 349.834 236.113 346.494 236.465 342.383H229.98V341.094H238.008ZM260.371 344.082V345.352H248.516V339.57H250.039V344.082H260.371ZM262.187 347.383V348.652H246.348V347.383H262.187ZM254.258 350.215C257.988 350.215 260.215 351.348 260.234 353.359C260.215 355.371 257.988 356.504 254.258 356.504C250.508 356.504 248.262 355.371 248.262 353.359C248.262 351.348 250.508 350.215 254.258 350.215ZM254.258 351.426C251.465 351.445 249.805 352.129 249.824 353.359C249.805 354.57 251.465 355.312 254.258 355.312C257.012 355.312 258.691 354.57 258.691 353.359C258.691 352.129 257.012 351.445 254.258 351.426Z" fill="black"/>
<path d="M70.8203 58.0859V84.0234H65.8203V58.0859H70.8203ZM71.7578 88.9844V92.9687H46.9922V81.5234H52.0312V88.9844H71.7578ZM54.6875 63.4766C54.6484 68.1641 57.1484 72.7734 63.0078 74.6484L60.4687 78.5547C56.4648 77.2266 53.6914 74.5703 52.1094 71.1719C50.5273 74.8242 47.6758 77.7539 43.5156 79.1797L40.9375 75.2344C46.9141 73.2422 49.4922 68.2812 49.4922 63.4766V60.0391H54.6875V63.4766ZM103.867 60V62.3828C103.867 65.3516 103.867 69.4531 102.93 75.3125H108.047V79.3359H100.352V93.5937H95.3906V79.3359H88.0078V93.5937H83.0078V79.3359H75.625V75.3125H97.8906C98.7891 70.5078 98.9453 66.8164 99.0234 64.0234H79.4922V60H103.867ZM121.562 64.375C121.562 68.2031 123.555 72.0312 128.281 73.8281L125.625 77.6172C122.598 76.4648 120.508 74.3555 119.219 71.7187C117.93 74.8047 115.703 77.3828 112.383 78.75L109.687 74.9219C114.687 72.7344 116.719 68.3594 116.719 64.375V60.1953H121.562V64.375ZM140.742 58.0859V79.8047H136.016V70.7812H133.047V78.7109H128.398V58.7109H133.047V66.7578H136.016V58.0859H140.742ZM128.594 80.3125C136.094 80.3125 140.898 82.8125 140.937 86.9531C140.898 91.0937 136.094 93.5937 128.594 93.5937C121.055 93.5937 116.289 91.0937 116.289 86.9531C116.289 82.8125 121.055 80.3125 128.594 80.3125ZM128.594 84.0234C123.945 84.0234 121.25 85.0391 121.289 86.9531C121.25 88.8672 123.945 89.8437 128.594 89.8437C133.203 89.8437 135.898 88.8672 135.898 86.9531C135.898 85.0391 133.203 84.0234 128.594 84.0234ZM175.586 58.0469V93.5937H170.82V58.0469H175.586ZM168.164 58.5547V91.9531H163.477V75.1562H160.625C160.156 82.1484 157.187 86.3672 152.812 86.3672C148.125 86.3672 145.078 81.4453 145.078 73.4375C145.078 65.4687 148.125 60.5859 152.812 60.5859C157.09 60.5859 160.02 64.5703 160.586 71.2109H163.477V58.5547H168.164ZM152.812 65.2734C150.82 65.2734 149.648 68.0078 149.687 73.4375C149.648 78.9062 150.82 81.6016 152.812 81.5625C154.844 81.6016 156.055 78.9062 156.055 73.4375C156.055 68.0078 154.844 65.2734 152.812 65.2734ZM210.156 58.0469V93.5937H205.469V58.0469H210.156ZM202.578 58.8281V92.0312H197.93V75.7031H192.109C190.078 79.7656 186.777 83.2812 181.719 86.2109L178.906 82.6953C186.074 78.4375 189.238 73.2617 189.922 66.2891H180.859V62.2656H194.883C194.863 65.6445 194.512 68.8281 193.672 71.7578H197.93V58.8281H202.578ZM241.758 68.6328V71.9141H255.625V75.8984H223.086V71.9141H236.836V68.6328H241.758ZM252.617 58.9062V62.6953H243.047C244.062 64.7461 247.637 66.6016 254.141 66.9531L252.578 70.6641C245.723 70.1953 241.152 68.0078 239.336 64.8047C237.5 67.9883 232.93 70.1953 226.094 70.6641L224.492 66.9531C230.879 66.6016 234.531 64.7266 235.586 62.6953H226.094V58.9062H252.617ZM252.539 79.5312V83.2422H226.055V79.5312H236.797V76.875H241.797V79.5312H252.539ZM239.258 84.2969C246.133 84.2969 250.234 85.9375 250.234 88.9844C250.234 92.0703 246.133 93.7109 239.258 93.7109C232.305 93.7109 228.359 92.0703 228.359 88.9844C228.359 85.9375 232.305 84.2969 239.258 84.2969ZM239.258 87.5781C235.43 87.6172 233.477 87.9687 233.477 88.9844C233.477 89.9609 235.43 90.4297 239.258 90.4297C243.125 90.4297 245 89.9609 245.039 88.9844C245 87.9687 243.125 87.6172 239.258 87.5781ZM290.117 76.2109V80.1953H257.695V76.2109H290.117ZM286.445 88.9844V92.9687H261.602V82.5781H266.602V88.9844H286.445ZM273.906 59.1406C281.68 59.1016 286.797 61.875 286.836 66.4062C286.797 70.9375 281.68 73.75 273.906 73.75C266.055 73.75 260.937 70.9375 260.937 66.4062C260.937 61.875 266.055 59.1016 273.906 59.1406ZM273.906 63.0469C268.984 63.0859 266.094 64.2578 266.133 66.4062C266.094 68.6328 268.984 69.7266 273.906 69.7266C278.828 69.7266 281.68 68.6328 281.68 66.4062C281.68 64.2578 278.828 63.0859 273.906 63.0469ZM331.25 58.0469V93.6719H326.211V58.0469H331.25ZM311.953 60.5469C317.305 60.5469 321.289 65.4687 321.289 73.2031C321.289 81.0156 317.305 85.8984 311.953 85.8984C306.484 85.8984 302.5 81.0156 302.539 73.2031C302.5 65.4687 306.484 60.5469 311.953 60.5469ZM311.953 65.0391C309.18 65.0391 307.344 67.9297 307.344 73.2031C307.344 78.5156 309.18 81.3672 311.953 81.3672C314.648 81.3672 316.484 78.5156 316.484 73.2031C316.484 67.9297 314.648 65.0391 311.953 65.0391ZM368.555 77.8125V81.8359H360.937V93.5937H355.859V81.8359H348.594V93.5937H343.477V81.8359H336.016V77.8125H368.555ZM352.187 59.2187C359.805 59.2187 365.156 62.3828 365.156 67.2656C365.156 72.0703 359.805 75.0781 352.187 75.0781C344.57 75.0781 339.258 72.0703 339.297 67.2656C339.258 62.3828 344.57 59.2187 352.187 59.2187ZM352.187 63.2031C347.422 63.2031 344.375 64.6484 344.414 67.2656C344.375 69.7656 347.422 71.1719 352.187 71.1719C356.992 71.1719 360 69.7656 360 67.2656C360 64.6484 356.992 63.2031 352.187 63.2031Z" fill="url(#paint1_linear_983_1177)"/>
<path d="M41 192H421" stroke="url(#paint2_linear_983_1177)"/>
<rect x="41.5" y="118.5" width="152" height="46" rx="9.5" fill="white"/>
<rect x="41.5" y="118.5" width="152" height="46" rx="9.5" stroke="url(#paint3_linear_983_1177)"/>
<path d="M77.7773 142.465V144.457H70.8242V150.277H68.3633V144.457H61.5078V142.465H77.7773ZM75.8242 133.383V140.551H63.4219V133.383H75.8242ZM65.8828 135.355V138.598H73.3438V135.355H65.8828ZM93.7148 132.523V150.336H91.2344V132.523H93.7148ZM88.207 134.008V140.863H82.3477V144.125C85.0527 144.115 87.3574 143.959 89.9648 143.539L90.1797 145.551C87.25 146.059 84.6133 146.176 81.3711 146.176H79.7695V138.891H85.668V136.02H79.75V134.008H88.207ZM104.984 142.914V144.691H106.898V142.914H109.203V148.305C111.176 147.426 112.016 145.766 112.016 144.145V142.777H114.516V144.145C114.496 145.961 115.375 147.68 117.602 148.402L116.312 150.258C114.779 149.73 113.793 148.715 113.227 147.445C112.631 148.676 111.654 149.701 110.219 150.258L109.203 148.715V150.102H102.68V142.914H104.984ZM104.984 148.207H106.898V146.527H104.984V148.207ZM105.668 133.188C107.934 133.188 109.74 134.447 110.238 136.332H113.207V132.523H115.688V141.938H113.207V138.383H110.238C109.76 140.307 107.943 141.586 105.668 141.586C102.934 141.586 100.922 139.848 100.941 137.367C100.922 134.926 102.934 133.188 105.668 133.188ZM105.668 135.238C104.281 135.238 103.285 136.059 103.305 137.367C103.285 138.715 104.281 139.535 105.668 139.555C107.016 139.535 107.992 138.715 107.992 137.367C107.992 136.059 107.016 135.238 105.668 135.238ZM132.426 137.367V139.32H120.004V133.148H122.484V137.367H132.426ZM134.242 141.234V143.188H117.973V141.234H134.242ZM132.543 147.914V149.906H119.848V144.633H122.348V147.914H132.543ZM146.801 136.547C146.801 139.809 148.285 143.09 151.293 144.359L149.828 146.352C147.797 145.434 146.391 143.666 145.59 141.469C144.779 143.861 143.324 145.795 141.156 146.781L139.652 144.711C142.758 143.402 144.262 140.004 144.281 136.547V133.891H146.801V136.547ZM154.77 132.523V150.336H152.25V132.523H154.77ZM167.27 133.559V135.551H163.734C163.754 137.631 164.984 139.76 167.875 140.688L166.605 142.621C164.633 141.986 163.275 140.717 162.504 139.125C161.713 140.863 160.297 142.24 158.227 142.914L156.898 141C159.838 140.053 161.176 137.777 161.215 135.551H157.582V133.559H167.27ZM171.273 132.523V136.84H173.676V138.91H171.273V143.246H168.773V132.523H171.273ZM171.273 144.008V150.297H168.773V145.98H159.301V144.008H171.273Z" fill="url(#paint4_linear_983_1177)"/>
<rect x="204.5" y="118.5" width="174" height="46" rx="9.5" fill="white"/>
<rect x="204.5" y="118.5" width="174" height="46" rx="9.5" stroke="url(#paint5_linear_983_1177)"/>
<path d="M232.129 132.523V137.621H234.531V139.691H232.129V145.473H229.629V132.523H232.129ZM232.773 147.992V149.984H220.605V144.105H223.086V147.992H232.773ZM223.027 133.676C225.742 133.676 227.871 135.551 227.871 138.188C227.871 140.785 225.742 142.699 223.027 142.699C220.293 142.699 218.145 140.785 218.145 138.188C218.145 135.551 220.293 133.676 223.027 133.676ZM223.027 135.844C221.68 135.824 220.586 136.703 220.605 138.188C220.586 139.633 221.68 140.531 223.027 140.531C224.395 140.531 225.43 139.633 225.449 138.188C225.43 136.703 224.395 135.824 223.027 135.844ZM250.293 132.523V143.07H247.812V138.871H245.039V136.859H247.812V132.523H250.293ZM244.219 143.461C248.008 143.48 250.332 144.73 250.352 146.898C250.332 149.047 248.008 150.316 244.219 150.316C240.43 150.316 238.105 149.047 238.105 146.898C238.105 144.73 240.43 143.48 244.219 143.461ZM244.219 145.375C241.855 145.375 240.586 145.863 240.586 146.898C240.586 147.914 241.855 148.422 244.219 148.422C246.582 148.422 247.871 147.914 247.871 146.898C247.871 145.863 246.582 145.375 244.219 145.375ZM245.566 133.598V135.59H242.031C242.09 137.66 243.34 139.75 246.113 140.668L244.883 142.621C242.92 141.986 241.572 140.697 240.801 139.086C240.01 140.902 238.594 142.367 236.484 143.09L235.195 141.117C238.115 140.141 239.424 137.816 239.492 135.59H235.918V133.598H245.566ZM262.852 133.52V135.492H259.316C259.336 137.592 260.586 139.74 263.398 140.668L262.168 142.582C260.195 141.957 258.848 140.668 258.086 139.066C257.285 140.844 255.869 142.279 253.77 142.953L252.5 140.98C255.42 140.043 256.748 137.709 256.777 135.492H253.203V133.52H262.852ZM267.578 143.891V150.297H265.098V145.883H255.371V143.891H267.578ZM267.578 132.523V143.109H265.098V138.832H262.344V136.801H265.098V132.523H267.578ZM284.766 132.543V145.316H282.266V132.543H284.766ZM285.234 147.992V149.984H272.852V144.027H275.371V147.992H285.234ZM275.02 133.676C277.754 133.676 279.883 135.551 279.883 138.148C279.883 140.805 277.754 142.66 275.02 142.66C272.285 142.66 270.156 140.805 270.156 138.148C270.156 135.551 272.285 133.676 275.02 133.676ZM275.02 135.844C273.633 135.824 272.578 136.703 272.598 138.148C272.578 139.633 273.633 140.492 275.02 140.492C276.367 140.492 277.422 139.633 277.422 138.148C277.422 136.703 276.367 135.824 275.02 135.844ZM306.758 132.523V143.07H304.277V138.871H301.504V136.859H304.277V132.523H306.758ZM300.684 143.461C304.473 143.48 306.797 144.73 306.816 146.898C306.797 149.047 304.473 150.316 300.684 150.316C296.895 150.316 294.57 149.047 294.57 146.898C294.57 144.73 296.895 143.48 300.684 143.461ZM300.684 145.375C298.32 145.375 297.051 145.863 297.051 146.898C297.051 147.914 298.32 148.422 300.684 148.422C303.047 148.422 304.336 147.914 304.336 146.898C304.336 145.863 303.047 145.375 300.684 145.375ZM302.031 133.598V135.59H298.496C298.555 137.66 299.805 139.75 302.578 140.668L301.348 142.621C299.385 141.986 298.037 140.697 297.266 139.086C296.475 140.902 295.059 142.367 292.949 143.09L291.66 141.117C294.58 140.141 295.889 137.816 295.957 135.59H292.383V133.598H302.031ZM323.184 133.5V134.691C323.184 136.176 323.184 138.227 322.715 141.156H325.273V143.168H321.426V150.297H318.945V143.168H315.254V150.297H312.754V143.168H309.062V141.156H320.195C320.645 138.754 320.723 136.908 320.762 135.512H310.996V133.5H323.184ZM345.938 132.543V145.531H343.457V141.312H339.395C338.535 142.221 337.295 142.777 335.918 142.777C333.223 142.777 331.172 140.824 331.191 138.188C331.172 135.512 333.223 133.578 335.918 133.559C337.295 133.568 338.525 134.115 339.395 135.023H343.457V132.543H345.938ZM346.367 147.992V149.984H334.141V144.223H336.641V147.992H346.367ZM335.918 135.785C334.531 135.785 333.535 136.684 333.555 138.188C333.535 139.672 334.531 140.57 335.918 140.57C337.227 140.57 338.242 139.672 338.242 138.188C338.242 136.684 337.227 135.785 335.918 135.785ZM340.469 137.016C340.557 137.387 340.605 137.777 340.605 138.188C340.605 138.578 340.557 138.959 340.469 139.32H343.457V137.016H340.469ZM363.652 132.523V150.297H361.309V132.523H363.652ZM359.941 132.914V149.516H357.578V143.656H355.059V141.645H357.578V139.223H355.391C354.561 142.152 352.764 144.633 349.434 146.605L347.969 144.848C351.572 142.719 353.154 140.131 353.496 136.645H349.004V134.633H355.977C355.977 135.521 355.918 136.381 355.82 137.211H357.578V132.914H359.941Z" fill="url(#paint6_linear_983_1177)"/>
<path d="M56.964 219C57.5163 218.044 58.7398 217.715 59.6964 218.268C60.653 218.82 60.9801 220.044 60.4279 221L50.2321 238.66C49.4623 239.994 47.5378 239.994 46.768 238.66L41.7677 230L41.6749 229.817C41.2595 228.893 41.6034 227.785 42.5001 227.268C43.3969 226.75 44.5283 227.006 45.1212 227.828L45.2325 228L48.5001 233.659L56.964 219Z" fill="url(#paint7_linear_983_1177)"/>
<path d="M56.964 263C57.5163 262.044 58.7398 261.715 59.6964 262.268C60.653 262.82 60.9801 264.044 60.4279 265L50.2321 282.66C49.4623 283.994 47.5378 283.994 46.768 282.66L41.7677 274L41.6749 273.817C41.2595 272.893 41.6034 271.785 42.5001 271.268C43.3969 270.75 44.5283 271.006 45.1212 271.828L45.2325 272L48.5001 277.659L56.964 263Z" fill="url(#paint8_linear_983_1177)"/>
<path d="M56.964 307C57.5163 306.044 58.7398 305.715 59.6964 306.268C60.653 306.82 60.9801 308.044 60.4279 309L50.2321 326.66C49.4623 327.994 47.5378 327.994 46.768 326.66L41.7677 318L41.6749 317.817C41.2595 316.893 41.6034 315.785 42.5001 315.268C43.3969 314.75 44.5283 315.006 45.1212 315.828L45.2325 316L48.5001 321.659L56.964 307Z" fill="url(#paint9_linear_983_1177)"/>
<path d="M56.964 351C57.5163 350.044 58.7398 349.715 59.6964 350.268C60.653 350.82 60.9801 352.044 60.4279 353L50.2321 370.66C49.4623 371.994 47.5378 371.994 46.768 370.66L41.7677 362L41.6749 361.817C41.2595 360.893 41.6034 359.785 42.5001 359.268C43.3969 358.75 44.5283 359.006 45.1212 359.828L45.2325 360L48.5001 365.659L56.964 351Z" fill="url(#paint10_linear_983_1177)"/>
<defs>
<filter id="filter0_i_983_1177" x="0" y="0" width="452" height="436" filterUnits="userSpaceOnUse" color-interpolation-filters="sRGB">
<feFlood flood-opacity="0" result="BackgroundImageFix"/>
<feBlend mode="normal" in="SourceGraphic" in2="BackgroundImageFix" result="shape"/>
<feColorMatrix in="SourceAlpha" type="matrix" values="0 0 0 0 0 0 0 0 0 0 0 0 0 0 0 0 0 0 127 0" result="hardAlpha"/>
<feOffset dx="4" dy="4"/>
<feGaussianBlur stdDeviation="1"/>
<feComposite in2="hardAlpha" operator="arithmetic" k2="-1" k3="1"/>
<feColorMatrix type="matrix" values="0 0 0 0 1 0 0 0 0 1 0 0 0 0 1 0 0 0 0.25 0"/>
<feBlend mode="normal" in2="shape" result="effect1_innerShadow_983_1177"/>
</filter>
<linearGradient id="paint0_linear_983_1177" x1="-20.777" y1="-7.95288" x2="294.466" y2="535.571" gradientUnits="userSpaceOnUse">
<stop stop-color="#3182F6"/>
<stop offset="1" stop-color="#A009FF"/>
</linearGradient>
<linearGradient id="paint1_linear_983_1177" x1="456.597" y1="71.6543" x2="-221.902" y2="71.6542" gradientUnits="userSpaceOnUse">
<stop stop-color="#FF85B8"/>
<stop offset="0.509615" stop-color="#AB35CF"/>
<stop offset="1" stop-color="#B583F2"/>
</linearGradient>
<linearGradient id="paint2_linear_983_1177" x1="486.935" y1="192.504" x2="-239.346" y2="192.503" gradientUnits="userSpaceOnUse">
<stop stop-color="#FF85B8"/>
<stop offset="0.509615" stop-color="#AB35CF"/>
<stop offset="1" stop-color="#B583F2"/>
</linearGradient>
<linearGradient id="paint3_linear_983_1177" x1="220.547" y1="141.686" x2="-71.8763" y2="141.686" gradientUnits="userSpaceOnUse">
<stop stop-color="#FF85B8"/>
<stop offset="0.509615" stop-color="#AB35CF"/>
<stop offset="1" stop-color="#B583F2"/>
</linearGradient>
<linearGradient id="paint4_linear_983_1177" x1="193.607" y1="141.627" x2="-22.3661" y2="141.627" gradientUnits="userSpaceOnUse">
<stop stop-color="#FF85B8"/>
<stop offset="0.509615" stop-color="#AB35CF"/>
<stop offset="1" stop-color="#B583F2"/>
</linearGradient>
<linearGradient id="paint5_linear_983_1177" x1="409.365" y1="141.686" x2="74.8931" y2="141.686" gradientUnits="userSpaceOnUse">
<stop stop-color="#FF85B8"/>
<stop offset="0.509615" stop-color="#AB35CF"/>
<stop offset="1" stop-color="#B583F2"/>
</linearGradient>
<linearGradient id="paint6_linear_983_1177" x1="391.18" y1="141.627" x2="108.312" y2="141.627" gradientUnits="userSpaceOnUse">
<stop stop-color="#FF85B8"/>
<stop offset="0.509615" stop-color="#AB35CF"/>
<stop offset="1" stop-color="#B583F2"/>
</linearGradient>
<linearGradient id="paint7_linear_983_1177" x1="40.9957" y1="219.629" x2="68.6825" y2="224.421" gradientUnits="userSpaceOnUse">
<stop/>
<stop offset="1" stop-color="#00096F"/>
</linearGradient>
<linearGradient id="paint8_linear_983_1177" x1="40.9957" y1="263.629" x2="68.6825" y2="268.421" gradientUnits="userSpaceOnUse">
<stop/>
<stop offset="1" stop-color="#00096F"/>
</linearGradient>
<linearGradient id="paint9_linear_983_1177" x1="40.9957" y1="307.629" x2="68.6825" y2="312.421" gradientUnits="userSpaceOnUse">
<stop/>
<stop offset="1" stop-color="#00096F"/>
</linearGradient>
<linearGradient id="paint10_linear_983_1177" x1="40.9957" y1="351.629" x2="68.6825" y2="356.421" gradientUnits="userSpaceOnUse">
<stop/>
<stop offset="1" stop-color="#00096F"/>
</linearGradient>
</defs>
</svg>
