<svg width="450" height="434" viewBox="0 0 450 434" fill="none" xmlns="http://www.w3.org/2000/svg">
<g filter="url(#filter0_i_983_1177)">
<rect width="450" height="434" rx="15" fill="white"/>
</g>
<rect x="0.5" y="0.5" width="449" height="433" rx="14.5" stroke="url(#paint0_linear_983_1177)"/>
<path d="M86.6074 220.641V232.027H84.9102V227.021H81.0645V225.625H84.9102V220.641H86.6074ZM80.2695 232.629C84.2441 232.629 86.6719 233.918 86.6719 236.174C86.6719 238.43 84.2441 239.719 80.2695 239.74C76.2949 239.719 73.8672 238.43 73.8672 236.174C73.8672 233.918 76.2949 232.629 80.2695 232.629ZM80.2695 233.939C77.3477 233.939 75.5215 234.777 75.543 236.174C75.5215 237.549 77.3477 238.387 80.2695 238.387C83.1914 238.387 84.9961 237.549 84.9961 236.174C84.9961 234.777 83.1914 233.939 80.2695 233.939ZM77.4121 224.143C77.4121 226.635 79.3242 228.998 82.1172 229.965L81.2363 231.318C79.0879 230.545 77.4229 228.944 76.6172 226.957C75.7793 229.202 74.0068 230.996 71.7402 231.855L70.8594 230.502C73.6953 229.471 75.7148 226.893 75.7148 224.164V223.455H71.3965V222.037H81.6875V223.455H77.4121V224.143ZM104.783 221.887V223.348C104.783 225.066 104.783 227.193 104.246 230.223H107.189V231.619H102.592V239.74H100.916V231.619H96.0176V239.74H94.3418V231.619H89.7871V230.223H102.527C103.15 227.215 103.15 225.056 103.15 223.348V223.283H92.0215V221.887H104.783ZM123.904 222.424C123.904 225.109 127.428 227.451 130.865 227.924L130.178 229.299C127.213 228.805 124.28 227.161 123.045 224.809C121.82 227.172 118.877 228.805 115.912 229.299L115.225 227.924C118.662 227.451 122.164 225.152 122.164 222.424V221.328H123.904V222.424ZM131.725 231.404V232.822H123.818V239.74H122.164V232.822H114.322V231.404H131.725ZM138.6 221.543C141.167 221.521 143.111 223.015 143.477 225.217H147.473V220.641H149.17V230.889H147.473V226.613H143.498C143.154 228.869 141.188 230.373 138.6 230.373C135.699 230.373 133.637 228.568 133.637 225.947C133.637 223.348 135.699 221.521 138.6 221.543ZM138.6 222.982C136.645 222.961 135.248 224.186 135.248 225.947C135.248 227.687 136.645 228.955 138.6 228.955C140.533 228.955 141.908 227.687 141.908 225.947C141.908 224.186 140.533 222.961 138.6 222.982ZM138.557 231.855V234.283H147.473V231.855H149.17V239.482H136.859V231.855H138.557ZM138.557 238.107H147.473V235.637H138.557V238.107ZM173.705 220.662V234.67H172.008V227.344H168.076V225.947H172.008V220.662H173.705ZM174.242 237.914V239.332H161.437V233.402H163.135V237.914H174.242ZM164.51 224.594C164.51 227.064 166.422 229.471 169.215 230.416L168.334 231.77C166.175 230.996 164.51 229.385 163.693 227.408C162.866 229.61 161.104 231.372 158.838 232.221L157.957 230.846C160.771 229.857 162.812 227.344 162.812 224.594V223.605H158.494V222.209H168.785V223.605H164.51V224.594ZM180.021 236.561L178.346 242.404H176.756L177.937 236.561H180.021ZM205.502 231.984V233.359H197.531V239.74H195.877V233.359H188.014V231.984H205.502ZM191.924 221.436V224.078H201.549V221.436H203.246V229.664H190.248V221.436H191.924ZM191.924 228.289H201.549V225.453H191.924V228.289ZM221.98 220.641V225.324H224.859V226.742H221.98V231.49H220.305V220.641H221.98ZM216.416 221.951V223.326H209.627V228.955C213.462 228.977 215.643 228.837 218.199 228.332L218.414 229.707C215.729 230.244 213.451 230.352 209.434 230.352H207.951V221.951H216.416ZM221.98 232.479V239.482H209.928V232.479H221.98ZM211.582 233.854V238.107H220.305V233.854H211.582ZM235.387 231.855V234.24H238.867V231.855H240.436V239.482H233.797V231.855H235.387ZM235.387 238.15H238.867V235.529H235.387V238.15ZM245.893 233.359C245.871 235.379 247.074 237.484 249.416 238.344L248.535 239.633C246.773 238.924 245.613 237.581 245.033 235.98C244.421 237.549 243.261 238.902 241.574 239.633L240.693 238.344C242.992 237.398 244.217 235.293 244.217 233.359V231.727H245.893V233.359ZM236.848 221.5C239.404 221.5 241.359 222.95 241.725 225.152H245.721V220.641H247.418V230.76H245.721V226.549H241.746C241.402 228.805 239.437 230.287 236.848 230.287C233.947 230.287 231.885 228.504 231.885 225.883C231.885 223.283 233.947 221.5 236.848 221.5ZM236.848 222.918C234.893 222.918 233.496 224.143 233.496 225.883C233.496 227.645 234.893 228.891 236.848 228.891C238.781 228.891 240.156 227.645 240.156 225.883C240.156 224.143 238.781 222.918 236.848 222.918ZM266.045 226.441V227.795H252.961V221.35H254.637V226.441H266.045ZM268.064 230.395V231.77H250.576V230.395H268.064ZM266.152 237.871V239.268H252.854V233.725H254.529V237.871H266.152ZM281.643 224.744C281.643 227.107 283.576 229.299 286.369 230.18L285.574 231.49C283.394 230.792 281.696 229.331 280.848 227.451C280.031 229.557 278.302 231.211 276.035 232.006L275.219 230.652C278.012 229.729 279.988 227.365 279.988 224.744V224.293H275.67V222.918H279.988V220.576H281.686V222.918H285.961V224.293H281.643V224.744ZM290.967 220.641V233.896H289.27V227.494H285.381V226.076H289.27V220.641H290.967ZM285.66 232.994C285.639 235.701 288.754 237.764 292.17 238.322L291.461 239.654C288.582 239.139 285.918 237.646 284.779 235.4C283.63 237.624 280.966 239.139 278.076 239.654L277.453 238.322C280.783 237.742 283.92 235.637 283.941 232.994V232.586H285.66V232.994ZM315.502 220.662V232.135H313.805V229.557H308.734V228.16H313.805V225.582H308.928C307.671 228.654 304.717 230.878 300.635 232.092L299.926 230.76C304.545 229.385 307.413 226.807 307.768 223.498H300.893V222.08H309.594C309.594 222.832 309.508 223.552 309.357 224.229H313.805V220.662H315.502ZM309.25 232.328C313.117 232.328 315.609 233.703 315.609 235.98C315.609 238.279 313.117 239.654 309.25 239.654C305.34 239.654 302.869 238.279 302.869 235.98C302.869 233.703 305.34 232.328 309.25 232.328ZM309.25 233.682C306.371 233.66 304.523 234.541 304.523 235.98C304.523 237.42 306.371 238.279 309.25 238.279C312.086 238.279 313.912 237.42 313.934 235.98C313.912 234.541 312.086 233.66 309.25 233.682ZM334.516 220.641V232.221H332.818V227.859H329.574V226.463H332.818V220.641H334.516ZM334.516 233.252V239.482H322.033V233.252H334.516ZM323.709 234.605V238.107H332.861V234.605H323.709ZM329.854 222.66V224.035H318.703V222.66H323.451V220.469H325.105V222.66H329.854ZM324.268 225.023C326.867 225.023 328.693 226.42 328.715 228.418C328.693 230.48 326.867 231.834 324.268 231.834C321.668 231.834 319.842 230.48 319.842 228.418C319.842 226.42 321.668 225.023 324.268 225.023ZM324.268 226.334C322.613 226.334 321.453 227.193 321.453 228.418C321.453 229.686 322.613 230.523 324.268 230.545C325.922 230.523 327.082 229.686 327.082 228.418C327.082 227.193 325.922 226.334 324.268 226.334ZM85.7051 264.641V270.463H88.584V271.881H85.7051V278.627H84.0078V264.641H85.7051ZM80.5488 266.123C80.5488 271.043 77.0254 274.695 71.5254 276.414L70.7949 275.061C75.3711 273.632 78.3574 270.903 78.7227 267.541H71.5898V266.123H80.5488ZM86.5859 281.914V283.332H73.7383V277.209H75.4141V281.914H86.5859ZM104.719 264.641V270.334H107.619V271.752H104.719V278.477H103.043V264.641H104.719ZM99.1973 266.295V267.713H92.3652V273.664C96.2002 273.664 98.3809 273.567 100.937 273.041L101.152 274.437C98.4668 274.953 96.1895 275.082 92.1719 275.082H90.6895V266.295H99.1973ZM105.6 281.914V283.332H92.7734V277.08H94.4277V281.914H105.6ZM123.732 264.662V270.957H126.611V272.375H123.732V278.971H122.057V264.662H123.732ZM120.23 267.004V268.379H108.844V267.004H113.699V264.662H115.375V267.004H120.23ZM114.537 269.432C117.266 269.432 119.113 270.828 119.135 272.998C119.113 275.146 117.266 276.521 114.537 276.521C111.787 276.521 109.918 275.146 109.939 272.998C109.918 270.828 111.787 269.432 114.537 269.432ZM114.537 270.764C112.732 270.764 111.529 271.645 111.551 272.998C111.529 274.352 112.732 275.211 114.537 275.189C116.32 275.211 117.523 274.352 117.545 272.998C117.523 271.645 116.32 270.764 114.537 270.764ZM124.613 281.914V283.332H111.787V277.832H113.441V281.914H124.613ZM141.199 266.982V268.336H135.699V272.117H140.318V273.471H135.699V277.768C138.438 277.735 140.114 277.639 142.187 277.252L142.338 278.627C140.125 279.078 138.32 279.121 135.291 279.143H134.088V266.982H141.199ZM149.686 264.641V283.74H148.053V264.641H149.686ZM145.775 265.113V282.752H144.164V273.299H141.35V271.902H144.164V265.113H145.775ZM161.867 267.455C161.867 270.721 165.605 273.643 168.936 274.266L168.162 275.684C165.283 275.018 162.243 272.966 161.008 270.141C159.772 272.955 156.743 275.007 153.854 275.684L153.08 274.266C156.389 273.621 160.105 270.742 160.105 267.455V265.994H161.867V267.455ZM169.838 279.744V281.141H152.35V279.744H169.838ZM186.832 274.975V276.35H173.619V266.295H186.617V267.713H175.338V270.549H186.209V271.902H175.338V274.975H186.832ZM188.852 279.852V281.248H171.363V279.852H188.852ZM207.865 279.959V281.377H190.377V279.959H198.24V276.35H192.568V270.463H203.998V267.455H192.525V266.059H205.652V271.838H194.244V274.953H206.104V276.35H199.895V279.959H207.865ZM224.559 265.951V274.115H215.729V265.951H224.559ZM217.383 267.326V272.74H222.926V267.326H217.383ZM229.844 264.641V269.238H232.723V270.656H229.844V275.555H228.168V264.641H229.844ZM230.187 276.672V278.047H224.773C224.956 280.088 227.803 281.871 230.918 282.365L230.295 283.676C227.502 283.214 224.967 281.828 223.871 279.916C222.786 281.839 220.272 283.203 217.49 283.654L216.846 282.365C220.004 281.871 222.797 280.12 223.012 278.047H217.598V276.672H230.187ZM251.328 274.094V275.469H243.443V277.574H249.201V283.482H236.053V277.574H241.789V275.469H233.926V274.094H251.328ZM243.443 264.533V266.445H249.566V267.799H243.551C243.669 269.926 246.709 271.354 250.297 271.687L249.803 272.955C246.623 272.622 243.787 271.526 242.627 269.625C241.456 271.526 238.62 272.622 235.451 272.955L234.936 271.687C238.545 271.354 241.563 269.926 241.703 267.799H235.73V266.445H241.789V264.533H243.443ZM237.729 278.928V282.107H247.547V278.928H237.729ZM273.393 264.662V270.441H276.271V271.859H273.393V278.691H271.717V264.662H273.393ZM274.273 281.914V283.332H261.447V277.316H263.102V281.914H274.273ZM260.932 266.037V269.26H266.496V266.037H268.172V275.469H259.277V266.037H260.932ZM260.932 274.094H266.496V270.592H260.932V274.094ZM285.316 266.467V271.129H289.463V266.467H291.031V278.971H283.705V266.467H285.316ZM285.316 277.574H289.463V272.504H285.316V277.574ZM299.367 264.641V283.74H297.734V273.621H295.07V282.773H293.459V265.049H295.07V272.225H297.734V264.641H299.367ZM317.844 264.641V276.027H316.146V271.021H312.301V269.625H316.146V264.641H317.844ZM311.506 276.629C315.48 276.629 317.908 277.918 317.908 280.174C317.908 282.43 315.48 283.719 311.506 283.74C307.531 283.719 305.104 282.43 305.104 280.174C305.104 277.918 307.531 276.629 311.506 276.629ZM311.506 277.939C308.584 277.939 306.758 278.777 306.779 280.174C306.758 281.549 308.584 282.387 311.506 282.387C314.428 282.387 316.232 281.549 316.232 280.174C316.232 278.777 314.428 277.939 311.506 277.939ZM308.648 268.143C308.648 270.635 310.561 272.998 313.354 273.965L312.473 275.318C310.324 274.545 308.659 272.944 307.854 270.957C307.016 273.202 305.243 274.996 302.977 275.855L302.096 274.502C304.932 273.471 306.951 270.893 306.951 268.164V267.455H302.633V266.037H312.924V267.455H308.648V268.143ZM75.8867 310.123C78.7012 310.145 80.6992 312.723 80.7207 316.783C80.6992 320.844 78.7012 323.422 75.8867 323.422C73.0508 323.422 71.0742 320.844 71.0742 316.783C71.0742 312.723 73.0508 310.145 75.8867 310.123ZM75.8867 311.627C73.9961 311.648 72.6641 313.668 72.6641 316.783C72.6641 319.898 73.9961 321.918 75.8867 321.918C77.7988 321.918 79.0879 319.898 79.0879 316.783C79.0879 313.668 77.7988 311.648 75.8867 311.627ZM85.5547 308.641V316.268H88.7559V317.729H85.5547V327.74H83.8789V308.641H85.5547ZM105.535 308.641V327.783H103.838V308.641H105.535ZM95.373 310.123C98.209 310.145 100.25 312.723 100.25 316.783C100.25 320.844 98.209 323.422 95.373 323.422C92.5156 323.422 90.4961 320.844 90.4961 316.783C90.4961 312.723 92.5156 310.145 95.373 310.123ZM95.373 311.627C93.4609 311.648 92.1289 313.668 92.1289 316.783C92.1289 319.898 93.4609 321.918 95.373 321.918C97.2852 321.918 98.6172 319.898 98.6172 316.783C98.6172 313.668 97.2852 311.648 95.373 311.627ZM120.896 311.648C120.875 314.377 122.809 316.783 125.623 317.729L124.678 319.039C122.572 318.244 120.918 316.697 120.102 314.678C119.274 316.966 117.523 318.749 115.225 319.619L114.301 318.244C117.244 317.213 119.199 314.678 119.221 311.713V309.736H120.896V311.648ZM130.156 308.641V319.963H128.459V314.141H124.205V312.744H128.459V308.641H130.156ZM123.818 320.521C127.793 320.521 130.221 321.832 130.221 324.131C130.221 326.408 127.793 327.697 123.818 327.697C119.844 327.697 117.416 326.408 117.416 324.131C117.416 321.832 119.844 320.521 123.818 320.521ZM123.818 321.854C120.896 321.854 119.07 322.713 119.092 324.131C119.07 325.506 120.896 326.344 123.818 326.344C126.74 326.344 128.545 325.506 128.545 324.131C128.545 322.713 126.74 321.854 123.818 321.854ZM151.104 311.992V313.389H148.268V316.031H151.104V317.449H148.268V320.973H146.592V308.641H148.268V311.992H151.104ZM142.23 321.102C146.119 321.102 148.482 322.326 148.482 324.41C148.482 326.494 146.119 327.697 142.23 327.697C138.342 327.697 135.957 326.494 135.979 324.41C135.957 322.326 138.342 321.102 142.23 321.102ZM142.23 322.434C139.373 322.434 137.633 323.143 137.654 324.41C137.633 325.656 139.373 326.387 142.23 326.387C145.088 326.387 146.807 325.656 146.807 324.41C146.807 323.143 145.088 322.434 142.23 322.434ZM144.766 310.832V312.164H133.379V310.832H138.234V308.49H139.91V310.832H144.766ZM139.072 313.152C141.822 313.152 143.648 314.484 143.67 316.525C143.648 318.588 141.822 319.898 139.072 319.898C136.301 319.898 134.453 318.588 134.475 316.525C134.453 314.484 136.301 313.152 139.072 313.152ZM139.072 314.42C137.268 314.441 136.064 315.279 136.086 316.525C136.064 317.771 137.268 318.588 139.072 318.588C140.855 318.588 142.059 317.771 142.08 316.525C142.059 315.279 140.855 314.441 139.072 314.42ZM168.721 308.641V327.74H167.088V308.641H168.721ZM164.875 309.049V326.773H163.264V317.492H160.814C160.632 321.209 159.053 323.529 156.689 323.529C154.197 323.529 152.586 320.951 152.586 316.891C152.586 312.83 154.197 310.252 156.689 310.252C159.01 310.252 160.578 312.497 160.793 316.096H163.264V309.049H164.875ZM156.689 311.842C155.143 311.842 154.154 313.775 154.176 316.891C154.154 319.984 155.143 321.939 156.689 321.918C158.236 321.939 159.225 319.984 159.225 316.891C159.225 313.775 158.236 311.842 156.689 311.842ZM186.531 309.951V318.115H177.701V309.951H186.531ZM179.355 311.326V316.74H184.898V311.326H179.355ZM191.816 308.641V313.238H194.695V314.656H191.816V319.555H190.141V308.641H191.816ZM192.16 320.672V322.047H186.746C186.929 324.088 189.775 325.871 192.891 326.365L192.268 327.676C189.475 327.214 186.939 325.828 185.844 323.916C184.759 325.839 182.245 327.203 179.463 327.654L178.818 326.365C181.977 325.871 184.77 324.12 184.984 322.047H179.57V320.672H192.16ZM211.346 314.441V315.795H198.262V309.35H199.937V314.441H211.346ZM213.365 318.395V319.77H195.877V318.395H213.365ZM211.453 325.871V327.268H198.154V321.725H199.83V325.871H211.453ZM230.016 310.424C230.016 313.109 233.539 315.451 236.977 315.924L236.289 317.299C233.324 316.805 230.392 315.161 229.156 312.809C227.932 315.172 224.988 316.805 222.023 317.299L221.336 315.924C224.773 315.451 228.275 313.152 228.275 310.424V309.328H230.016V310.424ZM237.836 319.404V320.822H229.93V327.74H228.275V320.822H220.434V319.404H237.836ZM244.711 309.543C247.278 309.521 249.223 311.015 249.588 313.217H253.584V308.641H255.281V318.889H253.584V314.613H249.609C249.266 316.869 247.3 318.373 244.711 318.373C241.811 318.373 239.748 316.568 239.748 313.947C239.748 311.348 241.811 309.521 244.711 309.543ZM244.711 310.982C242.756 310.961 241.359 312.186 241.359 313.947C241.359 315.687 242.756 316.955 244.711 316.955C246.645 316.955 248.02 315.687 248.02 313.947C248.02 312.186 246.645 310.961 244.711 310.982ZM244.668 319.855V322.283H253.584V319.855H255.281V327.482H242.971V319.855H244.668ZM244.668 326.107H253.584V323.637H244.668V326.107ZM268.107 310.381V319.168H259.277V310.381H268.107ZM260.932 311.756V317.814H266.475V311.756H260.932ZM273.393 308.641V314.463H276.271V315.881H273.393V322.648H271.717V308.641H273.393ZM274.273 325.914V327.332H261.447V321.316H263.102V325.914H274.273ZM289.527 312.25C289.527 314.914 291.461 317.428 294.254 318.437L293.309 319.748C291.214 318.91 289.549 317.245 288.732 315.172C287.916 317.481 286.176 319.318 283.92 320.221L283.018 318.846C285.875 317.793 287.852 315.129 287.873 312.186V309.822H289.527V312.25ZM298.83 308.662V322.971H297.133V314.57H292.879V313.152H297.133V308.662H298.83ZM299.26 325.914V327.332H286.477V321.338H288.174V325.914H299.26ZM310.281 310.037V311.455H304.48V313.84H310.066V315.172H304.48V317.814C307.263 317.804 309.003 317.707 311.055 317.299L311.227 318.695C308.992 319.125 307.187 319.232 304.072 319.232H302.869V310.037H310.281ZM318.23 308.662V320.242H316.619V315.021H313.934V320.113H312.365V309.027H313.934V313.646H316.619V308.662H318.23ZM318.23 321.23V327.74H316.576V322.605H305.361V321.23H318.23ZM341.326 308.641V316.418H344.42V317.836H341.326V327.74H339.65V308.641H341.326ZM336.385 310.703C336.385 316.117 333.85 321.037 327.619 324.109L326.674 322.777C331.615 320.317 334.301 316.644 334.687 312.121H327.555V310.703H336.385ZM360.984 313.99V315.387H347.943V309.027H349.619V313.99H360.984ZM362.982 317.621V319.018H345.559V317.621H362.982ZM354.26 320.736C358.363 320.736 360.812 321.982 360.834 324.195C360.812 326.408 358.363 327.654 354.26 327.654C350.135 327.654 347.664 326.408 347.664 324.195C347.664 321.982 350.135 320.736 354.26 320.736ZM354.26 322.068C351.187 322.09 349.361 322.842 349.383 324.195C349.361 325.527 351.187 326.344 354.26 326.344C357.289 326.344 359.137 325.527 359.137 324.195C359.137 322.842 357.289 322.09 354.26 322.068ZM86.5215 352.641V371.783H84.8242V352.641H86.5215ZM76.3594 354.123C79.1953 354.145 81.2363 356.723 81.2363 360.783C81.2363 364.844 79.1953 367.422 76.3594 367.422C73.502 367.422 71.4824 364.844 71.4824 360.783C71.4824 356.723 73.502 354.145 76.3594 354.123ZM76.3594 355.627C74.4473 355.648 73.1152 357.668 73.1152 360.783C73.1152 363.898 74.4473 365.918 76.3594 365.918C78.2715 365.918 79.6035 363.898 79.6035 360.783C79.6035 357.668 78.2715 355.648 76.3594 355.627ZM106.18 354.832V356.229H90.6895V354.832H97.6504V352.533H99.3047V354.832H106.18ZM107.275 365.016V366.412H99.3047V371.783H97.6504V366.412H89.7871V365.016H107.275ZM98.4883 357.324C102.377 357.324 104.719 358.463 104.719 360.525C104.719 362.545 102.377 363.684 98.4883 363.705C94.5781 363.684 92.2363 362.545 92.2578 360.525C92.2363 358.463 94.5781 357.324 98.4883 357.324ZM98.4883 358.613C95.6309 358.613 93.9766 359.322 93.998 360.525C93.9766 361.707 95.6309 362.395 98.4883 362.395C101.303 362.395 102.957 361.707 102.979 360.525C102.957 359.322 101.303 358.613 98.4883 358.613ZM130.156 352.641V364.027H128.459V359.021H124.613V357.625H128.459V352.641H130.156ZM123.818 364.629C127.793 364.629 130.221 365.918 130.221 368.174C130.221 370.43 127.793 371.719 123.818 371.74C119.844 371.719 117.416 370.43 117.416 368.174C117.416 365.918 119.844 364.629 123.818 364.629ZM123.818 365.939C120.896 365.939 119.07 366.777 119.092 368.174C119.07 369.549 120.896 370.387 123.818 370.387C126.74 370.387 128.545 369.549 128.545 368.174C128.545 366.777 126.74 365.939 123.818 365.939ZM120.961 356.143C120.961 358.635 122.873 360.998 125.666 361.965L124.785 363.318C122.637 362.545 120.972 360.944 120.166 358.957C119.328 361.202 117.556 362.996 115.289 363.855L114.408 362.502C117.244 361.471 119.264 358.893 119.264 356.164V355.455H114.945V354.037H125.236V355.455H120.961V356.143ZM148.332 353.887V355.348C148.332 357.066 148.332 359.193 147.795 362.223H150.738V363.619H146.141V371.74H144.465V363.619H139.566V371.74H137.891V363.619H133.336V362.223H146.076C146.699 359.215 146.699 357.056 146.699 355.348V355.283H135.57V353.887H148.332ZM167.453 354.424C167.453 357.109 170.977 359.451 174.414 359.924L173.727 361.299C170.762 360.805 167.829 359.161 166.594 356.809C165.369 359.172 162.426 360.805 159.461 361.299L158.773 359.924C162.211 359.451 165.713 357.152 165.713 354.424V353.328H167.453V354.424ZM175.273 363.404V364.822H167.367V371.74H165.713V364.822H157.871V363.404H175.273ZM182.148 353.543C184.716 353.521 186.66 355.015 187.025 357.217H191.021V352.641H192.719V362.889H191.021V358.613H187.047C186.703 360.869 184.737 362.373 182.148 362.373C179.248 362.373 177.186 360.568 177.186 357.947C177.186 355.348 179.248 353.521 182.148 353.543ZM182.148 354.982C180.193 354.961 178.797 356.186 178.797 357.947C178.797 359.687 180.193 360.955 182.148 360.955C184.082 360.955 185.457 359.687 185.457 357.947C185.457 356.186 184.082 354.961 182.148 354.982ZM182.105 363.855V366.283H191.021V363.855H192.719V371.482H180.408V363.855H182.105ZM182.105 370.107H191.021V367.637H182.105V370.107ZM217.254 352.662V366.777H215.557V361.621H210.615C209.734 362.749 208.316 363.426 206.684 363.426C203.826 363.426 201.721 361.449 201.721 358.656C201.721 355.863 203.826 353.887 206.684 353.865C208.306 353.876 209.691 354.542 210.594 355.648H215.557V352.662H217.254ZM217.791 369.914V371.332H204.986V365.295H206.684V369.914H217.791ZM206.684 355.369C204.729 355.391 203.332 356.744 203.332 358.656C203.332 360.568 204.729 361.922 206.684 361.922C208.553 361.922 209.992 360.568 209.992 358.656C209.992 356.744 208.553 355.391 206.684 355.369ZM211.367 357.045C211.528 357.539 211.625 358.076 211.625 358.656C211.625 359.215 211.528 359.741 211.367 360.225H215.557V357.045H211.367ZM236.783 352.641V371.74H235.172V352.641H236.783ZM232.916 353.156V370.773H231.305V364.156H227.76V362.76H231.305V359.365H228.082C227.147 362.599 225.053 365.456 221.443 367.615L220.412 366.391C224.569 363.931 226.653 360.482 226.986 356.486H221.271V355.09H228.662C228.662 356.067 228.576 357.034 228.404 357.969H231.305V353.156H232.916ZM259.75 352.641V360.418H262.844V361.836H259.75V371.74H258.074V352.641H259.75ZM254.809 354.703C254.809 360.117 252.273 365.037 246.043 368.109L245.098 366.777C250.039 364.317 252.725 360.644 253.111 356.121H245.979V354.703H254.809ZM279.408 357.99V359.387H266.367V353.027H268.043V357.99H279.408ZM281.406 361.621V363.018H263.982V361.621H281.406ZM272.684 364.736C276.787 364.736 279.236 365.982 279.258 368.195C279.236 370.408 276.787 371.654 272.684 371.654C268.559 371.654 266.088 370.408 266.088 368.195C266.088 365.982 268.559 364.736 272.684 364.736ZM272.684 366.068C269.611 366.09 267.785 366.842 267.807 368.195C267.785 369.527 269.611 370.344 272.684 370.344C275.713 370.344 277.561 369.527 277.561 368.195C277.561 366.842 275.713 366.09 272.684 366.068Z" fill="#666666"/>
<path d="M70.8203 58.0859V84.0234H65.8203V58.0859H70.8203ZM71.7578 88.9844V92.9687H46.9922V81.5234H52.0312V88.9844H71.7578ZM54.6875 63.4766C54.6484 68.1641 57.1484 72.7734 63.0078 74.6484L60.4687 78.5547C56.4648 77.2266 53.6914 74.5703 52.1094 71.1719C50.5273 74.8242 47.6758 77.7539 43.5156 79.1797L40.9375 75.2344C46.9141 73.2422 49.4922 68.2812 49.4922 63.4766V60.0391H54.6875V63.4766ZM103.867 60V62.3828C103.867 65.3516 103.867 69.4531 102.93 75.3125H108.047V79.3359H100.352V93.5937H95.3906V79.3359H88.0078V93.5937H83.0078V79.3359H75.625V75.3125H97.8906C98.7891 70.5078 98.9453 66.8164 99.0234 64.0234H79.4922V60H103.867ZM121.562 64.375C121.562 68.2031 123.555 72.0312 128.281 73.8281L125.625 77.6172C122.598 76.4648 120.508 74.3555 119.219 71.7187C117.93 74.8047 115.703 77.3828 112.383 78.75L109.687 74.9219C114.687 72.7344 116.719 68.3594 116.719 64.375V60.1953H121.562V64.375ZM140.742 58.0859V79.8047H136.016V70.7812H133.047V78.7109H128.398V58.7109H133.047V66.7578H136.016V58.0859H140.742ZM128.594 80.3125C136.094 80.3125 140.898 82.8125 140.937 86.9531C140.898 91.0937 136.094 93.5937 128.594 93.5937C121.055 93.5937 116.289 91.0937 116.289 86.9531C116.289 82.8125 121.055 80.3125 128.594 80.3125ZM128.594 84.0234C123.945 84.0234 121.25 85.0391 121.289 86.9531C121.25 88.8672 123.945 89.8437 128.594 89.8437C133.203 89.8437 135.898 88.8672 135.898 86.9531C135.898 85.0391 133.203 84.0234 128.594 84.0234ZM175.586 58.0469V93.5937H170.82V58.0469H175.586ZM168.164 58.5547V91.9531H163.477V75.1562H160.625C160.156 82.1484 157.187 86.3672 152.812 86.3672C148.125 86.3672 145.078 81.4453 145.078 73.4375C145.078 65.4687 148.125 60.5859 152.812 60.5859C157.09 60.5859 160.02 64.5703 160.586 71.2109H163.477V58.5547H168.164ZM152.812 65.2734C150.82 65.2734 149.648 68.0078 149.687 73.4375C149.648 78.9062 150.82 81.6016 152.812 81.5625C154.844 81.6016 156.055 78.9062 156.055 73.4375C156.055 68.0078 154.844 65.2734 152.812 65.2734ZM210.156 58.0469V93.5937H205.469V58.0469H210.156ZM202.578 58.8281V92.0312H197.93V75.7031H192.109C190.078 79.7656 186.777 83.2812 181.719 86.2109L178.906 82.6953C186.074 78.4375 189.238 73.2617 189.922 66.2891H180.859V62.2656H194.883C194.863 65.6445 194.512 68.8281 193.672 71.7578H197.93V58.8281H202.578ZM241.758 68.6328V71.9141H255.625V75.8984H223.086V71.9141H236.836V68.6328H241.758ZM252.617 58.9062V62.6953H243.047C244.062 64.7461 247.637 66.6016 254.141 66.9531L252.578 70.6641C245.723 70.1953 241.152 68.0078 239.336 64.8047C237.5 67.9883 232.93 70.1953 226.094 70.6641L224.492 66.9531C230.879 66.6016 234.531 64.7266 235.586 62.6953H226.094V58.9062H252.617ZM252.539 79.5312V83.2422H226.055V79.5312H236.797V76.875H241.797V79.5312H252.539ZM239.258 84.2969C246.133 84.2969 250.234 85.9375 250.234 88.9844C250.234 92.0703 246.133 93.7109 239.258 93.7109C232.305 93.7109 228.359 92.0703 228.359 88.9844C228.359 85.9375 232.305 84.2969 239.258 84.2969ZM239.258 87.5781C235.43 87.6172 233.477 87.9687 233.477 88.9844C233.477 89.9609 235.43 90.4297 239.258 90.4297C243.125 90.4297 245 89.9609 245.039 88.9844C245 87.9687 243.125 87.6172 239.258 87.5781ZM290.117 76.2109V80.1953H257.695V76.2109H290.117ZM286.445 88.9844V92.9687H261.602V82.5781H266.602V88.9844H286.445ZM273.906 59.1406C281.68 59.1016 286.797 61.875 286.836 66.4062C286.797 70.9375 281.68 73.75 273.906 73.75C266.055 73.75 260.937 70.9375 260.937 66.4062C260.937 61.875 266.055 59.1016 273.906 59.1406ZM273.906 63.0469C268.984 63.0859 266.094 64.2578 266.133 66.4062C266.094 68.6328 268.984 69.7266 273.906 69.7266C278.828 69.7266 281.68 68.6328 281.68 66.4062C281.68 64.2578 278.828 63.0859 273.906 63.0469ZM331.25 58.0469V93.6719H326.211V58.0469H331.25ZM311.953 60.5469C317.305 60.5469 321.289 65.4687 321.289 73.2031C321.289 81.0156 317.305 85.8984 311.953 85.8984C306.484 85.8984 302.5 81.0156 302.539 73.2031C302.5 65.4687 306.484 60.5469 311.953 60.5469ZM311.953 65.0391C309.18 65.0391 307.344 67.9297 307.344 73.2031C307.344 78.5156 309.18 81.3672 311.953 81.3672C314.648 81.3672 316.484 78.5156 316.484 73.2031C316.484 67.9297 314.648 65.0391 311.953 65.0391ZM368.555 77.8125V81.8359H360.937V93.5937H355.859V81.8359H348.594V93.5937H343.477V81.8359H336.016V77.8125H368.555ZM352.187 59.2187C359.805 59.2187 365.156 62.3828 365.156 67.2656C365.156 72.0703 359.805 75.0781 352.187 75.0781C344.57 75.0781 339.258 72.0703 339.297 67.2656C339.258 62.3828 344.57 59.2187 352.187 59.2187ZM352.187 63.2031C347.422 63.2031 344.375 64.6484 344.414 67.2656C344.375 69.7656 347.422 71.1719 352.187 71.1719C356.992 71.1719 360 69.7656 360 67.2656C360 64.6484 356.992 63.2031 352.187 63.2031Z" fill="url(#paint1_linear_983_1177)"/>
<path d="M41 192H421" stroke="url(#paint2_linear_983_1177)"/>
<rect x="41.5" y="118.5" width="152" height="46" rx="9.5" fill="white"/>
<rect x="41.5" y="118.5" width="152" height="46" rx="9.5" stroke="url(#paint3_linear_983_1177)"/>
<path d="M77.7773 142.465V144.457H70.8242V150.277H68.3633V144.457H61.5078V142.465H77.7773ZM75.8242 133.383V140.551H63.4219V133.383H75.8242ZM65.8828 135.355V138.598H73.3438V135.355H65.8828ZM93.7148 132.523V150.336H91.2344V132.523H93.7148ZM88.207 134.008V140.863H82.3477V144.125C85.0527 144.115 87.3574 143.959 89.9648 143.539L90.1797 145.551C87.25 146.059 84.6133 146.176 81.3711 146.176H79.7695V138.891H85.668V136.02H79.75V134.008H88.207ZM104.984 142.914V144.691H106.898V142.914H109.203V148.305C111.176 147.426 112.016 145.766 112.016 144.145V142.777H114.516V144.145C114.496 145.961 115.375 147.68 117.602 148.402L116.312 150.258C114.779 149.73 113.793 148.715 113.227 147.445C112.631 148.676 111.654 149.701 110.219 150.258L109.203 148.715V150.102H102.68V142.914H104.984ZM104.984 148.207H106.898V146.527H104.984V148.207ZM105.668 133.188C107.934 133.188 109.74 134.447 110.238 136.332H113.207V132.523H115.688V141.938H113.207V138.383H110.238C109.76 140.307 107.943 141.586 105.668 141.586C102.934 141.586 100.922 139.848 100.941 137.367C100.922 134.926 102.934 133.188 105.668 133.188ZM105.668 135.238C104.281 135.238 103.285 136.059 103.305 137.367C103.285 138.715 104.281 139.535 105.668 139.555C107.016 139.535 107.992 138.715 107.992 137.367C107.992 136.059 107.016 135.238 105.668 135.238ZM132.426 137.367V139.32H120.004V133.148H122.484V137.367H132.426ZM134.242 141.234V143.188H117.973V141.234H134.242ZM132.543 147.914V149.906H119.848V144.633H122.348V147.914H132.543ZM146.801 136.547C146.801 139.809 148.285 143.09 151.293 144.359L149.828 146.352C147.797 145.434 146.391 143.666 145.59 141.469C144.779 143.861 143.324 145.795 141.156 146.781L139.652 144.711C142.758 143.402 144.262 140.004 144.281 136.547V133.891H146.801V136.547ZM154.77 132.523V150.336H152.25V132.523H154.77ZM167.27 133.559V135.551H163.734C163.754 137.631 164.984 139.76 167.875 140.688L166.605 142.621C164.633 141.986 163.275 140.717 162.504 139.125C161.713 140.863 160.297 142.24 158.227 142.914L156.898 141C159.838 140.053 161.176 137.777 161.215 135.551H157.582V133.559H167.27ZM171.273 132.523V136.84H173.676V138.91H171.273V143.246H168.773V132.523H171.273ZM171.273 144.008V150.297H168.773V145.98H159.301V144.008H171.273Z" fill="url(#paint4_linear_983_1177)"/>
<rect x="204.5" y="118.5" width="174" height="46" rx="9.5" fill="white"/>
<rect x="204.5" y="118.5" width="174" height="46" rx="9.5" stroke="url(#paint5_linear_983_1177)"/>
<path d="M232.129 132.523V137.621H234.531V139.691H232.129V145.473H229.629V132.523H232.129ZM232.773 147.992V149.984H220.605V144.105H223.086V147.992H232.773ZM223.027 133.676C225.742 133.676 227.871 135.551 227.871 138.188C227.871 140.785 225.742 142.699 223.027 142.699C220.293 142.699 218.145 140.785 218.145 138.188C218.145 135.551 220.293 133.676 223.027 133.676ZM223.027 135.844C221.68 135.824 220.586 136.703 220.605 138.188C220.586 139.633 221.68 140.531 223.027 140.531C224.395 140.531 225.43 139.633 225.449 138.188C225.43 136.703 224.395 135.824 223.027 135.844ZM250.293 132.523V143.07H247.812V138.871H245.039V136.859H247.812V132.523H250.293ZM244.219 143.461C248.008 143.48 250.332 144.73 250.352 146.898C250.332 149.047 248.008 150.316 244.219 150.316C240.43 150.316 238.105 149.047 238.105 146.898C238.105 144.73 240.43 143.48 244.219 143.461ZM244.219 145.375C241.855 145.375 240.586 145.863 240.586 146.898C240.586 147.914 241.855 148.422 244.219 148.422C246.582 148.422 247.871 147.914 247.871 146.898C247.871 145.863 246.582 145.375 244.219 145.375ZM245.566 133.598V135.59H242.031C242.09 137.66 243.34 139.75 246.113 140.668L244.883 142.621C242.92 141.986 241.572 140.697 240.801 139.086C240.01 140.902 238.594 142.367 236.484 143.09L235.195 141.117C238.115 140.141 239.424 137.816 239.492 135.59H235.918V133.598H245.566ZM262.852 133.52V135.492H259.316C259.336 137.592 260.586 139.74 263.398 140.668L262.168 142.582C260.195 141.957 258.848 140.668 258.086 139.066C257.285 140.844 255.869 142.279 253.77 142.953L252.5 140.98C255.42 140.043 256.748 137.709 256.777 135.492H253.203V133.52H262.852ZM267.578 143.891V150.297H265.098V145.883H255.371V143.891H267.578ZM267.578 132.523V143.109H265.098V138.832H262.344V136.801H265.098V132.523H267.578ZM284.766 132.543V145.316H282.266V132.543H284.766ZM285.234 147.992V149.984H272.852V144.027H275.371V147.992H285.234ZM275.02 133.676C277.754 133.676 279.883 135.551 279.883 138.148C279.883 140.805 277.754 142.66 275.02 142.66C272.285 142.66 270.156 140.805 270.156 138.148C270.156 135.551 272.285 133.676 275.02 133.676ZM275.02 135.844C273.633 135.824 272.578 136.703 272.598 138.148C272.578 139.633 273.633 140.492 275.02 140.492C276.367 140.492 277.422 139.633 277.422 138.148C277.422 136.703 276.367 135.824 275.02 135.844ZM306.758 132.523V143.07H304.277V138.871H301.504V136.859H304.277V132.523H306.758ZM300.684 143.461C304.473 143.48 306.797 144.73 306.816 146.898C306.797 149.047 304.473 150.316 300.684 150.316C296.895 150.316 294.57 149.047 294.57 146.898C294.57 144.73 296.895 143.48 300.684 143.461ZM300.684 145.375C298.32 145.375 297.051 145.863 297.051 146.898C297.051 147.914 298.32 148.422 300.684 148.422C303.047 148.422 304.336 147.914 304.336 146.898C304.336 145.863 303.047 145.375 300.684 145.375ZM302.031 133.598V135.59H298.496C298.555 137.66 299.805 139.75 302.578 140.668L301.348 142.621C299.385 141.986 298.037 140.697 297.266 139.086C296.475 140.902 295.059 142.367 292.949 143.09L291.66 141.117C294.58 140.141 295.889 137.816 295.957 135.59H292.383V133.598H302.031ZM323.184 133.5V134.691C323.184 136.176 323.184 138.227 322.715 141.156H325.273V143.168H321.426V150.297H318.945V143.168H315.254V150.297H312.754V143.168H309.062V141.156H320.195C320.645 138.754 320.723 136.908 320.762 135.512H310.996V133.5H323.184ZM345.938 132.543V145.531H343.457V141.312H339.395C338.535 142.221 337.295 142.777 335.918 142.777C333.223 142.777 331.172 140.824 331.191 138.188C331.172 135.512 333.223 133.578 335.918 133.559C337.295 133.568 338.525 134.115 339.395 135.023H343.457V132.543H345.938ZM346.367 147.992V149.984H334.141V144.223H336.641V147.992H346.367ZM335.918 135.785C334.531 135.785 333.535 136.684 333.555 138.188C333.535 139.672 334.531 140.57 335.918 140.57C337.227 140.57 338.242 139.672 338.242 138.188C338.242 136.684 337.227 135.785 335.918 135.785ZM340.469 137.016C340.557 137.387 340.605 137.777 340.605 138.188C340.605 138.578 340.557 138.959 340.469 139.32H343.457V137.016H340.469ZM363.652 132.523V150.297H361.309V132.523H363.652ZM359.941 132.914V149.516H357.578V143.656H355.059V141.645H357.578V139.223H355.391C354.561 142.152 352.764 144.633 349.434 146.605L347.969 144.848C351.572 142.719 353.154 140.131 353.496 136.645H349.004V134.633H355.977C355.977 135.521 355.918 136.381 355.82 137.211H357.578V132.914H359.941Z" fill="url(#paint6_linear_983_1177)"/>
<path d="M56.964 219C57.5163 218.044 58.7398 217.715 59.6964 218.268C60.653 218.82 60.9801 220.044 60.4279 221L50.2321 238.66C49.4623 239.994 47.5378 239.994 46.768 238.66L41.7677 230L41.6749 229.817C41.2595 228.893 41.6034 227.785 42.5001 227.268C43.3969 226.75 44.5283 227.006 45.1212 227.828L45.2325 228L48.5001 233.659L56.964 219Z" fill="url(#paint7_linear_983_1177)"/>
<path d="M56.964 263C57.5163 262.044 58.7398 261.715 59.6964 262.268C60.653 262.82 60.9801 264.044 60.4279 265L50.2321 282.66C49.4623 283.994 47.5378 283.994 46.768 282.66L41.7677 274L41.6749 273.817C41.2595 272.893 41.6034 271.785 42.5001 271.268C43.3969 270.75 44.5283 271.006 45.1212 271.828L45.2325 272L48.5001 277.659L56.964 263Z" fill="url(#paint8_linear_983_1177)"/>
<path d="M56.964 307C57.5163 306.044 58.7398 305.715 59.6964 306.268C60.653 306.82 60.9801 308.044 60.4279 309L50.2321 326.66C49.4623 327.994 47.5378 327.994 46.768 326.66L41.7677 318L41.6749 317.817C41.2595 316.893 41.6034 315.785 42.5001 315.268C43.3969 314.75 44.5283 315.006 45.1212 315.828L45.2325 316L48.5001 321.659L56.964 307Z" fill="url(#paint9_linear_983_1177)"/>
<path d="M56.964 351C57.5163 350.044 58.7398 349.715 59.6964 350.268C60.653 350.82 60.9801 352.044 60.4279 353L50.2321 370.66C49.4623 371.994 47.5378 371.994 46.768 370.66L41.7677 362L41.6749 361.817C41.2595 360.893 41.6034 359.785 42.5001 359.268C43.3969 358.75 44.5283 359.006 45.1212 359.828L45.2325 360L48.5001 365.659L56.964 351Z" fill="url(#paint10_linear_983_1177)"/>
<defs>
<filter id="filter0_i_983_1177" x="0" y="0" width="452" height="436" filterUnits="userSpaceOnUse" color-interpolation-filters="sRGB">
<feFlood flood-opacity="0" result="BackgroundImageFix"/>
<feBlend mode="normal" in="SourceGraphic" in2="BackgroundImageFix" result="shape"/>
<feColorMatrix in="SourceAlpha" type="matrix" values="0 0 0 0 0 0 0 0 0 0 0 0 0 0 0 0 0 0 127 0" result="hardAlpha"/>
<feOffset dx="4" dy="4"/>
<feGaussianBlur stdDeviation="1"/>
<feComposite in2="hardAlpha" operator="arithmetic" k2="-1" k3="1"/>
<feColorMatrix type="matrix" values="0 0 0 0 1 0 0 0 0 1 0 0 0 0 1 0 0 0 0.25 0"/>
<feBlend mode="normal" in2="shape" result="effect1_innerShadow_983_1177"/>
</filter>
<linearGradient id="paint0_linear_983_1177" x1="-20.777" y1="-7.95288" x2="294.466" y2="535.571" gradientUnits="userSpaceOnUse">
<stop stop-color="#3182F6"/>
<stop offset="1" stop-color="#A009FF"/>
</linearGradient>
<linearGradient id="paint1_linear_983_1177" x1="456.597" y1="71.6543" x2="-221.902" y2="71.6542" gradientUnits="userSpaceOnUse">
<stop stop-color="#FF8587"/>
<stop offset="0.601054" stop-color="#AB35CF"/>
<stop offset="1" stop-color="#7300FF"/>
</linearGradient>
<linearGradient id="paint2_linear_983_1177" x1="486.935" y1="192.504" x2="-239.346" y2="192.503" gradientUnits="userSpaceOnUse">
<stop stop-color="#FF8587"/>
<stop offset="0.601054" stop-color="#AB35CF"/>
<stop offset="1" stop-color="#7300FF"/>
</linearGradient>
<linearGradient id="paint3_linear_983_1177" x1="220.547" y1="141.686" x2="-71.8763" y2="141.686" gradientUnits="userSpaceOnUse">
<stop stop-color="#FF8587"/>
<stop offset="0.601054" stop-color="#AB35CF"/>
<stop offset="1" stop-color="#7300FF"/>
</linearGradient>
<linearGradient id="paint4_linear_983_1177" x1="193.607" y1="141.627" x2="-22.3661" y2="141.627" gradientUnits="userSpaceOnUse">
<stop stop-color="#FF8587"/>
<stop offset="0.601054" stop-color="#AB35CF"/>
<stop offset="1" stop-color="#7300FF"/>
</linearGradient>
<linearGradient id="paint5_linear_983_1177" x1="409.365" y1="141.686" x2="74.8931" y2="141.686" gradientUnits="userSpaceOnUse">
<stop stop-color="#FF8587"/>
<stop offset="0.601054" stop-color="#AB35CF"/>
<stop offset="1" stop-color="#7300FF"/>
</linearGradient>
<linearGradient id="paint6_linear_983_1177" x1="391.18" y1="141.627" x2="108.312" y2="141.627" gradientUnits="userSpaceOnUse">
<stop stop-color="#FF8587"/>
<stop offset="0.601054" stop-color="#AB35CF"/>
<stop offset="1" stop-color="#7300FF"/>
</linearGradient>
<linearGradient id="paint7_linear_983_1177" x1="40.9957" y1="219.629" x2="68.6825" y2="224.421" gradientUnits="userSpaceOnUse">
<stop/>
<stop offset="1" stop-color="#00096F"/>
</linearGradient>
<linearGradient id="paint8_linear_983_1177" x1="40.9957" y1="263.629" x2="68.6825" y2="268.421" gradientUnits="userSpaceOnUse">
<stop/>
<stop offset="1" stop-color="#00096F"/>
</linearGradient>
<linearGradient id="paint9_linear_983_1177" x1="40.9957" y1="307.629" x2="68.6825" y2="312.421" gradientUnits="userSpaceOnUse">
<stop/>
<stop offset="1" stop-color="#00096F"/>
</linearGradient>
<linearGradient id="paint10_linear_983_1177" x1="40.9957" y1="351.629" x2="68.6825" y2="356.421" gradientUnits="userSpaceOnUse">
<stop/>
<stop offset="1" stop-color="#00096F"/>
</linearGradient>
</defs>
</svg>
