<svg width="2851" height="1017" viewBox="0 0 2851 1017" fill="none" xmlns="http://www.w3.org/2000/svg">
<path d="M2465.63 608.752C2465.27 581.071 2476.56 557.579 2499.51 538.275C2522.82 518.607 2552.86 508.774 2589.65 508.774C2626.44 508.774 2656.49 518.607 2679.8 538.275C2703.11 557.579 2714.76 581.071 2714.76 608.752C2714.76 636.797 2703.11 660.471 2679.8 679.775C2656.49 699.078 2626.44 708.73 2589.65 708.73C2552.86 708.73 2523 699.078 2500.05 679.775C2477.47 660.471 2466 636.797 2465.63 608.752ZM2525.73 608.752C2525.73 622.228 2531.19 633.883 2542.12 643.717C2553.41 653.187 2569.25 657.922 2589.65 657.922C2610.05 657.922 2625.89 653.187 2637.18 643.717C2648.84 633.883 2654.66 622.228 2654.66 608.752C2654.66 595.276 2648.84 583.803 2637.18 574.333C2625.89 564.499 2610.05 559.582 2589.65 559.582C2569.25 559.582 2553.41 564.499 2542.12 574.333C2531.19 583.803 2525.73 595.276 2525.73 608.752ZM2612.05 777.568V849.683H2551.95V777.568H2427.94V726.213H2584.73C2605.86 726.213 2633.72 725.666 2668.32 724.574C2702.92 723.481 2737.89 719.475 2773.22 712.555V763.91C2740.8 770.83 2707.29 774.836 2672.69 775.929C2650.48 776.657 2630.26 777.204 2612.05 777.568ZM2787.97 898.307V848.044H2669.96V797.236H2787.97V483.642H2847.52V898.307H2787.97ZM2850.25 1003.75H2551.41V862.249H2612.05V952.393H2850.25V1003.75Z" fill="black"/>
<path d="M2172.67 562.314H2073.23C2040.45 562.314 2010.22 554.483 1982.54 538.822L2000.57 496.208C2034.08 506.042 2060.85 510.959 2080.88 510.959H2172.67V562.314ZM2233.85 634.429H2097.27C2076.15 637.343 2060.67 644.081 2050.83 654.644C2035.54 671.033 2027.89 687.423 2027.89 703.813C2027.89 719.475 2033.17 732.587 2043.73 743.149C2054.66 753.711 2067.41 758.993 2081.98 758.993C2098.73 758.993 2112.39 753.893 2122.95 743.695C2133.88 733.133 2139.34 719.839 2139.34 703.813C2139.34 699.807 2138.25 694.708 2136.06 688.516C2133.88 682.324 2129.32 676.497 2122.4 671.033L2165.02 641.532C2177.04 651.366 2185.23 661.382 2189.6 671.58C2194.34 681.778 2196.7 692.34 2196.7 703.267C2196.7 732.769 2185.78 757.9 2163.92 778.66C2142.07 799.421 2114.75 809.801 2081.98 809.801C2050.29 809.801 2023.52 799.239 2001.66 778.114C1980.18 756.625 1969.43 731.676 1969.43 703.267C1969.43 679.228 1978.54 656.283 1996.75 634.429H1935.56V585.26H2233.85V634.429ZM2408.68 683.053H2324.55V816.357H2265V483.642H2324.55V628.42H2408.68V683.053ZM2319.08 1014.67H2259.53V883.556H2036.08V832.201H2319.08V1014.67Z" fill="black"/>
<path d="M1726.7 716.925C1721.97 742.785 1710.13 765.549 1691.19 785.216C1665.69 811.076 1633.64 824.006 1595.04 824.006C1556.06 824.006 1524.01 811.076 1498.88 785.216C1473.75 759.357 1461.18 727.852 1461.18 690.701C1461.18 654.279 1473.75 623.139 1498.88 597.279C1524.01 571.055 1556.06 557.943 1595.04 557.943C1633.64 557.943 1665.69 570.873 1691.19 596.733C1710.13 616.765 1721.97 639.528 1726.7 665.024H1813.57V483.642H1873.12V990.09H1813.57V716.925H1726.7ZM1668.79 690.701C1668.79 669.212 1661.69 650.273 1647.48 633.883C1633.64 617.129 1616.16 608.752 1595.04 608.752C1573.91 608.752 1556.25 617.129 1542.04 633.883C1528.2 650.273 1521.28 669.212 1521.28 690.701C1521.28 712.919 1528.2 732.222 1542.04 748.612C1555.88 765.002 1573.55 773.197 1595.04 773.197C1616.16 773.197 1633.64 765.002 1647.48 748.612C1661.69 732.222 1668.79 712.919 1668.79 690.701Z" fill="black"/>
<path d="M1119.04 708.73C1139.44 708.73 1155.65 701.81 1167.67 687.97C1180.05 674.129 1186.24 658.104 1186.24 639.893C1186.24 621.682 1180.05 605.656 1167.67 591.816C1155.65 577.975 1139.44 571.055 1119.04 571.055C1099.01 571.055 1082.98 577.975 1070.96 591.816C1058.95 605.656 1052.94 621.682 1052.94 639.893C1052.94 658.104 1058.95 674.129 1070.96 687.97C1082.98 701.81 1099.01 708.73 1119.04 708.73ZM992.84 639.893C992.84 607.477 1004.68 579.432 1028.35 555.758C1052.03 532.084 1082.26 520.246 1119.04 520.246C1156.19 520.246 1186.79 532.084 1210.83 555.758C1211.19 556.122 1211.37 556.486 1211.37 556.851H1340.31V483.642H1399.31V797.782H1340.31V730.037H1204.27C1181.32 749.705 1152.91 759.539 1119.04 759.539C1082.26 759.539 1052.03 747.702 1028.35 724.027C1004.68 700.353 992.84 672.308 992.84 639.893ZM1241.97 608.206C1244.88 618.404 1246.34 628.966 1246.34 639.893C1246.34 653.733 1244.15 666.663 1239.78 678.682H1340.31V608.206H1241.97ZM1395.48 904.863C1395.48 935.093 1383.65 961.135 1359.97 982.988C1336.3 1005.21 1304.43 1016.31 1264.37 1016.31C1225.03 1016.31 1193.52 1005.21 1169.85 982.988C1146.18 961.135 1134.34 935.093 1134.34 904.863C1134.34 874.632 1146.18 848.591 1169.85 826.737C1193.52 804.52 1225.03 793.411 1264.37 793.411C1304.07 793.411 1335.75 804.52 1359.43 826.737C1383.47 848.591 1395.48 874.632 1395.48 904.863ZM1335.39 904.863C1335.39 888.837 1329.2 874.814 1316.81 862.795C1304.79 850.776 1287.31 844.766 1264.37 844.766C1241.78 844.766 1224.48 850.776 1212.46 862.795C1200.45 874.814 1194.44 888.837 1194.44 904.863C1194.44 920.888 1200.45 934.911 1212.46 946.93C1224.48 958.949 1241.78 964.959 1264.37 964.959C1287.31 964.959 1304.79 958.949 1316.81 946.93C1329.2 934.911 1335.39 920.888 1335.39 904.863Z" fill="black"/>
<path d="M822.613 757.9H525.409V706.545H580.588V679.228C580.588 666.845 580.042 653.551 578.95 639.346C578.221 625.142 573.85 611.484 565.838 598.372L620.471 583.074C629.576 598.372 634.857 615.126 636.314 633.337C638.135 651.183 639.046 666.481 639.046 679.228V706.545H707.337V571.601H532.511V520.246H810.593V571.601H764.155V706.545H822.613V757.9ZM869.051 799.421V483.642H928.601V799.421H869.051ZM923.684 1014.67H864.134V866.073H634.675V814.718H923.684V1014.67Z" fill="black"/>
<path d="M263.403 714.744C259.033 743.153 247.196 767.374 227.892 787.406C203.125 812.901 173.077 825.649 137.748 825.649C102.782 825.649 72.9164 812.901 48.1495 787.406C23.3825 761.91 10.999 729.677 10.999 690.705C10.999 651.734 23.2004 619.5 47.6031 594.005C72.3701 568.509 102.418 555.762 137.748 555.762C173.441 555.762 203.671 568.509 228.438 594.005C247.013 613.309 258.486 636.436 262.857 663.389H310.388V494.573H367.752V957.314H310.388V714.744H263.403ZM205.492 690.705C205.492 665.938 198.936 645.724 185.825 630.063C172.713 614.401 156.687 606.57 137.748 606.57C119.172 606.57 103.329 614.401 90.2169 630.063C77.1049 645.724 70.549 665.938 70.549 690.705C70.549 715.472 77.1049 735.686 90.2169 751.348C103.329 767.009 119.172 774.84 137.748 774.84C156.323 774.84 172.166 767.009 185.278 751.348C198.754 735.686 205.492 715.472 205.492 690.705ZM464.999 990.094H407.088V483.646H464.999V990.094Z" fill="black"/>
<path d="M319.196 73.1331L42.684 87.6245L13.1993 328.069L57.8224 376.481L545.422 350.927L632.732 387.199L630.597 346.463L1608.27 295.226C1663.81 292.315 1690.2 276.078 1699.63 219.882C1699.63 219.882 1714.14 95.3391 1717.34 61.7507L1661.02 2.81105L1563.5 7.92186L1560.64 24.1635C1546.74 18.703 1526.47 9.86267 1488.2 11.8682C1452.4 13.7443 1423.49 28.8757 1417.44 31.668L1416.6 15.6204L1252.42 24.2247L1230.65 57.5487L1217.86 26.0361L987.022 38.1338L975.126 70.9402C963.045 53.0064 949.989 40.0746 916.66 41.8213L804.327 47.7084C804.088 51.0218 801.594 66.419 801.594 66.419C792.5 58.2309 773.466 49.3258 756.184 50.2315L626.569 57.0243L621.621 104.321C610.883 88.3791 580.596 58.4434 530.283 62.0704C506.829 63.2996 493.186 62.7769 459.334 78.1669L461.155 65.6933L361.167 70.9335C360.885 73.4239 359.409 84.6417 359.409 84.6417C351.744 80.0923 340.181 72.0333 319.196 73.1331Z" fill="url(#paint0_linear_2063_569)"/>
<path d="M1447.02 177.579C1447.66 189.731 1456.69 195.35 1474.13 194.436C1491.74 193.513 1500.26 187.593 1499.69 176.674C1499.38 170.862 1496.14 166.264 1489.96 162.879C1483.78 159.495 1476.31 156.796 1467.55 154.782C1458.96 152.76 1450.27 150.39 1441.48 147.672C1432.85 144.769 1425.36 140.04 1419.01 133.486C1412.66 126.755 1409.21 118.194 1408.66 107.804C1406.35 63.5995 1433.63 40.0069 1490.51 37.0258C1511.29 35.9367 1527.18 39.0777 1538.16 46.449C1549.31 53.6349 1555.25 64.1843 1555.98 78.0971C1556.24 83.2044 1555.8 88.1724 1554.64 93.0013C1553.64 97.6448 1552.49 100.972 1551.19 102.983L1549.24 106.264L1502.48 108.714C1506.14 104.461 1507.81 99.252 1507.49 93.0881C1506.89 81.6408 1499.11 76.3094 1484.14 77.0939C1465.29 78.0815 1456.18 84.5631 1456.81 96.5387C1457.13 102.527 1460.37 107.125 1466.54 110.333C1472.71 113.541 1480.08 115.981 1488.65 117.651C1497.38 119.136 1506.14 121.149 1514.92 123.691C1523.71 126.233 1531.28 130.869 1537.64 137.6C1543.98 144.154 1547.45 152.979 1548.03 164.074C1549.2 186.44 1543.38 203.434 1530.57 215.054C1517.75 226.498 1497.43 232.949 1469.6 234.408C1441.77 235.866 1422.5 231.932 1411.76 222.605C1403.8 215.605 1399.48 205.589 1398.8 192.557C1398.54 187.625 1398.79 182.226 1399.54 176.359L1400.11 172.091L1447.66 169.599L1447.3 172.797C1447.04 174.576 1446.95 176.171 1447.02 177.579Z" fill="white"/>
<path d="M1392.81 44.0006L1369.49 235.946L1321.68 238.452L1345.26 46.4926L1392.81 44.0006Z" fill="white"/>
<path d="M1324.52 47.5791L1255.05 147.376L1300.94 239.538L1246.79 242.376L1217.72 182.974L1177.31 246.017L1123.16 248.855L1188.22 150.879L1146.74 56.8964L1200.89 54.0583L1226.06 114.724L1270.37 50.4172L1324.52 47.5791Z" fill="white"/>
<path d="M1064.61 251.924L1064.03 210.366L1019.91 212.678L1009.14 254.831L958.683 257.475L1016.61 63.7165L1103.78 59.1478L1114.81 249.293L1064.61 251.924ZM1046.24 108.52L1028.89 176.712L1063.49 174.899L1062.88 107.648L1046.24 108.52Z" fill="white"/>
<path d="M897.397 69.9639C917.474 68.9117 931.97 72.5669 940.885 80.9295C947.575 87.2895 951.189 95.5767 951.724 105.791C951.908 109.313 951.75 113.03 951.249 116.942L948.63 137.741C947.117 149.299 943.903 158.738 938.989 166.06C934.251 173.372 928.79 178.691 922.607 182.017L950.689 257.894L897.327 260.691L871.413 190.793L855.034 191.651L847.927 263.28L797.207 265.938L820.789 73.9788L897.397 69.9639ZM882.914 112.046L863.102 113.085L858.642 159.41L877.134 158.441C886.468 157.952 893.045 155.399 896.865 150.784C900.675 145.993 902.387 139.899 901.999 132.502C901.252 118.237 894.89 111.419 882.914 112.046Z" fill="white"/>
<path d="M722.415 211.846L690.979 213.493L683.709 271.886L636.158 274.378L659.74 82.419L740.311 78.1964C760.212 77.1535 774.629 80.9894 783.562 89.7042C790.095 96.4257 793.648 105.246 794.22 116.165C794.414 119.863 794.264 123.756 793.772 127.844L790.053 157.971C788.178 172.727 781.061 185.197 768.703 195.381C756.336 205.388 740.907 210.877 722.415 211.846ZM725.828 120.279L702.053 121.525L695.952 171.909L719.463 170.677C733.904 169.92 741.933 163.054 743.548 150.078L744.83 139.15C745.099 137.547 745.164 135.424 745.026 132.782C744.887 130.141 743.414 127.304 740.607 124.272C737.799 121.241 732.873 119.91 725.828 120.279Z" fill="white"/>
<path d="M494.344 285.519C469.16 286.839 451.438 282.293 441.18 271.882C434.082 264.483 430.168 253.828 429.439 239.915C429.125 233.927 429.404 227.467 430.277 220.534L437.924 159.208C443.514 114.236 470.964 90.4582 520.276 87.8739C540.705 86.8032 556.433 90.3938 567.462 98.6456C578.48 106.721 584.387 118.332 585.181 133.478C585.55 140.522 584.862 147.622 583.118 154.777C581.541 161.747 579.871 166.956 578.109 170.403L575.48 175.839L528.723 178.29C534.184 171.293 536.591 161.63 535.945 149.303C535.604 142.786 533.663 137.767 530.123 134.244C526.574 130.545 521.541 128.866 515.025 129.208C497.238 130.14 487.188 140.556 484.875 160.456L478.426 214.302C477.786 218.927 477.581 223.441 477.811 227.844C478.421 239.467 485.682 244.914 499.594 244.185C516.325 243.308 525.87 233.36 528.228 214.341L575.778 211.849L574.859 219.579C569.965 260.982 543.127 282.962 494.344 285.519Z" fill="white"/>
<path d="M427.154 94.6083L403.837 286.554L356.023 289.059L379.604 97.1003L427.154 94.6083Z" fill="white"/>
<path d="M283.523 234.847L252.087 236.495L244.816 294.887L197.266 297.379L220.847 105.42L301.418 101.198C321.319 100.155 335.736 103.991 344.669 112.705C351.202 119.427 354.755 128.247 355.327 139.166C355.521 142.864 355.372 146.757 354.88 150.845L351.161 180.973C349.285 195.728 342.169 208.198 329.811 218.382C317.444 228.39 302.014 233.878 283.523 234.847ZM286.936 143.28L263.16 144.526L257.059 194.911L280.57 193.679C295.012 192.922 303.04 186.055 304.656 173.079L305.937 162.151C306.206 160.548 306.272 158.425 306.133 155.784C305.995 153.142 304.522 150.305 301.714 147.274C298.906 144.242 293.98 142.911 286.936 143.28Z" fill="white"/>
<path d="M176.808 298.452L44.1955 305.402L67.7769 113.442L200.389 106.493L195.152 148.09L110.09 152.548L105.883 188.529L176.152 184.847L170.915 226.445L100.646 230.127L96.9827 261.312L182.045 256.854L176.808 298.452Z" fill="white"/>
<path d="M1612.79 159.465L1578.11 161.283L1590.25 33.7521L1634.58 31.4291L1612.79 159.465ZM1564.76 210.917C1564.23 200.71 1566.27 193.167 1570.9 188.287C1575.51 183.247 1583.12 180.45 1593.73 179.894C1608.33 179.129 1615.94 184.647 1616.56 196.448C1617.08 206.496 1614.95 213.964 1610.15 218.853C1605.52 223.733 1597.91 226.451 1587.31 227.006C1572.88 227.762 1565.36 222.399 1564.76 210.917Z" fill="white"/>
<defs>
<linearGradient id="paint0_linear_2063_569" x1="7.80094" y1="254.687" x2="2392.48" y2="129.711" gradientUnits="userSpaceOnUse">
<stop stop-color="#3182F6"/>
<stop offset="1" stop-color="#A009FF"/>
</linearGradient>
</defs>
</svg>
