<svg width="1350" height="931" viewBox="0 0 1350 931" fill="none" xmlns="http://www.w3.org/2000/svg">
<path d="M714.98 444.928C714.98 477.439 708.577 509.632 696.135 539.669C683.694 569.705 665.458 596.997 642.469 619.986C619.48 642.975 592.188 661.211 562.151 673.653C532.114 686.094 499.921 692.498 467.41 692.498L467.41 444.928H714.98Z" fill="#C3E1FD"/>
<path fill-rule="evenodd" clip-rule="evenodd" d="M695.573 539.436C707.906 509.66 714.292 477.761 714.371 445.536H468.018L468.018 691.889C500.243 691.81 532.143 685.424 561.918 673.091C591.881 660.68 619.106 642.489 642.038 619.556C664.971 596.624 683.162 569.399 695.573 539.436ZM468.018 692.497C467.816 692.498 467.613 692.498 467.41 692.498L467.41 444.928H714.98C714.98 445.131 714.98 445.333 714.979 445.536C714.9 477.841 708.499 509.819 696.135 539.669C683.694 569.705 665.458 596.997 642.469 619.986C619.48 642.975 592.188 661.211 562.151 673.653C532.302 686.017 500.323 692.418 468.018 692.497Z" fill="#3182F6"/>
<path d="M467.41 197.358C499.921 197.358 532.114 203.761 562.151 216.203C592.188 228.644 619.48 246.88 642.469 269.869C665.458 292.858 683.694 320.15 696.135 350.187C708.577 380.223 714.98 412.416 714.98 444.928L467.41 444.928L467.41 197.358Z" fill="#97CAFE"/>
<path fill-rule="evenodd" clip-rule="evenodd" d="M561.918 216.765C532.143 204.431 500.243 198.046 468.018 197.967L468.018 444.319L714.371 444.319C714.292 412.095 707.906 380.195 695.573 350.419C683.162 320.457 664.971 293.232 642.038 270.299C619.106 247.367 591.881 229.176 561.918 216.765ZM714.979 444.319C714.98 444.522 714.98 444.725 714.98 444.928L467.41 444.928L467.41 197.358C467.613 197.358 467.816 197.358 468.018 197.358C500.323 197.438 532.302 203.839 562.151 216.203C592.188 228.644 619.48 246.88 642.469 269.869C665.458 292.858 683.693 320.15 696.135 350.187C708.499 380.036 714.9 412.015 714.979 444.319Z" fill="#3182F6"/>
<path d="M219.84 444.928C219.84 477.439 226.243 509.632 238.685 539.669C251.127 569.705 269.362 596.997 292.351 619.986C315.34 642.975 342.632 661.211 372.669 673.653C402.706 686.094 434.899 692.498 467.41 692.498L467.41 444.928L219.84 444.928Z" fill="#C3E1FD"/>
<path fill-rule="evenodd" clip-rule="evenodd" d="M239.247 539.436C226.914 509.66 220.528 477.761 220.449 445.536L466.802 445.536L466.802 691.889C434.577 691.81 402.677 685.424 372.902 673.091C342.939 660.68 315.714 642.489 292.782 619.556C269.849 596.624 251.658 569.399 239.247 539.436ZM466.802 692.497C467.004 692.498 467.207 692.498 467.41 692.498L467.41 444.928L219.84 444.928C219.84 445.13 219.84 445.333 219.841 445.536C219.92 477.841 226.321 509.819 238.685 539.669C251.127 569.705 269.362 596.997 292.351 619.986C315.34 642.975 342.632 661.211 372.669 673.653C402.518 686.017 434.497 692.418 466.802 692.497Z" fill="#3182F6"/>
<path d="M467.41 197.358C434.899 197.358 402.706 203.761 372.669 216.203C342.632 228.644 315.341 246.88 292.351 269.869C269.362 292.858 251.127 320.15 238.685 350.187C226.243 380.223 219.84 412.416 219.84 444.928L467.41 444.928L467.41 197.358Z" fill="#97CAFE"/>
<path fill-rule="evenodd" clip-rule="evenodd" d="M372.902 216.765C402.677 204.431 434.577 198.046 466.802 197.967L466.802 444.319L220.449 444.319C220.528 412.095 226.914 380.195 239.247 350.419C251.658 320.457 269.849 293.232 292.782 270.299C315.714 247.367 342.939 229.176 372.902 216.765ZM219.841 444.319C219.84 444.522 219.84 444.725 219.84 444.928L467.41 444.928L467.41 197.358C467.207 197.358 467.005 197.358 466.802 197.358C434.497 197.438 402.518 203.839 372.669 216.203C342.632 228.644 315.341 246.88 292.351 269.869C269.362 292.858 251.127 320.15 238.685 350.187C226.321 380.036 219.92 412.015 219.841 444.319Z" fill="#3182F6"/>
<path d="M812.913 145.349C812.913 115.282 837.287 90.9082 867.354 90.9082H1350V199.79H867.354C837.287 199.79 812.913 175.416 812.913 145.349Z" fill="url(#paint0_linear_8_699)"/>
<path d="M812.913 145.349C812.913 115.282 837.287 90.9082 867.354 90.9082C897.421 90.9082 921.795 115.282 921.795 145.349C921.795 175.416 897.421 199.79 867.354 199.79C837.287 199.79 812.913 175.416 812.913 145.349Z" fill="url(#paint1_linear_8_699)"/>
<path d="M908.719 146.279V151.128H906.433V142.742H908.61V144.209H908.703C909.089 143.236 909.985 142.634 911.221 142.634C912.966 142.634 914.124 143.823 914.109 145.784V151.128H911.838V146.186C911.838 145.151 911.267 144.533 910.325 144.533C909.367 144.533 908.719 145.167 908.719 146.279Z" fill="white"/>
<path d="M900.872 151.298C898.339 151.298 896.764 149.553 896.764 146.958C896.764 144.364 898.339 142.634 900.872 142.634C903.405 142.634 904.996 144.364 904.996 146.958C904.996 149.553 903.405 151.298 900.872 151.298ZM900.888 149.522C902.062 149.522 902.664 148.426 902.664 146.958C902.664 145.476 902.062 144.379 900.888 144.379C899.699 144.379 899.081 145.476 899.081 146.958C899.081 148.426 899.699 149.522 900.888 149.522Z" fill="white"/>
<path d="M893.042 151.128V142.742H895.328V151.128H893.042ZM894.185 141.645C893.49 141.645 892.934 141.12 892.934 140.487C892.934 139.838 893.49 139.313 894.185 139.313C894.864 139.313 895.42 139.838 895.42 140.487C895.42 141.12 894.864 141.645 894.185 141.645Z" fill="white"/>
<path d="M891.605 142.742V144.456H890.03V148.549C890.03 149.213 890.354 149.383 890.818 149.398C891.049 149.398 891.451 149.383 891.729 149.352V151.159C891.482 151.205 891.08 151.236 890.509 151.236C888.856 151.236 887.729 150.495 887.744 148.873V144.456H886.586V142.742H887.744V140.734H890.03V142.742H891.605Z" fill="white"/>
<path d="M877.968 148.781C877.968 146.912 879.481 146.294 881.088 146.201C881.69 146.163 882.817 146.109 883.173 146.093V145.414C883.157 144.719 882.678 144.302 881.829 144.302C881.057 144.302 880.562 144.657 880.439 145.228H878.261C878.4 143.777 879.667 142.634 881.891 142.634C883.713 142.634 885.443 143.452 885.443 145.476V151.128H883.281V149.97H883.219C882.802 150.742 882.014 151.283 880.763 151.283C879.157 151.283 877.968 150.449 877.968 148.781ZM880.161 148.719C880.161 149.368 880.686 149.707 881.412 149.707C882.447 149.707 883.188 149.012 883.173 148.132V147.514C882.825 147.53 881.852 147.584 881.458 147.622C880.671 147.7 880.161 148.07 880.161 148.719Z" fill="white"/>
<path d="M873.227 151.298C870.663 151.298 869.119 149.522 869.119 146.958C869.119 144.394 870.679 142.634 873.227 142.634C875.389 142.634 876.857 143.9 876.949 145.815H874.802C874.663 144.981 874.123 144.41 873.258 144.41C872.161 144.41 871.435 145.337 871.435 146.927C871.435 148.549 872.146 149.476 873.258 149.476C874.061 149.476 874.663 148.982 874.802 148.086H876.949C876.841 149.985 875.451 151.298 873.227 151.298Z" fill="white"/>
<path d="M865.397 151.128V142.742H867.682V151.128H865.397ZM866.539 141.645C865.844 141.645 865.288 141.12 865.288 140.487C865.288 139.838 865.844 139.313 866.539 139.313C867.219 139.313 867.775 139.838 867.775 140.487C867.775 141.12 867.219 141.645 866.539 141.645Z" fill="white"/>
<path d="M864.053 142.742V144.456H862.385V151.128H860.099V144.456H858.91V142.742H860.099V142.109C860.099 140.348 861.165 139.421 862.848 139.421C863.373 139.421 863.806 139.468 864.207 139.56V141.29C863.883 141.259 863.636 141.244 863.512 141.244C862.771 141.244 862.385 141.537 862.385 142.232V142.742H864.053Z" fill="white"/>
<path d="M855.527 151.128V142.742H857.813V151.128H855.527ZM856.67 141.645C855.975 141.645 855.419 141.12 855.419 140.487C855.419 139.838 855.975 139.313 856.67 139.313C857.35 139.313 857.906 139.838 857.906 140.487C857.906 141.12 857.35 141.645 856.67 141.645Z" fill="white"/>
<path d="M841.627 151.128V142.742H843.805V144.209H843.897C844.252 143.236 845.102 142.634 846.229 142.634C847.388 142.634 848.237 143.236 848.515 144.209H848.592C848.948 143.252 849.89 142.634 851.125 142.634C852.685 142.634 853.766 143.669 853.766 145.491V151.128H851.481V145.939C851.481 144.981 850.924 144.518 850.168 144.518C849.303 144.518 848.809 145.12 848.809 146.001V151.128H846.585V145.877C846.585 145.043 846.059 144.518 845.287 144.518C844.515 144.518 843.913 145.136 843.913 146.093V151.128H841.627Z" fill="white"/>
<path d="M832.407 148.781C832.407 146.912 833.92 146.294 835.527 146.201C836.129 146.163 837.256 146.109 837.612 146.093V145.414C837.596 144.719 837.117 144.302 836.268 144.302C835.496 144.302 835.002 144.657 834.878 145.228H832.7C832.839 143.777 834.106 142.634 836.33 142.634C838.152 142.634 839.882 143.452 839.882 145.476V151.128H837.72V149.97H837.658C837.241 150.742 836.453 151.283 835.202 151.283C833.596 151.283 832.407 150.449 832.407 148.781ZM834.6 148.719C834.6 149.368 835.125 149.707 835.851 149.707C836.886 149.707 837.627 149.012 837.612 148.132V147.514C837.264 147.53 836.291 147.584 835.897 147.622C835.11 147.7 834.6 148.07 834.6 148.719Z" fill="white"/>
<path d="M828.7 143.545C828.391 142.494 827.541 141.846 826.321 141.846C824.592 141.846 823.418 143.174 823.418 145.521C823.418 147.884 824.561 149.228 826.337 149.228C827.935 149.228 828.885 148.325 828.916 146.911H826.491V145.166H831.155V146.556C831.155 149.491 829.148 151.282 826.321 151.282C823.186 151.282 821.055 149.089 821.055 145.552C821.055 141.923 823.325 139.792 826.275 139.792C828.792 139.792 830.738 141.336 831.047 143.545H828.7Z" fill="white"/>
<path d="M528.847 444.928C528.847 478.858 501.341 506.364 467.41 506.364C433.48 506.364 405.974 478.858 405.974 444.928C405.974 410.997 433.48 383.491 467.41 383.491C501.341 383.491 528.847 410.997 528.847 444.928Z" fill="url(#paint2_linear_8_699)"/>
<path d="M326.744 315.972V303.93H331.467C334.212 303.93 335.775 305.477 335.775 307.855C335.775 309.502 335.018 310.699 333.646 311.281L336.208 315.972H333.447L331.151 311.697H329.238V315.972H326.744ZM329.238 309.668H331.002C332.482 309.668 333.197 309.053 333.197 307.855C333.197 306.641 332.482 305.976 331.002 305.976H329.238V309.668Z" fill="#666666"/>
<path d="M316.63 303.93L319.558 313.111H319.674L322.618 303.93H325.379L321.221 315.972H318.011L313.836 303.93H316.63Z" fill="#666666"/>
<path d="M304.938 315.972V303.93H312.871V305.992H307.433V308.919H312.356V310.982H307.433V315.972H304.938Z" fill="#666666"/>
<path d="M348.079 591.167V596.39H345.617V587.358H347.962V588.938H348.062C348.478 587.89 349.443 587.242 350.773 587.242C352.653 587.242 353.9 588.522 353.884 590.635V596.39H351.439V591.067C351.439 589.953 350.823 589.288 349.809 589.288C348.777 589.288 348.079 589.969 348.079 591.167Z" fill="#666666"/>
<path d="M339.629 596.573C336.901 596.573 335.205 594.693 335.205 591.899C335.205 589.105 336.901 587.242 339.629 587.242C342.357 587.242 344.07 589.105 344.07 591.899C344.07 594.693 342.357 596.573 339.629 596.573ZM339.645 594.66C340.91 594.66 341.558 593.479 341.558 591.899C341.558 590.302 340.91 589.121 339.645 589.121C338.365 589.121 337.699 590.302 337.699 591.899C337.699 593.479 338.365 594.66 339.645 594.66Z" fill="#666666"/>
<path d="M331.196 596.39V587.358H333.658V596.39H331.196ZM332.427 586.177C331.679 586.177 331.08 585.612 331.08 584.93C331.08 584.231 331.679 583.666 332.427 583.666C333.159 583.666 333.758 584.231 333.758 584.93C333.758 585.612 333.159 586.177 332.427 586.177Z" fill="#666666"/>
<path d="M329.65 587.358V589.204H327.953V593.612C327.953 594.327 328.303 594.51 328.802 594.527C329.051 594.527 329.484 594.51 329.783 594.477V596.423C329.517 596.473 329.084 596.506 328.469 596.506C326.689 596.506 325.475 595.708 325.492 593.961V589.204H324.244V587.358H325.492V585.196H327.953V587.358H329.65Z" fill="#666666"/>
<path d="M319.354 596.573C316.593 596.573 314.93 594.66 314.93 591.899C314.93 589.138 316.61 587.242 319.354 587.242C321.683 587.242 323.263 588.606 323.363 590.668H321.051C320.901 589.77 320.319 589.154 319.387 589.154C318.206 589.154 317.425 590.152 317.425 591.866C317.425 593.612 318.19 594.61 319.387 594.61C320.252 594.61 320.901 594.078 321.051 593.113H323.363C323.246 595.159 321.749 596.573 319.354 596.573Z" fill="#666666"/>
<path d="M307.578 591.167V596.39H305.116V587.358H307.461V588.938H307.561C307.977 587.89 308.942 587.242 310.272 587.242C312.152 587.242 313.399 588.522 313.382 590.635V596.39H310.937V591.067C310.937 589.953 310.322 589.288 309.307 589.288C308.276 589.288 307.578 589.969 307.578 591.167Z" fill="#666666"/>
<path d="M300.742 592.548V587.358H303.203V596.39H300.841V594.76H300.742C300.326 595.808 299.361 596.506 297.997 596.506C296.184 596.506 294.953 595.226 294.953 593.113V587.358H297.415V592.681C297.415 593.745 298.03 594.427 298.995 594.427C299.893 594.427 300.742 593.779 300.742 592.548Z" fill="#666666"/>
<path d="M285.989 596.39V584.348H293.923V586.41H288.484V589.337H293.407V591.4H288.484V596.39H285.989Z" fill="#666666"/>
<path d="M348.22 578.068C345.725 578.068 344.194 576.953 344.045 575.24H346.473C346.606 575.955 347.288 576.288 348.269 576.288C349.417 576.288 350.182 575.806 350.182 574.542V572.895H350.066C349.733 573.627 348.935 574.359 347.488 574.359C345.442 574.359 343.812 572.928 343.812 569.918C343.812 566.857 345.492 565.344 347.488 565.344C349.001 565.344 349.733 566.242 350.066 566.974H350.166V565.46H352.611V574.592C352.611 576.887 350.781 578.068 348.22 578.068ZM348.253 572.512C349.484 572.512 350.182 571.548 350.182 569.951C350.182 568.338 349.484 567.306 348.253 567.306C347.005 567.306 346.34 568.388 346.34 569.951C346.34 571.514 347.005 572.512 348.253 572.512Z" fill="#666666"/>
<path d="M336.444 569.269V574.492H333.982V565.46H336.328V567.04H336.427C336.843 565.992 337.808 565.344 339.139 565.344C341.018 565.344 342.265 566.624 342.249 568.737V574.492H339.804V569.169C339.804 568.055 339.188 567.39 338.174 567.39C337.143 567.39 336.444 568.072 336.444 569.269Z" fill="#666666"/>
<path d="M329.608 574.492V565.46H332.069V574.492H329.608ZM330.838 564.279C330.09 564.279 329.491 563.714 329.491 563.032C329.491 562.333 330.09 561.768 330.838 561.768C331.57 561.768 332.169 562.333 332.169 563.032C332.169 563.714 331.57 564.279 330.838 564.279Z" fill="#666666"/>
<path d="M324.069 574.675C321.308 574.675 319.645 572.762 319.645 570.001C319.645 567.24 321.325 565.344 324.069 565.344C326.398 565.344 327.978 566.708 328.078 568.77H325.766C325.616 567.872 325.034 567.257 324.102 567.257C322.921 567.257 322.14 568.254 322.14 569.968C322.14 571.714 322.905 572.712 324.102 572.712C324.967 572.712 325.616 572.18 325.766 571.215H328.078C327.961 573.261 326.464 574.675 324.069 574.675Z" fill="#666666"/>
<path d="M315.637 574.492V565.46H318.098V574.492H315.637ZM316.868 564.279C316.119 564.279 315.52 563.714 315.52 563.032C315.52 562.333 316.119 561.768 316.868 561.768C317.599 561.768 318.198 562.333 318.198 563.032C318.198 563.714 317.599 564.279 316.868 564.279Z" fill="#666666"/>
<path d="M314.089 565.46V567.306H312.393V571.714C312.393 572.429 312.742 572.612 313.241 572.629C313.49 572.629 313.923 572.612 314.222 572.579V574.525C313.956 574.575 313.524 574.608 312.908 574.608C311.129 574.608 309.914 573.81 309.931 572.063V567.306H308.684V565.46H309.931V563.298H312.393V565.46H314.089Z" fill="#666666"/>
<path d="M303.345 574.675C300.617 574.675 298.92 572.795 298.92 570.001C298.92 567.207 300.617 565.344 303.345 565.344C306.072 565.344 307.786 567.207 307.786 570.001C307.786 572.795 306.072 574.675 303.345 574.675ZM303.361 572.762C304.625 572.762 305.274 571.581 305.274 570.001C305.274 568.404 304.625 567.223 303.361 567.223C302.081 567.223 301.415 568.404 301.415 570.001C301.415 571.581 302.081 572.762 303.361 572.762Z" fill="#666666"/>
<path d="M297.307 562.45V574.492H295.145L289.856 566.841H289.756V574.492H287.261V562.45H289.457L294.713 570.101H294.829V562.45H297.307Z" fill="#666666"/>
<path d="M614.958 315.972V303.93H619.682C622.426 303.93 623.99 305.477 623.99 307.855C623.99 309.502 623.233 310.699 621.861 311.281L624.422 315.972H621.661L619.366 311.697H617.453V315.972H614.958ZM617.453 309.668H619.216C620.697 309.668 621.412 309.053 621.412 307.855C621.412 306.641 620.697 305.976 619.216 305.976H617.453V309.668Z" fill="#666666"/>
<path d="M604.929 315.972V303.93H613.013V305.992H607.424V308.919H612.597V310.982H607.424V313.909H613.03V315.972H604.929Z" fill="#666666"/>
<path d="M638.876 606.048C636.381 606.048 634.851 604.934 634.701 603.221H637.129C637.262 603.936 637.944 604.269 638.926 604.269C640.073 604.269 640.838 603.786 640.838 602.522V600.875H640.722C640.389 601.607 639.591 602.339 638.144 602.339C636.098 602.339 634.468 600.909 634.468 597.898C634.468 594.838 636.148 593.324 638.144 593.324C639.658 593.324 640.389 594.222 640.722 594.954H640.822V593.441H643.267V602.572C643.267 604.867 641.437 606.048 638.876 606.048ZM638.909 600.493C640.14 600.493 640.838 599.528 640.838 597.931C640.838 596.318 640.14 595.287 638.909 595.287C637.662 595.287 636.996 596.368 636.996 597.931C636.996 599.495 637.662 600.493 638.909 600.493Z" fill="#666666"/>
<path d="M627.099 597.25V602.472H624.638V593.441H626.983V595.021H627.083C627.499 593.973 628.463 593.324 629.794 593.324C631.673 593.324 632.921 594.605 632.904 596.717V602.472H630.459V597.15C630.459 596.035 629.844 595.37 628.829 595.37C627.798 595.37 627.099 596.052 627.099 597.25Z" fill="#666666"/>
<path d="M620.263 602.472V593.44H622.725V602.472H620.263ZM621.494 592.26C620.745 592.26 620.146 591.694 620.146 591.012C620.146 590.314 620.745 589.748 621.494 589.748C622.226 589.748 622.824 590.314 622.824 591.012C622.824 591.694 622.226 592.26 621.494 592.26Z" fill="#666666"/>
<path d="M618.716 593.441V595.287H617.02V599.694C617.02 600.41 617.369 600.593 617.868 600.609C618.118 600.609 618.55 600.593 618.849 600.559V602.505C618.583 602.555 618.151 602.589 617.535 602.589C615.756 602.589 614.542 601.79 614.558 600.044V595.287H613.311V593.441H614.558V591.278H617.02V593.441H618.716Z" fill="#666666"/>
<path d="M609.935 596.119C609.835 595.486 609.27 595.071 608.455 595.071C607.656 595.071 607.041 595.453 607.057 596.002C607.041 596.401 607.373 596.717 608.222 596.9L609.835 597.233C611.581 597.599 612.43 598.381 612.446 599.678C612.43 601.458 610.833 602.655 608.438 602.655C605.993 602.655 604.563 601.557 604.363 599.794H606.841C606.958 600.51 607.54 600.875 608.438 600.875C609.336 600.875 609.935 600.51 609.935 599.927C609.935 599.462 609.552 599.179 608.704 598.996L607.207 598.697C605.494 598.364 604.596 597.466 604.612 596.135C604.596 594.405 606.093 593.324 608.421 593.324C610.7 593.324 612.114 594.405 612.247 596.119H609.935Z" fill="#666666"/>
<path d="M599.09 602.655C596.329 602.655 594.632 600.859 594.632 597.998C594.632 595.204 596.345 593.324 598.99 593.324C601.368 593.324 603.231 594.821 603.231 597.898V598.597H597.061C597.061 599.961 597.876 600.809 599.14 600.809C599.971 600.809 600.57 600.443 600.82 599.894H603.165C602.815 601.557 601.319 602.655 599.09 602.655ZM597.061 597.05H600.903C600.903 595.952 600.138 595.17 599.04 595.17C597.909 595.17 597.102 596.01 597.061 597.05Z" fill="#666666"/>
<path d="M584.952 592.493V590.43H594.815V592.493H591.123V602.472H588.644V592.493H584.952Z" fill="#666666"/>
<path d="M656.989 574.221C656.889 573.589 656.324 573.173 655.509 573.173C654.71 573.173 654.095 573.555 654.112 574.104C654.095 574.503 654.428 574.819 655.276 575.002L656.889 575.335C658.636 575.701 659.484 576.483 659.501 577.78C659.484 579.56 657.887 580.757 655.492 580.757C653.047 580.757 651.617 579.659 651.417 577.896H653.895C654.012 578.612 654.594 578.978 655.492 578.978C656.39 578.978 656.989 578.612 656.989 578.029C656.989 577.564 656.607 577.281 655.758 577.098L654.261 576.799C652.548 576.466 651.65 575.568 651.667 574.237C651.65 572.507 653.147 571.426 655.475 571.426C657.754 571.426 659.168 572.507 659.301 574.221H656.989Z" fill="#666666"/>
<path d="M647.458 580.574V571.543H649.92V580.574H647.458ZM648.689 570.362C647.941 570.362 647.342 569.796 647.342 569.114C647.342 568.416 647.941 567.85 648.689 567.85C649.421 567.85 650.02 568.416 650.02 569.114C650.02 569.796 649.421 570.362 648.689 570.362Z" fill="#666666"/>
<path d="M643.433 574.221C643.333 573.589 642.768 573.173 641.953 573.173C641.155 573.173 640.539 573.555 640.556 574.104C640.539 574.503 640.872 574.819 641.72 575.002L643.333 575.335C645.08 575.701 645.928 576.483 645.945 577.78C645.928 579.56 644.331 580.757 641.936 580.757C639.491 580.757 638.061 579.659 637.861 577.896H640.34C640.456 578.612 641.038 578.978 641.936 578.978C642.834 578.978 643.433 578.612 643.433 578.029C643.433 577.564 643.051 577.281 642.202 577.098L640.706 576.799C638.992 576.466 638.094 575.568 638.111 574.237C638.094 572.507 639.591 571.426 641.92 571.426C644.198 571.426 645.612 572.507 645.745 574.221H643.433Z" fill="#666666"/>
<path d="M632.588 580.757C629.827 580.757 628.131 578.961 628.131 576.1C628.131 573.306 629.844 571.426 632.488 571.426C634.867 571.426 636.73 572.923 636.73 576V576.699H630.559C630.559 578.063 631.374 578.911 632.638 578.911C633.47 578.911 634.068 578.545 634.318 577.996H636.663C636.314 579.659 634.817 580.757 632.588 580.757ZM630.559 575.152H634.401C634.401 574.054 633.636 573.272 632.538 573.272C631.407 573.272 630.601 574.112 630.559 575.152Z" fill="#666666"/>
<path d="M620.746 575.352V580.574H618.284V568.532H620.68V573.123H620.779C621.195 572.075 622.11 571.426 623.474 571.426C625.353 571.426 626.601 572.69 626.601 574.819V580.574H624.139V575.252C624.139 574.137 623.54 573.472 622.509 573.472C621.478 573.472 620.746 574.154 620.746 575.352Z" fill="#666666"/>
<path d="M616.538 571.543V573.389H614.842V577.797C614.842 578.512 615.191 578.695 615.69 578.711C615.939 578.711 616.372 578.695 616.671 578.661V580.607C616.405 580.657 615.973 580.691 615.357 580.691C613.577 580.691 612.363 579.892 612.38 578.146V573.389H611.132V571.543H612.38V569.38H614.842V571.543H616.538Z" fill="#666666"/>
<path d="M605.793 580.757C603.066 580.757 601.369 578.878 601.369 576.083C601.369 573.289 603.066 571.426 605.793 571.426C608.521 571.426 610.234 573.289 610.234 576.083C610.234 578.878 608.521 580.757 605.793 580.757ZM605.81 578.844C607.074 578.844 607.723 577.664 607.723 576.083C607.723 574.487 607.074 573.306 605.81 573.306C604.529 573.306 603.864 574.487 603.864 576.083C603.864 577.664 604.529 578.844 605.81 578.844Z" fill="#666666"/>
<path d="M591.373 583.967V571.543H593.801V573.056H593.901C594.233 572.324 594.965 571.426 596.479 571.426C598.475 571.426 600.138 572.973 600.138 576.067C600.138 579.077 598.541 580.724 596.479 580.724C594.998 580.724 594.25 579.876 593.901 579.127H593.834V583.967H591.373ZM593.784 576.05C593.784 577.68 594.483 578.761 595.697 578.761C596.961 578.761 597.626 577.647 597.626 576.05C597.626 574.47 596.961 573.389 595.697 573.389C594.466 573.389 593.784 574.42 593.784 576.05Z" fill="#666666"/>
<path d="M583.239 583.967C582.756 583.967 582.307 583.95 581.991 583.917V582.004C582.307 582.021 582.673 582.038 582.989 582.038C583.472 582.038 583.871 581.988 584.17 581.206L584.32 580.824L581.076 571.542H583.654L585.551 578.196H585.65L587.563 571.542H590.174L586.648 581.572C586.133 583.019 585.151 583.967 583.239 583.967Z" fill="#666666"/>
<path d="M569.583 580.574V568.532H572.078V573.522H577.301V568.532H579.813V580.574H577.301V575.584H572.078V580.574H569.583Z" fill="#666666"/>
<path d="M622.522 444.928C622.522 465.297 618.51 485.467 610.715 504.286C602.919 523.105 591.494 540.205 577.091 554.608C562.687 569.012 545.588 580.437 526.769 588.232C507.95 596.027 487.78 600.039 467.41 600.039C447.041 600.039 426.87 596.027 408.051 588.232C389.232 580.437 372.133 569.012 357.73 554.608C343.326 540.205 331.901 523.105 324.106 504.286C316.311 485.467 312.299 465.297 312.299 444.928H405.986C405.986 452.994 407.575 460.981 410.662 468.434C413.748 475.886 418.273 482.657 423.977 488.361C429.68 494.065 436.452 498.589 443.904 501.676C451.356 504.763 459.344 506.352 467.41 506.352C475.476 506.352 483.464 504.763 490.916 501.676C498.368 498.589 505.14 494.065 510.844 488.361C516.547 482.657 521.072 475.886 524.159 468.434C527.246 460.981 528.834 452.994 528.834 444.928H622.522Z" fill="#0045FF"/>
<path d="M622.522 444.927C622.522 403.789 606.18 364.336 577.091 335.247C548.002 306.158 508.548 289.816 467.41 289.816C426.272 289.816 386.819 306.158 357.73 335.247C328.641 364.336 312.299 403.789 312.299 444.927L405.985 444.927C405.985 428.636 412.457 413.013 423.976 401.493C435.496 389.974 451.119 383.502 467.41 383.502C483.701 383.502 499.325 389.974 510.844 401.493C522.364 413.013 528.835 428.636 528.835 444.927H622.522Z" fill="#1E96FF"/>
<path d="M405.974 444.927C405.974 470.795 385.004 491.765 359.136 491.765C333.268 491.765 312.299 470.795 312.299 444.927C312.299 419.06 333.268 398.09 359.136 398.09C385.004 398.09 405.974 419.06 405.974 444.927Z" fill="#0045FF"/>
<path d="M622.522 444.927C622.522 470.795 601.552 491.765 575.685 491.765C549.817 491.765 528.847 470.795 528.847 444.927C528.847 419.06 549.817 398.09 575.685 398.09C601.552 398.09 622.522 419.06 622.522 444.927Z" fill="#1E96FF"/>
<path d="M492.753 353.023V355.396H490.572V361.063C490.572 361.983 491.021 362.218 491.663 362.24C491.983 362.24 492.539 362.218 492.924 362.175V364.677C492.582 364.742 492.026 364.784 491.235 364.784C488.947 364.784 487.386 363.758 487.407 361.512V355.396H485.803V353.023H487.407V350.243H490.572V353.023H492.753Z" fill="white"/>
<path d="M481.012 359.695V353.022H484.177V364.634H481.141V362.539H481.012C480.478 363.886 479.237 364.784 477.484 364.784C475.153 364.784 473.57 363.138 473.57 360.422V353.022H476.735V359.866C476.735 361.234 477.527 362.111 478.767 362.111C479.922 362.111 481.012 361.277 481.012 359.695Z" fill="white"/>
<path d="M460.248 368.997V353.023H463.37V354.969H463.498C463.926 354.028 464.867 352.873 466.813 352.873C469.379 352.873 471.518 354.862 471.518 358.839C471.518 362.71 469.465 364.827 466.813 364.827C464.91 364.827 463.948 363.737 463.498 362.774H463.413V368.997H460.248ZM463.349 358.818C463.349 360.914 464.247 362.304 465.808 362.304C467.433 362.304 468.289 360.871 468.289 358.818C468.289 356.786 467.433 355.396 465.808 355.396C464.226 355.396 463.349 356.722 463.349 358.818Z" fill="white"/>
<path d="M450.325 357.92V364.635H447.16V353.023H450.175V355.054H450.303C450.838 353.707 452.078 352.873 453.789 352.873C456.206 352.873 457.809 354.52 457.788 357.236V364.635H454.644V357.792C454.644 356.359 453.853 355.503 452.549 355.503C451.223 355.503 450.325 356.38 450.325 357.92Z" fill="white"/>
<path d="M444.615 349.152V364.635H441.408V349.152H444.615Z" fill="white"/>
<path d="M506.899 336.281C503.349 336.281 501.167 333.972 501.167 330.293C501.167 326.701 503.37 324.284 506.77 324.284C509.828 324.284 512.223 326.209 512.223 330.165V331.063H504.29C504.29 332.817 505.338 333.907 506.963 333.907C508.032 333.907 508.802 333.437 509.123 332.731H512.138C511.689 334.87 509.764 336.281 506.899 336.281ZM504.29 329.074H509.23C509.23 327.663 508.246 326.658 506.834 326.658C505.38 326.658 504.343 327.738 504.29 329.074Z" fill="white"/>
<path d="M500.484 324.434L496.4 336.046H492.85L488.786 324.434H492.123L494.56 332.774H494.689L497.127 324.434H500.484Z" fill="white"/>
<path d="M484.081 336.045V324.433H487.246V336.045H484.081ZM485.664 322.915C484.701 322.915 483.932 322.188 483.932 321.311C483.932 320.413 484.701 319.686 485.664 319.686C486.605 319.686 487.375 320.413 487.375 321.311C487.375 322.188 486.605 322.915 485.664 322.915Z" fill="white"/>
<path d="M482.093 324.433V326.807H479.911V332.474C479.911 333.394 480.36 333.629 481.002 333.65C481.323 333.65 481.879 333.629 482.264 333.586V336.088C481.921 336.152 481.365 336.195 480.574 336.195C478.286 336.195 476.725 335.169 476.746 332.923V326.807H475.142V324.433H476.746V321.653H479.911V324.433H482.093Z" fill="white"/>
<path d="M462.653 340.408V324.434H465.776V326.38H465.904C466.332 325.439 467.272 324.284 469.218 324.284C471.785 324.284 473.923 326.273 473.923 330.251C473.923 334.121 471.87 336.238 469.218 336.238C467.315 336.238 466.353 335.148 465.904 334.185H465.818V340.408H462.653ZM465.754 330.229C465.754 332.325 466.652 333.715 468.213 333.715C469.839 333.715 470.694 332.282 470.694 330.229C470.694 328.198 469.839 326.808 468.213 326.808C466.631 326.808 465.754 328.133 465.754 330.229Z" fill="white"/>
<path d="M449.887 332.795C449.887 330.208 451.982 329.352 454.206 329.224C455.04 329.171 456.602 329.096 457.093 329.074V328.133C457.072 327.171 456.409 326.594 455.233 326.594C454.164 326.594 453.479 327.086 453.308 327.877H450.293C450.485 325.867 452.239 324.284 455.318 324.284C457.842 324.284 460.237 325.418 460.237 328.219V336.046H457.243V334.442H457.158C456.58 335.511 455.49 336.26 453.757 336.26C451.533 336.26 449.887 335.105 449.887 332.795ZM452.923 332.71C452.923 333.608 453.65 334.078 454.656 334.078C456.088 334.078 457.115 333.116 457.093 331.897V331.042C456.612 331.063 455.265 331.138 454.72 331.191C453.629 331.298 452.923 331.812 452.923 332.71Z" fill="white"/>
<path d="M441.333 336.238C438.682 336.238 436.607 334.121 436.607 330.25C436.607 326.273 438.767 324.284 441.333 324.284C443.279 324.284 444.199 325.439 444.627 326.38H444.734V320.563H447.899V336.046H444.776V334.185H444.627C444.178 335.147 443.215 336.238 441.333 336.238ZM442.317 333.715C443.9 333.715 444.798 332.325 444.798 330.229C444.798 328.133 443.9 326.807 442.317 326.807C440.713 326.807 439.858 328.197 439.858 330.229C439.858 332.282 440.713 333.715 442.317 333.715Z" fill="white"/>
<path d="M424.525 336.046H421.06L426.428 320.563H430.555L435.901 336.046H432.458L431.304 332.474H425.701L424.525 336.046ZM426.513 329.972H430.491L428.545 324.049H428.438L426.513 329.972Z" fill="white"/>
<path d="M512.331 445.463V451.618H509.43V440.974H512.194V442.836H512.312C512.802 441.601 513.939 440.837 515.507 440.837C517.722 440.837 519.192 442.346 519.173 444.836V451.618H516.291V445.346C516.291 444.032 515.566 443.248 514.37 443.248C513.155 443.248 512.331 444.052 512.331 445.463Z" fill="white"/>
<path d="M502.373 451.834C499.158 451.834 497.158 449.619 497.158 446.326C497.158 443.032 499.158 440.837 502.373 440.837C505.588 440.837 507.607 443.032 507.607 446.326C507.607 449.619 505.588 451.834 502.373 451.834ZM502.392 449.58C503.882 449.58 504.647 448.188 504.647 446.326C504.647 444.444 503.882 443.052 502.392 443.052C500.883 443.052 500.099 444.444 500.099 446.326C500.099 448.188 500.883 449.58 502.392 449.58Z" fill="white"/>
<path d="M492.434 451.618V440.974H495.336V451.618H492.434ZM493.885 439.582C493.003 439.582 492.297 438.916 492.297 438.112C492.297 437.289 493.003 436.622 493.885 436.622C494.748 436.622 495.453 437.289 495.453 438.112C495.453 438.916 494.748 439.582 493.885 439.582Z" fill="white"/>
<path d="M490.61 440.974V443.15H488.611V448.345C488.611 449.188 489.023 449.403 489.611 449.423C489.905 449.423 490.414 449.403 490.767 449.364V451.658C490.454 451.716 489.944 451.756 489.219 451.756C487.121 451.756 485.69 450.815 485.71 448.756V443.15H484.24V440.974H485.71V438.426H488.611V440.974H490.61Z" fill="white"/>
<path d="M479.849 451.618V440.974H482.75V451.618H479.849ZM481.299 439.582C480.417 439.582 479.711 438.916 479.711 438.112C479.711 437.289 480.417 436.622 481.299 436.622C482.162 436.622 482.867 437.289 482.867 438.112C482.867 438.916 482.162 439.582 481.299 439.582Z" fill="white"/>
<path d="M475.105 444.13C474.987 443.385 474.321 442.895 473.36 442.895C472.419 442.895 471.694 443.346 471.714 443.993C471.694 444.463 472.086 444.836 473.086 445.052L474.987 445.444C477.046 445.875 478.045 446.796 478.065 448.325C478.045 450.423 476.163 451.834 473.341 451.834C470.459 451.834 468.773 450.54 468.538 448.462H471.459C471.596 449.305 472.282 449.737 473.341 449.737C474.399 449.737 475.105 449.305 475.105 448.619C475.105 448.07 474.654 447.737 473.654 447.521L471.89 447.169C469.871 446.777 468.812 445.718 468.832 444.15C468.812 442.111 470.577 440.837 473.321 440.837C476.007 440.837 477.673 442.111 477.83 444.13H475.105Z" fill="white"/>
<path d="M463.872 451.618V440.974H466.773V451.618H463.872ZM465.322 439.582C464.44 439.582 463.735 438.916 463.735 438.112C463.735 437.289 464.44 436.622 465.322 436.622C466.185 436.622 466.891 437.289 466.891 438.112C466.891 438.916 466.185 439.582 465.322 439.582Z" fill="white"/>
<path d="M458.717 447.09V440.974H461.618V451.618H458.834V449.697H458.717C458.227 450.932 457.09 451.755 455.482 451.755C453.346 451.755 451.895 450.246 451.895 447.756V440.974H454.796V447.247C454.796 448.501 455.521 449.305 456.658 449.305C457.717 449.305 458.717 448.54 458.717 447.09Z" fill="white"/>
<path d="M446.719 455.617V449.913H446.621C446.21 450.795 445.327 451.795 443.602 451.795C441.172 451.795 439.27 449.854 439.27 446.306C439.27 442.66 441.25 440.837 443.602 440.837C445.386 440.837 446.229 441.895 446.621 442.758H446.758V440.974H449.62V455.617H446.719ZM444.504 449.482C445.955 449.482 446.778 448.208 446.778 446.286C446.778 444.365 445.955 443.15 444.504 443.15C443.034 443.15 442.25 444.424 442.25 446.286C442.25 448.168 443.034 449.482 444.504 449.482Z" fill="white"/>
<path d="M433.154 451.834C429.9 451.834 427.94 449.58 427.94 446.326C427.94 443.072 429.92 440.837 433.154 440.837C435.899 440.837 437.761 442.444 437.879 444.875H435.154C434.977 443.817 434.291 443.091 433.194 443.091C431.802 443.091 430.88 444.267 430.88 446.286C430.88 448.345 431.782 449.521 433.194 449.521C434.213 449.521 434.977 448.894 435.154 447.757H437.879C437.741 450.168 435.977 451.834 433.154 451.834Z" fill="white"/>
<path d="M416.884 451.618H413.709L418.629 437.426H422.412L427.313 451.618H424.157L423.098 448.345H417.962L416.884 451.618ZM418.707 446.051H422.353L420.57 440.621H420.472L418.707 446.051Z" fill="white"/>
<path d="M503.348 557.405V559.778H501.167V565.445C501.167 566.365 501.616 566.6 502.257 566.621C502.578 566.621 503.134 566.6 503.519 566.557V569.059C503.177 569.123 502.621 569.166 501.829 569.166C499.541 569.166 497.98 568.14 498.002 565.894V559.778H496.398V557.405H498.002V554.625H501.167V557.405H503.348Z" fill="white"/>
<path d="M491.607 564.077V557.405H494.772V569.017H491.735V566.921H491.607C491.072 568.268 489.832 569.166 488.078 569.166C485.747 569.166 484.165 567.52 484.165 564.804V557.405H487.33V564.248C487.33 565.617 488.121 566.493 489.361 566.493C490.516 566.493 491.607 565.659 491.607 564.077Z" fill="white"/>
<path d="M470.843 573.379V557.405H473.965V559.351H474.093C474.521 558.41 475.462 557.255 477.408 557.255C479.974 557.255 482.112 559.244 482.112 563.221C482.112 567.092 480.059 569.209 477.408 569.209C475.504 569.209 474.542 568.118 474.093 567.156H474.007V573.379H470.843ZM473.943 563.2C473.943 565.296 474.841 566.686 476.403 566.686C478.028 566.686 478.883 565.253 478.883 563.2C478.883 561.168 478.028 559.778 476.403 559.778C474.82 559.778 473.943 561.104 473.943 563.2Z" fill="white"/>
<path d="M468.853 557.405V559.778H466.672V565.445C466.672 566.365 467.121 566.6 467.763 566.621C468.083 566.621 468.639 566.6 469.024 566.557V569.059C468.682 569.123 468.126 569.166 467.335 569.166C465.047 569.166 463.486 568.14 463.507 565.894V559.778H461.903V557.405H463.507V554.625H466.672V557.405H468.853Z" fill="white"/>
<path d="M457.113 564.077V557.405H460.278V569.017H457.242V566.921H457.113C456.579 568.268 455.338 569.166 453.585 569.166C451.254 569.166 449.671 567.52 449.671 564.804V557.405H452.836V564.248C452.836 565.617 453.628 566.493 454.868 566.493C456.023 566.493 457.113 565.659 457.113 564.077Z" fill="white"/>
<path d="M447.426 561.275C447.426 566.322 444.282 569.231 440.198 569.231C436.071 569.231 432.948 566.301 432.948 561.275C432.948 556.229 436.071 553.32 440.198 553.32C444.282 553.32 447.426 556.229 447.426 561.275ZM444.154 561.275C444.154 557.961 442.593 556.164 440.198 556.164C437.803 556.164 436.22 557.961 436.22 561.275C436.22 564.59 437.803 566.386 440.198 566.386C442.593 566.386 444.154 564.59 444.154 561.275Z" fill="white"/>
<path d="M516.093 540.62C513.441 540.62 511.367 538.503 511.367 534.632C511.367 530.655 513.527 528.666 516.093 528.666C518.039 528.666 518.958 529.821 519.386 530.762H519.493V524.945H522.658V540.427H519.536V538.567H519.386C518.937 539.529 517.975 540.62 516.093 540.62ZM517.077 538.097C518.659 538.097 519.557 536.706 519.557 534.611C519.557 532.515 518.659 531.189 517.077 531.189C515.473 531.189 514.617 532.579 514.617 534.611C514.617 536.664 515.473 538.097 517.077 538.097Z" fill="white"/>
<path d="M504.503 540.663C500.953 540.663 498.772 538.353 498.772 534.675C498.772 531.083 500.974 528.666 504.374 528.666C507.432 528.666 509.828 530.591 509.828 534.547V535.445H501.894C501.894 537.199 502.942 538.289 504.567 538.289C505.636 538.289 506.406 537.819 506.727 537.113H509.742C509.293 539.252 507.368 540.663 504.503 540.663ZM501.894 533.456H506.834C506.834 532.045 505.85 531.04 504.439 531.04C502.984 531.04 501.947 532.12 501.894 533.456Z" fill="white"/>
<path d="M490.132 540.62C487.48 540.62 485.406 538.503 485.406 534.632C485.406 530.655 487.566 528.666 490.132 528.666C492.078 528.666 492.998 529.821 493.425 530.762H493.532V524.945H496.697V540.427H493.575V538.567H493.425C492.976 539.529 492.014 540.62 490.132 540.62ZM491.116 538.097C492.698 538.097 493.596 536.706 493.596 534.611C493.596 532.515 492.698 531.189 491.116 531.189C489.512 531.189 488.657 532.579 488.657 534.611C488.657 536.664 489.512 538.097 491.116 538.097Z" fill="white"/>
<path d="M483.396 524.945V540.427H480.231V524.945H483.396Z" fill="white"/>
<path d="M472.531 540.663C469.024 540.663 466.843 538.246 466.843 534.654C466.843 531.061 469.024 528.666 472.531 528.666C476.039 528.666 478.241 531.061 478.241 534.654C478.241 538.246 476.039 540.663 472.531 540.663ZM472.553 538.204C474.178 538.204 475.012 536.685 475.012 534.654C475.012 532.601 474.178 531.083 472.553 531.083C470.906 531.083 470.051 532.601 470.051 534.654C470.051 536.685 470.906 538.204 472.553 538.204Z" fill="white"/>
<path d="M465.881 528.816V531.189H463.572V540.427H460.407V531.189H458.76V528.816H460.407V527.939C460.407 525.501 461.882 524.218 464.213 524.218C464.94 524.218 465.539 524.282 466.095 524.41V526.805C465.646 526.763 465.304 526.741 465.133 526.741C464.106 526.741 463.572 527.147 463.572 528.11V528.816H465.881Z" fill="white"/>
<path d="M457.84 528.816V531.189H455.531V540.427H452.366V531.189H450.719V528.816H452.366V527.939C452.366 525.501 453.841 524.218 456.172 524.218C456.899 524.218 457.498 524.282 458.054 524.41V526.805C457.605 526.763 457.263 526.741 457.092 526.741C456.065 526.741 455.531 527.147 455.531 528.11V528.816H457.84Z" fill="white"/>
<path d="M438.893 537.177C438.893 534.59 440.989 533.734 443.213 533.606C444.047 533.552 445.608 533.478 446.1 533.456V532.515C446.078 531.553 445.415 530.976 444.239 530.976C443.17 530.976 442.486 531.467 442.315 532.259H439.299C439.492 530.248 441.245 528.666 444.325 528.666C446.848 528.666 449.243 529.799 449.243 532.601V540.428H446.249V538.824H446.164C445.586 539.893 444.496 540.642 442.764 540.642C440.54 540.642 438.893 539.487 438.893 537.177ZM441.93 537.092C441.93 537.99 442.657 538.46 443.662 538.46C445.095 538.46 446.121 537.498 446.1 536.279V535.424C445.618 535.445 444.271 535.52 443.726 535.573C442.635 535.68 441.93 536.193 441.93 537.092Z" fill="white"/>
<path d="M432.329 540.663C428.779 540.663 426.64 538.204 426.64 534.654C426.64 531.104 428.8 528.666 432.329 528.666C435.323 528.666 437.354 530.42 437.482 533.071H434.51C434.317 531.917 433.569 531.125 432.371 531.125C430.853 531.125 429.848 532.408 429.848 534.611C429.848 536.856 430.832 538.14 432.371 538.14C433.483 538.14 434.317 537.455 434.51 536.215H437.482C437.333 538.845 435.408 540.663 432.329 540.663Z" fill="white"/>
<path d="M421.786 529.371C421.657 528.153 420.674 527.425 419.112 527.425C417.487 527.425 416.589 528.174 416.568 529.2C416.546 530.312 417.722 530.826 419.048 531.125L420.438 531.467C423.09 532.066 425.079 533.413 425.079 536.001C425.079 538.845 422.855 540.641 419.091 540.641C415.349 540.641 412.954 538.909 412.868 535.594H415.99C416.097 537.156 417.337 537.947 419.048 537.947C420.738 537.947 421.828 537.156 421.828 536.001C421.828 534.953 420.866 534.461 419.177 534.033L417.487 533.627C414.878 532.986 413.274 531.681 413.274 529.414C413.274 526.591 415.755 524.731 419.134 524.731C422.555 524.731 424.822 526.634 424.865 529.371H421.786Z" fill="white"/>
<path d="M775.586 622.83C744.354 676.925 699.433 721.847 645.338 753.078C591.243 784.31 529.879 800.752 467.416 800.752C404.952 800.752 343.589 784.31 289.494 753.078C235.398 721.846 190.477 676.925 159.246 622.83L253.095 568.646C274.815 606.268 306.056 637.508 343.678 659.229C381.299 680.95 423.974 692.384 467.416 692.384C510.857 692.384 553.533 680.95 591.154 659.229C628.775 637.508 660.016 606.268 681.736 568.646L775.586 622.83Z" fill="#3232E0"/>
<path fill-rule="evenodd" clip-rule="evenodd" d="M158.924 622.272C127.901 568.313 111.571 507.157 111.571 444.908C111.571 382.444 128.014 321.081 159.246 266.986C190.477 212.891 235.398 167.97 289.494 136.738C343.589 105.506 404.952 89.0641 467.416 89.0641L467.416 197.637C424.01 197.637 381.37 209.062 343.78 230.765C306.19 252.467 274.975 283.682 253.272 321.272C231.57 358.862 220.144 401.503 220.144 444.908C220.144 488.246 231.535 530.822 253.172 568.37C264.524 585.099 266.07 607.518 255.284 626.201C240.25 652.239 206.954 661.161 180.916 646.127C170.95 640.374 163.492 631.945 158.924 622.272Z" fill="#3182F6"/>
<path fill-rule="evenodd" clip-rule="evenodd" d="M471.591 197.698C461.153 198.422 450.394 196.151 440.652 190.525C414.613 175.492 405.691 142.196 420.725 116.158C431.813 96.9517 452.837 87.0582 473.556 89.2209C533.905 90.2575 593.036 106.63 645.366 136.842C699.461 168.074 744.382 212.995 775.614 267.09C806.845 321.186 823.288 382.549 823.288 445.013C823.288 507.476 806.845 568.839 775.614 622.935L681.655 568.687C703.364 531.085 714.793 488.431 714.793 445.013C714.793 401.594 703.364 358.94 681.655 321.338C659.945 283.736 628.72 252.511 591.118 230.801C554.715 209.784 513.575 198.402 471.591 197.698Z" fill="#275EF2"/>
<path d="M775.972 622.551C760.939 648.59 727.643 657.512 701.604 642.478C675.565 627.445 666.644 594.149 681.677 568.11C696.711 542.071 730.006 533.15 756.045 548.183C782.084 563.217 791.006 596.513 775.972 622.551Z" fill="#3232E0"/>
<path d="M513.492 139.7V141.415H511.917V145.507C511.917 146.171 512.241 146.341 512.704 146.357C512.936 146.357 513.338 146.341 513.616 146.31V148.118C513.368 148.164 512.967 148.195 512.395 148.195C510.743 148.195 509.615 147.453 509.631 145.832V141.415H508.473V139.7H509.631V137.692H511.917V139.7H513.492Z" fill="white"/>
<path d="M501.909 143.237V148.087H499.623V139.7H501.801V141.168H501.894C502.28 140.195 503.176 139.592 504.411 139.592C506.156 139.592 507.315 140.782 507.299 142.743V148.087H505.029V143.145C505.029 142.11 504.458 141.492 503.515 141.492C502.558 141.492 501.909 142.125 501.909 143.237Z" fill="white"/>
<path d="M494.341 148.257C491.777 148.257 490.202 146.589 490.202 143.932C490.202 141.338 491.792 139.592 494.248 139.592C496.457 139.592 498.187 140.982 498.187 143.84V144.488H492.457C492.457 145.755 493.213 146.542 494.387 146.542C495.159 146.542 495.715 146.203 495.947 145.693H498.125C497.8 147.237 496.41 148.257 494.341 148.257ZM492.457 143.052H496.024C496.024 142.033 495.314 141.307 494.294 141.307C493.244 141.307 492.495 142.087 492.457 143.052Z" fill="white"/>
<path d="M476.642 148.087V139.7H478.819V141.168H478.912C479.267 140.195 480.117 139.592 481.244 139.592C482.403 139.592 483.252 140.195 483.53 141.168H483.607C483.962 140.21 484.905 139.592 486.14 139.592C487.7 139.592 488.781 140.627 488.781 142.45V148.087H486.495V142.897C486.495 141.94 485.939 141.477 485.183 141.477C484.318 141.477 483.823 142.079 483.823 142.959V148.087H481.599V142.836C481.599 142.002 481.074 141.477 480.302 141.477C479.53 141.477 478.928 142.094 478.928 143.052V148.087H476.642Z" fill="white"/>
<path d="M472.904 142.187C472.811 141.6 472.286 141.214 471.529 141.214C470.788 141.214 470.216 141.569 470.232 142.079C470.216 142.45 470.525 142.743 471.313 142.913L472.811 143.222C474.433 143.562 475.22 144.287 475.236 145.492C475.22 147.145 473.738 148.257 471.514 148.257C469.243 148.257 467.915 147.237 467.73 145.6H470.031C470.139 146.264 470.68 146.604 471.514 146.604C472.348 146.604 472.904 146.264 472.904 145.724C472.904 145.291 472.548 145.029 471.761 144.859L470.371 144.581C468.78 144.272 467.946 143.438 467.961 142.202C467.946 140.596 469.336 139.592 471.498 139.592C473.614 139.592 474.927 140.596 475.05 142.187H472.904Z" fill="white"/>
<path d="M464.378 142.187C464.286 141.6 463.76 141.214 463.004 141.214C462.262 141.214 461.691 141.569 461.706 142.079C461.691 142.45 462 142.743 462.787 142.913L464.286 143.222C465.907 143.562 466.695 144.287 466.71 145.492C466.695 147.145 465.212 148.257 462.988 148.257C460.718 148.257 459.39 147.237 459.204 145.6H461.505C461.614 146.264 462.154 146.604 462.988 146.604C463.822 146.604 464.378 146.264 464.378 145.724C464.378 145.291 464.023 145.029 463.235 144.859L461.845 144.581C460.254 144.272 459.42 143.438 459.436 142.202C459.42 140.596 460.81 139.592 462.973 139.592C465.089 139.592 466.401 140.596 466.525 142.187H464.378Z" fill="white"/>
<path d="M454.308 148.257C451.745 148.257 450.169 146.589 450.169 143.932C450.169 141.338 451.76 139.592 454.216 139.592C456.424 139.592 458.154 140.982 458.154 143.84V144.488H452.424C452.424 145.755 453.181 146.542 454.355 146.542C455.127 146.542 455.683 146.203 455.915 145.693H458.092C457.768 147.237 456.378 148.257 454.308 148.257ZM452.424 143.052H455.992C455.992 142.033 455.281 141.307 454.262 141.307C453.212 141.307 452.463 142.087 452.424 143.052Z" fill="white"/>
<path d="M446.771 142.187C446.679 141.6 446.154 141.214 445.397 141.214C444.656 141.214 444.084 141.569 444.1 142.079C444.084 142.45 444.393 142.743 445.181 142.913L446.679 143.222C448.301 143.562 449.088 144.287 449.104 145.492C449.088 147.145 447.605 148.257 445.381 148.257C443.111 148.257 441.783 147.237 441.598 145.6H443.899C444.007 146.264 444.547 146.604 445.381 146.604C446.215 146.604 446.771 146.264 446.771 145.724C446.771 145.291 446.416 145.029 445.629 144.859L444.239 144.581C442.648 144.272 441.814 143.438 441.829 142.202C441.814 140.596 443.204 139.592 445.366 139.592C447.482 139.592 448.795 140.596 448.918 142.187H446.771Z" fill="white"/>
<path d="M438.246 142.187C438.153 141.6 437.628 141.214 436.871 141.214C436.13 141.214 435.559 141.569 435.574 142.079C435.559 142.45 435.868 142.743 436.655 142.913L438.153 143.222C439.775 143.562 440.563 144.287 440.578 145.492C440.563 147.145 439.08 148.257 436.856 148.257C434.586 148.257 433.257 147.237 433.072 145.6H435.373C435.481 146.264 436.022 146.604 436.856 146.604C437.69 146.604 438.246 146.264 438.246 145.724C438.246 145.291 437.891 145.029 437.103 144.859L435.713 144.581C434.122 144.272 433.288 143.438 433.304 142.202C433.288 140.596 434.678 139.592 436.841 139.592C438.956 139.592 440.269 140.596 440.393 142.187H438.246Z" fill="white"/>
<path d="M424.207 148.087H421.705L425.582 136.905H428.563L432.424 148.087H429.937L429.103 145.507H425.057L424.207 148.087ZM425.644 143.7H428.516L427.111 139.422H427.034L425.644 143.7Z" fill="white"/>
<path d="M760.383 597.015V601.864H758.097V593.478H760.275V594.945H760.368C760.754 593.972 761.649 593.37 762.885 593.37C764.63 593.37 765.789 594.559 765.773 596.52V601.864H763.503V596.922C763.503 595.887 762.931 595.269 761.989 595.269C761.032 595.269 760.383 595.903 760.383 597.015Z" fill="white"/>
<path d="M752.537 602.034C750.004 602.034 748.428 600.289 748.428 597.694C748.428 595.099 750.004 593.37 752.537 593.37C755.07 593.37 756.66 595.099 756.66 597.694C756.66 600.289 755.07 602.034 752.537 602.034ZM752.552 600.258C753.726 600.258 754.328 599.161 754.328 597.694C754.328 596.211 753.726 595.115 752.552 595.115C751.363 595.115 750.745 596.211 750.745 597.694C750.745 599.161 751.363 600.258 752.552 600.258Z" fill="white"/>
<path d="M744.706 601.864V593.478H746.992V601.864H744.706ZM745.849 592.381C745.154 592.381 744.598 591.856 744.598 591.223C744.598 590.574 745.154 590.049 745.849 590.049C746.529 590.049 747.085 590.574 747.085 591.223C747.085 591.856 746.529 592.381 745.849 592.381Z" fill="white"/>
<path d="M743.27 593.478V595.192H741.694V599.285C741.694 599.949 742.018 600.119 742.482 600.134C742.713 600.134 743.115 600.119 743.393 600.088V601.895C743.146 601.941 742.744 601.972 742.173 601.972C740.52 601.972 739.393 601.231 739.408 599.609V595.192H738.25V593.478H739.408V591.47H741.694V593.478H743.27Z" fill="white"/>
<path d="M729.632 599.517C729.632 597.648 731.146 597.03 732.752 596.937C733.354 596.899 734.482 596.845 734.837 596.829V596.15C734.822 595.455 734.343 595.038 733.493 595.038C732.721 595.038 732.227 595.393 732.103 595.964H729.926C730.065 594.513 731.331 593.37 733.555 593.37C735.378 593.37 737.107 594.188 737.107 596.211V601.864H734.945V600.706H734.883C734.466 601.478 733.679 602.019 732.428 602.019C730.821 602.019 729.632 601.185 729.632 599.517ZM731.825 599.455C731.825 600.103 732.35 600.443 733.076 600.443C734.111 600.443 734.852 599.748 734.837 598.868V598.25C734.49 598.266 733.517 598.32 733.123 598.358C732.335 598.435 731.825 598.806 731.825 599.455Z" fill="white"/>
<path d="M729.154 593.478L726.204 601.864H723.64L720.705 593.478H723.115L724.875 599.501H724.968L726.729 593.478H729.154Z" fill="white"/>
<path d="M717.308 601.864V593.478H719.594V601.864H717.308ZM718.451 592.381C717.756 592.381 717.2 591.856 717.2 591.223C717.2 590.574 717.756 590.049 718.451 590.049C719.13 590.049 719.686 590.574 719.686 591.223C719.686 591.856 719.13 592.381 718.451 592.381Z" fill="white"/>
<path d="M715.871 593.478V595.192H714.296V599.285C714.296 599.949 714.62 600.119 715.084 600.134C715.315 600.134 715.717 600.119 715.995 600.088V601.895C715.748 601.941 715.346 601.972 714.775 601.972C713.122 601.972 711.995 601.231 712.01 599.609V595.192H710.852V593.478H712.01V591.47H714.296V593.478H715.871Z" fill="white"/>
<path d="M706.311 602.034C703.747 602.034 702.202 600.258 702.202 597.694C702.202 595.13 703.762 593.37 706.311 593.37C708.473 593.37 709.94 594.636 710.033 596.551H707.886C707.747 595.717 707.206 595.146 706.341 595.146C705.245 595.146 704.519 596.072 704.519 597.663C704.519 599.285 705.229 600.212 706.341 600.212C707.145 600.212 707.747 599.717 707.886 598.822H710.033C709.925 600.721 708.535 602.034 706.311 602.034Z" fill="white"/>
<path d="M693.492 601.864H690.99L694.866 590.682H697.847L701.708 601.864H699.222L698.388 599.285H694.341L693.492 601.864ZM694.928 597.478H697.801L696.395 593.2H696.318L694.928 597.478Z" fill="white"/>
<path d="M233.205 599.614C233.112 599.027 232.587 598.641 231.831 598.641C231.089 598.641 230.518 598.996 230.533 599.506C230.518 599.876 230.827 600.17 231.614 600.34L233.112 600.649C234.734 600.988 235.522 601.714 235.537 602.919C235.522 604.571 234.039 605.683 231.815 605.683C229.545 605.683 228.216 604.664 228.031 603.027H230.332C230.44 603.691 230.981 604.031 231.815 604.031C232.649 604.031 233.205 603.691 233.205 603.151C233.205 602.718 232.85 602.456 232.062 602.286L230.672 602.008C229.081 601.699 228.247 600.865 228.263 599.629C228.247 598.023 229.637 597.019 231.8 597.019C233.916 597.019 235.228 598.023 235.352 599.614H233.205Z" fill="white"/>
<path d="M224.68 599.614C224.587 599.027 224.062 598.641 223.305 598.641C222.564 598.641 221.992 598.996 222.008 599.506C221.992 599.876 222.301 600.17 223.089 600.34L224.587 600.649C226.209 600.988 226.996 601.714 227.012 602.919C226.996 604.571 225.514 605.683 223.29 605.683C221.019 605.683 219.691 604.664 219.506 603.027H221.807C221.915 603.691 222.456 604.031 223.29 604.031C224.124 604.031 224.68 603.691 224.68 603.151C224.68 602.718 224.324 602.456 223.537 602.286L222.147 602.008C220.556 601.699 219.722 600.865 219.737 599.629C219.722 598.023 221.112 597.019 223.274 597.019C225.39 597.019 226.703 598.023 226.826 599.614H224.68Z" fill="white"/>
<path d="M214.61 605.683C212.046 605.683 210.471 604.015 210.471 601.359C210.471 598.764 212.061 597.019 214.517 597.019C216.726 597.019 218.456 598.409 218.456 601.266V601.915H212.726C212.726 603.181 213.482 603.969 214.656 603.969C215.428 603.969 215.984 603.629 216.216 603.12H218.394C218.069 604.664 216.679 605.683 214.61 605.683ZM212.726 600.479H216.293C216.293 599.459 215.583 598.733 214.563 598.733C213.513 598.733 212.764 599.513 212.726 600.479Z" fill="white"/>
<path d="M205.668 605.683C203.104 605.683 201.56 603.907 201.56 601.344C201.56 598.78 203.119 597.019 205.668 597.019C207.83 597.019 209.297 598.286 209.39 600.201H207.243C207.104 599.367 206.564 598.795 205.699 598.795C204.602 598.795 203.876 599.722 203.876 601.313C203.876 602.934 204.587 603.861 205.699 603.861C206.502 603.861 207.104 603.367 207.243 602.471H209.39C209.282 604.371 207.892 605.683 205.668 605.683Z" fill="white"/>
<path d="M196.756 605.683C194.192 605.683 192.647 603.907 192.647 601.344C192.647 598.78 194.207 597.019 196.756 597.019C198.918 597.019 200.385 598.286 200.478 600.201H198.331C198.192 599.367 197.652 598.795 196.787 598.795C195.69 598.795 194.964 599.722 194.964 601.313C194.964 602.934 195.675 603.861 196.787 603.861C197.59 603.861 198.192 603.367 198.331 602.471H200.478C200.37 604.371 198.98 605.683 196.756 605.683Z" fill="white"/>
<path d="M183.937 605.513H181.435L185.312 594.332H188.293L192.154 605.513H189.667L188.833 602.934H184.787L183.937 605.513ZM185.374 601.127H188.246L186.841 596.849H186.764L185.374 601.127Z" fill="white"/>
<defs>
<linearGradient id="paint0_linear_8_699" x1="918.86" y1="145.683" x2="2068.5" y2="145.683" gradientUnits="userSpaceOnUse">
<stop stop-color="#3182F6"/>
<stop offset="1" stop-color="#A009FF"/>
</linearGradient>
<linearGradient id="paint1_linear_8_699" x1="804.011" y1="145.465" x2="930.261" y2="145.465" gradientUnits="userSpaceOnUse">
<stop stop-color="#2C25F0"/>
<stop offset="1" stop-color="#3182F6"/>
</linearGradient>
<linearGradient id="paint2_linear_8_699" x1="405.863" y1="444.928" x2="576.876" y2="444.928" gradientUnits="userSpaceOnUse">
<stop stop-color="#3182F6"/>
<stop offset="1" stop-color="#A009FF"/>
</linearGradient>
</defs>
</svg>
