<svg width="285" height="285" viewBox="0 0 285 285" fill="none" xmlns="http://www.w3.org/2000/svg">
<mask id="mask0_803_2102" style="mask-type:alpha" maskUnits="userSpaceOnUse" x="0" y="0" width="285" height="285">
<path d="M0 142.5C0 63.7994 63.7994 0 142.5 0V0C221.201 0 285 63.7994 285 142.5V142.5C285 221.201 221.201 285 142.5 285V285C63.7994 285 0 221.201 0 142.5V142.5Z" fill="white"/>
</mask>
<g mask="url(#mask0_803_2102)">
<path d="M132.197 174.867C137.883 171.791 144.333 169.945 149.395 169.945H328.005C340.14 169.945 338.134 179.847 324.503 187.221L152.383 280.34C146.698 283.416 140.247 285.262 135.185 285.262H-43.4244C-55.5603 285.262 -53.5535 275.36 -39.9231 267.986L132.197 174.867Z" fill="#004DBC"/>
<path d="M132.197 89.6525C137.883 86.5765 144.333 84.7305 149.395 84.7305L328.005 84.7305C340.14 84.7305 338.134 94.6321 324.503 102.006L152.383 195.125C146.698 198.201 140.247 200.047 135.185 200.047L-43.4244 200.047C-55.5603 200.047 -53.5535 190.146 -39.9231 182.771L132.197 89.6525Z" fill="#0064F2"/>
<path d="M132.197 4.43765C137.883 1.36168 144.333 -0.484375 149.395 -0.484375L328.005 -0.484375C340.14 -0.484375 338.134 9.41729 324.503 16.7915L152.383 109.91C146.698 112.986 140.247 114.832 135.185 114.832L-43.4244 114.832C-55.5603 114.832 -53.5535 104.931 -39.9231 97.5565L132.197 4.43765Z" fill="#3182F6"/>
</g>
</svg>
