<svg width="2852" height="910" viewBox="0 0 2852 910" fill="none" xmlns="http://www.w3.org/2000/svg">
<path d="M2466.64 501.752C2466.27 474.071 2477.56 450.579 2500.51 431.275C2523.82 411.607 2553.87 401.773 2590.65 401.773C2627.44 401.773 2657.49 411.607 2680.8 431.275C2704.11 450.579 2715.76 474.071 2715.76 501.752C2715.76 529.797 2704.11 553.471 2680.8 572.775C2657.49 592.078 2627.44 601.73 2590.65 601.73C2553.87 601.73 2524 592.078 2501.05 572.775C2478.47 553.471 2467 529.797 2466.64 501.752ZM2526.73 501.752C2526.73 515.228 2532.19 526.883 2543.12 536.717C2554.41 546.186 2570.26 550.921 2590.65 550.921C2611.05 550.921 2626.89 546.186 2638.18 536.717C2649.84 526.883 2655.67 515.228 2655.67 501.752C2655.67 488.276 2649.84 476.803 2638.18 467.333C2626.89 457.499 2611.05 452.582 2590.65 452.582C2570.26 452.582 2554.41 457.499 2543.12 467.333C2532.19 476.803 2526.73 488.276 2526.73 501.752ZM2613.05 670.568V742.683H2552.96V670.568H2428.94V619.213H2585.74C2606.86 619.213 2634.72 618.666 2669.32 617.574C2703.92 616.481 2738.89 612.475 2774.22 605.554V656.909C2741.8 663.829 2708.3 667.836 2673.69 668.929C2651.48 669.657 2631.26 670.203 2613.05 670.568ZM2788.97 791.306V741.044H2670.96V690.235H2788.97V376.642H2848.52V791.306H2788.97ZM2851.25 896.748H2552.41V755.249H2613.05V845.393H2851.25V896.748Z" fill="black"/>
<path d="M2173.67 455.314H2074.23C2041.45 455.314 2011.22 447.483 1983.54 431.821L2001.57 389.208C2035.08 399.042 2061.85 403.959 2081.88 403.959H2173.67V455.314ZM2234.86 527.429H2098.27C2077.15 530.343 2061.67 537.081 2051.84 547.643C2036.54 564.033 2028.89 580.423 2028.89 596.813C2028.89 612.474 2034.17 625.586 2044.73 636.149C2055.66 646.711 2068.41 651.992 2082.98 651.992C2099.73 651.992 2113.39 646.893 2123.95 636.695C2134.88 626.133 2140.34 612.839 2140.34 596.813C2140.34 592.807 2139.25 587.707 2137.06 581.516C2134.88 575.324 2130.32 569.496 2123.4 564.033L2166.02 534.531C2178.04 544.365 2186.23 554.381 2190.6 564.58C2195.34 574.778 2197.71 585.34 2197.71 596.267C2197.71 625.768 2186.78 650.9 2164.93 671.66C2143.07 692.421 2115.76 702.801 2082.98 702.801C2051.29 702.801 2024.52 692.239 2002.67 671.114C1981.18 649.625 1970.43 624.676 1970.43 596.267C1970.43 572.228 1979.54 549.282 1997.75 527.429H1936.56V478.259H2234.86V527.429ZM2409.68 576.052H2325.55V709.357H2266V376.642H2325.55V521.419H2409.68V576.052ZM2320.08 907.675H2260.53V776.555H2037.08V725.2H2320.08V907.675Z" fill="black"/>
<path d="M1727.7 609.925C1722.97 635.785 1711.13 658.548 1692.19 678.216C1666.69 704.076 1634.64 717.006 1596.04 717.006C1557.06 717.006 1525.01 704.076 1499.88 678.216C1474.75 652.357 1462.19 620.852 1462.19 583.701C1462.19 547.279 1474.75 516.138 1499.88 490.279C1525.01 464.055 1557.06 450.943 1596.04 450.943C1634.64 450.943 1666.69 463.873 1692.19 489.732C1711.13 509.764 1722.97 532.528 1727.7 558.024H1814.57V376.642H1874.12V883.09H1814.57V609.925H1727.7ZM1669.79 583.701C1669.79 562.212 1662.69 543.273 1648.48 526.883C1634.64 510.129 1617.16 501.752 1596.04 501.752C1574.91 501.752 1557.25 510.129 1543.04 526.883C1529.2 543.273 1522.28 562.212 1522.28 583.701C1522.28 605.919 1529.2 625.222 1543.04 641.612C1556.88 658.002 1574.55 666.197 1596.04 666.197C1617.16 666.197 1634.64 658.002 1648.48 641.612C1662.69 625.222 1669.79 605.919 1669.79 583.701Z" fill="black"/>
<path d="M1120.04 601.73C1140.44 601.73 1156.65 594.81 1168.67 580.969C1181.05 567.129 1187.24 551.103 1187.24 532.892C1187.24 514.681 1181.05 498.656 1168.67 484.815C1156.65 470.975 1140.44 464.055 1120.04 464.055C1100.01 464.055 1083.99 470.975 1071.97 484.815C1059.95 498.656 1053.94 514.681 1053.94 532.892C1053.94 551.103 1059.95 567.129 1071.97 580.969C1083.99 594.81 1100.01 601.73 1120.04 601.73ZM993.841 532.892C993.841 500.477 1005.68 472.432 1029.35 448.758C1053.03 425.083 1083.26 413.246 1120.04 413.246C1157.19 413.246 1187.79 425.083 1211.83 448.758C1212.19 449.122 1212.37 449.486 1212.37 449.85H1341.31V376.642H1400.31V690.782H1341.31V623.037H1205.27C1182.32 642.705 1153.92 652.539 1120.04 652.539C1083.26 652.539 1053.03 640.702 1029.35 617.027C1005.68 593.353 993.841 565.308 993.841 532.892ZM1242.97 501.205C1245.88 511.403 1247.34 521.966 1247.34 532.892C1247.34 546.733 1245.15 559.663 1240.78 571.682H1341.31V501.205H1242.97ZM1396.49 797.862C1396.49 828.093 1384.65 854.134 1360.97 875.987C1337.3 898.205 1305.43 909.314 1265.37 909.314C1226.03 909.314 1194.53 898.205 1170.85 875.987C1147.18 854.134 1135.34 828.093 1135.34 797.862C1135.34 767.632 1147.18 741.59 1170.85 719.737C1194.53 697.52 1226.03 686.411 1265.37 686.411C1305.07 686.411 1336.75 697.52 1360.43 719.737C1384.47 741.59 1396.49 767.632 1396.49 797.862ZM1336.39 797.862C1336.39 781.837 1330.2 767.814 1317.81 755.795C1305.8 743.776 1288.31 737.766 1265.37 737.766C1242.79 737.766 1225.48 743.776 1213.47 755.795C1201.45 767.814 1195.44 781.837 1195.44 797.862C1195.44 813.888 1201.45 827.91 1213.47 839.93C1225.48 851.949 1242.79 857.959 1265.37 857.959C1288.31 857.959 1305.8 851.949 1317.81 839.93C1330.2 827.91 1336.39 813.888 1336.39 797.862Z" fill="black"/>
<path d="M823.614 650.9H526.41V599.545H581.589V572.228C581.589 559.845 581.043 546.551 579.95 532.346C579.222 518.142 574.851 504.483 566.839 491.371L621.472 476.074C630.577 491.371 635.858 508.125 637.315 526.336C639.136 544.183 640.047 559.48 640.047 572.228V599.545H708.338V464.601H533.512V413.246H811.594V464.601H765.156V599.545H823.614V650.9ZM870.052 692.421V376.642H929.602V692.421H870.052ZM924.685 907.675H865.135V759.073H635.676V707.718H924.685V907.675Z" fill="black"/>
<path d="M264.404 607.744C260.034 636.153 248.197 660.373 228.893 680.405C204.126 705.901 174.078 718.648 138.749 718.648C103.783 718.648 73.9174 705.901 49.1504 680.405C24.3835 654.91 12 622.677 12 583.705C12 544.733 24.2014 512.5 48.6041 487.005C73.3711 461.509 103.419 448.762 138.749 448.762C174.442 448.762 204.672 461.509 229.439 487.005C248.014 506.308 259.487 529.436 263.858 556.389H311.389V387.573H368.753V850.314H311.389V607.744H264.404ZM206.493 583.705C206.493 558.938 199.937 538.724 186.826 523.062C173.714 507.401 157.688 499.57 138.749 499.57C120.173 499.57 104.33 507.401 91.2178 523.062C78.1059 538.724 71.5499 558.938 71.5499 583.705C71.5499 608.472 78.1059 628.686 91.2178 644.348C104.33 660.009 120.173 667.84 138.749 667.84C157.324 667.84 173.167 660.009 186.279 644.348C199.755 628.686 206.493 608.472 206.493 583.705ZM466 883.094H408.089V376.646H466V883.094Z" fill="black"/>
<path d="M213.597 51.6478L31.3084 61.2011L11.8709 219.712L41.2882 251.627L362.734 234.781L420.293 258.693L418.885 231.838L1063.4 198.06C1100.02 196.141 1117.42 185.437 1123.63 148.391C1123.63 148.391 1133.2 66.2869 1135.31 44.144L1098.18 5.28858L1033.89 8.65783L1032.01 19.365C1022.84 15.7652 1009.48 9.93729 984.252 11.2594C960.652 12.4962 941.591 22.4714 937.607 24.3123L937.053 13.733L828.819 19.4053L814.466 41.3738L806.033 20.5995L653.855 28.5748L646.012 50.2021C638.048 38.3794 629.441 29.8542 607.469 31.0058L533.415 34.8868C533.257 37.0711 531.613 47.2215 531.613 47.2215C525.618 41.8236 513.07 35.953 501.677 36.5501L416.229 41.0282L412.967 72.2078C405.888 61.6985 385.922 41.9637 352.754 44.3548C337.292 45.1651 328.298 44.8205 305.981 54.9662L307.182 46.7431L241.265 50.1977C241.079 51.8395 240.107 59.2347 240.107 59.2347C235.054 56.2355 227.431 50.9227 213.597 51.6478Z" fill="url(#paint0_linear_2_724)"/>
<path fill-rule="evenodd" clip-rule="evenodd" d="M332.527 49.3659C325.887 50.5883 318.319 52.9378 307.329 57.934L301.891 60.4061L303.381 50.2068L244.162 53.3103C244.062 54.0933 243.953 54.9422 243.848 55.7514C243.715 56.7801 243.587 57.7571 243.493 58.4768L243.338 59.6587L242.693 64.5611L238.442 62.0382C238.073 61.819 237.694 61.5902 237.304 61.3547C232.351 58.364 225.592 54.2835 213.766 54.9033L34.2099 64.3134L15.2889 218.612L42.6461 248.292L363.301 231.487L416.766 253.699L415.458 228.754L1063.23 194.806C1081.37 193.855 1094.03 190.741 1102.92 183.826C1111.7 176.996 1117.36 166.007 1120.41 147.932L1120.81 144.444C1121.08 142.156 1121.46 138.863 1121.92 134.842C1122.85 126.8 1124.11 115.847 1125.44 104.202C1127.99 81.8826 1130.77 57.0689 1131.92 45.3169L1096.86 8.62242L1036.65 11.7777L1034.52 23.8566L1030.81 22.3994C1030.39 22.2326 1029.96 22.0613 1029.51 21.8863C1020.55 18.3387 1007.79 13.2902 984.422 14.515C963.316 15.6211 945.934 23.9439 940.171 26.7034C939.689 26.9343 939.288 27.1261 938.973 27.2716L934.603 29.2912L933.967 17.1592L830.641 22.5742L813.787 48.3711L803.885 23.9765L656.182 31.7173L646.89 57.3413L643.308 52.0236C639.405 46.2301 635.594 41.6376 630.341 38.5489C625.137 35.4893 618.169 33.7094 607.639 34.2613L536.32 37.999C536.132 39.3546 535.896 40.9308 535.676 42.3674C535.459 43.7805 535.248 45.1238 535.091 46.1132C535.012 46.6082 534.947 47.015 534.901 47.2984L534.834 47.713L534.831 47.7353L534.83 47.741L534.83 47.743C534.83 47.743 534.83 47.7431 531.612 47.2219L534.83 47.743L533.874 53.6447L529.431 49.6443C526.782 47.2594 522.506 44.6304 517.485 42.6756C512.473 40.7238 506.958 39.5378 501.847 39.8056L419.18 44.138L415.275 81.4699L410.263 74.0292C403.588 64.1202 384.607 45.3269 352.987 47.6064L352.956 47.6087L352.924 47.6103C351.673 47.6759 350.475 47.7337 349.315 47.7897C343.186 48.0855 338.166 48.3278 332.527 49.3659ZM529.235 41.3572C529.675 38.4839 530.096 35.5779 530.162 34.6527L530.369 31.7826L607.298 27.751C618.739 27.1514 627.061 29.0584 633.645 32.9291C638.29 35.6601 641.894 39.2702 645.049 43.2954L651.526 25.4331L808.179 17.2233L815.143 34.3774L826.995 16.2372L940.136 10.3077L940.607 19.2898C948.493 15.6719 964.811 9.01452 984.081 8.00467C1006.78 6.81523 1020.25 11.2885 1029.49 14.872L1031.13 5.5388L1099.5 1.95555L1138.69 42.9697L1138.55 44.4527C1137.5 55.5618 1134.57 81.6591 1131.92 104.94C1130.59 116.59 1129.33 127.546 1128.4 135.591C1127.93 139.613 1127.55 142.907 1127.29 145.196L1126.87 148.753L1126.87 148.764L1126.87 148.767L1126.86 148.85L1126.85 148.93C1123.67 167.854 1117.53 180.718 1106.92 188.972C1096.4 197.15 1082.06 200.347 1063.57 201.316L422.31 234.923L423.817 263.688L362.165 238.075L39.9285 254.963L8.45098 220.812L28.405 58.0895L213.425 48.393C224.756 47.7992 232.318 51.0198 237.512 53.9152C237.737 52.17 237.95 50.4931 238.025 49.8312L238.336 47.0875L310.981 43.2803L310.054 49.627C318.641 46.0301 325.266 44.0738 331.347 42.9544C337.45 41.8308 342.957 41.5668 349.092 41.2727C350.221 41.2186 351.372 41.1634 352.551 41.1017C381.227 39.0458 400.506 52.8048 410.557 63.9116L413.276 37.9192L501.505 33.2954C507.787 32.9661 514.243 34.4169 519.851 36.6006C523.287 37.9386 526.496 39.587 529.235 41.3572Z" fill="white"/>
<path d="M957.105 120.503C957.525 128.514 963.482 132.218 974.976 131.616C986.586 131.007 992.202 127.104 991.825 119.906C991.624 116.075 989.486 113.043 985.411 110.812C981.336 108.581 976.411 106.802 970.637 105.474C964.979 104.141 959.251 102.579 953.452 100.787C947.764 98.873 942.827 95.7556 938.643 91.4346C934.452 86.9975 932.177 81.3539 931.818 74.504C930.291 45.3629 948.277 29.8097 985.778 27.8443C999.478 27.1264 1009.95 29.1971 1017.19 34.0565C1024.54 38.7938 1028.45 45.7484 1028.93 54.9203C1029.11 58.2872 1028.82 61.5623 1028.05 64.7457C1027.4 67.8069 1026.64 70.0004 1025.78 71.3262L1024.49 73.489L993.668 75.1044C996.082 72.3003 997.183 68.8664 996.97 64.8029C996.574 57.2564 991.442 53.7417 981.574 54.2589C969.151 54.91 963.147 59.1829 963.56 67.0777C963.767 71.0251 965.905 74.0564 969.974 76.1715C974.044 78.2867 978.901 79.8948 984.547 80.9959C990.303 81.9749 996.077 83.3022 1001.87 84.9777C1007.66 86.6533 1012.65 89.7096 1016.84 94.1468C1021.03 98.4678 1023.31 104.285 1023.7 111.6C1024.47 126.344 1020.63 137.547 1012.19 145.208C1003.73 152.752 990.335 157.005 971.991 157.967C953.647 158.928 940.938 156.334 933.863 150.186C928.616 145.571 925.766 138.968 925.316 130.377C925.146 127.126 925.309 123.567 925.804 119.699L926.181 116.885L957.528 115.242L957.289 117.35C957.118 118.523 957.056 119.574 957.105 120.503Z" fill="white"/>
<path d="M921.366 32.4427L905.995 158.981L874.474 160.633L890.019 34.0855L921.366 32.4427Z" fill="white"/>
<path d="M876.352 34.8016L830.554 100.592L860.806 161.349L825.105 163.22L805.939 124.06L779.303 165.62L743.603 167.491L786.494 102.901L759.148 40.9439L794.849 39.0729L811.439 79.0666L840.651 36.6726L876.352 34.8016Z" fill="white"/>
<path d="M705.007 169.514L704.619 142.118L675.536 143.642L668.436 171.431L635.173 173.174L673.358 45.44L730.828 42.4282L738.096 167.78L705.007 169.514ZM692.893 74.9763L681.453 119.931L704.267 118.736L703.864 74.4013L692.893 74.9763Z" fill="white"/>
<path d="M594.771 49.5584C608.006 48.8647 617.563 51.2744 623.44 56.7873C627.851 60.9801 630.232 66.4434 630.585 73.1772C630.707 75.4992 630.603 77.9495 630.272 80.528L628.546 94.2395C627.548 101.859 625.429 108.082 622.19 112.909C619.066 117.729 615.467 121.236 611.39 123.428L629.903 173.45L594.725 175.293L577.641 129.214L566.844 129.779L562.159 177L528.722 178.752L544.268 52.2051L594.771 49.5584ZM585.223 77.3008L572.162 77.9853L569.222 108.525L581.413 107.886C587.566 107.563 591.902 105.881 594.42 102.838C596.932 99.6799 598.06 95.6626 597.805 90.7864C597.312 81.3822 593.118 76.8871 585.223 77.3008Z" fill="white"/>
<path d="M479.417 143.093L458.693 144.179L453.9 182.674L422.553 184.317L438.099 57.7696L491.214 54.9859C504.334 54.2984 513.838 56.8272 519.727 62.5723C524.034 67.0034 526.376 72.818 526.753 80.0162C526.881 82.4543 526.783 85.0207 526.458 87.7153L524.007 107.577C522.77 117.304 518.079 125.525 509.932 132.239C501.779 138.836 491.607 142.454 479.417 143.093ZM481.667 82.7284L465.993 83.5498L461.971 116.765L477.471 115.953C486.991 115.454 492.283 110.927 493.349 102.373L494.193 95.169C494.371 94.1119 494.414 92.7126 494.323 90.9711C494.231 89.2296 493.26 87.3596 491.409 85.3611C489.558 83.3625 486.311 82.485 481.667 82.7284Z" fill="white"/>
<path d="M329.062 191.661C312.459 192.532 300.777 189.535 294.014 182.671C289.335 177.794 286.754 170.769 286.274 161.598C286.067 157.65 286.251 153.391 286.827 148.821L291.868 108.392C295.553 78.7448 313.649 63.0694 346.157 61.3657C359.625 60.6599 369.994 63.027 377.264 68.4669C384.528 73.7907 388.422 81.445 388.945 91.4296C389.189 96.0736 388.735 100.754 387.586 105.471C386.546 110.066 385.445 113.5 384.284 115.773L382.55 119.356L351.726 120.971C355.326 116.359 356.913 109.989 356.487 101.862C356.262 97.5664 354.983 94.2573 352.649 91.9348C350.309 89.4962 346.991 88.3894 342.696 88.6146C330.97 89.2291 324.344 96.0958 322.82 109.215L318.568 144.712C318.146 147.761 318.011 150.737 318.163 153.64C318.565 161.302 323.351 164.893 332.523 164.413C343.553 163.835 349.845 157.276 351.4 144.738L382.747 143.095L382.141 148.191C378.914 175.486 361.221 189.976 329.062 191.661Z" fill="white"/>
<path d="M284.768 65.805L269.396 192.343L237.875 193.995L253.421 67.4478L284.768 65.805Z" fill="white"/>
<path d="M190.08 158.257L169.356 159.343L164.563 197.838L133.216 199.48L148.762 72.9332L201.877 70.1495C214.997 69.4619 224.501 71.9907 230.39 77.7359C234.697 82.1669 237.039 87.9816 237.416 95.1798C237.544 97.6179 237.446 100.184 237.121 102.879L234.67 122.74C233.433 132.468 228.742 140.689 220.595 147.402C212.442 154 202.27 157.618 190.08 158.257ZM192.33 97.8919L176.656 98.7133L172.634 131.929L188.134 131.117C197.654 130.618 202.947 126.091 204.012 117.537L204.857 110.333C205.034 109.275 205.077 107.876 204.986 106.135C204.894 104.393 203.923 102.523 202.072 100.525C200.221 98.5261 196.974 97.6485 192.33 97.8919Z" fill="white"/>
<path d="M119.729 200.187L32.3057 204.769L47.8515 78.2213L135.275 73.6396L131.822 101.063L75.7461 104.001L72.9727 127.722L119.297 125.294L115.844 152.717L69.5203 155.145L67.1052 175.703L123.182 172.764L119.729 200.187Z" fill="white"/>
<path d="M1066.39 108.561L1043.53 109.759L1051.53 25.6862L1080.75 24.1548L1066.39 108.561ZM1034.73 142.48C1034.37 135.752 1035.72 130.779 1038.77 127.562C1041.81 124.24 1046.83 122.395 1053.82 122.029C1063.45 121.524 1068.46 125.162 1068.87 132.942C1069.22 139.566 1067.81 144.489 1064.65 147.712C1061.6 150.929 1056.58 152.721 1049.59 153.087C1040.08 153.586 1035.12 150.05 1034.73 142.48Z" fill="white"/>
<defs>
<linearGradient id="paint0_linear_2_724" x1="8.31205" y1="171.336" x2="1580.39" y2="88.9462" gradientUnits="userSpaceOnUse">
<stop stop-color="#3182F6"/>
<stop offset="1" stop-color="#A009FF"/>
</linearGradient>
</defs>
</svg>
