<svg width="1802" height="1802" viewBox="0 0 1802 1802" fill="none" xmlns="http://www.w3.org/2000/svg">
<circle cx="901" cy="901" r="901" fill="white"/>
<path d="M376.232 751.028H106.883L66 983.042L106.883 1032.33H581.851L664.82 1072V1032.33H1617.16C1671.27 1032.33 1697.72 1017.9 1709.75 963.807C1709.75 963.807 1730.19 843.593 1735 811.136L1683.29 751.028H1588.3L1584.69 766.656C1571.47 760.646 1552.23 751.028 1514.95 751.028C1480.08 751.028 1451.22 764.252 1445.21 766.656V751.028H1285.28L1262.44 782.284L1251.62 751.028L1026.76 751.028L1013.53 782.284C1002.71 764.252 990.684 751.028 958.218 751.028L848.795 751.028C848.394 754.234 845.187 769.061 845.187 769.061C836.77 760.646 818.733 751.028 801.899 751.028L675.642 751.028L668.427 796.71C658.808 780.681 630.911 750.067 581.851 751.028C559.004 751.028 545.777 749.826 512.109 763.05L514.514 751.028H417.115C416.714 753.433 414.71 764.252 414.71 764.252C407.496 759.444 396.674 751.028 376.232 751.028Z" fill="url(#paint0_linear_575_865)"/>
<path d="M1466.51 909.867C1466.51 921.701 1475 927.618 1491.99 927.618C1509.14 927.618 1517.72 922.301 1517.72 911.668C1517.72 906.008 1514.8 901.378 1508.97 897.776C1503.14 894.174 1496.02 891.173 1487.61 888.772C1479.38 886.371 1471.06 883.627 1462.65 880.54C1454.42 877.281 1447.38 872.308 1441.55 865.619C1435.72 858.759 1432.8 850.269 1432.8 840.15C1432.8 797.103 1460.51 775.579 1515.92 775.579C1536.16 775.579 1551.43 779.437 1561.72 787.155C1572.19 794.701 1577.42 805.249 1577.42 818.798C1577.42 823.772 1576.73 828.574 1575.36 833.204C1574.16 837.664 1572.87 840.836 1571.5 842.723L1569.44 845.81H1523.89C1527.67 841.865 1529.56 836.892 1529.56 830.889C1529.56 819.741 1522.26 814.167 1507.68 814.167C1489.33 814.167 1480.15 819.998 1480.15 831.661C1480.15 837.492 1483.07 842.123 1488.9 845.553C1494.73 848.983 1501.76 851.727 1510 853.785C1518.4 855.672 1526.81 858.073 1535.22 860.988C1543.62 863.904 1550.74 868.792 1556.57 875.652C1562.41 882.341 1565.32 891.087 1565.32 901.892C1565.32 923.673 1558.8 939.881 1545.77 950.514C1532.73 960.976 1512.66 966.207 1485.55 966.207C1458.45 966.207 1439.92 961.404 1429.97 951.8C1422.59 944.597 1418.91 934.65 1418.91 921.958C1418.91 917.156 1419.42 911.925 1420.45 906.266L1421.22 902.149H1467.54L1467.03 905.237C1466.68 906.952 1466.51 908.495 1466.51 909.867Z" fill="white"/>
<path d="M1420.65 777.379L1388.23 962.605H1341.65L1374.33 777.379H1420.65Z" fill="white"/>
<path d="M1354.13 777.379L1281.57 870.764L1321.45 962.605H1268.7L1243.48 903.436L1201.03 962.605H1148.27L1216.47 870.764L1180.96 777.379H1233.71L1255.06 837.578L1301.38 777.379H1354.13Z" fill="white"/>
<path d="M1091.25 962.605L1092.79 922.216H1049.82L1037.21 962.605H988.058L1054.19 777.379H1139.11L1140.14 962.605H1091.25ZM1080.69 822.4L1060.37 887.743H1094.08L1096.91 822.4H1080.69Z" fill="white"/>
<path d="M938.071 777.379C957.628 777.379 971.523 781.667 979.758 790.242C985.934 796.759 989.022 804.992 989.022 814.939C989.022 818.369 988.678 821.971 987.992 825.744L984.39 845.81C982.331 856.958 978.729 865.962 973.582 872.822C968.607 879.682 963.032 884.57 956.856 887.486L980.273 962.605H928.293L906.678 893.403H890.724L880.173 962.605H830.767L863.447 777.379H938.071ZM921.86 817.512H902.561L895.87 862.274H913.883C922.975 862.274 929.494 860.131 933.44 855.843C937.385 851.384 939.358 845.553 939.358 838.35C939.358 824.458 933.525 817.512 921.86 817.512Z" fill="white"/>
<path d="M760.867 906.266H730.246L720.21 962.605H673.892L706.572 777.379H785.056C804.441 777.379 818.25 781.839 826.485 790.757C832.489 797.617 835.491 806.364 835.491 816.997C835.491 820.599 835.148 824.372 834.462 828.316L829.315 857.387C826.742 871.622 819.194 883.37 806.671 892.631C794.148 901.721 778.88 906.266 760.867 906.266ZM768.844 817.512H745.685L737.193 866.133H760.095C774.162 866.133 782.311 859.873 784.541 847.354L786.342 836.806C786.685 835.262 786.857 833.204 786.857 830.632C786.857 828.059 785.57 825.229 782.997 822.142C780.424 819.055 775.706 817.512 768.844 817.512Z" fill="white"/>
<path d="M535.562 966.207C511.03 966.207 494.047 960.89 484.612 950.257C478.093 942.71 474.833 932.163 474.833 918.614C474.833 912.783 475.434 906.523 476.635 899.834L487.185 840.665C494.905 797.274 522.782 775.579 570.815 775.579C590.715 775.579 605.812 779.866 616.104 788.442C626.397 796.845 631.544 808.422 631.544 823.171C631.544 830.032 630.515 836.892 628.456 843.752C626.569 850.441 624.682 855.414 622.795 858.673L619.964 863.818H574.418C580.079 857.301 582.91 848.04 582.91 836.034C582.91 829.689 581.28 824.715 578.021 821.113C574.761 817.34 569.958 815.454 563.61 815.454C546.284 815.454 535.991 825.058 532.731 844.266L523.725 896.233C522.867 900.692 522.438 905.065 522.438 909.353C522.438 920.672 529.215 926.332 542.767 926.332C559.064 926.332 568.843 917.156 572.102 898.805H618.42L617.134 906.266C610.272 946.226 583.081 966.207 535.562 966.207Z" fill="white"/>
<path d="M480.012 777.379L447.589 962.605H401.013L433.693 777.379H480.012Z" fill="white"/>
<path d="M333.344 906.266H302.722L292.687 962.605H246.368L279.048 777.379H357.532C376.917 777.379 390.727 781.839 398.961 790.757C404.966 797.617 407.968 806.364 407.968 816.997C407.968 820.599 407.625 824.372 406.938 828.316L401.792 857.387C399.219 871.622 391.671 883.37 379.147 892.631C366.624 901.721 351.356 906.266 333.344 906.266ZM341.321 817.512H318.162L309.67 866.133H332.572C346.639 866.133 354.787 859.873 357.018 847.354L358.819 836.806C359.162 835.262 359.333 833.204 359.333 830.632C359.333 828.059 358.047 825.229 355.474 822.142C352.9 819.055 348.183 817.512 341.321 817.512Z" fill="white"/>
<path d="M226.441 962.605H97.2642L129.944 777.379H259.121L251.916 817.512H169.058L163.139 852.241H231.587L224.382 892.374H155.934L150.788 922.473H233.646L226.441 962.605Z" fill="white"/>
<path d="M1628.46 900.712H1594.68L1612.97 777.476H1656.15L1628.46 900.712ZM1579.19 948.236C1579.19 938.296 1581.56 931.075 1586.3 926.571C1591.04 921.912 1598.58 919.582 1608.91 919.582C1623.13 919.582 1630.24 925.328 1630.24 936.821C1630.24 946.605 1627.79 953.75 1622.88 958.253C1618.13 962.757 1610.6 965.009 1600.27 965.009C1586.22 965.009 1579.19 959.418 1579.19 948.236Z" fill="white"/>
<defs>
<linearGradient id="paint0_linear_575_865" x1="64.4918" y1="911.5" x2="2387.39" y2="911.5" gradientUnits="userSpaceOnUse">
<stop stop-color="#3182F6"/>
<stop offset="1" stop-color="#A009FF"/>
</linearGradient>
</defs>
</svg>
