<svg width="228" height="56" viewBox="0 0 228 56" fill="none" xmlns="http://www.w3.org/2000/svg">
<path d="M0 27.9803C0 12.5272 12.5272 0 27.9803 0H227.401V55.9606H27.9803C12.5272 55.9606 0 43.4334 0 27.9803Z" fill="url(#paint0_linear_3303_270)"/>
<path d="M0 28.1049C0 12.7205 12.4715 0.249023 27.8559 0.249023V0.249023C43.2403 0.249023 55.7118 12.7205 55.7118 28.1049V28.1049C55.7118 43.4893 43.2403 55.9608 27.8559 55.9608V55.9608C12.4715 55.9608 0 43.4893 0 28.1049V28.1049Z" fill="url(#paint1_linear_3303_270)"/>
<path d="M48.7033 28.5681V31.0755H47.5215V26.7395H48.6474V27.4981H48.6953C48.895 26.995 49.3581 26.6836 49.9969 26.6836C50.8993 26.6836 51.4982 27.2985 51.4902 28.3126V31.0755H50.3163V28.5202C50.3163 27.9852 50.0209 27.6658 49.5338 27.6658C49.0387 27.6658 48.7033 27.9932 48.7033 28.5681Z" fill="white"/>
<path d="M44.6456 31.1633C43.336 31.1633 42.5215 30.261 42.5215 28.9195C42.5215 27.5779 43.336 26.6836 44.6456 26.6836C45.9552 26.6836 46.7776 27.5779 46.7776 28.9195C46.7776 30.261 45.9552 31.1633 44.6456 31.1633ZM44.6536 30.245C45.2604 30.245 45.5719 29.6781 45.5719 28.9195C45.5719 28.1529 45.2604 27.5859 44.6536 27.5859C44.0387 27.5859 43.7193 28.1529 43.7193 28.9195C43.7193 29.6781 44.0387 30.245 44.6536 30.245Z" fill="white"/>
<path d="M40.5989 31.0765V26.7405H41.7807V31.0765H40.5989ZM41.1898 26.1736C40.8304 26.1736 40.543 25.9021 40.543 25.5747C40.543 25.2393 40.8304 24.9678 41.1898 24.9678C41.5411 24.9678 41.8286 25.2393 41.8286 25.5747C41.8286 25.9021 41.5411 26.1736 41.1898 26.1736Z" fill="white"/>
<path d="M39.853 26.7393V27.6256H39.0385V29.7417C39.0385 30.0851 39.2062 30.1729 39.4458 30.1809C39.5656 30.1809 39.7732 30.1729 39.9169 30.157V31.0912C39.7891 31.1152 39.5815 31.1312 39.2861 31.1312C38.4316 31.1312 37.8487 30.7479 37.8567 29.9094V27.6256H37.2578V26.7393H37.8567V25.7012H39.0385V26.7393H39.853Z" fill="white"/>
<path d="M32.8047 29.8617C32.8047 28.8955 33.5872 28.5761 34.4177 28.5282C34.7291 28.5082 35.3121 28.4803 35.4957 28.4723V28.1209C35.4877 27.7616 35.2402 27.546 34.801 27.546C34.4017 27.546 34.1462 27.7297 34.0823 28.0251H32.9564C33.0283 27.2745 33.6831 26.6836 34.833 26.6836C35.7752 26.6836 36.6696 27.1068 36.6696 28.1529V31.0755H35.5516V30.4766H35.5197C35.3041 30.8759 34.8968 31.1554 34.25 31.1554C33.4196 31.1554 32.8047 30.7241 32.8047 29.8617ZM33.9386 29.8298C33.9386 30.1652 34.2101 30.3409 34.5854 30.3409C35.1204 30.3409 35.5037 29.9815 35.4957 29.5264V29.2069C35.3161 29.2149 34.813 29.2429 34.6094 29.2628C34.2021 29.3028 33.9386 29.4944 33.9386 29.8298Z" fill="white"/>
<path d="M30.3526 31.1633C29.027 31.1633 28.2285 30.245 28.2285 28.9195C28.2285 27.5939 29.035 26.6836 30.3526 26.6836C31.4705 26.6836 32.2291 27.3384 32.2771 28.3286H31.1671C31.0952 27.8974 30.8157 27.6019 30.3686 27.6019C29.8016 27.6019 29.4263 28.081 29.4263 28.9035C29.4263 29.742 29.7936 30.2211 30.3686 30.2211C30.7838 30.2211 31.0952 29.9655 31.1671 29.5024H32.2771C32.2212 30.4846 31.5025 31.1633 30.3526 31.1633Z" fill="white"/>
<path d="M26.3039 31.0765V26.7405H27.4858V31.0765H26.3039ZM26.8949 26.1736C26.5355 26.1736 26.248 25.9021 26.248 25.5747C26.248 25.2393 26.5355 24.9678 26.8949 24.9678C27.2462 24.9678 27.5337 25.2393 27.5337 25.5747C27.5337 25.9021 27.2462 26.1736 26.8949 26.1736Z" fill="white"/>
<path d="M25.6083 26.7413V27.6276H24.7459V31.0773H23.5641V27.6276H22.9492V26.7413H23.5641V26.4139C23.5641 25.5035 24.1151 25.0244 24.9855 25.0244C25.257 25.0244 25.4806 25.0484 25.6882 25.0963V25.9906C25.5205 25.9747 25.3927 25.9667 25.3288 25.9667C24.9455 25.9667 24.7459 26.1184 24.7459 26.4777V26.7413H25.6083Z" fill="white"/>
<path d="M21.2024 31.0765V26.7405H22.3842V31.0765H21.2024ZM21.7933 26.1736C21.434 26.1736 21.1465 25.9021 21.1465 25.5747C21.1465 25.2393 21.434 24.9678 21.7933 24.9678C22.1446 24.9678 22.4321 25.2393 22.4321 25.5747C22.4321 25.9021 22.1446 26.1736 21.7933 26.1736Z" fill="white"/>
<path d="M14.0137 31.0755V26.7395H15.1396V27.4981H15.1875C15.3712 26.995 15.8104 26.6836 16.3933 26.6836C16.9922 26.6836 17.4314 26.995 17.5751 27.4981H17.615C17.7987 27.003 18.2858 26.6836 18.9246 26.6836C19.7311 26.6836 20.2901 27.2186 20.2901 28.1609V31.0755H19.1083V28.3924C19.1083 27.8974 18.8208 27.6578 18.4295 27.6578C17.9824 27.6578 17.7268 27.9692 17.7268 28.4244V31.0755H16.5769V28.3605C16.5769 27.9293 16.3054 27.6578 15.9062 27.6578C15.5069 27.6578 15.1955 27.9772 15.1955 28.4723V31.0755H14.0137Z" fill="white"/>
<path d="M9.24805 29.8617C9.24805 28.8955 10.0306 28.5761 10.8611 28.5282C11.1725 28.5082 11.7554 28.4803 11.9391 28.4723V28.1209C11.9311 27.7616 11.6836 27.546 11.2444 27.546C10.8451 27.546 10.5896 27.7297 10.5257 28.0251H9.39977C9.47163 27.2745 10.1264 26.6836 11.2763 26.6836C12.2186 26.6836 13.1129 27.1068 13.1129 28.1529V31.0755H11.995V30.4766H11.963C11.7474 30.8759 11.3402 31.1554 10.6934 31.1554C9.86291 31.1554 9.24805 30.7241 9.24805 29.8617ZM10.382 29.8298C10.382 30.1652 10.6535 30.3409 11.0288 30.3409C11.5638 30.3409 11.9471 29.9815 11.9391 29.5264V29.2069C11.7594 29.2149 11.2563 29.2429 11.0527 29.2628C10.6455 29.3028 10.382 29.4944 10.382 29.8298Z" fill="white"/>
<path d="M7.33358 27.1553C7.17387 26.6123 6.73468 26.2769 6.10384 26.2769C5.20949 26.2769 4.60261 26.9636 4.60261 28.1774C4.60261 29.3991 5.19352 30.0939 6.11183 30.0939C6.9383 30.0939 7.4294 29.6267 7.44537 28.8961H6.19168V27.9937H8.60324V28.7124C8.60324 30.2296 7.56515 31.1559 6.10384 31.1559C4.48283 31.1559 3.38086 30.022 3.38086 28.1934C3.38086 26.3168 4.5547 25.2148 6.07989 25.2148C7.38149 25.2148 8.38763 26.0134 8.54734 27.1553H7.33358Z" fill="white"/>
<defs>
<linearGradient id="paint0_linear_3303_270" x1="59.3766" y1="28.152" x2="703.68" y2="28.152" gradientUnits="userSpaceOnUse">
<stop stop-color="#3182F6"/>
<stop offset="1" stop-color="#A009FF"/>
</linearGradient>
<linearGradient id="paint1_linear_3303_270" x1="-4.55476" y1="28.1642" x2="60.0436" y2="28.1642" gradientUnits="userSpaceOnUse">
<stop stop-color="#2C25F0"/>
<stop offset="1" stop-color="#3182F6"/>
</linearGradient>
</defs>
</svg>
