<svg width="376" height="434" viewBox="0 0 376 434" fill="none" xmlns="http://www.w3.org/2000/svg">
<g filter="url(#filter0_i_3435_747)">
<rect y="98" width="376" height="336" rx="15" fill="white"/>
</g>
<rect x="2" y="100" width="372" height="332" rx="13" stroke="url(#paint0_linear_3435_747)" stroke-width="4"/>
<path d="M38.9219 319.029C37.8281 319.029 36.9297 318.131 36.9297 317.018C36.9297 315.924 37.8281 315.025 38.9219 315.025C40.0352 315.025 40.9336 315.924 40.9336 317.018C40.9336 318.131 40.0352 319.029 38.9219 319.029ZM70.5234 316.08V317.311H54.6836V316.08H70.5234ZM68.4727 319.01V324.244H66.9102V320.24H56.4609V319.01H68.4727ZM68.6484 313.209V314.4H56.793V307.35H68.5508V308.58H58.3359V310.24H68.082V311.432H58.3359V313.209H68.6484ZM85.5625 306.881V311.412H88.1797V312.682H85.5625V317.311H84.0391V306.881H85.5625ZM80.8359 308.17C80.8359 312.584 77.7109 315.846 72.6523 317.33L72.0078 316.08C76.1973 314.869 78.873 312.457 79.1953 309.439H72.7695V308.17H80.8359ZM80.0742 317.506C83.5703 317.506 85.7578 318.775 85.7578 320.846C85.7578 322.955 83.5703 324.205 80.0742 324.205C76.6172 324.205 74.3711 322.955 74.3906 320.846C74.3711 318.775 76.6172 317.506 80.0742 317.506ZM80.0742 318.736C77.5352 318.717 75.8945 319.537 75.9141 320.846C75.8945 322.154 77.5352 322.975 80.0742 322.975C82.6328 322.975 84.2734 322.154 84.2734 320.846C84.2734 319.537 82.6328 318.717 80.0742 318.736ZM103.004 308.502C103.004 310.943 106.207 313.072 109.332 313.502L108.707 314.752C106.012 314.303 103.346 312.809 102.223 310.67C101.109 312.818 98.4336 314.303 95.7383 314.752L95.1133 313.502C98.2383 313.072 101.422 310.982 101.422 308.502V307.506H103.004V308.502ZM110.113 316.666V317.955H102.926V324.244H101.422V317.955H94.293V316.666H110.113ZM116.363 307.701C118.697 307.682 120.465 309.039 120.797 311.041H124.43V306.881H125.973V316.197H124.43V312.311H120.816C120.504 314.361 118.717 315.729 116.363 315.729C113.727 315.729 111.852 314.088 111.852 311.705C111.852 309.342 113.727 307.682 116.363 307.701ZM116.363 309.01C114.586 308.99 113.316 310.104 113.316 311.705C113.316 313.287 114.586 314.439 116.363 314.439C118.121 314.439 119.371 313.287 119.371 311.705C119.371 310.104 118.121 308.99 116.363 309.01ZM116.324 317.076V319.283H124.43V317.076H125.973V324.01H114.781V317.076H116.324ZM116.324 322.76H124.43V320.514H116.324V322.76ZM139.391 322.857C136.578 322.857 134.566 321.354 134.469 319.107H136.246C136.344 320.455 137.691 321.295 139.371 321.295C141.227 321.295 142.594 320.279 142.594 318.814C142.594 317.271 141.363 316.178 139.156 316.178H138.004V314.635H139.156C140.875 314.635 142.066 313.678 142.066 312.213C142.066 310.807 141.031 309.85 139.43 309.85C137.926 309.85 136.539 310.689 136.461 312.076H134.762C134.859 309.83 136.93 308.326 139.449 308.326C142.145 308.326 143.785 310.084 143.766 312.115C143.785 313.717 142.848 314.908 141.363 315.318V315.416C143.199 315.709 144.332 317.018 144.312 318.814C144.332 321.139 142.203 322.857 139.391 322.857ZM161.051 306.881V324.244H159.547V315.162H157.145V323.385H155.68V307.35H157.145V313.893H159.547V306.881H161.051ZM153.707 309.146C153.688 313.561 152.145 317.74 147.145 320.514L146.246 319.439C150.279 317.193 151.949 314.01 152.203 310.416H146.91V309.146H153.707ZM177.262 306.881V314.049H179.898V315.338H177.262V324.244H175.719V306.881H177.262ZM168.785 308.775C168.766 312.916 167.828 316.979 164.684 320.318L163.453 319.439C166.08 316.754 167.135 313.521 167.34 310.064H164V308.775H168.785ZM173.551 308.775C173.531 312.896 172.926 317.682 169.684 321.471L168.434 320.611C171.148 317.545 171.969 313.688 172.105 310.064H169.332V308.775H173.551ZM187.008 312.213C187.008 315.162 189.156 318.15 191.715 319.264L190.855 320.475C188.824 319.547 187.066 317.545 186.266 315.143C185.445 317.691 183.697 319.908 181.715 320.904L180.797 319.693C183.277 318.502 185.445 315.221 185.465 312.213V309.947H181.363V308.678H191.148V309.947H187.008V312.213ZM195.113 306.881V324.244H193.57V306.881H195.113ZM208.336 322.857C205.777 322.857 203.844 321.275 203.746 319.107H205.445C205.582 320.377 206.812 321.314 208.336 321.314C210.172 321.314 211.5 319.967 211.5 318.189C211.5 316.354 210.113 315.006 208.219 314.986C207.027 314.967 206.109 315.338 205.582 316.256H203.883L204.879 308.521H212.535V310.084H206.344L205.816 314.225H205.953C206.578 313.736 207.535 313.404 208.531 313.404C211.227 313.404 213.219 315.396 213.219 318.15C213.219 320.885 211.148 322.857 208.336 322.857ZM218.648 315.084C216.812 315.084 215.816 313.717 215.816 311.686C215.816 309.693 216.852 308.307 218.648 308.307C220.504 308.307 221.48 309.693 221.48 311.686C221.48 313.717 220.465 315.084 218.648 315.084ZM218.648 313.873C219.605 313.873 220.055 313.014 220.055 311.686C220.055 310.377 219.645 309.498 218.648 309.518C217.711 309.518 217.242 310.377 217.242 311.686C217.242 313.014 217.711 313.873 218.648 313.873ZM227.281 322.857C225.445 322.877 224.43 321.49 224.449 319.479C224.43 317.467 225.484 316.08 227.281 316.08C229.117 316.08 230.094 317.467 230.094 319.479C230.094 321.49 229.078 322.877 227.281 322.857ZM227.281 321.646C228.219 321.646 228.668 320.787 228.668 319.479C228.668 318.15 228.258 317.271 227.281 317.291C226.344 317.311 225.855 318.15 225.855 319.479C225.855 320.787 226.324 321.646 227.281 321.646ZM217.203 322.662L226.93 308.521H228.512L218.785 322.662H217.203ZM250.875 306.822V311.041H253.512V312.311H250.875V316.432H249.352V306.822H250.875ZM250.875 317.33V321.178H241.344V322.877H251.52V324.049H239.84V320.045H249.352V318.482H239.801V317.33H250.875ZM247.691 308.463V309.693H237.34V308.463H241.754V306.705H243.277V308.463H247.691ZM242.516 310.475C245.035 310.475 246.676 311.568 246.695 313.326C246.676 315.084 245.035 316.178 242.516 316.178C239.977 316.178 238.316 315.084 238.336 313.326C238.316 311.568 239.977 310.475 242.516 310.475ZM242.516 311.607C240.875 311.607 239.781 312.291 239.801 313.326C239.781 314.381 240.875 315.025 242.516 315.025C244.156 315.025 245.23 314.381 245.25 313.326C245.23 312.291 244.156 311.607 242.516 311.607ZM268.922 306.9V319.596H267.398V306.9H268.922ZM269.469 322.584V323.873H257.711V318.307H259.234V322.584H269.469ZM259.547 308.111C262.145 308.111 264.098 309.869 264.098 312.369C264.098 314.908 262.145 316.646 259.547 316.646C256.949 316.646 254.996 314.908 254.996 312.369C254.996 309.869 256.949 308.111 259.547 308.111ZM259.547 309.459C257.789 309.459 256.48 310.67 256.5 312.369C256.48 314.107 257.789 315.299 259.547 315.299C261.266 315.299 262.594 314.107 262.594 312.369C262.594 310.67 261.266 309.459 259.547 309.459ZM38.9219 351.029C37.8281 351.029 36.9297 350.131 36.9297 349.018C36.9297 347.924 37.8281 347.025 38.9219 347.025C40.0352 347.025 40.9336 347.924 40.9336 349.018C40.9336 350.131 40.0352 351.029 38.9219 351.029ZM60.2109 354.857C57.3984 354.857 55.3867 353.354 55.2891 351.107H57.0664C57.1641 352.455 58.5117 353.295 60.1914 353.295C62.0469 353.295 63.4141 352.279 63.4141 350.814C63.4141 349.271 62.1836 348.178 59.9766 348.178H58.8242V346.635H59.9766C61.6953 346.635 62.8867 345.678 62.8867 344.213C62.8867 342.807 61.8516 341.85 60.25 341.85C58.7461 341.85 57.3594 342.689 57.2812 344.076H55.582C55.6797 341.83 57.75 340.326 60.2695 340.326C62.9648 340.326 64.6055 342.084 64.5859 344.115C64.6055 345.717 63.668 346.908 62.1836 347.318V347.416C64.0195 347.709 65.1523 349.018 65.1328 350.814C65.1523 353.139 63.0234 354.857 60.2109 354.857ZM81.3633 338.9V349.135H79.8203V348.178H76.3047V347.162H79.8203V338.9H81.3633ZM66.9883 345.443C70.3477 345.463 74.6445 345.424 78.3945 345.014L78.4922 346.01C76.793 346.254 75.0254 346.4 73.2969 346.479V349.193H71.793V346.537C70.1523 346.596 68.5801 346.605 67.1641 346.596L66.9883 345.443ZM81.3633 349.76V353.354H71.2266V354.916H81.9297V356.049H69.7227V352.279H79.8398V350.873H69.6445V349.76H81.3633ZM72.6523 339.232C75.2305 339.232 76.9492 340.248 76.9688 341.85C76.9492 343.471 75.2305 344.447 72.6523 344.447C70.0352 344.447 68.3359 343.471 68.3359 341.85C68.3359 340.248 70.0352 339.232 72.6523 339.232ZM72.6523 340.307C70.8945 340.307 69.7617 340.912 69.7812 341.85C69.7617 342.768 70.8945 343.393 72.6523 343.393C74.3906 343.393 75.5234 342.768 75.5234 341.85C75.5234 340.912 74.3906 340.307 72.6523 340.307ZM103.746 338.881V349.232H102.203V344.682H98.707V343.412H102.203V338.881H103.746ZM97.9844 349.779C101.598 349.779 103.805 350.951 103.805 353.002C103.805 355.053 101.598 356.225 97.9844 356.244C94.3711 356.225 92.1641 355.053 92.1641 353.002C92.1641 350.951 94.3711 349.779 97.9844 349.779ZM97.9844 350.971C95.3281 350.971 93.668 351.732 93.6875 353.002C93.668 354.252 95.3281 355.014 97.9844 355.014C100.641 355.014 102.281 354.252 102.281 353.002C102.281 351.732 100.641 350.971 97.9844 350.971ZM95.3867 342.064C95.3867 344.33 97.125 346.479 99.6641 347.357L98.8633 348.588C96.9102 347.885 95.3965 346.43 94.6641 344.623C93.9023 346.664 92.291 348.295 90.2305 349.076L89.4297 347.846C92.0078 346.908 93.8438 344.564 93.8438 342.084V341.439H89.918V340.15H99.2734V341.439H95.3867V342.064ZM120.27 340.014V341.342C120.27 342.904 120.27 344.838 119.781 347.592H122.457V348.861H118.277V356.244H116.754V348.861H112.301V356.244H110.777V348.861H106.637V347.592H118.219C118.785 344.857 118.785 342.895 118.785 341.342V341.283H108.668V340.014H120.27ZM137.652 340.502C137.652 342.943 140.855 345.072 143.98 345.502L143.355 346.752C140.66 346.303 137.994 344.809 136.871 342.67C135.758 344.818 133.082 346.303 130.387 346.752L129.762 345.502C132.887 345.072 136.07 342.982 136.07 340.502V339.506H137.652V340.502ZM144.762 348.666V349.955H137.574V356.244H136.07V349.955H128.941V348.666H144.762ZM159.801 338.881V343.412H162.418V344.682H159.801V349.311H158.277V338.881H159.801ZM155.074 340.17C155.074 344.584 151.949 347.846 146.891 349.33L146.246 348.08C150.436 346.869 153.111 344.457 153.434 341.439H147.008V340.17H155.074ZM154.312 349.506C157.809 349.506 159.996 350.775 159.996 352.846C159.996 354.955 157.809 356.205 154.312 356.205C150.855 356.205 148.609 354.955 148.629 352.846C148.609 350.775 150.855 349.506 154.312 349.506ZM154.312 350.736C151.773 350.717 150.133 351.537 150.152 352.846C150.133 354.154 151.773 354.975 154.312 354.975C156.871 354.975 158.512 354.154 158.512 352.846C158.512 351.537 156.871 350.717 154.312 350.736ZM179.41 352.807V354.096H163.512V352.807H167.984V349.506H165.504V344.154H175.895V341.439H165.465V340.17H177.398V345.424H167.027V348.236H177.809V349.506H175.094V352.807H179.41ZM169.488 352.807H173.59V349.506H169.488V352.807ZM191.441 340.521V354.662H189.664V342.357H189.586L186.148 344.643V342.865L189.664 340.521H191.441ZM199.84 354.857C196.695 354.857 194.898 352.221 194.898 347.592C194.898 343.002 196.734 340.326 199.84 340.326C202.945 340.326 204.781 343.002 204.781 347.592C204.781 352.221 202.965 354.857 199.84 354.857ZM199.84 353.295C201.871 353.295 203.062 351.244 203.062 347.592C203.062 343.939 201.871 341.85 199.84 341.85C197.809 341.85 196.598 343.939 196.598 347.592C196.598 351.244 197.789 353.295 199.84 353.295ZM210.113 347.084C208.277 347.084 207.281 345.717 207.281 343.686C207.281 341.693 208.316 340.307 210.113 340.307C211.969 340.307 212.945 341.693 212.945 343.686C212.945 345.717 211.93 347.084 210.113 347.084ZM210.113 345.873C211.07 345.873 211.52 345.014 211.52 343.686C211.52 342.377 211.109 341.498 210.113 341.518C209.176 341.518 208.707 342.377 208.707 343.686C208.707 345.014 209.176 345.873 210.113 345.873ZM218.746 354.857C216.91 354.877 215.895 353.49 215.914 351.479C215.895 349.467 216.949 348.08 218.746 348.08C220.582 348.08 221.559 349.467 221.559 351.479C221.559 353.49 220.543 354.877 218.746 354.857ZM218.746 353.646C219.684 353.646 220.133 352.787 220.133 351.479C220.133 350.15 219.723 349.271 218.746 349.291C217.809 349.311 217.32 350.15 217.32 351.479C217.32 352.787 217.789 353.646 218.746 353.646ZM208.668 354.662L218.395 340.521H219.977L210.25 354.662H208.668ZM244.586 349.389V350.678H237.418V356.283H235.914V350.678H228.766V349.389H244.586ZM237.438 342.318C237.438 344.486 240.465 346.381 243.57 346.811L243.004 348.041C240.318 347.631 237.789 346.283 236.695 344.389C235.582 346.303 233.014 347.631 230.328 348.041L229.762 346.811C232.848 346.381 235.914 344.506 235.914 342.318V342.299H230.309V341.049H235.914V338.881H237.418V341.049H243.062V342.299H237.438V342.318ZM259.488 338.881V345.951H262.301V347.24H259.488V356.244H257.965V338.881H259.488ZM254.996 340.756C254.996 345.678 252.691 350.15 247.027 352.943L246.168 351.732C250.66 349.496 253.102 346.156 253.453 342.045H246.969V340.756H254.996ZM281.93 338.822V343.041H284.566V344.311H281.93V348.432H280.406V338.822H281.93ZM281.93 349.33V353.178H272.398V354.877H282.574V356.049H270.895V352.045H280.406V350.482H270.855V349.33H281.93ZM278.746 340.463V341.693H268.395V340.463H272.809V338.705H274.332V340.463H278.746ZM273.57 342.475C276.09 342.475 277.73 343.568 277.75 345.326C277.73 347.084 276.09 348.178 273.57 348.178C271.031 348.178 269.371 347.084 269.391 345.326C269.371 343.568 271.031 342.475 273.57 342.475ZM273.57 343.607C271.93 343.607 270.836 344.291 270.855 345.326C270.836 346.381 271.93 347.025 273.57 347.025C275.211 347.025 276.285 346.381 276.305 345.326C276.285 344.291 275.211 343.607 273.57 343.607ZM299.977 338.9V351.596H298.453V338.9H299.977ZM300.523 354.584V355.873H288.766V350.307H290.289V354.584H300.523ZM290.602 340.111C293.199 340.111 295.152 341.869 295.152 344.369C295.152 346.908 293.199 348.646 290.602 348.646C288.004 348.646 286.051 346.908 286.051 344.369C286.051 341.869 288.004 340.111 290.602 340.111ZM290.602 341.459C288.844 341.459 287.535 342.67 287.555 344.369C287.535 346.107 288.844 347.299 290.602 347.299C292.32 347.299 293.648 346.107 293.648 344.369C293.648 342.67 292.32 341.459 290.602 341.459ZM38.9219 383.029C37.8281 383.029 36.9297 382.131 36.9297 381.018C36.9297 379.924 37.8281 379.025 38.9219 379.025C40.0352 379.025 40.9336 379.924 40.9336 381.018C40.9336 382.131 40.0352 383.029 38.9219 383.029ZM69.0977 370.881V381.232H67.5547V376.682H64.0586V375.412H67.5547V370.881H69.0977ZM63.3359 381.779C66.9492 381.779 69.1562 382.951 69.1562 385.002C69.1562 387.053 66.9492 388.225 63.3359 388.244C59.7227 388.225 57.5156 387.053 57.5156 385.002C57.5156 382.951 59.7227 381.779 63.3359 381.779ZM63.3359 382.971C60.6797 382.971 59.0195 383.732 59.0391 385.002C59.0195 386.252 60.6797 387.014 63.3359 387.014C65.9922 387.014 67.6328 386.252 67.6328 385.002C67.6328 383.732 65.9922 382.971 63.3359 382.971ZM60.7383 374.064C60.7383 376.33 62.4766 378.479 65.0156 379.357L64.2148 380.588C62.2617 379.885 60.748 378.43 60.0156 376.623C59.2539 378.664 57.6426 380.295 55.582 381.076L54.7812 379.846C57.3594 378.908 59.1953 376.564 59.1953 374.084V373.439H55.2695V372.15H64.625V373.439H60.7383V374.064ZM85.6211 372.014V373.342C85.6211 374.904 85.6211 376.838 85.1328 379.592H87.8086V380.861H83.6289V388.244H82.1055V380.861H77.6523V388.244H76.1289V380.861H71.9883V379.592H83.5703C84.1367 376.857 84.1367 374.895 84.1367 373.342V373.283H74.0195V372.014H85.6211ZM96.6953 371.955V374.748H101.539V371.955H103.043V373.732H107.145V370.881H108.688V381.408H107.145V378.576H103.043V380.119H95.1719V371.955H96.6953ZM96.6953 378.869H101.539V375.979H96.6953V378.869ZM102.926 381.74C106.539 381.76 108.746 382.932 108.746 385.002C108.746 387.033 106.539 388.205 102.926 388.205C99.3125 388.205 97.1055 387.033 97.1055 385.002C97.1055 382.932 99.3125 381.76 102.926 381.74ZM102.926 382.951C100.27 382.951 98.6094 383.713 98.6289 385.002C98.6094 386.252 100.27 386.994 102.926 386.994C105.582 386.994 107.223 386.252 107.223 385.002C107.223 383.713 105.582 382.951 102.926 382.951ZM103.043 377.307H107.145V374.982H103.043V377.307ZM126.324 370.881V381.877H124.859V376.896H122.535V381.252H121.09V371.232H122.535V375.627H124.859V370.881H126.324ZM120.387 372.971V374.201H111.48V372.971H115.191V371.018H116.715V372.971H120.387ZM115.953 375.139C118.16 375.139 119.664 376.291 119.684 378.107C119.664 379.885 118.16 381.057 115.953 381.057C113.766 381.057 112.223 379.885 112.242 378.107C112.223 376.291 113.766 375.139 115.953 375.139ZM115.953 376.271C114.566 376.271 113.609 377.014 113.609 378.107C113.609 379.182 114.566 379.904 115.953 379.904C117.34 379.904 118.297 379.182 118.297 378.107C118.297 377.014 117.34 376.271 115.953 376.271ZM120.582 382.17C124.234 382.17 126.422 383.264 126.422 385.217C126.422 387.111 124.234 388.205 120.582 388.205C116.93 388.205 114.742 387.111 114.762 385.217C114.742 383.264 116.93 382.17 120.582 382.17ZM120.582 383.381C117.887 383.361 116.266 384.025 116.285 385.217C116.266 386.35 117.887 387.014 120.582 387.014C123.277 387.014 124.879 386.35 124.898 385.217C124.879 384.025 123.277 383.361 120.582 383.381ZM147.906 376.74V378.01H135.934V371.779H137.457V376.74H147.906ZM149.781 380.627V381.916H142.516V388.244H140.992V381.916H133.883V380.627H149.781ZM157.203 374.084C157.203 376.35 158.941 378.498 161.48 379.377L160.68 380.588C158.717 379.885 157.203 378.43 156.461 376.643C155.709 378.645 154.107 380.246 152.047 380.998L151.246 379.787C153.805 378.869 155.66 376.545 155.66 374.104V373.342H151.734V372.092H161.09V373.342H157.203V374.084ZM165.562 382.209V388.244H164.02V383.479H153.883V382.209H165.562ZM165.562 370.881V381.291H164.02V376.721H160.543V375.432H164.02V370.881H165.562ZM182.184 372.502C182.184 374.943 185.387 377.072 188.512 377.502L187.887 378.752C185.191 378.303 182.525 376.809 181.402 374.67C180.289 376.818 177.613 378.303 174.918 378.752L174.293 377.502C177.418 377.072 180.602 374.982 180.602 372.502V371.506H182.184V372.502ZM189.293 380.666V381.955H182.105V388.244H180.602V381.955H173.473V380.666H189.293ZM204.332 370.881V375.412H206.949V376.682H204.332V381.311H202.809V370.881H204.332ZM199.605 372.17C199.605 376.584 196.48 379.846 191.422 381.33L190.777 380.08C194.967 378.869 197.643 376.457 197.965 373.439H191.539V372.17H199.605ZM198.844 381.506C202.34 381.506 204.527 382.775 204.527 384.846C204.527 386.955 202.34 388.205 198.844 388.205C195.387 388.205 193.141 386.955 193.16 384.846C193.141 382.775 195.387 381.506 198.844 381.506ZM198.844 382.736C196.305 382.717 194.664 383.537 194.684 384.846C194.664 386.154 196.305 386.975 198.844 386.975C201.402 386.975 203.043 386.154 203.043 384.846C203.043 383.537 201.402 382.717 198.844 382.736ZM213.922 376.213C213.902 379.006 215.914 382.072 218.434 383.264L217.555 384.475C215.602 383.527 213.951 381.457 213.18 379.104C212.379 381.662 210.631 383.908 208.688 384.904L207.75 383.693C210.25 382.482 212.398 379.182 212.418 376.213V373.947H208.375V372.678H217.828V373.947H213.922V376.213ZM221.48 370.881V377.912H224.391V379.221H221.48V388.244H219.957V370.881H221.48ZM244.742 370.9V383.635H243.199V376.975H239.625V375.705H243.199V370.9H244.742ZM245.23 386.584V387.873H233.59V382.482H235.133V386.584H245.23ZM236.383 374.475C236.383 376.721 238.121 378.908 240.66 379.768L239.859 380.998C237.896 380.295 236.383 378.83 235.641 377.033C234.889 379.035 233.287 380.637 231.227 381.408L230.426 380.158C232.984 379.26 234.84 376.975 234.84 374.475V373.576H230.914V372.307H240.27V373.576H236.383V374.475ZM263.453 379.475V380.744H247.633V379.475H251.559V377.033C250.172 376.496 249.391 375.607 249.391 374.436C249.391 372.385 251.734 371.213 255.543 371.213C259.312 371.213 261.676 372.385 261.676 374.436C261.676 375.598 260.904 376.486 259.527 377.014V379.475H263.453ZM255.543 382.072C259.273 382.072 261.5 383.146 261.52 385.139C261.5 387.111 259.273 388.205 255.543 388.205C251.773 388.205 249.547 387.111 249.547 385.139C249.547 383.146 251.773 382.072 255.543 382.072ZM255.543 383.244C252.75 383.264 251.09 383.947 251.109 385.139C251.09 386.311 252.75 387.014 255.543 387.014C258.297 387.014 259.977 386.311 259.977 385.139C259.977 383.947 258.297 383.264 255.543 383.244ZM255.543 372.424C252.711 372.424 250.953 373.186 250.973 374.436C250.953 375.705 252.711 376.447 255.543 376.447C258.355 376.447 260.113 375.705 260.113 374.436C260.113 373.186 258.355 372.424 255.543 372.424ZM253.082 379.475H258.004V377.443C257.271 377.57 256.451 377.639 255.543 377.639C254.635 377.639 253.814 377.57 253.082 377.443V379.475ZM284.82 370.881V388.244H283.336V370.881H284.82ZM281.559 371.271V387.385H280.113V381.975H277.594C277.047 383.42 275.787 384.338 274.195 384.338C272.086 384.338 270.523 382.697 270.543 380.334C270.523 377.951 272.086 376.33 274.195 376.33C276.324 376.33 277.867 377.951 277.867 380.334L277.848 380.744H280.113V378.049H277.672V376.779H280.113V371.271H281.559ZM278.551 373.889V375.139H269.898V373.889H273.453V371.35H274.996V373.889H278.551ZM274.195 377.639C272.848 377.658 271.891 378.752 271.891 380.334C271.891 381.896 272.848 383.01 274.195 383.01C275.543 383.01 276.52 381.896 276.52 380.334C276.52 378.752 275.543 377.658 274.195 377.639ZM294.742 372.15V373.439H289.469V375.607H294.547V376.818H289.469V379.221C291.998 379.211 293.58 379.123 295.445 378.752L295.602 380.021C293.57 380.412 291.93 380.51 289.098 380.51H288.004V372.15H294.742ZM301.969 370.9V381.428H300.504V376.682H298.062V381.311H296.637V371.232H298.062V375.432H300.504V370.9H301.969ZM301.969 382.326V388.244H300.465V383.576H290.27V382.326H301.969Z" fill="black"/>
<path d="M31 277.662H345" stroke="url(#paint1_linear_3435_747)"/>
<path d="M63.8125 174.101V190.976H59.8438V184.257H55.4062V181.038H59.8438V174.101H63.8125ZM54.0938 191.601C60.1562 191.632 63.875 193.632 63.9062 197.101C63.875 200.538 60.1562 202.569 54.0938 202.569C48.0312 202.569 44.3125 200.538 44.3125 197.101C44.3125 193.632 48.0312 191.632 54.0938 191.601ZM54.0938 194.663C50.3125 194.663 48.2812 195.444 48.2812 197.101C48.2812 198.726 50.3125 199.538 54.0938 199.538C57.875 199.538 59.9375 198.726 59.9375 197.101C59.9375 195.444 57.875 194.663 54.0938 194.663ZM56.25 175.819V179.007H50.5938C50.6875 182.319 52.6875 185.663 57.125 187.132L55.1562 190.257C52.0156 189.241 49.8594 187.179 48.625 184.601C47.3594 187.507 45.0938 189.851 41.7188 191.007L39.6562 187.851C44.3281 186.288 46.4219 182.569 46.5312 179.007H40.8125V175.819H56.25ZM90.0938 175.663V177.569C90.0938 179.944 90.0938 183.226 89.3438 187.913H93.4375V191.132H87.2812V202.538H83.3125V191.132H77.4062V202.538H73.4062V191.132H67.5V187.913H85.3125C86.0312 184.069 86.1562 181.116 86.2188 178.882H70.5938V175.663H90.0938ZM117.625 176.319C117.625 179.663 121.031 183.382 127.562 184.194L126 187.413C121.031 186.694 117.391 184.397 115.531 181.319C113.656 184.397 110.047 186.694 105.125 187.413L103.531 184.194C110 183.382 113.438 179.663 113.438 176.319V174.944H117.625V176.319ZM128.469 189.569V192.819H117.406V202.538H113.469V192.819H102.531V189.569H128.469ZM138.125 175.319C141.766 175.288 144.656 177.366 145.438 180.413H150.188V174.101H154.156V189.382H150.188V183.601H145.469C144.719 186.726 141.797 188.851 138.125 188.851C133.75 188.851 130.531 186.007 130.562 182.038C130.531 178.132 133.75 175.288 138.125 175.319ZM138.125 178.632C135.906 178.601 134.312 179.913 134.344 182.038C134.312 184.163 135.906 185.507 138.125 185.507C140.281 185.507 141.844 184.163 141.844 182.038C141.844 179.913 140.281 178.601 138.125 178.632ZM139.125 190.632V193.382H150.188V190.632H154.156V202.226H135.188V190.632H139.125ZM139.125 199.007H150.188V196.444H139.125V199.007ZM173.844 176.944V179.226C173.812 181.913 173.812 185.413 173.062 190.132L169.125 189.819C169.766 185.694 169.828 182.647 169.875 180.132H159.094V176.944H173.844ZM166.75 185.101V193.351C169.547 193.241 172.391 193.038 175 192.694L175.25 195.663C169.406 196.663 162.938 196.757 157.969 196.726L157.594 193.538C159.188 193.522 160.969 193.522 162.812 193.476V185.101H166.75ZM180.375 174.101V185.538H184.25V188.851H180.375V202.538H176.344V174.101H180.375ZM62.4062 219.101V226.101H66.25V229.444H62.4062V236.257H58.4062V219.101H62.4062ZM62.4062 237.507V247.226H43.8125V237.507H62.4062ZM47.75 240.632V244.038H58.4688V240.632H47.75ZM56.7188 221.663V224.819H39.8438V221.663H46.3125V218.944H50.2812V221.663H56.7188ZM48.2812 225.694C52.4062 225.694 55.2812 227.788 55.2812 230.788C55.2812 233.882 52.4062 235.944 48.2812 235.944C44.0938 235.944 41.2188 233.882 41.2188 230.788C41.2188 227.788 44.0938 225.694 48.2812 225.694ZM48.2812 228.694C46.375 228.694 45.0938 229.444 45.125 230.788C45.0938 232.226 46.375 233.007 48.2812 233.007C50.1875 233.007 51.5 232.226 51.5 230.788C51.5 229.444 50.1875 228.694 48.2812 228.694ZM74.5 222.351C74.4688 229.444 73.7812 235.819 70.1562 241.444L67.0625 239.819C69.9844 235.397 70.8594 231.085 71.0625 225.569H68V222.351H74.5ZM80.875 222.351C80.8594 224.851 80.8125 227.335 80.5938 229.757H83.0312V219.726H86.7812V246.288H83.0312V232.976H80.1875C79.5781 236.46 78.5 239.804 76.5312 242.882L73.5 241.194C76.6719 236.351 77.3281 231.335 77.4688 225.569H75.3125V222.351H80.875ZM92.375 219.101V247.538H88.5625V219.101H92.375ZM128.531 232.101V235.351H102.531V232.101H128.531ZM125.562 226.944V230.101H105.688V219.851H125.406V223.069H109.656V226.944H125.562ZM115.469 237.069C121.625 237.069 125.344 238.944 125.375 242.288C125.344 245.663 121.625 247.538 115.469 247.538C109.25 247.538 105.5 245.663 105.5 242.288C105.5 238.944 109.25 237.069 115.469 237.069ZM115.469 240.101C111.531 240.101 109.531 240.851 109.562 242.288C109.531 243.788 111.531 244.507 115.469 244.507C119.312 244.507 121.344 243.788 121.375 242.288C121.344 240.851 119.312 240.101 115.469 240.101ZM156.188 234.351V237.538H130.156V234.351H141.188V232.288H133.406V224.476H149.031V222.726H133.344V219.632H153.031V227.351H137.375V229.226H153.562V232.288H145.156V234.351H156.188ZM153.188 239.163V247.413H149.156V242.288H133.062V239.163H153.188ZM180.281 219.101V230.226H184.469V233.507H180.281V247.538H176.344V219.101H180.281ZM174.406 223.351V226.538H157.688V223.351H164.125V219.538H168.125V223.351H174.406ZM166.125 228.132C170.281 228.132 173.375 230.944 173.375 234.913C173.375 238.882 170.281 241.694 166.125 241.694C161.938 241.694 158.844 238.882 158.844 234.913C158.844 230.944 161.938 228.132 166.125 228.132ZM166.125 231.351C164.125 231.382 162.656 232.726 162.656 234.913C162.656 237.132 164.125 238.444 166.125 238.413C168.125 238.444 169.562 237.132 169.562 234.913C169.562 232.726 168.125 231.382 166.125 231.351ZM200.188 221.413V223.569H205.5V219.132H209.469V239.819H205.5V232.851H200.188V235.257H186.688V221.413H200.188ZM190.656 224.569V232.163H196.281V224.569H190.656ZM210.062 243.851V247.038H190.531V237.851H194.562V243.851H210.062ZM200.188 229.694H205.5V226.788H200.188V229.694Z" fill="url(#paint2_linear_3435_747)"/>
<path d="M72.1803 58.1439C74.8312 52.7029 79.8034 48.7551 85.7037 47.4066L283.375 2.22831C288.759 0.997778 294.121 4.36485 295.352 9.74886L314.271 92.5273C315.502 97.9113 312.135 103.273 306.751 104.504L108.177 149.888C102.798 151.118 97.1505 150.07 92.5701 146.994L51.8187 119.625C47.6753 116.842 46.2183 111.43 48.4044 106.943L72.1803 58.1439Z" fill="url(#paint3_linear_3435_747)"/>
<circle cx="61.8862" cy="108.752" r="6.07254" transform="rotate(-12.874 61.8862 108.752)" fill="white"/>
<path d="M273.062 43.4099L277.956 64.8212L273.765 65.7789L268.871 44.3676L273.062 43.4099ZM279.766 69.1268L280.53 72.4662L259.773 77.2101L257.491 67.2247L261.714 66.2595L263.233 72.9055L279.766 69.1268ZM257.159 49.0425C261.743 47.995 266.03 50.3223 267.025 54.6766C268.042 59.1291 265.185 63.0549 260.601 64.1025C256.018 65.15 251.738 62.8554 250.721 58.4029C249.726 54.0486 252.576 50.0901 257.159 49.0425ZM257.99 52.6766C255.658 53.1751 254.227 55.0524 254.813 57.4676C255.349 59.9632 257.446 60.9997 259.771 60.4684C262.03 59.9521 263.468 58.1076 262.9 55.6194C262.346 53.1967 260.241 52.1275 257.99 52.6766Z" fill="white"/>
<path d="M242.756 50.2325L244.238 56.7148L248.265 55.7944L249.028 59.1338L245.001 60.0541L246.445 66.3728L242.255 67.3305L238.566 51.1902L242.756 50.2325ZM246.722 67.5841L248.443 75.1141L232.827 78.6832L233.216 80.3857L249.683 76.6219L250.387 79.6994L229.827 84.3984L228.083 76.7703L243.634 73.2161L243.253 71.5464L227.636 75.1155L226.948 72.1036L246.722 67.5841ZM237.322 53.886L238.047 57.0617L220.368 61.1023L219.643 57.9266L226.42 56.3777L225.866 53.955L230.024 53.0047L230.577 55.4274L237.322 53.886ZM229.373 59.8022C233.825 58.7846 237.14 60.025 237.821 63.0042C238.517 66.049 236.055 68.5408 231.602 69.5584C227.15 70.5761 223.784 69.4161 223.088 66.3714C222.408 63.3921 224.92 60.8199 229.373 59.8022ZM230.046 62.7487C227.983 63.2201 226.864 64.1995 227.181 65.4361C227.44 66.7204 228.859 67.0506 230.921 66.5792C232.984 66.1078 234.151 65.1865 233.86 63.9096C233.575 62.6656 232.109 62.2773 230.046 62.7487Z" fill="white"/>
<path d="M189.839 78.105C186.303 78.9131 183.781 76.7682 182.928 73.0359C182.067 69.2709 183.473 66.2281 186.943 65.435C190.512 64.6194 192.969 66.7793 193.862 70.5368C194.69 74.3092 193.342 77.3043 189.839 78.105ZM189.173 75.1912C190.581 74.8694 190.954 73.3373 190.523 71.3C190.026 69.2776 189.083 68.012 187.609 68.3487C186.202 68.6705 185.811 70.2756 186.267 72.2727C186.731 74.3025 187.798 75.5055 189.173 75.1912ZM208.704 87.0907C205.201 87.8913 202.678 85.7464 201.825 82.0142C200.965 78.2492 202.371 75.2064 205.808 74.4207C209.377 73.6051 211.867 75.7575 212.76 79.515C213.588 83.2875 212.24 86.2826 208.704 87.0907ZM208.038 84.1769C209.479 83.8477 209.859 82.3483 209.421 80.2782C208.924 78.2559 207.98 76.9903 206.482 77.3672C205.107 77.6815 204.708 79.2539 205.165 81.251C205.636 83.3135 206.696 84.4837 208.038 84.1769ZM190.485 90.4279L201.372 62.9985L205.039 62.1605L194.152 89.5898L190.485 90.4279Z" fill="white"/>
<path d="M113.464 110.821C108.655 112.021 104.428 110.045 103.303 106.099L107.515 105.048C108.135 106.972 110.307 107.91 112.595 107.339C115.281 106.669 116.717 104.232 116.055 101.579C115.369 98.8267 112.891 97.3664 110.138 98.053C108.273 98.4831 107.078 99.4855 106.671 101.102L102.659 102.103L100.726 88.1417L114.92 84.6012L115.822 88.216L105.176 90.8714L106.035 97.4208L106.267 97.3629C106.931 96.07 108.498 94.8688 110.455 94.3808C114.932 93.2641 119.051 95.7946 120.201 100.404C121.4 105.213 118.637 109.531 113.464 110.821ZM131.98 101.729L130.416 95.4608L124.148 97.0243L123.23 93.3431L129.498 91.7797L127.935 85.5118L131.583 84.6018L133.146 90.8697L139.447 89.2981L140.365 92.9792L134.064 94.5509L135.628 100.819L131.98 101.729ZM151.466 75.4854L157.455 99.4958L153.111 100.579L148.173 80.7808L148.04 80.8139L143.329 85.7935L142.344 81.8471L147.321 76.5194L151.466 75.4854ZM172.23 96.1629C166.459 97.6023 161.893 93.9855 159.933 86.1257C157.981 78.2991 160.305 72.9286 166.075 71.4892C171.813 70.0582 176.42 73.6998 178.372 81.5265C180.332 89.3862 178 94.7236 172.23 96.1629ZM171.328 92.5481C174.346 91.7954 175.467 88.3806 174.027 82.6101C172.596 76.8728 169.953 74.3264 166.969 75.0709C163.984 75.8154 162.846 79.3048 164.277 85.0421C165.717 90.8125 168.31 93.3009 171.328 92.5481Z" fill="white"/>
<defs>
<filter id="filter0_i_3435_747" x="0" y="98" width="378" height="338" filterUnits="userSpaceOnUse" color-interpolation-filters="sRGB">
<feFlood flood-opacity="0" result="BackgroundImageFix"/>
<feBlend mode="normal" in="SourceGraphic" in2="BackgroundImageFix" result="shape"/>
<feColorMatrix in="SourceAlpha" type="matrix" values="0 0 0 0 0 0 0 0 0 0 0 0 0 0 0 0 0 0 127 0" result="hardAlpha"/>
<feOffset dx="4" dy="4"/>
<feGaussianBlur stdDeviation="1"/>
<feComposite in2="hardAlpha" operator="arithmetic" k2="-1" k3="1"/>
<feColorMatrix type="matrix" values="0 0 0 0 1 0 0 0 0 1 0 0 0 0 1 0 0 0 0.25 0"/>
<feBlend mode="normal" in2="shape" result="effect1_innerShadow_3435_747"/>
</filter>
<linearGradient id="paint0_linear_3435_747" x1="-17.3604" y1="91.8429" x2="217.127" y2="528.175" gradientUnits="userSpaceOnUse">
<stop stop-color="#69A5F9"/>
<stop offset="1" stop-color="#1A3E80"/>
</linearGradient>
<linearGradient id="paint1_linear_3435_747" x1="30.7162" y1="278.162" x2="467.739" y2="278.159" gradientUnits="userSpaceOnUse">
<stop stop-color="#69A5F9"/>
<stop offset="1" stop-color="#1A3E80"/>
</linearGradient>
<linearGradient id="paint2_linear_3435_747" x1="243.191" y1="211.019" x2="-89.3691" y2="211.019" gradientUnits="userSpaceOnUse">
<stop stop-color="#69A5F9"/>
<stop offset="1" stop-color="#1A3E80"/>
</linearGradient>
<linearGradient id="paint3_linear_3435_747" x1="205" y1="133.881" x2="171.404" y2="8.49999" gradientUnits="userSpaceOnUse">
<stop stop-color="#69A5F9"/>
<stop offset="1" stop-color="#1A3E80"/>
</linearGradient>
</defs>
</svg>
