<svg width="376" height="439" viewBox="0 0 376 439" fill="none" xmlns="http://www.w3.org/2000/svg">
<g filter="url(#filter0_i_3435_727)">
<rect y="103" width="376" height="336" rx="15" fill="white"/>
</g>
<rect x="2" y="105" width="372" height="332" rx="13" stroke="url(#paint0_linear_3435_727)" stroke-width="4"/>
<path d="M63.7812 192.893V196.018H37.7812V192.893H63.7812ZM60.5938 197.893V206.549H56.5625V201.049H40.7188V197.893H60.5938ZM61 188.08V191.111H41.0312V178.736H60.75V181.83H45.0312V183.424H60.0938V186.361H45.0312V188.08H61ZM88.0625 178.111V184.799H91.9062V188.049H88.0625V194.611H84.0625V178.111H88.0625ZM80.125 179.986C80.1562 187.58 75.375 192.893 66.9062 195.236L65.3125 192.018C71.5781 190.346 75.1719 187.127 75.7812 183.174H66.6562V179.986H80.125ZM78.7812 194.955C84.5625 194.955 88.375 197.205 88.375 200.768C88.375 204.361 84.5625 206.58 78.7812 206.58C73 206.58 69.125 204.361 69.1562 200.768C69.125 197.205 73 194.955 78.7812 194.955ZM78.7812 198.049C75.1875 198.049 73.0625 199.018 73.0938 200.768C73.0625 202.486 75.1875 203.486 78.7812 203.455C82.3125 203.486 84.4375 202.486 84.4375 200.768C84.4375 199.018 82.3125 198.049 78.7812 198.049ZM107.656 180.455V194.111H94V180.455H107.656ZM97.9375 183.643V190.986H103.719V183.643H97.9375ZM115.719 178.111V186.299H119.562V189.58H115.719V198.861H111.719V178.111H115.719ZM116.75 202.861V206.049H97.2812V196.83H101.25V202.861H116.75ZM150.75 178.111V185.861H154.594V189.143H150.75V198.674H146.75V178.111H150.75ZM142.125 180.393V183.58H133.281V190.768C138.422 190.736 141.25 190.58 144.438 189.893L144.844 193.08C141.281 193.83 138 193.986 131.688 193.986H129.281V180.393H142.125ZM151.781 202.861V206.049H132.312V196.486H136.281V202.861H151.781ZM181.781 191.893V195.049H155.844V191.893H166.812V189.361H159V179.236H178.719V182.393H162.969V186.143H179V189.361H170.812V191.893H181.781ZM178.688 197.018V206.643H174.781V200.174H158.719V197.018H178.688ZM196.469 179.549C202.469 179.58 207.156 182.799 207.188 187.736C207.156 192.705 202.469 195.955 196.469 195.924C190.438 195.955 185.781 192.705 185.781 187.736C185.781 182.799 190.438 179.58 196.469 179.549ZM196.469 182.799C192.531 182.768 189.656 184.674 189.656 187.736C189.656 190.83 192.531 192.674 196.469 192.674C200.406 192.674 203.219 190.83 203.25 187.736C203.219 184.674 200.406 182.768 196.469 182.799ZM209.531 199.861V203.08H183.5V199.861H209.531ZM237.188 200.111V203.393H211.156V200.111H222.125V195.83H214.156V186.268H230.25V183.143H214.125V179.955H234.188V189.393H218.156V192.58H234.844V195.83H226.094V200.111H237.188ZM63.8438 236.111V239.361H37.8438V236.111H63.8438ZM60.875 230.955V234.111H41V223.861H60.7188V227.08H44.9688V230.955H60.875ZM50.7812 241.08C56.9375 241.08 60.6562 242.955 60.6875 246.299C60.6562 249.674 56.9375 251.549 50.7812 251.549C44.5625 251.549 40.8125 249.674 40.8125 246.299C40.8125 242.955 44.5625 241.08 50.7812 241.08ZM50.7812 244.111C46.8438 244.111 44.8438 244.861 44.875 246.299C44.8438 247.799 46.8438 248.518 50.7812 248.518C54.625 248.518 56.6562 247.799 56.6875 246.299C56.6562 244.861 54.625 244.111 50.7812 244.111ZM91.5 238.361V241.549H65.4688V238.361H76.5V236.299H68.7188V228.486H84.3438V226.736H68.6562V223.643H88.3438V231.361H72.6875V233.236H88.875V236.299H80.4688V238.361H91.5ZM88.5 243.174V251.424H84.4688V246.299H68.375V243.174H88.5ZM115.594 223.111V234.236H119.781V237.518H115.594V251.549H111.656V223.111H115.594ZM109.719 227.361V230.549H93V227.361H99.4375V223.549H103.438V227.361H109.719ZM101.438 232.143C105.594 232.143 108.688 234.955 108.688 238.924C108.688 242.893 105.594 245.705 101.438 245.705C97.25 245.705 94.1562 242.893 94.1562 238.924C94.1562 234.955 97.25 232.143 101.438 232.143ZM101.438 235.361C99.4375 235.393 97.9688 236.736 97.9688 238.924C97.9688 241.143 99.4375 242.455 101.438 242.424C103.438 242.455 104.875 241.143 104.875 238.924C104.875 236.736 103.438 235.393 101.438 235.361ZM135.5 225.424V227.58H140.812V223.143H144.781V243.83H140.812V236.861H135.5V239.268H122V225.424H135.5ZM125.969 228.58V236.174H131.594V228.58H125.969ZM145.375 247.861V251.049H125.844V241.861H129.875V247.861H145.375ZM135.5 233.705H140.812V230.799H135.5V233.705Z" fill="url(#paint1_linear_3435_727)"/>
<path d="M37.9219 323.043C36.8281 323.043 35.9297 322.145 35.9297 321.031C35.9297 319.938 36.8281 319.039 37.9219 319.039C39.0352 319.039 39.9336 319.938 39.9336 321.031C39.9336 322.145 39.0352 323.043 37.9219 323.043ZM68.0781 310.895V319.742H66.5547V316.051H62.9414C62.6094 318.053 60.832 319.391 58.4883 319.391C55.8711 319.391 53.9766 317.77 53.9766 315.426C53.9766 313.121 55.8711 311.52 58.4883 311.52C60.8125 311.52 62.5801 312.818 62.9219 314.762H66.5547V310.895H68.0781ZM58.4883 312.789C56.7109 312.77 55.4414 313.883 55.4414 315.426C55.4414 317.008 56.7109 318.121 58.4883 318.121C60.207 318.121 61.4961 317.008 61.4961 315.426C61.4961 313.883 60.207 312.77 58.4883 312.789ZM68.0781 320.699V324.859H58.3906V326.793H68.7422V328.023H56.8672V323.688H66.5547V321.93H56.8281V320.699H68.0781ZM85.3242 310.895V328.297H83.8008V310.895H85.3242ZM80.0508 312.516V318.688H73.5664V322.789C76.4473 322.789 79.0156 322.662 82.1211 322.164L82.2773 323.453C79.0742 323.961 76.4375 324.078 73.4492 324.078H72.0039V317.438H78.5078V313.785H71.9648V312.516H80.0508ZM102.668 310.895V328.297H101.145V318.629H96.9844V323.902H88.9766V312.262H90.5195V316.793H95.4805V312.262H96.9844V317.359H101.145V310.895H102.668ZM90.5195 322.633H95.4805V318.023H90.5195V322.633ZM119.582 319.254V320.523H107.59V312.516H119.406V313.785H109.113V319.254H119.582ZM121.457 324.605V325.895H105.559V324.605H121.457ZM133.098 326.871C130.539 326.871 128.605 325.289 128.508 323.121H130.207C130.344 324.391 131.574 325.328 133.098 325.328C134.934 325.328 136.262 323.98 136.262 322.203C136.262 320.367 134.875 319.02 132.98 319C131.789 318.98 130.871 319.352 130.344 320.27H128.645L129.641 312.535H137.297V314.098H131.105L130.578 318.238H130.715C131.34 317.75 132.297 317.418 133.293 317.418C135.988 317.418 137.98 319.41 137.98 322.164C137.98 324.898 135.91 326.871 133.098 326.871ZM143.41 319.098C141.574 319.098 140.578 317.73 140.578 315.699C140.578 313.707 141.613 312.32 143.41 312.32C145.266 312.32 146.242 313.707 146.242 315.699C146.242 317.73 145.227 319.098 143.41 319.098ZM143.41 317.887C144.367 317.887 144.816 317.027 144.816 315.699C144.816 314.391 144.406 313.512 143.41 313.531C142.473 313.531 142.004 314.391 142.004 315.699C142.004 317.027 142.473 317.887 143.41 317.887ZM152.043 326.871C150.207 326.891 149.191 325.504 149.211 323.492C149.191 321.48 150.246 320.094 152.043 320.094C153.879 320.094 154.855 321.48 154.855 323.492C154.855 325.504 153.84 326.891 152.043 326.871ZM152.043 325.66C152.98 325.66 153.43 324.801 153.43 323.492C153.43 322.164 153.02 321.285 152.043 321.305C151.105 321.324 150.617 322.164 150.617 323.492C150.617 324.801 151.086 325.66 152.043 325.66ZM141.965 326.676L151.691 312.535H153.273L143.547 326.676H141.965ZM175.637 310.836V315.055H178.273V316.324H175.637V320.445H174.113V310.836H175.637ZM175.637 321.344V325.191H166.105V326.891H176.281V328.062H164.602V324.059H174.113V322.496H164.562V321.344H175.637ZM172.453 312.477V313.707H162.102V312.477H166.516V310.719H168.039V312.477H172.453ZM167.277 314.488C169.797 314.488 171.438 315.582 171.457 317.34C171.438 319.098 169.797 320.191 167.277 320.191C164.738 320.191 163.078 319.098 163.098 317.34C163.078 315.582 164.738 314.488 167.277 314.488ZM167.277 315.621C165.637 315.621 164.543 316.305 164.562 317.34C164.543 318.395 165.637 319.039 167.277 319.039C168.918 319.039 169.992 318.395 170.012 317.34C169.992 316.305 168.918 315.621 167.277 315.621ZM193.684 310.914V323.609H192.16V310.914H193.684ZM194.23 326.598V327.887H182.473V322.32H183.996V326.598H194.23ZM184.309 312.125C186.906 312.125 188.859 313.883 188.859 316.383C188.859 318.922 186.906 320.66 184.309 320.66C181.711 320.66 179.758 318.922 179.758 316.383C179.758 313.883 181.711 312.125 184.309 312.125ZM184.309 313.473C182.551 313.473 181.242 314.684 181.262 316.383C181.242 318.121 182.551 319.312 184.309 319.312C186.027 319.312 187.355 318.121 187.355 316.383C187.355 314.684 186.027 313.473 184.309 313.473ZM37.9219 355.043C36.8281 355.043 35.9297 354.145 35.9297 353.031C35.9297 351.938 36.8281 351.039 37.9219 351.039C39.0352 351.039 39.9336 351.938 39.9336 353.031C39.9336 354.145 39.0352 355.043 37.9219 355.043ZM68.0977 342.895V353.246H66.5547V348.695H63.0586V347.426H66.5547V342.895H68.0977ZM62.3359 353.793C65.9492 353.793 68.1562 354.965 68.1562 357.016C68.1562 359.066 65.9492 360.238 62.3359 360.258C58.7227 360.238 56.5156 359.066 56.5156 357.016C56.5156 354.965 58.7227 353.793 62.3359 353.793ZM62.3359 354.984C59.6797 354.984 58.0195 355.746 58.0391 357.016C58.0195 358.266 59.6797 359.027 62.3359 359.027C64.9922 359.027 66.6328 358.266 66.6328 357.016C66.6328 355.746 64.9922 354.984 62.3359 354.984ZM59.7383 346.078C59.7383 348.344 61.4766 350.492 64.0156 351.371L63.2148 352.602C61.2617 351.898 59.748 350.443 59.0156 348.637C58.2539 350.678 56.6426 352.309 54.582 353.09L53.7812 351.859C56.3594 350.922 58.1953 348.578 58.1953 346.098V345.453H54.2695V344.164H63.625V345.453H59.7383V346.078ZM84.6211 344.027V345.355C84.6211 346.918 84.6211 348.852 84.1328 351.605H86.8086V352.875H82.6289V360.258H81.1055V352.875H76.6523V360.258H75.1289V352.875H70.9883V351.605H82.5703C83.1367 348.871 83.1367 346.908 83.1367 345.355V345.297H73.0195V344.027H84.6211ZM109.133 351.156V352.445H93.293V351.156H109.133ZM107.277 348.246V349.496H95.3047V343.598H107.16V344.887H96.8086V348.246H107.277ZM101.203 353.969C104.934 353.969 107.16 355.102 107.18 357.094C107.16 359.105 104.934 360.219 101.203 360.219C97.4531 360.219 95.207 359.105 95.207 357.094C95.207 355.102 97.4531 353.969 101.203 353.969ZM101.203 355.16C98.4102 355.18 96.75 355.883 96.7695 357.094C96.75 358.324 98.4102 359.008 101.203 359.008C103.957 359.008 105.637 358.324 105.637 357.094C105.637 355.883 103.957 355.18 101.203 355.16ZM126.457 352.465V353.734H110.559V352.465H117.746V350.629H112.629V346.391H122.863V344.594H112.57V343.344H124.406V347.543H114.152V349.398H124.777V350.629H119.25V352.465H126.457ZM124.504 355.062V360.102H122.961V356.312H112.336V355.062H124.504ZM136.34 353.09V355.258H139.504V353.09H140.93V360.023H134.895V353.09H136.34ZM136.34 358.812H139.504V356.43H136.34V358.812ZM145.891 354.457C145.871 356.293 146.965 358.207 149.094 358.988L148.293 360.16C146.691 359.516 145.637 358.295 145.109 356.84C144.553 358.266 143.498 359.496 141.965 360.16L141.164 358.988C143.254 358.129 144.367 356.215 144.367 354.457V352.973H145.891V354.457ZM137.668 343.676C139.992 343.676 141.77 344.994 142.102 346.996H145.734V342.895H147.277V352.094H145.734V348.266H142.121C141.809 350.316 140.021 351.664 137.668 351.664C135.031 351.664 133.156 350.043 133.156 347.66C133.156 345.297 135.031 343.676 137.668 343.676ZM137.668 344.965C135.891 344.965 134.621 346.078 134.621 347.66C134.621 349.262 135.891 350.395 137.668 350.395C139.426 350.395 140.676 349.262 140.676 347.66C140.676 346.078 139.426 344.965 137.668 344.965ZM164.484 342.895V360.297H162.941V342.895H164.484ZM155.246 344.242C157.824 344.262 159.68 346.605 159.68 350.297C159.68 353.988 157.824 356.332 155.246 356.332C152.648 356.332 150.812 353.988 150.812 350.297C150.812 346.605 152.648 344.262 155.246 344.242ZM155.246 345.609C153.508 345.629 152.297 347.465 152.297 350.297C152.297 353.129 153.508 354.965 155.246 354.965C156.984 354.965 158.195 353.129 158.195 350.297C158.195 347.465 156.984 345.629 155.246 345.609ZM178.352 348.227C178.332 351.02 180.344 354.086 182.863 355.277L181.984 356.488C180.031 355.541 178.381 353.471 177.609 351.117C176.809 353.676 175.061 355.922 173.117 356.918L172.18 355.707C174.68 354.496 176.828 351.195 176.848 348.227V345.961H172.805V344.691H182.258V345.961H178.352V348.227ZM185.91 342.895V349.926H188.82V351.234H185.91V360.258H184.387V342.895H185.91ZM205.637 352.797V354.066H201.438V360.258H199.895V354.066H195.441V360.258H193.859V354.066H189.738V352.797H205.637ZM197.648 343.598C201.301 343.598 203.762 345.062 203.762 347.387C203.762 349.691 201.301 351.156 197.648 351.137C193.996 351.156 191.535 349.691 191.535 347.387C191.535 345.062 193.996 343.598 197.648 343.598ZM197.648 344.848C194.934 344.848 193.098 345.844 193.117 347.387C193.098 348.93 194.934 349.906 197.648 349.906C200.344 349.906 202.199 348.93 202.199 347.387C202.199 345.844 200.344 344.848 197.648 344.848ZM222.922 351.801V353.051H207.023V351.801H214.211V350.121H209.094V346.078H219.328V344.477H209.035V343.266H220.871V347.23H210.617V348.91H221.242V350.121H215.715V351.801H222.922ZM210.695 353.93V355.629H219.367V353.93H220.871V360.023H209.152V353.93H210.695ZM210.695 358.793H219.367V356.84H210.695V358.793ZM239.191 342.895V360.258H237.727V342.895H239.191ZM235.539 343.363V359.379H234.074V351.273H230.402C229.338 353.295 227.668 355.082 225.246 356.508L224.348 355.395C228.127 353.158 230.021 350.023 230.305 346.391H225.09V345.121H231.828C231.818 346.83 231.545 348.48 230.969 350.023H234.074V343.363H235.539ZM255.344 344.516C255.344 346.957 258.547 349.086 261.672 349.516L261.047 350.766C258.352 350.316 255.686 348.822 254.562 346.684C253.449 348.832 250.773 350.316 248.078 350.766L247.453 349.516C250.578 349.086 253.762 346.996 253.762 344.516V343.52H255.344V344.516ZM262.453 352.68V353.969H255.266V360.258H253.762V353.969H246.633V352.68H262.453ZM277.492 342.895V347.426H280.109V348.695H277.492V353.324H275.969V342.895H277.492ZM272.766 344.184C272.766 348.598 269.641 351.859 264.582 353.344L263.938 352.094C268.127 350.883 270.803 348.471 271.125 345.453H264.699V344.184H272.766ZM272.004 353.52C275.5 353.52 277.688 354.789 277.688 356.859C277.688 358.969 275.5 360.219 272.004 360.219C268.547 360.219 266.301 358.969 266.32 356.859C266.301 354.789 268.547 353.52 272.004 353.52ZM272.004 354.75C269.465 354.73 267.824 355.551 267.844 356.859C267.824 358.168 269.465 358.988 272.004 358.988C274.562 358.988 276.203 358.168 276.203 356.859C276.203 355.551 274.562 354.73 272.004 354.75ZM299.66 342.895V349.965H302.473V351.254H299.66V360.258H298.137V342.895H299.66ZM295.168 344.77C295.168 349.691 292.863 354.164 287.199 356.957L286.34 355.746C290.832 353.51 293.273 350.17 293.625 346.059H287.141V344.77H295.168ZM317.531 347.758V349.027H305.676V343.246H307.199V347.758H317.531ZM319.348 351.059V352.328H303.508V351.059H319.348ZM311.418 353.891C315.148 353.891 317.375 355.023 317.395 357.035C317.375 359.047 315.148 360.18 311.418 360.18C307.668 360.18 305.422 359.047 305.422 357.035C305.422 355.023 307.668 353.891 311.418 353.891ZM311.418 355.102C308.625 355.121 306.965 355.805 306.984 357.035C306.965 358.246 308.625 358.988 311.418 358.988C314.172 358.988 315.852 358.246 315.852 357.035C315.852 355.805 314.172 355.121 311.418 355.102ZM37.9219 387.043C36.8281 387.043 35.9297 386.145 35.9297 385.031C35.9297 383.938 36.8281 383.039 37.9219 383.039C39.0352 383.039 39.9336 383.938 39.9336 385.031C39.9336 386.145 39.0352 387.043 37.9219 387.043ZM68.625 374.895V392.258H67.1406V383.234H64.7773V391.379H63.3125V375.266H64.7773V381.926H67.1406V374.895H68.625ZM58.8398 379.641C58.8398 382.824 60.1484 385.617 62.6289 386.887L61.7109 388.078C59.9531 387.121 58.752 385.402 58.1367 383.273C57.541 385.695 56.3203 387.59 54.4844 388.664L53.5273 387.492C56.0273 386.125 57.3555 383.156 57.3555 379.641V378.254H53.9375V376.965H62.0625V378.254H58.8398V379.641ZM85.3047 374.914V388.098H83.7617V386.301H80.168V385.188H83.7617V374.914H85.3047ZM85.7344 390.598V391.887H73.3906V386.809H74.9336V390.598H85.7344ZM70.8906 382.961C74.1328 382.941 78.4688 382.922 82.1992 382.453L82.2969 383.566C80.7441 383.811 79.123 383.967 77.5312 384.055V387.492H75.9883V384.133C74.2305 384.211 72.5605 384.221 71.1055 384.211L70.8906 382.961ZM76.5938 375.617C79.1328 375.617 80.8711 376.828 80.8906 378.645C80.8711 380.5 79.1328 381.652 76.5938 381.652C74.0352 381.652 72.2969 380.5 72.2969 378.645C72.2969 376.828 74.0352 375.617 76.5938 375.617ZM76.5938 376.789C74.8945 376.77 73.7422 377.531 73.7617 378.645C73.7422 379.777 74.8945 380.52 76.5938 380.52C78.2344 380.52 79.4062 379.777 79.4258 378.645C79.4062 377.531 78.2344 376.77 76.5938 376.789ZM93.4492 378.352C93.4492 380.266 94.7969 382.219 97.0234 383.059L96.2227 384.23C94.5527 383.586 93.3516 382.346 92.7266 380.852C92.082 382.512 90.8418 383.986 89.1328 384.719L88.293 383.527C90.5781 382.531 91.9844 380.285 91.9844 378.352V375.988H93.4492V378.352ZM103.02 374.914V385.637H101.555V380.852H99.25V385.09H97.8047V375.246H99.25V379.582H101.555V374.914H103.02ZM97.2773 386.027C100.871 386.027 103.117 387.16 103.117 389.133C103.117 391.086 100.871 392.219 97.2773 392.219C93.6641 392.219 91.4375 391.086 91.457 389.133C91.4375 387.16 93.6641 386.027 97.2773 386.027ZM97.2773 387.199C94.6211 387.199 92.9609 387.922 92.9805 389.133C92.9609 390.324 94.6211 391.027 97.2773 391.027C99.9141 391.027 101.574 390.324 101.594 389.133C101.574 387.922 99.9141 387.199 97.2773 387.199ZM119.875 374.895V392.297H118.332V374.895H119.875ZM110.637 376.242C113.215 376.262 115.07 378.605 115.07 382.297C115.07 385.988 113.215 388.332 110.637 388.332C108.039 388.332 106.203 385.988 106.203 382.297C106.203 378.605 108.039 376.262 110.637 376.242ZM110.637 377.609C108.898 377.629 107.688 379.465 107.688 382.297C107.688 385.129 108.898 386.965 110.637 386.965C112.375 386.965 113.586 385.129 113.586 382.297C113.586 379.465 112.375 377.629 110.637 377.609ZM132.512 376.242C135.07 376.262 136.887 378.605 136.906 382.297C136.887 385.988 135.07 388.332 132.512 388.332C129.934 388.332 128.137 385.988 128.137 382.297C128.137 378.605 129.934 376.262 132.512 376.242ZM132.512 377.609C130.793 377.629 129.582 379.465 129.582 382.297C129.582 385.129 130.793 386.965 132.512 386.965C134.25 386.965 135.422 385.129 135.422 382.297C135.422 379.465 134.25 377.629 132.512 377.609ZM141.301 374.895V381.828H144.211V383.156H141.301V392.258H139.777V374.895H141.301ZM159.484 374.914V387.531H157.961V374.914H159.484ZM160.031 390.598V391.887H148.098V386.262H149.641V390.598H160.031ZM147.785 376.203V382.863C150.852 382.883 153.332 382.717 156.027 382.121L156.242 383.41C153.391 383.996 150.832 384.191 147.648 384.191H146.242V376.203H147.785ZM181.848 374.914V385.344H180.305V383H175.695V381.73H180.305V379.387H175.871C174.729 382.18 172.043 384.201 168.332 385.305L167.688 384.094C171.887 382.844 174.494 380.5 174.816 377.492H168.566V376.203H176.477C176.477 376.887 176.398 377.541 176.262 378.156H180.305V374.914H181.848ZM176.164 385.52C179.68 385.52 181.945 386.77 181.945 388.84C181.945 390.93 179.68 392.18 176.164 392.18C172.609 392.18 170.363 390.93 170.363 388.84C170.363 386.77 172.609 385.52 176.164 385.52ZM176.164 386.75C173.547 386.73 171.867 387.531 171.867 388.84C171.867 390.148 173.547 390.93 176.164 390.93C178.742 390.93 180.402 390.148 180.422 388.84C180.402 387.531 178.742 386.73 176.164 386.75ZM200.617 384.855V386.145H193.371V392.258H191.867V386.145H184.719V384.855H200.617ZM192.629 375.598C196.281 375.598 198.742 377.062 198.742 379.426C198.742 381.73 196.281 383.195 192.629 383.195C188.977 383.195 186.516 381.73 186.516 379.426C186.516 377.062 188.977 375.598 192.629 375.598ZM192.629 376.848C189.914 376.848 188.078 377.863 188.098 379.426C188.078 380.969 189.914 381.965 192.629 381.965C195.324 381.965 197.18 380.969 197.18 379.426C197.18 377.863 195.324 376.848 192.629 376.848ZM216.906 374.895V392.258H215.422V374.895H216.906ZM213.41 375.266V391.379H211.945V382.941H209.719C209.553 386.32 208.117 388.43 205.969 388.43C203.703 388.43 202.238 386.086 202.238 382.395C202.238 378.703 203.703 376.359 205.969 376.359C208.078 376.359 209.504 378.4 209.699 381.672H211.945V375.266H213.41ZM205.969 377.805C204.562 377.805 203.664 379.562 203.684 382.395C203.664 385.207 204.562 386.984 205.969 386.965C207.375 386.984 208.273 385.207 208.273 382.395C208.273 379.562 207.375 377.805 205.969 377.805ZM228.078 376.477V384.465H220.051V376.477H228.078ZM221.555 377.727V383.234H226.594V377.727H221.555ZM232.883 374.895V380.188H235.5V381.477H232.883V387.629H231.359V374.895H232.883ZM233.684 390.598V391.887H222.023V386.418H223.527V390.598H233.684ZM250.285 377.902V379.152H241.574V377.902H245.188V375.422H246.711V377.902H250.285ZM245.93 380.324C248.117 380.324 249.68 381.965 249.699 384.27C249.68 386.594 248.117 388.254 245.93 388.254C243.762 388.254 242.199 386.594 242.199 384.27C242.199 381.965 243.762 380.324 245.93 380.324ZM245.93 381.613C244.562 381.633 243.566 382.746 243.566 384.27C243.566 385.812 244.562 386.926 245.93 386.906C247.316 386.926 248.332 385.812 248.332 384.27C248.332 382.746 247.316 381.633 245.93 381.613ZM256.398 374.895V392.258H254.934V383.488H252.629V391.398H251.184V375.324H252.629V382.219H254.934V374.895H256.398ZM272.492 374.895V379.426H275.09V380.715H272.492V385.266H270.949V374.895H272.492ZM266.906 385.598C270.441 385.598 272.629 386.828 272.629 388.898C272.629 391.008 270.441 392.219 266.906 392.219C263.352 392.219 261.145 391.008 261.145 388.898C261.145 386.828 263.352 385.598 266.906 385.598ZM266.906 386.867C264.289 386.848 262.648 387.629 262.648 388.898C262.648 390.188 264.289 390.988 266.906 390.988C269.504 390.988 271.145 390.188 271.145 388.898C271.145 387.629 269.504 386.848 266.906 386.867ZM267.414 376.223V377.492H261.203V382.59C264.719 382.57 266.75 382.463 269.074 381.984L269.23 383.254C266.809 383.742 264.719 383.84 261.047 383.84H259.699V376.223H267.414Z" fill="black"/>
<path d="M31 280H345" stroke="url(#paint2_linear_3435_727)"/>
<path d="M66.2695 61.2382C68.9361 55.8049 73.9197 51.8714 79.8238 50.5399L277.625 5.93166C283.012 4.71665 288.365 8.09916 289.58 13.4867L308.26 96.3193C309.475 101.707 306.093 107.059 300.705 108.274L102.002 153.086C96.6194 154.3 90.9746 153.236 86.4031 150.147L45.7308 122.66C41.5955 119.865 40.154 114.449 42.353 109.969L66.2695 61.2382Z" fill="url(#paint3_linear_3435_727)"/>
<circle cx="55.8295" cy="111.817" r="6.07254" transform="rotate(-12.7088 55.8295 111.817)" fill="white"/>
<path d="M267.883 46.9599L272.139 65.83L268.445 66.6629L264.19 47.7928L267.883 46.9599ZM273.723 69.6267L274.386 72.5697L256.093 76.6952L254.109 67.8949L257.831 67.0555L259.152 72.9128L273.723 69.6267ZM253.863 51.8804C257.902 50.9694 261.672 53.0301 262.537 56.8676C263.422 60.7916 260.895 64.2419 256.856 65.1529C252.816 66.0639 249.053 64.0321 248.168 60.1081C247.303 56.2706 249.823 52.7914 253.863 51.8804ZM254.585 55.0831C252.53 55.5163 251.265 57.166 251.775 59.2947C252.241 61.494 254.085 62.4122 256.134 61.9502C258.125 61.5012 259.396 59.8803 258.902 57.6874C258.42 55.5523 256.569 54.6053 254.585 55.0831Z" fill="white"/>
<path d="M241.174 52.8919L242.462 58.6049L246.011 57.8045L246.675 60.7476L243.126 61.5479L244.382 67.1166L240.688 67.9495L237.48 53.7248L241.174 52.8919ZM244.622 68.1842L246.119 74.8205L232.356 77.9243L232.694 79.4247L247.207 76.1517L247.819 78.8639L229.699 82.9503L228.183 76.2275L241.888 73.1366L241.557 71.6651L227.794 74.769L227.195 72.1145L244.622 68.1842ZM236.378 56.096L237.009 58.8947L221.428 62.4085L220.797 59.6098L226.77 58.2628L226.288 56.1277L229.952 55.3013L230.434 57.4364L236.378 56.096ZM229.362 61.2864C233.286 60.4014 236.202 61.5023 236.794 64.128C237.4 66.8113 235.225 68.9997 231.301 69.8847C227.377 70.7697 224.416 69.7395 223.81 67.0561C223.218 64.4305 225.438 62.1714 229.362 61.2864ZM229.947 63.8832C228.13 64.2931 227.141 65.1528 227.417 66.2428C227.642 67.3745 228.891 67.669 230.709 67.259C232.526 66.8491 233.557 66.0406 233.303 64.9153C233.056 63.8189 231.765 63.4733 229.947 63.8832Z" fill="white"/>
<path d="M195.112 79.9495L198.998 79.0441L200.373 84.946L196.487 85.8514L195.112 79.9495ZM203.704 63.2849L207.59 62.3795L212.369 82.8901L208.483 83.7955L203.704 63.2849ZM193.576 90.411L213.677 85.7273L214.406 88.8536L194.304 93.5373L193.576 90.411ZM192.425 85.4733L196.311 84.5679L197.659 90.3529L193.773 91.2583L192.425 85.4733ZM188.722 82.6704L187.504 79.6891C189.155 79.2838 190.952 78.8445 192.896 78.3712C194.834 77.8784 196.803 77.3376 198.802 76.7487C200.8 76.1598 202.707 75.5307 204.522 74.8612L205.432 77.5756C203.581 78.356 201.673 79.0677 199.707 79.7104C197.757 80.3292 195.841 80.8782 193.961 81.3573C192.081 81.8365 190.335 82.2742 188.722 82.6704ZM202.283 80.1884L208.243 78.7996L208.863 81.4584L202.902 82.8472L202.283 80.1884ZM193.638 66.6162C194.962 66.3076 196.178 66.2398 197.287 66.4128C198.395 66.5859 199.315 66.9669 200.048 67.556C200.8 68.1406 201.29 68.9198 201.517 69.8937C201.739 70.8481 201.644 71.7635 201.233 72.6398C200.836 73.4922 200.176 74.2311 199.254 74.8567C198.332 75.4822 197.209 75.9493 195.884 76.2579C194.56 76.5666 193.336 76.6464 192.213 76.4973C191.109 76.3438 190.191 75.9724 189.458 75.3834C188.721 74.7748 188.241 73.9933 188.018 73.0389C187.791 72.065 187.876 71.1519 188.273 70.2995C188.67 69.4472 189.328 68.6986 190.245 68.0535C191.182 67.4039 192.313 66.9248 193.638 66.6162ZM194.298 69.4503C193.402 69.6591 192.7 69.9971 192.193 70.4644C191.705 70.9271 191.541 71.4994 191.7 72.1811C191.85 72.8239 192.248 73.2548 192.894 73.4738C193.556 73.6687 194.335 73.6618 195.231 73.4531C196.146 73.2398 196.838 72.904 197.306 72.4458C197.789 71.9636 197.956 71.4011 197.806 70.7583C197.702 70.3103 197.489 69.9697 197.168 69.7365C196.846 69.5034 196.444 69.361 195.959 69.3096C195.475 69.2582 194.921 69.3051 194.298 69.4503Z" fill="white"/>
<path d="M179.384 95.2581C177.598 95.667 175.96 95.5855 174.47 95.0138C172.988 94.4404 171.708 93.4077 170.631 91.9157C169.561 90.4221 168.759 88.5124 168.224 86.1867C167.684 83.8695 167.566 81.8149 167.871 80.023C168.182 78.2294 168.878 76.7581 169.96 75.6092C171.047 74.4517 172.479 73.6659 174.256 73.2517C176.034 72.8375 177.663 72.9101 179.142 73.4697C180.629 74.0276 181.908 75.0422 182.98 76.5134C184.05 77.9778 184.852 79.8693 185.385 82.1881C185.928 84.5192 186.046 86.5918 185.74 88.4062C185.44 90.2189 184.752 91.7101 183.676 92.8798C182.599 94.0495 181.169 94.8422 179.384 95.2581ZM178.516 91.5333C179.733 91.2496 180.563 90.411 181.004 89.0175C181.445 87.6239 181.376 85.7037 180.799 83.2567C180.424 81.645 179.945 80.3418 179.363 79.347C178.788 78.3506 178.137 77.6528 177.409 77.2535C176.689 76.8526 175.924 76.7464 175.115 76.935C173.904 77.217 173.077 78.0479 172.633 79.4276C172.188 80.8073 172.244 82.7049 172.8 85.1206C173.18 86.753 173.66 88.0778 174.24 89.0949C174.825 90.1035 175.482 90.8109 176.211 91.2172C176.938 91.6165 177.707 91.7218 178.516 91.5333Z" fill="white"/>
<path d="M159.268 99.9446C157.482 100.353 155.844 100.272 154.355 99.7003C152.872 99.1269 151.592 98.0942 150.515 96.6022C149.445 95.1086 148.643 93.199 148.108 90.8732C147.568 88.556 147.451 86.5015 147.755 84.7095C148.066 82.9159 148.763 81.4447 149.844 80.2957C150.931 79.1382 152.363 78.3524 154.141 77.9382C155.918 77.524 157.547 77.5967 159.026 78.1562C160.513 78.7141 161.792 79.7287 162.864 81.2C163.935 82.6643 164.736 84.5558 165.269 86.8746C165.812 89.2057 165.931 91.2784 165.624 93.0927C165.325 94.9054 164.637 96.3966 163.56 97.5663C162.483 98.736 161.053 99.5288 159.268 99.9446ZM158.4 96.2198C159.618 95.9361 160.447 95.0975 160.888 93.704C161.329 92.3105 161.261 90.3902 160.683 87.9432C160.308 86.3315 159.829 85.0283 159.247 84.0335C158.672 83.0372 158.021 82.3393 157.294 81.94C156.573 81.5391 155.808 81.4329 154.999 81.6215C153.788 81.9035 152.961 82.7344 152.517 84.1141C152.073 85.4938 152.128 87.3915 152.684 89.8071C153.064 91.4395 153.544 92.7643 154.124 93.7814C154.709 94.79 155.366 95.4974 156.095 95.9037C156.823 96.303 157.591 96.4084 158.4 96.2198Z" fill="white"/>
<path d="M139.153 104.632C137.367 105.041 135.729 104.96 134.239 104.388C132.757 103.814 131.477 102.782 130.4 101.29C129.33 99.7961 128.528 97.8865 127.993 95.5607C127.453 93.2435 127.335 91.189 127.64 89.397C127.951 87.6034 128.647 86.1322 129.729 84.9832C130.816 83.8257 132.248 83.0399 134.025 82.6257C135.803 82.2115 137.432 82.2842 138.911 82.8437C140.398 83.4016 141.677 84.4162 142.749 85.8875C143.819 87.3518 144.621 89.2433 145.154 91.5621C145.697 93.8932 145.816 95.9659 145.509 97.7802C145.209 99.5929 144.521 101.084 143.445 102.254C142.368 103.424 140.938 104.216 139.153 104.632ZM138.285 100.907C139.503 100.624 140.332 99.785 140.773 98.3915C141.214 96.998 141.146 95.0777 140.568 92.6307C140.193 91.019 139.714 89.7158 139.132 88.721C138.557 87.7247 137.906 87.0268 137.178 86.6275C136.458 86.2266 135.693 86.1204 134.884 86.309C133.673 86.591 132.846 87.4219 132.402 88.8016C131.957 90.1813 132.013 92.079 132.569 94.4946C132.949 96.127 133.429 97.4518 134.009 98.4689C134.594 99.4775 135.251 100.185 135.98 100.591C136.707 100.99 137.476 101.096 138.285 100.907Z" fill="white"/>
<path d="M126.892 103.933L127.044 105.101C127.166 106.035 127.205 106.985 127.161 107.951C127.124 108.922 127.054 109.81 126.95 110.614C126.853 111.417 126.77 112.049 126.702 112.51L123.839 113.177C123.847 112.745 123.856 112.141 123.865 111.366C123.876 110.598 123.855 109.742 123.803 108.799C123.751 107.856 123.636 106.909 123.459 105.958L123.24 104.784L126.892 103.933Z" fill="white"/>
<path d="M111.904 110.981C110.118 111.39 108.48 111.308 106.99 110.736C105.508 110.163 104.228 109.13 103.151 107.638C102.081 106.145 101.279 104.235 100.744 101.909C100.204 99.5922 100.086 97.5376 100.391 95.7456C100.702 93.9521 101.398 92.4808 102.48 91.3318C103.567 90.1744 104.999 89.3885 106.776 88.9743C108.554 88.5601 110.183 88.6328 111.662 89.1923C113.149 89.7503 114.428 90.7648 115.5 92.2361C116.57 93.7004 117.372 95.592 117.905 97.9108C118.448 100.242 118.566 102.314 118.26 104.129C117.96 105.942 117.272 107.433 116.196 108.602C115.119 109.772 113.689 110.565 111.904 110.981ZM111.036 107.256C112.254 106.972 113.083 106.134 113.524 104.74C113.965 103.347 113.897 101.426 113.319 98.9793C112.944 97.3677 112.465 96.0645 111.883 95.0697C111.308 94.0733 110.657 93.3755 109.929 92.9761C109.209 92.5752 108.444 92.469 107.635 92.6576C106.424 92.9397 105.597 93.7705 105.153 95.1502C104.708 96.5299 104.764 98.4276 105.32 100.843C105.7 102.476 106.18 103.8 106.76 104.818C107.345 105.826 108.002 106.534 108.731 106.94C109.458 107.339 110.227 107.444 111.036 107.256Z" fill="white"/>
<path d="M92.4609 115.325C90.9945 115.667 89.6244 115.702 88.3504 115.43C87.0834 115.156 86.004 114.624 85.1123 113.832C84.2205 113.041 83.6182 112.037 83.3053 110.819L87.663 109.803C87.9032 110.615 88.4045 111.202 89.1671 111.564C89.9296 111.926 90.7536 112.004 91.639 111.798C92.3445 111.633 92.9308 111.333 93.3978 110.896C93.8701 110.45 94.1931 109.912 94.3669 109.281C94.546 108.641 94.5502 107.954 94.3793 107.221C94.2053 106.474 93.8931 105.854 93.4427 105.361C92.9993 104.866 92.4638 104.524 91.8363 104.335C91.2088 104.146 90.5381 104.131 89.824 104.29C89.2015 104.435 88.6261 104.704 88.0977 105.097C87.5764 105.488 87.2047 105.943 86.9827 106.461L82.8214 106.676L81.2168 95.2363L94.207 92.2095L95.0628 95.8825L85.7767 98.0461L86.467 103.497L86.5915 103.468C86.8425 102.855 87.3047 102.288 87.9781 101.767C88.6515 101.245 89.455 100.875 90.3888 100.658C91.6685 100.36 92.8799 100.395 94.0231 100.763C95.1663 101.131 96.1508 101.773 96.9768 102.689C97.8012 103.598 98.3687 104.735 98.6793 106.099C99.0198 107.529 98.9844 108.879 98.5729 110.149C98.1668 111.411 97.4395 112.499 96.3911 113.414C95.3481 114.321 94.038 114.958 92.4609 115.325Z" fill="white"/>
<defs>
<filter id="filter0_i_3435_727" x="0" y="103" width="378" height="338" filterUnits="userSpaceOnUse" color-interpolation-filters="sRGB">
<feFlood flood-opacity="0" result="BackgroundImageFix"/>
<feBlend mode="normal" in="SourceGraphic" in2="BackgroundImageFix" result="shape"/>
<feColorMatrix in="SourceAlpha" type="matrix" values="0 0 0 0 0 0 0 0 0 0 0 0 0 0 0 0 0 0 127 0" result="hardAlpha"/>
<feOffset dx="4" dy="4"/>
<feGaussianBlur stdDeviation="1"/>
<feComposite in2="hardAlpha" operator="arithmetic" k2="-1" k3="1"/>
<feColorMatrix type="matrix" values="0 0 0 0 1 0 0 0 0 1 0 0 0 0 1 0 0 0 0.25 0"/>
<feBlend mode="normal" in2="shape" result="effect1_innerShadow_3435_727"/>
</filter>
<linearGradient id="paint0_linear_3435_727" x1="-17.3604" y1="96.8429" x2="217.127" y2="533.175" gradientUnits="userSpaceOnUse">
<stop stop-color="#69A5F9"/>
<stop offset="1" stop-color="#1A3E80"/>
</linearGradient>
<linearGradient id="paint1_linear_3435_727" x1="272.876" y1="215.03" x2="-111.288" y2="215.03" gradientUnits="userSpaceOnUse">
<stop stop-color="#69A5F9"/>
<stop offset="1" stop-color="#1A3E80"/>
</linearGradient>
<linearGradient id="paint2_linear_3435_727" x1="30.7162" y1="280.5" x2="467.739" y2="280.496" gradientUnits="userSpaceOnUse">
<stop stop-color="#69A5F9"/>
<stop offset="1" stop-color="#1A3E80"/>
</linearGradient>
<linearGradient id="paint3_linear_3435_727" x1="210.486" y1="128.622" x2="183.505" y2="26.6493" gradientUnits="userSpaceOnUse">
<stop stop-color="#94AFFF"/>
<stop offset="1" stop-color="#1A3E80"/>
</linearGradient>
</defs>
</svg>
