<svg width="80" height="80" viewBox="0 0 80 80" fill="none" xmlns="http://www.w3.org/2000/svg">
<ellipse cx="39.9999" cy="40" rx="39.9999" ry="40" fill="#CCE0FF"/>
<g filter="url(#filter0_i_2556_7692)">
<ellipse cx="39.9987" cy="40.0002" rx="37.6354" ry="37.6355" fill="#CCE0FF"/>
</g>
<g filter="url(#filter1_d_2556_7692)">
<path d="M34.7663 22.1281C33.6889 22.16 32.7419 22.9089 32.5293 23.966C32.2825 25.1942 33.1161 26.3819 34.3901 26.6196C34.4994 26.6399 34.6098 26.6582 34.7211 26.6631C36.4054 26.809 38.0856 27.0457 39.7388 27.3975C40.2474 27.5057 40.748 27.6439 41.2515 27.7772C42.0902 28.9349 42.8806 30.1264 43.5788 31.3672C43.637 31.4696 43.6831 31.5769 43.7393 31.6802L42.2095 32.7616C42.2045 32.7654 42.1985 32.7674 42.1935 32.7712L33.1813 39.1432C32.8252 39.3954 32.5463 39.7075 32.3387 40.0525C32.2534 40.182 32.1762 40.3183 32.115 40.4661C32.1019 40.4961 32.0919 40.528 32.0819 40.557C31.0216 43.4202 29.8369 46.2361 28.5529 49.0143C25.728 50.2338 22.8581 51.3528 19.946 52.3684C19.8737 52.3887 19.8025 52.4148 19.7333 52.4428C18.4062 52.9733 17.7772 54.4392 18.3289 55.7177C18.8806 56.9962 20.4024 57.603 21.7305 57.0706C21.7606 57.058 21.7917 57.0483 21.8208 57.0348C25.1292 55.8781 28.3954 54.5968 31.5974 53.1869C32.3066 52.8902 32.8001 52.3172 33.0238 51.6562C33.9126 49.7574 34.7492 47.8334 35.5417 45.894L37.7887 46.5656C37.8058 46.5714 37.8228 46.5714 37.8399 46.5753C38.5692 46.783 39.2954 46.9985 40.0207 47.2188V47.2546L40.0578 47.2285C41.401 47.6382 42.7322 48.0769 44.0603 48.5311C42.6128 50.1391 41.1231 51.7152 39.5893 53.2497C39.5342 53.3009 39.483 53.3531 39.4329 53.4082C38.4859 54.4479 38.5922 56.0298 39.6716 56.943C40.752 57.8562 42.3981 57.7528 43.3451 56.7111C43.3661 56.6869 43.3882 56.6657 43.4083 56.6415C45.8479 54.1977 48.1932 51.6601 50.4202 49.0336C50.4804 48.966 50.5245 48.8906 50.5747 48.8181C50.6138 48.7621 50.6569 48.7108 50.692 48.6519C51.2919 47.6401 51.0933 46.325 50.1554 45.5287H50.1534C49.8735 45.292 49.5515 45.1277 49.2164 45.0262C49.1974 45.0195 49.1793 45.0137 49.1592 45.0088C47.8411 44.5199 46.512 44.058 45.1778 43.6086L45.7085 43.2327L48.6045 41.1851L49.5154 40.5415C50.4322 41.9388 51.4293 43.2878 52.5067 44.5749C52.7886 44.9692 53.1798 45.2475 53.6142 45.405C53.6392 45.4147 53.6673 45.4195 53.6924 45.4273C53.7997 45.463 53.9101 45.4959 54.0214 45.5162C54.1218 45.5355 54.2231 45.5403 54.3254 45.5461C54.3645 45.548 54.4036 45.5558 54.4428 45.5558C55.0306 45.5606 55.6194 45.3557 56.0769 44.9383C56.7309 44.3798 57.3779 43.8087 57.9969 43.2076C59.308 41.9349 60.5288 40.5782 61.6643 39.1577C62.52 38.2426 62.4558 36.8356 61.5249 35.991C60.5789 35.1339 59.0913 35.1764 58.2015 36.0877C58.1253 36.166 58.051 36.2452 57.9858 36.3331C56.9827 37.5932 55.9033 38.8031 54.7457 39.9366C54.2281 39.2456 53.7325 38.5393 53.2681 37.8155C52.8668 37.1903 52.4977 36.5467 52.1376 35.8963C52.0904 35.8016 52.0362 35.7127 51.9771 35.6248C51.971 35.6151 51.962 35.6074 51.956 35.5987C51.8938 35.4924 51.8386 35.3842 51.7624 35.2837L48.9877 31.6426C48.9596 31.6049 48.9235 31.5778 48.8934 31.5421C48.8834 31.5218 48.8794 31.5015 48.8703 31.4812C48.5042 30.7159 48.124 29.9544 47.7047 29.2103C46.8169 27.6342 45.8228 26.1171 44.7384 24.6599C44.7284 24.6434 44.7134 24.6318 44.7033 24.6164C44.6582 24.5478 44.604 24.4859 44.5529 24.4221C44.5157 24.3787 44.4846 24.3284 44.4455 24.2878C44.1456 23.9718 43.7544 23.7322 43.2939 23.6201C42.4533 23.3862 41.6066 23.1621 40.749 22.9804C38.9313 22.5948 37.0895 22.3262 35.2357 22.1609C35.0772 22.1339 34.9198 22.1233 34.7663 22.1281ZM54.6765 22.2286C53.9863 22.275 53.3283 22.5581 52.7725 22.9572C52.2168 23.3563 51.7574 23.8684 51.3521 24.4125C50.7924 25.1604 50.351 25.9828 49.9979 26.8399V26.8418C49.9587 26.923 49.9216 27.0042 49.8865 27.0873C49.8705 27.1269 49.8514 27.1636 49.8354 27.2023C49.8374 27.2023 49.8374 27.2032 49.8394 27.2042C49.0439 29.1939 49.5023 31.4464 51.0211 32.9983C51.317 33.3008 51.646 33.5694 52.0041 33.8004L52.0061 33.8062C52.2318 33.9666 52.4556 34.1318 52.6582 34.3193C52.7364 34.3947 52.8568 34.4971 52.9421 34.5647C53.548 35.1832 54.5501 35.2692 55.2523 34.7532C55.3877 34.6614 55.5241 34.5705 55.6616 34.4836C55.9394 34.3087 56.2143 34.126 56.4751 33.9289C56.5704 33.8564 56.6637 33.781 56.757 33.7028C56.8142 33.6564 56.8924 33.6516 56.9526 33.6931C57.0128 33.7347 57.076 33.7714 57.1392 33.8062C57.2315 33.8574 57.3238 33.9038 57.4191 33.9328C57.5164 33.9618 57.6167 33.9724 57.719 33.9569C57.8033 33.9444 57.8815 33.9154 57.9407 33.8584C57.9999 33.8023 58.03 33.7347 58.0601 33.6583C58.1734 33.3733 58.2466 33.0747 58.2968 32.7732C58.3259 32.605 58.346 32.435 58.365 32.2658C58.3941 32.0803 58.4904 31.9083 58.6339 31.7788C58.6439 31.7711 58.6539 31.7663 58.6629 31.7585C59.0823 31.4213 59.4574 31.0338 59.7774 30.6096C60.0934 30.1911 60.3502 29.736 60.5529 29.2567C60.611 29.1417 60.6963 29.0364 60.7916 28.9494C60.8759 28.8731 60.9742 28.8103 61.0775 28.7648C61.1367 28.7407 61.1929 28.7156 61.254 28.6933C61.2811 28.6827 61.3152 28.675 61.3423 28.6653C61.4286 28.6421 61.5048 28.5977 61.57 28.5387C61.7937 28.3367 61.8028 28.0005 61.5931 27.7859C61.562 27.7521 61.5269 27.7173 61.4878 27.6932C61.4687 27.6796 61.4487 27.669 61.4306 27.6536C60.8217 27.1385 60.3512 26.4901 59.9419 25.8195C59.5266 25.1382 59.1695 24.4221 58.682 23.7921C58.5606 23.6346 58.4272 23.4829 58.2858 23.3389H58.2838C57.8604 22.9069 57.3539 22.5591 56.767 22.4006C56.4229 22.3078 56.0598 22.2866 55.7027 22.3329C55.6816 22.3358 55.6596 22.3339 55.6395 22.3291C55.3245 22.245 54.9985 22.2064 54.6765 22.2286Z" fill="#69A4FF"/>
</g>
<defs>
<filter id="filter0_i_2556_7692" x="2.36328" y="2.36475" width="79.2715" height="78.271" filterUnits="userSpaceOnUse" color-interpolation-filters="sRGB">
<feFlood flood-opacity="0" result="BackgroundImageFix"/>
<feBlend mode="normal" in="SourceGraphic" in2="BackgroundImageFix" result="shape"/>
<feColorMatrix in="SourceAlpha" type="matrix" values="0 0 0 0 0 0 0 0 0 0 0 0 0 0 0 0 0 0 127 0" result="hardAlpha"/>
<feOffset dx="4" dy="3"/>
<feGaussianBlur stdDeviation="3.5"/>
<feComposite in2="hardAlpha" operator="arithmetic" k2="-1" k3="1"/>
<feColorMatrix type="matrix" values="0 0 0 0 1 0 0 0 0 1 0 0 0 0 1 0 0 0 0.3 0"/>
<feBlend mode="normal" in2="shape" result="effect1_innerShadow_2556_7692"/>
</filter>
<filter id="filter1_d_2556_7692" x="11.1289" y="16.127" width="64.1387" height="55.4385" filterUnits="userSpaceOnUse" color-interpolation-filters="sRGB">
<feFlood flood-opacity="0" result="BackgroundImageFix"/>
<feColorMatrix in="SourceAlpha" type="matrix" values="0 0 0 0 0 0 0 0 0 0 0 0 0 0 0 0 0 0 127 0" result="hardAlpha"/>
<feOffset dx="3" dy="4"/>
<feGaussianBlur stdDeviation="5"/>
<feComposite in2="hardAlpha" operator="out"/>
<feColorMatrix type="matrix" values="0 0 0 0 0.588235 0 0 0 0 0.74902 0 0 0 0 1 0 0 0 1 0"/>
<feBlend mode="normal" in2="BackgroundImageFix" result="effect1_dropShadow_2556_7692"/>
<feBlend mode="normal" in="SourceGraphic" in2="effect1_dropShadow_2556_7692" result="shape"/>
</filter>
</defs>
</svg>
