<svg width="102" height="85" viewBox="0 0 102 85" fill="none" xmlns="http://www.w3.org/2000/svg">
<g filter="url(#filter0_d_3189_418)">
<path d="M7 21.58C7 17.0513 10.6713 13.38 15.2 13.38H80.8C85.3287 13.38 89 17.0513 89 21.58V62.58C89 67.1087 85.3287 70.78 80.8 70.78H15.2C10.6713 70.78 7 67.1087 7 62.58V21.58Z" fill="#69A4FF"/>
<path d="M16.02 10.1C23.6343 10.1 25.9186 10.1 32.7714 11.3886C39.6243 12.6771 43.4314 15.2543 48 17.8314V64.22C48 64.22 41.0779 61.0544 32.7368 59.71C24.3957 58.3656 16.02 58.2067 16.02 58.2067V10.1Z" fill="white"/>
<path d="M79.98 10.1C72.3657 10.1 70.0814 10.1 63.2286 11.3886C56.3757 12.6771 52.5686 15.2543 48 17.8314V64.22C48 64.22 54.9221 61.0544 63.2632 59.71C71.6043 58.3656 79.98 58.2067 79.98 58.2067V10.1Z" fill="white"/>
<path d="M16.02 6C23.7304 6 26.3091 6.00197 33.5299 7.35973C40.0234 8.58087 44.2036 10.9157 48 13.1061C51.7964 10.9157 55.9766 8.58087 62.4701 7.35973C69.6909 6.00197 72.2696 6 79.98 6H84.08V62.2293L80.0585 62.3061H80.0425C80.0295 62.3064 80.0083 62.3071 79.98 62.3077C79.9231 62.3091 79.8359 62.3109 79.7205 62.3141C79.489 62.3207 79.1439 62.332 78.702 62.3494C77.8173 62.3841 76.5461 62.4437 75.02 62.5448C71.9563 62.7477 67.9152 63.1127 63.9163 63.7571C60.0502 64.3803 56.4727 65.4342 53.8441 66.3437C52.5367 66.796 51.48 67.2078 50.7595 67.5016C50.4001 67.6481 50.1254 67.7649 49.9459 67.8427C49.8561 67.8817 49.7894 67.9111 49.7489 67.9292C49.729 67.9381 49.7146 67.9435 49.7073 67.9468H49.7041L49.7057 67.9484L49.7009 67.95L48 68.7284L46.2975 67.95L46.2959 67.9484L46.2943 67.9468C46.287 67.9435 46.271 67.9381 46.2511 67.9292C46.2106 67.9111 46.1439 67.8817 46.0541 67.8427C45.8746 67.7649 45.5999 67.6481 45.2405 67.5016C44.52 67.2078 43.4633 66.796 42.1559 66.3437C39.5273 65.4342 35.9498 64.3803 32.0837 63.7571C28.0848 63.1127 24.0437 62.7477 20.98 62.5448C19.4539 62.4437 18.1827 62.3841 17.298 62.3494C16.8561 62.332 16.511 62.3207 16.2795 62.3141C16.1641 62.3109 16.0769 62.3091 16.02 62.3077C15.9917 62.3071 15.9705 62.3064 15.9575 62.3061H15.9415L11.92 62.2293V6H16.02ZM79.98 10.1C72.3657 10.1 70.0814 10.1 63.2286 11.3886L61.9784 11.6455C55.8971 12.9998 52.2829 15.4154 48 17.8314L44.6575 15.9185C41.6147 14.202 38.4815 12.6387 34.0216 11.6455L32.7714 11.3886C25.9186 10.1 23.6343 10.1 16.02 10.1V58.2067C16.02 58.2067 24.3957 58.3656 32.7368 59.71C38.9921 60.7182 44.4496 62.7509 46.7876 63.7043L48 64.22C48.0031 64.2186 54.0859 61.4374 61.7174 59.9823L63.2632 59.71C71.6043 58.3656 79.98 58.2067 79.98 58.2067V10.1Z" fill="#69A4FF"/>
</g>
<path d="M20.2695 42V31.3945H22.2812V33.1328H22.3984C22.8477 31.9414 23.8828 31.2578 25.2891 31.2578C26.6953 31.2578 27.6914 31.9609 28.1406 33.1328H28.2578C28.7656 31.9805 29.8984 31.2578 31.4414 31.2578C33.3555 31.2578 34.7227 32.4688 34.7227 34.8906V42H32.6328V35.0859C32.6328 33.6602 31.7344 33.0547 30.6406 33.0547C29.293 33.0547 28.5312 33.9727 28.5312 35.2422V42H26.4609V34.9688C26.4609 33.8164 25.6602 33.0547 24.5273 33.0547C23.3555 33.0547 22.3594 34.0312 22.3594 35.457V42H20.2695ZM38.1406 45.9844C37.7109 45.9844 37.3008 45.9648 37.0273 45.9258V44.1875C37.2617 44.207 37.6719 44.2266 37.9648 44.2266C38.6094 44.2266 39.1562 44.168 39.6445 42.8398L39.8984 42.1367L36.0117 31.3945H38.2383L40.9141 39.6172H41.0312L43.707 31.3945H45.9531L41.5781 43.4062C40.9727 45.0859 39.8789 45.9844 38.1406 45.9844ZM60.1133 34.9297C60.1133 39.4414 57.3984 42.1953 53.7461 42.1953C50.0547 42.1953 47.3594 39.4414 47.3594 34.9297C47.3594 30.3984 50.0547 27.6641 53.7461 27.6641C57.3984 27.6641 60.1133 30.3984 60.1133 34.9297ZM57.9844 34.9297C57.9844 31.4922 56.168 29.6367 53.7461 29.6367C51.3047 29.6367 49.4883 31.4922 49.4883 34.9297C49.4883 38.3672 51.3047 40.2227 53.7461 40.2227C56.168 40.2227 57.9844 38.3672 57.9844 34.9297ZM73.9414 27.8594V42H71.9688L64.8008 31.668H64.6836V42H62.5352V27.8594H64.5273L71.6953 38.2109H71.832V27.8594H73.9414Z" fill="#69A4FF"/>
<defs>
<filter id="filter0_d_3189_418" x="0" y="0" width="102" height="84.78" filterUnits="userSpaceOnUse" color-interpolation-filters="sRGB">
<feFlood flood-opacity="0" result="BackgroundImageFix"/>
<feColorMatrix in="SourceAlpha" type="matrix" values="0 0 0 0 0 0 0 0 0 0 0 0 0 0 0 0 0 0 127 0" result="hardAlpha"/>
<feOffset dx="3" dy="4"/>
<feGaussianBlur stdDeviation="5"/>
<feComposite in2="hardAlpha" operator="out"/>
<feColorMatrix type="matrix" values="0 0 0 0 0.192157 0 0 0 0 0.509804 0 0 0 0 0.964706 0 0 0 0.25 0"/>
<feBlend mode="normal" in2="BackgroundImageFix" result="effect1_dropShadow_3189_418"/>
<feBlend mode="normal" in="SourceGraphic" in2="effect1_dropShadow_3189_418" result="shape"/>
</filter>
</defs>
</svg>
