<svg width="180" height="180" viewBox="0 0 180 180" fill="none" xmlns="http://www.w3.org/2000/svg">
<circle cx="90" cy="90" r="90" fill="#CCE0FF"/>
<g filter="url(#filter0_i_577_873)">
<circle cx="90.0001" cy="89.9999" r="84.6798" fill="white"/>
</g>
<path d="M49 73.58C49 69.0513 52.6713 65.38 57.2 65.38H122.8C127.329 65.38 131 69.0513 131 73.58V114.58C131 119.109 127.329 122.78 122.8 122.78H57.2C52.6713 122.78 49 119.109 49 114.58V73.58Z" fill="#69A4FF"/>
<path d="M58.02 62.1C65.6343 62.1 67.9186 62.1 74.7714 63.3886C81.6243 64.6771 85.4314 67.2543 90 69.8314V116.22C90 116.22 83.0779 113.054 74.7368 111.71C66.3957 110.366 58.02 110.207 58.02 110.207V62.1Z" fill="white"/>
<path d="M121.98 62.1C114.366 62.1 112.081 62.1 105.229 63.3886C98.3757 64.6771 94.5686 67.2543 90 69.8314V116.22C90 116.22 96.9221 113.054 105.263 111.71C113.604 110.366 121.98 110.207 121.98 110.207V62.1Z" fill="white"/>
<path d="M58.02 58C65.7304 58 68.3091 58.002 75.5299 59.3597C82.0234 60.5809 86.2036 62.9157 90 65.1061C93.7964 62.9157 97.9766 60.5809 104.47 59.3597C111.691 58.002 114.27 58 121.98 58H126.08V114.229L122.058 114.306H122.042C122.029 114.306 122.008 114.307 121.98 114.308C121.923 114.309 121.836 114.311 121.721 114.314C121.489 114.321 121.144 114.332 120.702 114.349C119.817 114.384 118.546 114.444 117.02 114.545C113.956 114.748 109.915 115.113 105.916 115.757C102.05 116.38 98.4727 117.434 95.8441 118.344C94.5367 118.796 93.48 119.208 92.7595 119.502C92.4001 119.648 92.1254 119.765 91.9459 119.843C91.8561 119.882 91.7894 119.911 91.7489 119.929C91.729 119.938 91.7146 119.944 91.7073 119.947H91.7041L91.7057 119.948L91.7009 119.95L90 120.728L88.2975 119.95L88.2959 119.948L88.2943 119.947C88.287 119.944 88.271 119.938 88.2511 119.929C88.2106 119.911 88.1439 119.882 88.0541 119.843C87.8746 119.765 87.5999 119.648 87.2405 119.502C86.52 119.208 85.4633 118.796 84.1559 118.344C81.5273 117.434 77.9498 116.38 74.0837 115.757C70.0848 115.113 66.0437 114.748 62.98 114.545C61.4539 114.444 60.1827 114.384 59.298 114.349C58.8561 114.332 58.511 114.321 58.2795 114.314C58.1641 114.311 58.0769 114.309 58.02 114.308C57.9917 114.307 57.9705 114.306 57.9575 114.306H57.9415L53.92 114.229V58H58.02ZM121.98 62.1C114.366 62.1 112.081 62.1 105.229 63.3886L103.978 63.6455C97.8971 64.9998 94.2829 67.4154 90 69.8314L86.6575 67.9185C83.6147 66.202 80.4815 64.6387 76.0216 63.6455L74.7714 63.3886C67.9186 62.1 65.6343 62.1 58.02 62.1V110.207C58.02 110.207 66.3957 110.366 74.7368 111.71C80.9921 112.718 86.4496 114.751 88.7876 115.704L90 116.22C90.0031 116.219 96.0859 113.437 103.717 111.982L105.263 111.71C113.604 110.366 121.98 110.207 121.98 110.207V62.1Z" fill="#69A4FF"/>
<path d="M64.1318 94V83.9248H66.3955V85.6318H66.5254C66.9336 84.4814 67.9541 83.7949 69.29 83.7949C70.6631 83.7949 71.6279 84.4814 72.0176 85.6318H72.1289C72.5742 84.5186 73.6875 83.7949 75.1533 83.7949C76.9902 83.7949 78.2891 84.9824 78.2891 87.2275V94H75.9326V87.5986C75.9326 86.3369 75.1719 85.7803 74.207 85.7803C73.0381 85.7803 72.3701 86.5781 72.3701 87.71V94H70.0693V87.5059C70.0693 86.4668 69.3643 85.7803 68.3623 85.7803C67.3418 85.7803 66.5068 86.6152 66.5068 87.877V94H64.1318ZM81.6104 97.7852C81.1465 97.7852 80.6826 97.7666 80.3857 97.7295V95.8369C80.6826 95.8555 81.0723 95.874 81.3877 95.874C81.9629 95.874 82.4453 95.8184 82.8535 94.7422L83.0576 94.2041L79.3838 83.9248H81.8887L84.2266 91.5322H84.3379L86.6758 83.9248H89.1807L85.1357 95.2246C84.5605 96.8389 83.5029 97.7852 81.6104 97.7852ZM102.763 87.2832C102.763 91.625 100.128 94.1855 96.6025 94.1855C93.0771 94.1855 90.4424 91.6064 90.4424 87.2832C90.4424 82.9414 93.0771 80.3809 96.6025 80.3809C100.128 80.3809 102.763 82.9414 102.763 87.2832ZM100.332 87.2832C100.332 84.2217 98.792 82.5518 96.6025 82.5518C94.4131 82.5518 92.873 84.2217 92.873 87.2832C92.873 90.3447 94.4131 92.0146 96.6025 92.0146C98.792 92.0146 100.332 90.3447 100.332 87.2832ZM115.955 80.5664V94H113.803L107.438 84.8154H107.327V94H104.915V80.5664H107.104L113.432 89.751H113.562V80.5664H115.955Z" fill="#69A4FF"/>
<defs>
<filter id="filter0_i_577_873" x="5.32031" y="5.32007" width="173.359" height="172.36" filterUnits="userSpaceOnUse" color-interpolation-filters="sRGB">
<feFlood flood-opacity="0" result="BackgroundImageFix"/>
<feBlend mode="normal" in="SourceGraphic" in2="BackgroundImageFix" result="shape"/>
<feColorMatrix in="SourceAlpha" type="matrix" values="0 0 0 0 0 0 0 0 0 0 0 0 0 0 0 0 0 0 127 0" result="hardAlpha"/>
<feOffset dx="4" dy="3"/>
<feGaussianBlur stdDeviation="3.5"/>
<feComposite in2="hardAlpha" operator="arithmetic" k2="-1" k3="1"/>
<feColorMatrix type="matrix" values="0 0 0 0 1 0 0 0 0 1 0 0 0 0 1 0 0 0 0.3 0"/>
<feBlend mode="normal" in2="shape" result="effect1_innerShadow_577_873"/>
</filter>
</defs>
</svg>
