<svg width="160" height="160" viewBox="0 0 160 160" fill="none" xmlns="http://www.w3.org/2000/svg">
<circle cx="80" cy="80" r="78.5" fill="white" stroke="#1E96FF" stroke-width="3"/>
<path d="M39 63.58C39 59.0513 42.6713 55.38 47.2 55.38H112.8C117.329 55.38 121 59.0513 121 63.58V104.58C121 109.109 117.329 112.78 112.8 112.78H47.2C42.6713 112.78 39 109.109 39 104.58V63.58Z" fill="#69A4FF"/>
<path d="M48.02 52.1C55.6343 52.1 57.9186 52.1 64.7714 53.3886C71.6243 54.6771 75.4314 57.2543 80 59.8314V106.22C80 106.22 73.0779 103.054 64.7368 101.71C56.3957 100.366 48.02 100.207 48.02 100.207V52.1Z" fill="white"/>
<path d="M111.98 52.1C104.366 52.1 102.081 52.1 95.2286 53.3886C88.3757 54.6771 84.5686 57.2543 80 59.8314V106.22C80 106.22 86.9221 103.054 95.2632 101.71C103.604 100.366 111.98 100.207 111.98 100.207V52.1Z" fill="white"/>
<path d="M48.02 48C55.7304 48 58.3091 48.002 65.5299 49.3597C72.0234 50.5809 76.2036 52.9157 80 55.1061C83.7964 52.9157 87.9766 50.5809 94.4701 49.3597C101.691 48.002 104.27 48 111.98 48H116.08V104.229L112.058 104.306H112.042C112.029 104.306 112.008 104.307 111.98 104.308C111.923 104.309 111.836 104.311 111.721 104.314C111.489 104.321 111.144 104.332 110.702 104.349C109.817 104.384 108.546 104.444 107.02 104.545C103.956 104.748 99.9152 105.113 95.9163 105.757C92.0502 106.38 88.4727 107.434 85.8441 108.344C84.5367 108.796 83.48 109.208 82.7595 109.502C82.4001 109.648 82.1254 109.765 81.9459 109.843C81.8561 109.882 81.7894 109.911 81.7489 109.929C81.729 109.938 81.7146 109.944 81.7073 109.947H81.7041L81.7057 109.948L81.7009 109.95L80 110.728L78.2975 109.95L78.2959 109.948L78.2943 109.947C78.287 109.944 78.271 109.938 78.2511 109.929C78.2106 109.911 78.1439 109.882 78.0541 109.843C77.8746 109.765 77.5999 109.648 77.2405 109.502C76.52 109.208 75.4633 108.796 74.1559 108.344C71.5273 107.434 67.9498 106.38 64.0837 105.757C60.0848 105.113 56.0437 104.748 52.98 104.545C51.4539 104.444 50.1827 104.384 49.298 104.349C48.8561 104.332 48.511 104.321 48.2795 104.314C48.1641 104.311 48.0769 104.309 48.02 104.308C47.9917 104.307 47.9705 104.306 47.9575 104.306H47.9415L43.92 104.229V48H48.02ZM111.98 52.1C104.366 52.1 102.081 52.1 95.2286 53.3886L93.9784 53.6455C87.8971 54.9998 84.2829 57.4154 80 59.8314L76.6575 57.9185C73.6147 56.202 70.4815 54.6387 66.0216 53.6455L64.7714 53.3886C57.9186 52.1 55.6343 52.1 48.02 52.1V100.207C48.02 100.207 56.3957 100.366 64.7368 101.71C70.9921 102.718 76.4496 104.751 78.7876 105.704L80 106.22C80.0031 106.219 86.0859 103.437 93.7174 101.982L95.2632 101.71C103.604 100.366 111.98 100.207 111.98 100.207V52.1Z" fill="#69A4FF"/>
<path d="M54.1318 84V73.9248H56.3955V75.6318H56.5254C56.9336 74.4814 57.9541 73.7949 59.29 73.7949C60.6631 73.7949 61.6279 74.4814 62.0176 75.6318H62.1289C62.5742 74.5186 63.6875 73.7949 65.1533 73.7949C66.9902 73.7949 68.2891 74.9824 68.2891 77.2275V84H65.9326V77.5986C65.9326 76.3369 65.1719 75.7803 64.207 75.7803C63.0381 75.7803 62.3701 76.5781 62.3701 77.71V84H60.0693V77.5059C60.0693 76.4668 59.3643 75.7803 58.3623 75.7803C57.3418 75.7803 56.5068 76.6152 56.5068 77.877V84H54.1318ZM71.6104 87.7852C71.1465 87.7852 70.6826 87.7666 70.3857 87.7295V85.8369C70.6826 85.8555 71.0723 85.874 71.3877 85.874C71.9629 85.874 72.4453 85.8184 72.8535 84.7422L73.0576 84.2041L69.3838 73.9248H71.8887L74.2266 81.5322H74.3379L76.6758 73.9248H79.1807L75.1357 85.2246C74.5605 86.8389 73.5029 87.7852 71.6104 87.7852ZM92.7627 77.2832C92.7627 81.625 90.1279 84.1855 86.6025 84.1855C83.0771 84.1855 80.4424 81.6064 80.4424 77.2832C80.4424 72.9414 83.0771 70.3809 86.6025 70.3809C90.1279 70.3809 92.7627 72.9414 92.7627 77.2832ZM90.332 77.2832C90.332 74.2217 88.792 72.5518 86.6025 72.5518C84.4131 72.5518 82.873 74.2217 82.873 77.2832C82.873 80.3447 84.4131 82.0146 86.6025 82.0146C88.792 82.0146 90.332 80.3447 90.332 77.2832ZM105.955 70.5664V84H103.803L97.4385 74.8154H97.3271V84H94.915V70.5664H97.1045L103.432 79.751H103.562V70.5664H105.955Z" fill="#69A4FF"/>
</svg>
