<svg width="72" height="80" viewBox="0 0 72 80" fill="none" xmlns="http://www.w3.org/2000/svg">
<path d="M2.25049 19.7264C2.25049 18.1936 2.88258 16.7236 4.00771 15.6398C5.13284 14.5559 6.65885 13.947 8.25002 13.947H62.2458C63.837 13.947 65.363 14.5559 66.4881 15.6398C67.6132 16.7236 68.2453 18.1936 68.2453 19.7264V65.9616C68.2453 67.4944 67.6132 68.9644 66.4881 70.0483C65.363 71.1321 63.837 71.741 62.2458 71.741H8.25002C6.65885 71.741 5.13284 71.1321 4.00771 70.0483C2.88258 68.9644 2.25049 67.4944 2.25049 65.9616V19.7264Z" fill="#FAFAFA"/>
<path fill-rule="evenodd" clip-rule="evenodd" d="M0 19.7257C0 17.6181 0.869126 15.5969 2.41618 14.1066C3.96323 12.6163 6.06149 11.7791 8.24936 11.7791H62.2451C64.433 11.7791 66.5313 12.6163 68.0783 14.1066C69.6254 15.5969 70.4945 17.6181 70.4945 19.7257V65.9609C70.4945 68.0685 69.6254 70.0898 68.0783 71.5801C66.5313 73.0704 64.433 73.9076 62.2451 73.9076H8.24936C6.06149 73.9076 3.96323 73.0704 2.41618 71.5801C0.869126 70.0898 0 68.0685 0 65.9609V19.7257ZM8.24936 16.1136C6.17952 16.1136 4.49965 17.7318 4.49965 19.7257V65.9609C4.49965 67.9548 6.17952 69.573 8.24936 69.573H62.2451C64.315 69.573 65.9949 67.9548 65.9949 65.9609V19.7257C65.9949 17.7318 64.315 16.1136 62.2451 16.1136H8.24936Z" fill="#69A4FF"/>
<g filter="url(#filter0_d_3189_429)">
<path fill-rule="evenodd" clip-rule="evenodd" d="M14.2484 6C14.8451 6 15.4173 6.22834 15.8392 6.63478C16.2612 7.04122 16.4982 7.59248 16.4982 8.16727V19.7261C16.4982 20.3009 16.2612 20.8521 15.8392 21.2586C15.4173 21.665 14.8451 21.8933 14.2484 21.8933C13.6517 21.8933 13.0794 21.665 12.6575 21.2586C12.2356 20.8521 11.9985 20.3009 11.9985 19.7261V8.16727C11.9985 7.59248 12.2356 7.04122 12.6575 6.63478C13.0794 6.22834 13.6517 6 14.2484 6ZM35.2467 6C35.8434 6 36.4157 6.22834 36.8376 6.63478C37.2595 7.04122 37.4965 7.59248 37.4965 8.16727V19.7261C37.4965 20.3009 37.2595 20.8521 36.8376 21.2586C36.4157 21.665 35.8434 21.8933 35.2467 21.8933C34.65 21.8933 34.0778 21.665 33.6559 21.2586C33.2339 20.8521 32.9969 20.3009 32.9969 19.7261V8.16727C32.9969 7.59248 33.2339 7.04122 33.6559 6.63478C34.0778 6.22834 34.65 6 35.2467 6ZM56.2451 6C56.8418 6 57.414 6.22834 57.836 6.63478C58.2579 7.04122 58.4949 7.59248 58.4949 8.16727V19.7261C58.4949 20.3009 58.2579 20.8521 57.836 21.2586C57.414 21.665 56.8418 21.8933 56.2451 21.8933C55.6484 21.8933 55.0761 21.665 54.6542 21.2586C54.2323 20.8521 53.9953 20.3009 53.9953 19.7261V8.16727C53.9953 7.59248 54.2323 7.04122 54.6542 6.63478C55.0761 6.22834 55.6484 6 56.2451 6Z" fill="#69A4FF"/>
</g>
<path fill-rule="evenodd" clip-rule="evenodd" d="M8.24936 11.7791C6.06149 11.7791 3.96323 12.6163 2.41618 14.1066C0.869126 15.5969 0 17.6181 0 19.7257V25.5051C0 26.7015 1.00792 27.6724 2.24982 27.6724H68.2447C68.8414 27.6724 69.4136 27.4441 69.8355 27.0376C70.2575 26.6312 70.4945 26.0799 70.4945 25.5051V19.7257C70.4945 17.6181 69.6254 15.5969 68.0783 14.1066C66.5313 12.6163 64.433 11.7791 62.2451 11.7791H8.24936Z" fill="#69A4FF"/>
<g filter="url(#filter1_d_3189_429)">
<path fill-rule="evenodd" clip-rule="evenodd" d="M51.656 32.6223C51.236 32.2287 50.6731 32.0084 50.0871 32.0084C49.5011 32.0084 48.9382 32.2287 48.5182 32.6223L31.6145 48.4868L24.9761 42.2537C24.5559 41.8592 23.9924 41.6384 23.4057 41.6384C22.819 41.6384 22.2555 41.8592 21.8353 42.2537L15.6798 48.0331C15.4644 48.235 15.2931 48.4765 15.1762 48.7433C15.0593 49.0101 14.999 49.2967 14.999 49.5863C14.999 49.8759 15.0593 50.1625 15.1762 50.4293C15.2931 50.6961 15.4644 50.9376 15.6798 51.1395L30.0487 64.6228C30.4687 65.0165 31.0315 65.2367 31.6175 65.2367C32.2035 65.2367 32.7664 65.0165 33.1864 64.6228L57.8145 41.5052C58.0295 41.3033 58.2003 41.062 58.317 40.7955C58.4336 40.529 58.4937 40.2427 58.4937 39.9535C58.4937 39.6643 58.4336 39.3779 58.317 39.1114C58.2003 38.8449 58.0295 38.6036 57.8145 38.4017L51.659 32.6223H51.656Z" fill="#69A4FF"/>
</g>
<defs>
<filter id="filter0_d_3189_429" x="4.99854" y="0" width="66.4966" height="35.8933" filterUnits="userSpaceOnUse" color-interpolation-filters="sRGB">
<feFlood flood-opacity="0" result="BackgroundImageFix"/>
<feColorMatrix in="SourceAlpha" type="matrix" values="0 0 0 0 0 0 0 0 0 0 0 0 0 0 0 0 0 0 127 0" result="hardAlpha"/>
<feOffset dx="3" dy="4"/>
<feGaussianBlur stdDeviation="5"/>
<feComposite in2="hardAlpha" operator="out"/>
<feColorMatrix type="matrix" values="0 0 0 0 0.592157 0 0 0 0 0.752941 0 0 0 0 1 0 0 0 1 0"/>
<feBlend mode="normal" in2="BackgroundImageFix" result="effect1_dropShadow_3189_429"/>
<feBlend mode="normal" in="SourceGraphic" in2="effect1_dropShadow_3189_429" result="shape"/>
</filter>
<filter id="filter1_d_3189_429" x="7.99902" y="26.0084" width="63.4946" height="53.2283" filterUnits="userSpaceOnUse" color-interpolation-filters="sRGB">
<feFlood flood-opacity="0" result="BackgroundImageFix"/>
<feColorMatrix in="SourceAlpha" type="matrix" values="0 0 0 0 0 0 0 0 0 0 0 0 0 0 0 0 0 0 127 0" result="hardAlpha"/>
<feOffset dx="3" dy="4"/>
<feGaussianBlur stdDeviation="5"/>
<feComposite in2="hardAlpha" operator="out"/>
<feColorMatrix type="matrix" values="0 0 0 0 0.694118 0 0 0 0 0.815686 0 0 0 0 1 0 0 0 1 0"/>
<feBlend mode="normal" in2="BackgroundImageFix" result="effect1_dropShadow_3189_429"/>
<feBlend mode="normal" in="SourceGraphic" in2="effect1_dropShadow_3189_429" result="shape"/>
</filter>
</defs>
</svg>
