<svg width="180" height="180" viewBox="0 0 180 180" fill="none" xmlns="http://www.w3.org/2000/svg">
<circle cx="90" cy="90" r="90" fill="#CCE0FF"/>
<g filter="url(#filter0_i_577_871)">
<circle cx="90.0001" cy="90.0001" r="84.6798" fill="white"/>
</g>
<path d="M57.2505 66.7264C57.2505 65.1936 57.8826 63.7236 59.0077 62.6398C60.1328 61.5559 61.6588 60.947 63.25 60.947H117.246C118.837 60.947 120.363 61.5559 121.488 62.6398C122.613 63.7236 123.245 65.1936 123.245 66.7264V112.962C123.245 114.494 122.613 115.964 121.488 117.048C120.363 118.132 118.837 118.741 117.246 118.741H63.25C61.6588 118.741 60.1328 118.132 59.0077 117.048C57.8826 115.964 57.2505 114.494 57.2505 112.962V66.7264Z" fill="#FAFAFA"/>
<path fill-rule="evenodd" clip-rule="evenodd" d="M55 66.7257C55 64.6181 55.8691 62.5969 57.4162 61.1066C58.9632 59.6163 61.0615 58.7791 63.2494 58.7791H117.245C119.433 58.7791 121.531 59.6163 123.078 61.1066C124.625 62.5969 125.494 64.6181 125.494 66.7257V112.961C125.494 115.069 124.625 117.09 123.078 118.58C121.531 120.07 119.433 120.908 117.245 120.908H63.2494C61.0615 120.908 58.9632 120.07 57.4162 118.58C55.8691 117.09 55 115.069 55 112.961V66.7257ZM63.2494 63.1136C61.1795 63.1136 59.4996 64.7318 59.4996 66.7257V112.961C59.4996 114.955 61.1795 116.573 63.2494 116.573H117.245C119.315 116.573 120.995 114.955 120.995 112.961V66.7257C120.995 64.7318 119.315 63.1136 117.245 63.1136H63.2494Z" fill="#69A4FF"/>
<g filter="url(#filter1_d_577_871)">
<path fill-rule="evenodd" clip-rule="evenodd" d="M69.2484 53C69.8451 53 70.4173 53.2283 70.8392 53.6348C71.2612 54.0412 71.4982 54.5925 71.4982 55.1673V66.7261C71.4982 67.3009 71.2612 67.8521 70.8392 68.2586C70.4173 68.665 69.8451 68.8933 69.2484 68.8933C68.6517 68.8933 68.0794 68.665 67.6575 68.2586C67.2356 67.8521 66.9985 67.3009 66.9985 66.7261V55.1673C66.9985 54.5925 67.2356 54.0412 67.6575 53.6348C68.0794 53.2283 68.6517 53 69.2484 53ZM90.2467 53C90.8434 53 91.4157 53.2283 91.8376 53.6348C92.2595 54.0412 92.4965 54.5925 92.4965 55.1673V66.7261C92.4965 67.3009 92.2595 67.8521 91.8376 68.2586C91.4157 68.665 90.8434 68.8933 90.2467 68.8933C89.65 68.8933 89.0778 68.665 88.6559 68.2586C88.2339 67.8521 87.9969 67.3009 87.9969 66.7261V55.1673C87.9969 54.5925 88.2339 54.0412 88.6559 53.6348C89.0778 53.2283 89.65 53 90.2467 53ZM111.245 53C111.842 53 112.414 53.2283 112.836 53.6348C113.258 54.0412 113.495 54.5925 113.495 55.1673V66.7261C113.495 67.3009 113.258 67.8521 112.836 68.2586C112.414 68.665 111.842 68.8933 111.245 68.8933C110.648 68.8933 110.076 68.665 109.654 68.2586C109.232 67.8521 108.995 67.3009 108.995 66.7261V55.1673C108.995 54.5925 109.232 54.0412 109.654 53.6348C110.076 53.2283 110.648 53 111.245 53Z" fill="#69A4FF"/>
</g>
<path fill-rule="evenodd" clip-rule="evenodd" d="M63.2494 58.7791C61.0615 58.7791 58.9632 59.6163 57.4162 61.1066C55.8691 62.5969 55 64.6181 55 66.7257V72.5051C55 73.7015 56.0079 74.6724 57.2498 74.6724H123.245C123.841 74.6724 124.414 74.4441 124.836 74.0376C125.257 73.6312 125.494 73.0799 125.494 72.5051V66.7257C125.494 64.6181 124.625 62.5969 123.078 61.1066C121.531 59.6163 119.433 58.7791 117.245 58.7791H63.2494Z" fill="#69A4FF"/>
<path fill-rule="evenodd" clip-rule="evenodd" d="M106.656 79.6223C106.236 79.2287 105.673 79.0084 105.087 79.0084C104.501 79.0084 103.938 79.2287 103.518 79.6223L86.6145 95.4868L79.9761 89.2537C79.5559 88.8592 78.9924 88.6384 78.4057 88.6384C77.819 88.6384 77.2555 88.8592 76.8353 89.2537L70.6798 95.0331C70.4644 95.235 70.2931 95.4765 70.1762 95.7433C70.0593 96.0101 69.999 96.2967 69.999 96.5863C69.999 96.8759 70.0593 97.1625 70.1762 97.4293C70.2931 97.6961 70.4644 97.9376 70.6798 98.1395L85.0487 111.623C85.4687 112.016 86.0315 112.237 86.6175 112.237C87.2035 112.237 87.7664 112.016 88.1864 111.623L112.815 88.5052C113.029 88.3033 113.2 88.062 113.317 87.7955C113.434 87.529 113.494 87.2427 113.494 86.9535C113.494 86.6643 113.434 86.3779 113.317 86.1114C113.2 85.8449 113.029 85.6036 112.815 85.4017L106.659 79.6223H106.656Z" fill="#69A4FF"/>
<defs>
<filter id="filter0_i_577_871" x="5.32031" y="5.32031" width="173.359" height="172.36" filterUnits="userSpaceOnUse" color-interpolation-filters="sRGB">
<feFlood flood-opacity="0" result="BackgroundImageFix"/>
<feBlend mode="normal" in="SourceGraphic" in2="BackgroundImageFix" result="shape"/>
<feColorMatrix in="SourceAlpha" type="matrix" values="0 0 0 0 0 0 0 0 0 0 0 0 0 0 0 0 0 0 127 0" result="hardAlpha"/>
<feOffset dx="4" dy="3"/>
<feGaussianBlur stdDeviation="3.5"/>
<feComposite in2="hardAlpha" operator="arithmetic" k2="-1" k3="1"/>
<feColorMatrix type="matrix" values="0 0 0 0 1 0 0 0 0 1 0 0 0 0 1 0 0 0 0.3 0"/>
<feBlend mode="normal" in2="shape" result="effect1_innerShadow_577_871"/>
</filter>
<filter id="filter1_d_577_871" x="59.9985" y="47" width="66.4966" height="35.8933" filterUnits="userSpaceOnUse" color-interpolation-filters="sRGB">
<feFlood flood-opacity="0" result="BackgroundImageFix"/>
<feColorMatrix in="SourceAlpha" type="matrix" values="0 0 0 0 0 0 0 0 0 0 0 0 0 0 0 0 0 0 127 0" result="hardAlpha"/>
<feOffset dx="3" dy="4"/>
<feGaussianBlur stdDeviation="5"/>
<feComposite in2="hardAlpha" operator="out"/>
<feColorMatrix type="matrix" values="0 0 0 0 0.592157 0 0 0 0 0.752941 0 0 0 0 1 0 0 0 1 0"/>
<feBlend mode="normal" in2="BackgroundImageFix" result="effect1_dropShadow_577_871"/>
<feBlend mode="normal" in="SourceGraphic" in2="effect1_dropShadow_577_871" result="shape"/>
</filter>
</defs>
</svg>
