<svg width="160" height="160" viewBox="0 0 160 160" fill="none" xmlns="http://www.w3.org/2000/svg">
<circle cx="80" cy="80" r="78.5" fill="white" stroke="#1E96FF" stroke-width="3"/>
<path d="M47.2507 59.7264C47.2507 58.1936 47.8828 56.7236 49.008 55.6398C50.1331 54.5559 51.6591 53.947 53.2503 53.947H107.246C108.837 53.947 110.363 54.5559 111.488 55.6398C112.613 56.7236 113.246 58.1936 113.246 59.7264V105.962C113.246 107.494 112.613 108.964 111.488 110.048C110.363 111.132 108.837 111.741 107.246 111.741H53.2503C51.6591 111.741 50.1331 111.132 49.008 110.048C47.8828 108.964 47.2507 107.494 47.2507 105.962V59.7264Z" fill="#FAFAFA"/>
<path fill-rule="evenodd" clip-rule="evenodd" d="M45 59.7257C45 57.6181 45.8691 55.5969 47.4162 54.1066C48.9632 52.6163 51.0615 51.7791 53.2494 51.7791H107.245C109.433 51.7791 111.531 52.6163 113.078 54.1066C114.625 55.5969 115.494 57.6181 115.494 59.7257V105.961C115.494 108.069 114.625 110.09 113.078 111.58C111.531 113.07 109.433 113.908 107.245 113.908H53.2494C51.0615 113.908 48.9632 113.07 47.4162 111.58C45.8691 110.09 45 108.069 45 105.961V59.7257ZM53.2494 56.1136C51.1795 56.1136 49.4996 57.7318 49.4996 59.7257V105.961C49.4996 107.955 51.1795 109.573 53.2494 109.573H107.245C109.315 109.573 110.995 107.955 110.995 105.961V59.7257C110.995 57.7318 109.315 56.1136 107.245 56.1136H53.2494Z" fill="#69A4FF"/>
<g filter="url(#filter0_d_592_915)">
<path fill-rule="evenodd" clip-rule="evenodd" d="M59.2481 46C59.8448 46 60.4171 46.2283 60.839 46.6348C61.2609 47.0412 61.4979 47.5925 61.4979 48.1673V59.7261C61.4979 60.3009 61.2609 60.8521 60.839 61.2586C60.4171 61.665 59.8448 61.8933 59.2481 61.8933C58.6514 61.8933 58.0792 61.665 57.6572 61.2586C57.2353 60.8521 56.9983 60.3009 56.9983 59.7261V48.1673C56.9983 47.5925 57.2353 47.0412 57.6572 46.6348C58.0792 46.2283 58.6514 46 59.2481 46ZM80.2465 46C80.8432 46 81.4154 46.2283 81.8373 46.6348C82.2593 47.0412 82.4963 47.5925 82.4963 48.1673V59.7261C82.4963 60.3009 82.2593 60.8521 81.8373 61.2586C81.4154 61.665 80.8432 61.8933 80.2465 61.8933C79.6498 61.8933 79.0775 61.665 78.6556 61.2586C78.2337 60.8521 77.9967 60.3009 77.9967 59.7261V48.1673C77.9967 47.5925 78.2337 47.0412 78.6556 46.6348C79.0775 46.2283 79.6498 46 80.2465 46ZM101.245 46C101.842 46 102.414 46.2283 102.836 46.6348C103.258 47.0412 103.495 47.5925 103.495 48.1673V59.7261C103.495 60.3009 103.258 60.8521 102.836 61.2586C102.414 61.665 101.842 61.8933 101.245 61.8933C100.648 61.8933 100.076 61.665 99.654 61.2586C99.232 60.8521 98.995 60.3009 98.995 59.7261V48.1673C98.995 47.5925 99.232 47.0412 99.654 46.6348C100.076 46.2283 100.648 46 101.245 46Z" fill="#69A4FF"/>
</g>
<path fill-rule="evenodd" clip-rule="evenodd" d="M53.2494 51.7791C51.0615 51.7791 48.9632 52.6163 47.4162 54.1066C45.8691 55.5969 45 57.6181 45 59.7257V65.5051C45 66.7015 46.0079 67.6724 47.2498 67.6724H113.245C113.841 67.6724 114.414 67.4441 114.836 67.0376C115.257 66.6312 115.494 66.0799 115.494 65.5051V59.7257C115.494 57.6181 114.625 55.5969 113.078 54.1066C111.531 52.6163 109.433 51.7791 107.245 51.7791H53.2494Z" fill="#69A4FF"/>
<path fill-rule="evenodd" clip-rule="evenodd" d="M96.6557 72.6223C96.2357 72.2287 95.6729 72.0084 95.0869 72.0084C94.5009 72.0084 93.938 72.2287 93.518 72.6223L76.6143 88.4868L69.9758 82.2537C69.5557 81.8592 68.9922 81.6384 68.4054 81.6384C67.8187 81.6384 67.2552 81.8592 66.8351 82.2537L60.6795 88.0331C60.4641 88.235 60.2929 88.4765 60.1759 88.7433C60.059 89.0101 59.9988 89.2967 59.9988 89.5863C59.9988 89.8759 60.059 90.1625 60.1759 90.4293C60.2929 90.6961 60.4641 90.9376 60.6795 91.1395L75.0484 104.623C75.4684 105.016 76.0313 105.237 76.6173 105.237C77.2033 105.237 77.7662 105.016 78.1862 104.623L102.814 81.5052C103.029 81.3033 103.2 81.062 103.317 80.7955C103.433 80.529 103.493 80.2427 103.493 79.9535C103.493 79.6643 103.433 79.3779 103.317 79.1114C103.2 78.8449 103.029 78.6036 102.814 78.4017L96.6587 72.6223H96.6557Z" fill="#69A4FF"/>
<defs>
<filter id="filter0_d_592_915" x="49.9983" y="40" width="66.4963" height="35.8933" filterUnits="userSpaceOnUse" color-interpolation-filters="sRGB">
<feFlood flood-opacity="0" result="BackgroundImageFix"/>
<feColorMatrix in="SourceAlpha" type="matrix" values="0 0 0 0 0 0 0 0 0 0 0 0 0 0 0 0 0 0 127 0" result="hardAlpha"/>
<feOffset dx="3" dy="4"/>
<feGaussianBlur stdDeviation="5"/>
<feComposite in2="hardAlpha" operator="out"/>
<feColorMatrix type="matrix" values="0 0 0 0 0.592157 0 0 0 0 0.752941 0 0 0 0 1 0 0 0 1 0"/>
<feBlend mode="normal" in2="BackgroundImageFix" result="effect1_dropShadow_592_915"/>
<feBlend mode="normal" in="SourceGraphic" in2="effect1_dropShadow_592_915" result="shape"/>
</filter>
</defs>
</svg>
